<svg width="12" height="15" viewBox="0 0 12 15" fill="none" xmlns="http://www.w3.org/2000/svg">
<path d="M4.39435 14.429C2.35868 14.4173 0.674805 10.2618 0.674805 8.14547C0.674805 4.6885 3.26812 3.93168 4.26757 3.93168C4.71797 3.93168 5.19892 4.10855 5.62312 4.26507C5.91976 4.37426 6.22655 4.48697 6.39717 4.48697C6.4993 4.48697 6.73997 4.39109 6.95246 4.30696C7.40562 4.12656 7.96951 3.90234 8.62615 3.90234C8.62733 3.90234 8.62891 3.90234 8.63005 3.90234C9.12037 3.90234 10.607 4.00995 11.5008 5.3522L11.7102 5.66681L11.4089 5.89418C10.9784 6.21898 10.193 6.81145 10.193 7.98505C10.193 9.37504 11.0825 9.90959 11.5098 10.1667C11.6985 10.2802 11.8937 10.3972 11.8937 10.6531C11.8937 10.8202 10.5601 14.4083 8.6234 14.4083C8.14951 14.4083 7.81454 14.2658 7.51908 14.1402C7.22011 14.013 6.96221 13.9035 6.53606 13.9035C6.32005 13.9035 6.04689 14.0056 5.75771 14.114C5.36252 14.2615 4.91521 14.429 4.40766 14.429H4.39435Z" fill="white"/>
<path d="M8.83136 0.750977C8.8818 2.5696 7.5812 3.83127 6.28212 3.75214C6.06805 2.30082 7.58104 0.750977 8.83136 0.750977Z" fill="white"/>
</svg>
