<svg width="14" height="17" viewBox="0 0 14 17" fill="none" xmlns="http://www.w3.org/2000/svg">
<path d="M4.94421 16.4429C2.57446 16.4292 0.614258 11.5918 0.614258 9.12817C0.614258 5.10389 3.63315 4.22287 4.79661 4.22287C5.32093 4.22287 5.8808 4.42877 6.37462 4.61098C6.71993 4.73808 7.07707 4.86928 7.2757 4.86928C7.39459 4.86928 7.67475 4.75767 7.92211 4.65974C8.44964 4.44973 9.10606 4.18872 9.87047 4.18872C9.87184 4.18872 9.87367 4.18872 9.87501 4.18872C10.4458 4.18872 12.1764 4.31399 13.2169 5.8765L13.4606 6.24275L13.1099 6.50743C12.6088 6.88553 11.6945 7.57523 11.6945 8.94142C11.6945 10.5595 12.7299 11.1818 13.2274 11.4811C13.447 11.6132 13.6743 11.7494 13.6743 12.0473C13.6743 12.2418 12.1218 16.4187 9.86726 16.4187C9.31561 16.4187 8.92566 16.2529 8.58171 16.1067C8.23369 15.9586 7.93346 15.8311 7.43738 15.8311C7.18591 15.8311 6.86793 15.95 6.53129 16.0762C6.07125 16.2479 5.55053 16.4429 4.95969 16.4429H4.94421Z" fill="white"/>
<path d="M10.1095 0.519775C10.1682 2.63684 8.65418 4.10557 7.14191 4.01345C6.89272 2.32396 8.65399 0.519775 10.1095 0.519775Z" fill="white"/>
</svg>
