<svg width="15" height="18" viewBox="0 0 15 18" fill="none" xmlns="http://www.w3.org/2000/svg">
<path d="M4.96377 17.9687C2.31034 17.9534 0.115479 12.5368 0.115479 9.77832C0.115479 5.27228 3.49577 4.28579 4.79851 4.28579C5.3856 4.28579 6.01249 4.51635 6.56542 4.72036C6.95207 4.86268 7.35196 5.00959 7.57437 5.00959C7.70749 5.00959 8.0212 4.88462 8.29817 4.77496C8.88884 4.53981 9.62385 4.24756 10.4798 4.24756C10.4813 4.24756 10.4834 4.24756 10.4848 4.24756C11.124 4.24756 13.0618 4.38782 14.2268 6.13739L14.4997 6.54748L14.1069 6.84384C13.5459 7.2672 12.5221 8.03947 12.5221 9.56921C12.5221 11.381 13.6815 12.0778 14.2385 12.4129C14.4844 12.5608 14.7389 12.7133 14.7389 13.0469C14.7389 13.2647 13.0006 17.9416 10.4762 17.9416C9.85848 17.9416 9.42185 17.756 9.03673 17.5922C8.64704 17.4265 8.31088 17.2837 7.7554 17.2837C7.47384 17.2837 7.11779 17.4168 6.74085 17.5581C6.22573 17.7503 5.64268 17.9687 4.98111 17.9687H4.96377Z" fill="white"/>
<path d="M10.7472 0.140137C10.813 2.51064 9.11769 4.15519 7.42439 4.05205C7.14536 2.1603 9.11748 0.140137 10.7472 0.140137Z" fill="white"/>
</svg>
