<svg width="12" height="14" viewBox="0 0 12 14" fill="none" xmlns="http://www.w3.org/2000/svg">
<path d="M4.26543 13.9504C2.22816 13.9387 0.542969 9.77994 0.542969 7.66198C0.542969 4.2023 3.13832 3.44488 4.13854 3.44488C4.5893 3.44488 5.07062 3.6219 5.49516 3.77854C5.79203 3.88781 6.09906 4.00061 6.26982 4.00061C6.37203 4.00061 6.61289 3.90465 6.82554 3.82046C7.27906 3.63992 7.84339 3.41553 8.50055 3.41553C8.50172 3.41553 8.5033 3.41553 8.50445 3.41553C8.99515 3.41553 10.483 3.52322 11.3775 4.86652L11.587 5.18138L11.2854 5.40893C10.8547 5.73398 10.0686 6.32691 10.0686 7.50143C10.0686 8.89251 10.9588 9.42748 11.3865 9.68478C11.5753 9.79836 11.7707 9.91546 11.7707 10.1716C11.7707 10.3388 10.436 13.9297 8.49779 13.9297C8.02353 13.9297 7.6883 13.7871 7.3926 13.6614C7.0934 13.5341 6.8353 13.4245 6.40882 13.4245C6.19263 13.4245 5.91926 13.5267 5.62985 13.6352C5.23435 13.7828 4.78669 13.9504 4.27875 13.9504H4.26543Z" fill="white"/>
<path d="M8.70594 0.261719C8.75641 2.08176 7.45479 3.34443 6.15469 3.26524C5.94046 1.81278 7.45463 0.261719 8.70594 0.261719Z" fill="white"/>
</svg>
