<svg width="1921" height="604" viewBox="0 0 1921 604" fill="none" xmlns="http://www.w3.org/2000/svg">
<mask id="mask0_461:3356" style="mask-type:alpha" maskUnits="userSpaceOnUse" x="0" y="0" width="1921" height="604">
<rect x="0.645508" width="1920" height="604" fill="#FFFAFA"/>
</mask>
<g mask="url(#mask0_461:3356)">
<rect x="0.645508" width="1920" height="604" fill="#FFFAFA"/>
<path d="M3.64551 287L140.478 524H-133.187L3.64551 287Z" fill="#FFA85A" fill-opacity="0.12"/>
<path d="M-9.35449 193L127.478 430H-146.187L-9.35449 193Z" fill="#FFA85A" fill-opacity="0.12"/>
<path d="M1899.18 364.607L1691.9 450.116L1721.49 227.856L1899.18 364.607Z" fill="#747474" fill-opacity="0.12"/>
<path d="M1868.08 422.928L1660.81 508.437L1690.39 286.178L1868.08 422.928Z" fill="#747474" fill-opacity="0.12"/>
<path d="M1834.45 489.679L1627.18 575.188L1656.76 352.929L1834.45 489.679Z" fill="#747474" fill-opacity="0.12"/>
<path d="M1822.65 288.5C1822.65 297.06 1815.71 304 1807.15 304C1798.59 304 1791.65 297.06 1791.65 288.5C1791.65 279.94 1798.59 273 1807.15 273C1815.71 273 1822.65 279.94 1822.65 288.5Z" fill="#FFB546"/>
<path d="M202.646 415C202.646 461.944 164.59 500 117.646 500C70.7013 500 32.6455 461.944 32.6455 415C32.6455 368.056 70.7013 330 117.646 330C164.59 330 202.646 368.056 202.646 415Z" fill="#DF3E3F"/>
<path d="M209.646 280.491C209.646 300.102 193.752 316 174.146 316C154.539 316 138.646 300.102 138.646 280.491C138.646 260.88 154.539 244.982 174.146 244.982C193.752 244.982 209.646 260.88 209.646 280.491Z" fill="#6CBEDC"/>
<path fill-rule="evenodd" clip-rule="evenodd" d="M948.7 370.33C928.395 371.349 908.329 372.601 888.76 373.971C861.059 375.908 833.369 377.912 805.845 381.085C797.182 382.087 788.383 382.722 779.774 383.974C774.369 384.759 767.203 385.878 766.262 386.112C765.771 386.246 765.556 386.446 765.487 386.513C764.999 386.981 765.088 387.431 765.363 387.782C765.474 387.932 765.753 388.3 766.529 388.35C818.412 391.774 871.465 385.093 923.411 384.392C1013.49 383.19 1106.31 387.966 1195.68 398.387C1196.46 398.47 1197.22 398.053 1197.32 397.435C1197.45 396.834 1196.89 396.249 1196.11 396.166C1106.59 385.728 1013.62 380.935 923.368 382.154C874.956 382.805 825.589 388.667 777.111 386.663C778.224 386.496 779.317 386.329 780.313 386.179C788.888 384.926 797.65 384.308 806.279 383.306C833.744 380.133 861.378 378.129 889.042 376.209C923.368 373.804 959.189 371.733 995.291 370.764C1008.21 370.915 1021.08 371.065 1033.95 371.249C1061.8 371.65 1089.77 372.819 1117.56 374.388C1125.92 374.873 1134.28 375.374 1142.65 375.808C1145.42 375.958 1152.57 376.392 1153.57 376.359C1154.81 376.326 1155.04 375.524 1155.07 375.39C1155.13 375.09 1155.09 374.672 1154.48 374.322C1154.42 374.271 1154.03 374.104 1153.16 374.004C1102.65 368.092 1048.71 367.107 995.335 368.527C939.035 367.909 882.519 367.641 826.363 367.357C825.559 367.357 824.902 367.859 824.896 368.476C824.891 369.094 825.539 369.595 826.343 369.612C867.005 369.813 907.873 370.013 948.7 370.33Z" fill="#FFB546"/>
<path d="M788.395 427L785.95 416.5H787.36L789.115 424.51L791.275 416.5H792.46L794.635 424.51L796.375 416.5H797.815L795.37 427H794.11L791.875 418.78L789.625 427H788.395ZM803.123 427.165C802.443 427.165 801.843 427.02 801.323 426.73C800.803 426.44 800.398 426.015 800.108 425.455C799.818 424.885 799.673 424.2 799.673 423.4C799.673 422.63 799.818 421.965 800.108 421.405C800.398 420.835 800.793 420.395 801.293 420.085C801.803 419.775 802.388 419.62 803.048 419.62C803.708 419.62 804.268 419.785 804.728 420.115C805.198 420.435 805.553 420.865 805.793 421.405C806.043 421.945 806.168 422.535 806.168 423.175V423.535H800.993C801.013 424.335 801.213 424.945 801.593 425.365C801.983 425.775 802.498 425.98 803.138 425.98C803.648 425.98 804.068 425.855 804.398 425.605C804.738 425.355 805.023 424.98 805.253 424.48L806.273 425.155C805.933 425.855 805.498 426.365 804.968 426.685C804.448 427.005 803.833 427.165 803.123 427.165ZM801.068 422.455H804.848C804.768 421.935 804.568 421.515 804.248 421.195C803.928 420.875 803.523 420.715 803.033 420.715C802.513 420.715 802.083 420.865 801.743 421.165C801.403 421.455 801.178 421.885 801.068 422.455ZM817.264 427.12C816.534 427.14 815.929 426.975 815.449 426.625C814.979 426.265 814.744 425.75 814.744 425.08C814.744 424.59 814.899 424.165 815.209 423.805C815.529 423.445 815.934 423.165 816.424 422.965C816.924 422.755 817.439 422.65 817.969 422.65C818.279 422.63 818.564 422.66 818.824 422.74C819.084 422.81 819.309 422.915 819.499 423.055V422.155C819.499 421.595 819.379 421.23 819.139 421.06C818.909 420.89 818.549 420.805 818.059 420.805C817.639 420.805 817.189 420.88 816.709 421.03C816.239 421.18 815.839 421.37 815.509 421.6L814.879 420.55C815.289 420.29 815.774 420.07 816.334 419.89C816.904 419.71 817.479 419.62 818.059 419.62C818.979 419.62 819.664 419.805 820.114 420.175C820.564 420.535 820.789 421.195 820.789 422.155V425.77C820.789 425.96 820.839 426.07 820.939 426.1C821.039 426.13 821.264 426.105 821.614 426.025V426.895C821.484 426.945 821.319 426.995 821.119 427.045C820.919 427.095 820.714 427.12 820.504 427.12C820.184 427.12 819.954 427.06 819.814 426.94C819.674 426.82 819.579 426.605 819.529 426.295C819.259 426.565 818.919 426.765 818.509 426.895C818.099 427.025 817.684 427.1 817.264 427.12ZM817.279 425.935C817.699 425.925 818.079 425.865 818.419 425.755C818.769 425.635 819.044 425.47 819.244 425.26C819.444 425.04 819.534 424.78 819.514 424.48C819.494 424.2 819.349 424 819.079 423.88C818.819 423.76 818.484 423.71 818.074 423.73C817.704 423.74 817.364 423.81 817.054 423.94C816.744 424.06 816.494 424.22 816.304 424.42C816.124 424.62 816.034 424.845 816.034 425.095C816.044 425.375 816.159 425.59 816.379 425.74C816.599 425.88 816.899 425.945 817.279 425.935ZM824.631 427V419.8H825.861L825.936 420.925C826.136 420.535 826.436 420.22 826.836 419.98C827.246 419.74 827.686 419.62 828.156 419.62C828.316 419.62 828.466 419.63 828.606 419.65C828.746 419.67 828.866 419.69 828.966 419.71V421.015C828.856 420.985 828.716 420.96 828.546 420.94C828.376 420.92 828.191 420.91 827.991 420.91C827.431 420.91 826.956 421.095 826.566 421.465C826.176 421.825 825.981 422.3 825.981 422.89V427H824.631ZM834.875 427.165C834.195 427.165 833.595 427.02 833.075 426.73C832.555 426.44 832.15 426.015 831.86 425.455C831.57 424.885 831.425 424.2 831.425 423.4C831.425 422.63 831.57 421.965 831.86 421.405C832.15 420.835 832.545 420.395 833.045 420.085C833.555 419.775 834.14 419.62 834.8 419.62C835.46 419.62 836.02 419.785 836.48 420.115C836.95 420.435 837.305 420.865 837.545 421.405C837.795 421.945 837.92 422.535 837.92 423.175V423.535H832.745C832.765 424.335 832.965 424.945 833.345 425.365C833.735 425.775 834.25 425.98 834.89 425.98C835.4 425.98 835.82 425.855 836.15 425.605C836.49 425.355 836.775 424.98 837.005 424.48L838.025 425.155C837.685 425.855 837.25 426.365 836.72 426.685C836.2 427.005 835.585 427.165 834.875 427.165ZM832.82 422.455H836.6C836.52 421.935 836.32 421.515 836 421.195C835.68 420.875 835.275 420.715 834.785 420.715C834.265 420.715 833.835 420.865 833.495 421.165C833.155 421.455 832.93 421.885 832.82 422.455ZM846.856 427V416.245H848.206V427H846.856ZM854.74 427.165C854.08 427.165 853.49 427.01 852.97 426.7C852.46 426.38 852.055 425.935 851.755 425.365C851.465 424.795 851.32 424.135 851.32 423.385C851.32 422.635 851.465 421.98 851.755 421.42C852.055 420.85 852.46 420.41 852.97 420.1C853.49 419.78 854.08 419.62 854.74 419.62C855.4 419.62 855.985 419.78 856.495 420.1C857.015 420.41 857.42 420.85 857.71 421.42C858.01 421.98 858.16 422.635 858.16 423.385C858.16 424.135 858.01 424.795 857.71 425.365C857.42 425.935 857.015 426.38 856.495 426.7C855.985 427.01 855.4 427.165 854.74 427.165ZM854.74 425.935C855.35 425.935 855.845 425.71 856.225 425.26C856.615 424.8 856.81 424.175 856.81 423.385C856.81 422.595 856.615 421.975 856.225 421.525C855.845 421.075 855.35 420.85 854.74 420.85C854.13 420.85 853.63 421.075 853.24 421.525C852.86 421.975 852.67 422.595 852.67 423.385C852.67 424.175 852.86 424.8 853.24 425.26C853.63 425.71 854.13 425.935 854.74 425.935ZM864.311 427.165C863.651 427.165 863.061 427.01 862.541 426.7C862.031 426.38 861.626 425.935 861.326 425.365C861.036 424.795 860.891 424.135 860.891 423.385C860.891 422.635 861.036 421.98 861.326 421.42C861.626 420.85 862.031 420.41 862.541 420.1C863.061 419.78 863.651 419.62 864.311 419.62C864.971 419.62 865.556 419.78 866.066 420.1C866.586 420.41 866.991 420.85 867.281 421.42C867.581 421.98 867.731 422.635 867.731 423.385C867.731 424.135 867.581 424.795 867.281 425.365C866.991 425.935 866.586 426.38 866.066 426.7C865.556 427.01 864.971 427.165 864.311 427.165ZM864.311 425.935C864.921 425.935 865.416 425.71 865.796 425.26C866.186 424.8 866.381 424.175 866.381 423.385C866.381 422.595 866.186 421.975 865.796 421.525C865.416 421.075 864.921 420.85 864.311 420.85C863.701 420.85 863.201 421.075 862.811 421.525C862.431 421.975 862.241 422.595 862.241 423.385C862.241 424.175 862.431 424.8 862.811 425.26C863.201 425.71 863.701 425.935 864.311 425.935ZM870.853 427V416.245H872.203V422.77L875.053 419.8H876.733L873.508 423.055L876.898 427H875.248L872.203 423.355V427H870.853ZM880.005 427V419.8H881.34V427H880.005ZM880.665 418.45C880.415 418.45 880.2 418.365 880.02 418.195C879.85 418.015 879.765 417.8 879.765 417.55C879.765 417.3 879.85 417.09 880.02 416.92C880.2 416.74 880.415 416.65 880.665 416.65C880.905 416.65 881.11 416.74 881.28 416.92C881.46 417.09 881.55 417.3 881.55 417.55C881.55 417.8 881.46 418.015 881.28 418.195C881.11 418.365 880.905 418.45 880.665 418.45ZM885.073 427V419.8H886.288L886.363 420.73C886.573 420.43 886.853 420.17 887.203 419.95C887.563 419.73 887.973 419.62 888.433 419.62C889.193 419.62 889.808 419.865 890.278 420.355C890.758 420.835 890.998 421.535 890.998 422.455V427H889.663V422.74C889.663 422.11 889.523 421.64 889.243 421.33C888.963 421.01 888.598 420.85 888.148 420.85C887.638 420.85 887.223 421.02 886.903 421.36C886.583 421.69 886.423 422.135 886.423 422.695V427H885.073ZM897.422 430.105C896.022 430.105 894.977 429.555 894.287 428.455L895.367 427.72C895.817 428.48 896.502 428.86 897.422 428.86C898.072 428.86 898.562 428.65 898.892 428.23C899.222 427.82 899.387 427.18 899.387 426.31V425.515C899.147 425.815 898.852 426.05 898.502 426.22C898.162 426.39 897.782 426.475 897.362 426.475C896.742 426.475 896.187 426.34 895.697 426.07C895.207 425.8 894.822 425.41 894.542 424.9C894.272 424.38 894.137 423.76 894.137 423.04C894.137 422.31 894.272 421.695 894.542 421.195C894.822 420.685 895.207 420.295 895.697 420.025C896.187 419.755 896.742 419.62 897.362 419.62C897.802 419.62 898.202 419.715 898.562 419.905C898.932 420.085 899.242 420.34 899.492 420.67L899.537 419.8H900.722V426.31C900.722 427.55 900.437 428.49 899.867 429.13C899.307 429.78 898.492 430.105 897.422 430.105ZM897.452 425.29C898.042 425.29 898.527 425.085 898.907 424.675C899.287 424.265 899.477 423.72 899.477 423.04C899.477 422.36 899.287 421.82 898.907 421.42C898.527 421.02 898.042 420.82 897.452 420.82C896.872 420.82 896.397 421.02 896.027 421.42C895.667 421.82 895.487 422.36 895.487 423.04C895.487 423.72 895.667 424.265 896.027 424.675C896.397 425.085 896.872 425.29 897.452 425.29ZM910.729 427V420.97H909.304V419.8H910.729V418.45C910.729 417.86 910.824 417.395 911.014 417.055C911.204 416.715 911.469 416.475 911.809 416.335C912.149 416.195 912.544 416.125 912.994 416.125C913.464 416.125 913.864 416.175 914.194 416.275V417.505C914.064 417.455 913.914 417.415 913.744 417.385C913.584 417.345 913.419 417.325 913.249 417.325C912.889 417.325 912.599 417.425 912.379 417.625C912.169 417.815 912.064 418.135 912.064 418.585V419.8H914.194V420.97H912.064V427H910.729ZM919.958 427.165C919.298 427.165 918.708 427.01 918.188 426.7C917.678 426.38 917.273 425.935 916.973 425.365C916.683 424.795 916.538 424.135 916.538 423.385C916.538 422.635 916.683 421.98 916.973 421.42C917.273 420.85 917.678 420.41 918.188 420.1C918.708 419.78 919.298 419.62 919.958 419.62C920.618 419.62 921.203 419.78 921.713 420.1C922.233 420.41 922.638 420.85 922.928 421.42C923.228 421.98 923.378 422.635 923.378 423.385C923.378 424.135 923.228 424.795 922.928 425.365C922.638 425.935 922.233 426.38 921.713 426.7C921.203 427.01 920.618 427.165 919.958 427.165ZM919.958 425.935C920.568 425.935 921.063 425.71 921.443 425.26C921.833 424.8 922.028 424.175 922.028 423.385C922.028 422.595 921.833 421.975 921.443 421.525C921.063 421.075 920.568 420.85 919.958 420.85C919.348 420.85 918.848 421.075 918.458 421.525C918.078 421.975 917.888 422.595 917.888 423.385C917.888 424.175 918.078 424.8 918.458 425.26C918.848 425.71 919.348 425.935 919.958 425.935ZM926.499 427V419.8H927.729L927.804 420.925C928.004 420.535 928.304 420.22 928.704 419.98C929.114 419.74 929.554 419.62 930.024 419.62C930.184 419.62 930.334 419.63 930.474 419.65C930.614 419.67 930.734 419.69 930.834 419.71V421.015C930.724 420.985 930.584 420.96 930.414 420.94C930.244 420.92 930.059 420.91 929.859 420.91C929.299 420.91 928.824 421.095 928.434 421.465C928.044 421.825 927.849 422.3 927.849 422.89V427H926.499ZM935.198 427L933.038 419.8H934.328L935.798 425.02L937.268 419.8H938.363L939.833 425.02L941.318 419.8H942.608L940.433 427H939.308L937.823 421.75L936.338 427H935.198ZM947.611 427.12C946.881 427.14 946.276 426.975 945.796 426.625C945.326 426.265 945.091 425.75 945.091 425.08C945.091 424.59 945.246 424.165 945.556 423.805C945.876 423.445 946.281 423.165 946.771 422.965C947.271 422.755 947.786 422.65 948.316 422.65C948.626 422.63 948.911 422.66 949.171 422.74C949.431 422.81 949.656 422.915 949.846 423.055V422.155C949.846 421.595 949.726 421.23 949.486 421.06C949.256 420.89 948.896 420.805 948.406 420.805C947.986 420.805 947.536 420.88 947.056 421.03C946.586 421.18 946.186 421.37 945.856 421.6L945.226 420.55C945.636 420.29 946.121 420.07 946.681 419.89C947.251 419.71 947.826 419.62 948.406 419.62C949.326 419.62 950.011 419.805 950.461 420.175C950.911 420.535 951.136 421.195 951.136 422.155V425.77C951.136 425.96 951.186 426.07 951.286 426.1C951.386 426.13 951.611 426.105 951.961 426.025V426.895C951.831 426.945 951.666 426.995 951.466 427.045C951.266 427.095 951.061 427.12 950.851 427.12C950.531 427.12 950.301 427.06 950.161 426.94C950.021 426.82 949.926 426.605 949.876 426.295C949.606 426.565 949.266 426.765 948.856 426.895C948.446 427.025 948.031 427.1 947.611 427.12ZM947.626 425.935C948.046 425.925 948.426 425.865 948.766 425.755C949.116 425.635 949.391 425.47 949.591 425.26C949.791 425.04 949.881 424.78 949.861 424.48C949.841 424.2 949.696 424 949.426 423.88C949.166 423.76 948.831 423.71 948.421 423.73C948.051 423.74 947.711 423.81 947.401 423.94C947.091 424.06 946.841 424.22 946.651 424.42C946.471 424.62 946.381 424.845 946.381 425.095C946.391 425.375 946.506 425.59 946.726 425.74C946.946 425.88 947.246 425.945 947.626 425.935ZM954.979 427V419.8H956.209L956.284 420.925C956.484 420.535 956.784 420.22 957.184 419.98C957.594 419.74 958.034 419.62 958.504 419.62C958.664 419.62 958.814 419.63 958.954 419.65C959.094 419.67 959.214 419.69 959.314 419.71V421.015C959.204 420.985 959.064 420.96 958.894 420.94C958.724 420.92 958.539 420.91 958.339 420.91C957.779 420.91 957.304 421.095 956.914 421.465C956.524 421.825 956.329 422.3 956.329 422.89V427H954.979ZM965.192 427.165C964.532 427.165 963.942 427.015 963.422 426.715C962.912 426.405 962.507 425.97 962.207 425.41C961.917 424.84 961.772 424.17 961.772 423.4C961.772 422.62 961.917 421.95 962.207 421.39C962.507 420.82 962.912 420.385 963.422 420.085C963.942 419.775 964.532 419.62 965.192 419.62C965.632 419.62 966.032 419.715 966.392 419.905C966.762 420.095 967.072 420.365 967.322 420.715V416.245H968.657V427H967.472L967.427 425.965C967.177 426.335 966.857 426.63 966.467 426.85C966.087 427.06 965.662 427.165 965.192 427.165ZM965.237 425.935C965.847 425.935 966.347 425.71 966.737 425.26C967.137 424.81 967.337 424.19 967.337 423.4C967.337 422.6 967.137 421.975 966.737 421.525C966.347 421.075 965.847 420.85 965.237 420.85C964.627 420.85 964.122 421.075 963.722 421.525C963.322 421.975 963.122 422.6 963.122 423.4C963.122 424.19 963.322 424.81 963.722 425.26C964.122 425.71 964.627 425.935 965.237 425.935ZM980.757 427.165C980.077 427.165 979.562 427.035 979.212 426.775C978.862 426.505 978.687 425.995 978.687 425.245V420.97H977.232V419.8H978.687V417.22H980.022V419.8H982.107V420.97H980.022V424.96C980.022 425.35 980.107 425.615 980.277 425.755C980.457 425.885 980.722 425.95 981.072 425.95C981.252 425.95 981.437 425.925 981.627 425.875C981.827 425.815 981.987 425.755 982.107 425.695V426.94C981.947 427.01 981.742 427.065 981.492 427.105C981.242 427.145 980.997 427.165 980.757 427.165ZM988.12 427.165C987.46 427.165 986.87 427.01 986.35 426.7C985.84 426.38 985.435 425.935 985.135 425.365C984.845 424.795 984.7 424.135 984.7 423.385C984.7 422.635 984.845 421.98 985.135 421.42C985.435 420.85 985.84 420.41 986.35 420.1C986.87 419.78 987.46 419.62 988.12 419.62C988.78 419.62 989.365 419.78 989.875 420.1C990.395 420.41 990.8 420.85 991.09 421.42C991.39 421.98 991.54 422.635 991.54 423.385C991.54 424.135 991.39 424.795 991.09 425.365C990.8 425.935 990.395 426.38 989.875 426.7C989.365 427.01 988.78 427.165 988.12 427.165ZM988.12 425.935C988.73 425.935 989.225 425.71 989.605 425.26C989.995 424.8 990.19 424.175 990.19 423.385C990.19 422.595 989.995 421.975 989.605 421.525C989.225 421.075 988.73 420.85 988.12 420.85C987.51 420.85 987.01 421.075 986.62 421.525C986.24 421.975 986.05 422.595 986.05 423.385C986.05 424.175 986.24 424.8 986.62 425.26C987.01 425.71 987.51 425.935 988.12 425.935ZM1000.37 427V416.245H1001.72V420.73C1001.9 420.43 1002.16 420.17 1002.51 419.95C1002.86 419.73 1003.27 419.62 1003.73 419.62C1004.49 419.62 1005.1 419.865 1005.57 420.355C1006.05 420.835 1006.29 421.535 1006.29 422.455V427H1004.96V422.74C1004.96 422.11 1004.82 421.64 1004.54 421.33C1004.26 421.01 1003.89 420.85 1003.44 420.85C1002.93 420.85 1002.52 421.02 1002.2 421.36C1001.88 421.69 1001.72 422.135 1001.72 422.695V427H1000.37ZM1012.88 427.165C1012.2 427.165 1011.6 427.02 1011.08 426.73C1010.56 426.44 1010.15 426.015 1009.86 425.455C1009.57 424.885 1009.43 424.2 1009.43 423.4C1009.43 422.63 1009.57 421.965 1009.86 421.405C1010.15 420.835 1010.55 420.395 1011.05 420.085C1011.56 419.775 1012.14 419.62 1012.8 419.62C1013.46 419.62 1014.02 419.785 1014.48 420.115C1014.95 420.435 1015.31 420.865 1015.55 421.405C1015.8 421.945 1015.92 422.535 1015.92 423.175V423.535H1010.75C1010.77 424.335 1010.97 424.945 1011.35 425.365C1011.74 425.775 1012.25 425.98 1012.89 425.98C1013.4 425.98 1013.82 425.855 1014.15 425.605C1014.49 425.355 1014.78 424.98 1015.01 424.48L1016.03 425.155C1015.69 425.855 1015.25 426.365 1014.72 426.685C1014.2 427.005 1013.59 427.165 1012.88 427.165ZM1010.82 422.455H1014.6C1014.52 421.935 1014.32 421.515 1014 421.195C1013.68 420.875 1013.28 420.715 1012.79 420.715C1012.27 420.715 1011.84 420.865 1011.5 421.165C1011.16 421.455 1010.93 421.885 1010.82 422.455ZM1021.17 427.12C1020.44 427.14 1019.83 426.975 1019.35 426.625C1018.88 426.265 1018.65 425.75 1018.65 425.08C1018.65 424.59 1018.8 424.165 1019.11 423.805C1019.43 423.445 1019.84 423.165 1020.33 422.965C1020.83 422.755 1021.34 422.65 1021.87 422.65C1022.18 422.63 1022.47 422.66 1022.73 422.74C1022.99 422.81 1023.21 422.915 1023.4 423.055V422.155C1023.4 421.595 1023.28 421.23 1023.04 421.06C1022.81 420.89 1022.45 420.805 1021.96 420.805C1021.54 420.805 1021.09 420.88 1020.61 421.03C1020.14 421.18 1019.74 421.37 1019.41 421.6L1018.78 420.55C1019.19 420.29 1019.68 420.07 1020.24 419.89C1020.81 419.71 1021.38 419.62 1021.96 419.62C1022.88 419.62 1023.57 419.805 1024.02 420.175C1024.47 420.535 1024.69 421.195 1024.69 422.155V425.77C1024.69 425.96 1024.74 426.07 1024.84 426.1C1024.94 426.13 1025.17 426.105 1025.52 426.025V426.895C1025.39 426.945 1025.22 426.995 1025.02 427.045C1024.82 427.095 1024.62 427.12 1024.41 427.12C1024.09 427.12 1023.86 427.06 1023.72 426.94C1023.58 426.82 1023.48 426.605 1023.43 426.295C1023.16 426.565 1022.82 426.765 1022.41 426.895C1022 427.025 1021.59 427.1 1021.17 427.12ZM1021.18 425.935C1021.6 425.925 1021.98 425.865 1022.32 425.755C1022.67 425.635 1022.95 425.47 1023.15 425.26C1023.35 425.04 1023.44 424.78 1023.42 424.48C1023.4 424.2 1023.25 424 1022.98 423.88C1022.72 423.76 1022.39 423.71 1021.98 423.73C1021.61 423.74 1021.27 423.81 1020.96 423.94C1020.65 424.06 1020.4 424.22 1020.21 424.42C1020.03 424.62 1019.94 424.845 1019.94 425.095C1019.95 425.375 1020.06 425.59 1020.28 425.74C1020.5 425.88 1020.8 425.945 1021.18 425.935ZM1028.54 427V419.8H1029.77L1029.84 420.925C1030.04 420.535 1030.34 420.22 1030.74 419.98C1031.15 419.74 1031.59 419.62 1032.06 419.62C1032.22 419.62 1032.37 419.63 1032.51 419.65C1032.65 419.67 1032.77 419.69 1032.87 419.71V421.015C1032.76 420.985 1032.62 420.96 1032.45 420.94C1032.28 420.92 1032.1 420.91 1031.9 420.91C1031.34 420.91 1030.86 421.095 1030.47 421.465C1030.08 421.825 1029.89 422.3 1029.89 422.89V427H1028.54ZM1035.96 427V419.8H1037.3V427H1035.96ZM1036.62 418.45C1036.37 418.45 1036.16 418.365 1035.98 418.195C1035.81 418.015 1035.72 417.8 1035.72 417.55C1035.72 417.3 1035.81 417.09 1035.98 416.92C1036.16 416.74 1036.37 416.65 1036.62 416.65C1036.86 416.65 1037.07 416.74 1037.24 416.92C1037.42 417.09 1037.51 417.3 1037.51 417.55C1037.51 417.8 1037.42 418.015 1037.24 418.195C1037.07 418.365 1036.86 418.45 1036.62 418.45ZM1041.03 427V419.8H1042.24L1042.32 420.73C1042.53 420.43 1042.81 420.17 1043.16 419.95C1043.52 419.73 1043.93 419.62 1044.39 419.62C1045.15 419.62 1045.76 419.865 1046.23 420.355C1046.71 420.835 1046.95 421.535 1046.95 422.455V427H1045.62V422.74C1045.62 422.11 1045.48 421.64 1045.2 421.33C1044.92 421.01 1044.55 420.85 1044.1 420.85C1043.59 420.85 1043.18 421.02 1042.86 421.36C1042.54 421.69 1042.38 422.135 1042.38 422.695V427H1041.03ZM1053.38 430.105C1051.98 430.105 1050.93 429.555 1050.24 428.455L1051.32 427.72C1051.77 428.48 1052.46 428.86 1053.38 428.86C1054.03 428.86 1054.52 428.65 1054.85 428.23C1055.18 427.82 1055.34 427.18 1055.34 426.31V425.515C1055.1 425.815 1054.81 426.05 1054.46 426.22C1054.12 426.39 1053.74 426.475 1053.32 426.475C1052.7 426.475 1052.14 426.34 1051.65 426.07C1051.16 425.8 1050.78 425.41 1050.5 424.9C1050.23 424.38 1050.09 423.76 1050.09 423.04C1050.09 422.31 1050.23 421.695 1050.5 421.195C1050.78 420.685 1051.16 420.295 1051.65 420.025C1052.14 419.755 1052.7 419.62 1053.32 419.62C1053.76 419.62 1054.16 419.715 1054.52 419.905C1054.89 420.085 1055.2 420.34 1055.45 420.67L1055.49 419.8H1056.68V426.31C1056.68 427.55 1056.39 428.49 1055.82 429.13C1055.26 429.78 1054.45 430.105 1053.38 430.105ZM1053.41 425.29C1054 425.29 1054.48 425.085 1054.86 424.675C1055.24 424.265 1055.43 423.72 1055.43 423.04C1055.43 422.36 1055.24 421.82 1054.86 421.42C1054.48 421.02 1054 420.82 1053.41 420.82C1052.83 420.82 1052.35 421.02 1051.98 421.42C1051.62 421.82 1051.44 422.36 1051.44 423.04C1051.44 423.72 1051.62 424.265 1051.98 424.675C1052.35 425.085 1052.83 425.29 1053.41 425.29ZM1066.69 427V420.97H1065.26V419.8H1066.69V418.45C1066.69 417.86 1066.78 417.395 1066.97 417.055C1067.16 416.715 1067.43 416.475 1067.77 416.335C1068.11 416.195 1068.5 416.125 1068.95 416.125C1069.42 416.125 1069.82 416.175 1070.15 416.275V417.505C1070.02 417.455 1069.87 417.415 1069.7 417.385C1069.54 417.345 1069.38 417.325 1069.21 417.325C1068.85 417.325 1068.56 417.425 1068.34 417.625C1068.13 417.815 1068.02 418.135 1068.02 418.585V419.8H1070.15V420.97H1068.02V427H1066.69ZM1072.88 427V419.8H1074.11L1074.19 420.925C1074.39 420.535 1074.69 420.22 1075.09 419.98C1075.5 419.74 1075.94 419.62 1076.41 419.62C1076.57 419.62 1076.72 419.63 1076.86 419.65C1077 419.67 1077.12 419.69 1077.22 419.71V421.015C1077.11 420.985 1076.97 420.96 1076.8 420.94C1076.63 420.92 1076.44 420.91 1076.24 420.91C1075.68 420.91 1075.21 421.095 1074.82 421.465C1074.43 421.825 1074.23 422.3 1074.23 422.89V427H1072.88ZM1083.1 427.165C1082.44 427.165 1081.85 427.01 1081.33 426.7C1080.82 426.38 1080.41 425.935 1080.11 425.365C1079.82 424.795 1079.68 424.135 1079.68 423.385C1079.68 422.635 1079.82 421.98 1080.11 421.42C1080.41 420.85 1080.82 420.41 1081.33 420.1C1081.85 419.78 1082.44 419.62 1083.1 419.62C1083.76 419.62 1084.34 419.78 1084.85 420.1C1085.37 420.41 1085.78 420.85 1086.07 421.42C1086.37 421.98 1086.52 422.635 1086.52 423.385C1086.52 424.135 1086.37 424.795 1086.07 425.365C1085.78 425.935 1085.37 426.38 1084.85 426.7C1084.34 427.01 1083.76 427.165 1083.1 427.165ZM1083.1 425.935C1083.71 425.935 1084.2 425.71 1084.58 425.26C1084.97 424.8 1085.17 424.175 1085.17 423.385C1085.17 422.595 1084.97 421.975 1084.58 421.525C1084.2 421.075 1083.71 420.85 1083.1 420.85C1082.49 420.85 1081.99 421.075 1081.6 421.525C1081.22 421.975 1081.03 422.595 1081.03 423.385C1081.03 424.175 1081.22 424.8 1081.6 425.26C1081.99 425.71 1082.49 425.935 1083.1 425.935ZM1089.64 427V419.8H1090.85L1090.93 420.79C1091.09 420.45 1091.34 420.17 1091.68 419.95C1092.03 419.73 1092.43 419.62 1092.88 419.62C1093.4 419.62 1093.84 419.74 1094.2 419.98C1094.56 420.22 1094.82 420.56 1094.98 421C1095.16 420.6 1095.43 420.27 1095.79 420.01C1096.16 419.75 1096.6 419.62 1097.12 419.62C1097.85 419.62 1098.43 419.86 1098.86 420.34C1099.29 420.82 1099.51 421.52 1099.51 422.44V427H1098.14V422.71C1098.14 422.08 1098.02 421.615 1097.78 421.315C1097.55 421.005 1097.23 420.85 1096.82 420.85C1096.33 420.85 1095.94 421.03 1095.65 421.39C1095.37 421.75 1095.23 422.21 1095.23 422.77V427H1093.9V422.71C1093.9 422.08 1093.78 421.615 1093.54 421.315C1093.3 421.005 1092.97 420.85 1092.56 420.85C1092.07 420.85 1091.69 421.035 1091.41 421.405C1091.13 421.765 1090.99 422.215 1090.99 422.755V427H1089.64ZM1109.38 430.105C1108.95 430.105 1108.57 430.065 1108.23 429.985V428.74C1108.38 428.78 1108.54 428.81 1108.72 428.83C1108.91 428.86 1109.09 428.875 1109.26 428.875C1109.64 428.875 1109.91 428.8 1110.06 428.65C1110.21 428.5 1110.36 428.235 1110.51 427.855L1110.84 426.985L1107.99 419.8H1109.4L1111.42 425.35L1113.37 419.8H1114.75L1111.66 428.26C1111.44 428.87 1111.16 429.33 1110.82 429.64C1110.49 429.95 1110.01 430.105 1109.38 430.105ZM1120.34 427.165C1119.68 427.165 1119.09 427.01 1118.57 426.7C1118.06 426.38 1117.66 425.935 1117.36 425.365C1117.07 424.795 1116.92 424.135 1116.92 423.385C1116.92 422.635 1117.07 421.98 1117.36 421.42C1117.66 420.85 1118.06 420.41 1118.57 420.1C1119.09 419.78 1119.68 419.62 1120.34 419.62C1121 419.62 1121.59 419.78 1122.1 420.1C1122.62 420.41 1123.02 420.85 1123.31 421.42C1123.61 421.98 1123.76 422.635 1123.76 423.385C1123.76 424.135 1123.61 424.795 1123.31 425.365C1123.02 425.935 1122.62 426.38 1122.1 426.7C1121.59 427.01 1121 427.165 1120.34 427.165ZM1120.34 425.935C1120.95 425.935 1121.45 425.71 1121.83 425.26C1122.22 424.8 1122.41 424.175 1122.41 423.385C1122.41 422.595 1122.22 421.975 1121.83 421.525C1121.45 421.075 1120.95 420.85 1120.34 420.85C1119.73 420.85 1119.23 421.075 1118.84 421.525C1118.46 421.975 1118.27 422.595 1118.27 423.385C1118.27 424.175 1118.46 424.8 1118.84 425.26C1119.23 425.71 1119.73 425.935 1120.34 425.935ZM1129.31 427.165C1128.55 427.165 1127.94 426.925 1127.47 426.445C1127 425.955 1126.76 425.25 1126.76 424.33V419.8H1128.1V424.06C1128.1 424.68 1128.24 425.15 1128.52 425.47C1128.8 425.78 1129.16 425.935 1129.6 425.935C1130.11 425.935 1130.52 425.77 1130.84 425.44C1131.17 425.1 1131.34 424.645 1131.34 424.075V419.8H1132.67V427H1131.46L1131.4 426.07C1131.19 426.37 1130.9 426.63 1130.54 426.85C1130.19 427.06 1129.78 427.165 1129.31 427.165Z" fill="#494949"/>
<path d="M685.645 370V363.64H687.085C689.245 363.64 691.045 363.08 692.485 361.96C694.005 360.84 695.405 358.48 696.685 354.88L722.725 284.32H739.165L764.245 355C765.445 358.36 766.765 360.64 768.205 361.84C769.725 363.04 771.445 363.64 773.365 363.64H775.525V370H735.925V363.64H740.605C741.805 363.64 742.965 363.28 744.085 362.56C745.205 361.84 745.765 360.64 745.765 358.96C745.765 358 745.645 357.08 745.405 356.2C745.165 355.24 744.925 354.44 744.685 353.8L740.485 341.8H711.325L707.845 352.12C707.525 353.08 707.205 354.24 706.885 355.6C706.565 356.88 706.405 358 706.405 358.96C706.405 360.48 706.965 361.64 708.085 362.44C709.205 363.24 710.445 363.64 711.805 363.64H716.845V370H685.645ZM713.845 334.48H738.085L731.725 314.8C730.925 312.08 730.005 309.04 728.965 305.68C728.005 302.32 727.205 299.24 726.565 296.44C725.845 299 724.965 301.92 723.925 305.2C722.885 308.4 721.885 311.4 720.925 314.2L713.845 334.48ZM823.157 371.2C818.517 371.2 814.717 370.24 811.757 368.32C808.877 366.32 806.557 363.76 804.797 360.64H803.717L800.357 370H777.557V363.64H778.397C779.917 363.64 781.357 363.44 782.717 363.04C784.157 362.64 785.317 361.84 786.197 360.64C787.077 359.44 787.517 357.64 787.517 355.24V293.2C787.517 289.76 786.557 287.56 784.637 286.6C782.797 285.64 780.597 285.16 778.037 285.16H777.557V278.8H805.757V299.32C805.757 300.52 805.717 302.04 805.637 303.88C805.557 305.64 805.437 307.44 805.277 309.28C805.117 311.12 804.957 312.64 804.797 313.84H805.637C807.397 310.88 809.677 308.56 812.477 306.88C815.357 305.12 819.077 304.24 823.637 304.24C831.477 304.24 837.437 306.92 841.517 312.28C845.677 317.56 847.757 326 847.757 337.6C847.757 349.2 845.637 357.72 841.397 363.16C837.237 368.52 831.157 371.2 823.157 371.2ZM818.117 362.2C822.117 362.2 824.957 360.08 826.637 355.84C828.397 351.6 829.277 345.48 829.277 337.48C829.277 329.32 828.397 323.24 826.637 319.24C824.877 315.16 821.997 313.12 817.997 313.12C813.277 313.12 810.037 315.12 808.277 319.12C806.597 323.12 805.757 329.28 805.757 337.6C805.757 345.52 806.597 351.6 808.277 355.84C810.037 360.08 813.317 362.2 818.117 362.2ZM890.046 371.2C880.446 371.2 872.886 368.44 867.366 362.92C861.846 357.32 859.086 348.88 859.086 337.6C859.086 326.32 861.726 317.92 867.006 312.4C872.286 306.88 880.086 304.12 890.406 304.12C900.006 304.12 907.566 306.88 913.086 312.4C918.606 317.92 921.366 326.32 921.366 337.6C921.366 348.88 918.686 357.32 913.326 362.92C908.046 368.44 900.286 371.2 890.046 371.2ZM890.286 363.64C894.926 363.64 898.166 361.44 900.006 357.04C901.846 352.56 902.766 346.08 902.766 337.6C902.766 329.04 901.806 322.6 899.886 318.28C898.046 313.96 894.806 311.8 890.166 311.8C885.526 311.8 882.286 313.96 880.446 318.28C878.606 322.6 877.686 329.04 877.686 337.6C877.686 346.08 878.606 352.56 880.446 357.04C882.366 361.44 885.646 363.64 890.286 363.64ZM958 371.2C951.76 371.2 946.96 369.28 943.6 365.44C940.24 361.52 938.56 355.52 938.56 347.44V320.56C938.56 317.04 937.92 314.76 936.64 313.72C935.36 312.6 933.28 312.04 930.4 312.04H930.16V305.68H956.8V344.08C956.8 349.2 957.44 353.32 958.72 356.44C960 359.48 962.4 361 965.92 361C969.76 361 972.52 359.36 974.2 356.08C975.96 352.8 976.84 348.36 976.84 342.76V319.72C976.84 316.2 975.96 314.04 974.2 313.24C972.52 312.44 970.52 312.04 968.2 312.04H967.84V305.68H995.08V356.08C995.08 359.52 995.84 361.64 997.36 362.44C998.88 363.24 1000.8 363.64 1003.12 363.64H1004.08V370H980.2L977.56 361.48H976.96C974.56 365.64 971.72 368.32 968.44 369.52C965.24 370.64 961.76 371.2 958 371.2ZM1036.24 371.2C1030.88 371.2 1026.6 369.8 1023.4 367C1020.2 364.2 1018.6 359.28 1018.6 352.24V313.84H1009.6V307.72C1012.16 307.72 1014.44 307.2 1016.44 306.16C1018.52 305.12 1020.16 303.96 1021.36 302.68C1023.84 300.04 1025.68 296.08 1026.88 290.8H1036.84V305.68H1052.2V313.84H1036.84V351.04C1036.84 354.64 1037.44 357.28 1038.64 358.96C1039.92 360.64 1041.96 361.48 1044.76 361.48C1046.36 361.48 1047.84 361.4 1049.2 361.24C1050.64 361 1052 360.72 1053.28 360.4V368.2C1052 368.76 1049.88 369.4 1046.92 370.12C1044.04 370.84 1040.48 371.2 1036.24 371.2ZM1133.32 371.2C1122.92 371.2 1114.76 369.12 1108.84 364.96C1103 360.72 1100.08 353.68 1100.08 343.84V298C1100.08 294.8 1099.44 292.8 1098.16 292C1096.96 291.12 1095.56 290.68 1093.96 290.68H1088.8V284.32H1130.2V290.68H1125.16C1123.48 290.68 1122.04 291.12 1120.84 292C1119.64 292.88 1119.04 295.04 1119.04 298.48V344.8C1119.04 351.52 1120.64 356.2 1123.84 358.84C1127.12 361.4 1131.48 362.68 1136.92 362.68C1142.28 362.68 1146.52 361.28 1149.64 358.48C1152.76 355.6 1154.32 351.12 1154.32 345.04V298C1154.32 294.8 1153.72 292.8 1152.52 292C1151.32 291.12 1149.88 290.68 1148.2 290.68H1143.16V284.32H1174.6V290.68H1169.44C1167.76 290.68 1166.32 291.12 1165.12 292C1163.92 292.88 1163.32 295.04 1163.32 298.48V345.28C1163.32 353.28 1160.92 359.6 1156.12 364.24C1151.4 368.88 1143.8 371.2 1133.32 371.2ZM1204.25 371.2C1195.53 371.2 1189.33 369.88 1185.65 367.24C1181.97 364.52 1180.13 361.16 1180.13 357.16C1180.13 354.52 1180.77 352.56 1182.05 351.28C1183.33 350 1184.85 349.16 1186.61 348.76C1188.37 348.28 1189.93 348.04 1191.29 348.04C1191.29 353 1192.45 356.92 1194.77 359.8C1197.17 362.68 1200.33 364.12 1204.25 364.12C1208.41 364.12 1211.41 363.32 1213.25 361.72C1215.17 360.12 1216.13 358.2 1216.13 355.96C1216.13 353.32 1215.09 351.16 1213.01 349.48C1210.93 347.8 1207.05 345.96 1201.37 343.96C1194.89 341.72 1189.93 339.08 1186.49 336.04C1183.05 332.92 1181.33 328.68 1181.33 323.32C1181.33 316.92 1183.69 312.16 1188.41 309.04C1193.13 305.84 1199.37 304.24 1207.13 304.24C1212.17 304.24 1216.21 304.8 1219.25 305.92C1222.37 306.96 1224.61 308.36 1225.97 310.12C1227.41 311.8 1228.13 313.56 1228.13 315.4C1228.13 318.12 1227.17 320.2 1225.25 321.64C1223.41 323 1220.29 323.68 1215.89 323.68C1215.89 319.68 1215.01 316.6 1213.25 314.44C1211.49 312.2 1208.85 311.08 1205.33 311.08C1202.77 311.08 1200.49 311.72 1198.49 313C1196.57 314.2 1195.61 316.04 1195.61 318.52C1195.61 320.2 1196.05 321.68 1196.93 322.96C1197.89 324.24 1199.57 325.48 1201.97 326.68C1204.37 327.88 1207.73 329.24 1212.05 330.76C1217.41 332.6 1221.77 335.04 1225.13 338.08C1228.57 341.04 1230.29 345.04 1230.29 350.08C1230.29 356.72 1228.01 361.92 1223.45 365.68C1218.97 369.36 1212.57 371.2 1204.25 371.2Z" fill="black"/>
</g>
</svg>
