<svg width="1920" height="604" viewBox="0 0 1920 604" fill="none" xmlns="http://www.w3.org/2000/svg">
<mask id="mask0_461_3356" style="mask-type:alpha" maskUnits="userSpaceOnUse" x="0" y="0" width="1920" height="604">
<rect width="1920" height="604" fill="#FFFAFA"/>
</mask>
<g mask="url(#mask0_461_3356)">
<rect width="1920" height="604" fill="#FFFAFA"/>
<path d="M3 287L139.832 524H-133.832L3 287Z" fill="#FFA85A" fill-opacity="0.12"/>
<path d="M-10 193L126.832 430H-146.832L-10 193Z" fill="#FFA85A" fill-opacity="0.12"/>
<path d="M1898.53 364.607L1691.26 450.116L1720.84 227.856L1898.53 364.607Z" fill="#747474" fill-opacity="0.12"/>
<path d="M1867.44 422.928L1660.16 508.437L1689.75 286.178L1867.44 422.928Z" fill="#747474" fill-opacity="0.12"/>
<path d="M1833.81 489.679L1626.53 575.188L1656.12 352.929L1833.81 489.679Z" fill="#747474" fill-opacity="0.12"/>
<path d="M1822 288.5C1822 297.06 1815.06 304 1806.5 304C1797.94 304 1791 297.06 1791 288.5C1791 279.94 1797.94 273 1806.5 273C1815.06 273 1822 279.94 1822 288.5Z" fill="#FFB546"/>
<path d="M202 415C202 461.944 163.944 500 117 500C70.0558 500 32 461.944 32 415C32 368.056 70.0558 330 117 330C163.944 330 202 368.056 202 415Z" fill="#DF3E3F"/>
<path d="M209 280.491C209 300.102 193.106 316 173.5 316C153.894 316 138 300.102 138 280.491C138 260.88 153.894 244.982 173.5 244.982C193.106 244.982 209 260.88 209 280.491Z" fill="#6CBEDC"/>
<path fill-rule="evenodd" clip-rule="evenodd" d="M948.055 370.33C927.75 371.349 907.683 372.601 888.115 373.971C860.414 375.908 832.723 377.912 805.2 381.085C796.536 382.087 787.738 382.722 779.128 383.974C773.724 384.759 766.557 385.878 765.617 386.112C765.125 386.246 764.91 386.446 764.841 386.513C764.353 386.981 764.442 387.431 764.718 387.782C764.828 387.932 765.108 388.3 765.883 388.35C817.766 391.774 870.82 385.093 922.766 384.392C1012.85 383.19 1105.66 387.966 1195.03 398.387C1195.81 398.47 1196.57 398.053 1196.68 397.435C1196.81 396.834 1196.24 396.249 1195.46 396.166C1105.94 385.728 1012.98 380.935 922.722 382.154C874.311 382.805 824.944 388.667 776.465 386.663C777.579 386.496 778.671 386.329 779.668 386.179C788.243 384.926 797.004 384.308 805.633 383.306C833.098 380.133 860.732 378.129 888.397 376.209C922.722 373.804 958.543 371.733 994.646 370.764C1007.56 370.915 1020.43 371.065 1033.31 371.249C1061.15 371.65 1089.13 372.819 1116.91 374.388C1125.27 374.873 1133.64 375.374 1142 375.808C1144.78 375.958 1151.93 376.392 1152.93 376.359C1154.16 376.326 1154.4 375.524 1154.42 375.39C1154.49 375.09 1154.44 374.672 1153.84 374.322C1153.77 374.271 1153.38 374.104 1152.51 374.004C1102 368.092 1048.06 367.107 994.689 368.527C938.39 367.909 881.874 367.641 825.717 367.357C824.913 367.357 824.257 367.859 824.25 368.476C824.246 369.094 824.894 369.595 825.698 369.612C866.36 369.813 907.228 370.013 948.055 370.33Z" fill="#FFB546"/>
<path d="M787.749 427L785.304 416.5H786.714L788.469 424.51L790.629 416.5H791.814L793.989 424.51L795.729 416.5H797.169L794.724 427H793.464L791.229 418.78L788.979 427H787.749ZM802.477 427.165C801.797 427.165 801.197 427.02 800.677 426.73C800.157 426.44 799.752 426.015 799.462 425.455C799.172 424.885 799.027 424.2 799.027 423.4C799.027 422.63 799.172 421.965 799.462 421.405C799.752 420.835 800.147 420.395 800.647 420.085C801.157 419.775 801.742 419.62 802.402 419.62C803.062 419.62 803.622 419.785 804.082 420.115C804.552 420.435 804.907 420.865 805.147 421.405C805.397 421.945 805.522 422.535 805.522 423.175V423.535H800.347C800.367 424.335 800.567 424.945 800.947 425.365C801.337 425.775 801.852 425.98 802.492 425.98C803.002 425.98 803.422 425.855 803.752 425.605C804.092 425.355 804.377 424.98 804.607 424.48L805.627 425.155C805.287 425.855 804.852 426.365 804.322 426.685C803.802 427.005 803.187 427.165 802.477 427.165ZM800.422 422.455H804.202C804.122 421.935 803.922 421.515 803.602 421.195C803.282 420.875 802.877 420.715 802.387 420.715C801.867 420.715 801.437 420.865 801.097 421.165C800.757 421.455 800.532 421.885 800.422 422.455ZM816.618 427.12C815.888 427.14 815.283 426.975 814.803 426.625C814.333 426.265 814.098 425.75 814.098 425.08C814.098 424.59 814.253 424.165 814.563 423.805C814.883 423.445 815.288 423.165 815.778 422.965C816.278 422.755 816.793 422.65 817.323 422.65C817.633 422.63 817.918 422.66 818.178 422.74C818.438 422.81 818.663 422.915 818.853 423.055V422.155C818.853 421.595 818.733 421.23 818.493 421.06C818.263 420.89 817.903 420.805 817.413 420.805C816.993 420.805 816.543 420.88 816.063 421.03C815.593 421.18 815.193 421.37 814.863 421.6L814.233 420.55C814.643 420.29 815.128 420.07 815.688 419.89C816.258 419.71 816.833 419.62 817.413 419.62C818.333 419.62 819.018 419.805 819.468 420.175C819.918 420.535 820.143 421.195 820.143 422.155V425.77C820.143 425.96 820.193 426.07 820.293 426.1C820.393 426.13 820.618 426.105 820.968 426.025V426.895C820.838 426.945 820.673 426.995 820.473 427.045C820.273 427.095 820.068 427.12 819.858 427.12C819.538 427.12 819.308 427.06 819.168 426.94C819.028 426.82 818.933 426.605 818.883 426.295C818.613 426.565 818.273 426.765 817.863 426.895C817.453 427.025 817.038 427.1 816.618 427.12ZM816.633 425.935C817.053 425.925 817.433 425.865 817.773 425.755C818.123 425.635 818.398 425.47 818.598 425.26C818.798 425.04 818.888 424.78 818.868 424.48C818.848 424.2 818.703 424 818.433 423.88C818.173 423.76 817.838 423.71 817.428 423.73C817.058 423.74 816.718 423.81 816.408 423.94C816.098 424.06 815.848 424.22 815.658 424.42C815.478 424.62 815.388 424.845 815.388 425.095C815.398 425.375 815.513 425.59 815.733 425.74C815.953 425.88 816.253 425.945 816.633 425.935ZM823.985 427V419.8H825.215L825.29 420.925C825.49 420.535 825.79 420.22 826.19 419.98C826.6 419.74 827.04 419.62 827.51 419.62C827.67 419.62 827.82 419.63 827.96 419.65C828.1 419.67 828.22 419.69 828.32 419.71V421.015C828.21 420.985 828.07 420.96 827.9 420.94C827.73 420.92 827.545 420.91 827.345 420.91C826.785 420.91 826.31 421.095 825.92 421.465C825.53 421.825 825.335 422.3 825.335 422.89V427H823.985ZM834.229 427.165C833.549 427.165 832.949 427.02 832.429 426.73C831.909 426.44 831.504 426.015 831.214 425.455C830.924 424.885 830.779 424.2 830.779 423.4C830.779 422.63 830.924 421.965 831.214 421.405C831.504 420.835 831.899 420.395 832.399 420.085C832.909 419.775 833.494 419.62 834.154 419.62C834.814 419.62 835.374 419.785 835.834 420.115C836.304 420.435 836.659 420.865 836.899 421.405C837.149 421.945 837.274 422.535 837.274 423.175V423.535H832.099C832.119 424.335 832.319 424.945 832.699 425.365C833.089 425.775 833.604 425.98 834.244 425.98C834.754 425.98 835.174 425.855 835.504 425.605C835.844 425.355 836.129 424.98 836.359 424.48L837.379 425.155C837.039 425.855 836.604 426.365 836.074 426.685C835.554 427.005 834.939 427.165 834.229 427.165ZM832.174 422.455H835.954C835.874 421.935 835.674 421.515 835.354 421.195C835.034 420.875 834.629 420.715 834.139 420.715C833.619 420.715 833.189 420.865 832.849 421.165C832.509 421.455 832.284 421.885 832.174 422.455ZM846.21 427V416.245H847.56V427H846.21ZM854.095 427.165C853.435 427.165 852.845 427.01 852.325 426.7C851.815 426.38 851.41 425.935 851.11 425.365C850.82 424.795 850.675 424.135 850.675 423.385C850.675 422.635 850.82 421.98 851.11 421.42C851.41 420.85 851.815 420.41 852.325 420.1C852.845 419.78 853.435 419.62 854.095 419.62C854.755 419.62 855.34 419.78 855.85 420.1C856.37 420.41 856.775 420.85 857.065 421.42C857.365 421.98 857.515 422.635 857.515 423.385C857.515 424.135 857.365 424.795 857.065 425.365C856.775 425.935 856.37 426.38 855.85 426.7C855.34 427.01 854.755 427.165 854.095 427.165ZM854.095 425.935C854.705 425.935 855.2 425.71 855.58 425.26C855.97 424.8 856.165 424.175 856.165 423.385C856.165 422.595 855.97 421.975 855.58 421.525C855.2 421.075 854.705 420.85 854.095 420.85C853.485 420.85 852.985 421.075 852.595 421.525C852.215 421.975 852.025 422.595 852.025 423.385C852.025 424.175 852.215 424.8 852.595 425.26C852.985 425.71 853.485 425.935 854.095 425.935ZM863.666 427.165C863.006 427.165 862.416 427.01 861.896 426.7C861.386 426.38 860.981 425.935 860.681 425.365C860.391 424.795 860.246 424.135 860.246 423.385C860.246 422.635 860.391 421.98 860.681 421.42C860.981 420.85 861.386 420.41 861.896 420.1C862.416 419.78 863.006 419.62 863.666 419.62C864.326 419.62 864.911 419.78 865.421 420.1C865.941 420.41 866.346 420.85 866.636 421.42C866.936 421.98 867.086 422.635 867.086 423.385C867.086 424.135 866.936 424.795 866.636 425.365C866.346 425.935 865.941 426.38 865.421 426.7C864.911 427.01 864.326 427.165 863.666 427.165ZM863.666 425.935C864.276 425.935 864.771 425.71 865.151 425.26C865.541 424.8 865.736 424.175 865.736 423.385C865.736 422.595 865.541 421.975 865.151 421.525C864.771 421.075 864.276 420.85 863.666 420.85C863.056 420.85 862.556 421.075 862.166 421.525C861.786 421.975 861.596 422.595 861.596 423.385C861.596 424.175 861.786 424.8 862.166 425.26C862.556 425.71 863.056 425.935 863.666 425.935ZM870.207 427V416.245H871.557V422.77L874.407 419.8H876.087L872.862 423.055L876.252 427H874.602L871.557 423.355V427H870.207ZM879.359 427V419.8H880.694V427H879.359ZM880.019 418.45C879.769 418.45 879.554 418.365 879.374 418.195C879.204 418.015 879.119 417.8 879.119 417.55C879.119 417.3 879.204 417.09 879.374 416.92C879.554 416.74 879.769 416.65 880.019 416.65C880.259 416.65 880.464 416.74 880.634 416.92C880.814 417.09 880.904 417.3 880.904 417.55C880.904 417.8 880.814 418.015 880.634 418.195C880.464 418.365 880.259 418.45 880.019 418.45ZM884.428 427V419.8H885.643L885.718 420.73C885.928 420.43 886.208 420.17 886.558 419.95C886.918 419.73 887.328 419.62 887.788 419.62C888.548 419.62 889.163 419.865 889.633 420.355C890.113 420.835 890.353 421.535 890.353 422.455V427H889.018V422.74C889.018 422.11 888.878 421.64 888.598 421.33C888.318 421.01 887.953 420.85 887.503 420.85C886.993 420.85 886.578 421.02 886.258 421.36C885.938 421.69 885.778 422.135 885.778 422.695V427H884.428ZM896.777 430.105C895.377 430.105 894.332 429.555 893.642 428.455L894.722 427.72C895.172 428.48 895.857 428.86 896.777 428.86C897.427 428.86 897.917 428.65 898.247 428.23C898.577 427.82 898.742 427.18 898.742 426.31V425.515C898.502 425.815 898.207 426.05 897.857 426.22C897.517 426.39 897.137 426.475 896.717 426.475C896.097 426.475 895.542 426.34 895.052 426.07C894.562 425.8 894.177 425.41 893.897 424.9C893.627 424.38 893.492 423.76 893.492 423.04C893.492 422.31 893.627 421.695 893.897 421.195C894.177 420.685 894.562 420.295 895.052 420.025C895.542 419.755 896.097 419.62 896.717 419.62C897.157 419.62 897.557 419.715 897.917 419.905C898.287 420.085 898.597 420.34 898.847 420.67L898.892 419.8H900.077V426.31C900.077 427.55 899.792 428.49 899.222 429.13C898.662 429.78 897.847 430.105 896.777 430.105ZM896.807 425.29C897.397 425.29 897.882 425.085 898.262 424.675C898.642 424.265 898.832 423.72 898.832 423.04C898.832 422.36 898.642 421.82 898.262 421.42C897.882 421.02 897.397 420.82 896.807 420.82C896.227 420.82 895.752 421.02 895.382 421.42C895.022 421.82 894.842 422.36 894.842 423.04C894.842 423.72 895.022 424.265 895.382 424.675C895.752 425.085 896.227 425.29 896.807 425.29ZM910.084 427V420.97H908.659V419.8H910.084V418.45C910.084 417.86 910.179 417.395 910.369 417.055C910.559 416.715 910.824 416.475 911.164 416.335C911.504 416.195 911.899 416.125 912.349 416.125C912.819 416.125 913.219 416.175 913.549 416.275V417.505C913.419 417.455 913.269 417.415 913.099 417.385C912.939 417.345 912.774 417.325 912.604 417.325C912.244 417.325 911.954 417.425 911.734 417.625C911.524 417.815 911.419 418.135 911.419 418.585V419.8H913.549V420.97H911.419V427H910.084ZM919.312 427.165C918.652 427.165 918.062 427.01 917.542 426.7C917.032 426.38 916.627 425.935 916.327 425.365C916.037 424.795 915.892 424.135 915.892 423.385C915.892 422.635 916.037 421.98 916.327 421.42C916.627 420.85 917.032 420.41 917.542 420.1C918.062 419.78 918.652 419.62 919.312 419.62C919.972 419.62 920.557 419.78 921.067 420.1C921.587 420.41 921.992 420.85 922.282 421.42C922.582 421.98 922.732 422.635 922.732 423.385C922.732 424.135 922.582 424.795 922.282 425.365C921.992 425.935 921.587 426.38 921.067 426.7C920.557 427.01 919.972 427.165 919.312 427.165ZM919.312 425.935C919.922 425.935 920.417 425.71 920.797 425.26C921.187 424.8 921.382 424.175 921.382 423.385C921.382 422.595 921.187 421.975 920.797 421.525C920.417 421.075 919.922 420.85 919.312 420.85C918.702 420.85 918.202 421.075 917.812 421.525C917.432 421.975 917.242 422.595 917.242 423.385C917.242 424.175 917.432 424.8 917.812 425.26C918.202 425.71 918.702 425.935 919.312 425.935ZM925.854 427V419.8H927.084L927.159 420.925C927.359 420.535 927.659 420.22 928.059 419.98C928.469 419.74 928.909 419.62 929.379 419.62C929.539 419.62 929.689 419.63 929.829 419.65C929.969 419.67 930.089 419.69 930.189 419.71V421.015C930.079 420.985 929.939 420.96 929.769 420.94C929.599 420.92 929.414 420.91 929.214 420.91C928.654 420.91 928.179 421.095 927.789 421.465C927.399 421.825 927.204 422.3 927.204 422.89V427H925.854ZM934.552 427L932.392 419.8H933.682L935.152 425.02L936.622 419.8H937.717L939.187 425.02L940.672 419.8H941.962L939.787 427H938.662L937.177 421.75L935.692 427H934.552ZM946.966 427.12C946.236 427.14 945.631 426.975 945.151 426.625C944.681 426.265 944.446 425.75 944.446 425.08C944.446 424.59 944.601 424.165 944.911 423.805C945.231 423.445 945.636 423.165 946.126 422.965C946.626 422.755 947.141 422.65 947.671 422.65C947.981 422.63 948.266 422.66 948.526 422.74C948.786 422.81 949.011 422.915 949.201 423.055V422.155C949.201 421.595 949.081 421.23 948.841 421.06C948.611 420.89 948.251 420.805 947.761 420.805C947.341 420.805 946.891 420.88 946.411 421.03C945.941 421.18 945.541 421.37 945.211 421.6L944.581 420.55C944.991 420.29 945.476 420.07 946.036 419.89C946.606 419.71 947.181 419.62 947.761 419.62C948.681 419.62 949.366 419.805 949.816 420.175C950.266 420.535 950.491 421.195 950.491 422.155V425.77C950.491 425.96 950.541 426.07 950.641 426.1C950.741 426.13 950.966 426.105 951.316 426.025V426.895C951.186 426.945 951.021 426.995 950.821 427.045C950.621 427.095 950.416 427.12 950.206 427.12C949.886 427.12 949.656 427.06 949.516 426.94C949.376 426.82 949.281 426.605 949.231 426.295C948.961 426.565 948.621 426.765 948.211 426.895C947.801 427.025 947.386 427.1 946.966 427.12ZM946.981 425.935C947.401 425.925 947.781 425.865 948.121 425.755C948.471 425.635 948.746 425.47 948.946 425.26C949.146 425.04 949.236 424.78 949.216 424.48C949.196 424.2 949.051 424 948.781 423.88C948.521 423.76 948.186 423.71 947.776 423.73C947.406 423.74 947.066 423.81 946.756 423.94C946.446 424.06 946.196 424.22 946.006 424.42C945.826 424.62 945.736 424.845 945.736 425.095C945.746 425.375 945.861 425.59 946.081 425.74C946.301 425.88 946.601 425.945 946.981 425.935ZM954.333 427V419.8H955.563L955.638 420.925C955.838 420.535 956.138 420.22 956.538 419.98C956.948 419.74 957.388 419.62 957.858 419.62C958.018 419.62 958.168 419.63 958.308 419.65C958.448 419.67 958.568 419.69 958.668 419.71V421.015C958.558 420.985 958.418 420.96 958.248 420.94C958.078 420.92 957.893 420.91 957.693 420.91C957.133 420.91 956.658 421.095 956.268 421.465C955.878 421.825 955.683 422.3 955.683 422.89V427H954.333ZM964.547 427.165C963.887 427.165 963.297 427.015 962.777 426.715C962.267 426.405 961.862 425.97 961.562 425.41C961.272 424.84 961.127 424.17 961.127 423.4C961.127 422.62 961.272 421.95 961.562 421.39C961.862 420.82 962.267 420.385 962.777 420.085C963.297 419.775 963.887 419.62 964.547 419.62C964.987 419.62 965.387 419.715 965.747 419.905C966.117 420.095 966.427 420.365 966.677 420.715V416.245H968.012V427H966.827L966.782 425.965C966.532 426.335 966.212 426.63 965.822 426.85C965.442 427.06 965.017 427.165 964.547 427.165ZM964.592 425.935C965.202 425.935 965.702 425.71 966.092 425.26C966.492 424.81 966.692 424.19 966.692 423.4C966.692 422.6 966.492 421.975 966.092 421.525C965.702 421.075 965.202 420.85 964.592 420.85C963.982 420.85 963.477 421.075 963.077 421.525C962.677 421.975 962.477 422.6 962.477 423.4C962.477 424.19 962.677 424.81 963.077 425.26C963.477 425.71 963.982 425.935 964.592 425.935ZM980.112 427.165C979.432 427.165 978.917 427.035 978.567 426.775C978.217 426.505 978.042 425.995 978.042 425.245V420.97H976.587V419.8H978.042V417.22H979.377V419.8H981.462V420.97H979.377V424.96C979.377 425.35 979.462 425.615 979.632 425.755C979.812 425.885 980.077 425.95 980.427 425.95C980.607 425.95 980.792 425.925 980.982 425.875C981.182 425.815 981.342 425.755 981.462 425.695V426.94C981.302 427.01 981.097 427.065 980.847 427.105C980.597 427.145 980.352 427.165 980.112 427.165ZM987.474 427.165C986.814 427.165 986.224 427.01 985.704 426.7C985.194 426.38 984.789 425.935 984.489 425.365C984.199 424.795 984.054 424.135 984.054 423.385C984.054 422.635 984.199 421.98 984.489 421.42C984.789 420.85 985.194 420.41 985.704 420.1C986.224 419.78 986.814 419.62 987.474 419.62C988.134 419.62 988.719 419.78 989.229 420.1C989.749 420.41 990.154 420.85 990.444 421.42C990.744 421.98 990.894 422.635 990.894 423.385C990.894 424.135 990.744 424.795 990.444 425.365C990.154 425.935 989.749 426.38 989.229 426.7C988.719 427.01 988.134 427.165 987.474 427.165ZM987.474 425.935C988.084 425.935 988.579 425.71 988.959 425.26C989.349 424.8 989.544 424.175 989.544 423.385C989.544 422.595 989.349 421.975 988.959 421.525C988.579 421.075 988.084 420.85 987.474 420.85C986.864 420.85 986.364 421.075 985.974 421.525C985.594 421.975 985.404 422.595 985.404 423.385C985.404 424.175 985.594 424.8 985.974 425.26C986.364 425.71 986.864 425.935 987.474 425.935ZM999.72 427V416.245H1001.07V420.73C1001.25 420.43 1001.51 420.17 1001.86 419.95C1002.21 419.73 1002.62 419.62 1003.08 419.62C1003.84 419.62 1004.45 419.865 1004.92 420.355C1005.4 420.835 1005.64 421.535 1005.64 422.455V427H1004.31V422.74C1004.31 422.11 1004.17 421.64 1003.89 421.33C1003.61 421.01 1003.24 420.85 1002.79 420.85C1002.28 420.85 1001.87 421.02 1001.55 421.36C1001.23 421.69 1001.07 422.135 1001.07 422.695V427H999.72ZM1012.23 427.165C1011.55 427.165 1010.95 427.02 1010.43 426.73C1009.91 426.44 1009.51 426.015 1009.22 425.455C1008.93 424.885 1008.78 424.2 1008.78 423.4C1008.78 422.63 1008.93 421.965 1009.22 421.405C1009.51 420.835 1009.9 420.395 1010.4 420.085C1010.91 419.775 1011.5 419.62 1012.16 419.62C1012.82 419.62 1013.38 419.785 1013.84 420.115C1014.31 420.435 1014.66 420.865 1014.9 421.405C1015.15 421.945 1015.28 422.535 1015.28 423.175V423.535H1010.1C1010.12 424.335 1010.32 424.945 1010.7 425.365C1011.09 425.775 1011.61 425.98 1012.25 425.98C1012.76 425.98 1013.18 425.855 1013.51 425.605C1013.85 425.355 1014.13 424.98 1014.36 424.48L1015.38 425.155C1015.04 425.855 1014.61 426.365 1014.08 426.685C1013.56 427.005 1012.94 427.165 1012.23 427.165ZM1010.18 422.455H1013.96C1013.88 421.935 1013.68 421.515 1013.36 421.195C1013.04 420.875 1012.63 420.715 1012.14 420.715C1011.62 420.715 1011.19 420.865 1010.85 421.165C1010.51 421.455 1010.29 421.885 1010.18 422.455ZM1020.52 427.12C1019.79 427.14 1019.19 426.975 1018.71 426.625C1018.24 426.265 1018 425.75 1018 425.08C1018 424.59 1018.16 424.165 1018.47 423.805C1018.79 423.445 1019.19 423.165 1019.68 422.965C1020.18 422.755 1020.7 422.65 1021.23 422.65C1021.54 422.63 1021.82 422.66 1022.08 422.74C1022.34 422.81 1022.57 422.915 1022.76 423.055V422.155C1022.76 421.595 1022.64 421.23 1022.4 421.06C1022.17 420.89 1021.81 420.805 1021.32 420.805C1020.9 420.805 1020.45 420.88 1019.97 421.03C1019.5 421.18 1019.1 421.37 1018.77 421.6L1018.14 420.55C1018.55 420.29 1019.03 420.07 1019.59 419.89C1020.16 419.71 1020.74 419.62 1021.32 419.62C1022.24 419.62 1022.92 419.805 1023.37 420.175C1023.82 420.535 1024.05 421.195 1024.05 422.155V425.77C1024.05 425.96 1024.1 426.07 1024.2 426.1C1024.3 426.13 1024.52 426.105 1024.87 426.025V426.895C1024.74 426.945 1024.58 426.995 1024.38 427.045C1024.18 427.095 1023.97 427.12 1023.76 427.12C1023.44 427.12 1023.21 427.06 1023.07 426.94C1022.93 426.82 1022.84 426.605 1022.79 426.295C1022.52 426.565 1022.18 426.765 1021.77 426.895C1021.36 427.025 1020.94 427.1 1020.52 427.12ZM1020.54 425.935C1020.96 425.925 1021.34 425.865 1021.68 425.755C1022.03 425.635 1022.3 425.47 1022.5 425.26C1022.7 425.04 1022.79 424.78 1022.77 424.48C1022.75 424.2 1022.61 424 1022.34 423.88C1022.08 423.76 1021.74 423.71 1021.33 423.73C1020.96 423.74 1020.62 423.81 1020.31 423.94C1020 424.06 1019.75 424.22 1019.56 424.42C1019.38 424.62 1019.29 424.845 1019.29 425.095C1019.3 425.375 1019.42 425.59 1019.64 425.74C1019.86 425.88 1020.16 425.945 1020.54 425.935ZM1027.89 427V419.8H1029.12L1029.2 420.925C1029.4 420.535 1029.7 420.22 1030.1 419.98C1030.51 419.74 1030.95 419.62 1031.42 419.62C1031.58 419.62 1031.73 419.63 1031.87 419.65C1032.01 419.67 1032.13 419.69 1032.23 419.71V421.015C1032.12 420.985 1031.98 420.96 1031.81 420.94C1031.64 420.92 1031.45 420.91 1031.25 420.91C1030.69 420.91 1030.22 421.095 1029.83 421.465C1029.44 421.825 1029.24 422.3 1029.24 422.89V427H1027.89ZM1035.32 427V419.8H1036.65V427H1035.32ZM1035.98 418.45C1035.73 418.45 1035.51 418.365 1035.33 418.195C1035.16 418.015 1035.08 417.8 1035.08 417.55C1035.08 417.3 1035.16 417.09 1035.33 416.92C1035.51 416.74 1035.73 416.65 1035.98 416.65C1036.22 416.65 1036.42 416.74 1036.59 416.92C1036.77 417.09 1036.86 417.3 1036.86 417.55C1036.86 417.8 1036.77 418.015 1036.59 418.195C1036.42 418.365 1036.22 418.45 1035.98 418.45ZM1040.38 427V419.8H1041.6L1041.67 420.73C1041.88 420.43 1042.16 420.17 1042.51 419.95C1042.87 419.73 1043.28 419.62 1043.74 419.62C1044.5 419.62 1045.12 419.865 1045.59 420.355C1046.07 420.835 1046.31 421.535 1046.31 422.455V427H1044.97V422.74C1044.97 422.11 1044.83 421.64 1044.55 421.33C1044.27 421.01 1043.91 420.85 1043.46 420.85C1042.95 420.85 1042.53 421.02 1042.21 421.36C1041.89 421.69 1041.73 422.135 1041.73 422.695V427H1040.38ZM1052.73 430.105C1051.33 430.105 1050.29 429.555 1049.6 428.455L1050.68 427.72C1051.13 428.48 1051.81 428.86 1052.73 428.86C1053.38 428.86 1053.87 428.65 1054.2 428.23C1054.53 427.82 1054.7 427.18 1054.7 426.31V425.515C1054.46 425.815 1054.16 426.05 1053.81 426.22C1053.47 426.39 1053.09 426.475 1052.67 426.475C1052.05 426.475 1051.5 426.34 1051.01 426.07C1050.52 425.8 1050.13 425.41 1049.85 424.9C1049.58 424.38 1049.45 423.76 1049.45 423.04C1049.45 422.31 1049.58 421.695 1049.85 421.195C1050.13 420.685 1050.52 420.295 1051.01 420.025C1051.5 419.755 1052.05 419.62 1052.67 419.62C1053.11 419.62 1053.51 419.715 1053.87 419.905C1054.24 420.085 1054.55 420.34 1054.8 420.67L1054.85 419.8H1056.03V426.31C1056.03 427.55 1055.75 428.49 1055.18 429.13C1054.62 429.78 1053.8 430.105 1052.73 430.105ZM1052.76 425.29C1053.35 425.29 1053.84 425.085 1054.22 424.675C1054.6 424.265 1054.79 423.72 1054.79 423.04C1054.79 422.36 1054.6 421.82 1054.22 421.42C1053.84 421.02 1053.35 420.82 1052.76 420.82C1052.18 420.82 1051.71 421.02 1051.34 421.42C1050.98 421.82 1050.8 422.36 1050.8 423.04C1050.8 423.72 1050.98 424.265 1051.34 424.675C1051.71 425.085 1052.18 425.29 1052.76 425.29ZM1066.04 427V420.97H1064.61V419.8H1066.04V418.45C1066.04 417.86 1066.13 417.395 1066.32 417.055C1066.51 416.715 1066.78 416.475 1067.12 416.335C1067.46 416.195 1067.85 416.125 1068.3 416.125C1068.77 416.125 1069.17 416.175 1069.5 416.275V417.505C1069.37 417.455 1069.22 417.415 1069.05 417.385C1068.89 417.345 1068.73 417.325 1068.56 417.325C1068.2 417.325 1067.91 417.425 1067.69 417.625C1067.48 417.815 1067.37 418.135 1067.37 418.585V419.8H1069.5V420.97H1067.37V427H1066.04ZM1072.24 427V419.8H1073.47L1073.54 420.925C1073.74 420.535 1074.04 420.22 1074.44 419.98C1074.85 419.74 1075.29 419.62 1075.76 419.62C1075.92 419.62 1076.07 419.63 1076.21 419.65C1076.35 419.67 1076.47 419.69 1076.57 419.71V421.015C1076.46 420.985 1076.32 420.96 1076.15 420.94C1075.98 420.92 1075.8 420.91 1075.6 420.91C1075.04 420.91 1074.56 421.095 1074.17 421.465C1073.78 421.825 1073.59 422.3 1073.59 422.89V427H1072.24ZM1082.45 427.165C1081.79 427.165 1081.2 427.01 1080.68 426.7C1080.17 426.38 1079.77 425.935 1079.47 425.365C1079.18 424.795 1079.03 424.135 1079.03 423.385C1079.03 422.635 1079.18 421.98 1079.47 421.42C1079.77 420.85 1080.17 420.41 1080.68 420.1C1081.2 419.78 1081.79 419.62 1082.45 419.62C1083.11 419.62 1083.7 419.78 1084.21 420.1C1084.73 420.41 1085.13 420.85 1085.42 421.42C1085.72 421.98 1085.87 422.635 1085.87 423.385C1085.87 424.135 1085.72 424.795 1085.42 425.365C1085.13 425.935 1084.73 426.38 1084.21 426.7C1083.7 427.01 1083.11 427.165 1082.45 427.165ZM1082.45 425.935C1083.06 425.935 1083.56 425.71 1083.94 425.26C1084.33 424.8 1084.52 424.175 1084.52 423.385C1084.52 422.595 1084.33 421.975 1083.94 421.525C1083.56 421.075 1083.06 420.85 1082.45 420.85C1081.84 420.85 1081.34 421.075 1080.95 421.525C1080.57 421.975 1080.38 422.595 1080.38 423.385C1080.38 424.175 1080.57 424.8 1080.95 425.26C1081.34 425.71 1081.84 425.935 1082.45 425.935ZM1088.99 427V419.8H1090.21L1090.28 420.79C1090.44 420.45 1090.69 420.17 1091.03 419.95C1091.38 419.73 1091.78 419.62 1092.23 419.62C1092.75 419.62 1093.19 419.74 1093.55 419.98C1093.91 420.22 1094.17 420.56 1094.33 421C1094.51 420.6 1094.78 420.27 1095.14 420.01C1095.51 419.75 1095.96 419.62 1096.48 419.62C1097.21 419.62 1097.79 419.86 1098.22 420.34C1098.65 420.82 1098.86 421.52 1098.86 422.44V427H1097.5V422.71C1097.5 422.08 1097.38 421.615 1097.14 421.315C1096.91 421.005 1096.59 420.85 1096.18 420.85C1095.69 420.85 1095.3 421.03 1095.01 421.39C1094.73 421.75 1094.59 422.21 1094.59 422.77V427H1093.25V422.71C1093.25 422.08 1093.13 421.615 1092.89 421.315C1092.65 421.005 1092.33 420.85 1091.92 420.85C1091.43 420.85 1091.04 421.035 1090.76 421.405C1090.48 421.765 1090.34 422.215 1090.34 422.755V427H1088.99ZM1108.74 430.105C1108.31 430.105 1107.92 430.065 1107.58 429.985V428.74C1107.73 428.78 1107.9 428.81 1108.08 428.83C1108.27 428.86 1108.45 428.875 1108.62 428.875C1109 428.875 1109.26 428.8 1109.41 428.65C1109.56 428.5 1109.71 428.235 1109.86 427.855L1110.19 426.985L1107.34 419.8H1108.75L1110.78 425.35L1112.73 419.8H1114.11L1111.02 428.26C1110.8 428.87 1110.52 429.33 1110.18 429.64C1109.85 429.95 1109.37 430.105 1108.74 430.105ZM1119.7 427.165C1119.04 427.165 1118.45 427.01 1117.93 426.7C1117.42 426.38 1117.01 425.935 1116.71 425.365C1116.42 424.795 1116.28 424.135 1116.28 423.385C1116.28 422.635 1116.42 421.98 1116.71 421.42C1117.01 420.85 1117.42 420.41 1117.93 420.1C1118.45 419.78 1119.04 419.62 1119.7 419.62C1120.36 419.62 1120.94 419.78 1121.45 420.1C1121.97 420.41 1122.38 420.85 1122.67 421.42C1122.97 421.98 1123.12 422.635 1123.12 423.385C1123.12 424.135 1122.97 424.795 1122.67 425.365C1122.38 425.935 1121.97 426.38 1121.45 426.7C1120.94 427.01 1120.36 427.165 1119.7 427.165ZM1119.7 425.935C1120.31 425.935 1120.8 425.71 1121.18 425.26C1121.57 424.8 1121.77 424.175 1121.77 423.385C1121.77 422.595 1121.57 421.975 1121.18 421.525C1120.8 421.075 1120.31 420.85 1119.7 420.85C1119.09 420.85 1118.59 421.075 1118.2 421.525C1117.82 421.975 1117.63 422.595 1117.63 423.385C1117.63 424.175 1117.82 424.8 1118.2 425.26C1118.59 425.71 1119.09 425.935 1119.7 425.935ZM1128.67 427.165C1127.91 427.165 1127.29 426.925 1126.82 426.445C1126.35 425.955 1126.12 425.25 1126.12 424.33V419.8H1127.45V424.06C1127.45 424.68 1127.59 425.15 1127.87 425.47C1128.15 425.78 1128.51 425.935 1128.95 425.935C1129.46 425.935 1129.88 425.77 1130.2 425.44C1130.53 425.1 1130.69 424.645 1130.69 424.075V419.8H1132.03V427H1130.81L1130.75 426.07C1130.54 426.37 1130.26 426.63 1129.9 426.85C1129.55 427.06 1129.14 427.165 1128.67 427.165Z" fill="#494949"/>
<path d="M685 370V363.64H686.44C688.6 363.64 690.4 363.08 691.84 361.96C693.36 360.84 694.76 358.48 696.04 354.88L722.08 284.32H738.52L763.6 355C764.8 358.36 766.12 360.64 767.56 361.84C769.08 363.04 770.8 363.64 772.72 363.64H774.88V370H735.28V363.64H739.96C741.16 363.64 742.32 363.28 743.44 362.56C744.56 361.84 745.12 360.64 745.12 358.96C745.12 358 745 357.08 744.76 356.2C744.52 355.24 744.28 354.44 744.04 353.8L739.84 341.8H710.68L707.2 352.12C706.88 353.08 706.56 354.24 706.24 355.6C705.92 356.88 705.76 358 705.76 358.96C705.76 360.48 706.32 361.64 707.44 362.44C708.56 363.24 709.8 363.64 711.16 363.64H716.2V370H685ZM713.2 334.48H737.44L731.08 314.8C730.28 312.08 729.36 309.04 728.32 305.68C727.36 302.32 726.56 299.24 725.92 296.44C725.2 299 724.32 301.92 723.28 305.2C722.24 308.4 721.24 311.4 720.28 314.2L713.2 334.48ZM822.511 371.2C817.871 371.2 814.071 370.24 811.111 368.32C808.231 366.32 805.911 363.76 804.151 360.64H803.071L799.711 370H776.911V363.64H777.751C779.271 363.64 780.711 363.44 782.071 363.04C783.511 362.64 784.671 361.84 785.551 360.64C786.431 359.44 786.871 357.64 786.871 355.24V293.2C786.871 289.76 785.911 287.56 783.991 286.6C782.151 285.64 779.951 285.16 777.391 285.16H776.911V278.8H805.111V299.32C805.111 300.52 805.071 302.04 804.991 303.88C804.911 305.64 804.791 307.44 804.631 309.28C804.471 311.12 804.311 312.64 804.151 313.84H804.991C806.751 310.88 809.031 308.56 811.831 306.88C814.711 305.12 818.431 304.24 822.991 304.24C830.831 304.24 836.791 306.92 840.871 312.28C845.031 317.56 847.111 326 847.111 337.6C847.111 349.2 844.991 357.72 840.751 363.16C836.591 368.52 830.511 371.2 822.511 371.2ZM817.471 362.2C821.471 362.2 824.311 360.08 825.991 355.84C827.751 351.6 828.631 345.48 828.631 337.48C828.631 329.32 827.751 323.24 825.991 319.24C824.231 315.16 821.351 313.12 817.351 313.12C812.631 313.12 809.391 315.12 807.631 319.12C805.951 323.12 805.111 329.28 805.111 337.6C805.111 345.52 805.951 351.6 807.631 355.84C809.391 360.08 812.671 362.2 817.471 362.2ZM889.401 371.2C879.801 371.2 872.241 368.44 866.721 362.92C861.201 357.32 858.441 348.88 858.441 337.6C858.441 326.32 861.081 317.92 866.361 312.4C871.641 306.88 879.441 304.12 889.761 304.12C899.361 304.12 906.921 306.88 912.441 312.4C917.961 317.92 920.721 326.32 920.721 337.6C920.721 348.88 918.041 357.32 912.681 362.92C907.401 368.44 899.641 371.2 889.401 371.2ZM889.641 363.64C894.281 363.64 897.521 361.44 899.361 357.04C901.201 352.56 902.121 346.08 902.121 337.6C902.121 329.04 901.161 322.6 899.241 318.28C897.401 313.96 894.161 311.8 889.521 311.8C884.881 311.8 881.641 313.96 879.801 318.28C877.961 322.6 877.041 329.04 877.041 337.6C877.041 346.08 877.961 352.56 879.801 357.04C881.721 361.44 885.001 363.64 889.641 363.64ZM957.355 371.2C951.115 371.2 946.315 369.28 942.955 365.44C939.595 361.52 937.915 355.52 937.915 347.44V320.56C937.915 317.04 937.275 314.76 935.995 313.72C934.715 312.6 932.635 312.04 929.755 312.04H929.515V305.68H956.155V344.08C956.155 349.2 956.795 353.32 958.075 356.44C959.355 359.48 961.755 361 965.275 361C969.115 361 971.875 359.36 973.555 356.08C975.315 352.8 976.195 348.36 976.195 342.76V319.72C976.195 316.2 975.315 314.04 973.555 313.24C971.875 312.44 969.875 312.04 967.555 312.04H967.195V305.68H994.435V356.08C994.435 359.52 995.195 361.64 996.715 362.44C998.235 363.24 1000.15 363.64 1002.47 363.64H1003.43V370H979.555L976.915 361.48H976.315C973.915 365.64 971.075 368.32 967.795 369.52C964.595 370.64 961.115 371.2 957.355 371.2ZM1035.59 371.2C1030.23 371.2 1025.95 369.8 1022.75 367C1019.55 364.2 1017.95 359.28 1017.95 352.24V313.84H1008.95V307.72C1011.51 307.72 1013.79 307.2 1015.79 306.16C1017.87 305.12 1019.51 303.96 1020.71 302.68C1023.19 300.04 1025.03 296.08 1026.23 290.8H1036.19V305.68H1051.55V313.84H1036.19V351.04C1036.19 354.64 1036.79 357.28 1037.99 358.96C1039.27 360.64 1041.31 361.48 1044.11 361.48C1045.71 361.48 1047.19 361.4 1048.55 361.24C1049.99 361 1051.35 360.72 1052.63 360.4V368.2C1051.35 368.76 1049.23 369.4 1046.27 370.12C1043.39 370.84 1039.83 371.2 1035.59 371.2ZM1132.68 371.2C1122.28 371.2 1114.12 369.12 1108.2 364.96C1102.36 360.72 1099.44 353.68 1099.44 343.84V298C1099.44 294.8 1098.8 292.8 1097.52 292C1096.32 291.12 1094.92 290.68 1093.32 290.68H1088.16V284.32H1129.56V290.68H1124.52C1122.84 290.68 1121.4 291.12 1120.2 292C1119 292.88 1118.4 295.04 1118.4 298.48V344.8C1118.4 351.52 1120 356.2 1123.2 358.84C1126.48 361.4 1130.84 362.68 1136.28 362.68C1141.64 362.68 1145.88 361.28 1149 358.48C1152.12 355.6 1153.68 351.12 1153.68 345.04V298C1153.68 294.8 1153.08 292.8 1151.88 292C1150.68 291.12 1149.24 290.68 1147.56 290.68H1142.52V284.32H1173.96V290.68H1168.8C1167.12 290.68 1165.68 291.12 1164.48 292C1163.28 292.88 1162.68 295.04 1162.68 298.48V345.28C1162.68 353.28 1160.28 359.6 1155.48 364.24C1150.76 368.88 1143.16 371.2 1132.68 371.2ZM1203.61 371.2C1194.89 371.2 1188.69 369.88 1185.01 367.24C1181.33 364.52 1179.49 361.16 1179.49 357.16C1179.49 354.52 1180.13 352.56 1181.41 351.28C1182.69 350 1184.21 349.16 1185.97 348.76C1187.73 348.28 1189.29 348.04 1190.65 348.04C1190.65 353 1191.81 356.92 1194.13 359.8C1196.53 362.68 1199.69 364.12 1203.61 364.12C1207.77 364.12 1210.77 363.32 1212.61 361.72C1214.53 360.12 1215.49 358.2 1215.49 355.96C1215.49 353.32 1214.45 351.16 1212.37 349.48C1210.29 347.8 1206.41 345.96 1200.73 343.96C1194.25 341.72 1189.29 339.08 1185.85 336.04C1182.41 332.92 1180.69 328.68 1180.69 323.32C1180.69 316.92 1183.05 312.16 1187.77 309.04C1192.49 305.84 1198.73 304.24 1206.49 304.24C1211.53 304.24 1215.57 304.8 1218.61 305.92C1221.73 306.96 1223.97 308.36 1225.33 310.12C1226.77 311.8 1227.49 313.56 1227.49 315.4C1227.49 318.12 1226.53 320.2 1224.61 321.64C1222.77 323 1219.65 323.68 1215.25 323.68C1215.25 319.68 1214.37 316.6 1212.61 314.44C1210.85 312.2 1208.21 311.08 1204.69 311.08C1202.13 311.08 1199.85 311.72 1197.85 313C1195.93 314.2 1194.97 316.04 1194.97 318.52C1194.97 320.2 1195.41 321.68 1196.29 322.96C1197.25 324.24 1198.93 325.48 1201.33 326.68C1203.73 327.88 1207.09 329.24 1211.41 330.76C1216.77 332.6 1221.13 335.04 1224.49 338.08C1227.93 341.04 1229.65 345.04 1229.65 350.08C1229.65 356.72 1227.37 361.92 1222.81 365.68C1218.33 369.36 1211.93 371.2 1203.61 371.2Z" fill="black"/>
</g>
</svg>
