<svg width="1920" height="604" viewBox="0 0 1920 604" fill="none" xmlns="http://www.w3.org/2000/svg">
<mask id="mask0_449_1723" style="mask-type:alpha" maskUnits="userSpaceOnUse" x="0" y="0" width="1920" height="604">
<rect width="1920" height="604" fill="#FFFAFA"/>
</mask>
<g mask="url(#mask0_449_1723)">
<rect width="1920" height="604" fill="#F9F9F9"/>
<path d="M3 287L139.832 524H-133.832L3 287Z" fill="#FFA85A" fill-opacity="0.12"/>
<path d="M-10 193L126.832 430H-146.832L-10 193Z" fill="#FFA85A" fill-opacity="0.12"/>
<path d="M1898.53 364.607L1691.26 450.116L1720.84 227.856L1898.53 364.607Z" fill="#747474" fill-opacity="0.12"/>
<path d="M1867.44 422.928L1660.16 508.437L1689.75 286.178L1867.44 422.928Z" fill="#747474" fill-opacity="0.12"/>
<path d="M1833.81 489.679L1626.53 575.188L1656.12 352.929L1833.81 489.679Z" fill="#747474" fill-opacity="0.12"/>
<path d="M1822 288.5C1822 297.06 1815.06 304 1806.5 304C1797.94 304 1791 297.06 1791 288.5C1791 279.94 1797.94 273 1806.5 273C1815.06 273 1822 279.94 1822 288.5Z" fill="#FFB546"/>
<path d="M202 415C202 461.944 163.944 500 117 500C70.0558 500 32 461.944 32 415C32 368.056 70.0558 330 117 330C163.944 330 202 368.056 202 415Z" fill="#DF3E3F"/>
<path d="M209 280.491C209 300.102 193.106 316 173.5 316C153.894 316 138 300.102 138 280.491C138 260.88 153.894 244.982 173.5 244.982C193.106 244.982 209 260.88 209 280.491Z" fill="#6CBEDC"/>
<path fill-rule="evenodd" clip-rule="evenodd" d="M948.683 370.33C928.365 371.349 908.285 372.601 888.704 373.971C860.984 375.908 833.275 377.912 805.734 381.085C797.064 382.087 788.26 382.722 779.645 383.974C774.237 384.759 767.066 385.878 766.125 386.112C765.632 386.246 765.418 386.446 765.348 386.513C764.86 386.981 764.949 387.431 765.225 387.782C765.335 387.932 765.615 388.3 766.391 388.35C818.309 391.774 871.397 385.093 923.377 384.392C1013.52 383.19 1106.4 387.966 1195.82 398.387C1196.6 398.47 1197.36 398.053 1197.47 397.435C1197.6 396.834 1197.04 396.249 1196.26 396.166C1106.68 385.728 1013.65 380.935 923.334 382.154C874.89 382.805 825.491 388.667 776.98 386.663C778.094 386.496 779.187 386.329 780.185 386.179C788.765 384.926 797.533 384.308 806.167 383.306C833.651 380.133 861.303 378.129 888.986 376.209C923.334 373.804 959.179 371.733 995.305 370.764C1008.23 370.915 1021.11 371.065 1033.99 371.249C1061.86 371.65 1089.85 372.819 1117.65 374.388C1126.02 374.873 1134.39 375.374 1142.76 375.808C1145.54 375.958 1152.69 376.392 1153.69 376.359C1154.93 376.326 1155.16 375.524 1155.19 375.39C1155.25 375.09 1155.21 374.672 1154.6 374.322C1154.54 374.271 1154.15 374.104 1153.28 374.004C1102.73 368.092 1048.76 367.107 995.349 368.527C939.012 367.909 882.458 367.641 826.265 367.357C825.46 367.357 824.803 367.859 824.797 368.476C824.792 369.094 825.441 369.595 826.245 369.612C866.934 369.813 907.83 370.013 948.683 370.33Z" fill="#FFB546"/>
<path d="M685 370V363.64H686.44C688.6 363.64 690.4 363.08 691.84 361.96C693.36 360.84 694.76 358.48 696.04 354.88L722.08 284.32H738.52L763.6 355C764.8 358.36 766.12 360.64 767.56 361.84C769.08 363.04 770.8 363.64 772.72 363.64H774.88V370H735.28V363.64H739.96C741.16 363.64 742.32 363.28 743.44 362.56C744.56 361.84 745.12 360.64 745.12 358.96C745.12 358 745 357.08 744.76 356.2C744.52 355.24 744.28 354.44 744.04 353.8L739.84 341.8H710.68L707.2 352.12C706.88 353.08 706.56 354.24 706.24 355.6C705.92 356.88 705.76 358 705.76 358.96C705.76 360.48 706.32 361.64 707.44 362.44C708.56 363.24 709.8 363.64 711.16 363.64H716.2V370H685ZM713.2 334.48H737.44L731.08 314.8C730.28 312.08 729.36 309.04 728.32 305.68C727.36 302.32 726.56 299.24 725.92 296.44C725.2 299 724.32 301.92 723.28 305.2C722.24 308.4 721.24 311.4 720.28 314.2L713.2 334.48ZM822.511 371.2C817.871 371.2 814.071 370.24 811.111 368.32C808.231 366.32 805.911 363.76 804.151 360.64H803.071L799.711 370H776.911V363.64H777.751C779.271 363.64 780.711 363.44 782.071 363.04C783.511 362.64 784.671 361.84 785.551 360.64C786.431 359.44 786.871 357.64 786.871 355.24V293.2C786.871 289.76 785.911 287.56 783.991 286.6C782.151 285.64 779.951 285.16 777.391 285.16H776.911V278.8H805.111V299.32C805.111 300.52 805.071 302.04 804.991 303.88C804.911 305.64 804.791 307.44 804.631 309.28C804.471 311.12 804.311 312.64 804.151 313.84H804.991C806.751 310.88 809.031 308.56 811.831 306.88C814.711 305.12 818.431 304.24 822.991 304.24C830.831 304.24 836.791 306.92 840.871 312.28C845.031 317.56 847.111 326 847.111 337.6C847.111 349.2 844.991 357.72 840.751 363.16C836.591 368.52 830.511 371.2 822.511 371.2ZM817.471 362.2C821.471 362.2 824.311 360.08 825.991 355.84C827.751 351.6 828.631 345.48 828.631 337.48C828.631 329.32 827.751 323.24 825.991 319.24C824.231 315.16 821.351 313.12 817.351 313.12C812.631 313.12 809.391 315.12 807.631 319.12C805.951 323.12 805.111 329.28 805.111 337.6C805.111 345.52 805.951 351.6 807.631 355.84C809.391 360.08 812.671 362.2 817.471 362.2ZM889.401 371.2C879.801 371.2 872.241 368.44 866.721 362.92C861.201 357.32 858.441 348.88 858.441 337.6C858.441 326.32 861.081 317.92 866.361 312.4C871.641 306.88 879.441 304.12 889.761 304.12C899.361 304.12 906.921 306.88 912.441 312.4C917.961 317.92 920.721 326.32 920.721 337.6C920.721 348.88 918.041 357.32 912.681 362.92C907.401 368.44 899.641 371.2 889.401 371.2ZM889.641 363.64C894.281 363.64 897.521 361.44 899.361 357.04C901.201 352.56 902.121 346.08 902.121 337.6C902.121 329.04 901.161 322.6 899.241 318.28C897.401 313.96 894.161 311.8 889.521 311.8C884.881 311.8 881.641 313.96 879.801 318.28C877.961 322.6 877.041 329.04 877.041 337.6C877.041 346.08 877.961 352.56 879.801 357.04C881.721 361.44 885.001 363.64 889.641 363.64ZM957.355 371.2C951.115 371.2 946.315 369.28 942.955 365.44C939.595 361.52 937.915 355.52 937.915 347.44V320.56C937.915 317.04 937.275 314.76 935.995 313.72C934.715 312.6 932.635 312.04 929.755 312.04H929.515V305.68H956.155V344.08C956.155 349.2 956.795 353.32 958.075 356.44C959.355 359.48 961.755 361 965.275 361C969.115 361 971.875 359.36 973.555 356.08C975.315 352.8 976.195 348.36 976.195 342.76V319.72C976.195 316.2 975.315 314.04 973.555 313.24C971.875 312.44 969.875 312.04 967.555 312.04H967.195V305.68H994.435V356.08C994.435 359.52 995.195 361.64 996.715 362.44C998.235 363.24 1000.15 363.64 1002.47 363.64H1003.43V370H979.555L976.915 361.48H976.315C973.915 365.64 971.075 368.32 967.795 369.52C964.595 370.64 961.115 371.2 957.355 371.2ZM1035.59 371.2C1030.23 371.2 1025.95 369.8 1022.75 367C1019.55 364.2 1017.95 359.28 1017.95 352.24V313.84H1008.95V307.72C1011.51 307.72 1013.79 307.2 1015.79 306.16C1017.87 305.12 1019.51 303.96 1020.71 302.68C1023.19 300.04 1025.03 296.08 1026.23 290.8H1036.19V305.68H1051.55V313.84H1036.19V351.04C1036.19 354.64 1036.79 357.28 1037.99 358.96C1039.27 360.64 1041.31 361.48 1044.11 361.48C1045.71 361.48 1047.19 361.4 1048.55 361.24C1049.99 361 1051.35 360.72 1052.63 360.4V368.2C1051.35 368.76 1049.23 369.4 1046.27 370.12C1043.39 370.84 1039.83 371.2 1035.59 371.2ZM1132.68 371.2C1122.28 371.2 1114.12 369.12 1108.2 364.96C1102.36 360.72 1099.44 353.68 1099.44 343.84V298C1099.44 294.8 1098.8 292.8 1097.52 292C1096.32 291.12 1094.92 290.68 1093.32 290.68H1088.16V284.32H1129.56V290.68H1124.52C1122.84 290.68 1121.4 291.12 1120.2 292C1119 292.88 1118.4 295.04 1118.4 298.48V344.8C1118.4 351.52 1120 356.2 1123.2 358.84C1126.48 361.4 1130.84 362.68 1136.28 362.68C1141.64 362.68 1145.88 361.28 1149 358.48C1152.12 355.6 1153.68 351.12 1153.68 345.04V298C1153.68 294.8 1153.08 292.8 1151.88 292C1150.68 291.12 1149.24 290.68 1147.56 290.68H1142.52V284.32H1173.96V290.68H1168.8C1167.12 290.68 1165.68 291.12 1164.48 292C1163.28 292.88 1162.68 295.04 1162.68 298.48V345.28C1162.68 353.28 1160.28 359.6 1155.48 364.24C1150.76 368.88 1143.16 371.2 1132.68 371.2ZM1203.61 371.2C1194.89 371.2 1188.69 369.88 1185.01 367.24C1181.33 364.52 1179.49 361.16 1179.49 357.16C1179.49 354.52 1180.13 352.56 1181.41 351.28C1182.69 350 1184.21 349.16 1185.97 348.76C1187.73 348.28 1189.29 348.04 1190.65 348.04C1190.65 353 1191.81 356.92 1194.13 359.8C1196.53 362.68 1199.69 364.12 1203.61 364.12C1207.77 364.12 1210.77 363.32 1212.61 361.72C1214.53 360.12 1215.49 358.2 1215.49 355.96C1215.49 353.32 1214.45 351.16 1212.37 349.48C1210.29 347.8 1206.41 345.96 1200.73 343.96C1194.25 341.72 1189.29 339.08 1185.85 336.04C1182.41 332.92 1180.69 328.68 1180.69 323.32C1180.69 316.92 1183.05 312.16 1187.77 309.04C1192.49 305.84 1198.73 304.24 1206.49 304.24C1211.53 304.24 1215.57 304.8 1218.61 305.92C1221.73 306.96 1223.97 308.36 1225.33 310.12C1226.77 311.8 1227.49 313.56 1227.49 315.4C1227.49 318.12 1226.53 320.2 1224.61 321.64C1222.77 323 1219.65 323.68 1215.25 323.68C1215.25 319.68 1214.37 316.6 1212.61 314.44C1210.85 312.2 1208.21 311.08 1204.69 311.08C1202.13 311.08 1199.85 311.72 1197.85 313C1195.93 314.2 1194.97 316.04 1194.97 318.52C1194.97 320.2 1195.41 321.68 1196.29 322.96C1197.25 324.24 1198.93 325.48 1201.33 326.68C1203.73 327.88 1207.09 329.24 1211.41 330.76C1216.77 332.6 1221.13 335.04 1224.49 338.08C1227.93 341.04 1229.65 345.04 1229.65 350.08C1229.65 356.72 1227.37 361.92 1222.81 365.68C1218.33 369.36 1211.93 371.2 1203.61 371.2Z" fill="black"/>
</g>
</svg>
