<svg width="1626" height="737" viewBox="0 0 1626 737" fill="none" xmlns="http://www.w3.org/2000/svg">
<path fill-rule="evenodd" clip-rule="evenodd" d="M1621.44 22.8541C1619.95 28.9274 1620.05 34.7761 1619.87 40.9365C1619.84 42.1395 1620.78 43.1398 1621.98 43.176C1623.17 43.2122 1624.17 42.2628 1624.21 41.0597C1624.38 35.2182 1624.24 29.6595 1625.65 23.8905C1625.94 22.7236 1625.23 21.5423 1624.07 21.2597C1622.9 20.9698 1621.73 21.6872 1621.44 22.8541Z" fill="black"/>
<path fill-rule="evenodd" clip-rule="evenodd" d="M1608.78 11.0838C1598.68 20.3461 1589.15 32.2609 1582.5 44.2917C1581.92 45.3426 1582.3 46.669 1583.34 47.2488C1584.39 47.8286 1585.71 47.4517 1586.29 46.4008C1592.73 34.7686 1601.94 23.245 1611.71 14.2944C1612.59 13.4827 1612.66 12.1057 1611.85 11.2215C1611.04 10.3373 1609.67 10.2721 1608.78 11.0838Z" fill="black"/>
<path fill-rule="evenodd" clip-rule="evenodd" d="M1606.22 0.966412C1596.98 -0.562836 1587.45 2.04628 1579.05 5.73532C1577.95 6.22091 1577.45 7.5037 1577.93 8.59809C1578.41 9.69973 1579.69 10.1999 1580.79 9.72151C1588.44 6.35861 1597.1 3.86541 1605.52 5.25695C1606.7 5.45264 1607.82 4.64817 1608.01 3.46681C1608.21 2.28544 1607.4 1.1621 1606.22 0.966412Z" fill="black"/>
<path fill-rule="evenodd" clip-rule="evenodd" d="M10.9345 713.931C10.9105 707.677 9.40035 702.026 8.08272 696.006C7.82523 694.831 6.66835 694.089 5.49853 694.344C4.32802 694.599 3.58825 695.762 3.84504 696.938C5.09462 702.647 6.57255 708.007 6.59654 713.946C6.60112 715.148 7.57806 716.121 8.77454 716.114C9.97207 716.113 10.9398 715.132 10.9345 713.931Z" fill="black"/>
<path fill-rule="evenodd" clip-rule="evenodd" d="M26.0601 722.282C33.6259 710.846 39.9831 696.977 43.5304 683.692C43.8393 682.532 43.1515 681.337 41.9955 681.028C40.8396 680.719 39.6486 681.405 39.3397 682.566C35.9092 695.411 29.761 708.824 22.4439 719.877C21.7832 720.879 22.0568 722.23 23.0542 722.891C24.0516 723.553 25.3994 723.284 26.0601 722.282Z" fill="black"/>
<path fill-rule="evenodd" clip-rule="evenodd" d="M30.9963 731.478C40.3352 730.72 48.9483 725.879 56.211 720.263C57.1574 719.526 57.3324 718.16 56.6026 717.215C55.8703 716.263 54.5072 716.088 53.559 716.818C46.9455 721.936 39.1487 726.453 30.6434 727.145C29.4501 727.242 28.5612 728.293 28.6583 729.486C28.7548 730.679 29.8037 731.574 30.9963 731.478Z" fill="black"/>
</svg>
