<svg width="156" height="148" viewBox="0 0 156 148" fill="none" xmlns="http://www.w3.org/2000/svg">
<path d="M80.0866 22.465C80.2487 22.5031 80.4121 22.5411 80.6344 22.5927C80.5526 22.3979 80.4846 22.2373 80.3921 22.0172L80.92 22.1129C81.189 22.3234 81.1529 22.7598 81.5466 22.8192C81.7604 22.7102 81.5516 22.4964 81.6401 22.3729C81.7396 22.2555 81.8469 22.1454 81.9612 22.0432C82.086 22.1787 82.2685 22.298 82.3258 22.4568C82.4308 22.6832 82.5923 22.8777 82.794 23.0204C83.1608 23.3434 83.5663 23.624 83.9903 23.9492C84.106 23.8458 84.2213 23.745 84.335 23.6438C84.4721 23.7884 84.6242 23.9496 84.7762 24.1086C84.8287 24.1623 84.9218 24.2082 84.9316 24.2645C85.0251 24.7919 85.4389 24.8656 85.8435 24.9631C85.9358 24.9884 86.0268 25.0185 86.1162 25.0533C86.6565 25.5837 86.6851 26.2556 86.9808 26.8175C87.0314 26.9127 87.0058 27.0481 87.0061 27.1647C87.0045 27.4104 87.0603 27.6534 87.1689 27.8734C87.2775 28.0934 87.4358 28.2841 87.6305 28.4298C88.0655 28.7543 88.4158 29.1832 88.6502 29.6783C88.7101 29.829 88.7988 29.9661 88.9111 30.0817C89.0234 30.1972 89.157 30.2888 89.3041 30.351L89.3562 30.7282C89.8818 30.8507 90.3398 31.1811 90.6295 31.6468C90.7845 31.8984 90.9711 32.134 91.1195 32.3885C91.436 32.9319 91.8973 33.3543 92.3311 33.791C92.9568 34.4233 93.5905 35.0441 94.1905 35.7042C94.5929 36.1038 95.0156 36.4817 95.4567 36.8361C95.9627 37.2657 96.3957 37.7779 96.7379 38.3517L96.7514 38.3277C96.4692 38.4102 96.2811 38.185 96.1124 38.0373C95.5919 37.5825 95.1061 37.0862 94.6059 36.6079C94.372 36.3888 94.1254 36.1843 93.8675 35.9955C93.4644 35.6696 93.0938 35.3039 92.761 34.9036C92.1798 34.2893 91.5507 33.7243 90.8799 33.2143C90.8198 33.1754 90.7555 33.1439 90.6884 33.1202C90.6587 33.1239 90.6304 33.1352 90.6063 33.1531C90.5822 33.171 90.5629 33.1949 90.5504 33.2226C90.5379 33.2503 90.5325 33.2808 90.5347 33.3113C90.5369 33.3419 90.5466 33.3713 90.563 33.3971C90.6829 33.66 90.7174 33.9679 90.9821 34.1573C91.0036 34.1696 91.0209 34.1883 91.0318 34.2109C91.2136 34.7892 91.7376 35.0716 92.1221 35.4776C92.6881 36.1022 93.3098 36.6716 93.979 37.1785C94.0758 37.256 94.1617 37.347 94.234 37.4487C94.7285 38.0946 95.4166 38.4907 96.0735 38.9256C96.3382 39.1017 96.6286 39.2393 96.8842 39.4269C97.0406 39.5446 97.2181 39.6296 97.4064 39.6768C97.5947 39.724 97.7901 39.7326 97.9811 39.7021L97.9604 39.6927C97.9846 39.8061 98.0182 39.9171 98.0608 40.0248C98.0873 40.0907 98.1374 40.1438 98.2009 40.1733C98.2643 40.2028 98.3364 40.2063 98.4019 40.1831C98.5897 40.126 98.5289 39.986 98.4793 39.8535L98.4727 39.8499C98.5855 39.8961 98.6935 39.9539 98.7949 40.0226C99.3208 40.468 99.9117 40.8395 100.336 41.4C100.649 41.8154 101.142 42.0571 101.413 42.5157C101.445 42.5698 101.537 42.5954 101.605 42.6244C101.814 42.7048 102.003 42.8329 102.157 42.9989C102.311 43.1648 102.426 43.3643 102.494 43.582C103.12 43.6194 103.235 44.2224 103.595 44.5451C103.533 44.7179 103.442 44.6421 103.358 44.6C103.336 44.5898 103.318 44.5661 103.295 44.5606C102.576 44.4028 102.06 43.9209 101.556 43.4134C101.44 43.3238 101.315 43.2448 101.185 43.1774C100.994 43.0673 100.822 42.927 100.674 42.7619C100.499 42.5904 100.295 42.4525 100.072 42.3551C99.8831 42.2459 99.6874 42.1297 99.424 42.2289C99.4215 42.2996 99.3911 42.3963 99.4192 42.4771C99.5663 42.8792 99.8518 43.2135 100.222 43.417C100.865 43.7951 101.39 44.3286 102 44.7497C102.395 45.0414 102.761 45.3738 103.09 45.7418C103.053 45.7648 102.989 45.7825 102.986 45.8112C102.987 45.872 103 45.9321 103.024 45.9881C103.023 45.9903 103.074 45.99 103.078 45.9799C103.096 45.9434 103.106 45.903 103.106 45.8619C103.097 45.816 103.082 45.7712 103.064 45.7285C103.168 45.787 103.315 45.8205 103.37 45.908C103.609 46.2608 103.97 46.5082 104.38 46.5999C104.693 46.6993 104.986 46.8573 105.243 47.0659C105.458 47.2244 105.683 47.3684 105.917 47.4971C105.97 47.5283 106.054 47.5027 106.18 47.5035C106.141 47.3925 106.133 47.2926 106.08 47.2317C105.793 46.8942 105.504 46.5586 105.196 46.2392C105.066 46.1267 104.925 46.0286 104.775 45.9465C104.405 45.7071 104.081 45.3995 103.82 45.0395C103.8 45.0108 103.82 44.9549 103.822 44.902C104.168 44.892 104.316 45.2857 104.626 45.3408L104.609 45.3236C104.702 45.3886 104.848 45.5295 104.881 45.5077C104.926 45.4753 104.977 45.4531 105.031 45.4426C105.085 45.432 105.141 45.4333 105.195 45.4465C105.249 45.4597 105.3 45.4844 105.343 45.519C105.387 45.5536 105.424 45.5973 105.45 45.6472C105.725 46.0848 106.144 46.3292 106.534 46.6217C106.67 46.7239 106.785 46.8586 106.915 46.9714C106.984 47.0391 107.064 47.0933 107.152 47.131C107.665 47.3051 108.113 47.6378 108.434 48.0828C108.616 48.2817 108.826 48.4515 109.057 48.5866C109.201 48.6868 109.161 48.7853 109.128 48.8975L109.097 48.862L109.136 48.8816L109.409 49.2543L109.42 49.2345L108.721 48.8943C108.461 49.1404 108.425 49.261 108.592 49.4191C108.825 49.6403 109.07 49.8491 109.324 50.0445C109.518 50.1924 109.762 50.2779 109.868 50.5293C109.891 50.5737 109.927 50.6088 109.972 50.629C110.402 50.8141 110.792 51.0865 111.117 51.4297C111.557 51.4889 111.682 51.8537 111.815 52.1815C112.096 52.1918 111.993 52.0084 111.994 51.8825L111.984 51.9021C112.251 52.1167 112.522 52.3253 112.782 52.5482C112.874 52.6078 112.951 52.6874 113.009 52.7811C113.066 52.8749 113.103 52.9805 113.116 53.0902C113.111 53.1514 113.127 53.2126 113.162 53.2629C113.197 53.3132 113.248 53.3491 113.307 53.3645C113.533 53.4429 113.696 53.6491 113.951 53.6898C114.022 53.7089 114.085 53.7526 114.129 53.8137C114.173 53.8747 114.194 53.9492 114.19 54.0244L114.202 54.0072C114.112 53.9694 114.02 53.9366 113.926 53.9088C113.606 53.8323 113.436 53.9822 113.331 54.2964C113.713 54.5661 114.073 54.8511 114.462 55.0853C114.958 55.3851 115.289 55.7665 115.324 56.3534C115.328 56.4536 115.366 56.5494 115.432 56.6244C115.497 56.6994 115.586 56.7488 115.683 56.7641C115.762 56.7834 115.853 56.73 115.937 56.7088L115.874 56.4616C115.909 56.4513 115.957 56.4205 115.978 56.4345C116.1 56.5156 116.216 56.6051 116.331 56.6959C116.505 56.832 116.666 56.9829 116.847 57.1056C117.136 57.2807 117.391 57.5094 117.599 57.7797C117.781 58.0304 117.98 58.268 118.194 58.4909C118.4 58.7095 118.747 58.7892 119.012 58.9644C119.216 59.1003 119.4 59.2652 119.559 59.4539C119.821 59.7844 120.157 60.0455 120.538 60.2147C120.3 60.6889 120.371 60.8517 120.859 61.0093C120.921 61.0337 120.983 61.0618 121.042 61.0935L121.051 61.0763L120.971 61.1633L121.105 61.2351L121.089 61.2244C121.31 61.376 121.537 61.5226 121.754 61.6817C122.046 61.8988 122.116 62.2473 122.264 62.5463C122.294 62.6076 122.235 62.7307 122.187 62.8037C122.082 62.9579 121.956 63.0967 121.839 63.2422C121.606 63.2347 121.371 63.2146 121.14 63.2254C121.105 63.2298 121.072 63.2432 121.043 63.2645C121.015 63.2857 120.992 63.3141 120.977 63.3469C120.963 63.3797 120.957 63.4157 120.96 63.4518C120.962 63.4878 120.974 63.5225 120.994 63.5527C121.024 63.6202 121.067 63.6813 121.119 63.7326C121.4 63.9739 121.701 64.1888 122.019 64.3746C122.364 64.5483 122.585 64.755 122.575 65.1374C122.994 65.4417 123.449 65.663 123.718 66.1062C124.269 66.4299 124.678 66.9721 125.29 67.2044L125.29 67.1855C125.209 67.2568 125.09 67.313 125.057 67.4036C125.029 67.5368 125.019 67.6737 125.029 67.8099C125.264 68.0738 125.487 68.3244 125.744 68.6127C125.67 68.6886 125.603 68.7704 125.543 68.8572C125.492 68.924 125.47 69.0085 125.48 69.0927C125.489 69.1769 125.531 69.254 125.595 69.3077C125.746 69.4605 125.973 69.5469 126.014 69.7946L126.033 69.7745C125.521 69.5868 125.085 69.2258 124.799 68.7519C124.493 68.3271 124.127 67.9512 123.713 67.6364C123.591 67.5126 123.433 67.4332 123.264 67.4108C122.894 67.4465 122.692 67.2377 122.456 67.001C122.079 66.6262 121.642 66.3604 121.092 66.4035C120.892 66.4197 120.812 66.551 120.913 66.7458C121.047 67.0036 121.184 67.2594 121.336 67.5506C121.492 67.6077 121.674 67.6799 121.858 67.7389C122.467 67.9377 122.816 68.4017 123.059 68.9533C123.119 69.0903 123.13 69.2415 123.291 69.2958C123.426 69.3382 123.564 69.3694 123.704 69.3891C123.767 69.3931 123.83 69.39 123.892 69.3797C123.922 69.4444 123.966 69.4931 123.96 69.5319C123.902 70.0421 124.23 70.2794 124.637 70.4571C124.75 70.5053 124.871 70.5279 124.986 70.5663C125.078 70.597 125.202 70.6078 125.256 70.672C125.665 71.1682 126.342 71.0808 126.803 71.4614C126.844 71.4941 127.008 71.4504 127.036 71.3967C127.068 71.3374 127.035 71.2082 126.986 71.1414C126.83 70.9448 126.618 70.8039 126.379 70.7394C126.238 70.6856 126.101 70.622 125.968 70.549C126.065 70.2982 126.147 70.0841 126.23 69.8698L126.227 69.8951C126.641 70.2401 127.003 70.6524 127.505 70.8858C127.625 70.9715 127.734 71.0728 127.828 71.187C128.107 71.4312 128.388 71.6737 128.669 71.9152C128.846 72.0669 129.118 72.1373 129.109 72.4537C129.108 72.5064 129.243 72.6068 129.323 72.6233C129.583 72.6785 129.847 72.705 130.114 72.7434C130.213 72.8689 130.295 73.0643 130.426 73.117C130.672 73.1951 130.925 73.2483 131.18 73.2755C131.289 73.435 131.407 73.6084 131.524 73.7801C131.344 73.8752 131.153 73.9464 130.955 73.992C130.495 74.0386 130.265 74.3416 130.051 74.6832C129.868 74.9761 129.684 75.2686 129.507 75.5504C129.525 75.6505 129.571 75.7435 129.638 75.8187C129.706 75.8939 129.793 75.9484 129.889 75.9758C130.256 76.1063 130.616 76.2568 130.971 76.3955C131.041 76.7184 130.698 76.7708 130.642 77.0586L130.899 77.7954C130.581 78.0519 130.294 78.3045 129.821 78.0993C129.73 78.0592 129.6 78.1205 129.482 78.1363C129.43 78.4684 129.611 78.7266 129.681 79.0029L129.687 78.988C129.645 79.123 129.582 79.2501 129.5 79.3642C129.12 79.7408 129.246 80.1712 129.503 80.5418C129.712 80.8441 129.871 81.1793 129.974 81.5339C130.006 81.6543 130.062 81.7667 130.139 81.8635C130.216 81.9604 130.313 82.0394 130.422 82.0956C130.789 82.2907 131.134 82.5168 131.569 82.5585C131.956 82.596 132.284 82.852 132.593 83.052C132.798 83.6048 132.382 83.913 132.246 84.352C132.039 84.2119 131.838 84.0756 131.633 83.9385C131.436 83.9883 131.252 84.1104 131.024 83.9418C130.887 83.8398 130.747 83.913 130.648 84.0275C130.587 84.0854 130.548 84.1636 130.538 84.2482C130.529 84.3329 130.549 84.4186 130.595 84.49C130.682 84.6389 130.769 84.7894 130.854 84.9403C130.94 85.1068 131.067 85.2479 131.222 85.3496C131.378 85.4514 131.556 85.5103 131.74 85.5207C131.928 85.5368 132.112 85.5935 132.278 85.6868C132.503 85.8046 132.785 85.8026 133.071 85.8564C133.201 86.0387 133.344 86.239 133.51 86.4708C133.708 86.4273 133.915 86.4511 134.1 86.5386C134.285 86.626 134.437 86.7724 134.533 86.9554C134.624 87.1012 134.741 87.2315 134.845 87.3702C135.186 87.8243 135.354 87.8892 135.959 87.8062L136.185 86.9942C136.495 86.9775 136.775 86.9613 137.057 86.9464C137.18 86.7139 137.236 86.4506 137.22 86.1862C137.242 85.923 137.249 85.6585 137.241 85.3941C137.22 85.11 137.153 84.8258 137.098 84.4885C137.15 84.3822 137.196 84.2727 137.235 84.1606C137.271 84.0246 137.301 83.8868 137.324 83.7477C137.514 83.6707 137.686 83.602 137.859 83.5324L137.837 83.5274C138.036 83.9063 138.197 84.2851 138.01 84.6987C137.996 84.7321 137.99 84.7683 137.99 84.8047C137.991 84.8411 138 84.8769 138.016 84.9098C138.22 85.2099 138.112 85.4421 137.961 85.7018C137.903 85.8571 137.897 86.0275 137.941 86.1879C137.998 86.4982 138.088 86.8055 138.168 87.1135C138.183 87.2084 138.217 87.2991 138.268 87.3798C138.489 87.6421 138.505 87.9698 138.625 88.264C138.657 88.3563 138.666 88.4548 138.652 88.5511C138.638 88.6475 138.602 88.7388 138.546 88.8175C138.372 88.8428 138.161 88.8213 138.023 88.9105C137.911 88.9845 137.889 89.1883 137.827 89.3359C137.716 89.401 137.654 89.2973 137.576 89.2479C137.276 89.0576 137.164 89.0472 136.975 89.3113C136.917 89.3987 136.84 89.4725 136.752 89.5279C136.663 89.5832 136.564 89.619 136.461 89.6329C136.091 89.6958 135.719 89.763 135.321 89.8326C135.228 90.0097 135.208 90.2624 134.972 90.3893C134.924 90.4216 134.885 90.4653 134.858 90.5167C134.83 90.5681 134.816 90.6256 134.815 90.6843C134.83 90.8271 134.812 90.9712 134.763 91.1052C134.713 91.2392 134.634 91.3592 134.53 91.4557C134.485 91.4933 134.456 91.5475 134.449 91.6069C134.442 91.6664 134.457 91.7265 134.492 91.7747C134.535 91.836 134.598 91.8798 134.67 91.8983C134.741 91.9167 134.816 91.9086 134.882 91.8753C135.012 91.8209 135.137 91.7567 135.258 91.6833C135.359 91.6314 135.461 91.5813 135.586 91.5193C135.929 91.9332 135.903 92.3484 135.771 92.7639C135.7 92.9826 135.595 93.1881 135.495 93.4248C135.173 93.56 135.173 93.56 134.986 94.0205C135.496 94.5287 136.019 95.0496 136.571 95.5986C136.58 95.716 136.587 95.8851 136.608 96.0523C136.659 96.451 136.731 96.5245 137.15 96.618C137.243 96.6386 137.336 96.6556 137.45 96.679C137.609 97.0039 137.693 97.403 138.283 97.3889C138.101 97.5433 138.057 97.615 138.005 97.618C137.534 97.6469 137.067 97.7499 136.583 97.6269C136.466 97.5965 136.342 97.5989 136.224 97.575C135.679 97.4621 135.237 97.6903 134.82 97.9489C134.652 98.0535 134.554 98.2646 134.407 98.4501C133.908 98.4475 133.411 98.3773 132.929 98.2415C132.538 98.1265 132.134 98.0622 131.728 98.0501C131.318 98.0685 130.909 98.0016 130.524 97.8536C130.347 97.7743 130.152 97.7423 129.96 97.7605C129.531 97.8281 129.242 98.1683 128.858 98.3395C128.746 98.4036 128.651 98.4954 128.582 98.6067C128.514 98.718 128.473 98.8452 128.465 98.9769C128.45 99.021 128.428 99.0621 128.4 99.0984C127.978 99.3875 127.456 99.323 126.98 99.4094C126.858 99.425 126.735 99.4084 126.621 99.361C126.507 99.3136 126.407 99.2371 126.33 99.139C126.143 98.9392 125.946 98.7498 125.739 98.5714C125.288 98.163 124.785 97.9631 124.198 98.1156C124.128 98.127 124.057 98.1349 123.986 98.139C123.964 98.1421 123.947 98.1628 123.887 98.2014C123.821 98.4053 123.744 98.6457 123.656 98.9194C123.331 98.7986 123.037 98.69 122.77 98.5913C122.433 98.6768 122.534 98.9723 122.456 99.1814L122.243 99.1568L122.304 99.1544L122.265 99.1705C122.084 99.108 122.06 98.9413 122.007 98.7945L122.004 98.8075L121.947 98.6431L121.968 98.6556L121.806 98.7015L121.814 98.6896C121.541 98.7005 121.44 98.3786 121.182 98.3376C121.044 98.3915 120.851 98.4455 120.876 98.6381C120.887 98.7853 120.93 98.9284 121.003 99.0566C121.075 99.1849 121.175 99.295 121.294 99.3788C121.376 99.4316 121.469 99.4653 121.565 99.4777C122.039 99.5323 122.479 99.7339 122.934 99.8589C123.303 99.9743 123.646 100.165 123.942 100.419C124.043 100.488 124.118 100.591 124.154 100.709C124.19 100.827 124.186 100.954 124.142 101.069L124.136 101.105L124.131 101.053L124.279 101.194C124.251 101.244 124.236 101.312 124.211 101.314C123.725 101.358 123.454 101.718 123.129 102L123.143 102.015L122.925 101.9L122.939 101.905C122.733 101.696 122.607 101.932 122.44 101.964C122.288 101.814 122.176 101.599 121.922 101.602L121.807 101.5C121.809 101.52 121.808 101.553 121.815 101.556C121.854 101.566 121.895 101.574 121.935 101.578L121.899 101.868C121.743 101.804 121.615 101.754 121.491 101.697C121.346 101.633 121.182 101.629 121.035 101.686C120.921 101.73 120.798 101.746 120.677 101.731C120.555 101.716 120.439 101.671 120.338 101.599C120.209 101.532 120.068 101.491 119.923 101.48C119.763 101.68 119.633 101.838 119.504 101.996C119.475 101.959 119.469 101.843 119.398 101.959L119.513 101.98C119.517 102.047 119.516 102.114 119.511 102.181C119.484 102.347 119.535 102.44 119.719 102.444C119.753 102.446 119.79 102.493 119.825 102.519L119.833 102.498C119.691 102.506 119.549 102.5 119.409 102.481C119.273 102.442 119.141 102.39 119.015 102.326C118.692 102.667 118.687 102.687 118.294 102.564C118.045 102.485 117.787 102.564 117.54 102.411C117.419 102.335 117.199 102.588 117.28 102.726C117.345 102.827 117.388 102.941 117.405 103.061C117.423 103.18 117.414 103.302 117.38 103.417L116.948 103.544C116.916 103.481 116.893 103.413 116.881 103.342C116.883 103.092 116.887 102.848 116.571 102.753L116.361 102.949C116.188 102.747 116.022 102.552 115.863 102.365C115.763 102.416 115.674 102.487 115.602 102.575C115.53 102.662 115.477 102.764 115.445 102.874L115.453 102.857C115.306 102.904 115.162 102.959 115.022 103.022C114.919 103.074 114.903 102.979 114.854 102.943C114.493 102.679 114.114 102.734 113.739 102.814C113.696 102.832 113.657 102.861 113.628 102.898C113.598 102.936 113.578 102.98 113.57 103.028C113.562 103.075 113.565 103.124 113.58 103.17C113.595 103.216 113.621 103.257 113.655 103.291C114.043 103.557 114.227 103.965 114.483 104.332C114.712 104.536 115.137 104.398 115.276 104.829C115.094 104.906 114.892 104.924 114.699 104.881C114.505 104.837 114.329 104.734 114.194 104.585C113.886 104.831 114.333 105.297 113.936 105.49C113.83 105.377 113.754 105.238 113.715 105.087C113.677 104.936 113.677 104.778 113.716 104.627C113.73 104.592 113.736 104.553 113.732 104.514C113.729 104.476 113.716 104.439 113.694 104.407C113.673 104.375 113.644 104.349 113.61 104.331C113.577 104.313 113.539 104.304 113.501 104.305C113.421 104.437 113.334 104.57 113.26 104.709C113.217 104.791 113.147 104.902 113.174 104.971C113.38 105.498 113.011 105.942 113.068 106.445C113.082 106.572 112.886 106.675 112.818 106.59C112.75 106.503 112.661 106.437 112.56 106.398C112.458 106.358 112.349 106.347 112.243 106.365C112.067 106.35 111.894 106.31 111.729 106.248C111.607 106.895 111.559 107.502 111.751 108.123C111.78 108.242 111.843 108.35 111.932 108.432C112.262 108.685 112.562 108.977 112.826 109.302C112.926 109.408 113.044 109.495 113.174 109.559C113.586 109.785 113.692 110.055 113.499 110.424C113.402 110.608 113.309 110.794 113.189 111.028C113.05 111.047 112.867 111.07 112.635 111.102L112.57 111.499L115.821 112.967C115.689 113.23 115.579 113.451 115.458 113.691C115.731 113.879 115.969 114.044 116.186 114.194C116.197 114.278 116.224 114.336 116.207 114.369C116.102 114.574 115.974 114.766 115.881 114.976C115.785 115.196 116.034 115.409 115.938 115.671C115.879 115.83 116.027 116.078 116.092 116.326C115.885 116.424 115.661 116.48 115.433 116.49C115.223 116.524 114.999 116.504 114.797 116.556C114.414 116.656 114.049 116.696 113.69 116.434C112.849 116.361 112.13 115.882 111.356 115.589C111.23 115.521 111.084 115.504 110.947 115.541C110.768 115.614 110.575 115.646 110.382 115.634C110.189 115.623 110 115.568 109.829 115.474C109.784 115.456 109.736 115.444 109.687 115.44C109.293 115.357 109.079 115.508 109.066 115.896C109.071 116.017 109.084 116.138 109.107 116.258L109.118 116.239C109.048 116.227 108.947 116.18 108.913 116.21C108.798 116.306 108.662 116.374 108.517 116.407C108.372 116.441 108.221 116.439 108.076 116.402L107.416 117.353C107.526 117.662 107.665 117.971 107.538 118.387C107.479 118.415 107.414 118.425 107.35 118.418C107.285 118.41 107.224 118.385 107.172 118.345C107.003 118.244 106.822 118.164 106.651 118.063C106.428 117.938 106.167 117.907 105.924 117.976L105.794 118.428C105.578 118.383 105.44 118.355 105.306 118.327C105.125 118.435 104.938 118.896 105.011 119.077C105.035 119.147 105.082 119.207 105.145 119.244C105.562 119.384 105.591 119.73 105.622 120.068C105.646 120.329 105.645 120.592 105.656 120.844C105.798 120.963 105.929 121.074 106.047 121.175C106.057 121.294 106.037 121.414 105.99 121.524C105.943 121.633 105.87 121.729 105.778 121.802C105.554 121.864 105.47 121.669 105.327 121.589C104.963 121.382 104.586 121.206 104.384 120.791C104.307 120.694 104.208 120.618 104.095 120.569C103.867 120.421 103.633 120.285 103.392 120.161C103.219 120.087 103.042 120.025 102.862 119.976C102.582 120.052 102.838 120.483 102.461 120.335C102.463 120.432 102.45 120.484 102.469 120.522C102.605 120.81 102.807 121.061 103.059 121.252C103.538 121.625 104.003 122.019 104.299 122.598C104.603 123.193 105.144 123.624 105.675 124.029C105.867 124.177 106.028 124.364 106.149 124.576C106.295 124.817 106.39 125.105 106.644 125.286C106.722 125.346 106.785 125.424 106.829 125.514C106.872 125.603 106.894 125.702 106.894 125.801L106.902 125.783C106.831 125.785 106.713 125.76 106.695 125.793C106.483 126.176 106.1 126.447 105.994 126.955C106.094 127.22 106.214 127.527 106.588 127.579C106.959 127.63 107.116 127.492 107.346 126.991C107.43 127.036 107.497 127.109 107.536 127.197C107.574 127.285 107.582 127.384 107.559 127.477C107.522 127.615 107.476 127.749 107.429 127.883C107.382 128.017 107.331 128.146 107.287 128.262C107.059 128.328 106.881 128.388 106.698 128.433C106.492 128.482 106.307 128.598 106.17 128.763C106.102 128.857 106.027 128.947 105.946 129.032C105.598 129.333 105.261 129.607 104.751 129.689C104.047 129.816 103.333 129.873 102.617 129.859C101.901 129.835 101.191 129.957 100.475 129.985C100.139 129.988 99.8027 129.965 99.4698 129.916C98.7743 129.835 98.0803 129.731 97.3863 129.657C96.7131 129.585 96.052 129.433 95.3853 129.311C94.4681 129.144 93.6338 128.724 92.7519 128.454C92.1472 128.27 91.5407 128.086 90.9274 127.945C90.2142 127.768 89.5242 127.504 88.8724 127.157C88.2541 126.864 87.6062 126.643 86.941 126.496C86.8707 126.48 86.7984 126.474 86.7266 126.48C86.1264 126.523 86.1268 126.524 85.6103 126.337C85.5456 126.388 85.4679 126.44 85.4003 126.502C85.3218 126.577 85.2225 126.626 85.1157 126.643C85.0089 126.659 84.8996 126.641 84.8023 126.592C84.5112 126.464 84.2025 126.382 83.8875 126.351C83.6841 126.335 83.5264 126.325 83.3727 126.48C83.2988 126.543 83.208 126.583 83.1118 126.594C83.0155 126.606 82.9181 126.588 82.8314 126.543C82.5553 126.443 82.2856 126.325 82.0239 126.19C81.4666 125.876 80.9066 125.561 80.4862 125.05C80.4387 124.993 80.3546 124.958 80.3261 124.897C80.1182 124.465 79.7133 124.271 79.3405 124.031C78.9677 123.791 78.6153 123.513 78.2476 123.262C77.7181 122.9 77.2148 122.492 76.6106 122.261C76.2824 121.824 75.7403 121.732 75.3278 121.419C74.9234 121.144 74.4984 120.903 74.0569 120.697C73.381 120.339 72.6915 120.008 72.0246 119.635C71.4493 119.313 70.9032 118.922 70.2749 118.722C70.0205 118.641 69.8926 118.361 69.5695 118.367C69.3286 118.369 69.0698 118.187 68.8238 118.076C68.5778 117.966 68.3381 117.846 68.0974 117.726C67.9623 117.666 67.8324 117.595 67.709 117.513C67.1876 117.127 66.559 116.967 66.0202 116.619C66.0003 116.604 65.9782 116.592 65.9547 116.584C64.627 116.234 63.5783 115.317 62.4114 114.644C61.6643 114.213 60.9608 113.701 60.2372 113.224C59.8933 113.172 59.7473 112.795 59.3824 112.709C59.0768 112.637 58.813 112.34 58.5255 112.15C58.238 111.961 57.9302 111.803 57.6606 111.593C57.4232 111.414 57.1506 111.291 56.8622 111.232C56.2923 111.081 55.7522 110.829 55.2665 110.487C54.6065 110.056 53.9236 109.662 53.3144 109.186C53.1439 109.262 52.9572 109.293 52.7714 109.276C52.5856 109.259 52.4067 109.194 52.2509 109.088C51.5327 108.607 50.7662 108.213 50.0516 107.728C49.9906 107.687 49.9356 107.635 49.8771 107.588L49.8963 107.556L49.8903 107.596C49.1914 107.1 48.4897 106.606 47.7932 106.106C47.2344 105.707 46.6803 105.302 46.1244 104.899C46.0625 104.687 45.824 104.785 45.7194 104.65L45.7039 104.665C45.7741 104.583 45.7747 104.522 45.6475 104.496L45.6731 104.504L45.5042 104.559L45.5054 104.534C44.6911 103.975 43.879 103.413 43.0614 102.857C42.0619 102.175 41.0039 101.582 40.0971 100.757C39.8851 100.564 39.5847 100.472 39.3336 100.319C39.1235 100.191 38.9215 100.05 38.7287 99.8964C38.4784 99.6961 38.2616 99.4481 37.9987 99.2705C37.278 98.784 36.6111 98.2296 35.9322 97.6886C35.2928 97.1795 34.6243 96.7111 33.9808 96.2088C33.5537 95.8743 33.1349 95.5237 32.7371 95.1538C32.5406 94.9709 32.4108 94.7198 32.2301 94.5175C32.135 94.4129 31.9869 94.2732 31.8779 94.2802C31.5687 94.2974 31.4562 94.0465 31.2842 93.8902C30.938 93.5735 30.9557 93.4992 31.4009 93.1922C31.6039 93.2851 31.8249 93.3829 32.0436 93.4854C32.3937 93.651 32.6647 93.8764 32.7449 94.2877C32.7764 94.4323 32.8565 94.5615 32.9714 94.6524C33.4778 95.0047 34.0007 95.3323 34.5181 95.6691C34.5484 95.6829 34.5799 95.6937 34.6121 95.7016L35.1063 95.5005C35.0909 95.4473 35.0924 95.3577 35.0484 95.3128C34.4064 94.6621 33.7604 94.0145 33.1106 93.37C32.6743 92.9383 32.3017 92.4491 31.8633 92.018C31.5279 91.6874 31.1856 91.3612 30.86 91.022C30.7357 90.8745 30.6214 90.7184 30.518 90.555C30.5955 90.5157 30.6382 90.4976 30.6768 90.474C30.7537 90.4261 30.8723 90.3925 30.8947 90.3226C30.9274 90.2084 30.9215 90.086 30.878 89.9751C30.8163 89.8709 30.7374 89.7784 30.6447 89.7018C30.2613 89.3001 29.9228 88.8777 29.8949 88.2699L29.4367 88.256C28.8761 87.6327 28.293 86.995 27.7246 86.346C27.6139 86.2154 27.5343 86.0605 27.492 85.8936C27.4452 85.711 27.4928 85.5088 27.4401 85.3296C27.3587 85.1565 27.2563 84.9944 27.1352 84.8473C27.2529 84.8548 27.3695 84.8761 27.4827 84.9108C27.5654 84.9617 27.6618 84.9839 27.7575 84.974C27.8531 84.9642 27.9428 84.9229 28.0131 84.8563C28.1236 84.755 28.2556 84.6647 28.395 84.739C28.7365 84.9205 28.9969 84.7877 29.2609 84.6248C29.3396 84.5762 29.4165 84.5265 29.4943 84.4774L29.5172 84.5186L29.4817 84.4758C29.654 84.2087 29.4551 83.9121 29.4883 83.63C29.4998 83.5411 29.3809 83.4156 29.3008 83.3258C29.1039 83.1042 28.8845 82.9017 28.6936 82.6751C28.6038 82.5619 28.5344 82.4335 28.4886 82.2957C28.4202 82.1023 28.442 82.0781 28.7344 81.828C29.0928 82.0267 29.4907 82.1861 29.8387 81.8588C30.1473 81.5685 30.463 81.2638 30.1391 80.6147C30.3564 80.765 30.5816 80.903 30.8136 81.028C31.1415 81.1767 31.4203 80.953 31.3105 80.6103C31.2269 80.2474 31.0507 79.913 30.8 79.641C30.5669 79.4262 30.3036 79.2458 29.9899 79.0007L29.9101 78.606C29.9555 78.5649 29.9843 78.5132 30.0207 78.5099C30.39 78.4719 30.7611 78.4414 31.1597 78.406C31.1496 78.2123 31.1938 78.02 31.2872 77.8519C31.3806 77.6837 31.5192 77.5467 31.6868 77.4569C31.7359 77.4265 31.791 77.4073 31.8482 77.4006C31.9055 77.394 31.9635 77.4 32.0184 77.4183C32.3194 77.5941 32.5754 77.4755 32.834 77.4067C32.9096 77.2556 32.98 77.1172 33.05 76.9778L33.0769 77.0145L33.0382 76.978C32.5243 76.161 31.928 75.4011 31.2592 74.7107C31.0501 74.5004 30.8363 74.2961 30.6254 74.0898C30.672 73.9649 30.7604 73.9625 30.8463 74.0341C30.9979 74.1601 31.1362 74.3017 31.2858 74.4315C31.5371 74.6505 31.8069 74.8126 32.1825 74.7275L32.4949 74.2947C32.6288 74.3013 32.7934 74.262 32.9033 74.3244C33.0031 74.3913 33.1219 74.422 33.2404 74.4114C33.3588 74.4008 33.47 74.3495 33.5559 74.266C33.6223 74.2132 33.7298 74.2096 33.8234 74.1823C34.0336 74.3332 34.2256 74.4848 34.4317 74.6148C34.5223 74.6764 34.6248 74.7175 34.732 74.7351C34.8393 74.7526 34.9487 74.7464 35.0531 74.7167C35.147 74.6876 35.2323 74.6351 35.3012 74.5639C35.3702 74.4927 35.4207 74.4051 35.4481 74.3088C35.257 74.069 35.052 73.7978 34.7241 73.7533C34.566 73.7407 34.4144 73.6821 34.2872 73.5845C34.16 73.487 34.0624 73.3544 34.006 73.2026C33.941 73.0291 33.821 72.8824 33.6653 72.786C33.5095 72.6897 33.327 72.6493 33.147 72.6712C33.0315 72.5342 32.9233 72.3911 32.8226 72.2424C32.7127 72.0788 32.5668 71.9436 32.3969 71.8476C32.1541 71.6839 31.9285 71.4948 31.7238 71.2834C31.1156 70.6672 30.503 70.0586 29.8519 69.4889C29.6845 69.3422 29.4814 69.2337 29.3267 69.0765C29.1757 68.9238 28.9459 68.8422 28.8887 68.5931C28.8715 68.5486 28.8452 68.5084 28.8117 68.4751C28.7782 68.4418 28.7381 68.4161 28.6942 68.3997C28.1088 68.2019 27.7415 67.7056 27.2867 67.3335C26.5983 66.7709 25.9338 66.1803 25.2445 65.6214C25.0214 65.4663 24.7868 65.3292 24.5429 65.2116C24.3691 65.1211 24.2001 65.0213 24.0365 64.9126C23.9147 64.8248 23.8298 64.7218 23.6598 64.8204C23.6138 64.8474 23.435 64.7305 23.3671 64.6415C23.1173 64.3361 22.8925 64.0103 22.6951 63.6673C22.5154 63.313 22.2686 62.9984 21.9691 62.7419C21.7536 62.5601 21.4706 62.3993 21.4417 62.0643L21.4246 62.0648C21.5393 62.0479 21.6529 62.0303 21.8128 62.0076C21.7925 61.3908 21.8119 60.7971 21.2482 60.3025L21.4049 59.7942C21.3795 59.6974 21.3344 59.607 21.2726 59.5289C21.2107 59.4509 21.1336 59.3868 21.0461 59.3411C20.9797 59.3078 20.9265 59.2521 20.8957 59.1834C20.8648 59.1147 20.8582 59.0374 20.8769 58.9647C20.9068 58.8716 20.9089 58.7714 20.883 58.6766C20.8571 58.5819 20.8045 58.4969 20.7316 58.4323C20.5344 58.2184 20.3947 57.9562 20.3263 57.6713C20.3743 57.5708 20.4512 57.4878 20.5468 57.4334C20.6425 57.379 20.7523 57.3558 20.8616 57.3669C21.0489 57.3795 21.2364 57.3524 21.4125 57.2873C21.5885 57.2222 21.7491 57.1206 21.8844 56.9888C21.9737 56.9133 22.0775 56.8577 22.1891 56.8251C22.3007 56.7926 22.4179 56.7839 22.5332 56.7997C23.036 56.8294 23.1505 56.7149 23.3174 56.2636C23.3485 56.1853 23.3618 56.1007 23.3562 56.0161C23.3506 55.9315 23.3262 55.8492 23.285 55.7754C23.1852 55.6044 23.0688 55.4439 22.9377 55.2966C22.859 55.2018 22.7516 55.1308 22.6678 55.0396C22.2248 54.5577 22.3363 54.406 22.5784 54.0962C22.6345 54.0231 22.6873 53.9467 22.7428 53.8692C22.7407 53.572 22.6755 53.2783 22.5519 53.0084C22.4282 52.7384 22.249 52.4987 22.0265 52.3055C21.9328 52.2269 21.8616 52.1237 21.8209 52.0071C21.6955 51.6296 21.4956 51.282 21.2336 50.9858C20.8909 50.5667 20.7675 50.1314 20.959 49.6346C21.0402 49.4337 21.055 49.2108 21.001 48.9996C20.9392 48.7564 21.065 48.6653 21.3274 48.7189C21.6596 48.7863 21.9919 48.8604 22.3217 48.943C22.4336 48.9815 22.5533 48.9879 22.668 48.9616C22.7827 48.9354 22.8879 48.8774 22.9722 48.794C23.117 48.6606 23.3503 48.6246 23.5421 48.5386C23.9277 48.3658 24.0642 48.0836 23.9177 47.6694C23.7864 47.2986 23.6083 46.9436 23.4595 46.5783C23.3886 46.4251 23.3367 46.2636 23.305 46.0975C23.2797 45.7315 23.1835 45.3738 23.0221 45.045C22.9455 44.8949 22.9267 44.7213 22.9695 44.5586C23.108 44.1102 23.105 43.6151 23.3431 43.1997C23.4203 43.0793 23.4707 42.9429 23.4906 42.8001C23.5106 42.6574 23.4996 42.5116 23.4586 42.3731C23.4262 42.2681 23.4853 42.1407 23.5014 42.0284C23.8742 41.6881 24.3316 41.7156 24.7883 41.828C25.021 41.8845 25.251 41.9394 25.4859 41.9865C25.7226 42.0532 25.9474 42.1587 26.1514 42.2989C26.422 42.4514 26.7297 42.52 27.0367 42.4963C26.8378 41.8564 26.7978 41.1798 26.1226 40.8179L26.074 40.3571C26.2338 40.3102 26.3635 40.2647 26.498 40.2354C26.7914 40.1695 27.0988 40.172 27.3486 39.9589C27.5739 39.7663 27.8557 39.7934 28.1632 39.8854C29.1229 40.1685 30.0464 40.5791 31.0189 40.8183C31.2639 40.8789 31.4855 41.081 31.7144 41.2232C31.9534 41.3724 32.1382 41.285 32.1362 41.0019C32.1269 40.8413 32.1075 40.6813 32.0782 40.5231C31.4708 40.0403 30.6453 40.0769 30.092 39.4616L30.5186 38.8978C30.4464 38.8184 30.3662 38.7471 30.2793 38.6852C29.7798 38.4154 29.2761 38.1573 28.7746 37.8888C28.6615 37.8175 28.5315 37.7791 28.399 37.7779C28.2665 37.7767 28.1365 37.8126 28.0231 37.8817C27.8824 37.9646 27.7277 38.02 27.5668 38.0451C27.5098 38.0506 27.4547 38.0687 27.4055 38.0983C27.3563 38.1278 27.3141 38.1681 27.2818 38.2162C27.1425 38.4216 26.9496 38.3493 26.7683 38.2658C26.6982 38.2414 26.6401 38.1898 26.6066 38.1222C26.5732 38.0546 26.5669 37.9764 26.5894 37.9046C26.668 37.6626 26.7784 37.4335 26.8863 37.1719C27.2834 37.1604 27.5902 36.8617 28.0216 36.9046C28.0916 36.9037 28.1605 36.8871 28.2233 36.8558C28.286 36.8246 28.3412 36.7795 28.3847 36.7238C28.6367 36.3734 28.9914 36.3219 29.394 36.3599C29.4165 36.3622 29.4398 36.3476 29.5079 36.3277C29.5882 36.0062 29.9502 35.9371 30.202 35.7145C30.1978 35.6229 30.1963 35.5294 30.1897 35.4358C30.1446 34.7697 30.1445 34.7697 29.6126 34.3881C29.7237 34.2201 29.8818 34.3143 29.9958 34.374C30.3453 34.5564 30.6979 34.7291 31.0479 34.907C31.7263 35.2534 32.3691 35.6759 33.0319 36.0574C33.7824 36.4883 34.5366 36.9119 35.2945 37.3283C35.3635 37.367 35.5048 37.3671 35.5469 37.3224C35.5699 37.2841 35.5839 37.2407 35.5877 37.1958C35.5915 37.1509 35.585 37.1056 35.5686 37.0636C35.4871 36.8606 35.3773 36.6669 35.2752 36.4728C35.2083 36.3434 35.1353 36.2179 35.0651 36.0916C35.1119 36.0152 35.149 35.958 35.1839 35.899C35.2519 35.7824 35.3712 35.6686 35.3733 35.5469C35.3667 35.4468 35.334 35.3501 35.2784 35.267C35.2229 35.1838 35.1466 35.1173 35.0576 35.0744C34.8209 34.9413 34.5696 34.8378 34.3235 34.7224C34.1186 34.6399 33.918 34.5464 33.7226 34.4422C33.3636 34.2238 33.0377 33.9363 32.6633 33.7634C32.2916 33.5919 31.8752 33.5357 31.482 33.4116C31.2754 33.3464 31.0535 33.2867 30.9264 33.0681C30.906 32.9489 30.9304 32.8267 30.9945 32.7257C31.0587 32.6247 31.158 32.5524 31.2725 32.5233C31.366 32.4991 31.4641 32.4994 31.5577 32.5243C31.6514 32.5493 31.7375 32.598 31.8081 32.6659C32.0523 32.8367 32.313 32.9814 32.5858 33.0979C32.9889 33.2781 33.4052 33.4211 33.7343 33.7517C33.8549 33.8367 33.986 33.9046 34.1243 33.9535C34.2598 34.0031 34.3844 34.0802 34.4903 34.1801C34.7341 34.5212 35.1049 34.5841 35.4468 34.701C35.5721 34.7452 35.7068 34.7525 35.8354 34.722C35.964 34.6915 36.0813 34.6245 36.1737 34.5285C36.342 34.3349 36.4886 34.1227 36.611 33.8958C36.759 33.6592 36.7024 33.3932 36.6184 33.1431C36.7123 33.0138 36.8385 32.9126 36.9839 32.85C37.1293 32.7873 37.2886 32.7656 37.4456 32.7869C37.8333 32.8392 38.2095 32.8705 38.4909 33.2351C38.642 33.3981 38.814 33.5393 39.0023 33.6548C39.3955 33.9126 39.7225 34.2633 39.9552 34.677C40.0132 34.7859 40.0873 34.885 40.1751 34.9706C40.7874 35.5832 41.4347 36.1573 42.0976 36.7134C42.4572 37.0154 42.8329 37.3013 43.1695 37.6277C43.9555 38.3896 44.8552 39.0061 45.6958 39.6999C46.131 40.0693 46.6297 40.3523 47.1659 40.5343C47.2984 40.5622 47.4332 40.5768 47.5683 40.578C47.4623 40.0051 47.3247 39.5106 46.7869 39.2152C46.4563 39.0338 46.1419 38.8319 46.0932 38.4095L46.0839 38.4249C46.268 38.5354 46.4564 38.64 46.6373 38.7589C46.9887 38.9876 47.3266 39.2374 47.6848 39.4533C48.2557 39.7968 48.8532 40.0925 49.4089 40.458C49.8691 40.7396 50.3639 40.957 50.8798 41.1043C51.2556 41.2128 51.6176 41.3667 51.9581 41.563C52.1943 41.7074 52.1984 41.7007 52.6326 41.6769C52.7245 41.519 52.6291 41.4045 52.5168 41.3006C51.8564 40.7007 51.1346 40.1754 50.3643 39.734C50.0053 39.5243 49.6758 39.2458 49.2478 39.1688C49.1112 39.1158 48.9895 39.0291 48.8934 38.9165C48.5457 38.5973 48.167 38.3154 47.7633 38.075C47.1817 37.7489 46.6521 37.3337 46.193 36.844C46.2412 36.7022 46.3467 36.7701 46.4217 36.8106C46.9646 37.1021 47.5066 37.3973 48.0455 37.699C48.1942 37.7884 48.338 37.8862 48.4762 37.9919C48.9779 38.3556 49.4731 38.7288 50.1173 38.76C50.2784 38.7979 50.4375 38.845 50.5937 38.9009C50.7018 38.9056 50.8099 38.8942 50.9146 38.8671C51.023 38.6787 50.8877 38.5716 50.7721 38.4952C50.4463 38.2715 50.1085 38.0666 49.7603 37.8815C49.4316 37.711 49.1262 37.4967 48.8524 37.2441C48.6497 37.0621 48.4102 36.9231 48.2008 36.7498C48.1043 36.6436 48.0189 36.5273 47.9462 36.4028C48.3282 36.4135 48.5562 36.6247 48.8123 36.7215C49.0825 36.8227 49.3358 36.9788 49.6139 36.9008C49.7037 36.7656 49.6115 36.688 49.5429 36.6347C49.3887 36.5124 49.2194 36.4081 49.0546 36.297C48.6917 36.0835 48.3554 35.8256 48.0533 35.529C47.8913 35.3755 47.7113 35.2433 47.5173 35.1354C47.1018 34.8665 46.6682 34.6249 46.2652 34.3372C45.5396 33.8169 44.756 33.3942 44.0113 32.907C43.8462 32.7984 43.6488 32.7304 43.5672 32.5309C43.5328 32.4475 43.4949 32.3174 43.5328 32.2663C43.603 32.1766 43.7045 32.1182 43.8163 32.1034C43.9387 32.0996 44.0594 32.1351 44.1616 32.2048C44.8571 32.6941 45.6696 32.9096 46.4109 33.2915C46.6866 33.4515 46.9842 33.5681 47.2935 33.6373C47.5308 33.6984 47.758 33.7954 47.9677 33.925C48.2952 34.1006 48.6209 34.2799 48.9288 34.4868C49.2246 34.6746 49.5793 34.7387 49.9184 34.6655L50.0325 34.213C50.0023 34.1575 49.9645 34.1065 49.9204 34.0617C48.8611 33.3707 47.8012 32.681 46.7406 31.9927C46.6365 31.926 46.5364 31.8528 46.441 31.7736C46.1592 31.5292 46.1523 31.441 46.3919 30.9897C47.1984 31.3666 48.0065 31.7896 48.9693 31.735C48.9505 31.6504 48.9212 31.5685 48.8821 31.4913C48.5161 30.9679 47.9649 30.6656 47.4759 30.288C47.2022 30.0768 46.9366 29.8542 46.6685 29.6369L46.6591 29.6521C47.0017 29.6054 47.2341 29.8765 47.5078 30.0134C48.1231 30.3194 48.7267 30.641 49.4052 30.7696C49.6414 30.8196 49.8681 30.9087 50.0765 31.0337C50.499 31.2792 50.9101 31.4205 51.3741 31.2331C51.5713 31.1732 51.7738 31.1327 51.9788 31.1119C52.2676 30.7037 52.1202 30.3135 51.8379 29.9835C51.5453 29.6515 51.2953 29.2828 51.0941 28.8865C50.9873 28.69 50.8484 28.5135 50.6833 28.3647C50.5429 28.2491 50.442 28.0909 50.3955 27.9132C50.3491 27.7355 50.3595 27.5477 50.4251 27.3773C50.5024 27.1556 50.5867 26.9371 50.6783 26.7218C50.7775 26.4858 50.8871 26.2552 51.006 25.9933C50.8975 25.8569 50.7775 25.7305 50.6473 25.6156C50.5249 25.5364 50.4265 25.4238 50.3633 25.2908C50.3 25.1577 50.2744 25.0095 50.2894 24.8629L50.27 24.8665C50.4613 24.8694 50.652 24.8714 50.8804 24.8747C50.9663 24.7134 51.084 24.5722 51.226 24.4598C51.368 24.3475 51.5314 24.2664 51.7059 24.2216C51.8689 24.1873 51.983 23.9871 52.1298 23.8752C52.2428 23.767 52.3854 23.6964 52.5389 23.6727C52.6925 23.6491 52.8498 23.6735 52.9902 23.7427C53.1934 23.8219 53.4083 23.8644 53.6253 23.8683C53.6843 23.8769 53.7444 23.8693 53.7994 23.8463C53.8544 23.8234 53.9024 23.786 53.9384 23.7378C53.9745 23.6896 53.9973 23.6325 54.0046 23.5721C54.0119 23.5118 54.0033 23.4504 53.9799 23.3943C53.8992 23.2156 53.7868 23.0537 53.6483 22.9166C53.4231 22.6842 53.1845 22.4658 52.9335 22.2628C52.6713 22.0394 52.468 21.7522 52.3427 21.4281C52.2147 21.1354 52.1322 20.8704 52.3484 20.6237C52.5183 20.4307 52.3236 20.2029 52.4036 19.9738C52.7303 19.9496 53.058 20.0138 53.3538 20.1601C53.7121 20.3365 54.0804 20.4579 54.5125 20.3127C54.5716 20.0987 54.6381 19.8557 54.7013 19.625C54.6112 19.1666 54.1346 19.0968 53.8201 18.7062C54.118 18.8059 54.3172 18.8722 54.54 18.9471C54.5759 18.9482 54.6116 18.9427 54.6454 18.9309C55.1182 18.678 55.159 18.5739 54.9798 18.0992C54.9446 18.0071 54.9099 17.9154 54.8663 17.8266C54.8004 17.6935 54.7258 17.5641 54.6494 17.4246C54.6897 17.3284 54.7557 17.2459 54.8401 17.1866C54.9244 17.1274 55.0236 17.0938 55.1262 17.0896C55.3132 17.0945 55.4983 17.0526 55.6653 16.9675C55.7509 16.8866 55.8617 16.839 55.9785 16.833C56.0954 16.8271 56.211 16.8631 56.3051 16.9349C56.3896 16.987 56.5346 16.9289 56.6524 16.9301C56.8039 16.9173 56.9566 16.936 57.1012 16.9853C57.2459 17.0346 57.3793 17.1133 57.4936 17.2167C57.8336 17.5277 58.2719 17.7285 58.6685 17.9774L58.657 18.0354L58.6564 17.971C58.9184 18.2656 59.2264 18.5138 59.5678 18.7053C59.9261 18.8884 60.232 19.1794 60.5762 19.3987C60.808 19.5824 61.0942 19.6791 61.3865 19.6725C61.6669 19.6506 61.9253 19.9087 62.128 20.1043C62.2433 20.2235 62.3688 20.332 62.503 20.4283C62.7243 20.5405 62.9005 20.7283 63.0008 20.9589C63.032 21.0261 63.0789 21.0845 63.1373 21.129C63.6516 21.5879 64.1612 22.0527 64.6866 22.497C64.8314 22.5868 64.9495 22.7154 65.0281 22.8686C65.0608 22.9364 65.1118 22.9932 65.1752 23.0322C66.1349 23.6811 66.9389 24.5379 67.911 25.1689C68.0433 25.2368 68.1658 25.3235 68.2746 25.4262C68.4899 25.6701 68.7746 25.8387 69.0881 25.9078C69.422 25.9972 69.7123 26.2099 69.9027 26.5047C70.0765 26.7434 70.3053 26.9348 70.5685 27.0616C71.0147 27.3255 71.4416 27.6225 71.8456 27.9501C71.9634 28.0525 72.1011 28.1281 72.2495 28.1717C72.3979 28.2154 72.5535 28.2261 72.7058 28.2032C72.7962 28.0446 72.706 27.9419 72.6207 27.8623C72.2581 27.5236 71.8972 27.1782 71.514 26.8637C71.192 26.5976 70.9196 26.2771 70.5452 26.0641C70.357 25.9495 70.2166 25.768 70.1511 25.5547C70.078 25.2906 69.9115 25.0631 69.6842 24.9162C69.5273 24.7964 69.3797 24.6645 69.2425 24.5217C69.1614 24.4333 69.1079 24.3222 69.0891 24.2029C69.0881 24.153 69.0775 24.1037 69.0577 24.0579C69.038 24.0121 69.0095 23.9708 68.974 23.9362C68.9385 23.9017 68.8966 23.8746 68.8509 23.8567C68.8052 23.8388 68.7565 23.8303 68.7077 23.8318C68.2806 23.8265 68.0703 23.5001 67.7999 23.2564C67.811 22.7172 67.205 22.5752 67.0446 22.1429C67.0086 22.077 66.9537 22.024 66.8874 21.9909C65.9205 21.4308 65.1072 20.6534 64.1989 20.0118C64.0956 19.9464 64.0122 19.8529 63.958 19.7419C63.667 18.9375 63.0013 18.5094 62.332 18.0824C62.2449 18.0427 62.168 17.983 62.1071 17.908C61.9124 17.5423 61.5852 17.3179 61.2714 17.0727C60.8036 16.7068 60.3279 16.3489 59.8783 15.9601C59.5951 15.6798 59.2482 15.4758 58.8693 15.3668C58.7876 15.3473 58.7192 15.245 58.6091 15.1503C58.6961 15.0369 58.7831 14.9383 58.8553 14.8304C59.0343 14.5612 59.2183 14.3062 59.1371 13.9229C59.0775 13.6457 59.2585 13.5383 59.5219 13.6392C60.4961 14.0137 60.6259 14.0852 61.5383 14.793C62.0812 15.2159 62.623 15.6444 63.1429 16.0917C63.4392 16.3465 63.7193 16.6292 64.0284 16.8768C64.1147 16.964 64.1925 17.0597 64.2605 17.1625C64.3329 17.2912 64.4292 17.4043 64.5439 17.4954C65.0282 17.7342 65.3275 18.1659 65.6887 18.535C65.8274 18.6756 65.9789 18.8022 66.1412 18.9131C66.5318 19.1747 66.8893 19.4848 67.2052 19.8362C67.4121 20.0493 67.6317 20.2492 67.8627 20.4346C67.9375 20.4995 68.053 20.5362 68.0947 20.6136C68.4636 21.2952 69.2059 21.5695 69.6987 22.1187C69.9414 22.388 70.2852 22.5665 70.5747 22.7979C71.1295 23.2081 71.6636 23.6468 72.1751 24.1123C72.8135 24.7372 73.5365 25.2503 74.206 25.8323C74.3387 25.9426 74.4784 26.0437 74.6244 26.1348C75.2993 26.5456 75.9305 27.0278 76.5072 27.5734C76.6512 27.7083 76.8201 27.8124 77.0039 27.8794C77.1877 27.9464 77.3826 27.975 77.5769 27.9634C77.633 27.9577 77.6872 27.9399 77.7358 27.9111C77.7845 27.8823 77.8265 27.8432 77.859 27.7964C77.9285 27.6601 77.9823 27.516 78.0193 27.367C76.8146 26.2393 75.6379 25.1384 74.4615 24.0375C74.3196 23.8975 74.1708 23.7651 74.0156 23.6407C73.5442 23.2765 73.095 22.8832 72.6704 22.463C72.2433 22.0485 71.7574 21.6959 71.3004 21.3136C71.167 21.2032 71.0393 21.0857 70.9179 20.9617C70.1225 20.1056 69.2728 19.3039 68.3742 18.562C67.9856 18.2556 67.6485 17.8826 67.2713 17.5582C66.8203 17.1719 66.3542 16.8012 65.892 16.4292C65.4103 16.042 64.9261 15.6583 64.4393 15.2782C64.1484 15.0517 63.8486 14.837 63.5549 14.6182C63.8634 14.09 63.8966 13.9291 63.7229 13.4773C63.6726 13.3117 63.5767 13.1641 63.4467 13.0522C62.9433 12.7246 62.5932 12.2289 62.1211 11.8686C61.874 11.6644 61.5812 11.5263 61.2694 11.4668C61.0141 11.4045 60.764 11.3211 60.5216 11.2173C60.5931 10.6206 60.9157 10.4294 61.3892 10.6598C61.5135 10.7399 61.6464 10.8052 61.7852 10.8541C61.8686 10.8685 61.948 10.9014 62.0177 10.9506C62.0875 10.9998 62.1458 11.064 62.1887 11.1386C62.3439 11.3659 62.5514 11.5509 62.7928 11.6771C63.0189 11.8145 63.2589 11.9168 63.4259 12.1714C63.5309 12.333 63.7939 12.4007 63.9921 12.497C64.1902 12.5933 64.3993 12.6622 64.5051 12.8944C64.5501 12.9811 64.6234 13.049 64.7121 13.0863C65.0759 13.2223 65.3163 13.5101 65.5741 13.7759C65.9849 14.1999 66.452 14.5628 66.9615 14.8535C67.2894 15.0194 67.6399 15.133 68.0008 15.1903C68.1125 15.1975 68.2207 15.234 68.3149 15.2963C68.7013 15.6405 69.016 16.0606 69.2397 16.5314C69.3237 16.7075 69.4239 16.8752 69.5391 17.032C69.7947 17.3353 70.0344 17.6799 70.3525 17.897C70.8483 18.2345 71.2271 18.6821 71.6617 19.0759C71.9229 19.3373 72.2047 19.5763 72.5042 19.7904C72.8026 20.0102 73.0739 20.2662 73.3122 20.5526C73.5631 20.8314 73.8835 21.0351 74.2386 21.1417C74.3842 21.1618 74.5315 21.1646 74.6774 21.1501C74.5918 20.5565 74.1589 20.2421 73.7922 19.8945C73.665 19.7726 73.5216 19.6824 73.4867 19.498L73.5212 19.4757L73.4829 19.5125C73.4209 19.5005 73.3648 19.4671 73.3241 19.4178C73.2833 19.3685 73.2604 19.3064 73.2593 19.2421L73.2444 19.2635C73.4203 19.2032 73.5947 19.1423 73.7214 19.0974C74.0129 19.3425 74.3161 19.5726 74.63 19.7868C74.9103 19.9605 74.9439 20.3444 75.2682 20.4609C75.5375 20.8348 75.9946 20.9579 76.3059 21.2615C76.6173 21.5651 76.8415 21.9605 77.1507 22.2698C77.4449 22.5318 77.7541 22.7756 78.0767 22.9998C78.2025 23.0746 78.3156 23.1701 78.4111 23.2824C78.6527 23.6676 78.9991 23.7789 79.4405 23.7752C79.5314 23.676 79.6362 23.5569 79.7487 23.4306C80.0328 23.4772 80.2977 23.6087 80.5098 23.8085C80.6233 23.9032 80.7466 23.9861 80.8652 24.0738C80.9481 24.1458 81.0547 24.1828 81.1629 24.1772C81.2711 24.1716 81.3728 24.1238 81.4472 24.0437C81.3586 23.2967 81.4041 23.2581 80.556 23.0302C80.4038 22.8489 80.2467 22.6621 80.0881 22.4731L80.0866 22.465ZM35.719 42.6713L35.7434 42.6985L35.7075 42.6943L35.6723 42.6591L35.719 42.6713ZM87.1595 29.7911L87.2178 29.8086L87.1539 29.7996L87.1237 29.7572L87.1595 29.7911ZM106.026 116.382L105.915 116.379L106.035 116.364L106.091 116.469L106.143 116.406L106.026 116.382ZM133.167 86.7379C133.123 86.5762 133.067 86.4182 133 86.2653C132.973 86.2292 132.939 86.1994 132.9 86.178C132.861 86.1565 132.818 86.144 132.774 86.1412C132.641 86.1437 132.671 86.2692 132.698 86.3537C132.727 86.46 132.784 86.5567 132.861 86.634C132.939 86.7113 133.035 86.7663 133.14 86.7936L133.272 86.8416L133.167 86.7379ZM29.3263 37.3061C29.4105 37.3909 29.5026 37.4672 29.6012 37.5337C30.077 37.7932 30.5652 38.0291 31.038 38.2944C31.7035 38.6659 32.4268 38.9326 32.9834 39.507C33.2069 39.7071 33.4809 39.839 33.7736 39.8874C33.9353 39.93 34.0896 39.9981 34.2311 40.0893C34.8628 40.4795 35.484 40.8836 36.1169 41.2696C36.2688 41.3301 36.4275 41.3704 36.5892 41.3894C36.5377 41.2411 36.5319 41.1249 36.473 41.0776C36.3657 40.9795 36.2353 40.9118 36.0948 40.8813C35.9002 40.8576 35.7187 40.7671 35.5803 40.6246C35.4372 40.4859 35.2872 40.355 35.1306 40.2325C34.8152 39.9944 34.4906 39.7681 34.1704 39.5359C33.7527 39.5757 33.5323 39.2488 33.2649 39.0088C33.1907 38.9423 33.1104 38.8832 33.0253 38.8321C32.1053 38.2997 31.1588 37.8171 30.1897 37.3862C30.0114 37.3029 29.8227 37.2454 29.6292 37.2155C29.53 37.2016 29.4224 37.2837 29.3176 37.3232C29.3095 37.3057 29.2986 37.2896 29.2855 37.2756C29.2773 37.2696 29.26 37.2742 29.2471 37.2745L29.3263 37.3061ZM34.0204 75.4378L33.9855 75.4591L34.0204 75.4223C34.1788 75.5736 34.3258 75.7369 34.4601 75.9107C34.5488 76.0555 34.657 76.1868 34.7816 76.3007C35.4829 76.9226 36.1275 77.6084 36.7073 78.3495C36.7814 78.4461 36.8678 78.5322 36.9643 78.6053C37.2047 78.7775 37.453 78.9383 37.7023 79.0978C37.945 79.2532 37.9915 79.2412 38.3127 78.956C38.2576 78.8321 38.2083 78.6941 38.138 78.5668C38.0923 78.4856 38.0182 78.3661 37.9521 78.3576C37.5708 78.3114 37.3717 77.9995 37.1361 77.7689C36.4468 77.0977 35.7899 76.3946 35.1172 75.7086C34.9779 75.5672 34.8313 75.4335 34.678 75.3082C34.582 75.2305 34.4771 75.1653 34.3657 75.1138C34.3395 75.0997 34.3107 75.0918 34.2813 75.0905C34.2518 75.0892 34.2225 75.0947 34.1955 75.1065C34.1685 75.1183 34.1445 75.1361 34.1252 75.1587C34.1059 75.1812 34.0917 75.2079 34.0839 75.2369C34.0594 75.3027 34.0386 75.37 34.0213 75.4382L34.0204 75.4378ZM108.034 51.6813L107.999 51.7L108.013 51.6735C108.296 51.8687 108.579 52.0649 108.864 52.2588C108.975 52.3098 109.08 52.3753 109.174 52.4537C109.603 52.9643 110.19 53.2343 110.734 53.5699C110.933 53.6669 111.116 53.797 111.273 53.9548C111.718 54.5165 112.359 54.8069 112.903 55.2285C113.247 55.4705 113.611 55.6814 113.991 55.8587C114.036 55.8721 114.082 55.876 114.128 55.8703C114.173 55.8646 114.217 55.8494 114.257 55.8255C114.282 55.8093 114.303 55.7875 114.319 55.7618C114.335 55.7361 114.346 55.7071 114.349 55.6769C114.353 55.6466 114.35 55.6158 114.341 55.5866C114.332 55.5575 114.317 55.5308 114.296 55.5082C114.077 55.1784 113.791 54.9013 113.456 54.6966C113.136 54.5108 112.833 54.2971 112.55 54.0578C112.269 53.823 111.888 53.7488 111.668 53.4126C111.557 53.2755 111.406 53.1786 111.238 53.1369C110.934 53.0351 110.669 52.8367 110.482 52.5707C110.362 52.4121 110.219 52.2727 110.059 52.157C109.646 51.8887 109.214 51.652 108.794 51.3951C108.666 51.3194 108.547 51.2308 108.436 51.1306C107.926 50.6648 107.423 50.1907 106.914 49.7232C106.549 49.3876 106.183 49.0506 105.802 48.7341C105.5 48.4817 105.197 48.1851 104.847 48.0407C104.442 47.8743 104.145 47.5822 103.802 47.3467C103.232 46.9538 102.68 46.535 102.128 46.1158C101.757 45.834 101.389 45.5446 101.041 45.2351C100.895 45.0665 100.696 44.9543 100.479 44.9175C100.321 44.9047 100.252 44.7582 100.148 44.6531C99.629 44.1319 99.1997 43.5047 98.4906 43.2072C98.4019 43.1637 98.3193 43.1082 98.245 43.0422C97.7397 42.6463 97.2395 42.2432 96.7303 41.8518C96.5924 41.7577 96.4485 41.6731 96.2996 41.5985C96.1843 41.7133 96.1637 41.8171 96.2437 41.9405C96.529 42.3769 96.8842 42.7614 97.2942 43.0777C98.0043 43.603 98.6751 44.1819 99.3009 44.8094C99.7562 45.3056 100.307 45.7007 100.918 45.9697C101.392 46.1765 101.786 46.5399 102.036 47.0015C102.139 47.1976 102.29 47.3627 102.475 47.4801C102.666 47.587 102.837 47.7264 102.982 47.8923C103.312 48.2283 103.625 48.6057 104.009 48.8571C104.412 49.1187 104.84 49.3371 105.245 49.6078C105.738 49.9373 106.186 50.3235 106.674 50.6533C107.145 50.9699 107.583 51.3367 108.034 51.6817L108.034 51.6813ZM80.4805 24.3094C80.2459 24.4586 80.2316 24.6401 80.314 24.7895C80.5997 25.3131 80.9353 25.8242 81.4897 26.0836C81.8299 26.2256 82.1095 26.4876 82.2773 26.8218C82.485 27.2681 82.8648 27.4627 83.243 27.6779C83.331 27.7196 83.4275 27.7384 83.524 27.7325C83.5889 27.7313 83.6898 27.6965 83.7017 27.6528C83.7236 27.5752 83.7236 27.4476 83.674 27.3952C83.1793 26.8772 82.6737 26.371 82.1716 25.8598C82.0853 25.7753 82.0043 25.6853 81.9289 25.5905C81.5183 25.0854 81.0292 24.6526 80.4813 24.3098L80.4805 24.3094ZM79.718 28.8585C79.558 29.2666 79.5629 29.2652 79.6065 29.4093C79.8349 30.1709 80.403 30.6907 80.9543 31.2156C81.0915 31.3185 81.2488 31.3898 81.4153 31.4245C81.4429 31.4353 81.4723 31.4404 81.5018 31.4394C81.5313 31.4385 81.5602 31.4315 81.587 31.419C81.6137 31.4064 81.6377 31.3885 81.6574 31.3662C81.6772 31.344 81.6923 31.3179 81.702 31.2895C81.734 31.2034 81.7561 31.1136 81.7945 30.9868C81.5076 30.6314 81.2404 30.2482 80.9176 29.9178C80.5651 29.5558 80.1594 29.2438 79.7188 28.8589L79.718 28.8585ZM35.9651 74.5927C35.615 75.0576 35.6275 75.0494 35.9121 75.4576C36.1087 75.7433 36.3416 76.0013 36.6044 76.2248C36.9256 76.4978 37.2374 76.7814 37.5531 77.0603C37.7307 77.2174 37.9382 77.2479 38.0631 77.1358C38.1795 77.0314 38.1637 76.7818 38.0222 76.6063C37.9704 76.5533 37.9154 76.5037 37.8574 76.4578C37.6578 76.2715 37.4688 76.0722 37.2582 75.9013C36.9469 75.6475 36.6519 75.3903 36.6145 74.966C36.3823 74.8323 36.1709 74.7111 35.9658 74.593L35.9651 74.5927ZM84.6428 28.4476C84.6052 28.5447 84.5822 28.6471 84.5743 28.7515C84.6182 29.1612 84.8707 29.462 85.1644 29.7341C85.2909 29.8506 85.4829 29.9368 85.542 30.0767C85.6681 30.37 85.9249 30.524 86.1242 30.737C86.159 30.7624 86.1986 30.7801 86.2403 30.789L86.672 30.6623C86.6482 30.5392 86.6048 30.4208 86.5435 30.3119C86.2571 29.9765 85.9526 29.6552 85.6546 29.3299C85.4541 29.1105 85.2614 28.8846 85.0468 28.6805C84.9212 28.5877 84.786 28.5096 84.6436 28.4475L84.6428 28.4476ZM27.8932 42.0815L27.595 42.8014C27.6906 42.9548 27.8296 43.075 27.9933 43.1462C28.1569 43.2173 28.3375 43.2359 28.5111 43.1995C28.7602 43.1656 28.9116 43.05 28.9186 42.8092C28.9249 42.5994 28.9586 42.3774 28.7685 42.1464C28.4988 42.1261 28.1977 42.104 27.8942 42.0816L27.8932 42.0815ZM36.0514 43.6747C35.7524 43.3096 35.5915 43.0475 35.2852 42.8931C35.0286 42.7979 34.8179 42.6041 34.6983 42.3532C34.5126 41.8482 34.0974 41.5819 33.6649 41.3343C33.6178 41.3083 33.5405 41.3363 33.4579 41.3393C33.48 41.4325 33.4741 41.5202 33.5143 41.564C33.8025 41.87 34.0965 42.1702 34.3966 42.4646C34.5909 42.6156 34.7715 42.7842 34.9363 42.9684C35.1331 43.2555 35.4179 43.418 35.6731 43.6235C35.7205 43.6617 35.8085 43.646 36.0524 43.6748L36.0514 43.6747ZM112.732 53.6447C112.641 53.1865 112.528 52.8915 112.25 52.7048C112.144 52.6136 112.012 52.559 111.874 52.5488C111.736 52.5386 111.598 52.5734 111.481 52.6482C111.54 52.7723 111.568 52.9421 111.662 53.0078C111.961 53.2144 112.284 53.3825 112.733 53.6448L112.732 53.6447ZM129.563 81.6327C129.554 81.4816 129.506 81.3354 129.423 81.2096C129.339 81.0838 129.225 80.9831 129.09 80.9181C129.025 80.8818 128.909 80.9254 128.823 80.9506C128.8 80.9536 128.778 80.9631 128.76 80.9779C128.742 80.9928 128.728 81.0125 128.72 81.0349C128.712 81.0572 128.71 81.0814 128.715 81.1049C128.719 81.1283 128.73 81.1501 128.746 81.1679C128.836 81.3072 128.957 81.4223 129.1 81.5032C129.242 81.5842 129.402 81.6287 129.564 81.6327L129.563 81.6327ZM129.806 83.872C129.86 83.828 129.895 83.7645 129.903 83.6946C129.912 83.6248 129.894 83.554 129.853 83.497C129.741 83.4056 129.616 83.3317 129.484 83.2775C129.45 83.2675 129.415 83.2662 129.382 83.2738C129.348 83.2814 129.317 83.2976 129.291 83.3209C129.265 83.3442 129.246 83.3738 129.234 83.407C129.223 83.4402 129.22 83.4759 129.226 83.5107C129.234 83.5769 129.257 83.6404 129.293 83.6964C129.328 83.7525 129.376 83.7996 129.432 83.8344C129.488 83.8691 129.551 83.8905 129.616 83.897C129.681 83.9036 129.746 83.8951 129.807 83.8721L129.806 83.872ZM89.0093 32.7101C88.9725 32.3861 88.6833 32.2361 88.5321 32.0014C88.4551 31.8805 88.3339 31.7102 88.2005 31.8082C88.0234 31.9372 88.2753 32.0177 88.3142 32.1252C88.3705 32.2759 88.4643 32.4092 88.5864 32.5118C88.7085 32.6144 88.8545 32.6827 89.0099 32.7099L89.0093 32.7101ZM107.301 97.9674C107.202 97.824 107.09 97.6912 106.965 97.5708C106.916 97.5339 106.79 97.5662 106.723 97.6054C106.69 97.6254 106.688 97.7368 106.71 97.7948C106.803 98.046 107.007 97.9803 107.301 97.9674ZM105.624 124.83C105.561 124.934 105.517 125.05 105.493 125.17C105.503 125.214 105.522 125.254 105.55 125.288C105.578 125.323 105.613 125.35 105.653 125.367C105.695 125.371 105.737 125.366 105.777 125.353C105.817 125.34 105.854 125.318 105.885 125.289C105.902 125.263 105.913 125.232 105.916 125.2C105.918 125.168 105.912 125.135 105.899 125.106C105.816 125.006 105.723 124.913 105.623 124.83L105.624 124.83ZM85.4486 28.2368C85.3568 28.0169 85.2724 27.7903 84.972 27.7391C85.1448 28.0888 85.1448 28.0887 85.4486 28.2368ZM87.4384 31.7144C87.5265 31.4119 87.4221 31.2966 87.2419 31.2404C87.2115 31.2327 87.1798 31.2324 87.1495 31.2397C87.1191 31.2471 87.091 31.2617 87.0674 31.2825C87.0353 31.3254 87.0292 31.4415 87.0604 31.468C87.1802 31.5596 87.3066 31.642 87.4384 31.7144ZM98.9517 40.7456C98.9925 40.7036 99.0416 40.676 99.0381 40.6529C99.0328 40.6318 99.0234 40.6119 99.0104 40.5945C98.9974 40.5771 98.9812 40.5626 98.9627 40.5517C98.9417 40.5412 98.8982 40.576 98.8647 40.5906L98.9517 40.7456ZM33.5689 77.4383L33.3943 77.3615C33.3892 77.3841 33.3719 77.4158 33.381 77.4265C33.4204 77.4739 33.4671 77.5147 33.5109 77.5587L33.5689 77.4383ZM137.268 88.7624C137.221 88.7229 137.186 88.6753 137.163 88.6797C137.143 88.6834 137.123 88.692 137.106 88.7048C137.09 88.7176 137.076 88.7343 137.067 88.7534C137.059 88.7769 137.101 88.8228 137.123 88.8572L137.268 88.7624ZM129.192 83.1236C129.162 83.0978 129.13 83.0752 129.095 83.0563C129.08 83.0508 129.036 83.078 129.037 83.0834C129.048 83.1193 129.063 83.1541 129.081 83.1872L129.192 83.1236ZM86.0676 28.8086L86.0565 28.7642L86.0174 28.7956L86.0676 28.8086ZM50.4814 37.3853C50.4848 37.3415 50.4837 37.2975 50.4781 37.2539C50.4748 37.2383 50.4394 37.2274 50.4186 37.2144C50.407 37.2501 50.3797 37.2902 50.388 37.3208C50.3964 37.3477 50.4476 37.3639 50.4812 37.3852L50.4814 37.3853ZM119.086 102.018L119.049 102.05L119.1 102.058L119.086 102.018Z" fill="#C7D6D3"/>
</svg>
