<svg width="959" height="1135" viewBox="0 0 959 1135" fill="none" xmlns="http://www.w3.org/2000/svg">
<path d="M180.565 815.723C184.049 824.577 188.556 832.684 195.107 839.501C200.872 845.502 207.776 850.144 214.973 854.145C223.739 859.017 232.905 863.098 241.765 867.786C242.629 868.243 243.809 867.693 244.532 867.147C244.92 866.855 246.134 865.62 245.267 865.162C230.166 857.172 213.454 850.986 200.784 839.033C194.244 832.717 189.094 825.037 185.668 816.493C184.384 813.418 183.235 810.279 182.011 807.176C180.784 808.293 179.672 809.538 178.693 810.889C179.316 812.501 179.933 814.116 180.565 815.723Z" fill="#554140"/>
<path d="M174.418 800.843C175.894 803.747 177.131 806.764 178.319 809.804C179.324 808.499 180.458 807.303 181.702 806.236C181.04 804.563 180.346 802.904 179.598 801.269C177.347 796.376 174.482 791.814 171.074 787.696C168.495 784.579 165.721 781.639 162.768 778.893L158.812 781.085C161.014 783.129 163.137 785.261 165.141 787.515C168.78 791.525 171.898 796.004 174.418 800.843V800.843Z" fill="#554140"/>
<path d="M157.26 799.252C159.999 803.141 162.304 807.337 164.131 811.763C167.198 818.844 169.14 826.442 172.049 833.591C172.395 830.285 172.653 826.95 173.167 823.688C171.726 819.412 170.357 815.102 168.642 810.963C166.869 806.522 164.662 802.281 162.053 798.307C159.634 794.823 156.623 791.819 153.162 789.435C151.76 788.432 150.32 787.487 148.842 786.599L144.731 788.876C145.754 789.48 146.761 790.108 147.753 790.762C151.391 792.99 154.61 795.863 157.26 799.252V799.252Z" fill="#554140"/>
<path d="M172.621 835.106C173.491 837.172 174.477 839.182 175.576 841.127C178.219 845.874 181.886 849.926 186.299 852.978C190.922 855.945 195.839 858.405 200.972 860.316C206.786 862.648 212.481 865.165 218.135 867.868C223.843 870.603 229.545 873.349 235.429 875.679C236.716 876.191 240.188 873.55 238.288 872.799C227.762 868.63 217.861 863.024 207.348 858.824C202.171 856.92 197.146 854.62 192.314 851.942C187.596 849.237 183.582 845.418 180.597 840.793C177.537 835.997 175.511 830.693 173.668 825.302C173.227 828.453 172.999 831.641 172.658 834.799L172.621 835.106Z" fill="#554140"/>
<path d="M168.128 852.049C168.636 852.709 169.15 853.365 169.675 854.012C176.121 862.14 184.468 868.448 193.953 872.361C204.986 876.817 216.818 878.704 228.027 882.605C229.334 883.06 232.792 880.392 230.882 879.728C220.904 876.258 210.455 874.38 200.486 870.875C190.724 867.51 182.003 861.608 175.162 853.736C173.391 851.689 171.721 849.554 170.125 847.359C169.86 848.107 169.573 848.849 169.263 849.586C168.91 850.422 168.532 851.243 168.128 852.049Z" fill="#554140"/>
<path d="M142.229 812.372C145.787 816.744 148.999 821.403 151.833 826.307C156.884 834.666 161.719 843.255 167.616 851.027C168.376 849.487 169.046 847.903 169.623 846.283C165.103 839.981 161.164 833.205 157.204 826.552C154.399 821.648 151.305 816.927 147.94 812.414C145.071 808.577 141.509 805.346 137.446 802.891C134.349 801.141 131.149 799.587 127.864 798.237L123.679 800.556C126.211 801.655 128.74 802.747 131.159 803.992C135.353 806.016 139.112 808.862 142.229 812.372V812.372Z" fill="#554140"/>
<path d="M138.978 839.66C145.816 847.323 152.187 855.508 159.575 862.631C160.569 861.568 161.516 860.468 162.416 859.33C156.05 853.039 150.416 846.007 144.486 839.282C137.351 831.189 129.91 823.281 121.39 816.71C117.483 813.689 113.328 811.016 108.972 808.722L104.839 811.014C108.548 812.911 112.109 815.094 115.492 817.545C124.209 823.846 131.798 831.614 138.978 839.66Z" fill="#554140"/>
<path d="M161.108 864.509C168.82 871.7 177.557 877.641 187.027 882.131C197.948 887.234 209.705 890.253 221.731 891.041C222.271 891.017 222.801 890.867 223.28 890.601C223.758 890.336 224.173 889.962 224.492 889.509C225.026 888.681 224.651 888.161 223.767 888.101C202.544 886.657 182.586 877.804 166.597 863.696C165.342 862.588 164.123 861.444 162.928 860.275C162.026 861.403 161.079 862.492 160.086 863.542C160.425 863.866 160.764 864.19 161.108 864.509Z" fill="#554140"/>
<path d="M94.4244 828.794C100.254 831.415 105.875 834.218 110.989 838.128C115.539 841.774 119.88 845.686 123.993 849.843C131.834 857.416 139.717 865.038 147.927 872.204C149.151 871.4 150.355 870.562 151.538 869.69C144.233 863.318 137.265 856.514 130.235 849.847C125.939 845.771 121.786 841.521 117.25 837.719C112.54 833.8 107.354 830.521 101.817 827.962C98.3098 826.315 94.7694 824.743 91.196 823.246C89.6156 822.576 88.0293 821.891 86.4328 821.228L82.1932 823.58C83.1015 823.953 84.0075 824.332 84.913 824.706C88.1032 826.021 91.2736 827.384 94.4244 828.794Z" fill="#554140"/>
<path d="M148.477 873.217C149.017 873.687 149.557 874.155 150.099 874.622C159.058 882.305 168.751 889.217 179.73 893.537C185.687 895.88 191.833 896.45 198.188 896.677C204.322 896.895 210.532 896.981 216.374 899.044C217.677 899.504 221.134 896.843 219.226 896.17C208.7 892.456 197.199 895.071 186.542 892.042C180.983 890.31 175.675 887.845 170.749 884.707C165.724 881.611 160.923 878.152 156.382 874.354C154.928 873.156 153.491 871.937 152.069 870.699C151.78 870.915 151.488 871.13 151.192 871.344C150.301 871.988 149.391 872.612 148.477 873.217Z" fill="#554140"/>
<path d="M216.22 899.163C210.376 897.05 204.184 896.911 198.064 896.643C191.722 896.364 185.587 895.744 179.63 893.347C168.648 888.93 158.931 881.927 149.943 874.157C149.397 873.686 148.853 873.213 148.312 872.739C149.223 872.136 150.122 871.517 151.01 870.882C151.301 870.672 151.591 870.458 151.88 870.242C153.308 871.492 154.751 872.724 156.208 873.939C160.764 877.781 165.577 881.286 170.611 884.429C175.546 887.613 180.858 890.126 186.415 891.906C197.067 895.027 208.521 892.503 219.047 896.307C220.797 896.94 218.046 899.221 216.576 899.221C216.455 899.222 216.335 899.202 216.22 899.163V899.163ZM221.582 891.138C209.587 890.251 197.845 887.133 186.921 881.935C177.449 877.363 168.697 871.344 160.959 864.08C160.614 863.758 160.274 863.43 159.932 863.103C160.913 862.059 161.85 860.976 162.744 859.855C163.943 861.03 165.166 862.191 166.426 863.311C182.463 877.566 202.423 886.593 223.593 888.212C224.475 888.279 224.852 888.804 224.325 889.628C224.02 890.059 223.629 890.418 223.178 890.68C222.727 890.942 222.227 891.1 221.712 891.144C221.668 891.142 221.625 891.141 221.582 891.141L221.582 891.138ZM227.889 882.697C216.689 878.704 204.887 876.718 193.862 872.169C184.385 868.176 176.024 861.795 169.544 853.607C169.019 852.954 168.501 852.295 167.989 851.628C168.386 850.826 168.758 850.007 169.106 849.173C169.411 848.438 169.691 847.697 169.95 846.95C171.556 849.16 173.234 851.31 175.012 853.371C181.885 861.306 190.615 867.283 200.365 870.729C210.323 874.317 220.748 876.284 230.715 879.837C232.47 880.462 229.711 882.747 228.24 882.748C228.122 882.751 228.005 882.733 227.893 882.697L227.889 882.697ZM235.298 875.784C229.427 873.405 223.732 870.613 218.032 867.832C212.388 865.078 206.7 862.521 200.899 860.145C195.778 858.192 190.867 855.693 186.246 852.688C181.834 849.602 178.157 845.52 175.493 840.751C175.133 840.122 174.788 839.489 174.457 838.851C173.757 837.495 173.112 836.112 172.509 834.711C172.52 834.608 172.532 834.505 172.542 834.404C172.859 831.248 173.067 828.064 173.482 824.917C175.353 830.322 177.405 835.641 180.482 840.462C183.485 845.111 187.507 848.963 192.22 851.705C197.049 854.423 202.067 856.764 207.233 858.709C217.726 862.995 227.621 868.68 238.121 872.935C239.85 873.634 237.15 875.859 235.685 875.859C235.553 875.859 235.422 875.833 235.299 875.784L235.298 875.784ZM123.823 849.726C119.701 845.536 115.354 841.59 110.801 837.908C105.686 833.958 100.071 831.109 94.2523 828.44C91.1111 826.999 87.9471 825.612 84.7604 824.28C83.8574 823.899 82.9535 823.512 82.0479 823.131L86.2479 820.814C87.8403 821.492 89.4241 822.189 91.0026 822.87C94.565 824.404 98.0991 826.005 101.605 827.671C107.128 830.274 112.308 833.593 117.021 837.548C121.56 841.386 125.722 845.669 130.025 849.779C137.07 856.506 144.049 863.365 151.363 869.795C150.196 870.658 149.005 871.487 147.79 872.282C139.575 865.047 131.679 857.362 123.824 849.727L123.823 849.726ZM241.644 867.859C232.807 863.104 223.667 858.952 214.919 854.013C207.738 849.958 200.843 845.262 195.071 839.221C190.794 834.686 187.178 829.533 184.335 823.924C182.902 821.134 181.607 818.272 180.454 815.347C179.814 813.737 179.192 812.117 178.56 810.502C179.524 809.159 180.621 807.925 181.834 806.818C183.07 809.929 184.236 813.07 185.531 816.155C188.996 824.72 194.168 832.435 200.711 838.796C213.387 850.843 230.042 857.155 245.109 865.265C245.973 865.729 244.775 866.952 244.392 867.242C243.813 867.705 243.115 867.981 242.385 868.034C242.129 868.039 241.875 867.979 241.645 867.86L241.644 867.859ZM138.824 839.531C131.635 831.435 124.036 823.614 115.331 817.25C111.952 814.775 108.398 812.565 104.699 810.64L108.791 808.384C113.137 810.71 117.284 813.413 121.188 816.463C129.706 823.097 137.149 831.056 144.295 839.198C150.234 845.964 155.883 853.035 162.251 859.365C161.366 860.495 160.433 861.587 159.451 862.639C152.06 855.469 145.674 847.242 138.825 839.531L138.824 839.531ZM151.67 826.185C148.824 821.267 145.605 816.589 142.045 812.197C138.927 808.666 135.176 805.793 131 803.738C128.59 802.472 126.073 801.366 123.552 800.249L127.69 797.968C130.96 799.342 134.147 800.921 137.232 802.694C141.282 805.175 144.839 808.428 147.714 812.281C151.084 816.813 154.187 821.551 157.006 826.469C160.981 833.141 164.938 839.936 169.466 846.264C168.905 847.877 168.251 849.453 167.506 850.984C161.598 843.184 156.74 834.572 151.671 826.186L151.67 826.185ZM163.993 811.625C162.153 807.194 159.84 802.99 157.098 799.089C154.447 795.686 151.237 792.794 147.615 790.543C146.629 789.883 145.627 789.247 144.608 788.636L148.668 786.398C150.137 787.298 151.571 788.252 152.968 789.262C156.415 791.668 159.42 794.689 161.843 798.184C164.455 802.17 166.672 806.417 168.459 810.862C170.188 815.005 171.574 819.315 173.032 823.594C172.546 826.843 172.312 830.169 171.991 833.463C169.06 826.312 167.08 818.718 163.994 811.63L163.993 811.625ZM174.311 800.714C171.777 795.864 168.652 791.37 165.014 787.34C163.012 785.073 160.892 782.929 158.693 780.872L162.603 778.717C165.551 781.479 168.324 784.434 170.904 787.564C174.312 791.701 177.185 796.28 179.45 801.184C180.203 802.822 180.899 804.484 181.571 806.158C180.347 807.211 179.233 808.393 178.246 809.685C177.044 806.649 175.795 803.628 174.312 800.718L174.311 800.714Z" fill="#3B3430"/>
<path d="M821.446 247.979C823.944 248.354 825.941 249.679 828.045 250.766C830.881 252.182 833.827 253.35 836.852 254.258C837.731 254.491 838.552 254.913 839.263 255.496C839.974 256.08 840.558 256.811 840.977 257.643C841.207 258.101 841.353 258.596 840.75 258.94C840.244 259.232 839.848 258.962 839.41 258.712C833.953 255.595 827.865 253.426 821.936 251.019C821.343 250.777 820.764 250.501 820.201 250.192C820.055 250.126 819.924 250.029 819.817 249.907C819.709 249.785 819.628 249.642 819.578 249.485C819.528 249.329 819.511 249.163 819.527 248.999C819.543 248.836 819.592 248.677 819.671 248.534C819.941 247.831 820.72 248 821.446 247.979Z" fill="#FFA85A"/>
<path d="M846.343 294.994C846.182 295.275 845.989 295.536 845.766 295.768C841.96 299.129 839.282 303.091 836.602 307.057C836.114 307.779 835.692 308.987 834.27 308.356C833.074 307.826 833.893 306.895 834.242 306.166C836.261 301.975 839.636 298.463 842.835 294.868C843.13 294.469 843.534 294.17 843.995 294.01C844.456 293.851 844.952 293.838 845.42 293.974C845.662 294.014 845.883 294.136 846.05 294.321C846.217 294.505 846.32 294.742 846.343 294.994Z" fill="#FFA85A"/>
<path d="M896.691 303.211C896.903 303.949 896.745 304.399 896.043 304.535C895.739 304.639 895.408 304.622 895.116 304.486C894.824 304.35 894.591 304.106 894.465 303.801C893.218 299.794 889.506 297.07 886.737 293.852C886.054 293.059 885.254 292.184 886.628 291.375C888.045 290.54 888.681 291.494 889.389 292.296C891.096 294.236 892.817 296.17 894.59 298.071C895.268 298.728 895.805 299.525 896.167 300.411C896.529 301.296 896.708 302.25 896.691 303.211V303.211Z" fill="#FFA85A"/>
<path d="M908 234.615C907.93 235.569 907.047 236.403 906.316 237.169C903.178 240.453 899.595 243.456 897.519 247.364C897.085 248.18 896.034 249.405 894.771 248.735C893.637 248.134 894.367 247.049 895.05 246.113C898.096 241.94 902.427 238.556 905.681 234.513C905.872 234.287 906.111 234.109 906.38 233.995C906.648 233.88 906.939 233.832 907.229 233.854C907.429 233.849 907.622 233.927 907.767 234.07C907.911 234.213 907.995 234.409 908 234.615V234.615Z" fill="#FFA85A"/>
<path d="M836.649 273.881C836.573 274.661 835.864 274.936 835.18 275.192C831.366 276.632 827.569 278.105 823.708 279.455C822.65 279.816 821.627 280.279 820.652 280.837C820.28 281.095 819.826 281.197 819.384 281.121C818.942 281.044 818.545 280.796 818.274 280.427C817.706 279.704 817.928 278.971 818.917 278.773C824.403 277.664 828.904 274.863 833.971 273.04C835.329 272.555 836.222 272.665 836.649 273.881Z" fill="#FFA85A"/>
<path d="M850.004 229.837C851.159 230.031 852.227 230.593 853.058 231.443C855.054 233.584 856.273 236.051 857.411 238.525C857.822 239.419 858.297 240.277 858.769 241.144C859.064 241.687 859.507 242.328 858.52 242.73C858.185 242.883 857.81 242.921 857.452 242.839C857.094 242.756 856.771 242.557 856.53 242.271C855.93 241.642 855.398 240.947 854.945 240.197C853.399 237.336 852.259 234.314 849.719 231.86C849.236 231.394 848.938 230.768 849.351 230.148C849.473 229.964 849.863 229.9 850.004 229.837Z" fill="#FFA85A"/>
<path d="M883.32 229.554C883.25 233.201 881.911 236.689 881.289 240.266C881.153 241.041 880.431 241.488 879.474 241.375C878.436 241.251 878.63 240.519 878.615 239.911C878.536 238.052 878.817 236.196 879.441 234.451C880.324 232.355 880.762 230.088 880.725 227.803C880.687 227.064 880.639 225.938 882.1 226.003C883.473 226.062 883.343 227.119 883.406 227.916C883.415 228.463 883.386 229.011 883.32 229.554Z" fill="#FFA85A"/>
<path d="M869.848 303.402C870.036 305.568 870.21 307.734 870.418 309.899C870.492 310.666 871.159 311.728 869.594 311.827C868.175 311.916 867.651 310.915 867.526 309.892C867.254 307.662 866.97 305.428 866.814 303.191C866.761 301.893 866.599 300.603 866.33 299.334C866.11 298.416 866.345 297.471 867.783 297.331C869.156 297.198 869.427 298.041 869.524 298.916C869.688 300.406 869.831 301.9 869.985 303.391L869.848 303.402Z" fill="#FFA85A"/>
<path d="M913.823 284.46C913.758 285.269 913.08 285.64 912.131 285.435C910.932 285.184 909.756 284.825 908.618 284.363C906.009 283.279 903.456 282.108 900.879 280.975C899.943 280.564 898.939 280.048 899.744 279.108C900.105 278.709 900.581 278.442 901.102 278.347C901.623 278.252 902.159 278.335 902.631 278.583C906.14 280.132 909.18 282.352 913.024 283.427C913.252 283.476 913.457 283.606 913.603 283.795C913.749 283.983 913.826 284.218 913.823 284.46Z" fill="#FFA85A"/>
<path d="M904.091 267.968C903.146 268.054 902.771 267.917 902.526 267.611C902.198 267.202 902.389 266.804 902.713 266.475C903.392 265.781 904.251 265.305 905.185 265.104C909.329 264.214 913.498 263.401 917.647 262.527C918.403 262.367 918.981 262.386 919.335 263.007C919.723 263.684 919.185 264.099 918.565 264.319C913.748 265.994 908.369 266.177 904.091 267.968Z" fill="#FFA85A"/>
<path d="M867.525 309.893C867.253 307.662 866.969 305.429 866.813 303.191C866.76 301.894 866.598 300.603 866.329 299.335C866.109 298.417 866.343 297.471 867.781 297.331C869.154 297.198 869.426 298.042 869.522 298.917C869.686 300.408 869.829 301.898 869.984 303.392L869.847 303.402C870.035 305.568 870.21 307.734 870.417 309.899C870.491 310.667 871.159 311.729 869.593 311.827C869.536 311.83 869.478 311.832 869.42 311.832C868.131 311.833 867.646 310.873 867.525 309.893ZM834.269 308.354C833.073 307.823 833.891 306.893 834.241 306.163C836.26 301.972 839.636 298.461 842.837 294.866C843.132 294.467 843.536 294.168 843.997 294.008C844.458 293.849 844.955 293.836 845.423 293.972C845.664 294.013 845.885 294.136 846.051 294.321C846.218 294.506 846.32 294.743 846.343 294.994C846.182 295.276 845.988 295.536 845.766 295.769C841.96 299.13 839.282 303.091 836.602 307.057C836.208 307.638 835.859 308.533 834.997 308.533C834.745 308.526 834.498 308.465 834.27 308.355L834.269 308.354ZM894.464 303.803C893.217 299.794 889.505 297.071 886.737 293.853C886.053 293.059 885.253 292.184 886.628 291.374C888.045 290.54 888.681 291.494 889.388 292.295C891.094 294.236 892.815 296.17 894.588 298.071C895.267 298.728 895.805 299.525 896.167 300.411C896.529 301.296 896.707 302.25 896.691 303.212C896.903 303.949 896.745 304.399 896.043 304.535C895.916 304.561 895.786 304.574 895.657 304.574C895.404 304.598 895.15 304.535 894.935 304.396C894.72 304.257 894.555 304.048 894.465 303.803L894.464 303.803ZM912.13 285.437C910.931 285.185 909.756 284.826 908.617 284.364C906.009 283.281 903.456 282.11 900.878 280.977C899.943 280.566 898.939 280.049 899.743 279.109C900.104 278.71 900.58 278.443 901.101 278.348C901.622 278.254 902.158 278.337 902.63 278.584C906.139 280.134 909.178 282.354 913.023 283.43C913.252 283.479 913.457 283.609 913.603 283.798C913.748 283.986 913.826 284.222 913.821 284.463C913.812 284.614 913.773 284.761 913.707 284.896C913.64 285.031 913.548 285.15 913.435 285.247C913.323 285.344 913.192 285.415 913.052 285.458C912.911 285.5 912.764 285.513 912.619 285.494C912.455 285.492 912.291 285.473 912.13 285.437L912.13 285.437ZM818.275 280.43C817.708 279.708 817.932 278.975 818.918 278.776C824.405 277.668 828.906 274.866 833.974 273.043C835.33 272.556 836.223 272.666 836.649 273.881C836.573 274.661 835.864 274.937 835.181 275.193C831.367 276.633 827.569 278.106 823.709 279.456C822.65 279.817 821.627 280.28 820.652 280.838C820.342 281.028 819.989 281.132 819.629 281.139C819.366 281.136 819.107 281.07 818.872 280.947C818.638 280.824 818.433 280.647 818.275 280.43L818.275 280.43ZM902.526 267.612C902.198 267.204 902.389 266.806 902.713 266.476C903.392 265.783 904.25 265.307 905.184 265.105C909.329 264.216 913.497 263.403 917.646 262.53C918.402 262.369 918.98 262.388 919.334 263.006C919.723 263.684 919.185 264.099 918.565 264.318C913.747 265.997 908.368 266.18 904.09 267.973C903.904 267.989 903.74 267.998 903.595 267.998C903.4 268.026 903.201 268.006 903.015 267.939C902.829 267.872 902.662 267.76 902.526 267.612L902.526 267.612ZM839.372 258.717C833.915 255.6 827.827 253.431 821.898 251.023C821.305 250.782 820.726 250.505 820.163 250.196C820.017 250.13 819.886 250.033 819.779 249.911C819.672 249.79 819.591 249.646 819.541 249.489C819.491 249.333 819.473 249.167 819.489 249.004C819.506 248.84 819.555 248.681 819.634 248.538C819.856 247.956 820.424 247.969 821.024 247.981C821.151 247.984 821.281 247.986 821.409 247.981C823.907 248.356 825.904 249.681 828.008 250.768C830.844 252.184 833.79 253.353 836.814 254.26C837.693 254.493 838.515 254.915 839.226 255.498C839.936 256.082 840.52 256.813 840.94 257.645C841.17 258.103 841.317 258.599 840.713 258.943C840.579 259.024 840.426 259.067 840.271 259.069C839.947 259.03 839.639 258.909 839.372 258.716L839.372 258.717ZM894.77 248.737C893.637 248.136 894.366 247.051 895.05 246.117C898.096 241.945 902.427 238.561 905.681 234.518C905.871 234.292 906.11 234.114 906.379 233.999C906.648 233.885 906.938 233.837 907.228 233.859C907.427 233.854 907.62 233.931 907.765 234.073C907.91 234.215 907.994 234.41 908 234.616C907.93 235.57 907.048 236.404 906.316 237.17C903.179 240.453 899.594 243.457 897.518 247.366C897.172 248.017 896.432 248.93 895.504 248.93C895.248 248.928 894.996 248.862 894.77 248.737V248.737ZM856.53 242.272C855.93 241.643 855.398 240.947 854.944 240.198C853.398 237.337 852.259 234.315 849.719 231.861C849.236 231.394 848.939 230.768 849.351 230.148C849.473 229.965 849.863 229.9 850.004 229.838C851.16 230.031 852.229 230.592 853.061 231.443C855.057 233.585 856.275 236.051 857.413 238.526C857.825 239.42 858.299 240.277 858.771 241.144C859.067 241.687 859.509 242.328 858.523 242.73C858.295 242.825 858.053 242.875 857.808 242.877C857.565 242.876 857.326 242.822 857.105 242.718C856.885 242.614 856.688 242.462 856.529 242.273L856.53 242.272ZM879.474 241.378C878.436 241.255 878.63 240.522 878.615 239.913C878.535 238.055 878.816 236.199 879.441 234.454C880.324 232.358 880.761 230.092 880.725 227.806C880.685 227.067 880.638 225.941 882.098 226.006C883.472 226.065 883.342 227.122 883.404 227.918C883.414 228.466 883.385 229.014 883.319 229.557C883.249 233.204 881.91 236.691 881.288 240.269C881.212 240.618 881.015 240.925 880.734 241.133C880.452 241.34 880.107 241.434 879.764 241.395C879.667 241.395 879.57 241.388 879.474 241.376L879.474 241.378Z" fill="#555555"/>
</svg>
