<svg width="1625" height="737" viewBox="0 0 1625 737" fill="none" xmlns="http://www.w3.org/2000/svg">
<path fill-rule="evenodd" clip-rule="evenodd" d="M1620.08 23.1441C1618.59 29.2175 1618.69 35.0662 1618.51 41.2265C1618.47 42.4296 1619.42 43.4298 1620.61 43.466C1621.81 43.5023 1622.81 42.5528 1622.84 41.3497C1623.01 35.5083 1622.87 29.9495 1624.29 24.1805C1624.57 23.0137 1623.86 21.8323 1622.7 21.5497C1621.54 21.2598 1620.36 21.9773 1620.08 23.1441Z" fill="black"/>
<path fill-rule="evenodd" clip-rule="evenodd" d="M1607.43 11.3739C1597.33 20.6361 1587.82 32.551 1581.16 44.5818C1580.58 45.6327 1580.96 46.959 1582.01 47.5388C1583.05 48.1186 1584.37 47.7417 1584.95 46.6908C1591.39 35.0586 1600.59 23.5351 1610.35 14.5844C1611.24 13.7727 1611.3 12.3957 1610.49 11.5115C1609.69 10.6273 1608.31 10.5621 1607.43 11.3739Z" fill="black"/>
<path fill-rule="evenodd" clip-rule="evenodd" d="M1604.87 1.25645C1595.64 -0.272797 1586.11 2.33632 1577.72 6.02536C1576.62 6.51095 1576.12 7.79374 1576.6 8.88813C1577.08 9.98977 1578.36 10.4899 1579.45 10.0115C1587.1 6.64865 1595.75 4.15544 1604.17 5.54699C1605.35 5.74267 1606.46 4.93821 1606.66 3.75685C1606.85 2.57548 1606.05 1.45214 1604.87 1.25645Z" fill="black"/>
<path fill-rule="evenodd" clip-rule="evenodd" d="M10.7676 714.22C10.7446 707.966 9.23599 702.316 7.9199 696.296C7.6627 695.12 6.50645 694.379 5.33711 694.634C4.16707 694.889 3.42745 696.053 3.68394 697.229C4.93206 702.937 6.40849 708.297 6.43153 714.237C6.43592 715.438 7.41227 716.411 8.60822 716.403C9.80522 716.403 10.7727 715.421 10.7676 714.22Z" fill="black"/>
<path fill-rule="evenodd" clip-rule="evenodd" d="M25.8777 722.572C33.4404 711.135 39.7957 697.267 43.3427 683.982C43.6516 682.822 42.9644 681.627 41.8093 681.318C40.6541 681.01 39.4638 681.696 39.1548 682.856C35.7246 695.701 29.5783 709.114 22.2641 720.167C21.6036 721.169 21.8769 722.52 22.8736 723.182C23.8703 723.843 25.2172 723.573 25.8777 722.572Z" fill="black"/>
<path fill-rule="evenodd" clip-rule="evenodd" d="M30.8136 731.768C40.1456 731.009 48.7532 726.167 56.0114 720.552C56.9572 719.815 57.1323 718.45 56.4032 717.505C55.6716 716.553 54.3095 716.378 53.3619 717.108C46.7524 722.226 38.9607 726.743 30.4615 727.436C29.2691 727.533 28.3806 728.584 28.4775 729.777C28.5738 730.969 29.6218 731.864 30.8136 731.768Z" fill="black"/>
</svg>
