<svg width="723" height="683" viewBox="0 0 723 683" fill="none" xmlns="http://www.w3.org/2000/svg">
<path d="M371.101 102.529C371.854 102.706 372.612 102.883 373.645 103.122C373.265 102.218 372.949 101.472 372.519 100.45L374.971 100.894C376.22 101.872 376.052 103.898 377.881 104.174C378.874 103.668 377.904 102.675 378.315 102.102C378.777 101.557 379.275 101.045 379.806 100.571C380.385 101.2 381.233 101.754 381.499 102.491C381.986 103.543 382.736 104.446 383.673 105.108C385.377 106.608 387.259 107.911 389.229 109.422C389.766 108.941 390.301 108.473 390.829 108.003C391.466 108.675 392.172 109.423 392.878 110.162C393.122 110.411 393.554 110.624 393.599 110.885C394.033 113.335 395.955 113.677 397.834 114.13C398.262 114.247 398.685 114.387 399.1 114.549C401.609 117.011 401.742 120.132 403.115 122.741C403.35 123.183 403.231 123.812 403.233 124.353C403.225 125.494 403.484 126.622 403.989 127.644C404.493 128.666 405.228 129.551 406.132 130.228C408.152 131.735 409.779 133.726 410.867 136.025C411.145 136.725 411.557 137.362 412.079 137.898C412.6 138.435 413.221 138.86 413.904 139.149L414.146 140.901C416.587 141.47 418.713 143.004 420.059 145.166C420.778 146.335 421.645 147.429 422.334 148.611C423.804 151.134 425.946 153.095 427.96 155.123C430.866 158.059 433.808 160.942 436.594 164.007C438.463 165.863 440.426 167.618 442.474 169.263C444.824 171.259 446.834 173.637 448.424 176.301L448.486 176.19C447.176 176.573 446.302 175.527 445.519 174.841C443.102 172.729 440.846 170.425 438.523 168.204C437.437 167.187 436.292 166.237 435.094 165.36C433.223 163.847 431.502 162.148 429.956 160.29C427.258 157.437 424.336 154.814 421.221 152.445C420.942 152.265 420.644 152.118 420.332 152.008C420.194 152.025 420.063 152.078 419.951 152.161C419.839 152.244 419.749 152.355 419.691 152.484C419.633 152.612 419.608 152.754 419.618 152.896C419.628 153.038 419.674 153.175 419.75 153.294C420.306 154.515 420.466 155.945 421.696 156.824C421.796 156.882 421.876 156.968 421.926 157.073C422.771 159.759 425.204 161.07 426.99 162.955C429.618 165.856 432.505 168.5 435.612 170.854C436.062 171.214 436.461 171.636 436.796 172.108C439.093 175.108 442.288 176.947 445.339 178.966C446.568 179.784 447.916 180.423 449.103 181.294C449.829 181.841 450.653 182.235 451.528 182.455C452.402 182.674 453.309 182.714 454.197 182.572L454.101 182.529C454.213 183.055 454.369 183.571 454.567 184.071C454.69 184.377 454.922 184.624 455.217 184.76C455.512 184.897 455.846 184.914 456.151 184.806C457.023 184.541 456.74 183.89 456.51 183.275L456.479 183.259C457.003 183.473 457.505 183.742 457.975 184.06C460.417 186.129 463.162 187.854 465.13 190.457C466.585 192.386 468.874 193.508 470.135 195.638C470.284 195.889 470.708 196.008 471.023 196.142C471.995 196.516 472.872 197.111 473.587 197.881C474.303 198.652 474.838 199.578 475.152 200.589C478.058 200.763 478.595 203.563 480.268 205.062C479.977 205.864 479.556 205.512 479.165 205.316C479.063 205.269 478.98 205.159 478.874 205.133C475.534 204.401 473.139 202.163 470.799 199.806C470.256 199.39 469.679 199.023 469.075 198.71C468.19 198.199 467.388 197.548 466.701 196.781C465.888 195.984 464.942 195.344 463.908 194.892C463.029 194.385 462.12 193.845 460.897 194.306C460.885 194.634 460.744 195.083 460.875 195.458C461.558 197.326 462.884 198.878 464.603 199.823C467.588 201.579 470.026 204.056 472.857 206.011C474.695 207.366 476.391 208.91 477.92 210.618C477.75 210.726 477.451 210.807 477.437 210.941C477.443 211.223 477.503 211.502 477.612 211.762C477.611 211.773 477.847 211.771 477.866 211.724C477.95 211.555 477.994 211.367 477.993 211.176C477.951 210.963 477.885 210.755 477.797 210.557C478.281 210.828 478.966 210.984 479.218 211.39C480.331 213.028 482.009 214.177 483.911 214.603C485.365 215.065 486.723 215.799 487.916 216.767C488.917 217.503 489.963 218.172 491.047 218.77C491.294 218.914 491.682 218.795 492.269 218.799C492.089 218.284 492.053 217.82 491.807 217.537C490.474 215.97 489.128 214.412 487.702 212.928C487.098 212.406 486.442 211.95 485.745 211.569C484.025 210.457 482.52 209.029 481.309 207.357C481.217 207.224 481.309 206.964 481.319 206.719C482.928 206.672 483.614 208.5 485.053 208.757L484.974 208.677C485.408 208.978 486.084 209.633 486.236 209.532C486.445 209.381 486.683 209.278 486.935 209.229C487.187 209.18 487.446 209.186 487.696 209.247C487.946 209.309 488.181 209.423 488.385 209.584C488.589 209.744 488.757 209.947 488.879 210.179C490.158 212.211 492.103 213.346 493.911 214.704C494.547 215.179 495.077 215.804 495.684 216.328C496.003 216.643 496.376 216.894 496.784 217.07C499.165 217.878 501.245 219.423 502.736 221.489C503.581 222.413 504.557 223.202 505.631 223.829C506.298 224.294 506.114 224.751 505.957 225.272L505.813 225.108L505.997 225.199L507.266 226.929L507.314 226.837L504.07 225.257C502.863 226.4 502.694 226.96 503.469 227.694C504.553 228.722 505.687 229.691 506.869 230.599C507.769 231.286 508.902 231.683 509.394 232.85C509.5 233.056 509.671 233.219 509.88 233.313C511.877 234.172 513.685 235.438 515.193 237.031C517.238 237.306 517.818 239 518.438 240.522C519.742 240.57 519.264 239.718 519.267 239.134L519.223 239.225C520.459 240.221 521.72 241.19 522.929 242.225C523.353 242.502 523.712 242.871 523.98 243.307C524.247 243.742 524.417 244.232 524.476 244.742C524.453 245.026 524.529 245.31 524.692 245.544C524.855 245.777 525.093 245.944 525.364 246.015C526.415 246.379 527.171 247.337 528.354 247.526C528.686 247.615 528.978 247.818 529.181 248.101C529.384 248.385 529.484 248.731 529.466 249.08L529.522 249C529.103 248.825 528.675 248.672 528.241 248.543C526.754 248.188 525.962 248.884 525.476 250.343C527.25 251.595 528.923 252.919 530.73 254.006C533.032 255.398 534.568 257.17 534.731 259.895C534.749 260.36 534.926 260.805 535.231 261.154C535.535 261.502 535.949 261.731 536.4 261.802C536.764 261.892 537.187 261.644 537.577 261.546L537.283 260.398C537.448 260.35 537.671 260.207 537.769 260.271C538.334 260.648 538.873 261.064 539.408 261.486C540.214 262.117 540.963 262.818 541.802 263.388C543.146 264.201 544.331 265.263 545.295 266.518C546.141 267.682 547.063 268.786 548.056 269.821C549.015 270.836 550.628 271.206 551.856 272.02C552.803 272.651 553.658 273.416 554.395 274.293C555.611 275.827 557.172 277.04 558.944 277.825C557.838 280.027 558.167 280.784 560.431 281.515C560.723 281.629 561.007 281.759 561.284 281.906L561.327 281.827L560.952 282.23L561.578 282.564L561.5 282.514C562.526 283.218 563.583 283.899 564.588 284.638C565.943 285.646 566.269 287.264 566.96 288.653C567.099 288.937 566.824 289.509 566.599 289.848C566.111 290.564 565.528 291.209 564.986 291.884C563.904 291.849 562.811 291.756 561.738 291.806C561.575 291.826 561.42 291.889 561.288 291.987C561.156 292.086 561.051 292.218 560.983 292.37C560.916 292.522 560.887 292.69 560.9 292.857C560.914 293.025 560.969 293.186 561.06 293.326C561.2 293.64 561.397 293.923 561.641 294.162C562.943 295.282 564.342 296.28 565.819 297.143C567.423 297.949 568.449 298.909 568.403 300.685C570.349 302.098 572.463 303.126 573.711 305.183C576.269 306.687 578.166 309.204 581.01 310.283L581.01 310.195C580.636 310.526 580.081 310.787 579.929 311.208C579.797 311.827 579.753 312.462 579.799 313.095C580.887 314.32 581.923 315.484 583.116 316.823C582.776 317.175 582.464 317.555 582.184 317.958C581.95 318.269 581.844 318.661 581.889 319.052C581.935 319.443 582.128 319.801 582.427 320.05C583.129 320.759 584.18 321.161 584.371 322.311L584.459 322.218C582.08 321.346 580.058 319.67 578.732 317.469C577.31 315.497 575.61 313.751 573.686 312.289C573.122 311.714 572.388 311.346 571.6 311.242C569.885 311.407 568.947 310.438 567.847 309.338C566.1 307.598 564.07 306.364 561.515 306.564C560.587 306.639 560.214 307.249 560.685 308.154C561.304 309.351 561.941 310.539 562.649 311.891C563.374 312.156 564.216 312.491 565.072 312.765C567.902 313.688 569.521 315.843 570.651 318.404C570.928 319.04 570.981 319.743 571.724 319.995C572.353 320.192 572.996 320.337 573.646 320.428C573.938 320.447 574.231 320.432 574.52 320.385C574.659 320.685 574.86 320.911 574.835 321.091C574.563 323.46 576.085 324.562 577.977 325.387C578.5 325.611 579.062 325.716 579.598 325.895C580.026 326.037 580.598 326.087 580.849 326.386C582.752 328.69 585.894 328.284 588.037 330.051C588.227 330.203 588.989 330 589.119 329.75C589.266 329.475 589.112 328.875 588.884 328.565C588.163 327.652 587.175 326.998 586.067 326.698C585.412 326.448 584.773 326.153 584.157 325.814C584.609 324.65 584.99 323.656 585.375 322.66L585.36 322.778C587.281 324.38 588.963 326.294 591.294 327.378C591.852 327.776 592.357 328.247 592.796 328.777C594.09 329.911 595.396 331.037 596.7 332.158C597.523 332.863 598.786 333.19 598.743 334.659C598.737 334.904 599.364 335.37 599.739 335.446C600.944 335.703 602.168 335.826 603.412 336.004C603.872 336.587 604.249 337.494 604.859 337.739C606.001 338.102 607.174 338.349 608.362 338.475C608.867 339.216 609.415 340.021 609.956 340.818C609.121 341.26 608.233 341.591 607.315 341.802C605.18 342.019 604.109 343.426 603.116 345.012C602.269 346.372 601.413 347.73 600.592 349.039C600.677 349.504 600.889 349.936 601.202 350.285C601.516 350.634 601.919 350.887 602.365 351.014C604.07 351.621 605.743 352.319 607.39 352.963C607.716 354.463 606.121 354.706 605.863 356.043L607.055 359.464C605.577 360.655 604.248 361.828 602.049 360.875C601.626 360.689 601.024 360.973 600.474 361.047C600.234 362.589 601.075 363.788 601.402 365.071L601.428 365.002C601.232 365.629 600.938 366.219 600.558 366.749C598.794 368.498 599.379 370.496 600.574 372.217C601.546 373.621 602.284 375.178 602.76 376.824C602.907 377.383 603.168 377.905 603.527 378.355C603.885 378.805 604.333 379.172 604.839 379.432C606.543 380.339 608.145 381.388 610.166 381.582C611.965 381.756 613.489 382.945 614.922 383.874C615.872 386.441 613.942 387.872 613.309 389.91C612.348 389.26 611.414 388.627 610.465 387.99C609.551 388.221 608.695 388.788 607.638 388.006C606.999 387.532 606.35 387.872 605.889 388.404C605.606 388.672 605.426 389.035 605.381 389.429C605.335 389.822 605.428 390.22 605.642 390.551C606.05 391.243 606.45 391.942 606.845 392.642C607.246 393.416 607.836 394.071 608.558 394.543C609.279 395.016 610.107 395.289 610.96 395.337C611.835 395.412 612.687 395.675 613.459 396.109C614.503 396.656 615.814 396.646 617.141 396.896C617.744 397.743 618.411 398.673 619.18 399.75C620.1 399.548 621.062 399.658 621.919 400.064C622.777 400.47 623.483 401.15 623.932 402C624.355 402.677 624.898 403.282 625.38 403.926C626.962 406.035 627.742 406.336 630.552 405.951L631.602 402.18C633.041 402.102 634.342 402.027 635.652 401.958C636.22 400.878 636.482 399.656 636.406 398.428C636.51 397.206 636.543 395.977 636.504 394.75C636.408 393.43 636.099 392.111 635.841 390.544C636.083 390.051 636.295 389.542 636.477 389.022C636.646 388.39 636.783 387.75 636.889 387.104C637.774 386.747 638.574 386.428 639.373 386.105L639.274 386.081C640.195 387.841 640.944 389.6 640.079 391.521C640.013 391.676 639.982 391.843 639.986 392.013C639.99 392.182 640.03 392.348 640.103 392.501C641.051 393.894 640.549 394.972 639.849 396.179C639.582 396.9 639.549 397.691 639.757 398.436C640.021 399.877 640.438 401.304 640.81 402.734C640.879 403.174 641.037 403.596 641.276 403.97C642.301 405.188 642.377 406.71 642.933 408.077C643.079 408.505 643.122 408.962 643.058 409.41C642.994 409.857 642.825 410.281 642.566 410.646C641.759 410.764 640.776 410.664 640.137 411.078C639.616 411.422 639.514 412.369 639.225 413.054C638.711 413.356 638.425 412.875 638.062 412.645C636.669 411.762 636.147 411.713 635.272 412.939C634.999 413.346 634.645 413.688 634.234 413.945C633.823 414.202 633.363 414.369 632.884 414.433C631.164 414.725 629.439 415.037 627.587 415.36C627.157 416.183 627.066 417.356 625.969 417.946C625.747 418.095 625.565 418.299 625.438 418.537C625.311 418.776 625.242 419.043 625.239 419.315C625.309 419.978 625.226 420.648 624.996 421.27C624.767 421.892 624.398 422.449 623.918 422.897C623.707 423.072 623.571 423.324 623.539 423.6C623.506 423.876 623.579 424.155 623.742 424.379C623.941 424.664 624.233 424.867 624.565 424.953C624.896 425.038 625.246 425 625.551 424.846C626.153 424.593 626.736 424.295 627.295 423.954C627.766 423.713 628.241 423.481 628.821 423.193C630.413 425.115 630.293 427.043 629.679 428.973C629.351 429.988 628.86 430.942 628.397 432.041C626.904 432.669 626.904 432.669 626.034 434.808C628.401 437.167 630.829 439.586 633.393 442.135C633.436 442.681 633.468 443.466 633.566 444.243C633.802 446.094 634.138 446.435 636.081 446.869C636.513 446.965 636.949 447.044 637.477 447.153C638.215 448.661 638.603 450.515 641.344 450.449C640.499 451.166 640.297 451.499 640.055 451.513C637.865 451.647 635.696 452.126 633.451 451.554C632.907 451.413 632.329 451.424 631.782 451.314C629.252 450.789 627.198 451.849 625.264 453.049C624.485 453.535 624.029 454.516 623.344 455.377C621.028 455.365 618.721 455.039 616.484 454.408C614.666 453.875 612.792 453.576 610.904 453.519C609.003 453.605 607.101 453.294 605.315 452.607C604.49 452.239 603.589 452.09 602.696 452.175C600.705 452.489 599.362 454.068 597.579 454.863C597.057 455.161 596.616 455.587 596.297 456.104C595.979 456.621 595.791 457.212 595.753 457.823C595.684 458.028 595.582 458.219 595.45 458.387C593.493 459.73 591.068 459.43 588.857 459.832C588.293 459.904 587.719 459.827 587.19 459.607C586.662 459.387 586.196 459.032 585.84 458.576C584.971 457.648 584.054 456.769 583.094 455.94C581 454.044 578.662 453.115 575.941 453.823C575.614 453.877 575.285 453.913 574.955 453.933C574.854 453.947 574.772 454.043 574.496 454.222C574.189 455.169 573.831 456.285 573.421 457.556C571.913 456.995 570.546 456.491 569.306 456.033C567.741 456.43 568.213 457.802 567.847 458.773L566.858 458.659L567.142 458.648L566.963 458.722C566.12 458.432 566.012 457.658 565.764 456.976L565.75 457.037L565.484 456.273L565.585 456.331L564.83 456.544L564.868 456.489C563.599 456.54 563.134 455.045 561.931 454.855C561.29 455.105 560.394 455.355 560.514 456.25C560.564 456.933 560.765 457.598 561.101 458.193C561.437 458.789 561.899 459.3 562.454 459.689C562.835 459.935 563.264 460.091 563.71 460.149C565.913 460.402 567.956 461.339 570.071 461.919C571.785 462.455 573.377 463.34 574.75 464.52C575.218 464.842 575.566 465.317 575.734 465.866C575.903 466.415 575.883 467.006 575.677 467.539L575.65 467.707L575.625 467.462L576.313 468.118C576.183 468.352 576.115 468.666 575.997 468.675C573.741 468.88 572.482 470.554 570.973 471.862L571.038 471.931L570.027 471.397L570.09 471.42C569.137 470.449 568.549 471.546 567.775 471.696C567.068 470.999 566.549 469.999 565.372 470.013L564.834 469.54C564.845 469.631 564.839 469.787 564.873 469.798C565.056 469.847 565.242 469.882 565.43 469.903L565.262 471.249C564.537 470.949 563.942 470.721 563.366 470.456C562.693 470.158 561.935 470.139 561.252 470.402C560.723 470.609 560.151 470.68 559.587 470.61C559.023 470.541 558.482 470.331 558.013 470.001C557.413 469.687 556.759 469.5 556.089 469.448C555.342 470.375 554.739 471.108 554.141 471.841C554.007 471.673 553.981 471.134 553.647 471.67L554.181 471.767C554.201 472.08 554.199 472.393 554.174 472.704C554.048 473.474 554.284 473.906 555.141 473.926C555.3 473.93 555.467 474.15 555.631 474.273L555.667 474.174C555.011 474.211 554.352 474.185 553.7 474.097C553.07 473.912 552.458 473.67 551.87 473.374C550.372 474.959 550.349 475.053 548.525 474.481C547.365 474.114 546.167 474.479 545.023 473.768C544.458 473.419 543.437 474.593 543.811 475.233C544.115 475.702 544.315 476.232 544.396 476.787C544.476 477.342 544.436 477.907 544.279 478.443L542.274 479.031C542.123 478.737 542.018 478.421 541.963 478.094C541.972 476.931 541.987 475.801 540.52 475.357L539.545 476.267C538.744 475.329 537.973 474.425 537.233 473.555C536.768 473.792 536.356 474.124 536.023 474.531C535.69 474.937 535.442 475.409 535.294 475.919L535.328 475.841C534.648 476.058 533.981 476.313 533.328 476.606C532.848 476.85 532.774 476.406 532.546 476.239C530.873 475.015 529.11 475.272 527.372 475.639C527.169 475.724 526.991 475.86 526.854 476.033C526.716 476.207 526.624 476.414 526.585 476.634C526.547 476.854 526.563 477.082 526.632 477.295C526.701 477.508 526.822 477.701 526.982 477.855C528.781 479.09 529.638 480.987 530.827 482.689C531.89 483.638 533.862 482.995 534.51 484.999C533.663 485.358 532.726 485.442 531.827 485.239C530.928 485.037 530.109 484.558 529.482 483.867C528.051 485.008 530.128 487.173 528.285 488.068C527.793 487.543 527.44 486.899 527.261 486.197C527.082 485.495 527.083 484.76 527.262 484.061C527.331 483.896 527.357 483.716 527.34 483.537C527.323 483.359 527.262 483.187 527.163 483.038C527.063 482.889 526.93 482.768 526.773 482.685C526.617 482.603 526.443 482.562 526.267 482.566C525.895 483.18 525.489 483.795 525.144 484.443C524.947 484.821 524.621 485.337 524.745 485.659C525.702 488.105 523.988 490.165 524.256 492.503C524.321 493.093 523.411 493.57 523.092 493.173C522.777 492.773 522.363 492.465 521.894 492.282C521.424 492.099 520.916 492.047 520.422 492.132C519.608 492.059 518.805 491.876 518.037 491.586C517.468 494.592 517.249 497.413 518.138 500.297C518.272 500.848 518.565 501.347 518.98 501.728C520.514 502.904 521.907 504.261 523.129 505.771C523.596 506.261 524.143 506.664 524.745 506.961C526.661 508.012 527.154 509.268 526.256 510.981C525.807 511.836 525.374 512.698 524.815 513.783C524.17 513.873 523.323 513.982 522.243 514.126L521.942 515.971L537.037 522.787C536.427 524.008 535.913 525.036 535.351 526.15C536.62 527.023 537.725 527.789 538.735 528.486C538.786 528.878 538.91 529.147 538.831 529.299C538.346 530.252 537.749 531.141 537.319 532.116C536.873 533.139 538.029 534.128 537.58 535.344C537.307 536.084 537.996 537.235 538.296 538.386C537.337 538.842 536.298 539.101 535.238 539.148C534.263 539.305 533.22 539.213 532.283 539.452C530.507 539.919 528.811 540.106 527.145 538.889C523.237 538.55 519.901 536.324 516.303 534.965C515.719 534.649 515.042 534.569 514.407 534.739C513.575 535.079 512.679 535.228 511.781 535.174C510.884 535.121 510.008 534.866 509.215 534.429C509.003 534.344 508.781 534.291 508.554 534.271C506.724 533.887 505.732 534.59 505.673 536.388C505.692 536.952 505.756 537.514 505.863 538.069L505.913 537.981C505.587 537.927 505.117 537.707 504.958 537.848C504.425 538.295 503.797 538.609 503.123 538.764C502.448 538.919 501.747 538.911 501.074 538.741L498.007 543.153C498.521 544.591 499.165 546.026 498.575 547.959C498.302 548.086 498 548.135 497.701 548.1C497.402 548.066 497.117 547.949 496.877 547.763C496.093 547.293 495.251 546.922 494.456 546.452C493.422 545.871 492.21 545.727 491.08 546.05L490.477 548.147C489.476 547.939 488.834 547.807 488.209 547.68C487.368 548.178 486.504 550.321 486.842 551.162C486.951 551.488 487.173 551.762 487.465 551.935C489.399 552.588 489.534 554.195 489.677 555.765C489.787 556.975 489.787 558.195 489.837 559.368C490.494 559.919 491.102 560.434 491.653 560.902C491.698 561.457 491.607 562.014 491.388 562.522C491.169 563.03 490.83 563.474 490.401 563.813C489.36 564.102 488.97 563.199 488.31 562.824C486.617 561.863 484.869 561.047 483.931 559.122C483.573 558.67 483.111 558.315 482.587 558.09C481.53 557.401 480.441 556.769 479.322 556.195C478.522 555.85 477.7 555.563 476.862 555.334C475.561 555.689 476.749 557.69 475 557.004C475.011 557.455 474.948 557.695 475.034 557.872C475.667 559.21 476.608 560.374 477.776 561.262C480 562.992 482.161 564.823 483.535 567.509C484.948 570.276 487.457 572.274 489.924 574.156C490.816 574.846 491.565 575.71 492.127 576.698C492.804 577.816 493.245 579.154 494.425 579.991C494.787 580.272 495.08 580.635 495.282 581.05C495.483 581.466 495.587 581.924 495.585 582.386L495.621 582.303C495.292 582.312 494.745 582.193 494.662 582.347C493.677 584.126 491.899 585.385 491.406 587.741C491.871 588.974 492.428 590.401 494.163 590.642C495.886 590.876 496.616 590.235 497.684 587.913C498.074 588.12 498.384 588.456 498.564 588.867C498.744 589.277 498.782 589.736 498.672 590.169C498.5 590.808 498.289 591.43 498.071 592.054C497.853 592.677 497.614 593.276 497.411 593.811C496.353 594.121 495.526 594.398 494.674 594.607C493.717 594.836 492.858 595.373 492.224 596.138C491.906 596.578 491.558 596.995 491.185 597.387C489.567 598.784 488 600.057 485.635 600.439C482.366 601.027 479.047 601.292 475.724 601.23C472.398 601.118 469.102 601.684 465.776 601.815C464.215 601.828 462.655 601.72 461.109 601.491C457.88 601.119 454.657 600.636 451.435 600.29C448.308 599.955 445.239 599.251 442.143 598.685C437.883 597.907 434.009 595.957 429.914 594.706C427.106 593.849 424.29 592.994 421.442 592.34C418.13 591.52 414.926 590.291 411.899 588.681C409.028 587.323 406.019 586.294 402.93 585.614C402.604 585.537 402.268 585.511 401.935 585.538C399.148 585.739 399.15 585.743 396.751 584.875C396.451 585.113 396.09 585.352 395.776 585.64C395.411 585.99 394.95 586.218 394.454 586.293C393.958 586.368 393.451 586.286 392.999 586.059C391.647 585.462 390.214 585.083 388.751 584.937C387.806 584.862 387.074 584.818 386.36 585.538C386.017 585.833 385.596 586.017 385.149 586.069C384.702 586.121 384.249 586.037 383.847 585.828C382.565 585.365 381.312 584.818 380.097 584.193C377.509 582.735 374.909 581.27 372.956 578.898C372.736 578.634 372.345 578.469 372.213 578.185C371.247 576.181 369.367 575.282 367.636 574.167C365.905 573.052 364.269 571.759 362.561 570.596C360.103 568.914 357.765 567.017 354.96 565.947C353.436 563.918 350.918 563.488 349.003 562.034C347.125 560.76 345.151 559.639 343.101 558.684C339.962 557.02 336.761 555.485 333.664 553.751C330.992 552.255 328.457 550.44 325.539 549.512C324.357 549.135 323.764 547.836 322.263 547.862C321.145 547.872 319.943 547.028 318.801 546.515C317.658 546.002 316.545 545.444 315.427 544.889C314.8 544.611 314.197 544.28 313.624 543.898C311.203 542.107 308.283 541.364 305.781 539.747C305.689 539.676 305.586 539.621 305.477 539.583C299.312 537.957 294.442 533.701 289.024 530.576C285.554 528.575 282.288 526.195 278.928 523.982C277.331 523.738 276.653 521.988 274.958 521.592C273.539 521.258 272.314 519.875 270.979 518.996C269.644 518.117 268.214 517.385 266.963 516.406C265.86 515.578 264.594 515.006 263.255 514.733C260.609 514.03 258.101 512.859 255.845 511.271C252.781 509.271 249.609 507.44 246.78 505.232C245.988 505.584 245.122 505.727 244.259 505.647C243.396 505.567 242.565 505.268 241.842 504.777C238.507 502.543 234.948 500.71 231.629 498.459C231.346 498.268 231.09 498.028 230.819 497.812L230.908 497.663L230.88 497.848C227.635 495.544 224.376 493.249 221.142 490.93C218.547 489.077 215.974 487.196 213.393 485.322C213.105 484.337 211.997 484.796 211.512 484.168L211.44 484.236C211.766 483.858 211.769 483.571 211.178 483.451L211.297 483.489L210.512 483.744L210.518 483.629C206.737 481.033 202.966 478.424 199.169 475.842C194.528 472.676 189.615 469.92 185.404 466.091C184.419 465.191 183.025 464.768 181.858 464.055C180.883 463.462 179.945 462.807 179.05 462.093C177.887 461.163 176.881 460.012 175.66 459.186C172.313 456.928 169.216 454.353 166.064 451.841C163.095 449.477 159.99 447.302 157.002 444.969C155.019 443.416 153.074 441.788 151.227 440.07C150.314 439.221 149.711 438.055 148.873 437.115C148.431 436.63 147.743 435.981 147.237 436.014C145.801 436.093 145.279 434.928 144.48 434.202C142.872 432.732 142.954 432.387 145.022 430.961C145.964 431.393 146.991 431.847 148.006 432.323C149.632 433.092 150.891 434.138 151.263 436.048C151.409 436.72 151.781 437.32 152.315 437.742C154.666 439.378 157.094 440.899 159.497 442.463C159.638 442.527 159.784 442.578 159.934 442.614L162.228 441.68C162.157 441.433 162.164 441.017 161.96 440.809C158.978 437.787 155.979 434.78 152.961 431.787C150.935 429.782 149.205 427.51 147.169 425.509C145.612 423.974 144.022 422.459 142.51 420.883C141.933 420.199 141.402 419.474 140.922 418.715C141.282 418.532 141.48 418.448 141.659 418.339C142.017 418.117 142.567 417.96 142.671 417.636C142.823 417.106 142.796 416.537 142.594 416.022C142.307 415.538 141.941 415.109 141.511 414.753C139.73 412.888 138.158 410.926 138.028 408.104L135.901 408.039C133.298 405.145 130.59 402.183 127.951 399.17C127.436 398.564 127.067 397.844 126.87 397.069C126.653 396.221 126.874 395.282 126.629 394.45C126.251 393.646 125.776 392.894 125.214 392.211C125.76 392.245 126.302 392.344 126.827 392.505C127.211 392.742 127.659 392.845 128.103 392.799C128.547 392.753 128.964 392.562 129.29 392.252C129.803 391.782 130.416 391.362 131.064 391.708C132.65 392.55 133.859 391.934 135.084 391.177C135.45 390.952 135.807 390.721 136.168 390.493L136.275 390.684L136.11 390.485C136.91 389.245 135.986 387.868 136.141 386.558C136.194 386.145 135.642 385.562 135.27 385.145C134.356 384.116 133.337 383.176 132.45 382.123C132.033 381.598 131.711 381.001 131.498 380.362C131.18 379.464 131.282 379.351 132.64 378.19C134.304 379.113 136.152 379.853 137.768 378.333C139.201 376.985 140.667 375.57 139.163 372.556C140.172 373.254 141.217 373.895 142.295 374.475C143.817 375.166 145.112 374.127 144.602 372.535C144.214 370.85 143.396 369.297 142.232 368.034C141.149 367.037 139.926 366.199 138.47 365.061L138.099 363.228C138.31 363.037 138.444 362.797 138.613 362.782C140.328 362.606 142.051 362.464 143.902 362.299C143.855 361.4 144.06 360.507 144.494 359.726C144.928 358.945 145.571 358.309 146.349 357.892C146.578 357.751 146.833 357.662 147.099 357.631C147.365 357.6 147.634 357.628 147.889 357.713C149.287 358.529 150.476 357.978 151.677 357.659C152.028 356.957 152.355 356.315 152.68 355.667L152.805 355.838L152.625 355.668C150.239 351.875 147.47 348.345 144.364 345.14C143.393 344.163 142.4 343.215 141.421 342.257C141.637 341.676 142.048 341.665 142.446 341.998C143.151 342.583 143.793 343.241 144.487 343.843C145.654 344.86 146.907 345.613 148.652 345.218L150.102 343.208C150.724 343.239 151.488 343.056 151.998 343.346C152.462 343.657 153.014 343.799 153.564 343.75C154.114 343.7 154.63 343.463 155.029 343.075C155.337 342.83 155.836 342.813 156.271 342.686C157.247 343.387 158.139 344.091 159.096 344.694C159.516 344.981 159.992 345.171 160.49 345.253C160.988 345.334 161.497 345.305 161.981 345.167C162.418 345.032 162.814 344.789 163.134 344.458C163.454 344.128 163.688 343.721 163.816 343.273C162.928 342.16 161.976 340.901 160.454 340.694C159.719 340.635 159.016 340.363 158.425 339.91C157.834 339.457 157.381 338.842 157.119 338.137C156.817 337.331 156.26 336.65 155.537 336.202C154.814 335.755 153.966 335.567 153.13 335.669C152.594 335.033 152.091 334.368 151.624 333.678C151.113 332.918 150.436 332.29 149.647 331.845C148.519 331.084 147.472 330.206 146.521 329.224C143.697 326.363 140.852 323.537 137.829 320.892C137.052 320.21 136.108 319.706 135.39 318.977C134.689 318.267 133.622 317.889 133.356 316.732C133.276 316.525 133.154 316.339 132.999 316.184C132.843 316.029 132.657 315.91 132.453 315.834C129.735 314.915 128.029 312.61 125.917 310.883C122.72 308.27 119.635 305.528 116.434 302.932C115.398 302.212 114.309 301.575 113.176 301.029C112.369 300.609 111.584 300.146 110.824 299.641C110.259 299.233 109.864 298.755 109.075 299.213C108.861 299.338 108.031 298.795 107.716 298.382C106.556 296.964 105.512 295.451 104.595 293.858C103.761 292.213 102.615 290.752 101.224 289.561C100.223 288.717 98.9093 287.97 98.7751 286.414L98.6954 286.417C99.2284 286.338 99.7555 286.256 100.498 286.151C100.404 283.287 100.494 280.53 97.8764 278.233L98.6043 275.873C98.4861 275.423 98.2767 275.004 97.9896 274.641C97.7025 274.278 97.3441 273.981 96.938 273.769C96.6297 273.614 96.3827 273.355 96.2394 273.036C96.0961 272.718 96.0653 272.359 96.1524 272.021C96.2909 271.589 96.3006 271.123 96.1805 270.683C96.0605 270.243 95.8159 269.849 95.4776 269.549C94.5617 268.555 93.9131 267.338 93.5955 266.015C93.8182 265.548 94.1755 265.163 94.6196 264.91C95.0637 264.658 95.5734 264.55 96.0811 264.601C96.9509 264.66 97.8219 264.534 98.6392 264.232C99.4566 263.93 100.203 263.458 100.831 262.845C101.246 262.495 101.727 262.237 102.246 262.086C102.764 261.934 103.308 261.894 103.844 261.967C106.178 262.105 106.71 261.574 107.485 259.478C107.63 259.114 107.691 258.721 107.665 258.329C107.639 257.936 107.526 257.554 107.335 257.211C106.871 256.417 106.331 255.672 105.722 254.987C105.356 254.548 104.858 254.218 104.469 253.794C102.411 251.556 102.929 250.852 104.054 249.414C104.314 249.074 104.559 248.719 104.817 248.359C104.807 246.979 104.504 245.615 103.93 244.362C103.356 243.108 102.524 241.995 101.491 241.098C101.055 240.733 100.725 240.254 100.536 239.712C99.9533 237.96 99.0252 236.345 97.8088 234.97C96.2172 233.024 95.6443 231.002 96.5334 228.695C96.9107 227.762 96.9793 226.727 96.7285 225.747C96.4415 224.617 97.0258 224.194 98.244 224.443C99.7867 224.756 101.33 225.1 102.862 225.484C103.381 225.662 103.937 225.692 104.47 225.57C105.002 225.448 105.491 225.179 105.882 224.792C106.554 224.172 107.638 224.005 108.529 223.606C110.319 222.804 110.953 221.493 110.273 219.57C109.663 217.848 108.836 216.199 108.145 214.503C107.816 213.792 107.575 213.041 107.428 212.27C107.31 210.571 106.863 208.91 106.114 207.383C105.758 206.686 105.671 205.88 105.869 205.124C106.513 203.042 106.499 200.743 107.604 198.814C107.963 198.255 108.197 197.622 108.289 196.959C108.382 196.295 108.331 195.619 108.141 194.976C107.99 194.488 108.265 193.896 108.339 193.375C110.071 191.795 112.195 191.922 114.315 192.444C115.396 192.706 116.464 192.962 117.555 193.18C118.654 193.49 119.698 193.98 120.645 194.631C121.902 195.339 123.331 195.658 124.756 195.548C123.832 192.576 123.647 189.434 120.512 187.753L120.286 185.614C121.028 185.396 121.63 185.185 122.255 185.049C123.617 184.743 125.044 184.754 126.204 183.765C127.251 182.87 128.559 182.996 129.987 183.423C134.444 184.738 138.732 186.645 143.248 187.755C144.386 188.037 145.415 188.976 146.478 189.636C147.588 190.329 148.446 189.923 148.436 188.608C148.393 187.862 148.303 187.119 148.167 186.385C145.347 184.143 141.513 184.313 138.944 181.456L140.925 178.837C140.59 178.469 140.217 178.138 139.814 177.85C137.494 176.597 135.155 175.399 132.826 174.152C132.301 173.821 131.698 173.643 131.082 173.637C130.467 173.631 129.863 173.798 129.337 174.119C128.683 174.504 127.965 174.761 127.218 174.878C126.953 174.903 126.697 174.987 126.469 175.125C126.24 175.262 126.044 175.449 125.894 175.672C125.248 176.626 124.351 176.29 123.51 175.903C123.184 175.789 122.915 175.55 122.759 175.236C122.604 174.922 122.575 174.559 122.679 174.226C123.044 173.102 123.557 172.038 124.058 170.823C125.902 170.769 127.327 169.382 129.329 169.582C129.655 169.578 129.975 169.5 130.266 169.355C130.558 169.21 130.814 169.001 131.016 168.742C132.186 167.115 133.833 166.876 135.702 167.052C135.807 167.063 135.915 166.995 136.231 166.903C136.604 165.41 138.285 165.089 139.455 164.055C139.435 163.63 139.428 163.196 139.397 162.761C139.188 159.668 139.188 159.668 136.718 157.896C137.234 157.116 137.968 157.553 138.497 157.83C140.12 158.677 141.757 159.479 143.383 160.306C146.533 161.914 149.518 163.876 152.596 165.648C156.081 167.649 159.583 169.616 163.103 171.549C163.423 171.729 164.079 171.729 164.274 171.522C164.381 171.344 164.446 171.143 164.464 170.934C164.482 170.725 164.451 170.515 164.375 170.32C163.997 169.377 163.487 168.478 163.013 167.577C162.702 166.975 162.363 166.393 162.037 165.806C162.254 165.451 162.427 165.186 162.589 164.912C162.905 164.371 163.458 163.842 163.468 163.277C163.438 162.812 163.286 162.363 163.028 161.977C162.77 161.591 162.416 161.282 162.002 161.083C160.903 160.465 159.736 159.984 158.594 159.448C157.642 159.065 156.71 158.631 155.803 158.147C154.136 157.133 152.623 155.798 150.884 154.995C149.158 154.199 147.224 153.938 145.398 153.362C144.439 153.059 143.409 152.781 142.818 151.766C142.724 151.213 142.837 150.645 143.135 150.176C143.433 149.707 143.894 149.372 144.426 149.237C144.86 149.124 145.315 149.126 145.75 149.241C146.185 149.357 146.585 149.583 146.913 149.899C148.047 150.692 149.257 151.364 150.524 151.905C152.396 152.742 154.329 153.406 155.858 154.941C156.417 155.336 157.026 155.651 157.668 155.878C158.298 156.108 158.876 156.466 159.368 156.93C160.5 158.514 162.222 158.806 163.81 159.349C164.391 159.554 165.017 159.588 165.614 159.447C166.211 159.305 166.756 158.994 167.185 158.548C167.967 157.649 168.648 156.663 169.216 155.61C169.903 154.511 169.64 153.276 169.25 152.115C169.686 151.514 170.272 151.044 170.947 150.753C171.622 150.463 172.362 150.362 173.091 150.461C174.892 150.703 176.639 150.849 177.945 152.542C178.647 153.299 179.446 153.955 180.32 154.491C182.146 155.688 183.664 157.316 184.745 159.238C185.014 159.743 185.359 160.203 185.766 160.601C188.609 163.446 191.615 166.112 194.694 168.694C196.363 170.096 198.108 171.424 199.671 172.94C203.321 176.478 207.499 179.34 211.402 182.562C213.423 184.277 215.739 185.592 218.229 186.437C218.844 186.566 219.47 186.634 220.097 186.639C219.605 183.979 218.967 181.683 216.469 180.311C214.934 179.469 213.474 178.531 213.248 176.57L213.205 176.641C214.06 177.155 214.934 177.64 215.774 178.192C217.406 179.254 218.975 180.414 220.638 181.417C223.289 183.012 226.064 184.385 228.645 186.083C230.782 187.39 233.079 188.4 235.475 189.084C237.22 189.587 238.901 190.302 240.482 191.214C241.579 191.884 241.598 191.853 243.615 191.743C244.041 191.009 243.598 190.478 243.076 189.995C240.01 187.209 236.658 184.77 233.081 182.72C231.414 181.747 229.884 180.454 227.896 180.096C227.262 179.85 226.697 179.447 226.251 178.924C224.636 177.442 222.878 176.133 221.003 175.017C218.303 173.503 215.843 171.574 213.711 169.3C213.935 168.642 214.425 168.957 214.773 169.145C217.294 170.499 219.811 171.87 222.313 173.27C223.004 173.686 223.672 174.14 224.313 174.631C226.643 176.319 228.943 178.053 231.934 178.197C232.683 178.374 233.421 178.592 234.146 178.852C234.648 178.874 235.151 178.821 235.637 178.695C236.14 177.82 235.512 177.323 234.975 176.968C233.462 175.929 231.893 174.977 230.277 174.118C228.75 173.326 227.332 172.331 226.06 171.158C225.119 170.313 224.007 169.668 223.035 168.863C222.587 168.37 222.19 167.829 221.853 167.252C223.626 167.301 224.685 168.282 225.874 168.732C227.129 169.201 228.305 169.926 229.597 169.564C230.013 168.936 229.586 168.576 229.267 168.328C228.551 167.761 227.765 167.276 226.999 166.76C225.314 165.769 223.753 164.571 222.35 163.194C221.598 162.481 220.761 161.867 219.861 161.366C217.931 160.117 215.918 158.996 214.046 157.66C210.677 155.244 207.038 153.281 203.58 151.018C202.814 150.514 201.897 150.198 201.518 149.272C201.358 148.885 201.182 148.28 201.358 148.043C201.684 147.627 202.156 147.356 202.675 147.286C203.243 147.269 203.804 147.434 204.278 147.758C207.508 150.03 211.281 151.031 214.723 152.804C216.003 153.547 217.385 154.088 218.821 154.409C219.923 154.693 220.979 155.144 221.952 155.745C223.473 156.561 224.985 157.394 226.415 158.354C227.789 159.227 229.436 159.524 231.011 159.184L231.541 157.083C231.4 156.825 231.225 156.589 231.02 156.38C226.101 153.171 221.179 149.969 216.254 146.773C215.771 146.463 215.306 146.123 214.863 145.755C213.554 144.62 213.522 144.211 214.635 142.115C218.38 143.865 222.133 145.829 226.603 145.576C226.516 145.183 226.38 144.803 226.198 144.444C224.499 142.014 221.939 140.61 219.668 138.857C218.397 137.876 217.164 136.842 215.919 135.833L215.876 135.904C217.466 135.687 218.546 136.946 219.817 137.581C222.674 139.003 225.477 140.496 228.627 141.093C229.724 141.325 230.777 141.739 231.745 142.319C233.707 143.46 235.616 144.115 237.77 143.245C238.686 142.967 239.626 142.779 240.578 142.683C241.919 140.787 241.235 138.975 239.924 137.443C238.565 135.901 237.404 134.189 236.47 132.348C235.974 131.436 235.329 130.616 234.563 129.926C233.91 129.389 233.442 128.654 233.226 127.829C233.011 127.004 233.059 126.132 233.364 125.34C233.722 124.311 234.114 123.296 234.539 122.296C235 121.201 235.509 120.13 236.061 118.913C235.557 118.28 235 117.693 234.395 117.16C233.827 116.792 233.37 116.269 233.076 115.651C232.783 115.033 232.664 114.345 232.733 113.665L232.643 113.681C233.531 113.695 234.417 113.704 235.478 113.719C235.877 112.97 236.423 112.315 237.083 111.793C237.742 111.271 238.501 110.894 239.311 110.686C240.068 110.527 240.598 109.597 241.28 109.078C241.804 108.575 242.466 108.248 243.179 108.138C243.892 108.028 244.623 108.141 245.275 108.463C246.219 108.83 247.217 109.028 248.224 109.046C248.498 109.085 248.777 109.05 249.032 108.944C249.288 108.837 249.511 108.663 249.678 108.44C249.845 108.216 249.952 107.951 249.985 107.671C250.019 107.39 249.98 107.105 249.871 106.845C249.496 106.015 248.974 105.263 248.331 104.627C247.285 103.547 246.177 102.533 245.012 101.591C243.794 100.553 242.85 99.2196 242.268 97.7144C241.674 96.3549 241.291 95.1245 242.295 93.9789C243.083 93.0827 242.179 92.0249 242.551 90.9613C244.068 90.8486 245.59 91.1469 246.963 91.8261C248.627 92.6454 250.337 93.2092 252.344 92.535C252.618 91.5411 252.927 90.4129 253.22 89.3413C252.802 87.213 250.589 86.8886 249.129 85.0747C250.512 85.5379 251.437 85.8455 252.472 86.1936C252.638 86.1984 252.804 86.1729 252.961 86.1181C255.157 84.9441 255.346 84.4604 254.514 82.2562C254.35 81.8284 254.189 81.4025 253.987 80.9902C253.681 80.372 253.334 79.7713 252.979 79.1235C253.167 78.6767 253.473 78.2937 253.865 78.0185C254.257 77.7433 254.717 77.5872 255.194 77.5677C256.062 77.5908 256.922 77.3962 257.697 77.0011C258.095 76.6252 258.609 76.4042 259.152 76.3765C259.694 76.3489 260.231 76.5164 260.668 76.8497C261.061 77.0915 261.734 76.8217 262.281 76.8273C262.984 76.7677 263.694 76.8549 264.365 77.0836C265.037 77.3124 265.657 77.678 266.187 78.1581C267.766 79.6024 269.801 80.5346 271.643 81.6903L271.59 81.9597L271.587 81.6608C272.803 83.029 274.234 84.1815 275.819 85.0706C277.483 85.921 278.903 87.2721 280.502 88.2904C281.578 89.1437 282.907 89.5928 284.264 89.5621C285.566 89.4605 286.766 90.6588 287.708 91.5672C288.243 92.1206 288.826 92.6242 289.449 93.0717C290.476 93.5927 291.295 94.4647 291.761 95.5354C291.906 95.8475 292.123 96.1188 292.394 96.3255C294.783 98.4566 297.149 100.615 299.589 102.678C300.261 103.095 300.81 103.692 301.175 104.404C301.326 104.718 301.564 104.982 301.858 105.163C306.314 108.177 310.048 112.155 314.562 115.085C315.176 115.401 315.745 115.803 316.25 116.28C317.25 117.413 318.572 118.195 320.028 118.516C321.578 118.932 322.926 119.919 323.81 121.288C324.618 122.397 325.68 123.285 326.902 123.874C328.974 125.1 330.957 126.479 332.833 128C333.38 128.476 334.019 128.827 334.708 129.029C335.397 129.232 336.12 129.282 336.827 129.176C337.247 128.439 336.828 127.962 336.432 127.592C334.748 126.02 333.072 124.416 331.293 122.955C329.798 121.72 328.533 120.232 326.794 119.242C325.92 118.71 325.268 117.867 324.964 116.877C324.624 115.651 323.851 114.594 322.796 113.912C322.067 113.356 321.382 112.743 320.745 112.08C320.368 111.669 320.12 111.154 320.032 110.599C320.028 110.368 319.979 110.139 319.887 109.926C319.795 109.714 319.663 109.522 319.498 109.361C319.333 109.201 319.139 109.075 318.926 108.992C318.714 108.909 318.488 108.87 318.261 108.876C316.278 108.852 315.301 107.336 314.046 106.204C314.098 103.701 311.283 103.041 310.538 101.033C310.371 100.728 310.116 100.481 309.808 100.328C305.319 97.7271 301.542 94.117 297.324 91.1378C296.845 90.8341 296.457 90.3998 296.206 89.8842C294.854 86.1488 291.763 84.1611 288.655 82.1783C288.251 81.994 287.893 81.7167 287.611 81.3683C286.706 79.6703 285.187 78.6279 283.73 77.4893C281.558 75.7905 279.349 74.1284 277.261 72.323C275.946 71.0213 274.335 70.0741 272.576 69.5677C272.196 69.4771 271.878 69.0023 271.367 68.5627C271.771 68.0361 272.175 67.5778 272.51 67.0771C273.342 65.8268 274.196 64.6429 273.819 62.8631C273.542 61.5758 274.383 61.0772 275.606 61.5454C280.129 63.2845 280.732 63.6166 284.969 66.9035C287.49 68.867 290.006 70.857 292.42 72.934C293.797 74.1174 295.097 75.4301 296.532 76.5796C296.933 76.9847 297.294 77.4292 297.61 77.9065C297.946 78.5038 298.394 79.0291 298.926 79.4524C301.175 80.5612 302.565 82.566 304.242 84.2799C304.886 84.9327 305.59 85.5208 306.344 86.0357C308.157 87.2502 309.817 88.6903 311.284 90.3224C312.245 91.3118 313.265 92.2397 314.337 93.1009C314.685 93.4024 315.221 93.5726 315.415 93.9322C317.128 97.097 320.575 98.371 322.863 100.921C323.99 102.172 325.587 103.001 326.931 104.075C329.507 105.98 331.988 108.017 334.363 110.179C337.327 113.081 340.685 115.463 343.793 118.166C344.41 118.678 345.059 119.147 345.736 119.57C348.871 121.478 351.801 123.717 354.479 126.251C355.148 126.878 355.933 127.361 356.786 127.672C357.64 127.983 358.544 128.116 359.447 128.062C359.707 128.035 359.959 127.953 360.185 127.819C360.411 127.685 360.606 127.504 360.757 127.286C361.079 126.654 361.329 125.984 361.501 125.292C355.907 120.056 350.443 114.944 344.98 109.831C344.321 109.181 343.63 108.566 342.909 107.989C340.72 106.298 338.634 104.471 336.663 102.52C334.68 100.595 332.423 98.9578 330.301 97.1827C329.681 96.67 329.089 96.1245 328.525 95.5487C324.831 91.573 320.885 87.8503 316.713 84.4054C314.908 82.9826 313.343 81.2501 311.591 79.7439C309.497 77.9503 307.333 76.2285 305.186 74.5013C302.95 72.703 300.701 70.9214 298.441 69.1563C297.09 68.1046 295.697 67.1077 294.334 66.0917C295.766 63.6386 295.92 62.8916 295.114 60.7937C294.88 60.0246 294.435 59.3392 293.831 58.8198C291.494 57.2982 289.868 54.9966 287.676 53.3233C286.528 52.375 285.169 51.7338 283.721 51.4577C282.535 51.1684 281.374 50.781 280.248 50.2993C280.58 47.5282 282.078 46.6403 284.277 47.7101C284.854 48.0824 285.471 48.3852 286.116 48.6125C286.503 48.6792 286.872 48.8323 287.196 49.0607C287.519 49.289 287.79 49.5871 287.99 49.9337C288.71 50.989 289.674 51.848 290.794 52.4343C291.845 53.072 292.959 53.5471 293.735 54.7296C294.222 55.4798 295.443 55.7945 296.364 56.2417C297.284 56.6889 298.255 57.0085 298.746 58.087C298.955 58.4893 299.295 58.8047 299.707 58.9782C301.397 59.6098 302.513 60.946 303.71 62.1802C305.618 64.1493 307.787 65.8342 310.153 67.1845C311.675 67.9548 313.303 68.4822 314.979 68.7481C315.498 68.7815 316 68.951 316.437 69.2407C318.232 70.8386 319.693 72.7897 320.732 74.9758C321.122 75.7937 321.587 76.5721 322.122 77.3004C323.309 78.7089 324.422 80.3089 325.899 81.3173C328.202 82.8844 329.961 84.963 331.979 86.7915C333.191 88.0054 334.5 89.1152 335.891 90.1092C337.276 91.1303 338.536 92.3187 339.643 93.6487C340.808 94.9433 342.296 95.8894 343.945 96.3843C344.621 96.4778 345.305 96.4909 345.983 96.4234C345.585 93.667 343.575 92.2069 341.872 90.5928C341.281 90.027 340.615 89.6078 340.453 88.7516L340.613 88.648L340.436 88.8188C340.148 88.7634 339.887 88.6082 339.698 88.3792C339.509 88.1503 339.403 87.8619 339.397 87.5634L339.328 87.6627C340.145 87.3828 340.955 87.1 341.543 86.8913C342.897 88.0297 344.305 89.0981 345.763 90.0926C347.064 90.8996 347.22 92.6822 348.726 93.2229C349.977 94.9593 352.099 95.5308 353.545 96.9406C354.991 98.3505 356.032 100.187 357.468 101.623C358.834 102.84 360.27 103.972 361.768 105.013C362.352 105.36 362.877 105.804 363.32 106.325C364.443 108.114 366.051 108.63 368.101 108.613C368.523 108.153 369.01 107.6 369.532 107.013C370.851 107.23 372.081 107.84 373.066 108.768C373.593 109.208 374.166 109.593 374.717 110C375.102 110.334 375.596 110.506 376.099 110.48C376.601 110.454 377.074 110.232 377.419 109.86C377.008 106.391 377.219 106.212 373.281 105.154C372.574 104.312 371.844 103.445 371.108 102.567L371.101 102.529ZM165.073 196.36L165.187 196.486L165.02 196.467L164.857 196.303L165.073 196.36ZM403.945 136.549L404.216 136.63L403.919 136.588L403.779 136.392L403.945 136.549ZM491.552 538.648L491.037 538.633L491.598 538.563L491.858 539.049L492.095 538.758L491.552 538.648ZM617.585 400.99C617.383 400.239 617.124 399.505 616.81 398.795C616.686 398.627 616.528 398.489 616.347 398.39C616.166 398.29 615.966 398.232 615.761 398.219C615.147 398.23 615.282 398.813 615.408 399.205C615.545 399.699 615.807 400.148 616.168 400.507C616.529 400.866 616.976 401.122 617.463 401.248L618.075 401.471L617.585 400.99ZM135.388 171.446C135.779 171.84 136.207 172.194 136.665 172.503C138.874 173.708 141.141 174.804 143.337 176.036C146.427 177.76 149.786 178.999 152.37 181.666C153.408 182.596 154.681 183.208 156.04 183.433C156.791 183.631 157.507 183.947 158.164 184.37C161.098 186.182 163.982 188.059 166.921 189.851C167.627 190.132 168.364 190.319 169.115 190.407C168.875 189.719 168.848 189.179 168.575 188.96C168.077 188.504 167.471 188.19 166.819 188.048C165.915 187.938 165.072 187.518 164.429 186.856C163.765 186.212 163.068 185.604 162.342 185.035C160.877 183.93 159.369 182.879 157.882 181.8C155.943 181.985 154.919 180.467 153.678 179.353C153.333 179.044 152.96 178.769 152.565 178.532C148.293 176.06 143.898 173.819 139.398 171.818C138.57 171.431 137.693 171.164 136.795 171.025C136.334 170.961 135.835 171.342 135.348 171.526C135.31 171.444 135.26 171.37 135.199 171.304C135.161 171.277 135.08 171.298 135.021 171.299L135.388 171.446ZM157.186 348.516L157.024 348.615L157.186 348.444C157.921 349.147 158.604 349.905 159.228 350.712C159.64 351.384 160.142 351.994 160.721 352.523C163.977 355.411 166.971 358.596 169.663 362.037C170.007 362.486 170.408 362.885 170.856 363.225C171.973 364.024 173.126 364.771 174.283 365.512C175.41 366.233 175.626 366.178 177.118 364.853C176.862 364.278 176.633 363.637 176.307 363.046C176.094 362.669 175.75 362.114 175.444 362.075C173.673 361.86 172.748 360.412 171.654 359.341C168.453 356.224 165.403 352.959 162.279 349.774C161.632 349.117 160.951 348.496 160.24 347.914C159.794 347.554 159.307 347.251 158.789 347.012C158.668 346.946 158.534 346.909 158.397 346.903C158.261 346.897 158.125 346.923 157.999 346.978C157.874 347.032 157.762 347.115 157.673 347.22C157.583 347.325 157.517 347.449 157.481 347.583C157.367 347.889 157.27 348.201 157.19 348.518L157.186 348.516ZM500.877 238.199L500.715 238.286L500.783 238.163C502.097 239.07 503.408 239.981 504.733 240.881C505.249 241.118 505.734 241.422 506.174 241.786C508.166 244.157 510.889 245.411 513.416 246.97C514.341 247.42 515.188 248.024 515.921 248.757C517.986 251.365 520.965 252.714 523.489 254.671C525.088 255.795 526.779 256.774 528.542 257.598C528.748 257.66 528.963 257.678 529.175 257.652C529.387 257.625 529.592 257.555 529.775 257.444C529.892 257.368 529.991 257.267 530.066 257.148C530.14 257.029 530.187 256.894 530.205 256.753C530.222 256.613 530.209 256.47 530.167 256.334C530.124 256.199 530.053 256.075 529.959 255.97C528.942 254.439 527.61 253.152 526.056 252.201C524.573 251.339 523.164 250.346 521.848 249.235C520.544 248.145 518.774 247.8 517.752 246.239C517.239 245.602 516.538 245.153 515.756 244.959C514.343 244.486 513.113 243.565 512.245 242.329C511.688 241.593 511.027 240.946 510.283 240.408C508.365 239.163 506.359 238.063 504.407 236.871C503.815 236.519 503.259 236.107 502.747 235.642C500.379 233.479 498.044 231.277 495.68 229.107C493.981 227.548 492.285 225.983 490.516 224.514C489.11 223.341 487.705 221.964 486.078 221.294C484.199 220.521 482.818 219.165 481.226 218.071C478.581 216.246 476.015 214.302 473.455 212.355C471.732 211.047 470.021 209.703 468.406 208.265C467.726 207.482 466.804 206.962 465.795 206.791C465.063 206.731 464.74 206.051 464.257 205.563C461.849 203.143 459.856 200.23 456.562 198.849C456.151 198.646 455.767 198.389 455.422 198.083C453.075 196.244 450.753 194.372 448.388 192.555C447.748 192.118 447.08 191.725 446.388 191.378C445.853 191.911 445.757 192.394 446.129 192.967C447.454 194.993 449.103 196.779 451.007 198.247C454.304 200.687 457.419 203.375 460.325 206.289C462.44 208.593 464.996 210.428 467.832 211.677C470.036 212.637 471.865 214.325 473.025 216.468C473.502 217.379 474.207 218.146 475.066 218.691C475.951 219.187 476.747 219.834 477.419 220.605C478.952 222.165 480.403 223.917 482.19 225.085C484.057 226.3 486.046 227.314 487.928 228.571C490.218 230.101 492.296 231.894 494.565 233.426C496.751 234.896 498.783 236.599 500.881 238.201L500.877 238.199ZM372.93 111.094C371.841 111.787 371.774 112.63 372.157 113.324C373.484 115.755 375.042 118.128 377.617 119.333C379.196 119.992 380.494 121.209 381.274 122.761C382.238 124.833 384.002 125.737 385.758 126.736C386.167 126.93 386.615 127.017 387.063 126.99C387.364 126.984 387.833 126.823 387.888 126.62C387.99 126.26 387.99 125.667 387.76 125.423C385.462 123.018 383.114 120.668 380.783 118.294C380.382 117.901 380.006 117.483 379.656 117.043C377.749 114.697 375.478 112.688 372.934 111.096L372.93 111.094ZM369.389 132.219C368.646 134.114 368.669 134.107 368.872 134.776C369.932 138.313 372.57 140.726 375.13 143.164C375.767 143.642 376.498 143.973 377.271 144.134C377.399 144.184 377.536 144.208 377.673 144.203C377.809 144.199 377.944 144.167 378.068 144.108C378.192 144.05 378.303 143.967 378.395 143.864C378.487 143.76 378.557 143.639 378.602 143.507C378.751 143.107 378.854 142.69 379.032 142.102C377.7 140.451 376.459 138.672 374.96 137.138C373.323 135.457 371.439 134.008 369.393 132.22L369.389 132.219ZM166.217 344.592C164.591 346.751 164.649 346.713 165.97 348.608C166.883 349.935 167.965 351.133 169.185 352.171C170.677 353.438 172.125 354.755 173.591 356.051C174.415 356.78 175.379 356.922 175.959 356.401C176.499 355.916 176.426 354.757 175.769 353.942C175.528 353.696 175.273 353.466 175.004 353.252C174.077 352.387 173.199 351.462 172.221 350.668C170.776 349.49 169.406 348.296 169.232 346.325C168.154 345.705 167.172 345.142 166.22 344.593L166.217 344.592ZM392.258 130.31C392.084 130.761 391.977 131.237 391.94 131.721C392.144 133.624 393.317 135.021 394.681 136.285C395.268 136.825 396.159 137.226 396.434 137.875C397.02 139.237 398.212 139.953 399.138 140.942C399.299 141.06 399.483 141.142 399.677 141.183L401.681 140.595C401.571 140.023 401.369 139.473 401.084 138.967C399.754 137.41 398.341 135.918 396.957 134.408C396.026 133.389 395.131 132.34 394.134 131.392C393.551 130.961 392.923 130.598 392.262 130.31L392.258 130.31ZM128.734 193.621L127.349 196.964C127.793 197.676 128.438 198.235 129.198 198.565C129.958 198.896 130.797 198.982 131.603 198.813C132.76 198.656 133.462 198.119 133.495 197.001C133.525 196.027 133.681 194.995 132.798 193.923C131.546 193.828 130.147 193.726 128.738 193.622L128.734 193.621ZM166.617 201.02C165.229 199.324 164.482 198.107 163.059 197.39C161.867 196.948 160.889 196.048 160.334 194.883C159.471 192.538 157.544 191.301 155.535 190.152C155.316 190.031 154.958 190.161 154.574 190.175C154.677 190.608 154.649 191.015 154.836 191.218C156.174 192.639 157.539 194.033 158.933 195.4C159.835 196.102 160.674 196.885 161.439 197.74C162.353 199.073 163.675 199.828 164.861 200.782C165.081 200.959 165.489 200.886 166.622 201.02L166.617 201.02ZM522.694 247.317C522.271 245.189 521.749 243.819 520.457 242.952C519.963 242.529 519.351 242.275 518.71 242.228C518.068 242.181 517.43 242.342 516.887 242.689C517.158 243.266 517.287 244.054 517.726 244.359C519.115 245.319 520.614 246.099 522.699 247.317L522.694 247.317ZM600.853 377.283C600.812 376.581 600.586 375.902 600.2 375.318C599.813 374.734 599.28 374.266 598.657 373.964C598.351 373.796 597.816 373.998 597.417 374.115C597.31 374.13 597.208 374.174 597.124 374.243C597.039 374.312 596.975 374.403 596.938 374.507C596.901 374.611 596.892 374.723 596.913 374.832C596.934 374.941 596.984 375.042 597.057 375.125C597.474 375.771 598.037 376.306 598.7 376.682C599.362 377.058 600.102 377.264 600.858 377.283L600.853 377.283ZM601.981 387.681C602.23 387.477 602.392 387.182 602.432 386.858C602.472 386.533 602.388 386.205 602.198 385.94C601.678 385.516 601.1 385.172 600.483 384.921C600.329 384.875 600.166 384.869 600.009 384.904C599.853 384.939 599.708 385.014 599.589 385.122C599.469 385.23 599.378 385.368 599.325 385.522C599.272 385.676 599.258 385.842 599.285 386.004C599.324 386.311 599.431 386.606 599.597 386.866C599.763 387.126 599.984 387.345 600.243 387.507C600.503 387.668 600.795 387.768 601.096 387.798C601.398 387.828 601.703 387.789 601.986 387.682L601.981 387.681ZM412.535 150.104C412.364 148.599 411.021 147.903 410.319 146.813C409.961 146.251 409.398 145.461 408.779 145.916C407.957 146.515 409.126 146.889 409.307 147.388C409.568 148.088 410.004 148.707 410.571 149.183C411.138 149.659 411.816 149.977 412.537 150.103L412.535 150.104ZM497.474 453.136C497.016 452.47 496.493 451.853 495.914 451.294C495.687 451.122 495.104 451.273 494.791 451.455C494.636 451.547 494.63 452.065 494.729 452.334C495.163 453.5 496.11 453.195 497.474 453.136ZM489.685 577.874C489.396 578.361 489.191 578.896 489.08 579.455C489.124 579.657 489.214 579.845 489.343 580.004C489.472 580.163 489.637 580.288 489.823 580.369C490.017 580.389 490.213 580.367 490.398 580.305C490.583 580.243 490.754 580.142 490.898 580.008C490.98 579.885 491.03 579.742 491.042 579.593C491.054 579.444 491.027 579.294 490.965 579.157C490.577 578.692 490.149 578.263 489.685 577.877L489.685 577.874ZM396 129.332C395.574 128.31 395.182 127.258 393.787 127.02C394.59 128.644 394.589 128.644 396 129.332ZM405.24 145.48C405.649 144.075 405.165 143.54 404.328 143.279C404.187 143.243 404.039 143.242 403.898 143.276C403.757 143.31 403.627 143.378 403.517 143.474C403.368 143.674 403.34 144.213 403.485 144.336C404.041 144.761 404.628 145.144 405.24 145.48V145.48ZM458.704 187.418C458.893 187.223 459.121 187.095 459.105 186.987C459.08 186.889 459.036 186.797 458.976 186.716C458.916 186.636 458.841 186.568 458.755 186.517C458.657 186.469 458.455 186.63 458.3 186.698L458.704 187.418ZM155.089 357.806L154.279 357.449C154.255 357.554 154.174 357.701 154.217 357.751C154.4 357.971 154.617 358.16 154.82 358.365L155.089 357.806ZM636.631 410.391C636.411 410.207 636.248 409.986 636.144 410.007C636.048 410.024 635.958 410.064 635.881 410.123C635.803 410.183 635.74 410.26 635.698 410.349C635.66 410.458 635.857 410.671 635.956 410.831L636.631 410.391ZM599.13 384.206C598.991 384.086 598.839 383.982 598.678 383.894C598.609 383.868 598.406 383.995 598.409 384.019C598.461 384.186 598.529 384.348 598.612 384.502L599.13 384.206ZM398.874 131.987L398.823 131.78L398.642 131.926L398.874 131.987ZM233.625 171.814C233.641 171.611 233.635 171.406 233.61 171.204C233.595 171.131 233.43 171.081 233.333 171.02C233.279 171.186 233.153 171.372 233.191 171.514C233.23 171.639 233.468 171.714 233.624 171.813L233.625 171.814ZM552.198 471.944L552.027 472.091L552.264 472.131L552.198 471.944Z" fill="#C7D6D3"/>
</svg>
