<svg width="959" height="1135" viewBox="0 0 959 1135" fill="none" xmlns="http://www.w3.org/2000/svg">
<path d="M180.933 815.659C184.415 824.513 188.919 832.62 195.466 839.437C201.228 845.439 208.127 850.082 215.319 854.083C224.079 858.956 233.239 863.038 242.092 867.725C242.956 868.183 244.135 867.632 244.858 867.087C245.245 866.795 246.459 865.56 245.592 865.102C230.501 857.111 213.801 850.924 201.139 838.97C194.604 832.654 189.456 824.973 186.032 816.429C184.749 813.353 183.6 810.215 182.378 807.112C181.151 808.229 180.04 809.473 179.062 810.825C179.685 812.437 180.302 814.052 180.933 815.659Z" fill="#554140"/>
<path d="M174.79 800.78C176.265 803.684 177.502 806.701 178.689 809.741C179.693 808.436 180.826 807.241 182.069 806.174C181.407 804.5 180.714 802.841 179.966 801.206C177.717 796.313 174.853 791.751 171.448 787.633C168.871 784.516 166.098 781.575 163.147 778.83L159.194 781.021C161.395 783.066 163.517 785.198 165.519 787.451C169.156 791.461 172.271 795.941 174.79 800.78Z" fill="#554140"/>
<path d="M157.643 799.188C160.381 803.078 162.684 807.274 164.51 811.7C167.575 818.781 169.516 826.379 172.424 833.528C172.769 830.222 173.027 826.887 173.54 823.626C172.099 819.349 170.732 815.039 169.017 810.9C167.246 806.459 165.04 802.218 162.433 798.244C160.015 794.76 157.007 791.755 153.547 789.371C152.146 788.368 150.707 787.423 149.23 786.536L145.123 788.812C146.145 789.416 147.152 790.044 148.142 790.698C151.778 792.926 154.995 795.8 157.643 799.188Z" fill="#554140"/>
<path d="M172.994 835.041C173.864 837.107 174.85 839.117 175.947 841.061C178.59 845.809 182.254 849.861 186.664 852.913C191.283 855.881 196.198 858.341 201.327 860.253C207.137 862.585 212.828 865.103 218.478 867.806C224.183 870.542 229.881 873.287 235.761 875.618C237.047 876.13 240.516 873.489 238.617 872.738C228.099 868.569 218.204 862.962 207.698 858.761C202.525 856.857 197.503 854.557 192.674 851.878C187.96 849.173 183.948 845.353 180.965 840.728C177.907 835.931 175.882 830.628 174.04 825.236C173.599 828.387 173.372 831.575 173.032 834.733L172.994 835.041Z" fill="#554140"/>
<path d="M168.504 851.983C169.012 852.644 169.526 853.3 170.05 853.947C176.492 862.075 184.834 868.383 194.312 872.297C205.338 876.754 217.162 878.642 228.363 882.544C229.67 882.999 233.125 880.332 231.217 879.667C221.245 876.197 210.803 874.318 200.841 870.812C191.085 867.446 182.37 861.544 175.533 853.671C173.763 851.624 172.095 849.488 170.5 847.294C170.235 848.041 169.948 848.784 169.638 849.521C169.286 850.357 168.908 851.178 168.504 851.983Z" fill="#554140"/>
<path d="M142.621 812.309C146.178 816.68 149.387 821.34 152.22 826.244C157.268 834.603 162.1 843.193 167.993 850.965C168.752 849.425 169.422 847.841 169.998 846.221C165.481 839.918 161.544 833.142 157.587 826.49C154.783 821.586 151.692 816.864 148.329 812.351C145.461 808.514 141.902 805.282 137.841 802.828C134.747 801.077 131.549 799.523 128.266 798.173L124.085 800.491C126.615 801.59 129.142 802.683 131.559 803.928C135.75 805.952 139.507 808.798 142.621 812.309Z" fill="#554140"/>
<path d="M139.374 839.597C146.207 847.261 152.574 855.446 159.958 862.569C160.951 861.506 161.897 860.406 162.796 859.269C156.434 852.977 150.804 845.945 144.877 839.219C137.747 831.126 130.311 823.218 121.797 816.646C117.892 813.624 113.74 810.952 109.387 808.657L105.257 810.949C108.963 812.846 112.522 815.03 115.903 817.48C124.614 823.782 132.198 831.55 139.374 839.597Z" fill="#554140"/>
<path d="M161.489 864.443C169.196 871.635 177.928 877.577 187.391 882.068C198.305 887.172 210.054 890.191 222.072 890.98C222.612 890.956 223.141 890.806 223.62 890.541C224.098 890.275 224.512 889.901 224.831 889.448C225.365 888.62 224.989 888.1 224.106 888.04C202.897 886.595 182.953 877.74 166.974 863.631C165.72 862.523 164.502 861.378 163.307 860.21C162.406 861.338 161.46 862.427 160.468 863.476C160.806 863.8 161.145 864.124 161.489 864.443Z" fill="#554140"/>
<path d="M94.8492 828.729C100.674 831.351 106.292 834.154 111.402 838.064C115.949 841.711 120.288 845.623 124.398 849.78C132.234 857.354 140.112 864.976 148.317 872.143C149.54 871.339 150.743 870.501 151.926 869.629C144.625 863.257 137.661 856.453 130.636 849.784C126.342 845.708 122.192 841.458 117.66 837.656C112.952 833.736 107.769 830.457 102.237 827.898C98.7316 826.25 95.1937 824.678 91.6227 823.18C90.0433 822.511 88.4581 821.826 86.8627 821.162L82.6262 823.514C83.5339 823.887 84.4393 824.266 85.3442 824.64C88.5322 825.956 91.7005 827.319 94.8492 828.729Z" fill="#554140"/>
<path d="M148.866 873.151C149.406 873.621 149.946 874.089 150.487 874.556C159.44 882.239 169.127 889.153 180.1 893.473C186.052 895.817 192.194 896.387 198.545 896.615C204.675 896.833 210.88 896.92 216.718 898.983C218.021 899.443 221.475 896.782 219.568 896.109C209.049 892.395 197.556 895.009 186.907 891.979C181.351 890.247 176.047 887.781 171.124 884.643C166.102 881.547 161.304 878.087 156.766 874.288C155.313 873.09 153.876 871.872 152.455 870.633C152.167 870.849 151.875 871.064 151.579 871.278C150.689 871.923 149.779 872.546 148.866 873.151Z" fill="#554140"/>
<path d="M216.567 899.097C210.727 896.984 204.539 896.844 198.424 896.576C192.086 896.296 185.956 895.675 180.003 893.278C169.029 888.86 159.318 881.858 150.335 874.088C149.79 873.617 149.246 873.144 148.705 872.669C149.616 872.067 150.515 871.448 151.402 870.813C151.692 870.603 151.982 870.389 152.271 870.174C153.698 871.424 155.14 872.656 156.596 873.87C161.149 877.712 165.959 881.218 170.989 884.361C175.922 887.545 181.23 890.058 186.783 891.838C197.427 894.96 208.873 892.437 219.391 896.242C221.14 896.875 218.391 899.155 216.922 899.155C216.801 899.156 216.681 899.137 216.567 899.097ZM221.924 891.074C209.937 890.186 198.204 887.067 187.287 881.869C177.822 877.296 169.076 871.277 161.343 864.013C160.998 863.691 160.658 863.363 160.317 863.037C161.297 861.992 162.233 860.91 163.126 859.789C164.325 860.964 165.546 862.125 166.805 863.245C182.832 877.5 202.779 886.527 223.933 888.149C224.815 888.216 225.191 888.74 224.664 889.564C224.36 889.996 223.969 890.354 223.519 890.616C223.068 890.878 222.568 891.036 222.054 891.08C222.01 891.078 221.967 891.076 221.924 891.076L221.924 891.074ZM228.226 882.634C217.034 878.641 205.24 876.654 194.223 872.104C184.752 868.111 176.397 861.73 169.921 853.543C169.396 852.89 168.878 852.23 168.367 851.564C168.763 850.762 169.134 849.943 169.482 849.109C169.787 848.374 170.067 847.633 170.326 846.886C171.93 849.097 173.608 851.246 175.385 853.307C182.253 861.242 190.977 867.219 200.721 870.665C210.671 874.254 221.089 876.221 231.049 879.775C232.803 880.4 230.046 882.685 228.576 882.686C228.459 882.688 228.341 882.671 228.229 882.634L228.226 882.634ZM235.628 875.723C229.761 873.344 224.071 870.552 218.375 867.771C212.734 865.017 207.05 862.459 201.253 860.083C196.135 858.129 191.228 855.63 186.61 852.626C182.201 849.539 178.526 845.457 175.863 840.688C175.504 840.06 175.159 839.427 174.828 838.789C174.128 837.433 173.484 836.05 172.881 834.649C172.893 834.546 172.904 834.443 172.915 834.342C173.231 831.187 173.439 828.003 173.853 824.856C175.723 830.261 177.774 835.579 180.849 840.4C183.851 845.049 187.869 848.901 192.58 851.643C197.405 854.361 202.42 856.702 207.582 858.647C218.068 862.934 227.956 868.62 238.449 872.874C240.177 873.574 237.479 875.798 236.015 875.798C235.883 875.798 235.752 875.773 235.629 875.724L235.628 875.723ZM124.232 849.657C120.114 845.467 115.769 841.522 111.219 837.84C106.107 833.889 100.496 831.041 94.6815 828.371C91.5425 826.93 88.3806 825.544 85.1961 824.211C84.2937 823.83 83.3905 823.443 82.4855 823.062L86.6822 820.746C88.2736 821.424 89.8562 822.121 91.4336 822.802C94.9936 824.336 98.5253 825.937 102.029 827.604C107.548 830.207 112.725 833.526 117.434 837.481C121.971 841.319 126.129 845.602 130.43 849.711C137.47 856.438 144.445 863.296 151.754 869.726C150.588 870.589 149.398 871.418 148.184 872.213C139.974 864.978 132.083 857.293 124.233 849.658L124.232 849.657ZM241.969 867.8C233.138 863.045 224.004 858.892 215.262 853.953C208.086 849.898 201.196 845.201 195.427 839.161C191.153 834.627 187.539 829.474 184.698 823.865C183.266 821.076 181.971 818.214 180.819 815.289C180.179 813.679 179.558 812.059 178.926 810.444C179.889 809.102 180.985 807.868 182.197 806.761C183.433 809.872 184.598 813.013 185.893 816.097C189.356 824.662 194.525 832.376 201.063 838.737C213.731 850.784 230.374 857.096 245.431 865.206C246.295 865.671 245.098 866.893 244.715 867.183C244.137 867.646 243.439 867.922 242.71 867.975C242.453 867.98 242.199 867.92 241.97 867.801L241.969 867.8ZM139.222 839.465C132.037 831.369 124.443 823.549 115.744 817.185C112.367 814.71 108.816 812.5 105.119 810.575L109.208 808.319C113.55 810.646 117.695 813.349 121.597 816.398C130.108 823.033 137.547 830.991 144.689 839.133C150.624 845.899 156.269 852.969 162.634 859.299C161.749 860.429 160.817 861.52 159.836 862.573C152.449 855.403 146.068 847.176 139.222 839.466L139.222 839.465ZM152.057 826.123C149.212 821.205 145.996 816.528 142.438 812.135C139.321 808.604 135.573 805.732 131.4 803.676C128.992 802.41 126.476 801.304 123.957 800.187L128.091 797.907C131.36 799.282 134.544 800.86 137.628 802.633C141.674 805.114 145.229 808.368 148.103 812.22C151.471 816.751 154.572 821.489 157.389 826.407C161.361 833.078 165.317 839.873 169.842 846.201C169.282 847.813 168.628 849.389 167.884 850.919C161.979 843.12 157.124 834.509 152.058 826.124L152.057 826.123ZM164.37 811.566C162.53 807.135 160.219 802.931 157.479 799.03C154.829 795.628 151.621 792.736 148.002 790.485C147.016 789.825 146.015 789.189 144.996 788.578L149.053 786.341C150.522 787.24 151.954 788.195 153.351 789.204C156.796 791.61 159.799 794.632 162.219 798.126C164.83 802.112 167.046 806.359 168.833 810.804C170.561 814.945 171.946 819.255 173.403 823.534C172.917 826.782 172.684 830.108 172.364 833.402C169.434 826.251 167.455 818.658 164.371 811.57L164.37 811.566ZM174.679 800.657C172.146 795.808 169.024 791.314 165.388 787.284C163.386 785.018 161.268 782.873 159.071 780.816L162.977 778.662C165.924 781.423 168.695 784.378 171.273 787.508C174.679 791.646 177.551 796.224 179.814 801.128C180.567 802.765 181.263 804.427 181.934 806.101C180.712 807.154 179.598 808.336 178.612 809.627C177.41 806.592 176.162 803.571 174.68 800.661L174.679 800.657Z" fill="#3B3430"/>
<path d="M821.389 247.916C823.885 248.292 825.881 249.616 827.984 250.704C830.818 252.12 833.762 253.288 836.785 254.196C837.664 254.429 838.485 254.851 839.195 255.435C839.905 256.018 840.489 256.749 840.908 257.581C841.139 258.039 841.284 258.534 840.682 258.878C840.176 259.17 839.78 258.9 839.342 258.65C833.889 255.533 827.805 253.363 821.879 250.956C821.287 250.714 820.708 250.438 820.145 250.129C819.999 250.063 819.869 249.966 819.761 249.844C819.654 249.722 819.573 249.579 819.523 249.422C819.473 249.266 819.455 249.1 819.472 248.937C819.488 248.773 819.537 248.614 819.616 248.471C819.886 247.768 820.664 247.938 821.389 247.916Z" fill="#FFA85A"/>
<path d="M846.269 294.932C846.108 295.213 845.915 295.474 845.693 295.706C841.89 299.066 839.214 303.028 836.536 306.993C836.048 307.715 835.626 308.923 834.206 308.292C833.011 307.762 833.829 306.831 834.178 306.102C836.195 301.911 839.567 298.4 842.763 294.805C843.058 294.406 843.462 294.108 843.922 293.948C844.383 293.789 844.879 293.776 845.347 293.912C845.588 293.952 845.81 294.074 845.976 294.259C846.143 294.443 846.246 294.68 846.269 294.932Z" fill="#FFA85A"/>
<path d="M896.584 303.149C896.797 303.886 896.639 304.336 895.937 304.472C895.634 304.577 895.303 304.559 895.011 304.423C894.719 304.287 894.487 304.043 894.361 303.738C893.114 299.731 889.404 297.007 886.637 293.789C885.955 292.995 885.155 292.12 886.528 291.312C887.944 290.477 888.58 291.431 889.287 292.233C890.993 294.173 892.713 296.107 894.485 298.008C895.162 298.666 895.699 299.463 896.061 300.348C896.423 301.234 896.601 302.188 896.584 303.149Z" fill="#FFA85A"/>
<path d="M907.885 234.553C907.814 235.507 906.932 236.341 906.202 237.107C903.067 240.39 899.486 243.393 897.412 247.301C896.979 248.117 895.928 249.341 894.666 248.671C893.534 248.07 894.263 246.985 894.946 246.049C897.989 241.877 902.317 238.494 905.568 234.451C905.758 234.225 905.997 234.047 906.266 233.933C906.534 233.818 906.825 233.77 907.114 233.792C907.314 233.787 907.507 233.865 907.652 234.008C907.796 234.151 907.88 234.347 907.885 234.553Z" fill="#FFA85A"/>
<path d="M836.582 273.819C836.506 274.599 835.798 274.874 835.115 275.13C831.303 276.569 827.508 278.041 823.651 279.391C822.593 279.752 821.571 280.215 820.596 280.773C820.225 281.031 819.771 281.132 819.329 281.056C818.887 280.98 818.491 280.731 818.22 280.362C817.652 279.639 817.874 278.907 818.862 278.708C824.345 277.601 828.842 274.8 833.906 272.978C835.263 272.493 836.155 272.604 836.582 273.819Z" fill="#FFA85A"/>
<path d="M849.928 229.774C851.082 229.968 852.149 230.53 852.98 231.38C854.975 233.521 856.193 235.988 857.33 238.463C857.742 239.357 858.216 240.214 858.688 241.082C858.983 241.624 859.425 242.265 858.439 242.667C858.104 242.82 857.73 242.858 857.372 242.776C857.014 242.693 856.691 242.494 856.451 242.208C855.851 241.579 855.319 240.884 854.866 240.134C853.321 237.273 852.182 234.251 849.643 231.797C849.161 231.33 848.863 230.705 849.275 230.085C849.398 229.901 849.787 229.837 849.928 229.774Z" fill="#FFA85A"/>
<path d="M883.222 229.491C883.152 233.138 881.814 236.626 881.193 240.203C881.058 240.978 880.336 241.425 879.38 241.311C878.343 241.188 878.537 240.456 878.522 239.847C878.443 237.989 878.723 236.132 879.346 234.387C880.228 232.292 880.666 230.025 880.629 227.74C880.59 227.001 880.542 225.875 882.002 225.94C883.374 225.999 883.244 227.056 883.307 227.853C883.316 228.401 883.288 228.948 883.222 229.491Z" fill="#FFA85A"/>
<path d="M869.759 303.339C869.947 305.505 870.121 307.672 870.328 309.836C870.402 310.603 871.07 311.665 869.505 311.764C868.088 311.853 867.565 310.852 867.44 309.829C867.167 307.599 866.884 305.365 866.727 303.128C866.674 301.83 866.512 300.54 866.244 299.271C866.023 298.353 866.258 297.408 867.695 297.268C869.067 297.135 869.337 297.978 869.434 298.853C869.598 300.343 869.742 301.837 869.896 303.329L869.759 303.339Z" fill="#FFA85A"/>
<path d="M913.705 284.397C913.64 285.206 912.962 285.577 912.014 285.372C910.816 285.12 909.641 284.761 908.504 284.299C905.896 283.216 903.345 282.044 900.769 280.912C899.834 280.501 898.831 279.984 899.635 279.045C899.995 278.646 900.472 278.378 900.992 278.284C901.513 278.189 902.049 278.272 902.52 278.52C906.027 280.069 909.065 282.289 912.906 283.365C913.135 283.414 913.34 283.544 913.485 283.732C913.631 283.921 913.709 284.156 913.705 284.397Z" fill="#FFA85A"/>
<path d="M903.98 267.904C903.036 267.99 902.66 267.852 902.416 267.546C902.088 267.138 902.279 266.74 902.603 266.41C903.281 265.717 904.139 265.241 905.073 265.04C909.215 264.151 913.381 263.338 917.527 262.465C918.282 262.305 918.859 262.325 919.214 262.946C919.602 263.623 919.064 264.037 918.444 264.257C913.63 265.931 908.255 266.113 903.98 267.904Z" fill="#FFA85A"/>
<path d="M867.442 309.824C867.169 307.594 866.886 305.361 866.729 303.124C866.676 301.826 866.514 300.536 866.245 299.268C866.025 298.35 866.259 297.404 867.696 297.264C869.068 297.131 869.339 297.975 869.436 298.851C869.6 300.341 869.743 301.83 869.898 303.325L869.761 303.335C869.949 305.501 870.124 307.666 870.331 309.831C870.406 310.599 871.072 311.66 869.508 311.759C869.451 311.762 869.393 311.764 869.336 311.764C868.047 311.764 867.562 310.805 867.442 309.824ZM834.21 308.283C833.015 307.752 833.832 306.821 834.182 306.092C836.199 301.902 839.572 298.391 842.771 294.797C843.065 294.398 843.469 294.099 843.929 293.94C844.39 293.78 844.886 293.768 845.354 293.903C845.595 293.945 845.816 294.067 845.982 294.252C846.149 294.437 846.251 294.674 846.273 294.926C846.113 295.207 845.919 295.467 845.697 295.7C841.894 299.06 839.218 303.021 836.541 306.986C836.148 307.566 835.799 308.462 834.938 308.462C834.686 308.454 834.439 308.393 834.21 308.283L834.21 308.283ZM894.36 303.738C893.113 299.73 889.404 297.006 886.637 293.789C885.954 292.995 885.154 292.12 886.528 291.31C887.944 290.476 888.58 291.43 889.286 292.231C890.992 294.172 892.712 296.106 894.483 298.006C895.162 298.664 895.699 299.461 896.061 300.346C896.423 301.232 896.601 302.186 896.585 303.147C896.797 303.885 896.639 304.334 895.937 304.47C895.81 304.496 895.681 304.509 895.552 304.509C895.299 304.533 895.046 304.47 894.831 304.331C894.615 304.192 894.45 303.983 894.361 303.738L894.36 303.738ZM912.011 285.376C910.813 285.124 909.639 284.765 908.501 284.303C905.894 283.22 903.343 282.048 900.767 280.916C899.832 280.504 898.83 279.988 899.632 279.048C899.993 278.649 900.469 278.382 900.99 278.287C901.51 278.193 902.046 278.275 902.517 278.523C906.024 280.073 909.061 282.294 912.903 283.37C913.132 283.419 913.337 283.549 913.482 283.737C913.628 283.926 913.705 284.161 913.701 284.402C913.692 284.553 913.653 284.701 913.586 284.836C913.52 284.97 913.428 285.09 913.315 285.186C913.203 285.283 913.072 285.354 912.932 285.397C912.792 285.439 912.645 285.452 912.5 285.433C912.335 285.431 912.172 285.412 912.012 285.376L912.011 285.376ZM818.225 280.36C817.658 279.638 817.882 278.906 818.868 278.707C824.351 277.599 828.848 274.798 833.912 272.976C835.266 272.489 836.159 272.599 836.585 273.814C836.509 274.594 835.801 274.87 835.118 275.125C831.307 276.565 827.512 278.038 823.655 279.387C822.597 279.748 821.575 280.21 820.601 280.768C820.29 280.958 819.938 281.062 819.578 281.07C819.315 281.066 819.056 281 818.822 280.877C818.587 280.754 818.383 280.577 818.225 280.36L818.225 280.36ZM902.412 267.552C902.084 267.144 902.276 266.746 902.599 266.416C903.277 265.723 904.135 265.247 905.069 265.046C909.21 264.157 913.375 263.345 917.521 262.472C918.276 262.311 918.854 262.331 919.208 262.949C919.596 263.627 919.059 264.041 918.439 264.26C913.625 265.938 908.25 266.121 903.975 267.913C903.79 267.929 903.625 267.938 903.481 267.938C903.286 267.967 903.087 267.946 902.901 267.879C902.715 267.812 902.548 267.7 902.413 267.552L902.412 267.552ZM839.305 258.652C833.852 255.535 827.768 253.365 821.843 250.957C821.25 250.716 820.672 250.439 820.109 250.13C819.963 250.064 819.832 249.967 819.725 249.845C819.618 249.724 819.537 249.58 819.487 249.423C819.437 249.267 819.42 249.101 819.436 248.938C819.452 248.774 819.501 248.615 819.58 248.473C819.802 247.89 820.37 247.903 820.969 247.915C821.096 247.918 821.226 247.92 821.354 247.915C823.85 248.291 825.846 249.616 827.949 250.703C830.782 252.119 833.726 253.288 836.748 254.195C837.627 254.429 838.448 254.851 839.158 255.434C839.868 256.017 840.452 256.748 840.871 257.58C841.101 258.038 841.248 258.534 840.644 258.878C840.51 258.959 840.358 259.002 840.202 259.004C839.879 258.965 839.571 258.844 839.305 258.651L839.305 258.652ZM894.66 248.679C893.528 248.078 894.257 246.993 894.94 246.059C897.984 241.888 902.31 238.504 905.562 234.463C905.752 234.236 905.991 234.058 906.26 233.944C906.528 233.83 906.818 233.782 907.108 233.804C907.307 233.799 907.5 233.876 907.644 234.017C907.789 234.159 907.874 234.355 907.88 234.561C907.81 235.514 906.928 236.348 906.197 237.114C903.062 240.396 899.481 243.4 897.407 247.308C897.061 247.959 896.321 248.872 895.394 248.872C895.138 248.869 894.886 248.803 894.66 248.679ZM856.448 242.211C855.848 241.581 855.317 240.886 854.864 240.137C853.318 237.276 852.179 234.254 849.641 231.8C849.159 231.333 848.862 230.708 849.273 230.087C849.396 229.904 849.785 229.84 849.926 229.777C851.081 229.97 852.149 230.531 852.981 231.382C854.975 233.524 856.193 235.99 857.33 238.465C857.742 239.359 858.216 240.216 858.688 241.083C858.983 241.626 859.425 242.266 858.44 242.669C858.212 242.764 857.97 242.814 857.725 242.816C857.483 242.815 857.243 242.761 857.023 242.657C856.803 242.552 856.607 242.401 856.447 242.212L856.448 242.211ZM879.375 241.319C878.338 241.195 878.532 240.463 878.517 239.855C878.437 237.996 878.717 236.14 879.341 234.396C880.223 232.3 880.66 230.034 880.624 227.749C880.584 227.01 880.537 225.884 881.995 225.949C883.369 226.009 883.239 227.065 883.301 227.861C883.311 228.409 883.282 228.956 883.216 229.5C883.147 233.146 881.809 236.633 881.188 240.211C881.112 240.559 880.915 240.866 880.634 241.074C880.353 241.281 880.008 241.375 879.665 241.336C879.568 241.336 879.471 241.329 879.375 241.317L879.375 241.319Z" fill="#555555"/>
</svg>
