<svg width="145" height="160" viewBox="0 0 145 160" fill="none" xmlns="http://www.w3.org/2000/svg">
<path opacity="0.3" d="M144.898 65.8572C144.898 101.7 115.842 130.755 80 130.755C44.1577 130.755 15.1017 101.7 15.1017 65.8572C15.1017 30.0149 44.1577 0.958927 80 0.958927C115.842 0.958927 144.898 30.0149 144.898 65.8572Z" fill="#010F98"/>
<path d="M21.8393 132.765C22.593 134.654 23.5664 136.385 24.9787 137.842C26.2217 139.125 27.7088 140.118 29.2586 140.975C31.1462 142.018 33.1195 142.893 35.0273 143.897C35.2134 143.995 35.4669 143.878 35.6222 143.763C35.7054 143.7 35.9659 143.438 35.7793 143.34C32.5275 141.628 28.9302 140.3 26.1993 137.745C24.7898 136.395 23.6783 134.755 22.9372 132.931C22.6595 132.275 22.4108 131.605 22.1462 130.943C21.8827 131.18 21.6442 131.445 21.4344 131.733C21.5692 132.077 21.7027 132.422 21.8393 132.765Z" fill="#554140"/>
<path d="M20.5146 129.608C20.8333 130.228 21.1008 130.871 21.3575 131.52C21.5729 131.242 21.816 130.988 22.0828 130.761C21.9397 130.404 21.7897 130.05 21.6281 129.701C21.1419 128.657 20.5238 127.684 19.7894 126.804C19.2336 126.139 18.6358 125.51 17.9999 124.924L17.1507 125.389C17.625 125.826 18.0824 126.281 18.5142 126.762C19.2983 127.619 19.9706 128.575 20.5146 129.608Z" fill="#554140"/>
<path d="M16.8136 129.267C17.4041 130.097 17.9014 130.993 18.2962 131.937C18.9587 133.447 19.3799 135.068 20.0085 136.593C20.0812 135.888 20.135 135.178 20.2438 134.483C19.9319 133.571 19.6357 132.651 19.2651 131.769C18.882 130.821 18.4055 129.916 17.843 129.068C17.3215 128.324 16.6731 127.682 15.9281 127.172C15.6263 126.958 15.3164 126.756 14.9984 126.566L14.1162 127.049C14.3364 127.178 14.5531 127.313 14.7665 127.452C15.5494 127.929 16.2424 128.543 16.8136 129.267Z" fill="#554140"/>
<path d="M20.1286 136.897C20.3168 137.338 20.53 137.767 20.7673 138.182C21.3385 139.196 22.1295 140.062 23.0805 140.715C24.0765 141.351 25.1357 141.878 26.2411 142.288C27.493 142.789 28.7196 143.328 29.9375 143.908C31.1669 144.494 32.3951 145.083 33.6622 145.583C33.9393 145.693 34.6851 145.131 34.2759 144.97C32.0092 144.075 29.876 142.875 27.6121 141.973C26.4974 141.565 25.415 141.071 24.374 140.498C23.3577 139.918 22.4921 139.102 21.8475 138.114C21.1867 137.089 20.7482 135.957 20.349 134.806C20.2556 135.478 20.2083 136.158 20.1366 136.831L20.1286 136.897Z" fill="#554140"/>
<path d="M19.1591 140.509C19.2688 140.65 19.3797 140.791 19.4931 140.929C20.8845 142.666 22.6841 144.016 24.7276 144.856C27.1045 145.812 29.6522 146.221 32.0666 147.059C32.3482 147.157 33.0912 146.59 32.6797 146.447C30.5303 145.702 28.2804 145.295 26.1331 144.542C24.0302 143.819 22.1502 142.556 20.6738 140.873C20.2916 140.435 19.9312 139.979 19.5866 139.51C19.53 139.669 19.4685 139.827 19.4022 139.984C19.3266 140.163 19.2456 140.337 19.1591 140.509Z" fill="#554140"/>
<path d="M13.5736 132.064C14.3408 132.998 15.0335 133.993 15.6452 135.04C16.7352 136.824 17.7787 138.658 19.0502 140.317C19.2128 139.989 19.3561 139.652 19.4793 139.307C18.5046 137.961 17.6544 136.515 16.7999 135.095C16.1944 134.048 15.527 133.04 14.8014 132.076C14.1826 131.257 13.4154 130.566 12.5407 130.041C11.8741 129.666 11.1855 129.333 10.4785 129.044L9.5802 129.536C10.1251 129.771 10.6693 130.006 11.1899 130.272C12.0923 130.706 12.9019 131.314 13.5736 132.064Z" fill="#554140"/>
<path d="M12.8765 137.887C14.3508 139.525 15.7249 141.273 17.3174 142.796C17.5306 142.57 17.7336 142.336 17.9265 142.094C16.5545 140.749 15.3394 139.247 14.0607 137.81C12.5224 136.081 10.9182 134.391 9.08271 132.985C8.24091 132.339 7.34619 131.767 6.40816 131.276L5.52049 131.762C6.31906 132.169 7.08594 132.636 7.81464 133.16C9.69238 134.508 11.3283 136.168 12.8765 137.887Z" fill="#554140"/>
<path d="M17.6462 143.167C19.3098 144.705 21.1937 145.977 23.2345 146.94C25.5881 148.035 28.1205 148.685 30.7097 148.859C30.826 148.855 30.94 148.823 31.0428 148.767C31.1457 148.71 31.2348 148.631 31.3033 148.534C31.4179 148.358 31.3368 148.247 31.1465 148.233C26.577 147.914 22.2763 146.015 18.8274 142.996C18.5567 142.759 18.2937 142.514 18.0358 142.264C17.8422 142.505 17.6389 142.736 17.4258 142.96C17.4988 143.029 17.5719 143.098 17.6462 143.167Z" fill="#554140"/>
<path d="M3.27493 135.556C4.53034 136.118 5.74104 136.719 6.84323 137.555C7.82395 138.335 8.76 139.172 9.64688 140.06C11.3376 141.68 13.0373 143.309 14.8073 144.842C15.0703 144.671 15.3289 144.493 15.583 144.308C14.0081 142.945 12.5056 141.49 10.9898 140.064C10.0635 139.193 9.16792 138.284 8.19021 137.471C7.17483 136.633 6.05741 135.931 4.865 135.382C4.1096 135.029 3.34713 134.692 2.5776 134.371C2.23724 134.227 1.89562 134.08 1.55182 133.938L0.640869 134.437C0.836467 134.518 1.03158 134.599 1.22659 134.679C1.91358 134.961 2.59636 135.254 3.27493 135.556Z" fill="#554140"/>
<path d="M14.9239 145.021C15.0404 145.121 15.157 145.221 15.2738 145.321C17.2066 146.965 19.297 148.446 21.6631 149.373C22.9467 149.876 24.2702 150.001 25.6387 150.053C26.9595 150.103 28.2964 150.124 29.5553 150.568C29.8362 150.667 30.579 150.1 30.168 149.956C27.8997 149.158 25.4249 149.71 23.129 149.058C21.9312 148.685 20.7872 148.156 19.725 147.484C18.6416 146.821 17.6062 146.08 16.6264 145.267C16.3129 145.011 16.0028 144.75 15.696 144.485C15.634 144.531 15.5712 144.577 15.5076 144.622C15.3161 144.759 15.1204 144.892 14.9239 145.021Z" fill="#554140"/>
<path d="M29.5202 150.574C28.2609 150.124 26.9266 150.094 25.608 150.037C24.2414 149.977 22.9195 149.845 21.6359 149.334C19.2695 148.392 17.1758 146.899 15.2389 145.242C15.1212 145.141 15.0041 145.04 14.8874 144.939C15.0838 144.811 15.2776 144.679 15.4689 144.543C15.5315 144.498 15.5941 144.453 15.6563 144.407C15.9641 144.673 16.275 144.936 16.5888 145.195C17.5707 146.014 18.6078 146.762 19.6924 147.432C20.7559 148.111 21.9005 148.647 23.0979 149.027C25.393 149.692 27.8612 149.154 30.1292 149.965C30.5063 150.1 29.9135 150.586 29.5968 150.586C29.5707 150.587 29.5449 150.583 29.5202 150.574ZM30.6756 148.863C28.0908 148.674 25.5607 148.009 23.2069 146.9C21.166 145.925 19.2801 144.642 17.6126 143.093C17.5383 143.024 17.465 142.954 17.3915 142.884C17.6028 142.662 17.8047 142.431 17.9973 142.192C18.2557 142.442 18.5191 142.69 18.7906 142.929C22.2462 145.969 26.5473 147.894 31.1089 148.239C31.2989 148.253 31.3802 148.365 31.2665 148.541C31.2008 148.633 31.1166 148.709 31.0194 148.765C30.9223 148.821 30.8145 148.855 30.7035 148.864C30.6941 148.864 30.6848 148.863 30.6756 148.863V148.863ZM32.0346 147.063C29.6213 146.211 27.0782 145.788 24.7026 144.818C22.6603 143.966 20.8589 142.605 19.4626 140.859C19.3495 140.72 19.2378 140.579 19.1276 140.437C19.2129 140.266 19.2931 140.092 19.3681 139.914C19.4339 139.757 19.4943 139.599 19.5501 139.44C19.8961 139.911 20.2577 140.369 20.6408 140.809C22.1217 142.501 24.0029 143.776 26.1038 144.511C28.2494 145.276 30.4959 145.695 32.6434 146.453C33.0216 146.586 32.4271 147.073 32.1102 147.074C32.0848 147.074 32.0596 147.071 32.0354 147.063H32.0346ZM33.631 145.588C32.3659 145.081 31.1388 144.486 29.9107 143.893C28.6944 143.306 27.4689 142.76 26.2188 142.253C25.1153 141.837 24.0571 141.304 23.0615 140.663C22.1107 140.005 21.3184 139.135 20.7443 138.118C20.6669 137.984 20.5925 137.849 20.5211 137.712C20.3702 137.423 20.2313 137.128 20.1014 136.83C20.1038 136.808 20.1063 136.786 20.1086 136.764C20.1768 136.091 20.2217 135.412 20.311 134.741C20.7141 135.894 21.1565 137.028 21.8194 138.056C22.4665 139.047 23.3331 139.869 24.3487 140.454C25.3891 141.033 26.4705 141.532 27.5837 141.947C29.8447 142.861 31.9767 144.074 34.2392 144.981C34.6118 145.13 34.0301 145.604 33.7143 145.604C33.6859 145.604 33.6577 145.599 33.6312 145.589L33.631 145.588ZM9.6107 140.031C8.72262 139.138 7.78582 138.297 6.80482 137.511C5.7026 136.669 4.49272 136.061 3.23892 135.492C2.56205 135.185 1.88028 134.889 1.19361 134.605C0.999037 134.524 0.804272 134.441 0.609131 134.36L1.51413 133.866C1.85728 134.011 2.19854 134.159 2.53867 134.304C3.30629 134.632 4.06781 134.973 4.82324 135.328C6.01336 135.883 7.12958 136.591 8.14498 137.435C9.12313 138.253 10.0198 139.166 10.9471 140.043C12.465 141.477 13.969 142.94 15.5449 144.311C15.2935 144.495 15.0369 144.672 14.7751 144.842C13.0048 143.299 11.3034 141.66 9.61089 140.032L9.6107 140.031ZM34.9985 143.899C33.0942 142.885 31.1247 141.999 29.2398 140.946C27.6925 140.081 26.2068 139.08 24.9629 137.791C24.0415 136.824 23.2623 135.725 22.6497 134.529C22.3409 133.934 22.0618 133.324 21.8133 132.7C21.6755 132.357 21.5415 132.011 21.4053 131.667C21.613 131.381 21.8494 131.117 22.1107 130.881C22.3771 131.545 22.6284 132.215 22.9075 132.872C23.6541 134.699 24.7685 136.344 26.1783 137.701C28.9097 140.27 32.4984 141.616 35.7451 143.345C35.9312 143.444 35.6731 143.705 35.5905 143.767C35.4659 143.866 35.3155 143.924 35.1582 143.936C35.1029 143.937 35.0481 143.924 34.9987 143.899L34.9985 143.899ZM12.8431 137.857C11.294 136.131 9.65671 134.463 7.7809 133.106C7.05283 132.578 6.28702 132.107 5.48993 131.696L6.37174 131.215C7.30807 131.711 8.20168 132.288 9.043 132.938C10.8783 134.353 12.4822 136.05 14.022 137.786C15.3017 139.229 16.5189 140.737 17.8911 142.087C17.7004 142.328 17.4993 142.561 17.2878 142.785C15.6952 141.256 14.3192 139.502 12.8433 137.858L12.8431 137.857ZM15.6111 135.011C14.9978 133.963 14.3043 132.965 13.5371 132.028C12.8652 131.275 12.057 130.663 11.1571 130.224C10.6379 129.954 10.0954 129.719 9.55226 129.48L10.4439 128.994C11.1486 129.287 11.8353 129.624 12.5001 130.002C13.3727 130.531 14.1391 131.225 14.7587 132.046C15.4849 133.013 16.1535 134.023 16.7608 135.072C17.6173 136.495 18.4701 137.944 19.4458 139.293C19.3249 139.637 19.1839 139.973 19.0235 140.3C17.7503 138.636 16.7037 136.8 15.6112 135.012L15.6111 135.011ZM18.2665 131.906C17.8699 130.962 17.3715 130.065 16.7808 129.233C16.2096 128.507 15.5179 127.891 14.7374 127.411C14.5249 127.27 14.3089 127.134 14.0893 127.004L14.9642 126.527C15.2808 126.719 15.5897 126.922 15.8909 127.137C16.6336 127.65 17.2811 128.295 17.8031 129.04C18.366 129.89 18.8437 130.796 19.2288 131.744C19.6014 132.627 19.9 133.546 20.2141 134.459C20.1093 135.152 20.059 135.861 19.9898 136.563C19.3582 135.038 18.9317 133.419 18.2667 131.907L18.2665 131.906ZM20.4898 129.579C19.9436 128.545 19.2704 127.587 18.4865 126.727C18.0549 126.244 17.5983 125.787 17.1245 125.348L17.9669 124.889C18.6022 125.478 19.1996 126.108 19.7556 126.775C20.49 127.658 21.109 128.634 21.5971 129.68C21.7592 130.029 21.9093 130.384 22.0541 130.741C21.7904 130.965 21.5503 131.217 21.3377 131.493C21.0786 130.845 20.8095 130.201 20.49 129.58L20.4898 129.579Z" fill="#3B3430"/>
</svg>
