<svg width="730" height="690" viewBox="0 0 730 690" fill="none" xmlns="http://www.w3.org/2000/svg">
<path d="M373.993 103.918C374.746 104.098 375.504 104.278 376.537 104.521C376.156 103.608 375.839 102.854 375.408 101.822L377.858 102.275C379.108 103.263 378.944 105.308 380.772 105.59C381.763 105.081 380.793 104.077 381.202 103.499C381.663 102.95 382.16 102.434 382.69 101.956C383.27 102.592 384.118 103.153 384.385 103.898C384.874 104.96 385.625 105.872 386.562 106.543C388.267 108.059 390.151 109.378 392.121 110.905C392.657 110.422 393.192 109.95 393.718 109.477C394.356 110.155 395.063 110.912 395.77 111.659C396.014 111.911 396.446 112.127 396.492 112.39C396.93 114.863 398.851 115.212 400.729 115.672C401.158 115.791 401.58 115.933 401.995 116.097C404.507 118.587 404.644 121.736 406.021 124.371C406.257 124.818 406.139 125.453 406.141 125.999C406.136 127.15 406.397 128.289 406.902 129.321C407.408 130.353 408.144 131.249 409.048 131.933C411.07 133.457 412.699 135.47 413.79 137.792C414.069 138.499 414.482 139.142 415.004 139.685C415.526 140.227 416.147 140.657 416.83 140.95L417.075 142.718C419.515 143.297 421.643 144.849 422.991 147.033C423.712 148.214 424.58 149.319 425.27 150.513C426.743 153.063 428.887 155.046 430.904 157.096C433.812 160.064 436.758 162.978 439.547 166.077C441.418 167.953 443.382 169.727 445.432 171.391C447.783 173.409 449.797 175.813 451.39 178.505L451.452 178.392C450.143 178.777 449.268 177.72 448.484 177.026C446.065 174.891 443.807 172.561 441.482 170.315C440.395 169.287 439.249 168.326 438.05 167.439C436.178 165.909 434.455 164.192 432.907 162.314C430.205 159.43 427.281 156.777 424.165 154.381C423.885 154.199 423.587 154.05 423.275 153.939C423.137 153.956 423.006 154.009 422.894 154.092C422.783 154.176 422.693 154.288 422.636 154.418C422.578 154.547 422.553 154.69 422.563 154.833C422.574 154.976 422.619 155.115 422.695 155.235C423.254 156.468 423.416 157.912 424.646 158.802C424.746 158.86 424.826 158.947 424.877 159.053C425.725 161.765 428.159 163.093 429.947 164.999C432.578 167.93 435.468 170.604 438.577 172.984C439.027 173.349 439.426 173.775 439.762 174.253C442.062 177.284 445.259 179.145 448.311 181.189C449.54 182.016 450.889 182.664 452.076 183.545C452.803 184.098 453.628 184.497 454.502 184.72C455.376 184.943 456.283 184.985 457.169 184.843L457.073 184.799C457.186 185.331 457.343 185.851 457.541 186.356C457.665 186.665 457.898 186.915 458.192 187.053C458.487 187.192 458.822 187.209 459.126 187.101C459.997 186.835 459.713 186.178 459.482 185.557L459.451 185.54C459.975 185.757 460.477 186.029 460.948 186.352C463.392 188.444 466.137 190.189 468.109 192.819C469.566 194.769 471.855 195.906 473.119 198.057C473.268 198.311 473.693 198.431 474.007 198.568C474.979 198.946 475.857 199.548 476.573 200.327C477.289 201.106 477.826 202.042 478.141 203.063C481.045 203.243 481.587 206.07 483.261 207.585C482.972 208.395 482.551 208.039 482.16 207.84C482.057 207.793 481.974 207.681 481.869 207.655C478.529 206.91 476.132 204.648 473.79 202.265C473.247 201.844 472.669 201.473 472.064 201.156C471.179 200.638 470.377 199.98 469.689 199.205C468.876 198.399 467.929 197.752 466.894 197.293C466.015 196.78 465.106 196.234 463.885 196.697C463.873 197.028 463.733 197.481 463.864 197.86C464.55 199.746 465.877 201.315 467.597 202.271C470.583 204.048 473.024 206.553 475.857 208.531C477.695 209.901 479.393 211.462 480.924 213.189C480.755 213.297 480.455 213.379 480.441 213.514C480.448 213.799 480.508 214.08 480.618 214.343C480.616 214.354 480.853 214.353 480.871 214.305C480.955 214.134 480.999 213.945 480.998 213.752C480.955 213.537 480.889 213.327 480.801 213.127C481.285 213.402 481.97 213.56 482.223 213.971C483.337 215.626 485.016 216.788 486.918 217.221C488.371 217.69 489.73 218.432 490.924 219.412C491.925 220.156 492.971 220.833 494.056 221.438C494.303 221.585 494.691 221.466 495.277 221.47C495.097 220.95 495.06 220.482 494.813 220.196C493.478 218.612 492.131 217.037 490.704 215.537C490.099 215.009 489.443 214.548 488.745 214.162C487.024 213.037 485.519 211.593 484.306 209.904C484.213 209.769 484.305 209.507 484.314 209.26C485.922 209.215 486.611 211.062 488.049 211.323L487.97 211.242C488.404 211.547 489.082 212.208 489.233 212.107C489.441 211.955 489.679 211.852 489.931 211.803C490.182 211.754 490.441 211.76 490.691 211.823C490.941 211.885 491.176 212.001 491.38 212.163C491.584 212.326 491.753 212.531 491.876 212.765C493.157 214.818 495.102 215.967 496.912 217.34C497.548 217.821 498.079 218.453 498.686 218.983C499.006 219.301 499.379 219.555 499.787 219.733C502.168 220.553 504.249 222.115 505.742 224.203C506.588 225.137 507.565 225.935 508.639 226.569C509.306 227.04 509.123 227.501 508.967 228.027L508.824 227.861L509.007 227.953L510.278 229.701L510.327 229.609L507.082 228.009C505.877 229.16 505.71 229.725 506.485 230.467C507.57 231.506 508.705 232.486 509.887 233.404C510.789 234.099 511.921 234.501 512.415 235.68C512.521 235.888 512.692 236.054 512.901 236.148C514.899 237.019 516.708 238.299 518.218 239.91C520.261 240.191 520.844 241.902 521.466 243.439C522.769 243.49 522.29 242.629 522.292 242.039L522.248 242.131C523.485 243.139 524.747 244.119 525.957 245.165C526.381 245.445 526.74 245.819 527.009 246.259C527.277 246.699 527.447 247.194 527.507 247.708C527.484 247.995 527.561 248.282 527.724 248.518C527.887 248.754 528.125 248.923 528.397 248.995C529.448 249.364 530.205 250.332 531.387 250.525C531.719 250.615 532.012 250.82 532.215 251.107C532.418 251.393 532.519 251.743 532.501 252.095L532.556 252.014C532.138 251.837 531.71 251.682 531.276 251.551C529.789 251.19 528.999 251.891 528.516 253.363C530.291 254.63 531.965 255.968 533.772 257.069C536.076 258.478 537.613 260.268 537.78 263.019C537.799 263.488 537.977 263.938 538.282 264.29C538.587 264.642 539.001 264.874 539.451 264.946C539.815 265.037 540.238 264.788 540.627 264.689L540.331 263.53C540.496 263.482 540.719 263.338 540.817 263.404C541.383 263.785 541.922 264.205 542.457 264.632C543.263 265.271 544.013 265.979 544.853 266.556C546.197 267.379 547.383 268.453 548.349 269.721C549.196 270.898 550.12 272.013 551.114 273.059C552.074 274.085 553.686 274.461 554.915 275.285C555.862 275.923 556.718 276.697 557.456 277.583C558.674 279.134 560.236 280.36 562.008 281.156C560.906 283.377 561.236 284.141 563.5 284.883C563.792 284.998 564.077 285.13 564.353 285.279L564.396 285.199L564.022 285.606L564.648 285.943L564.57 285.893C565.596 286.605 566.654 287.294 567.659 288.041C569.016 289.061 569.344 290.695 570.037 292.097C570.176 292.385 569.902 292.961 569.678 293.303C569.191 294.025 568.61 294.675 568.069 295.355C566.987 295.318 565.895 295.222 564.823 295.271C564.66 295.291 564.506 295.354 564.374 295.453C564.242 295.553 564.138 295.685 564.07 295.839C564.002 295.992 563.974 296.162 563.988 296.33C564.001 296.499 564.057 296.662 564.148 296.804C564.288 297.12 564.486 297.407 564.73 297.648C566.033 298.781 567.433 299.79 568.91 300.664C570.514 301.48 571.541 302.451 571.499 304.243C573.446 305.672 575.56 306.714 576.811 308.792C579.37 310.314 581.27 312.858 584.114 313.952L584.113 313.863C583.74 314.197 583.185 314.459 583.034 314.884C582.904 315.508 582.861 316.149 582.907 316.787C583.997 318.026 585.035 319.202 586.229 320.556C585.89 320.911 585.579 321.293 585.299 321.7C585.065 322.013 584.96 322.408 585.007 322.803C585.053 323.197 585.246 323.559 585.546 323.812C586.248 324.528 587.3 324.935 587.492 326.097L587.58 326.002C585.201 325.119 583.178 323.424 581.848 321.2C580.425 319.207 578.722 317.442 576.797 315.964C576.232 315.382 575.499 315.009 574.711 314.903C572.997 315.067 572.058 314.087 570.957 312.976C569.208 311.216 567.178 309.967 564.624 310.165C563.697 310.239 563.326 310.854 563.798 311.767C564.418 312.977 565.056 314.177 565.767 315.543C566.491 315.812 567.333 316.151 568.189 316.429C571.02 317.366 572.641 319.543 573.774 322.13C574.052 322.772 574.106 323.481 574.849 323.737C575.478 323.937 576.121 324.084 576.771 324.178C577.063 324.197 577.356 324.183 577.644 324.135C577.783 324.438 577.985 324.667 577.96 324.849C577.692 327.239 579.215 328.354 581.107 329.19C581.63 329.417 582.192 329.524 582.728 329.705C583.156 329.85 583.728 329.901 583.979 330.203C585.885 332.531 589.024 332.127 591.169 333.914C591.358 334.068 592.119 333.865 592.25 333.613C592.395 333.335 592.241 332.729 592.012 332.416C591.29 331.494 590.302 330.831 589.194 330.527C588.539 330.274 587.9 329.975 587.283 329.632C587.734 328.457 588.113 327.454 588.496 326.451L588.482 326.569C590.403 328.189 592.088 330.125 594.419 331.222C594.977 331.625 595.482 332.101 595.923 332.637C597.217 333.783 598.525 334.922 599.83 336.056C600.653 336.768 601.916 337.101 601.875 338.583C601.87 338.83 602.497 339.302 602.872 339.38C604.077 339.641 605.301 339.767 606.544 339.949C607.004 340.538 607.382 341.454 607.993 341.702C609.135 342.07 610.308 342.322 611.495 342.451C612.001 343.2 612.549 344.013 613.091 344.819C612.258 345.263 611.371 345.595 610.454 345.807C608.32 346.022 607.253 347.44 606.263 349.039C605.419 350.41 604.566 351.78 603.747 353.099C603.833 353.569 604.045 354.005 604.359 354.358C604.673 354.711 605.076 354.967 605.522 355.096C607.227 355.71 608.9 356.418 610.548 357.071C610.876 358.585 609.282 358.828 609.027 360.177L610.223 363.631C608.748 364.831 607.422 366.013 605.223 365.047C604.799 364.858 604.198 365.144 603.648 365.218C603.411 366.773 604.254 367.985 604.582 369.281L604.608 369.211C604.413 369.843 604.121 370.438 603.741 370.972C601.982 372.734 602.57 374.752 603.767 376.491C604.74 377.91 605.48 379.482 605.958 381.144C606.106 381.709 606.369 382.236 606.728 382.691C607.087 383.145 607.534 383.516 608.041 383.78C609.746 384.698 611.348 385.76 613.368 385.959C615.167 386.138 616.691 387.34 618.125 388.28C619.078 390.872 617.153 392.314 616.523 394.37C615.562 393.711 614.627 393.071 613.678 392.427C612.764 392.659 611.91 393.229 610.852 392.438C610.213 391.958 609.564 392.3 609.105 392.836C608.822 393.107 608.643 393.473 608.598 393.87C608.554 394.266 608.647 394.668 608.862 395.003C609.27 395.702 609.672 396.408 610.068 397.116C610.469 397.897 611.06 398.559 611.782 399.037C612.504 399.515 613.331 399.793 614.184 399.843C615.059 399.92 615.911 400.187 616.683 400.626C617.728 401.179 619.037 401.172 620.364 401.427C620.968 402.282 621.637 403.222 622.406 404.31C623.326 404.108 624.287 404.221 625.144 404.632C626.002 405.043 626.709 405.73 627.159 406.589C627.583 407.273 628.127 407.885 628.609 408.535C630.194 410.666 630.974 410.972 633.782 410.588L634.825 406.784C636.262 406.708 637.563 406.634 638.872 406.567C639.438 405.478 639.697 404.245 639.62 403.006C639.722 401.772 639.752 400.533 639.711 399.294C639.613 397.962 639.302 396.63 639.042 395.048C639.283 394.55 639.495 394.038 639.675 393.513C639.843 392.876 639.979 392.23 640.084 391.578C640.968 391.219 641.766 390.899 642.565 390.574L642.466 390.55C643.389 392.327 644.14 394.104 643.279 396.041C643.214 396.197 643.182 396.367 643.187 396.537C643.191 396.708 643.231 396.876 643.304 397.03C644.255 398.438 643.755 399.525 643.057 400.741C642.791 401.469 642.76 402.267 642.968 403.019C643.235 404.474 643.653 405.915 644.028 407.359C644.097 407.804 644.257 408.229 644.496 408.608C645.522 409.839 645.6 411.375 646.159 412.755C646.305 413.187 646.348 413.649 646.285 414.1C646.222 414.552 646.054 414.979 645.796 415.348C644.99 415.465 644.007 415.362 643.369 415.779C642.848 416.125 642.748 417.08 642.46 417.772C641.947 418.076 641.661 417.589 641.298 417.357C639.904 416.463 639.382 416.413 638.51 417.649C638.238 418.058 637.885 418.404 637.475 418.662C637.064 418.921 636.605 419.088 636.126 419.152C634.408 419.444 632.684 419.756 630.834 420.079C630.406 420.909 630.317 422.092 629.221 422.685C629 422.836 628.818 423.041 628.691 423.281C628.565 423.522 628.497 423.791 628.494 424.066C628.565 424.736 628.483 425.411 628.254 426.039C628.026 426.666 627.658 427.228 627.179 427.679C626.969 427.855 626.833 428.109 626.801 428.388C626.769 428.666 626.842 428.948 627.006 429.174C627.206 429.462 627.497 429.668 627.829 429.755C628.16 429.842 628.51 429.804 628.814 429.649C629.416 429.395 629.998 429.095 630.556 428.752C631.027 428.51 631.5 428.276 632.08 427.986C633.674 429.928 633.557 431.874 632.946 433.82C632.62 434.845 632.132 435.807 631.67 436.916C630.179 437.546 630.179 437.546 629.314 439.703C631.683 442.089 634.113 444.534 636.68 447.111C636.724 447.662 636.757 448.454 636.856 449.238C637.095 451.107 637.431 451.452 639.374 451.894C639.805 451.991 640.241 452.071 640.77 452.182C641.51 453.706 641.9 455.577 644.64 455.515C643.796 456.237 643.595 456.573 643.353 456.587C641.165 456.719 638.998 457.198 636.753 456.617C636.21 456.474 635.631 456.484 635.085 456.371C632.556 455.838 630.505 456.903 628.574 458.112C627.796 458.601 627.342 459.59 626.659 460.458C624.344 460.441 622.038 460.108 619.802 459.468C617.984 458.926 616.11 458.622 614.224 458.561C612.323 458.644 610.422 458.328 608.636 457.631C607.811 457.258 606.91 457.106 606.018 457.19C604.029 457.504 602.689 459.095 600.909 459.895C600.387 460.194 599.948 460.624 599.63 461.145C599.312 461.666 599.126 462.262 599.088 462.879C599.021 463.085 598.919 463.278 598.786 463.448C596.833 464.799 594.409 464.493 592.2 464.894C591.636 464.966 591.063 464.887 590.534 464.664C590.006 464.441 589.54 464.082 589.183 463.621C588.313 462.684 587.395 461.794 586.434 460.956C584.338 459.039 582.001 458.098 579.282 458.808C578.956 458.861 578.627 458.897 578.297 458.916C578.196 458.931 578.114 459.027 577.838 459.208C577.534 460.163 577.177 461.289 576.77 462.571C575.262 462.002 573.895 461.491 572.655 461.026C571.092 461.424 571.566 462.809 571.201 463.789L570.213 463.672L570.497 463.661L570.318 463.736C569.475 463.442 569.366 462.661 569.117 461.972L569.103 462.033L568.836 461.262L568.937 461.321L568.182 461.535L568.221 461.479C566.952 461.528 566.485 460.018 565.283 459.824C564.643 460.076 563.747 460.327 563.869 461.23C563.92 461.92 564.122 462.591 564.458 463.192C564.795 463.794 565.258 464.311 565.813 464.705C566.195 464.953 566.623 465.112 567.069 465.17C569.272 465.43 571.314 466.379 573.429 466.968C575.143 467.512 576.735 468.407 578.11 469.601C578.578 469.926 578.926 470.407 579.096 470.961C579.265 471.516 579.246 472.112 579.041 472.649L579.014 472.819L578.989 472.571L579.677 473.235C579.548 473.471 579.481 473.787 579.363 473.796C577.109 474 575.853 475.687 574.347 477.005L574.412 477.074L573.4 476.533L573.464 476.557C572.51 475.575 571.924 476.681 571.151 476.831C570.443 476.126 569.922 475.117 568.746 475.128L568.208 474.65C568.219 474.742 568.213 474.899 568.247 474.91C568.43 474.96 568.616 474.996 568.804 475.018L568.638 476.375C567.913 476.072 567.319 475.84 566.742 475.572C566.069 475.27 565.311 475.25 564.63 475.514C564.101 475.722 563.53 475.793 562.966 475.721C562.402 475.65 561.861 475.438 561.392 475.104C560.792 474.786 560.138 474.595 559.468 474.543C558.723 475.476 558.121 476.215 557.525 476.954C557.391 476.784 557.364 476.24 557.032 476.78L557.565 476.88C557.586 477.195 557.584 477.511 557.559 477.825C557.435 478.602 557.672 479.038 558.528 479.059C558.687 479.065 558.854 479.287 559.018 479.411L559.054 479.311C558.398 479.347 557.74 479.32 557.088 479.23C556.459 479.042 555.846 478.797 555.258 478.497C553.763 480.094 553.74 480.189 551.917 479.608C550.757 479.237 549.56 479.602 548.416 478.883C547.85 478.53 546.832 479.713 547.208 480.359C547.512 480.833 547.712 481.369 547.794 481.929C547.875 482.489 547.836 483.059 547.68 483.599L545.677 484.19C545.526 483.893 545.42 483.574 545.365 483.244C545.371 482.07 545.385 480.929 543.918 480.478L542.945 481.395C542.143 480.447 541.372 479.534 540.63 478.655C540.166 478.893 539.755 479.227 539.423 479.637C539.09 480.046 538.843 480.523 538.697 481.037L538.731 480.958C538.051 481.176 537.384 481.433 536.733 481.727C536.254 481.972 536.179 481.524 535.951 481.356C534.276 480.117 532.515 480.373 530.779 480.741C530.576 480.826 530.398 480.963 530.261 481.138C530.124 481.313 530.033 481.521 529.994 481.744C529.956 481.966 529.972 482.195 530.042 482.411C530.112 482.626 530.232 482.82 530.393 482.976C532.192 484.226 533.052 486.142 534.244 487.861C535.307 488.821 537.277 488.175 537.928 490.2C537.082 490.56 536.146 490.643 535.247 490.437C534.348 490.231 533.529 489.747 532.901 489.048C531.473 490.197 533.552 492.386 531.711 493.286C531.219 492.755 530.865 492.105 530.685 491.396C530.505 490.687 530.504 489.945 530.683 489.24C530.751 489.074 530.777 488.892 530.76 488.712C530.742 488.531 530.681 488.358 530.582 488.208C530.482 488.057 530.348 487.935 530.192 487.851C530.035 487.767 529.861 487.725 529.686 487.729C529.315 488.349 528.91 488.969 528.567 489.622C528.371 490.003 528.046 490.524 528.17 490.848C529.13 493.319 527.42 495.395 527.693 497.754C527.758 498.35 526.849 498.83 526.53 498.429C526.214 498.025 525.8 497.713 525.331 497.528C524.861 497.342 524.354 497.289 523.86 497.374C523.046 497.299 522.244 497.112 521.475 496.818C520.912 499.851 520.698 502.698 521.59 505.61C521.725 506.167 522.019 506.671 522.434 507.056C523.969 508.245 525.364 509.617 526.588 511.143C527.055 511.639 527.602 512.047 528.205 512.348C530.121 513.411 530.616 514.679 529.722 516.407C529.274 517.269 528.842 518.138 528.285 519.232C527.641 519.322 526.795 519.43 525.716 519.574L525.418 521.435L540.515 528.34C539.908 529.572 539.395 530.608 538.836 531.731C540.105 532.615 541.21 533.39 542.221 534.095C542.273 534.491 542.397 534.762 542.319 534.916C541.835 535.876 541.24 536.773 540.812 537.756C540.368 538.788 541.525 539.788 541.078 541.014C540.807 541.761 541.497 542.923 541.799 544.086C540.841 544.544 539.803 544.803 538.744 544.849C537.769 545.006 536.727 544.911 535.791 545.151C534.017 545.619 532.322 545.805 530.656 544.574C526.749 544.225 523.412 541.973 519.813 540.594C519.229 540.275 518.553 540.193 517.918 540.363C517.088 540.705 516.192 540.854 515.295 540.798C514.398 540.743 513.522 540.484 512.729 540.041C512.517 539.956 512.295 539.902 512.068 539.881C510.239 539.49 509.248 540.198 509.192 542.013C509.213 542.582 509.277 543.149 509.385 543.709L509.435 543.621C509.109 543.566 508.639 543.343 508.481 543.484C507.949 543.935 507.321 544.25 506.648 544.406C505.974 544.561 505.273 544.552 504.6 544.379L501.543 548.827C502.058 550.279 502.704 551.729 502.118 553.678C501.845 553.806 501.544 553.854 501.245 553.819C500.946 553.784 500.661 553.666 500.42 553.478C499.636 553.002 498.794 552.626 497.999 552.15C496.965 551.562 495.753 551.414 494.624 551.739L494.025 553.854C493.024 553.643 492.383 553.508 491.758 553.378C490.918 553.88 490.058 556.041 490.397 556.89C490.507 557.219 490.729 557.497 491.021 557.671C492.955 558.334 493.093 559.956 493.238 561.54C493.35 562.762 493.352 563.994 493.404 565.177C494.061 565.735 494.669 566.255 495.222 566.729C495.267 567.289 495.177 567.851 494.959 568.363C494.741 568.876 494.403 569.323 493.974 569.665C492.935 569.954 492.544 569.043 491.883 568.663C490.189 567.69 488.441 566.863 487.501 564.919C487.142 564.462 486.68 564.103 486.156 563.875C485.099 563.178 484.009 562.538 482.89 561.956C482.09 561.607 481.267 561.316 480.43 561.084C479.131 561.439 480.321 563.462 478.572 562.766C478.584 563.221 478.521 563.463 478.608 563.641C479.242 564.993 480.185 566.17 481.353 567.068C483.578 568.817 485.741 570.67 487.119 573.382C488.535 576.178 491.046 578.198 493.515 580.102C494.407 580.799 495.157 581.673 495.721 582.671C496.399 583.801 496.842 585.151 498.022 585.999C498.385 586.282 498.679 586.649 498.881 587.069C499.082 587.489 499.187 587.951 499.185 588.418L499.222 588.334C498.893 588.342 498.346 588.222 498.264 588.376C497.282 590.171 495.507 591.438 495.018 593.815C495.485 595.06 496.044 596.501 497.778 596.748C499.501 596.986 500.229 596.341 501.292 593.999C501.683 594.209 501.993 594.549 502.174 594.963C502.354 595.377 502.392 595.841 502.283 596.278C502.113 596.922 501.903 597.55 501.686 598.179C501.469 598.807 501.231 599.412 501.029 599.951C499.972 600.262 499.146 600.541 498.295 600.749C497.339 600.979 496.482 601.519 495.85 602.291C495.532 602.734 495.186 603.154 494.813 603.549C493.198 604.956 491.635 606.239 489.271 606.62C486.005 607.208 482.689 607.469 479.367 607.401C476.044 607.283 472.75 607.848 469.426 607.975C467.867 607.985 466.308 607.873 464.763 607.64C461.534 607.258 458.313 606.765 455.092 606.41C451.967 606.067 448.898 605.351 445.803 604.775C441.545 603.982 437.67 602.007 433.575 600.738C430.768 599.868 427.952 599.001 425.104 598.335C421.793 597.502 418.589 596.256 415.562 594.626C412.69 593.251 409.682 592.207 406.593 591.515C406.267 591.437 405.931 591.41 405.598 591.437C402.813 591.635 402.815 591.639 400.417 590.758C400.117 590.998 399.756 591.239 399.443 591.529C399.08 591.882 398.619 592.111 398.124 592.186C397.628 592.26 397.121 592.177 396.669 591.947C395.317 591.342 393.884 590.957 392.421 590.807C391.477 590.73 390.746 590.684 390.033 591.409C389.691 591.706 389.27 591.892 388.823 591.943C388.377 591.995 387.924 591.91 387.522 591.699C386.24 591.228 384.987 590.675 383.771 590.042C381.183 588.566 378.582 587.082 376.627 584.685C376.406 584.418 376.016 584.251 375.883 583.965C374.914 581.94 373.034 581.03 371.302 579.901C369.57 578.773 367.933 577.465 366.224 576.289C363.764 574.587 361.426 572.668 358.62 571.583C357.093 569.534 354.577 569.095 352.66 567.624C350.781 566.335 348.807 565.201 346.757 564.233C343.617 562.548 340.415 560.993 337.317 559.238C334.645 557.724 332.108 555.888 329.19 554.946C328.009 554.563 327.413 553.252 325.914 553.275C324.796 553.283 323.594 552.429 322.451 551.909C321.309 551.39 320.195 550.825 319.077 550.263C318.45 549.981 317.847 549.646 317.273 549.26C314.851 547.448 311.932 546.694 309.429 545.057C309.337 544.985 309.234 544.929 309.125 544.891C302.961 543.239 298.087 538.935 292.666 535.773C289.196 533.747 285.927 531.339 282.566 529.1C280.969 528.851 280.289 527.084 278.595 526.681C277.176 526.341 275.95 524.943 274.614 524.054C273.278 523.165 271.848 522.423 270.596 521.434C269.493 520.596 268.227 520.017 266.888 519.739C264.242 519.025 261.734 517.838 259.477 516.232C256.411 514.208 253.239 512.355 250.408 510.122C249.617 510.475 248.751 510.618 247.888 510.536C247.026 510.454 246.195 510.151 245.472 509.654C242.135 507.393 238.575 505.537 235.255 503.259C234.971 503.066 234.716 502.823 234.444 502.606L234.533 502.455L234.505 502.642C231.258 500.311 227.997 497.989 224.761 495.644C222.165 493.768 219.591 491.865 217.008 489.97C216.719 488.976 215.613 489.436 215.127 488.802L215.055 488.87C215.38 488.49 215.382 488.2 214.791 488.078L214.911 488.117L214.127 488.373L214.132 488.257C210.349 485.63 206.576 482.99 202.778 480.378C198.134 477.175 193.219 474.385 189.005 470.513C188.02 469.603 186.625 469.173 185.458 468.453C184.483 467.852 183.544 467.189 182.648 466.468C181.485 465.527 180.477 464.363 179.256 463.528C175.907 461.243 172.808 458.639 169.653 456.098C166.682 453.707 163.576 451.507 160.586 449.148C158.601 447.576 156.655 445.93 154.806 444.193C153.893 443.335 153.289 442.156 152.449 441.207C152.006 440.716 151.318 440.06 150.812 440.092C149.377 440.17 148.853 438.994 148.054 438.26C146.445 436.773 146.526 436.425 148.59 434.99C149.533 435.427 150.559 435.887 151.575 436.368C153.201 437.147 154.461 438.206 154.836 440.134C154.983 440.812 155.356 441.418 155.89 441.845C158.243 443.5 160.672 445.04 163.075 446.623C163.216 446.687 163.362 446.738 163.512 446.776L165.804 445.837C165.732 445.587 165.738 445.167 165.534 444.957C162.549 441.902 159.547 438.862 156.526 435.837C154.498 433.81 152.765 431.514 150.727 429.49C149.168 427.938 147.577 426.407 146.064 424.814C145.486 424.122 144.954 423.39 144.473 422.623C144.832 422.439 145.03 422.355 145.209 422.245C145.566 422.021 146.116 421.864 146.219 421.537C146.37 421.002 146.342 420.428 146.139 419.908C145.852 419.42 145.485 418.985 145.055 418.625C143.272 416.74 141.698 414.758 141.564 411.909L139.437 411.84C136.831 408.915 134.12 405.921 131.477 402.875C130.963 402.263 130.592 401.536 130.394 400.753C130.176 399.897 130.395 398.95 130.149 398.11C129.77 397.298 129.294 396.537 128.731 395.847C129.277 395.883 129.818 395.984 130.344 396.147C130.728 396.386 131.176 396.491 131.619 396.446C132.063 396.401 132.479 396.208 132.805 395.896C133.317 395.422 133.929 395 134.576 395.35C136.163 396.203 137.37 395.582 138.594 394.821C138.959 394.594 139.315 394.362 139.676 394.132L139.783 394.325L139.617 394.125C140.415 392.874 139.49 391.483 139.642 390.161C139.695 389.744 139.142 389.155 138.769 388.734C137.854 387.694 136.834 386.743 135.946 385.679C135.529 385.148 135.206 384.546 134.992 383.9C134.673 382.993 134.774 382.879 136.129 381.71C137.794 382.644 139.642 383.394 141.254 381.863C142.685 380.505 144.147 379.079 142.639 376.035C143.649 376.741 144.695 377.39 145.772 377.977C147.295 378.677 148.587 377.631 148.075 376.024C147.684 374.323 146.864 372.754 145.699 371.477C144.615 370.469 143.392 369.621 141.934 368.47L141.561 366.62C141.772 366.427 141.905 366.185 142.074 366.17C143.787 365.995 145.509 365.855 147.359 365.692C147.31 364.784 147.514 363.884 147.946 363.096C148.378 362.309 149.02 361.668 149.798 361.248C150.025 361.106 150.281 361.017 150.546 360.986C150.812 360.955 151.081 360.984 151.336 361.07C152.734 361.897 153.921 361.343 155.121 361.022C155.471 360.315 155.796 359.667 156.12 359.014L156.245 359.186L156.065 359.015C153.675 355.182 150.901 351.616 147.792 348.375C146.82 347.388 145.827 346.429 144.846 345.46C145.062 344.875 145.472 344.864 145.871 345.201C146.575 345.792 147.218 346.457 147.914 347.067C149.081 348.095 150.335 348.857 152.077 348.461L153.524 346.436C154.145 346.467 154.909 346.284 155.419 346.578C155.883 346.892 156.435 347.037 156.984 346.988C157.534 346.939 158.05 346.7 158.447 346.309C158.755 346.063 159.254 346.046 159.688 345.919C160.665 346.628 161.557 347.34 162.514 347.951C162.935 348.241 163.411 348.434 163.909 348.517C164.407 348.6 164.915 348.572 165.399 348.433C165.835 348.298 166.23 348.053 166.549 347.72C166.869 347.387 167.103 346.976 167.229 346.525C166.34 345.4 165.387 344.127 163.865 343.916C163.131 343.855 162.427 343.58 161.836 343.122C161.245 342.663 160.791 342.041 160.528 341.33C160.225 340.516 159.667 339.827 158.944 339.374C158.22 338.922 157.373 338.731 156.538 338.832C156.001 338.189 155.497 337.517 155.029 336.82C154.518 336.052 153.84 335.418 153.051 334.966C151.922 334.197 150.874 333.309 149.923 332.317C147.095 329.424 144.248 326.567 141.222 323.892C140.444 323.203 139.5 322.693 138.781 321.955C138.079 321.238 137.012 320.854 136.745 319.686C136.665 319.477 136.543 319.289 136.387 319.132C136.231 318.976 136.045 318.855 135.841 318.778C133.123 317.846 131.414 315.517 129.301 313.77C126.102 311.128 123.014 308.355 119.81 305.73C118.774 305.001 117.684 304.357 116.551 303.803C115.744 303.378 114.959 302.909 114.199 302.398C113.633 301.986 113.238 301.502 112.45 301.963C112.237 302.089 111.406 301.54 111.09 301.123C109.928 299.689 108.883 298.16 107.964 296.551C107.128 294.89 105.98 293.413 104.588 292.209C103.587 291.355 102.272 290.599 102.135 289.029L102.056 289.031C102.588 288.953 103.115 288.871 103.857 288.766C103.758 285.876 103.844 283.093 101.224 280.771L101.947 278.39C101.829 277.936 101.619 277.512 101.331 277.146C101.044 276.779 100.685 276.479 100.279 276.263C99.9704 276.107 99.7232 275.845 99.5794 275.523C99.4357 275.201 99.4044 274.839 99.4908 274.498C99.6285 274.062 99.6375 273.592 99.5168 273.148C99.396 272.704 99.1509 272.305 98.8124 272.002C97.8954 270.998 97.2453 269.768 96.9257 268.432C97.1475 267.962 97.5039 267.573 97.9473 267.319C98.3907 267.065 98.9 266.957 99.4075 267.01C100.277 267.07 101.147 266.945 101.963 266.641C102.78 266.338 103.525 265.863 104.151 265.246C104.565 264.893 105.046 264.633 105.564 264.482C106.082 264.33 106.625 264.29 107.161 264.365C109.494 264.509 110.025 263.973 110.796 261.859C110.94 261.492 111.001 261.096 110.974 260.7C110.947 260.303 110.834 259.917 110.642 259.571C110.178 258.769 109.636 258.016 109.027 257.324C108.661 256.88 108.162 256.546 107.772 256.118C105.713 253.856 106.229 253.146 107.35 251.696C107.61 251.353 107.854 250.996 108.111 250.633C108.099 249.24 107.794 247.863 107.219 246.597C106.643 245.331 105.809 244.206 104.775 243.299C104.34 242.93 104.009 242.446 103.819 241.899C103.234 240.129 102.304 238.498 101.086 237.108C99.4918 235.141 98.9159 233.1 99.8007 230.773C100.176 229.833 100.243 228.788 99.9909 227.798C99.7022 226.658 100.285 226.232 101.503 226.485C103.046 226.803 104.589 227.153 106.12 227.543C106.639 227.724 107.195 227.755 107.727 227.633C108.259 227.511 108.747 227.24 109.137 226.85C109.808 226.226 110.891 226.059 111.78 225.658C113.568 224.851 114.2 223.53 113.517 221.587C112.904 219.848 112.075 218.183 111.382 216.47C111.052 215.752 110.81 214.994 110.661 214.216C110.541 212.5 110.092 210.823 109.341 209.281C108.984 208.577 108.895 207.763 109.093 207.001C109.732 204.9 109.714 202.58 110.816 200.635C111.174 200.072 111.406 199.433 111.498 198.764C111.589 198.095 111.537 197.412 111.346 196.763C111.195 196.27 111.468 195.674 111.542 195.147C113.27 193.556 115.392 193.688 117.512 194.218C118.593 194.485 119.661 194.745 120.751 194.967C121.85 195.281 122.894 195.778 123.842 196.437C125.099 197.153 126.527 197.477 127.952 197.369C127.024 194.368 126.833 191.197 123.697 189.495L123.468 187.336C124.209 187.117 124.811 186.905 125.435 186.769C126.796 186.462 128.222 186.476 129.38 185.48C130.424 184.579 131.732 184.708 133.16 185.142C137.616 186.476 141.905 188.408 146.42 189.537C147.557 189.823 148.587 190.772 149.65 191.44C150.761 192.141 151.618 191.733 151.606 190.406C151.562 189.653 151.471 188.904 151.334 188.162C148.511 185.894 144.681 186.059 142.108 183.171L144.083 180.532C143.748 180.16 143.375 179.825 142.971 179.534C140.651 178.266 138.311 177.052 135.982 175.79C135.457 175.455 134.853 175.274 134.238 175.267C133.624 175.26 133.02 175.427 132.495 175.75C131.842 176.138 131.125 176.396 130.378 176.512C130.114 176.538 129.858 176.622 129.63 176.76C129.402 176.898 129.206 177.087 129.057 177.312C128.412 178.274 127.516 177.933 126.674 177.54C126.349 177.425 126.079 177.183 125.923 176.866C125.767 176.549 125.738 176.183 125.841 175.846C126.204 174.713 126.715 173.64 127.214 172.415C129.056 172.364 130.478 170.966 132.48 171.171C132.805 171.168 133.125 171.09 133.416 170.944C133.707 170.798 133.962 170.588 134.164 170.327C135.331 168.687 136.977 168.448 138.845 168.629C138.95 168.64 139.058 168.572 139.373 168.48C139.744 166.973 141.423 166.653 142.59 165.611C142.57 165.182 142.562 164.744 142.531 164.305C142.316 161.183 142.316 161.183 139.845 159.39C140.359 158.604 141.093 159.047 141.623 159.327C143.246 160.185 144.884 160.997 146.51 161.834C149.66 163.463 152.647 165.448 155.726 167.241C159.212 169.266 162.715 171.258 166.236 173.215C166.556 173.397 167.212 173.399 167.407 173.189C167.513 173.01 167.578 172.807 167.595 172.597C167.612 172.386 167.582 172.174 167.506 171.977C167.126 171.025 166.615 170.116 166.139 169.206C165.828 168.599 165.488 168.01 165.162 167.417C165.378 167.06 165.55 166.792 165.711 166.516C166.026 165.97 166.579 165.438 166.588 164.867C166.556 164.398 166.404 163.945 166.145 163.555C165.887 163.165 165.533 162.852 165.119 162.651C164.019 162.025 162.852 161.538 161.71 160.995C160.758 160.607 159.826 160.167 158.919 159.677C157.251 158.651 155.736 157.301 153.998 156.487C152.271 155.681 150.338 155.414 148.512 154.829C147.553 154.522 146.523 154.24 145.932 153.215C145.836 152.656 145.948 152.083 146.245 151.611C146.542 151.138 147.003 150.8 147.534 150.665C147.967 150.552 148.423 150.554 148.857 150.672C149.292 150.789 149.692 151.018 150.02 151.337C151.155 152.139 152.366 152.82 153.633 153.368C155.505 154.216 157.438 154.889 158.968 156.441C159.528 156.84 160.137 157.16 160.779 157.39C161.409 157.623 161.987 157.986 162.479 158.455C163.614 160.055 165.335 160.353 166.922 160.904C167.504 161.112 168.129 161.147 168.726 161.005C169.322 160.863 169.866 160.55 170.295 160.101C171.074 159.195 171.753 158.202 172.319 157.139C173.004 156.032 172.739 154.785 172.348 153.612C172.783 153.007 173.367 152.533 174.042 152.241C174.716 151.949 175.455 151.848 176.184 151.949C177.984 152.197 179.729 152.347 181.038 154.058C181.741 154.823 182.54 155.486 183.415 156.029C185.241 157.24 186.762 158.887 187.845 160.827C188.114 161.338 188.459 161.803 188.868 162.205C191.713 165.081 194.722 167.777 197.803 170.388C199.474 171.806 201.219 173.149 202.784 174.682C206.438 178.259 210.618 181.155 214.524 184.413C216.546 186.148 218.863 187.478 221.353 188.336C221.968 188.467 222.593 188.537 223.22 188.543C222.724 185.858 222.082 183.539 219.584 182.15C218.048 181.297 216.588 180.349 216.358 178.369L216.315 178.441C217.171 178.961 218.045 179.452 218.886 180.011C220.519 181.085 222.089 182.259 223.752 183.274C226.404 184.888 229.179 186.278 231.761 187.996C233.899 189.319 236.197 190.342 238.593 191.037C240.337 191.548 242.018 192.272 243.6 193.195C244.697 193.874 244.716 193.842 246.731 193.734C247.156 192.995 246.713 192.458 246.191 191.97C243.121 189.153 239.768 186.685 236.19 184.61C234.522 183.625 232.99 182.317 231.004 181.953C230.37 181.703 229.804 181.296 229.357 180.768C227.741 179.269 225.981 177.945 224.106 176.815C221.405 175.282 218.944 173.332 216.81 171.033C217.032 170.369 217.522 170.688 217.87 170.878C220.392 172.249 222.91 173.637 225.413 175.055C226.104 175.475 226.772 175.935 227.414 176.431C229.745 178.139 232.046 179.893 235.036 180.044C235.784 180.223 236.523 180.445 237.248 180.708C237.75 180.731 238.251 180.679 238.737 180.552C239.238 179.67 238.61 179.167 238.073 178.808C236.559 177.757 234.99 176.794 233.373 175.924C231.846 175.122 230.427 174.116 229.154 172.93C228.212 172.075 227.1 171.422 226.127 170.608C225.678 170.109 225.281 169.563 224.943 168.98C226.715 169.032 227.775 170.024 228.964 170.48C230.219 170.956 231.396 171.69 232.686 171.327C233.101 170.694 232.673 170.329 232.354 170.079C231.638 169.505 230.851 169.014 230.085 168.493C228.4 167.489 226.837 166.278 225.433 164.885C224.68 164.164 223.843 163.543 222.942 163.036C221.012 161.773 218.998 160.637 217.125 159.286C213.754 156.841 210.115 154.854 206.655 152.565C205.888 152.055 204.971 151.734 204.591 150.798C204.431 150.408 204.254 149.797 204.429 149.558C204.754 149.139 205.225 148.866 205.744 148.797C206.312 148.78 206.872 148.948 207.347 149.275C210.579 151.574 214.351 152.591 217.794 154.386C219.075 155.138 220.456 155.687 221.892 156.014C222.994 156.302 224.049 156.758 225.023 157.367C226.545 158.193 228.057 159.036 229.488 160.008C230.862 160.891 232.508 161.194 234.082 160.854L234.608 158.734C234.467 158.473 234.291 158.234 234.086 158.024C229.165 154.777 224.241 151.536 219.314 148.302C218.83 147.989 218.365 147.645 217.922 147.273C216.612 146.125 216.58 145.712 217.688 143.599C221.434 145.371 225.187 147.36 229.655 147.112C229.567 146.715 229.43 146.331 229.248 145.97C227.546 143.514 224.985 142.092 222.713 140.319C221.442 139.327 220.207 138.282 218.961 137.261L218.918 137.332C220.508 137.116 221.588 138.388 222.859 139.032C225.717 140.471 228.521 141.983 231.67 142.591C232.767 142.827 233.82 143.247 234.788 143.834C236.751 144.988 238.66 145.654 240.811 144.779C241.726 144.5 242.665 144.312 243.617 144.216C244.954 142.306 244.267 140.475 242.954 138.927C241.594 137.369 240.431 135.639 239.494 133.78C238.997 132.858 238.351 132.03 237.584 131.331C236.931 130.788 236.462 130.046 236.245 129.213C236.028 128.379 236.075 127.5 236.378 126.702C236.735 125.663 237.125 124.64 237.548 123.632C238.007 122.526 238.514 121.446 239.063 120.22C238.559 119.58 238.001 118.987 237.395 118.447C236.827 118.075 236.37 117.547 236.075 116.923C235.78 116.299 235.661 115.604 235.729 114.917L235.639 114.933C236.527 114.949 237.412 114.959 238.472 114.977C238.869 114.222 239.414 113.561 240.073 113.035C240.731 112.51 241.488 112.131 242.298 111.922C243.054 111.763 243.582 110.826 244.262 110.303C244.786 109.796 245.447 109.467 246.16 109.357C246.872 109.247 247.602 109.363 248.255 109.689C249.198 110.062 250.196 110.262 251.203 110.282C251.477 110.323 251.755 110.288 252.01 110.181C252.266 110.074 252.488 109.899 252.655 109.673C252.822 109.448 252.927 109.18 252.961 108.897C252.994 108.615 252.954 108.327 252.845 108.064C252.469 107.226 251.946 106.466 251.302 105.822C250.256 104.731 249.146 103.706 247.98 102.753C246.761 101.703 245.816 100.356 245.232 98.8361C244.636 97.4631 244.251 96.2206 245.252 95.0662C246.039 94.1631 245.134 93.094 245.504 92.0212C247.019 91.91 248.541 92.2137 249.915 92.9016C251.579 93.7313 253.289 94.3033 255.293 93.6263C255.566 92.6237 255.872 91.4856 256.164 90.4047C255.742 88.256 253.53 87.9248 252.068 86.0917C253.451 86.5615 254.376 86.8736 255.41 87.2267C255.577 87.2318 255.742 87.2063 255.899 87.1513C258.091 85.9703 258.28 85.4824 257.445 83.2565C257.281 82.8244 257.119 82.3943 256.916 81.9778C256.609 81.3534 256.262 80.7466 255.906 80.0922C256.093 79.6416 256.399 79.2555 256.789 78.9785C257.18 78.7014 257.64 78.5447 258.116 78.5259C258.985 78.5507 259.843 78.3558 260.617 77.9584C261.014 77.5797 261.528 77.3575 262.07 77.3305C262.613 77.3036 263.149 77.4735 263.587 77.8107C263.979 78.0554 264.652 77.7843 265.198 77.7909C265.901 77.7319 266.61 77.8211 267.282 78.0532C267.953 78.2853 268.573 78.6552 269.104 79.1407C270.684 80.6011 272.72 81.5454 274.562 82.715L274.51 82.9868L274.506 82.685C275.724 84.068 277.156 85.2336 278.741 86.1336C280.406 86.9948 281.827 88.3608 283.427 89.3912C284.504 90.2543 285.833 90.7099 287.189 90.6812C288.49 90.5809 289.691 91.7924 290.634 92.7108C291.17 93.2702 291.753 93.7795 292.376 94.2322C293.404 94.7597 294.223 95.6412 294.69 96.7225C294.836 97.0378 295.054 97.312 295.325 97.521C297.715 99.676 300.084 101.858 302.526 103.944C303.198 104.367 303.747 104.97 304.113 105.689C304.265 106.007 304.503 106.273 304.797 106.457C309.256 109.506 312.993 113.527 317.509 116.492C318.124 116.812 318.693 117.219 319.199 117.701C320.2 118.846 321.522 119.638 322.978 119.964C324.528 120.386 325.877 121.385 326.763 122.768C327.571 123.889 328.634 124.787 329.857 125.384C331.93 126.624 333.913 128.019 335.79 129.558C336.338 130.039 336.977 130.394 337.666 130.6C338.355 130.806 339.078 130.857 339.784 130.751C340.202 130.008 339.783 129.527 339.387 129.153C337.701 127.562 336.024 125.941 334.243 124.464C332.747 123.214 331.48 121.71 329.741 120.709C328.867 120.17 328.214 119.318 327.909 118.318C327.567 117.08 326.793 116.012 325.737 115.322C325.008 114.76 324.322 114.14 323.684 113.47C323.307 113.055 323.058 112.534 322.97 111.974C322.965 111.741 322.915 111.51 322.823 111.295C322.731 111.08 322.598 110.886 322.433 110.724C322.268 110.562 322.074 110.435 321.861 110.35C321.649 110.266 321.423 110.226 321.197 110.233C319.215 110.204 318.236 108.673 316.98 107.528C317.027 105.002 314.213 104.331 313.466 102.304C313.298 101.995 313.043 101.746 312.735 101.591C308.244 98.9579 304.463 95.308 300.243 92.294C299.764 91.9867 299.376 91.5477 299.123 91.0269C297.767 87.2547 294.674 85.2434 291.565 83.2369C291.16 83.0501 290.803 82.7697 290.52 82.4176C289.613 80.7024 288.093 79.6477 286.635 78.496C284.461 76.7778 282.251 75.0966 280.162 73.2709C278.845 71.9549 277.234 70.9962 275.475 70.4821C275.095 70.39 274.777 69.9103 274.266 69.4657C274.668 68.935 275.071 68.4732 275.405 67.9684C276.234 66.708 277.086 65.5147 276.706 63.7178C276.427 62.4181 277.267 61.9163 278.49 62.391C283.014 64.154 283.617 64.4902 287.856 67.8148C290.379 69.8007 292.897 71.8135 295.313 73.9137C296.69 75.1104 297.992 76.4375 299.428 77.6001C299.83 78.0097 300.191 78.4589 300.508 78.9411C300.845 79.5446 301.292 80.0754 301.825 80.5035C304.075 81.6265 305.467 83.6522 307.146 85.3848C307.791 86.0448 308.495 86.6394 309.249 87.1604C311.063 88.3893 312.725 89.8455 314.194 91.4952C315.156 92.4954 316.176 93.4337 317.249 94.3046C317.597 94.6095 318.133 94.7822 318.328 95.1455C320.045 98.3424 323.492 99.6342 325.783 102.212C326.911 103.476 328.508 104.315 329.853 105.402C332.431 107.329 334.913 109.389 337.29 111.575C340.258 114.509 343.617 116.919 346.728 119.652C347.345 120.17 347.994 120.645 348.672 121.073C351.808 123.003 354.74 125.268 357.421 127.83C358.09 128.463 358.875 128.952 359.729 129.268C360.582 129.583 361.487 129.719 362.388 129.666C362.648 129.64 362.9 129.557 363.125 129.422C363.351 129.288 363.546 129.105 363.696 128.886C364.018 128.248 364.266 127.573 364.437 126.875C358.837 121.58 353.368 116.411 347.9 111.242C347.241 110.585 346.549 109.963 345.828 109.38C343.638 107.669 341.55 105.822 339.576 103.849C337.591 101.903 335.333 100.247 333.21 98.4517C332.59 97.9332 331.996 97.3816 331.432 96.7995C327.734 92.7808 323.785 89.0169 319.609 85.533C317.803 84.094 316.236 82.3428 314.483 80.8197C312.387 79.0059 310.221 77.2644 308.073 75.5176C305.835 73.6989 303.585 71.8969 301.323 70.1117C299.971 69.0479 298.578 68.0394 297.214 67.0117C298.641 64.5384 298.794 63.7848 297.985 61.6661C297.75 60.8895 297.304 60.197 296.7 59.6718C294.361 58.1321 292.733 55.8064 290.539 54.1139C289.39 53.1549 288.031 52.5054 286.583 52.2243C285.398 51.9302 284.237 51.5373 283.111 51.0492C283.438 48.2531 284.934 47.3596 287.133 48.4431C287.711 48.8198 288.328 49.1264 288.972 49.357C289.359 49.425 289.728 49.5801 290.052 49.8112C290.376 50.0422 290.648 50.3434 290.847 50.6936C291.569 51.7599 292.534 52.6285 293.654 53.2221C294.705 53.8675 295.82 54.3489 296.596 55.5437C297.085 56.3017 298.306 56.6214 299.226 57.0743C300.147 57.5272 301.118 57.8515 301.61 58.9407C301.82 59.3471 302.16 59.666 302.573 59.8418C304.262 60.4821 305.379 61.8326 306.578 63.0803C308.488 65.0709 310.658 66.7751 313.025 68.1419C314.548 68.9219 316.175 69.457 317.85 69.7283C318.369 69.7628 318.871 69.9348 319.309 70.2279C321.105 71.8437 322.568 73.8153 323.61 76.0234C324.001 76.8495 324.468 77.6359 325.003 78.3718C326.192 79.7954 327.307 81.412 328.785 82.4324C331.088 84.0179 332.85 86.1186 334.87 87.9675C336.083 89.1947 337.393 90.3171 338.785 91.3226C340.171 92.3555 341.432 93.5571 342.54 94.9013C343.707 96.2098 345.195 97.1672 346.844 97.6696C347.52 97.7651 348.203 97.7795 348.881 97.7125C348.479 94.93 346.467 93.453 344.763 91.821C344.172 91.2489 343.506 90.8248 343.342 89.9604L343.502 89.8561L343.325 90.0282C343.037 89.9718 342.776 89.8146 342.587 89.5833C342.397 89.3519 342.291 89.0607 342.285 88.7594L342.216 88.8595C343.032 88.5784 343.841 88.2944 344.428 88.0848C345.783 89.236 347.192 90.3167 348.65 91.323C349.952 92.1396 350.111 93.9389 351.617 94.4872C352.87 96.2418 354.992 96.8222 356.439 98.2476C357.886 99.673 358.93 101.528 360.367 102.98C361.734 104.21 363.171 105.355 364.67 106.408C365.255 106.76 365.78 107.209 366.224 107.736C367.348 109.543 368.957 110.067 371.005 110.053C371.426 109.589 371.912 109.032 372.433 108.441C373.752 108.661 374.982 109.28 375.967 110.218C376.495 110.663 377.068 111.052 377.619 111.464C378.004 111.802 378.499 111.976 379.001 111.951C379.504 111.926 379.975 111.703 380.32 111.328C379.903 107.826 380.114 107.646 376.176 106.571C375.468 105.72 374.738 104.843 374 103.956L373.993 103.918ZM168.246 198.258L168.36 198.386L168.193 198.366L168.029 198.201L168.246 198.258ZM406.873 138.309L407.144 138.391L406.847 138.348L406.707 138.149L406.873 138.309ZM495.084 544.269L494.569 544.253L495.13 544.183L495.39 544.674L495.627 544.381L495.084 544.269ZM620.814 405.559C620.612 404.801 620.351 404.06 620.036 403.342C619.912 403.173 619.754 403.033 619.573 402.932C619.391 402.832 619.192 402.773 618.987 402.759C618.373 402.77 618.509 403.358 618.636 403.754C618.774 404.253 619.036 404.706 619.397 405.069C619.759 405.432 620.205 405.691 620.692 405.819L621.305 406.046L620.814 405.559ZM138.538 173.063C138.929 173.461 139.357 173.82 139.816 174.132C142.026 175.352 144.293 176.462 146.489 177.709C149.58 179.455 152.939 180.711 155.526 183.407C156.565 184.347 157.838 184.967 159.197 185.196C159.947 185.397 160.664 185.718 161.321 186.146C164.256 187.98 167.142 189.879 170.082 191.693C170.787 191.977 171.524 192.167 172.275 192.258C172.034 191.562 172.007 191.018 171.733 190.796C171.235 190.335 170.629 190.017 169.976 189.873C169.073 189.76 168.23 189.335 167.587 188.666C166.922 188.014 166.225 187.4 165.497 186.824C164.031 185.706 162.523 184.643 161.035 183.552C159.098 183.735 158.072 182.201 156.829 181.074C156.484 180.762 156.111 180.484 155.716 180.245C151.442 177.742 147.046 175.473 142.546 173.445C141.717 173.054 140.841 172.783 139.943 172.641C139.483 172.575 138.984 172.959 138.498 173.143C138.46 173.061 138.409 172.986 138.349 172.92C138.31 172.892 138.23 172.913 138.17 172.915L138.538 173.063ZM160.612 351.805L160.45 351.904L160.612 351.732C161.348 352.442 162.031 353.209 162.656 354.025C163.069 354.704 163.572 355.32 164.151 355.855C167.411 358.775 170.407 361.994 173.104 365.472C173.448 365.925 173.85 366.329 174.298 366.673C175.415 367.482 176.569 368.237 177.727 368.987C178.854 369.717 179.07 369.661 180.558 368.327C180.302 367.746 180.072 367.099 179.745 366.502C179.532 366.121 179.187 365.56 178.881 365.52C177.11 365.3 176.184 363.837 175.089 362.754C171.885 359.603 168.831 356.303 165.704 353.083C165.057 352.419 164.375 351.791 163.663 351.203C163.217 350.838 162.73 350.531 162.212 350.289C162.091 350.223 161.957 350.185 161.82 350.179C161.683 350.173 161.547 350.198 161.422 350.253C161.297 350.308 161.186 350.392 161.096 350.497C161.007 350.603 160.941 350.728 160.905 350.864C160.792 351.172 160.696 351.487 160.616 351.807L160.612 351.805ZM503.912 241.064L503.75 241.152L503.817 241.028C505.133 241.945 506.444 242.867 507.769 243.777C508.286 244.017 508.771 244.325 509.211 244.694C511.206 247.09 513.93 248.36 516.458 249.937C517.383 250.393 518.23 251.005 518.964 251.745C521.032 254.381 524.011 255.747 526.537 257.727C528.136 258.864 529.828 259.856 531.592 260.69C531.797 260.753 532.012 260.772 532.224 260.745C532.437 260.719 532.641 260.648 532.824 260.536C532.941 260.46 533.039 260.359 533.113 260.238C533.187 260.118 533.235 259.982 533.252 259.84C533.269 259.699 533.256 259.554 533.213 259.417C533.171 259.281 533.1 259.155 533.005 259.05C531.986 257.502 530.653 256.201 529.098 255.239C527.614 254.366 526.205 253.362 524.888 252.238C523.583 251.136 521.813 250.785 520.789 249.208C520.276 248.564 519.575 248.109 518.792 247.912C517.38 247.432 516.149 246.5 515.279 245.252C514.722 244.508 514.06 243.854 513.316 243.31C511.397 242.05 509.39 240.937 507.437 239.73C506.845 239.374 506.289 238.957 505.776 238.487C503.406 236.3 501.069 234.074 498.703 231.879C497.002 230.303 495.305 228.721 493.535 227.235C492.127 226.049 490.721 224.657 489.094 223.977C487.215 223.194 485.833 221.823 484.239 220.716C481.594 218.87 479.026 216.903 476.464 214.934C474.74 213.611 473.028 212.252 471.411 210.798C470.731 210.007 469.808 209.48 468.8 209.305C468.068 209.244 467.745 208.557 467.261 208.063C464.85 205.617 462.853 202.674 459.56 201.274C459.148 201.069 458.765 200.809 458.419 200.499C456.071 198.639 453.747 196.746 451.381 194.908C450.74 194.466 450.071 194.068 449.38 193.717C448.846 194.254 448.751 194.741 449.123 195.32C450.451 197.367 452.102 199.172 454.007 200.657C457.306 203.125 460.424 205.843 463.333 208.789C465.45 211.118 468.007 212.974 470.844 214.24C473.048 215.213 474.878 216.919 476.041 219.084C476.52 220.004 477.225 220.779 478.085 221.331C478.97 221.834 479.766 222.488 480.439 223.267C481.974 224.844 483.427 226.615 485.215 227.797C487.083 229.026 489.072 230.053 490.955 231.325C493.246 232.873 495.326 234.686 497.596 236.236C499.783 237.723 501.817 239.446 503.915 241.066L503.912 241.064ZM375.836 112.565C374.748 113.262 374.683 114.113 375.066 114.814C376.396 117.27 377.957 119.668 380.533 120.888C382.112 121.556 383.412 122.786 384.193 124.354C385.16 126.447 386.924 127.362 388.681 128.374C389.09 128.57 389.538 128.659 389.986 128.632C390.287 128.627 390.755 128.465 390.81 128.26C390.911 127.897 390.91 127.298 390.679 127.052C388.38 124.621 386.029 122.245 383.695 119.845C383.294 119.448 382.917 119.026 382.567 118.581C380.658 116.21 378.384 114.178 375.839 112.567L375.836 112.565ZM372.332 133.879C371.592 135.79 371.615 135.783 371.818 136.459C372.884 140.03 375.524 142.47 378.087 144.935C378.724 145.418 379.455 145.754 380.228 145.917C380.356 145.968 380.492 145.992 380.629 145.988C380.766 145.984 380.9 145.952 381.024 145.893C381.148 145.834 381.259 145.75 381.351 145.646C381.442 145.542 381.512 145.42 381.557 145.287C381.705 144.884 381.807 144.463 381.984 143.869C380.65 142.202 379.407 140.403 377.907 138.852C376.268 137.153 374.383 135.688 372.335 133.88L372.332 133.879ZM169.631 347.86C168.01 350.036 168.067 349.998 169.391 351.913C170.306 353.253 171.388 354.464 172.61 355.514C174.102 356.796 175.552 358.127 177.019 359.437C177.844 360.175 178.807 360.319 179.386 359.795C179.926 359.306 179.85 358.136 179.192 357.313C178.952 357.064 178.696 356.831 178.427 356.616C177.499 355.741 176.62 354.805 175.641 354.003C174.195 352.811 172.824 351.603 172.647 349.614C171.568 348.986 170.587 348.417 169.634 347.861L169.631 347.86ZM395.183 131.992C395.01 132.447 394.903 132.927 394.868 133.416C395.075 135.336 396.249 136.748 397.614 138.026C398.202 138.572 399.093 138.978 399.369 139.634C399.956 141.01 401.149 141.734 402.076 142.734C402.237 142.853 402.421 142.936 402.615 142.978L404.617 142.388C404.506 141.811 404.303 141.256 404.018 140.744C402.686 139.17 401.271 137.662 399.886 136.135C398.954 135.105 398.057 134.045 397.06 133.087C396.476 132.651 395.848 132.284 395.187 131.992L395.183 131.992ZM131.924 195.432L130.545 198.803C130.99 199.522 131.636 200.087 132.396 200.422C133.156 200.757 133.995 200.845 134.8 200.676C135.956 200.519 136.657 199.979 136.688 198.85C136.716 197.867 136.87 196.827 135.986 195.743C134.735 195.645 133.337 195.54 131.928 195.432L131.924 195.432ZM169.796 202.964C168.406 201.25 167.657 200.021 166.234 199.295C165.043 198.846 164.064 197.936 163.507 196.76C162.641 194.391 160.712 193.14 158.703 191.976C158.484 191.854 158.126 191.985 157.743 191.998C157.846 192.435 157.819 192.846 158.006 193.051C159.346 194.488 160.713 195.897 162.107 197.279C163.01 197.988 163.85 198.78 164.616 199.645C165.531 200.992 166.854 201.756 168.04 202.721C168.261 202.9 168.669 202.827 169.801 202.964L169.796 202.964ZM525.73 250.304C525.304 248.156 524.78 246.772 523.488 245.895C522.993 245.467 522.381 245.21 521.74 245.161C521.099 245.112 520.461 245.274 519.919 245.623C520.191 246.206 520.321 247.002 520.761 247.31C522.151 248.281 523.649 249.071 525.735 250.304L525.73 250.304ZM604.054 381.604C604.012 380.896 603.785 380.21 603.398 379.62C603.011 379.03 602.477 378.557 601.854 378.251C601.548 378.081 601.014 378.284 600.615 378.402C600.508 378.416 600.406 378.46 600.322 378.529C600.238 378.599 600.174 378.691 600.137 378.796C600.1 378.9 600.091 379.014 600.113 379.124C600.134 379.234 600.184 379.336 600.257 379.419C600.674 380.073 601.238 380.613 601.901 380.994C602.563 381.374 603.304 381.584 604.058 381.604L604.054 381.604ZM605.198 392.1C605.447 391.895 605.608 391.597 605.648 391.27C605.687 390.943 605.603 390.611 605.412 390.344C604.892 389.914 604.314 389.567 603.696 389.312C603.542 389.265 603.38 389.259 603.223 389.294C603.067 389.329 602.922 389.405 602.803 389.514C602.684 389.623 602.593 389.761 602.54 389.917C602.488 390.072 602.474 390.24 602.501 390.403C602.541 390.713 602.648 391.011 602.814 391.274C602.98 391.537 603.201 391.758 603.461 391.921C603.721 392.084 604.013 392.185 604.314 392.216C604.616 392.248 604.92 392.208 605.203 392.101L605.198 392.1ZM415.48 152.004C415.306 150.485 413.963 149.78 413.26 148.678C412.901 148.111 412.338 147.312 411.719 147.77C410.899 148.374 412.068 148.753 412.25 149.257C412.512 149.963 412.948 150.589 413.516 151.071C414.083 151.552 414.761 151.874 415.482 152.002L415.48 152.004ZM500.862 457.978C500.403 457.305 499.88 456.682 499.3 456.117C499.074 455.943 498.49 456.094 498.178 456.277C498.024 456.37 498.018 456.892 498.118 457.164C498.554 458.342 499.499 458.036 500.862 457.978ZM493.283 583.854C492.994 584.345 492.79 584.884 492.68 585.449C492.724 585.652 492.815 585.842 492.944 586.003C493.073 586.163 493.238 586.29 493.424 586.372C493.618 586.392 493.814 586.37 493.999 586.308C494.184 586.246 494.354 586.144 494.498 586.01C494.58 585.886 494.629 585.741 494.641 585.591C494.652 585.44 494.626 585.289 494.563 585.151C494.175 584.681 493.746 584.247 493.282 583.857L493.283 583.854ZM398.921 131.011C398.494 129.979 398.1 128.917 396.706 128.675C397.51 130.314 397.51 130.314 398.921 131.011ZM408.182 147.324C408.589 145.907 408.103 145.366 407.266 145.102C407.125 145.065 406.978 145.064 406.837 145.098C406.697 145.132 406.566 145.2 406.457 145.297C406.308 145.498 406.281 146.042 406.426 146.167C406.983 146.597 407.57 146.984 408.182 147.324V147.324ZM461.681 189.742C461.87 189.545 462.098 189.416 462.082 189.308C462.057 189.209 462.013 189.115 461.953 189.034C461.892 188.952 461.817 188.884 461.731 188.833C461.633 188.784 461.432 188.946 461.276 189.015L461.681 189.742ZM158.532 361.176L157.721 360.815C157.698 360.921 157.617 361.07 157.66 361.12C157.843 361.342 158.06 361.534 158.263 361.74L158.532 361.176ZM639.864 415.079C639.644 414.894 639.481 414.67 639.377 414.691C639.281 414.708 639.191 414.748 639.114 414.808C639.036 414.868 638.974 414.946 638.931 415.036C638.894 415.146 639.091 415.361 639.19 415.522L639.864 415.079ZM602.344 388.588C602.204 388.467 602.052 388.361 601.891 388.272C601.822 388.246 601.619 388.373 601.622 388.398C601.675 388.567 601.743 388.73 601.826 388.886L602.344 388.588ZM401.798 133.695L401.746 133.487L401.565 133.634L401.798 133.695ZM236.715 173.604C236.73 173.399 236.725 173.193 236.699 172.989C236.684 172.915 236.519 172.864 236.422 172.803C236.369 172.97 236.243 173.158 236.281 173.301C236.321 173.427 236.558 173.504 236.714 173.604L236.715 173.604ZM555.584 477.055L555.413 477.203L555.65 477.243L555.584 477.055Z" fill="#C7D6D3"/>
</svg>
