<svg width="1626" height="737" viewBox="0 0 1626 737" fill="none" xmlns="http://www.w3.org/2000/svg">
<path fill-rule="evenodd" clip-rule="evenodd" d="M1621.72 22.3329C1620.23 28.4063 1620.33 34.255 1620.15 40.4154C1620.12 41.6185 1621.06 42.6187 1622.26 42.6549C1623.45 42.6912 1624.45 41.7417 1624.49 40.5386C1624.66 34.6971 1624.52 29.1383 1625.94 23.3693C1626.22 22.2025 1625.51 21.0211 1624.35 20.7385C1623.19 20.4486 1622.01 21.166 1621.72 22.3329Z" fill="black"/>
<path fill-rule="evenodd" clip-rule="evenodd" d="M1609.06 10.5629C1598.94 19.8253 1589.41 31.7401 1582.75 43.771C1582.17 44.8219 1582.55 46.1482 1583.6 46.728C1584.65 47.3078 1585.97 46.9309 1586.55 45.88C1592.99 34.2478 1602.21 22.7242 1611.99 13.7735C1612.87 12.9618 1612.93 11.5848 1612.12 10.7006C1611.31 9.81641 1609.94 9.75122 1609.06 10.5629Z" fill="black"/>
<path fill-rule="evenodd" clip-rule="evenodd" d="M1606.5 0.445409C1597.25 -1.08381 1587.71 1.52525 1579.3 5.21423C1578.2 5.69982 1577.7 6.98259 1578.18 8.07696C1578.66 9.17858 1579.94 9.6787 1581.04 9.20036C1588.7 5.83752 1597.36 3.34435 1605.79 4.73587C1606.97 4.93156 1608.09 4.12711 1608.28 2.94576C1608.48 1.76442 1607.68 0.641091 1606.5 0.445409Z" fill="black"/>
<path fill-rule="evenodd" clip-rule="evenodd" d="M10.1476 713.41C10.1227 707.156 8.61115 701.506 7.29216 695.485C7.0344 694.31 5.87698 693.568 4.70675 693.823C3.53582 694.078 2.79594 695.241 3.053 696.417C4.30386 702.125 5.78312 707.485 5.80796 713.425C5.81272 714.627 6.79017 715.6 7.9871 715.593C9.18509 715.593 10.1531 714.611 10.1476 713.41Z" fill="black"/>
<path fill-rule="evenodd" clip-rule="evenodd" d="M25.2869 721.761C32.8554 710.325 39.2144 696.457 42.7619 683.171C43.0709 682.01 42.3825 680.815 41.2259 680.506C40.0692 680.197 38.8777 680.883 38.5688 682.044C35.138 694.89 28.9881 708.303 21.6683 719.356C21.0074 720.357 21.2813 721.708 22.2794 722.37C23.2775 723.032 24.6259 722.763 25.2869 721.761Z" fill="black"/>
<path fill-rule="evenodd" clip-rule="evenodd" d="M30.2236 730.957C39.5684 730.2 48.1865 725.359 55.4532 719.742C56.4002 719.005 56.5751 717.639 55.8447 716.694C55.1118 715.741 53.7478 715.566 52.7991 716.296C46.1818 721.415 38.3806 725.932 29.8699 726.623C28.6757 726.719 27.7864 727.771 27.8838 728.964C27.9805 730.157 29.0302 731.053 30.2236 730.957Z" fill="black"/>
</svg>
