<svg width="1626" height="737" viewBox="0 0 1626 737" fill="none" xmlns="http://www.w3.org/2000/svg">
<path fill-rule="evenodd" clip-rule="evenodd" d="M1621.72 22.3328C1620.23 28.4062 1620.33 34.2549 1620.15 40.4153C1620.12 41.6184 1621.06 42.6186 1622.26 42.6549C1623.45 42.6911 1624.45 41.7416 1624.49 40.5386C1624.66 34.6971 1624.52 29.1383 1625.94 23.3693C1626.22 22.2024 1625.51 21.0211 1624.35 20.7384C1623.19 20.4485 1622.01 21.166 1621.72 22.3328Z" fill="black"/>
<path fill-rule="evenodd" clip-rule="evenodd" d="M1609.06 10.5628C1598.94 19.8251 1589.41 31.74 1582.75 43.7708C1582.17 44.8217 1582.55 46.1481 1583.6 46.7279C1584.65 47.3077 1585.97 46.9308 1586.55 45.8799C1592.99 34.2477 1602.21 22.7241 1611.99 13.7734C1612.87 12.9617 1612.93 11.5847 1612.12 10.7005C1611.31 9.81628 1609.94 9.7511 1609.06 10.5628Z" fill="black"/>
<path fill-rule="evenodd" clip-rule="evenodd" d="M1606.5 0.445409C1597.25 -1.08381 1587.71 1.52525 1579.3 5.21423C1578.2 5.69982 1577.7 6.98259 1578.18 8.07696C1578.66 9.17858 1579.94 9.6787 1581.04 9.20036C1588.7 5.83752 1597.36 3.34435 1605.79 4.73587C1606.97 4.93156 1608.09 4.12711 1608.28 2.94576C1608.48 1.76442 1607.68 0.641091 1606.5 0.445409Z" fill="black"/>
<path fill-rule="evenodd" clip-rule="evenodd" d="M10.1475 713.41C10.1226 707.156 8.61103 701.506 7.29204 695.485C7.03428 694.31 5.87685 693.568 4.70663 693.823C3.5357 694.078 2.79582 695.241 3.05288 696.417C4.30374 702.125 5.78299 707.485 5.80784 713.425C5.8126 714.627 6.79004 715.6 7.98698 715.593C9.18497 715.593 10.1529 714.611 10.1475 713.41Z" fill="black"/>
<path fill-rule="evenodd" clip-rule="evenodd" d="M25.2871 721.761C32.8557 710.325 39.2146 696.457 42.7622 683.171C43.0711 682.01 42.3828 680.815 41.2261 680.506C40.0695 680.198 38.878 680.883 38.569 682.044C35.1382 694.89 28.9884 708.303 21.6686 719.356C21.0076 720.357 21.2816 721.708 22.2797 722.37C23.2777 723.033 24.6262 722.763 25.2871 721.761Z" fill="black"/>
<path fill-rule="evenodd" clip-rule="evenodd" d="M30.2237 730.957C39.5685 730.2 48.1866 725.359 55.4533 719.742C56.4003 719.005 56.5752 717.639 55.8448 716.694C55.1119 715.741 53.7479 715.566 52.7992 716.296C46.182 721.415 38.3807 725.932 29.87 726.623C28.6759 726.719 27.7865 727.771 27.8839 728.964C27.9806 730.157 29.0303 731.053 30.2237 730.957Z" fill="black"/>
</svg>
