<svg width="619" height="585" viewBox="0 0 619 585" fill="none" xmlns="http://www.w3.org/2000/svg">
<path d="M317.565 87.9273C318.21 88.0788 318.86 88.2302 319.745 88.4355C319.419 87.6606 319.148 87.0217 318.78 86.1462L320.881 86.5269C321.951 87.3641 321.807 89.1 323.373 89.3365C324.224 88.9026 323.393 88.0522 323.745 87.5609C324.141 87.0941 324.568 86.6559 325.023 86.2494C325.519 86.7883 326.245 87.2631 326.473 87.8946C326.89 88.7954 327.533 89.5689 328.335 90.1367C329.794 91.4214 331.407 92.5378 333.094 93.8315C333.554 93.42 334.013 93.0191 334.465 92.6167C335.011 93.1916 335.615 93.833 336.22 94.4655C336.429 94.679 336.799 94.8618 336.838 95.0856C337.21 97.1836 338.856 97.4768 340.466 97.8646C340.833 97.9652 341.195 98.085 341.551 98.2235C343.7 100.333 343.814 103.006 344.99 105.241C345.191 105.62 345.089 106.159 345.091 106.622C345.084 107.6 345.306 108.566 345.738 109.441C346.17 110.317 346.8 111.075 347.574 111.655C349.305 112.946 350.698 114.652 351.631 116.621C351.869 117.221 352.222 117.766 352.668 118.226C353.115 118.685 353.647 119.05 354.232 119.297L354.439 120.798C356.53 121.285 358.352 122.599 359.504 124.451C360.121 125.452 360.863 126.39 361.453 127.402C362.712 129.564 364.547 131.244 366.273 132.981C368.762 135.496 371.283 137.966 373.669 140.591C375.27 142.181 376.951 143.684 378.706 145.094C380.719 146.803 382.441 148.841 383.803 151.123L383.856 151.028C382.734 151.356 381.985 150.46 381.314 149.872C379.244 148.063 377.311 146.089 375.322 144.186C374.391 143.315 373.41 142.501 372.384 141.75C370.781 140.454 369.307 138.999 367.983 137.407C365.671 134.963 363.168 132.716 360.5 130.687C360.261 130.532 360.005 130.407 359.738 130.313C359.62 130.327 359.508 130.372 359.412 130.444C359.316 130.515 359.239 130.61 359.189 130.72C359.14 130.83 359.118 130.952 359.127 131.073C359.135 131.194 359.174 131.312 359.239 131.414C359.716 132.46 359.854 133.685 360.907 134.438C360.992 134.487 361.061 134.562 361.104 134.651C361.828 136.952 363.912 138.075 365.441 139.69C367.693 142.175 370.166 144.44 372.828 146.456C373.213 146.765 373.555 147.126 373.842 147.531C375.809 150.1 378.547 151.676 381.16 153.406C382.213 154.106 383.368 154.654 384.384 155.4C385.007 155.868 385.713 156.206 386.462 156.394C387.211 156.582 387.988 156.616 388.748 156.495L388.666 156.458C388.762 156.908 388.895 157.35 389.065 157.778C389.17 158.04 389.37 158.252 389.622 158.369C389.875 158.486 390.161 158.501 390.422 158.408C391.169 158.181 390.927 157.624 390.73 157.097L390.703 157.083C391.152 157.266 391.582 157.497 391.985 157.77C394.077 159.542 396.428 161.019 398.114 163.249C399.36 164.901 401.321 165.863 402.401 167.687C402.528 167.902 402.892 168.004 403.162 168.119C403.994 168.439 404.746 168.949 405.359 169.609C405.972 170.269 406.43 171.063 406.699 171.929C409.188 172.077 409.648 174.476 411.081 175.76C410.832 176.447 410.472 176.146 410.137 175.978C410.049 175.938 409.978 175.843 409.888 175.821C407.026 175.194 404.975 173.277 402.97 171.258C402.505 170.902 402.011 170.587 401.493 170.319C400.735 169.881 400.048 169.323 399.46 168.666C398.763 167.984 397.953 167.436 397.067 167.048C396.314 166.614 395.535 166.151 394.488 166.546C394.478 166.827 394.357 167.212 394.469 167.533C395.054 169.133 396.19 170.463 397.663 171.272C400.219 172.776 402.308 174.899 404.733 176.573C406.307 177.734 407.76 179.056 409.07 180.52C408.925 180.612 408.668 180.682 408.656 180.796C408.662 181.038 408.713 181.277 408.806 181.5C408.805 181.509 409.008 181.508 409.024 181.467C409.096 181.322 409.133 181.161 409.133 180.998C409.097 180.815 409.041 180.637 408.965 180.467C409.38 180.7 409.966 180.833 410.182 181.181C411.135 182.585 412.573 183.569 414.203 183.934C415.448 184.329 416.611 184.958 417.633 185.787C418.49 186.418 419.386 186.991 420.315 187.503C420.527 187.626 420.859 187.525 421.362 187.528C421.208 187.087 421.177 186.689 420.966 186.447C419.824 185.104 418.671 183.769 417.45 182.499C416.933 182.051 416.371 181.661 415.773 181.334C414.3 180.382 413.011 179.159 411.973 177.726C411.895 177.612 411.973 177.39 411.981 177.179C413.36 177.14 413.948 178.706 415.18 178.925L415.113 178.857C415.484 179.115 416.064 179.676 416.194 179.589C416.373 179.46 416.577 179.372 416.793 179.33C417.008 179.288 417.23 179.293 417.445 179.346C417.659 179.398 417.86 179.496 418.035 179.634C418.209 179.771 418.354 179.945 418.458 180.144C419.554 181.885 421.22 182.857 422.769 184.02C423.313 184.427 423.767 184.962 424.287 185.411C424.561 185.681 424.88 185.896 425.23 186.046C427.27 186.739 429.051 188.062 430.328 189.832C431.052 190.624 431.888 191.299 432.808 191.836C433.379 192.235 433.222 192.627 433.087 193.073L432.964 192.932L433.122 193.01L434.209 194.492L434.25 194.414L431.471 193.06C430.437 194.039 430.293 194.519 430.956 195.148C431.885 196.028 432.857 196.858 433.868 197.636C434.64 198.224 435.61 198.564 436.032 199.564C436.122 199.741 436.269 199.881 436.448 199.961C438.159 200.697 439.708 201.781 441 203.146C442.751 203.382 443.248 204.833 443.78 206.137C444.897 206.178 444.487 205.448 444.49 204.947L444.452 205.025C445.511 205.879 446.591 206.709 447.626 207.595C447.99 207.832 448.297 208.149 448.526 208.522C448.756 208.895 448.901 209.315 448.952 209.751C448.932 209.995 448.997 210.238 449.137 210.438C449.276 210.638 449.48 210.781 449.712 210.842C450.613 211.154 451.261 211.975 452.273 212.137C452.558 212.212 452.808 212.386 452.982 212.629C453.156 212.872 453.242 213.168 453.226 213.468L453.274 213.399C452.915 213.249 452.549 213.118 452.177 213.007C450.903 212.703 450.224 213.3 449.808 214.549C451.328 215.622 452.761 216.756 454.309 217.688C456.281 218.88 457.597 220.398 457.736 222.732C457.752 223.131 457.903 223.512 458.164 223.81C458.425 224.108 458.78 224.305 459.166 224.366C459.478 224.442 459.84 224.23 460.174 224.146L459.922 223.163C460.063 223.121 460.254 222.999 460.339 223.054C460.823 223.377 461.285 223.733 461.743 224.095C462.433 224.636 463.074 225.236 463.794 225.724C464.945 226.421 465.96 227.33 466.786 228.406C467.51 229.403 468.3 230.348 469.151 231.235C469.973 232.104 471.354 232.421 472.406 233.118C473.217 233.659 473.95 234.315 474.581 235.066C475.623 236.38 476.96 237.419 478.478 238.092C477.53 239.978 477.812 240.626 479.752 241.253C480.002 241.35 480.246 241.461 480.483 241.588L480.519 241.519L480.198 241.865L480.734 242.151L480.668 242.108C481.546 242.711 482.452 243.294 483.312 243.927C484.474 244.791 484.753 246.177 485.345 247.367C485.464 247.611 485.228 248.1 485.035 248.391C484.617 249.004 484.118 249.556 483.654 250.135C482.726 250.105 481.791 250.025 480.871 250.068C480.732 250.085 480.599 250.139 480.486 250.223C480.373 250.308 480.283 250.421 480.225 250.551C480.167 250.682 480.142 250.825 480.154 250.969C480.165 251.112 480.213 251.25 480.291 251.37C480.411 251.639 480.579 251.882 480.788 252.086C481.904 253.046 483.102 253.9 484.367 254.64C485.741 255.33 486.62 256.152 486.581 257.674C488.248 258.884 490.058 259.765 491.128 261.528C493.32 262.815 494.944 264.972 497.381 265.896L497.38 265.821C497.06 266.105 496.584 266.328 496.454 266.689C496.341 267.219 496.304 267.763 496.343 268.305C497.275 269.354 498.163 270.351 499.185 271.498C498.893 271.8 498.626 272.125 498.386 272.471C498.185 272.737 498.095 273.073 498.134 273.408C498.173 273.742 498.338 274.049 498.595 274.263C499.195 274.87 500.096 275.214 500.26 276.2L500.335 276.12C498.297 275.373 496.565 273.937 495.429 272.052C494.211 270.362 492.754 268.867 491.107 267.615C490.623 267.122 489.995 266.806 489.319 266.717C487.851 266.859 487.047 266.028 486.105 265.087C484.608 263.596 482.869 262.539 480.68 262.71C479.885 262.775 479.566 263.297 479.97 264.072C480.5 265.098 481.045 266.115 481.652 267.273C482.273 267.501 482.994 267.788 483.727 268.022C486.152 268.813 487.539 270.659 488.506 272.853C488.744 273.398 488.789 273.999 489.426 274.216C489.965 274.384 490.515 274.508 491.073 274.587C491.323 274.603 491.574 274.59 491.821 274.549C491.94 274.807 492.112 275 492.091 275.155C491.858 277.184 493.162 278.128 494.783 278.835C495.23 279.027 495.712 279.117 496.171 279.27C496.538 279.392 497.028 279.434 497.243 279.69C498.873 281.664 501.564 281.316 503.4 282.83C503.563 282.96 504.215 282.786 504.327 282.573C504.452 282.337 504.321 281.823 504.125 281.557C503.508 280.775 502.662 280.214 501.713 279.958C501.151 279.744 500.604 279.491 500.076 279.201C500.463 278.203 500.79 277.351 501.119 276.499L501.107 276.6C502.752 277.972 504.193 279.612 506.19 280.54C506.668 280.881 507.1 281.284 507.477 281.738C508.585 282.71 509.704 283.674 510.821 284.635C511.526 285.239 512.608 285.519 512.571 286.777C512.566 286.987 513.103 287.386 513.425 287.452C514.457 287.672 515.505 287.777 516.571 287.93C516.964 288.429 517.287 289.206 517.811 289.416C518.789 289.727 519.794 289.938 520.811 290.047C521.244 290.681 521.713 291.371 522.176 292.054C521.461 292.432 520.701 292.715 519.914 292.896C518.085 293.082 517.168 294.287 516.318 295.646C515.592 296.811 514.859 297.975 514.155 299.096C514.228 299.494 514.409 299.864 514.678 300.163C514.946 300.462 515.292 300.679 515.674 300.788C517.135 301.307 518.568 301.906 519.979 302.457C520.258 303.742 518.892 303.95 518.671 305.095L519.692 308.026C518.425 309.046 517.287 310.051 515.403 309.235C515.041 309.075 514.525 309.319 514.054 309.382C513.848 310.703 514.569 311.73 514.848 312.829L514.871 312.77C514.703 313.307 514.451 313.813 514.125 314.267C512.615 315.765 513.116 317.477 514.14 318.951C514.972 320.154 515.604 321.487 516.012 322.897C516.138 323.376 516.362 323.823 516.669 324.209C516.976 324.594 517.359 324.908 517.793 325.132C519.253 325.908 520.625 326.807 522.357 326.973C523.898 327.122 525.203 328.141 526.431 328.936C527.244 331.135 525.591 332.361 525.049 334.108C524.226 333.55 523.426 333.008 522.613 332.463C521.829 332.661 521.097 333.146 520.191 332.476C519.643 332.07 519.087 332.361 518.692 332.817C518.45 333.047 518.296 333.358 518.257 333.695C518.218 334.032 518.298 334.372 518.481 334.657C518.83 335.249 519.174 335.847 519.512 336.448C519.855 337.11 520.361 337.671 520.979 338.076C521.596 338.481 522.306 338.715 523.036 338.756C523.786 338.821 524.516 339.046 525.178 339.417C526.072 339.886 527.194 339.878 528.332 340.092C528.848 340.817 529.42 341.614 530.078 342.536C530.866 342.363 531.69 342.458 532.425 342.806C533.159 343.153 533.765 343.736 534.149 344.464C534.511 345.044 534.977 345.562 535.389 346.114C536.745 347.92 537.413 348.178 539.82 347.848L540.719 344.618C541.952 344.551 543.067 344.487 544.189 344.428C544.675 343.503 544.899 342.456 544.835 341.404C544.924 340.357 544.952 339.305 544.918 338.253C544.836 337.123 544.571 335.992 544.35 334.65C544.558 334.228 544.74 333.792 544.895 333.346C545.04 332.805 545.158 332.257 545.248 331.704C546.006 331.398 546.691 331.124 547.376 330.847L547.291 330.827C548.08 332.335 548.722 333.841 547.981 335.487C547.925 335.62 547.897 335.763 547.901 335.908C547.905 336.053 547.939 336.196 548.001 336.326C548.814 337.52 548.384 338.444 547.784 339.477C547.555 340.095 547.527 340.773 547.705 341.411C547.932 342.645 548.288 343.867 548.607 345.093C548.666 345.47 548.802 345.831 549.006 346.152C549.884 347.195 549.949 348.499 550.426 349.669C550.551 350.036 550.587 350.428 550.533 350.811C550.478 351.194 550.333 351.558 550.111 351.871C549.42 351.971 548.578 351.886 548.031 352.241C547.584 352.535 547.496 353.346 547.249 353.933C546.809 354.192 546.564 353.779 546.253 353.583C545.059 352.826 544.613 352.784 543.863 353.835C543.629 354.183 543.326 354.476 542.974 354.697C542.622 354.917 542.228 355.059 541.817 355.114C540.344 355.365 538.866 355.632 537.28 355.909C536.912 356.613 536.834 357.618 535.894 358.123C535.704 358.252 535.548 358.426 535.439 358.63C535.33 358.835 535.271 359.063 535.268 359.297C535.328 359.865 535.257 360.438 535.061 360.971C534.864 361.504 534.548 361.982 534.137 362.365C533.956 362.515 533.84 362.731 533.812 362.967C533.784 363.203 533.846 363.442 533.986 363.634C534.157 363.878 534.407 364.052 534.691 364.126C534.975 364.199 535.274 364.167 535.536 364.035C536.052 363.818 536.551 363.563 537.03 363.271C537.433 363.064 537.84 362.865 538.337 362.618C539.7 364.265 539.598 365.916 539.071 367.569C538.791 368.439 538.37 369.257 537.974 370.198C536.695 370.736 536.695 370.736 535.95 372.568C537.977 374.589 540.057 376.661 542.253 378.845C542.29 379.312 542.317 379.985 542.402 380.65C542.604 382.236 542.891 382.528 544.556 382.9C544.926 382.982 545.299 383.05 545.752 383.143C546.384 384.436 546.716 386.023 549.065 385.967C548.341 386.581 548.168 386.866 547.96 386.878C546.084 386.993 544.226 387.403 542.303 386.914C541.837 386.793 541.342 386.802 540.874 386.707C538.706 386.258 536.947 387.166 535.29 388.195C534.622 388.611 534.232 389.451 533.645 390.188C531.661 390.178 529.685 389.899 527.769 389.358C526.212 388.901 524.606 388.645 522.989 388.597C521.36 388.67 519.731 388.404 518.2 387.816C517.494 387.5 516.722 387.373 515.957 387.445C514.252 387.714 513.101 389.067 511.574 389.748C511.127 390.003 510.749 390.369 510.476 390.811C510.203 391.254 510.043 391.76 510.01 392.284C509.951 392.459 509.863 392.623 509.75 392.767C508.074 393.917 505.997 393.661 504.102 394.004C503.619 394.066 503.127 394 502.675 393.812C502.222 393.623 501.823 393.319 501.518 392.929C500.773 392.134 499.988 391.38 499.166 390.671C497.372 389.046 495.369 388.251 493.038 388.858C492.758 388.903 492.476 388.934 492.194 388.951C492.107 388.963 492.037 389.046 491.8 389.199C491.537 390.01 491.23 390.967 490.879 392.055C489.587 391.575 488.417 391.143 487.354 390.75C486.014 391.09 486.418 392.266 486.105 393.098L485.258 393L485.501 392.99L485.348 393.054C484.625 392.805 484.533 392.142 484.32 391.558L484.308 391.61L484.081 390.956L484.167 391.006L483.52 391.188L483.553 391.141C482.465 391.184 482.067 389.904 481.037 389.741C480.488 389.955 479.72 390.17 479.823 390.936C479.866 391.522 480.038 392.091 480.325 392.601C480.613 393.111 481.01 393.549 481.485 393.883C481.811 394.093 482.179 394.227 482.561 394.276C484.448 394.493 486.198 395.295 488.01 395.793C489.478 396.251 490.842 397.009 492.018 398.02C492.419 398.296 492.717 398.703 492.861 399.174C493.006 399.644 492.989 400.15 492.812 400.607L492.789 400.751L492.768 400.541L493.357 401.103C493.245 401.303 493.188 401.572 493.086 401.58C491.154 401.756 490.075 403.189 488.783 404.31L488.838 404.369L487.972 403.912L488.026 403.931C487.21 403.1 486.706 404.039 486.043 404.168C485.437 403.57 484.992 402.714 483.984 402.726L483.523 402.321C483.533 402.398 483.528 402.532 483.557 402.542C483.713 402.584 483.873 402.614 484.034 402.632L483.89 403.784C483.269 403.528 482.76 403.332 482.266 403.105C481.69 402.85 481.04 402.834 480.455 403.059C480.002 403.236 479.512 403.298 479.029 403.238C478.545 403.178 478.083 402.999 477.681 402.716C477.167 402.447 476.607 402.286 476.032 402.242C475.392 403.036 474.876 403.664 474.363 404.292C474.249 404.148 474.226 403.686 473.941 404.145L474.398 404.229C474.415 404.496 474.413 404.765 474.392 405.031C474.284 405.691 474.486 406.06 475.221 406.078C475.356 406.082 475.499 406.27 475.64 406.375L475.671 406.291C475.109 406.322 474.545 406.3 473.986 406.224C473.446 406.066 472.922 405.859 472.418 405.605C471.135 406.963 471.115 407.043 469.552 406.553C468.559 406.239 467.533 406.552 466.552 405.943C466.069 405.644 465.194 406.65 465.515 407.198C465.775 407.599 465.946 408.054 466.015 408.529C466.084 409.004 466.05 409.489 465.915 409.947L464.198 410.451C464.068 410.2 463.978 409.929 463.931 409.649C463.939 408.652 463.952 407.684 462.695 407.304L461.86 408.083C461.174 407.28 460.514 406.505 459.879 405.76C459.481 405.963 459.129 406.248 458.843 406.596C458.558 406.944 458.345 407.349 458.219 407.785L458.248 407.718C457.665 407.904 457.093 408.123 456.535 408.374C456.123 408.583 456.06 408.203 455.865 408.06C454.431 407.011 452.921 407.231 451.432 407.546C451.259 407.618 451.106 407.734 450.988 407.883C450.871 408.032 450.792 408.209 450.758 408.398C450.725 408.587 450.739 408.781 450.798 408.964C450.858 409.147 450.961 409.312 451.099 409.444C452.639 410.502 453.373 412.126 454.392 413.585C455.303 414.397 456.992 413.847 457.547 415.564C456.821 415.871 456.019 415.943 455.249 415.769C454.479 415.596 453.777 415.186 453.24 414.594C452.014 415.571 453.793 417.426 452.214 418.193C451.793 417.743 451.491 417.191 451.337 416.59C451.184 415.989 451.184 415.359 451.338 414.76C451.397 414.619 451.42 414.464 451.405 414.311C451.39 414.158 451.338 414.011 451.253 413.884C451.168 413.756 451.053 413.652 450.919 413.582C450.785 413.511 450.636 413.476 450.486 413.479C450.167 414.005 449.819 414.532 449.524 415.087C449.355 415.411 449.076 415.853 449.182 416.129C450.002 418.225 448.533 419.989 448.763 421.991C448.818 422.497 448.039 422.906 447.766 422.566C447.496 422.223 447.142 421.959 446.739 421.802C446.337 421.645 445.902 421.601 445.479 421.674C444.781 421.612 444.094 421.454 443.435 421.206C442.948 423.781 442.761 426.198 443.522 428.668C443.637 429.141 443.888 429.568 444.243 429.894C445.557 430.902 446.751 432.064 447.798 433.358C448.197 433.778 448.666 434.123 449.182 434.377C450.823 435.277 451.246 436.353 450.477 437.821C450.092 438.553 449.721 439.292 449.242 440.221C448.689 440.298 447.964 440.391 447.039 440.515L446.781 442.095L459.712 447.934C459.19 448.98 458.749 449.86 458.268 450.815C459.355 451.563 460.301 452.219 461.166 452.816C461.21 453.152 461.316 453.382 461.249 453.512C460.833 454.329 460.321 455.09 459.953 455.925C459.571 456.802 460.562 457.649 460.177 458.69C459.943 459.325 460.534 460.311 460.791 461.297C459.969 461.687 459.079 461.909 458.171 461.95C457.335 462.084 456.442 462.005 455.639 462.21C454.118 462.61 452.665 462.77 451.238 461.727C447.89 461.437 445.033 459.53 441.95 458.366C441.45 458.096 440.87 458.027 440.326 458.172C439.613 458.464 438.846 458.591 438.077 458.545C437.308 458.5 436.558 458.281 435.879 457.907C435.697 457.834 435.506 457.789 435.312 457.772C433.745 457.442 432.895 458.045 432.844 459.585C432.861 460.069 432.915 460.55 433.007 461.025L433.05 460.95C432.771 460.904 432.368 460.715 432.232 460.835C431.776 461.219 431.237 461.487 430.66 461.62C430.082 461.753 429.481 461.746 428.905 461.6L426.278 465.38C426.718 466.612 427.269 467.842 426.764 469.497C426.53 469.606 426.272 469.648 426.015 469.618C425.759 469.589 425.515 469.489 425.309 469.33C424.638 468.927 423.916 468.609 423.235 468.206C422.35 467.709 421.311 467.585 420.343 467.862L419.827 469.658C418.969 469.48 418.419 469.367 417.884 469.258C417.164 469.685 416.424 471.52 416.713 472.241C416.807 472.52 416.996 472.755 417.247 472.903C418.903 473.463 419.019 474.839 419.142 476.184C419.236 477.221 419.236 478.266 419.279 479.271C419.841 479.743 420.362 480.183 420.835 480.585C420.873 481.06 420.795 481.537 420.607 481.972C420.42 482.408 420.129 482.788 419.762 483.079C418.87 483.326 418.536 482.553 417.97 482.231C416.52 481.408 415.023 480.709 414.219 479.06C413.913 478.672 413.517 478.368 413.068 478.175C412.163 477.586 411.23 477.044 410.271 476.552C409.586 476.257 408.881 476.011 408.163 475.815C407.049 476.119 408.067 477.833 406.569 477.245C406.578 477.631 406.524 477.838 406.598 477.989C407.14 479.135 407.946 480.132 408.947 480.893C410.852 482.375 412.703 483.944 413.88 486.244C415.09 488.615 417.24 490.326 419.353 491.938C420.117 492.529 420.759 493.27 421.24 494.116C421.82 495.074 422.198 496.22 423.209 496.937C423.519 497.177 423.77 497.488 423.943 497.844C424.115 498.201 424.204 498.592 424.202 498.989L424.234 498.918C423.951 498.925 423.483 498.823 423.412 498.955C422.568 500.479 421.045 501.557 420.623 503.576C421.021 504.632 421.498 505.854 422.984 506.061C424.461 506.261 425.086 505.712 426 503.723C426.335 503.9 426.601 504.189 426.754 504.54C426.908 504.891 426.941 505.285 426.847 505.656C426.7 506.203 426.519 506.736 426.332 507.27C426.145 507.804 425.94 508.318 425.767 508.776C424.86 509.041 424.152 509.279 423.422 509.457C422.602 509.654 421.867 510.113 421.324 510.769C421.051 511.146 420.753 511.503 420.433 511.839C419.047 513.035 417.705 514.126 415.679 514.453C412.878 514.957 410.035 515.184 407.189 515.131C404.34 515.035 401.516 515.52 398.667 515.632C397.33 515.643 395.994 515.551 394.67 515.355C391.903 515.036 389.143 514.622 386.382 514.325C383.704 514.039 381.074 513.435 378.422 512.951C374.773 512.284 371.455 510.613 367.947 509.543C365.541 508.808 363.129 508.076 360.689 507.516C357.852 506.813 355.107 505.76 352.514 504.381C350.055 503.218 347.478 502.336 344.831 501.754C344.552 501.687 344.264 501.666 343.979 501.689C341.591 501.861 341.593 501.864 339.538 501.12C339.281 501.324 338.972 501.529 338.703 501.776C338.39 502.076 337.996 502.271 337.571 502.335C337.146 502.399 336.711 502.33 336.324 502.135C335.166 501.623 333.938 501.299 332.685 501.174C331.876 501.11 331.249 501.072 330.637 501.688C330.343 501.941 329.982 502.099 329.599 502.143C329.216 502.188 328.829 502.116 328.484 501.937C327.386 501.54 326.313 501.072 325.272 500.537C323.055 499.287 320.827 498.032 319.155 496C318.966 495.774 318.632 495.633 318.518 495.39C317.691 493.673 316.08 492.903 314.597 491.948C313.114 490.992 311.713 489.885 310.25 488.889C308.144 487.448 306.142 485.823 303.738 484.906C302.433 483.169 300.276 482.8 298.635 481.554C297.027 480.463 295.336 479.503 293.58 478.685C290.891 477.259 288.148 475.944 285.496 474.458C283.207 473.177 281.035 471.623 278.535 470.827C277.523 470.504 277.015 469.392 275.729 469.414C274.771 469.422 273.742 468.699 272.763 468.26C271.785 467.82 270.831 467.343 269.874 466.867C269.336 466.629 268.819 466.345 268.329 466.018C266.255 464.484 263.754 463.848 261.611 462.462C261.531 462.402 261.444 462.354 261.35 462.322C256.069 460.929 251.897 457.283 247.255 454.607C244.283 452.892 241.485 450.853 238.607 448.957C237.239 448.749 236.658 447.249 235.206 446.91C233.991 446.624 232.941 445.439 231.798 444.686C230.654 443.933 229.429 443.306 228.357 442.468C227.413 441.758 226.328 441.269 225.181 441.035C222.914 440.433 220.766 439.429 218.834 438.069C216.208 436.356 213.492 434.788 211.068 432.896C210.39 433.197 209.647 433.319 208.908 433.251C208.169 433.183 207.458 432.927 206.838 432.506C203.981 430.592 200.932 429.022 198.089 427.094C197.847 426.93 197.628 426.724 197.395 426.54L197.471 426.412L197.448 426.57C194.668 424.597 191.876 422.631 189.105 420.645C186.883 419.057 184.679 417.445 182.467 415.84C182.221 414.997 181.272 415.389 180.856 414.852L180.794 414.91C181.074 414.586 181.076 414.34 180.57 414.238L180.672 414.27L180 414.489L180.005 414.39C176.766 412.166 173.535 409.931 170.283 407.719C166.307 405.007 162.098 402.646 158.491 399.366C157.648 398.595 156.453 398.233 155.454 397.622C154.618 397.114 153.815 396.553 153.048 395.942C152.052 395.145 151.19 394.159 150.144 393.452C147.277 391.517 144.624 389.311 141.924 387.159C139.38 385.134 136.721 383.271 134.161 381.273C132.462 379.942 130.796 378.548 129.214 377.076C128.432 376.349 127.916 375.349 127.197 374.545C126.819 374.129 126.23 373.573 125.796 373.601C124.566 373.669 124.119 372.671 123.434 372.05C122.057 370.79 122.128 370.494 123.899 369.273C124.706 369.643 125.585 370.032 126.455 370.439C127.848 371.098 128.926 371.995 129.245 373.631C129.37 374.206 129.689 374.72 130.146 375.082C132.16 376.483 134.24 377.786 136.298 379.126C136.419 379.181 136.544 379.224 136.672 379.255L138.638 378.455C138.577 378.243 138.583 377.887 138.408 377.709C135.854 375.12 133.285 372.544 130.7 369.98C128.964 368.263 127.482 366.317 125.738 364.602C124.404 363.287 123.042 361.989 121.747 360.64C121.253 360.053 120.798 359.433 120.387 358.782C120.695 358.626 120.865 358.554 121.018 358.46C121.324 358.27 121.796 358.136 121.885 357.858C122.015 357.404 121.992 356.917 121.819 356.476C121.573 356.061 121.259 355.693 120.891 355.388C119.366 353.791 118.019 352.11 117.908 349.693L116.085 349.637C113.855 347.158 111.536 344.621 109.275 342.04C108.834 341.52 108.518 340.904 108.349 340.24C108.163 339.513 108.353 338.709 108.143 337.996C107.819 337.308 107.412 336.663 106.93 336.078C107.399 336.108 107.862 336.192 108.312 336.33C108.641 336.533 109.025 336.621 109.405 336.582C109.786 336.543 110.143 336.379 110.422 336.114C110.862 335.711 111.387 335.351 111.942 335.647C113.3 336.369 114.336 335.841 115.386 335.193C115.699 335 116.005 334.802 116.314 334.607L116.406 334.77L116.264 334.6C116.95 333.538 116.159 332.358 116.291 331.236C116.337 330.882 115.863 330.383 115.545 330.025C114.762 329.144 113.889 328.338 113.129 327.437C112.772 326.987 112.496 326.476 112.314 325.928C112.042 325.159 112.129 325.062 113.292 324.067C114.717 324.858 116.3 325.492 117.684 324.19C118.912 323.035 120.168 321.823 118.879 319.241C119.744 319.839 120.64 320.388 121.562 320.885C122.867 321.477 123.976 320.587 123.539 319.224C123.206 317.78 122.506 316.45 121.509 315.368C120.581 314.513 119.534 313.795 118.286 312.82L117.968 311.251C118.149 311.087 118.263 310.881 118.408 310.868C119.878 310.717 121.354 310.596 122.939 310.455C122.899 309.684 123.075 308.92 123.446 308.251C123.818 307.582 124.369 307.037 125.036 306.679C125.231 306.558 125.45 306.482 125.678 306.456C125.906 306.429 126.137 306.453 126.355 306.526C127.552 307.226 128.571 306.753 129.6 306.48C129.9 305.879 130.18 305.328 130.459 304.774L130.566 304.92L130.412 304.774C128.368 301.525 125.996 298.502 123.335 295.755C122.503 294.919 121.653 294.106 120.814 293.286C120.999 292.789 121.351 292.779 121.692 293.064C122.296 293.565 122.846 294.129 123.441 294.645C124.44 295.516 125.514 296.161 127.008 295.822L128.25 294.101C128.783 294.127 129.438 293.97 129.875 294.219C130.272 294.485 130.745 294.607 131.216 294.565C131.687 294.523 132.13 294.319 132.471 293.986C132.735 293.777 133.163 293.762 133.535 293.653C134.371 294.254 135.135 294.857 135.955 295.374C136.315 295.619 136.723 295.782 137.149 295.852C137.576 295.922 138.012 295.897 138.427 295.779C138.8 295.664 139.14 295.455 139.414 295.172C139.688 294.888 139.889 294.54 139.998 294.157C139.238 293.203 138.422 292.124 137.118 291.947C136.489 291.897 135.886 291.664 135.38 291.276C134.874 290.888 134.486 290.36 134.262 289.757C134.003 289.066 133.526 288.483 132.906 288.099C132.287 287.716 131.561 287.555 130.844 287.643C130.385 287.098 129.955 286.528 129.554 285.937C129.117 285.286 128.537 284.748 127.861 284.366C126.895 283.715 125.997 282.963 125.183 282.122C122.764 279.671 120.327 277.25 117.737 274.984C117.071 274.4 116.263 273.968 115.648 273.343C115.047 272.736 114.133 272.411 113.905 271.42C113.837 271.243 113.733 271.084 113.599 270.951C113.466 270.818 113.306 270.716 113.132 270.651C110.803 269.864 109.342 267.89 107.533 266.41C104.795 264.172 102.151 261.822 99.4092 259.599C98.5218 258.982 97.5886 258.437 96.6184 257.969C95.927 257.609 95.2545 257.212 94.604 256.78C94.1193 256.43 93.7817 256.021 93.1054 256.413C92.9224 256.52 92.211 256.055 91.941 255.701C90.9472 254.486 90.0531 253.19 89.2679 251.826C88.553 250.417 87.5713 249.165 86.38 248.145C85.5229 247.422 84.3971 246.782 84.2821 245.449L84.2139 245.451C84.6704 245.384 85.122 245.314 85.758 245.224C85.6773 242.77 85.7546 240.409 83.5123 238.441L84.1358 236.419C84.0345 236.034 83.8552 235.675 83.6092 235.364C83.3633 235.053 83.0563 234.799 82.7084 234.617C82.4443 234.484 82.2327 234.263 82.11 233.989C81.9872 233.716 81.9609 233.409 82.0355 233.12C82.1541 232.749 82.1624 232.35 82.0595 231.974C81.9567 231.597 81.7471 231.259 81.4574 231.002C80.6728 230.151 80.1172 229.108 79.8451 227.975C80.0359 227.575 80.342 227.244 80.7224 227.028C81.1028 226.812 81.5395 226.719 81.9744 226.764C82.7195 226.814 83.4656 226.706 84.1657 226.447C84.8659 226.188 85.505 225.784 86.0431 225.26C86.3984 224.959 86.8111 224.738 87.2551 224.608C87.6992 224.479 88.1651 224.445 88.6241 224.507C90.6241 224.626 91.0795 224.17 91.7434 222.375C91.8672 222.063 91.92 221.727 91.8976 221.39C91.8753 221.054 91.7785 220.726 91.6145 220.433C91.2175 219.753 90.7545 219.114 90.2329 218.528C89.9199 218.151 89.4926 217.869 89.1593 217.506C87.3972 215.589 87.8406 214.986 88.8038 213.753C89.0267 213.462 89.2367 213.158 89.4577 212.85C89.4491 211.668 89.19 210.5 88.6981 209.426C88.2062 208.352 87.4934 207.398 86.6083 206.63C86.2355 206.317 85.9525 205.907 85.7905 205.443C85.2914 203.941 84.4964 202.559 83.4543 201.38C82.0909 199.713 81.6002 197.982 82.3618 196.005C82.685 195.206 82.7438 194.32 82.529 193.48C82.2831 192.512 82.7836 192.15 83.8272 192.363C85.1487 192.631 86.4707 192.926 87.7828 193.254C88.2276 193.407 88.704 193.433 89.1602 193.328C89.6164 193.224 90.0349 192.993 90.3701 192.662C90.9462 192.131 91.8741 191.988 92.6373 191.646C94.1712 190.958 94.7141 189.836 94.1313 188.188C93.609 186.713 92.9007 185.301 92.3086 183.848C92.0266 183.238 91.8202 182.596 91.6941 181.935C91.5933 180.479 91.2109 179.056 90.5689 177.749C90.2641 177.151 90.1892 176.461 90.3594 175.813C90.9105 174.03 90.8985 172.06 91.8456 170.408C92.1528 169.929 92.3531 169.387 92.4324 168.819C92.5118 168.251 92.4683 167.671 92.3049 167.12C92.1763 166.702 92.4112 166.195 92.4752 165.749C93.9584 164.395 95.7777 164.504 97.5943 164.951C98.52 165.176 99.435 165.395 100.369 165.582C101.311 165.847 102.205 166.267 103.017 166.825C104.093 167.431 105.317 167.704 106.539 167.61C105.747 165.064 105.588 162.373 102.902 160.933L102.709 159.1C103.344 158.914 103.86 158.733 104.395 158.616C105.563 158.354 106.785 158.364 107.779 157.516C108.675 156.75 109.796 156.858 111.019 157.224C114.837 158.35 118.511 159.983 122.379 160.935C123.354 161.176 124.235 161.98 125.146 162.546C126.096 163.139 126.832 162.792 126.824 161.665C126.787 161.026 126.71 160.39 126.593 159.761C124.177 157.84 120.893 157.986 118.692 155.538L120.389 153.295C120.102 152.98 119.783 152.696 119.437 152.45C117.45 151.376 115.446 150.35 113.452 149.282C113.001 148.998 112.485 148.846 111.958 148.841C111.431 148.836 110.913 148.979 110.462 149.254C109.902 149.583 109.287 149.804 108.647 149.903C108.42 149.925 108.201 149.997 108.005 150.115C107.81 150.233 107.642 150.393 107.513 150.584C106.959 151.401 106.192 151.113 105.471 150.781C105.192 150.684 104.961 150.479 104.828 150.21C104.694 149.941 104.67 149.63 104.759 149.345C105.072 148.382 105.511 147.47 105.94 146.43C107.52 146.384 108.74 145.196 110.456 145.367C110.735 145.363 111.009 145.297 111.258 145.173C111.508 145.048 111.727 144.869 111.901 144.648C112.903 143.254 114.314 143.049 115.915 143.2C116.005 143.209 116.098 143.151 116.368 143.072C116.688 141.793 118.128 141.518 119.13 140.633C119.113 140.268 119.107 139.896 119.081 139.524C118.901 136.874 118.901 136.874 116.785 135.356C117.227 134.688 117.856 135.063 118.309 135.3C119.7 136.026 121.102 136.713 122.495 137.421C125.193 138.799 127.75 140.479 130.387 141.997C133.372 143.711 136.372 145.396 139.387 147.052C139.662 147.206 140.224 147.206 140.391 147.029C140.483 146.876 140.538 146.704 140.553 146.525C140.568 146.346 140.542 146.166 140.478 145.999C140.153 145.191 139.716 144.421 139.31 143.649C139.044 143.134 138.754 142.635 138.475 142.133C138.661 141.829 138.808 141.601 138.947 141.367C139.218 140.903 139.692 140.45 139.7 139.966C139.674 139.568 139.544 139.183 139.323 138.852C139.102 138.522 138.799 138.257 138.445 138.086C137.503 137.557 136.503 137.145 135.525 136.686C134.709 136.358 133.911 135.986 133.134 135.571C131.706 134.703 130.41 133.559 128.921 132.871C127.442 132.189 125.785 131.966 124.221 131.472C123.399 131.212 122.517 130.975 122.011 130.105C121.93 129.631 122.027 129.145 122.282 128.743C122.538 128.342 122.932 128.054 123.388 127.938C123.76 127.842 124.15 127.843 124.523 127.942C124.895 128.042 125.238 128.235 125.518 128.506C126.49 129.185 127.527 129.761 128.612 130.224C130.216 130.941 131.872 131.51 133.181 132.825C133.66 133.163 134.182 133.433 134.732 133.628C135.271 133.825 135.767 134.131 136.188 134.529C137.158 135.886 138.633 136.136 139.993 136.601C140.491 136.777 141.027 136.806 141.539 136.685C142.05 136.563 142.517 136.297 142.885 135.915C143.554 135.145 144.137 134.301 144.624 133.398C145.213 132.457 144.988 131.399 144.654 130.404C145.027 129.889 145.529 129.487 146.107 129.238C146.686 128.989 147.319 128.902 147.944 128.987C149.486 129.195 150.983 129.319 152.102 130.77C152.703 131.418 153.387 131.98 154.136 132.439C155.7 133.465 157.001 134.86 157.927 136.506C158.157 136.939 158.452 137.333 158.802 137.673C161.237 140.11 163.812 142.394 166.449 144.606C167.879 145.807 169.374 146.945 170.713 148.243C173.84 151.274 177.419 153.726 180.762 156.486C182.494 157.956 184.477 159.081 186.61 159.805C187.137 159.916 187.673 159.974 188.211 159.979C187.789 157.7 187.242 155.733 185.103 154.558C183.788 153.836 182.537 153.033 182.343 151.353L182.306 151.414C183.039 151.854 183.788 152.27 184.508 152.743C185.905 153.653 187.25 154.646 188.674 155.505C190.945 156.872 193.322 158.048 195.533 159.502C197.363 160.622 199.332 161.487 201.384 162.073C202.879 162.504 204.319 163.117 205.673 163.897C206.613 164.472 206.629 164.445 208.356 164.351C208.722 163.722 208.342 163.267 207.895 162.854C205.269 160.467 202.398 158.378 199.333 156.622C197.905 155.787 196.594 154.68 194.892 154.373C194.349 154.163 193.864 153.818 193.482 153.37C192.099 152.1 190.592 150.979 188.986 150.022C186.673 148.725 184.566 147.074 182.74 145.126C182.932 144.562 183.352 144.832 183.65 144.993C185.809 146.152 187.965 147.327 190.109 148.527C190.701 148.882 191.273 149.271 191.822 149.692C193.818 151.138 195.788 152.623 198.351 152.747C198.992 152.898 199.624 153.085 200.246 153.308C200.676 153.326 201.106 153.281 201.522 153.173C201.953 152.424 201.415 151.998 200.955 151.694C199.659 150.804 198.315 149.989 196.931 149.253C195.623 148.575 194.408 147.722 193.319 146.717C192.513 145.993 191.56 145.44 190.727 144.751C190.343 144.328 190.004 143.866 189.714 143.371C191.234 143.413 192.141 144.253 193.16 144.639C194.234 145.041 195.242 145.662 196.348 145.352C196.705 144.814 196.339 144.505 196.066 144.293C195.452 143.807 194.779 143.391 194.123 142.95C192.68 142.101 191.342 141.075 190.14 139.895C189.496 139.284 188.78 138.758 188.008 138.329C186.355 137.259 184.63 136.298 183.027 135.154C180.141 133.084 177.024 131.403 174.062 129.465C173.405 129.033 172.62 128.762 172.295 127.968C172.158 127.637 172.008 127.119 172.158 126.916C172.437 126.559 172.841 126.327 173.286 126.268C173.773 126.253 174.253 126.394 174.659 126.671C177.426 128.618 180.658 129.475 183.607 130.994C184.704 131.631 185.888 132.095 187.118 132.37C188.062 132.613 188.966 132.999 189.8 133.514C191.102 134.212 192.398 134.926 193.623 135.749C194.799 136.496 196.21 136.751 197.559 136.46L198.013 134.66C197.893 134.439 197.743 134.236 197.567 134.058C193.354 131.309 189.137 128.566 184.918 125.828C184.504 125.562 184.106 125.271 183.727 124.956C182.606 123.984 182.578 123.633 183.531 121.838C186.739 123.337 189.954 125.02 193.784 124.802C193.709 124.466 193.593 124.14 193.437 123.833C191.981 121.751 189.788 120.549 187.843 119.047C186.755 118.206 185.698 117.321 184.632 116.456L184.594 116.517C185.957 116.331 186.882 117.41 187.97 117.954C190.418 119.172 192.819 120.451 195.518 120.962C196.457 121.161 197.359 121.516 198.188 122.013C199.869 122.99 201.504 123.551 203.35 122.806C204.134 122.568 204.94 122.407 205.755 122.324C206.904 120.7 206.318 119.148 205.195 117.835C204.031 116.515 203.037 115.048 202.236 113.471C201.811 112.69 201.259 111.988 200.602 111.396C200.044 110.936 199.642 110.307 199.457 109.6C199.273 108.893 199.314 108.146 199.575 107.468C199.882 106.586 200.218 105.717 200.582 104.861C200.977 103.922 201.413 103.004 201.886 101.962C201.454 101.42 200.977 100.917 200.459 100.46C199.972 100.145 199.581 99.6973 199.329 99.1681C199.077 98.6389 198.976 98.0493 199.035 97.4662L198.958 97.4802C199.719 97.492 200.478 97.4997 201.386 97.513C201.728 96.8715 202.196 96.3097 202.761 95.8627C203.326 95.4157 203.976 95.093 204.67 94.9148C205.318 94.7784 205.772 93.9821 206.356 93.5372C206.806 93.1065 207.373 92.8258 207.984 92.7317C208.594 92.6376 209.22 92.7347 209.779 93.01C210.587 93.3252 211.442 93.4942 212.305 93.5096C212.54 93.5436 212.779 93.5134 212.998 93.4222C213.216 93.3311 213.407 93.1821 213.551 92.9905C213.694 92.7989 213.785 92.5716 213.814 92.3315C213.843 92.0915 213.809 91.8474 213.716 91.6242C213.395 90.9134 212.947 90.2691 212.397 89.7239C211.501 88.7992 210.551 87.9307 209.553 87.1233C208.51 86.2344 207.702 85.0921 207.203 83.8028C206.694 82.6382 206.366 81.5842 207.226 80.6029C207.901 79.8351 207.127 78.929 207.445 78.0179C208.745 77.9213 210.048 78.1768 211.225 78.7587C212.65 79.4605 214.115 79.9435 215.834 79.3659C216.069 78.5145 216.334 77.548 216.585 76.6301C216.227 74.8069 214.331 74.5291 213.08 72.9752C214.265 73.372 215.057 73.6355 215.944 73.9337C216.086 73.9378 216.228 73.9159 216.363 73.869C218.244 72.8633 218.406 72.449 217.693 70.5608C217.553 70.1943 217.415 69.8294 217.242 69.4762C216.98 68.9467 216.683 68.4322 216.379 67.8772C216.539 67.4945 216.802 67.1663 217.137 66.9306C217.473 66.6948 217.867 66.5612 218.275 66.5444C219.02 66.5643 219.756 66.3976 220.42 66.0591C220.76 65.7371 221.201 65.5477 221.666 65.5241C222.131 65.5004 222.591 65.6438 222.965 65.9294C223.301 66.1365 223.878 65.9054 224.347 65.9102C224.949 65.8591 225.557 65.9338 226.132 66.1298C226.707 66.3258 227.238 66.6389 227.693 67.0502C229.045 68.2875 230.789 69.086 232.366 70.076L232.321 70.3068L232.318 70.0507C233.361 71.2228 234.586 72.21 235.944 72.9717C237.369 73.7002 238.586 74.8576 239.955 75.7298C240.877 76.4609 242.016 76.8456 243.178 76.8192C244.294 76.7322 245.322 77.7587 246.128 78.5369C246.587 79.011 247.086 79.4424 247.619 79.8257C248.5 80.272 249.201 81.019 249.6 81.9362C249.724 82.2035 249.91 82.436 250.143 82.613C252.189 84.4386 254.216 86.2873 256.306 88.0546C256.882 88.4119 257.352 88.9234 257.664 89.533C257.794 89.8025 257.997 90.0284 258.249 90.1837C262.067 92.765 265.265 96.1734 269.132 98.6832C269.658 98.9535 270.146 99.2981 270.579 99.7069C271.435 100.677 272.567 101.347 273.815 101.622C275.143 101.978 276.298 102.824 277.055 103.997C277.746 104.946 278.656 105.708 279.703 106.212C281.478 107.262 283.177 108.443 284.783 109.747C285.252 110.154 285.8 110.454 286.39 110.628C286.98 110.802 287.599 110.845 288.205 110.754C288.565 110.122 288.206 109.714 287.867 109.397C286.424 108.05 284.989 106.676 283.465 105.425C282.184 104.366 281.1 103.092 279.61 102.244C278.862 101.788 278.304 101.066 278.043 100.218C277.752 99.1676 277.09 98.2624 276.186 97.6782C275.562 97.2016 274.974 96.6769 274.429 96.1088C274.106 95.7571 273.893 95.3152 273.818 94.8405C273.815 94.642 273.772 94.446 273.694 94.2639C273.615 94.0818 273.502 93.9173 273.361 93.7799C273.219 93.6425 273.053 93.5349 272.871 93.4636C272.689 93.3923 272.495 93.3586 272.301 93.3646C270.602 93.3434 269.766 92.0451 268.69 91.0754C268.735 88.9307 266.324 88.3659 265.686 86.646C265.542 86.3841 265.324 86.1731 265.06 86.0416C261.214 83.8136 257.979 80.7212 254.366 78.169C253.955 77.9089 253.623 77.5368 253.408 77.0952C252.25 73.8953 249.602 72.1926 246.939 70.494C246.593 70.3361 246.287 70.0987 246.045 69.8002C245.27 68.3456 243.969 67.4527 242.721 66.4773C240.86 65.022 238.967 63.5983 237.179 62.0516C236.052 60.9366 234.673 60.1252 233.165 59.6914C232.84 59.6138 232.568 59.2071 232.13 58.8305C232.476 58.3793 232.822 57.9868 233.109 57.5578C233.822 56.4868 234.554 55.4727 234.23 53.948C233.993 52.8452 234.714 52.4181 235.761 52.8192C239.636 54.309 240.153 54.5935 243.782 57.4092C245.942 59.0911 248.097 60.7959 250.165 62.575C251.344 63.5888 252.458 64.7133 253.687 65.698C254.031 66.0451 254.34 66.4258 254.611 66.8346C254.899 67.3464 255.282 67.7963 255.738 68.1589C257.665 69.1088 258.855 70.8261 260.292 72.2944C260.844 72.8536 261.446 73.3573 262.092 73.7984C263.646 74.8388 265.068 76.0724 266.325 77.4705C267.148 78.3181 268.021 79.113 268.94 79.8507C269.238 80.109 269.697 80.2547 269.863 80.5628C271.331 83.2739 274.283 84.3653 276.243 86.5497C277.209 87.6212 278.577 88.3312 279.728 89.2516C281.935 90.8835 284.06 92.6286 286.094 94.4802C288.634 96.9662 291.51 99.0071 294.173 101.322C294.701 101.761 295.257 102.163 295.837 102.525C298.522 104.159 301.033 106.078 303.327 108.248C303.9 108.785 304.572 109.199 305.303 109.465C306.034 109.732 306.809 109.846 307.582 109.799C307.805 109.777 308.021 109.706 308.214 109.591C308.408 109.477 308.575 109.321 308.704 109.135C308.981 108.593 309.195 108.02 309.342 107.427C304.55 102.941 299.869 98.5618 295.189 94.1825C294.625 93.6257 294.033 93.0989 293.416 92.6044C291.54 91.1555 289.753 89.591 288.065 87.9196C286.366 86.2704 284.433 84.8679 282.615 83.3473C282.084 82.9081 281.576 82.4408 281.093 81.9475C277.929 78.5418 274.549 75.3529 270.975 72.4018C269.429 71.183 268.088 69.6989 266.587 68.4086C264.794 66.8722 262.939 65.3972 261.101 63.9177C259.185 62.3772 257.259 60.851 255.322 59.339C254.165 58.438 252.972 57.5841 251.804 56.7138C253.031 54.6124 253.163 53.9724 252.472 52.1753C252.272 51.5164 251.891 50.9293 251.374 50.4844C249.371 49.1809 247.979 47.2093 246.101 45.7759C245.117 44.9636 243.953 44.4143 242.713 44.1778C241.697 43.9299 240.702 43.5981 239.738 43.1854C240.022 40.8116 241.306 40.0511 243.189 40.9675C243.684 41.2864 244.212 41.5457 244.764 41.7405C245.096 41.7976 245.412 41.9288 245.689 42.1244C245.967 42.32 246.199 42.5753 246.369 42.8723C246.987 43.7763 247.812 44.5121 248.772 45.0143C249.672 45.5606 250.627 45.9676 251.291 46.9806C251.709 47.6232 252.755 47.8928 253.543 48.2759C254.331 48.659 255.163 48.9328 255.584 49.8566C255.763 50.2013 256.054 50.4715 256.407 50.62C257.854 51.1611 258.811 52.3057 259.836 53.363C261.47 55.0498 263.328 56.4932 265.355 57.6499C266.66 58.3097 268.054 58.7615 269.489 58.9893C269.934 59.0179 270.364 59.1631 270.739 59.4113C272.276 60.7801 273.528 62.4515 274.418 64.3241C274.752 65.0248 275.15 65.6916 275.609 66.3155C276.625 67.5221 277.579 68.8926 278.844 69.7565C280.816 71.0989 282.323 72.8795 284.052 74.4458C285.091 75.4857 286.212 76.4364 287.403 77.2879C288.59 78.1626 289.67 79.1807 290.618 80.32C291.616 81.4289 292.89 82.2394 294.303 82.6634C294.882 82.7435 295.468 82.7547 296.048 82.6968C295.708 80.3356 293.986 79.0849 292.527 77.7021C292.021 77.2175 291.451 76.8584 291.312 76.125L291.449 76.0362L291.296 76.1825C291.05 76.1351 290.827 76.0021 290.665 75.806C290.503 75.6099 290.412 75.3628 290.407 75.1071L290.348 75.1922C291.048 74.9524 291.741 74.7101 292.245 74.5314C293.405 75.5065 294.611 76.4217 295.86 77.2737C296.974 77.965 297.108 79.492 298.398 79.9552C299.47 81.4427 301.288 81.9322 302.526 83.1399C303.765 84.3477 304.657 85.9206 305.887 87.151C307.057 88.1932 308.287 89.1628 309.57 90.0548C310.071 90.3523 310.52 90.7323 310.9 91.179C311.862 92.7111 313.239 93.1538 314.995 93.1392C315.357 92.7447 315.774 92.2709 316.221 91.7683C317.351 91.9537 318.405 92.4769 319.249 93.2717C319.7 93.6486 320.191 93.9783 320.663 94.327C320.993 94.6133 321.416 94.7605 321.847 94.7382C322.277 94.716 322.682 94.5261 322.978 94.2075C322.625 91.2358 322.806 91.0821 319.433 90.1757C318.827 89.4547 318.202 88.7116 317.571 87.9598L317.565 87.9273ZM141.076 168.306L141.173 168.414L141.03 168.398L140.89 168.257L141.076 168.306ZM345.701 117.07L345.933 117.139L345.678 117.104L345.558 116.935L345.701 117.07ZM420.748 461.521L420.307 461.508L420.787 461.448L421.01 461.864L421.213 461.615L420.748 461.521ZM528.712 343.599C528.539 342.955 528.317 342.327 528.048 341.718C527.942 341.575 527.806 341.456 527.651 341.371C527.496 341.286 527.325 341.236 527.15 341.225C526.623 341.235 526.739 341.734 526.847 342.07C526.964 342.493 527.189 342.878 527.498 343.185C527.807 343.492 528.19 343.712 528.607 343.82L529.131 344.011L528.712 343.599ZM115.646 146.964C115.981 147.301 116.347 147.605 116.74 147.869C118.632 148.902 120.574 149.84 122.455 150.895C125.102 152.373 127.979 153.434 130.194 155.719C131.083 156.515 132.173 157.04 133.337 157.232C133.98 157.402 134.594 157.672 135.157 158.035C137.67 159.587 140.141 161.195 142.658 162.73C143.263 162.971 143.894 163.131 144.537 163.207C144.332 162.617 144.309 162.155 144.075 161.967C143.648 161.576 143.129 161.307 142.571 161.186C141.796 161.091 141.075 160.731 140.524 160.165C139.955 159.613 139.358 159.092 138.735 158.605C137.48 157.658 136.189 156.757 134.915 155.834C133.254 155.992 132.377 154.692 131.314 153.737C131.018 153.472 130.699 153.237 130.36 153.034C126.701 150.916 122.936 148.996 119.081 147.282C118.371 146.951 117.621 146.722 116.851 146.603C116.457 146.548 116.029 146.875 115.612 147.032C115.579 146.962 115.536 146.898 115.484 146.842C115.451 146.819 115.382 146.837 115.331 146.838L115.646 146.964ZM134.319 298.648L134.18 298.733L134.319 298.586C134.949 299.188 135.533 299.837 136.068 300.529C136.421 301.105 136.851 301.627 137.347 302.08C140.137 304.554 142.701 307.282 145.007 310.23C145.302 310.615 145.646 310.957 146.029 311.248C146.986 311.933 147.973 312.572 148.965 313.207C149.93 313.825 150.115 313.777 151.393 312.643C151.174 312.15 150.978 311.601 150.698 311.095C150.516 310.772 150.222 310.296 149.959 310.262C148.442 310.079 147.65 308.838 146.713 307.921C143.971 305.251 141.358 302.454 138.682 299.725C138.128 299.163 137.544 298.631 136.935 298.132C136.553 297.823 136.136 297.564 135.692 297.359C135.588 297.303 135.474 297.271 135.356 297.266C135.239 297.261 135.123 297.283 135.015 297.33C134.908 297.377 134.813 297.448 134.736 297.538C134.659 297.627 134.603 297.733 134.571 297.848C134.474 298.111 134.391 298.378 134.322 298.649L134.319 298.648ZM428.736 204.147L428.597 204.221L428.655 204.116C429.781 204.892 430.904 205.673 432.039 206.444C432.481 206.647 432.896 206.908 433.273 207.219C434.979 209.251 437.313 210.325 439.477 211.66C440.27 212.046 440.995 212.563 441.623 213.191C443.392 215.425 445.944 216.58 448.106 218.257C449.476 219.22 450.924 220.059 452.435 220.764C452.611 220.818 452.795 220.833 452.977 220.81C453.159 220.788 453.334 220.727 453.491 220.632C453.591 220.567 453.676 220.481 453.74 220.379C453.803 220.277 453.844 220.161 453.859 220.041C453.874 219.92 453.863 219.798 453.827 219.682C453.79 219.566 453.729 219.46 453.648 219.37C452.778 218.058 451.636 216.956 450.305 216.141C449.034 215.402 447.828 214.552 446.7 213.6C445.583 212.666 444.067 212.371 443.191 211.034C442.752 210.488 442.152 210.103 441.481 209.937C440.271 209.532 439.217 208.743 438.474 207.685C437.997 207.054 437.43 206.499 436.793 206.039C435.15 204.972 433.432 204.03 431.76 203.009C431.253 202.707 430.776 202.355 430.338 201.956C428.309 200.103 426.309 198.217 424.284 196.358C422.828 195.023 421.376 193.682 419.86 192.423C418.656 191.419 417.452 190.239 416.059 189.665C414.449 189.003 413.266 187.841 411.902 186.904C409.636 185.341 407.438 183.675 405.245 182.008C403.769 180.887 402.304 179.736 400.92 178.504C400.337 177.834 399.548 177.388 398.684 177.241C398.056 177.19 397.78 176.607 397.366 176.189C395.303 174.116 393.596 171.621 390.775 170.438C390.422 170.265 390.093 170.044 389.798 169.781C387.788 168.206 385.798 166.603 383.772 165.046C383.224 164.672 382.651 164.335 382.059 164.038C381.601 164.495 381.518 164.908 381.837 165.399C382.972 167.135 384.385 168.664 386.016 169.922C388.84 172.012 391.508 174.315 393.998 176.811C395.809 178.785 397.999 180.357 400.429 181.427C402.317 182.249 403.883 183.695 404.877 185.531C405.286 186.311 405.889 186.968 406.626 187.435C407.383 187.86 408.065 188.415 408.641 189.075C409.954 190.411 411.197 191.912 412.728 192.913C414.327 193.953 416.031 194.822 417.643 195.899C419.605 197.209 421.385 198.746 423.329 200.058C425.201 201.317 426.942 202.776 428.739 204.148L428.736 204.147ZM319.132 95.2642C318.199 95.8576 318.142 96.5798 318.47 97.1741C319.607 99.2569 320.941 101.29 323.147 102.322C324.5 102.886 325.612 103.929 326.28 105.258C327.106 107.034 328.617 107.808 330.121 108.664C330.471 108.83 330.855 108.904 331.239 108.881C331.497 108.876 331.898 108.738 331.946 108.564C332.033 108.255 332.033 107.748 331.836 107.539C329.868 105.479 327.857 103.465 325.859 101.432C325.516 101.095 325.194 100.737 324.894 100.36C323.261 98.3509 321.315 96.6295 319.136 95.2657L319.132 95.2642ZM316.099 113.36C315.463 114.984 315.482 114.978 315.656 115.551C316.564 118.581 318.824 120.648 321.017 122.736C321.563 123.146 322.189 123.429 322.851 123.567C322.961 123.61 323.078 123.631 323.195 123.627C323.312 123.623 323.427 123.595 323.534 123.545C323.64 123.495 323.735 123.424 323.814 123.336C323.893 123.247 323.953 123.143 323.991 123.03C324.118 122.688 324.207 122.331 324.359 121.826C323.218 120.413 322.155 118.888 320.871 117.574C319.469 116.134 317.855 114.893 316.102 113.362L316.099 113.36ZM142.055 295.286C140.662 297.135 140.711 297.103 141.844 298.727C142.626 299.863 143.552 300.889 144.598 301.778C145.875 302.864 147.116 303.992 148.372 305.102C149.078 305.727 149.903 305.848 150.4 305.402C150.863 304.987 150.8 303.994 150.237 303.296C150.031 303.085 149.813 302.888 149.582 302.705C148.788 301.964 148.036 301.171 147.198 300.492C145.96 299.482 144.787 298.459 144.638 296.771C143.714 296.239 142.873 295.757 142.057 295.287L142.055 295.286ZM335.689 111.725C335.54 112.112 335.448 112.519 335.417 112.934C335.592 114.564 336.596 115.761 337.765 116.843C338.268 117.306 339.031 117.649 339.267 118.206C339.768 119.373 340.79 119.985 341.583 120.833C341.721 120.934 341.878 121.004 342.044 121.039L343.761 120.535C343.667 120.046 343.494 119.575 343.25 119.142C342.111 117.808 340.9 116.529 339.714 115.235C338.917 114.362 338.15 113.464 337.296 112.652C336.797 112.283 336.259 111.972 335.693 111.725L335.689 111.725ZM109.945 165.96L108.759 168.823C109.14 169.434 109.692 169.912 110.343 170.195C110.995 170.478 111.713 170.552 112.403 170.407C113.394 170.272 113.996 169.813 114.025 168.855C114.05 168.02 114.183 167.137 113.427 166.218C112.355 166.137 111.157 166.049 109.95 165.96L109.945 165.96ZM142.398 172.298C141.209 170.845 140.569 169.802 139.35 169.188C138.329 168.81 137.491 168.039 137.015 167.041C136.277 165.032 134.625 163.972 132.905 162.988C132.717 162.884 132.41 162.995 132.081 163.008C132.169 163.378 132.146 163.727 132.306 163.901C133.452 165.119 134.622 166.313 135.815 167.484C136.588 168.084 137.307 168.755 137.962 169.488C138.745 170.63 139.878 171.276 140.893 172.094C141.082 172.246 141.432 172.183 142.402 172.298L142.398 172.298ZM447.425 211.957C447.063 210.134 446.615 208.961 445.509 208.218C445.085 207.856 444.561 207.638 444.012 207.598C443.462 207.557 442.916 207.696 442.451 207.993C442.683 208.487 442.793 209.162 443.17 209.424C444.359 210.245 445.643 210.914 447.429 211.957L447.425 211.957ZM514.379 323.29C514.343 322.689 514.15 322.108 513.819 321.607C513.488 321.107 513.031 320.706 512.498 320.448C512.235 320.303 511.777 320.477 511.435 320.577C511.343 320.589 511.256 320.627 511.184 320.686C511.112 320.745 511.057 320.823 511.025 320.912C510.993 321.001 510.986 321.097 511.004 321.191C511.022 321.284 511.064 321.371 511.127 321.442C511.484 321.996 511.967 322.453 512.534 322.775C513.101 323.098 513.736 323.274 514.383 323.291L514.379 323.29ZM515.345 332.198C515.558 332.023 515.697 331.77 515.731 331.493C515.766 331.215 515.694 330.933 515.531 330.707C515.085 330.343 514.59 330.049 514.061 329.833C513.929 329.794 513.79 329.789 513.656 329.819C513.522 329.849 513.398 329.913 513.296 330.006C513.193 330.099 513.115 330.216 513.07 330.348C513.024 330.48 513.013 330.622 513.035 330.761C513.069 331.024 513.16 331.277 513.302 331.5C513.445 331.723 513.634 331.91 513.856 332.048C514.079 332.187 514.329 332.272 514.587 332.298C514.846 332.324 515.106 332.29 515.349 332.198L515.345 332.198ZM353.059 128.681C352.913 127.393 351.762 126.796 351.161 125.862C350.854 125.381 350.372 124.704 349.842 125.094C349.137 125.607 350.139 125.927 350.294 126.355C350.518 126.954 350.891 127.484 351.377 127.892C351.862 128.301 352.443 128.572 353.061 128.681L353.059 128.681ZM425.82 388.268C425.428 387.698 424.98 387.169 424.484 386.691C424.29 386.544 423.79 386.672 423.522 386.828C423.39 386.908 423.385 387.351 423.469 387.582C423.841 388.581 424.652 388.319 425.82 388.268ZM419.149 495.124C418.901 495.541 418.725 495.999 418.63 496.478C418.668 496.65 418.745 496.812 418.856 496.948C418.966 497.084 419.107 497.191 419.266 497.261C419.433 497.278 419.601 497.259 419.759 497.206C419.918 497.152 420.064 497.066 420.188 496.952C420.258 496.846 420.301 496.724 420.311 496.596C420.321 496.468 420.298 496.339 420.245 496.223C419.913 495.824 419.546 495.457 419.148 495.126L419.149 495.124ZM338.895 110.887C338.53 110.012 338.194 109.111 336.999 108.907C337.687 110.298 337.686 110.298 338.895 110.887ZM346.81 124.721C347.161 123.517 346.745 123.059 346.028 122.835C345.908 122.804 345.782 122.803 345.661 122.832C345.54 122.862 345.428 122.92 345.334 123.002C345.207 123.173 345.182 123.635 345.306 123.74C345.783 124.105 346.286 124.432 346.81 124.721ZM392.609 160.646C392.771 160.479 392.966 160.369 392.953 160.277C392.931 160.193 392.894 160.114 392.842 160.045C392.791 159.976 392.726 159.918 392.652 159.874C392.569 159.833 392.396 159.971 392.263 160.029L392.609 160.646ZM132.523 306.605L131.828 306.3C131.808 306.39 131.739 306.516 131.775 306.559C131.932 306.747 132.118 306.909 132.292 307.084L132.523 306.605ZM545.027 351.652C544.839 351.495 544.699 351.305 544.61 351.323C544.528 351.337 544.451 351.371 544.384 351.422C544.318 351.473 544.264 351.54 544.228 351.616C544.196 351.709 544.364 351.892 544.449 352.029L545.027 351.652ZM512.903 329.221C512.783 329.118 512.653 329.029 512.515 328.953C512.456 328.931 512.282 329.04 512.285 329.061C512.33 329.204 512.388 329.342 512.459 329.474L512.903 329.221ZM341.357 113.161L341.313 112.985L341.158 113.11L341.357 113.161ZM199.799 147.279C199.812 147.105 199.808 146.93 199.786 146.756C199.773 146.694 199.632 146.651 199.549 146.599C199.503 146.741 199.395 146.9 199.427 147.022C199.461 147.129 199.664 147.194 199.798 147.278L199.799 147.279ZM472.699 404.38L472.553 404.506L472.755 404.54L472.699 404.38Z" fill="#C7D6D3"/>
</svg>
