<svg width="959" height="1135" viewBox="0 0 959 1135" fill="none" xmlns="http://www.w3.org/2000/svg">
<path d="M181.239 816.24C184.719 825.094 189.22 833.201 195.762 840.019C201.52 846.021 208.414 850.664 215.601 854.666C224.354 859.54 233.507 863.622 242.354 868.31C243.216 868.768 244.395 868.218 245.117 867.673C245.504 867.38 246.716 866.146 245.85 865.687C230.771 857.695 214.083 851.507 201.431 839.552C194.9 833.235 189.756 825.554 186.335 817.01C185.052 813.934 183.904 810.796 182.682 807.692C181.457 808.809 180.347 810.054 179.37 811.405C179.992 813.017 180.608 814.632 181.239 816.24Z" fill="#554140"/>
<path d="M175.101 801.362C176.575 804.267 177.811 807.284 178.997 810.325C180.001 809.02 181.133 807.824 182.375 806.757C181.713 805.084 181.02 803.425 180.273 801.789C178.025 796.896 175.163 792.333 171.76 788.216C169.185 785.098 166.415 782.157 163.466 779.412L159.516 781.603C161.715 783.647 163.836 785.78 165.837 788.033C169.471 792.044 172.584 796.523 175.101 801.362V801.362Z" fill="#554140"/>
<path d="M157.966 799.77C160.702 803.66 163.003 807.856 164.828 812.282C167.891 819.364 169.832 826.961 172.737 834.11C173.082 830.805 173.339 827.469 173.852 824.208C172.412 819.932 171.045 815.622 169.332 811.483C167.561 807.041 165.357 802.801 162.752 798.826C160.336 795.342 157.329 792.338 153.873 789.953C152.473 788.95 151.035 788.005 149.559 787.117L145.455 789.393C146.477 789.997 147.483 790.626 148.472 791.279C152.106 793.508 155.319 796.382 157.966 799.77V799.77Z" fill="#554140"/>
<path d="M173.307 835.621C174.175 837.686 175.161 839.697 176.258 841.641C178.898 846.389 182.56 850.442 186.967 853.494C191.583 856.462 196.493 858.922 201.619 860.835C207.424 863.167 213.111 865.686 218.757 868.389C224.457 871.125 230.151 873.872 236.027 876.203C237.311 876.715 240.778 874.074 238.881 873.323C228.37 869.153 218.483 863.545 207.985 859.343C202.816 857.439 197.798 855.138 192.972 852.459C188.262 849.754 184.253 845.933 181.272 841.308C178.215 836.511 176.191 831.207 174.351 825.816C173.91 828.967 173.684 832.155 173.344 835.313L173.307 835.621Z" fill="#554140"/>
<path d="M168.82 852.563C169.327 853.223 169.84 853.879 170.365 854.527C176.802 862.655 185.138 868.964 194.609 872.879C205.627 877.337 217.442 879.226 228.635 883.129C229.94 883.584 233.393 880.917 231.485 880.252C221.521 876.781 211.087 874.901 201.133 871.394C191.384 868.028 182.676 862.124 175.843 854.251C174.075 852.204 172.407 850.068 170.813 847.873C170.549 848.621 170.262 849.363 169.953 850.1C169.6 850.936 169.223 851.757 168.82 852.563Z" fill="#554140"/>
<path d="M142.955 812.891C146.509 817.263 149.717 821.922 152.547 826.826C157.592 835.186 162.42 843.776 168.309 851.549C169.067 850.008 169.736 848.424 170.312 846.804C165.798 840.502 161.864 833.725 157.91 827.073C155.108 822.168 152.018 817.447 148.658 812.933C145.793 809.096 142.236 805.864 138.178 803.409C135.086 801.659 131.891 800.104 128.611 798.754L124.433 801.072C126.962 802.171 129.487 803.264 131.902 804.509C136.089 806.533 139.843 809.38 142.955 812.891V812.891Z" fill="#554140"/>
<path d="M139.711 840.179C146.539 847.844 152.901 856.029 160.28 863.153C161.272 862.09 162.217 860.99 163.115 859.853C156.758 853.561 151.132 846.529 145.21 839.802C138.085 831.708 130.654 823.8 122.146 817.227C118.244 814.205 114.096 811.533 109.746 809.238L105.619 811.529C109.323 813.427 112.879 815.61 116.257 818.061C124.961 824.364 132.54 832.132 139.711 840.179Z" fill="#554140"/>
<path d="M161.81 865.023C169.511 872.216 178.236 878.158 187.693 882.649C198.599 887.755 210.339 890.775 222.348 891.565C222.887 891.541 223.416 891.391 223.894 891.125C224.372 890.86 224.786 890.486 225.104 890.033C225.638 889.205 225.263 888.685 224.38 888.625C203.188 887.178 183.258 878.321 167.29 864.211C166.037 863.103 164.82 861.958 163.626 860.789C162.726 861.917 161.78 863.006 160.789 864.056C161.128 864.38 161.466 864.704 161.81 865.023Z" fill="#554140"/>
<path d="M95.219 829.309C101.04 831.932 106.653 834.735 111.76 838.646C116.303 842.293 120.639 846.205 124.746 850.363C132.577 857.938 140.449 865.56 148.648 872.728C149.87 871.923 151.072 871.086 152.253 870.214C144.958 863.841 137.999 857.036 130.979 850.368C126.689 846.291 122.541 842.041 118.012 838.238C113.308 834.318 108.129 831.038 102.601 828.479C99.0982 826.831 95.563 825.258 91.9947 823.761C90.4165 823.091 88.8325 822.406 87.2383 821.742L83.0054 824.093C83.9124 824.467 84.8171 824.846 85.7213 825.22C88.9069 826.536 92.0728 827.899 95.219 829.309Z" fill="#554140"/>
<path d="M149.196 873.73C149.735 874.2 150.275 874.668 150.816 875.135C159.763 882.82 169.443 889.734 180.407 894.055C186.355 896.4 192.492 896.97 198.839 897.198C204.964 897.417 211.164 897.504 216.998 899.568C218.3 900.029 221.751 897.368 219.846 896.694C209.334 892.979 197.85 895.592 187.209 892.561C181.658 890.829 176.357 888.363 171.438 885.224C166.42 882.127 161.625 878.667 157.089 874.868C155.638 873.67 154.202 872.451 152.782 871.212C152.494 871.428 152.202 871.643 151.907 871.858C151.017 872.502 150.108 873.125 149.196 873.73Z" fill="#554140"/>
<path d="M216.849 899.676C211.013 897.563 204.83 897.422 198.72 897.153C192.388 896.872 186.263 896.252 180.314 893.854C169.349 889.435 159.645 882.433 150.669 874.664C150.124 874.192 149.581 873.719 149.04 873.245C149.95 872.642 150.848 872.024 151.734 871.389C152.024 871.18 152.314 870.965 152.602 870.75C154.029 872 155.47 873.232 156.924 874.446C161.475 878.288 166.281 881.794 171.307 884.937C176.236 888.121 181.54 890.634 187.088 892.415C197.724 895.537 209.16 893.016 219.67 896.822C221.417 897.455 218.671 899.734 217.203 899.734C217.083 899.735 216.963 899.716 216.849 899.676V899.676ZM222.201 891.655C210.224 890.765 198.499 887.646 187.591 882.447C178.134 877.874 169.394 871.855 161.666 864.591C161.322 864.269 160.982 863.941 160.641 863.615C161.62 862.571 162.555 861.489 163.447 860.368C164.645 861.543 165.866 862.704 167.124 863.824C183.139 878.078 203.071 887.106 224.208 888.73C225.089 888.797 225.465 889.322 224.939 890.145C224.634 890.577 224.244 890.936 223.794 891.197C223.344 891.459 222.845 891.617 222.33 891.661C222.286 891.658 222.243 891.657 222.201 891.657L222.201 891.655ZM228.496 883.217C217.313 879.223 205.529 877.235 194.52 872.685C185.056 868.691 176.708 862.31 170.236 854.123C169.712 853.471 169.194 852.811 168.683 852.145C169.079 851.343 169.45 850.525 169.798 849.69C170.102 848.955 170.382 848.215 170.64 847.468C172.244 849.678 173.92 851.828 175.695 853.889C182.559 861.823 191.277 867.8 201.013 871.247C210.955 874.836 221.365 876.804 231.317 880.359C233.069 880.984 230.315 883.268 228.847 883.268C228.729 883.271 228.612 883.254 228.5 883.217L228.496 883.217ZM235.892 876.307C230.03 873.928 224.343 871.136 218.652 868.355C213.015 865.6 207.336 863.042 201.544 860.666C196.43 858.712 191.526 856.213 186.912 853.208C182.506 850.122 178.834 846.04 176.173 841.272C175.814 840.644 175.469 840.011 175.138 839.373C174.439 838.016 173.794 836.634 173.192 835.233C173.204 835.13 173.215 835.027 173.225 834.926C173.541 831.771 173.748 828.588 174.162 825.442C176.031 830.846 178.081 836.164 181.154 840.984C184.154 845.633 188.17 849.485 192.876 852.227C197.698 854.945 202.709 857.286 207.868 859.231C218.345 863.518 228.225 869.205 238.71 873.46C240.436 874.159 237.742 876.383 236.278 876.382C236.147 876.382 236.016 876.357 235.893 876.308L235.892 876.307ZM124.585 850.233C120.469 846.044 116.127 842.098 111.581 838.416C106.473 834.466 100.866 831.617 95.0559 828.948C91.9192 827.506 88.7599 826.119 85.5778 824.787C84.6761 824.406 83.7736 824.019 82.8693 823.638L87.0623 821.322C88.6525 822 90.2339 822.697 91.8101 823.378C95.3673 824.913 98.8963 826.514 102.397 828.181C107.912 830.784 113.085 834.103 117.791 838.058C122.324 841.896 126.48 846.179 130.777 850.288C137.812 857.014 144.783 863.873 152.086 870.302C150.921 871.165 149.732 871.994 148.519 872.788C140.315 865.553 132.43 857.869 124.586 850.234L124.585 850.233ZM242.227 868.387C233.402 863.631 224.275 859.478 215.541 854.539C208.37 850.483 201.485 845.787 195.72 839.747C191.449 835.213 187.838 830.06 184.998 824.452C183.567 821.663 182.273 818.801 181.121 815.877C180.482 814.267 179.861 812.647 179.23 811.032C180.192 809.69 181.287 808.456 182.497 807.35C183.732 810.461 184.897 813.601 186.191 816.685C189.652 825.249 194.818 832.963 201.351 839.323C214.01 851.37 230.64 857.683 245.686 865.793C246.549 866.258 245.353 867.481 244.97 867.77C244.393 868.233 243.696 868.508 242.967 868.561C242.711 868.566 242.457 868.507 242.228 868.388L242.227 868.387ZM139.561 840.044C132.381 831.949 124.793 824.129 116.1 817.766C112.726 815.29 109.177 813.08 105.483 811.155L109.568 808.9C113.907 811.227 118.049 813.93 121.948 816.979C130.453 823.614 137.887 831.571 145.023 839.713C150.954 846.479 156.596 853.548 162.955 859.878C162.072 861.008 161.14 862.099 160.16 863.151C152.779 855.981 146.402 847.755 139.561 840.045L139.561 840.044ZM152.384 826.706C149.541 821.788 146.327 817.111 142.771 812.719C139.657 809.188 135.911 806.316 131.741 804.26C129.335 802.994 126.821 801.888 124.304 800.771L128.435 798.491C131.701 799.866 134.883 801.445 137.964 803.218C142.008 805.699 145.56 808.952 148.431 812.804C151.798 817.336 154.897 822.073 157.711 826.991C161.682 833.661 165.635 840.456 170.157 846.783C169.597 848.394 168.944 849.97 168.201 851.5C162.3 843.702 157.448 835.091 152.385 826.707L152.384 826.706ZM164.685 812.152C162.847 807.722 160.537 803.518 157.799 799.618C155.151 796.216 151.945 793.324 148.328 791.073C147.344 790.413 146.343 789.777 145.325 789.166L149.379 786.929C150.846 787.829 152.277 788.783 153.673 789.793C157.115 792.199 160.116 795.22 162.535 798.715C165.145 802.699 167.359 806.946 169.144 811.391C170.871 815.532 172.256 819.841 173.712 824.119C173.227 827.368 172.995 830.693 172.675 833.986C169.747 826.836 167.769 819.244 164.686 812.157L164.685 812.152ZM174.985 801.246C172.454 796.397 169.333 791.904 165.7 787.874C163.7 785.608 161.584 783.464 159.388 781.406L163.291 779.253C166.235 782.015 169.004 784.969 171.581 788.099C174.984 792.237 177.854 796.814 180.116 801.717C180.868 803.355 181.564 805.017 182.235 806.69C181.013 807.743 179.901 808.924 178.916 810.216C177.715 807.18 176.467 804.16 174.986 801.251L174.985 801.246Z" fill="#3B3430"/>
<path d="M821.22 248.499C823.714 248.875 825.708 250.2 827.81 251.287C830.642 252.703 833.584 253.872 836.605 254.779C837.483 255.013 838.303 255.435 839.013 256.018C839.723 256.601 840.306 257.332 840.725 258.164C840.955 258.622 841.101 259.118 840.499 259.461C839.993 259.752 839.597 259.482 839.16 259.233C833.711 256.116 827.631 253.946 821.71 251.538C821.118 251.296 820.539 251.02 819.977 250.711C819.831 250.645 819.7 250.548 819.593 250.427C819.486 250.305 819.405 250.161 819.355 250.005C819.305 249.848 819.288 249.683 819.304 249.519C819.32 249.355 819.369 249.197 819.448 249.054C819.717 248.351 820.495 248.52 821.22 248.499Z" fill="#FFA85A"/>
<path d="M846.08 295.515C845.919 295.797 845.726 296.057 845.504 296.29C841.705 299.649 839.031 303.61 836.356 307.575C835.869 308.297 835.448 309.504 834.028 308.874C832.834 308.343 833.651 307.413 834 306.683C836.015 302.493 839.384 298.982 842.577 295.389C842.872 294.99 843.275 294.691 843.735 294.532C844.195 294.372 844.691 294.36 845.158 294.495C845.399 294.536 845.621 294.658 845.787 294.842C845.954 295.027 846.057 295.264 846.08 295.515Z" fill="#FFA85A"/>
<path d="M896.359 303.731C896.571 304.469 896.414 304.918 895.713 305.055C895.409 305.159 895.079 305.141 894.787 305.006C894.495 304.87 894.263 304.625 894.137 304.321C892.892 300.313 889.184 297.589 886.42 294.371C885.738 293.577 884.938 292.702 886.31 291.894C887.725 291.06 888.36 292.014 889.067 292.815C890.772 294.756 892.49 296.69 894.261 298.591C894.938 299.248 895.475 300.046 895.836 300.931C896.197 301.816 896.376 302.77 896.359 303.731V303.731Z" fill="#FFA85A"/>
<path d="M907.65 235.137C907.58 236.091 906.698 236.925 905.969 237.69C902.837 240.973 899.259 243.975 897.187 247.882C896.755 248.698 895.705 249.922 894.444 249.253C893.312 248.652 894.041 247.566 894.723 246.63C897.763 242.459 902.087 239.077 905.334 235.035C905.525 234.808 905.764 234.631 906.032 234.516C906.3 234.402 906.59 234.354 906.88 234.375C907.079 234.371 907.272 234.449 907.417 234.592C907.561 234.734 907.645 234.931 907.65 235.137V235.137Z" fill="#FFA85A"/>
<path d="M836.401 274.404C836.325 275.184 835.618 275.459 834.935 275.715C831.127 277.153 827.335 278.624 823.48 279.974C822.424 280.334 821.402 280.797 820.429 281.354C820.057 281.613 819.604 281.714 819.162 281.637C818.721 281.561 818.324 281.313 818.054 280.944C817.486 280.221 817.708 279.489 818.695 279.291C824.174 278.183 828.668 275.384 833.727 273.563C835.083 273.079 835.975 273.189 836.401 274.404Z" fill="#FFA85A"/>
<path d="M849.738 230.357C850.891 230.551 851.957 231.112 852.788 231.963C854.781 234.104 855.998 236.571 857.135 239.046C857.546 239.94 858.02 240.797 858.492 241.665C858.786 242.207 859.228 242.848 858.243 243.25C857.908 243.403 857.535 243.441 857.177 243.358C856.82 243.276 856.497 243.077 856.257 242.791C855.657 242.162 855.126 241.466 854.673 240.717C853.129 237.856 851.99 234.834 849.454 232.379C848.972 231.913 848.674 231.287 849.086 230.667C849.208 230.484 849.597 230.419 849.738 230.357Z" fill="#FFA85A"/>
<path d="M883.005 230.074C882.936 233.721 881.6 237.208 880.98 240.786C880.845 241.561 880.124 242.007 879.169 241.893C878.133 241.77 878.326 241.038 878.311 240.429C878.232 238.571 878.512 236.715 879.134 234.97C880.015 232.874 880.452 230.608 880.415 228.323C880.376 227.584 880.328 226.458 881.786 226.522C883.157 226.582 883.028 227.639 883.09 228.436C883.099 228.983 883.071 229.531 883.005 230.074Z" fill="#FFA85A"/>
<path d="M869.552 303.921C869.74 306.087 869.915 308.254 870.122 310.418C870.196 311.186 870.863 312.248 869.3 312.346C867.884 312.435 867.362 311.434 867.237 310.411C866.964 308.181 866.681 305.947 866.524 303.71C866.471 302.413 866.309 301.122 866.041 299.853C865.821 298.935 866.055 297.99 867.49 297.85C868.861 297.717 869.131 298.561 869.228 299.436C869.392 300.926 869.535 302.42 869.689 303.911L869.552 303.921Z" fill="#FFA85A"/>
<path d="M913.467 284.98C913.402 285.789 912.725 286.159 911.777 285.955C910.58 285.703 909.407 285.344 908.27 284.881C905.664 283.798 903.115 282.626 900.541 281.494C899.606 281.083 898.604 280.566 899.407 279.627C899.768 279.228 900.244 278.961 900.764 278.866C901.284 278.771 901.819 278.854 902.29 279.102C905.795 280.652 908.83 282.872 912.669 283.948C912.897 283.997 913.102 284.127 913.247 284.315C913.393 284.503 913.471 284.738 913.467 284.98Z" fill="#FFA85A"/>
<path d="M903.749 268.485C902.806 268.57 902.431 268.433 902.187 268.127C901.859 267.719 902.05 267.321 902.373 266.991C903.051 266.299 903.908 265.823 904.842 265.622C908.98 264.734 913.143 263.922 917.286 263.049C918.041 262.89 918.617 262.909 918.971 263.53C919.359 264.206 918.822 264.621 918.203 264.84C913.392 266.513 908.021 266.695 903.749 268.485Z" fill="#FFA85A"/>
<path d="M867.243 310.401C866.97 308.171 866.687 305.938 866.53 303.701C866.476 302.404 866.315 301.114 866.046 299.846C865.826 298.928 866.06 297.983 867.496 297.843C868.866 297.71 869.138 298.554 869.234 299.429C869.398 300.919 869.541 302.409 869.696 303.903L869.559 303.913C869.748 306.078 869.923 308.244 870.13 310.408C870.204 311.176 870.87 312.238 869.308 312.336C869.25 312.339 869.193 312.341 869.135 312.341C867.848 312.341 867.363 311.382 867.243 310.401ZM834.038 308.856C832.844 308.325 833.661 307.395 834.01 306.665C836.024 302.476 839.394 298.967 842.59 295.373C842.885 294.974 843.288 294.675 843.748 294.516C844.208 294.357 844.704 294.344 845.171 294.48C845.412 294.521 845.633 294.644 845.799 294.829C845.966 295.014 846.068 295.251 846.09 295.502C845.93 295.784 845.736 296.044 845.514 296.277C841.715 299.635 839.042 303.595 836.367 307.56C835.974 308.14 835.626 309.036 834.765 309.036C834.514 309.028 834.267 308.967 834.039 308.857L834.038 308.856ZM894.138 304.318C892.892 300.311 889.185 297.587 886.42 294.37C885.738 293.576 884.939 292.701 886.311 291.892C887.726 291.058 888.361 292.011 889.067 292.813C890.771 294.754 892.49 296.687 894.261 298.588C894.938 299.245 895.475 300.042 895.837 300.928C896.199 301.813 896.377 302.767 896.361 303.728C896.573 304.466 896.415 304.915 895.714 305.051C895.587 305.077 895.458 305.09 895.329 305.09C895.076 305.114 894.823 305.051 894.608 304.912C894.393 304.773 894.228 304.564 894.139 304.318L894.138 304.318ZM911.772 285.961C910.575 285.709 909.402 285.35 908.265 284.888C905.66 283.805 903.111 282.633 900.537 281.5C899.603 281.089 898.601 280.572 899.403 279.633C899.764 279.234 900.24 278.967 900.759 278.872C901.279 278.777 901.815 278.861 902.286 279.108C905.79 280.658 908.825 282.879 912.664 283.955C912.892 284.004 913.097 284.134 913.242 284.323C913.388 284.511 913.465 284.747 913.461 284.988C913.452 285.139 913.413 285.286 913.346 285.421C913.28 285.556 913.188 285.675 913.076 285.772C912.963 285.868 912.833 285.94 912.693 285.982C912.553 286.025 912.406 286.037 912.261 286.019C912.097 286.017 911.933 285.997 911.773 285.961L911.772 285.961ZM818.064 280.936C817.497 280.213 817.721 279.481 818.706 279.282C824.184 278.175 828.677 275.375 833.736 273.554C835.09 273.067 835.982 273.177 836.408 274.393C836.332 275.172 835.624 275.448 834.942 275.703C831.135 277.143 827.343 278.614 823.489 279.963C822.432 280.324 821.41 280.786 820.437 281.344C820.127 281.534 819.775 281.637 819.415 281.645C819.153 281.641 818.894 281.575 818.66 281.452C818.426 281.329 818.222 281.152 818.064 280.935L818.064 280.936ZM902.18 268.139C901.852 267.731 902.043 267.332 902.366 267.003C903.044 266.31 903.901 265.834 904.834 265.633C908.971 264.745 913.133 263.933 917.276 263.061C918.03 262.9 918.607 262.92 918.961 263.538C919.349 264.215 918.812 264.63 918.193 264.849C913.383 266.526 908.013 266.709 903.741 268.5C903.556 268.516 903.392 268.525 903.247 268.525C903.053 268.553 902.854 268.533 902.668 268.466C902.483 268.398 902.315 268.286 902.18 268.138L902.18 268.139ZM839.123 259.232C833.675 256.115 827.596 253.945 821.676 251.537C821.083 251.295 820.505 251.019 819.943 250.71C819.797 250.644 819.666 250.547 819.559 250.425C819.452 250.303 819.371 250.159 819.321 250.003C819.271 249.847 819.254 249.681 819.27 249.517C819.286 249.353 819.335 249.195 819.415 249.052C819.636 248.47 820.203 248.483 820.802 248.495C820.929 248.498 821.059 248.5 821.187 248.495C823.681 248.871 825.675 250.196 827.776 251.283C830.608 252.7 833.549 253.868 836.569 254.776C837.446 255.01 838.267 255.432 838.977 256.015C839.686 256.598 840.269 257.329 840.688 258.161C840.919 258.619 841.065 259.115 840.462 259.458C840.328 259.539 840.176 259.583 840.021 259.585C839.698 259.546 839.39 259.425 839.123 259.232L839.123 259.232ZM894.432 249.267C893.301 248.666 894.029 247.581 894.712 246.648C897.752 242.477 902.075 239.094 905.323 235.054C905.513 234.827 905.752 234.65 906.02 234.535C906.288 234.421 906.579 234.373 906.868 234.395C907.067 234.39 907.26 234.467 907.404 234.609C907.548 234.751 907.633 234.946 907.639 235.152C907.57 236.105 906.688 236.939 905.958 237.705C902.826 240.986 899.248 243.989 897.176 247.897C896.831 248.547 896.092 249.46 895.165 249.46C894.909 249.457 894.658 249.391 894.432 249.267V249.267ZM856.251 242.795C855.651 242.166 855.121 241.471 854.668 240.722C853.123 237.861 851.985 234.839 849.449 232.385C848.967 231.918 848.669 231.293 849.081 230.673C849.203 230.49 849.592 230.425 849.733 230.363C850.887 230.556 851.954 231.117 852.785 231.968C854.779 234.11 855.995 236.575 857.132 239.05C857.543 239.944 858.017 240.801 858.489 241.668C858.784 242.211 859.225 242.851 858.241 243.253C858.014 243.349 857.772 243.399 857.527 243.401C857.285 243.4 857.046 243.345 856.826 243.241C856.605 243.137 856.409 242.985 856.25 242.796L856.251 242.795ZM879.159 241.906C878.123 241.783 878.316 241.05 878.301 240.442C878.221 238.584 878.501 236.728 879.125 234.984C880.005 232.889 880.442 230.623 880.405 228.338C880.366 227.599 880.318 226.473 881.775 226.538C883.148 226.598 883.018 227.654 883.081 228.451C883.09 228.998 883.062 229.546 882.996 230.089C882.927 233.735 881.59 237.221 880.97 240.798C880.894 241.147 880.697 241.454 880.416 241.661C880.136 241.869 879.791 241.962 879.448 241.924C879.352 241.923 879.255 241.916 879.159 241.904L879.159 241.906Z" fill="#555555"/>
</svg>
