<svg width="620" height="586" viewBox="0 0 620 586" fill="none" xmlns="http://www.w3.org/2000/svg">
<path d="M318.59 88.2983C319.235 88.45 319.885 88.6016 320.77 88.8072C320.444 88.0316 320.173 87.3923 319.805 86.5161L321.905 86.8973C322.975 87.7353 322.832 89.4725 324.398 89.7093C325.249 89.2753 324.418 88.4241 324.77 87.9325C325.166 87.4654 325.592 87.0269 326.047 86.6202C326.543 87.1596 327.269 87.6348 327.498 88.2668C327.915 89.1683 328.558 89.9425 329.36 90.5107C330.82 91.7966 332.433 92.914 334.12 94.2089C334.58 93.7972 335.038 93.396 335.49 92.9934C336.036 93.5688 336.641 94.2108 337.246 94.8438C337.455 95.0575 337.825 95.2405 337.864 95.4644C338.236 97.564 339.882 97.8576 341.492 98.246C341.859 98.3467 342.221 98.4666 342.577 98.6052C344.726 100.717 344.84 103.392 346.017 105.628C346.218 106.008 346.116 106.547 346.118 107.011C346.111 107.989 346.334 108.956 346.766 109.832C347.198 110.708 347.827 111.467 348.602 112.047C350.332 113.339 351.726 115.047 352.659 117.018C352.897 117.618 353.25 118.164 353.697 118.624C354.144 119.084 354.675 119.448 355.26 119.696L355.468 121.198C357.559 121.686 359.381 123.001 360.533 124.855C361.15 125.857 361.892 126.795 362.483 127.808C363.742 129.971 365.577 131.653 367.303 133.392C369.792 135.909 372.313 138.381 374.701 141.009C376.302 142.6 377.983 144.104 379.738 145.515C381.751 147.226 383.473 149.265 384.835 151.549L384.889 151.454C383.766 151.782 383.018 150.885 382.347 150.297C380.276 148.487 378.343 146.511 376.353 144.607C375.423 143.734 374.442 142.92 373.416 142.168C371.812 140.871 370.338 139.415 369.014 137.821C366.702 135.375 364.199 133.126 361.53 131.095C361.291 130.94 361.035 130.815 360.768 130.72C360.65 130.735 360.538 130.78 360.442 130.851C360.346 130.923 360.269 131.018 360.219 131.128C360.17 131.238 360.148 131.36 360.157 131.481C360.166 131.603 360.204 131.72 360.27 131.823C360.747 132.869 360.884 134.095 361.937 134.849C362.023 134.898 362.092 134.973 362.135 135.063C362.858 137.365 364.943 138.489 366.473 140.106C368.724 142.592 371.198 144.86 373.86 146.878C374.245 147.186 374.587 147.548 374.874 147.953C376.842 150.525 379.579 152.102 382.193 153.834C383.245 154.535 384.401 155.083 385.417 155.83C386.04 156.298 386.746 156.637 387.495 156.825C388.244 157.013 389.021 157.047 389.781 156.926L389.699 156.888C389.795 157.34 389.929 157.782 390.098 158.21C390.204 158.473 390.403 158.684 390.655 158.802C390.908 158.919 391.194 158.933 391.455 158.841C392.202 158.614 391.96 158.056 391.763 157.529L391.737 157.514C392.185 157.698 392.615 157.929 393.018 158.202C395.11 159.975 397.461 161.454 399.148 163.686C400.394 165.34 402.355 166.302 403.436 168.128C403.563 168.343 403.927 168.445 404.196 168.561C405.029 168.881 405.78 169.391 406.393 170.052C407.006 170.712 407.465 171.506 407.734 172.373C410.223 172.522 410.684 174.923 412.117 176.208C411.868 176.896 411.508 176.594 411.172 176.426C411.085 176.386 411.013 176.291 410.923 176.269C408.062 175.641 406.01 173.722 404.005 171.701C403.54 171.345 403.046 171.03 402.528 170.762C401.769 170.323 401.083 169.765 400.494 169.108C399.798 168.425 398.987 167.876 398.101 167.488C397.348 167.053 396.57 166.59 395.522 166.985C395.512 167.267 395.391 167.652 395.503 167.973C396.088 169.574 397.224 170.905 398.698 171.715C401.254 173.221 403.343 175.345 405.769 177.021C407.343 178.183 408.796 179.506 410.106 180.971C409.961 181.063 409.704 181.133 409.692 181.248C409.698 181.49 409.749 181.729 409.842 181.952C409.841 181.961 410.044 181.96 410.06 181.919C410.132 181.774 410.169 181.613 410.169 181.45C410.133 181.267 410.077 181.088 410.001 180.918C410.416 181.151 411.002 181.285 411.219 181.633C412.172 183.038 413.609 184.023 415.239 184.388C416.484 184.784 417.647 185.413 418.67 186.243C419.527 186.874 420.423 187.448 421.352 187.96C421.564 188.084 421.896 187.983 422.399 187.986C422.245 187.544 422.214 187.146 422.003 186.904C420.861 185.56 419.708 184.224 418.486 182.952C417.969 182.505 417.407 182.114 416.809 181.787C415.336 180.834 414.047 179.609 413.009 178.176C412.93 178.062 413.009 177.839 413.017 177.629C414.396 177.589 414.984 179.156 416.216 179.376L416.149 179.307C416.52 179.566 417.1 180.127 417.23 180.04C417.409 179.911 417.613 179.823 417.829 179.781C418.044 179.739 418.266 179.745 418.48 179.797C418.695 179.85 418.896 179.948 419.071 180.086C419.245 180.223 419.39 180.397 419.494 180.596C420.59 182.338 422.256 183.311 423.805 184.476C424.35 184.883 424.804 185.419 425.324 185.868C425.597 186.138 425.917 186.353 426.267 186.504C428.307 187.197 430.088 188.522 431.365 190.293C432.089 191.085 432.926 191.761 433.845 192.299C434.417 192.698 434.259 193.09 434.125 193.537L434.002 193.396L434.159 193.474L435.246 194.957L435.288 194.879L432.509 193.524C431.475 194.503 431.331 194.983 431.994 195.613C432.923 196.494 433.895 197.325 434.907 198.103C435.678 198.692 436.649 199.032 437.07 200.033C437.161 200.21 437.308 200.35 437.486 200.43C439.197 201.167 440.747 202.252 442.039 203.618C443.79 203.854 444.287 205.306 444.819 206.611C445.936 206.652 445.526 205.922 445.529 205.421L445.491 205.499C446.55 206.353 447.63 207.184 448.666 208.072C449.029 208.309 449.337 208.626 449.566 208.999C449.795 209.372 449.941 209.793 449.992 210.229C449.972 210.473 450.037 210.717 450.176 210.917C450.316 211.117 450.52 211.26 450.752 211.321C451.653 211.633 452.3 212.455 453.313 212.617C453.598 212.693 453.848 212.867 454.022 213.11C454.196 213.353 454.282 213.649 454.266 213.949L454.314 213.88C453.955 213.73 453.589 213.599 453.217 213.488C451.943 213.184 451.264 213.78 450.848 215.031C452.368 216.105 453.802 217.24 455.35 218.172C457.322 219.366 458.637 220.884 458.777 223.221C458.793 223.62 458.944 224.001 459.206 224.3C459.467 224.598 459.821 224.795 460.207 224.856C460.519 224.933 460.882 224.72 461.216 224.636L460.964 223.652C461.105 223.611 461.296 223.488 461.38 223.544C461.864 223.867 462.326 224.223 462.784 224.585C463.474 225.126 464.116 225.727 464.835 226.216C465.986 226.913 467.002 227.823 467.828 228.9C468.552 229.898 469.343 230.844 470.194 231.731C471.015 232.601 472.397 232.919 473.449 233.617C474.26 234.158 474.993 234.814 475.624 235.566C476.666 236.881 478.003 237.921 479.521 238.594C478.574 240.482 478.856 241.13 480.795 241.758C481.045 241.855 481.289 241.967 481.526 242.093L481.563 242.025L481.242 242.371L481.778 242.657L481.711 242.614C482.59 243.218 483.495 243.801 484.356 244.435C485.518 245.3 485.797 246.687 486.389 247.877C486.508 248.121 486.273 248.611 486.08 248.902C485.662 249.515 485.162 250.068 484.698 250.647C483.771 250.617 482.835 250.537 481.916 250.58C481.777 250.597 481.644 250.651 481.531 250.735C481.418 250.82 481.328 250.933 481.27 251.063C481.212 251.194 481.187 251.338 481.199 251.481C481.21 251.624 481.257 251.763 481.336 251.883C481.455 252.152 481.624 252.395 481.833 252.599C482.949 253.56 484.147 254.415 485.412 255.155C486.786 255.847 487.665 256.67 487.627 258.192C489.294 259.403 491.104 260.285 492.174 262.049C494.366 263.338 495.991 265.497 498.427 266.422L498.427 266.347C498.106 266.63 497.631 266.854 497.501 267.215C497.388 267.745 497.35 268.29 497.39 268.832C498.322 269.883 499.21 270.88 500.232 272.028C499.941 272.33 499.674 272.656 499.433 273.001C499.233 273.268 499.142 273.604 499.181 273.939C499.22 274.274 499.386 274.581 499.642 274.795C500.243 275.403 501.144 275.747 501.307 276.733L501.383 276.653C499.345 275.906 497.613 274.469 496.476 272.582C495.258 270.891 493.801 269.394 492.153 268.141C491.67 267.648 491.041 267.332 490.366 267.243C488.897 267.384 488.093 266.553 487.151 265.611C485.654 264.119 483.915 263.06 481.726 263.231C480.932 263.296 480.612 263.819 481.016 264.594C481.546 265.62 482.092 266.639 482.699 267.798C483.32 268.026 484.041 268.313 484.774 268.548C487.199 269.339 488.586 271.187 489.554 273.383C489.791 273.928 489.836 274.53 490.474 274.746C491.012 274.915 491.563 275.04 492.12 275.118C492.37 275.134 492.621 275.121 492.868 275.081C492.988 275.338 493.16 275.532 493.139 275.686C492.906 277.717 494.21 278.662 495.831 279.37C496.278 279.562 496.76 279.652 497.219 279.805C497.586 279.927 498.076 279.97 498.291 280.226C499.921 282.201 502.612 281.854 504.449 283.369C504.611 283.499 505.264 283.325 505.376 283.111C505.501 282.876 505.37 282.361 505.174 282.095C504.556 281.313 503.71 280.751 502.761 280.495C502.199 280.28 501.652 280.027 501.124 279.737C501.511 278.738 501.838 277.886 502.167 277.033L502.155 277.134C503.8 278.507 505.241 280.149 507.239 281.078C507.716 281.419 508.149 281.823 508.526 282.277C509.634 283.25 510.753 284.215 511.87 285.176C512.575 285.78 513.657 286.061 513.62 287.321C513.615 287.53 514.152 287.93 514.474 287.995C515.506 288.216 516.555 288.321 517.62 288.474C518.014 288.974 518.337 289.752 518.86 289.961C519.838 290.273 520.843 290.484 521.86 290.593C522.294 291.228 522.763 291.918 523.226 292.602C522.511 292.98 521.751 293.264 520.964 293.445C519.135 293.63 518.218 294.836 517.368 296.196C516.642 297.362 515.909 298.526 515.205 299.648C515.279 300.047 515.46 300.417 515.728 300.716C515.997 301.016 516.343 301.233 516.725 301.342C518.186 301.861 519.619 302.461 521.03 303.013C521.309 304.299 519.943 304.507 519.722 305.653L520.743 308.586C519.477 309.607 518.339 310.612 516.455 309.795C516.093 309.635 515.577 309.879 515.106 309.942C514.9 311.264 515.621 312.292 515.901 313.392L515.923 313.333C515.755 313.87 515.504 314.376 515.178 314.83C513.668 316.329 514.169 318.042 515.193 319.518C516.025 320.722 516.658 322.056 517.065 323.468C517.191 323.947 517.415 324.394 517.723 324.78C518.03 325.165 518.413 325.48 518.847 325.704C520.307 326.481 521.68 327.381 523.411 327.547C524.952 327.696 526.257 328.716 527.485 329.512C528.299 331.713 526.646 332.94 526.104 334.687C525.281 334.129 524.48 333.587 523.667 333.041C522.884 333.239 522.152 333.725 521.246 333.054C520.698 332.648 520.142 332.939 519.747 333.395C519.505 333.625 519.35 333.936 519.312 334.273C519.273 334.61 519.353 334.951 519.536 335.236C519.885 335.829 520.229 336.428 520.567 337.028C520.911 337.691 521.416 338.253 522.034 338.658C522.652 339.063 523.361 339.298 524.092 339.339C524.842 339.404 525.572 339.629 526.233 340.001C527.128 340.47 528.25 340.462 529.388 340.676C529.904 341.402 530.476 342.199 531.134 343.122C531.922 342.95 532.746 343.044 533.481 343.393C534.215 343.741 534.821 344.323 535.205 345.052C535.567 345.633 536.033 346.151 536.446 346.704C537.801 348.511 538.47 348.77 540.877 348.44L541.775 345.207C543.008 345.141 544.123 345.077 545.245 345.017C545.731 344.092 545.955 343.044 545.89 341.992C545.979 340.944 546.007 339.891 545.974 338.838C545.891 337.707 545.627 336.576 545.405 335.233C545.613 334.81 545.795 334.374 545.95 333.928C546.095 333.386 546.212 332.838 546.303 332.284C547.061 331.978 547.746 331.704 548.431 331.427L548.346 331.407C549.135 332.916 549.777 334.424 549.036 336.07C548.98 336.203 548.953 336.347 548.956 336.492C548.96 336.637 548.994 336.78 549.056 336.911C549.869 338.105 549.439 339.03 548.839 340.063C548.611 340.682 548.583 341.36 548.76 341.999C548.987 343.234 549.344 344.457 549.663 345.683C549.722 346.061 549.858 346.422 550.063 346.743C550.941 347.788 551.006 349.092 551.483 350.264C551.608 350.631 551.644 351.023 551.59 351.406C551.535 351.79 551.39 352.154 551.169 352.467C550.477 352.567 549.635 352.482 549.088 352.837C548.641 353.131 548.554 353.943 548.306 354.53C547.866 354.789 547.621 354.376 547.31 354.18C546.117 353.422 545.67 353.38 544.92 354.432C544.686 354.78 544.384 355.073 544.032 355.294C543.679 355.514 543.285 355.656 542.875 355.712C541.402 355.962 539.924 356.229 538.338 356.506C537.97 357.211 537.892 358.217 536.952 358.722C536.762 358.851 536.606 359.025 536.497 359.229C536.388 359.434 536.329 359.663 536.326 359.896C536.386 360.465 536.315 361.038 536.119 361.572C535.922 362.105 535.606 362.583 535.195 362.967C535.015 363.117 534.898 363.332 534.87 363.569C534.842 363.806 534.905 364.045 535.045 364.237C535.215 364.481 535.465 364.655 535.749 364.729C536.033 364.802 536.333 364.77 536.594 364.638C537.11 364.421 537.61 364.166 538.088 363.873C538.492 363.667 538.898 363.468 539.396 363.221C540.759 364.869 540.657 366.521 540.131 368.176C539.85 369.046 539.43 369.864 539.033 370.806C537.754 371.344 537.754 371.344 537.009 373.177C539.037 375.2 541.117 377.274 543.314 379.46C543.351 379.928 543.378 380.601 543.462 381.267C543.665 382.854 543.952 383.146 545.617 383.519C545.987 383.601 546.36 383.668 546.813 383.762C547.445 385.055 547.778 386.644 550.126 386.588C549.402 387.202 549.229 387.488 549.022 387.5C547.146 387.615 545.288 388.025 543.365 387.534C542.899 387.414 542.403 387.423 541.935 387.328C539.768 386.878 538.008 387.786 536.352 388.815C535.684 389.232 535.293 390.072 534.707 390.811C532.723 390.8 530.747 390.52 528.831 389.979C527.273 389.521 525.667 389.265 524.051 389.217C522.421 389.29 520.792 389.023 519.262 388.434C518.556 388.118 517.784 387.99 517.019 388.063C515.313 388.332 514.163 389.686 512.636 390.367C512.189 390.622 511.811 390.988 511.538 391.431C511.265 391.874 511.105 392.38 511.072 392.905C511.013 393.08 510.926 393.244 510.812 393.388C509.136 394.539 507.059 394.282 505.165 394.625C504.681 394.687 504.19 394.621 503.737 394.433C503.284 394.244 502.886 393.939 502.58 393.549C501.835 392.753 501.05 391.999 500.228 391.289C498.434 389.663 496.431 388.867 494.1 389.473C493.82 389.519 493.538 389.55 493.255 389.567C493.169 389.579 493.098 389.662 492.862 389.815C492.599 390.627 492.292 391.584 491.941 392.673C490.649 392.192 489.479 391.76 488.416 391.367C487.076 391.707 487.48 392.883 487.167 393.716L486.32 393.618L486.563 393.608L486.41 393.672C485.687 393.423 485.595 392.76 485.382 392.175L485.37 392.227L485.143 391.572L485.229 391.622L484.582 391.805L484.615 391.758C483.528 391.801 483.129 390.519 482.099 390.356C481.55 390.57 480.782 390.785 480.885 391.552C480.928 392.138 481.1 392.707 481.388 393.218C481.676 393.729 482.072 394.167 482.547 394.501C482.874 394.711 483.241 394.845 483.623 394.894C485.511 395.112 487.26 395.915 489.072 396.413C490.54 396.872 491.904 397.631 493.081 398.643C493.482 398.919 493.78 399.326 493.924 399.797C494.069 400.268 494.052 400.774 493.876 401.231L493.852 401.375L493.831 401.165L494.42 401.728C494.308 401.929 494.251 402.197 494.149 402.205C492.217 402.381 491.139 403.816 489.846 404.937L489.902 404.996L489.035 404.538L489.09 404.558C488.273 403.725 487.77 404.665 487.107 404.794C486.501 404.196 486.056 403.339 485.048 403.351L484.587 402.946C484.596 403.023 484.591 403.157 484.62 403.166C484.777 403.208 484.936 403.239 485.097 403.257L484.954 404.41C484.333 404.154 483.823 403.958 483.33 403.73C482.753 403.475 482.103 403.459 481.519 403.684C481.065 403.861 480.576 403.922 480.092 403.863C479.609 403.803 479.146 403.623 478.744 403.34C478.23 403.071 477.67 402.91 477.096 402.866C476.456 403.66 475.939 404.288 475.427 404.917C475.312 404.773 475.29 404.311 475.004 404.77L475.462 404.854C475.479 405.121 475.477 405.39 475.455 405.657C475.348 406.317 475.55 406.687 476.284 406.704C476.42 406.708 476.563 406.897 476.704 407.002L476.735 406.917C476.173 406.949 475.609 406.926 475.05 406.85C474.51 406.692 473.986 406.485 473.482 406.231C472.199 407.589 472.179 407.67 470.616 407.179C469.623 406.865 468.596 407.177 467.616 406.568C467.132 406.268 466.258 407.275 466.579 407.823C466.839 408.225 467.01 408.68 467.079 409.156C467.149 409.631 467.115 410.116 466.979 410.575L465.262 411.079C465.133 410.827 465.043 410.556 464.996 410.276C465.003 409.279 465.016 408.31 463.76 407.929L462.924 408.709C462.238 407.905 461.578 407.13 460.943 406.384C460.545 406.588 460.193 406.872 459.907 407.22C459.622 407.569 459.409 407.974 459.283 408.41L459.312 408.344C458.729 408.53 458.158 408.749 457.599 409C457.188 409.208 457.124 408.828 456.929 408.685C455.495 407.636 453.985 407.855 452.496 408.17C452.323 408.243 452.17 408.359 452.053 408.508C451.935 408.657 451.856 408.834 451.823 409.023C451.79 409.212 451.803 409.406 451.863 409.589C451.922 409.772 452.025 409.937 452.163 410.069C453.703 411.128 454.438 412.754 455.457 414.214C456.368 415.027 458.057 414.476 458.612 416.195C457.887 416.502 457.084 416.574 456.314 416.4C455.544 416.226 454.842 415.816 454.305 415.224C453.079 416.201 454.859 418.058 453.28 418.825C452.858 418.375 452.556 417.823 452.403 417.221C452.249 416.619 452.249 415.989 452.403 415.389C452.462 415.248 452.485 415.094 452.47 414.941C452.455 414.788 452.403 414.64 452.318 414.513C452.233 414.385 452.118 414.281 451.984 414.21C451.85 414.14 451.701 414.104 451.551 414.107C451.232 414.634 450.884 415.161 450.589 415.717C450.42 416.041 450.141 416.483 450.247 416.759C451.067 418.857 449.599 420.622 449.829 422.626C449.884 423.132 449.105 423.541 448.832 423.201C448.562 422.858 448.207 422.594 447.805 422.437C447.403 422.279 446.968 422.235 446.545 422.308C445.847 422.245 445.16 422.088 444.501 421.839C444.014 424.416 443.827 426.835 444.589 429.307C444.704 429.78 444.955 430.208 445.31 430.534C446.624 431.542 447.818 432.706 448.865 434.001C449.265 434.421 449.733 434.766 450.25 435.021C451.891 435.922 452.313 436.998 451.545 438.467C451.16 439.2 450.789 439.939 450.31 440.869C449.757 440.946 449.032 441.039 448.107 441.163L447.849 442.744L460.781 448.589C460.259 449.636 459.818 450.517 459.337 451.472C460.424 452.221 461.371 452.877 462.236 453.475C462.279 453.811 462.386 454.042 462.318 454.172C461.903 454.989 461.391 455.751 461.023 456.586C460.641 457.464 461.632 458.312 461.247 459.354C461.014 459.988 461.604 460.975 461.861 461.962C461.039 462.352 460.149 462.574 459.242 462.615C458.406 462.749 457.513 462.67 456.71 462.875C455.189 463.275 453.736 463.436 452.309 462.392C448.961 462.101 446.103 460.192 443.02 459.026C442.52 458.756 441.941 458.687 441.396 458.832C440.684 459.124 439.916 459.252 439.147 459.206C438.379 459.16 437.628 458.941 436.949 458.566C436.767 458.494 436.577 458.448 436.383 458.431C434.815 458.101 433.965 458.704 433.915 460.246C433.931 460.729 433.986 461.211 434.078 461.686L434.121 461.611C433.841 461.565 433.439 461.376 433.303 461.496C432.846 461.88 432.308 462.149 431.73 462.282C431.153 462.414 430.552 462.408 429.976 462.262L427.349 466.044C427.789 467.277 428.34 468.507 427.836 470.164C427.602 470.273 427.343 470.314 427.087 470.285C426.831 470.255 426.587 470.156 426.381 469.996C425.71 469.593 424.988 469.275 424.307 468.872C423.422 468.374 422.383 468.25 421.415 468.527L420.899 470.324C420.041 470.146 419.491 470.033 418.956 469.923C418.236 470.351 417.496 472.187 417.785 472.908C417.879 473.188 418.068 473.423 418.319 473.571C419.975 474.131 420.092 475.509 420.215 476.855C420.309 477.892 420.309 478.938 420.352 479.944C420.914 480.416 421.435 480.857 421.908 481.259C421.946 481.735 421.868 482.212 421.681 482.648C421.493 483.083 421.203 483.464 420.835 483.755C419.944 484.002 419.609 483.228 419.044 482.906C417.593 482.082 416.096 481.382 415.292 479.732C414.986 479.344 414.59 479.04 414.141 478.847C413.236 478.257 412.302 477.714 411.343 477.222C410.658 476.927 409.954 476.68 409.236 476.484C408.122 476.788 409.14 478.504 407.641 477.915C407.651 478.302 407.597 478.508 407.671 478.659C408.213 479.807 409.02 480.804 410.02 481.566C411.925 483.049 413.777 484.619 414.954 486.922C416.165 489.294 418.314 491.007 420.428 492.621C421.192 493.212 421.834 493.953 422.315 494.8C422.895 495.759 423.273 496.906 424.284 497.624C424.594 497.864 424.845 498.175 425.018 498.532C425.191 498.888 425.279 499.28 425.278 499.677L425.309 499.606C425.027 499.613 424.558 499.512 424.487 499.643C423.644 501.168 422.121 502.247 421.699 504.267C422.097 505.324 422.575 506.547 424.061 506.755C425.537 506.955 426.162 506.406 427.076 504.415C427.411 504.593 427.677 504.881 427.831 505.233C427.985 505.584 428.017 505.978 427.923 506.349C427.776 506.897 427.596 507.43 427.409 507.965C427.222 508.499 427.017 509.013 426.843 509.471C425.937 509.737 425.229 509.975 424.499 510.153C423.679 510.35 422.944 510.809 422.401 511.465C422.128 511.842 421.83 512.2 421.51 512.536C420.124 513.733 418.783 514.825 416.756 515.152C413.956 515.656 411.113 515.882 408.266 515.829C405.417 515.733 402.593 516.217 399.744 516.33C398.408 516.341 397.071 516.248 395.747 516.051C392.981 515.732 390.22 515.317 387.459 515.02C384.781 514.733 382.151 514.129 379.499 513.643C375.85 512.976 372.532 511.303 369.023 510.231C366.618 509.496 364.205 508.763 361.766 508.202C358.929 507.498 356.183 506.445 353.591 505.064C351.131 503.9 348.554 503.017 345.907 502.434C345.628 502.367 345.34 502.345 345.055 502.368C342.667 502.54 342.669 502.544 340.614 501.799C340.357 502.003 340.047 502.209 339.778 502.455C339.466 502.756 339.072 502.951 338.647 503.015C338.222 503.079 337.787 503.009 337.4 502.814C336.242 502.302 335.014 501.977 333.761 501.852C332.952 501.788 332.325 501.749 331.713 502.366C331.419 502.619 331.058 502.777 330.675 502.822C330.292 502.866 329.905 502.794 329.56 502.615C328.462 502.218 327.389 501.749 326.347 501.213C324.13 499.963 321.903 498.706 320.23 496.673C320.041 496.446 319.707 496.305 319.593 496.062C318.766 494.343 317.155 493.573 315.672 492.617C314.189 491.66 312.787 490.552 311.324 489.555C309.218 488.113 307.216 486.486 304.812 485.568C303.506 483.829 301.35 483.46 299.709 482.214C298.1 481.121 296.409 480.16 294.653 479.341C291.964 477.914 289.221 476.598 286.568 475.111C284.279 473.828 282.107 472.272 279.608 471.476C278.595 471.153 278.087 470.04 276.801 470.061C275.843 470.069 274.814 469.346 273.835 468.906C272.857 468.466 271.903 467.988 270.945 467.511C270.408 467.273 269.891 466.989 269.4 466.662C267.326 465.126 264.825 464.49 262.682 463.103C262.603 463.042 262.515 462.995 262.421 462.962C257.14 461.568 252.968 457.918 248.325 455.239C245.353 453.523 242.555 451.482 239.676 449.585C238.308 449.376 237.727 447.875 236.275 447.535C235.06 447.249 234.01 446.063 232.867 445.31C231.723 444.556 230.498 443.928 229.426 443.089C228.482 442.379 227.397 441.889 226.25 441.654C223.983 441.052 221.834 440.047 219.902 438.686C217.276 436.971 214.56 435.401 212.136 433.508C211.458 433.809 210.715 433.931 209.976 433.863C209.237 433.795 208.525 433.538 207.905 433.117C205.048 431.202 201.999 429.63 199.156 427.699C198.914 427.536 198.695 427.33 198.462 427.145L198.538 427.017L198.514 427.176C195.734 425.2 192.942 423.232 190.172 421.245C187.949 419.655 185.744 418.042 183.533 416.436C183.286 415.592 182.338 415.984 181.922 415.447L181.86 415.504C182.139 415.181 182.141 414.935 181.635 414.832L181.737 414.864L181.065 415.083L181.07 414.984C177.831 412.758 174.6 410.521 171.348 408.307C167.371 405.593 163.162 403.229 159.555 399.947C158.711 399.175 157.516 398.812 156.517 398.201C155.682 397.693 154.878 397.131 154.111 396.519C153.115 395.721 152.253 394.734 151.207 394.027C148.34 392.09 145.687 389.882 142.986 387.728C140.442 385.702 137.782 383.836 135.223 381.837C133.523 380.505 131.857 379.109 130.275 377.636C129.493 376.908 128.976 375.908 128.258 375.103C127.879 374.687 127.29 374.13 126.857 374.158C125.626 374.226 125.179 373.228 124.495 372.605C123.117 371.344 123.188 371.049 124.959 369.827C125.766 370.197 126.645 370.586 127.515 370.994C128.908 371.653 129.986 372.551 130.305 374.188C130.431 374.764 130.75 375.278 131.207 375.64C133.221 377.043 135.301 378.347 137.359 379.688C137.48 379.743 137.605 379.787 137.734 379.818L139.699 379.018C139.638 378.806 139.644 378.449 139.469 378.27C136.915 375.68 134.345 373.101 131.759 370.535C130.024 368.817 128.542 366.869 126.797 365.153C125.463 363.837 124.101 362.537 122.806 361.187C122.311 360.6 121.856 359.979 121.445 359.328C121.753 359.171 121.923 359.099 122.077 359.006C122.383 358.815 122.854 358.681 122.944 358.403C123.074 357.948 123.05 357.461 122.877 357.019C122.632 356.605 122.317 356.237 121.949 355.931C120.424 354.332 119.076 352.65 118.965 350.231L117.143 350.176C114.912 347.694 112.593 345.155 110.331 342.571C109.891 342.051 109.574 341.435 109.406 340.77C109.219 340.043 109.409 339.238 109.199 338.525C108.875 337.836 108.468 337.191 107.986 336.605C108.454 336.635 108.918 336.72 109.368 336.858C109.697 337.06 110.081 337.149 110.461 337.11C110.842 337.071 111.199 336.906 111.478 336.641C111.917 336.238 112.442 335.878 112.997 336.174C114.356 336.897 115.391 336.368 116.441 335.72C116.755 335.527 117.061 335.329 117.37 335.134L117.461 335.297L117.32 335.127C118.005 334.064 117.214 332.883 117.346 331.76C117.392 331.406 116.918 330.907 116.599 330.549C115.817 329.667 114.943 328.86 114.184 327.958C113.827 327.508 113.551 326.996 113.368 326.448C113.096 325.678 113.183 325.582 114.346 324.586C115.772 325.377 117.355 326.012 118.739 324.71C119.966 323.554 121.222 322.341 119.933 319.757C120.798 320.355 121.693 320.905 122.616 321.403C123.921 321.995 125.03 321.104 124.593 319.74C124.26 318.296 123.559 316.964 122.562 315.881C121.634 315.026 120.587 314.308 119.339 313.332L119.021 311.761C119.202 311.597 119.316 311.391 119.461 311.378C120.93 311.227 122.406 311.106 123.992 310.965C123.951 310.194 124.127 309.429 124.499 308.759C124.87 308.09 125.421 307.544 126.088 307.187C126.283 307.066 126.503 306.99 126.73 306.963C126.958 306.937 127.189 306.961 127.407 307.034C128.604 307.734 129.623 307.261 130.652 306.988C130.952 306.386 131.232 305.836 131.51 305.281L131.618 305.427L131.463 305.281C129.419 302.029 127.047 299.003 124.386 296.255C123.554 295.418 122.703 294.604 121.864 293.783C122.05 293.285 122.401 293.276 122.743 293.561C123.346 294.063 123.896 294.627 124.491 295.143C125.491 296.015 126.564 296.661 128.059 296.322L129.301 294.6C129.834 294.626 130.488 294.469 130.925 294.718C131.323 294.984 131.795 295.106 132.266 295.064C132.738 295.022 133.18 294.818 133.522 294.486C133.786 294.276 134.213 294.261 134.586 294.153C135.422 294.753 136.186 295.357 137.005 295.875C137.366 296.12 137.774 296.283 138.2 296.354C138.627 296.424 139.062 296.399 139.477 296.28C139.851 296.165 140.19 295.956 140.464 295.673C140.739 295.389 140.94 295.04 141.049 294.657C140.288 293.702 139.473 292.623 138.168 292.445C137.539 292.395 136.936 292.162 136.43 291.773C135.924 291.385 135.536 290.857 135.312 290.253C135.053 289.562 134.576 288.978 133.956 288.594C133.336 288.211 132.61 288.05 131.894 288.137C131.435 287.591 131.004 287.022 130.604 286.43C130.166 285.779 129.586 285.24 128.91 284.858C127.944 284.206 127.047 283.453 126.232 282.611C123.812 280.158 121.375 277.735 118.785 275.467C118.119 274.883 117.311 274.451 116.696 273.825C116.095 273.217 115.181 272.892 114.953 271.9C114.885 271.723 114.78 271.563 114.647 271.431C114.513 271.298 114.354 271.196 114.179 271.131C111.851 270.343 110.389 268.367 108.58 266.886C105.841 264.645 103.198 262.294 100.456 260.069C99.5681 259.451 98.6348 258.905 97.6645 258.437C96.9731 258.077 96.3005 257.679 95.6499 257.246C95.1652 256.897 94.8275 256.487 94.1513 256.879C93.9683 256.987 93.2569 256.521 92.9868 256.167C91.9929 254.951 91.0986 253.654 90.3132 252.288C89.5982 250.878 88.6163 249.625 87.4249 248.604C86.5677 247.881 85.4418 247.24 85.3267 245.907L85.2585 245.909C85.715 245.841 86.1666 245.771 86.8026 245.681C86.7216 243.226 86.7985 240.862 84.556 238.893L85.1793 236.87C85.0779 236.484 84.8985 236.124 84.6526 235.814C84.4066 235.503 84.0995 235.248 83.7517 235.066C83.4875 234.933 83.2759 234.711 83.1531 234.438C83.0303 234.164 83.004 233.857 83.0785 233.567C83.1971 233.197 83.2054 232.798 83.1025 232.42C82.9995 232.043 82.79 231.705 82.5002 231.448C81.7155 230.596 81.1598 229.552 80.8875 228.418C81.0783 228.018 81.3843 227.688 81.7647 227.471C82.1451 227.255 82.5817 227.162 83.0167 227.207C83.7618 227.257 84.5078 227.149 85.208 226.89C85.9081 226.631 86.5472 226.227 87.0852 225.702C87.4405 225.402 87.8531 225.18 88.2971 225.051C88.7412 224.921 89.207 224.887 89.6661 224.95C91.666 225.068 92.1214 224.613 92.7851 222.816C92.9089 222.504 92.9616 222.167 92.9392 221.831C92.9168 221.494 92.82 221.166 92.656 220.872C92.2589 220.192 91.7958 219.553 91.2742 218.966C90.9611 218.589 90.5338 218.306 90.2004 217.943C88.4381 216.024 88.8814 215.421 89.8444 214.188C90.0673 213.896 90.2773 213.592 90.4983 213.284C90.4895 212.101 90.2302 210.932 89.7382 209.857C89.2462 208.782 88.5332 207.828 87.6481 207.059C87.2752 206.746 86.9921 206.335 86.8301 205.871C86.3309 204.368 85.5356 202.984 84.4935 201.805C83.1299 200.136 82.6389 198.403 83.4003 196.426C83.7234 195.626 83.7821 194.739 83.5671 193.898C83.3211 192.93 83.8216 192.567 84.8652 192.781C86.1868 193.049 87.5088 193.344 88.8209 193.673C89.2657 193.826 89.7421 193.852 90.1983 193.748C90.6545 193.643 91.073 193.412 91.4081 193.08C91.9842 192.549 92.912 192.406 93.6752 192.064C95.209 191.376 95.7518 190.253 95.1687 188.604C94.6463 187.128 93.9379 185.715 93.3455 184.26C93.0635 183.651 92.857 183.007 92.7309 182.346C92.6298 180.889 92.2472 179.465 91.6051 178.157C91.3002 177.559 91.2253 176.868 91.3954 176.22C91.9462 174.435 91.934 172.464 92.8808 170.811C93.188 170.332 93.3882 169.789 93.4675 169.22C93.5468 168.652 93.5032 168.072 93.3398 167.52C93.2112 167.102 93.446 166.595 93.5099 166.148C94.993 164.794 96.8122 164.903 98.6289 165.351C99.5546 165.576 100.47 165.795 101.404 165.982C102.346 166.248 103.24 166.668 104.052 167.226C105.128 167.833 106.352 168.107 107.573 168.013C106.782 165.465 106.622 162.772 103.936 161.33L103.743 159.496C104.378 159.31 104.894 159.128 105.429 159.012C106.596 158.75 107.819 158.76 108.813 157.912C109.709 157.145 110.83 157.253 112.053 157.619C115.871 158.747 119.545 160.382 123.413 161.335C124.388 161.576 125.269 162.381 126.18 162.947C127.131 163.541 127.866 163.193 127.858 162.066C127.821 161.427 127.744 160.79 127.627 160.16C125.21 158.238 121.927 158.383 119.726 155.933L121.422 153.689C121.135 153.373 120.816 153.089 120.47 152.843C118.483 151.768 116.479 150.741 114.484 149.672C114.034 149.388 113.517 149.235 112.99 149.23C112.463 149.225 111.946 149.368 111.495 149.643C110.935 149.973 110.32 150.193 109.68 150.293C109.453 150.315 109.234 150.387 109.038 150.505C108.842 150.622 108.674 150.783 108.546 150.974C107.992 151.792 107.225 151.504 106.504 151.171C106.225 151.074 105.994 150.869 105.86 150.6C105.727 150.331 105.702 150.019 105.792 149.734C106.104 148.77 106.543 147.858 106.973 146.817C108.552 146.771 109.772 145.582 111.488 145.753C111.767 145.75 112.041 145.684 112.291 145.559C112.54 145.435 112.76 145.256 112.933 145.034C113.935 143.639 115.346 143.434 116.947 143.586C117.037 143.595 117.13 143.537 117.4 143.458C117.72 142.178 119.16 141.903 120.161 141.017C120.144 140.652 120.138 140.28 120.112 139.907C119.932 137.256 119.932 137.256 117.816 135.736C118.258 135.067 118.887 135.443 119.34 135.68C120.731 136.407 122.133 137.094 123.526 137.803C126.224 139.182 128.782 140.864 131.419 142.383C134.404 144.099 137.404 145.786 140.42 147.444C140.694 147.598 141.256 147.598 141.423 147.42C141.515 147.268 141.571 147.095 141.586 146.916C141.601 146.738 141.575 146.557 141.51 146.39C141.185 145.582 140.748 144.811 140.342 144.038C140.076 143.523 139.786 143.023 139.506 142.52C139.692 142.216 139.84 141.989 139.979 141.754C140.249 141.29 140.724 140.837 140.732 140.352C140.706 139.954 140.575 139.569 140.355 139.238C140.134 138.907 139.83 138.642 139.476 138.471C138.534 137.941 137.535 137.529 136.556 137.07C135.74 136.741 134.942 136.369 134.165 135.954C132.737 135.084 131.44 133.94 129.951 133.251C128.472 132.568 126.816 132.344 125.252 131.85C124.43 131.59 123.547 131.352 123.041 130.482C122.96 130.008 123.057 129.521 123.312 129.119C123.568 128.717 123.962 128.43 124.418 128.314C124.79 128.217 125.18 128.219 125.553 128.318C125.925 128.417 126.268 128.611 126.548 128.882C127.52 129.562 128.557 130.138 129.643 130.602C131.246 131.319 132.902 131.889 134.211 133.205C134.691 133.544 135.213 133.814 135.763 134.009C136.302 134.206 136.797 134.513 137.219 134.911C138.189 136.269 139.664 136.519 141.024 136.985C141.522 137.161 142.058 137.19 142.57 137.069C143.081 136.948 143.548 136.681 143.915 136.299C144.585 135.528 145.168 134.683 145.655 133.78C146.243 132.838 146.018 131.78 145.684 130.784C146.057 130.269 146.559 129.866 147.137 129.617C147.716 129.368 148.349 129.281 148.974 129.366C150.516 129.575 152.013 129.699 153.132 131.151C153.733 131.8 154.418 132.362 155.167 132.822C156.731 133.848 158.032 135.245 158.958 136.892C159.188 137.325 159.484 137.72 159.833 138.061C162.269 140.5 164.844 142.785 167.481 145C168.912 146.202 170.406 147.34 171.745 148.64C174.873 151.673 178.452 154.128 181.796 156.89C183.527 158.361 185.511 159.488 187.644 160.212C188.171 160.323 188.707 160.382 189.245 160.386C188.823 158.106 188.275 156.137 186.136 154.961C184.821 154.239 183.57 153.435 183.376 151.753L183.339 151.815C184.072 152.255 184.821 152.671 185.541 153.144C186.939 154.055 188.283 155.05 189.708 155.91C191.979 157.277 194.356 158.454 196.566 159.91C198.397 161.031 200.366 161.897 202.418 162.484C203.913 162.915 205.353 163.529 206.708 164.31C207.647 164.885 207.663 164.858 209.391 164.764C209.756 164.135 209.377 163.679 208.93 163.266C206.303 160.877 203.431 158.786 200.367 157.028C198.938 156.193 197.627 155.084 195.925 154.778C195.382 154.567 194.897 154.221 194.515 153.773C193.132 152.502 191.625 151.38 190.019 150.423C187.706 149.124 185.599 147.471 183.772 145.521C183.964 144.957 184.384 145.227 184.682 145.388C186.841 146.549 188.998 147.725 191.141 148.926C191.733 149.282 192.305 149.671 192.855 150.092C194.851 151.54 196.821 153.026 199.384 153.151C200.025 153.302 200.657 153.489 201.279 153.712C201.709 153.731 202.139 153.685 202.555 153.578C202.986 152.828 202.448 152.401 201.988 152.097C200.692 151.206 199.348 150.39 197.963 149.653C196.655 148.975 195.441 148.121 194.351 147.116C193.545 146.391 192.592 145.838 191.759 145.148C191.375 144.725 191.035 144.261 190.746 143.766C192.266 143.809 193.173 144.65 194.192 145.035C195.266 145.438 196.274 146.06 197.38 145.749C197.737 145.211 197.371 144.902 197.098 144.69C196.484 144.203 195.811 143.788 195.155 143.345C193.711 142.495 192.374 141.468 191.172 140.288C190.527 139.676 189.811 139.15 189.039 138.72C187.386 137.65 185.661 136.688 184.058 135.542C181.172 133.471 178.054 131.788 175.092 129.848C174.435 129.416 173.65 129.144 173.325 128.35C173.188 128.018 173.037 127.5 173.188 127.297C173.467 126.94 173.871 126.708 174.316 126.649C174.802 126.633 175.283 126.775 175.689 127.053C178.456 129.001 181.688 129.859 184.637 131.38C185.734 132.017 186.918 132.481 188.148 132.757C189.092 133 189.996 133.386 190.83 133.902C192.133 134.601 193.429 135.316 194.654 136.139C195.83 136.887 197.241 137.142 198.59 136.851L199.044 135.05C198.924 134.829 198.773 134.626 198.598 134.448C194.384 131.696 190.167 128.95 185.948 126.21C185.534 125.944 185.136 125.653 184.756 125.337C183.635 124.364 183.608 124.013 184.561 122.217C187.769 123.717 190.984 125.402 194.813 125.185C194.739 124.848 194.622 124.522 194.466 124.215C193.01 122.131 190.817 120.927 188.872 119.424C187.783 118.583 186.727 117.697 185.66 116.831L185.623 116.892C186.986 116.706 187.91 117.785 188.999 118.331C191.447 119.549 193.848 120.83 196.547 121.342C197.486 121.541 198.388 121.896 199.217 122.393C200.898 123.371 202.534 123.934 204.379 123.188C205.164 122.95 205.969 122.788 206.785 122.706C207.933 121.081 207.347 119.527 206.224 118.214C205.059 116.892 204.065 115.424 203.264 113.846C202.839 113.064 202.287 112.361 201.63 111.769C201.071 111.309 200.67 110.679 200.485 109.971C200.3 109.264 200.341 108.517 200.603 107.838C200.91 106.956 201.245 106.086 201.609 105.229C202.004 104.29 202.44 103.372 202.912 102.329C202.481 101.786 202.003 101.283 201.485 100.825C200.999 100.51 200.607 100.062 200.355 99.5321C200.104 99.0025 200.002 98.4124 200.061 97.829L199.984 97.843C200.745 97.8548 201.504 97.8626 202.412 97.8761C202.754 97.2341 203.222 96.672 203.787 96.2248C204.352 95.7775 205.002 95.4547 205.696 95.2764C206.344 95.14 206.798 94.3432 207.382 93.8979C207.831 93.4671 208.398 93.1862 209.009 93.0921C209.62 92.998 210.246 93.0952 210.804 93.3708C211.613 93.6863 212.468 93.8556 213.331 93.8711C213.565 93.9052 213.804 93.875 214.023 93.7838C214.242 93.6926 214.433 93.5435 214.576 93.3518C214.72 93.1601 214.81 92.9326 214.839 92.6924C214.868 92.4522 214.834 92.2079 214.741 91.9845C214.42 91.2732 213.973 90.6283 213.422 90.0827C212.526 89.1572 211.576 88.2879 210.578 87.4797C209.535 86.59 208.726 85.4469 208.228 84.1565C207.718 82.991 207.39 81.9362 208.25 80.9542C208.925 80.186 208.151 79.2791 208.469 78.3674C209.768 78.2709 211.072 78.5268 212.249 79.1092C213.674 79.8117 215.139 80.2952 216.858 79.7175C217.093 78.8655 217.357 77.8983 217.609 76.9797C217.25 75.1552 215.354 74.8769 214.103 73.3217C215.288 73.7189 216.08 73.9827 216.967 74.2813C217.11 74.2854 217.252 74.2635 217.386 74.2166C219.267 73.2104 219.429 72.7957 218.716 70.9061C218.576 70.5393 218.438 70.1741 218.264 69.8207C218.002 69.2907 217.705 68.7758 217.401 68.2203C217.561 67.8373 217.824 67.509 218.16 67.2731C218.495 67.0373 218.89 66.9035 219.298 66.8869C220.042 66.9068 220.778 66.7401 221.442 66.4014C221.783 66.0792 222.223 65.8898 222.688 65.8661C223.153 65.8425 223.613 65.9861 223.987 66.2719C224.323 66.4793 224.9 66.2481 225.369 66.253C225.971 66.2019 226.579 66.2767 227.154 66.4729C227.73 66.6691 228.261 66.9825 228.715 67.3942C230.068 68.6325 231.812 69.4319 233.389 70.4229L233.344 70.6538L233.341 70.3975C234.383 71.5706 235.609 72.5587 236.967 73.3211C238.392 74.0503 239.609 75.2087 240.979 76.0818C241.901 76.8135 243.039 77.1987 244.202 77.1724C245.317 77.0855 246.345 78.1129 247.152 78.8918C247.61 79.3662 248.11 79.798 248.643 80.1817C249.524 80.6284 250.225 81.376 250.624 82.294C250.748 82.5616 250.935 82.7942 251.167 82.9714C253.213 84.7986 255.24 86.649 257.331 88.4178C257.907 88.7755 258.377 89.2874 258.689 89.8975C258.819 90.1672 259.022 90.3933 259.274 90.5487C263.093 93.1324 266.291 96.5437 270.158 99.0559C270.685 99.3265 271.172 99.6714 271.605 100.081C272.461 101.051 273.594 101.723 274.841 101.998C276.169 102.354 277.324 103.201 278.082 104.374C278.773 105.325 279.683 106.087 280.73 106.592C282.506 107.643 284.204 108.825 285.811 110.13C286.28 110.537 286.828 110.838 287.418 111.012C288.008 111.186 288.627 111.229 289.233 111.138C289.592 110.506 289.234 110.097 288.894 109.78C287.452 108.432 286.016 107.057 284.492 105.804C283.21 104.745 282.127 103.469 280.637 102.621C279.889 102.165 279.33 101.442 279.07 100.593C278.778 99.5417 278.116 98.6358 277.212 98.051C276.588 97.5741 276 97.0489 275.455 96.4803C275.132 96.1283 274.919 95.686 274.844 95.211C274.84 95.0123 274.798 94.8162 274.719 94.6339C274.641 94.4517 274.527 94.287 274.386 94.1495C274.245 94.012 274.078 93.9043 273.896 93.8329C273.715 93.7616 273.521 93.7278 273.327 93.7338C271.628 93.7124 270.791 92.413 269.715 91.4425C269.759 89.2962 267.349 88.7306 266.71 87.0094C266.567 86.7473 266.349 86.5361 266.085 86.4045C262.238 84.1743 259.003 81.0792 255.389 78.5247C254.979 78.2643 254.647 77.8919 254.431 77.4499C253.273 74.2475 250.625 72.5432 247.962 70.8431C247.616 70.685 247.31 70.4473 247.067 70.1486C246.293 68.6928 244.991 67.7991 243.743 66.8228C241.882 65.3662 239.989 63.9412 238.201 62.3932C237.074 61.2771 235.694 60.4649 234.187 60.0307C233.862 59.9529 233.59 59.5459 233.152 59.169C233.497 58.7176 233.844 58.3248 234.131 57.8955C234.843 56.8238 235.574 55.809 235.251 54.2832C235.014 53.1796 235.734 52.7522 236.782 53.1538C240.657 54.6451 241.173 54.9299 244.803 57.7481C246.963 59.4316 249.119 61.1379 251.187 62.9186C252.366 63.9333 253.48 65.0587 254.71 66.0443C255.053 66.3917 255.363 66.7728 255.633 67.182C255.921 67.6941 256.304 68.1444 256.761 68.5074C258.687 69.4582 259.878 71.1769 261.315 72.6464C261.867 73.2062 262.47 73.7103 263.115 74.1518C264.669 75.1932 266.091 76.4279 267.348 77.8272C268.171 78.6755 269.045 79.4711 269.964 80.2094C270.262 80.468 270.721 80.6139 270.887 80.9223C272.355 83.6355 275.308 84.7281 277.268 86.9144C278.234 87.9868 279.601 88.6974 280.753 89.6188C282.96 91.2521 285.085 92.9988 287.12 94.852C289.66 97.3401 292.536 99.383 295.199 101.7C295.727 102.139 296.283 102.542 296.864 102.904C299.549 104.54 302.06 106.46 304.354 108.632C304.927 109.17 305.599 109.584 306.33 109.851C307.061 110.117 307.837 110.231 308.61 110.185C308.833 110.163 309.048 110.092 309.242 109.977C309.435 109.862 309.602 109.707 309.732 109.521C310.008 108.978 310.222 108.405 310.369 107.811C305.576 103.322 300.895 98.9384 296.215 94.5553C295.651 93.998 295.058 93.4707 294.441 92.9758C292.566 91.5256 290.778 89.9597 289.089 88.2868C287.39 86.6362 285.457 85.2324 283.639 83.7104C283.108 83.2709 282.6 82.8031 282.117 82.3094C278.953 78.9008 275.572 75.7091 271.998 72.7554C270.452 71.5355 269.11 70.0501 267.61 68.7587C265.816 67.2209 263.961 65.7446 262.123 64.2637C260.206 62.7218 258.28 61.1943 256.343 59.6809C255.186 58.7791 253.993 57.9244 252.825 57.0533C254.052 54.9505 254.184 54.31 253.493 52.5115C253.293 51.8522 252.911 51.2645 252.394 50.8192C250.391 49.5146 248.998 47.5412 247.12 46.1066C246.137 45.2935 244.972 44.7437 243.732 44.5069C242.716 44.2587 241.721 43.9264 240.757 43.5133C241.041 41.1378 242.325 40.3769 244.208 41.2942C244.703 41.6134 245.231 41.8731 245.784 42.068C246.115 42.1252 246.431 42.2565 246.709 42.4523C246.986 42.6481 247.218 42.9036 247.389 43.2008C248.006 44.1056 248.832 44.8421 249.792 45.3448C250.692 45.8916 251.646 46.299 252.311 47.3128C252.729 47.956 253.774 48.2259 254.563 48.6094C255.351 48.9928 256.183 49.267 256.604 50.1915C256.783 50.5365 257.075 50.8069 257.428 50.9556C258.875 51.4973 259.831 52.6429 260.857 53.7011C262.491 55.3893 264.349 56.834 266.376 57.9918C267.681 58.6523 269.075 59.1046 270.511 59.3328C270.955 59.3614 271.385 59.5068 271.76 59.7552C273.297 61.1252 274.549 62.798 275.44 64.6722C275.774 65.3734 276.173 66.0408 276.631 66.6651C277.648 67.8728 278.601 69.2444 279.867 70.1091C281.839 71.4528 283.346 73.2348 285.075 74.8026C286.114 75.8434 287.235 76.7949 288.427 77.6472C289.614 78.5227 290.693 79.5416 291.641 80.6819C292.64 81.7918 293.914 82.6031 295.327 83.0275C295.906 83.1077 296.492 83.1191 297.072 83.0612C296.731 80.6982 295.009 79.4464 293.551 78.0624C293.044 77.5773 292.474 77.2179 292.335 76.4839L292.472 76.395L292.32 76.5415C292.073 76.494 291.85 76.3608 291.688 76.1646C291.526 75.9683 291.435 75.7211 291.43 75.4651L291.371 75.5503C292.071 75.3104 292.765 75.0681 293.268 74.8892C294.428 75.8653 295.634 76.7813 296.883 77.6341C297.998 78.326 298.132 79.8542 299.422 80.3179C300.494 81.8066 302.312 82.2967 303.551 83.5055C304.789 84.7143 305.681 86.2885 306.911 87.5199C308.082 88.5631 309.312 89.5336 310.595 90.4264C311.096 90.7241 311.546 91.1045 311.926 91.5516C312.887 93.0849 314.265 93.5282 316.021 93.5138C316.382 93.119 316.799 92.6449 317.247 92.142C318.377 92.3277 319.43 92.8514 320.274 93.6469C320.726 94.0241 321.216 94.3541 321.688 94.7032C322.018 94.9897 322.442 95.1371 322.872 95.1148C323.303 95.0926 323.708 94.9026 324.003 94.5838C323.65 91.61 323.831 91.4562 320.458 90.5487C319.852 89.8271 319.227 89.0833 318.596 88.3309L318.59 88.2983ZM142.11 168.713L142.208 168.822L142.065 168.805L141.925 168.665L142.11 168.713ZM346.729 117.466L346.961 117.536L346.707 117.5L346.587 117.331L346.729 117.466ZM421.819 462.181L421.377 462.168L421.858 462.108L422.081 462.525L422.284 462.276L421.819 462.181ZM529.768 344.186C529.595 343.542 529.373 342.913 529.104 342.304C528.998 342.16 528.862 342.042 528.707 341.956C528.552 341.871 528.381 341.821 528.205 341.81C527.679 341.82 527.795 342.32 527.903 342.656C528.02 343.079 528.245 343.464 528.554 343.772C528.863 344.079 529.246 344.299 529.663 344.407L530.188 344.599L529.768 344.186ZM116.679 147.352C117.013 147.69 117.38 147.994 117.772 148.259C119.665 149.292 121.607 150.231 123.488 151.288C126.135 152.767 129.013 153.829 131.227 156.115C132.116 156.912 133.206 157.438 134.371 157.63C135.014 157.8 135.628 158.071 136.191 158.434C138.704 159.988 141.175 161.597 143.693 163.134C144.297 163.375 144.928 163.535 145.572 163.611C145.366 163.02 145.343 162.558 145.109 162.37C144.682 161.979 144.164 161.71 143.605 161.588C142.83 161.494 142.109 161.133 141.558 160.566C140.989 160.014 140.392 159.493 139.769 159.005C138.514 158.057 137.223 157.156 135.949 156.231C134.288 156.39 133.41 155.088 132.347 154.132C132.051 153.868 131.732 153.632 131.393 153.429C127.733 151.309 123.968 149.387 120.113 147.671C119.404 147.34 118.653 147.111 117.883 146.992C117.489 146.936 117.061 147.263 116.644 147.42C116.612 147.351 116.568 147.287 116.516 147.231C116.483 147.207 116.415 147.225 116.364 147.227L116.679 147.352ZM135.37 299.151L135.231 299.236L135.37 299.089C136 299.691 136.585 300.341 137.119 301.034C137.472 301.61 137.903 302.133 138.398 302.586C141.188 305.062 143.753 307.793 146.06 310.743C146.354 311.128 146.698 311.47 147.082 311.762C148.038 312.447 149.026 313.087 150.018 313.722C150.983 314.341 151.168 314.293 152.446 313.158C152.227 312.665 152.031 312.116 151.751 311.609C151.569 311.285 151.274 310.81 151.011 310.776C149.494 310.592 148.702 309.35 147.765 308.432C145.022 305.76 142.409 302.961 139.733 300.229C139.179 299.666 138.596 299.134 137.986 298.635C137.604 298.326 137.187 298.066 136.743 297.861C136.639 297.805 136.524 297.773 136.407 297.768C136.29 297.763 136.174 297.785 136.066 297.832C135.959 297.879 135.863 297.95 135.787 298.04C135.71 298.129 135.654 298.236 135.622 298.351C135.525 298.613 135.442 298.881 135.373 299.152L135.37 299.151ZM429.775 204.618L429.636 204.693L429.694 204.587C430.82 205.364 431.943 206.145 433.078 206.917C433.52 207.12 433.936 207.381 434.313 207.694C436.019 209.726 438.353 210.801 440.517 212.138C441.31 212.524 442.035 213.042 442.664 213.67C444.432 215.907 446.984 217.063 449.147 218.741C450.516 219.705 451.965 220.545 453.476 221.251C453.652 221.304 453.836 221.32 454.018 221.297C454.2 221.274 454.375 221.214 454.532 221.119C454.632 221.054 454.717 220.967 454.781 220.865C454.844 220.763 454.885 220.648 454.9 220.527C454.915 220.407 454.904 220.284 454.867 220.168C454.831 220.052 454.77 219.945 454.689 219.856C453.818 218.543 452.677 217.439 451.346 216.624C450.075 215.885 448.868 215.034 447.74 214.081C446.623 213.146 445.107 212.85 444.231 211.512C443.792 210.966 443.192 210.58 442.521 210.414C441.311 210.009 440.257 209.219 439.513 208.16C439.036 207.529 438.47 206.973 437.833 206.513C436.189 205.445 434.471 204.502 432.799 203.479C432.291 203.178 431.815 202.825 431.376 202.426C429.347 200.572 427.347 198.684 425.322 196.823C423.866 195.487 422.413 194.145 420.898 192.885C419.693 191.88 418.489 190.699 417.096 190.124C415.486 189.461 414.303 188.298 412.939 187.36C410.673 185.796 408.475 184.129 406.281 182.46C404.805 181.338 403.34 180.186 401.956 178.953C401.373 178.282 400.583 177.835 399.72 177.689C399.092 177.638 398.816 177.054 398.402 176.636C396.338 174.561 394.631 172.064 391.809 170.879C391.457 170.706 391.128 170.485 390.833 170.222C388.822 168.646 386.832 167.041 384.807 165.483C384.258 165.108 383.685 164.771 383.093 164.474C382.635 164.931 382.553 165.344 382.871 165.836C384.006 167.573 385.419 169.104 387.05 170.363C389.875 172.455 392.544 174.759 395.034 177.258C396.845 179.233 399.035 180.806 401.465 181.878C403.353 182.701 404.92 184.148 405.913 185.985C406.323 186.766 406.926 187.424 407.662 187.891C408.42 188.317 409.102 188.872 409.678 189.532C410.992 190.87 412.234 192.372 413.766 193.373C415.365 194.415 417.069 195.284 418.681 196.362C420.643 197.674 422.423 199.212 424.368 200.525C426.24 201.786 427.981 203.246 429.778 204.62L429.775 204.618ZM320.158 95.6409C319.225 96.2345 319.168 96.9573 319.496 97.5521C320.633 99.6365 321.968 101.671 324.174 102.704C325.527 103.269 326.639 104.313 327.307 105.643C328.133 107.42 329.644 108.195 331.149 109.052C331.499 109.218 331.883 109.293 332.266 109.269C332.524 109.265 332.926 109.126 332.973 108.952C333.06 108.643 333.06 108.135 332.863 107.927C330.895 105.864 328.883 103.849 326.886 101.814C326.543 101.477 326.22 101.119 325.92 100.741C324.287 98.7304 322.341 97.0074 320.161 95.6424L320.158 95.6409ZM317.127 113.75C316.491 115.374 316.51 115.369 316.684 115.942C317.593 118.974 319.853 121.044 322.046 123.133C322.592 123.543 323.218 123.827 323.88 123.965C323.99 124.008 324.107 124.029 324.224 124.025C324.341 124.021 324.457 123.994 324.563 123.943C324.669 123.893 324.765 123.822 324.843 123.734C324.922 123.645 324.982 123.541 325.02 123.428C325.148 123.085 325.236 122.728 325.388 122.223C324.247 120.808 323.184 119.282 321.9 117.967C320.497 116.526 318.883 115.284 317.13 113.751L317.127 113.75ZM143.105 295.787C141.713 297.638 141.762 297.605 142.895 299.23C143.677 300.368 144.603 301.395 145.649 302.285C146.927 303.372 148.167 304.501 149.423 305.611C150.13 306.237 150.955 306.359 151.452 305.912C151.915 305.497 151.852 304.503 151.289 303.805C151.083 303.593 150.864 303.396 150.634 303.213C149.839 302.471 149.088 301.678 148.25 300.997C147.011 299.987 145.838 298.963 145.689 297.274C144.765 296.742 143.924 296.259 143.108 295.789L143.105 295.787ZM336.717 112.116C336.568 112.503 336.476 112.911 336.445 113.326C336.62 114.957 337.624 116.155 338.793 117.238C339.296 117.702 340.06 118.045 340.295 118.602C340.797 119.77 341.818 120.383 342.611 121.231C342.75 121.332 342.907 121.403 343.073 121.438L344.79 120.934C344.695 120.444 344.523 119.973 344.279 119.539C343.139 118.204 341.928 116.924 340.743 115.629C339.945 114.756 339.178 113.856 338.324 113.044C337.825 112.675 337.287 112.363 336.721 112.116L336.717 112.116ZM110.98 166.362L109.794 169.227C110.175 169.838 110.728 170.317 111.379 170.6C112.03 170.883 112.748 170.957 113.439 170.813C114.43 170.678 115.032 170.218 115.06 169.259C115.085 168.424 115.218 167.54 114.462 166.62C113.389 166.539 112.191 166.451 110.984 166.362L110.98 166.362ZM143.433 172.708C142.244 171.255 141.604 170.211 140.385 169.596C139.364 169.217 138.526 168.446 138.05 167.447C137.311 165.436 135.66 164.376 133.939 163.39C133.752 163.286 133.444 163.398 133.116 163.41C133.204 163.781 133.18 164.13 133.34 164.304C134.486 165.523 135.656 166.718 136.85 167.89C137.623 168.491 138.342 169.163 138.997 169.896C139.78 171.039 140.913 171.686 141.929 172.504C142.117 172.656 142.467 172.594 143.437 172.709L143.433 172.708ZM448.465 212.436C448.102 210.613 447.655 209.438 446.548 208.695C446.125 208.332 445.601 208.114 445.051 208.073C444.502 208.033 443.955 208.171 443.49 208.469C443.722 208.963 443.833 209.639 444.209 209.901C445.399 210.723 446.683 211.393 448.469 212.437L448.465 212.436ZM515.432 323.861C515.397 323.259 515.203 322.677 514.872 322.176C514.541 321.676 514.085 321.275 513.551 321.016C513.289 320.871 512.83 321.045 512.489 321.145C512.397 321.157 512.31 321.195 512.237 321.254C512.165 321.313 512.11 321.391 512.078 321.48C512.047 321.569 512.039 321.666 512.057 321.759C512.075 321.852 512.118 321.939 512.18 322.01C512.537 322.564 513.02 323.023 513.587 323.345C514.155 323.668 514.789 323.845 515.436 323.861L515.432 323.861ZM516.4 332.775C516.613 332.6 516.751 332.347 516.786 332.069C516.82 331.791 516.748 331.509 516.585 331.282C516.14 330.919 515.645 330.624 515.116 330.408C514.984 330.369 514.844 330.364 514.71 330.394C514.577 330.424 514.452 330.488 514.35 330.581C514.247 330.674 514.17 330.792 514.124 330.924C514.079 331.056 514.067 331.198 514.09 331.337C514.123 331.6 514.215 331.853 514.357 332.076C514.499 332.299 514.688 332.487 514.911 332.625C515.134 332.763 515.383 332.849 515.642 332.875C515.9 332.901 516.161 332.867 516.404 332.775L516.4 332.775ZM354.089 129.087C353.942 127.797 352.792 127.2 352.19 126.265C351.884 125.784 351.402 125.106 350.871 125.496C350.167 126.01 351.169 126.331 351.324 126.758C351.548 127.358 351.921 127.889 352.406 128.297C352.892 128.706 353.473 128.978 354.091 129.086L354.089 129.087ZM426.882 388.875C426.49 388.304 426.042 387.775 425.546 387.296C425.352 387.149 424.852 387.278 424.584 387.434C424.451 387.513 424.446 387.957 424.531 388.188C424.903 389.187 425.714 388.926 426.882 388.875ZM420.224 495.808C419.976 496.226 419.8 496.684 419.705 497.164C419.743 497.336 419.82 497.498 419.931 497.634C420.041 497.77 420.182 497.878 420.342 497.947C420.508 497.964 420.676 497.945 420.835 497.892C420.993 497.839 421.139 497.752 421.263 497.638C421.333 497.532 421.376 497.41 421.386 497.282C421.396 497.154 421.373 497.025 421.32 496.908C420.988 496.509 420.621 496.142 420.223 495.811L420.224 495.808ZM339.922 111.278C339.557 110.402 339.221 109.5 338.026 109.296C338.714 110.688 338.714 110.688 339.922 111.278ZM347.839 125.123C348.19 123.918 347.775 123.459 347.058 123.236C346.937 123.205 346.811 123.204 346.69 123.233C346.569 123.262 346.457 123.32 346.363 123.403C346.236 123.574 346.212 124.036 346.335 124.141C346.812 124.506 347.315 124.834 347.839 125.123V125.123ZM393.642 161.08C393.805 160.913 394 160.803 393.986 160.711C393.965 160.627 393.928 160.548 393.876 160.479C393.824 160.41 393.76 160.352 393.686 160.308C393.603 160.266 393.43 160.405 393.296 160.463L393.642 161.08ZM133.575 307.114L132.88 306.808C132.86 306.898 132.791 307.025 132.827 307.067C132.984 307.256 133.17 307.418 133.344 307.593L133.575 307.114ZM546.085 352.247C545.896 352.09 545.756 351.9 545.667 351.917C545.585 351.932 545.508 351.966 545.441 352.017C545.375 352.068 545.321 352.135 545.285 352.211C545.253 352.305 545.422 352.487 545.506 352.624L546.085 352.247ZM513.957 329.795C513.837 329.693 513.708 329.603 513.57 329.528C513.511 329.506 513.337 329.614 513.339 329.635C513.384 329.778 513.442 329.917 513.513 330.049L513.957 329.795ZM342.385 113.554L342.341 113.377L342.186 113.502L342.385 113.554ZM200.831 147.678C200.845 147.504 200.84 147.329 200.818 147.155C200.805 147.093 200.664 147.05 200.581 146.998C200.535 147.14 200.427 147.3 200.46 147.421C200.493 147.529 200.697 147.593 200.831 147.678L200.831 147.678ZM473.763 405.005L473.617 405.131L473.819 405.165L473.763 405.005Z" fill="#C7D6D3"/>
</svg>
