<svg width="721" height="681" viewBox="0 0 721 681" fill="none" xmlns="http://www.w3.org/2000/svg">
<path d="M369.707 102.692C370.451 102.869 371.2 103.047 372.22 103.287C371.844 102.385 371.53 101.641 371.105 100.622L373.526 101.069C374.761 102.045 374.599 104.064 376.404 104.342C377.384 103.839 376.425 102.848 376.83 102.277C377.286 101.735 377.777 101.226 378.3 100.754C378.873 101.382 379.711 101.935 379.975 102.671C380.458 103.719 381.2 104.62 382.126 105.282C383.81 106.78 385.672 108.082 387.618 109.59C388.148 109.112 388.676 108.647 389.197 108.179C389.826 108.849 390.525 109.597 391.223 110.334C391.464 110.582 391.892 110.796 391.937 111.056C392.369 113.498 394.267 113.842 396.123 114.296C396.547 114.414 396.964 114.554 397.374 114.716C399.856 117.174 399.992 120.285 401.351 122.887C401.584 123.328 401.468 123.955 401.47 124.494C401.465 125.631 401.722 126.756 402.222 127.775C402.721 128.794 403.448 129.678 404.342 130.354C406.339 131.859 407.949 133.847 409.027 136.14C409.303 136.838 409.71 137.473 410.226 138.009C410.742 138.544 411.355 138.969 412.03 139.258L412.272 141.004C414.683 141.575 416.786 143.108 418.117 145.265C418.83 146.43 419.687 147.522 420.369 148.701C421.824 151.219 423.943 153.177 425.935 155.201C428.809 158.132 431.719 161.01 434.475 164.069C436.323 165.922 438.264 167.674 440.289 169.317C442.612 171.31 444.601 173.684 446.175 176.341L446.236 176.23C444.943 176.61 444.079 175.567 443.304 174.882C440.915 172.773 438.683 170.472 436.386 168.255C435.312 167.24 434.18 166.291 432.996 165.415C431.145 163.904 429.443 162.209 427.914 160.354C425.245 157.506 422.356 154.887 419.277 152.521C419.001 152.341 418.706 152.195 418.397 152.084C418.261 152.101 418.132 152.153 418.021 152.236C417.911 152.319 417.823 152.429 417.766 152.557C417.708 152.685 417.684 152.827 417.694 152.968C417.704 153.109 417.749 153.246 417.824 153.365C418.376 154.583 418.536 156.008 419.752 156.887C419.85 156.944 419.93 157.03 419.98 157.135C420.818 159.813 423.223 161.124 424.989 163.006C427.589 165.9 430.443 168.54 433.515 170.891C433.96 171.251 434.354 171.672 434.687 172.144C436.959 175.137 440.117 176.975 443.132 178.993C444.347 179.81 445.68 180.449 446.853 181.319C447.571 181.865 448.386 182.259 449.25 182.479C450.114 182.699 451.009 182.741 451.885 182.601L451.79 182.557C451.902 183.082 452.057 183.596 452.253 184.095C452.375 184.4 452.605 184.646 452.896 184.783C453.187 184.92 453.518 184.937 453.818 184.83C454.679 184.567 454.399 183.919 454.171 183.305L454.14 183.289C454.658 183.503 455.154 183.771 455.619 184.09C458.034 186.156 460.746 187.879 462.694 190.476C464.134 192.401 466.396 193.524 467.644 195.648C467.791 195.899 468.211 196.018 468.522 196.152C469.482 196.526 470.349 197.12 471.057 197.89C471.764 198.659 472.294 199.583 472.606 200.591C475.476 200.769 476.01 203.56 477.664 205.057C477.379 205.856 476.963 205.504 476.576 205.309C476.475 205.262 476.393 205.152 476.289 205.126C472.989 204.39 470.621 202.156 468.306 199.804C467.77 199.388 467.199 199.022 466.602 198.709C465.727 198.197 464.935 197.547 464.255 196.782C463.451 195.987 462.516 195.347 461.493 194.895C460.625 194.388 459.726 193.848 458.52 194.306C458.509 194.633 458.37 195.08 458.499 195.454C459.177 197.316 460.488 198.866 462.188 199.81C465.138 201.565 467.549 204.038 470.348 205.991C472.164 207.344 473.842 208.886 475.355 210.591C475.187 210.698 474.892 210.779 474.878 210.912C474.885 211.193 474.944 211.471 475.052 211.731C475.051 211.741 475.284 211.74 475.303 211.693C475.386 211.524 475.428 211.337 475.428 211.147C475.386 210.935 475.321 210.727 475.233 210.529C475.712 210.801 476.388 210.957 476.638 211.363C477.739 212.997 479.398 214.145 481.277 214.572C482.713 215.035 484.055 215.768 485.235 216.735C486.224 217.47 487.258 218.139 488.33 218.736C488.574 218.881 488.957 218.763 489.536 218.768C489.358 218.254 489.322 217.791 489.078 217.509C487.759 215.945 486.428 214.39 485.018 212.909C484.421 212.387 483.772 211.932 483.083 211.551C481.382 210.441 479.895 209.014 478.696 207.346C478.605 207.213 478.695 206.955 478.705 206.71C480.294 206.666 480.974 208.489 482.395 208.747L482.317 208.667C482.746 208.969 483.415 209.622 483.565 209.521C483.771 209.372 484.006 209.269 484.255 209.221C484.503 209.172 484.759 209.179 485.006 209.24C485.253 209.302 485.485 209.416 485.687 209.577C485.888 209.737 486.055 209.94 486.176 210.171C487.442 212.198 489.364 213.333 491.152 214.689C491.78 215.163 492.305 215.787 492.905 216.311C493.22 216.624 493.589 216.876 493.993 217.051C496.345 217.861 498.402 219.404 499.876 221.466C500.712 222.387 501.677 223.175 502.739 223.802C503.398 224.267 503.217 224.722 503.063 225.241L502.921 225.077L503.102 225.168L504.358 226.895L504.406 226.803L501.2 225.223C500.009 226.36 499.844 226.918 500.61 227.651C501.682 228.677 502.804 229.645 503.971 230.551C504.862 231.237 505.981 231.635 506.469 232.799C506.573 233.004 506.743 233.167 506.949 233.261C508.923 234.121 510.71 235.385 512.202 236.975C514.221 237.253 514.797 238.942 515.412 240.46C516.699 240.51 516.226 239.66 516.228 239.078L516.185 239.168C517.407 240.163 518.653 241.131 519.849 242.164C520.268 242.441 520.623 242.81 520.888 243.244C521.153 243.678 521.321 244.167 521.381 244.675C521.358 244.958 521.434 245.242 521.595 245.475C521.756 245.708 521.991 245.875 522.259 245.946C523.297 246.31 524.046 247.266 525.214 247.457C525.542 247.545 525.831 247.748 526.031 248.031C526.232 248.314 526.332 248.659 526.314 249.007L526.369 248.927C525.955 248.752 525.533 248.599 525.104 248.47C523.635 248.113 522.853 248.806 522.376 250.259C524.13 251.51 525.784 252.832 527.57 253.919C529.846 255.31 531.365 257.078 531.529 259.794C531.548 260.258 531.724 260.702 532.025 261.049C532.327 261.397 532.735 261.626 533.181 261.698C533.54 261.787 533.958 261.541 534.343 261.444L534.05 260.299C534.213 260.252 534.433 260.11 534.53 260.174C535.089 260.55 535.622 260.966 536.151 261.387C536.947 262.018 537.688 262.717 538.518 263.287C539.846 264.099 541.018 265.16 541.972 266.412C542.809 267.574 543.721 268.675 544.704 269.708C545.652 270.721 547.245 271.093 548.459 271.906C549.395 272.536 550.241 273.301 550.97 274.175C552.173 275.707 553.717 276.918 555.467 277.703C554.378 279.896 554.704 280.651 556.941 281.384C557.229 281.497 557.511 281.627 557.784 281.775L557.827 281.695L557.457 282.097L558.075 282.43L557.999 282.381C559.012 283.084 560.057 283.764 561.051 284.502C562.391 285.509 562.715 287.122 563.399 288.507C563.537 288.791 563.267 289.36 563.044 289.698C562.564 290.411 561.989 291.053 561.455 291.725C560.386 291.688 559.307 291.594 558.248 291.642C558.087 291.662 557.934 291.724 557.804 291.822C557.674 291.92 557.57 292.051 557.503 292.203C557.437 292.354 557.409 292.522 557.422 292.688C557.436 292.855 557.49 293.016 557.581 293.156C557.719 293.468 557.914 293.751 558.155 293.989C559.443 295.108 560.826 296.105 562.286 296.967C563.871 297.773 564.885 298.732 564.843 300.501C566.767 301.913 568.855 302.941 570.091 304.994C572.62 306.496 574.497 309.008 577.307 310.088L577.307 310.001C576.937 310.33 576.39 310.589 576.24 311.008C576.111 311.625 576.069 312.258 576.115 312.888C577.191 314.112 578.216 315.273 579.396 316.609C579.061 316.96 578.754 317.338 578.477 317.739C578.247 318.048 578.143 318.439 578.188 318.829C578.234 319.218 578.425 319.576 578.721 319.825C579.415 320.533 580.454 320.935 580.644 322.081L580.731 321.988C578.38 321.116 576.381 319.442 575.068 317.246C573.661 315.278 571.979 313.536 570.077 312.076C569.519 311.502 568.794 311.133 568.016 311.028C566.323 311.191 565.395 310.223 564.307 309.125C562.579 307.388 560.573 306.155 558.05 306.35C557.134 306.424 556.767 307.031 557.233 307.933C557.846 309.127 558.476 310.312 559.178 311.661C559.894 311.926 560.726 312.262 561.572 312.536C564.368 313.461 565.97 315.611 567.089 318.165C567.364 318.8 567.417 319.5 568.152 319.752C568.773 319.95 569.408 320.095 570.051 320.187C570.339 320.206 570.628 320.192 570.913 320.145C571.051 320.445 571.25 320.67 571.226 320.85C570.961 323.211 572.465 324.312 574.335 325.137C574.851 325.361 575.407 325.467 575.936 325.645C576.359 325.788 576.924 325.839 577.172 326.137C579.055 328.436 582.157 328.037 584.276 329.801C584.463 329.953 585.215 329.752 585.344 329.503C585.488 329.229 585.336 328.631 585.11 328.322C584.396 327.411 583.42 326.757 582.326 326.456C581.678 326.206 581.047 325.911 580.438 325.572C580.882 324.412 581.257 323.422 581.636 322.431L581.622 322.548C583.52 324.148 585.184 326.059 587.488 327.142C588.039 327.54 588.539 328.01 588.974 328.539C590.253 329.671 591.544 330.795 592.834 331.915C593.648 332.619 594.895 332.947 594.855 334.411C594.85 334.655 595.469 335.121 595.84 335.197C597.03 335.455 598.239 335.58 599.467 335.759C599.922 336.341 600.296 337.246 600.9 337.49C602.027 337.854 603.186 338.102 604.359 338.23C604.86 338.969 605.401 339.772 605.937 340.568C605.113 341.006 604.237 341.335 603.331 341.544C601.222 341.756 600.167 343.157 599.189 344.736C598.355 346.09 597.512 347.443 596.702 348.746C596.788 349.209 596.997 349.64 597.307 349.989C597.617 350.337 598.016 350.59 598.457 350.717C600.141 351.324 601.794 352.023 603.422 352.668C603.746 354.163 602.172 354.403 601.919 355.735L603.101 359.146C601.643 360.331 600.333 361.498 598.16 360.545C597.742 360.358 597.147 360.641 596.604 360.713C596.369 362.25 597.202 363.446 597.527 364.726L597.552 364.657C597.36 365.281 597.071 365.869 596.696 366.396C594.957 368.137 595.537 370.129 596.721 371.846C597.682 373.247 598.413 374.8 598.885 376.442C599.031 376.999 599.291 377.52 599.645 377.968C600 378.417 600.442 378.784 600.943 379.044C602.627 379.95 604.211 380.999 606.207 381.196C607.984 381.372 609.49 382.559 610.907 383.487C611.848 386.047 609.945 387.47 609.323 389.501C608.373 388.851 607.45 388.219 606.512 387.583C605.609 387.812 604.765 388.375 603.72 387.593C603.088 387.12 602.448 387.458 601.993 387.987C601.714 388.255 601.537 388.616 601.493 389.008C601.449 389.4 601.541 389.796 601.753 390.127C602.157 390.817 602.553 391.514 602.944 392.213C603.341 392.985 603.925 393.638 604.638 394.11C605.351 394.583 606.169 394.857 607.011 394.906C607.876 394.982 608.718 395.246 609.481 395.679C610.513 396.225 611.807 396.218 613.118 396.47C613.714 397.314 614.375 398.242 615.135 399.317C616.044 399.117 616.994 399.228 617.841 399.635C618.688 400.041 619.387 400.719 619.831 401.567C620.25 402.242 620.788 402.846 621.264 403.489C622.83 405.593 623.601 405.895 626.375 405.515L627.406 401.759C628.826 401.684 630.112 401.611 631.405 401.544C631.964 400.469 632.22 399.251 632.144 398.027C632.245 396.809 632.275 395.585 632.235 394.361C632.138 393.046 631.831 391.73 631.574 390.169C631.812 389.677 632.021 389.171 632.2 388.652C632.365 388.023 632.5 387.386 632.604 386.742C633.477 386.387 634.266 386.071 635.055 385.75L634.957 385.726C635.869 387.481 636.612 389.236 635.76 391.149C635.696 391.303 635.665 391.47 635.669 391.639C635.674 391.808 635.713 391.973 635.785 392.126C636.724 393.516 636.23 394.59 635.54 395.791C635.278 396.509 635.247 397.298 635.452 398.04C635.716 399.477 636.129 400.9 636.499 402.326C636.568 402.765 636.725 403.185 636.961 403.559C637.975 404.774 638.053 406.291 638.604 407.654C638.749 408.081 638.792 408.537 638.729 408.983C638.667 409.429 638.501 409.851 638.246 410.215C637.449 410.331 636.478 410.229 635.848 410.641C635.333 410.983 635.234 411.926 634.949 412.609C634.442 412.909 634.159 412.429 633.801 412.2C632.424 411.317 631.908 411.267 631.046 412.488C630.777 412.892 630.429 413.233 630.023 413.489C629.617 413.745 629.163 413.909 628.69 413.973C626.992 414.261 625.29 414.57 623.462 414.889C623.038 415.708 622.95 416.877 621.867 417.463C621.649 417.612 621.469 417.814 621.344 418.051C621.219 418.289 621.151 418.555 621.148 418.826C621.219 419.487 621.137 420.155 620.912 420.774C620.686 421.394 620.322 421.949 619.849 422.395C619.641 422.568 619.508 422.819 619.476 423.094C619.444 423.369 619.516 423.647 619.678 423.871C619.875 424.155 620.163 424.358 620.491 424.444C620.819 424.53 621.164 424.493 621.465 424.339C622.059 424.088 622.635 423.792 623.186 423.453C623.651 423.214 624.119 422.983 624.692 422.697C626.266 424.615 626.151 426.537 625.547 428.459C625.225 429.47 624.742 430.42 624.286 431.515C622.813 432.138 622.813 432.138 621.957 434.268C624.298 436.624 626.699 439.039 629.235 441.583C629.278 442.127 629.311 442.91 629.409 443.684C629.645 445.53 629.977 445.87 631.897 446.306C632.323 446.402 632.754 446.481 633.276 446.591C634.007 448.095 634.393 449.943 637.1 449.882C636.266 450.595 636.067 450.927 635.828 450.94C633.666 451.071 631.524 451.544 629.307 450.971C628.77 450.829 628.198 450.84 627.659 450.728C625.159 450.201 623.133 451.254 621.225 452.448C620.456 452.931 620.007 453.907 619.332 454.765C617.045 454.749 614.767 454.42 612.557 453.788C610.761 453.253 608.909 452.952 607.045 452.893C605.167 452.975 603.289 452.663 601.524 451.975C600.709 451.606 599.819 451.457 598.937 451.54C596.972 451.849 595.648 453.422 593.889 454.211C593.374 454.507 592.939 454.931 592.625 455.446C592.311 455.96 592.127 456.549 592.09 457.158C592.023 457.362 591.922 457.552 591.791 457.72C589.861 459.055 587.466 458.752 585.283 459.149C584.726 459.22 584.159 459.142 583.637 458.922C583.115 458.702 582.655 458.347 582.302 457.892C581.442 456.966 580.536 456.088 579.586 455.261C577.516 453.367 575.206 452.439 572.519 453.14C572.197 453.192 571.872 453.228 571.546 453.247C571.446 453.261 571.366 453.357 571.093 453.535C570.792 454.478 570.44 455.59 570.037 456.856C568.546 456.295 567.196 455.79 565.971 455.331C564.427 455.724 564.894 457.092 564.535 458.06L563.558 457.944L563.838 457.934L563.662 458.008C562.828 457.717 562.721 456.946 562.475 456.266L562.461 456.326L562.198 455.565L562.297 455.623L561.552 455.834L561.59 455.779C560.336 455.827 559.874 454.337 558.687 454.145C558.054 454.394 557.17 454.642 557.29 455.533C557.34 456.215 557.539 456.877 557.872 457.471C558.204 458.065 558.662 458.576 559.211 458.965C559.587 459.209 560.011 459.366 560.451 459.424C562.628 459.681 564.646 460.617 566.736 461.199C568.429 461.736 570.002 462.62 571.36 463.799C571.823 464.12 572.167 464.594 572.334 465.142C572.501 465.69 572.483 466.278 572.28 466.809L572.254 466.977L572.229 466.732L572.909 467.387C572.78 467.621 572.715 467.933 572.598 467.942C570.37 468.143 569.13 469.809 567.642 471.11L567.706 471.179L566.706 470.645L566.769 470.668C565.826 469.699 565.247 470.791 564.483 470.939C563.784 470.243 563.269 469.247 562.107 469.258L561.576 468.786C561.586 468.876 561.581 469.032 561.614 469.043C561.795 469.092 561.979 469.127 562.165 469.149L562.001 470.49C561.284 470.19 560.697 469.961 560.127 469.696C559.462 469.399 558.714 469.378 558.04 469.639C557.518 469.844 556.953 469.915 556.396 469.844C555.839 469.774 555.305 469.565 554.841 469.234C554.248 468.921 553.602 468.733 552.94 468.681C552.204 469.603 551.609 470.332 551.02 471.062C550.887 470.894 550.861 470.357 550.532 470.891L551.059 470.989C551.08 471.3 551.078 471.612 551.054 471.922C550.931 472.69 551.164 473.12 552.011 473.141C552.167 473.146 552.333 473.366 552.495 473.489L552.531 473.39C551.883 473.425 551.232 473.398 550.588 473.309C549.966 473.124 549.36 472.882 548.779 472.586C547.302 474.163 547.28 474.257 545.478 473.684C544.332 473.317 543.149 473.678 542.019 472.968C541.46 472.619 540.454 473.788 540.825 474.426C541.126 474.894 541.323 475.423 541.404 475.976C541.484 476.529 541.446 477.092 541.291 477.626L539.312 478.209C539.163 477.916 539.058 477.601 539.003 477.275C539.01 476.115 539.023 474.989 537.575 474.544L536.613 475.449C535.821 474.513 535.058 473.611 534.326 472.743C533.867 472.979 533.461 473.309 533.133 473.713C532.804 474.118 532.56 474.588 532.415 475.096L532.449 475.018C531.777 475.233 531.118 475.487 530.475 475.778C530.001 476.02 529.928 475.578 529.702 475.411C528.048 474.188 526.307 474.441 524.591 474.804C524.392 474.889 524.216 475.023 524.08 475.196C523.945 475.369 523.854 475.575 523.816 475.795C523.778 476.014 523.794 476.241 523.863 476.453C523.932 476.666 524.051 476.858 524.21 477.012C525.988 478.246 526.837 480.138 528.014 481.836C529.065 482.783 531.012 482.146 531.655 484.145C530.819 484.501 529.894 484.583 529.006 484.379C528.117 484.176 527.308 483.698 526.687 483.008C525.277 484.143 527.331 486.304 525.512 487.193C525.025 486.669 524.676 486.027 524.498 485.327C524.32 484.627 524.32 483.894 524.496 483.198C524.564 483.034 524.589 482.854 524.572 482.676C524.555 482.498 524.494 482.327 524.396 482.178C524.298 482.03 524.166 481.909 524.011 481.826C523.856 481.744 523.684 481.702 523.511 481.706C523.145 482.318 522.744 482.93 522.405 483.575C522.211 483.951 521.89 484.466 522.013 484.786C522.962 487.226 521.272 489.276 521.541 491.606C521.605 492.195 520.707 492.669 520.392 492.273C520.08 491.873 519.671 491.566 519.207 491.383C518.743 491.199 518.241 491.147 517.754 491.231C516.949 491.157 516.157 490.973 515.397 490.683C514.84 493.677 514.629 496.489 515.51 499.364C515.644 499.915 515.934 500.412 516.344 500.793C517.861 501.967 519.238 503.322 520.448 504.829C520.909 505.318 521.45 505.721 522.045 506.018C523.938 507.068 524.427 508.32 523.544 510.026C523.101 510.877 522.675 511.736 522.124 512.816C521.487 512.905 520.652 513.012 519.585 513.154L519.291 514.992L534.208 521.81C533.607 523.026 533.101 524.049 532.548 525.159C533.802 526.031 534.894 526.796 535.893 527.492C535.944 527.884 536.067 528.152 535.989 528.303C535.511 529.252 534.923 530.137 534.5 531.108C534.061 532.128 535.205 533.115 534.763 534.325C534.495 535.063 535.177 536.211 535.475 537.359C534.528 537.811 533.502 538.068 532.456 538.113C531.493 538.268 530.463 538.175 529.538 538.412C527.785 538.874 526.111 539.058 524.464 537.842C520.604 537.498 517.307 535.274 513.751 533.913C513.174 533.598 512.506 533.517 511.879 533.685C511.058 534.023 510.173 534.17 509.287 534.115C508.401 534.06 507.535 533.805 506.751 533.368C506.542 533.284 506.322 533.23 506.099 533.21C504.291 532.824 503.312 533.523 503.256 535.315C503.276 535.877 503.34 536.438 503.447 536.99L503.496 536.903C503.174 536.849 502.71 536.628 502.553 536.768C502.027 537.213 501.407 537.525 500.742 537.678C500.076 537.832 499.384 537.823 498.719 537.652L495.697 542.045C496.206 543.479 496.844 544.911 496.265 546.836C495.996 546.962 495.698 547.01 495.402 546.975C495.107 546.94 494.826 546.824 494.588 546.638C493.813 546.168 492.981 545.797 492.195 545.327C491.174 544.747 489.976 544.601 488.861 544.921L488.269 547.01C487.279 546.802 486.646 546.669 486.028 546.541C485.199 547.036 484.349 549.17 484.684 550.009C484.792 550.334 485.011 550.608 485.3 550.78C487.211 551.435 487.347 553.037 487.491 554.601C487.601 555.808 487.602 557.024 487.654 558.193C488.303 558.743 488.904 559.257 489.45 559.724C489.494 560.278 489.405 560.832 489.19 561.339C488.975 561.845 488.641 562.286 488.217 562.624C487.19 562.91 486.803 562.01 486.151 561.635C484.477 560.674 482.75 559.858 481.821 557.938C481.467 557.486 481.01 557.132 480.492 556.907C479.448 556.219 478.371 555.587 477.265 555.013C476.475 554.668 475.662 554.38 474.834 554.151C473.551 554.502 474.727 556.499 472.999 555.812C473.01 556.262 472.948 556.502 473.034 556.677C473.661 558.012 474.592 559.174 475.746 560.061C477.945 561.788 480.082 563.617 481.443 566.296C482.842 569.057 485.323 571.051 487.762 572.931C488.644 573.62 489.385 574.483 489.942 575.468C490.611 576.584 491.049 577.917 492.215 578.754C492.573 579.034 492.864 579.396 493.063 579.811C493.263 580.226 493.366 580.682 493.364 581.143L493.4 581.06C493.075 581.069 492.535 580.949 492.453 581.102C491.483 582.874 489.729 584.125 489.246 586.473C489.707 587.703 490.26 589.126 491.973 589.369C493.675 589.605 494.395 588.967 495.446 586.654C495.832 586.862 496.138 587.197 496.316 587.606C496.494 588.015 496.533 588.473 496.425 588.905C496.256 589.541 496.049 590.161 495.835 590.782C495.62 591.403 495.385 592 495.185 592.532C494.141 592.84 493.325 593.115 492.484 593.321C491.539 593.548 490.692 594.082 490.067 594.843C489.753 595.281 489.411 595.696 489.042 596.086C487.447 597.476 485.902 598.743 483.566 599.119C480.339 599.7 477.062 599.959 473.78 599.892C470.496 599.775 467.242 600.334 463.958 600.459C462.417 600.47 460.877 600.359 459.35 600.129C456.16 599.752 452.977 599.265 449.794 598.916C446.706 598.577 443.674 597.87 440.616 597.301C436.409 596.519 432.58 594.569 428.534 593.316C425.76 592.458 422.978 591.601 420.164 590.944C416.893 590.121 413.727 588.892 410.735 587.282C407.898 585.924 404.926 584.894 401.874 584.211C401.552 584.133 401.22 584.107 400.891 584.133C398.139 584.329 398.141 584.334 395.771 583.464C395.475 583.701 395.119 583.939 394.809 584.225C394.45 584.574 393.995 584.8 393.505 584.874C393.016 584.948 392.514 584.866 392.068 584.639C390.732 584.041 389.316 583.661 387.871 583.513C386.938 583.437 386.215 583.392 385.511 584.108C385.173 584.401 384.757 584.585 384.316 584.636C383.874 584.686 383.427 584.602 383.029 584.394C381.763 583.929 380.525 583.383 379.324 582.758C376.767 581.3 374.197 579.836 372.265 577.469C372.047 577.205 371.661 577.041 371.53 576.757C370.573 574.758 368.715 573.859 367.004 572.745C365.293 571.631 363.675 570.34 361.987 569.178C359.557 567.498 357.246 565.603 354.474 564.532C352.966 562.508 350.479 562.076 348.585 560.623C346.729 559.35 344.778 558.23 342.752 557.275C339.65 555.611 336.486 554.076 333.426 552.343C330.785 550.847 328.279 549.035 325.396 548.105C324.229 547.727 323.64 546.432 322.159 546.455C321.054 546.463 319.866 545.62 318.737 545.107C317.609 544.594 316.508 544.036 315.404 543.481C314.784 543.203 314.188 542.872 313.621 542.491C311.228 540.701 308.344 539.957 305.871 538.341C305.779 538.27 305.678 538.215 305.57 538.177C299.48 536.547 294.664 532.297 289.309 529.174C285.88 527.174 282.65 524.796 279.329 522.585C277.751 522.34 277.079 520.594 275.405 520.197C274.004 519.862 272.792 518.481 271.472 517.603C270.152 516.725 268.74 515.993 267.502 515.016C266.412 514.188 265.161 513.617 263.838 513.342C261.224 512.638 258.746 511.466 256.516 509.88C253.487 507.882 250.352 506.052 247.555 503.847C246.774 504.196 245.918 504.337 245.066 504.256C244.214 504.175 243.393 503.876 242.678 503.385C239.381 501.153 235.864 499.321 232.583 497.071C232.303 496.881 232.051 496.641 231.782 496.426L231.87 496.277L231.843 496.462C228.634 494.16 225.413 491.867 222.216 489.552C219.65 487.7 217.107 485.821 214.555 483.95C214.269 482.967 213.176 483.422 212.696 482.796L212.625 482.864C212.946 482.488 212.948 482.202 212.365 482.081L212.483 482.119L211.708 482.372L211.714 482.258C207.976 479.664 204.248 477.057 200.495 474.478C195.907 471.315 191.051 468.56 186.887 464.738C185.913 463.839 184.535 463.415 183.383 462.703C182.419 462.11 181.491 461.456 180.606 460.743C179.457 459.814 178.461 458.665 177.254 457.841C173.946 455.584 170.884 453.013 167.767 450.504C164.832 448.143 161.762 445.97 158.808 443.641C156.847 442.09 154.925 440.464 153.098 438.749C152.196 437.901 151.598 436.738 150.768 435.8C150.331 435.316 149.651 434.668 149.152 434.7C147.734 434.777 147.216 433.615 146.426 432.89C144.837 431.422 144.917 431.078 146.957 429.661C147.888 430.092 148.902 430.546 149.906 431.022C151.513 431.791 152.757 432.836 153.127 434.74C153.273 435.41 153.641 436.008 154.169 436.43C156.493 438.064 158.893 439.584 161.268 441.147C161.407 441.211 161.552 441.262 161.7 441.298L163.964 440.371C163.893 440.125 163.9 439.71 163.697 439.502C160.749 436.486 157.782 433.484 154.798 430.496C152.794 428.495 151.082 426.228 149.069 424.23C147.528 422.697 145.956 421.185 144.461 419.612C143.89 418.929 143.365 418.206 142.889 417.449C143.244 417.267 143.44 417.184 143.617 417.075C143.969 416.854 144.513 416.699 144.615 416.376C144.764 415.848 144.737 415.281 144.536 414.767C144.253 414.285 143.89 413.856 143.465 413.501C141.704 411.639 140.148 409.681 140.016 406.868L137.915 406.801C135.34 403.912 132.661 400.956 130.05 397.948C129.542 397.343 129.175 396.626 128.98 395.853C128.765 395.007 128.981 394.072 128.739 393.242C128.364 392.44 127.893 391.689 127.337 391.008C127.877 391.043 128.412 391.143 128.931 391.304C129.31 391.54 129.753 391.644 130.191 391.599C130.63 391.554 131.041 391.363 131.363 391.056C131.869 390.588 132.473 390.171 133.113 390.516C134.68 391.358 135.873 390.746 137.083 389.994C137.443 389.769 137.796 389.54 138.152 389.313L138.258 389.504L138.094 389.306C138.883 388.071 137.969 386.697 138.119 385.392C138.171 384.98 137.625 384.398 137.257 383.982C136.353 382.955 135.345 382.016 134.468 380.966C134.055 380.441 133.736 379.847 133.525 379.209C133.21 378.313 133.31 378.201 134.649 377.046C136.294 377.968 138.12 378.709 139.713 377.197C141.126 375.855 142.571 374.448 141.082 371.441C142.079 372.138 143.113 372.779 144.177 373.359C145.682 374.05 146.959 373.016 146.453 371.43C146.067 369.75 145.257 368.2 144.106 366.94C143.035 365.944 141.826 365.107 140.386 363.97L140.017 362.143C140.225 361.953 140.357 361.714 140.524 361.699C142.217 361.526 143.919 361.387 145.746 361.227C145.698 360.33 145.9 359.441 146.327 358.663C146.754 357.886 147.388 357.252 148.156 356.838C148.381 356.698 148.634 356.609 148.896 356.579C149.159 356.548 149.425 356.577 149.677 356.662C151.058 357.478 152.231 356.931 153.417 356.614C153.762 355.915 154.084 355.276 154.404 354.631L154.528 354.801L154.35 354.632C151.988 350.847 149.248 347.325 146.176 344.125C145.216 343.15 144.234 342.203 143.265 341.247C143.478 340.669 143.884 340.659 144.278 340.991C144.974 341.575 145.609 342.231 146.296 342.833C147.45 343.849 148.688 344.601 150.41 344.21L151.84 342.209C152.453 342.241 153.208 342.06 153.712 342.35C154.171 342.66 154.716 342.803 155.259 342.755C155.802 342.706 156.312 342.47 156.705 342.084C157.009 341.841 157.501 341.824 157.931 341.699C158.896 342.399 159.777 343.102 160.723 343.705C161.139 343.991 161.609 344.182 162.101 344.264C162.593 344.346 163.095 344.318 163.573 344.181C164.004 344.047 164.394 343.805 164.71 343.476C165.026 343.147 165.257 342.742 165.382 342.296C164.504 341.185 163.562 339.929 162.058 339.72C161.333 339.66 160.637 339.388 160.053 338.936C159.469 338.483 159.021 337.869 158.761 337.166C158.462 336.362 157.911 335.683 157.196 335.236C156.481 334.789 155.644 334.6 154.818 334.7C154.288 334.065 153.79 333.402 153.328 332.713C152.822 331.956 152.153 331.329 151.373 330.883C150.258 330.124 149.222 329.247 148.282 328.267C145.489 325.411 142.676 322.589 139.686 319.948C138.917 319.267 137.985 318.764 137.275 318.035C136.581 317.327 135.527 316.948 135.263 315.794C135.184 315.589 135.063 315.403 134.909 315.248C134.755 315.093 134.571 314.974 134.37 314.898C131.684 313.978 129.996 311.678 127.908 309.953C124.747 307.344 121.696 304.606 118.531 302.014C117.507 301.294 116.43 300.658 115.311 300.112C114.514 299.692 113.738 299.229 112.987 298.725C112.428 298.317 112.038 297.84 111.259 298.295C111.048 298.42 110.227 297.878 109.915 297.465C108.767 296.05 107.735 294.54 106.827 292.951C106 291.31 104.866 289.852 103.491 288.663C102.502 287.82 101.203 287.074 101.068 285.523L100.99 285.525C101.516 285.448 102.036 285.367 102.769 285.264C102.672 282.409 102.757 279.661 100.168 277.368L100.883 275.017C100.766 274.568 100.559 274.15 100.275 273.788C99.9905 273.426 99.6361 273.129 99.2349 272.917C98.9301 272.762 98.6859 272.504 98.5439 272.186C98.4018 271.868 98.3709 271.51 98.4564 271.174C98.5925 270.743 98.6014 270.279 98.4821 269.84C98.3629 269.402 98.1208 269.008 97.7862 268.709C96.8803 267.717 96.238 266.502 95.9223 265.184C96.1415 264.719 96.4938 264.335 96.9319 264.084C97.3701 263.833 97.8733 263.726 98.3747 263.779C99.2337 263.838 100.094 263.714 100.9 263.414C101.707 263.115 102.443 262.645 103.062 262.036C103.471 261.688 103.947 261.431 104.458 261.281C104.97 261.131 105.507 261.092 106.036 261.166C108.342 261.307 108.866 260.778 109.628 258.691C109.77 258.329 109.831 257.937 109.804 257.546C109.778 257.154 109.666 256.773 109.476 256.431C109.017 255.639 108.482 254.896 107.88 254.212C107.519 253.773 107.026 253.444 106.641 253.021C104.606 250.787 105.116 250.087 106.224 248.655C106.481 248.316 106.722 247.963 106.976 247.605C106.964 246.229 106.664 244.87 106.095 243.62C105.526 242.369 104.702 241.258 103.681 240.363C103.25 239.998 102.923 239.52 102.736 238.98C102.158 237.232 101.239 235.622 100.036 234.249C98.461 232.307 97.8921 230.291 98.7666 227.993C99.1378 227.064 99.204 226.033 98.9548 225.055C98.6697 223.929 99.246 223.508 100.449 223.758C101.973 224.073 103.498 224.418 105.011 224.803C105.524 224.982 106.073 225.012 106.599 224.892C107.124 224.771 107.606 224.503 107.992 224.118C108.655 223.502 109.725 223.337 110.604 222.941C112.371 222.144 112.995 220.839 112.32 218.92C111.715 217.203 110.896 215.559 110.211 213.868C109.885 213.158 109.646 212.41 109.5 211.641C109.381 209.947 108.937 208.291 108.195 206.768C107.842 206.073 107.755 205.269 107.95 204.516C108.582 202.442 108.565 200.151 109.654 198.23C110.007 197.674 110.237 197.043 110.327 196.382C110.418 195.721 110.367 195.047 110.177 194.405C110.028 193.919 110.298 193.33 110.371 192.81C112.079 191.238 114.176 191.369 116.271 191.892C117.338 192.155 118.393 192.412 119.471 192.631C120.557 192.942 121.588 193.432 122.525 194.082C123.767 194.79 125.178 195.11 126.586 195.002C125.669 192.039 125.481 188.908 122.383 187.227L122.156 185.094C122.888 184.879 123.483 184.669 124.1 184.534C125.445 184.232 126.854 184.246 127.998 183.261C129.03 182.371 130.322 182.499 131.733 182.927C136.136 184.245 140.373 186.151 144.835 187.266C145.959 187.548 146.976 188.485 148.026 189.145C149.124 189.837 149.97 189.434 149.959 188.124C149.915 187.381 149.825 186.64 149.69 185.908C146.901 183.669 143.116 183.832 140.575 180.98L142.527 178.374C142.195 178.006 141.827 177.676 141.428 177.388C139.136 176.136 136.824 174.938 134.523 173.691C134.003 173.36 133.407 173.182 132.8 173.175C132.192 173.168 131.596 173.334 131.076 173.653C130.432 174.035 129.723 174.29 128.985 174.406C128.724 174.43 128.471 174.514 128.246 174.65C128.02 174.787 127.827 174.973 127.68 175.195C127.042 176.145 126.157 175.809 125.325 175.421C125.003 175.307 124.737 175.068 124.583 174.755C124.429 174.442 124.4 174.08 124.502 173.748C124.861 172.629 125.366 171.569 125.859 170.359C127.679 170.309 129.084 168.929 131.062 169.131C131.383 169.127 131.699 169.051 131.987 168.907C132.275 168.762 132.527 168.554 132.726 168.297C133.879 166.677 135.506 166.441 137.352 166.62C137.455 166.631 137.562 166.564 137.874 166.472C138.24 164.984 139.899 164.668 141.053 163.639C141.032 163.215 141.025 162.782 140.994 162.349C140.782 159.266 140.782 159.266 138.34 157.496C138.849 156.719 139.574 157.156 140.098 157.433C141.702 158.28 143.319 159.082 144.926 159.908C148.039 161.517 150.99 163.477 154.032 165.247C157.476 167.247 160.937 169.213 164.416 171.146C164.733 171.326 165.381 171.327 165.573 171.12C165.679 170.943 165.742 170.743 165.759 170.535C165.776 170.327 165.746 170.117 165.671 169.923C165.296 168.983 164.791 168.086 164.321 167.186C164.013 166.587 163.678 166.006 163.355 165.421C163.569 165.067 163.739 164.803 163.899 164.53C164.21 163.991 164.756 163.465 164.765 162.902C164.734 162.439 164.583 161.991 164.328 161.606C164.072 161.221 163.722 160.912 163.314 160.713C162.227 160.095 161.074 159.614 159.945 159.078C159.005 158.695 158.084 158.261 157.188 157.777C155.54 156.764 154.043 155.431 152.325 154.627C150.62 153.831 148.709 153.568 146.906 152.991C145.958 152.687 144.94 152.409 144.356 151.397C144.261 150.845 144.372 150.279 144.666 149.812C144.959 149.345 145.414 149.012 145.939 148.878C146.367 148.766 146.817 148.769 147.247 148.885C147.676 149.001 148.072 149.227 148.396 149.542C149.517 150.334 150.713 151.006 151.965 151.547C153.815 152.384 155.725 153.049 157.236 154.581C157.79 154.976 158.392 155.291 159.026 155.518C159.648 155.749 160.219 156.106 160.706 156.57C161.826 158.15 163.527 158.444 165.096 158.988C165.67 159.193 166.288 159.228 166.878 159.088C167.467 158.948 168.005 158.638 168.428 158.195C169.198 157.3 169.869 156.319 170.428 155.27C171.105 154.176 170.844 152.945 170.457 151.786C170.887 151.188 171.465 150.721 172.131 150.432C172.797 150.144 173.528 150.044 174.247 150.144C176.026 150.389 177.751 150.536 179.044 152.226C179.738 152.982 180.528 153.636 181.392 154.172C183.197 155.368 184.699 156.994 185.769 158.91C186.035 159.415 186.376 159.874 186.78 160.271C189.591 163.11 192.564 165.772 195.607 168.351C197.258 169.751 198.983 171.077 200.529 172.591C204.139 176.123 208.269 178.983 212.128 182.2C214.127 183.913 216.415 185.226 218.875 186.072C219.483 186.202 220.101 186.271 220.721 186.277C220.231 183.625 219.597 181.336 217.128 179.964C215.611 179.122 214.168 178.186 213.941 176.231L213.899 176.302C214.744 176.815 215.608 177.3 216.439 177.852C218.052 178.913 219.603 180.071 221.247 181.073C223.867 182.667 226.609 184.04 229.16 185.736C231.273 187.043 233.543 188.053 235.91 188.738C237.634 189.243 239.295 189.958 240.858 190.869C241.942 191.539 241.96 191.508 243.951 191.401C244.372 190.671 243.934 190.141 243.417 189.659C240.385 186.877 237.072 184.441 233.536 182.392C231.889 181.419 230.375 180.128 228.412 179.768C227.786 179.522 227.227 179.12 226.786 178.598C225.189 177.118 223.45 175.81 221.597 174.695C218.928 173.182 216.497 171.256 214.388 168.986C214.608 168.33 215.092 168.645 215.436 168.833C217.928 170.186 220.415 171.556 222.889 172.957C223.571 173.372 224.231 173.825 224.866 174.316C227.169 176.002 229.443 177.734 232.397 177.883C233.136 178.059 233.866 178.278 234.582 178.539C235.078 178.561 235.574 178.509 236.054 178.385C236.549 177.513 235.928 177.017 235.397 176.662C233.902 175.624 232.351 174.673 230.754 173.814C229.245 173.023 227.843 172.029 226.586 170.858C225.655 170.014 224.556 169.369 223.594 168.565C223.151 168.073 222.759 167.534 222.424 166.957C224.176 167.009 225.223 167.989 226.398 168.439C227.638 168.909 228.801 169.633 230.075 169.274C230.486 168.649 230.063 168.29 229.748 168.042C229.04 167.475 228.263 166.991 227.506 166.476C225.84 165.485 224.297 164.289 222.909 162.914C222.165 162.202 221.339 161.589 220.448 161.088C218.542 159.841 216.551 158.719 214.701 157.385C211.37 154.971 207.774 153.009 204.356 150.749C203.598 150.245 202.692 149.929 202.317 149.005C202.159 148.619 201.984 148.016 202.157 147.78C202.478 147.365 202.944 147.096 203.456 147.028C204.017 147.011 204.571 147.177 205.04 147.5C208.233 149.77 211.96 150.774 215.362 152.546C216.628 153.289 217.993 153.831 219.412 154.153C220.5 154.438 221.543 154.888 222.505 155.49C224.008 156.305 225.503 157.137 226.916 158.097C228.274 158.969 229.901 159.268 231.456 158.932L231.976 156.838C231.837 156.581 231.663 156.345 231.46 156.137C226.598 152.931 221.733 149.731 216.865 146.538C216.387 146.228 215.927 145.889 215.49 145.522C214.195 144.388 214.163 143.98 215.259 141.893C218.959 143.643 222.668 145.607 227.083 145.362C226.996 144.97 226.861 144.591 226.681 144.233C224.999 141.808 222.469 140.405 220.224 138.654C218.968 137.674 217.749 136.642 216.518 135.634L216.475 135.705C218.045 135.491 219.113 136.747 220.369 137.383C223.192 138.804 225.963 140.297 229.075 140.897C230.158 141.13 231.198 141.544 232.155 142.124C234.094 143.264 235.98 143.921 238.106 143.057C239.01 142.781 239.939 142.595 240.879 142.501C242.2 140.614 241.521 138.806 240.224 137.277C238.88 135.738 237.731 134.03 236.806 132.194C236.315 131.284 235.677 130.466 234.919 129.777C234.274 129.241 233.81 128.507 233.596 127.685C233.382 126.862 233.428 125.993 233.728 125.205C234.08 124.18 234.466 123.169 234.884 122.173C235.337 121.081 235.838 120.015 236.382 118.804C235.883 118.172 235.332 117.586 234.734 117.053C234.172 116.686 233.72 116.164 233.429 115.548C233.138 114.932 233.02 114.245 233.087 113.567L232.999 113.583C233.876 113.598 234.75 113.609 235.798 113.626C236.19 112.88 236.729 112.228 237.38 111.709C238.03 111.189 238.779 110.815 239.579 110.609C240.326 110.452 240.848 109.526 241.52 109.01C242.037 108.509 242.691 108.184 243.394 108.076C244.098 107.967 244.82 108.081 245.464 108.403C246.397 108.771 247.382 108.969 248.377 108.989C248.648 109.029 248.923 108.994 249.176 108.888C249.428 108.783 249.647 108.61 249.812 108.387C249.977 108.164 250.082 107.9 250.115 107.621C250.148 107.342 250.108 107.058 250 106.798C249.629 105.97 249.112 105.22 248.476 104.584C247.442 103.507 246.346 102.495 245.194 101.553C243.99 100.517 243.056 99.1867 242.479 97.6856C241.89 96.3298 241.51 95.1029 242.499 93.9628C243.277 93.0708 242.382 92.0151 242.748 90.9557C244.245 90.8457 245.749 91.1455 247.106 91.8247C248.75 92.6439 250.44 93.2085 252.421 92.5398C252.69 91.5497 252.993 90.4257 253.281 89.3582C252.865 87.2364 250.679 86.9095 249.234 85.0994C250.601 85.5632 251.515 85.8713 252.537 86.2199C252.701 86.2249 252.865 86.1997 253.02 86.1454C255.186 84.9789 255.373 84.4971 254.548 82.299C254.386 81.8723 254.226 81.4475 254.025 81.0363C253.722 80.4197 253.379 79.8205 253.028 79.1742C253.212 78.7293 253.514 78.348 253.9 78.0743C254.287 77.8007 254.741 77.6459 255.212 77.6272C256.07 77.6517 256.918 77.4591 257.683 77.0666C258.075 76.6926 258.583 76.4731 259.119 76.4464C259.654 76.4197 260.185 76.5875 260.617 76.9204C261.005 77.162 261.669 76.8943 262.209 76.9007C262.904 76.8424 263.604 76.9304 264.268 77.1595C264.931 77.3887 265.544 77.7539 266.069 78.2334C267.63 79.6754 269.641 80.6077 271.461 81.7625L271.409 82.0309L271.406 81.733C272.61 83.0986 274.024 84.2495 275.591 85.1382C277.235 85.9885 278.639 87.3373 280.22 88.3547C281.284 89.207 282.597 89.6567 283.937 89.6283C285.223 89.5291 286.41 90.7253 287.341 91.6322C287.87 92.1846 288.446 92.6875 289.062 93.1345C290.078 93.6553 290.887 94.5257 291.349 95.5936C291.492 95.9049 291.708 96.1757 291.976 96.3821C294.337 98.5099 296.678 100.665 299.09 102.725C299.754 103.142 300.297 103.738 300.658 104.447C300.809 104.761 301.043 105.024 301.334 105.205C305.74 108.216 309.432 112.187 313.894 115.115C314.502 115.43 315.064 115.832 315.564 116.309C316.552 117.439 317.859 118.221 319.297 118.543C320.829 118.959 322.162 119.946 323.037 121.312C323.836 122.418 324.886 123.305 326.094 123.894C328.142 125.119 330.102 126.497 331.956 128.016C332.497 128.491 333.129 128.841 333.81 129.045C334.491 129.248 335.204 129.299 335.903 129.194C336.316 128.46 335.902 127.985 335.51 127.615C333.845 126.045 332.188 124.444 330.428 122.985C328.95 121.751 327.699 120.266 325.98 119.277C325.116 118.746 324.471 117.905 324.169 116.917C323.832 115.694 323.067 114.64 322.024 113.959C321.304 113.403 320.626 112.792 319.995 112.129C319.623 111.72 319.377 111.205 319.29 110.653C319.285 110.422 319.236 110.194 319.145 109.982C319.054 109.77 318.923 109.578 318.76 109.418C318.597 109.258 318.405 109.132 318.195 109.049C317.985 108.966 317.762 108.926 317.538 108.933C315.58 108.905 314.613 107.393 313.372 106.263C313.419 103.767 310.639 103.106 309.9 101.104C309.734 100.799 309.482 100.553 309.178 100.399C304.74 97.7998 301.005 94.1958 296.836 91.2197C296.362 90.9163 295.979 90.4828 295.729 89.9685C294.389 86.2434 291.334 84.2574 288.261 82.2762C287.862 82.0919 287.509 81.815 287.229 81.4673C286.333 79.7735 284.832 78.7322 283.391 77.595C281.243 75.8984 279.06 74.2384 276.995 72.4356C275.694 71.1361 274.102 70.1895 272.364 69.682C271.989 69.591 271.675 69.1174 271.169 68.6784C271.567 68.1542 271.966 67.6981 272.296 67.1996C273.115 65.9549 273.957 64.7763 273.582 63.0018C273.306 61.7183 274.136 61.2228 275.344 61.6914C279.814 63.432 280.41 63.7639 284.598 67.0467C287.091 69.0076 289.579 70.995 291.966 73.0689C293.327 74.2506 294.613 75.561 296.032 76.7089C296.428 77.1134 296.786 77.557 297.098 78.0331C297.431 78.629 297.874 79.1532 298.4 79.576C300.623 80.6847 301.998 82.685 303.657 84.3959C304.294 85.0476 304.99 85.6348 305.735 86.1492C307.528 87.3626 309.169 88.8005 310.62 90.4295C311.571 91.4171 312.579 92.3436 313.639 93.2036C313.983 93.5047 314.513 93.6751 314.705 94.0339C316.401 97.1908 319.807 98.4662 322.07 101.011C323.185 102.26 324.763 103.088 326.092 104.161C328.639 106.064 331.092 108.099 333.44 110.257C336.372 113.154 339.691 115.534 342.765 118.232C343.374 118.744 344.016 119.212 344.686 119.635C347.784 121.541 350.681 123.778 353.33 126.307C353.991 126.933 354.766 127.416 355.61 127.727C356.453 128.039 357.347 128.172 358.238 128.12C358.495 128.094 358.743 128.012 358.966 127.879C359.189 127.746 359.381 127.566 359.53 127.349C359.848 126.719 360.093 126.053 360.262 125.363C354.73 120.135 349.326 115.031 343.924 109.927C343.273 109.279 342.589 108.664 341.877 108.088C339.712 106.399 337.65 104.575 335.7 102.627C333.738 100.705 331.508 99.07 329.409 97.2974C328.797 96.7855 328.211 96.2408 327.653 95.666C324 91.6977 320.097 87.9812 315.972 84.5411C314.187 83.1201 312.639 81.3909 310.907 79.8869C308.837 78.0959 306.697 76.3764 304.574 74.6516C302.363 72.8557 300.14 71.0764 297.905 69.3136C296.569 68.2632 295.193 67.2674 293.845 66.2527C295.256 63.8101 295.407 63.0658 294.607 60.9736C294.375 60.2067 293.935 59.5229 293.337 59.0043C291.027 57.484 289.418 55.1874 287.251 53.5163C286.116 52.5693 284.772 51.928 283.342 51.6506C282.171 51.3603 281.023 50.9723 279.911 50.4904C280.235 47.7291 281.713 46.8467 283.886 47.9164C284.456 48.2883 285.066 48.5911 285.703 48.8187C286.085 48.8858 286.45 49.039 286.77 49.2671C287.09 49.4952 287.358 49.7927 287.555 50.1385C288.269 51.1915 289.222 52.0491 290.329 52.6352C291.367 53.2725 292.468 53.7478 293.236 54.9276C293.719 55.6761 294.925 55.9917 295.834 56.4389C296.744 56.8861 297.703 57.2062 298.19 58.2818C298.397 58.6831 298.733 58.998 299.14 59.1716C300.81 59.8038 301.914 61.1373 303.098 62.3694C304.984 64.3349 307.129 66.0177 309.468 67.3672C310.972 68.1374 312.58 68.6656 314.236 68.9334C314.748 68.9675 315.244 69.1373 315.677 69.4267C317.451 71.0221 318.897 72.9691 319.926 75.1495C320.313 75.9653 320.773 76.7419 321.303 77.4685C322.477 78.8743 323.578 80.4706 325.038 81.4781C327.315 83.0436 329.055 85.1181 331.05 86.9437C332.25 88.1555 333.544 89.2637 334.919 90.2567C336.288 91.2765 337.534 92.463 338.629 93.7904C339.782 95.0824 341.253 96.0278 342.881 96.5237C343.549 96.618 344.225 96.6321 344.894 96.5659C344.497 93.8181 342.51 92.3597 340.826 90.7482C340.241 90.1833 339.583 89.7645 339.422 88.911L339.58 88.8079L339.405 88.9779C339.12 88.9222 338.863 88.767 338.676 88.5386C338.488 88.3101 338.383 88.0225 338.377 87.725L338.309 87.8238C339.115 87.5462 339.915 87.2657 340.495 87.0586C341.834 88.1953 343.226 89.2624 344.667 90.256C345.953 91.0623 346.11 92.8392 347.598 93.3805C348.836 95.1132 350.932 95.6861 352.362 97.0936C353.792 98.5011 354.823 100.333 356.243 101.767C357.594 102.981 359.014 104.112 360.495 105.152C361.072 105.499 361.591 105.942 362.03 106.462C363.141 108.247 364.73 108.764 366.754 108.751C367.17 108.292 367.65 107.742 368.164 107.158C369.468 107.376 370.683 107.987 371.657 108.913C372.178 109.352 372.744 109.737 373.289 110.143C373.67 110.477 374.158 110.649 374.655 110.624C375.151 110.599 375.617 110.379 375.957 110.009C375.546 106.551 375.754 106.372 371.864 105.311C371.164 104.471 370.443 103.606 369.714 102.73L369.707 102.692ZM166.4 195.877L166.512 196.003L166.347 195.983L166.186 195.82L166.4 195.877ZM402.192 136.651L402.46 136.732L402.166 136.69L402.028 136.493L402.192 136.651ZM489.316 537.545L488.807 537.529L489.361 537.46L489.618 537.945L489.852 537.655L489.316 537.545ZM613.562 400.55C613.362 399.801 613.105 399.07 612.794 398.361C612.671 398.194 612.514 398.056 612.335 397.957C612.156 397.857 611.959 397.799 611.757 397.785C611.15 397.796 611.285 398.377 611.41 398.768C611.546 399.261 611.805 399.709 612.162 400.067C612.519 400.425 612.961 400.681 613.442 400.808L614.047 401.031L613.562 400.55ZM137.048 170.999C137.435 171.392 137.858 171.745 138.31 172.054C140.494 173.259 142.734 174.354 144.904 175.585C147.958 177.31 151.277 178.549 153.833 181.212C154.86 182.14 156.117 182.752 157.46 182.978C158.202 183.177 158.91 183.493 159.559 183.916C162.459 185.727 165.31 187.602 168.215 189.393C168.912 189.674 169.64 189.861 170.382 189.951C170.144 189.264 170.117 188.726 169.846 188.507C169.354 188.052 168.755 187.738 168.111 187.596C167.218 187.484 166.386 187.064 165.75 186.404C165.093 185.761 164.404 185.154 163.685 184.586C162.237 183.481 160.747 182.432 159.277 181.354C157.362 181.536 156.349 180.021 155.121 178.908C154.78 178.6 154.412 178.326 154.021 178.089C149.798 175.618 145.455 173.377 141.008 171.376C140.19 170.989 139.324 170.721 138.436 170.581C137.982 170.516 137.489 170.896 137.009 171.078C136.971 170.997 136.921 170.922 136.861 170.857C136.823 170.829 136.744 170.85 136.685 170.852L137.048 170.999ZM158.843 347.511L158.683 347.609L158.843 347.439C159.57 348.141 160.245 348.897 160.863 349.703C161.27 350.374 161.767 350.982 162.34 351.51C165.56 354.394 168.521 357.573 171.185 361.007C171.525 361.454 171.922 361.853 172.365 362.193C173.468 362.991 174.608 363.737 175.752 364.477C176.866 365.198 177.079 365.143 178.55 363.826C178.297 363.252 178.07 362.613 177.746 362.023C177.536 361.647 177.196 361.093 176.893 361.053C175.144 360.837 174.229 359.392 173.147 358.323C169.981 355.211 166.964 351.953 163.874 348.772C163.235 348.117 162.561 347.497 161.858 346.916C161.417 346.556 160.935 346.253 160.424 346.014C160.304 345.949 160.172 345.912 160.037 345.906C159.902 345.899 159.767 345.924 159.644 345.979C159.52 346.033 159.41 346.116 159.322 346.22C159.233 346.324 159.168 346.448 159.133 346.581C159.021 346.886 158.926 347.197 158.847 347.513L158.843 347.511ZM498.066 238.117L497.907 238.203L497.973 238.081C499.273 238.986 500.568 239.896 501.878 240.796C502.388 241.032 502.867 241.336 503.302 241.7C505.273 244.066 507.964 245.32 510.462 246.878C511.376 247.328 512.213 247.932 512.939 248.663C514.981 251.266 517.925 252.615 520.421 254.57C522.001 255.692 523.672 256.671 525.415 257.495C525.618 257.557 525.831 257.576 526.04 257.55C526.25 257.524 526.451 257.453 526.633 257.343C526.748 257.268 526.846 257.168 526.919 257.049C526.992 256.93 527.039 256.796 527.056 256.656C527.073 256.516 527.06 256.373 527.017 256.238C526.975 256.103 526.905 255.979 526.811 255.875C525.805 254.347 524.488 253.062 522.952 252.112C521.485 251.25 520.093 250.259 518.791 249.149C517.502 248.061 515.754 247.714 514.742 246.157C514.235 245.521 513.542 245.072 512.769 244.877C511.374 244.404 510.157 243.484 509.298 242.251C508.747 241.517 508.093 240.87 507.358 240.334C505.462 239.089 503.48 237.99 501.55 236.798C500.965 236.447 500.415 236.036 499.909 235.571C497.567 233.412 495.258 231.213 492.92 229.046C491.24 227.49 489.563 225.928 487.814 224.46C486.423 223.29 485.034 221.915 483.427 221.244C481.57 220.471 480.204 219.117 478.63 218.024C476.016 216.201 473.479 214.259 470.948 212.315C469.245 211.008 467.553 209.666 465.956 208.231C465.283 207.449 464.372 206.929 463.376 206.757C462.652 206.696 462.333 206.018 461.855 205.53C459.473 203.115 457.5 200.209 454.246 198.826C453.839 198.624 453.46 198.367 453.119 198.061C450.799 196.225 448.502 194.356 446.165 192.54C445.532 192.104 444.871 191.711 444.188 191.365C443.66 191.895 443.566 192.376 443.934 192.947C445.246 194.969 446.877 196.751 448.759 198.218C452.019 200.655 455.099 203.339 457.973 206.247C460.065 208.548 462.592 210.38 465.395 211.63C467.572 212.59 469.381 214.275 470.529 216.413C471.002 217.322 471.699 218.087 472.549 218.632C473.423 219.128 474.21 219.774 474.875 220.543C476.391 222.1 477.826 223.849 479.593 225.016C481.439 226.23 483.404 227.243 485.264 228.5C487.528 230.028 489.583 231.819 491.826 233.349C493.987 234.818 495.996 236.519 498.07 238.118L498.066 238.117ZM371.526 111.231C370.452 111.919 370.387 112.76 370.766 113.452C372.08 115.877 373.623 118.245 376.167 119.449C377.728 120.109 379.012 121.324 379.783 122.872C380.739 124.939 382.482 125.843 384.218 126.841C384.622 127.035 385.064 127.123 385.507 127.096C385.804 127.091 386.267 126.931 386.321 126.729C386.421 126.37 386.42 125.779 386.192 125.536C383.92 123.135 381.598 120.789 379.292 118.419C378.896 118.027 378.523 117.61 378.177 117.171C376.291 114.83 374.045 112.823 371.53 111.233L371.526 111.231ZM368.062 132.279C367.331 134.167 367.354 134.16 367.555 134.827C368.607 138.354 371.216 140.763 373.748 143.197C374.378 143.674 375.1 144.006 375.863 144.167C375.99 144.217 376.125 144.241 376.26 144.237C376.395 144.233 376.528 144.201 376.65 144.143C376.773 144.085 376.883 144.002 376.973 143.899C377.064 143.797 377.133 143.676 377.177 143.545C377.323 143.146 377.424 142.731 377.599 142.144C376.281 140.498 375.053 138.722 373.571 137.191C371.952 135.512 370.089 134.065 368.066 132.281L368.062 132.279ZM167.755 343.614C166.153 345.763 166.209 345.726 167.517 347.617C168.421 348.94 169.491 350.136 170.697 351.172C172.172 352.438 173.604 353.753 175.054 355.047C175.869 355.775 176.821 355.918 177.393 355.4C177.926 354.917 177.852 353.762 177.202 352.949C176.964 352.703 176.711 352.473 176.445 352.26C175.528 351.396 174.66 350.473 173.693 349.68C172.264 348.503 170.909 347.311 170.735 345.347C169.669 344.727 168.699 344.164 167.758 343.615L167.755 343.614ZM390.642 130.414C390.471 130.863 390.366 131.337 390.33 131.82C390.534 133.716 391.695 135.111 393.043 136.372C393.624 136.912 394.505 137.312 394.777 137.96C395.358 139.319 396.536 140.033 397.452 141.021C397.611 141.139 397.793 141.221 397.984 141.262L399.963 140.679C399.853 140.109 399.653 139.561 399.371 139.056C398.055 137.502 396.657 136.013 395.288 134.505C394.367 133.488 393.482 132.441 392.496 131.495C391.92 131.065 391.299 130.702 390.646 130.414L390.642 130.414ZM130.51 193.089L129.148 196.418C129.588 197.129 130.226 197.687 130.977 198.017C131.728 198.348 132.556 198.435 133.352 198.268C134.494 198.113 135.187 197.579 135.218 196.464C135.245 195.494 135.398 194.466 134.525 193.396C133.288 193.3 131.907 193.195 130.515 193.089L130.51 193.089ZM167.931 200.524C166.558 198.832 165.818 197.617 164.412 196.9C163.235 196.458 162.268 195.559 161.717 194.397C160.862 192.058 158.957 190.823 156.972 189.674C156.755 189.553 156.401 189.682 156.022 189.696C156.124 190.127 156.098 190.533 156.283 190.736C157.606 192.154 158.957 193.546 160.335 194.91C161.227 195.611 162.056 196.393 162.813 197.246C163.718 198.576 165.025 199.331 166.197 200.284C166.414 200.461 166.817 200.389 167.936 200.524L167.931 200.524ZM519.624 247.239C519.203 245.117 518.686 243.751 517.409 242.885C516.92 242.462 516.315 242.208 515.682 242.16C515.049 242.112 514.419 242.272 513.883 242.617C514.152 243.192 514.28 243.978 514.714 244.283C516.087 245.242 517.568 246.022 519.629 247.239L519.624 247.239ZM597.003 376.896C596.962 376.196 596.738 375.519 596.355 374.937C595.973 374.354 595.446 373.887 594.83 373.585C594.528 373.416 594 373.617 593.606 373.733C593.5 373.747 593.4 373.791 593.316 373.859C593.233 373.928 593.17 374.019 593.133 374.123C593.097 374.226 593.088 374.338 593.109 374.446C593.13 374.555 593.18 374.656 593.252 374.739C593.664 375.384 594.222 375.917 594.876 376.293C595.531 376.669 596.262 376.876 597.008 376.896L597.003 376.896ZM598.133 387.261C598.379 387.058 598.538 386.764 598.577 386.441C598.617 386.118 598.533 385.79 598.345 385.526C597.831 385.102 597.259 384.759 596.649 384.508C596.497 384.461 596.336 384.455 596.182 384.49C596.028 384.525 595.885 384.599 595.767 384.707C595.649 384.814 595.559 384.951 595.507 385.105C595.455 385.258 595.442 385.424 595.468 385.585C595.507 385.891 595.613 386.185 595.777 386.445C595.942 386.704 596.16 386.923 596.417 387.084C596.674 387.245 596.962 387.345 597.26 387.376C597.558 387.406 597.858 387.368 598.138 387.262L598.133 387.261ZM410.695 150.174C410.524 148.674 409.197 147.978 408.502 146.89C408.148 146.33 407.591 145.541 406.98 145.994C406.169 146.59 407.324 146.964 407.504 147.462C407.763 148.16 408.194 148.777 408.754 149.253C409.315 149.729 409.985 150.046 410.698 150.173L410.695 150.174ZM495.033 452.328C494.58 451.664 494.063 451.048 493.49 450.49C493.266 450.319 492.69 450.467 492.381 450.648C492.229 450.74 492.223 451.256 492.322 451.525C492.752 452.688 493.686 452.385 495.033 452.328ZM487.532 576.637C487.247 577.121 487.045 577.654 486.937 578.211C486.98 578.412 487.07 578.6 487.197 578.759C487.325 578.917 487.488 579.042 487.672 579.124C487.864 579.143 488.057 579.122 488.24 579.06C488.423 578.998 488.59 578.898 488.733 578.766C488.814 578.643 488.863 578.5 488.874 578.352C488.886 578.203 488.859 578.053 488.798 577.917C488.414 577.453 487.99 577.025 487.531 576.639L487.532 576.637ZM394.336 129.444C393.913 128.426 393.525 127.377 392.147 127.138C392.942 128.757 392.942 128.757 394.336 129.444ZM403.484 145.554C403.887 144.155 403.407 143.62 402.58 143.359C402.441 143.323 402.295 143.321 402.156 143.355C402.017 143.389 401.888 143.456 401.78 143.552C401.633 143.75 401.606 144.288 401.749 144.411C402.3 144.836 402.88 145.218 403.484 145.554V145.554ZM456.343 187.437C456.53 187.243 456.755 187.116 456.739 187.009C456.714 186.911 456.671 186.819 456.611 186.738C456.552 186.658 456.477 186.59 456.392 186.54C456.296 186.491 456.097 186.652 455.943 186.72L456.343 187.437ZM156.787 356.766L155.986 356.409C155.962 356.514 155.883 356.661 155.925 356.71C156.106 356.93 156.32 357.119 156.521 357.323L156.787 356.766ZM632.385 409.95C632.167 409.767 632.006 409.547 631.903 409.567C631.808 409.584 631.719 409.623 631.643 409.682C631.566 409.742 631.505 409.819 631.463 409.907C631.426 410.016 631.621 410.229 631.719 410.388L632.385 409.95ZM595.313 383.793C595.175 383.673 595.025 383.569 594.866 383.481C594.798 383.455 594.597 383.581 594.6 383.606C594.652 383.772 594.719 383.933 594.801 384.087L595.313 383.793ZM397.178 132.095L397.127 131.89L396.948 132.035L397.178 132.095ZM234.056 171.523C234.072 171.321 234.066 171.117 234.04 170.915C234.025 170.843 233.863 170.792 233.767 170.732C233.714 170.897 233.59 171.082 233.628 171.224C233.667 171.349 233.901 171.424 234.056 171.523L234.056 171.523ZM549.101 471.162L548.933 471.308L549.167 471.348L549.101 471.162Z" fill="#C7D6D3"/>
</svg>
