<svg width="1625" height="737" viewBox="0 0 1625 737" fill="none" xmlns="http://www.w3.org/2000/svg">
<path fill-rule="evenodd" clip-rule="evenodd" d="M1620.18 23.1441C1618.69 29.2175 1618.79 35.0662 1618.61 41.2265C1618.57 42.4296 1619.51 43.4298 1620.71 43.466C1621.91 43.5023 1622.9 42.5528 1622.94 41.3497C1623.11 35.5083 1622.97 29.9495 1624.39 24.1805C1624.67 23.0137 1623.96 21.8323 1622.8 21.5497C1621.64 21.2598 1620.46 21.9773 1620.18 23.1441Z" fill="black"/>
<path fill-rule="evenodd" clip-rule="evenodd" d="M1607.53 11.3739C1597.43 20.6361 1587.91 32.551 1581.26 44.5818C1580.68 45.6327 1581.06 46.959 1582.11 47.5388C1583.15 48.1186 1584.47 47.7417 1585.05 46.6908C1591.48 35.0586 1600.69 23.5351 1610.45 14.5844C1611.34 13.7727 1611.4 12.3957 1610.59 11.5115C1609.78 10.6273 1608.41 10.5621 1607.53 11.3739Z" fill="black"/>
<path fill-rule="evenodd" clip-rule="evenodd" d="M1604.97 1.25645C1595.73 -0.272797 1586.21 2.33632 1577.81 6.02536C1576.72 6.51095 1576.22 7.79374 1576.7 8.88813C1577.18 9.98977 1578.46 10.4899 1579.55 10.0115C1587.2 6.64865 1595.85 4.15544 1604.27 5.54699C1605.45 5.74267 1606.56 4.93821 1606.76 3.75685C1606.95 2.57548 1606.15 1.45214 1604.97 1.25645Z" fill="black"/>
<path fill-rule="evenodd" clip-rule="evenodd" d="M10.8652 714.22C10.8422 707.966 9.33356 702.316 8.01746 696.296C7.76027 695.12 6.60401 694.379 5.43468 694.634C4.26464 694.889 3.52502 696.053 3.78151 697.229C5.02963 702.937 6.50605 708.297 6.52909 714.237C6.53349 715.438 7.50984 716.411 8.70579 716.403C9.90279 716.403 10.8703 715.421 10.8652 714.22Z" fill="black"/>
<path fill-rule="evenodd" clip-rule="evenodd" d="M25.9761 722.572C33.5389 711.135 39.8941 697.267 43.4412 683.982C43.7501 682.822 43.0629 681.627 41.9077 681.318C40.7525 681.01 39.5622 681.696 39.2533 682.856C35.823 695.701 29.6767 709.114 22.3625 720.167C21.7021 721.169 21.9753 722.52 22.972 723.181C23.9687 723.843 25.3157 723.573 25.9761 722.572Z" fill="black"/>
<path fill-rule="evenodd" clip-rule="evenodd" d="M30.9114 731.768C40.2434 731.009 48.851 726.167 56.1092 720.552C57.055 719.815 57.2301 718.45 56.501 717.505C55.7694 716.553 54.4073 716.378 53.4597 717.108C46.8502 722.226 39.0585 726.743 30.5593 727.436C29.3669 727.533 28.4784 728.584 28.5754 729.777C28.6716 730.969 29.7196 731.864 30.9114 731.768Z" fill="black"/>
</svg>
