<svg width="1693" height="492" viewBox="0 0 1693 492" fill="none" xmlns="http://www.w3.org/2000/svg">
<path fill-rule="evenodd" clip-rule="evenodd" d="M20.4537 1.94685C14.8431 7.2743 9.48439 15.4596 7.41777 23.965C6.0188 29.7279 6.12545 35.6385 8.61126 40.9313C8.82612 41.387 9.36909 41.5813 9.8248 41.3665C10.2838 41.1532 10.478 40.6102 10.2632 40.1545C7.95258 35.241 7.89084 29.7511 9.19268 24.4001C11.1781 16.233 16.3234 8.38192 21.7117 3.27448C22.0752 2.92471 22.0913 2.34684 21.7464 1.98166C21.3967 1.61814 20.8188 1.60196 20.4537 1.94685Z" fill="black"/>
<path fill-rule="evenodd" clip-rule="evenodd" d="M1670.73 448.815C1665.12 454.142 1659.76 462.327 1657.69 470.833C1656.29 476.596 1656.4 482.506 1658.89 487.799C1659.1 488.255 1659.64 488.449 1660.1 488.234C1660.56 488.021 1660.75 487.478 1660.54 487.022C1658.23 482.109 1658.17 476.619 1659.47 471.268C1661.45 463.101 1666.6 455.25 1671.99 450.142C1672.35 449.792 1672.37 449.215 1672.02 448.849C1671.67 448.486 1671.09 448.47 1670.73 448.815Z" fill="black"/>
<path fill-rule="evenodd" clip-rule="evenodd" d="M34.4214 5.18318C28.8108 10.5106 23.4522 18.6959 21.3855 27.2013C19.9866 32.9642 20.0932 38.8748 22.579 44.1676C22.7939 44.6233 23.3369 44.8176 23.7926 44.6028C24.2516 44.3895 24.4458 43.8465 24.2309 43.3908C21.9204 38.4773 21.8586 32.9875 23.1605 27.6364C25.1458 19.4694 30.2912 11.6183 35.6795 6.51081C36.043 6.16104 36.0591 5.58317 35.7142 5.21799C35.3644 4.85447 34.7866 4.83829 34.4214 5.18318Z" fill="black"/>
<path fill-rule="evenodd" clip-rule="evenodd" d="M1684.7 452.05C1679.09 457.378 1673.73 465.563 1671.66 474.069C1670.26 479.831 1670.37 485.742 1672.85 491.035C1673.07 491.491 1673.61 491.685 1674.07 491.47C1674.53 491.257 1674.72 490.714 1674.51 490.258C1672.2 485.344 1672.13 479.855 1673.44 474.504C1675.42 466.337 1680.57 458.485 1685.95 453.378C1686.32 453.028 1686.33 452.45 1685.99 452.085C1685.64 451.722 1685.06 451.705 1684.7 452.05Z" fill="black"/>
</svg>
