<svg width="620" height="586" viewBox="0 0 620 586" fill="none" xmlns="http://www.w3.org/2000/svg">
<path d="M318.591 88.2983C319.236 88.45 319.885 88.6016 320.77 88.8072C320.444 88.0316 320.174 87.3923 319.806 86.5161L321.906 86.8973C322.976 87.7353 322.832 89.4725 324.399 89.7093C325.249 89.2753 324.418 88.4241 324.77 87.9325C325.166 87.4654 325.593 87.0269 326.048 86.6202C326.544 87.1596 327.27 87.6348 327.498 88.2668C327.916 89.1683 328.558 89.9425 329.361 90.5107C330.82 91.7966 332.433 92.914 334.12 94.2089C334.58 93.7972 335.039 93.396 335.491 92.9934C336.036 93.5688 336.641 94.2108 337.246 94.8438C337.455 95.0575 337.826 95.2405 337.864 95.4644C338.236 97.564 339.883 97.8576 341.492 98.246C341.859 98.3467 342.222 98.4666 342.577 98.6052C344.726 100.717 344.841 103.392 346.017 105.628C346.219 106.008 346.117 106.547 346.118 107.011C346.112 107.989 346.334 108.956 346.766 109.832C347.198 110.708 347.828 111.467 348.602 112.047C350.333 113.339 351.727 115.047 352.659 117.018C352.898 117.618 353.251 118.164 353.697 118.624C354.144 119.084 354.676 119.448 355.261 119.696L355.468 121.198C357.559 121.686 359.381 123.001 360.534 124.855C361.15 125.857 361.893 126.795 362.483 127.808C363.743 129.971 365.578 131.653 367.303 133.392C369.793 135.909 372.314 138.381 374.701 141.009C376.302 142.6 377.983 144.104 379.738 145.515C381.751 147.226 383.474 149.265 384.836 151.549L384.889 151.454C383.767 151.782 383.018 150.885 382.347 150.297C380.277 148.487 378.344 146.511 376.354 144.607C375.423 143.734 374.442 142.92 373.416 142.168C371.813 140.871 370.338 139.415 369.014 137.821C366.702 135.375 364.199 133.126 361.531 131.095C361.291 130.94 361.036 130.815 360.769 130.72C360.65 130.735 360.538 130.78 360.442 130.851C360.346 130.923 360.27 131.018 360.22 131.128C360.17 131.238 360.149 131.36 360.157 131.481C360.166 131.603 360.205 131.72 360.27 131.823C360.747 132.869 360.884 134.095 361.938 134.849C362.023 134.898 362.092 134.973 362.135 135.063C362.859 137.365 364.943 138.489 366.473 140.106C368.725 142.592 371.198 144.86 373.86 146.878C374.246 147.186 374.587 147.548 374.875 147.953C376.842 150.525 379.58 152.102 382.193 153.834C383.246 154.535 384.401 155.083 385.418 155.83C386.04 156.298 386.746 156.637 387.495 156.825C388.245 157.013 389.022 157.047 389.782 156.926L389.699 156.888C389.795 157.34 389.929 157.782 390.099 158.21C390.204 158.473 390.403 158.684 390.656 158.802C390.908 158.919 391.195 158.933 391.456 158.841C392.203 158.614 391.961 158.056 391.764 157.529L391.737 157.514C392.186 157.698 392.615 157.929 393.019 158.202C395.111 159.975 397.462 161.454 399.148 163.686C400.395 165.34 402.356 166.302 403.436 168.128C403.564 168.343 403.927 168.445 404.197 168.561C405.029 168.881 405.781 169.391 406.394 170.052C407.007 170.712 407.465 171.506 407.734 172.373C410.224 172.522 410.684 174.923 412.117 176.208C411.868 176.896 411.508 176.594 411.173 176.426C411.085 176.386 411.014 176.291 410.924 176.269C408.062 175.641 406.01 173.722 404.006 171.701C403.541 171.345 403.046 171.03 402.528 170.762C401.77 170.323 401.083 169.765 400.495 169.108C399.799 168.425 398.988 167.876 398.102 167.488C397.349 167.053 396.57 166.59 395.523 166.985C395.513 167.267 395.392 167.652 395.504 167.973C396.089 169.574 397.225 170.905 398.698 171.715C401.255 173.221 403.344 175.345 405.769 177.021C407.343 178.183 408.797 179.506 410.107 180.971C409.962 181.063 409.705 181.133 409.693 181.248C409.698 181.49 409.749 181.729 409.843 181.952C409.842 181.961 410.044 181.96 410.06 181.919C410.133 181.774 410.17 181.613 410.169 181.45C410.133 181.267 410.077 181.088 410.002 180.918C410.416 181.151 411.003 181.285 411.219 181.633C412.172 183.038 413.61 184.023 415.24 184.388C416.485 184.784 417.648 185.413 418.67 186.243C419.528 186.874 420.424 187.448 421.353 187.96C421.564 188.084 421.897 187.983 422.399 187.986C422.245 187.544 422.215 187.146 422.003 186.904C420.861 185.56 419.708 184.224 418.487 182.952C417.969 182.505 417.407 182.114 416.81 181.787C415.336 180.834 414.047 179.609 413.01 178.176C412.931 178.062 413.009 177.839 413.018 177.629C414.396 177.589 414.984 179.156 416.217 179.376L416.149 179.307C416.521 179.566 417.101 180.127 417.23 180.04C417.409 179.911 417.613 179.823 417.829 179.781C418.045 179.739 418.267 179.745 418.481 179.797C418.695 179.85 418.896 179.948 419.071 180.086C419.246 180.223 419.39 180.397 419.495 180.596C420.59 182.338 422.256 183.311 423.806 184.476C424.35 184.883 424.805 185.419 425.325 185.868C425.598 186.138 425.918 186.353 426.267 186.504C428.307 187.197 430.089 188.522 431.366 190.293C432.09 191.085 432.926 191.761 433.846 192.299C434.417 192.698 434.26 193.09 434.125 193.537L434.003 193.396L434.16 193.474L435.247 194.957L435.289 194.879L432.509 193.524C431.475 194.503 431.331 194.983 431.995 195.613C432.923 196.494 433.895 197.325 434.907 198.103C435.679 198.692 436.649 199.032 437.071 200.033C437.161 200.21 437.308 200.35 437.487 200.43C439.198 201.167 440.747 202.252 442.039 203.618C443.79 203.854 444.288 205.306 444.819 206.611C445.936 206.652 445.527 205.922 445.529 205.421L445.491 205.499C446.55 206.353 447.631 207.184 448.666 208.072C449.03 208.309 449.337 208.626 449.566 208.999C449.796 209.372 449.941 209.793 449.992 210.229C449.972 210.473 450.037 210.717 450.177 210.917C450.316 211.117 450.52 211.26 450.753 211.321C451.653 211.633 452.301 212.455 453.314 212.617C453.598 212.693 453.849 212.867 454.023 213.11C454.196 213.353 454.283 213.649 454.266 213.949L454.314 213.88C453.956 213.73 453.589 213.599 453.217 213.488C451.944 213.184 451.265 213.78 450.849 215.031C452.369 216.105 453.802 217.24 455.35 218.172C457.322 219.366 458.638 220.884 458.778 223.221C458.794 223.62 458.945 224.001 459.206 224.3C459.467 224.598 459.822 224.795 460.208 224.856C460.52 224.933 460.882 224.72 461.216 224.636L460.964 223.652C461.105 223.611 461.296 223.488 461.381 223.544C461.865 223.867 462.327 224.223 462.785 224.585C463.475 225.126 464.116 225.727 464.836 226.216C465.987 226.913 467.002 227.823 467.828 228.9C468.553 229.898 469.343 230.844 470.194 231.731C471.016 232.601 472.397 232.919 473.449 233.617C474.261 234.158 474.993 234.814 475.624 235.566C476.666 236.881 478.004 237.921 479.521 238.594C478.574 240.482 478.856 241.13 480.796 241.758C481.046 241.855 481.29 241.967 481.527 242.093L481.563 242.025L481.242 242.371L481.778 242.657L481.712 242.614C482.59 243.218 483.496 243.801 484.357 244.435C485.518 245.3 485.798 246.687 486.389 247.877C486.509 248.121 486.273 248.611 486.08 248.902C485.662 249.515 485.163 250.068 484.699 250.647C483.772 250.617 482.836 250.537 481.917 250.58C481.777 250.597 481.644 250.651 481.531 250.735C481.418 250.82 481.328 250.933 481.27 251.063C481.212 251.194 481.188 251.338 481.199 251.481C481.211 251.624 481.258 251.763 481.336 251.883C481.456 252.152 481.625 252.395 481.834 252.599C482.949 253.56 484.147 254.415 485.413 255.155C486.787 255.847 487.666 256.67 487.627 258.192C489.294 259.403 491.105 260.285 492.175 262.049C494.366 263.338 495.991 265.497 498.428 266.422L498.427 266.347C498.107 266.63 497.631 266.854 497.501 267.215C497.388 267.745 497.351 268.29 497.39 268.832C498.322 269.883 499.21 270.88 500.232 272.028C499.941 272.33 499.674 272.656 499.434 273.001C499.233 273.268 499.143 273.604 499.182 273.939C499.221 274.274 499.386 274.581 499.643 274.795C500.244 275.403 501.144 275.747 501.308 276.733L501.384 276.653C499.345 275.906 497.613 274.469 496.476 272.582C495.259 270.891 493.802 269.394 492.154 268.141C491.67 267.648 491.042 267.332 490.366 267.243C488.898 267.384 488.094 266.553 487.152 265.611C485.655 264.119 483.916 263.06 481.727 263.231C480.932 263.296 480.613 263.819 481.017 264.594C481.547 265.62 482.092 266.639 482.699 267.798C483.32 268.026 484.041 268.313 484.775 268.548C487.199 269.339 488.586 271.187 489.554 273.383C489.792 273.928 489.837 274.53 490.474 274.746C491.013 274.915 491.563 275.04 492.121 275.118C492.371 275.134 492.622 275.121 492.869 275.081C492.988 275.338 493.16 275.532 493.139 275.686C492.906 277.717 494.21 278.662 495.831 279.37C496.279 279.562 496.76 279.652 497.219 279.805C497.586 279.927 498.077 279.97 498.291 280.226C499.922 282.201 502.613 281.854 504.449 283.369C504.612 283.499 505.264 283.325 505.376 283.111C505.501 282.876 505.37 282.361 505.174 282.095C504.556 281.313 503.711 280.751 502.761 280.495C502.2 280.28 501.653 280.027 501.125 279.737C501.512 278.738 501.838 277.886 502.168 277.033L502.155 277.134C503.801 278.507 505.242 280.149 507.239 281.078C507.716 281.419 508.149 281.823 508.526 282.277C509.634 283.25 510.753 284.215 511.871 285.176C512.575 285.78 513.657 286.061 513.621 287.321C513.616 287.53 514.153 287.93 514.474 287.995C515.506 288.216 516.555 288.321 517.62 288.474C518.014 288.974 518.337 289.752 518.861 289.961C519.839 290.273 520.844 290.484 521.861 290.593C522.294 291.228 522.763 291.918 523.226 292.602C522.511 292.98 521.751 293.264 520.964 293.445C519.135 293.63 518.219 294.836 517.368 296.196C516.643 297.362 515.91 298.526 515.206 299.648C515.279 300.047 515.46 300.417 515.729 300.716C515.998 301.016 516.343 301.233 516.725 301.342C518.186 301.861 519.619 302.461 521.03 303.013C521.31 304.299 519.943 304.507 519.723 305.653L520.744 308.586C519.477 309.607 518.34 310.612 516.456 309.795C516.093 309.635 515.577 309.879 515.106 309.942C514.901 311.264 515.622 312.292 515.901 313.392L515.924 313.333C515.756 313.87 515.504 314.376 515.178 314.83C513.668 316.329 514.169 318.042 515.194 319.518C516.026 320.722 516.658 322.056 517.066 323.468C517.192 323.947 517.416 324.394 517.723 324.78C518.03 325.165 518.414 325.48 518.848 325.704C520.308 326.481 521.68 327.381 523.411 327.547C524.952 327.696 526.257 328.716 527.486 329.512C528.299 331.713 526.647 332.94 526.105 334.687C525.281 334.129 524.481 333.587 523.668 333.041C522.885 333.239 522.152 333.725 521.246 333.054C520.699 332.648 520.142 332.939 519.748 333.395C519.505 333.625 519.351 333.936 519.312 334.273C519.274 334.61 519.353 334.951 519.537 335.236C519.886 335.829 520.229 336.428 520.567 337.028C520.911 337.691 521.417 338.253 522.034 338.658C522.652 339.063 523.361 339.298 524.092 339.339C524.842 339.404 525.572 339.629 526.234 340.001C527.128 340.47 528.251 340.462 529.388 340.676C529.904 341.402 530.476 342.199 531.134 343.122C531.923 342.95 532.747 343.044 533.481 343.393C534.216 343.741 534.821 344.323 535.206 345.052C535.568 345.633 536.033 346.151 536.446 346.704C537.802 348.511 538.47 348.77 540.877 348.44L541.776 345.207C543.008 345.141 544.123 345.077 545.245 345.017C545.732 344.092 545.956 343.044 545.891 341.992C545.98 340.944 546.008 339.891 545.974 338.838C545.892 337.707 545.627 336.576 545.406 335.233C545.613 334.81 545.795 334.374 545.951 333.928C546.095 333.386 546.213 332.838 546.303 332.284C547.061 331.978 547.746 331.704 548.431 331.427L548.346 331.407C549.135 332.916 549.777 334.424 549.036 336.07C548.98 336.203 548.953 336.347 548.957 336.492C548.96 336.637 548.994 336.78 549.057 336.911C549.87 338.105 549.44 339.03 548.84 340.063C548.611 340.682 548.583 341.36 548.761 341.999C548.988 343.234 549.345 344.457 549.664 345.683C549.723 346.061 549.859 346.422 550.063 346.743C550.941 347.788 551.006 349.092 551.483 350.264C551.608 350.631 551.645 351.023 551.59 351.406C551.535 351.79 551.391 352.154 551.169 352.467C550.478 352.567 549.635 352.482 549.088 352.837C548.642 353.131 548.554 353.943 548.307 354.53C547.867 354.789 547.622 354.376 547.311 354.18C546.117 353.422 545.67 353.38 544.921 354.432C544.687 354.78 544.384 355.073 544.032 355.294C543.68 355.514 543.286 355.656 542.875 355.712C541.402 355.962 539.925 356.229 538.338 356.506C537.97 357.211 537.892 358.217 536.952 358.722C536.762 358.851 536.606 359.025 536.497 359.229C536.388 359.434 536.33 359.663 536.327 359.896C536.387 360.465 536.316 361.038 536.119 361.572C535.923 362.105 535.606 362.583 535.196 362.967C535.015 363.117 534.899 363.332 534.871 363.569C534.843 363.806 534.905 364.045 535.045 364.237C535.216 364.481 535.466 364.655 535.75 364.729C536.034 364.802 536.333 364.77 536.595 364.638C537.111 364.421 537.61 364.166 538.089 363.873C538.492 363.667 538.899 363.468 539.396 363.221C540.759 364.869 540.657 366.521 540.131 368.176C539.85 369.046 539.43 369.864 539.033 370.806C537.755 371.344 537.755 371.344 537.01 373.177C539.037 375.2 541.118 377.274 543.314 379.46C543.351 379.928 543.378 380.601 543.463 381.267C543.665 382.854 543.953 383.146 545.617 383.519C545.987 383.601 546.361 383.668 546.813 383.762C547.446 385.055 547.778 386.644 550.127 386.588C549.402 387.202 549.23 387.488 549.022 387.5C547.146 387.615 545.288 388.025 543.365 387.534C542.899 387.414 542.404 387.423 541.936 387.328C539.768 386.878 538.009 387.786 536.352 388.815C535.684 389.232 535.294 390.072 534.708 390.811C532.723 390.8 530.747 390.52 528.831 389.979C527.274 389.521 525.668 389.265 524.051 389.217C522.422 389.29 520.793 389.023 519.263 388.434C518.556 388.118 517.784 387.99 517.019 388.063C515.314 388.332 514.163 389.686 512.637 390.367C512.189 390.622 511.812 390.988 511.539 391.431C511.265 391.874 511.105 392.38 511.072 392.905C511.014 393.08 510.926 393.244 510.813 393.388C509.136 394.539 507.059 394.282 505.165 394.625C504.682 394.687 504.19 394.621 503.737 394.433C503.285 394.244 502.886 393.939 502.58 393.549C501.836 392.753 501.051 391.999 500.228 391.289C498.434 389.663 496.431 388.867 494.1 389.473C493.82 389.519 493.539 389.55 493.256 389.567C493.169 389.579 493.099 389.662 492.862 389.815C492.6 390.627 492.293 391.584 491.942 392.673C490.65 392.192 489.479 391.76 488.417 391.367C487.077 391.707 487.481 392.883 487.167 393.716L486.32 393.618L486.563 393.608L486.41 393.672C485.688 393.423 485.596 392.76 485.383 392.175L485.371 392.227L485.143 391.572L485.229 391.622L484.582 391.805L484.615 391.758C483.528 391.801 483.129 390.519 482.099 390.356C481.55 390.57 480.783 390.785 480.886 391.552C480.929 392.138 481.1 392.707 481.388 393.218C481.676 393.729 482.072 394.167 482.548 394.501C482.874 394.711 483.242 394.845 483.624 394.894C485.511 395.112 487.261 395.915 489.073 396.413C490.541 396.872 491.905 397.631 493.082 398.643C493.483 398.919 493.78 399.326 493.925 399.797C494.069 400.268 494.052 400.774 493.876 401.231L493.853 401.375L493.831 401.165L494.42 401.728C494.309 401.929 494.251 402.197 494.15 402.205C492.218 402.381 491.139 403.816 489.847 404.937L489.902 404.996L489.036 404.538L489.09 404.558C488.274 403.725 487.77 404.665 487.107 404.794C486.501 404.196 486.056 403.339 485.048 403.351L484.587 402.946C484.597 403.023 484.592 403.157 484.621 403.166C484.777 403.208 484.937 403.239 485.098 403.257L484.954 404.41C484.333 404.154 483.824 403.958 483.33 403.73C482.753 403.475 482.104 403.459 481.519 403.684C481.066 403.861 480.576 403.922 480.093 403.863C479.609 403.803 479.147 403.623 478.745 403.34C478.231 403.071 477.67 402.91 477.096 402.866C476.456 403.66 475.94 404.288 475.428 404.917C475.313 404.773 475.29 404.311 475.005 404.77L475.462 404.854C475.479 405.121 475.477 405.39 475.456 405.657C475.349 406.317 475.551 406.687 476.285 406.704C476.421 406.708 476.564 406.897 476.704 407.002L476.735 406.917C476.173 406.949 475.609 406.926 475.05 406.85C474.511 406.692 473.986 406.485 473.482 406.231C472.199 407.589 472.179 407.67 470.617 407.179C469.623 406.865 468.597 407.177 467.617 406.568C467.133 406.268 466.258 407.275 466.579 407.823C466.84 408.225 467.011 408.68 467.08 409.156C467.149 409.631 467.115 410.116 466.98 410.575L465.263 411.079C465.133 410.827 465.043 410.556 464.996 410.276C465.004 409.279 465.016 408.31 463.76 407.929L462.925 408.709C462.239 407.905 461.578 407.13 460.944 406.384C460.546 406.588 460.193 406.872 459.908 407.22C459.622 407.569 459.41 407.974 459.284 408.41L459.313 408.344C458.73 408.53 458.158 408.749 457.6 409C457.188 409.208 457.125 408.828 456.929 408.685C455.496 407.636 453.986 407.855 452.497 408.17C452.323 408.243 452.171 408.359 452.053 408.508C451.935 408.657 451.856 408.834 451.823 409.023C451.79 409.212 451.804 409.406 451.863 409.589C451.923 409.772 452.026 409.937 452.163 410.069C453.704 411.128 454.439 412.754 455.458 414.214C456.368 415.027 458.057 414.476 458.613 416.195C457.887 416.502 457.085 416.574 456.314 416.4C455.544 416.226 454.843 415.816 454.305 415.224C453.08 416.201 454.859 418.058 453.28 418.825C452.859 418.375 452.557 417.823 452.403 417.221C452.25 416.619 452.25 415.989 452.404 415.389C452.463 415.248 452.485 415.094 452.47 414.941C452.456 414.788 452.403 414.64 452.318 414.513C452.233 414.385 452.119 414.281 451.985 414.21C451.851 414.14 451.702 414.104 451.551 414.107C451.233 414.634 450.885 415.161 450.589 415.717C450.421 416.041 450.142 416.483 450.248 416.759C451.068 418.857 449.599 420.622 449.83 422.626C449.885 423.132 449.106 423.541 448.832 423.201C448.562 422.858 448.208 422.594 447.806 422.437C447.404 422.279 446.968 422.235 446.545 422.308C445.847 422.245 445.16 422.088 444.502 421.839C444.015 424.416 443.828 426.835 444.589 429.307C444.704 429.78 444.955 430.208 445.311 430.534C446.625 431.542 447.818 432.706 448.866 434.001C449.265 434.421 449.734 434.766 450.25 435.021C451.891 435.922 452.314 436.998 451.545 438.467C451.16 439.2 450.789 439.939 450.31 440.869C449.758 440.946 449.033 441.039 448.108 441.163L447.85 442.744L460.782 448.589C460.259 449.636 459.818 450.517 459.338 451.472C460.425 452.221 461.371 452.877 462.236 453.475C462.28 453.811 462.386 454.042 462.319 454.172C461.903 454.989 461.392 455.751 461.024 456.586C460.642 457.464 461.633 458.312 461.248 459.354C461.014 459.988 461.605 460.975 461.862 461.962C461.04 462.352 460.15 462.574 459.242 462.615C458.407 462.749 457.513 462.67 456.711 462.875C455.189 463.275 453.737 463.436 452.309 462.392C448.962 462.101 446.104 460.192 443.021 459.026C442.521 458.756 441.941 458.687 441.397 458.832C440.684 459.124 439.917 459.252 439.148 459.206C438.379 459.16 437.629 458.941 436.949 458.566C436.768 458.494 436.577 458.448 436.383 458.431C434.815 458.101 433.966 458.704 433.915 460.246C433.932 460.729 433.987 461.211 434.078 461.686L434.121 461.611C433.842 461.565 433.439 461.376 433.303 461.496C432.847 461.88 432.308 462.149 431.731 462.282C431.153 462.414 430.553 462.408 429.976 462.262L427.349 466.044C427.789 467.277 428.341 468.507 427.836 470.164C427.602 470.273 427.344 470.314 427.088 470.285C426.832 470.255 426.588 470.156 426.381 469.996C425.71 469.593 424.988 469.275 424.307 468.872C423.422 468.374 422.383 468.25 421.415 468.527L420.899 470.324C420.041 470.146 419.492 470.033 418.956 469.923C418.236 470.351 417.496 472.187 417.786 472.908C417.879 473.188 418.069 473.423 418.319 473.571C419.976 474.131 420.092 475.509 420.215 476.855C420.309 477.892 420.309 478.938 420.352 479.944C420.915 480.416 421.436 480.857 421.908 481.259C421.946 481.735 421.868 482.212 421.681 482.648C421.494 483.083 421.203 483.464 420.836 483.755C419.944 484.002 419.61 483.228 419.044 482.906C417.594 482.082 416.096 481.382 415.293 479.732C414.986 479.344 414.59 479.04 414.141 478.847C413.236 478.257 412.303 477.714 411.344 477.222C410.659 476.927 409.954 476.68 409.237 476.484C408.123 476.788 409.14 478.504 407.642 477.915C407.651 478.302 407.598 478.508 407.672 478.659C408.214 479.807 409.02 480.804 410.02 481.566C411.925 483.049 413.777 484.619 414.954 486.922C416.165 489.294 418.315 491.007 420.428 492.621C421.192 493.212 421.834 493.953 422.316 494.8C422.896 495.759 423.273 496.906 424.284 497.624C424.595 497.864 424.846 498.175 425.019 498.532C425.191 498.888 425.28 499.28 425.278 499.677L425.31 499.606C425.027 499.613 424.559 499.512 424.488 499.643C423.644 501.168 422.121 502.247 421.699 504.267C422.097 505.324 422.575 506.547 424.061 506.755C425.538 506.955 426.163 506.406 427.077 504.415C427.411 504.593 427.677 504.881 427.831 505.233C427.985 505.584 428.018 505.978 427.923 506.349C427.776 506.897 427.596 507.43 427.409 507.965C427.222 508.499 427.018 509.013 426.844 509.471C425.937 509.737 425.229 509.975 424.499 510.153C423.679 510.35 422.944 510.809 422.401 511.465C422.128 511.842 421.831 512.2 421.511 512.536C420.125 513.733 418.783 514.825 416.757 515.152C413.956 515.656 411.113 515.882 408.266 515.829C405.418 515.733 402.594 516.217 399.745 516.33C398.408 516.341 397.072 516.248 395.748 516.051C392.981 515.732 390.221 515.317 387.46 515.02C384.782 514.733 382.152 514.129 379.5 513.643C375.851 512.976 372.532 511.303 369.024 510.231C366.619 509.496 364.206 508.763 361.766 508.202C358.929 507.498 356.184 506.445 353.591 505.064C351.131 503.9 348.554 503.017 345.908 502.434C345.628 502.367 345.341 502.345 345.055 502.368C342.667 502.54 342.669 502.544 340.615 501.799C340.357 502.003 340.048 502.209 339.779 502.455C339.467 502.756 339.072 502.951 338.647 503.015C338.222 503.079 337.787 503.009 337.4 502.814C336.242 502.302 335.014 501.977 333.761 501.852C332.952 501.788 332.325 501.749 331.713 502.366C331.419 502.619 331.058 502.777 330.676 502.822C330.293 502.866 329.905 502.794 329.56 502.615C328.462 502.218 327.389 501.749 326.348 501.213C324.131 499.963 321.903 498.706 320.231 496.673C320.042 496.446 319.707 496.305 319.594 496.062C318.766 494.343 317.156 493.573 315.673 492.617C314.19 491.66 312.787 490.552 311.325 489.555C309.218 488.113 307.216 486.486 304.813 485.568C303.507 483.829 301.35 483.46 299.709 482.214C298.1 481.121 296.41 480.16 294.653 479.341C291.965 477.914 289.222 476.598 286.569 475.111C284.28 473.828 282.108 472.272 279.608 471.476C278.596 471.153 278.087 470.04 276.802 470.061C275.844 470.069 274.814 469.346 273.836 468.906C272.857 468.466 271.903 467.988 270.946 467.511C270.408 467.273 269.892 466.989 269.401 466.662C267.326 465.126 264.826 464.49 262.682 463.103C262.603 463.042 262.515 462.995 262.422 462.962C257.14 461.568 252.968 457.918 248.326 455.239C245.354 453.523 242.555 451.482 239.677 449.585C238.309 449.376 237.728 447.875 236.276 447.535C235.06 447.249 234.011 446.063 232.867 445.31C231.723 444.556 230.499 443.928 229.426 443.089C228.482 442.379 227.397 441.889 226.25 441.654C223.983 441.052 221.835 440.047 219.902 438.686C217.277 436.971 214.56 435.401 212.136 433.508C211.458 433.809 210.715 433.931 209.976 433.863C209.237 433.795 208.526 433.538 207.906 433.117C205.049 431.202 202 429.63 199.157 427.699C198.914 427.536 198.695 427.33 198.462 427.145L198.539 427.017L198.515 427.176C195.735 425.2 192.943 423.232 190.172 421.245C187.949 419.655 185.745 418.042 183.533 416.436C183.287 415.592 182.338 415.984 181.922 415.447L181.86 415.504C182.14 415.181 182.142 414.935 181.636 414.832L181.738 414.864L181.066 415.083L181.071 414.984C177.831 412.758 174.6 410.521 171.348 408.307C167.372 405.593 163.163 403.229 159.555 399.947C158.712 399.175 157.517 398.812 156.518 398.201C155.682 397.693 154.878 397.131 154.112 396.519C153.116 395.721 152.253 394.734 151.207 394.027C148.34 392.09 145.687 389.882 142.986 387.728C140.443 385.702 137.783 383.836 135.223 381.837C133.524 380.505 131.858 379.109 130.275 377.636C129.494 376.908 128.977 375.908 128.258 375.103C127.88 374.687 127.29 374.13 126.857 374.158C125.627 374.226 125.179 373.228 124.495 372.605C123.118 371.344 123.188 371.049 124.959 369.827C125.766 370.197 126.646 370.586 127.516 370.994C128.909 371.653 129.987 372.551 130.306 374.188C130.431 374.764 130.75 375.278 131.207 375.64C133.222 377.043 135.302 378.347 137.36 379.688C137.481 379.743 137.606 379.787 137.734 379.818L139.7 379.018C139.639 378.806 139.645 378.449 139.469 378.27C136.915 375.68 134.345 373.101 131.76 370.535C130.024 368.817 128.542 366.869 126.798 365.153C125.463 363.837 124.101 362.537 122.806 361.187C122.312 360.6 121.857 359.979 121.446 359.328C121.754 359.171 121.924 359.099 122.077 359.006C122.383 358.815 122.855 358.681 122.944 358.403C123.074 357.948 123.051 357.461 122.878 357.019C122.632 356.605 122.318 356.237 121.949 355.931C120.424 354.332 119.077 352.65 118.966 350.231L117.143 350.176C114.913 347.694 112.593 345.155 110.332 342.571C109.891 342.051 109.574 341.435 109.406 340.77C109.22 340.043 109.409 339.238 109.2 338.525C108.876 337.836 108.468 337.191 107.986 336.605C108.455 336.635 108.919 336.72 109.369 336.858C109.698 337.06 110.081 337.149 110.462 337.11C110.842 337.071 111.199 336.906 111.479 336.641C111.918 336.238 112.443 335.878 112.998 336.174C114.356 336.897 115.392 336.368 116.442 335.72C116.755 335.527 117.061 335.329 117.37 335.134L117.462 335.297L117.32 335.127C118.006 334.064 117.214 332.883 117.346 331.76C117.392 331.406 116.919 330.907 116.6 330.549C115.817 329.667 114.944 328.86 114.184 327.958C113.827 327.508 113.551 326.996 113.369 326.448C113.096 325.678 113.184 325.582 114.346 324.586C115.772 325.377 117.355 326.012 118.739 324.71C119.967 323.554 121.222 322.341 119.934 319.757C120.798 320.355 121.694 320.905 122.617 321.403C123.921 321.995 125.03 321.104 124.593 319.74C124.26 318.296 123.559 316.964 122.562 315.881C121.635 315.026 120.587 314.308 119.339 313.332L119.022 311.761C119.202 311.597 119.317 311.391 119.461 311.378C120.931 311.227 122.407 311.106 123.992 310.965C123.952 310.194 124.128 309.429 124.499 308.759C124.871 308.09 125.422 307.544 126.088 307.187C126.284 307.066 126.503 306.99 126.731 306.963C126.958 306.937 127.189 306.961 127.408 307.034C128.605 307.734 129.623 307.261 130.652 306.988C130.953 306.386 131.232 305.836 131.511 305.281L131.618 305.427L131.464 305.281C129.419 302.029 127.047 299.003 124.386 296.255C123.554 295.418 122.704 294.604 121.865 293.783C122.05 293.285 122.402 293.276 122.743 293.561C123.347 294.063 123.897 294.627 124.492 295.143C125.492 296.015 126.565 296.661 128.059 296.322L129.302 294.6C129.834 294.626 130.489 294.469 130.926 294.718C131.323 294.984 131.796 295.106 132.267 295.064C132.738 295.022 133.181 294.818 133.522 294.486C133.786 294.276 134.214 294.261 134.586 294.153C135.422 294.753 136.186 295.357 137.006 295.875C137.366 296.12 137.774 296.283 138.201 296.354C138.627 296.424 139.063 296.399 139.478 296.28C139.852 296.165 140.191 295.956 140.465 295.673C140.739 295.389 140.94 295.04 141.049 294.657C140.289 293.702 139.473 292.623 138.169 292.445C137.54 292.395 136.937 292.162 136.431 291.773C135.925 291.385 135.536 290.857 135.312 290.253C135.053 289.562 134.576 288.978 133.956 288.594C133.337 288.211 132.611 288.05 131.895 288.137C131.435 287.591 131.005 287.022 130.604 286.43C130.167 285.779 129.587 285.24 128.911 284.858C127.944 284.206 127.047 283.453 126.233 282.611C123.813 280.158 121.376 277.735 118.785 275.467C118.12 274.883 117.312 274.451 116.696 273.825C116.095 273.217 115.181 272.892 114.953 271.9C114.885 271.723 114.781 271.563 114.647 271.431C114.514 271.298 114.355 271.196 114.18 271.131C111.851 270.343 110.39 268.367 108.581 266.886C105.842 264.645 103.198 262.294 100.456 260.069C99.5685 259.451 98.6353 258.905 97.665 258.437C96.9736 258.077 96.301 257.679 95.6504 257.246C95.1657 256.897 94.828 256.487 94.1518 256.879C93.9688 256.987 93.2574 256.521 92.9873 256.167C91.9934 254.951 91.0991 253.654 90.3137 252.288C89.5987 250.878 88.6168 249.625 87.4254 248.604C86.5682 247.881 85.4423 247.24 85.3272 245.907L85.259 245.909C85.7155 245.841 86.1671 245.771 86.8031 245.681C86.722 243.226 86.799 240.862 84.5565 238.893L85.1797 236.87C85.0784 236.484 84.899 236.124 84.653 235.814C84.4071 235.503 84.1 235.248 83.7522 235.066C83.488 234.933 83.2764 234.711 83.1536 234.438C83.0308 234.164 83.0044 233.857 83.079 233.567C83.1976 233.197 83.2059 232.798 83.1029 232.42C83 232.043 82.7905 231.705 82.5006 231.448C81.716 230.596 81.1603 229.552 80.888 228.418C81.0788 228.018 81.3848 227.688 81.7652 227.471C82.1456 227.255 82.5822 227.162 83.0172 227.207C83.7623 227.257 84.5083 227.149 85.2085 226.89C85.9086 226.631 86.5477 226.227 87.0857 225.702C87.4409 225.402 87.8536 225.18 88.2976 225.051C88.7417 224.921 89.2075 224.887 89.6665 224.95C91.6665 225.068 92.1219 224.613 92.7856 222.816C92.9093 222.504 92.9621 222.167 92.9397 221.831C92.9173 221.494 92.8205 221.166 92.6565 220.872C92.2594 220.192 91.7963 219.553 91.2747 218.966C90.9616 218.589 90.5343 218.306 90.2009 217.943C88.4385 216.024 88.8819 215.421 89.8449 214.188C90.0678 213.896 90.2778 213.592 90.4987 213.284C90.49 212.101 90.2307 210.932 89.7387 209.857C89.2467 208.782 88.5337 207.828 87.6486 207.059C87.2757 206.746 86.9926 206.335 86.8306 205.871C86.3314 204.368 85.5361 202.984 84.494 201.805C83.1303 200.136 82.6394 198.403 83.4007 196.426C83.7239 195.626 83.7826 194.739 83.5676 193.898C83.3216 192.93 83.8221 192.567 84.8657 192.781C86.1873 193.049 87.5093 193.344 88.8214 193.673C89.2662 193.826 89.7426 193.852 90.1988 193.748C90.655 193.643 91.0735 193.412 91.4086 193.08C91.9847 192.549 92.9125 192.406 93.6757 192.064C95.2095 191.376 95.7522 190.253 95.1692 188.604C94.6468 187.128 93.9383 185.715 93.346 184.26C93.064 183.651 92.8575 183.007 92.7313 182.346C92.6303 180.889 92.2477 179.465 91.6056 178.157C91.3007 177.559 91.2258 176.868 91.3959 176.22C91.9467 174.435 91.9345 172.464 92.8813 170.811C93.1885 170.332 93.3887 169.789 93.468 169.22C93.5473 168.652 93.5037 168.072 93.3403 167.52C93.2117 167.102 93.4465 166.595 93.5104 166.148C94.9935 164.794 96.8127 164.903 98.6294 165.351C99.5551 165.576 100.47 165.795 101.405 165.982C102.346 166.248 103.24 166.668 104.052 167.226C105.128 167.833 106.353 168.107 107.574 168.013C106.782 165.465 106.623 162.772 103.937 161.33L103.743 159.496C104.379 159.31 104.895 159.128 105.43 159.012C106.597 158.75 107.82 158.76 108.813 157.912C109.709 157.145 110.83 157.253 112.054 157.619C115.871 158.747 119.545 160.382 123.414 161.335C124.388 161.576 125.27 162.381 126.18 162.947C127.131 163.541 127.866 163.193 127.858 162.066C127.821 161.427 127.744 160.79 127.627 160.16C125.211 158.238 121.927 158.383 119.726 155.933L121.422 153.689C121.135 153.373 120.816 153.089 120.471 152.843C118.483 151.768 116.48 150.741 114.485 149.672C114.035 149.388 113.518 149.235 112.991 149.23C112.464 149.225 111.946 149.368 111.495 149.643C110.936 149.973 110.32 150.193 109.68 150.293C109.454 150.315 109.235 150.387 109.039 150.505C108.843 150.622 108.675 150.783 108.547 150.974C107.993 151.792 107.225 151.504 106.504 151.171C106.225 151.074 105.994 150.869 105.861 150.6C105.728 150.331 105.703 150.019 105.792 149.734C106.105 148.77 106.544 147.858 106.973 146.817C108.552 146.771 109.773 145.582 111.489 145.753C111.767 145.75 112.041 145.684 112.291 145.559C112.541 145.435 112.76 145.256 112.933 145.034C113.935 143.639 115.347 143.434 116.948 143.586C117.037 143.595 117.13 143.537 117.401 143.458C117.72 142.178 119.16 141.903 120.162 141.017C120.145 140.652 120.139 140.28 120.112 139.907C119.933 137.256 119.933 137.256 117.816 135.736C118.258 135.067 118.887 135.443 119.341 135.68C120.731 136.407 122.134 137.094 123.526 137.803C126.225 139.182 128.782 140.864 131.419 142.383C134.404 144.099 137.405 145.786 140.42 147.444C140.694 147.598 141.256 147.598 141.424 147.42C141.516 147.268 141.571 147.095 141.586 146.916C141.601 146.738 141.575 146.557 141.51 146.39C141.186 145.582 140.749 144.811 140.342 144.038C140.076 143.523 139.786 143.023 139.507 142.52C139.693 142.216 139.841 141.989 139.979 141.754C140.25 141.29 140.724 140.837 140.732 140.352C140.706 139.954 140.576 139.569 140.355 139.238C140.134 138.907 139.831 138.642 139.476 138.471C138.535 137.941 137.535 137.529 136.556 137.07C135.741 136.741 134.943 136.369 134.166 135.954C132.737 135.084 131.441 133.94 129.952 133.251C128.473 132.568 126.816 132.344 125.252 131.85C124.43 131.59 123.547 131.352 123.042 130.482C122.961 130.008 123.058 129.521 123.313 129.119C123.568 128.717 123.963 128.43 124.419 128.314C124.79 128.217 125.181 128.219 125.553 128.318C125.926 128.417 126.268 128.611 126.549 128.882C127.521 129.562 128.557 130.138 129.643 130.602C131.246 131.319 132.903 131.889 134.212 133.205C134.691 133.544 135.213 133.814 135.763 134.009C136.302 134.206 136.798 134.513 137.219 134.911C138.189 136.269 139.664 136.519 141.024 136.985C141.523 137.161 142.059 137.19 142.57 137.069C143.082 136.948 143.548 136.681 143.916 136.299C144.585 135.528 145.168 134.683 145.655 133.78C146.244 132.838 146.018 131.78 145.684 130.784C146.058 130.269 146.56 129.866 147.138 129.617C147.716 129.368 148.35 129.281 148.974 129.366C150.517 129.575 152.013 129.699 153.133 131.151C153.734 131.8 154.418 132.362 155.167 132.822C156.731 133.848 158.032 135.245 158.958 136.892C159.189 137.325 159.484 137.72 159.833 138.061C162.269 140.5 164.844 142.785 167.482 145C168.912 146.202 170.407 147.34 171.746 148.64C174.873 151.673 178.452 154.128 181.796 156.89C183.528 158.361 185.512 159.488 187.645 160.212C188.172 160.323 188.708 160.382 189.245 160.386C188.823 158.106 188.276 156.137 186.136 154.961C184.821 154.239 183.57 153.435 183.376 151.753L183.34 151.815C184.072 152.255 184.821 152.671 185.541 153.144C186.939 154.055 188.283 155.05 189.708 155.91C191.979 157.277 194.356 158.454 196.567 159.91C198.398 161.031 200.366 161.897 202.419 162.484C203.913 162.915 205.353 163.529 206.708 164.31C207.648 164.885 207.664 164.858 209.391 164.764C209.757 164.135 209.377 163.679 208.93 163.266C206.303 160.877 203.432 158.786 200.367 157.028C198.939 156.193 197.628 155.084 195.925 154.778C195.382 154.567 194.898 154.221 194.516 153.773C193.132 152.502 191.626 151.38 190.02 150.423C187.706 149.124 185.599 147.471 183.773 145.521C183.964 144.957 184.384 145.227 184.682 145.388C186.842 146.549 188.998 147.725 191.142 148.926C191.734 149.282 192.306 149.671 192.855 150.092C194.851 151.54 196.822 153.026 199.384 153.151C200.025 153.302 200.658 153.489 201.279 153.712C201.709 153.731 202.139 153.685 202.556 153.578C202.987 152.828 202.449 152.401 201.989 152.097C200.692 151.206 199.349 150.39 197.964 149.653C196.656 148.975 195.441 148.121 194.352 147.116C193.545 146.391 192.592 145.838 191.76 145.148C191.375 144.725 191.036 144.261 190.747 143.766C192.266 143.809 193.173 144.65 194.192 145.035C195.267 145.438 196.275 146.06 197.381 145.749C197.738 145.211 197.371 144.902 197.098 144.69C196.485 144.203 195.811 143.788 195.156 143.345C193.712 142.495 192.374 141.468 191.172 140.288C190.528 139.676 189.811 139.15 189.04 138.72C187.387 137.65 185.662 136.688 184.059 135.542C181.172 133.471 178.055 131.788 175.092 129.848C174.436 129.416 173.65 129.144 173.325 128.35C173.189 128.018 173.038 127.5 173.188 127.297C173.468 126.94 173.871 126.708 174.316 126.649C174.803 126.633 175.283 126.775 175.69 127.053C178.457 129.001 181.689 129.859 184.638 131.38C185.735 132.017 186.918 132.481 188.149 132.757C189.093 133 189.997 133.386 190.831 133.902C192.134 134.601 193.429 135.316 194.654 136.139C195.831 136.887 197.242 137.142 198.591 136.851L199.045 135.05C198.924 134.829 198.774 134.626 198.598 134.448C194.384 131.696 190.168 128.95 185.949 126.21C185.534 125.944 185.136 125.653 184.757 125.337C183.635 124.364 183.608 124.013 184.561 122.217C187.769 123.717 190.984 125.402 194.814 125.185C194.739 124.848 194.623 124.522 194.467 124.215C193.011 122.131 190.818 120.927 188.873 119.424C187.784 118.583 186.727 117.697 185.661 116.831L185.623 116.892C186.986 116.706 187.911 117.785 189 118.331C191.447 119.549 193.848 120.83 196.547 121.342C197.487 121.541 198.389 121.896 199.218 122.393C200.899 123.371 202.534 123.934 204.38 123.188C205.164 122.95 205.97 122.788 206.785 122.706C207.934 121.081 207.347 119.527 206.224 118.214C205.06 116.892 204.065 115.424 203.265 113.846C202.84 113.064 202.287 112.361 201.63 111.769C201.072 111.309 200.67 110.679 200.486 109.971C200.301 109.264 200.342 108.517 200.603 107.838C200.91 106.956 201.246 106.086 201.61 105.229C202.004 104.29 202.44 103.372 202.913 102.329C202.481 101.786 202.004 101.283 201.486 100.825C200.999 100.51 200.608 100.062 200.356 99.5321C200.104 99.0025 200.002 98.4124 200.062 97.829L199.985 97.843C200.745 97.8548 201.504 97.8626 202.413 97.8761C202.754 97.2341 203.222 96.672 203.787 96.2248C204.352 95.7775 205.002 95.4547 205.696 95.2764C206.345 95.14 206.798 94.3432 207.382 93.8979C207.832 93.4671 208.399 93.1862 209.01 93.0921C209.62 92.998 210.246 93.0952 210.805 93.3708C211.613 93.6863 212.468 93.8556 213.331 93.8711C213.566 93.9052 213.805 93.875 214.024 93.7838C214.242 93.6926 214.433 93.5435 214.577 93.3518C214.72 93.1601 214.811 92.9326 214.84 92.6924C214.869 92.4522 214.835 92.2079 214.742 91.9845C214.42 91.2732 213.973 90.6283 213.422 90.0827C212.526 89.1572 211.577 88.2879 210.579 87.4797C209.535 86.59 208.727 85.4469 208.228 84.1565C207.719 82.991 207.39 81.9362 208.25 80.9542C208.926 80.186 208.151 79.2791 208.47 78.3674C209.769 78.2709 211.073 78.5268 212.249 79.1092C213.675 79.8117 215.14 80.2952 216.859 79.7175C217.094 78.8655 217.358 77.8983 217.609 76.9797C217.251 75.1552 215.355 74.8769 214.104 73.3217C215.289 73.7189 216.081 73.9827 216.967 74.2813C217.11 74.2854 217.252 74.2635 217.387 74.2166C219.267 73.2104 219.43 72.7957 218.716 70.9061C218.576 70.5393 218.438 70.1741 218.265 69.8207C218.003 69.2907 217.706 68.7758 217.402 68.2203C217.562 67.8373 217.825 67.509 218.16 67.2731C218.495 67.0373 218.89 66.9035 219.298 66.8869C220.042 66.9068 220.779 66.7401 221.443 66.4014C221.783 66.0792 222.224 65.8898 222.689 65.8661C223.154 65.8425 223.613 65.9861 223.988 66.2719C224.324 66.4793 224.901 66.2481 225.369 66.253C225.972 66.2019 226.579 66.2767 227.155 66.4729C227.73 66.6691 228.261 66.9825 228.716 67.3942C230.068 68.6325 231.812 69.4319 233.389 70.4229L233.344 70.6538L233.342 70.3975C234.384 71.5706 235.609 72.5587 236.967 73.3211C238.393 74.0503 239.61 75.2087 240.979 76.0818C241.901 76.8135 243.04 77.1987 244.202 77.1724C245.318 77.0855 246.346 78.1129 247.152 78.8918C247.611 79.3662 248.11 79.798 248.644 80.1817C249.524 80.6284 250.225 81.376 250.625 82.294C250.749 82.5616 250.935 82.7942 251.167 82.9714C253.214 84.7986 255.241 86.649 257.331 88.4178C257.907 88.7755 258.377 89.2874 258.69 89.8975C258.82 90.1672 259.023 90.3933 259.275 90.5487C263.093 93.1324 266.292 96.5437 270.159 99.0559C270.685 99.3265 271.172 99.6714 271.605 100.081C272.462 101.051 273.594 101.723 274.842 101.998C276.17 102.354 277.325 103.201 278.082 104.374C278.774 105.325 279.684 106.087 280.731 106.592C282.506 107.643 284.204 108.825 285.811 110.13C286.28 110.537 286.828 110.838 287.418 111.012C288.009 111.186 288.628 111.229 289.233 111.138C289.593 110.506 289.234 110.097 288.895 109.78C287.452 108.432 286.017 107.057 284.492 105.804C283.211 104.745 282.127 103.469 280.638 102.621C279.889 102.165 279.331 101.442 279.07 100.593C278.779 99.5417 278.116 98.6358 277.212 98.051C276.588 97.5741 276.001 97.0489 275.455 96.4803C275.132 96.1283 274.92 95.686 274.845 95.211C274.841 95.0123 274.798 94.8162 274.72 94.6339C274.641 94.4517 274.528 94.287 274.387 94.1495C274.245 94.012 274.079 93.9043 273.897 93.8329C273.715 93.7616 273.521 93.7278 273.327 93.7338C271.628 93.7124 270.792 92.413 269.716 91.4425C269.76 89.2962 267.349 88.7306 266.711 87.0094C266.567 86.7473 266.349 86.5361 266.085 86.4045C262.239 84.1743 259.003 81.0792 255.39 78.5247C254.979 78.2643 254.647 77.8919 254.432 77.4499C253.273 74.2475 250.625 72.5432 247.963 70.8431C247.616 70.685 247.31 70.4473 247.068 70.1486C246.293 68.6928 244.992 67.7991 243.743 66.8228C241.882 65.3662 239.99 63.9412 238.201 62.3932C237.074 61.2771 235.694 60.4649 234.187 60.0307C233.862 59.9529 233.59 59.5459 233.152 59.169C233.498 58.7176 233.844 58.3248 234.131 57.8955C234.843 56.8238 235.575 55.809 235.252 54.2832C235.014 53.1796 235.735 52.7522 236.782 53.1538C240.658 54.6451 241.174 54.9299 244.804 57.7481C246.964 59.4316 249.119 61.1379 251.187 62.9186C252.366 63.9333 253.48 65.0587 254.71 66.0443C255.054 66.3917 255.363 66.7728 255.634 67.182C255.922 67.6941 256.305 68.1444 256.761 68.5074C258.688 69.4582 259.878 71.1769 261.316 72.6464C261.867 73.2062 262.47 73.7103 263.116 74.1518C264.67 75.1932 266.092 76.4279 267.349 77.8272C268.172 78.6755 269.045 79.4711 269.964 80.2094C270.262 80.468 270.721 80.6139 270.887 80.9223C272.355 83.6355 275.308 84.7281 277.269 86.9144C278.234 87.9868 279.602 88.6974 280.753 89.6188C282.961 91.2521 285.086 92.9988 287.12 94.852C289.66 97.3401 292.536 99.383 295.2 101.7C295.728 102.139 296.284 102.542 296.864 102.904C299.549 104.54 302.06 106.46 304.355 108.632C304.928 109.17 305.6 109.584 306.331 109.851C307.062 110.117 307.837 110.231 308.61 110.185C308.833 110.163 309.049 110.092 309.242 109.977C309.436 109.862 309.603 109.707 309.732 109.521C310.008 108.978 310.222 108.405 310.37 107.811C305.577 103.322 300.895 98.9384 296.215 94.5553C295.651 93.998 295.059 93.4707 294.441 92.9758C292.566 91.5256 290.779 89.9597 289.09 88.2868C287.391 86.6362 285.457 85.2324 283.639 83.7104C283.109 83.2709 282.601 82.8031 282.118 82.3094C278.954 78.9008 275.573 75.7091 271.998 72.7554C270.452 71.5355 269.111 70.0501 267.61 68.7587C265.816 67.2209 263.962 65.7446 262.123 64.2637C260.207 62.7218 258.281 61.1943 256.344 59.6809C255.187 58.7791 253.994 57.9244 252.825 57.0533C254.052 54.9505 254.184 54.31 253.493 52.5115C253.293 51.8522 252.912 51.2645 252.394 50.8192C250.392 49.5146 248.999 47.5412 247.121 46.1066C246.138 45.2935 244.973 44.7437 243.733 44.5069C242.717 44.2587 241.722 43.9264 240.758 43.5133C241.042 41.1378 242.325 40.3769 244.209 41.2942C244.703 41.6134 245.232 41.8731 245.784 42.068C246.116 42.1252 246.432 42.2565 246.709 42.4523C246.987 42.6481 247.219 42.9036 247.389 43.2008C248.007 44.1056 248.832 44.8421 249.792 45.3448C250.692 45.8916 251.647 46.299 252.311 47.3128C252.729 47.956 253.775 48.2259 254.563 48.6094C255.352 48.9928 256.183 49.267 256.604 50.1915C256.784 50.5365 257.075 50.8069 257.428 50.9556C258.875 51.4973 259.832 52.6429 260.857 53.7011C262.491 55.3893 264.35 56.834 266.377 57.9918C267.681 58.6523 269.076 59.1046 270.511 59.3328C270.955 59.3614 271.386 59.5068 271.761 59.7552C273.298 61.1252 274.55 62.798 275.44 64.6722C275.774 65.3734 276.173 66.0408 276.631 66.6651C277.648 67.8728 278.602 69.2444 279.867 70.1091C281.84 71.4528 283.347 73.2348 285.076 74.8026C286.115 75.8434 287.236 76.7949 288.427 77.6472C289.614 78.5227 290.694 79.5416 291.642 80.6819C292.64 81.7918 293.915 82.6031 295.327 83.0275C295.906 83.1077 296.492 83.1191 297.073 83.0612C296.732 80.6982 295.01 79.4464 293.551 78.0624C293.045 77.5773 292.474 77.2179 292.335 76.4839L292.473 76.395L292.32 76.5415C292.074 76.494 291.851 76.3608 291.689 76.1646C291.526 75.9683 291.435 75.7211 291.431 75.4651L291.372 75.5503C292.071 75.3104 292.765 75.0681 293.269 74.8892C294.429 75.8653 295.635 76.7813 296.884 77.6341C297.999 78.326 298.133 79.8542 299.423 80.3179C300.494 81.8066 302.312 82.2967 303.551 83.5055C304.79 84.7143 305.682 86.2885 306.912 87.5199C308.082 88.5631 309.312 89.5336 310.596 90.4264C311.096 90.7241 311.546 91.1045 311.926 91.5516C312.888 93.0849 314.265 93.5282 316.021 93.5138C316.383 93.119 316.8 92.6449 317.247 92.142C318.377 92.3277 319.431 92.8514 320.275 93.6469C320.726 94.0241 321.217 94.3541 321.689 94.7032C322.019 94.9897 322.442 95.1371 322.873 95.1148C323.303 95.0926 323.708 94.9026 324.004 94.5838C323.651 91.61 323.832 91.4562 320.458 90.5487C319.852 89.8271 319.228 89.0833 318.597 88.3309L318.591 88.2983ZM142.111 168.713L142.208 168.822L142.065 168.805L141.925 168.665L142.111 168.713ZM346.73 117.466L346.962 117.536L346.707 117.5L346.587 117.331L346.73 117.466ZM421.819 462.181L421.378 462.168L421.858 462.108L422.081 462.525L422.285 462.276L421.819 462.181ZM529.768 344.186C529.595 343.542 529.374 342.913 529.104 342.304C528.998 342.16 528.862 342.042 528.707 341.956C528.552 341.871 528.381 341.821 528.206 341.81C527.679 341.82 527.795 342.32 527.903 342.656C528.021 343.079 528.245 343.464 528.554 343.772C528.864 344.079 529.246 344.299 529.663 344.407L530.188 344.599L529.768 344.186ZM116.679 147.352C117.014 147.69 117.38 147.994 117.773 148.259C119.665 149.292 121.608 150.231 123.489 151.288C126.136 152.767 129.013 153.829 131.227 156.115C132.117 156.912 133.207 157.438 134.371 157.63C135.014 157.8 135.628 158.071 136.191 158.434C138.704 159.988 141.175 161.597 143.693 163.134C144.297 163.375 144.929 163.535 145.572 163.611C145.367 163.02 145.344 162.558 145.11 162.37C144.683 161.979 144.164 161.71 143.605 161.588C142.831 161.494 142.109 161.133 141.558 160.566C140.989 160.014 140.392 159.493 139.769 159.005C138.514 158.057 137.223 157.156 135.949 156.231C134.288 156.39 133.411 155.088 132.347 154.132C132.052 153.868 131.733 153.632 131.394 153.429C127.734 151.309 123.969 149.387 120.114 147.671C119.404 147.34 118.654 147.111 117.884 146.992C117.489 146.936 117.061 147.263 116.645 147.42C116.612 147.351 116.569 147.287 116.517 147.231C116.484 147.207 116.415 147.225 116.364 147.227L116.679 147.352ZM135.37 299.151L135.232 299.236L135.37 299.089C136 299.691 136.585 300.341 137.12 301.034C137.472 301.61 137.903 302.133 138.399 302.586C141.189 305.062 143.753 307.793 146.06 310.743C146.355 311.128 146.699 311.47 147.082 311.762C148.039 312.447 149.027 313.087 150.018 313.722C150.984 314.341 151.169 314.293 152.446 313.158C152.227 312.665 152.031 312.116 151.751 311.609C151.569 311.285 151.275 310.81 151.012 310.776C149.495 310.592 148.703 309.35 147.765 308.432C145.023 305.76 142.41 302.961 139.733 300.229C139.179 299.666 138.596 299.134 137.986 298.635C137.604 298.326 137.187 298.066 136.744 297.861C136.64 297.805 136.525 297.773 136.408 297.768C136.291 297.763 136.174 297.785 136.067 297.832C135.959 297.879 135.864 297.95 135.787 298.04C135.71 298.129 135.654 298.236 135.623 298.351C135.526 298.613 135.443 298.881 135.374 299.152L135.37 299.151ZM429.775 204.618L429.637 204.693L429.694 204.587C430.821 205.364 431.943 206.145 433.079 206.917C433.521 207.12 433.936 207.381 434.313 207.694C436.02 209.726 438.353 210.801 440.518 212.138C441.31 212.524 442.036 213.042 442.664 213.67C444.433 215.907 446.985 217.063 449.147 218.741C450.517 219.705 451.965 220.545 453.476 221.251C453.652 221.304 453.837 221.32 454.019 221.297C454.2 221.274 454.375 221.214 454.533 221.119C454.633 221.054 454.718 220.967 454.781 220.865C454.845 220.763 454.886 220.648 454.901 220.527C454.916 220.407 454.904 220.284 454.868 220.168C454.832 220.052 454.771 219.945 454.69 219.856C453.819 218.543 452.677 217.439 451.346 216.624C450.075 215.885 448.869 215.034 447.741 214.081C446.624 213.146 445.107 212.85 444.231 211.512C443.793 210.966 443.192 210.58 442.522 210.414C441.312 210.009 440.257 209.219 439.514 208.16C439.037 207.529 438.47 206.973 437.833 206.513C436.19 205.445 434.471 204.502 432.799 203.479C432.292 203.178 431.815 202.825 431.377 202.426C429.348 200.572 427.348 198.684 425.322 196.823C423.867 195.487 422.414 194.145 420.898 192.885C419.693 191.88 418.49 190.699 417.096 190.124C415.487 189.461 414.303 188.298 412.939 187.36C410.674 185.796 408.475 184.129 406.282 182.46C404.806 181.338 403.34 180.186 401.956 178.953C401.374 178.282 400.584 177.835 399.72 177.689C399.092 177.638 398.816 177.054 398.402 176.636C396.339 174.561 394.631 172.064 391.81 170.879C391.457 170.706 391.129 170.485 390.833 170.222C388.823 168.646 386.833 167.041 384.807 165.483C384.258 165.108 383.686 164.771 383.094 164.474C382.635 164.931 382.553 165.344 382.872 165.836C384.007 167.573 385.42 169.104 387.051 170.363C389.876 172.455 392.544 174.759 395.034 177.258C396.846 179.233 399.036 180.806 401.465 181.878C403.353 182.701 404.92 184.148 405.914 185.985C406.323 186.766 406.927 187.424 407.663 187.891C408.421 188.317 409.103 188.872 409.679 189.532C410.992 190.87 412.235 192.372 413.766 193.373C415.366 194.415 417.07 195.284 418.682 196.362C420.643 197.674 422.424 199.212 424.368 200.525C426.24 201.786 427.982 203.246 429.778 204.62L429.775 204.618ZM320.159 95.6409C319.225 96.2345 319.169 96.9573 319.496 97.5521C320.633 99.6365 321.968 101.671 324.174 102.704C325.527 103.269 326.639 104.313 327.307 105.643C328.134 107.42 329.644 108.195 331.149 109.052C331.499 109.218 331.883 109.293 332.267 109.269C332.525 109.265 332.926 109.126 332.974 108.952C333.061 108.643 333.061 108.135 332.863 107.927C330.895 105.864 328.884 103.849 326.886 101.814C326.543 101.477 326.22 101.119 325.921 100.741C324.287 98.7304 322.341 97.0074 320.162 95.6424L320.159 95.6409ZM317.128 113.75C316.491 115.374 316.511 115.369 316.684 115.942C317.593 118.974 319.853 121.044 322.047 123.133C322.592 123.543 323.218 123.827 323.881 123.965C323.99 124.008 324.107 124.029 324.225 124.025C324.342 124.021 324.457 123.994 324.563 123.943C324.67 123.893 324.765 123.822 324.844 123.734C324.922 123.645 324.982 123.541 325.021 123.428C325.148 123.085 325.236 122.728 325.389 122.223C324.247 120.808 323.184 119.282 321.9 117.967C320.498 116.526 318.884 115.284 317.131 113.751L317.128 113.75ZM143.106 295.787C141.714 297.638 141.763 297.605 142.895 299.23C143.678 300.368 144.604 301.395 145.65 302.285C146.927 303.372 148.168 304.501 149.424 305.611C150.13 306.237 150.956 306.359 151.453 305.912C151.916 305.497 151.853 304.503 151.29 303.805C151.084 303.593 150.865 303.396 150.634 303.213C149.84 302.471 149.088 301.678 148.25 300.997C147.012 299.987 145.838 298.963 145.689 297.274C144.765 296.742 143.925 296.259 143.108 295.789L143.106 295.787ZM336.718 112.116C336.568 112.503 336.477 112.911 336.446 113.326C336.62 114.957 337.625 116.155 338.793 117.238C339.297 117.702 340.06 118.045 340.296 118.602C340.797 119.77 341.819 120.383 342.612 121.231C342.75 121.332 342.907 121.403 343.074 121.438L344.791 120.934C344.696 120.444 344.523 119.973 344.279 119.539C343.14 118.204 341.929 116.924 340.743 115.629C339.945 114.756 339.179 113.856 338.325 113.044C337.825 112.675 337.287 112.363 336.721 112.116L336.718 112.116ZM110.981 166.362L109.795 169.227C110.175 169.838 110.728 170.317 111.379 170.6C112.03 170.883 112.749 170.957 113.439 170.813C114.43 170.678 115.032 170.218 115.06 169.259C115.085 168.424 115.219 167.54 114.463 166.62C113.39 166.539 112.192 166.451 110.985 166.362L110.981 166.362ZM143.434 172.708C142.244 171.255 141.604 170.211 140.386 169.596C139.365 169.217 138.527 168.446 138.051 167.447C137.312 165.436 135.66 164.376 133.939 163.39C133.752 163.286 133.445 163.398 133.116 163.41C133.204 163.781 133.181 164.13 133.341 164.304C134.487 165.523 135.657 166.718 136.85 167.89C137.623 168.491 138.342 169.163 138.998 169.896C139.781 171.039 140.914 171.686 141.929 172.504C142.118 172.656 142.468 172.594 143.438 172.709L143.434 172.708ZM448.465 212.436C448.103 210.613 447.655 209.438 446.549 208.695C446.125 208.332 445.601 208.114 445.052 208.073C444.502 208.033 443.956 208.171 443.491 208.469C443.723 208.963 443.833 209.639 444.21 209.901C445.4 210.723 446.683 211.393 448.47 212.437L448.465 212.436ZM515.433 323.861C515.397 323.259 515.204 322.677 514.873 322.176C514.542 321.676 514.085 321.275 513.551 321.016C513.289 320.871 512.831 321.045 512.489 321.145C512.397 321.157 512.31 321.195 512.238 321.254C512.166 321.313 512.11 321.391 512.079 321.48C512.047 321.569 512.04 321.666 512.058 321.759C512.075 321.852 512.118 321.939 512.181 322.01C512.538 322.564 513.021 323.023 513.588 323.345C514.155 323.668 514.79 323.845 515.437 323.861L515.433 323.861ZM516.4 332.775C516.613 332.6 516.752 332.347 516.786 332.069C516.821 331.791 516.749 331.509 516.586 331.282C516.14 330.919 515.645 330.624 515.116 330.408C514.984 330.369 514.845 330.364 514.711 330.394C514.577 330.424 514.453 330.488 514.35 330.581C514.248 330.674 514.17 330.792 514.125 330.924C514.079 331.056 514.068 331.198 514.09 331.337C514.124 331.6 514.215 331.853 514.357 332.076C514.5 332.299 514.689 332.487 514.911 332.625C515.134 332.763 515.384 332.849 515.642 332.875C515.901 332.901 516.162 332.867 516.405 332.775L516.4 332.775ZM354.089 129.087C353.943 127.797 352.792 127.2 352.19 126.265C351.884 125.784 351.402 125.106 350.872 125.496C350.167 126.01 351.169 126.331 351.324 126.758C351.548 127.358 351.921 127.889 352.407 128.297C352.893 128.706 353.473 128.978 354.092 129.086L354.089 129.087ZM426.883 388.875C426.49 388.304 426.042 387.775 425.546 387.296C425.352 387.149 424.852 387.278 424.584 387.434C424.452 387.513 424.447 387.957 424.532 388.188C424.904 389.187 425.715 388.926 426.883 388.875ZM420.224 495.808C419.976 496.226 419.801 496.684 419.706 497.164C419.743 497.336 419.821 497.498 419.931 497.634C420.042 497.77 420.183 497.878 420.342 497.947C420.509 497.964 420.677 497.945 420.835 497.892C420.994 497.839 421.14 497.752 421.263 497.638C421.334 497.532 421.376 497.41 421.386 497.282C421.396 497.154 421.374 497.025 421.32 496.908C420.988 496.509 420.621 496.142 420.224 495.811L420.224 495.808ZM339.923 111.278C339.558 110.402 339.222 109.5 338.027 109.296C338.715 110.688 338.714 110.688 339.923 111.278ZM347.84 125.123C348.19 123.918 347.775 123.459 347.058 123.236C346.937 123.205 346.811 123.204 346.69 123.233C346.57 123.262 346.458 123.32 346.364 123.403C346.236 123.574 346.212 124.036 346.336 124.141C346.813 124.506 347.316 124.834 347.84 125.123V125.123ZM393.643 161.08C393.805 160.913 394.001 160.803 393.987 160.711C393.966 160.627 393.928 160.548 393.876 160.479C393.825 160.41 393.76 160.352 393.687 160.308C393.603 160.266 393.43 160.405 393.297 160.463L393.643 161.08ZM133.575 307.114L132.881 306.808C132.861 306.898 132.792 307.025 132.828 307.067C132.985 307.256 133.17 307.418 133.345 307.593L133.575 307.114ZM546.085 352.247C545.897 352.09 545.757 351.9 545.668 351.917C545.586 351.932 545.508 351.966 545.442 352.017C545.376 352.068 545.322 352.135 545.285 352.211C545.253 352.305 545.422 352.487 545.507 352.624L546.085 352.247ZM513.958 329.795C513.838 329.693 513.708 329.603 513.57 329.528C513.511 329.506 513.337 329.614 513.34 329.635C513.385 329.778 513.443 329.917 513.514 330.049L513.958 329.795ZM342.385 113.554L342.341 113.377L342.186 113.502L342.385 113.554ZM200.832 147.678C200.845 147.504 200.841 147.329 200.818 147.155C200.806 147.093 200.664 147.05 200.582 146.998C200.536 147.14 200.427 147.3 200.46 147.421C200.494 147.529 200.697 147.593 200.831 147.678L200.832 147.678ZM473.763 405.005L473.617 405.131L473.82 405.165L473.763 405.005Z" fill="#C7D6D3"/>
</svg>
