<svg width="1625" height="737" viewBox="0 0 1625 737" fill="none" xmlns="http://www.w3.org/2000/svg">
<path fill-rule="evenodd" clip-rule="evenodd" d="M1620.66 22.4781C1619.17 28.5515 1619.27 34.4001 1619.09 40.5605C1619.06 41.7636 1620 42.7638 1621.19 42.8C1622.39 42.8363 1623.39 41.8868 1623.43 40.6837C1623.59 34.8423 1623.46 29.2835 1624.87 23.5145C1625.16 22.3477 1624.45 21.1663 1623.28 20.8837C1622.12 20.5938 1620.95 21.3112 1620.66 22.4781Z" fill="black"/>
<path fill-rule="evenodd" clip-rule="evenodd" d="M1608 10.7081C1597.9 19.9704 1588.37 31.8853 1581.72 43.9162C1581.14 44.9671 1581.52 46.2935 1582.56 46.8733C1583.61 47.4531 1584.93 47.0762 1585.51 46.0253C1591.95 34.393 1601.16 22.8694 1610.93 13.9187C1611.81 13.107 1611.87 11.7299 1611.07 10.8457C1610.26 9.96155 1608.89 9.89636 1608 10.7081Z" fill="black"/>
<path fill-rule="evenodd" clip-rule="evenodd" d="M1605.44 0.590668C1596.2 -0.938541 1586.67 1.6705 1578.27 5.35945C1577.17 5.84503 1576.67 7.12779 1577.15 8.22215C1577.63 9.32376 1578.91 9.82387 1580.01 9.34554C1587.66 5.98273 1596.32 3.48959 1604.74 4.88109C1605.92 5.07677 1607.03 4.27233 1607.23 3.091C1607.42 1.90967 1606.62 0.786349 1605.44 0.590668Z" fill="black"/>
<path fill-rule="evenodd" clip-rule="evenodd" d="M10.1538 713.555C10.1298 707.301 8.6196 701.65 7.30197 695.63C7.04448 694.454 5.8876 693.713 4.71779 693.968C3.54727 694.223 2.8075 695.386 3.06429 696.562C4.31387 702.27 5.79179 707.63 5.81578 713.57C5.82036 714.772 6.7973 715.745 7.99378 715.738C9.19131 715.737 10.159 714.756 10.1538 713.555Z" fill="black"/>
<path fill-rule="evenodd" clip-rule="evenodd" d="M25.2793 721.906C32.8451 710.47 39.2023 696.602 42.7496 683.316C43.0586 682.156 42.3708 680.961 41.2148 680.652C40.0589 680.344 38.8679 681.03 38.559 682.19C35.1284 695.035 28.9803 708.448 21.6631 719.501C21.0024 720.503 21.276 721.854 22.2734 722.516C23.2709 723.178 24.6186 722.908 25.2793 721.906Z" fill="black"/>
<path fill-rule="evenodd" clip-rule="evenodd" d="M30.2156 731.102C39.5544 730.344 48.1675 725.503 55.4302 719.887C56.3767 719.15 56.5516 717.785 55.8219 716.839C55.0896 715.887 53.7265 715.713 52.7783 716.442C46.1647 721.56 38.3679 726.078 29.8627 726.77C28.6693 726.866 27.7804 727.917 27.8776 729.11C27.974 730.303 29.0229 731.199 30.2156 731.102Z" fill="black"/>
</svg>
