<svg width="808" height="763" viewBox="0 0 808 763" fill="none" xmlns="http://www.w3.org/2000/svg">
<path d="M416.063 115.082C416.923 115.277 417.788 115.471 418.967 115.735C418.537 114.725 418.179 113.892 417.692 112.752L420.491 113.238C421.913 114.326 421.714 116.592 423.801 116.893C424.937 116.323 423.834 115.217 424.305 114.574C424.835 113.963 425.406 113.389 426.015 112.856C426.674 113.557 427.64 114.173 427.941 114.996C428.493 116.17 429.346 117.176 430.413 117.913C432.353 119.583 434.498 121.032 436.741 122.712C437.357 122.173 437.97 121.647 438.575 121.12C439.3 121.868 440.103 122.702 440.907 123.524C441.184 123.802 441.677 124.039 441.728 124.331C442.213 127.067 444.407 127.442 446.551 127.94C447.04 128.069 447.523 128.224 447.996 128.403C450.852 131.146 450.991 134.634 452.548 137.545C452.815 138.039 452.677 138.742 452.676 139.348C452.663 140.623 452.954 141.884 453.526 143.024C454.098 144.164 454.934 145.151 455.964 145.904C458.265 147.58 460.115 149.8 461.349 152.366C461.663 153.147 462.131 153.857 462.725 154.455C463.318 155.053 464.025 155.525 464.804 155.846L465.074 157.803C467.859 158.429 470.282 160.135 471.81 162.547C472.627 163.85 473.612 165.07 474.394 166.389C476.063 169.204 478.502 171.388 480.794 173.647C484.101 176.917 487.451 180.128 490.621 183.543C492.747 185.61 494.982 187.564 497.315 189.395C499.99 191.616 502.277 194.267 504.082 197.239L504.154 197.114C502.655 197.548 501.662 196.382 500.77 195.619C498.018 193.268 495.45 190.7 492.806 188.227C491.57 187.094 490.266 186.037 488.902 185.062C486.77 183.378 484.811 181.486 483.053 179.415C479.982 176.237 476.656 173.315 473.108 170.681C472.79 170.48 472.45 170.317 472.094 170.196C471.936 170.215 471.786 170.275 471.658 170.368C471.53 170.462 471.427 170.586 471.36 170.73C471.293 170.874 471.264 171.033 471.275 171.191C471.286 171.349 471.337 171.502 471.424 171.636C472.055 172.998 472.232 174.596 473.632 175.575C473.746 175.638 473.838 175.735 473.895 175.852C474.848 178.851 477.622 180.307 479.654 182.407C482.644 185.639 485.931 188.583 489.47 191.202C489.983 191.602 490.436 192.073 490.818 192.599C493.429 195.943 497.071 197.986 500.547 200.231C501.947 201.141 503.485 201.85 504.837 202.819C505.665 203.427 506.605 203.864 507.602 204.106C508.6 204.347 509.636 204.388 510.65 204.226L510.541 204.178C510.667 204.766 510.843 205.342 511.067 205.9C511.206 206.241 511.471 206.516 511.807 206.668C512.143 206.82 512.525 206.837 512.873 206.715C513.87 206.415 513.55 205.689 513.29 205.002L513.255 204.984C513.852 205.221 514.424 205.519 514.96 205.874C517.741 208.177 520.869 210.093 523.107 212.995C524.76 215.146 527.37 216.391 528.802 218.767C528.971 219.047 529.455 219.178 529.814 219.327C530.923 219.741 531.922 220.402 532.736 221.261C533.55 222.119 534.158 223.153 534.512 224.282C537.831 224.464 538.433 227.592 540.337 229.261C540.002 230.159 539.523 229.767 539.077 229.55C538.96 229.498 538.866 229.375 538.745 229.347C534.933 228.542 532.207 226.05 529.543 223.425C528.925 222.962 528.268 222.554 527.578 222.207C526.569 221.639 525.657 220.914 524.875 220.059C523.95 219.172 522.872 218.461 521.692 217.959C520.691 217.396 519.654 216.796 518.256 217.316C518.241 217.683 518.078 218.186 518.225 218.605C518.998 220.69 520.506 222.42 522.466 223.469C525.868 225.42 528.643 228.18 531.869 230.354C533.962 231.86 535.894 233.579 537.633 235.483C537.439 235.604 537.096 235.697 537.08 235.846C537.086 236.162 537.153 236.473 537.276 236.764C537.275 236.775 537.545 236.773 537.567 236.72C537.663 236.53 537.714 236.32 537.714 236.107C537.667 235.869 537.593 235.636 537.493 235.415C538.045 235.716 538.826 235.888 539.113 236.341C540.377 238.168 542.289 239.445 544.46 239.914C546.118 240.423 547.666 241.238 549.026 242.316C550.165 243.135 551.357 243.878 552.594 244.542C552.875 244.702 553.319 244.568 553.989 244.57C553.786 243.994 553.747 243.476 553.467 243.16C551.95 241.414 550.42 239.677 548.797 238.025C548.109 237.443 547.362 236.937 546.567 236.514C544.606 235.278 542.894 233.687 541.518 231.823C541.413 231.674 541.519 231.384 541.531 231.109C543.369 231.051 544.145 233.092 545.788 233.372L545.698 233.283C546.192 233.618 546.963 234.347 547.136 234.233C547.375 234.064 547.648 233.948 547.936 233.892C548.223 233.836 548.52 233.842 548.805 233.91C549.09 233.977 549.358 234.104 549.59 234.283C549.823 234.462 550.014 234.688 550.153 234.946C551.605 237.213 553.822 238.474 555.882 239.985C556.606 240.513 557.209 241.21 557.9 241.793C558.263 242.143 558.689 242.423 559.154 242.617C561.87 243.511 564.24 245.23 565.933 247.534C566.895 248.563 568.007 249.44 569.231 250.137C569.991 250.655 569.779 251.167 569.597 251.75L569.434 251.566L569.643 251.667L571.086 253.597L571.142 253.494L567.442 251.741C566.059 253.024 565.864 253.651 566.746 254.468C567.98 255.612 569.272 256.691 570.617 257.701C571.643 258.465 572.935 258.904 573.492 260.207C573.612 260.437 573.807 260.619 574.045 260.723C576.323 261.676 578.384 263.083 580.1 264.858C582.434 265.157 583.089 267.048 583.792 268.748C585.281 268.796 584.738 267.845 584.744 267.192L584.694 267.294C586.101 268.403 587.538 269.48 588.914 270.633C589.397 270.94 589.806 271.352 590.11 271.837C590.414 272.323 590.606 272.871 590.671 273.44C590.643 273.758 590.729 274.075 590.914 274.336C591.099 274.596 591.371 274.782 591.68 274.86C592.879 275.263 593.739 276.331 595.089 276.537C595.468 276.634 595.801 276.86 596.031 277.177C596.262 277.493 596.375 277.879 596.352 278.27L596.417 278.18C595.939 277.985 595.451 277.817 594.956 277.674C593.259 277.283 592.351 278.065 591.79 279.698C593.811 281.091 595.717 282.564 597.777 283.772C600.401 285.319 602.147 287.293 602.322 290.339C602.341 290.859 602.541 291.356 602.888 291.744C603.235 292.132 603.706 292.387 604.221 292.464C604.636 292.563 605.121 292.284 605.566 292.172L605.235 290.89C605.423 290.836 605.679 290.675 605.791 290.747C606.435 291.166 607.049 291.628 607.658 292.098C608.576 292.801 609.428 293.581 610.385 294.215C611.917 295.118 613.266 296.3 614.362 297.7C615.323 298.998 616.372 300.227 617.502 301.381C618.594 302.511 620.434 302.918 621.833 303.823C622.913 304.525 623.886 305.377 624.724 306.354C626.107 308.065 627.885 309.414 629.905 310.285C628.633 312.751 629.006 313.595 631.589 314.404C631.922 314.529 632.247 314.674 632.562 314.837L632.611 314.748L632.181 315.201L632.895 315.571L632.807 315.516C633.975 316.299 635.179 317.055 636.324 317.878C637.869 318.999 638.234 320.807 639.018 322.356C639.175 322.674 638.859 323.314 638.6 323.694C638.04 324.497 637.371 325.22 636.75 325.977C635.513 325.943 634.266 325.843 633.04 325.904C632.854 325.927 632.677 325.998 632.526 326.109C632.374 326.219 632.254 326.367 632.176 326.538C632.098 326.708 632.064 326.896 632.079 327.083C632.094 327.27 632.156 327.45 632.26 327.606C632.418 327.956 632.642 328.272 632.919 328.538C634.403 329.785 635.996 330.895 637.68 331.853C639.508 332.748 640.676 333.817 640.617 335.802C642.834 337.374 645.244 338.515 646.661 340.81C649.577 342.48 651.734 345.287 654.978 346.481L654.978 346.383C654.549 346.755 653.914 347.049 653.738 347.52C653.585 348.212 653.533 348.923 653.582 349.63C654.82 350.996 655.999 352.292 657.356 353.784C656.966 354.18 656.609 354.605 656.286 355.057C656.018 355.405 655.895 355.845 655.946 356.281C655.996 356.718 656.216 357.118 656.556 357.396C657.355 358.185 658.554 358.63 658.767 359.915L658.869 359.81C656.154 358.846 653.852 356.98 652.346 354.525C650.73 352.326 648.795 350.381 646.604 348.755C645.961 348.114 645.125 347.706 644.225 347.593C642.266 347.785 641.198 346.705 639.946 345.48C637.958 343.542 635.644 342.171 632.725 342.405C631.665 342.493 631.237 343.176 631.771 344.185C632.473 345.521 633.195 346.847 633.999 348.356C634.825 348.649 635.785 349.021 636.762 349.323C639.992 350.343 641.832 352.746 643.111 355.604C643.425 356.315 643.483 357.099 644.331 357.378C645.049 357.596 645.782 357.755 646.525 357.855C646.858 357.874 647.193 357.857 647.523 357.802C647.681 358.137 647.909 358.389 647.88 358.591C647.56 361.241 649.294 362.467 651.452 363.381C652.047 363.629 652.689 363.745 653.301 363.942C653.789 364.099 654.443 364.153 654.728 364.485C656.892 367.053 660.482 366.587 662.923 368.553C663.139 368.722 664.01 368.492 664.16 368.213C664.329 367.905 664.156 367.234 663.896 366.889C663.076 365.871 661.951 365.143 660.687 364.813C659.939 364.536 659.211 364.209 658.508 363.833C659.029 362.529 659.469 361.416 659.912 360.301L659.895 360.433C662.082 362.216 663.996 364.349 666.654 365.551C667.289 365.994 667.864 366.518 668.365 367.109C669.837 368.371 671.325 369.625 672.81 370.873C673.747 371.657 675.188 372.018 675.133 373.661C675.125 373.934 675.839 374.453 676.268 374.537C677.643 374.818 679.041 374.951 680.46 375.145C680.983 375.795 681.41 376.808 682.107 377.078C683.409 377.479 684.748 377.75 686.104 377.887C686.679 378.713 687.3 379.611 687.915 380.5C686.959 380.997 685.945 381.371 684.895 381.611C682.455 381.862 681.226 383.44 680.086 385.217C679.113 386.741 678.129 388.264 677.186 389.73C677.281 390.25 677.521 390.731 677.878 391.121C678.235 391.51 678.694 391.791 679.203 391.931C681.148 392.602 683.056 393.376 684.935 394.089C685.301 395.765 683.479 396.043 683.179 397.539L684.526 401.359C682.832 402.696 681.31 404.014 678.802 402.957C678.32 402.751 677.63 403.071 677.002 403.156C676.721 404.881 677.678 406.218 678.045 407.652L678.075 407.574C677.849 408.276 677.511 408.937 677.074 409.531C675.053 411.493 675.713 413.725 677.071 415.644C678.175 417.21 679.012 418.947 679.548 420.786C679.714 421.411 680.01 421.993 680.418 422.494C680.826 422.995 681.335 423.404 681.913 423.693C683.856 424.7 685.681 425.866 687.989 426.075C690.043 426.262 691.778 427.585 693.412 428.617C694.486 431.483 692.276 433.091 691.545 435.373C690.45 434.649 689.385 433.946 688.304 433.238C687.259 433.5 686.279 434.138 685.075 433.267C684.347 432.74 683.604 433.123 683.075 433.719C682.751 434.021 682.543 434.428 682.49 434.867C682.437 435.307 682.542 435.751 682.785 436.122C683.247 436.893 683.702 437.672 684.15 438.454C684.605 439.317 685.276 440.047 686.098 440.572C686.92 441.098 687.865 441.4 688.839 441.45C689.839 441.53 690.811 441.821 691.691 442.302C692.881 442.909 694.378 442.893 695.894 443.167C696.578 444.111 697.337 445.148 698.21 446.349C699.262 446.119 700.36 446.239 701.338 446.689C702.316 447.14 703.12 447.896 703.629 448.845C704.109 449.6 704.727 450.274 705.275 450.992C707.074 453.343 707.964 453.677 711.175 453.234L712.389 449.014C714.033 448.921 715.52 448.832 717.016 448.749C717.67 447.539 717.973 446.172 717.892 444.799C718.016 443.432 718.058 442.059 718.018 440.686C717.914 439.212 717.567 437.737 717.278 435.987C717.557 435.434 717.802 434.865 718.011 434.282C718.206 433.576 718.366 432.86 718.49 432.137C719.502 431.734 720.417 431.373 721.331 431.009L721.218 430.983C722.263 432.946 723.111 434.91 722.115 437.061C722.04 437.235 722.003 437.422 722.007 437.612C722.011 437.801 722.056 437.987 722.138 438.157C723.216 439.711 722.638 440.918 721.833 442.27C721.526 443.077 721.485 443.962 721.719 444.794C722.015 446.404 722.485 447.998 722.904 449.595C722.981 450.087 723.161 450.558 723.432 450.976C724.597 452.333 724.678 454.034 725.308 455.559C725.473 456.038 725.519 456.549 725.445 457.049C725.37 457.55 725.175 458.025 724.878 458.434C723.956 458.569 722.833 458.461 722.102 458.927C721.505 459.314 721.384 460.372 721.051 461.14C720.463 461.48 720.138 460.943 719.725 460.688C718.137 459.706 717.542 459.654 716.537 461.028C716.223 461.483 715.818 461.868 715.348 462.157C714.877 462.447 714.351 462.634 713.803 462.708C711.838 463.042 709.866 463.398 707.75 463.767C707.255 464.689 707.146 466.001 705.89 466.664C705.637 466.833 705.428 467.061 705.282 467.328C705.135 467.595 705.056 467.894 705.051 468.199C705.128 468.94 705.031 469.689 704.766 470.385C704.501 471.082 704.077 471.706 703.527 472.209C703.286 472.406 703.13 472.687 703.091 472.996C703.053 473.305 703.135 473.617 703.321 473.866C703.547 474.184 703.879 474.41 704.258 474.504C704.636 474.599 705.036 474.555 705.385 474.381C706.074 474.096 706.741 473.76 707.381 473.377C707.92 473.105 708.462 472.844 709.127 472.519C710.937 474.661 710.792 476.818 710.082 478.977C709.704 480.114 709.14 481.183 708.606 482.414C706.898 483.122 706.898 483.122 705.896 485.517C708.589 488.145 711.353 490.839 714.271 493.679C714.318 494.288 714.351 495.166 714.46 496.034C714.723 498.103 715.105 498.483 717.322 498.96C717.815 499.065 718.313 499.151 718.916 499.271C719.753 500.955 720.188 503.025 723.32 502.94C722.351 503.745 722.119 504.119 721.842 504.135C719.34 504.294 716.861 504.838 714.299 504.209C713.679 504.054 713.018 504.068 712.394 503.947C709.506 503.371 707.156 504.564 704.942 505.915C704.05 506.461 703.525 507.559 702.739 508.525C700.094 508.521 697.46 508.166 694.908 507.471C692.834 506.882 690.693 506.556 688.538 506.5C686.365 506.604 684.194 506.265 682.157 505.504C681.216 505.095 680.187 504.933 679.167 505.031C676.892 505.391 675.351 507.162 673.312 508.059C672.714 508.394 672.209 508.872 671.843 509.451C671.477 510.031 671.26 510.692 671.214 511.376C671.135 511.605 671.017 511.819 670.865 512.008C668.625 513.517 665.856 513.192 663.329 513.65C662.684 513.733 662.029 513.649 661.426 513.406C660.823 513.162 660.293 512.767 659.888 512.259C658.899 511.225 657.856 510.245 656.762 509.323C654.378 507.212 651.712 506.184 648.6 506.987C648.227 507.047 647.851 507.089 647.474 507.113C647.358 507.129 647.264 507.237 646.948 507.438C646.594 508.498 646.18 509.748 645.707 511.17C643.986 510.55 642.427 509.992 641.013 509.484C639.224 509.934 639.757 511.467 639.335 512.554L638.206 512.431L638.53 512.417L638.326 512.501C637.364 512.18 637.244 511.315 636.963 510.554L636.947 510.622L636.647 509.769L636.761 509.834L635.898 510.075L635.942 510.013C634.492 510.075 633.967 508.406 632.594 508.198C631.861 508.481 630.836 508.764 630.97 509.764C631.024 510.528 631.251 511.27 631.632 511.934C632.013 512.599 632.539 513.169 633.172 513.601C633.606 513.874 634.095 514.047 634.604 514.11C637.12 514.384 639.449 515.422 641.863 516.062C643.818 516.654 645.633 517.637 647.197 518.95C647.73 519.308 648.125 519.838 648.315 520.452C648.506 521.065 648.48 521.725 648.243 522.322L648.212 522.51L648.184 522.236L648.967 522.967C648.817 523.229 648.739 523.58 648.604 523.591C646.026 523.83 644.581 525.706 642.853 527.176L642.926 527.252L641.773 526.659L641.846 526.685C640.761 525.603 640.085 526.832 639.2 527.003C638.395 526.226 637.806 525.111 636.462 525.131L635.85 524.605C635.862 524.706 635.854 524.88 635.893 524.893C636.102 524.947 636.314 524.985 636.529 525.008L636.332 526.513C635.505 526.182 634.826 525.929 634.169 525.634C633.402 525.305 632.536 525.286 631.755 525.583C631.149 525.817 630.496 525.899 629.852 525.823C629.208 525.748 628.592 525.516 628.057 525.149C627.373 524.801 626.627 524.593 625.861 524.539C625.004 525.578 624.312 526.4 623.626 527.222C623.474 527.035 623.446 526.432 623.063 527.033L623.672 527.14C623.694 527.488 623.69 527.839 623.66 528.187C623.514 529.048 623.781 529.53 624.761 529.548C624.941 529.553 625.132 529.798 625.318 529.935L625.36 529.825C624.61 529.868 623.858 529.842 623.113 529.746C622.395 529.542 621.696 529.274 621.026 528.946C619.308 530.724 619.282 530.829 617.201 530.197C615.877 529.792 614.507 530.205 613.203 529.415C612.56 529.027 611.389 530.344 611.814 531.058C612.159 531.58 612.385 532.173 612.475 532.793C612.565 533.413 612.517 534.045 612.334 534.644L610.042 535.31C609.871 534.983 609.752 534.63 609.691 534.265C609.705 532.964 609.727 531.7 608.054 531.21L606.937 532.231C606.026 531.186 605.149 530.179 604.306 529.209C603.775 529.476 603.303 529.849 602.921 530.305C602.538 530.761 602.253 531.29 602.083 531.86L602.122 531.773C601.344 532.018 600.58 532.307 599.834 532.637C599.285 532.911 599.202 532.416 598.942 532.23C597.036 530.869 595.021 531.163 593.035 531.581C592.803 531.676 592.599 531.829 592.441 532.023C592.283 532.218 592.177 532.45 592.132 532.696C592.087 532.943 592.104 533.197 592.183 533.435C592.261 533.673 592.398 533.888 592.581 534.059C594.629 535.433 595.601 537.55 596.953 539.448C598.163 540.504 600.418 539.777 601.15 542.016C600.181 542.42 599.111 542.518 598.084 542.295C597.058 542.072 596.125 541.541 595.411 540.771C593.772 542.052 596.135 544.464 594.026 545.473C593.467 544.888 593.067 544.169 592.865 543.385C592.663 542.601 592.667 541.779 592.875 540.997C592.954 540.812 592.985 540.611 592.966 540.411C592.947 540.211 592.878 540.02 592.765 539.854C592.653 539.688 592.5 539.553 592.322 539.461C592.144 539.369 591.945 539.324 591.744 539.329C591.317 540.018 590.85 540.707 590.454 541.433C590.228 541.856 589.853 542.435 589.993 542.794C591.077 545.525 589.11 547.836 589.407 550.448C589.478 551.107 588.437 551.645 588.074 551.202C587.716 550.756 587.245 550.414 586.709 550.211C586.174 550.008 585.594 549.952 585.029 550.049C584.099 549.971 583.183 549.769 582.307 549.448C581.645 552.812 581.383 555.967 582.386 559.187C582.537 559.804 582.87 560.36 583.342 560.784C585.09 562.092 586.675 563.604 588.065 565.287C588.596 565.833 589.219 566.282 589.906 566.611C592.09 567.778 592.648 569.18 591.616 571.099C591.099 572.056 590.601 573.022 589.958 574.237C589.22 574.341 588.254 574.466 587.019 574.632L586.667 576.695L603.882 584.253C603.18 585.621 602.588 586.772 601.942 588.02C603.388 588.991 604.647 589.843 605.798 590.618C605.854 591.056 605.995 591.356 605.904 591.527C605.346 592.594 604.66 593.591 604.165 594.682C603.652 595.828 604.969 596.929 604.451 598.29C604.136 599.119 604.918 600.403 605.256 601.689C604.158 602.202 602.971 602.496 601.76 602.553C600.645 602.732 599.455 602.634 598.383 602.906C596.353 603.435 594.415 603.651 592.517 602.297C588.055 601.935 584.253 599.46 580.148 597.955C579.483 597.605 578.711 597.518 577.984 597.71C577.032 598.095 576.008 598.265 574.983 598.209C573.959 598.152 572.959 597.871 572.055 597.386C571.813 597.292 571.559 597.234 571.301 597.212C569.212 596.79 568.076 597.58 568.001 599.591C568.021 600.222 568.091 600.85 568.211 601.469L568.269 601.371C567.897 601.312 567.361 601.068 567.179 601.226C566.568 601.728 565.849 602.081 565.079 602.258C564.308 602.434 563.507 602.428 562.739 602.241L559.218 607.187C559.798 608.792 560.528 610.394 559.846 612.557C559.534 612.7 559.189 612.756 558.848 612.719C558.506 612.682 558.182 612.553 557.907 612.346C557.014 611.823 556.054 611.412 555.148 610.89C553.97 610.245 552.585 610.089 551.293 610.455L550.596 612.801C549.453 612.574 548.721 612.428 548.007 612.289C547.045 612.85 546.049 615.248 546.432 616.188C546.555 616.551 546.807 616.858 547.14 617.049C549.346 617.771 549.495 619.568 549.651 621.322C549.772 622.675 549.767 624.039 549.819 625.35C550.567 625.964 551.259 626.536 551.888 627.057C551.936 627.678 551.83 628.301 551.578 628.87C551.326 629.439 550.936 629.936 550.445 630.318C549.255 630.645 548.813 629.637 548.06 629.221C546.13 628.153 544.137 627.248 543.074 625.1C542.667 624.595 542.141 624.2 541.543 623.951C540.339 623.186 539.097 622.483 537.821 621.846C536.909 621.464 535.971 621.146 535.015 620.894C533.528 621.296 534.876 623.529 532.881 622.769C532.892 623.273 532.819 623.542 532.917 623.739C533.635 625.233 534.705 626.53 536.035 627.518C538.568 629.442 541.029 631.481 542.587 634.478C544.19 637.566 547.048 639.789 549.858 641.883C550.874 642.65 551.726 643.614 552.364 644.716C553.132 645.963 553.631 647.457 554.975 648.388C555.387 648.7 555.721 649.105 555.949 649.569C556.178 650.033 556.294 650.544 556.29 651.061L556.332 650.968C555.956 650.979 555.331 650.849 555.236 651.021C554.104 653.015 552.068 654.429 551.495 657.066C552.021 658.442 552.652 660.035 554.632 660.298C556.6 660.551 557.436 659.832 558.665 657.231C559.11 657.461 559.463 657.836 559.667 658.294C559.87 658.752 559.912 659.265 559.784 659.75C559.586 660.465 559.342 661.161 559.091 661.859C558.839 662.557 558.563 663.228 558.329 663.827C557.119 664.178 556.174 664.491 555.2 664.728C554.106 664.988 553.123 665.592 552.396 666.45C552.03 666.943 551.631 667.411 551.203 667.851C549.349 669.419 547.555 670.85 544.851 671.287C541.115 671.958 537.323 672.268 533.527 672.212C529.729 672.101 525.961 672.748 522.162 672.908C520.38 672.929 518.598 672.815 516.833 672.566C513.146 672.163 509.467 671.636 505.788 671.263C502.218 670.901 498.715 670.127 495.181 669.507C490.319 668.655 485.902 666.491 481.229 665.11C478.025 664.164 474.812 663.22 471.562 662.5C467.782 661.597 464.127 660.237 460.677 658.449C457.402 656.943 453.97 655.805 450.445 655.057C450.072 654.972 449.689 654.945 449.308 654.977C446.124 655.213 446.126 655.218 443.39 654.257C443.046 654.524 442.632 654.793 442.272 655.117C441.855 655.51 441.327 655.766 440.761 655.852C440.194 655.938 439.614 655.849 439.099 655.597C437.557 654.935 435.922 654.517 434.251 654.36C433.173 654.28 432.337 654.234 431.518 655.041C431.125 655.372 430.643 655.581 430.132 655.64C429.622 655.7 429.105 655.609 428.646 655.377C427.184 654.864 425.755 654.258 424.37 653.564C421.42 651.945 418.456 650.317 416.235 647.673C415.985 647.379 415.539 647.197 415.389 646.88C414.294 644.643 412.151 643.646 410.178 642.407C408.205 641.167 406.341 639.729 404.396 638.436C401.594 636.565 398.932 634.454 395.732 633.269C393.999 631.008 391.126 630.538 388.944 628.92C386.804 627.503 384.554 626.258 382.216 625.199C378.638 623.352 374.987 621.648 371.457 619.723C368.412 618.061 365.523 616.043 362.194 615.017C360.846 614.601 360.173 613.152 358.459 613.186C357.181 613.202 355.812 612.263 354.51 611.695C353.207 611.126 351.938 610.507 350.663 609.891C349.948 609.583 349.26 609.215 348.607 608.791C345.849 606.798 342.518 605.98 339.667 604.183C339.561 604.104 339.444 604.042 339.32 604C332.284 602.208 326.739 597.47 320.563 594C316.608 591.776 312.887 589.129 309.058 586.669C307.235 586.403 306.467 584.449 304.533 584.013C302.914 583.646 301.52 582.104 299.999 581.127C298.478 580.15 296.848 579.337 295.422 578.249C294.167 577.327 292.723 576.694 291.194 576.394C288.174 575.619 285.315 574.32 282.745 572.554C279.252 570.331 275.637 568.297 272.415 565.841C271.509 566.237 270.518 566.4 269.533 566.315C268.548 566.229 267.6 565.899 266.776 565.352C262.976 562.868 258.918 560.834 255.137 558.331C254.814 558.119 254.523 557.851 254.214 557.612L254.316 557.444L254.284 557.651C250.586 555.089 246.873 552.536 243.189 549.958C240.232 547.896 237.301 545.804 234.36 543.72C234.036 542.62 232.769 543.137 232.217 542.438L232.134 542.513C232.508 542.089 232.512 541.769 231.838 541.637L231.974 541.679L231.077 541.968L231.084 541.839C226.775 538.952 222.479 536.05 218.153 533.18C212.864 529.66 207.264 526.599 202.47 522.336C201.349 521.334 199.757 520.866 198.428 520.074C197.316 519.416 196.247 518.687 195.228 517.893C193.904 516.857 192.759 515.574 191.368 514.657C187.555 512.145 184.028 509.28 180.437 506.484C177.055 503.854 173.518 501.435 170.115 498.84C167.855 497.111 165.641 495.299 163.538 493.386C162.499 492.441 161.815 491.139 160.861 490.092C160.358 489.552 159.575 488.829 158.997 488.868C157.357 488.963 156.765 487.662 155.856 486.854C154.025 485.217 154.121 484.831 156.488 483.228C157.563 483.707 158.733 484.21 159.891 484.738C161.745 485.591 163.178 486.756 163.596 488.889C163.76 489.64 164.183 490.309 164.79 490.779C167.47 492.598 170.237 494.288 172.975 496.027C173.135 496.098 173.302 496.154 173.473 496.194L176.098 495.14C176.017 494.864 176.027 494.399 175.794 494.167C172.401 490.801 168.987 487.451 165.553 484.118C163.247 481.885 161.28 479.352 158.963 477.123C157.19 475.413 155.38 473.726 153.66 471.971C153.004 471.208 152.4 470.4 151.855 469.553C152.267 469.348 152.493 469.253 152.699 469.13C153.108 468.88 153.737 468.703 153.857 468.34C154.033 467.746 154.004 467.111 153.776 466.535C153.45 465.996 153.033 465.517 152.543 465.121C150.517 463.043 148.73 460.857 148.593 457.702L146.163 457.639C143.202 454.414 140.121 451.114 137.118 447.756C136.534 447.08 136.114 446.277 135.893 445.411C135.649 444.464 135.905 443.414 135.629 442.484C135.2 441.587 134.66 440.748 134.021 439.986C134.645 440.023 135.263 440.131 135.863 440.309C136.3 440.571 136.811 440.685 137.319 440.632C137.826 440.579 138.303 440.363 138.677 440.016C139.265 439.488 139.967 439.016 140.705 439.399C142.513 440.335 143.896 439.64 145.3 438.79C145.718 438.536 146.127 438.276 146.54 438.02L146.661 438.233L146.474 438.012C147.393 436.622 146.343 435.086 146.525 433.62C146.588 433.159 145.959 432.509 145.536 432.045C144.496 430.898 143.336 429.851 142.328 428.678C141.854 428.092 141.488 427.427 141.248 426.713C140.888 425.71 141.005 425.583 142.56 424.279C144.458 425.304 146.565 426.124 148.417 424.418C150.06 422.905 151.74 421.316 150.034 417.953C151.184 418.729 152.376 419.441 153.604 420.086C155.34 420.851 156.823 419.684 156.247 417.907C155.81 416.025 154.883 414.292 153.558 412.885C152.326 411.774 150.932 410.842 149.273 409.576L148.858 407.529C149.099 407.314 149.253 407.045 149.446 407.028C151.406 406.823 153.374 406.657 155.489 406.466C155.439 405.46 155.678 404.461 156.176 403.587C156.674 402.712 157.412 401.998 158.303 401.528C158.564 401.369 158.857 401.269 159.16 401.233C159.464 401.197 159.772 401.227 160.063 401.321C161.656 402.229 163.016 401.607 164.389 401.245C164.793 400.459 165.169 399.74 165.543 399.014L165.685 399.204L165.48 399.016C162.77 394.784 159.622 390.85 156.087 387.279C154.982 386.191 153.852 385.135 152.737 384.068C152.987 383.418 153.456 383.404 153.91 383.774C154.712 384.425 155.442 385.158 156.233 385.829C157.562 386.961 158.99 387.797 160.984 387.348L162.649 385.095C163.359 385.127 164.233 384.919 164.815 385.241C165.343 385.587 165.972 385.744 166.601 385.686C167.23 385.629 167.82 385.361 168.277 384.925C168.631 384.65 169.201 384.629 169.698 384.486C170.81 385.265 171.825 386.049 172.916 386.719C173.395 387.038 173.938 387.249 174.507 387.338C175.075 387.427 175.656 387.392 176.21 387.236C176.709 387.083 177.162 386.809 177.529 386.438C177.896 386.067 178.166 385.611 178.313 385.111C177.304 383.87 176.222 382.466 174.483 382.241C173.645 382.178 172.842 381.877 172.169 381.373C171.496 380.869 170.981 380.183 170.685 379.396C170.344 378.496 169.71 377.737 168.886 377.24C168.062 376.743 167.094 376.536 166.139 376.654C165.529 375.944 164.958 375.203 164.427 374.434C163.846 373.587 163.075 372.887 162.176 372.392C160.891 371.547 159.698 370.57 158.617 369.476C155.402 366.289 152.164 363.141 148.722 360.196C147.837 359.437 146.761 358.878 145.944 358.065C145.146 357.275 143.929 356.856 143.63 355.563C143.539 355.333 143.401 355.125 143.224 354.953C143.047 354.78 142.835 354.647 142.602 354.564C139.501 353.548 137.562 350.978 135.157 349.055C131.516 346.148 128.003 343.094 124.357 340.206C123.177 339.405 121.935 338.698 120.644 338.092C119.724 337.626 118.829 337.111 117.964 336.55C117.319 336.096 116.871 335.563 115.967 336.078C115.723 336.219 114.776 335.616 114.418 335.155C113.099 333.574 111.913 331.887 110.872 330.11C109.926 328.274 108.623 326.646 107.039 325.32C105.9 324.38 104.401 323.551 104.255 321.812L104.164 321.815C104.773 321.725 105.375 321.631 106.224 321.511C106.128 318.309 106.242 315.226 103.262 312.669L104.103 310.027C103.969 309.525 103.732 309.057 103.405 308.652C103.079 308.248 102.671 307.917 102.208 307.682C101.856 307.51 101.575 307.222 101.413 306.866C101.251 306.51 101.217 306.109 101.318 305.731C101.478 305.247 101.491 304.726 101.355 304.235C101.22 303.744 100.942 303.303 100.557 302.97C99.515 301.863 98.7791 300.504 98.4217 299.026C98.678 298.504 99.0877 298.071 99.596 297.787C100.104 297.503 100.687 297.38 101.267 297.436C102.26 297.497 103.255 297.353 104.19 297.012C105.125 296.67 105.979 296.14 106.699 295.453C107.174 295.059 107.726 294.768 108.318 294.597C108.911 294.426 109.532 294.379 110.144 294.458C112.81 294.603 113.42 294.006 114.313 291.66C114.48 291.253 114.552 290.813 114.524 290.374C114.496 289.935 114.368 289.508 114.151 289.126C113.625 288.24 113.01 287.409 112.318 286.647C111.902 286.156 111.334 285.79 110.891 285.318C108.551 282.824 109.145 282.035 110.435 280.422C110.734 280.041 111.015 279.643 111.311 279.24C111.305 277.697 110.965 276.173 110.315 274.774C109.664 273.375 108.718 272.134 107.542 271.135C107.046 270.729 106.671 270.195 106.457 269.59C105.798 267.633 104.745 265.832 103.361 264.299C101.551 262.13 100.905 259.872 101.93 257.289C102.365 256.245 102.447 255.087 102.165 253.992C101.842 252.73 102.511 252.255 103.901 252.528C105.662 252.871 107.424 253.25 109.171 253.672C109.764 253.87 110.399 253.901 111.008 253.762C111.617 253.624 112.176 253.32 112.624 252.886C113.395 252.191 114.633 251.999 115.652 251.549C117.701 250.644 118.43 249.177 117.661 247.029C116.971 245.106 116.034 243.267 115.251 241.373C114.878 240.579 114.606 239.741 114.441 238.88C114.313 236.98 113.81 235.125 112.96 233.421C112.557 232.643 112.46 231.742 112.69 230.897C113.434 228.566 113.427 225.996 114.698 223.834C115.11 223.208 115.379 222.499 115.488 221.757C115.596 221.015 115.541 220.259 115.326 219.541C115.156 218.996 115.472 218.334 115.56 217.75C117.544 215.976 119.969 216.11 122.389 216.685C123.622 216.973 124.841 217.254 126.086 217.494C127.341 217.836 128.531 218.379 129.61 219.103C131.043 219.89 132.674 220.24 134.302 220.111C133.259 216.792 133.06 213.281 129.486 211.414L129.237 209.023C130.085 208.777 130.774 208.538 131.488 208.383C133.045 208.035 134.676 208.042 136.005 206.931C137.203 205.927 138.698 206.062 140.327 206.533C145.412 207.985 150.302 210.098 155.456 211.322C156.755 211.632 157.926 212.677 159.137 213.41C160.402 214.18 161.384 213.723 161.379 212.253C161.333 211.419 161.233 210.589 161.08 209.768C157.868 207.274 153.489 207.48 150.566 204.296L152.839 201.361C152.458 200.95 152.033 200.581 151.574 200.261C148.929 198.87 146.262 197.54 143.608 196.156C143.009 195.788 142.321 195.591 141.618 195.587C140.915 195.584 140.225 195.773 139.622 196.134C138.874 196.567 138.052 196.857 137.199 196.991C136.896 197.02 136.604 197.115 136.342 197.27C136.08 197.424 135.856 197.634 135.684 197.885C134.941 198.954 133.919 198.582 132.959 198.152C132.588 198.027 132.281 197.76 132.104 197.41C131.928 197.06 131.896 196.654 132.017 196.281C132.439 195.023 133.028 193.831 133.606 192.471C135.712 192.403 137.345 190.846 139.632 191.061C140.004 191.055 140.369 190.967 140.703 190.804C141.037 190.64 141.33 190.405 141.562 190.115C142.905 188.291 144.788 188.016 146.922 188.206C147.041 188.218 147.165 188.142 147.527 188.037C147.959 186.366 149.88 186 151.22 184.84C151.199 184.364 151.193 183.879 151.16 183.393C150.933 179.936 150.933 179.935 148.119 177.965C148.711 177.09 149.548 177.576 150.152 177.884C152.002 178.824 153.869 179.714 155.722 180.631C159.314 182.416 162.716 184.597 166.224 186.565C170.196 188.788 174.188 190.972 178.201 193.119C178.566 193.319 179.315 193.316 179.539 193.084C179.662 192.884 179.737 192.659 179.758 192.426C179.779 192.192 179.745 191.957 179.66 191.739C179.231 190.687 178.652 189.684 178.114 188.678C177.762 188.007 177.377 187.357 177.007 186.703C177.257 186.305 177.455 186.008 177.641 185.701C178.004 185.094 178.639 184.501 178.652 183.869C178.619 183.349 178.447 182.848 178.154 182.418C177.861 181.987 177.458 181.643 176.987 181.422C175.734 180.736 174.403 180.203 173.1 179.609C172.014 179.185 170.952 178.703 169.918 178.166C168.018 177.039 166.295 175.553 164.312 174.662C162.344 173.779 160.136 173.496 158.053 172.859C156.958 172.524 155.782 172.218 155.113 171.086C155.007 170.468 155.138 169.833 155.481 169.307C155.823 168.781 156.351 168.404 156.959 168.251C157.455 168.123 157.975 168.123 158.472 168.251C158.968 168.378 159.424 168.63 159.797 168.981C161.089 169.863 162.469 170.609 163.914 171.209C166.048 172.136 168.254 172.871 169.993 174.581C170.631 175.02 171.325 175.37 172.058 175.621C172.776 175.875 173.435 176.273 173.995 176.79C175.281 178.556 177.247 178.876 179.058 179.476C179.722 179.703 180.436 179.738 181.119 179.578C181.802 179.417 182.425 179.066 182.917 178.566C183.813 177.558 184.595 176.453 185.248 175.273C186.038 174.042 185.743 172.662 185.302 171.365C185.803 170.692 186.474 170.164 187.246 169.836C188.018 169.508 188.864 169.392 189.696 169.499C191.752 169.763 193.746 169.919 195.232 171.806C196.03 172.65 196.94 173.379 197.937 173.975C200.017 175.306 201.745 177.12 202.972 179.264C203.277 179.828 203.668 180.341 204.133 180.784C207.368 183.952 210.791 186.92 214.296 189.795C216.198 191.355 218.185 192.832 219.964 194.521C224.119 198.461 228.88 201.644 233.325 205.23C235.626 207.139 238.266 208.599 241.106 209.534C241.809 209.676 242.523 209.749 243.24 209.752C242.688 206.78 241.968 204.215 239.121 202.692C237.371 201.757 235.707 200.715 235.457 198.523L235.408 198.603C236.382 199.173 237.379 199.713 238.337 200.326C240.196 201.507 241.984 202.797 243.879 203.911C246.901 205.683 250.064 207.207 253.005 209.094C255.441 210.547 258.061 211.666 260.795 212.421C262.786 212.977 264.703 213.769 266.505 214.781C267.755 215.527 267.777 215.491 270.081 215.36C270.571 214.538 270.067 213.945 269.473 213.408C265.982 210.306 262.164 207.593 258.086 205.316C256.186 204.235 254.443 202.795 252.175 202.404C251.452 202.131 250.808 201.683 250.3 201.101C248.462 199.45 246.458 197.994 244.322 196.754C241.243 195.072 238.442 192.927 236.016 190.393C236.274 189.656 236.833 190.007 237.23 190.215C240.104 191.718 242.973 193.24 245.826 194.796C246.613 195.257 247.373 195.762 248.104 196.308C250.759 198.187 253.379 200.115 256.794 200.264C257.649 200.458 258.491 200.699 259.319 200.987C259.892 201.009 260.466 200.948 261.022 200.805C261.6 199.825 260.885 199.271 260.273 198.877C258.549 197.722 256.761 196.664 254.918 195.71C253.177 194.832 251.562 193.725 250.114 192.419C249.043 191.478 247.775 190.761 246.668 189.865C246.158 189.316 245.707 188.713 245.324 188.069C247.35 188.116 248.555 189.209 249.912 189.707C251.343 190.226 252.683 191.032 254.16 190.622C254.639 189.918 254.151 189.517 253.788 189.242C252.973 188.61 252.077 188.071 251.205 187.498C249.284 186.396 247.505 185.064 245.908 183.53C245.052 182.736 244.1 182.053 243.073 181.497C240.874 180.109 238.579 178.863 236.447 177.377C232.608 174.69 228.46 172.511 224.519 169.996C223.646 169.435 222.6 169.085 222.171 168.051C221.99 167.619 221.791 166.944 221.993 166.678C222.367 166.211 222.907 165.906 223.5 165.827C224.149 165.805 224.789 165.987 225.329 166.347C229.009 168.874 233.315 169.977 237.24 171.945C238.699 172.771 240.275 173.37 241.914 173.723C243.171 174.036 244.375 174.535 245.485 175.204C247.219 176.109 248.943 177.034 250.572 178.102C252.137 179.071 254.017 179.397 255.817 179.011L256.431 176.659C256.272 176.371 256.073 176.108 255.839 175.876C250.234 172.309 244.625 168.749 239.013 165.196C238.462 164.852 237.932 164.474 237.428 164.064C235.938 162.8 235.903 162.343 237.182 159.995C241.453 161.936 245.731 164.117 250.839 163.814C250.741 163.375 250.587 162.951 250.381 162.551C248.45 159.841 245.532 158.282 242.945 156.331C241.497 155.24 240.093 154.089 238.675 152.966L238.625 153.046C240.443 152.796 241.671 154.199 243.12 154.905C246.377 156.482 249.573 158.139 253.169 158.794C254.421 159.049 255.622 159.507 256.725 160.152C258.961 161.419 261.139 162.144 263.603 161.162C264.651 160.847 265.726 160.633 266.813 160.521C268.353 158.396 267.579 156.373 266.087 154.665C264.542 152.947 263.223 151.038 262.163 148.984C261.6 147.966 260.867 147.053 259.994 146.284C259.251 145.686 258.719 144.866 258.476 143.945C258.233 143.023 258.292 142.048 258.644 141.162C259.057 140.01 259.509 138.874 259.999 137.754C260.529 136.527 261.115 135.327 261.751 133.965C261.178 133.259 260.544 132.605 259.855 132.011C259.208 131.602 258.688 131.02 258.355 130.33C258.022 129.641 257.889 128.872 257.971 128.111L257.868 128.129C258.883 128.141 259.894 128.147 261.106 128.16C261.565 127.321 262.191 126.586 262.947 126C263.702 125.413 264.57 124.989 265.497 124.753C266.362 124.572 266.971 123.53 267.752 122.947C268.353 122.383 269.111 122.013 269.926 121.888C270.74 121.762 271.575 121.885 272.318 122.242C273.394 122.649 274.533 122.866 275.684 122.882C275.997 122.925 276.316 122.884 276.608 122.764C276.9 122.644 277.155 122.449 277.347 122.198C277.539 121.947 277.662 121.65 277.702 121.337C277.741 121.024 277.697 120.705 277.574 120.414C277.149 119.488 276.556 118.649 275.824 117.94C274.634 116.738 273.372 115.609 272.045 114.56C270.659 113.405 269.586 111.918 268.928 110.238C268.254 108.72 267.822 107.346 268.973 106.061C269.877 105.056 268.849 103.877 269.278 102.686C271.011 102.554 272.748 102.881 274.315 103.635C276.211 104.544 278.163 105.167 280.457 104.405C280.775 103.292 281.132 102.03 281.472 100.831C281.003 98.4527 278.476 98.0993 276.815 96.0774C278.394 96.5895 279.449 96.9296 280.629 97.3144C280.819 97.319 281.009 97.2898 281.189 97.228C283.701 95.9062 283.92 95.3646 282.978 92.9037C282.793 92.4261 282.611 91.9505 282.381 91.4904C282.034 90.8005 281.641 90.1304 281.238 89.4076C281.454 88.9073 281.806 88.4778 282.254 88.1684C282.702 87.8591 283.229 87.6827 283.773 87.6589C284.766 87.6811 285.748 87.46 286.635 87.015C287.091 86.5931 287.679 86.3438 288.299 86.3106C288.919 86.2774 289.532 86.4624 290.03 86.8332C290.477 87.1019 291.247 86.7975 291.872 86.8015C292.676 86.7318 293.485 86.8264 294.251 87.0794C295.018 87.3323 295.724 87.7384 296.328 88.2731C298.125 89.8812 300.447 90.9149 302.545 92.1994L302.484 92.5008L302.482 92.1665C303.866 93.6912 305.495 94.9738 307.302 95.9612C309.199 96.905 310.815 98.4097 312.637 99.5414C313.863 100.491 315.379 100.988 316.93 100.948C318.417 100.828 319.783 102.163 320.855 103.175C321.464 103.791 322.128 104.352 322.837 104.85C324.009 105.428 324.94 106.399 325.468 107.595C325.632 107.943 325.879 108.245 326.188 108.475C328.908 110.848 331.602 113.251 334.38 115.547C335.146 116.011 335.771 116.676 336.184 117.47C336.357 117.821 336.626 118.115 336.961 118.317C342.04 121.667 346.288 126.1 351.432 129.357C352.132 129.707 352.78 130.154 353.356 130.686C354.493 131.948 356 132.817 357.661 133.17C359.43 133.628 360.966 134.727 361.971 136.253C362.888 137.489 364.098 138.478 365.492 139.132C367.853 140.493 370.112 142.027 372.248 143.72C372.871 144.249 373.6 144.639 374.387 144.863C375.173 145.086 375.998 145.139 376.806 145.017C377.289 144.192 376.812 143.661 376.362 143.249C374.445 141.497 372.537 139.711 370.511 138.086C368.807 136.71 367.369 135.052 365.387 133.953C364.391 133.362 363.65 132.422 363.306 131.316C362.923 129.947 362.045 128.769 360.842 128.011C360.012 127.392 359.231 126.71 358.506 125.971C358.078 125.513 357.797 124.938 357.699 124.318C357.695 124.059 357.639 123.804 357.535 123.567C357.431 123.329 357.281 123.115 357.094 122.936C356.906 122.758 356.684 122.618 356.442 122.526C356.2 122.434 355.942 122.391 355.683 122.4C353.418 122.38 352.308 120.69 350.879 119.43C350.948 116.63 347.736 115.905 346.894 113.663C346.704 113.322 346.414 113.048 346.063 112.877C340.945 109.988 336.646 105.968 331.84 102.655C331.294 102.317 330.853 101.833 330.568 101.258C329.04 97.087 325.517 94.8777 321.975 92.6738C321.514 92.4694 321.107 92.1609 320.785 91.7725C319.759 89.8779 318.028 88.7188 316.369 87.4518C313.894 85.5616 311.378 83.7126 309.001 81.7028C307.504 80.2529 305.668 79.2007 303.66 78.6419C303.227 78.5421 302.866 78.0127 302.284 77.5233C302.747 76.9328 303.211 76.4188 303.596 75.8575C304.551 74.4562 305.532 73.129 305.108 71.1406C304.797 69.7025 305.759 69.1415 307.154 69.66C312.314 71.5854 313.001 71.9542 317.827 75.6114C320.699 77.796 323.565 80.0105 326.314 82.3225C327.881 83.6398 329.361 85.102 330.996 86.3812C331.452 86.8326 331.863 87.328 332.221 87.8602C332.603 88.5267 333.112 89.1121 333.718 89.5831C336.283 90.8134 337.862 93.049 339.771 94.9583C340.503 95.6855 341.305 96.34 342.164 96.9125C344.23 98.2628 346.12 99.8659 347.79 101.685C348.883 102.787 350.044 103.82 351.265 104.778C351.661 105.114 352.273 105.302 352.493 105.703C354.437 109.234 358.369 110.644 360.972 113.486C362.254 114.88 364.074 115.8 365.605 116.995C368.54 119.114 371.365 121.382 374.069 123.788C377.444 127.02 381.268 129.67 384.808 132.679C385.51 133.249 386.25 133.771 387.022 134.241C390.594 136.361 393.933 138.852 396.981 141.673C397.742 142.371 398.636 142.908 399.61 143.252C400.584 143.597 401.617 143.741 402.647 143.677C402.945 143.647 403.233 143.553 403.491 143.403C403.75 143.252 403.974 143.048 404.147 142.805C404.518 142.096 404.806 141.347 405.006 140.572C398.637 134.741 392.416 129.048 386.198 123.355C385.448 122.631 384.661 121.947 383.84 121.304C381.347 119.422 378.971 117.389 376.727 115.216C374.47 113.072 371.899 111.251 369.483 109.275C368.777 108.705 368.102 108.097 367.461 107.456C363.258 103.026 358.766 98.8805 354.014 95.0464C351.959 93.4632 350.178 91.5328 348.183 89.8561C345.799 87.8595 343.333 85.9435 340.889 84.0214C338.341 82.0202 335.78 80.0377 333.206 78.0738C331.667 76.9035 330.081 75.7948 328.527 74.6646C330.173 71.9159 330.353 71.0801 329.44 68.7379C329.176 67.879 328.67 67.1145 327.983 66.5364C325.319 64.845 323.472 62.2784 320.974 60.4168C319.667 59.3614 318.117 58.6502 316.465 58.3476C315.111 58.029 313.786 57.6008 312.503 57.0669C312.893 53.9673 314.608 52.9684 317.115 54.1553C317.773 54.5691 318.477 54.905 319.212 55.1565C319.654 55.2295 320.075 55.3991 320.444 55.653C320.812 55.907 321.121 56.2391 321.347 56.6258C322.166 57.8027 323.263 58.759 324.54 59.4098C325.737 60.1184 327.008 60.6449 327.889 61.9638C328.443 62.8005 329.837 63.1473 330.886 63.6434C331.935 64.1395 333.043 64.4928 333.6 65.6965C333.837 66.1454 334.224 66.4967 334.694 66.6889C336.621 67.388 337.891 68.8772 339.253 70.2522C341.424 72.4457 343.895 74.3204 346.592 75.8202C348.328 76.675 350.185 77.2578 352.098 77.5482C352.69 77.5833 353.263 77.7708 353.761 78.0928C355.805 79.8718 357.466 82.0472 358.643 84.4869C359.086 85.3998 359.614 86.2681 360.222 87.0801C361.572 88.65 362.837 90.4341 364.52 91.5554C367.143 93.2978 369.144 95.6144 371.442 97.6503C372.822 99.0024 374.312 100.238 375.897 101.343C377.475 102.479 378.909 103.803 380.168 105.285C381.494 106.727 383.189 107.779 385.07 108.325C385.842 108.427 386.623 108.439 387.398 108.361C386.955 105.28 384.665 103.656 382.727 101.859C382.054 101.229 381.295 100.763 381.113 99.8064L381.297 99.6898L381.093 99.8816C380.765 99.8208 380.468 99.6483 380.252 99.3932C380.037 99.138 379.917 98.816 379.912 98.4823L379.833 98.5936C380.767 98.2773 381.693 97.9577 382.366 97.7219C383.907 98.989 385.511 100.178 387.172 101.283C388.655 102.18 388.827 104.173 390.545 104.771C391.966 106.707 394.388 107.337 396.034 108.907C397.679 110.478 398.861 112.526 400.495 114.126C402.05 115.48 403.686 116.74 405.393 117.898C406.059 118.284 406.657 118.777 407.161 119.359C408.435 121.354 410.27 121.925 412.612 121.897C413.096 121.38 413.654 120.76 414.253 120.102C415.759 120.338 417.161 121.016 418.283 122.049C418.883 122.539 419.535 122.967 420.163 123.42C420.601 123.792 421.166 123.982 421.74 123.95C422.314 123.919 422.854 123.67 423.25 123.252C422.794 119.376 423.036 119.174 418.543 118.008C417.739 117.069 416.909 116.103 416.071 115.124L416.063 115.082ZM180.35 220.851L180.48 220.991L180.289 220.97L180.103 220.788L180.35 220.851ZM453.44 152.98L453.749 153.07L453.41 153.024L453.25 152.805L453.44 152.98ZM551.863 602.177L551.274 602.162L551.915 602.081L552.211 602.624L552.483 602.297L551.863 602.177ZM696.383 447.742C696.156 446.904 695.863 446.084 695.507 445.291C695.366 445.105 695.186 444.951 694.98 444.84C694.773 444.73 694.545 444.665 694.312 444.652C693.61 444.667 693.762 445.318 693.904 445.756C694.059 446.308 694.356 446.809 694.767 447.209C695.177 447.608 695.687 447.892 696.242 448.032L696.941 448.279L696.383 447.742ZM146.545 193.12C146.99 193.559 147.477 193.953 147.999 194.296C150.517 195.634 153.103 196.85 155.605 198.218C159.128 200.133 162.959 201.504 165.901 204.475C167.083 205.51 168.533 206.19 170.085 206.435C170.942 206.653 171.759 207.004 172.508 207.474C175.851 209.488 179.138 211.574 182.488 213.565C183.292 213.877 184.133 214.083 184.991 214.178C184.72 213.409 184.691 212.806 184.38 212.562C183.813 212.055 183.122 211.706 182.378 211.55C181.346 211.431 180.385 210.965 179.654 210.228C178.898 209.51 178.104 208.833 177.276 208.2C175.607 206.971 173.89 205.802 172.196 204.602C169.98 204.817 168.817 203.124 167.404 201.883C167.011 201.54 166.586 201.234 166.136 200.971C161.266 198.224 156.255 195.737 151.123 193.519C150.179 193.09 149.179 192.795 148.153 192.644C147.628 192.573 147.055 193.002 146.499 193.209C146.456 193.118 146.398 193.035 146.329 192.962C146.286 192.931 146.194 192.956 146.126 192.957L146.545 193.12ZM170.719 391L170.534 391.112L170.719 390.92C171.556 391.702 172.333 392.547 173.042 393.447C173.51 394.197 174.081 394.876 174.74 395.465C178.448 398.681 181.854 402.229 184.915 406.065C185.306 406.565 185.763 407.01 186.273 407.388C187.546 408.277 188.859 409.107 190.178 409.93C191.463 410.733 191.71 410.669 193.419 409.183C193.129 408.54 192.87 407.825 192.5 407.165C192.259 406.745 191.868 406.126 191.518 406.083C189.496 405.85 188.446 404.235 187.201 403.042C183.557 399.571 180.086 395.934 176.531 392.385C175.795 391.653 175.02 390.962 174.209 390.314C173.702 389.913 173.147 389.576 172.556 389.311C172.418 389.239 172.265 389.198 172.109 389.192C171.953 389.186 171.798 389.215 171.654 389.277C171.511 389.338 171.383 389.432 171.28 389.549C171.177 389.667 171.102 389.805 171.059 389.956C170.929 390.298 170.817 390.648 170.724 391.002L170.719 391ZM563.742 266.224L563.557 266.322L563.635 266.184C565.133 267.192 566.626 268.205 568.135 269.206C568.724 269.469 569.276 269.807 569.778 270.212C572.043 272.855 575.149 274.245 578.029 275.977C579.084 276.477 580.049 277.149 580.883 277.965C583.231 280.872 586.627 282.368 589.503 284.546C591.324 285.795 593.252 286.883 595.263 287.797C595.497 287.865 595.743 287.885 595.986 287.854C596.228 287.824 596.462 287.744 596.672 287.619C596.806 287.534 596.919 287.421 597.005 287.287C597.09 287.153 597.145 287.003 597.166 286.845C597.186 286.688 597.172 286.528 597.124 286.377C597.076 286.226 596.995 286.088 596.888 285.971C595.733 284.263 594.216 282.83 592.445 281.774C590.754 280.815 589.15 279.712 587.65 278.475C586.166 277.261 584.145 276.883 582.984 275.142C582.401 274.432 581.603 273.932 580.709 273.719C579.098 273.197 577.696 272.171 576.71 270.794C576.077 269.973 575.324 269.252 574.477 268.654C572.291 267.27 570.005 266.049 567.78 264.724C567.105 264.333 566.471 263.875 565.889 263.357C563.192 260.949 560.534 258.497 557.843 256.08C555.909 254.345 553.978 252.602 551.963 250.966C550.362 249.661 548.763 248.128 546.908 247.384C544.765 246.529 543.193 245.018 541.378 243.802C538.365 241.773 535.442 239.61 532.526 237.444C530.563 235.988 528.615 234.493 526.775 232.892C526.002 232.02 524.951 231.442 523.8 231.255C522.963 231.191 522.598 230.432 522.048 229.888C519.307 227.193 517.042 223.945 513.286 222.414C512.817 222.189 512.38 221.903 511.987 221.562C509.314 219.516 506.668 217.433 503.975 215.411C503.245 214.925 502.484 214.488 501.696 214.104C501.082 214.702 500.97 215.242 501.393 215.881C502.898 218.141 504.774 220.13 506.943 221.764C510.699 224.478 514.246 227.47 517.554 230.716C519.959 233.284 522.872 235.324 526.106 236.709C528.62 237.774 530.702 239.653 532.017 242.044C532.559 243.06 533.361 243.915 534.34 244.52C535.349 245.072 536.255 245.792 537.02 246.651C538.765 248.388 540.414 250.342 542.451 251.64C544.579 252.99 546.846 254.115 548.991 255.513C551.6 257.214 553.966 259.21 556.553 260.913C559.043 262.548 561.357 264.444 563.746 266.226L563.742 266.224ZM418.118 124.65C416.871 125.429 416.791 126.372 417.225 127.146C418.731 129.859 420.501 132.506 423.437 133.842C425.239 134.572 426.717 135.928 427.6 137.659C428.694 139.972 430.704 140.975 432.707 142.085C433.172 142.3 433.684 142.396 434.196 142.363C434.54 142.356 435.076 142.173 435.14 141.946C435.257 141.543 435.26 140.88 434.998 140.609C432.384 137.929 429.711 135.311 427.058 132.667C426.602 132.23 426.174 131.764 425.776 131.273C423.608 128.659 421.021 126.421 418.122 124.652L418.118 124.65ZM413.987 148.283C413.131 150.405 413.157 150.397 413.385 151.145C414.582 155.095 417.586 157.782 420.5 160.496C421.226 161.028 422.059 161.395 422.941 161.572C423.087 161.628 423.243 161.654 423.399 161.648C423.556 161.643 423.71 161.606 423.852 161.54C423.994 161.474 424.121 161.381 424.226 161.265C424.332 161.149 424.412 161.013 424.464 160.866C424.635 160.418 424.755 159.951 424.96 159.292C423.446 157.453 422.036 155.468 420.33 153.76C418.467 151.887 416.321 150.275 413.992 148.285L413.987 148.283ZM181.05 386.575C179.184 388.995 179.25 388.953 180.752 391.066C181.79 392.546 183.02 393.881 184.41 395.036C186.108 396.447 187.757 397.913 189.426 399.355C190.365 400.167 191.465 400.322 192.13 399.737C192.749 399.193 192.67 397.897 191.923 396.989C191.649 396.715 191.358 396.458 191.052 396.221C189.996 395.258 188.998 394.227 187.884 393.344C186.237 392.032 184.677 390.703 184.487 388.5C183.258 387.811 182.139 387.186 181.053 386.576L181.05 386.575ZM440.116 146.054C439.915 146.559 439.791 147.091 439.748 147.633C439.972 149.759 441.306 151.316 442.859 152.723C443.528 153.325 444.544 153.769 444.855 154.495C445.518 156.015 446.878 156.809 447.931 157.912C448.115 158.043 448.324 158.134 448.545 158.179L450.837 157.513C450.713 156.874 450.485 156.261 450.162 155.696C448.65 153.961 447.041 152.298 445.466 150.615C444.407 149.48 443.389 148.311 442.255 147.255C441.591 146.776 440.875 146.373 440.121 146.054L440.116 146.054ZM138.853 217.941L137.258 221.684C137.762 222.478 138.497 223.1 139.364 223.466C140.23 223.832 141.188 223.925 142.109 223.733C143.431 223.552 144.236 222.949 144.278 221.699C144.316 220.61 144.498 219.456 143.495 218.26C142.065 218.16 140.468 218.052 138.859 217.941L138.853 217.941ZM182.095 226.054C180.516 224.164 179.667 222.806 178.045 222.011C176.686 221.521 175.572 220.519 174.943 219.219C173.967 216.601 171.77 215.226 169.481 213.949C169.231 213.815 168.821 213.962 168.383 213.979C168.498 214.462 168.465 214.918 168.678 215.145C170.2 216.728 171.754 218.281 173.34 219.803C174.368 220.583 175.323 221.455 176.193 222.408C177.232 223.895 178.739 224.733 180.089 225.795C180.34 225.993 180.807 225.909 182.1 226.054L182.095 226.054ZM588.625 276.326C588.15 273.949 587.56 272.42 586.088 271.456C585.525 270.985 584.827 270.704 584.095 270.653C583.362 270.603 582.633 270.786 582.011 271.177C582.318 271.82 582.462 272.701 582.963 273.04C584.545 274.107 586.254 274.974 588.63 276.327L588.625 276.326ZM677.368 421.307C677.325 420.523 677.069 419.764 676.63 419.113C676.191 418.462 675.585 417.941 674.874 417.606C674.525 417.419 673.913 417.647 673.457 417.78C673.334 417.796 673.218 417.846 673.122 417.923C673.025 418.001 672.951 418.103 672.908 418.219C672.865 418.336 672.855 418.461 672.879 418.583C672.902 418.705 672.959 418.818 673.042 418.91C673.515 419.631 674.157 420.226 674.911 420.644C675.666 421.062 676.511 421.289 677.374 421.307L677.368 421.307ZM678.615 432.928C678.9 432.699 679.086 432.368 679.133 432.005C679.18 431.643 679.086 431.275 678.869 430.981C678.277 430.508 677.619 430.127 676.914 429.848C676.739 429.797 676.553 429.791 676.374 429.831C676.195 429.871 676.029 429.956 675.892 430.077C675.755 430.198 675.651 430.353 675.59 430.525C675.528 430.698 675.512 430.883 675.542 431.064C675.585 431.407 675.706 431.736 675.894 432.027C676.083 432.317 676.334 432.561 676.63 432.74C676.926 432.919 677.259 433.029 677.604 433.062C677.948 433.095 678.296 433.049 678.621 432.929L678.615 432.928ZM463.196 168.099C463.007 166.418 461.476 165.645 460.678 164.429C460.272 163.803 459.632 162.921 458.923 163.432C457.981 164.106 459.316 164.519 459.52 165.076C459.816 165.857 460.311 166.548 460.957 167.078C461.602 167.608 462.375 167.96 463.199 168.098L463.196 168.099ZM558.976 506.546C558.456 505.803 557.861 505.115 557.202 504.493C556.944 504.302 556.277 504.473 555.918 504.678C555.742 504.782 555.733 505.36 555.845 505.661C556.336 506.963 557.418 506.618 558.976 506.546ZM549.57 646.041C549.237 646.587 549.001 647.185 548.872 647.811C548.921 648.036 549.024 648.246 549.171 648.424C549.317 648.601 549.505 648.74 549.717 648.83C549.939 648.851 550.163 648.826 550.375 648.756C550.586 648.685 550.781 648.572 550.947 648.422C551.041 648.284 551.098 648.124 551.112 647.957C551.126 647.79 551.097 647.622 551.026 647.47C550.585 646.951 550.098 646.474 549.569 646.044L549.57 646.041ZM444.394 144.944C443.912 143.804 443.468 142.629 441.876 142.369C442.786 144.181 442.786 144.181 444.394 144.944ZM454.882 162.96C455.356 161.388 454.804 160.791 453.849 160.503C453.688 160.464 453.52 160.463 453.359 160.502C453.198 160.54 453.048 160.617 452.923 160.725C452.752 160.948 452.717 161.551 452.882 161.688C453.516 162.162 454.185 162.587 454.882 162.96V162.96ZM515.778 209.625C515.996 209.406 516.257 209.262 516.239 209.142C516.211 209.032 516.161 208.929 516.093 208.839C516.024 208.749 515.939 208.674 515.84 208.618C515.729 208.564 515.498 208.745 515.32 208.822L515.778 209.625ZM168.286 401.395L167.362 401C167.334 401.117 167.242 401.282 167.29 401.337C167.498 401.583 167.745 401.794 167.976 402.021L168.286 401.395ZM718.1 458.173C717.85 457.969 717.664 457.723 717.545 457.746C717.436 457.765 717.332 457.81 717.244 457.877C717.155 457.944 717.083 458.031 717.034 458.13C716.991 458.253 717.215 458.49 717.327 458.668L718.1 458.173ZM675.373 429.055C675.213 428.921 675.041 428.805 674.857 428.707C674.779 428.679 674.546 428.821 674.549 428.849C674.608 429.035 674.685 429.215 674.779 429.387L675.373 429.055ZM447.667 147.901L447.609 147.67L447.401 147.834L447.667 147.901ZM258.752 193.12C258.771 192.893 258.766 192.664 258.737 192.438C258.72 192.357 258.532 192.301 258.422 192.234C258.36 192.42 258.215 192.628 258.258 192.787C258.302 192.927 258.573 193.01 258.751 193.12L258.752 193.12ZM621.407 527.345L621.211 527.511L621.481 527.554L621.407 527.345Z" fill="#C7D6D3"/>
</svg>
