<svg width="959" height="1135" viewBox="0 0 959 1135" fill="none" xmlns="http://www.w3.org/2000/svg">
<path d="M180.565 815.722C184.048 824.576 188.556 832.683 195.107 839.5C200.872 845.501 207.776 850.143 214.973 854.144C223.739 859.016 232.905 863.097 241.764 867.784C242.629 868.241 243.809 867.691 244.532 867.146C244.92 866.853 246.134 865.619 245.267 865.16C230.165 857.17 213.454 850.985 200.783 839.031C194.244 832.716 189.094 825.036 185.668 816.492C184.383 813.416 183.234 810.278 182.011 807.175C180.784 808.292 179.672 809.536 178.693 810.888C179.316 812.5 179.933 814.115 180.565 815.722Z" fill="#554140"/>
<path d="M174.418 800.841C175.893 803.745 177.131 806.763 178.318 809.803C179.324 808.498 180.458 807.302 181.702 806.235C181.039 804.562 180.345 802.903 179.597 801.267C177.347 796.375 174.481 791.812 171.074 787.695C168.495 784.578 165.72 781.637 162.768 778.892L158.812 781.084C161.014 783.128 163.137 785.26 165.141 787.513C168.78 791.523 171.897 796.002 174.418 800.841V800.841Z" fill="#554140"/>
<path d="M157.26 799.251C159.999 803.14 162.304 807.336 164.131 811.762C167.198 818.844 169.14 826.441 172.049 833.59C172.395 830.284 172.653 826.949 173.167 823.688C171.725 819.411 170.357 815.101 168.642 810.962C166.869 806.521 164.662 802.28 162.053 798.306C159.634 794.822 156.623 791.818 153.162 789.434C151.76 788.431 150.32 787.486 148.842 786.599L144.731 788.875C145.754 789.479 146.761 790.107 147.753 790.761C151.391 792.989 154.61 795.863 157.26 799.251V799.251Z" fill="#554140"/>
<path d="M172.621 835.105C173.49 837.171 174.477 839.181 175.575 841.125C178.219 845.872 181.886 849.925 186.299 852.977C190.921 855.944 195.839 858.403 200.972 860.315C206.785 862.646 212.48 865.164 218.135 867.867C223.843 870.602 229.545 873.348 235.429 875.678C236.716 876.189 240.188 873.548 238.288 872.798C227.762 868.629 217.86 863.023 207.348 858.822C202.171 856.919 197.146 854.619 192.314 851.941C187.596 849.236 183.582 845.416 180.597 840.792C177.536 835.995 175.51 830.691 173.668 825.3C173.226 828.452 172.999 831.639 172.658 834.797L172.621 835.105Z" fill="#554140"/>
<path d="M168.128 852.048C168.636 852.709 169.15 853.364 169.675 854.011C176.121 862.139 184.468 868.447 193.953 872.36C204.986 876.816 216.818 878.703 228.027 882.604C229.334 883.059 232.792 880.392 230.882 879.727C220.904 876.257 210.455 874.379 200.486 870.874C190.724 867.509 182.003 861.607 175.161 853.735C173.391 851.688 171.721 849.553 170.125 847.358C169.86 848.106 169.573 848.848 169.263 849.586C168.91 850.421 168.532 851.242 168.128 852.048Z" fill="#554140"/>
<path d="M142.229 812.371C145.788 816.743 148.999 821.402 151.833 826.306C156.884 834.665 161.719 843.255 167.616 851.027C168.376 849.486 169.046 847.902 169.623 846.282C165.103 839.98 161.164 833.204 157.205 826.551C154.399 821.648 151.305 816.926 147.941 812.413C145.071 808.576 141.509 805.345 137.446 802.891C134.349 801.14 131.149 799.586 127.864 798.236L123.679 800.555C126.212 801.654 128.741 802.746 131.159 803.991C135.353 806.015 139.112 808.861 142.229 812.371V812.371Z" fill="#554140"/>
<path d="M138.978 839.658C145.816 847.322 152.187 855.506 159.575 862.629C160.569 861.567 161.516 860.466 162.416 859.329C156.05 853.038 150.416 846.006 144.486 839.281C137.351 831.188 129.91 823.28 121.39 816.708C117.483 813.687 113.328 811.015 108.972 808.721L104.839 811.013C108.548 812.91 112.109 815.093 115.491 817.543C124.208 823.845 131.798 831.612 138.978 839.658Z" fill="#554140"/>
<path d="M161.108 864.508C168.819 871.7 177.557 877.64 187.027 882.13C197.948 887.234 209.705 890.252 221.731 891.04C222.271 891.016 222.801 890.866 223.28 890.601C223.758 890.335 224.173 889.961 224.492 889.508C225.026 888.68 224.651 888.16 223.767 888.1C202.543 886.656 182.586 877.803 166.597 863.695C165.342 862.588 164.123 861.443 162.928 860.274C162.026 861.402 161.079 862.491 160.086 863.541C160.425 863.865 160.764 864.189 161.108 864.508Z" fill="#554140"/>
<path d="M94.4243 828.793C100.253 831.415 105.874 834.217 110.988 838.127C115.538 841.773 119.88 845.685 123.993 849.842C131.834 857.415 139.717 865.037 147.927 872.203C149.151 871.399 150.355 870.561 151.538 869.689C144.233 863.317 137.265 856.514 130.235 849.846C125.939 845.77 121.786 841.52 117.25 837.718C112.54 833.799 107.354 830.52 101.817 827.961C98.3096 826.314 94.7693 824.742 91.1959 823.245C89.6154 822.575 88.0291 821.89 86.4326 821.227L82.193 823.579C83.1013 823.952 84.0073 824.331 84.9129 824.705C88.103 826.02 91.2735 827.383 94.4243 828.793Z" fill="#554140"/>
<path d="M148.477 873.216C149.017 873.685 149.557 874.154 150.099 874.62C159.058 882.303 168.751 889.216 179.73 893.536C185.687 895.879 191.833 896.449 198.188 896.675C204.322 896.894 210.532 896.979 216.374 899.043C217.677 899.503 221.134 896.841 219.226 896.168C208.7 892.455 197.199 895.07 186.542 892.04C180.983 890.309 175.675 887.844 170.749 884.706C165.724 881.61 160.923 878.15 156.382 874.352C154.928 873.154 153.491 871.936 152.069 870.697C151.78 870.913 151.488 871.128 151.192 871.343C150.301 871.987 149.391 872.611 148.477 873.216Z" fill="#554140"/>
<path d="M216.22 899.161C210.376 897.049 204.184 896.909 198.064 896.642C191.722 896.362 185.587 895.743 179.63 893.345C168.648 888.928 158.931 881.925 149.943 874.156C149.397 873.684 148.853 873.212 148.312 872.737C149.223 872.134 150.122 871.515 151.01 870.88C151.301 870.671 151.591 870.456 151.88 870.241C153.308 871.491 154.751 872.723 156.208 873.937C160.764 877.779 165.577 881.285 170.611 884.428C175.546 887.612 180.858 890.125 186.415 891.904C197.067 895.025 208.521 892.501 219.047 896.306C220.797 896.939 218.045 899.219 216.576 899.219C216.455 899.221 216.335 899.201 216.22 899.161V899.161ZM221.582 891.137C209.587 890.25 197.845 887.132 186.921 881.934C177.449 877.361 168.697 871.342 160.959 864.078C160.614 863.756 160.274 863.428 159.932 863.102C160.913 862.058 161.85 860.975 162.744 859.853C163.943 861.029 165.166 862.189 166.426 863.31C182.463 877.565 202.423 886.591 223.593 888.211C224.475 888.278 224.852 888.802 224.324 889.626C224.02 890.058 223.629 890.417 223.178 890.679C222.727 890.94 222.227 891.099 221.712 891.143C221.668 891.14 221.625 891.139 221.582 891.139L221.582 891.137ZM227.889 882.695C216.689 878.702 204.887 876.716 193.862 872.167C184.385 868.175 176.024 861.794 169.544 853.606C169.019 852.953 168.501 852.293 167.989 851.627C168.386 850.825 168.758 850.006 169.106 849.172C169.411 848.436 169.691 847.696 169.95 846.949C171.556 849.159 173.234 851.309 175.012 853.37C181.885 861.305 190.615 867.282 200.365 870.727C210.323 874.316 220.748 876.282 230.715 879.835C232.47 880.46 229.711 882.746 228.24 882.747C228.122 882.749 228.005 882.732 227.893 882.695L227.889 882.695ZM235.298 875.782C229.427 873.404 223.732 870.612 218.032 867.831C212.388 865.077 206.7 862.519 200.899 860.144C195.778 858.19 190.867 855.691 186.246 852.687C181.834 849.6 178.157 845.518 175.493 840.749C175.133 840.121 174.788 839.488 174.457 838.85C173.757 837.493 173.112 836.111 172.509 834.71C172.52 834.607 172.532 834.503 172.542 834.402C172.859 831.247 173.067 828.062 173.482 824.915C175.353 830.321 177.405 835.639 180.482 840.461C183.485 845.11 187.507 848.962 192.22 851.704C197.048 854.422 202.067 856.763 207.233 858.707C217.726 862.993 227.621 868.679 238.121 872.933C239.85 873.632 237.15 875.857 235.685 875.857C235.553 875.857 235.422 875.832 235.299 875.783L235.298 875.782ZM123.823 849.724C119.701 845.534 115.354 841.589 110.801 837.907C105.686 833.956 100.071 831.107 94.2523 828.439C91.1111 826.998 87.9471 825.611 84.7604 824.279C83.8574 823.898 82.9535 823.511 82.0479 823.13L86.2478 820.813C87.8403 821.49 89.4241 822.188 91.0026 822.869C94.565 824.403 98.0991 826.004 101.605 827.67C107.128 830.273 112.308 833.592 117.021 837.547C121.56 841.385 125.722 845.668 130.025 849.777C137.07 856.504 144.049 863.363 151.363 869.793C150.196 870.657 149.005 871.486 147.79 872.28C139.575 865.045 131.679 857.361 123.824 849.725L123.823 849.724ZM241.644 867.858C232.807 863.103 223.667 858.951 214.919 854.012C207.738 849.957 200.843 845.26 195.071 839.22C190.794 834.685 187.178 829.532 184.335 823.922C182.902 821.133 181.607 818.271 180.454 815.346C179.814 813.735 179.192 812.116 178.56 810.5C179.524 809.158 180.621 807.923 181.834 806.817C183.07 809.928 184.236 813.069 185.531 816.154C188.996 824.719 194.168 832.434 200.711 838.795C213.387 850.842 230.042 857.154 245.109 865.263C245.973 865.728 244.775 866.951 244.392 867.24C243.813 867.704 243.115 867.979 242.385 868.032C242.129 868.037 241.875 867.978 241.645 867.859L241.644 867.858ZM138.824 839.529C131.635 831.433 124.036 823.612 115.331 817.249C111.952 814.773 108.398 812.564 104.699 810.639L108.791 808.382C113.137 810.709 117.284 813.412 121.188 816.461C129.706 823.096 137.149 831.054 144.295 839.196C150.234 845.963 155.883 853.033 162.251 859.364C161.366 860.494 160.433 861.585 159.451 862.638C152.06 855.468 145.674 847.241 138.825 839.53L138.824 839.529ZM151.67 826.184C148.824 821.266 145.605 816.588 142.045 812.195C138.927 808.664 135.176 805.792 131 803.736C128.59 802.47 126.073 801.364 123.552 800.247L127.69 797.967C130.96 799.341 134.147 800.919 137.232 802.693C141.282 805.174 144.839 808.427 147.714 812.279C151.084 816.811 154.187 821.55 157.006 826.468C160.981 833.14 164.938 839.935 169.466 846.263C168.905 847.875 168.251 849.451 167.506 850.982C161.598 843.183 156.74 834.57 151.671 826.185L151.67 826.184ZM163.993 811.623C162.153 807.193 159.84 802.988 157.098 799.087C154.447 795.685 151.237 792.792 147.615 790.542C146.629 789.881 145.627 789.246 144.608 788.635L148.668 786.397C150.137 787.296 151.571 788.251 152.968 789.26C156.415 791.666 159.42 794.688 161.843 798.183C164.455 802.168 166.672 806.416 168.459 810.861C170.188 815.003 171.574 819.314 173.032 823.592C172.546 826.842 172.312 830.168 171.991 833.462C169.06 826.311 167.08 818.717 163.994 811.628L163.993 811.623ZM174.311 800.712C171.777 795.863 168.652 791.368 165.014 787.338C163.012 785.072 160.892 782.928 158.693 780.87L162.603 778.716C165.551 781.477 168.324 784.432 170.904 787.562C174.312 791.7 177.185 796.279 179.45 801.182C180.203 802.82 180.899 804.483 181.571 806.157C180.347 807.21 179.233 808.392 178.246 809.684C177.044 806.648 175.795 803.626 174.312 800.717L174.311 800.712Z" fill="#3B3430"/>
<path d="M821.446 247.978C823.944 248.354 825.941 249.678 828.045 250.765C830.881 252.182 833.827 253.35 836.852 254.257C837.731 254.491 838.552 254.913 839.263 255.496C839.973 256.079 840.557 256.81 840.977 257.642C841.207 258.1 841.353 258.596 840.75 258.94C840.244 259.231 839.848 258.961 839.41 258.712C833.953 255.595 827.865 253.426 821.936 251.018C821.343 250.776 820.764 250.5 820.201 250.191C820.055 250.125 819.924 250.028 819.817 249.907C819.709 249.785 819.628 249.641 819.578 249.485C819.528 249.328 819.511 249.163 819.527 248.999C819.543 248.835 819.592 248.677 819.671 248.534C819.941 247.83 820.72 248 821.446 247.978Z" fill="#FFA85A"/>
<path d="M846.343 294.993C846.182 295.275 845.989 295.535 845.766 295.768C841.96 299.128 839.282 303.09 836.602 307.056C836.114 307.778 835.691 308.986 834.27 308.355C833.074 307.825 833.893 306.894 834.242 306.165C836.261 301.974 839.636 298.462 842.835 294.867C843.13 294.468 843.534 294.169 843.995 294.01C844.456 293.85 844.952 293.837 845.42 293.973C845.662 294.013 845.883 294.135 846.05 294.32C846.217 294.504 846.32 294.741 846.343 294.993Z" fill="#FFA85A"/>
<path d="M896.691 303.21C896.903 303.948 896.745 304.398 896.043 304.534C895.739 304.639 895.408 304.621 895.116 304.485C894.823 304.349 894.591 304.105 894.465 303.8C893.218 299.793 889.505 297.07 886.737 293.852C886.054 293.058 885.254 292.183 886.628 291.374C888.045 290.539 888.681 291.493 889.389 292.295C891.096 294.235 892.817 296.169 894.59 298.07C895.268 298.727 895.805 299.525 896.167 300.41C896.529 301.295 896.707 302.249 896.691 303.21V303.21Z" fill="#FFA85A"/>
<path d="M908 234.614C907.929 235.568 907.046 236.403 906.316 237.168C903.178 240.452 899.594 243.455 897.518 247.364C897.085 248.18 896.033 249.404 894.77 248.734C893.637 248.134 894.367 247.048 895.05 246.112C898.096 241.939 902.427 238.556 905.681 234.513C905.872 234.286 906.111 234.108 906.379 233.994C906.648 233.879 906.939 233.831 907.229 233.853C907.428 233.848 907.622 233.926 907.766 234.069C907.911 234.212 907.995 234.408 908 234.614V234.614Z" fill="#FFA85A"/>
<path d="M836.648 273.88C836.572 274.66 835.864 274.935 835.18 275.191C831.366 276.631 827.568 278.104 823.708 279.455C822.65 279.815 821.627 280.278 820.652 280.836C820.28 281.095 819.826 281.196 819.384 281.12C818.942 281.044 818.545 280.795 818.274 280.426C817.706 279.703 817.928 278.971 818.917 278.772C824.403 277.663 828.904 274.862 833.971 273.039C835.329 272.554 836.222 272.665 836.648 273.88Z" fill="#FFA85A"/>
<path d="M850.004 229.837C851.159 230.031 852.226 230.592 853.058 231.443C855.054 233.584 856.272 236.05 857.41 238.525C857.822 239.419 858.297 240.277 858.769 241.144C859.064 241.687 859.506 242.327 858.52 242.73C858.184 242.883 857.81 242.921 857.452 242.838C857.094 242.756 856.771 242.557 856.53 242.271C855.929 241.642 855.398 240.946 854.945 240.197C853.399 237.336 852.259 234.314 849.718 231.86C849.236 231.393 848.938 230.768 849.35 230.147C849.473 229.964 849.863 229.899 850.004 229.837Z" fill="#FFA85A"/>
<path d="M883.32 229.553C883.249 233.2 881.91 236.688 881.288 240.266C881.153 241.04 880.431 241.487 879.474 241.374C878.436 241.25 878.63 240.518 878.615 239.91C878.536 238.051 878.816 236.195 879.441 234.45C880.324 232.354 880.762 230.088 880.725 227.802C880.686 227.063 880.638 225.937 882.099 226.002C883.473 226.061 883.343 227.118 883.405 227.915C883.414 228.462 883.386 229.01 883.32 229.553Z" fill="#FFA85A"/>
<path d="M869.848 303.401C870.036 305.567 870.21 307.734 870.418 309.898C870.491 310.665 871.159 311.728 869.593 311.827C868.175 311.915 867.651 310.915 867.526 309.892C867.254 307.661 866.97 305.428 866.814 303.191C866.761 301.893 866.599 300.603 866.33 299.334C866.11 298.416 866.344 297.47 867.783 297.33C869.156 297.197 869.427 298.041 869.524 298.916C869.687 300.406 869.831 301.9 869.985 303.391L869.848 303.401Z" fill="#FFA85A"/>
<path d="M913.822 284.459C913.758 285.268 913.08 285.639 912.13 285.434C910.932 285.183 909.756 284.824 908.618 284.362C906.009 283.278 903.456 282.107 900.878 280.975C899.943 280.563 898.939 280.047 899.744 279.107C900.104 278.708 900.581 278.441 901.102 278.346C901.623 278.251 902.159 278.334 902.63 278.582C906.14 280.131 909.179 282.351 913.024 283.427C913.252 283.476 913.457 283.606 913.603 283.794C913.749 283.982 913.826 284.218 913.822 284.459Z" fill="#FFA85A"/>
<path d="M904.091 267.968C903.146 268.053 902.77 267.916 902.526 267.61C902.198 267.202 902.389 266.803 902.713 266.474C903.392 265.78 904.251 265.304 905.185 265.103C909.329 264.213 913.498 263.4 917.647 262.526C918.403 262.366 918.98 262.385 919.335 263.006C919.723 263.684 919.185 264.098 918.565 264.318C913.747 265.993 908.369 266.176 904.091 267.968Z" fill="#FFA85A"/>
<path d="M867.525 309.892C867.252 307.661 866.969 305.428 866.812 303.19C866.759 301.893 866.597 300.602 866.328 299.334C866.109 298.416 866.343 297.47 867.781 297.33C869.153 297.197 869.425 298.041 869.522 298.916C869.686 300.407 869.829 301.897 869.983 303.391L869.847 303.401C870.035 305.567 870.209 307.733 870.416 309.898C870.491 310.666 871.158 311.727 869.593 311.826C869.535 311.829 869.478 311.831 869.42 311.831C868.13 311.832 867.645 310.872 867.525 309.892ZM834.269 308.353C833.072 307.822 833.891 306.891 834.241 306.162C836.259 301.971 839.635 298.46 842.837 294.865C843.132 294.466 843.536 294.167 843.997 294.007C844.458 293.848 844.954 293.835 845.422 293.971C845.663 294.012 845.885 294.135 846.051 294.32C846.217 294.505 846.32 294.742 846.342 294.993C846.181 295.275 845.988 295.535 845.765 295.768C841.959 299.128 839.281 303.09 836.601 307.056C836.208 307.636 835.858 308.532 834.997 308.532C834.745 308.524 834.497 308.464 834.269 308.354L834.269 308.353ZM894.464 303.802C893.216 299.793 889.504 297.07 886.736 293.852C886.053 293.058 885.252 292.183 886.627 291.373C888.044 290.539 888.68 291.493 889.387 292.294C891.094 294.235 892.815 296.169 894.588 298.069C895.266 298.727 895.804 299.524 896.166 300.409C896.528 301.295 896.707 302.249 896.69 303.21C896.903 303.948 896.745 304.398 896.042 304.534C895.915 304.56 895.786 304.573 895.656 304.573C895.403 304.597 895.15 304.534 894.935 304.395C894.719 304.256 894.554 304.047 894.464 303.802L894.464 303.802ZM912.129 285.436C910.931 285.184 909.755 284.825 908.617 284.363C906.008 283.28 903.455 282.109 900.878 280.976C899.942 280.565 898.939 280.048 899.742 279.108C900.103 278.709 900.58 278.442 901.101 278.347C901.621 278.253 902.158 278.336 902.629 278.583C906.139 280.133 909.178 282.353 913.023 283.429C913.251 283.478 913.456 283.608 913.602 283.797C913.748 283.985 913.825 284.221 913.821 284.462C913.812 284.613 913.773 284.76 913.706 284.895C913.64 285.03 913.548 285.149 913.435 285.246C913.322 285.342 913.192 285.414 913.051 285.457C912.911 285.499 912.764 285.512 912.618 285.493C912.454 285.491 912.291 285.472 912.13 285.436L912.129 285.436ZM818.275 280.429C817.707 279.707 817.932 278.974 818.918 278.775C824.405 277.666 828.905 274.865 833.973 273.042C835.329 272.555 836.222 272.665 836.649 273.88C836.573 274.66 835.864 274.936 835.181 275.192C831.367 276.632 827.569 278.105 823.708 279.455C822.65 279.816 821.627 280.279 820.652 280.837C820.341 281.027 819.989 281.13 819.628 281.138C819.365 281.135 819.106 281.069 818.872 280.946C818.637 280.823 818.433 280.646 818.275 280.429L818.275 280.429ZM902.525 267.611C902.197 267.203 902.389 266.804 902.712 266.475C903.391 265.782 904.249 265.306 905.184 265.104C909.328 264.215 913.497 263.402 917.646 262.529C918.401 262.368 918.979 262.387 919.334 263.005C919.722 263.683 919.185 264.098 918.564 264.317C913.746 265.996 908.368 266.179 904.089 267.972C903.904 267.988 903.739 267.997 903.594 267.997C903.399 268.025 903.201 268.005 903.015 267.938C902.829 267.871 902.661 267.758 902.526 267.61L902.525 267.611ZM839.372 258.716C833.915 255.599 827.827 253.43 821.898 251.022C821.305 250.781 820.726 250.504 820.163 250.195C820.017 250.129 819.886 250.032 819.779 249.91C819.671 249.788 819.59 249.645 819.54 249.488C819.49 249.332 819.473 249.166 819.489 249.002C819.505 248.839 819.554 248.68 819.634 248.537C819.856 247.955 820.424 247.968 821.023 247.979C821.151 247.982 821.281 247.985 821.409 247.979C823.907 248.355 825.904 249.68 828.008 250.767C830.844 252.183 833.789 253.352 836.814 254.259C837.693 254.492 838.515 254.914 839.225 255.497C839.936 256.081 840.52 256.812 840.939 257.644C841.17 258.102 841.316 258.598 840.712 258.942C840.578 259.023 840.426 259.066 840.27 259.068C839.947 259.029 839.638 258.908 839.372 258.715L839.372 258.716ZM894.769 248.736C893.636 248.135 894.366 247.05 895.05 246.116C898.096 241.944 902.426 238.559 905.68 234.517C905.871 234.29 906.11 234.113 906.379 233.998C906.647 233.884 906.938 233.836 907.228 233.858C907.427 233.853 907.62 233.93 907.765 234.072C907.909 234.214 907.994 234.409 908 234.615C907.93 235.569 907.047 236.403 906.316 237.169C903.178 240.452 899.594 243.456 897.518 247.365C897.172 248.016 896.431 248.929 895.504 248.929C895.247 248.927 894.996 248.86 894.769 248.736V248.736ZM856.529 242.271C855.929 241.642 855.398 240.946 854.944 240.197C853.398 237.336 852.258 234.314 849.719 231.86C849.236 231.393 848.938 230.767 849.351 230.147C849.473 229.964 849.863 229.899 850.004 229.837C851.16 230.03 852.228 230.591 853.06 231.442C855.056 233.584 856.274 236.05 857.413 238.525C857.824 239.419 858.299 240.276 858.771 241.143C859.066 241.686 859.508 242.326 858.522 242.729C858.295 242.824 858.052 242.874 857.807 242.876C857.565 242.875 857.325 242.821 857.105 242.717C856.884 242.613 856.688 242.461 856.529 242.272L856.529 242.271ZM879.474 241.377C878.436 241.253 878.63 240.521 878.615 239.912C878.535 238.054 878.816 236.198 879.44 234.453C880.323 232.357 880.761 230.09 880.724 227.805C880.685 227.066 880.638 225.94 882.097 226.005C883.472 226.064 883.341 227.12 883.404 227.917C883.413 228.465 883.385 229.013 883.319 229.556C883.249 233.203 881.91 236.69 881.288 240.268C881.212 240.617 881.014 240.924 880.733 241.132C880.452 241.339 880.107 241.433 879.763 241.394C879.666 241.393 879.57 241.387 879.473 241.375L879.474 241.377Z" fill="#555555"/>
</svg>
