<svg width="1482" height="737" viewBox="0 0 1482 737" fill="none" xmlns="http://www.w3.org/2000/svg">
<path fill-rule="evenodd" clip-rule="evenodd" d="M10.5278 713.931C10.5038 707.677 8.99362 702.026 7.67598 696.006C7.41849 694.831 6.26161 694.089 5.09179 694.344C3.92128 694.599 3.18151 695.762 3.4383 696.938C4.68788 702.647 6.16581 708.007 6.1898 713.947C6.19439 715.148 7.17132 716.121 8.3678 716.114C9.56533 716.113 10.5331 715.132 10.5278 713.931Z" fill="black"/>
<path fill-rule="evenodd" clip-rule="evenodd" d="M25.6536 722.282C33.2194 710.846 39.5766 696.977 43.1239 683.692C43.4328 682.532 42.745 681.337 41.589 681.028C40.4331 680.719 39.2421 681.405 38.9332 682.566C35.5027 695.411 29.3545 708.824 22.0374 719.877C21.3767 720.879 21.6503 722.23 22.6477 722.891C23.6451 723.553 24.9929 723.284 25.6536 722.282Z" fill="black"/>
<path fill-rule="evenodd" clip-rule="evenodd" d="M30.5896 731.478C39.9284 730.72 48.5416 725.879 55.8042 720.263C56.7507 719.526 56.9256 718.16 56.1958 717.215C55.4636 716.263 54.1005 716.088 53.1523 716.818C46.5387 721.936 38.742 726.453 30.2367 727.145C29.0433 727.242 28.1544 728.293 28.2516 729.486C28.3481 730.679 29.397 731.574 30.5896 731.478Z" fill="black"/>
</svg>
