<svg width="52" height="51" viewBox="0 0 52 51" fill="none" xmlns="http://www.w3.org/2000/svg">
<path d="M38.366 34.8943L33.3322 31.518C33.1198 31.3666 32.8709 31.2746 32.6111 31.2514C32.3513 31.2282 32.09 31.2746 31.8542 31.3859L29.9215 32.3661C29.6791 32.4853 29.4071 32.5312 29.139 32.498C28.8709 32.4649 28.6182 32.3543 28.4121 32.1796C24.7989 29.1898 22.3805 25.001 21.5978 20.377C21.5497 20.1111 21.5801 19.837 21.6855 19.5882C21.7909 19.3395 21.9666 19.1269 22.191 18.9765L23.9507 17.6967C24.1688 17.553 24.3446 17.3537 24.46 17.1194C24.5754 16.8851 24.6262 16.6243 24.6071 16.3638L24.2 10.3162L24.107 8.76714C24.0902 8.5442 24.0233 8.32794 23.9112 8.13449C23.7315 7.82053 23.441 7.58502 23.0966 7.47417C22.147 7.15809 21.1356 7.07318 20.1466 7.22648C19.1576 7.37979 18.2194 7.76689 17.41 8.35563L17.0148 8.65646L16.81 8.81341C16.7147 8.88217 16.6232 8.95602 16.5358 9.03465L16.2836 9.27711C12.9544 12.5308 13.5807 20.7107 17.8708 28.8332L19.1759 31.0939C24.0589 38.8596 30.8298 43.4919 35.3323 42.3039L35.6683 42.2067C35.7795 42.1706 35.8886 42.1286 35.9952 42.0809L36.2346 41.9839L36.6927 41.792C37.6068 41.385 38.4106 40.7658 39.0374 39.9858C39.6642 39.2058 40.0958 38.2875 40.2965 37.3072C40.3727 36.9536 40.314 36.5842 40.132 36.2716C40.0205 36.0778 39.8666 35.9117 39.682 35.7857L38.366 34.8943Z" stroke="#DF3E3F" stroke-width="1.12658" stroke-miterlimit="10"/>
</svg>
