<svg width="37" height="38" viewBox="0 0 37 38" fill="none" xmlns="http://www.w3.org/2000/svg">
<path d="M27.5836 26.1182L23.9021 23.6489C23.7468 23.5383 23.5648 23.471 23.3748 23.454C23.1848 23.437 22.9937 23.471 22.8212 23.5524L21.4078 24.2693C21.2305 24.3564 21.0316 24.39 20.8355 24.3657C20.6394 24.3415 20.4546 24.2606 20.3039 24.1329C17.6614 21.9462 15.8927 18.8828 15.3203 15.5011C15.2851 15.3066 15.3074 15.1062 15.3844 14.9242C15.4615 14.7423 15.59 14.5868 15.7541 14.4768L17.041 13.5408C17.2006 13.4358 17.3291 13.29 17.4135 13.1187C17.4979 12.9473 17.5351 12.7565 17.5211 12.566L17.2234 8.14318L17.1554 7.01028C17.1431 6.84724 17.0941 6.68908 17.0122 6.5476C16.8807 6.31798 16.6683 6.14575 16.4164 6.06468C15.7219 5.83351 14.9823 5.77141 14.259 5.88353C13.5356 5.99565 12.8495 6.27876 12.2576 6.70933L11.9685 6.92934L11.8188 7.04412C11.7491 7.09441 11.6821 7.14842 11.6183 7.20592L11.4338 7.38325C8.99902 9.76281 9.45703 15.7451 12.5945 21.6855L13.5491 23.3388C17.1202 29.0182 22.0721 32.406 25.3649 31.5371L25.6107 31.4661C25.692 31.4397 25.7718 31.409 25.8497 31.3741L26.0248 31.3031L26.3599 31.1628C27.0284 30.8651 27.6162 30.4123 28.0746 29.8418C28.533 29.2714 28.8487 28.5998 28.9955 27.8829C29.0512 27.6242 29.0083 27.3541 28.8751 27.1255C28.7936 26.9838 28.6811 26.8623 28.546 26.7701L27.5836 26.1182Z" stroke="#E2E2E2" stroke-width="1.12658" stroke-miterlimit="10"/>
</svg>
