<svg width="49" height="49" viewBox="0 0 49 49" fill="none" xmlns="http://www.w3.org/2000/svg">
<path d="M36.6565 33.5217L31.7549 30.2339C31.548 30.0866 31.3057 29.997 31.0527 29.9744C30.7997 29.9518 30.5453 29.997 30.3156 30.1054L28.4338 31.0599C28.1977 31.1759 27.9328 31.2206 27.6717 31.1883C27.4107 31.156 27.1646 31.0483 26.9639 30.8782C23.4456 27.9669 21.0907 23.888 20.3285 19.3854C20.2816 19.1265 20.3113 18.8596 20.4139 18.6173C20.5165 18.3751 20.6876 18.1681 20.9061 18.0216L22.6196 16.7754C22.832 16.6355 23.0032 16.4415 23.1156 16.2133C23.2279 15.9851 23.2774 15.7311 23.2588 15.4775L22.8623 9.58863L22.7718 8.08023C22.7555 7.86314 22.6903 7.65256 22.5812 7.46418C22.4062 7.15846 22.1233 6.92914 21.7879 6.8212C20.8632 6.51341 19.8784 6.43072 18.9154 6.58001C17.9523 6.72929 17.0387 7.10623 16.2506 7.67952L15.8657 7.97246L15.6663 8.12529C15.5735 8.19224 15.4844 8.26415 15.3994 8.34072L15.1538 8.57682C11.912 11.7451 12.5218 19.7103 16.6992 27.6197L17.9702 29.821C22.725 37.3829 29.3182 41.8936 33.7025 40.7368L34.0297 40.6421C34.1379 40.607 34.2442 40.5661 34.348 40.5196L34.5811 40.4252L35.0272 40.2383C35.9173 39.842 36.7 39.239 37.3104 38.4795C37.9207 37.72 38.341 36.8258 38.5364 35.8713C38.6106 35.5269 38.5535 35.1672 38.3762 34.8628C38.2676 34.6741 38.1178 34.5124 37.938 34.3897L36.6565 33.5217Z" stroke="#E2E2E2" stroke-width="1.5" stroke-miterlimit="10"/>
</svg>
