<svg width="49" height="49" viewBox="0 0 49 49" fill="none" xmlns="http://www.w3.org/2000/svg">
<path d="M36.6563 33.5217L31.7546 30.2339C31.5478 30.0866 31.3054 29.997 31.0525 29.9744C30.7995 29.9518 30.5451 29.997 30.3154 30.1054L28.4335 31.0599C28.1974 31.1759 27.9326 31.2206 27.6715 31.1883C27.4104 31.156 27.1644 31.0483 26.9637 30.8782C23.4453 27.9669 21.0904 23.888 20.3282 19.3854C20.2814 19.1265 20.311 18.8596 20.4137 18.6173C20.5163 18.3751 20.6873 18.1681 20.9059 18.0216L22.6193 16.7754C22.8317 16.6355 23.003 16.4415 23.1153 16.2133C23.2277 15.9851 23.2771 15.7311 23.2586 15.4775L22.8621 9.58863L22.7716 8.08023C22.7552 7.86314 22.69 7.65256 22.5809 7.46418C22.4059 7.15846 22.123 6.92914 21.7877 6.8212C20.863 6.51341 19.8782 6.43072 18.9151 6.58001C17.952 6.72929 17.0385 7.10623 16.2504 7.67952L15.8655 7.97246L15.6661 8.12529C15.5733 8.19224 15.4842 8.26415 15.3991 8.34072L15.1535 8.57682C11.9117 11.7451 12.5215 19.7103 16.699 27.6197L17.9699 29.821C22.7248 37.3829 29.318 41.8936 33.7022 40.7368L34.0295 40.6421C34.1377 40.607 34.2439 40.5661 34.3478 40.5196L34.5808 40.4252L35.027 40.2383C35.9171 39.842 36.6998 39.239 37.3101 38.4795C37.9205 37.72 38.3408 36.8258 38.5362 35.8713C38.6104 35.5269 38.5532 35.1672 38.3759 34.8628C38.2674 34.6741 38.1176 34.5124 37.9378 34.3897L36.6563 33.5217Z" stroke="#E2E2E2" stroke-width="1.5" stroke-miterlimit="10"/>
</svg>
