<svg width="60" height="60" viewBox="0 0 60 60" fill="none" xmlns="http://www.w3.org/2000/svg">
<path d="M44.4554 40.941L38.587 37.0048C38.3394 36.8284 38.0492 36.7211 37.7464 36.6941C37.4435 36.667 37.139 36.7212 36.864 36.8509L34.6109 37.9936C34.3283 38.1326 34.0112 38.186 33.6986 38.1474C33.386 38.1088 33.0915 37.9798 32.8512 37.7762C28.639 34.2906 25.8196 29.4074 24.9071 24.0167C24.851 23.7068 24.8865 23.3872 25.0094 23.0972C25.1322 22.8072 25.337 22.5593 25.5987 22.384L27.6501 20.892C27.9044 20.7245 28.1093 20.4922 28.2439 20.219C28.3784 19.9459 28.4376 19.6418 28.4154 19.3381L27.9407 12.2878L27.8323 10.4819C27.8127 10.222 27.7347 9.9699 27.6041 9.74438C27.3946 9.37836 27.0559 9.10381 26.6544 8.97458C25.5473 8.60609 24.3683 8.5071 23.2153 8.68583C22.0623 8.86455 20.9686 9.31583 20.025 10.0022L19.5642 10.3529L19.3255 10.5359C19.2144 10.616 19.1077 10.7021 19.0059 10.7938L18.7118 11.0765C14.8307 14.8696 15.5608 24.4058 20.5621 33.875L22.0837 36.5105C27.7763 45.5637 35.6698 50.964 40.9187 49.579L41.3106 49.4657C41.4401 49.4237 41.5673 49.3748 41.6916 49.3191L41.9706 49.206L42.5048 48.9823C43.5704 48.5078 44.5075 47.7859 45.2382 46.8766C45.9689 45.9673 46.4721 44.8968 46.7061 43.754C46.7949 43.3417 46.7265 42.9111 46.5142 42.5466C46.3842 42.3207 46.2049 42.1271 45.9896 41.9802L44.4554 40.941Z" stroke="#DF3E3F" stroke-width="1.31337" stroke-miterlimit="10"/>
</svg>
