<svg width="49" height="49" viewBox="0 0 49 49" fill="none" xmlns="http://www.w3.org/2000/svg">
<path d="M36.6565 33.5222L31.7549 30.2344C31.548 30.0871 31.3057 29.9975 31.0527 29.9749C30.7997 29.9523 30.5453 29.9975 30.3156 30.1059L28.4338 31.0603C28.1977 31.1764 27.9328 31.221 27.6717 31.1888C27.4107 31.1565 27.1646 31.0488 26.9639 30.8787C23.4456 27.9673 21.0907 23.8885 20.3285 19.3859C20.2816 19.127 20.3113 18.8601 20.4139 18.6178C20.5165 18.3756 20.6876 18.1685 20.9061 18.0221L22.6196 16.7759C22.832 16.636 23.0032 16.442 23.1156 16.2138C23.2279 15.9856 23.2774 15.7316 23.2588 15.478L22.8623 9.58912L22.7718 8.08072C22.7555 7.86363 22.6903 7.65304 22.5812 7.46467C22.4062 7.15895 22.1233 6.92963 21.7879 6.82168C20.8632 6.5139 19.8784 6.43121 18.9154 6.5805C17.9523 6.72978 17.0387 7.10672 16.2506 7.68001L15.8657 7.97295L15.6663 8.12578C15.5735 8.19273 15.4844 8.26464 15.3994 8.34121L15.1538 8.57731C11.912 11.7456 12.5218 19.7108 16.6992 27.6202L17.9702 29.8215C22.725 37.3833 29.3182 41.8941 33.7025 40.7372L34.0297 40.6426C34.1379 40.6075 34.2442 40.5666 34.348 40.5201L34.5811 40.4256L35.0272 40.2388C35.9173 39.8425 36.7 39.2395 37.3104 38.48C37.9207 37.7205 38.341 36.8263 38.5364 35.8717C38.6106 35.5274 38.5535 35.1677 38.3762 34.8633C38.2676 34.6746 38.1178 34.5129 37.938 34.3902L36.6565 33.5222Z" stroke="#E2E2E2" stroke-width="1.5" stroke-miterlimit="10"/>
</svg>
