<svg width="44" height="44" viewBox="0 0 44 44" fill="none" xmlns="http://www.w3.org/2000/svg">
<path d="M33.034 29.5461L28.7422 26.6674C28.5611 26.5383 28.3489 26.4599 28.1274 26.4401C27.9059 26.4203 27.6832 26.4599 27.4821 26.5548L25.8343 27.3905C25.6276 27.4921 25.3957 27.5312 25.1671 27.503C24.9385 27.4747 24.7231 27.3804 24.5474 27.2315C21.4668 24.6823 19.4049 21.111 18.7375 17.1686C18.6965 16.9419 18.7225 16.7082 18.8123 16.4961C18.9021 16.284 19.0519 16.1027 19.2433 15.9745L20.7436 14.8833C20.9295 14.7608 21.0794 14.5909 21.1778 14.3912C21.2762 14.1914 21.3195 13.969 21.3032 13.7469L20.9561 8.59073L20.8768 7.27C20.8625 7.07993 20.8055 6.89554 20.7099 6.73061C20.5567 6.46292 20.309 6.26213 20.0154 6.16762C19.2057 5.89813 18.3435 5.82573 17.5002 5.95644C16.657 6.08715 15.8571 6.41719 15.167 6.91915L14.83 7.17564L14.6554 7.30946C14.5742 7.36807 14.4961 7.43104 14.4217 7.49808L14.2066 7.70481C11.3682 10.4789 11.9021 17.4531 15.5598 24.3784L16.6726 26.3058C20.8359 32.9268 26.6087 36.8763 30.4475 35.8634L30.7341 35.7806C30.8288 35.7498 30.9218 35.714 31.0127 35.6733L31.2168 35.5906L31.6074 35.427C32.3868 35.08 33.0721 34.552 33.6065 33.887C34.1409 33.222 34.5089 32.4391 34.68 31.6033C34.745 31.3018 34.6949 30.9868 34.5397 30.7203C34.4447 30.5551 34.3135 30.4135 34.1561 30.306L33.034 29.5461Z" stroke="#E2E2E2" stroke-width="1.31337" stroke-miterlimit="10"/>
</svg>
