<svg width="67" height="67" viewBox="0 0 67 67" fill="none" xmlns="http://www.w3.org/2000/svg">
<path d="M50.1222 45.8365L43.4199 41.341C43.1371 41.1394 42.8057 41.0169 42.4598 40.986C42.1139 40.9551 41.766 41.017 41.452 41.1652L38.8788 42.4703C38.556 42.629 38.1939 42.69 37.8368 42.6459C37.4798 42.6018 37.1435 42.4544 36.869 42.2219C32.0582 38.2411 28.8382 32.6639 27.7961 26.5072C27.732 26.1532 27.7725 25.7883 27.9128 25.457C28.0531 25.1258 28.2871 24.8427 28.5859 24.6425L30.9288 22.9385C31.2192 22.7472 31.4533 22.4819 31.607 22.1699C31.7606 21.8579 31.8282 21.5106 31.8028 21.1638L31.2607 13.1117L31.1369 11.0491C31.1146 10.7523 31.0255 10.4644 30.8763 10.2068C30.637 9.78877 30.2501 9.47521 29.7916 9.32761C28.5273 8.90676 27.1807 8.7937 25.8638 8.99782C24.547 9.20194 23.2978 9.71735 22.2202 10.5012L21.6939 10.9018L21.4213 11.1108C21.2944 11.2023 21.1725 11.3006 21.0563 11.4053L20.7204 11.7282C16.2878 16.0603 17.1216 26.9515 22.8336 37.7663L24.5715 40.7763C31.073 51.116 40.0881 57.2837 46.0829 55.7019L46.5304 55.5725C46.6784 55.5245 46.8237 55.4686 46.9656 55.4051L47.2843 55.2759L47.8943 55.0204C49.1114 54.4785 50.1817 53.654 51.0162 52.6155C51.8507 51.577 52.4254 50.3543 52.6926 49.0491C52.7941 48.5782 52.7159 48.0865 52.4735 47.6702C52.3251 47.4122 52.1203 47.1911 51.8744 47.0233L50.1222 45.8365Z" stroke="#DF3E3F" stroke-width="1.5" stroke-miterlimit="10"/>
</svg>
