<svg width="1921" height="952" viewBox="0 0 1921 952" fill="none" xmlns="http://www.w3.org/2000/svg">
<circle cx="2.13696" cy="4.13281" r="1.49146" fill="#BCBCBC"/>
<circle cx="2.13696" cy="633.527" r="1.49146" fill="#BCBCBC"/>
<circle cx="831.386" cy="2.14429" r="1.49146" fill="#BCBCBC"/>
<circle cx="831.386" cy="631.538" r="1.49146" fill="#BCBCBC"/>
<circle cx="417.755" cy="4.13281" r="1.49146" fill="#BCBCBC"/>
<circle cx="417.755" cy="633.527" r="1.49146" fill="#BCBCBC"/>
<circle cx="1247.01" cy="2.14429" r="1.49146" fill="#BCBCBC"/>
<circle cx="1247.01" cy="631.538" r="1.49146" fill="#BCBCBC"/>
<circle cx="2.13696" cy="214.925" r="1.49146" fill="#BCBCBC"/>
<circle cx="2.13696" cy="844.319" r="1.49146" fill="#BCBCBC"/>
<circle cx="831.386" cy="212.937" r="1.49146" fill="#BCBCBC"/>
<circle cx="831.386" cy="842.331" r="1.49146" fill="#BCBCBC"/>
<circle cx="417.755" cy="214.925" r="1.49146" fill="#BCBCBC"/>
<circle cx="417.755" cy="844.319" r="1.49146" fill="#BCBCBC"/>
<circle cx="1247.01" cy="212.937" r="1.49146" fill="#BCBCBC"/>
<circle cx="1247.01" cy="842.331" r="1.49146" fill="#BCBCBC"/>
<circle cx="2.13696" cy="425.718" r="1.49146" fill="#BCBCBC"/>
<circle cx="831.386" cy="423.729" r="1.49146" fill="#BCBCBC"/>
<circle cx="417.755" cy="425.718" r="1.49146" fill="#BCBCBC"/>
<circle cx="1247.01" cy="423.729" r="1.49146" fill="#BCBCBC"/>
<circle cx="2.13696" cy="109.529" r="1.49146" fill="#BCBCBC"/>
<circle cx="2.13696" cy="738.923" r="1.49146" fill="#BCBCBC"/>
<circle cx="831.386" cy="107.541" r="1.49146" fill="#BCBCBC"/>
<circle cx="831.386" cy="736.935" r="1.49146" fill="#BCBCBC"/>
<circle cx="417.755" cy="109.529" r="1.49146" fill="#BCBCBC"/>
<circle cx="417.755" cy="738.923" r="1.49146" fill="#BCBCBC"/>
<circle cx="1247.01" cy="107.541" r="1.49146" fill="#BCBCBC"/>
<circle cx="1247.01" cy="736.935" r="1.49146" fill="#BCBCBC"/>
<circle cx="2.13696" cy="320.321" r="1.49146" fill="#BCBCBC"/>
<circle cx="2.13696" cy="949.715" r="1.49146" fill="#BCBCBC"/>
<circle cx="831.386" cy="318.333" r="1.49146" fill="#BCBCBC"/>
<circle cx="831.386" cy="947.728" r="1.49146" fill="#BCBCBC"/>
<circle cx="417.755" cy="320.321" r="1.49146" fill="#BCBCBC"/>
<circle cx="417.755" cy="949.715" r="1.49146" fill="#BCBCBC"/>
<circle cx="1247.01" cy="318.333" r="1.49146" fill="#BCBCBC"/>
<circle cx="1247.01" cy="947.728" r="1.49146" fill="#BCBCBC"/>
<circle cx="2.13696" cy="531.114" r="1.49146" fill="#BCBCBC"/>
<circle cx="831.386" cy="529.125" r="1.49146" fill="#BCBCBC"/>
<circle cx="417.755" cy="531.114" r="1.49146" fill="#BCBCBC"/>
<circle cx="1247.01" cy="529.125" r="1.49146" fill="#BCBCBC"/>
<circle cx="2.13696" cy="56.8313" r="1.49146" fill="#BCBCBC"/>
<circle cx="2.13696" cy="686.225" r="1.49146" fill="#BCBCBC"/>
<circle cx="831.386" cy="54.843" r="1.49146" fill="#BCBCBC"/>
<circle cx="831.386" cy="684.236" r="1.49146" fill="#BCBCBC"/>
<circle cx="417.755" cy="56.8313" r="1.49146" fill="#BCBCBC"/>
<circle cx="417.755" cy="686.225" r="1.49146" fill="#BCBCBC"/>
<circle cx="1247.01" cy="54.843" r="1.49146" fill="#BCBCBC"/>
<circle cx="1247.01" cy="684.236" r="1.49146" fill="#BCBCBC"/>
<circle cx="2.13696" cy="267.624" r="1.49146" fill="#BCBCBC"/>
<circle cx="2.13696" cy="897.017" r="1.49146" fill="#BCBCBC"/>
<circle cx="831.386" cy="265.635" r="1.49146" fill="#BCBCBC"/>
<circle cx="831.386" cy="895.029" r="1.49146" fill="#BCBCBC"/>
<circle cx="417.755" cy="267.624" r="1.49146" fill="#BCBCBC"/>
<circle cx="417.755" cy="897.017" r="1.49146" fill="#BCBCBC"/>
<circle cx="1247.01" cy="265.635" r="1.49146" fill="#BCBCBC"/>
<circle cx="1247.01" cy="895.029" r="1.49146" fill="#BCBCBC"/>
<circle cx="2.13696" cy="478.415" r="1.49146" fill="#BCBCBC"/>
<circle cx="831.386" cy="476.427" r="1.49146" fill="#BCBCBC"/>
<circle cx="417.755" cy="478.415" r="1.49146" fill="#BCBCBC"/>
<circle cx="1247.01" cy="476.427" r="1.49146" fill="#BCBCBC"/>
<circle cx="2.13696" cy="162.227" r="1.49146" fill="#BCBCBC"/>
<circle cx="2.13696" cy="791.621" r="1.49146" fill="#BCBCBC"/>
<circle cx="831.386" cy="160.239" r="1.49146" fill="#BCBCBC"/>
<circle cx="831.386" cy="789.632" r="1.49146" fill="#BCBCBC"/>
<circle cx="417.755" cy="162.227" r="1.49146" fill="#BCBCBC"/>
<circle cx="417.755" cy="791.621" r="1.49146" fill="#BCBCBC"/>
<circle cx="1247.01" cy="160.239" r="1.49146" fill="#BCBCBC"/>
<circle cx="1247.01" cy="789.632" r="1.49146" fill="#BCBCBC"/>
<circle cx="2.13696" cy="373.019" r="1.49146" fill="#BCBCBC"/>
<circle cx="831.386" cy="371.031" r="1.49146" fill="#BCBCBC"/>
<circle cx="417.755" cy="373.019" r="1.49146" fill="#BCBCBC"/>
<circle cx="1247.01" cy="371.031" r="1.49146" fill="#BCBCBC"/>
<circle cx="2.13696" cy="583.812" r="1.49146" fill="#BCBCBC"/>
<circle cx="831.386" cy="581.823" r="1.49146" fill="#BCBCBC"/>
<circle cx="417.755" cy="583.812" r="1.49146" fill="#BCBCBC"/>
<circle cx="1247.01" cy="581.823" r="1.49146" fill="#BCBCBC"/>
<circle cx="208.952" cy="4.13281" r="1.49146" fill="#BCBCBC"/>
<circle cx="208.952" cy="633.527" r="1.49146" fill="#BCBCBC"/>
<circle cx="1038.2" cy="2.14429" r="1.49146" fill="#BCBCBC"/>
<circle cx="1038.2" cy="631.538" r="1.49146" fill="#BCBCBC"/>
<circle cx="624.572" cy="4.13281" r="1.49146" fill="#BCBCBC"/>
<circle cx="624.572" cy="633.527" r="1.49146" fill="#BCBCBC"/>
<circle cx="1453.82" cy="2.14429" r="1.49146" fill="#BCBCBC"/>
<circle cx="1815.75" cy="2.14429" r="1.49146" fill="#BCBCBC"/>
<circle cx="1453.82" cy="631.538" r="1.49146" fill="#BCBCBC"/>
<circle cx="1815.75" cy="631.538" r="1.49146" fill="#BCBCBC"/>
<circle cx="208.952" cy="214.925" r="1.49146" fill="#BCBCBC"/>
<circle cx="208.952" cy="844.319" r="1.49146" fill="#BCBCBC"/>
<circle cx="1038.2" cy="212.937" r="1.49146" fill="#BCBCBC"/>
<circle cx="1038.2" cy="842.331" r="1.49146" fill="#BCBCBC"/>
<circle cx="624.572" cy="214.925" r="1.49146" fill="#BCBCBC"/>
<circle cx="624.572" cy="844.319" r="1.49146" fill="#BCBCBC"/>
<circle cx="1453.82" cy="212.937" r="1.49146" fill="#BCBCBC"/>
<circle cx="1815.75" cy="212.937" r="1.49146" fill="#BCBCBC"/>
<circle cx="1453.82" cy="842.331" r="1.49146" fill="#BCBCBC"/>
<circle cx="1815.75" cy="842.331" r="1.49146" fill="#BCBCBC"/>
<circle cx="208.952" cy="425.718" r="1.49146" fill="#BCBCBC"/>
<circle cx="1038.2" cy="423.729" r="1.49146" fill="#BCBCBC"/>
<circle cx="624.572" cy="425.718" r="1.49146" fill="#BCBCBC"/>
<circle cx="1453.82" cy="423.729" r="1.49146" fill="#BCBCBC"/>
<circle cx="1815.75" cy="423.729" r="1.49146" fill="#BCBCBC"/>
<circle cx="208.952" cy="109.529" r="1.49146" fill="#BCBCBC"/>
<circle cx="208.952" cy="738.923" r="1.49146" fill="#BCBCBC"/>
<circle cx="1038.2" cy="107.541" r="1.49146" fill="#BCBCBC"/>
<circle cx="1038.2" cy="736.935" r="1.49146" fill="#BCBCBC"/>
<circle cx="624.572" cy="109.529" r="1.49146" fill="#BCBCBC"/>
<circle cx="624.572" cy="738.923" r="1.49146" fill="#BCBCBC"/>
<circle cx="1453.82" cy="107.541" r="1.49146" fill="#BCBCBC"/>
<circle cx="1815.75" cy="107.541" r="1.49146" fill="#BCBCBC"/>
<circle cx="1453.82" cy="736.935" r="1.49146" fill="#BCBCBC"/>
<circle cx="1815.75" cy="736.935" r="1.49146" fill="#BCBCBC"/>
<circle cx="208.952" cy="320.321" r="1.49146" fill="#BCBCBC"/>
<circle cx="208.952" cy="949.715" r="1.49146" fill="#BCBCBC"/>
<circle cx="1038.2" cy="318.333" r="1.49146" fill="#BCBCBC"/>
<circle cx="1038.2" cy="947.728" r="1.49146" fill="#BCBCBC"/>
<circle cx="624.572" cy="320.321" r="1.49146" fill="#BCBCBC"/>
<circle cx="624.572" cy="949.715" r="1.49146" fill="#BCBCBC"/>
<circle cx="1453.82" cy="318.333" r="1.49146" fill="#BCBCBC"/>
<circle cx="1815.75" cy="318.333" r="1.49146" fill="#BCBCBC"/>
<circle cx="1453.82" cy="947.728" r="1.49146" fill="#BCBCBC"/>
<circle cx="1815.75" cy="947.728" r="1.49146" fill="#BCBCBC"/>
<circle cx="208.952" cy="531.114" r="1.49146" fill="#BCBCBC"/>
<circle cx="1038.2" cy="529.125" r="1.49146" fill="#BCBCBC"/>
<circle cx="624.572" cy="531.114" r="1.49146" fill="#BCBCBC"/>
<circle cx="1453.82" cy="529.125" r="1.49146" fill="#BCBCBC"/>
<circle cx="1815.75" cy="529.125" r="1.49146" fill="#BCBCBC"/>
<circle cx="208.952" cy="56.8313" r="1.49146" fill="#BCBCBC"/>
<circle cx="208.952" cy="686.225" r="1.49146" fill="#BCBCBC"/>
<circle cx="1038.2" cy="54.843" r="1.49146" fill="#BCBCBC"/>
<circle cx="1038.2" cy="684.236" r="1.49146" fill="#BCBCBC"/>
<circle cx="624.572" cy="56.8313" r="1.49146" fill="#BCBCBC"/>
<circle cx="624.572" cy="686.225" r="1.49146" fill="#BCBCBC"/>
<circle cx="1453.82" cy="54.843" r="1.49146" fill="#BCBCBC"/>
<circle cx="1815.75" cy="54.843" r="1.49146" fill="#BCBCBC"/>
<circle cx="1453.82" cy="684.236" r="1.49146" fill="#BCBCBC"/>
<circle cx="1815.75" cy="684.236" r="1.49146" fill="#BCBCBC"/>
<circle cx="208.952" cy="267.624" r="1.49146" fill="#BCBCBC"/>
<circle cx="208.952" cy="897.017" r="1.49146" fill="#BCBCBC"/>
<circle cx="1038.2" cy="265.635" r="1.49146" fill="#BCBCBC"/>
<circle cx="1038.2" cy="895.029" r="1.49146" fill="#BCBCBC"/>
<circle cx="624.572" cy="267.624" r="1.49146" fill="#BCBCBC"/>
<circle cx="624.572" cy="897.017" r="1.49146" fill="#BCBCBC"/>
<circle cx="1453.82" cy="265.635" r="1.49146" fill="#BCBCBC"/>
<circle cx="1815.75" cy="265.635" r="1.49146" fill="#BCBCBC"/>
<circle cx="1453.82" cy="895.029" r="1.49146" fill="#BCBCBC"/>
<circle cx="1815.75" cy="895.029" r="1.49146" fill="#BCBCBC"/>
<circle cx="208.952" cy="478.415" r="1.49146" fill="#BCBCBC"/>
<circle cx="1038.2" cy="476.427" r="1.49146" fill="#BCBCBC"/>
<circle cx="624.572" cy="478.415" r="1.49146" fill="#BCBCBC"/>
<circle cx="1453.82" cy="476.427" r="1.49146" fill="#BCBCBC"/>
<circle cx="1815.75" cy="476.427" r="1.49146" fill="#BCBCBC"/>
<circle cx="208.952" cy="162.227" r="1.49146" fill="#BCBCBC"/>
<circle cx="208.952" cy="791.621" r="1.49146" fill="#BCBCBC"/>
<circle cx="1038.2" cy="160.239" r="1.49146" fill="#BCBCBC"/>
<circle cx="1038.2" cy="789.632" r="1.49146" fill="#BCBCBC"/>
<circle cx="624.572" cy="162.227" r="1.49146" fill="#BCBCBC"/>
<circle cx="624.572" cy="791.621" r="1.49146" fill="#BCBCBC"/>
<circle cx="1453.82" cy="160.239" r="1.49146" fill="#BCBCBC"/>
<circle cx="1815.75" cy="160.239" r="1.49146" fill="#BCBCBC"/>
<circle cx="1453.82" cy="789.632" r="1.49146" fill="#BCBCBC"/>
<circle cx="1815.75" cy="789.632" r="1.49146" fill="#BCBCBC"/>
<circle cx="208.952" cy="373.019" r="1.49146" fill="#BCBCBC"/>
<circle cx="1038.2" cy="371.031" r="1.49146" fill="#BCBCBC"/>
<circle cx="624.572" cy="373.019" r="1.49146" fill="#BCBCBC"/>
<circle cx="1453.82" cy="371.031" r="1.49146" fill="#BCBCBC"/>
<circle cx="1815.75" cy="371.031" r="1.49146" fill="#BCBCBC"/>
<circle cx="208.952" cy="583.812" r="1.49146" fill="#BCBCBC"/>
<circle cx="1038.2" cy="581.823" r="1.49146" fill="#BCBCBC"/>
<circle cx="624.572" cy="583.812" r="1.49146" fill="#BCBCBC"/>
<circle cx="1453.82" cy="581.823" r="1.49146" fill="#BCBCBC"/>
<circle cx="1815.75" cy="581.823" r="1.49146" fill="#BCBCBC"/>
<circle cx="53.8411" cy="4.13281" r="1.49146" fill="#BCBCBC"/>
<circle cx="53.8411" cy="633.527" r="1.49146" fill="#BCBCBC"/>
<circle cx="883.09" cy="2.14429" r="1.49146" fill="#BCBCBC"/>
<circle cx="883.09" cy="631.538" r="1.49146" fill="#BCBCBC"/>
<circle cx="469.459" cy="4.13281" r="1.49146" fill="#BCBCBC"/>
<circle cx="469.459" cy="633.527" r="1.49146" fill="#BCBCBC"/>
<circle cx="1298.71" cy="2.14429" r="1.49146" fill="#BCBCBC"/>
<circle cx="1660.64" cy="2.14429" r="1.49146" fill="#BCBCBC"/>
<circle cx="1298.71" cy="631.538" r="1.49146" fill="#BCBCBC"/>
<circle cx="1660.64" cy="631.538" r="1.49146" fill="#BCBCBC"/>
<circle cx="53.8411" cy="214.925" r="1.49146" fill="#BCBCBC"/>
<circle cx="53.8411" cy="844.319" r="1.49146" fill="#BCBCBC"/>
<circle cx="883.09" cy="212.937" r="1.49146" fill="#BCBCBC"/>
<circle cx="883.09" cy="842.331" r="1.49146" fill="#BCBCBC"/>
<circle cx="469.459" cy="214.925" r="1.49146" fill="#BCBCBC"/>
<circle cx="469.459" cy="844.319" r="1.49146" fill="#BCBCBC"/>
<circle cx="1298.71" cy="212.937" r="1.49146" fill="#BCBCBC"/>
<circle cx="1660.64" cy="212.937" r="1.49146" fill="#BCBCBC"/>
<circle cx="1298.71" cy="842.331" r="1.49146" fill="#BCBCBC"/>
<circle cx="1660.64" cy="842.331" r="1.49146" fill="#BCBCBC"/>
<circle cx="53.8411" cy="425.718" r="1.49146" fill="#BCBCBC"/>
<circle cx="883.09" cy="423.729" r="1.49146" fill="#BCBCBC"/>
<circle cx="469.459" cy="425.718" r="1.49146" fill="#BCBCBC"/>
<circle cx="1298.71" cy="423.729" r="1.49146" fill="#BCBCBC"/>
<circle cx="1660.64" cy="423.729" r="1.49146" fill="#BCBCBC"/>
<circle cx="53.8411" cy="109.529" r="1.49146" fill="#BCBCBC"/>
<circle cx="53.8411" cy="738.923" r="1.49146" fill="#BCBCBC"/>
<circle cx="883.09" cy="107.541" r="1.49146" fill="#BCBCBC"/>
<circle cx="883.09" cy="736.935" r="1.49146" fill="#BCBCBC"/>
<circle cx="469.459" cy="109.529" r="1.49146" fill="#BCBCBC"/>
<circle cx="469.459" cy="738.923" r="1.49146" fill="#BCBCBC"/>
<circle cx="1298.71" cy="107.541" r="1.49146" fill="#BCBCBC"/>
<circle cx="1660.64" cy="107.541" r="1.49146" fill="#BCBCBC"/>
<circle cx="1298.71" cy="736.935" r="1.49146" fill="#BCBCBC"/>
<circle cx="1660.64" cy="736.935" r="1.49146" fill="#BCBCBC"/>
<circle cx="53.8411" cy="320.321" r="1.49146" fill="#BCBCBC"/>
<circle cx="53.8411" cy="949.715" r="1.49146" fill="#BCBCBC"/>
<circle cx="883.09" cy="318.333" r="1.49146" fill="#BCBCBC"/>
<circle cx="883.09" cy="947.728" r="1.49146" fill="#BCBCBC"/>
<circle cx="469.459" cy="320.321" r="1.49146" fill="#BCBCBC"/>
<circle cx="469.459" cy="949.715" r="1.49146" fill="#BCBCBC"/>
<circle cx="1298.71" cy="318.333" r="1.49146" fill="#BCBCBC"/>
<circle cx="1660.64" cy="318.333" r="1.49146" fill="#BCBCBC"/>
<circle cx="1298.71" cy="947.728" r="1.49146" fill="#BCBCBC"/>
<circle cx="1660.64" cy="947.728" r="1.49146" fill="#BCBCBC"/>
<circle cx="53.8411" cy="531.114" r="1.49146" fill="#BCBCBC"/>
<circle cx="883.09" cy="529.125" r="1.49146" fill="#BCBCBC"/>
<circle cx="469.459" cy="531.114" r="1.49146" fill="#BCBCBC"/>
<circle cx="1298.71" cy="529.125" r="1.49146" fill="#BCBCBC"/>
<circle cx="1660.64" cy="529.125" r="1.49146" fill="#BCBCBC"/>
<circle cx="53.8411" cy="56.8313" r="1.49146" fill="#BCBCBC"/>
<circle cx="53.8411" cy="686.225" r="1.49146" fill="#BCBCBC"/>
<circle cx="883.09" cy="54.843" r="1.49146" fill="#BCBCBC"/>
<circle cx="883.09" cy="684.236" r="1.49146" fill="#BCBCBC"/>
<circle cx="469.459" cy="56.8313" r="1.49146" fill="#BCBCBC"/>
<circle cx="469.459" cy="686.225" r="1.49146" fill="#BCBCBC"/>
<circle cx="1298.71" cy="54.843" r="1.49146" fill="#BCBCBC"/>
<circle cx="1660.64" cy="54.843" r="1.49146" fill="#BCBCBC"/>
<circle cx="1298.71" cy="684.236" r="1.49146" fill="#BCBCBC"/>
<circle cx="1660.64" cy="684.236" r="1.49146" fill="#BCBCBC"/>
<circle cx="53.8411" cy="267.624" r="1.49146" fill="#BCBCBC"/>
<circle cx="53.8411" cy="897.017" r="1.49146" fill="#BCBCBC"/>
<circle cx="883.09" cy="265.635" r="1.49146" fill="#BCBCBC"/>
<circle cx="883.09" cy="895.029" r="1.49146" fill="#BCBCBC"/>
<circle cx="469.459" cy="267.624" r="1.49146" fill="#BCBCBC"/>
<circle cx="469.459" cy="897.017" r="1.49146" fill="#BCBCBC"/>
<circle cx="1298.71" cy="265.635" r="1.49146" fill="#BCBCBC"/>
<circle cx="1660.64" cy="265.635" r="1.49146" fill="#BCBCBC"/>
<circle cx="1298.71" cy="895.029" r="1.49146" fill="#BCBCBC"/>
<circle cx="1660.64" cy="895.029" r="1.49146" fill="#BCBCBC"/>
<circle cx="53.8411" cy="478.415" r="1.49146" fill="#BCBCBC"/>
<circle cx="883.09" cy="476.427" r="1.49146" fill="#BCBCBC"/>
<circle cx="469.459" cy="478.415" r="1.49146" fill="#BCBCBC"/>
<circle cx="1298.71" cy="476.427" r="1.49146" fill="#BCBCBC"/>
<circle cx="1660.64" cy="476.427" r="1.49146" fill="#BCBCBC"/>
<circle cx="53.8411" cy="162.227" r="1.49146" fill="#BCBCBC"/>
<circle cx="53.8411" cy="791.621" r="1.49146" fill="#BCBCBC"/>
<circle cx="883.09" cy="160.239" r="1.49146" fill="#BCBCBC"/>
<circle cx="883.09" cy="789.632" r="1.49146" fill="#BCBCBC"/>
<circle cx="469.459" cy="162.227" r="1.49146" fill="#BCBCBC"/>
<circle cx="469.459" cy="791.621" r="1.49146" fill="#BCBCBC"/>
<circle cx="1298.71" cy="160.239" r="1.49146" fill="#BCBCBC"/>
<circle cx="1660.64" cy="160.239" r="1.49146" fill="#BCBCBC"/>
<circle cx="1298.71" cy="789.632" r="1.49146" fill="#BCBCBC"/>
<circle cx="1660.64" cy="789.632" r="1.49146" fill="#BCBCBC"/>
<circle cx="53.8411" cy="373.019" r="1.49146" fill="#BCBCBC"/>
<circle cx="883.09" cy="371.031" r="1.49146" fill="#BCBCBC"/>
<circle cx="469.459" cy="373.019" r="1.49146" fill="#BCBCBC"/>
<circle cx="1298.71" cy="371.031" r="1.49146" fill="#BCBCBC"/>
<circle cx="1660.64" cy="371.031" r="1.49146" fill="#BCBCBC"/>
<circle cx="53.8411" cy="583.812" r="1.49146" fill="#BCBCBC"/>
<circle cx="883.09" cy="581.823" r="1.49146" fill="#BCBCBC"/>
<circle cx="469.459" cy="583.812" r="1.49146" fill="#BCBCBC"/>
<circle cx="1298.71" cy="581.823" r="1.49146" fill="#BCBCBC"/>
<circle cx="1660.64" cy="581.823" r="1.49146" fill="#BCBCBC"/>
<circle cx="260.656" cy="4.13281" r="1.49146" fill="#BCBCBC"/>
<circle cx="260.656" cy="633.527" r="1.49146" fill="#BCBCBC"/>
<circle cx="1089.9" cy="2.14429" r="1.49146" fill="#BCBCBC"/>
<circle cx="1089.9" cy="631.538" r="1.49146" fill="#BCBCBC"/>
<circle cx="676.275" cy="4.13281" r="1.49146" fill="#BCBCBC"/>
<circle cx="676.275" cy="633.527" r="1.49146" fill="#BCBCBC"/>
<circle cx="1505.52" cy="2.14429" r="1.49146" fill="#BCBCBC"/>
<circle cx="1867.45" cy="2.14429" r="1.49146" fill="#BCBCBC"/>
<circle cx="1505.52" cy="631.538" r="1.49146" fill="#BCBCBC"/>
<circle cx="1867.45" cy="631.538" r="1.49146" fill="#BCBCBC"/>
<circle cx="260.656" cy="214.925" r="1.49146" fill="#BCBCBC"/>
<circle cx="260.656" cy="844.319" r="1.49146" fill="#BCBCBC"/>
<circle cx="1089.9" cy="212.937" r="1.49146" fill="#BCBCBC"/>
<circle cx="1089.9" cy="842.331" r="1.49146" fill="#BCBCBC"/>
<circle cx="676.275" cy="214.925" r="1.49146" fill="#BCBCBC"/>
<circle cx="676.275" cy="844.319" r="1.49146" fill="#BCBCBC"/>
<circle cx="1505.52" cy="212.937" r="1.49146" fill="#BCBCBC"/>
<circle cx="1867.45" cy="212.937" r="1.49146" fill="#BCBCBC"/>
<circle cx="1505.52" cy="842.331" r="1.49146" fill="#BCBCBC"/>
<circle cx="1867.45" cy="842.331" r="1.49146" fill="#BCBCBC"/>
<circle cx="260.656" cy="425.718" r="1.49146" fill="#BCBCBC"/>
<circle cx="1089.9" cy="423.729" r="1.49146" fill="#BCBCBC"/>
<circle cx="676.275" cy="425.718" r="1.49146" fill="#BCBCBC"/>
<circle cx="1505.52" cy="423.729" r="1.49146" fill="#BCBCBC"/>
<circle cx="1867.45" cy="423.729" r="1.49146" fill="#BCBCBC"/>
<circle cx="260.656" cy="109.529" r="1.49146" fill="#BCBCBC"/>
<circle cx="260.656" cy="738.923" r="1.49146" fill="#BCBCBC"/>
<circle cx="1089.9" cy="107.541" r="1.49146" fill="#BCBCBC"/>
<circle cx="1089.9" cy="736.935" r="1.49146" fill="#BCBCBC"/>
<circle cx="676.275" cy="109.529" r="1.49146" fill="#BCBCBC"/>
<circle cx="676.275" cy="738.923" r="1.49146" fill="#BCBCBC"/>
<circle cx="1505.52" cy="107.541" r="1.49146" fill="#BCBCBC"/>
<circle cx="1867.45" cy="107.541" r="1.49146" fill="#BCBCBC"/>
<circle cx="1505.52" cy="736.935" r="1.49146" fill="#BCBCBC"/>
<circle cx="1867.45" cy="736.935" r="1.49146" fill="#BCBCBC"/>
<circle cx="260.656" cy="320.321" r="1.49146" fill="#BCBCBC"/>
<circle cx="260.656" cy="949.715" r="1.49146" fill="#BCBCBC"/>
<circle cx="1089.9" cy="318.333" r="1.49146" fill="#BCBCBC"/>
<circle cx="1089.9" cy="947.728" r="1.49146" fill="#BCBCBC"/>
<circle cx="676.275" cy="320.321" r="1.49146" fill="#BCBCBC"/>
<circle cx="676.275" cy="949.715" r="1.49146" fill="#BCBCBC"/>
<circle cx="1505.52" cy="318.333" r="1.49146" fill="#BCBCBC"/>
<circle cx="1867.45" cy="318.333" r="1.49146" fill="#BCBCBC"/>
<circle cx="1505.52" cy="947.728" r="1.49146" fill="#BCBCBC"/>
<circle cx="1867.45" cy="947.728" r="1.49146" fill="#BCBCBC"/>
<circle cx="260.656" cy="531.114" r="1.49146" fill="#BCBCBC"/>
<circle cx="1089.9" cy="529.125" r="1.49146" fill="#BCBCBC"/>
<circle cx="676.275" cy="531.114" r="1.49146" fill="#BCBCBC"/>
<circle cx="1505.52" cy="529.125" r="1.49146" fill="#BCBCBC"/>
<circle cx="1867.45" cy="529.125" r="1.49146" fill="#BCBCBC"/>
<circle cx="260.656" cy="56.8313" r="1.49146" fill="#BCBCBC"/>
<circle cx="260.656" cy="686.225" r="1.49146" fill="#BCBCBC"/>
<circle cx="1089.9" cy="54.843" r="1.49146" fill="#BCBCBC"/>
<circle cx="1089.9" cy="684.236" r="1.49146" fill="#BCBCBC"/>
<circle cx="676.275" cy="56.8313" r="1.49146" fill="#BCBCBC"/>
<circle cx="676.275" cy="686.225" r="1.49146" fill="#BCBCBC"/>
<circle cx="1505.52" cy="54.843" r="1.49146" fill="#BCBCBC"/>
<circle cx="1867.45" cy="54.843" r="1.49146" fill="#BCBCBC"/>
<circle cx="1505.52" cy="684.236" r="1.49146" fill="#BCBCBC"/>
<circle cx="1867.45" cy="684.236" r="1.49146" fill="#BCBCBC"/>
<circle cx="260.656" cy="267.624" r="1.49146" fill="#BCBCBC"/>
<circle cx="260.656" cy="897.017" r="1.49146" fill="#BCBCBC"/>
<circle cx="1089.9" cy="265.635" r="1.49146" fill="#BCBCBC"/>
<circle cx="1089.9" cy="895.029" r="1.49146" fill="#BCBCBC"/>
<circle cx="676.275" cy="267.624" r="1.49146" fill="#BCBCBC"/>
<circle cx="676.275" cy="897.017" r="1.49146" fill="#BCBCBC"/>
<circle cx="1505.52" cy="265.635" r="1.49146" fill="#BCBCBC"/>
<circle cx="1867.45" cy="265.635" r="1.49146" fill="#BCBCBC"/>
<circle cx="1505.52" cy="895.029" r="1.49146" fill="#BCBCBC"/>
<circle cx="1867.45" cy="895.029" r="1.49146" fill="#BCBCBC"/>
<circle cx="260.656" cy="478.415" r="1.49146" fill="#BCBCBC"/>
<circle cx="1089.9" cy="476.427" r="1.49146" fill="#BCBCBC"/>
<circle cx="676.275" cy="478.415" r="1.49146" fill="#BCBCBC"/>
<circle cx="1505.52" cy="476.427" r="1.49146" fill="#BCBCBC"/>
<circle cx="1867.45" cy="476.427" r="1.49146" fill="#BCBCBC"/>
<circle cx="260.656" cy="162.227" r="1.49146" fill="#BCBCBC"/>
<circle cx="260.656" cy="791.621" r="1.49146" fill="#BCBCBC"/>
<circle cx="1089.9" cy="160.239" r="1.49146" fill="#BCBCBC"/>
<circle cx="1089.9" cy="789.632" r="1.49146" fill="#BCBCBC"/>
<circle cx="676.275" cy="162.227" r="1.49146" fill="#BCBCBC"/>
<circle cx="676.275" cy="791.621" r="1.49146" fill="#BCBCBC"/>
<circle cx="1505.52" cy="160.239" r="1.49146" fill="#BCBCBC"/>
<circle cx="1867.45" cy="160.239" r="1.49146" fill="#BCBCBC"/>
<circle cx="1505.52" cy="789.632" r="1.49146" fill="#BCBCBC"/>
<circle cx="1867.45" cy="789.632" r="1.49146" fill="#BCBCBC"/>
<circle cx="260.656" cy="373.019" r="1.49146" fill="#BCBCBC"/>
<circle cx="1089.9" cy="371.031" r="1.49146" fill="#BCBCBC"/>
<circle cx="676.275" cy="373.019" r="1.49146" fill="#BCBCBC"/>
<circle cx="1505.52" cy="371.031" r="1.49146" fill="#BCBCBC"/>
<circle cx="1867.45" cy="371.031" r="1.49146" fill="#BCBCBC"/>
<circle cx="260.656" cy="583.812" r="1.49146" fill="#BCBCBC"/>
<circle cx="1089.9" cy="581.823" r="1.49146" fill="#BCBCBC"/>
<circle cx="676.275" cy="583.812" r="1.49146" fill="#BCBCBC"/>
<circle cx="1505.52" cy="581.823" r="1.49146" fill="#BCBCBC"/>
<circle cx="1867.45" cy="581.823" r="1.49146" fill="#BCBCBC"/>
<circle cx="105.545" cy="4.13281" r="1.49146" fill="#BCBCBC"/>
<circle cx="105.545" cy="633.527" r="1.49146" fill="#BCBCBC"/>
<circle cx="934.794" cy="2.14429" r="1.49146" fill="#BCBCBC"/>
<circle cx="934.794" cy="631.538" r="1.49146" fill="#BCBCBC"/>
<circle cx="521.163" cy="4.13281" r="1.49146" fill="#BCBCBC"/>
<circle cx="521.163" cy="633.527" r="1.49146" fill="#BCBCBC"/>
<circle cx="1350.41" cy="2.14429" r="1.49146" fill="#BCBCBC"/>
<circle cx="1712.34" cy="2.14429" r="1.49146" fill="#BCBCBC"/>
<circle cx="1350.41" cy="631.538" r="1.49146" fill="#BCBCBC"/>
<circle cx="1712.34" cy="631.538" r="1.49146" fill="#BCBCBC"/>
<circle cx="105.545" cy="214.925" r="1.49146" fill="#BCBCBC"/>
<circle cx="105.545" cy="844.319" r="1.49146" fill="#BCBCBC"/>
<circle cx="934.794" cy="212.937" r="1.49146" fill="#BCBCBC"/>
<circle cx="934.794" cy="842.331" r="1.49146" fill="#BCBCBC"/>
<circle cx="521.163" cy="214.925" r="1.49146" fill="#BCBCBC"/>
<circle cx="521.163" cy="844.319" r="1.49146" fill="#BCBCBC"/>
<circle cx="1350.41" cy="212.937" r="1.49146" fill="#BCBCBC"/>
<circle cx="1712.34" cy="212.937" r="1.49146" fill="#BCBCBC"/>
<circle cx="1350.41" cy="842.331" r="1.49146" fill="#BCBCBC"/>
<circle cx="1712.34" cy="842.331" r="1.49146" fill="#BCBCBC"/>
<circle cx="105.545" cy="425.718" r="1.49146" fill="#BCBCBC"/>
<circle cx="934.794" cy="423.729" r="1.49146" fill="#BCBCBC"/>
<circle cx="521.163" cy="425.718" r="1.49146" fill="#BCBCBC"/>
<circle cx="1350.41" cy="423.729" r="1.49146" fill="#BCBCBC"/>
<circle cx="1712.34" cy="423.729" r="1.49146" fill="#BCBCBC"/>
<circle cx="105.545" cy="109.529" r="1.49146" fill="#BCBCBC"/>
<circle cx="105.545" cy="738.923" r="1.49146" fill="#BCBCBC"/>
<circle cx="934.794" cy="107.541" r="1.49146" fill="#BCBCBC"/>
<circle cx="934.794" cy="736.935" r="1.49146" fill="#BCBCBC"/>
<circle cx="521.163" cy="109.529" r="1.49146" fill="#BCBCBC"/>
<circle cx="521.163" cy="738.923" r="1.49146" fill="#BCBCBC"/>
<circle cx="1350.41" cy="107.541" r="1.49146" fill="#BCBCBC"/>
<circle cx="1712.34" cy="107.541" r="1.49146" fill="#BCBCBC"/>
<circle cx="1350.41" cy="736.935" r="1.49146" fill="#BCBCBC"/>
<circle cx="1712.34" cy="736.935" r="1.49146" fill="#BCBCBC"/>
<circle cx="105.545" cy="320.321" r="1.49146" fill="#BCBCBC"/>
<circle cx="105.545" cy="949.715" r="1.49146" fill="#BCBCBC"/>
<circle cx="934.794" cy="318.333" r="1.49146" fill="#BCBCBC"/>
<circle cx="934.794" cy="947.728" r="1.49146" fill="#BCBCBC"/>
<circle cx="521.163" cy="320.321" r="1.49146" fill="#BCBCBC"/>
<circle cx="521.163" cy="949.715" r="1.49146" fill="#BCBCBC"/>
<circle cx="1350.41" cy="318.333" r="1.49146" fill="#BCBCBC"/>
<circle cx="1712.34" cy="318.333" r="1.49146" fill="#BCBCBC"/>
<circle cx="1350.41" cy="947.728" r="1.49146" fill="#BCBCBC"/>
<circle cx="1712.34" cy="947.728" r="1.49146" fill="#BCBCBC"/>
<circle cx="105.545" cy="531.114" r="1.49146" fill="#BCBCBC"/>
<circle cx="934.794" cy="529.125" r="1.49146" fill="#BCBCBC"/>
<circle cx="521.163" cy="531.114" r="1.49146" fill="#BCBCBC"/>
<circle cx="1350.41" cy="529.125" r="1.49146" fill="#BCBCBC"/>
<circle cx="1712.34" cy="529.125" r="1.49146" fill="#BCBCBC"/>
<circle cx="105.545" cy="56.8313" r="1.49146" fill="#BCBCBC"/>
<circle cx="105.545" cy="686.225" r="1.49146" fill="#BCBCBC"/>
<circle cx="934.794" cy="54.843" r="1.49146" fill="#BCBCBC"/>
<circle cx="934.794" cy="684.236" r="1.49146" fill="#BCBCBC"/>
<circle cx="521.163" cy="56.8313" r="1.49146" fill="#BCBCBC"/>
<circle cx="521.163" cy="686.225" r="1.49146" fill="#BCBCBC"/>
<circle cx="1350.41" cy="54.843" r="1.49146" fill="#BCBCBC"/>
<circle cx="1712.34" cy="54.843" r="1.49146" fill="#BCBCBC"/>
<circle cx="1350.41" cy="684.236" r="1.49146" fill="#BCBCBC"/>
<circle cx="1712.34" cy="684.236" r="1.49146" fill="#BCBCBC"/>
<circle cx="105.545" cy="267.624" r="1.49146" fill="#BCBCBC"/>
<circle cx="105.545" cy="897.017" r="1.49146" fill="#BCBCBC"/>
<circle cx="934.794" cy="265.635" r="1.49146" fill="#BCBCBC"/>
<circle cx="934.794" cy="895.029" r="1.49146" fill="#BCBCBC"/>
<circle cx="521.163" cy="267.624" r="1.49146" fill="#BCBCBC"/>
<circle cx="521.163" cy="897.017" r="1.49146" fill="#BCBCBC"/>
<circle cx="1350.41" cy="265.635" r="1.49146" fill="#BCBCBC"/>
<circle cx="1712.34" cy="265.635" r="1.49146" fill="#BCBCBC"/>
<circle cx="1350.41" cy="895.029" r="1.49146" fill="#BCBCBC"/>
<circle cx="1712.34" cy="895.029" r="1.49146" fill="#BCBCBC"/>
<circle cx="105.545" cy="478.415" r="1.49146" fill="#BCBCBC"/>
<circle cx="934.794" cy="476.427" r="1.49146" fill="#BCBCBC"/>
<circle cx="521.163" cy="478.415" r="1.49146" fill="#BCBCBC"/>
<circle cx="1350.41" cy="476.427" r="1.49146" fill="#BCBCBC"/>
<circle cx="1712.34" cy="476.427" r="1.49146" fill="#BCBCBC"/>
<circle cx="105.545" cy="162.227" r="1.49146" fill="#BCBCBC"/>
<circle cx="105.545" cy="791.621" r="1.49146" fill="#BCBCBC"/>
<circle cx="934.794" cy="160.239" r="1.49146" fill="#BCBCBC"/>
<circle cx="934.794" cy="789.632" r="1.49146" fill="#BCBCBC"/>
<circle cx="521.163" cy="162.227" r="1.49146" fill="#BCBCBC"/>
<circle cx="521.163" cy="791.621" r="1.49146" fill="#BCBCBC"/>
<circle cx="1350.41" cy="160.239" r="1.49146" fill="#BCBCBC"/>
<circle cx="1712.34" cy="160.239" r="1.49146" fill="#BCBCBC"/>
<circle cx="1350.41" cy="789.632" r="1.49146" fill="#BCBCBC"/>
<circle cx="1712.34" cy="789.632" r="1.49146" fill="#BCBCBC"/>
<circle cx="105.545" cy="373.019" r="1.49146" fill="#BCBCBC"/>
<circle cx="934.794" cy="371.031" r="1.49146" fill="#BCBCBC"/>
<circle cx="521.163" cy="373.019" r="1.49146" fill="#BCBCBC"/>
<circle cx="1350.41" cy="371.031" r="1.49146" fill="#BCBCBC"/>
<circle cx="1712.34" cy="371.031" r="1.49146" fill="#BCBCBC"/>
<circle cx="105.545" cy="583.812" r="1.49146" fill="#BCBCBC"/>
<circle cx="934.794" cy="581.823" r="1.49146" fill="#BCBCBC"/>
<circle cx="521.163" cy="583.812" r="1.49146" fill="#BCBCBC"/>
<circle cx="1350.41" cy="581.823" r="1.49146" fill="#BCBCBC"/>
<circle cx="1712.34" cy="581.823" r="1.49146" fill="#BCBCBC"/>
<circle cx="312.36" cy="4.13281" r="1.49146" fill="#BCBCBC"/>
<circle cx="312.36" cy="633.527" r="1.49146" fill="#BCBCBC"/>
<circle cx="1141.61" cy="2.14429" r="1.49146" fill="#BCBCBC"/>
<circle cx="1141.61" cy="631.538" r="1.49146" fill="#BCBCBC"/>
<circle cx="727.979" cy="4.13281" r="1.49146" fill="#BCBCBC"/>
<circle cx="727.979" cy="633.527" r="1.49146" fill="#BCBCBC"/>
<circle cx="1557.23" cy="2.14429" r="1.49146" fill="#BCBCBC"/>
<circle cx="1919.15" cy="2.14429" r="1.49146" fill="#BCBCBC"/>
<circle cx="1557.23" cy="631.538" r="1.49146" fill="#BCBCBC"/>
<circle cx="1919.15" cy="631.538" r="1.49146" fill="#BCBCBC"/>
<circle cx="312.36" cy="214.925" r="1.49146" fill="#BCBCBC"/>
<circle cx="312.36" cy="844.319" r="1.49146" fill="#BCBCBC"/>
<circle cx="1141.61" cy="212.937" r="1.49146" fill="#BCBCBC"/>
<circle cx="1141.61" cy="842.331" r="1.49146" fill="#BCBCBC"/>
<circle cx="727.979" cy="214.925" r="1.49146" fill="#BCBCBC"/>
<circle cx="727.979" cy="844.319" r="1.49146" fill="#BCBCBC"/>
<circle cx="1557.23" cy="212.937" r="1.49146" fill="#BCBCBC"/>
<circle cx="1919.15" cy="212.937" r="1.49146" fill="#BCBCBC"/>
<circle cx="1557.23" cy="842.331" r="1.49146" fill="#BCBCBC"/>
<circle cx="1919.15" cy="842.331" r="1.49146" fill="#BCBCBC"/>
<circle cx="312.36" cy="425.718" r="1.49146" fill="#BCBCBC"/>
<circle cx="1141.61" cy="423.729" r="1.49146" fill="#BCBCBC"/>
<circle cx="727.979" cy="425.718" r="1.49146" fill="#BCBCBC"/>
<circle cx="1557.23" cy="423.729" r="1.49146" fill="#BCBCBC"/>
<circle cx="1919.15" cy="423.729" r="1.49146" fill="#BCBCBC"/>
<circle cx="312.36" cy="109.529" r="1.49146" fill="#BCBCBC"/>
<circle cx="312.36" cy="738.923" r="1.49146" fill="#BCBCBC"/>
<circle cx="1141.61" cy="107.541" r="1.49146" fill="#BCBCBC"/>
<circle cx="1141.61" cy="736.935" r="1.49146" fill="#BCBCBC"/>
<circle cx="727.979" cy="109.529" r="1.49146" fill="#BCBCBC"/>
<circle cx="727.979" cy="738.923" r="1.49146" fill="#BCBCBC"/>
<circle cx="1557.23" cy="107.541" r="1.49146" fill="#BCBCBC"/>
<circle cx="1919.15" cy="107.541" r="1.49146" fill="#BCBCBC"/>
<circle cx="1557.23" cy="736.935" r="1.49146" fill="#BCBCBC"/>
<circle cx="1919.15" cy="736.935" r="1.49146" fill="#BCBCBC"/>
<circle cx="312.36" cy="320.321" r="1.49146" fill="#BCBCBC"/>
<circle cx="312.36" cy="949.715" r="1.49146" fill="#BCBCBC"/>
<circle cx="1141.61" cy="318.333" r="1.49146" fill="#BCBCBC"/>
<circle cx="1141.61" cy="947.728" r="1.49146" fill="#BCBCBC"/>
<circle cx="727.979" cy="320.321" r="1.49146" fill="#BCBCBC"/>
<circle cx="727.979" cy="949.715" r="1.49146" fill="#BCBCBC"/>
<circle cx="1557.23" cy="318.333" r="1.49146" fill="#BCBCBC"/>
<circle cx="1919.15" cy="318.333" r="1.49146" fill="#BCBCBC"/>
<circle cx="1557.23" cy="947.728" r="1.49146" fill="#BCBCBC"/>
<circle cx="1919.15" cy="947.728" r="1.49146" fill="#BCBCBC"/>
<circle cx="312.36" cy="531.114" r="1.49146" fill="#BCBCBC"/>
<circle cx="1141.61" cy="529.125" r="1.49146" fill="#BCBCBC"/>
<circle cx="727.979" cy="531.114" r="1.49146" fill="#BCBCBC"/>
<circle cx="1557.23" cy="529.125" r="1.49146" fill="#BCBCBC"/>
<circle cx="1919.15" cy="529.125" r="1.49146" fill="#BCBCBC"/>
<circle cx="312.36" cy="56.8313" r="1.49146" fill="#BCBCBC"/>
<circle cx="312.36" cy="686.225" r="1.49146" fill="#BCBCBC"/>
<circle cx="1141.61" cy="54.843" r="1.49146" fill="#BCBCBC"/>
<circle cx="1141.61" cy="684.236" r="1.49146" fill="#BCBCBC"/>
<circle cx="727.979" cy="56.8313" r="1.49146" fill="#BCBCBC"/>
<circle cx="727.979" cy="686.225" r="1.49146" fill="#BCBCBC"/>
<circle cx="1557.23" cy="54.843" r="1.49146" fill="#BCBCBC"/>
<circle cx="1919.15" cy="54.843" r="1.49146" fill="#BCBCBC"/>
<circle cx="1557.23" cy="684.236" r="1.49146" fill="#BCBCBC"/>
<circle cx="1919.15" cy="684.236" r="1.49146" fill="#BCBCBC"/>
<circle cx="312.36" cy="267.624" r="1.49146" fill="#BCBCBC"/>
<circle cx="312.36" cy="897.017" r="1.49146" fill="#BCBCBC"/>
<circle cx="1141.61" cy="265.635" r="1.49146" fill="#BCBCBC"/>
<circle cx="1141.61" cy="895.029" r="1.49146" fill="#BCBCBC"/>
<circle cx="727.979" cy="267.624" r="1.49146" fill="#BCBCBC"/>
<circle cx="727.979" cy="897.017" r="1.49146" fill="#BCBCBC"/>
<circle cx="1557.23" cy="265.635" r="1.49146" fill="#BCBCBC"/>
<circle cx="1919.15" cy="265.635" r="1.49146" fill="#BCBCBC"/>
<circle cx="1557.23" cy="895.029" r="1.49146" fill="#BCBCBC"/>
<circle cx="1919.15" cy="895.029" r="1.49146" fill="#BCBCBC"/>
<circle cx="312.36" cy="478.415" r="1.49146" fill="#BCBCBC"/>
<circle cx="1141.61" cy="476.427" r="1.49146" fill="#BCBCBC"/>
<circle cx="727.979" cy="478.415" r="1.49146" fill="#BCBCBC"/>
<circle cx="1557.23" cy="476.427" r="1.49146" fill="#BCBCBC"/>
<circle cx="1919.15" cy="476.427" r="1.49146" fill="#BCBCBC"/>
<circle cx="312.36" cy="162.227" r="1.49146" fill="#BCBCBC"/>
<circle cx="312.36" cy="791.621" r="1.49146" fill="#BCBCBC"/>
<circle cx="1141.61" cy="160.239" r="1.49146" fill="#BCBCBC"/>
<circle cx="1141.61" cy="789.632" r="1.49146" fill="#BCBCBC"/>
<circle cx="727.979" cy="162.227" r="1.49146" fill="#BCBCBC"/>
<circle cx="727.979" cy="791.621" r="1.49146" fill="#BCBCBC"/>
<circle cx="1557.23" cy="160.239" r="1.49146" fill="#BCBCBC"/>
<circle cx="1919.15" cy="160.239" r="1.49146" fill="#BCBCBC"/>
<circle cx="1557.23" cy="789.632" r="1.49146" fill="#BCBCBC"/>
<circle cx="1919.15" cy="789.632" r="1.49146" fill="#BCBCBC"/>
<circle cx="312.36" cy="373.019" r="1.49146" fill="#BCBCBC"/>
<circle cx="1141.61" cy="371.031" r="1.49146" fill="#BCBCBC"/>
<circle cx="727.979" cy="373.019" r="1.49146" fill="#BCBCBC"/>
<circle cx="1557.23" cy="371.031" r="1.49146" fill="#BCBCBC"/>
<circle cx="1919.15" cy="371.031" r="1.49146" fill="#BCBCBC"/>
<circle cx="312.36" cy="583.812" r="1.49146" fill="#BCBCBC"/>
<circle cx="1141.61" cy="581.823" r="1.49146" fill="#BCBCBC"/>
<circle cx="727.979" cy="583.812" r="1.49146" fill="#BCBCBC"/>
<circle cx="1557.23" cy="581.823" r="1.49146" fill="#BCBCBC"/>
<circle cx="1919.15" cy="581.823" r="1.49146" fill="#BCBCBC"/>
<circle cx="157.248" cy="4.13281" r="1.49146" fill="#BCBCBC"/>
<circle cx="157.248" cy="633.527" r="1.49146" fill="#BCBCBC"/>
<circle cx="986.497" cy="2.14429" r="1.49146" fill="#BCBCBC"/>
<circle cx="986.497" cy="631.538" r="1.49146" fill="#BCBCBC"/>
<circle cx="572.866" cy="4.13281" r="1.49146" fill="#BCBCBC"/>
<circle cx="572.866" cy="633.527" r="1.49146" fill="#BCBCBC"/>
<circle cx="1402.12" cy="2.14429" r="1.49146" fill="#BCBCBC"/>
<circle cx="1764.04" cy="2.14429" r="1.49146" fill="#BCBCBC"/>
<circle cx="1402.12" cy="631.538" r="1.49146" fill="#BCBCBC"/>
<circle cx="1764.04" cy="631.538" r="1.49146" fill="#BCBCBC"/>
<circle cx="157.248" cy="214.925" r="1.49146" fill="#BCBCBC"/>
<circle cx="157.248" cy="844.319" r="1.49146" fill="#BCBCBC"/>
<circle cx="986.497" cy="212.937" r="1.49146" fill="#BCBCBC"/>
<circle cx="986.497" cy="842.331" r="1.49146" fill="#BCBCBC"/>
<circle cx="572.866" cy="214.925" r="1.49146" fill="#BCBCBC"/>
<circle cx="572.866" cy="844.319" r="1.49146" fill="#BCBCBC"/>
<circle cx="1402.12" cy="212.937" r="1.49146" fill="#BCBCBC"/>
<circle cx="1764.04" cy="212.937" r="1.49146" fill="#BCBCBC"/>
<circle cx="1402.12" cy="842.331" r="1.49146" fill="#BCBCBC"/>
<circle cx="1764.04" cy="842.331" r="1.49146" fill="#BCBCBC"/>
<circle cx="157.248" cy="425.718" r="1.49146" fill="#BCBCBC"/>
<circle cx="986.497" cy="423.729" r="1.49146" fill="#BCBCBC"/>
<circle cx="572.866" cy="425.718" r="1.49146" fill="#BCBCBC"/>
<circle cx="1402.12" cy="423.729" r="1.49146" fill="#BCBCBC"/>
<circle cx="1764.04" cy="423.729" r="1.49146" fill="#BCBCBC"/>
<circle cx="157.248" cy="109.529" r="1.49146" fill="#BCBCBC"/>
<circle cx="157.248" cy="738.923" r="1.49146" fill="#BCBCBC"/>
<circle cx="986.497" cy="107.541" r="1.49146" fill="#BCBCBC"/>
<circle cx="986.497" cy="736.935" r="1.49146" fill="#BCBCBC"/>
<circle cx="572.866" cy="109.529" r="1.49146" fill="#BCBCBC"/>
<circle cx="572.866" cy="738.923" r="1.49146" fill="#BCBCBC"/>
<circle cx="1402.12" cy="107.541" r="1.49146" fill="#BCBCBC"/>
<circle cx="1764.04" cy="107.541" r="1.49146" fill="#BCBCBC"/>
<circle cx="1402.12" cy="736.935" r="1.49146" fill="#BCBCBC"/>
<circle cx="1764.04" cy="736.935" r="1.49146" fill="#BCBCBC"/>
<circle cx="157.248" cy="320.321" r="1.49146" fill="#BCBCBC"/>
<circle cx="157.248" cy="949.715" r="1.49146" fill="#BCBCBC"/>
<circle cx="986.497" cy="318.333" r="1.49146" fill="#BCBCBC"/>
<circle cx="986.497" cy="947.728" r="1.49146" fill="#BCBCBC"/>
<circle cx="572.866" cy="320.321" r="1.49146" fill="#BCBCBC"/>
<circle cx="572.866" cy="949.715" r="1.49146" fill="#BCBCBC"/>
<circle cx="1402.12" cy="318.333" r="1.49146" fill="#BCBCBC"/>
<circle cx="1764.04" cy="318.333" r="1.49146" fill="#BCBCBC"/>
<circle cx="1402.12" cy="947.728" r="1.49146" fill="#BCBCBC"/>
<circle cx="1764.04" cy="947.728" r="1.49146" fill="#BCBCBC"/>
<circle cx="157.248" cy="531.114" r="1.49146" fill="#BCBCBC"/>
<circle cx="986.497" cy="529.125" r="1.49146" fill="#BCBCBC"/>
<circle cx="572.866" cy="531.114" r="1.49146" fill="#BCBCBC"/>
<circle cx="1402.12" cy="529.125" r="1.49146" fill="#BCBCBC"/>
<circle cx="1764.04" cy="529.125" r="1.49146" fill="#BCBCBC"/>
<circle cx="157.248" cy="56.8313" r="1.49146" fill="#BCBCBC"/>
<circle cx="157.248" cy="686.225" r="1.49146" fill="#BCBCBC"/>
<circle cx="986.497" cy="54.843" r="1.49146" fill="#BCBCBC"/>
<circle cx="986.497" cy="684.236" r="1.49146" fill="#BCBCBC"/>
<circle cx="572.866" cy="56.8313" r="1.49146" fill="#BCBCBC"/>
<circle cx="572.866" cy="686.225" r="1.49146" fill="#BCBCBC"/>
<circle cx="1402.12" cy="54.843" r="1.49146" fill="#BCBCBC"/>
<circle cx="1764.04" cy="54.843" r="1.49146" fill="#BCBCBC"/>
<circle cx="1402.12" cy="684.236" r="1.49146" fill="#BCBCBC"/>
<circle cx="1764.04" cy="684.236" r="1.49146" fill="#BCBCBC"/>
<circle cx="157.248" cy="267.624" r="1.49146" fill="#BCBCBC"/>
<circle cx="157.248" cy="897.017" r="1.49146" fill="#BCBCBC"/>
<circle cx="986.497" cy="265.635" r="1.49146" fill="#BCBCBC"/>
<circle cx="986.497" cy="895.029" r="1.49146" fill="#BCBCBC"/>
<circle cx="572.866" cy="267.624" r="1.49146" fill="#BCBCBC"/>
<circle cx="572.866" cy="897.017" r="1.49146" fill="#BCBCBC"/>
<circle cx="1402.12" cy="265.635" r="1.49146" fill="#BCBCBC"/>
<circle cx="1764.04" cy="265.635" r="1.49146" fill="#BCBCBC"/>
<circle cx="1402.12" cy="895.029" r="1.49146" fill="#BCBCBC"/>
<circle cx="1764.04" cy="895.029" r="1.49146" fill="#BCBCBC"/>
<circle cx="157.248" cy="478.415" r="1.49146" fill="#BCBCBC"/>
<circle cx="986.497" cy="476.427" r="1.49146" fill="#BCBCBC"/>
<circle cx="572.866" cy="478.415" r="1.49146" fill="#BCBCBC"/>
<circle cx="1402.12" cy="476.427" r="1.49146" fill="#BCBCBC"/>
<circle cx="1764.04" cy="476.427" r="1.49146" fill="#BCBCBC"/>
<circle cx="157.248" cy="162.227" r="1.49146" fill="#BCBCBC"/>
<circle cx="157.248" cy="791.621" r="1.49146" fill="#BCBCBC"/>
<circle cx="986.497" cy="160.239" r="1.49146" fill="#BCBCBC"/>
<circle cx="986.497" cy="789.632" r="1.49146" fill="#BCBCBC"/>
<circle cx="572.866" cy="162.227" r="1.49146" fill="#BCBCBC"/>
<circle cx="572.866" cy="791.621" r="1.49146" fill="#BCBCBC"/>
<circle cx="1402.12" cy="160.239" r="1.49146" fill="#BCBCBC"/>
<circle cx="1764.04" cy="160.239" r="1.49146" fill="#BCBCBC"/>
<circle cx="1402.12" cy="789.632" r="1.49146" fill="#BCBCBC"/>
<circle cx="1764.04" cy="789.632" r="1.49146" fill="#BCBCBC"/>
<circle cx="157.248" cy="373.019" r="1.49146" fill="#BCBCBC"/>
<circle cx="986.497" cy="371.031" r="1.49146" fill="#BCBCBC"/>
<circle cx="572.866" cy="373.019" r="1.49146" fill="#BCBCBC"/>
<circle cx="1402.12" cy="371.031" r="1.49146" fill="#BCBCBC"/>
<circle cx="1764.04" cy="371.031" r="1.49146" fill="#BCBCBC"/>
<circle cx="157.248" cy="583.812" r="1.49146" fill="#BCBCBC"/>
<circle cx="986.497" cy="581.823" r="1.49146" fill="#BCBCBC"/>
<circle cx="572.866" cy="583.812" r="1.49146" fill="#BCBCBC"/>
<circle cx="1402.12" cy="581.823" r="1.49146" fill="#BCBCBC"/>
<circle cx="1764.04" cy="581.823" r="1.49146" fill="#BCBCBC"/>
<circle cx="364.064" cy="4.13281" r="1.49146" fill="#BCBCBC"/>
<circle cx="364.064" cy="633.527" r="1.49146" fill="#BCBCBC"/>
<circle cx="1193.31" cy="2.14429" r="1.49146" fill="#BCBCBC"/>
<circle cx="1193.31" cy="631.538" r="1.49146" fill="#BCBCBC"/>
<circle cx="779.683" cy="4.13281" r="1.49146" fill="#BCBCBC"/>
<circle cx="779.683" cy="633.527" r="1.49146" fill="#BCBCBC"/>
<circle cx="1608.93" cy="2.14429" r="1.49146" fill="#BCBCBC"/>
<circle cx="1608.93" cy="631.538" r="1.49146" fill="#BCBCBC"/>
<circle cx="364.064" cy="214.925" r="1.49146" fill="#BCBCBC"/>
<circle cx="364.064" cy="844.319" r="1.49146" fill="#BCBCBC"/>
<circle cx="1193.31" cy="212.937" r="1.49146" fill="#BCBCBC"/>
<circle cx="1193.31" cy="842.331" r="1.49146" fill="#BCBCBC"/>
<circle cx="779.683" cy="214.925" r="1.49146" fill="#BCBCBC"/>
<circle cx="779.683" cy="844.319" r="1.49146" fill="#BCBCBC"/>
<circle cx="1608.93" cy="212.937" r="1.49146" fill="#BCBCBC"/>
<circle cx="1608.93" cy="842.331" r="1.49146" fill="#BCBCBC"/>
<circle cx="364.064" cy="425.718" r="1.49146" fill="#BCBCBC"/>
<circle cx="1193.31" cy="423.729" r="1.49146" fill="#BCBCBC"/>
<circle cx="779.683" cy="425.718" r="1.49146" fill="#BCBCBC"/>
<circle cx="1608.93" cy="423.729" r="1.49146" fill="#BCBCBC"/>
<circle cx="364.064" cy="109.529" r="1.49146" fill="#BCBCBC"/>
<circle cx="364.064" cy="738.923" r="1.49146" fill="#BCBCBC"/>
<circle cx="1193.31" cy="107.541" r="1.49146" fill="#BCBCBC"/>
<circle cx="1193.31" cy="736.935" r="1.49146" fill="#BCBCBC"/>
<circle cx="779.683" cy="109.529" r="1.49146" fill="#BCBCBC"/>
<circle cx="779.683" cy="738.923" r="1.49146" fill="#BCBCBC"/>
<circle cx="1608.93" cy="107.541" r="1.49146" fill="#BCBCBC"/>
<circle cx="1608.93" cy="736.935" r="1.49146" fill="#BCBCBC"/>
<circle cx="364.064" cy="320.321" r="1.49146" fill="#BCBCBC"/>
<circle cx="364.064" cy="949.715" r="1.49146" fill="#BCBCBC"/>
<circle cx="1193.31" cy="318.333" r="1.49146" fill="#BCBCBC"/>
<circle cx="1193.31" cy="947.728" r="1.49146" fill="#BCBCBC"/>
<circle cx="779.683" cy="320.321" r="1.49146" fill="#BCBCBC"/>
<circle cx="779.683" cy="949.715" r="1.49146" fill="#BCBCBC"/>
<circle cx="1608.93" cy="318.333" r="1.49146" fill="#BCBCBC"/>
<circle cx="1608.93" cy="947.728" r="1.49146" fill="#BCBCBC"/>
<circle cx="364.064" cy="531.114" r="1.49146" fill="#BCBCBC"/>
<circle cx="1193.31" cy="529.125" r="1.49146" fill="#BCBCBC"/>
<circle cx="779.683" cy="531.114" r="1.49146" fill="#BCBCBC"/>
<circle cx="1608.93" cy="529.125" r="1.49146" fill="#BCBCBC"/>
<circle cx="364.064" cy="56.8313" r="1.49146" fill="#BCBCBC"/>
<circle cx="364.064" cy="686.225" r="1.49146" fill="#BCBCBC"/>
<circle cx="1193.31" cy="54.843" r="1.49146" fill="#BCBCBC"/>
<circle cx="1193.31" cy="684.236" r="1.49146" fill="#BCBCBC"/>
<circle cx="779.683" cy="56.8313" r="1.49146" fill="#BCBCBC"/>
<circle cx="779.683" cy="686.225" r="1.49146" fill="#BCBCBC"/>
<circle cx="1608.93" cy="54.843" r="1.49146" fill="#BCBCBC"/>
<circle cx="1608.93" cy="684.236" r="1.49146" fill="#BCBCBC"/>
<circle cx="364.064" cy="267.624" r="1.49146" fill="#BCBCBC"/>
<circle cx="364.064" cy="897.017" r="1.49146" fill="#BCBCBC"/>
<circle cx="1193.31" cy="265.635" r="1.49146" fill="#BCBCBC"/>
<circle cx="1193.31" cy="895.029" r="1.49146" fill="#BCBCBC"/>
<circle cx="779.683" cy="267.624" r="1.49146" fill="#BCBCBC"/>
<circle cx="779.683" cy="897.017" r="1.49146" fill="#BCBCBC"/>
<circle cx="1608.93" cy="265.635" r="1.49146" fill="#BCBCBC"/>
<circle cx="1608.93" cy="895.029" r="1.49146" fill="#BCBCBC"/>
<circle cx="364.064" cy="478.415" r="1.49146" fill="#BCBCBC"/>
<circle cx="1193.31" cy="476.427" r="1.49146" fill="#BCBCBC"/>
<circle cx="779.683" cy="478.415" r="1.49146" fill="#BCBCBC"/>
<circle cx="1608.93" cy="476.427" r="1.49146" fill="#BCBCBC"/>
<circle cx="364.064" cy="162.227" r="1.49146" fill="#BCBCBC"/>
<circle cx="364.064" cy="791.621" r="1.49146" fill="#BCBCBC"/>
<circle cx="1193.31" cy="160.239" r="1.49146" fill="#BCBCBC"/>
<circle cx="1193.31" cy="789.632" r="1.49146" fill="#BCBCBC"/>
<circle cx="779.683" cy="162.227" r="1.49146" fill="#BCBCBC"/>
<circle cx="779.683" cy="791.621" r="1.49146" fill="#BCBCBC"/>
<circle cx="1608.93" cy="160.239" r="1.49146" fill="#BCBCBC"/>
<circle cx="1608.93" cy="789.632" r="1.49146" fill="#BCBCBC"/>
<circle cx="364.064" cy="373.019" r="1.49146" fill="#BCBCBC"/>
<circle cx="1193.31" cy="371.031" r="1.49146" fill="#BCBCBC"/>
<circle cx="779.683" cy="373.019" r="1.49146" fill="#BCBCBC"/>
<circle cx="1608.93" cy="371.031" r="1.49146" fill="#BCBCBC"/>
<circle cx="364.064" cy="583.812" r="1.49146" fill="#BCBCBC"/>
<circle cx="1193.31" cy="581.823" r="1.49146" fill="#BCBCBC"/>
<circle cx="779.683" cy="583.812" r="1.49146" fill="#BCBCBC"/>
<circle cx="1608.93" cy="581.823" r="1.49146" fill="#BCBCBC"/>
</svg>
