<svg width="1920" height="951" viewBox="0 0 1920 951" fill="none" xmlns="http://www.w3.org/2000/svg">
<circle cx="1.49146" cy="3.47974" r="1.49146" fill="#BCBCBC"/>
<circle cx="1.49146" cy="632.874" r="1.49146" fill="#BCBCBC"/>
<circle cx="830.74" cy="1.49146" r="1.49146" fill="#BCBCBC"/>
<circle cx="830.74" cy="630.885" r="1.49146" fill="#BCBCBC"/>
<circle cx="417.11" cy="3.47974" r="1.49146" fill="#BCBCBC"/>
<circle cx="417.11" cy="632.874" r="1.49146" fill="#BCBCBC"/>
<circle cx="1246.36" cy="1.49146" r="1.49146" fill="#BCBCBC"/>
<circle cx="1246.36" cy="630.885" r="1.49146" fill="#BCBCBC"/>
<circle cx="1.49146" cy="214.273" r="1.49146" fill="#BCBCBC"/>
<circle cx="1.49146" cy="843.666" r="1.49146" fill="#BCBCBC"/>
<circle cx="830.74" cy="212.283" r="1.49146" fill="#BCBCBC"/>
<circle cx="830.74" cy="841.678" r="1.49146" fill="#BCBCBC"/>
<circle cx="417.11" cy="214.273" r="1.49146" fill="#BCBCBC"/>
<circle cx="417.11" cy="843.666" r="1.49146" fill="#BCBCBC"/>
<circle cx="1246.36" cy="212.283" r="1.49146" fill="#BCBCBC"/>
<circle cx="1246.36" cy="841.678" r="1.49146" fill="#BCBCBC"/>
<circle cx="1.49146" cy="425.065" r="1.49146" fill="#BCBCBC"/>
<circle cx="830.74" cy="423.076" r="1.49146" fill="#BCBCBC"/>
<circle cx="417.11" cy="425.065" r="1.49146" fill="#BCBCBC"/>
<circle cx="1246.36" cy="423.076" r="1.49146" fill="#BCBCBC"/>
<circle cx="1.49146" cy="108.876" r="1.49146" fill="#BCBCBC"/>
<circle cx="1.49146" cy="738.27" r="1.49146" fill="#BCBCBC"/>
<circle cx="830.74" cy="106.888" r="1.49146" fill="#BCBCBC"/>
<circle cx="830.74" cy="736.282" r="1.49146" fill="#BCBCBC"/>
<circle cx="417.11" cy="108.876" r="1.49146" fill="#BCBCBC"/>
<circle cx="417.11" cy="738.27" r="1.49146" fill="#BCBCBC"/>
<circle cx="1246.36" cy="106.888" r="1.49146" fill="#BCBCBC"/>
<circle cx="1246.36" cy="736.282" r="1.49146" fill="#BCBCBC"/>
<circle cx="1.49146" cy="319.668" r="1.49146" fill="#BCBCBC"/>
<circle cx="1.49146" cy="949.062" r="1.49146" fill="#BCBCBC"/>
<circle cx="830.74" cy="317.68" r="1.49146" fill="#BCBCBC"/>
<circle cx="830.74" cy="947.074" r="1.49146" fill="#BCBCBC"/>
<circle cx="417.11" cy="319.668" r="1.49146" fill="#BCBCBC"/>
<circle cx="417.11" cy="949.062" r="1.49146" fill="#BCBCBC"/>
<circle cx="1246.36" cy="317.68" r="1.49146" fill="#BCBCBC"/>
<circle cx="1246.36" cy="947.074" r="1.49146" fill="#BCBCBC"/>
<circle cx="1.49146" cy="530.461" r="1.49146" fill="#BCBCBC"/>
<circle cx="830.74" cy="528.472" r="1.49146" fill="#BCBCBC"/>
<circle cx="417.11" cy="530.461" r="1.49146" fill="#BCBCBC"/>
<circle cx="1246.36" cy="528.472" r="1.49146" fill="#BCBCBC"/>
<circle cx="1.49146" cy="56.179" r="1.49146" fill="#BCBCBC"/>
<circle cx="1.49146" cy="685.572" r="1.49146" fill="#BCBCBC"/>
<circle cx="830.74" cy="54.1897" r="1.49146" fill="#BCBCBC"/>
<circle cx="830.74" cy="683.583" r="1.49146" fill="#BCBCBC"/>
<circle cx="417.11" cy="56.179" r="1.49146" fill="#BCBCBC"/>
<circle cx="417.11" cy="685.572" r="1.49146" fill="#BCBCBC"/>
<circle cx="1246.36" cy="54.1897" r="1.49146" fill="#BCBCBC"/>
<circle cx="1246.36" cy="683.583" r="1.49146" fill="#BCBCBC"/>
<circle cx="1.49146" cy="266.971" r="1.49146" fill="#BCBCBC"/>
<circle cx="1.49146" cy="896.365" r="1.49146" fill="#BCBCBC"/>
<circle cx="830.74" cy="264.982" r="1.49146" fill="#BCBCBC"/>
<circle cx="830.74" cy="894.376" r="1.49146" fill="#BCBCBC"/>
<circle cx="417.11" cy="266.971" r="1.49146" fill="#BCBCBC"/>
<circle cx="417.11" cy="896.365" r="1.49146" fill="#BCBCBC"/>
<circle cx="1246.36" cy="264.982" r="1.49146" fill="#BCBCBC"/>
<circle cx="1246.36" cy="894.376" r="1.49146" fill="#BCBCBC"/>
<circle cx="1.49146" cy="477.762" r="1.49146" fill="#BCBCBC"/>
<circle cx="830.74" cy="475.775" r="1.49146" fill="#BCBCBC"/>
<circle cx="417.11" cy="477.762" r="1.49146" fill="#BCBCBC"/>
<circle cx="1246.36" cy="475.775" r="1.49146" fill="#BCBCBC"/>
<circle cx="1.49146" cy="161.574" r="1.49146" fill="#BCBCBC"/>
<circle cx="1.49146" cy="790.969" r="1.49146" fill="#BCBCBC"/>
<circle cx="830.74" cy="159.585" r="1.49146" fill="#BCBCBC"/>
<circle cx="830.74" cy="788.98" r="1.49146" fill="#BCBCBC"/>
<circle cx="417.11" cy="161.574" r="1.49146" fill="#BCBCBC"/>
<circle cx="417.11" cy="790.969" r="1.49146" fill="#BCBCBC"/>
<circle cx="1246.36" cy="159.585" r="1.49146" fill="#BCBCBC"/>
<circle cx="1246.36" cy="788.98" r="1.49146" fill="#BCBCBC"/>
<circle cx="1.49146" cy="372.365" r="1.49146" fill="#BCBCBC"/>
<circle cx="830.74" cy="370.378" r="1.49146" fill="#BCBCBC"/>
<circle cx="417.11" cy="372.365" r="1.49146" fill="#BCBCBC"/>
<circle cx="1246.36" cy="370.378" r="1.49146" fill="#BCBCBC"/>
<circle cx="1.49146" cy="583.158" r="1.49146" fill="#BCBCBC"/>
<circle cx="830.74" cy="581.17" r="1.49146" fill="#BCBCBC"/>
<circle cx="417.11" cy="583.158" r="1.49146" fill="#BCBCBC"/>
<circle cx="1246.36" cy="581.17" r="1.49146" fill="#BCBCBC"/>
<circle cx="208.307" cy="3.47974" r="1.49146" fill="#BCBCBC"/>
<circle cx="208.307" cy="632.874" r="1.49146" fill="#BCBCBC"/>
<circle cx="1037.56" cy="1.49146" r="1.49146" fill="#BCBCBC"/>
<circle cx="1037.56" cy="630.885" r="1.49146" fill="#BCBCBC"/>
<circle cx="623.926" cy="3.47974" r="1.49146" fill="#BCBCBC"/>
<circle cx="623.926" cy="632.874" r="1.49146" fill="#BCBCBC"/>
<circle cx="1453.18" cy="1.49146" r="1.49146" fill="#BCBCBC"/>
<circle cx="1815.1" cy="1.49146" r="1.49146" fill="#BCBCBC"/>
<circle cx="1453.18" cy="630.885" r="1.49146" fill="#BCBCBC"/>
<circle cx="1815.1" cy="630.885" r="1.49146" fill="#BCBCBC"/>
<circle cx="208.307" cy="214.273" r="1.49146" fill="#BCBCBC"/>
<circle cx="208.307" cy="843.666" r="1.49146" fill="#BCBCBC"/>
<circle cx="1037.56" cy="212.283" r="1.49146" fill="#BCBCBC"/>
<circle cx="1037.56" cy="841.678" r="1.49146" fill="#BCBCBC"/>
<circle cx="623.926" cy="214.273" r="1.49146" fill="#BCBCBC"/>
<circle cx="623.926" cy="843.666" r="1.49146" fill="#BCBCBC"/>
<circle cx="1453.18" cy="212.283" r="1.49146" fill="#BCBCBC"/>
<circle cx="1815.1" cy="212.283" r="1.49146" fill="#BCBCBC"/>
<circle cx="1453.18" cy="841.678" r="1.49146" fill="#BCBCBC"/>
<circle cx="1815.1" cy="841.678" r="1.49146" fill="#BCBCBC"/>
<circle cx="208.307" cy="425.065" r="1.49146" fill="#BCBCBC"/>
<circle cx="1037.56" cy="423.076" r="1.49146" fill="#BCBCBC"/>
<circle cx="623.926" cy="425.065" r="1.49146" fill="#BCBCBC"/>
<circle cx="1453.18" cy="423.076" r="1.49146" fill="#BCBCBC"/>
<circle cx="1815.1" cy="423.076" r="1.49146" fill="#BCBCBC"/>
<circle cx="208.307" cy="108.876" r="1.49146" fill="#BCBCBC"/>
<circle cx="208.307" cy="738.27" r="1.49146" fill="#BCBCBC"/>
<circle cx="1037.56" cy="106.888" r="1.49146" fill="#BCBCBC"/>
<circle cx="1037.56" cy="736.282" r="1.49146" fill="#BCBCBC"/>
<circle cx="623.926" cy="108.876" r="1.49146" fill="#BCBCBC"/>
<circle cx="623.926" cy="738.27" r="1.49146" fill="#BCBCBC"/>
<circle cx="1453.18" cy="106.888" r="1.49146" fill="#BCBCBC"/>
<circle cx="1815.1" cy="106.888" r="1.49146" fill="#BCBCBC"/>
<circle cx="1453.18" cy="736.282" r="1.49146" fill="#BCBCBC"/>
<circle cx="1815.1" cy="736.282" r="1.49146" fill="#BCBCBC"/>
<circle cx="208.307" cy="319.668" r="1.49146" fill="#BCBCBC"/>
<circle cx="208.307" cy="949.062" r="1.49146" fill="#BCBCBC"/>
<circle cx="1037.56" cy="317.68" r="1.49146" fill="#BCBCBC"/>
<circle cx="1037.56" cy="947.074" r="1.49146" fill="#BCBCBC"/>
<circle cx="623.926" cy="319.668" r="1.49146" fill="#BCBCBC"/>
<circle cx="623.926" cy="949.062" r="1.49146" fill="#BCBCBC"/>
<circle cx="1453.18" cy="317.68" r="1.49146" fill="#BCBCBC"/>
<circle cx="1815.1" cy="317.68" r="1.49146" fill="#BCBCBC"/>
<circle cx="1453.18" cy="947.074" r="1.49146" fill="#BCBCBC"/>
<circle cx="1815.1" cy="947.074" r="1.49146" fill="#BCBCBC"/>
<circle cx="208.307" cy="530.461" r="1.49146" fill="#BCBCBC"/>
<circle cx="1037.56" cy="528.472" r="1.49146" fill="#BCBCBC"/>
<circle cx="623.926" cy="530.461" r="1.49146" fill="#BCBCBC"/>
<circle cx="1453.18" cy="528.472" r="1.49146" fill="#BCBCBC"/>
<circle cx="1815.1" cy="528.472" r="1.49146" fill="#BCBCBC"/>
<circle cx="208.307" cy="56.179" r="1.49146" fill="#BCBCBC"/>
<circle cx="208.307" cy="685.572" r="1.49146" fill="#BCBCBC"/>
<circle cx="1037.56" cy="54.1897" r="1.49146" fill="#BCBCBC"/>
<circle cx="1037.56" cy="683.583" r="1.49146" fill="#BCBCBC"/>
<circle cx="623.926" cy="56.179" r="1.49146" fill="#BCBCBC"/>
<circle cx="623.926" cy="685.572" r="1.49146" fill="#BCBCBC"/>
<circle cx="1453.18" cy="54.1897" r="1.49146" fill="#BCBCBC"/>
<circle cx="1815.1" cy="54.1897" r="1.49146" fill="#BCBCBC"/>
<circle cx="1453.18" cy="683.583" r="1.49146" fill="#BCBCBC"/>
<circle cx="1815.1" cy="683.583" r="1.49146" fill="#BCBCBC"/>
<circle cx="208.307" cy="266.971" r="1.49146" fill="#BCBCBC"/>
<circle cx="208.307" cy="896.365" r="1.49146" fill="#BCBCBC"/>
<circle cx="1037.56" cy="264.982" r="1.49146" fill="#BCBCBC"/>
<circle cx="1037.56" cy="894.376" r="1.49146" fill="#BCBCBC"/>
<circle cx="623.926" cy="266.971" r="1.49146" fill="#BCBCBC"/>
<circle cx="623.926" cy="896.365" r="1.49146" fill="#BCBCBC"/>
<circle cx="1453.18" cy="264.982" r="1.49146" fill="#BCBCBC"/>
<circle cx="1815.1" cy="264.982" r="1.49146" fill="#BCBCBC"/>
<circle cx="1453.18" cy="894.376" r="1.49146" fill="#BCBCBC"/>
<circle cx="1815.1" cy="894.376" r="1.49146" fill="#BCBCBC"/>
<circle cx="208.307" cy="477.762" r="1.49146" fill="#BCBCBC"/>
<circle cx="1037.56" cy="475.775" r="1.49146" fill="#BCBCBC"/>
<circle cx="623.926" cy="477.762" r="1.49146" fill="#BCBCBC"/>
<circle cx="1453.18" cy="475.775" r="1.49146" fill="#BCBCBC"/>
<circle cx="1815.1" cy="475.775" r="1.49146" fill="#BCBCBC"/>
<circle cx="208.307" cy="161.574" r="1.49146" fill="#BCBCBC"/>
<circle cx="208.307" cy="790.969" r="1.49146" fill="#BCBCBC"/>
<circle cx="1037.56" cy="159.585" r="1.49146" fill="#BCBCBC"/>
<circle cx="1037.56" cy="788.98" r="1.49146" fill="#BCBCBC"/>
<circle cx="623.926" cy="161.574" r="1.49146" fill="#BCBCBC"/>
<circle cx="623.926" cy="790.969" r="1.49146" fill="#BCBCBC"/>
<circle cx="1453.18" cy="159.585" r="1.49146" fill="#BCBCBC"/>
<circle cx="1815.1" cy="159.585" r="1.49146" fill="#BCBCBC"/>
<circle cx="1453.18" cy="788.98" r="1.49146" fill="#BCBCBC"/>
<circle cx="1815.1" cy="788.98" r="1.49146" fill="#BCBCBC"/>
<circle cx="208.307" cy="372.365" r="1.49146" fill="#BCBCBC"/>
<circle cx="1037.56" cy="370.378" r="1.49146" fill="#BCBCBC"/>
<circle cx="623.926" cy="372.365" r="1.49146" fill="#BCBCBC"/>
<circle cx="1453.18" cy="370.378" r="1.49146" fill="#BCBCBC"/>
<circle cx="1815.1" cy="370.378" r="1.49146" fill="#BCBCBC"/>
<circle cx="208.307" cy="583.158" r="1.49146" fill="#BCBCBC"/>
<circle cx="1037.56" cy="581.17" r="1.49146" fill="#BCBCBC"/>
<circle cx="623.926" cy="583.158" r="1.49146" fill="#BCBCBC"/>
<circle cx="1453.18" cy="581.17" r="1.49146" fill="#BCBCBC"/>
<circle cx="1815.1" cy="581.17" r="1.49146" fill="#BCBCBC"/>
<circle cx="53.1951" cy="3.47974" r="1.49146" fill="#BCBCBC"/>
<circle cx="53.1951" cy="632.874" r="1.49146" fill="#BCBCBC"/>
<circle cx="882.445" cy="1.49146" r="1.49146" fill="#BCBCBC"/>
<circle cx="882.445" cy="630.885" r="1.49146" fill="#BCBCBC"/>
<circle cx="468.814" cy="3.47974" r="1.49146" fill="#BCBCBC"/>
<circle cx="468.814" cy="632.874" r="1.49146" fill="#BCBCBC"/>
<circle cx="1298.06" cy="1.49146" r="1.49146" fill="#BCBCBC"/>
<circle cx="1659.99" cy="1.49146" r="1.49146" fill="#BCBCBC"/>
<circle cx="1298.06" cy="630.885" r="1.49146" fill="#BCBCBC"/>
<circle cx="1659.99" cy="630.885" r="1.49146" fill="#BCBCBC"/>
<circle cx="53.1951" cy="214.273" r="1.49146" fill="#BCBCBC"/>
<circle cx="53.1951" cy="843.666" r="1.49146" fill="#BCBCBC"/>
<circle cx="882.445" cy="212.283" r="1.49146" fill="#BCBCBC"/>
<circle cx="882.445" cy="841.678" r="1.49146" fill="#BCBCBC"/>
<circle cx="468.814" cy="214.273" r="1.49146" fill="#BCBCBC"/>
<circle cx="468.814" cy="843.666" r="1.49146" fill="#BCBCBC"/>
<circle cx="1298.06" cy="212.283" r="1.49146" fill="#BCBCBC"/>
<circle cx="1659.99" cy="212.283" r="1.49146" fill="#BCBCBC"/>
<circle cx="1298.06" cy="841.678" r="1.49146" fill="#BCBCBC"/>
<circle cx="1659.99" cy="841.678" r="1.49146" fill="#BCBCBC"/>
<circle cx="53.1951" cy="425.065" r="1.49146" fill="#BCBCBC"/>
<circle cx="882.445" cy="423.076" r="1.49146" fill="#BCBCBC"/>
<circle cx="468.814" cy="425.065" r="1.49146" fill="#BCBCBC"/>
<circle cx="1298.06" cy="423.076" r="1.49146" fill="#BCBCBC"/>
<circle cx="1659.99" cy="423.076" r="1.49146" fill="#BCBCBC"/>
<circle cx="53.1951" cy="108.876" r="1.49146" fill="#BCBCBC"/>
<circle cx="53.1951" cy="738.27" r="1.49146" fill="#BCBCBC"/>
<circle cx="882.445" cy="106.888" r="1.49146" fill="#BCBCBC"/>
<circle cx="882.445" cy="736.282" r="1.49146" fill="#BCBCBC"/>
<circle cx="468.814" cy="108.876" r="1.49146" fill="#BCBCBC"/>
<circle cx="468.814" cy="738.27" r="1.49146" fill="#BCBCBC"/>
<circle cx="1298.06" cy="106.888" r="1.49146" fill="#BCBCBC"/>
<circle cx="1659.99" cy="106.888" r="1.49146" fill="#BCBCBC"/>
<circle cx="1298.06" cy="736.282" r="1.49146" fill="#BCBCBC"/>
<circle cx="1659.99" cy="736.282" r="1.49146" fill="#BCBCBC"/>
<circle cx="53.1951" cy="319.668" r="1.49146" fill="#BCBCBC"/>
<circle cx="53.1951" cy="949.062" r="1.49146" fill="#BCBCBC"/>
<circle cx="882.445" cy="317.68" r="1.49146" fill="#BCBCBC"/>
<circle cx="882.445" cy="947.074" r="1.49146" fill="#BCBCBC"/>
<circle cx="468.814" cy="319.668" r="1.49146" fill="#BCBCBC"/>
<circle cx="468.814" cy="949.062" r="1.49146" fill="#BCBCBC"/>
<circle cx="1298.06" cy="317.68" r="1.49146" fill="#BCBCBC"/>
<circle cx="1659.99" cy="317.68" r="1.49146" fill="#BCBCBC"/>
<circle cx="1298.06" cy="947.074" r="1.49146" fill="#BCBCBC"/>
<circle cx="1659.99" cy="947.074" r="1.49146" fill="#BCBCBC"/>
<circle cx="53.1951" cy="530.461" r="1.49146" fill="#BCBCBC"/>
<circle cx="882.445" cy="528.472" r="1.49146" fill="#BCBCBC"/>
<circle cx="468.814" cy="530.461" r="1.49146" fill="#BCBCBC"/>
<circle cx="1298.06" cy="528.472" r="1.49146" fill="#BCBCBC"/>
<circle cx="1659.99" cy="528.472" r="1.49146" fill="#BCBCBC"/>
<circle cx="53.1951" cy="56.179" r="1.49146" fill="#BCBCBC"/>
<circle cx="53.1951" cy="685.572" r="1.49146" fill="#BCBCBC"/>
<circle cx="882.445" cy="54.1897" r="1.49146" fill="#BCBCBC"/>
<circle cx="882.445" cy="683.583" r="1.49146" fill="#BCBCBC"/>
<circle cx="468.814" cy="56.179" r="1.49146" fill="#BCBCBC"/>
<circle cx="468.814" cy="685.572" r="1.49146" fill="#BCBCBC"/>
<circle cx="1298.06" cy="54.1897" r="1.49146" fill="#BCBCBC"/>
<circle cx="1659.99" cy="54.1897" r="1.49146" fill="#BCBCBC"/>
<circle cx="1298.06" cy="683.583" r="1.49146" fill="#BCBCBC"/>
<circle cx="1659.99" cy="683.583" r="1.49146" fill="#BCBCBC"/>
<circle cx="53.1951" cy="266.971" r="1.49146" fill="#BCBCBC"/>
<circle cx="53.1951" cy="896.365" r="1.49146" fill="#BCBCBC"/>
<circle cx="882.445" cy="264.982" r="1.49146" fill="#BCBCBC"/>
<circle cx="882.445" cy="894.376" r="1.49146" fill="#BCBCBC"/>
<circle cx="468.814" cy="266.971" r="1.49146" fill="#BCBCBC"/>
<circle cx="468.814" cy="896.365" r="1.49146" fill="#BCBCBC"/>
<circle cx="1298.06" cy="264.982" r="1.49146" fill="#BCBCBC"/>
<circle cx="1659.99" cy="264.982" r="1.49146" fill="#BCBCBC"/>
<circle cx="1298.06" cy="894.376" r="1.49146" fill="#BCBCBC"/>
<circle cx="1659.99" cy="894.376" r="1.49146" fill="#BCBCBC"/>
<circle cx="53.1951" cy="477.762" r="1.49146" fill="#BCBCBC"/>
<circle cx="882.445" cy="475.775" r="1.49146" fill="#BCBCBC"/>
<circle cx="468.814" cy="477.762" r="1.49146" fill="#BCBCBC"/>
<circle cx="1298.06" cy="475.775" r="1.49146" fill="#BCBCBC"/>
<circle cx="1659.99" cy="475.775" r="1.49146" fill="#BCBCBC"/>
<circle cx="53.1951" cy="161.574" r="1.49146" fill="#BCBCBC"/>
<circle cx="53.1951" cy="790.969" r="1.49146" fill="#BCBCBC"/>
<circle cx="882.445" cy="159.585" r="1.49146" fill="#BCBCBC"/>
<circle cx="882.445" cy="788.98" r="1.49146" fill="#BCBCBC"/>
<circle cx="468.814" cy="161.574" r="1.49146" fill="#BCBCBC"/>
<circle cx="468.814" cy="790.969" r="1.49146" fill="#BCBCBC"/>
<circle cx="1298.06" cy="159.585" r="1.49146" fill="#BCBCBC"/>
<circle cx="1659.99" cy="159.585" r="1.49146" fill="#BCBCBC"/>
<circle cx="1298.06" cy="788.98" r="1.49146" fill="#BCBCBC"/>
<circle cx="1659.99" cy="788.98" r="1.49146" fill="#BCBCBC"/>
<circle cx="53.1951" cy="372.365" r="1.49146" fill="#BCBCBC"/>
<circle cx="882.445" cy="370.378" r="1.49146" fill="#BCBCBC"/>
<circle cx="468.814" cy="372.365" r="1.49146" fill="#BCBCBC"/>
<circle cx="1298.06" cy="370.378" r="1.49146" fill="#BCBCBC"/>
<circle cx="1659.99" cy="370.378" r="1.49146" fill="#BCBCBC"/>
<circle cx="53.1951" cy="583.158" r="1.49146" fill="#BCBCBC"/>
<circle cx="882.445" cy="581.17" r="1.49146" fill="#BCBCBC"/>
<circle cx="468.814" cy="583.158" r="1.49146" fill="#BCBCBC"/>
<circle cx="1298.06" cy="581.17" r="1.49146" fill="#BCBCBC"/>
<circle cx="1659.99" cy="581.17" r="1.49146" fill="#BCBCBC"/>
<circle cx="260.01" cy="3.47974" r="1.49146" fill="#BCBCBC"/>
<circle cx="260.01" cy="632.874" r="1.49146" fill="#BCBCBC"/>
<circle cx="1089.26" cy="1.49146" r="1.49146" fill="#BCBCBC"/>
<circle cx="1089.26" cy="630.885" r="1.49146" fill="#BCBCBC"/>
<circle cx="675.629" cy="3.47974" r="1.49146" fill="#BCBCBC"/>
<circle cx="675.629" cy="632.874" r="1.49146" fill="#BCBCBC"/>
<circle cx="1504.88" cy="1.49146" r="1.49146" fill="#BCBCBC"/>
<circle cx="1866.81" cy="1.49146" r="1.49146" fill="#BCBCBC"/>
<circle cx="1504.88" cy="630.885" r="1.49146" fill="#BCBCBC"/>
<circle cx="1866.81" cy="630.885" r="1.49146" fill="#BCBCBC"/>
<circle cx="260.01" cy="214.273" r="1.49146" fill="#BCBCBC"/>
<circle cx="260.01" cy="843.666" r="1.49146" fill="#BCBCBC"/>
<circle cx="1089.26" cy="212.283" r="1.49146" fill="#BCBCBC"/>
<circle cx="1089.26" cy="841.678" r="1.49146" fill="#BCBCBC"/>
<circle cx="675.629" cy="214.273" r="1.49146" fill="#BCBCBC"/>
<circle cx="675.629" cy="843.666" r="1.49146" fill="#BCBCBC"/>
<circle cx="1504.88" cy="212.283" r="1.49146" fill="#BCBCBC"/>
<circle cx="1866.81" cy="212.283" r="1.49146" fill="#BCBCBC"/>
<circle cx="1504.88" cy="841.678" r="1.49146" fill="#BCBCBC"/>
<circle cx="1866.81" cy="841.678" r="1.49146" fill="#BCBCBC"/>
<circle cx="260.01" cy="425.065" r="1.49146" fill="#BCBCBC"/>
<circle cx="1089.26" cy="423.076" r="1.49146" fill="#BCBCBC"/>
<circle cx="675.629" cy="425.065" r="1.49146" fill="#BCBCBC"/>
<circle cx="1504.88" cy="423.076" r="1.49146" fill="#BCBCBC"/>
<circle cx="1866.81" cy="423.076" r="1.49146" fill="#BCBCBC"/>
<circle cx="260.01" cy="108.876" r="1.49146" fill="#BCBCBC"/>
<circle cx="260.01" cy="738.27" r="1.49146" fill="#BCBCBC"/>
<circle cx="1089.26" cy="106.888" r="1.49146" fill="#BCBCBC"/>
<circle cx="1089.26" cy="736.282" r="1.49146" fill="#BCBCBC"/>
<circle cx="675.629" cy="108.876" r="1.49146" fill="#BCBCBC"/>
<circle cx="675.629" cy="738.27" r="1.49146" fill="#BCBCBC"/>
<circle cx="1504.88" cy="106.888" r="1.49146" fill="#BCBCBC"/>
<circle cx="1866.81" cy="106.888" r="1.49146" fill="#BCBCBC"/>
<circle cx="1504.88" cy="736.282" r="1.49146" fill="#BCBCBC"/>
<circle cx="1866.81" cy="736.282" r="1.49146" fill="#BCBCBC"/>
<circle cx="260.01" cy="319.668" r="1.49146" fill="#BCBCBC"/>
<circle cx="260.01" cy="949.062" r="1.49146" fill="#BCBCBC"/>
<circle cx="1089.26" cy="317.68" r="1.49146" fill="#BCBCBC"/>
<circle cx="1089.26" cy="947.074" r="1.49146" fill="#BCBCBC"/>
<circle cx="675.629" cy="319.668" r="1.49146" fill="#BCBCBC"/>
<circle cx="675.629" cy="949.062" r="1.49146" fill="#BCBCBC"/>
<circle cx="1504.88" cy="317.68" r="1.49146" fill="#BCBCBC"/>
<circle cx="1866.81" cy="317.68" r="1.49146" fill="#BCBCBC"/>
<circle cx="1504.88" cy="947.074" r="1.49146" fill="#BCBCBC"/>
<circle cx="1866.81" cy="947.074" r="1.49146" fill="#BCBCBC"/>
<circle cx="260.01" cy="530.461" r="1.49146" fill="#BCBCBC"/>
<circle cx="1089.26" cy="528.472" r="1.49146" fill="#BCBCBC"/>
<circle cx="675.629" cy="530.461" r="1.49146" fill="#BCBCBC"/>
<circle cx="1504.88" cy="528.472" r="1.49146" fill="#BCBCBC"/>
<circle cx="1866.81" cy="528.472" r="1.49146" fill="#BCBCBC"/>
<circle cx="260.01" cy="56.179" r="1.49146" fill="#BCBCBC"/>
<circle cx="260.01" cy="685.572" r="1.49146" fill="#BCBCBC"/>
<circle cx="1089.26" cy="54.1897" r="1.49146" fill="#BCBCBC"/>
<circle cx="1089.26" cy="683.583" r="1.49146" fill="#BCBCBC"/>
<circle cx="675.629" cy="56.179" r="1.49146" fill="#BCBCBC"/>
<circle cx="675.629" cy="685.572" r="1.49146" fill="#BCBCBC"/>
<circle cx="1504.88" cy="54.1897" r="1.49146" fill="#BCBCBC"/>
<circle cx="1866.81" cy="54.1897" r="1.49146" fill="#BCBCBC"/>
<circle cx="1504.88" cy="683.583" r="1.49146" fill="#BCBCBC"/>
<circle cx="1866.81" cy="683.583" r="1.49146" fill="#BCBCBC"/>
<circle cx="260.01" cy="266.971" r="1.49146" fill="#BCBCBC"/>
<circle cx="260.01" cy="896.365" r="1.49146" fill="#BCBCBC"/>
<circle cx="1089.26" cy="264.982" r="1.49146" fill="#BCBCBC"/>
<circle cx="1089.26" cy="894.376" r="1.49146" fill="#BCBCBC"/>
<circle cx="675.629" cy="266.971" r="1.49146" fill="#BCBCBC"/>
<circle cx="675.629" cy="896.365" r="1.49146" fill="#BCBCBC"/>
<circle cx="1504.88" cy="264.982" r="1.49146" fill="#BCBCBC"/>
<circle cx="1866.81" cy="264.982" r="1.49146" fill="#BCBCBC"/>
<circle cx="1504.88" cy="894.376" r="1.49146" fill="#BCBCBC"/>
<circle cx="1866.81" cy="894.376" r="1.49146" fill="#BCBCBC"/>
<circle cx="260.01" cy="477.762" r="1.49146" fill="#BCBCBC"/>
<circle cx="1089.26" cy="475.775" r="1.49146" fill="#BCBCBC"/>
<circle cx="675.629" cy="477.762" r="1.49146" fill="#BCBCBC"/>
<circle cx="1504.88" cy="475.775" r="1.49146" fill="#BCBCBC"/>
<circle cx="1866.81" cy="475.775" r="1.49146" fill="#BCBCBC"/>
<circle cx="260.01" cy="161.574" r="1.49146" fill="#BCBCBC"/>
<circle cx="260.01" cy="790.969" r="1.49146" fill="#BCBCBC"/>
<circle cx="1089.26" cy="159.585" r="1.49146" fill="#BCBCBC"/>
<circle cx="1089.26" cy="788.98" r="1.49146" fill="#BCBCBC"/>
<circle cx="675.629" cy="161.574" r="1.49146" fill="#BCBCBC"/>
<circle cx="675.629" cy="790.969" r="1.49146" fill="#BCBCBC"/>
<circle cx="1504.88" cy="159.585" r="1.49146" fill="#BCBCBC"/>
<circle cx="1866.81" cy="159.585" r="1.49146" fill="#BCBCBC"/>
<circle cx="1504.88" cy="788.98" r="1.49146" fill="#BCBCBC"/>
<circle cx="1866.81" cy="788.98" r="1.49146" fill="#BCBCBC"/>
<circle cx="260.01" cy="372.365" r="1.49146" fill="#BCBCBC"/>
<circle cx="1089.26" cy="370.378" r="1.49146" fill="#BCBCBC"/>
<circle cx="675.629" cy="372.365" r="1.49146" fill="#BCBCBC"/>
<circle cx="1504.88" cy="370.378" r="1.49146" fill="#BCBCBC"/>
<circle cx="1866.81" cy="370.378" r="1.49146" fill="#BCBCBC"/>
<circle cx="260.01" cy="583.158" r="1.49146" fill="#BCBCBC"/>
<circle cx="1089.26" cy="581.17" r="1.49146" fill="#BCBCBC"/>
<circle cx="675.629" cy="583.158" r="1.49146" fill="#BCBCBC"/>
<circle cx="1504.88" cy="581.17" r="1.49146" fill="#BCBCBC"/>
<circle cx="1866.81" cy="581.17" r="1.49146" fill="#BCBCBC"/>
<circle cx="104.9" cy="3.47974" r="1.49146" fill="#BCBCBC"/>
<circle cx="104.9" cy="632.874" r="1.49146" fill="#BCBCBC"/>
<circle cx="934.149" cy="1.49146" r="1.49146" fill="#BCBCBC"/>
<circle cx="934.149" cy="630.885" r="1.49146" fill="#BCBCBC"/>
<circle cx="520.518" cy="3.47974" r="1.49146" fill="#BCBCBC"/>
<circle cx="520.518" cy="632.874" r="1.49146" fill="#BCBCBC"/>
<circle cx="1349.77" cy="1.49146" r="1.49146" fill="#BCBCBC"/>
<circle cx="1711.69" cy="1.49146" r="1.49146" fill="#BCBCBC"/>
<circle cx="1349.77" cy="630.885" r="1.49146" fill="#BCBCBC"/>
<circle cx="1711.69" cy="630.885" r="1.49146" fill="#BCBCBC"/>
<circle cx="104.9" cy="214.273" r="1.49146" fill="#BCBCBC"/>
<circle cx="104.9" cy="843.666" r="1.49146" fill="#BCBCBC"/>
<circle cx="934.149" cy="212.283" r="1.49146" fill="#BCBCBC"/>
<circle cx="934.149" cy="841.678" r="1.49146" fill="#BCBCBC"/>
<circle cx="520.518" cy="214.273" r="1.49146" fill="#BCBCBC"/>
<circle cx="520.518" cy="843.666" r="1.49146" fill="#BCBCBC"/>
<circle cx="1349.77" cy="212.283" r="1.49146" fill="#BCBCBC"/>
<circle cx="1711.69" cy="212.283" r="1.49146" fill="#BCBCBC"/>
<circle cx="1349.77" cy="841.678" r="1.49146" fill="#BCBCBC"/>
<circle cx="1711.69" cy="841.678" r="1.49146" fill="#BCBCBC"/>
<circle cx="104.9" cy="425.065" r="1.49146" fill="#BCBCBC"/>
<circle cx="934.149" cy="423.076" r="1.49146" fill="#BCBCBC"/>
<circle cx="520.518" cy="425.065" r="1.49146" fill="#BCBCBC"/>
<circle cx="1349.77" cy="423.076" r="1.49146" fill="#BCBCBC"/>
<circle cx="1711.69" cy="423.076" r="1.49146" fill="#BCBCBC"/>
<circle cx="104.9" cy="108.876" r="1.49146" fill="#BCBCBC"/>
<circle cx="104.9" cy="738.27" r="1.49146" fill="#BCBCBC"/>
<circle cx="934.149" cy="106.888" r="1.49146" fill="#BCBCBC"/>
<circle cx="934.149" cy="736.282" r="1.49146" fill="#BCBCBC"/>
<circle cx="520.518" cy="108.876" r="1.49146" fill="#BCBCBC"/>
<circle cx="520.518" cy="738.27" r="1.49146" fill="#BCBCBC"/>
<circle cx="1349.77" cy="106.888" r="1.49146" fill="#BCBCBC"/>
<circle cx="1711.69" cy="106.888" r="1.49146" fill="#BCBCBC"/>
<circle cx="1349.77" cy="736.282" r="1.49146" fill="#BCBCBC"/>
<circle cx="1711.69" cy="736.282" r="1.49146" fill="#BCBCBC"/>
<circle cx="104.9" cy="319.668" r="1.49146" fill="#BCBCBC"/>
<circle cx="104.9" cy="949.062" r="1.49146" fill="#BCBCBC"/>
<circle cx="934.149" cy="317.68" r="1.49146" fill="#BCBCBC"/>
<circle cx="934.149" cy="947.074" r="1.49146" fill="#BCBCBC"/>
<circle cx="520.518" cy="319.668" r="1.49146" fill="#BCBCBC"/>
<circle cx="520.518" cy="949.062" r="1.49146" fill="#BCBCBC"/>
<circle cx="1349.77" cy="317.68" r="1.49146" fill="#BCBCBC"/>
<circle cx="1711.69" cy="317.68" r="1.49146" fill="#BCBCBC"/>
<circle cx="1349.77" cy="947.074" r="1.49146" fill="#BCBCBC"/>
<circle cx="1711.69" cy="947.074" r="1.49146" fill="#BCBCBC"/>
<circle cx="104.9" cy="530.461" r="1.49146" fill="#BCBCBC"/>
<circle cx="934.149" cy="528.472" r="1.49146" fill="#BCBCBC"/>
<circle cx="520.518" cy="530.461" r="1.49146" fill="#BCBCBC"/>
<circle cx="1349.77" cy="528.472" r="1.49146" fill="#BCBCBC"/>
<circle cx="1711.69" cy="528.472" r="1.49146" fill="#BCBCBC"/>
<circle cx="104.9" cy="56.179" r="1.49146" fill="#BCBCBC"/>
<circle cx="104.9" cy="685.572" r="1.49146" fill="#BCBCBC"/>
<circle cx="934.149" cy="54.1897" r="1.49146" fill="#BCBCBC"/>
<circle cx="934.149" cy="683.583" r="1.49146" fill="#BCBCBC"/>
<circle cx="520.518" cy="56.179" r="1.49146" fill="#BCBCBC"/>
<circle cx="520.518" cy="685.572" r="1.49146" fill="#BCBCBC"/>
<circle cx="1349.77" cy="54.1897" r="1.49146" fill="#BCBCBC"/>
<circle cx="1711.69" cy="54.1897" r="1.49146" fill="#BCBCBC"/>
<circle cx="1349.77" cy="683.583" r="1.49146" fill="#BCBCBC"/>
<circle cx="1711.69" cy="683.583" r="1.49146" fill="#BCBCBC"/>
<circle cx="104.9" cy="266.971" r="1.49146" fill="#BCBCBC"/>
<circle cx="104.9" cy="896.365" r="1.49146" fill="#BCBCBC"/>
<circle cx="934.149" cy="264.982" r="1.49146" fill="#BCBCBC"/>
<circle cx="934.149" cy="894.376" r="1.49146" fill="#BCBCBC"/>
<circle cx="520.518" cy="266.971" r="1.49146" fill="#BCBCBC"/>
<circle cx="520.518" cy="896.365" r="1.49146" fill="#BCBCBC"/>
<circle cx="1349.77" cy="264.982" r="1.49146" fill="#BCBCBC"/>
<circle cx="1711.69" cy="264.982" r="1.49146" fill="#BCBCBC"/>
<circle cx="1349.77" cy="894.376" r="1.49146" fill="#BCBCBC"/>
<circle cx="1711.69" cy="894.376" r="1.49146" fill="#BCBCBC"/>
<circle cx="104.9" cy="477.762" r="1.49146" fill="#BCBCBC"/>
<circle cx="934.149" cy="475.775" r="1.49146" fill="#BCBCBC"/>
<circle cx="520.518" cy="477.762" r="1.49146" fill="#BCBCBC"/>
<circle cx="1349.77" cy="475.775" r="1.49146" fill="#BCBCBC"/>
<circle cx="1711.69" cy="475.775" r="1.49146" fill="#BCBCBC"/>
<circle cx="104.9" cy="161.574" r="1.49146" fill="#BCBCBC"/>
<circle cx="104.9" cy="790.969" r="1.49146" fill="#BCBCBC"/>
<circle cx="934.149" cy="159.585" r="1.49146" fill="#BCBCBC"/>
<circle cx="934.149" cy="788.98" r="1.49146" fill="#BCBCBC"/>
<circle cx="520.518" cy="161.574" r="1.49146" fill="#BCBCBC"/>
<circle cx="520.518" cy="790.969" r="1.49146" fill="#BCBCBC"/>
<circle cx="1349.77" cy="159.585" r="1.49146" fill="#BCBCBC"/>
<circle cx="1711.69" cy="159.585" r="1.49146" fill="#BCBCBC"/>
<circle cx="1349.77" cy="788.98" r="1.49146" fill="#BCBCBC"/>
<circle cx="1711.69" cy="788.98" r="1.49146" fill="#BCBCBC"/>
<circle cx="104.9" cy="372.365" r="1.49146" fill="#BCBCBC"/>
<circle cx="934.149" cy="370.378" r="1.49146" fill="#BCBCBC"/>
<circle cx="520.518" cy="372.365" r="1.49146" fill="#BCBCBC"/>
<circle cx="1349.77" cy="370.378" r="1.49146" fill="#BCBCBC"/>
<circle cx="1711.69" cy="370.378" r="1.49146" fill="#BCBCBC"/>
<circle cx="104.9" cy="583.158" r="1.49146" fill="#BCBCBC"/>
<circle cx="934.149" cy="581.17" r="1.49146" fill="#BCBCBC"/>
<circle cx="520.518" cy="583.158" r="1.49146" fill="#BCBCBC"/>
<circle cx="1349.77" cy="581.17" r="1.49146" fill="#BCBCBC"/>
<circle cx="1711.69" cy="581.17" r="1.49146" fill="#BCBCBC"/>
<circle cx="311.715" cy="3.47974" r="1.49146" fill="#BCBCBC"/>
<circle cx="311.715" cy="632.874" r="1.49146" fill="#BCBCBC"/>
<circle cx="1140.96" cy="1.49146" r="1.49146" fill="#BCBCBC"/>
<circle cx="1140.96" cy="630.885" r="1.49146" fill="#BCBCBC"/>
<circle cx="727.333" cy="3.47974" r="1.49146" fill="#BCBCBC"/>
<circle cx="727.333" cy="632.874" r="1.49146" fill="#BCBCBC"/>
<circle cx="1556.58" cy="1.49146" r="1.49146" fill="#BCBCBC"/>
<circle cx="1918.51" cy="1.49146" r="1.49146" fill="#BCBCBC"/>
<circle cx="1556.58" cy="630.885" r="1.49146" fill="#BCBCBC"/>
<circle cx="1918.51" cy="630.885" r="1.49146" fill="#BCBCBC"/>
<circle cx="311.715" cy="214.273" r="1.49146" fill="#BCBCBC"/>
<circle cx="311.715" cy="843.666" r="1.49146" fill="#BCBCBC"/>
<circle cx="1140.96" cy="212.283" r="1.49146" fill="#BCBCBC"/>
<circle cx="1140.96" cy="841.678" r="1.49146" fill="#BCBCBC"/>
<circle cx="727.333" cy="214.273" r="1.49146" fill="#BCBCBC"/>
<circle cx="727.333" cy="843.666" r="1.49146" fill="#BCBCBC"/>
<circle cx="1556.58" cy="212.283" r="1.49146" fill="#BCBCBC"/>
<circle cx="1918.51" cy="212.283" r="1.49146" fill="#BCBCBC"/>
<circle cx="1556.58" cy="841.678" r="1.49146" fill="#BCBCBC"/>
<circle cx="1918.51" cy="841.678" r="1.49146" fill="#BCBCBC"/>
<circle cx="311.715" cy="425.065" r="1.49146" fill="#BCBCBC"/>
<circle cx="1140.96" cy="423.076" r="1.49146" fill="#BCBCBC"/>
<circle cx="727.333" cy="425.065" r="1.49146" fill="#BCBCBC"/>
<circle cx="1556.58" cy="423.076" r="1.49146" fill="#BCBCBC"/>
<circle cx="1918.51" cy="423.076" r="1.49146" fill="#BCBCBC"/>
<circle cx="311.715" cy="108.876" r="1.49146" fill="#BCBCBC"/>
<circle cx="311.715" cy="738.27" r="1.49146" fill="#BCBCBC"/>
<circle cx="1140.96" cy="106.888" r="1.49146" fill="#BCBCBC"/>
<circle cx="1140.96" cy="736.282" r="1.49146" fill="#BCBCBC"/>
<circle cx="727.333" cy="108.876" r="1.49146" fill="#BCBCBC"/>
<circle cx="727.333" cy="738.27" r="1.49146" fill="#BCBCBC"/>
<circle cx="1556.58" cy="106.888" r="1.49146" fill="#BCBCBC"/>
<circle cx="1918.51" cy="106.888" r="1.49146" fill="#BCBCBC"/>
<circle cx="1556.58" cy="736.282" r="1.49146" fill="#BCBCBC"/>
<circle cx="1918.51" cy="736.282" r="1.49146" fill="#BCBCBC"/>
<circle cx="311.715" cy="319.668" r="1.49146" fill="#BCBCBC"/>
<circle cx="311.715" cy="949.062" r="1.49146" fill="#BCBCBC"/>
<circle cx="1140.96" cy="317.68" r="1.49146" fill="#BCBCBC"/>
<circle cx="1140.96" cy="947.074" r="1.49146" fill="#BCBCBC"/>
<circle cx="727.333" cy="319.668" r="1.49146" fill="#BCBCBC"/>
<circle cx="727.333" cy="949.062" r="1.49146" fill="#BCBCBC"/>
<circle cx="1556.58" cy="317.68" r="1.49146" fill="#BCBCBC"/>
<circle cx="1918.51" cy="317.68" r="1.49146" fill="#BCBCBC"/>
<circle cx="1556.58" cy="947.074" r="1.49146" fill="#BCBCBC"/>
<circle cx="1918.51" cy="947.074" r="1.49146" fill="#BCBCBC"/>
<circle cx="311.715" cy="530.461" r="1.49146" fill="#BCBCBC"/>
<circle cx="1140.96" cy="528.472" r="1.49146" fill="#BCBCBC"/>
<circle cx="727.333" cy="530.461" r="1.49146" fill="#BCBCBC"/>
<circle cx="1556.58" cy="528.472" r="1.49146" fill="#BCBCBC"/>
<circle cx="1918.51" cy="528.472" r="1.49146" fill="#BCBCBC"/>
<circle cx="311.715" cy="56.179" r="1.49146" fill="#BCBCBC"/>
<circle cx="311.715" cy="685.572" r="1.49146" fill="#BCBCBC"/>
<circle cx="1140.96" cy="54.1897" r="1.49146" fill="#BCBCBC"/>
<circle cx="1140.96" cy="683.583" r="1.49146" fill="#BCBCBC"/>
<circle cx="727.333" cy="56.179" r="1.49146" fill="#BCBCBC"/>
<circle cx="727.333" cy="685.572" r="1.49146" fill="#BCBCBC"/>
<circle cx="1556.58" cy="54.1897" r="1.49146" fill="#BCBCBC"/>
<circle cx="1918.51" cy="54.1897" r="1.49146" fill="#BCBCBC"/>
<circle cx="1556.58" cy="683.583" r="1.49146" fill="#BCBCBC"/>
<circle cx="1918.51" cy="683.583" r="1.49146" fill="#BCBCBC"/>
<circle cx="311.715" cy="266.971" r="1.49146" fill="#BCBCBC"/>
<circle cx="311.715" cy="896.365" r="1.49146" fill="#BCBCBC"/>
<circle cx="1140.96" cy="264.982" r="1.49146" fill="#BCBCBC"/>
<circle cx="1140.96" cy="894.376" r="1.49146" fill="#BCBCBC"/>
<circle cx="727.333" cy="266.971" r="1.49146" fill="#BCBCBC"/>
<circle cx="727.333" cy="896.365" r="1.49146" fill="#BCBCBC"/>
<circle cx="1556.58" cy="264.982" r="1.49146" fill="#BCBCBC"/>
<circle cx="1918.51" cy="264.982" r="1.49146" fill="#BCBCBC"/>
<circle cx="1556.58" cy="894.376" r="1.49146" fill="#BCBCBC"/>
<circle cx="1918.51" cy="894.376" r="1.49146" fill="#BCBCBC"/>
<circle cx="311.715" cy="477.762" r="1.49146" fill="#BCBCBC"/>
<circle cx="1140.96" cy="475.775" r="1.49146" fill="#BCBCBC"/>
<circle cx="727.333" cy="477.762" r="1.49146" fill="#BCBCBC"/>
<circle cx="1556.58" cy="475.775" r="1.49146" fill="#BCBCBC"/>
<circle cx="1918.51" cy="475.775" r="1.49146" fill="#BCBCBC"/>
<circle cx="311.715" cy="161.574" r="1.49146" fill="#BCBCBC"/>
<circle cx="311.715" cy="790.969" r="1.49146" fill="#BCBCBC"/>
<circle cx="1140.96" cy="159.585" r="1.49146" fill="#BCBCBC"/>
<circle cx="1140.96" cy="788.98" r="1.49146" fill="#BCBCBC"/>
<circle cx="727.333" cy="161.574" r="1.49146" fill="#BCBCBC"/>
<circle cx="727.333" cy="790.969" r="1.49146" fill="#BCBCBC"/>
<circle cx="1556.58" cy="159.585" r="1.49146" fill="#BCBCBC"/>
<circle cx="1918.51" cy="159.585" r="1.49146" fill="#BCBCBC"/>
<circle cx="1556.58" cy="788.98" r="1.49146" fill="#BCBCBC"/>
<circle cx="1918.51" cy="788.98" r="1.49146" fill="#BCBCBC"/>
<circle cx="311.715" cy="372.365" r="1.49146" fill="#BCBCBC"/>
<circle cx="1140.96" cy="370.378" r="1.49146" fill="#BCBCBC"/>
<circle cx="727.333" cy="372.365" r="1.49146" fill="#BCBCBC"/>
<circle cx="1556.58" cy="370.378" r="1.49146" fill="#BCBCBC"/>
<circle cx="1918.51" cy="370.378" r="1.49146" fill="#BCBCBC"/>
<circle cx="311.715" cy="583.158" r="1.49146" fill="#BCBCBC"/>
<circle cx="1140.96" cy="581.17" r="1.49146" fill="#BCBCBC"/>
<circle cx="727.333" cy="583.158" r="1.49146" fill="#BCBCBC"/>
<circle cx="1556.58" cy="581.17" r="1.49146" fill="#BCBCBC"/>
<circle cx="1918.51" cy="581.17" r="1.49146" fill="#BCBCBC"/>
<circle cx="156.603" cy="3.47974" r="1.49146" fill="#BCBCBC"/>
<circle cx="156.603" cy="632.874" r="1.49146" fill="#BCBCBC"/>
<circle cx="985.852" cy="1.49146" r="1.49146" fill="#BCBCBC"/>
<circle cx="985.852" cy="630.885" r="1.49146" fill="#BCBCBC"/>
<circle cx="572.221" cy="3.47974" r="1.49146" fill="#BCBCBC"/>
<circle cx="572.221" cy="632.874" r="1.49146" fill="#BCBCBC"/>
<circle cx="1401.47" cy="1.49146" r="1.49146" fill="#BCBCBC"/>
<circle cx="1763.4" cy="1.49146" r="1.49146" fill="#BCBCBC"/>
<circle cx="1401.47" cy="630.885" r="1.49146" fill="#BCBCBC"/>
<circle cx="1763.4" cy="630.885" r="1.49146" fill="#BCBCBC"/>
<circle cx="156.603" cy="214.273" r="1.49146" fill="#BCBCBC"/>
<circle cx="156.603" cy="843.666" r="1.49146" fill="#BCBCBC"/>
<circle cx="985.852" cy="212.283" r="1.49146" fill="#BCBCBC"/>
<circle cx="985.852" cy="841.678" r="1.49146" fill="#BCBCBC"/>
<circle cx="572.221" cy="214.273" r="1.49146" fill="#BCBCBC"/>
<circle cx="572.221" cy="843.666" r="1.49146" fill="#BCBCBC"/>
<circle cx="1401.47" cy="212.283" r="1.49146" fill="#BCBCBC"/>
<circle cx="1763.4" cy="212.283" r="1.49146" fill="#BCBCBC"/>
<circle cx="1401.47" cy="841.678" r="1.49146" fill="#BCBCBC"/>
<circle cx="1763.4" cy="841.678" r="1.49146" fill="#BCBCBC"/>
<circle cx="156.603" cy="425.065" r="1.49146" fill="#BCBCBC"/>
<circle cx="985.852" cy="423.076" r="1.49146" fill="#BCBCBC"/>
<circle cx="572.221" cy="425.065" r="1.49146" fill="#BCBCBC"/>
<circle cx="1401.47" cy="423.076" r="1.49146" fill="#BCBCBC"/>
<circle cx="1763.4" cy="423.076" r="1.49146" fill="#BCBCBC"/>
<circle cx="156.603" cy="108.876" r="1.49146" fill="#BCBCBC"/>
<circle cx="156.603" cy="738.27" r="1.49146" fill="#BCBCBC"/>
<circle cx="985.852" cy="106.888" r="1.49146" fill="#BCBCBC"/>
<circle cx="985.852" cy="736.282" r="1.49146" fill="#BCBCBC"/>
<circle cx="572.221" cy="108.876" r="1.49146" fill="#BCBCBC"/>
<circle cx="572.221" cy="738.27" r="1.49146" fill="#BCBCBC"/>
<circle cx="1401.47" cy="106.888" r="1.49146" fill="#BCBCBC"/>
<circle cx="1763.4" cy="106.888" r="1.49146" fill="#BCBCBC"/>
<circle cx="1401.47" cy="736.282" r="1.49146" fill="#BCBCBC"/>
<circle cx="1763.4" cy="736.282" r="1.49146" fill="#BCBCBC"/>
<circle cx="156.603" cy="319.668" r="1.49146" fill="#BCBCBC"/>
<circle cx="156.603" cy="949.062" r="1.49146" fill="#BCBCBC"/>
<circle cx="985.852" cy="317.68" r="1.49146" fill="#BCBCBC"/>
<circle cx="985.852" cy="947.074" r="1.49146" fill="#BCBCBC"/>
<circle cx="572.221" cy="319.668" r="1.49146" fill="#BCBCBC"/>
<circle cx="572.221" cy="949.062" r="1.49146" fill="#BCBCBC"/>
<circle cx="1401.47" cy="317.68" r="1.49146" fill="#BCBCBC"/>
<circle cx="1763.4" cy="317.68" r="1.49146" fill="#BCBCBC"/>
<circle cx="1401.47" cy="947.074" r="1.49146" fill="#BCBCBC"/>
<circle cx="1763.4" cy="947.074" r="1.49146" fill="#BCBCBC"/>
<circle cx="156.603" cy="530.461" r="1.49146" fill="#BCBCBC"/>
<circle cx="985.852" cy="528.472" r="1.49146" fill="#BCBCBC"/>
<circle cx="572.221" cy="530.461" r="1.49146" fill="#BCBCBC"/>
<circle cx="1401.47" cy="528.472" r="1.49146" fill="#BCBCBC"/>
<circle cx="1763.4" cy="528.472" r="1.49146" fill="#BCBCBC"/>
<circle cx="156.603" cy="56.179" r="1.49146" fill="#BCBCBC"/>
<circle cx="156.603" cy="685.572" r="1.49146" fill="#BCBCBC"/>
<circle cx="985.852" cy="54.1897" r="1.49146" fill="#BCBCBC"/>
<circle cx="985.852" cy="683.583" r="1.49146" fill="#BCBCBC"/>
<circle cx="572.221" cy="56.179" r="1.49146" fill="#BCBCBC"/>
<circle cx="572.221" cy="685.572" r="1.49146" fill="#BCBCBC"/>
<circle cx="1401.47" cy="54.1897" r="1.49146" fill="#BCBCBC"/>
<circle cx="1763.4" cy="54.1897" r="1.49146" fill="#BCBCBC"/>
<circle cx="1401.47" cy="683.583" r="1.49146" fill="#BCBCBC"/>
<circle cx="1763.4" cy="683.583" r="1.49146" fill="#BCBCBC"/>
<circle cx="156.603" cy="266.971" r="1.49146" fill="#BCBCBC"/>
<circle cx="156.603" cy="896.365" r="1.49146" fill="#BCBCBC"/>
<circle cx="985.852" cy="264.982" r="1.49146" fill="#BCBCBC"/>
<circle cx="985.852" cy="894.376" r="1.49146" fill="#BCBCBC"/>
<circle cx="572.221" cy="266.971" r="1.49146" fill="#BCBCBC"/>
<circle cx="572.221" cy="896.365" r="1.49146" fill="#BCBCBC"/>
<circle cx="1401.47" cy="264.982" r="1.49146" fill="#BCBCBC"/>
<circle cx="1763.4" cy="264.982" r="1.49146" fill="#BCBCBC"/>
<circle cx="1401.47" cy="894.376" r="1.49146" fill="#BCBCBC"/>
<circle cx="1763.4" cy="894.376" r="1.49146" fill="#BCBCBC"/>
<circle cx="156.603" cy="477.762" r="1.49146" fill="#BCBCBC"/>
<circle cx="985.852" cy="475.775" r="1.49146" fill="#BCBCBC"/>
<circle cx="572.221" cy="477.762" r="1.49146" fill="#BCBCBC"/>
<circle cx="1401.47" cy="475.775" r="1.49146" fill="#BCBCBC"/>
<circle cx="1763.4" cy="475.775" r="1.49146" fill="#BCBCBC"/>
<circle cx="156.603" cy="161.574" r="1.49146" fill="#BCBCBC"/>
<circle cx="156.603" cy="790.969" r="1.49146" fill="#BCBCBC"/>
<circle cx="985.852" cy="159.585" r="1.49146" fill="#BCBCBC"/>
<circle cx="985.852" cy="788.98" r="1.49146" fill="#BCBCBC"/>
<circle cx="572.221" cy="161.574" r="1.49146" fill="#BCBCBC"/>
<circle cx="572.221" cy="790.969" r="1.49146" fill="#BCBCBC"/>
<circle cx="1401.47" cy="159.585" r="1.49146" fill="#BCBCBC"/>
<circle cx="1763.4" cy="159.585" r="1.49146" fill="#BCBCBC"/>
<circle cx="1401.47" cy="788.98" r="1.49146" fill="#BCBCBC"/>
<circle cx="1763.4" cy="788.98" r="1.49146" fill="#BCBCBC"/>
<circle cx="156.603" cy="372.365" r="1.49146" fill="#BCBCBC"/>
<circle cx="985.852" cy="370.378" r="1.49146" fill="#BCBCBC"/>
<circle cx="572.221" cy="372.365" r="1.49146" fill="#BCBCBC"/>
<circle cx="1401.47" cy="370.378" r="1.49146" fill="#BCBCBC"/>
<circle cx="1763.4" cy="370.378" r="1.49146" fill="#BCBCBC"/>
<circle cx="156.603" cy="583.158" r="1.49146" fill="#BCBCBC"/>
<circle cx="985.852" cy="581.17" r="1.49146" fill="#BCBCBC"/>
<circle cx="572.221" cy="583.158" r="1.49146" fill="#BCBCBC"/>
<circle cx="1401.47" cy="581.17" r="1.49146" fill="#BCBCBC"/>
<circle cx="1763.4" cy="581.17" r="1.49146" fill="#BCBCBC"/>
<circle cx="363.419" cy="3.47974" r="1.49146" fill="#BCBCBC"/>
<circle cx="363.419" cy="632.874" r="1.49146" fill="#BCBCBC"/>
<circle cx="1192.67" cy="1.49146" r="1.49146" fill="#BCBCBC"/>
<circle cx="1192.67" cy="630.885" r="1.49146" fill="#BCBCBC"/>
<circle cx="779.037" cy="3.47974" r="1.49146" fill="#BCBCBC"/>
<circle cx="779.037" cy="632.874" r="1.49146" fill="#BCBCBC"/>
<circle cx="1608.28" cy="1.49146" r="1.49146" fill="#BCBCBC"/>
<circle cx="1608.28" cy="630.885" r="1.49146" fill="#BCBCBC"/>
<circle cx="363.419" cy="214.273" r="1.49146" fill="#BCBCBC"/>
<circle cx="363.419" cy="843.666" r="1.49146" fill="#BCBCBC"/>
<circle cx="1192.67" cy="212.283" r="1.49146" fill="#BCBCBC"/>
<circle cx="1192.67" cy="841.678" r="1.49146" fill="#BCBCBC"/>
<circle cx="779.037" cy="214.273" r="1.49146" fill="#BCBCBC"/>
<circle cx="779.037" cy="843.666" r="1.49146" fill="#BCBCBC"/>
<circle cx="1608.28" cy="212.283" r="1.49146" fill="#BCBCBC"/>
<circle cx="1608.28" cy="841.678" r="1.49146" fill="#BCBCBC"/>
<circle cx="363.419" cy="425.065" r="1.49146" fill="#BCBCBC"/>
<circle cx="1192.67" cy="423.076" r="1.49146" fill="#BCBCBC"/>
<circle cx="779.037" cy="425.065" r="1.49146" fill="#BCBCBC"/>
<circle cx="1608.28" cy="423.076" r="1.49146" fill="#BCBCBC"/>
<circle cx="363.419" cy="108.876" r="1.49146" fill="#BCBCBC"/>
<circle cx="363.419" cy="738.27" r="1.49146" fill="#BCBCBC"/>
<circle cx="1192.67" cy="106.888" r="1.49146" fill="#BCBCBC"/>
<circle cx="1192.67" cy="736.282" r="1.49146" fill="#BCBCBC"/>
<circle cx="779.037" cy="108.876" r="1.49146" fill="#BCBCBC"/>
<circle cx="779.037" cy="738.27" r="1.49146" fill="#BCBCBC"/>
<circle cx="1608.28" cy="106.888" r="1.49146" fill="#BCBCBC"/>
<circle cx="1608.28" cy="736.282" r="1.49146" fill="#BCBCBC"/>
<circle cx="363.419" cy="319.668" r="1.49146" fill="#BCBCBC"/>
<circle cx="363.419" cy="949.062" r="1.49146" fill="#BCBCBC"/>
<circle cx="1192.67" cy="317.68" r="1.49146" fill="#BCBCBC"/>
<circle cx="1192.67" cy="947.074" r="1.49146" fill="#BCBCBC"/>
<circle cx="779.037" cy="319.668" r="1.49146" fill="#BCBCBC"/>
<circle cx="779.037" cy="949.062" r="1.49146" fill="#BCBCBC"/>
<circle cx="1608.28" cy="317.68" r="1.49146" fill="#BCBCBC"/>
<circle cx="1608.28" cy="947.074" r="1.49146" fill="#BCBCBC"/>
<circle cx="363.419" cy="530.461" r="1.49146" fill="#BCBCBC"/>
<circle cx="1192.67" cy="528.472" r="1.49146" fill="#BCBCBC"/>
<circle cx="779.037" cy="530.461" r="1.49146" fill="#BCBCBC"/>
<circle cx="1608.28" cy="528.472" r="1.49146" fill="#BCBCBC"/>
<circle cx="363.419" cy="56.179" r="1.49146" fill="#BCBCBC"/>
<circle cx="363.419" cy="685.572" r="1.49146" fill="#BCBCBC"/>
<circle cx="1192.67" cy="54.1897" r="1.49146" fill="#BCBCBC"/>
<circle cx="1192.67" cy="683.583" r="1.49146" fill="#BCBCBC"/>
<circle cx="779.037" cy="56.179" r="1.49146" fill="#BCBCBC"/>
<circle cx="779.037" cy="685.572" r="1.49146" fill="#BCBCBC"/>
<circle cx="1608.28" cy="54.1897" r="1.49146" fill="#BCBCBC"/>
<circle cx="1608.28" cy="683.583" r="1.49146" fill="#BCBCBC"/>
<circle cx="363.419" cy="266.971" r="1.49146" fill="#BCBCBC"/>
<circle cx="363.419" cy="896.365" r="1.49146" fill="#BCBCBC"/>
<circle cx="1192.67" cy="264.982" r="1.49146" fill="#BCBCBC"/>
<circle cx="1192.67" cy="894.376" r="1.49146" fill="#BCBCBC"/>
<circle cx="779.037" cy="266.971" r="1.49146" fill="#BCBCBC"/>
<circle cx="779.037" cy="896.365" r="1.49146" fill="#BCBCBC"/>
<circle cx="1608.28" cy="264.982" r="1.49146" fill="#BCBCBC"/>
<circle cx="1608.28" cy="894.376" r="1.49146" fill="#BCBCBC"/>
<circle cx="363.419" cy="477.762" r="1.49146" fill="#BCBCBC"/>
<circle cx="1192.67" cy="475.775" r="1.49146" fill="#BCBCBC"/>
<circle cx="779.037" cy="477.762" r="1.49146" fill="#BCBCBC"/>
<circle cx="1608.28" cy="475.775" r="1.49146" fill="#BCBCBC"/>
<circle cx="363.419" cy="161.574" r="1.49146" fill="#BCBCBC"/>
<circle cx="363.419" cy="790.969" r="1.49146" fill="#BCBCBC"/>
<circle cx="1192.67" cy="159.585" r="1.49146" fill="#BCBCBC"/>
<circle cx="1192.67" cy="788.98" r="1.49146" fill="#BCBCBC"/>
<circle cx="779.037" cy="161.574" r="1.49146" fill="#BCBCBC"/>
<circle cx="779.037" cy="790.969" r="1.49146" fill="#BCBCBC"/>
<circle cx="1608.28" cy="159.585" r="1.49146" fill="#BCBCBC"/>
<circle cx="1608.28" cy="788.98" r="1.49146" fill="#BCBCBC"/>
<circle cx="363.419" cy="372.365" r="1.49146" fill="#BCBCBC"/>
<circle cx="1192.67" cy="370.378" r="1.49146" fill="#BCBCBC"/>
<circle cx="779.037" cy="372.365" r="1.49146" fill="#BCBCBC"/>
<circle cx="1608.28" cy="370.378" r="1.49146" fill="#BCBCBC"/>
<circle cx="363.419" cy="583.158" r="1.49146" fill="#BCBCBC"/>
<circle cx="1192.67" cy="581.17" r="1.49146" fill="#BCBCBC"/>
<circle cx="779.037" cy="583.158" r="1.49146" fill="#BCBCBC"/>
<circle cx="1608.28" cy="581.17" r="1.49146" fill="#BCBCBC"/>
</svg>
