<svg width="1920" height="951" viewBox="0 0 1920 951" fill="none" xmlns="http://www.w3.org/2000/svg">
<circle cx="1.49097" cy="3.71265" r="1.49146" fill="#BCBCBC"/>
<circle cx="1.49097" cy="633.106" r="1.49146" fill="#BCBCBC"/>
<circle cx="830.74" cy="1.72388" r="1.49146" fill="#BCBCBC"/>
<circle cx="830.74" cy="631.117" r="1.49146" fill="#BCBCBC"/>
<circle cx="417.109" cy="3.71265" r="1.49146" fill="#BCBCBC"/>
<circle cx="417.109" cy="633.106" r="1.49146" fill="#BCBCBC"/>
<circle cx="1246.36" cy="1.72388" r="1.49146" fill="#BCBCBC"/>
<circle cx="1246.36" cy="631.117" r="1.49146" fill="#BCBCBC"/>
<circle cx="1.49097" cy="214.505" r="1.49146" fill="#BCBCBC"/>
<circle cx="1.49097" cy="843.899" r="1.49146" fill="#BCBCBC"/>
<circle cx="830.74" cy="212.516" r="1.49146" fill="#BCBCBC"/>
<circle cx="830.74" cy="841.91" r="1.49146" fill="#BCBCBC"/>
<circle cx="417.109" cy="214.505" r="1.49146" fill="#BCBCBC"/>
<circle cx="417.109" cy="843.899" r="1.49146" fill="#BCBCBC"/>
<circle cx="1246.36" cy="212.516" r="1.49146" fill="#BCBCBC"/>
<circle cx="1246.36" cy="841.91" r="1.49146" fill="#BCBCBC"/>
<circle cx="1.49097" cy="425.297" r="1.49146" fill="#BCBCBC"/>
<circle cx="830.74" cy="423.308" r="1.49146" fill="#BCBCBC"/>
<circle cx="417.109" cy="425.297" r="1.49146" fill="#BCBCBC"/>
<circle cx="1246.36" cy="423.308" r="1.49146" fill="#BCBCBC"/>
<circle cx="1.49097" cy="109.109" r="1.49146" fill="#BCBCBC"/>
<circle cx="1.49097" cy="738.503" r="1.49146" fill="#BCBCBC"/>
<circle cx="830.74" cy="107.12" r="1.49146" fill="#BCBCBC"/>
<circle cx="830.74" cy="736.514" r="1.49146" fill="#BCBCBC"/>
<circle cx="417.109" cy="109.109" r="1.49146" fill="#BCBCBC"/>
<circle cx="417.109" cy="738.503" r="1.49146" fill="#BCBCBC"/>
<circle cx="1246.36" cy="107.12" r="1.49146" fill="#BCBCBC"/>
<circle cx="1246.36" cy="736.514" r="1.49146" fill="#BCBCBC"/>
<circle cx="1.49097" cy="319.9" r="1.49146" fill="#BCBCBC"/>
<circle cx="1.49097" cy="949.295" r="1.49146" fill="#BCBCBC"/>
<circle cx="830.74" cy="317.912" r="1.49146" fill="#BCBCBC"/>
<circle cx="830.74" cy="947.307" r="1.49146" fill="#BCBCBC"/>
<circle cx="417.109" cy="319.9" r="1.49146" fill="#BCBCBC"/>
<circle cx="417.109" cy="949.295" r="1.49146" fill="#BCBCBC"/>
<circle cx="1246.36" cy="317.912" r="1.49146" fill="#BCBCBC"/>
<circle cx="1246.36" cy="947.307" r="1.49146" fill="#BCBCBC"/>
<circle cx="1.49097" cy="530.694" r="1.49146" fill="#BCBCBC"/>
<circle cx="830.74" cy="528.704" r="1.49146" fill="#BCBCBC"/>
<circle cx="417.109" cy="530.694" r="1.49146" fill="#BCBCBC"/>
<circle cx="1246.36" cy="528.704" r="1.49146" fill="#BCBCBC"/>
<circle cx="1.49097" cy="56.4109" r="1.49146" fill="#BCBCBC"/>
<circle cx="1.49097" cy="685.804" r="1.49146" fill="#BCBCBC"/>
<circle cx="830.74" cy="54.4226" r="1.49146" fill="#BCBCBC"/>
<circle cx="830.74" cy="683.816" r="1.49146" fill="#BCBCBC"/>
<circle cx="417.109" cy="56.4109" r="1.49146" fill="#BCBCBC"/>
<circle cx="417.109" cy="685.804" r="1.49146" fill="#BCBCBC"/>
<circle cx="1246.36" cy="54.4226" r="1.49146" fill="#BCBCBC"/>
<circle cx="1246.36" cy="683.816" r="1.49146" fill="#BCBCBC"/>
<circle cx="1.49097" cy="267.203" r="1.49146" fill="#BCBCBC"/>
<circle cx="1.49097" cy="896.597" r="1.49146" fill="#BCBCBC"/>
<circle cx="830.74" cy="265.214" r="1.49146" fill="#BCBCBC"/>
<circle cx="830.74" cy="894.609" r="1.49146" fill="#BCBCBC"/>
<circle cx="417.109" cy="267.203" r="1.49146" fill="#BCBCBC"/>
<circle cx="417.109" cy="896.597" r="1.49146" fill="#BCBCBC"/>
<circle cx="1246.36" cy="265.214" r="1.49146" fill="#BCBCBC"/>
<circle cx="1246.36" cy="894.609" r="1.49146" fill="#BCBCBC"/>
<circle cx="1.49097" cy="477.994" r="1.49146" fill="#BCBCBC"/>
<circle cx="830.74" cy="476.007" r="1.49146" fill="#BCBCBC"/>
<circle cx="417.109" cy="477.994" r="1.49146" fill="#BCBCBC"/>
<circle cx="1246.36" cy="476.007" r="1.49146" fill="#BCBCBC"/>
<circle cx="1.49097" cy="161.807" r="1.49146" fill="#BCBCBC"/>
<circle cx="1.49097" cy="791.201" r="1.49146" fill="#BCBCBC"/>
<circle cx="830.74" cy="159.818" r="1.49146" fill="#BCBCBC"/>
<circle cx="830.74" cy="789.212" r="1.49146" fill="#BCBCBC"/>
<circle cx="417.109" cy="161.807" r="1.49146" fill="#BCBCBC"/>
<circle cx="417.109" cy="791.201" r="1.49146" fill="#BCBCBC"/>
<circle cx="1246.36" cy="159.818" r="1.49146" fill="#BCBCBC"/>
<circle cx="1246.36" cy="789.212" r="1.49146" fill="#BCBCBC"/>
<circle cx="1.49097" cy="372.598" r="1.49146" fill="#BCBCBC"/>
<circle cx="830.74" cy="370.611" r="1.49146" fill="#BCBCBC"/>
<circle cx="417.109" cy="372.598" r="1.49146" fill="#BCBCBC"/>
<circle cx="1246.36" cy="370.611" r="1.49146" fill="#BCBCBC"/>
<circle cx="1.49097" cy="583.391" r="1.49146" fill="#BCBCBC"/>
<circle cx="830.74" cy="581.403" r="1.49146" fill="#BCBCBC"/>
<circle cx="417.109" cy="583.391" r="1.49146" fill="#BCBCBC"/>
<circle cx="1246.36" cy="581.403" r="1.49146" fill="#BCBCBC"/>
<circle cx="208.306" cy="3.71265" r="1.49146" fill="#BCBCBC"/>
<circle cx="208.306" cy="633.106" r="1.49146" fill="#BCBCBC"/>
<circle cx="1037.56" cy="1.72388" r="1.49146" fill="#BCBCBC"/>
<circle cx="1037.56" cy="631.117" r="1.49146" fill="#BCBCBC"/>
<circle cx="623.925" cy="3.71265" r="1.49146" fill="#BCBCBC"/>
<circle cx="623.925" cy="633.106" r="1.49146" fill="#BCBCBC"/>
<circle cx="1453.17" cy="1.72388" r="1.49146" fill="#BCBCBC"/>
<circle cx="1815.1" cy="1.72388" r="1.49146" fill="#BCBCBC"/>
<circle cx="1453.17" cy="631.117" r="1.49146" fill="#BCBCBC"/>
<circle cx="1815.1" cy="631.117" r="1.49146" fill="#BCBCBC"/>
<circle cx="208.306" cy="214.505" r="1.49146" fill="#BCBCBC"/>
<circle cx="208.306" cy="843.899" r="1.49146" fill="#BCBCBC"/>
<circle cx="1037.56" cy="212.516" r="1.49146" fill="#BCBCBC"/>
<circle cx="1037.56" cy="841.91" r="1.49146" fill="#BCBCBC"/>
<circle cx="623.925" cy="214.505" r="1.49146" fill="#BCBCBC"/>
<circle cx="623.925" cy="843.899" r="1.49146" fill="#BCBCBC"/>
<circle cx="1453.17" cy="212.516" r="1.49146" fill="#BCBCBC"/>
<circle cx="1815.1" cy="212.516" r="1.49146" fill="#BCBCBC"/>
<circle cx="1453.17" cy="841.91" r="1.49146" fill="#BCBCBC"/>
<circle cx="1815.1" cy="841.91" r="1.49146" fill="#BCBCBC"/>
<circle cx="208.306" cy="425.297" r="1.49146" fill="#BCBCBC"/>
<circle cx="1037.56" cy="423.308" r="1.49146" fill="#BCBCBC"/>
<circle cx="623.925" cy="425.297" r="1.49146" fill="#BCBCBC"/>
<circle cx="1453.17" cy="423.308" r="1.49146" fill="#BCBCBC"/>
<circle cx="1815.1" cy="423.308" r="1.49146" fill="#BCBCBC"/>
<circle cx="208.306" cy="109.109" r="1.49146" fill="#BCBCBC"/>
<circle cx="208.306" cy="738.503" r="1.49146" fill="#BCBCBC"/>
<circle cx="1037.56" cy="107.12" r="1.49146" fill="#BCBCBC"/>
<circle cx="1037.56" cy="736.514" r="1.49146" fill="#BCBCBC"/>
<circle cx="623.925" cy="109.109" r="1.49146" fill="#BCBCBC"/>
<circle cx="623.925" cy="738.503" r="1.49146" fill="#BCBCBC"/>
<circle cx="1453.17" cy="107.12" r="1.49146" fill="#BCBCBC"/>
<circle cx="1815.1" cy="107.12" r="1.49146" fill="#BCBCBC"/>
<circle cx="1453.17" cy="736.514" r="1.49146" fill="#BCBCBC"/>
<circle cx="1815.1" cy="736.514" r="1.49146" fill="#BCBCBC"/>
<circle cx="208.306" cy="319.9" r="1.49146" fill="#BCBCBC"/>
<circle cx="208.306" cy="949.295" r="1.49146" fill="#BCBCBC"/>
<circle cx="1037.56" cy="317.912" r="1.49146" fill="#BCBCBC"/>
<circle cx="1037.56" cy="947.307" r="1.49146" fill="#BCBCBC"/>
<circle cx="623.925" cy="319.9" r="1.49146" fill="#BCBCBC"/>
<circle cx="623.925" cy="949.295" r="1.49146" fill="#BCBCBC"/>
<circle cx="1453.17" cy="317.912" r="1.49146" fill="#BCBCBC"/>
<circle cx="1815.1" cy="317.912" r="1.49146" fill="#BCBCBC"/>
<circle cx="1453.17" cy="947.307" r="1.49146" fill="#BCBCBC"/>
<circle cx="1815.1" cy="947.307" r="1.49146" fill="#BCBCBC"/>
<circle cx="208.306" cy="530.694" r="1.49146" fill="#BCBCBC"/>
<circle cx="1037.56" cy="528.704" r="1.49146" fill="#BCBCBC"/>
<circle cx="623.925" cy="530.694" r="1.49146" fill="#BCBCBC"/>
<circle cx="1453.17" cy="528.704" r="1.49146" fill="#BCBCBC"/>
<circle cx="1815.1" cy="528.704" r="1.49146" fill="#BCBCBC"/>
<circle cx="208.306" cy="56.4109" r="1.49146" fill="#BCBCBC"/>
<circle cx="208.306" cy="685.804" r="1.49146" fill="#BCBCBC"/>
<circle cx="1037.56" cy="54.4226" r="1.49146" fill="#BCBCBC"/>
<circle cx="1037.56" cy="683.816" r="1.49146" fill="#BCBCBC"/>
<circle cx="623.925" cy="56.4109" r="1.49146" fill="#BCBCBC"/>
<circle cx="623.925" cy="685.804" r="1.49146" fill="#BCBCBC"/>
<circle cx="1453.17" cy="54.4226" r="1.49146" fill="#BCBCBC"/>
<circle cx="1815.1" cy="54.4226" r="1.49146" fill="#BCBCBC"/>
<circle cx="1453.17" cy="683.816" r="1.49146" fill="#BCBCBC"/>
<circle cx="1815.1" cy="683.816" r="1.49146" fill="#BCBCBC"/>
<circle cx="208.306" cy="267.203" r="1.49146" fill="#BCBCBC"/>
<circle cx="208.306" cy="896.597" r="1.49146" fill="#BCBCBC"/>
<circle cx="1037.56" cy="265.214" r="1.49146" fill="#BCBCBC"/>
<circle cx="1037.56" cy="894.609" r="1.49146" fill="#BCBCBC"/>
<circle cx="623.925" cy="267.203" r="1.49146" fill="#BCBCBC"/>
<circle cx="623.925" cy="896.597" r="1.49146" fill="#BCBCBC"/>
<circle cx="1453.17" cy="265.214" r="1.49146" fill="#BCBCBC"/>
<circle cx="1815.1" cy="265.214" r="1.49146" fill="#BCBCBC"/>
<circle cx="1453.17" cy="894.609" r="1.49146" fill="#BCBCBC"/>
<circle cx="1815.1" cy="894.609" r="1.49146" fill="#BCBCBC"/>
<circle cx="208.306" cy="477.994" r="1.49146" fill="#BCBCBC"/>
<circle cx="1037.56" cy="476.007" r="1.49146" fill="#BCBCBC"/>
<circle cx="623.925" cy="477.994" r="1.49146" fill="#BCBCBC"/>
<circle cx="1453.17" cy="476.007" r="1.49146" fill="#BCBCBC"/>
<circle cx="1815.1" cy="476.007" r="1.49146" fill="#BCBCBC"/>
<circle cx="208.306" cy="161.807" r="1.49146" fill="#BCBCBC"/>
<circle cx="208.306" cy="791.201" r="1.49146" fill="#BCBCBC"/>
<circle cx="1037.56" cy="159.818" r="1.49146" fill="#BCBCBC"/>
<circle cx="1037.56" cy="789.212" r="1.49146" fill="#BCBCBC"/>
<circle cx="623.925" cy="161.807" r="1.49146" fill="#BCBCBC"/>
<circle cx="623.925" cy="791.201" r="1.49146" fill="#BCBCBC"/>
<circle cx="1453.17" cy="159.818" r="1.49146" fill="#BCBCBC"/>
<circle cx="1815.1" cy="159.818" r="1.49146" fill="#BCBCBC"/>
<circle cx="1453.17" cy="789.212" r="1.49146" fill="#BCBCBC"/>
<circle cx="1815.1" cy="789.212" r="1.49146" fill="#BCBCBC"/>
<circle cx="208.306" cy="372.598" r="1.49146" fill="#BCBCBC"/>
<circle cx="1037.56" cy="370.611" r="1.49146" fill="#BCBCBC"/>
<circle cx="623.925" cy="372.598" r="1.49146" fill="#BCBCBC"/>
<circle cx="1453.17" cy="370.611" r="1.49146" fill="#BCBCBC"/>
<circle cx="1815.1" cy="370.611" r="1.49146" fill="#BCBCBC"/>
<circle cx="208.306" cy="583.391" r="1.49146" fill="#BCBCBC"/>
<circle cx="1037.56" cy="581.403" r="1.49146" fill="#BCBCBC"/>
<circle cx="623.925" cy="583.391" r="1.49146" fill="#BCBCBC"/>
<circle cx="1453.17" cy="581.403" r="1.49146" fill="#BCBCBC"/>
<circle cx="1815.1" cy="581.403" r="1.49146" fill="#BCBCBC"/>
<circle cx="53.1946" cy="3.71265" r="1.49146" fill="#BCBCBC"/>
<circle cx="53.1946" cy="633.106" r="1.49146" fill="#BCBCBC"/>
<circle cx="882.444" cy="1.72388" r="1.49146" fill="#BCBCBC"/>
<circle cx="882.444" cy="631.117" r="1.49146" fill="#BCBCBC"/>
<circle cx="468.813" cy="3.71265" r="1.49146" fill="#BCBCBC"/>
<circle cx="468.813" cy="633.106" r="1.49146" fill="#BCBCBC"/>
<circle cx="1298.06" cy="1.72388" r="1.49146" fill="#BCBCBC"/>
<circle cx="1659.99" cy="1.72388" r="1.49146" fill="#BCBCBC"/>
<circle cx="1298.06" cy="631.117" r="1.49146" fill="#BCBCBC"/>
<circle cx="1659.99" cy="631.117" r="1.49146" fill="#BCBCBC"/>
<circle cx="53.1946" cy="214.505" r="1.49146" fill="#BCBCBC"/>
<circle cx="53.1946" cy="843.899" r="1.49146" fill="#BCBCBC"/>
<circle cx="882.444" cy="212.516" r="1.49146" fill="#BCBCBC"/>
<circle cx="882.444" cy="841.91" r="1.49146" fill="#BCBCBC"/>
<circle cx="468.813" cy="214.505" r="1.49146" fill="#BCBCBC"/>
<circle cx="468.813" cy="843.899" r="1.49146" fill="#BCBCBC"/>
<circle cx="1298.06" cy="212.516" r="1.49146" fill="#BCBCBC"/>
<circle cx="1659.99" cy="212.516" r="1.49146" fill="#BCBCBC"/>
<circle cx="1298.06" cy="841.91" r="1.49146" fill="#BCBCBC"/>
<circle cx="1659.99" cy="841.91" r="1.49146" fill="#BCBCBC"/>
<circle cx="53.1946" cy="425.297" r="1.49146" fill="#BCBCBC"/>
<circle cx="882.444" cy="423.308" r="1.49146" fill="#BCBCBC"/>
<circle cx="468.813" cy="425.297" r="1.49146" fill="#BCBCBC"/>
<circle cx="1298.06" cy="423.308" r="1.49146" fill="#BCBCBC"/>
<circle cx="1659.99" cy="423.308" r="1.49146" fill="#BCBCBC"/>
<circle cx="53.1946" cy="109.109" r="1.49146" fill="#BCBCBC"/>
<circle cx="53.1946" cy="738.503" r="1.49146" fill="#BCBCBC"/>
<circle cx="882.444" cy="107.12" r="1.49146" fill="#BCBCBC"/>
<circle cx="882.444" cy="736.514" r="1.49146" fill="#BCBCBC"/>
<circle cx="468.813" cy="109.109" r="1.49146" fill="#BCBCBC"/>
<circle cx="468.813" cy="738.503" r="1.49146" fill="#BCBCBC"/>
<circle cx="1298.06" cy="107.12" r="1.49146" fill="#BCBCBC"/>
<circle cx="1659.99" cy="107.12" r="1.49146" fill="#BCBCBC"/>
<circle cx="1298.06" cy="736.514" r="1.49146" fill="#BCBCBC"/>
<circle cx="1659.99" cy="736.514" r="1.49146" fill="#BCBCBC"/>
<circle cx="53.1946" cy="319.9" r="1.49146" fill="#BCBCBC"/>
<circle cx="53.1946" cy="949.295" r="1.49146" fill="#BCBCBC"/>
<circle cx="882.444" cy="317.912" r="1.49146" fill="#BCBCBC"/>
<circle cx="882.444" cy="947.307" r="1.49146" fill="#BCBCBC"/>
<circle cx="468.813" cy="319.9" r="1.49146" fill="#BCBCBC"/>
<circle cx="468.813" cy="949.295" r="1.49146" fill="#BCBCBC"/>
<circle cx="1298.06" cy="317.912" r="1.49146" fill="#BCBCBC"/>
<circle cx="1659.99" cy="317.912" r="1.49146" fill="#BCBCBC"/>
<circle cx="1298.06" cy="947.307" r="1.49146" fill="#BCBCBC"/>
<circle cx="1659.99" cy="947.307" r="1.49146" fill="#BCBCBC"/>
<circle cx="53.1946" cy="530.694" r="1.49146" fill="#BCBCBC"/>
<circle cx="882.444" cy="528.704" r="1.49146" fill="#BCBCBC"/>
<circle cx="468.813" cy="530.694" r="1.49146" fill="#BCBCBC"/>
<circle cx="1298.06" cy="528.704" r="1.49146" fill="#BCBCBC"/>
<circle cx="1659.99" cy="528.704" r="1.49146" fill="#BCBCBC"/>
<circle cx="53.1946" cy="56.4109" r="1.49146" fill="#BCBCBC"/>
<circle cx="53.1946" cy="685.804" r="1.49146" fill="#BCBCBC"/>
<circle cx="882.444" cy="54.4226" r="1.49146" fill="#BCBCBC"/>
<circle cx="882.444" cy="683.816" r="1.49146" fill="#BCBCBC"/>
<circle cx="468.813" cy="56.4109" r="1.49146" fill="#BCBCBC"/>
<circle cx="468.813" cy="685.804" r="1.49146" fill="#BCBCBC"/>
<circle cx="1298.06" cy="54.4226" r="1.49146" fill="#BCBCBC"/>
<circle cx="1659.99" cy="54.4226" r="1.49146" fill="#BCBCBC"/>
<circle cx="1298.06" cy="683.816" r="1.49146" fill="#BCBCBC"/>
<circle cx="1659.99" cy="683.816" r="1.49146" fill="#BCBCBC"/>
<circle cx="53.1946" cy="267.203" r="1.49146" fill="#BCBCBC"/>
<circle cx="53.1946" cy="896.597" r="1.49146" fill="#BCBCBC"/>
<circle cx="882.444" cy="265.214" r="1.49146" fill="#BCBCBC"/>
<circle cx="882.444" cy="894.609" r="1.49146" fill="#BCBCBC"/>
<circle cx="468.813" cy="267.203" r="1.49146" fill="#BCBCBC"/>
<circle cx="468.813" cy="896.597" r="1.49146" fill="#BCBCBC"/>
<circle cx="1298.06" cy="265.214" r="1.49146" fill="#BCBCBC"/>
<circle cx="1659.99" cy="265.214" r="1.49146" fill="#BCBCBC"/>
<circle cx="1298.06" cy="894.609" r="1.49146" fill="#BCBCBC"/>
<circle cx="1659.99" cy="894.609" r="1.49146" fill="#BCBCBC"/>
<circle cx="53.1946" cy="477.994" r="1.49146" fill="#BCBCBC"/>
<circle cx="882.444" cy="476.007" r="1.49146" fill="#BCBCBC"/>
<circle cx="468.813" cy="477.994" r="1.49146" fill="#BCBCBC"/>
<circle cx="1298.06" cy="476.007" r="1.49146" fill="#BCBCBC"/>
<circle cx="1659.99" cy="476.007" r="1.49146" fill="#BCBCBC"/>
<circle cx="53.1946" cy="161.807" r="1.49146" fill="#BCBCBC"/>
<circle cx="53.1946" cy="791.201" r="1.49146" fill="#BCBCBC"/>
<circle cx="882.444" cy="159.818" r="1.49146" fill="#BCBCBC"/>
<circle cx="882.444" cy="789.212" r="1.49146" fill="#BCBCBC"/>
<circle cx="468.813" cy="161.807" r="1.49146" fill="#BCBCBC"/>
<circle cx="468.813" cy="791.201" r="1.49146" fill="#BCBCBC"/>
<circle cx="1298.06" cy="159.818" r="1.49146" fill="#BCBCBC"/>
<circle cx="1659.99" cy="159.818" r="1.49146" fill="#BCBCBC"/>
<circle cx="1298.06" cy="789.212" r="1.49146" fill="#BCBCBC"/>
<circle cx="1659.99" cy="789.212" r="1.49146" fill="#BCBCBC"/>
<circle cx="53.1946" cy="372.598" r="1.49146" fill="#BCBCBC"/>
<circle cx="882.444" cy="370.611" r="1.49146" fill="#BCBCBC"/>
<circle cx="468.813" cy="372.598" r="1.49146" fill="#BCBCBC"/>
<circle cx="1298.06" cy="370.611" r="1.49146" fill="#BCBCBC"/>
<circle cx="1659.99" cy="370.611" r="1.49146" fill="#BCBCBC"/>
<circle cx="53.1946" cy="583.391" r="1.49146" fill="#BCBCBC"/>
<circle cx="882.444" cy="581.403" r="1.49146" fill="#BCBCBC"/>
<circle cx="468.813" cy="583.391" r="1.49146" fill="#BCBCBC"/>
<circle cx="1298.06" cy="581.403" r="1.49146" fill="#BCBCBC"/>
<circle cx="1659.99" cy="581.403" r="1.49146" fill="#BCBCBC"/>
<circle cx="260.01" cy="3.71265" r="1.49146" fill="#BCBCBC"/>
<circle cx="260.01" cy="633.106" r="1.49146" fill="#BCBCBC"/>
<circle cx="1089.26" cy="1.72388" r="1.49146" fill="#BCBCBC"/>
<circle cx="1089.26" cy="631.117" r="1.49146" fill="#BCBCBC"/>
<circle cx="675.629" cy="3.71265" r="1.49146" fill="#BCBCBC"/>
<circle cx="675.629" cy="633.106" r="1.49146" fill="#BCBCBC"/>
<circle cx="1504.88" cy="1.72388" r="1.49146" fill="#BCBCBC"/>
<circle cx="1866.81" cy="1.72388" r="1.49146" fill="#BCBCBC"/>
<circle cx="1504.88" cy="631.117" r="1.49146" fill="#BCBCBC"/>
<circle cx="1866.81" cy="631.117" r="1.49146" fill="#BCBCBC"/>
<circle cx="260.01" cy="214.505" r="1.49146" fill="#BCBCBC"/>
<circle cx="260.01" cy="843.899" r="1.49146" fill="#BCBCBC"/>
<circle cx="1089.26" cy="212.516" r="1.49146" fill="#BCBCBC"/>
<circle cx="1089.26" cy="841.91" r="1.49146" fill="#BCBCBC"/>
<circle cx="675.629" cy="214.505" r="1.49146" fill="#BCBCBC"/>
<circle cx="675.629" cy="843.899" r="1.49146" fill="#BCBCBC"/>
<circle cx="1504.88" cy="212.516" r="1.49146" fill="#BCBCBC"/>
<circle cx="1866.81" cy="212.516" r="1.49146" fill="#BCBCBC"/>
<circle cx="1504.88" cy="841.91" r="1.49146" fill="#BCBCBC"/>
<circle cx="1866.81" cy="841.91" r="1.49146" fill="#BCBCBC"/>
<circle cx="260.01" cy="425.297" r="1.49146" fill="#BCBCBC"/>
<circle cx="1089.26" cy="423.308" r="1.49146" fill="#BCBCBC"/>
<circle cx="675.629" cy="425.297" r="1.49146" fill="#BCBCBC"/>
<circle cx="1504.88" cy="423.308" r="1.49146" fill="#BCBCBC"/>
<circle cx="1866.81" cy="423.308" r="1.49146" fill="#BCBCBC"/>
<circle cx="260.01" cy="109.109" r="1.49146" fill="#BCBCBC"/>
<circle cx="260.01" cy="738.503" r="1.49146" fill="#BCBCBC"/>
<circle cx="1089.26" cy="107.12" r="1.49146" fill="#BCBCBC"/>
<circle cx="1089.26" cy="736.514" r="1.49146" fill="#BCBCBC"/>
<circle cx="675.629" cy="109.109" r="1.49146" fill="#BCBCBC"/>
<circle cx="675.629" cy="738.503" r="1.49146" fill="#BCBCBC"/>
<circle cx="1504.88" cy="107.12" r="1.49146" fill="#BCBCBC"/>
<circle cx="1866.81" cy="107.12" r="1.49146" fill="#BCBCBC"/>
<circle cx="1504.88" cy="736.514" r="1.49146" fill="#BCBCBC"/>
<circle cx="1866.81" cy="736.514" r="1.49146" fill="#BCBCBC"/>
<circle cx="260.01" cy="319.9" r="1.49146" fill="#BCBCBC"/>
<circle cx="260.01" cy="949.295" r="1.49146" fill="#BCBCBC"/>
<circle cx="1089.26" cy="317.912" r="1.49146" fill="#BCBCBC"/>
<circle cx="1089.26" cy="947.307" r="1.49146" fill="#BCBCBC"/>
<circle cx="675.629" cy="319.9" r="1.49146" fill="#BCBCBC"/>
<circle cx="675.629" cy="949.295" r="1.49146" fill="#BCBCBC"/>
<circle cx="1504.88" cy="317.912" r="1.49146" fill="#BCBCBC"/>
<circle cx="1866.81" cy="317.912" r="1.49146" fill="#BCBCBC"/>
<circle cx="1504.88" cy="947.307" r="1.49146" fill="#BCBCBC"/>
<circle cx="1866.81" cy="947.307" r="1.49146" fill="#BCBCBC"/>
<circle cx="260.01" cy="530.694" r="1.49146" fill="#BCBCBC"/>
<circle cx="1089.26" cy="528.704" r="1.49146" fill="#BCBCBC"/>
<circle cx="675.629" cy="530.694" r="1.49146" fill="#BCBCBC"/>
<circle cx="1504.88" cy="528.704" r="1.49146" fill="#BCBCBC"/>
<circle cx="1866.81" cy="528.704" r="1.49146" fill="#BCBCBC"/>
<circle cx="260.01" cy="56.4109" r="1.49146" fill="#BCBCBC"/>
<circle cx="260.01" cy="685.804" r="1.49146" fill="#BCBCBC"/>
<circle cx="1089.26" cy="54.4226" r="1.49146" fill="#BCBCBC"/>
<circle cx="1089.26" cy="683.816" r="1.49146" fill="#BCBCBC"/>
<circle cx="675.629" cy="56.4109" r="1.49146" fill="#BCBCBC"/>
<circle cx="675.629" cy="685.804" r="1.49146" fill="#BCBCBC"/>
<circle cx="1504.88" cy="54.4226" r="1.49146" fill="#BCBCBC"/>
<circle cx="1866.81" cy="54.4226" r="1.49146" fill="#BCBCBC"/>
<circle cx="1504.88" cy="683.816" r="1.49146" fill="#BCBCBC"/>
<circle cx="1866.81" cy="683.816" r="1.49146" fill="#BCBCBC"/>
<circle cx="260.01" cy="267.203" r="1.49146" fill="#BCBCBC"/>
<circle cx="260.01" cy="896.597" r="1.49146" fill="#BCBCBC"/>
<circle cx="1089.26" cy="265.214" r="1.49146" fill="#BCBCBC"/>
<circle cx="1089.26" cy="894.609" r="1.49146" fill="#BCBCBC"/>
<circle cx="675.629" cy="267.203" r="1.49146" fill="#BCBCBC"/>
<circle cx="675.629" cy="896.597" r="1.49146" fill="#BCBCBC"/>
<circle cx="1504.88" cy="265.214" r="1.49146" fill="#BCBCBC"/>
<circle cx="1866.81" cy="265.214" r="1.49146" fill="#BCBCBC"/>
<circle cx="1504.88" cy="894.609" r="1.49146" fill="#BCBCBC"/>
<circle cx="1866.81" cy="894.609" r="1.49146" fill="#BCBCBC"/>
<circle cx="260.01" cy="477.994" r="1.49146" fill="#BCBCBC"/>
<circle cx="1089.26" cy="476.007" r="1.49146" fill="#BCBCBC"/>
<circle cx="675.629" cy="477.994" r="1.49146" fill="#BCBCBC"/>
<circle cx="1504.88" cy="476.007" r="1.49146" fill="#BCBCBC"/>
<circle cx="1866.81" cy="476.007" r="1.49146" fill="#BCBCBC"/>
<circle cx="260.01" cy="161.807" r="1.49146" fill="#BCBCBC"/>
<circle cx="260.01" cy="791.201" r="1.49146" fill="#BCBCBC"/>
<circle cx="1089.26" cy="159.818" r="1.49146" fill="#BCBCBC"/>
<circle cx="1089.26" cy="789.212" r="1.49146" fill="#BCBCBC"/>
<circle cx="675.629" cy="161.807" r="1.49146" fill="#BCBCBC"/>
<circle cx="675.629" cy="791.201" r="1.49146" fill="#BCBCBC"/>
<circle cx="1504.88" cy="159.818" r="1.49146" fill="#BCBCBC"/>
<circle cx="1866.81" cy="159.818" r="1.49146" fill="#BCBCBC"/>
<circle cx="1504.88" cy="789.212" r="1.49146" fill="#BCBCBC"/>
<circle cx="1866.81" cy="789.212" r="1.49146" fill="#BCBCBC"/>
<circle cx="260.01" cy="372.598" r="1.49146" fill="#BCBCBC"/>
<circle cx="1089.26" cy="370.611" r="1.49146" fill="#BCBCBC"/>
<circle cx="675.629" cy="372.598" r="1.49146" fill="#BCBCBC"/>
<circle cx="1504.88" cy="370.611" r="1.49146" fill="#BCBCBC"/>
<circle cx="1866.81" cy="370.611" r="1.49146" fill="#BCBCBC"/>
<circle cx="260.01" cy="583.391" r="1.49146" fill="#BCBCBC"/>
<circle cx="1089.26" cy="581.403" r="1.49146" fill="#BCBCBC"/>
<circle cx="675.629" cy="583.391" r="1.49146" fill="#BCBCBC"/>
<circle cx="1504.88" cy="581.403" r="1.49146" fill="#BCBCBC"/>
<circle cx="1866.81" cy="581.403" r="1.49146" fill="#BCBCBC"/>
<circle cx="104.899" cy="3.71265" r="1.49146" fill="#BCBCBC"/>
<circle cx="104.899" cy="633.106" r="1.49146" fill="#BCBCBC"/>
<circle cx="934.148" cy="1.72388" r="1.49146" fill="#BCBCBC"/>
<circle cx="934.148" cy="631.117" r="1.49146" fill="#BCBCBC"/>
<circle cx="520.517" cy="3.71265" r="1.49146" fill="#BCBCBC"/>
<circle cx="520.517" cy="633.106" r="1.49146" fill="#BCBCBC"/>
<circle cx="1349.77" cy="1.72388" r="1.49146" fill="#BCBCBC"/>
<circle cx="1711.69" cy="1.72388" r="1.49146" fill="#BCBCBC"/>
<circle cx="1349.77" cy="631.117" r="1.49146" fill="#BCBCBC"/>
<circle cx="1711.69" cy="631.117" r="1.49146" fill="#BCBCBC"/>
<circle cx="104.899" cy="214.505" r="1.49146" fill="#BCBCBC"/>
<circle cx="104.899" cy="843.899" r="1.49146" fill="#BCBCBC"/>
<circle cx="934.148" cy="212.516" r="1.49146" fill="#BCBCBC"/>
<circle cx="934.148" cy="841.91" r="1.49146" fill="#BCBCBC"/>
<circle cx="520.517" cy="214.505" r="1.49146" fill="#BCBCBC"/>
<circle cx="520.517" cy="843.899" r="1.49146" fill="#BCBCBC"/>
<circle cx="1349.77" cy="212.516" r="1.49146" fill="#BCBCBC"/>
<circle cx="1711.69" cy="212.516" r="1.49146" fill="#BCBCBC"/>
<circle cx="1349.77" cy="841.91" r="1.49146" fill="#BCBCBC"/>
<circle cx="1711.69" cy="841.91" r="1.49146" fill="#BCBCBC"/>
<circle cx="104.899" cy="425.297" r="1.49146" fill="#BCBCBC"/>
<circle cx="934.148" cy="423.308" r="1.49146" fill="#BCBCBC"/>
<circle cx="520.517" cy="425.297" r="1.49146" fill="#BCBCBC"/>
<circle cx="1349.77" cy="423.308" r="1.49146" fill="#BCBCBC"/>
<circle cx="1711.69" cy="423.308" r="1.49146" fill="#BCBCBC"/>
<circle cx="104.899" cy="109.109" r="1.49146" fill="#BCBCBC"/>
<circle cx="104.899" cy="738.503" r="1.49146" fill="#BCBCBC"/>
<circle cx="934.148" cy="107.12" r="1.49146" fill="#BCBCBC"/>
<circle cx="934.148" cy="736.514" r="1.49146" fill="#BCBCBC"/>
<circle cx="520.517" cy="109.109" r="1.49146" fill="#BCBCBC"/>
<circle cx="520.517" cy="738.503" r="1.49146" fill="#BCBCBC"/>
<circle cx="1349.77" cy="107.12" r="1.49146" fill="#BCBCBC"/>
<circle cx="1711.69" cy="107.12" r="1.49146" fill="#BCBCBC"/>
<circle cx="1349.77" cy="736.514" r="1.49146" fill="#BCBCBC"/>
<circle cx="1711.69" cy="736.514" r="1.49146" fill="#BCBCBC"/>
<circle cx="104.899" cy="319.9" r="1.49146" fill="#BCBCBC"/>
<circle cx="104.899" cy="949.295" r="1.49146" fill="#BCBCBC"/>
<circle cx="934.148" cy="317.912" r="1.49146" fill="#BCBCBC"/>
<circle cx="934.148" cy="947.307" r="1.49146" fill="#BCBCBC"/>
<circle cx="520.517" cy="319.9" r="1.49146" fill="#BCBCBC"/>
<circle cx="520.517" cy="949.295" r="1.49146" fill="#BCBCBC"/>
<circle cx="1349.77" cy="317.912" r="1.49146" fill="#BCBCBC"/>
<circle cx="1711.69" cy="317.912" r="1.49146" fill="#BCBCBC"/>
<circle cx="1349.77" cy="947.307" r="1.49146" fill="#BCBCBC"/>
<circle cx="1711.69" cy="947.307" r="1.49146" fill="#BCBCBC"/>
<circle cx="104.899" cy="530.694" r="1.49146" fill="#BCBCBC"/>
<circle cx="934.148" cy="528.704" r="1.49146" fill="#BCBCBC"/>
<circle cx="520.517" cy="530.694" r="1.49146" fill="#BCBCBC"/>
<circle cx="1349.77" cy="528.704" r="1.49146" fill="#BCBCBC"/>
<circle cx="1711.69" cy="528.704" r="1.49146" fill="#BCBCBC"/>
<circle cx="104.899" cy="56.4109" r="1.49146" fill="#BCBCBC"/>
<circle cx="104.899" cy="685.804" r="1.49146" fill="#BCBCBC"/>
<circle cx="934.148" cy="54.4226" r="1.49146" fill="#BCBCBC"/>
<circle cx="934.148" cy="683.816" r="1.49146" fill="#BCBCBC"/>
<circle cx="520.517" cy="56.4109" r="1.49146" fill="#BCBCBC"/>
<circle cx="520.517" cy="685.804" r="1.49146" fill="#BCBCBC"/>
<circle cx="1349.77" cy="54.4226" r="1.49146" fill="#BCBCBC"/>
<circle cx="1711.69" cy="54.4226" r="1.49146" fill="#BCBCBC"/>
<circle cx="1349.77" cy="683.816" r="1.49146" fill="#BCBCBC"/>
<circle cx="1711.69" cy="683.816" r="1.49146" fill="#BCBCBC"/>
<circle cx="104.899" cy="267.203" r="1.49146" fill="#BCBCBC"/>
<circle cx="104.899" cy="896.597" r="1.49146" fill="#BCBCBC"/>
<circle cx="934.148" cy="265.214" r="1.49146" fill="#BCBCBC"/>
<circle cx="934.148" cy="894.609" r="1.49146" fill="#BCBCBC"/>
<circle cx="520.517" cy="267.203" r="1.49146" fill="#BCBCBC"/>
<circle cx="520.517" cy="896.597" r="1.49146" fill="#BCBCBC"/>
<circle cx="1349.77" cy="265.214" r="1.49146" fill="#BCBCBC"/>
<circle cx="1711.69" cy="265.214" r="1.49146" fill="#BCBCBC"/>
<circle cx="1349.77" cy="894.609" r="1.49146" fill="#BCBCBC"/>
<circle cx="1711.69" cy="894.609" r="1.49146" fill="#BCBCBC"/>
<circle cx="104.899" cy="477.994" r="1.49146" fill="#BCBCBC"/>
<circle cx="934.148" cy="476.007" r="1.49146" fill="#BCBCBC"/>
<circle cx="520.517" cy="477.994" r="1.49146" fill="#BCBCBC"/>
<circle cx="1349.77" cy="476.007" r="1.49146" fill="#BCBCBC"/>
<circle cx="1711.69" cy="476.007" r="1.49146" fill="#BCBCBC"/>
<circle cx="104.899" cy="161.807" r="1.49146" fill="#BCBCBC"/>
<circle cx="104.899" cy="791.201" r="1.49146" fill="#BCBCBC"/>
<circle cx="934.148" cy="159.818" r="1.49146" fill="#BCBCBC"/>
<circle cx="934.148" cy="789.212" r="1.49146" fill="#BCBCBC"/>
<circle cx="520.517" cy="161.807" r="1.49146" fill="#BCBCBC"/>
<circle cx="520.517" cy="791.201" r="1.49146" fill="#BCBCBC"/>
<circle cx="1349.77" cy="159.818" r="1.49146" fill="#BCBCBC"/>
<circle cx="1711.69" cy="159.818" r="1.49146" fill="#BCBCBC"/>
<circle cx="1349.77" cy="789.212" r="1.49146" fill="#BCBCBC"/>
<circle cx="1711.69" cy="789.212" r="1.49146" fill="#BCBCBC"/>
<circle cx="104.899" cy="372.598" r="1.49146" fill="#BCBCBC"/>
<circle cx="934.148" cy="370.611" r="1.49146" fill="#BCBCBC"/>
<circle cx="520.517" cy="372.598" r="1.49146" fill="#BCBCBC"/>
<circle cx="1349.77" cy="370.611" r="1.49146" fill="#BCBCBC"/>
<circle cx="1711.69" cy="370.611" r="1.49146" fill="#BCBCBC"/>
<circle cx="104.899" cy="583.391" r="1.49146" fill="#BCBCBC"/>
<circle cx="934.148" cy="581.403" r="1.49146" fill="#BCBCBC"/>
<circle cx="520.517" cy="583.391" r="1.49146" fill="#BCBCBC"/>
<circle cx="1349.77" cy="581.403" r="1.49146" fill="#BCBCBC"/>
<circle cx="1711.69" cy="581.403" r="1.49146" fill="#BCBCBC"/>
<circle cx="311.714" cy="3.71265" r="1.49146" fill="#BCBCBC"/>
<circle cx="311.714" cy="633.106" r="1.49146" fill="#BCBCBC"/>
<circle cx="1140.96" cy="1.72388" r="1.49146" fill="#BCBCBC"/>
<circle cx="1140.96" cy="631.117" r="1.49146" fill="#BCBCBC"/>
<circle cx="727.333" cy="3.71265" r="1.49146" fill="#BCBCBC"/>
<circle cx="727.333" cy="633.106" r="1.49146" fill="#BCBCBC"/>
<circle cx="1556.58" cy="1.72388" r="1.49146" fill="#BCBCBC"/>
<circle cx="1918.51" cy="1.72388" r="1.49146" fill="#BCBCBC"/>
<circle cx="1556.58" cy="631.117" r="1.49146" fill="#BCBCBC"/>
<circle cx="1918.51" cy="631.117" r="1.49146" fill="#BCBCBC"/>
<circle cx="311.714" cy="214.505" r="1.49146" fill="#BCBCBC"/>
<circle cx="311.714" cy="843.899" r="1.49146" fill="#BCBCBC"/>
<circle cx="1140.96" cy="212.516" r="1.49146" fill="#BCBCBC"/>
<circle cx="1140.96" cy="841.91" r="1.49146" fill="#BCBCBC"/>
<circle cx="727.333" cy="214.505" r="1.49146" fill="#BCBCBC"/>
<circle cx="727.333" cy="843.899" r="1.49146" fill="#BCBCBC"/>
<circle cx="1556.58" cy="212.516" r="1.49146" fill="#BCBCBC"/>
<circle cx="1918.51" cy="212.516" r="1.49146" fill="#BCBCBC"/>
<circle cx="1556.58" cy="841.91" r="1.49146" fill="#BCBCBC"/>
<circle cx="1918.51" cy="841.91" r="1.49146" fill="#BCBCBC"/>
<circle cx="311.714" cy="425.297" r="1.49146" fill="#BCBCBC"/>
<circle cx="1140.96" cy="423.308" r="1.49146" fill="#BCBCBC"/>
<circle cx="727.333" cy="425.297" r="1.49146" fill="#BCBCBC"/>
<circle cx="1556.58" cy="423.308" r="1.49146" fill="#BCBCBC"/>
<circle cx="1918.51" cy="423.308" r="1.49146" fill="#BCBCBC"/>
<circle cx="311.714" cy="109.109" r="1.49146" fill="#BCBCBC"/>
<circle cx="311.714" cy="738.503" r="1.49146" fill="#BCBCBC"/>
<circle cx="1140.96" cy="107.12" r="1.49146" fill="#BCBCBC"/>
<circle cx="1140.96" cy="736.514" r="1.49146" fill="#BCBCBC"/>
<circle cx="727.333" cy="109.109" r="1.49146" fill="#BCBCBC"/>
<circle cx="727.333" cy="738.503" r="1.49146" fill="#BCBCBC"/>
<circle cx="1556.58" cy="107.12" r="1.49146" fill="#BCBCBC"/>
<circle cx="1918.51" cy="107.12" r="1.49146" fill="#BCBCBC"/>
<circle cx="1556.58" cy="736.514" r="1.49146" fill="#BCBCBC"/>
<circle cx="1918.51" cy="736.514" r="1.49146" fill="#BCBCBC"/>
<circle cx="311.714" cy="319.9" r="1.49146" fill="#BCBCBC"/>
<circle cx="311.714" cy="949.295" r="1.49146" fill="#BCBCBC"/>
<circle cx="1140.96" cy="317.912" r="1.49146" fill="#BCBCBC"/>
<circle cx="1140.96" cy="947.307" r="1.49146" fill="#BCBCBC"/>
<circle cx="727.333" cy="319.9" r="1.49146" fill="#BCBCBC"/>
<circle cx="727.333" cy="949.295" r="1.49146" fill="#BCBCBC"/>
<circle cx="1556.58" cy="317.912" r="1.49146" fill="#BCBCBC"/>
<circle cx="1918.51" cy="317.912" r="1.49146" fill="#BCBCBC"/>
<circle cx="1556.58" cy="947.307" r="1.49146" fill="#BCBCBC"/>
<circle cx="1918.51" cy="947.307" r="1.49146" fill="#BCBCBC"/>
<circle cx="311.714" cy="530.694" r="1.49146" fill="#BCBCBC"/>
<circle cx="1140.96" cy="528.704" r="1.49146" fill="#BCBCBC"/>
<circle cx="727.333" cy="530.694" r="1.49146" fill="#BCBCBC"/>
<circle cx="1556.58" cy="528.704" r="1.49146" fill="#BCBCBC"/>
<circle cx="1918.51" cy="528.704" r="1.49146" fill="#BCBCBC"/>
<circle cx="311.714" cy="56.4109" r="1.49146" fill="#BCBCBC"/>
<circle cx="311.714" cy="685.804" r="1.49146" fill="#BCBCBC"/>
<circle cx="1140.96" cy="54.4226" r="1.49146" fill="#BCBCBC"/>
<circle cx="1140.96" cy="683.816" r="1.49146" fill="#BCBCBC"/>
<circle cx="727.333" cy="56.4109" r="1.49146" fill="#BCBCBC"/>
<circle cx="727.333" cy="685.804" r="1.49146" fill="#BCBCBC"/>
<circle cx="1556.58" cy="54.4226" r="1.49146" fill="#BCBCBC"/>
<circle cx="1918.51" cy="54.4226" r="1.49146" fill="#BCBCBC"/>
<circle cx="1556.58" cy="683.816" r="1.49146" fill="#BCBCBC"/>
<circle cx="1918.51" cy="683.816" r="1.49146" fill="#BCBCBC"/>
<circle cx="311.714" cy="267.203" r="1.49146" fill="#BCBCBC"/>
<circle cx="311.714" cy="896.597" r="1.49146" fill="#BCBCBC"/>
<circle cx="1140.96" cy="265.214" r="1.49146" fill="#BCBCBC"/>
<circle cx="1140.96" cy="894.609" r="1.49146" fill="#BCBCBC"/>
<circle cx="727.333" cy="267.203" r="1.49146" fill="#BCBCBC"/>
<circle cx="727.333" cy="896.597" r="1.49146" fill="#BCBCBC"/>
<circle cx="1556.58" cy="265.214" r="1.49146" fill="#BCBCBC"/>
<circle cx="1918.51" cy="265.214" r="1.49146" fill="#BCBCBC"/>
<circle cx="1556.58" cy="894.609" r="1.49146" fill="#BCBCBC"/>
<circle cx="1918.51" cy="894.609" r="1.49146" fill="#BCBCBC"/>
<circle cx="311.714" cy="477.994" r="1.49146" fill="#BCBCBC"/>
<circle cx="1140.96" cy="476.007" r="1.49146" fill="#BCBCBC"/>
<circle cx="727.333" cy="477.994" r="1.49146" fill="#BCBCBC"/>
<circle cx="1556.58" cy="476.007" r="1.49146" fill="#BCBCBC"/>
<circle cx="1918.51" cy="476.007" r="1.49146" fill="#BCBCBC"/>
<circle cx="311.714" cy="161.807" r="1.49146" fill="#BCBCBC"/>
<circle cx="311.714" cy="791.201" r="1.49146" fill="#BCBCBC"/>
<circle cx="1140.96" cy="159.818" r="1.49146" fill="#BCBCBC"/>
<circle cx="1140.96" cy="789.212" r="1.49146" fill="#BCBCBC"/>
<circle cx="727.333" cy="161.807" r="1.49146" fill="#BCBCBC"/>
<circle cx="727.333" cy="791.201" r="1.49146" fill="#BCBCBC"/>
<circle cx="1556.58" cy="159.818" r="1.49146" fill="#BCBCBC"/>
<circle cx="1918.51" cy="159.818" r="1.49146" fill="#BCBCBC"/>
<circle cx="1556.58" cy="789.212" r="1.49146" fill="#BCBCBC"/>
<circle cx="1918.51" cy="789.212" r="1.49146" fill="#BCBCBC"/>
<circle cx="311.714" cy="372.598" r="1.49146" fill="#BCBCBC"/>
<circle cx="1140.96" cy="370.611" r="1.49146" fill="#BCBCBC"/>
<circle cx="727.333" cy="372.598" r="1.49146" fill="#BCBCBC"/>
<circle cx="1556.58" cy="370.611" r="1.49146" fill="#BCBCBC"/>
<circle cx="1918.51" cy="370.611" r="1.49146" fill="#BCBCBC"/>
<circle cx="311.714" cy="583.391" r="1.49146" fill="#BCBCBC"/>
<circle cx="1140.96" cy="581.403" r="1.49146" fill="#BCBCBC"/>
<circle cx="727.333" cy="583.391" r="1.49146" fill="#BCBCBC"/>
<circle cx="1556.58" cy="581.403" r="1.49146" fill="#BCBCBC"/>
<circle cx="1918.51" cy="581.403" r="1.49146" fill="#BCBCBC"/>
<circle cx="156.603" cy="3.71265" r="1.49146" fill="#BCBCBC"/>
<circle cx="156.603" cy="633.106" r="1.49146" fill="#BCBCBC"/>
<circle cx="985.851" cy="1.72388" r="1.49146" fill="#BCBCBC"/>
<circle cx="985.851" cy="631.117" r="1.49146" fill="#BCBCBC"/>
<circle cx="572.221" cy="3.71265" r="1.49146" fill="#BCBCBC"/>
<circle cx="572.221" cy="633.106" r="1.49146" fill="#BCBCBC"/>
<circle cx="1401.47" cy="1.72388" r="1.49146" fill="#BCBCBC"/>
<circle cx="1763.4" cy="1.72388" r="1.49146" fill="#BCBCBC"/>
<circle cx="1401.47" cy="631.117" r="1.49146" fill="#BCBCBC"/>
<circle cx="1763.4" cy="631.117" r="1.49146" fill="#BCBCBC"/>
<circle cx="156.603" cy="214.505" r="1.49146" fill="#BCBCBC"/>
<circle cx="156.603" cy="843.899" r="1.49146" fill="#BCBCBC"/>
<circle cx="985.851" cy="212.516" r="1.49146" fill="#BCBCBC"/>
<circle cx="985.851" cy="841.91" r="1.49146" fill="#BCBCBC"/>
<circle cx="572.221" cy="214.505" r="1.49146" fill="#BCBCBC"/>
<circle cx="572.221" cy="843.899" r="1.49146" fill="#BCBCBC"/>
<circle cx="1401.47" cy="212.516" r="1.49146" fill="#BCBCBC"/>
<circle cx="1763.4" cy="212.516" r="1.49146" fill="#BCBCBC"/>
<circle cx="1401.47" cy="841.91" r="1.49146" fill="#BCBCBC"/>
<circle cx="1763.4" cy="841.91" r="1.49146" fill="#BCBCBC"/>
<circle cx="156.603" cy="425.297" r="1.49146" fill="#BCBCBC"/>
<circle cx="985.851" cy="423.308" r="1.49146" fill="#BCBCBC"/>
<circle cx="572.221" cy="425.297" r="1.49146" fill="#BCBCBC"/>
<circle cx="1401.47" cy="423.308" r="1.49146" fill="#BCBCBC"/>
<circle cx="1763.4" cy="423.308" r="1.49146" fill="#BCBCBC"/>
<circle cx="156.603" cy="109.109" r="1.49146" fill="#BCBCBC"/>
<circle cx="156.603" cy="738.503" r="1.49146" fill="#BCBCBC"/>
<circle cx="985.851" cy="107.12" r="1.49146" fill="#BCBCBC"/>
<circle cx="985.851" cy="736.514" r="1.49146" fill="#BCBCBC"/>
<circle cx="572.221" cy="109.109" r="1.49146" fill="#BCBCBC"/>
<circle cx="572.221" cy="738.503" r="1.49146" fill="#BCBCBC"/>
<circle cx="1401.47" cy="107.12" r="1.49146" fill="#BCBCBC"/>
<circle cx="1763.4" cy="107.12" r="1.49146" fill="#BCBCBC"/>
<circle cx="1401.47" cy="736.514" r="1.49146" fill="#BCBCBC"/>
<circle cx="1763.4" cy="736.514" r="1.49146" fill="#BCBCBC"/>
<circle cx="156.603" cy="319.9" r="1.49146" fill="#BCBCBC"/>
<circle cx="156.603" cy="949.295" r="1.49146" fill="#BCBCBC"/>
<circle cx="985.851" cy="317.912" r="1.49146" fill="#BCBCBC"/>
<circle cx="985.851" cy="947.307" r="1.49146" fill="#BCBCBC"/>
<circle cx="572.221" cy="319.9" r="1.49146" fill="#BCBCBC"/>
<circle cx="572.221" cy="949.295" r="1.49146" fill="#BCBCBC"/>
<circle cx="1401.47" cy="317.912" r="1.49146" fill="#BCBCBC"/>
<circle cx="1763.4" cy="317.912" r="1.49146" fill="#BCBCBC"/>
<circle cx="1401.47" cy="947.307" r="1.49146" fill="#BCBCBC"/>
<circle cx="1763.4" cy="947.307" r="1.49146" fill="#BCBCBC"/>
<circle cx="156.603" cy="530.694" r="1.49146" fill="#BCBCBC"/>
<circle cx="985.851" cy="528.704" r="1.49146" fill="#BCBCBC"/>
<circle cx="572.221" cy="530.694" r="1.49146" fill="#BCBCBC"/>
<circle cx="1401.47" cy="528.704" r="1.49146" fill="#BCBCBC"/>
<circle cx="1763.4" cy="528.704" r="1.49146" fill="#BCBCBC"/>
<circle cx="156.603" cy="56.4109" r="1.49146" fill="#BCBCBC"/>
<circle cx="156.603" cy="685.804" r="1.49146" fill="#BCBCBC"/>
<circle cx="985.851" cy="54.4226" r="1.49146" fill="#BCBCBC"/>
<circle cx="985.851" cy="683.816" r="1.49146" fill="#BCBCBC"/>
<circle cx="572.221" cy="56.4109" r="1.49146" fill="#BCBCBC"/>
<circle cx="572.221" cy="685.804" r="1.49146" fill="#BCBCBC"/>
<circle cx="1401.47" cy="54.4226" r="1.49146" fill="#BCBCBC"/>
<circle cx="1763.4" cy="54.4226" r="1.49146" fill="#BCBCBC"/>
<circle cx="1401.47" cy="683.816" r="1.49146" fill="#BCBCBC"/>
<circle cx="1763.4" cy="683.816" r="1.49146" fill="#BCBCBC"/>
<circle cx="156.603" cy="267.203" r="1.49146" fill="#BCBCBC"/>
<circle cx="156.603" cy="896.597" r="1.49146" fill="#BCBCBC"/>
<circle cx="985.851" cy="265.214" r="1.49146" fill="#BCBCBC"/>
<circle cx="985.851" cy="894.609" r="1.49146" fill="#BCBCBC"/>
<circle cx="572.221" cy="267.203" r="1.49146" fill="#BCBCBC"/>
<circle cx="572.221" cy="896.597" r="1.49146" fill="#BCBCBC"/>
<circle cx="1401.47" cy="265.214" r="1.49146" fill="#BCBCBC"/>
<circle cx="1763.4" cy="265.214" r="1.49146" fill="#BCBCBC"/>
<circle cx="1401.47" cy="894.609" r="1.49146" fill="#BCBCBC"/>
<circle cx="1763.4" cy="894.609" r="1.49146" fill="#BCBCBC"/>
<circle cx="156.603" cy="477.994" r="1.49146" fill="#BCBCBC"/>
<circle cx="985.851" cy="476.007" r="1.49146" fill="#BCBCBC"/>
<circle cx="572.221" cy="477.994" r="1.49146" fill="#BCBCBC"/>
<circle cx="1401.47" cy="476.007" r="1.49146" fill="#BCBCBC"/>
<circle cx="1763.4" cy="476.007" r="1.49146" fill="#BCBCBC"/>
<circle cx="156.603" cy="161.807" r="1.49146" fill="#BCBCBC"/>
<circle cx="156.603" cy="791.201" r="1.49146" fill="#BCBCBC"/>
<circle cx="985.851" cy="159.818" r="1.49146" fill="#BCBCBC"/>
<circle cx="985.851" cy="789.212" r="1.49146" fill="#BCBCBC"/>
<circle cx="572.221" cy="161.807" r="1.49146" fill="#BCBCBC"/>
<circle cx="572.221" cy="791.201" r="1.49146" fill="#BCBCBC"/>
<circle cx="1401.47" cy="159.818" r="1.49146" fill="#BCBCBC"/>
<circle cx="1763.4" cy="159.818" r="1.49146" fill="#BCBCBC"/>
<circle cx="1401.47" cy="789.212" r="1.49146" fill="#BCBCBC"/>
<circle cx="1763.4" cy="789.212" r="1.49146" fill="#BCBCBC"/>
<circle cx="156.603" cy="372.598" r="1.49146" fill="#BCBCBC"/>
<circle cx="985.851" cy="370.611" r="1.49146" fill="#BCBCBC"/>
<circle cx="572.221" cy="372.598" r="1.49146" fill="#BCBCBC"/>
<circle cx="1401.47" cy="370.611" r="1.49146" fill="#BCBCBC"/>
<circle cx="1763.4" cy="370.611" r="1.49146" fill="#BCBCBC"/>
<circle cx="156.603" cy="583.391" r="1.49146" fill="#BCBCBC"/>
<circle cx="985.851" cy="581.403" r="1.49146" fill="#BCBCBC"/>
<circle cx="572.221" cy="583.391" r="1.49146" fill="#BCBCBC"/>
<circle cx="1401.47" cy="581.403" r="1.49146" fill="#BCBCBC"/>
<circle cx="1763.4" cy="581.403" r="1.49146" fill="#BCBCBC"/>
<circle cx="363.418" cy="3.71265" r="1.49146" fill="#BCBCBC"/>
<circle cx="363.418" cy="633.106" r="1.49146" fill="#BCBCBC"/>
<circle cx="1192.67" cy="1.72388" r="1.49146" fill="#BCBCBC"/>
<circle cx="1192.67" cy="631.117" r="1.49146" fill="#BCBCBC"/>
<circle cx="779.037" cy="3.71265" r="1.49146" fill="#BCBCBC"/>
<circle cx="779.037" cy="633.106" r="1.49146" fill="#BCBCBC"/>
<circle cx="1608.28" cy="1.72388" r="1.49146" fill="#BCBCBC"/>
<circle cx="1608.28" cy="631.117" r="1.49146" fill="#BCBCBC"/>
<circle cx="363.418" cy="214.505" r="1.49146" fill="#BCBCBC"/>
<circle cx="363.418" cy="843.899" r="1.49146" fill="#BCBCBC"/>
<circle cx="1192.67" cy="212.516" r="1.49146" fill="#BCBCBC"/>
<circle cx="1192.67" cy="841.91" r="1.49146" fill="#BCBCBC"/>
<circle cx="779.037" cy="214.505" r="1.49146" fill="#BCBCBC"/>
<circle cx="779.037" cy="843.899" r="1.49146" fill="#BCBCBC"/>
<circle cx="1608.28" cy="212.516" r="1.49146" fill="#BCBCBC"/>
<circle cx="1608.28" cy="841.91" r="1.49146" fill="#BCBCBC"/>
<circle cx="363.418" cy="425.297" r="1.49146" fill="#BCBCBC"/>
<circle cx="1192.67" cy="423.308" r="1.49146" fill="#BCBCBC"/>
<circle cx="779.037" cy="425.297" r="1.49146" fill="#BCBCBC"/>
<circle cx="1608.28" cy="423.308" r="1.49146" fill="#BCBCBC"/>
<circle cx="363.418" cy="109.109" r="1.49146" fill="#BCBCBC"/>
<circle cx="363.418" cy="738.503" r="1.49146" fill="#BCBCBC"/>
<circle cx="1192.67" cy="107.12" r="1.49146" fill="#BCBCBC"/>
<circle cx="1192.67" cy="736.514" r="1.49146" fill="#BCBCBC"/>
<circle cx="779.037" cy="109.109" r="1.49146" fill="#BCBCBC"/>
<circle cx="779.037" cy="738.503" r="1.49146" fill="#BCBCBC"/>
<circle cx="1608.28" cy="107.12" r="1.49146" fill="#BCBCBC"/>
<circle cx="1608.28" cy="736.514" r="1.49146" fill="#BCBCBC"/>
<circle cx="363.418" cy="319.9" r="1.49146" fill="#BCBCBC"/>
<circle cx="363.418" cy="949.295" r="1.49146" fill="#BCBCBC"/>
<circle cx="1192.67" cy="317.912" r="1.49146" fill="#BCBCBC"/>
<circle cx="1192.67" cy="947.307" r="1.49146" fill="#BCBCBC"/>
<circle cx="779.037" cy="319.9" r="1.49146" fill="#BCBCBC"/>
<circle cx="779.037" cy="949.295" r="1.49146" fill="#BCBCBC"/>
<circle cx="1608.28" cy="317.912" r="1.49146" fill="#BCBCBC"/>
<circle cx="1608.28" cy="947.307" r="1.49146" fill="#BCBCBC"/>
<circle cx="363.418" cy="530.694" r="1.49146" fill="#BCBCBC"/>
<circle cx="1192.67" cy="528.704" r="1.49146" fill="#BCBCBC"/>
<circle cx="779.037" cy="530.694" r="1.49146" fill="#BCBCBC"/>
<circle cx="1608.28" cy="528.704" r="1.49146" fill="#BCBCBC"/>
<circle cx="363.418" cy="56.4109" r="1.49146" fill="#BCBCBC"/>
<circle cx="363.418" cy="685.804" r="1.49146" fill="#BCBCBC"/>
<circle cx="1192.67" cy="54.4226" r="1.49146" fill="#BCBCBC"/>
<circle cx="1192.67" cy="683.816" r="1.49146" fill="#BCBCBC"/>
<circle cx="779.037" cy="56.4109" r="1.49146" fill="#BCBCBC"/>
<circle cx="779.037" cy="685.804" r="1.49146" fill="#BCBCBC"/>
<circle cx="1608.28" cy="54.4226" r="1.49146" fill="#BCBCBC"/>
<circle cx="1608.28" cy="683.816" r="1.49146" fill="#BCBCBC"/>
<circle cx="363.418" cy="267.203" r="1.49146" fill="#BCBCBC"/>
<circle cx="363.418" cy="896.597" r="1.49146" fill="#BCBCBC"/>
<circle cx="1192.67" cy="265.214" r="1.49146" fill="#BCBCBC"/>
<circle cx="1192.67" cy="894.609" r="1.49146" fill="#BCBCBC"/>
<circle cx="779.037" cy="267.203" r="1.49146" fill="#BCBCBC"/>
<circle cx="779.037" cy="896.597" r="1.49146" fill="#BCBCBC"/>
<circle cx="1608.28" cy="265.214" r="1.49146" fill="#BCBCBC"/>
<circle cx="1608.28" cy="894.609" r="1.49146" fill="#BCBCBC"/>
<circle cx="363.418" cy="477.994" r="1.49146" fill="#BCBCBC"/>
<circle cx="1192.67" cy="476.007" r="1.49146" fill="#BCBCBC"/>
<circle cx="779.037" cy="477.994" r="1.49146" fill="#BCBCBC"/>
<circle cx="1608.28" cy="476.007" r="1.49146" fill="#BCBCBC"/>
<circle cx="363.418" cy="161.807" r="1.49146" fill="#BCBCBC"/>
<circle cx="363.418" cy="791.201" r="1.49146" fill="#BCBCBC"/>
<circle cx="1192.67" cy="159.818" r="1.49146" fill="#BCBCBC"/>
<circle cx="1192.67" cy="789.212" r="1.49146" fill="#BCBCBC"/>
<circle cx="779.037" cy="161.807" r="1.49146" fill="#BCBCBC"/>
<circle cx="779.037" cy="791.201" r="1.49146" fill="#BCBCBC"/>
<circle cx="1608.28" cy="159.818" r="1.49146" fill="#BCBCBC"/>
<circle cx="1608.28" cy="789.212" r="1.49146" fill="#BCBCBC"/>
<circle cx="363.418" cy="372.598" r="1.49146" fill="#BCBCBC"/>
<circle cx="1192.67" cy="370.611" r="1.49146" fill="#BCBCBC"/>
<circle cx="779.037" cy="372.598" r="1.49146" fill="#BCBCBC"/>
<circle cx="1608.28" cy="370.611" r="1.49146" fill="#BCBCBC"/>
<circle cx="363.418" cy="583.391" r="1.49146" fill="#BCBCBC"/>
<circle cx="1192.67" cy="581.403" r="1.49146" fill="#BCBCBC"/>
<circle cx="779.037" cy="583.391" r="1.49146" fill="#BCBCBC"/>
<circle cx="1608.28" cy="581.403" r="1.49146" fill="#BCBCBC"/>
</svg>
