<svg width="2643" height="1265" viewBox="0 0 2643 1265" fill="none" xmlns="http://www.w3.org/2000/svg">
<path opacity="0.21" d="M497 962.5C497 1099.74 385.743 1211 248.5 1211C111.257 1211 0 1099.74 0 962.5C0 825.257 111.257 714 248.5 714C385.743 714 497 825.257 497 962.5Z" fill="white"/>
<path d="M362.408 432.235C365.607 432.701 368.165 434.342 370.86 435.689C374.492 437.444 378.265 438.892 382.14 440.016C383.265 440.305 384.317 440.828 385.228 441.551C386.138 442.273 386.886 443.18 387.423 444.21C387.718 444.778 387.905 445.392 387.133 445.818C386.484 446.18 385.977 445.845 385.416 445.536C378.427 441.673 370.63 438.986 363.036 436.002C362.277 435.702 361.535 435.36 360.814 434.978C360.627 434.896 360.459 434.776 360.322 434.625C360.184 434.474 360.08 434.296 360.016 434.102C359.952 433.908 359.93 433.703 359.95 433.5C359.971 433.297 360.034 433.101 360.136 432.924C360.481 432.052 361.478 432.262 362.408 432.235Z" fill="#FFA85A"/>
<path d="M394.344 490.495C394.138 490.844 393.89 491.166 393.605 491.455C388.731 495.619 385.3 500.529 381.868 505.443C381.242 506.338 380.702 507.834 378.881 507.053C377.349 506.396 378.398 505.243 378.846 504.339C381.431 499.145 385.754 494.793 389.851 490.339C390.229 489.844 390.746 489.474 391.336 489.276C391.927 489.079 392.563 489.063 393.162 489.231C393.471 489.281 393.755 489.432 393.969 489.661C394.183 489.89 394.315 490.183 394.344 490.495Z" fill="#FFA85A"/>
<path d="M458.829 500.678C459.101 501.592 458.898 502.149 457.999 502.318C457.61 502.448 457.186 502.426 456.812 502.258C456.437 502.089 456.14 501.786 455.979 501.409C454.382 496.443 449.627 493.068 446.081 489.08C445.207 488.096 444.181 487.012 445.942 486.01C447.756 484.976 448.571 486.157 449.477 487.151C451.664 489.556 453.868 491.952 456.138 494.307C457.007 495.122 457.695 496.11 458.158 497.208C458.622 498.305 458.85 499.487 458.829 500.678V500.678Z" fill="#FFA85A"/>
<path d="M473.314 415.675C473.224 416.857 472.093 417.891 471.157 418.84C467.138 422.909 462.549 426.63 459.89 431.474C459.335 432.485 457.988 434.002 456.37 433.172C454.919 432.428 455.853 431.083 456.728 429.922C460.63 424.752 466.177 420.559 470.344 415.549C470.588 415.268 470.895 415.048 471.239 414.906C471.583 414.764 471.955 414.704 472.326 414.731C472.582 414.726 472.83 414.822 473.015 414.999C473.2 415.176 473.308 415.419 473.314 415.675V415.675Z" fill="#FFA85A"/>
<path d="M381.929 464.332C381.831 465.299 380.924 465.64 380.048 465.957C375.163 467.741 370.299 469.566 365.354 471.24C363.999 471.687 362.688 472.26 361.44 472.952C360.963 473.272 360.382 473.398 359.816 473.303C359.249 473.209 358.741 472.901 358.394 472.444C357.666 471.548 357.951 470.64 359.217 470.394C366.244 469.02 372.009 465.549 378.499 463.29C380.239 462.69 381.382 462.826 381.929 464.332Z" fill="#FFA85A"/>
<path d="M399.035 409.755C400.513 409.995 401.881 410.691 402.945 411.745C405.501 414.398 407.062 417.454 408.519 420.521C409.046 421.629 409.654 422.692 410.259 423.766C410.637 424.439 411.203 425.233 409.94 425.731C409.51 425.921 409.031 425.968 408.573 425.866C408.114 425.763 407.7 425.517 407.392 425.162C406.623 424.383 405.942 423.521 405.362 422.593C403.382 419.047 401.922 415.303 398.669 412.262C398.051 411.683 397.67 410.909 398.198 410.14C398.354 409.912 398.854 409.832 399.035 409.755Z" fill="#FFA85A"/>
<path d="M441.703 409.404C441.613 413.923 439.898 418.245 439.102 422.678C438.928 423.638 438.004 424.192 436.778 424.051C435.449 423.898 435.697 422.991 435.678 422.237C435.577 419.934 435.936 417.634 436.736 415.472C437.866 412.875 438.427 410.066 438.38 407.235C438.331 406.319 438.27 404.924 440.141 405.003C441.899 405.077 441.733 406.387 441.813 407.374C441.825 408.053 441.788 408.731 441.703 409.404Z" fill="#FFA85A"/>
<path d="M424.449 500.914C424.69 503.598 424.913 506.282 425.179 508.964C425.273 509.915 426.129 511.231 424.123 511.354C422.306 511.464 421.636 510.224 421.475 508.956C421.127 506.192 420.763 503.425 420.563 500.653C420.495 499.045 420.287 497.446 419.943 495.873C419.661 494.736 419.962 493.564 421.804 493.391C423.563 493.226 423.91 494.271 424.034 495.355C424.244 497.202 424.427 499.053 424.625 500.901L424.449 500.914Z" fill="#FFA85A"/>
<path d="M480.771 477.442C480.689 478.445 479.82 478.904 478.604 478.651C477.069 478.339 475.564 477.894 474.105 477.322C470.764 475.979 467.495 474.527 464.193 473.124C462.994 472.614 461.709 471.974 462.74 470.81C463.202 470.315 463.813 469.984 464.479 469.866C465.146 469.749 465.834 469.851 466.437 470.159C470.932 472.079 474.825 474.83 479.748 476.163C480.041 476.224 480.304 476.385 480.49 476.618C480.677 476.852 480.776 477.143 480.771 477.442Z" fill="#FFA85A"/>
<path d="M468.308 457.005C467.098 457.112 466.617 456.941 466.304 456.562C465.884 456.056 466.129 455.563 466.543 455.154C467.413 454.295 468.513 453.705 469.71 453.456C475.017 452.354 480.357 451.345 485.67 450.263C486.639 450.065 487.378 450.088 487.832 450.858C488.329 451.697 487.64 452.211 486.846 452.483C480.676 454.558 473.787 454.785 468.308 457.005Z" fill="#FFA85A"/>
<path d="M421.475 508.957C421.126 506.193 420.763 503.425 420.562 500.652C420.494 499.045 420.287 497.446 419.942 495.874C419.661 494.736 419.961 493.565 421.803 493.39C423.561 493.226 423.909 494.272 424.033 495.357C424.243 497.203 424.426 499.05 424.624 500.901L424.449 500.914C424.689 503.598 424.913 506.282 425.178 508.965C425.274 509.916 426.128 511.232 424.124 511.354C424.05 511.358 423.976 511.36 423.902 511.36C422.25 511.361 421.629 510.172 421.475 508.957ZM378.881 507.05C377.349 506.392 378.397 505.239 378.845 504.335C381.43 499.142 385.754 494.791 389.855 490.336C390.232 489.841 390.75 489.471 391.34 489.274C391.931 489.076 392.567 489.06 393.166 489.228C393.475 489.279 393.758 489.431 393.971 489.66C394.185 489.89 394.316 490.183 394.344 490.495C394.138 490.844 393.89 491.167 393.606 491.455C388.731 495.619 385.301 500.528 381.868 505.443C381.365 506.162 380.917 507.273 379.813 507.273C379.491 507.263 379.174 507.187 378.881 507.051L378.881 507.05ZM455.978 501.41C454.38 496.443 449.626 493.068 446.08 489.081C445.205 488.097 444.18 487.013 445.941 486.009C447.756 484.975 448.57 486.157 449.476 487.151C451.661 489.556 453.866 491.952 456.137 494.307C457.006 495.122 457.695 496.109 458.158 497.207C458.622 498.304 458.851 499.487 458.83 500.678C459.101 501.592 458.899 502.149 457.999 502.318C457.837 502.35 457.671 502.366 457.505 502.366C457.181 502.395 456.857 502.318 456.581 502.146C456.305 501.973 456.093 501.714 455.979 501.41H455.978ZM478.604 478.652C477.069 478.34 475.563 477.895 474.105 477.323C470.764 475.981 467.494 474.529 464.193 473.126C462.995 472.616 461.709 471.976 462.738 470.811C463.201 470.316 463.811 469.985 464.478 469.868C465.145 469.751 465.832 469.853 466.436 470.16C470.931 472.081 474.824 474.832 479.748 476.165C480.041 476.226 480.303 476.387 480.49 476.621C480.677 476.855 480.776 477.146 480.77 477.445C480.758 477.632 480.708 477.815 480.623 477.982C480.538 478.149 480.42 478.297 480.276 478.416C480.132 478.536 479.964 478.625 479.785 478.678C479.605 478.73 479.416 478.746 479.23 478.723C479.02 478.72 478.81 478.697 478.605 478.652H478.604ZM358.396 472.448C357.669 471.552 357.956 470.645 359.219 470.398C366.247 469.024 372.012 465.553 378.502 463.294C380.239 462.69 381.383 462.827 381.929 464.333C381.832 465.299 380.924 465.641 380.049 465.957C375.164 467.743 370.299 469.568 365.355 471.241C364 471.688 362.689 472.261 361.44 472.953C361.043 473.188 360.591 473.317 360.129 473.327C359.792 473.322 359.461 473.24 359.161 473.088C358.86 472.935 358.598 472.716 358.396 472.447V472.448ZM466.303 456.564C465.883 456.058 466.128 455.564 466.542 455.156C467.412 454.297 468.511 453.707 469.708 453.457C475.016 452.355 480.355 451.348 485.669 450.266C486.637 450.066 487.377 450.091 487.831 450.857C488.328 451.696 487.64 452.211 486.845 452.482C480.675 454.562 473.786 454.79 468.306 457.011C468.068 457.031 467.858 457.042 467.672 457.042C467.422 457.077 467.168 457.052 466.93 456.969C466.692 456.886 466.477 456.747 466.304 456.563L466.303 456.564ZM385.417 445.541C378.428 441.679 370.63 438.991 363.037 436.007C362.277 435.708 361.535 435.366 360.814 434.982C360.627 434.9 360.459 434.78 360.322 434.629C360.185 434.479 360.081 434.3 360.017 434.106C359.953 433.913 359.93 433.708 359.951 433.505C359.972 433.302 360.035 433.105 360.137 432.928C360.421 432.207 361.149 432.222 361.916 432.237C362.079 432.241 362.246 432.244 362.41 432.237C365.609 432.702 368.167 434.344 370.862 435.691C374.494 437.446 378.267 438.894 382.141 440.018C383.266 440.307 384.319 440.83 385.229 441.553C386.139 442.276 386.887 443.182 387.424 444.213C387.72 444.781 387.907 445.395 387.134 445.821C386.962 445.921 386.767 445.975 386.567 445.977C386.153 445.929 385.758 445.779 385.417 445.54V445.541ZM456.369 433.174C454.918 432.43 455.852 431.085 456.728 429.928C460.63 424.758 466.176 420.564 470.344 415.555C470.588 415.274 470.894 415.054 471.238 414.912C471.582 414.77 471.954 414.711 472.326 414.738C472.581 414.732 472.828 414.827 473.013 415.003C473.199 415.179 473.307 415.421 473.315 415.676C473.225 416.858 472.094 417.891 471.158 418.84C467.139 422.909 462.549 426.632 459.89 431.476C459.446 432.282 458.498 433.413 457.31 433.413C456.981 433.41 456.659 433.329 456.369 433.174V433.174ZM407.392 425.163C406.623 424.383 405.942 423.522 405.361 422.593C403.381 419.048 401.922 415.303 398.669 412.262C398.051 411.683 397.669 410.908 398.198 410.139C398.354 409.912 398.853 409.833 399.034 409.755C400.515 409.994 401.883 410.689 402.949 411.744C405.505 414.398 407.065 417.454 408.523 420.521C409.051 421.629 409.658 422.691 410.263 423.766C410.641 424.438 411.207 425.232 409.944 425.73C409.653 425.848 409.343 425.91 409.029 425.913C408.718 425.912 408.411 425.845 408.129 425.716C407.847 425.587 407.595 425.399 407.391 425.165L407.392 425.163ZM436.779 424.055C435.449 423.902 435.698 422.994 435.678 422.24C435.576 419.937 435.936 417.637 436.736 415.475C437.867 412.878 438.427 410.069 438.38 407.238C438.33 406.321 438.27 404.926 440.139 405.006C441.899 405.08 441.732 406.389 441.813 407.376C441.825 408.055 441.788 408.734 441.703 409.407C441.614 413.926 439.899 418.248 439.102 422.681C439.005 423.113 438.752 423.494 438.392 423.751C438.032 424.008 437.59 424.124 437.15 424.077C437.026 424.076 436.902 424.067 436.778 424.052L436.779 424.055Z" fill="white"/>
<path opacity="0.21" d="M2643 289C2643 448.61 2513.61 578 2354 578C2194.39 578 2065 448.61 2065 289C2065 129.39 2194.39 0 2354 0C2513.61 0 2643 129.39 2643 289Z" fill="white"/>
<path d="M410 743C410 802.647 361.647 851 302 851C242.353 851 194 802.647 194 743C194 683.353 242.353 635 302 635C361.647 635 410 683.353 410 743Z" fill="#DF3E3F"/>
<path d="M1735.01 899.321C1742.87 915.556 1752.61 930.283 1766.12 942.383C1778.02 953.035 1791.93 961.023 1806.33 967.774C1823.86 976 1842.07 982.7 1859.76 990.571C1861.48 991.339 1863.69 990.184 1865.01 989.087C1865.72 988.499 1867.9 986.059 1866.17 985.29C1836.02 971.876 1802.99 962.009 1777.01 940.907C1763.37 929.832 1752.89 915.824 1744.95 900.225C1742.08 894.591 1739.45 888.835 1736.7 883.143C1734.47 885.364 1732.49 887.812 1730.78 890.447C1732.19 893.409 1733.58 896.374 1735.01 899.321Z" fill="#554140"/>
<path d="M1721.4 872.595C1724.62 877.879 1727.39 883.4 1730.07 888.969C1731.83 886.423 1733.86 884.069 1736.11 881.945C1734.61 878.884 1733.07 875.846 1731.42 872.862C1726.46 863.932 1720.36 855.684 1713.27 848.324C1707.9 842.757 1702.18 837.54 1696.15 832.708L1688.82 837.219C1693.32 840.818 1697.68 844.59 1701.83 848.602C1709.35 855.734 1715.93 863.796 1721.4 872.595V872.595Z" fill="#554140"/>
<path d="M1687.84 871.597C1693.61 878.594 1698.58 886.21 1702.66 894.305C1709.47 907.241 1714.19 921.259 1720.7 934.338C1720.94 928.117 1721.01 921.847 1721.58 915.691C1718.25 907.837 1715.06 899.911 1711.23 892.341C1707.25 884.211 1702.46 876.504 1696.93 869.335C1691.83 863.065 1685.65 857.753 1678.69 853.648C1675.87 851.919 1672.98 850.299 1670.02 848.788L1662.41 853.472C1664.45 854.499 1666.47 855.571 1668.46 856.691C1675.62 860.721 1682.47 865.322 1687.84 871.597Z" fill="#554140"/>
<path d="M1721.85 936.594C1723.8 940.379 1725.96 944.048 1728.34 947.583C1734.06 956.213 1741.66 963.435 1750.57 968.702C1759.76 974.015 1769.8 977.659 1779.86 980.947C1791.38 984.719 1802.71 988.841 1813.97 993.337C1825.34 997.876 1836.71 1002.44 1848.37 1006.2C1850.92 1007.02 1857.29 1001.72 1853.52 1000.5C1832.66 993.771 1812.82 984.28 1791.97 977.488C1781.81 974.178 1771.63 970.931 1762.05 966.136C1752.59 961.551 1744.35 954.801 1737.99 946.436C1731.46 937.755 1726.86 928.016 1722.61 918.094C1722.16 924.051 1722.13 930.053 1721.88 936.012C1721.87 936.207 1721.86 936.399 1721.85 936.594Z" fill="#554140"/>
<path d="M1715.05 968.899C1716.12 970.086 1717.2 971.265 1718.29 972.423C1732.05 986.948 1748.54 998.074 1767.6 1004.36C1789.51 1011.58 1812.62 1013.9 1834.8 1020.06C1837.39 1020.77 1843.73 1015.41 1839.95 1014.36C1820.21 1008.88 1799.77 1006.43 1780.05 1000.89C1760.74 995.582 1743.11 985.404 1728.87 971.333C1725.18 967.673 1721.68 963.839 1718.31 959.882C1717.89 961.313 1717.43 962.737 1716.93 964.153C1716.35 965.764 1715.73 967.346 1715.05 968.899Z" fill="#554140"/>
<path d="M1660.16 897.992C1667.73 905.662 1674.21 914.343 1680.46 923.091C1691.26 938.224 1701.68 953.809 1714.04 967.754C1715.3 964.791 1716.39 961.755 1717.29 958.662C1707.77 947.328 1699.32 935.042 1690.83 922.995C1684.65 914.218 1678.37 905.455 1671.17 897.475C1665.15 890.586 1657.87 884.903 1649.73 880.726C1643.54 877.768 1637.18 875.187 1630.68 872.999L1622.92 877.773C1627.94 879.57 1632.95 881.351 1637.77 883.436C1646.04 887.011 1653.8 891.542 1660.16 897.992Z" fill="#554140"/>
<path d="M1657.1 949.672C1671.28 963.326 1684.61 978.005 1699.78 990.594C1701.56 988.5 1703.24 986.341 1704.83 984.115C1691.74 972.986 1679.98 960.386 1667.67 948.398C1652.87 933.971 1637.51 919.921 1620.23 908.487C1612.3 903.228 1603.95 898.649 1595.25 894.8L1587.58 899.523C1594.97 902.695 1602.12 906.418 1608.96 910.66C1626.58 921.565 1642.22 935.338 1657.1 949.672Z" fill="#554140"/>
<path d="M1702.86 993.104C1718.71 1005.81 1736.38 1016.07 1755.28 1023.52C1777.06 1031.97 1800.19 1036.42 1823.55 1036.66C1824.59 1036.56 1825.6 1036.22 1826.49 1035.67C1827.38 1035.12 1828.14 1034.38 1828.69 1033.49C1829.62 1031.88 1828.83 1030.94 1827.11 1030.92C1785.87 1030.41 1746.12 1015.85 1713.37 991.009C1710.8 989.058 1708.3 987.034 1705.83 984.961C1704.23 987.173 1702.54 989.318 1700.75 991.395C1701.46 991.966 1702.15 992.541 1702.86 993.104Z" fill="#554140"/>
<path d="M1569.38 934.178C1580.97 938.493 1592.19 943.163 1602.57 949.97C1611.97 956.135 1620.56 963.423 1629.19 970.597C1645.31 983.99 1661.51 997.469 1678.28 1010.06C1680.54 1008.43 1682.76 1006.73 1684.92 1004.97C1669.99 993.776 1655.66 981.736 1641.22 969.951C1632.4 962.75 1623.84 955.21 1614.59 948.548C1604.99 941.687 1594.56 936.076 1583.55 931.85C1576.57 929.123 1569.53 926.54 1562.44 924.102C1559.3 923.01 1556.14 921.894 1552.98 920.811L1545.1 925.661C1546.9 926.267 1548.7 926.885 1550.49 927.492C1556.82 929.63 1563.12 931.858 1569.38 934.178Z" fill="#554140"/>
<path d="M1679.34 1010.86C1680.45 1011.69 1681.56 1012.51 1682.67 1013.33C1701 1026.84 1720.66 1038.83 1742.46 1045.81C1754.29 1049.59 1766.26 1050.03 1778.59 1049.79C1790.49 1049.57 1802.51 1049.09 1814.09 1052.35C1816.67 1053.08 1823.01 1047.72 1819.24 1046.66C1798.38 1040.77 1776.47 1046.88 1755.45 1042.29C1744.5 1039.9 1733.87 1035.25 1723.94 1030.14C1713.81 1024.84 1704.07 1018.84 1694.79 1012.17C1691.82 1010.07 1688.88 1007.93 1685.97 1005.75C1685.44 1006.19 1684.9 1006.63 1684.36 1007.06C1682.72 1008.36 1681.04 1009.63 1679.34 1010.86Z" fill="#554140"/>
<path d="M1813.73 1052.07C1802.15 1048.8 1790.13 1049.28 1778.23 1049.5C1765.9 1049.73 1753.93 1049.29 1742.1 1045.5C1720.3 1038.52 1700.65 1026.53 1682.32 1013.02C1681.21 1012.21 1680.1 1011.38 1679 1010.55C1680.69 1009.32 1682.37 1008.06 1684.02 1006.75C1684.56 1006.32 1685.09 1005.88 1685.63 1005.45C1688.54 1007.63 1691.48 1009.77 1694.45 1011.87C1703.73 1018.54 1713.46 1024.54 1723.59 1029.84C1733.51 1034.95 1744.15 1039.6 1755.09 1041.99C1776.11 1046.58 1798.03 1040.48 1818.88 1046.37C1822.35 1047.35 1817.27 1051.95 1814.42 1052.13C1814.19 1052.15 1813.96 1052.13 1813.73 1052.07V1052.07ZM1823.2 1036.38C1799.84 1036.14 1776.71 1031.69 1754.93 1023.23C1736.03 1015.78 1718.37 1005.52 1702.53 992.811C1701.82 992.253 1701.13 991.674 1700.43 991.101C1702.21 989.026 1703.9 986.883 1705.51 984.673C1707.97 986.743 1710.47 988.767 1713.04 990.717C1745.78 1015.56 1785.52 1030.13 1826.76 1030.65C1828.48 1030.67 1829.27 1031.61 1828.35 1033.22C1827.81 1034.06 1827.09 1034.78 1826.24 1035.33C1825.4 1035.87 1824.45 1036.23 1823.45 1036.37C1823.37 1036.38 1823.29 1036.38 1823.2 1036.38ZM1834.46 1019.79C1812.29 1013.63 1789.17 1011.31 1767.27 1004.08C1748.21 997.793 1731.72 986.668 1717.98 972.144C1716.88 970.983 1715.8 969.803 1714.73 968.616C1715.41 967.063 1716.04 965.483 1716.62 963.876C1717.13 962.462 1717.58 961.037 1718 959.607C1721.37 963.563 1724.87 967.402 1728.55 971.056C1742.79 985.128 1760.41 995.306 1779.71 1000.61C1799.44 1006.16 1819.88 1008.61 1839.62 1014.1C1843.09 1015.06 1838 1019.68 1835.15 1019.85C1834.92 1019.87 1834.69 1019.85 1834.46 1019.79ZM1848.04 1005.94C1836.38 1002.17 1825.02 997.611 1813.64 993.07C1802.38 988.572 1791.06 984.448 1779.54 980.675C1769.49 977.383 1759.44 973.739 1750.26 968.424C1741.35 963.157 1733.75 955.936 1728.04 947.305C1727.27 946.168 1726.52 945.018 1725.81 943.856C1724.29 941.394 1722.89 938.876 1721.56 936.318C1721.57 936.124 1721.58 935.933 1721.59 935.739C1721.84 929.783 1721.87 923.782 1722.32 917.828C1726.57 927.749 1731.16 937.485 1737.68 946.165C1744.04 954.53 1752.27 961.279 1761.73 965.865C1771.31 970.661 1781.49 973.91 1791.65 977.221C1812.49 984.014 1832.33 993.508 1853.19 1000.24C1856.62 1001.35 1851.64 1005.85 1848.8 1006.02C1848.54 1006.04 1848.28 1006.01 1848.04 1005.94L1848.04 1005.94ZM1628.87 970.288C1620.24 963.114 1611.66 955.827 1602.26 949.662C1591.88 942.856 1580.67 938.181 1569.08 933.861C1562.82 931.531 1556.52 929.301 1550.19 927.172C1548.4 926.566 1546.6 925.949 1544.8 925.342L1552.68 920.496C1555.85 921.577 1559 922.697 1562.14 923.787C1569.22 926.244 1576.26 928.827 1583.25 931.539C1594.26 935.766 1604.69 941.378 1614.28 948.238C1623.52 954.9 1632.08 962.442 1640.91 969.641C1655.34 981.427 1669.66 993.467 1684.58 1004.66C1682.42 1006.42 1680.21 1008.12 1677.94 1009.75C1661.17 997.166 1644.98 983.687 1628.86 970.294L1628.87 970.288ZM1859.44 990.317C1841.75 982.444 1823.55 975.741 1806.02 967.513C1791.63 960.758 1777.71 952.766 1765.83 942.123C1757.01 934.121 1749.41 924.882 1743.25 914.693C1740.15 909.632 1737.31 904.416 1734.74 899.066C1733.31 896.119 1731.92 893.155 1730.51 890.199C1732.23 887.566 1734.21 885.12 1736.44 882.9C1739.19 888.588 1741.81 894.344 1744.68 899.978C1752.61 915.574 1763.08 929.579 1776.72 940.655C1802.69 961.754 1835.71 971.626 1865.86 985.044C1867.59 985.814 1865.41 988.252 1864.69 988.84C1863.63 989.778 1862.3 990.378 1860.89 990.564C1860.39 990.603 1859.89 990.52 1859.43 990.322L1859.44 990.317ZM1656.79 949.378C1641.92 935.044 1626.29 921.273 1608.67 910.365C1601.83 906.123 1594.69 902.399 1587.29 899.227L1594.97 894.506C1603.66 898.356 1612.02 902.935 1619.94 908.193C1637.22 919.628 1652.57 933.678 1667.36 948.104C1679.66 960.095 1691.42 972.688 1704.5 983.82C1702.92 986.044 1701.23 988.202 1699.45 990.296C1684.28 977.715 1670.95 963.038 1656.79 949.382L1656.79 949.378ZM1680.17 922.812C1673.92 914.064 1667.45 905.383 1659.89 897.712C1653.52 891.26 1645.77 886.732 1637.49 883.154C1632.68 881.073 1627.67 879.289 1622.65 877.49L1630.41 872.72C1636.91 874.912 1643.27 877.495 1649.46 880.455C1657.6 884.632 1664.87 890.316 1670.89 897.204C1678.09 905.185 1684.36 913.945 1690.54 922.721C1699.02 934.767 1707.47 947.048 1716.98 958.382C1716.07 961.474 1714.99 964.509 1713.72 967.47C1701.37 953.531 1690.96 937.949 1680.16 922.818L1680.17 922.812ZM1702.39 894.036C1698.31 885.943 1693.34 878.328 1687.58 871.334C1682.21 865.057 1675.36 860.46 1668.21 856.427C1666.22 855.307 1664.2 854.234 1662.15 853.208L1669.77 848.527C1672.72 850.039 1675.61 851.66 1678.44 853.388C1685.4 857.492 1691.57 862.804 1696.67 869.073C1702.2 876.241 1706.98 883.948 1710.96 892.077C1714.79 899.643 1717.97 907.566 1721.29 915.419C1720.72 921.573 1720.65 927.842 1720.41 934.061C1713.9 920.988 1709.19 906.975 1702.39 894.042L1702.39 894.036ZM1721.15 872.338C1715.67 863.54 1709.1 855.479 1701.58 848.35C1697.43 844.337 1693.08 840.565 1688.58 836.965L1695.92 832.457C1701.95 837.288 1707.67 842.503 1713.03 848.069C1720.11 855.427 1726.21 863.676 1731.16 872.606C1732.81 875.588 1734.35 878.623 1735.85 881.687C1733.59 883.81 1731.56 886.162 1729.8 888.706C1727.12 883.146 1724.35 877.628 1721.14 872.344L1721.15 872.338Z" fill="white"/>
<path opacity="0.21" d="M2320 976C2320 1135.61 2190.61 1265 2031 1265C1871.39 1265 1742 1135.61 1742 976C1742 816.39 1871.39 687 2031 687C2190.61 687 2320 816.39 2320 976Z" fill="white"/>
</svg>
