<svg width="123" height="125" viewBox="0 0 123 125" fill="none" xmlns="http://www.w3.org/2000/svg">
<g clip-path="url(#clip0_324:186)">
<path fill-rule="evenodd" clip-rule="evenodd" d="M17.2668 60.2337C46.1624 38.6664 82.9392 41.4988 104.715 71.273C105.44 72.2643 106.826 72.4972 107.806 71.8046C108.794 71.0951 109.007 69.7191 108.282 68.7277C84.9486 36.7979 45.5405 33.5858 14.573 56.6914C13.6056 57.4104 13.4187 58.7985 14.1615 59.7777C14.9121 60.74 16.2994 60.9527 17.2668 60.2337Z" fill="black"/>
<path d="M74.4933 72.2972C71.2438 70.7911 67.424 72.169 65.9616 75.3749C64.4991 78.5808 65.9479 82.4006 69.1974 83.9067C72.4469 85.4128 76.2666 84.0349 77.729 80.829C79.1915 77.6231 77.7428 73.8033 74.4933 72.2972Z" fill="black"/>
<path d="M47.3183 67.1826C44.1323 65.7059 40.3871 67.0569 38.9533 70.2002C37.5194 73.3434 38.9399 77.0886 42.1258 78.5653C45.3118 80.0419 49.0569 78.6909 50.4908 75.5476C51.9246 72.4044 50.5043 68.6593 47.3183 67.1826Z" fill="black"/>
</g>
<defs>
<clipPath id="clip0_324:186">
<rect width="92.4036" height="90.9077" fill="white" transform="matrix(-0.907069 -0.420413 0.41493 -0.909592 84.7393 123.068)"/>
</clipPath>
</defs>
</svg>
