<svg width="1986" height="951" viewBox="0 0 1986 951" fill="none" xmlns="http://www.w3.org/2000/svg">
<path opacity="0.21" d="M374.117 723.532C374.117 826.609 290.557 910.169 187.48 910.169C84.4031 910.169 0.842773 826.609 0.842773 723.532C0.842773 620.455 84.4031 536.895 187.48 536.895C290.557 536.895 374.117 620.455 374.117 723.532Z" fill="white"/>
<path d="M272.956 325.274C275.356 325.623 277.274 326.856 279.295 327.868C282.02 329.186 284.849 330.273 287.755 331.117C288.599 331.335 289.388 331.727 290.071 332.27C290.754 332.813 291.315 333.494 291.717 334.268C291.939 334.694 292.079 335.155 291.5 335.475C291.013 335.747 290.633 335.495 290.212 335.263C284.971 332.362 279.123 330.344 273.427 328.103C272.858 327.878 272.301 327.621 271.76 327.334C271.62 327.272 271.494 327.182 271.391 327.068C271.288 326.955 271.21 326.821 271.162 326.676C271.114 326.53 271.098 326.376 271.113 326.224C271.128 326.071 271.176 325.924 271.252 325.791C271.511 325.136 272.259 325.294 272.956 325.274Z" fill="#FFA85A"/>
<path d="M296.911 369.03C296.757 369.292 296.571 369.534 296.357 369.751C292.701 372.879 290.128 376.566 287.553 380.257C287.084 380.929 286.678 382.053 285.313 381.466C284.164 380.972 284.95 380.106 285.286 379.427C287.225 375.527 290.468 372.258 293.541 368.913C293.824 368.541 294.212 368.263 294.655 368.115C295.098 367.967 295.575 367.955 296.025 368.081C296.257 368.118 296.47 368.232 296.63 368.404C296.79 368.575 296.889 368.796 296.911 369.03Z" fill="#FFA85A"/>
<path d="M345.274 376.678C345.478 377.365 345.326 377.783 344.652 377.91C344.359 378.007 344.042 377.991 343.761 377.865C343.48 377.738 343.257 377.511 343.136 377.227C341.938 373.497 338.371 370.963 335.712 367.968C335.056 367.229 334.287 366.414 335.607 365.662C336.968 364.885 337.58 365.773 338.259 366.519C339.899 368.325 341.552 370.124 343.255 371.893C343.907 372.506 344.423 373.248 344.771 374.072C345.119 374.896 345.29 375.784 345.274 376.678V376.678Z" fill="#FFA85A"/>
<path d="M356.136 312.836C356.069 313.724 355.221 314.501 354.519 315.213C351.504 318.269 348.062 321.064 346.068 324.702C345.652 325.461 344.641 326.601 343.428 325.978C342.339 325.419 343.04 324.408 343.696 323.537C346.623 319.654 350.783 316.504 353.909 312.742C354.092 312.531 354.322 312.365 354.58 312.259C354.838 312.152 355.117 312.107 355.396 312.128C355.588 312.123 355.773 312.196 355.912 312.329C356.051 312.462 356.132 312.644 356.136 312.836V312.836Z" fill="#FFA85A"/>
<path d="M287.598 349.38C287.525 350.107 286.844 350.362 286.187 350.601C282.523 351.941 278.875 353.311 275.166 354.568C274.15 354.904 273.167 355.335 272.23 355.854C271.873 356.095 271.437 356.189 271.012 356.118C270.587 356.047 270.206 355.816 269.946 355.473C269.4 354.8 269.613 354.118 270.563 353.933C275.834 352.901 280.158 350.295 285.026 348.598C286.33 348.147 287.188 348.249 287.598 349.38Z" fill="#FFA85A"/>
<path d="M300.427 308.39C301.536 308.57 302.561 309.093 303.36 309.884C305.277 311.877 306.448 314.172 307.541 316.476C307.936 317.308 308.392 318.106 308.846 318.913C309.129 319.418 309.554 320.014 308.607 320.389C308.284 320.531 307.925 320.567 307.581 320.49C307.237 320.413 306.927 320.228 306.695 319.962C306.118 319.376 305.608 318.729 305.172 318.032C303.688 315.369 302.592 312.557 300.152 310.273C299.689 309.838 299.403 309.256 299.799 308.679C299.916 308.508 300.291 308.448 300.427 308.39Z" fill="#FFA85A"/>
<path d="M332.428 308.126C332.36 311.52 331.074 314.766 330.476 318.096C330.346 318.817 329.653 319.233 328.734 319.127C327.736 319.012 327.922 318.331 327.908 317.765C327.832 316.035 328.102 314.307 328.701 312.683C329.55 310.733 329.97 308.624 329.935 306.497C329.898 305.809 329.852 304.761 331.255 304.821C332.575 304.877 332.45 305.86 332.51 306.602C332.519 307.111 332.491 307.621 332.428 308.126Z" fill="#FFA85A"/>
<path d="M319.487 376.855C319.668 378.871 319.835 380.887 320.035 382.902C320.106 383.616 320.747 384.604 319.243 384.696C317.88 384.779 317.377 383.848 317.257 382.896C316.995 380.82 316.723 378.741 316.573 376.659C316.522 375.451 316.366 374.25 316.108 373.07C315.896 372.215 316.122 371.335 317.504 371.205C318.823 371.081 319.083 371.866 319.176 372.681C319.333 374.068 319.471 375.458 319.619 376.846L319.487 376.855Z" fill="#FFA85A"/>
<path d="M361.73 359.227C361.668 359.98 361.016 360.325 360.104 360.135C358.953 359.9 357.824 359.566 356.73 359.136C354.224 358.128 351.772 357.038 349.295 355.984C348.396 355.601 347.432 355.12 348.205 354.246C348.552 353.874 349.01 353.625 349.51 353.537C350.01 353.449 350.526 353.526 350.978 353.756C354.35 355.199 357.269 357.265 360.962 358.266C361.182 358.312 361.379 358.432 361.519 358.608C361.659 358.783 361.733 359.002 361.73 359.227Z" fill="#FFA85A"/>
<path d="M352.381 343.878C351.473 343.957 351.113 343.829 350.878 343.545C350.562 343.165 350.746 342.794 351.057 342.487C351.71 341.842 352.534 341.399 353.432 341.211C357.413 340.384 361.418 339.627 365.403 338.813C366.129 338.665 366.684 338.682 367.025 339.26C367.398 339.891 366.881 340.277 366.285 340.481C361.657 342.04 356.49 342.21 352.381 343.878Z" fill="#FFA85A"/>
<path d="M317.256 382.896C316.994 380.82 316.722 378.742 316.571 376.659C316.52 375.451 316.365 374.251 316.107 373.07C315.895 372.216 316.12 371.336 317.502 371.205C318.82 371.081 319.081 371.867 319.174 372.682C319.332 374.068 319.469 375.455 319.618 376.846L319.486 376.855C319.667 378.871 319.835 380.887 320.034 382.902C320.105 383.617 320.746 384.605 319.243 384.696C319.187 384.7 319.132 384.701 319.076 384.701C317.838 384.702 317.372 383.809 317.256 382.896ZM285.31 381.464C284.161 380.97 284.947 380.104 285.284 379.425C287.223 375.525 290.465 372.257 293.541 368.911C293.824 368.539 294.212 368.261 294.655 368.113C295.098 367.965 295.575 367.953 296.024 368.079C296.256 368.117 296.468 368.231 296.628 368.404C296.788 368.576 296.887 368.796 296.908 369.03C296.754 369.293 296.568 369.535 296.354 369.751C292.698 372.879 290.125 376.566 287.551 380.257C287.173 380.797 286.837 381.631 286.01 381.631C285.768 381.624 285.53 381.567 285.311 381.465L285.31 381.464ZM343.133 377.228C341.935 373.498 338.369 370.963 335.71 367.969C335.054 367.23 334.285 366.415 335.605 365.661C336.966 364.885 337.577 365.772 338.257 366.519C339.896 368.325 341.549 370.124 343.252 371.893C343.904 372.505 344.421 373.247 344.769 374.071C345.116 374.895 345.288 375.783 345.272 376.678C345.476 377.365 345.324 377.783 344.649 377.91C344.527 377.934 344.403 377.946 344.279 377.946C344.036 377.968 343.792 377.91 343.585 377.78C343.379 377.651 343.22 377.457 343.134 377.228H343.133ZM360.103 360.136C358.951 359.901 357.822 359.567 356.728 359.137C354.223 358.129 351.77 357.039 349.294 355.985C348.396 355.602 347.432 355.121 348.204 354.247C348.55 353.875 349.008 353.626 349.509 353.538C350.009 353.45 350.524 353.527 350.977 353.758C354.348 355.2 357.267 357.267 360.961 358.268C361.18 358.313 361.377 358.434 361.517 358.61C361.657 358.786 361.732 359.005 361.727 359.229C361.718 359.37 361.681 359.507 361.617 359.632C361.553 359.758 361.465 359.869 361.357 359.959C361.248 360.049 361.123 360.115 360.988 360.155C360.853 360.194 360.712 360.206 360.572 360.189C360.415 360.187 360.257 360.169 360.103 360.136H360.103ZM269.947 355.476C269.402 354.803 269.617 354.122 270.564 353.936C275.835 352.905 280.158 350.297 285.027 348.601C286.329 348.147 287.187 348.25 287.596 349.381C287.524 350.107 286.842 350.363 286.187 350.601C282.523 351.942 278.874 353.313 275.166 354.569C274.149 354.905 273.166 355.336 272.23 355.855C271.932 356.032 271.593 356.129 271.247 356.136C270.994 356.132 270.746 356.071 270.52 355.957C270.295 355.842 270.099 355.677 269.947 355.475V355.476ZM350.877 343.546C350.562 343.166 350.746 342.795 351.056 342.489C351.709 341.843 352.533 341.401 353.431 341.213C357.412 340.385 361.416 339.629 365.402 338.816C366.127 338.666 366.683 338.684 367.023 339.26C367.396 339.89 366.88 340.277 366.284 340.48C361.656 342.043 356.489 342.214 352.379 343.882C352.201 343.897 352.043 343.905 351.904 343.905C351.717 343.932 351.526 343.913 351.347 343.85C351.168 343.788 351.007 343.683 350.877 343.546L350.877 343.546ZM290.212 335.267C284.971 332.367 279.122 330.348 273.427 328.107C272.857 327.882 272.301 327.625 271.76 327.337C271.62 327.276 271.494 327.186 271.391 327.072C271.288 326.959 271.21 326.825 271.162 326.679C271.114 326.534 271.098 326.38 271.113 326.227C271.129 326.075 271.176 325.927 271.252 325.794C271.466 325.253 272.011 325.264 272.587 325.275C272.709 325.278 272.834 325.28 272.957 325.275C275.357 325.625 277.275 326.858 279.296 327.87C282.02 329.188 284.85 330.275 287.755 331.12C288.6 331.337 289.389 331.729 290.072 332.272C290.754 332.815 291.315 333.496 291.718 334.27C291.939 334.696 292.08 335.157 291.5 335.478C291.371 335.553 291.225 335.594 291.075 335.595C290.765 335.559 290.468 335.446 290.212 335.267V335.267ZM343.427 325.979C342.338 325.42 343.039 324.41 343.696 323.541C346.622 319.658 350.782 316.508 353.908 312.746C354.091 312.535 354.32 312.37 354.578 312.263C354.836 312.157 355.116 312.112 355.394 312.132C355.585 312.128 355.771 312.2 355.91 312.331C356.049 312.463 356.13 312.645 356.136 312.837C356.069 313.725 355.221 314.501 354.518 315.214C351.504 318.269 348.061 321.065 346.067 324.703C345.735 325.309 345.023 326.159 344.132 326.159C343.886 326.157 343.644 326.095 343.427 325.979V325.979ZM306.694 319.962C306.117 319.377 305.606 318.73 305.171 318.032C303.686 315.37 302.591 312.557 300.151 310.273C299.688 309.838 299.402 309.256 299.798 308.679C299.915 308.508 300.29 308.448 300.426 308.39C301.536 308.569 302.562 309.092 303.362 309.884C305.279 311.877 306.449 314.172 307.542 316.476C307.938 317.308 308.393 318.106 308.847 318.913C309.131 319.418 309.555 320.014 308.608 320.388C308.39 320.477 308.157 320.524 307.921 320.526C307.688 320.525 307.458 320.474 307.247 320.377C307.035 320.28 306.846 320.139 306.693 319.963L306.694 319.962ZM328.734 319.13C327.737 319.015 327.923 318.334 327.909 317.767C327.832 316.037 328.102 314.31 328.702 312.686C329.55 310.736 329.97 308.626 329.935 306.499C329.897 305.811 329.852 304.763 331.254 304.824C332.574 304.879 332.449 305.862 332.509 306.604C332.518 307.113 332.491 307.623 332.427 308.129C332.36 311.523 331.074 314.768 330.476 318.099C330.403 318.423 330.214 318.709 329.944 318.902C329.674 319.095 329.342 319.182 329.012 319.147C328.919 319.146 328.826 319.139 328.733 319.128L328.734 319.13Z" fill="white"/>
<path opacity="0.21" d="M1985.88 217.696C1985.88 337.572 1888.7 434.751 1768.83 434.751C1648.95 434.751 1551.77 337.572 1551.77 217.696C1551.77 97.8199 1648.95 0.641113 1768.83 0.641113C1888.7 0.641113 1985.88 97.8199 1985.88 217.696Z" fill="white"/>
<path d="M308.775 558.675C308.775 603.473 272.459 639.789 227.661 639.789C182.863 639.789 146.547 603.473 146.547 558.675C146.547 513.877 182.863 477.561 227.661 477.561C272.459 477.561 308.775 513.877 308.775 558.675Z" fill="#DF3E3F"/>
<path d="M1302.41 676.097C1308.3 688.289 1315.6 699.348 1325.74 708.433C1334.66 716.43 1345.09 722.426 1355.89 727.493C1369.04 733.667 1382.7 738.695 1395.97 744.601C1397.26 745.178 1398.91 744.31 1399.91 743.486C1400.44 743.044 1402.08 741.21 1400.78 740.633C1378.16 730.566 1353.39 723.164 1333.9 707.321C1323.67 699.007 1315.82 688.488 1309.86 676.774C1307.71 672.543 1305.74 668.22 1303.68 663.946C1302.01 665.615 1300.52 667.454 1299.23 669.433C1300.29 671.658 1301.34 673.885 1302.41 676.097Z" fill="#554140"/>
<path d="M1292.2 656.008C1294.61 659.976 1296.69 664.123 1298.7 668.304C1300.02 666.392 1301.54 664.623 1303.23 663.027C1302.11 660.728 1300.95 658.447 1299.72 656.206C1296 649.5 1291.42 643.305 1286.11 637.779C1282.08 633.598 1277.79 629.682 1273.26 626.053L1267.76 629.444C1271.14 632.146 1274.41 634.979 1277.52 637.991C1283.16 643.346 1288.1 649.4 1292.2 656.008V656.008Z" fill="#554140"/>
<path d="M1267.03 655.26C1271.36 660.514 1275.09 666.234 1278.15 672.313C1283.25 682.028 1286.79 692.556 1291.67 702.379C1291.85 697.706 1291.91 692.997 1292.33 688.372C1289.84 682.473 1287.45 676.521 1284.58 670.835C1281.59 664.73 1278 658.942 1273.85 653.558C1270.03 648.85 1265.39 644.861 1260.17 641.78C1258.05 640.482 1255.89 639.266 1253.67 638.131L1247.95 641.652C1249.49 642.423 1251 643.228 1252.5 644.068C1257.86 647.094 1263 650.548 1267.03 655.26Z" fill="#554140"/>
<path d="M1292.54 704.092C1294 706.935 1295.62 709.69 1297.4 712.344C1301.69 718.825 1307.39 724.246 1314.08 728.2C1320.96 732.188 1328.5 734.923 1336.04 737.389C1344.68 740.219 1353.18 743.312 1361.62 746.686C1370.16 750.092 1378.68 753.514 1387.43 756.337C1389.34 756.953 1394.12 752.969 1391.29 752.057C1375.64 747.007 1360.76 739.884 1345.13 734.788C1337.51 732.305 1329.87 729.869 1322.68 726.27C1315.59 722.829 1309.41 717.762 1304.64 711.48C1299.74 704.962 1296.3 697.648 1293.11 690.198C1292.77 694.672 1292.75 699.18 1292.56 703.655C1292.55 703.802 1292.55 703.946 1292.54 704.092Z" fill="#554140"/>
<path d="M1287.44 728.355C1288.24 729.247 1289.05 730.131 1289.87 731.001C1300.18 741.906 1312.55 750.258 1326.85 754.972C1343.28 760.39 1360.61 762.125 1377.25 766.744C1379.19 767.283 1383.95 763.251 1381.11 762.464C1366.31 758.354 1350.98 756.522 1336.18 752.362C1321.7 748.383 1308.48 740.744 1297.8 730.179C1295.04 727.432 1292.41 724.553 1289.88 721.582C1289.57 722.657 1289.23 723.726 1288.85 724.791C1288.42 726.001 1287.95 727.189 1287.44 728.355Z" fill="#554140"/>
<path d="M1246.28 675.084C1251.95 680.844 1256.81 687.363 1261.49 693.931C1269.6 705.295 1277.41 716.999 1286.67 727.47C1287.62 725.244 1288.44 722.964 1289.12 720.64C1281.98 712.129 1275.64 702.904 1269.28 693.857C1264.64 687.266 1259.93 680.685 1254.53 674.693C1250.02 669.521 1244.56 665.253 1238.46 662.119C1233.81 659.898 1229.04 657.962 1224.16 656.319L1218.34 659.907C1222.1 661.256 1225.86 662.593 1229.48 664.157C1235.69 666.84 1241.5 670.242 1246.28 675.084Z" fill="#554140"/>
<path d="M1243.98 713.895C1254.61 724.147 1264.61 735.169 1275.98 744.62C1277.32 743.047 1278.58 741.425 1279.77 739.753C1269.96 731.397 1261.14 721.936 1251.91 712.935C1240.81 702.103 1229.29 691.554 1216.33 682.971C1210.38 679.023 1204.11 675.586 1197.59 672.697L1191.83 676.246C1197.38 678.627 1202.74 681.422 1207.87 684.606C1221.08 692.792 1232.81 703.133 1243.98 713.895Z" fill="#554140"/>
<path d="M1278.3 746.535C1290.18 756.075 1303.43 763.771 1317.6 769.363C1333.94 775.705 1351.29 779.041 1368.81 779.21C1369.59 779.135 1370.35 778.881 1371.02 778.469C1371.69 778.057 1372.25 777.497 1372.67 776.833C1373.37 775.624 1372.77 774.919 1371.48 774.904C1340.55 774.531 1310.74 763.606 1286.18 744.958C1284.25 743.494 1282.37 741.975 1280.53 740.418C1279.33 742.08 1278.06 743.691 1276.71 745.252C1277.24 745.68 1277.77 746.112 1278.3 746.535Z" fill="#554140"/>
<path d="M1178.19 702.272C1186.88 705.511 1195.3 709.015 1203.08 714.125C1210.13 718.752 1216.57 724.224 1223.04 729.61C1235.13 739.665 1247.28 749.784 1259.86 759.239C1261.56 758.01 1263.22 756.734 1264.84 755.412C1253.65 747.008 1242.9 737.969 1232.07 729.121C1225.46 723.716 1219.03 718.055 1212.1 713.053C1204.9 707.903 1197.08 703.691 1188.82 700.52C1183.58 698.474 1178.3 696.536 1172.98 694.706C1170.63 693.888 1168.26 693.05 1165.89 692.238L1159.97 695.882C1161.33 696.337 1162.67 696.801 1164.02 697.256C1168.77 698.86 1173.49 700.532 1178.19 702.272Z" fill="#554140"/>
<path d="M1260.66 759.876C1261.49 760.496 1262.32 761.114 1263.15 761.729C1276.9 771.869 1291.64 780.864 1307.99 786.1C1316.86 788.94 1325.84 789.263 1335.09 789.084C1344.01 788.911 1353.03 788.548 1361.72 790.999C1363.65 791.546 1368.41 787.518 1365.58 786.719C1349.94 782.304 1333.5 786.896 1317.74 783.455C1309.53 781.663 1301.55 778.175 1294.1 774.342C1286.51 770.366 1279.21 765.86 1272.25 760.856C1270.02 759.279 1267.82 757.673 1265.63 756.036C1265.23 756.365 1264.83 756.692 1264.42 757.015C1263.19 757.997 1261.93 758.947 1260.66 759.876Z" fill="#554140"/>
<path d="M1361.45 790.789C1352.76 788.335 1343.74 788.693 1334.82 788.861C1325.57 789.035 1316.59 788.708 1307.72 785.861C1291.37 780.62 1276.63 771.618 1262.89 761.474C1262.05 760.86 1261.22 760.242 1260.39 759.62C1261.67 758.692 1262.93 757.744 1264.16 756.764C1264.56 756.438 1264.97 756.112 1265.37 755.787C1267.55 757.42 1269.76 759.028 1271.98 760.609C1278.94 765.614 1286.24 770.122 1293.84 774.1C1301.28 777.935 1309.26 781.429 1317.47 783.223C1333.23 786.669 1349.67 782.089 1365.31 786.51C1367.91 787.246 1364.11 790.702 1361.97 790.834C1361.79 790.848 1361.62 790.833 1361.45 790.789V790.789ZM1368.55 779.004C1351.03 778.826 1333.68 775.482 1317.34 769.133C1303.17 763.537 1289.93 755.837 1278.04 746.293C1277.51 745.874 1276.99 745.439 1276.47 745.009C1277.8 743.451 1279.07 741.841 1280.28 740.181C1282.12 741.736 1284 743.256 1285.93 744.72C1310.48 763.376 1340.29 774.311 1371.22 774.7C1372.51 774.716 1373.11 775.42 1372.41 776.628C1372 777.264 1371.47 777.805 1370.83 778.214C1370.2 778.623 1369.49 778.89 1368.74 778.998C1368.68 779.003 1368.61 779.005 1368.55 779.004ZM1377 766.547C1360.37 761.921 1343.03 760.177 1326.6 754.753C1312.3 750.032 1299.94 741.678 1289.63 730.772C1288.81 729.9 1288 729.014 1287.2 728.123C1287.71 726.956 1288.18 725.77 1288.61 724.563C1288.99 723.501 1289.34 722.431 1289.65 721.357C1292.17 724.327 1294.8 727.21 1297.57 729.954C1308.25 740.521 1321.46 748.163 1335.94 752.148C1350.73 756.314 1366.06 758.153 1380.86 762.27C1383.47 762.995 1379.65 766.461 1377.52 766.592C1377.34 766.606 1377.17 766.591 1377 766.547ZM1387.18 756.14C1378.44 753.315 1369.92 749.89 1361.39 746.481C1352.94 743.103 1344.45 740.008 1335.8 737.175C1328.27 734.703 1320.73 731.967 1313.85 727.976C1307.16 724.021 1301.46 718.599 1297.18 712.118C1296.6 711.264 1296.04 710.401 1295.51 709.528C1294.37 707.679 1293.32 705.788 1292.32 703.867C1292.33 703.721 1292.33 703.578 1292.34 703.432C1292.53 698.96 1292.55 694.453 1292.89 689.981C1296.08 697.431 1299.52 704.743 1304.41 711.261C1309.18 717.542 1315.36 722.611 1322.45 726.054C1329.63 729.655 1337.27 732.094 1344.89 734.58C1360.52 739.68 1375.4 746.809 1391.04 751.865C1393.62 752.696 1389.88 756.074 1387.75 756.205C1387.56 756.22 1387.37 756.2 1387.18 756.144L1387.18 756.14ZM1222.8 729.384C1216.33 723.996 1209.89 718.525 1202.84 713.896C1195.06 708.785 1186.65 705.275 1177.96 702.031C1173.26 700.282 1168.54 698.608 1163.79 697.01C1162.44 696.554 1161.09 696.091 1159.74 695.635L1165.66 691.995C1168.03 692.807 1170.39 693.649 1172.75 694.467C1178.06 696.311 1183.34 698.251 1188.59 700.287C1196.84 703.461 1204.66 707.674 1211.86 712.826C1218.79 717.828 1225.21 723.491 1231.83 728.897C1242.65 737.747 1253.39 746.788 1264.58 755.194C1262.96 756.516 1261.3 757.79 1259.6 759.018C1247.02 749.566 1234.88 739.445 1222.79 729.388L1222.8 729.384ZM1395.73 744.41C1382.47 738.499 1368.82 733.466 1355.67 727.289C1344.87 722.217 1334.44 716.216 1325.53 708.224C1318.91 702.215 1313.21 695.277 1308.59 687.626C1306.27 683.825 1304.14 679.908 1302.21 675.891C1301.14 673.678 1300.1 671.453 1299.04 669.232C1300.32 667.255 1301.81 665.418 1303.48 663.751C1305.55 668.022 1307.51 672.344 1309.66 676.575C1315.61 688.287 1323.47 698.804 1333.69 707.121C1353.17 722.964 1377.94 730.376 1400.55 740.45C1401.85 741.028 1400.21 742.859 1399.68 743.301C1398.87 744.005 1397.88 744.456 1396.82 744.596C1396.45 744.625 1396.07 744.563 1395.73 744.414L1395.73 744.41ZM1243.74 713.679C1232.59 702.915 1220.86 692.574 1207.65 684.384C1202.52 681.199 1197.16 678.403 1191.62 676.021L1197.38 672.475C1203.9 675.366 1210.16 678.804 1216.1 682.752C1229.06 691.339 1240.58 701.889 1251.67 712.722C1260.89 721.726 1269.72 731.182 1279.52 739.541C1278.34 741.211 1277.07 742.832 1275.73 744.405C1264.36 734.958 1254.36 723.936 1243.74 713.682L1243.74 713.679ZM1261.28 693.727C1256.59 687.158 1251.74 680.639 1246.07 674.879C1241.29 670.034 1235.48 666.634 1229.27 663.948C1225.66 662.385 1221.9 661.045 1218.14 659.695L1223.96 656.112C1228.84 657.758 1233.61 659.697 1238.25 661.92C1244.35 665.056 1249.81 669.324 1254.32 674.497C1259.72 680.49 1264.43 687.068 1269.06 693.658C1275.41 702.704 1281.75 711.926 1288.88 720.437C1288.21 722.759 1287.39 725.038 1286.44 727.262C1277.18 716.795 1269.37 705.094 1261.27 693.731L1261.28 693.727ZM1277.95 672.116C1274.89 666.038 1271.16 660.32 1266.84 655.068C1262.81 650.355 1257.67 646.903 1252.31 643.875C1250.82 643.033 1249.3 642.228 1247.77 641.458L1253.48 637.941C1255.7 639.077 1257.86 640.294 1259.98 641.591C1265.2 644.673 1269.84 648.662 1273.66 653.37C1277.8 658.752 1281.39 664.539 1284.38 670.644C1287.25 676.326 1289.63 682.275 1292.12 688.172C1291.69 692.794 1291.64 697.502 1291.46 702.172C1286.58 692.356 1283.05 681.832 1277.95 672.12L1277.95 672.116ZM1292.02 655.82C1287.91 649.213 1282.98 643.16 1277.34 637.806C1274.23 634.793 1270.97 631.961 1267.59 629.258L1273.09 625.872C1277.62 629.499 1281.91 633.415 1285.93 637.595C1291.24 643.12 1295.81 649.314 1299.53 656.021C1300.76 658.26 1301.92 660.539 1303.04 662.84C1301.35 664.434 1299.83 666.201 1298.5 668.111C1296.5 663.936 1294.42 659.792 1292.01 655.824L1292.02 655.82Z" fill="white"/>
<path opacity="0.21" d="M1743.29 733.671C1743.29 853.547 1646.11 950.726 1526.24 950.726C1406.36 950.726 1309.18 853.547 1309.18 733.671C1309.18 613.795 1406.36 516.616 1526.24 516.616C1646.11 516.616 1743.29 613.795 1743.29 733.671Z" fill="white"/>
</svg>
