<svg width="2315" height="1109" viewBox="0 0 2315 1109" fill="none" xmlns="http://www.w3.org/2000/svg">
<path opacity="0.21" d="M435.376 843.664C435.376 963.84 337.954 1061.26 217.778 1061.26C97.6023 1061.26 0.180542 963.84 0.180542 843.664C0.180542 723.489 97.6023 626.067 217.778 626.067C337.954 626.067 435.376 723.489 435.376 843.664Z" fill="white"/>
<path d="M318.887 387.782C322.679 388.333 325.712 390.279 328.907 391.876C333.213 393.957 337.686 395.673 342.279 397.006C343.613 397.348 344.861 397.968 345.94 398.825C347.019 399.682 347.906 400.756 348.542 401.978C348.893 402.651 349.114 403.379 348.198 403.885C347.429 404.313 346.828 403.916 346.163 403.549C337.878 398.971 328.634 395.784 319.631 392.247C318.731 391.892 317.851 391.486 316.996 391.033C316.775 390.936 316.576 390.793 316.413 390.614C316.25 390.436 316.127 390.224 316.051 389.995C315.975 389.765 315.949 389.522 315.973 389.281C315.997 389.04 316.072 388.807 316.193 388.598C316.602 387.564 317.785 387.813 318.887 387.782Z" fill="#FFA85A"/>
<path d="M356.748 456.849C356.504 457.263 356.21 457.646 355.872 457.988C350.093 462.924 346.027 468.745 341.958 474.57C341.216 475.632 340.575 477.406 338.417 476.479C336.6 475.7 337.844 474.333 338.375 473.261C341.439 467.105 346.564 461.945 351.422 456.664C351.869 456.078 352.483 455.639 353.183 455.405C353.882 455.171 354.636 455.152 355.347 455.351C355.714 455.41 356.05 455.589 356.304 455.861C356.557 456.132 356.714 456.48 356.748 456.849Z" fill="#FFA85A"/>
<path d="M433.196 468.922C433.518 470.006 433.279 470.666 432.213 470.867C431.751 471.02 431.249 470.994 430.805 470.795C430.361 470.595 430.009 470.236 429.817 469.789C427.924 463.901 422.287 459.9 418.084 455.172C417.047 454.006 415.831 452.721 417.918 451.532C420.069 450.306 421.035 451.707 422.11 452.885C424.702 455.736 427.315 458.577 430.006 461.369C431.036 462.335 431.852 463.507 432.401 464.808C432.951 466.108 433.222 467.51 433.196 468.922V468.922Z" fill="#FFA85A"/>
<path d="M450.369 368.149C450.262 369.55 448.921 370.776 447.812 371.9C443.047 376.724 437.606 381.137 434.454 386.878C433.796 388.077 432.199 389.875 430.281 388.892C428.561 388.009 429.668 386.415 430.706 385.039C435.331 378.91 441.907 373.939 446.848 367.999C447.137 367.666 447.5 367.405 447.908 367.237C448.316 367.069 448.758 366.998 449.198 367.03C449.501 367.024 449.795 367.138 450.014 367.348C450.234 367.557 450.361 367.845 450.369 368.149V368.149Z" fill="#FFA85A"/>
<path d="M342.029 425.833C341.914 426.98 340.839 427.383 339.8 427.76C334.008 429.874 328.241 432.038 322.38 434.022C320.773 434.553 319.219 435.232 317.739 436.052C317.174 436.432 316.485 436.581 315.814 436.469C315.142 436.357 314.539 435.992 314.128 435.45C313.265 434.388 313.602 433.311 315.104 433.02C323.435 431.391 330.269 427.276 337.964 424.598C340.026 423.886 341.381 424.048 342.029 425.833Z" fill="#FFA85A"/>
<path d="M362.309 361.13C364.062 361.415 365.683 362.239 366.945 363.489C369.975 366.634 371.825 370.258 373.553 373.893C374.178 375.207 374.899 376.467 375.616 377.741C376.063 378.538 376.735 379.479 375.238 380.07C374.728 380.295 374.16 380.351 373.616 380.23C373.073 380.108 372.582 379.816 372.217 379.396C371.305 378.472 370.497 377.45 369.809 376.349C367.463 372.146 365.732 367.707 361.875 364.102C361.142 363.416 360.69 362.498 361.317 361.586C361.502 361.316 362.094 361.222 362.309 361.13Z" fill="#FFA85A"/>
<path d="M412.894 360.714C412.787 366.071 410.754 371.196 409.81 376.451C409.604 377.59 408.508 378.245 407.055 378.079C405.479 377.898 405.773 376.822 405.75 375.928C405.63 373.198 406.057 370.471 407.004 367.908C408.345 364.829 409.01 361.499 408.954 358.142C408.895 357.057 408.823 355.402 411.041 355.497C413.126 355.585 412.929 357.137 413.023 358.308C413.037 359.112 412.994 359.916 412.894 360.714Z" fill="#FFA85A"/>
<path d="M392.438 469.201C392.723 472.383 392.988 475.566 393.303 478.746C393.415 479.873 394.429 481.433 392.052 481.578C389.897 481.709 389.102 480.239 388.912 478.736C388.499 475.459 388.068 472.178 387.831 468.892C387.75 466.986 387.504 465.09 387.096 463.226C386.762 461.877 387.118 460.488 389.302 460.283C391.387 460.087 391.798 461.326 391.946 462.612C392.194 464.801 392.412 466.995 392.646 469.186L392.438 469.201Z" fill="#FFA85A"/>
<path d="M459.21 441.375C459.112 442.564 458.082 443.109 456.641 442.808C454.821 442.438 453.036 441.911 451.307 441.232C447.346 439.64 443.47 437.92 439.556 436.256C438.135 435.652 436.611 434.892 437.833 433.512C438.381 432.926 439.105 432.533 439.895 432.394C440.686 432.254 441.501 432.376 442.216 432.74C447.545 435.017 452.16 438.279 457.997 439.858C458.344 439.93 458.655 440.121 458.877 440.398C459.098 440.675 459.216 441.02 459.21 441.375Z" fill="#FFA85A"/>
<path d="M444.434 417.147C442.999 417.273 442.429 417.071 442.058 416.621C441.56 416.022 441.85 415.437 442.342 414.952C443.373 413.934 444.676 413.234 446.096 412.938C452.388 411.632 458.718 410.437 465.017 409.153C466.165 408.918 467.042 408.946 467.58 409.859C468.17 410.854 467.353 411.463 466.411 411.785C459.096 414.246 450.929 414.515 444.434 417.147Z" fill="#FFA85A"/>
<path d="M388.912 478.735C388.497 475.458 388.068 472.177 387.829 468.89C387.749 466.984 387.503 465.088 387.095 463.225C386.761 461.876 387.117 460.487 389.3 460.28C391.384 460.085 391.797 461.325 391.944 462.612C392.193 464.801 392.41 466.99 392.645 469.185L392.437 469.2C392.722 472.382 392.988 475.564 393.302 478.744C393.415 479.872 394.428 481.432 392.052 481.576C391.964 481.582 391.877 481.584 391.789 481.584C389.831 481.585 389.095 480.175 388.912 478.735ZM338.415 476.475C336.599 475.695 337.842 474.327 338.373 473.256C341.438 467.099 346.564 461.941 351.425 456.66C351.873 456.073 352.486 455.634 353.186 455.4C353.886 455.166 354.64 455.147 355.351 455.346C355.717 455.407 356.053 455.587 356.306 455.859C356.558 456.13 356.714 456.478 356.748 456.848C356.504 457.262 356.209 457.644 355.872 457.986C350.093 462.923 346.026 468.743 341.957 474.569C341.36 475.422 340.829 476.738 339.521 476.738C339.139 476.727 338.763 476.637 338.416 476.476L338.415 476.475ZM429.816 469.788C427.922 463.899 422.285 459.899 418.082 455.172C417.044 454.006 415.829 452.72 417.917 451.53C420.068 450.304 421.034 451.706 422.107 452.883C424.698 455.734 427.312 458.575 430.004 461.367C431.034 462.333 431.851 463.504 432.401 464.805C432.951 466.106 433.222 467.508 433.196 468.92C433.519 470.004 433.279 470.664 432.212 470.864C432.019 470.902 431.823 470.921 431.626 470.921C431.242 470.956 430.857 470.865 430.531 470.66C430.204 470.455 429.953 470.149 429.816 469.788H429.816ZM456.639 442.808C454.819 442.438 453.035 441.911 451.306 441.232C447.345 439.641 443.469 437.92 439.554 436.256C438.134 435.652 436.611 434.893 437.83 433.512C438.379 432.926 439.103 432.533 439.893 432.394C440.684 432.255 441.498 432.377 442.214 432.741C447.543 435.018 452.158 438.279 457.996 439.86C458.343 439.932 458.654 440.123 458.875 440.4C459.097 440.677 459.214 441.023 459.208 441.377C459.193 441.599 459.134 441.815 459.033 442.013C458.933 442.211 458.792 442.387 458.621 442.529C458.45 442.67 458.252 442.776 458.039 442.838C457.826 442.901 457.602 442.919 457.382 442.892C457.132 442.889 456.884 442.861 456.64 442.808H456.639ZM314.13 435.452C313.268 434.391 313.609 433.315 315.106 433.023C323.438 431.394 330.272 427.278 337.967 424.601C340.025 423.884 341.382 424.046 342.029 425.832C341.914 426.977 340.837 427.382 339.8 427.758C334.009 429.875 328.242 432.039 322.38 434.022C320.773 434.552 319.219 435.231 317.739 436.051C317.268 436.33 316.733 436.483 316.185 436.494C315.786 436.489 315.393 436.392 315.036 436.211C314.68 436.031 314.37 435.771 314.13 435.452V435.452ZM442.056 416.622C441.558 416.022 441.849 415.437 442.34 414.953C443.371 413.934 444.674 413.235 446.093 412.939C452.386 411.632 458.715 410.438 465.016 409.155C466.163 408.919 467.04 408.948 467.579 409.856C468.168 410.851 467.352 411.461 466.41 411.782C459.095 414.249 450.927 414.519 444.431 417.152C444.149 417.175 443.899 417.188 443.68 417.188C443.384 417.23 443.082 417.201 442.799 417.102C442.517 417.003 442.263 416.838 442.057 416.621L442.056 416.622ZM346.164 403.554C337.878 398.975 328.634 395.788 319.632 392.252C318.731 391.897 317.851 391.491 316.997 391.036C316.775 390.939 316.576 390.797 316.413 390.618C316.251 390.439 316.127 390.228 316.051 389.998C315.976 389.768 315.949 389.525 315.974 389.284C315.998 389.044 316.073 388.811 316.194 388.601C316.531 387.746 317.393 387.764 318.303 387.782C318.497 387.786 318.695 387.789 318.889 387.782C322.681 388.333 325.714 390.28 328.909 391.877C333.215 393.957 337.687 395.674 342.28 397.007C343.615 397.349 344.862 397.969 345.941 398.826C347.02 399.683 347.907 400.757 348.544 401.979C348.894 402.653 349.116 403.38 348.199 403.886C347.996 404.005 347.764 404.069 347.528 404.071C347.037 404.014 346.568 403.836 346.164 403.553V403.554ZM430.28 388.893C428.559 388.01 429.667 386.416 430.705 385.044C435.33 378.915 441.906 373.943 446.847 368.004C447.136 367.671 447.499 367.411 447.907 367.242C448.315 367.074 448.756 367.004 449.196 367.036C449.499 367.029 449.792 367.142 450.012 367.35C450.231 367.559 450.36 367.845 450.369 368.148C450.263 369.549 448.922 370.775 447.812 371.9C443.047 376.723 437.605 381.137 434.453 386.879C433.928 387.835 432.803 389.176 431.394 389.176C431.005 389.173 430.623 389.076 430.28 388.893V388.893ZM372.216 379.395C371.305 378.471 370.497 377.449 369.809 376.349C367.461 372.146 365.731 367.706 361.874 364.101C361.142 363.414 360.69 362.496 361.316 361.584C361.501 361.315 362.093 361.221 362.308 361.129C364.063 361.412 365.685 362.236 366.949 363.487C369.979 366.633 371.829 370.256 373.557 373.892C374.182 375.206 374.902 376.465 375.619 377.739C376.068 378.535 376.739 379.477 375.242 380.068C374.897 380.208 374.529 380.281 374.156 380.284C373.788 380.283 373.425 380.203 373.09 380.05C372.755 379.897 372.457 379.675 372.215 379.397L372.216 379.395ZM407.055 378.082C405.479 377.901 405.773 376.825 405.75 375.93C405.629 373.2 406.056 370.473 407.004 367.91C408.344 364.832 409.009 361.501 408.953 358.144C408.894 357.058 408.822 355.404 411.038 355.499C413.125 355.587 412.927 357.138 413.023 358.309C413.037 359.113 412.993 359.918 412.893 360.716C412.787 366.073 410.754 371.197 409.809 376.453C409.693 376.965 409.394 377.416 408.967 377.722C408.54 378.027 408.016 378.164 407.495 378.108C407.347 378.106 407.2 378.096 407.054 378.079L407.055 378.082Z" fill="white"/>
<path opacity="0.21" d="M2314.51 253.919C2314.51 393.68 2201.21 506.98 2061.45 506.98C1921.69 506.98 1808.39 393.68 1808.39 253.919C1808.39 114.157 1921.69 0.857422 2061.45 0.857422C2201.21 0.857422 2314.51 114.157 2314.51 253.919Z" fill="white"/>
<path d="M359.195 651.461C359.195 703.69 316.854 746.03 264.625 746.03C212.396 746.03 170.056 703.69 170.056 651.461C170.056 599.231 212.396 556.891 264.625 556.891C316.854 556.891 359.195 599.231 359.195 651.461Z" fill="#DF3E3F"/>
<path d="M1519.43 788.342C1526.32 802.558 1534.84 815.454 1546.67 826.049C1557.09 835.377 1569.27 842.371 1581.88 848.283C1597.24 855.485 1613.17 861.353 1628.67 868.244C1630.18 868.917 1632.11 867.906 1633.27 866.945C1633.89 866.43 1635.8 864.294 1634.28 863.621C1607.88 851.874 1578.96 843.235 1556.21 824.757C1544.26 815.059 1535.09 802.793 1528.13 789.134C1525.62 784.2 1523.32 779.16 1520.91 774.177C1518.96 776.121 1517.23 778.265 1515.73 780.571C1516.96 783.165 1518.18 785.762 1519.43 788.342Z" fill="#554140"/>
<path d="M1507.52 764.939C1510.33 769.567 1512.76 774.401 1515.1 779.277C1516.65 777.048 1518.42 774.987 1520.4 773.127C1519.08 770.446 1517.73 767.787 1516.29 765.174C1511.95 757.354 1506.6 750.132 1500.4 743.687C1495.7 738.812 1490.69 734.244 1485.4 730.013L1478.98 733.963C1482.93 737.114 1486.74 740.418 1490.38 743.931C1496.96 750.175 1502.72 757.235 1507.52 764.939V764.939Z" fill="#554140"/>
<path d="M1478.13 764.066C1483.18 770.193 1487.53 776.862 1491.11 783.95C1497.07 795.277 1501.2 807.552 1506.9 819.005C1507.11 813.557 1507.17 808.067 1507.67 802.677C1504.76 795.799 1501.97 788.859 1498.61 782.23C1495.12 775.111 1490.93 768.362 1486.08 762.085C1481.62 756.595 1476.21 751.943 1470.11 748.349C1467.64 746.835 1465.11 745.416 1462.52 744.093L1455.86 748.195C1457.64 749.094 1459.41 750.033 1461.16 751.013C1467.42 754.542 1473.42 758.571 1478.13 764.066Z" fill="#554140"/>
<path d="M1507.91 820.98C1509.61 824.294 1511.51 827.507 1513.59 830.602C1518.6 838.16 1525.25 844.483 1533.06 849.095C1541.1 853.748 1549.9 856.939 1558.7 859.817C1568.79 863.12 1578.71 866.73 1588.57 870.666C1598.53 874.641 1608.48 878.635 1618.7 881.929C1620.93 882.649 1626.51 878.005 1623.2 876.941C1604.94 871.047 1587.56 862.736 1569.31 856.789C1560.42 853.89 1551.5 851.047 1543.11 846.849C1534.83 842.833 1527.61 836.923 1522.04 829.598C1516.32 821.997 1512.3 813.468 1508.57 804.781C1508.18 809.997 1508.16 815.253 1507.94 820.47C1507.93 820.641 1507.92 820.809 1507.91 820.98Z" fill="#554140"/>
<path d="M1501.95 849.267C1502.89 850.307 1503.83 851.339 1504.79 852.354C1516.84 865.072 1531.28 874.815 1547.97 880.317C1567.15 886.641 1587.39 888.671 1606.81 894.063C1609.08 894.692 1614.63 889.993 1611.32 889.075C1594.04 884.276 1576.14 882.134 1558.87 877.278C1541.96 872.632 1526.53 863.721 1514.06 851.399C1510.83 848.194 1507.76 844.837 1504.81 841.372C1504.44 842.625 1504.04 843.872 1503.6 845.112C1503.1 846.523 1502.55 847.908 1501.95 849.267Z" fill="#554140"/>
<path d="M1453.89 787.178C1460.52 793.895 1466.19 801.496 1471.66 809.156C1481.12 822.407 1490.25 836.054 1501.07 848.265C1502.17 845.671 1503.12 843.012 1503.91 840.304C1495.58 830.379 1488.18 819.621 1480.75 809.073C1475.34 801.387 1469.84 793.714 1463.53 786.726C1458.26 780.694 1451.89 775.717 1444.76 772.06C1439.34 769.47 1433.77 767.21 1428.07 765.293L1421.28 769.473C1425.67 771.047 1430.06 772.607 1434.28 774.433C1441.53 777.563 1448.32 781.531 1453.89 787.178Z" fill="#554140"/>
<path d="M1451.21 832.432C1463.62 844.388 1475.3 857.242 1488.58 868.265C1490.14 866.432 1491.61 864.54 1493 862.592C1481.54 852.847 1471.24 841.814 1460.47 831.316C1447.51 818.683 1434.06 806.38 1418.93 796.368C1411.99 791.763 1404.67 787.754 1397.05 784.383L1390.33 788.519C1396.81 791.297 1403.07 794.557 1409.05 798.271C1424.48 807.82 1438.18 819.88 1451.21 832.432Z" fill="#554140"/>
<path d="M1491.28 870.463C1505.16 881.592 1520.63 890.57 1537.18 897.095C1556.25 904.497 1576.51 908.394 1596.96 908.598C1597.88 908.511 1598.76 908.215 1599.54 907.735C1600.32 907.255 1600.98 906.602 1601.47 905.828C1602.28 904.419 1601.58 903.596 1600.08 903.578C1563.97 903.131 1529.16 890.381 1500.49 868.628C1498.23 866.92 1496.04 865.148 1493.88 863.333C1492.48 865.27 1491 867.147 1489.43 868.966C1490.05 869.466 1490.66 869.97 1491.28 870.463Z" fill="#554140"/>
<path d="M1374.4 818.864C1384.55 822.644 1394.37 826.733 1403.46 832.693C1411.7 838.091 1419.21 844.473 1426.77 850.754C1440.88 862.483 1455.07 874.285 1469.76 885.314C1471.74 883.882 1473.67 882.395 1475.57 880.854C1462.5 871.051 1449.95 860.509 1437.31 850.189C1429.58 843.884 1422.08 837.282 1413.99 831.448C1405.58 825.44 1396.45 820.527 1386.81 816.826C1380.69 814.438 1374.53 812.177 1368.32 810.041C1365.57 809.086 1362.81 808.108 1360.04 807.16L1353.14 811.407C1354.71 811.938 1356.29 812.479 1357.86 813.01C1363.4 814.882 1368.92 816.833 1374.4 818.864Z" fill="#554140"/>
<path d="M1470.69 886.013C1471.66 886.738 1472.63 887.458 1473.6 888.175C1489.65 900.004 1506.86 910.498 1525.96 916.61C1536.31 919.926 1546.8 920.306 1557.59 920.101C1568.01 919.903 1578.54 919.483 1588.68 922.344C1590.94 922.983 1596.49 918.289 1593.18 917.355C1574.92 912.202 1555.73 917.548 1537.33 913.53C1527.74 911.437 1518.43 907.367 1509.74 902.894C1500.87 898.256 1492.34 892.999 1484.21 887.161C1481.62 885.322 1479.04 883.448 1476.49 881.539C1476.02 881.923 1475.55 882.303 1475.08 882.68C1473.64 883.825 1472.17 884.932 1470.69 886.013Z" fill="#554140"/>
<path d="M1588.36 922.097C1578.22 919.234 1567.69 919.651 1557.28 919.846C1546.48 920.048 1536 919.666 1525.64 916.345C1506.55 910.233 1489.34 899.735 1473.3 887.906C1472.32 887.189 1471.35 886.469 1470.39 885.744C1471.87 884.662 1473.34 883.556 1474.78 882.414C1475.25 882.034 1475.72 881.654 1476.19 881.274C1478.74 883.18 1481.32 885.054 1483.91 886.898C1492.04 892.735 1500.56 897.992 1509.43 902.63C1518.12 907.103 1527.43 911.178 1537.02 913.271C1555.42 917.29 1574.61 911.951 1592.87 917.108C1595.91 917.967 1591.47 921.995 1588.97 922.149C1588.77 922.166 1588.56 922.148 1588.36 922.097V922.097ZM1596.66 908.357C1576.2 908.147 1555.95 904.246 1536.87 896.842C1520.33 890.315 1504.86 881.336 1490.99 870.206C1490.37 869.718 1489.76 869.21 1489.15 868.709C1490.71 866.892 1492.19 865.015 1493.6 863.08C1495.75 864.893 1497.95 866.665 1500.2 868.373C1528.86 890.128 1563.66 902.881 1599.78 903.338C1601.28 903.357 1601.97 904.178 1601.16 905.587C1600.69 906.328 1600.06 906.958 1599.32 907.435C1598.58 907.911 1597.75 908.223 1596.88 908.349C1596.8 908.355 1596.73 908.357 1596.66 908.357ZM1606.52 893.832C1587.1 888.437 1566.86 886.401 1547.68 880.075C1530.99 874.569 1516.55 864.827 1504.52 852.109C1503.55 851.093 1502.61 850.06 1501.68 849.021C1502.27 847.66 1502.82 846.277 1503.33 844.87C1503.77 843.631 1504.17 842.384 1504.54 841.131C1507.48 844.595 1510.55 847.957 1513.78 851.157C1526.25 863.479 1541.67 872.391 1558.58 877.038C1575.85 881.898 1593.75 884.044 1611.03 888.845C1614.07 889.69 1609.62 893.731 1607.12 893.884C1606.92 893.9 1606.71 893.883 1606.52 893.832ZM1618.41 881.699C1608.2 878.404 1598.25 874.409 1588.29 870.433C1578.43 866.494 1568.51 862.884 1558.42 859.579C1549.62 856.697 1540.82 853.506 1532.79 848.852C1524.98 844.24 1518.33 837.917 1513.32 830.359C1512.65 829.364 1512 828.357 1511.38 827.339C1510.05 825.183 1508.82 822.979 1507.65 820.738C1507.66 820.569 1507.67 820.401 1507.68 820.232C1507.9 815.017 1507.92 809.762 1508.32 804.548C1512.04 813.235 1516.06 821.76 1521.77 829.361C1527.33 836.686 1534.55 842.596 1542.83 846.611C1551.22 850.811 1560.13 853.656 1569.03 856.555C1587.27 862.504 1604.65 870.817 1622.91 876.714C1625.92 877.683 1621.56 881.622 1619.07 881.774C1618.85 881.792 1618.62 881.768 1618.4 881.703L1618.41 881.699ZM1426.49 850.485C1418.93 844.202 1411.42 837.821 1403.19 832.423C1394.1 826.463 1384.28 822.37 1374.14 818.587C1368.66 816.546 1363.14 814.594 1357.6 812.73C1356.02 812.199 1354.45 811.659 1352.87 811.127L1359.78 806.884C1362.55 807.831 1365.31 808.812 1368.06 809.766C1374.26 811.917 1380.42 814.18 1386.55 816.554C1396.19 820.255 1405.32 825.169 1413.72 831.176C1421.81 837.01 1429.3 843.614 1437.03 849.918C1449.67 860.238 1462.21 870.78 1475.28 880.583C1473.38 882.124 1471.44 883.61 1469.46 885.041C1454.78 874.02 1440.59 862.217 1426.49 850.489L1426.49 850.485ZM1628.39 868.022C1612.9 861.129 1596.96 855.259 1581.61 848.054C1569.01 842.14 1556.83 835.141 1546.42 825.822C1538.7 818.815 1532.04 810.724 1526.65 801.803C1523.93 797.371 1521.45 792.804 1519.19 788.119C1517.95 785.538 1516.73 782.944 1515.49 780.355C1516.99 778.049 1518.73 775.907 1520.68 773.964C1523.09 778.944 1525.39 783.984 1527.9 788.918C1534.84 802.574 1544.01 814.838 1555.95 824.536C1578.69 843.011 1607.61 851.656 1634.01 863.405C1635.52 864.079 1633.61 866.214 1632.99 866.73C1632.05 867.55 1630.89 868.075 1629.66 868.239C1629.22 868.273 1628.79 868.2 1628.38 868.027L1628.39 868.022ZM1450.94 832.175C1437.91 819.623 1424.23 807.564 1408.8 798.013C1402.82 794.298 1396.56 791.038 1390.08 788.26L1396.81 784.126C1404.42 787.498 1411.73 791.507 1418.67 796.111C1433.8 806.124 1447.24 818.427 1460.2 831.059C1470.96 841.559 1481.27 852.586 1492.72 862.334C1491.33 864.28 1489.85 866.17 1488.29 868.004C1475.01 856.988 1463.34 844.136 1450.93 832.178L1450.94 832.175ZM1471.41 808.912C1465.94 801.252 1460.27 793.651 1453.65 786.934C1448.08 781.284 1441.29 777.319 1434.04 774.186C1429.82 772.363 1425.44 770.801 1421.05 769.226L1427.84 765.049C1433.53 766.968 1439.1 769.23 1444.52 771.823C1451.65 775.48 1458.02 780.457 1463.29 786.489C1469.59 793.477 1475.08 801.148 1480.49 808.832C1487.91 819.381 1495.32 830.134 1503.64 840.059C1502.85 842.766 1501.9 845.424 1500.79 848.017C1489.97 835.811 1480.86 822.167 1471.4 808.917L1471.41 808.912ZM1490.87 783.715C1487.3 776.628 1482.95 769.96 1477.9 763.836C1473.2 758.34 1467.2 754.314 1460.93 750.783C1459.19 749.802 1457.43 748.862 1455.64 747.964L1462.3 743.865C1464.89 745.189 1467.42 746.608 1469.89 748.121C1475.99 751.715 1481.4 756.366 1485.86 761.856C1490.7 768.133 1494.89 774.881 1498.37 781.999C1501.73 788.624 1504.51 795.562 1507.42 802.438C1506.92 807.827 1506.86 813.317 1506.65 818.762C1500.95 807.315 1496.82 795.044 1490.87 783.72L1490.87 783.715ZM1507.29 764.715C1502.5 757.011 1496.74 749.952 1490.16 743.71C1486.53 740.196 1482.71 736.893 1478.77 733.741L1485.2 729.794C1490.48 734.024 1495.49 738.59 1500.18 743.464C1506.39 749.907 1511.72 757.13 1516.06 764.95C1517.51 767.561 1518.85 770.218 1520.16 772.901C1518.19 774.76 1516.41 776.82 1514.87 779.047C1512.52 774.179 1510.1 769.347 1507.29 764.72L1507.29 764.715Z" fill="white"/>
<path opacity="0.21" d="M2031.68 855.485C2031.68 995.247 1918.38 1108.55 1778.61 1108.55C1638.85 1108.55 1525.55 995.247 1525.55 855.485C1525.55 715.724 1638.85 602.424 1778.61 602.424C1918.38 602.424 2031.68 715.724 2031.68 855.485Z" fill="white"/>
</svg>
