<svg width="172" height="177" viewBox="0 0 172 177" fill="none" xmlns="http://www.w3.org/2000/svg">
<path d="M98.5934 52.7668C102.093 61.5416 106.613 69.5789 113.171 76.3442C118.944 82.3001 125.849 86.9133 133.046 90.8919C141.812 95.7373 150.975 99.8002 159.834 104.463C160.698 104.917 161.875 104.375 162.596 103.837C162.983 103.549 164.193 102.329 163.326 101.873C148.226 93.9255 131.521 87.7606 118.84 75.8945C112.294 69.6255 107.133 62.009 103.692 53.5415C102.402 50.4932 101.247 47.3831 100.018 44.3076C98.795 45.4107 97.6873 46.6403 96.7132 47.9761C97.3392 49.5734 97.9589 51.1742 98.5934 52.7668Z" fill="#554140"/>
<path d="M92.4416 38.1074C93.921 40.9851 95.1634 43.9745 96.3554 46.9863C97.3557 45.6969 98.4845 44.5162 99.7236 43.4634C99.0588 41.8055 98.3624 40.1619 97.6122 38.5417C95.3544 33.6939 92.4842 29.1716 89.0737 25.0884C86.4928 21.9969 83.717 19.08 80.7637 16.3559L76.8204 18.5156C79.0232 20.5439 81.147 22.6591 83.1522 24.894C86.7934 28.8717 89.9152 33.3122 92.4416 38.1074V38.1074Z" fill="#554140"/>
<path d="M75.2565 36.5234C77.9988 40.3789 80.3079 44.5373 82.1412 48.9216C85.2176 55.9368 87.1736 63.4599 90.0926 70.542C90.4303 67.2716 90.6803 63.9712 91.1853 60.7451C89.7369 56.5093 88.3615 52.2406 86.6405 48.1409C84.8615 43.7411 82.649 39.5395 80.0369 35.5999C77.6152 32.1465 74.604 29.1659 71.1444 26.7981C69.7432 25.8025 68.3042 24.8637 66.8274 23.9818L62.7308 26.2248C63.7531 26.8247 64.7596 27.4492 65.7502 28.0983C69.386 30.3118 72.604 33.1638 75.2565 36.5234V36.5234Z" fill="#554140"/>
<path d="M90.6479 71.9556C91.5217 74.0033 92.512 75.9964 93.6139 77.9249C96.2662 82.6325 99.9391 86.6547 104.355 89.6878C108.98 92.6377 113.899 95.0853 119.032 96.9909C124.845 99.3142 130.541 101.821 136.196 104.512C141.905 107.235 147.608 109.968 153.492 112.29C154.779 112.8 158.242 110.192 156.342 109.445C145.816 105.29 135.911 99.7143 125.398 95.5284C120.222 93.631 115.196 91.3408 110.362 88.6768C105.642 85.9865 101.623 82.1938 98.6298 77.6067C95.5613 72.8491 93.5248 67.5916 91.6713 62.248C91.2377 65.3678 91.018 68.5243 90.6849 71.6508L90.6479 71.9556Z" fill="#554140"/>
<path d="M86.1465 88.7295C86.6559 89.3852 87.1708 90.036 87.6973 90.6785C94.1586 98.7453 102.515 105.015 112.004 108.915C123.042 113.356 134.872 115.254 146.084 119.146C147.392 119.6 150.842 116.966 148.931 116.303C138.95 112.841 128.502 110.955 118.531 107.458C108.766 104.101 100.036 98.2333 93.1801 90.418C91.4055 88.3862 89.7319 86.2667 88.1316 84.0888C87.8685 84.8288 87.583 85.5635 87.2751 86.293C86.9244 87.1202 86.5482 87.9323 86.1465 88.7295Z" fill="#554140"/>
<path d="M60.2103 49.5133C63.7729 53.8491 66.9895 58.4689 69.83 63.3294C74.8915 71.6158 79.7375 80.1297 85.6418 87.8368C86.397 86.314 87.0623 84.7474 87.6342 83.1453C83.1081 76.8965 79.1599 70.18 75.1923 63.5857C72.3802 58.7249 69.2811 54.044 65.912 49.5685C63.0384 45.7639 59.4759 42.5567 55.4138 40.1176C52.3185 38.3778 49.1207 36.8315 45.838 35.4872L41.6664 37.7723C44.1967 38.8661 46.7238 39.9536 49.141 41.1914C53.3317 43.2049 57.091 46.0311 60.2103 49.5133V49.5133Z" fill="#554140"/>
<path d="M56.9738 76.5539C63.8201 84.1578 70.2008 92.2763 77.5957 99.3465C78.5856 98.2967 79.5285 97.2098 80.4244 96.0859C74.0533 89.8419 68.4107 82.8664 62.4728 76.1934C55.3294 68.1636 47.8803 60.3164 39.3567 53.7897C35.4477 50.789 31.2929 48.1333 26.937 45.8513L22.815 48.1101C26.5233 49.9975 30.0844 52.1675 33.4682 54.6017C42.1878 60.8619 49.7846 68.5704 56.9738 76.5539Z" fill="#554140"/>
<path d="M79.1212 101.068C86.8467 108.212 95.5948 114.119 105.071 118.591C116.001 123.674 127.761 126.693 139.784 127.503C140.324 127.481 140.853 127.334 141.331 127.072C141.809 126.81 142.222 126.44 142.54 125.992C143.072 125.173 142.696 124.657 141.812 124.595C120.593 123.113 100.622 114.292 84.6064 100.276C83.3494 99.1754 82.1281 98.0382 80.9306 96.8777C80.0318 97.9931 79.0876 99.0696 78.0978 100.107C78.4372 100.429 78.7765 100.751 79.1212 101.068Z" fill="#554140"/>
<path d="M12.3873 65.7266C18.217 68.337 23.8391 71.126 28.9573 75.0106C33.5114 78.6328 37.8581 82.5168 41.9765 86.6441C49.8276 94.1631 57.7206 101.73 65.9395 108.847C67.1609 108.053 68.3616 107.226 69.5417 106.366C62.2284 100.038 55.2514 93.2833 48.2125 86.6629C43.911 82.6163 39.7524 78.3972 35.2122 74.6211C30.4972 70.728 25.3082 67.4683 19.771 64.9209C16.2632 63.2809 12.7226 61.7153 9.14916 60.2241C7.56864 59.5572 5.98229 58.8752 4.38577 58.2141L0.155652 60.5329C1.06394 60.9049 1.96998 61.2822 2.87553 61.6548C6.06568 62.9652 9.23627 64.3225 12.3873 65.7266Z" fill="#554140"/>
<path d="M66.4794 109.678C67.0204 110.145 67.5621 110.61 68.1044 111.074C77.0795 118.709 86.7868 125.582 97.7741 129.889C103.735 132.226 109.881 132.806 116.236 133.046C122.369 133.277 128.577 133.378 134.423 135.436C135.727 135.895 139.177 133.267 137.268 132.595C126.735 128.89 115.243 131.452 104.581 128.424C99.0193 126.695 93.7065 124.239 88.7743 121.118C83.7433 118.038 78.9351 114.598 74.3855 110.823C72.9297 109.633 71.4895 108.422 70.0648 107.191C69.7769 107.404 69.4853 107.617 69.1901 107.829C68.3008 108.465 67.3919 109.08 66.4794 109.678Z" fill="#554140"/>
<path d="M134.262 135.467C128.415 133.375 122.219 133.237 116.095 132.972C109.749 132.695 103.611 132.082 97.6505 129.708C86.6619 125.334 76.9392 118.399 67.945 110.705C67.3987 110.238 66.8547 109.77 66.313 109.3C67.2248 108.703 68.1248 108.09 69.0132 107.462C69.3038 107.254 69.5945 107.042 69.8834 106.828C71.3128 108.066 72.7563 109.286 74.2137 110.489C78.7732 114.293 83.5892 117.765 88.6257 120.877C93.564 124.03 98.879 126.518 104.439 128.281C115.097 131.372 126.558 128.872 137.09 132.64C138.841 133.267 136.089 135.525 134.618 135.525C134.497 135.526 134.377 135.507 134.262 135.467V135.467ZM139.627 127.521C127.625 126.642 115.876 123.555 104.945 118.407C95.4683 113.879 86.7111 107.919 78.9678 100.726C78.6229 100.407 78.2823 100.082 77.9408 99.7586C78.922 98.7245 79.8597 97.6521 80.7539 96.5416C81.9542 97.7059 83.1773 98.8549 84.4381 99.9646C100.485 114.081 120.457 123.02 141.639 124.623C142.522 124.69 142.899 125.209 142.371 126.025C142.066 126.453 141.675 126.808 141.224 127.067C140.773 127.326 140.273 127.483 139.757 127.527C139.713 127.525 139.67 127.523 139.627 127.523V127.521ZM145.938 119.161C134.731 115.207 122.922 113.241 111.891 108.736C102.408 104.782 94.0425 98.4632 87.5584 90.355C87.0331 89.7084 86.5145 89.0552 86.0026 88.3954C86.3989 87.6008 86.7713 86.7902 87.1198 85.9638C87.4253 85.2357 87.7055 84.5023 87.9647 83.7625C89.5712 85.9513 91.2505 88.0802 93.0295 90.1212C99.9065 97.9792 108.642 103.898 118.398 107.31C128.361 110.864 138.793 112.811 148.765 116.33C150.521 116.948 147.761 119.211 146.289 119.212C146.171 119.215 146.054 119.198 145.942 119.161H145.938ZM153.351 112.316C147.476 109.96 141.779 107.196 136.075 104.442C130.427 101.715 124.737 99.1818 118.932 96.8291C113.807 94.895 108.894 92.4202 104.27 89.4449C99.8551 86.3882 96.176 82.3461 93.5102 77.6233C93.1507 77.0012 92.8051 76.3742 92.4736 75.7425C91.7732 74.3991 91.1279 73.0299 90.5247 71.6426C90.5361 71.5405 90.5475 71.4383 90.558 71.338C90.8749 68.2133 91.0833 65.06 91.4983 61.9434C93.3701 67.2963 95.4241 72.5632 98.5024 77.3375C101.508 81.9416 105.531 85.7562 110.248 88.4715C115.079 91.163 120.1 93.4811 125.27 95.4068C135.769 99.651 145.669 105.282 156.176 109.494C157.906 110.187 155.205 112.39 153.738 112.39C153.606 112.39 153.475 112.365 153.352 112.316L153.351 112.316ZM41.8099 86.5111C37.6859 82.362 33.3358 78.4548 28.7804 74.8084C23.6621 70.8965 18.0439 68.0754 12.2216 65.4326C9.07853 64.0056 5.91265 62.6325 2.724 61.313C1.82047 60.936 0.916051 60.5526 0.0098877 60.1756L4.21238 57.8811C5.80583 58.5519 7.39052 59.2423 8.96996 59.9167C12.5345 61.4362 16.0707 63.0212 19.5786 64.6714C25.1051 67.249 30.2884 70.5355 35.0036 74.452C39.5458 78.2529 43.7097 82.4943 48.0155 86.5638C55.0644 93.2252 62.0484 100.017 69.366 106.385C68.1986 107.24 67.007 108.061 65.7912 108.848C57.571 101.683 49.6703 94.0734 41.8107 86.512L41.8099 86.5111ZM159.701 104.468C150.859 99.7595 141.713 95.6478 132.96 90.7571C125.775 86.7413 118.876 82.0905 113.1 76.1089C108.821 71.6181 105.203 66.5152 102.358 60.9601C100.924 58.1981 99.628 55.3636 98.4744 52.4674C97.8344 50.8723 97.2119 49.2682 96.5798 47.6687C97.5442 46.3393 98.642 45.1168 99.8551 44.021C101.092 47.1018 102.259 50.2121 103.555 53.267C107.022 61.749 112.197 69.3888 118.744 75.688C131.427 87.6181 148.092 93.8682 163.168 101.899C164.032 102.359 162.834 103.57 162.45 103.857C161.872 104.316 161.173 104.589 160.443 104.641C160.186 104.646 159.932 104.587 159.702 104.469L159.701 104.468ZM56.8198 76.4153C49.6265 68.398 42.0235 60.653 33.3129 54.3517C29.9321 51.9003 26.3759 49.7121 22.6745 47.8058L26.7693 45.5712C31.1173 47.8753 35.2668 50.5517 39.1737 53.5715C47.696 60.1415 55.144 68.0226 62.2944 76.0855C68.2366 82.7863 73.8889 89.788 80.261 96.0571C79.3755 97.176 78.4416 98.2568 77.4593 99.2992C70.0638 92.199 63.6742 84.0519 56.8206 76.4161L56.8198 76.4153ZM69.6733 63.1999C66.8257 58.3294 63.6054 53.6973 60.0426 49.347C56.9225 45.8506 53.1693 43.006 48.9909 40.9706C46.5797 39.7168 44.0608 38.6216 41.5384 37.5155L45.6788 35.2569C48.9512 36.618 52.1399 38.1808 55.2272 39.9371C59.279 42.394 62.8379 45.6155 65.7151 49.4303C69.0876 53.9184 72.1923 58.6105 75.0122 63.4811C78.9897 70.0878 82.9497 76.8172 87.4805 83.0836C86.919 84.6801 86.2641 86.2407 85.5193 87.7568C79.6069 80.0333 74.7469 71.5047 69.6742 63.2008L69.6733 63.1999ZM82.0041 48.781C80.1623 44.3935 77.8483 40.2298 75.105 36.3665C72.4525 32.9975 69.2405 30.133 65.6161 27.9042C64.6297 27.2504 63.6267 26.621 62.607 26.0162L66.6694 23.7997C68.1397 24.6905 69.5741 25.6357 70.9726 26.6352C74.4216 29.018 77.4284 32.0099 79.8521 35.471C82.4662 39.4176 84.6844 43.6237 86.4728 48.026C88.2028 52.1277 89.5896 56.3962 91.0482 60.6332C90.5615 63.8511 90.3277 67.1451 90.0064 70.4068C87.0734 63.3254 85.0929 55.8051 82.005 48.7855L82.0041 48.781ZM92.3282 37.9758C89.7921 33.1735 86.6659 28.723 83.0258 24.732C81.0218 22.4877 78.9013 20.3642 76.7011 18.3267L80.6129 16.1934C83.5629 18.9278 86.3374 21.8541 88.919 24.954C92.3292 29.0514 95.2037 33.5853 97.4702 38.4415C98.2231 40.0634 98.92 41.7095 99.5924 43.3672C98.3679 44.4101 97.2529 45.5806 96.2655 46.8599C95.0625 43.8534 93.8131 40.8615 92.3291 37.9804L92.3282 37.9758Z" fill="#3B3430"/>
</svg>
