<svg width="121" height="123" viewBox="0 0 121 123" fill="none" xmlns="http://www.w3.org/2000/svg">
<g clip-path="url(#clip0_324:186)">
<path fill-rule="evenodd" clip-rule="evenodd" d="M16.8707 59.9696C45.5127 38.5155 81.8919 41.2272 103.363 70.6844C104.077 71.6652 105.449 71.8924 106.42 71.2033C107.399 70.4975 107.613 69.1329 106.898 68.1521C83.8916 36.5622 44.9099 33.4809 14.2143 56.4653C13.2554 57.1805 13.067 58.557 13.7995 59.5257C14.5398 60.4776 15.9118 60.6848 16.8707 59.9696Z" fill="black"/>
<path d="M73.4639 71.7686C70.2526 70.2842 66.4699 71.6599 65.0151 74.8415C63.5603 78.0232 64.9843 81.8058 68.1957 83.2903C71.407 84.7748 75.1896 83.399 76.6444 80.2173C78.0992 77.0357 76.6752 73.2531 73.4639 71.7686Z" fill="black"/>
<path d="M46.5901 66.7693C43.4415 65.3138 39.7328 66.6626 38.3064 69.7821C36.88 72.9015 38.2762 76.6102 41.4248 78.0657C44.5734 79.5212 48.282 78.1723 49.7084 75.0528C51.1347 71.9334 49.7386 68.2247 46.5901 66.7693Z" fill="black"/>
</g>
<defs>
<clipPath id="clip0_324:186">
<rect width="91.2625" height="90.2467" fill="white" transform="matrix(-0.907606 -0.419554 0.415792 -0.909337 83.4763 122.069)"/>
</clipPath>
</defs>
</svg>
