<svg width="2315" height="1109" viewBox="0 0 2315 1109" fill="none" xmlns="http://www.w3.org/2000/svg">
<path opacity="0.21" d="M435.619 843.562C435.619 963.729 338.204 1061.14 218.037 1061.14C97.8697 1061.14 0.455078 963.729 0.455078 843.562C0.455078 723.395 97.8697 625.98 218.037 625.98C338.204 625.98 435.619 723.395 435.619 843.562Z" fill="white"/>
<path d="M317.733 379.272C320.532 379.679 322.77 381.116 325.128 382.296C328.306 383.833 331.608 385.1 334.998 386.084C335.983 386.338 336.903 386.796 337.7 387.428C338.496 388.061 339.151 388.855 339.62 389.757C339.879 390.254 340.042 390.792 339.366 391.165C338.799 391.481 338.355 391.188 337.864 390.917C331.749 387.536 324.926 385.182 318.282 382.57C317.618 382.308 316.968 382.008 316.337 381.673C316.174 381.602 316.027 381.496 315.907 381.364C315.787 381.232 315.695 381.076 315.64 380.906C315.584 380.737 315.564 380.557 315.582 380.379C315.6 380.202 315.655 380.03 315.744 379.875C316.046 379.112 316.919 379.295 317.733 379.272Z" fill="#FFA85A"/>
<path d="M345.677 430.283C345.497 430.588 345.28 430.871 345.031 431.123C340.765 434.77 337.763 439.068 334.76 443.371C334.213 444.155 333.739 445.465 332.146 444.781C330.806 444.205 331.724 443.196 332.115 442.404C334.377 437.857 338.16 434.047 341.746 430.146C342.076 429.713 342.529 429.389 343.045 429.216C343.562 429.043 344.118 429.029 344.643 429.176C344.914 429.22 345.162 429.352 345.349 429.552C345.536 429.753 345.652 430.01 345.677 430.283Z" fill="#FFA85A"/>
<path d="M402.101 439.199C402.339 440 402.162 440.487 401.376 440.635C401.035 440.749 400.664 440.73 400.336 440.582C400.009 440.435 399.749 440.17 399.607 439.839C398.21 435.491 394.049 432.536 390.946 429.044C390.181 428.183 389.284 427.234 390.824 426.356C392.412 425.451 393.125 426.485 393.918 427.355C395.831 429.461 397.76 431.559 399.747 433.621C400.507 434.335 401.109 435.2 401.515 436.161C401.92 437.121 402.12 438.156 402.101 439.199Z" fill="#FFA85A"/>
<path d="M414.775 364.772C414.696 365.807 413.706 366.713 412.888 367.543C409.371 371.106 405.355 374.364 403.028 378.605C402.543 379.49 401.364 380.819 399.949 380.092C398.679 379.441 399.497 378.263 400.262 377.247C403.676 372.72 408.53 369.048 412.176 364.662C412.39 364.416 412.658 364.223 412.959 364.099C413.26 363.975 413.586 363.922 413.911 363.946C414.135 363.941 414.351 364.026 414.513 364.181C414.675 364.335 414.769 364.548 414.775 364.772Z" fill="#FFA85A"/>
<path d="M334.813 407.376C334.728 408.222 333.934 408.52 333.168 408.798C328.893 410.36 324.637 411.958 320.31 413.424C319.124 413.815 317.978 414.317 316.885 414.923C316.468 415.203 315.96 415.313 315.464 415.23C314.968 415.148 314.523 414.878 314.22 414.478C313.583 413.693 313.832 412.899 314.94 412.683C321.089 411.48 326.133 408.441 331.812 406.463C333.334 405.937 334.335 406.057 334.813 407.376Z" fill="#FFA85A"/>
<path d="M349.781 359.588C351.075 359.799 352.271 360.408 353.203 361.331C355.439 363.654 356.805 366.33 358.08 369.015C358.542 369.985 359.074 370.916 359.603 371.857C359.933 372.445 360.429 373.14 359.324 373.577C358.948 373.743 358.528 373.784 358.127 373.695C357.726 373.605 357.364 373.389 357.094 373.079C356.421 372.396 355.825 371.642 355.317 370.829C353.585 367.725 352.307 364.446 349.461 361.783C348.92 361.277 348.586 360.599 349.048 359.925C349.185 359.726 349.622 359.656 349.781 359.588Z" fill="#FFA85A"/>
<path d="M387.116 359.281C387.037 363.238 385.536 367.022 384.84 370.904C384.688 371.745 383.878 372.229 382.806 372.106C381.643 371.972 381.86 371.178 381.843 370.518C381.755 368.501 382.069 366.487 382.769 364.594C383.758 362.321 384.249 359.861 384.208 357.382C384.165 356.58 384.111 355.358 385.748 355.428C387.287 355.493 387.142 356.639 387.212 357.504C387.222 358.098 387.19 358.692 387.116 359.281Z" fill="#FFA85A"/>
<path d="M372.018 439.405C372.229 441.755 372.424 444.106 372.657 446.454C372.74 447.287 373.488 448.439 371.733 448.546C370.143 448.643 369.556 447.557 369.416 446.447C369.111 444.027 368.793 441.604 368.618 439.177C368.558 437.769 368.377 436.369 368.076 434.992C367.829 433.996 368.092 432.97 369.704 432.818C371.243 432.674 371.546 433.589 371.655 434.539C371.839 436.155 372 437.776 372.172 439.394L372.018 439.405Z" fill="#FFA85A"/>
<path d="M421.3 418.854C421.228 419.732 420.468 420.134 419.404 419.913C418.061 419.639 416.743 419.25 415.468 418.748C412.544 417.573 409.683 416.302 406.794 415.073C405.745 414.627 404.621 414.066 405.522 413.047C405.927 412.614 406.461 412.324 407.045 412.221C407.628 412.118 408.23 412.208 408.758 412.477C412.691 414.158 416.097 416.567 420.405 417.734C420.661 417.787 420.891 417.928 421.054 418.133C421.218 418.337 421.305 418.592 421.3 418.854Z" fill="#FFA85A"/>
<path d="M410.394 400.96C409.336 401.053 408.915 400.904 408.641 400.572C408.273 400.129 408.488 399.697 408.85 399.339C409.612 398.587 410.574 398.07 411.621 397.852C416.265 396.887 420.937 396.004 425.587 395.056C426.434 394.883 427.081 394.903 427.478 395.577C427.913 396.312 427.31 396.762 426.616 397C421.216 398.817 415.189 399.016 410.394 400.96Z" fill="#FFA85A"/>
<path d="M369.416 446.448C369.11 444.028 368.793 441.605 368.617 439.177C368.557 437.769 368.376 436.369 368.074 434.993C367.828 433.997 368.091 432.971 369.702 432.818C371.241 432.674 371.545 433.59 371.654 434.54C371.837 436.157 371.997 437.774 372.171 439.395L372.017 439.406C372.228 441.756 372.424 444.106 372.656 446.455C372.739 447.288 373.487 448.44 371.733 448.547C371.668 448.551 371.604 448.552 371.539 448.552C370.094 448.553 369.551 447.512 369.416 446.448ZM332.145 444.779C330.805 444.203 331.722 443.193 332.114 442.401C334.376 437.854 338.16 434.045 341.748 430.144C342.078 429.711 342.531 429.387 343.048 429.214C343.564 429.041 344.121 429.027 344.645 429.174C344.916 429.219 345.163 429.352 345.35 429.553C345.536 429.753 345.651 430.01 345.676 430.283C345.496 430.589 345.279 430.871 345.03 431.124C340.764 434.77 337.763 439.068 334.76 443.371C334.319 444.001 333.927 444.973 332.962 444.973C332.679 444.965 332.402 444.899 332.146 444.78L332.145 444.779ZM399.606 439.84C398.208 435.491 394.047 432.537 390.945 429.046C390.179 428.184 389.282 427.235 390.823 426.356C392.411 425.45 393.124 426.485 393.916 427.355C395.829 429.461 397.758 431.559 399.744 433.621C400.505 434.335 401.108 435.199 401.514 436.16C401.919 437.121 402.119 438.156 402.101 439.199C402.339 440 402.162 440.487 401.374 440.635C401.232 440.663 401.087 440.677 400.942 440.677C400.659 440.703 400.374 440.635 400.133 440.484C399.892 440.333 399.707 440.107 399.606 439.84H399.606ZM419.403 419.914C418.06 419.641 416.743 419.251 415.467 418.75C412.544 417.575 409.682 416.304 406.793 415.075C405.745 414.629 404.621 414.068 405.521 413.049C405.926 412.615 406.46 412.326 407.043 412.223C407.627 412.12 408.228 412.21 408.756 412.479C412.69 414.16 416.096 416.569 420.404 417.737C420.661 417.79 420.89 417.931 421.054 418.135C421.217 418.34 421.304 418.595 421.299 418.857C421.288 419.021 421.245 419.181 421.17 419.327C421.096 419.473 420.992 419.603 420.866 419.708C420.74 419.812 420.594 419.89 420.436 419.936C420.279 419.982 420.114 419.996 419.951 419.976C419.767 419.974 419.584 419.953 419.404 419.914H419.403ZM314.221 414.482C313.585 413.698 313.837 412.903 314.942 412.687C321.091 411.484 326.135 408.444 331.815 406.467C333.334 405.938 334.335 406.058 334.813 407.376C334.728 408.222 333.933 408.521 333.168 408.799C328.893 410.362 324.637 411.96 320.311 413.425C319.125 413.816 317.978 414.318 316.885 414.924C316.537 415.13 316.142 415.242 315.738 415.251C315.443 415.247 315.153 415.176 314.89 415.042C314.627 414.909 314.399 414.717 314.221 414.481V414.482ZM408.64 400.574C408.272 400.131 408.487 399.699 408.849 399.341C409.61 398.589 410.572 398.073 411.619 397.854C416.264 396.889 420.936 396.007 425.586 395.06C426.432 394.885 427.08 394.906 427.477 395.577C427.912 396.312 427.31 396.762 426.615 397C421.215 398.821 415.188 399.021 410.393 400.965C410.185 400.983 410 400.992 409.838 400.992C409.62 401.023 409.397 401.002 409.188 400.929C408.98 400.856 408.792 400.734 408.641 400.573L408.64 400.574ZM337.864 390.922C331.749 387.541 324.926 385.187 318.282 382.575C317.617 382.313 316.968 382.013 316.337 381.677C316.174 381.606 316.027 381.501 315.907 381.369C315.786 381.236 315.695 381.08 315.64 380.911C315.584 380.741 315.564 380.561 315.582 380.384C315.6 380.206 315.656 380.034 315.745 379.879C315.993 379.247 316.63 379.261 317.302 379.274C317.444 379.277 317.59 379.28 317.734 379.274C320.533 379.681 322.771 381.119 325.129 382.298C328.307 383.835 331.608 385.102 334.998 386.087C335.983 386.34 336.904 386.798 337.7 387.431C338.497 388.063 339.151 388.857 339.621 389.759C339.88 390.257 340.044 390.794 339.367 391.168C339.217 391.256 339.046 391.303 338.871 391.305C338.509 391.263 338.163 391.131 337.864 390.922V390.922ZM399.948 380.094C398.678 379.443 399.496 378.266 400.262 377.252C403.676 372.725 408.529 369.053 412.176 364.667C412.389 364.421 412.657 364.228 412.958 364.104C413.259 363.98 413.585 363.928 413.91 363.952C414.133 363.947 414.349 364.03 414.512 364.184C414.674 364.338 414.768 364.55 414.775 364.773C414.697 365.808 413.707 366.713 412.888 367.544C409.372 371.106 405.355 374.366 403.028 378.607C402.64 379.313 401.811 380.304 400.771 380.304C400.484 380.301 400.201 380.23 399.948 380.094ZM357.093 373.08C356.42 372.397 355.824 371.643 355.316 370.83C353.583 367.726 352.306 364.447 349.46 361.784C348.919 361.277 348.586 360.599 349.048 359.925C349.185 359.727 349.622 359.657 349.78 359.589C351.075 359.798 352.273 360.407 353.205 361.331C355.442 363.654 356.807 366.33 358.083 369.016C358.544 369.986 359.076 370.915 359.605 371.856C359.936 372.445 360.431 373.14 359.326 373.577C359.072 373.68 358.8 373.734 358.525 373.737C358.253 373.736 357.985 373.677 357.738 373.564C357.491 373.451 357.271 373.286 357.092 373.081L357.093 373.08ZM382.807 372.11C381.643 371.976 381.86 371.181 381.844 370.521C381.754 368.504 382.069 366.49 382.769 364.597C383.758 362.324 384.249 359.864 384.208 357.385C384.164 356.582 384.111 355.361 385.747 355.431C387.287 355.496 387.141 356.642 387.211 357.506C387.221 358.101 387.189 358.695 387.115 359.284C387.037 363.241 385.536 367.025 384.839 370.907C384.754 371.285 384.533 371.618 384.218 371.844C383.903 372.069 383.516 372.171 383.131 372.129C383.022 372.128 382.914 372.121 382.806 372.107L382.807 372.11Z" fill="white"/>
<path opacity="0.21" d="M2314.61 253.858C2314.61 393.61 2201.32 506.901 2061.57 506.901C1921.82 506.901 1808.53 393.61 1808.53 253.858C1808.53 114.107 1921.82 0.81543 2061.57 0.81543C2201.32 0.81543 2314.61 114.107 2314.61 253.858Z" fill="white"/>
<path d="M359.443 651.372C359.443 703.597 317.106 745.934 264.88 745.934C212.655 745.934 170.318 703.597 170.318 651.372C170.318 599.146 212.655 556.809 264.88 556.809C317.106 556.809 359.443 599.146 359.443 651.372Z" fill="#DF3E3F"/>
<path d="M1518.76 788.252C1525.64 802.467 1534.16 815.36 1545.98 825.953C1556.39 835.278 1568.56 842.271 1581.16 848.18C1596.5 855.379 1612.43 861.244 1627.91 868.133C1629.42 868.805 1631.35 867.794 1632.51 866.833C1633.13 866.318 1635.04 864.181 1633.53 863.508C1607.14 851.767 1578.24 843.133 1555.51 824.659C1543.57 814.964 1534.4 802.7 1527.46 789.043C1524.95 784.11 1522.65 779.07 1520.24 774.087C1518.29 776.032 1516.56 778.176 1515.06 780.483C1516.29 783.076 1517.51 785.673 1518.76 788.252Z" fill="#554140"/>
<path d="M1506.85 764.842C1509.66 769.469 1512.09 774.303 1514.43 779.178C1515.98 776.949 1517.75 774.887 1519.72 773.027C1518.41 770.347 1517.06 767.687 1515.62 765.075C1511.28 757.256 1505.94 750.034 1499.74 743.591C1495.04 738.717 1490.04 734.15 1484.76 729.919L1478.34 733.871C1482.28 737.021 1486.09 740.324 1489.72 743.836C1496.31 750.079 1502.06 757.139 1506.85 764.842Z" fill="#554140"/>
<path d="M1477.48 763.969C1482.53 770.095 1486.88 776.764 1490.46 783.852C1496.41 795.177 1500.54 807.451 1506.24 818.903C1506.45 813.456 1506.51 807.965 1507 802.575C1504.1 795.698 1501.31 788.758 1497.95 782.13C1494.47 775.012 1490.28 768.264 1485.44 761.987C1480.98 756.498 1475.57 751.847 1469.48 748.254C1467.01 746.741 1464.48 745.322 1461.89 743.999L1455.23 748.102C1457.02 749.001 1458.78 749.94 1460.53 750.92C1466.79 754.448 1472.79 758.476 1477.48 763.969Z" fill="#554140"/>
<path d="M1507.24 820.888C1508.95 824.202 1510.84 827.414 1512.92 830.509C1517.92 838.065 1524.57 844.387 1532.37 848.997C1540.41 853.648 1549.2 856.838 1558 859.714C1568.08 863.015 1577.99 866.623 1587.85 870.558C1597.8 874.531 1607.74 878.522 1617.95 881.815C1620.18 882.534 1625.75 877.89 1622.46 876.826C1604.2 870.935 1586.84 862.628 1568.6 856.684C1559.71 853.787 1550.8 850.946 1542.42 846.749C1534.14 842.736 1526.93 836.827 1521.36 829.503C1515.65 821.904 1511.63 813.376 1507.91 804.69C1507.52 809.906 1507.49 815.161 1507.27 820.378C1507.26 820.55 1507.25 820.717 1507.24 820.888Z" fill="#554140"/>
<path d="M1501.29 849.174C1502.23 850.214 1503.17 851.245 1504.13 852.259C1516.16 864.975 1530.59 874.714 1547.27 880.213C1566.44 886.533 1586.67 888.56 1606.08 893.948C1608.34 894.577 1613.89 889.877 1610.58 888.959C1593.31 884.164 1575.42 882.026 1558.16 877.173C1541.27 872.53 1525.85 863.622 1513.39 851.303C1510.16 848.099 1507.09 844.743 1504.15 841.279C1503.78 842.531 1503.38 843.778 1502.94 845.019C1502.44 846.429 1501.89 847.814 1501.29 849.174Z" fill="#554140"/>
<path d="M1453.27 787.08C1459.89 793.796 1465.56 801.396 1471.02 809.055C1480.48 822.304 1489.59 835.949 1500.4 848.158C1501.51 845.563 1502.46 842.905 1503.25 840.196C1494.93 830.273 1487.53 819.517 1480.11 808.97C1474.7 801.285 1469.2 793.613 1462.9 786.626C1457.63 780.596 1451.27 775.62 1444.14 771.964C1438.73 769.375 1433.16 767.116 1427.47 765.2L1420.68 769.382C1425.07 770.955 1429.45 772.514 1433.67 774.339C1440.91 777.467 1447.7 781.434 1453.27 787.08Z" fill="#554140"/>
<path d="M1450.59 832.329C1462.99 844.282 1474.66 857.133 1487.93 868.154C1489.49 866.32 1490.96 864.429 1492.35 862.48C1480.9 852.737 1470.61 841.707 1459.84 831.211C1446.89 818.581 1433.45 806.281 1418.33 796.272C1411.39 791.668 1404.08 787.661 1396.47 784.291L1389.75 788.428C1396.23 791.204 1402.48 794.463 1408.46 798.177C1423.88 807.723 1437.56 819.78 1450.59 832.329Z" fill="#554140"/>
<path d="M1490.63 870.368C1504.49 881.493 1519.95 890.468 1536.49 896.99C1555.55 904.388 1575.79 908.281 1596.23 908.482C1597.14 908.394 1598.02 908.098 1598.8 907.618C1599.58 907.138 1600.24 906.485 1600.73 905.711C1601.54 904.301 1600.85 903.479 1599.35 903.462C1563.26 903.02 1528.48 890.277 1499.83 868.531C1497.58 866.824 1495.38 865.052 1493.23 863.238C1491.83 865.175 1490.35 867.053 1488.78 868.872C1489.4 869.371 1490.01 869.875 1490.63 870.368Z" fill="#554140"/>
<path d="M1373.84 818.77C1383.98 822.547 1393.8 826.634 1402.88 832.593C1411.1 837.989 1418.61 844.369 1426.17 850.649C1440.27 862.374 1454.45 874.173 1469.12 885.199C1471.1 883.767 1473.04 882.28 1474.93 880.739C1461.87 870.938 1449.33 860.399 1436.7 850.082C1428.98 843.779 1421.48 837.178 1413.39 831.346C1405 825.34 1395.87 820.428 1386.24 816.729C1380.12 814.343 1373.97 812.083 1367.76 809.948C1365.01 808.993 1362.25 808.016 1359.48 807.069L1352.59 811.317C1354.16 811.847 1355.74 812.388 1357.31 812.919C1362.85 814.79 1368.36 816.74 1373.84 818.77Z" fill="#554140"/>
<path d="M1470.05 885.919C1471.02 886.643 1471.99 887.363 1472.96 888.08C1489 899.905 1506.2 910.395 1525.28 916.503C1535.63 919.816 1546.1 920.194 1556.89 919.988C1567.3 919.788 1577.82 919.367 1587.95 922.226C1590.21 922.864 1595.76 918.17 1592.46 917.236C1574.21 912.087 1555.03 917.436 1536.64 913.421C1527.06 911.33 1517.76 907.262 1509.07 902.791C1500.21 898.155 1491.69 892.9 1483.57 887.064C1480.97 885.226 1478.4 883.352 1475.85 881.443C1475.38 881.828 1474.91 882.208 1474.44 882.585C1473 883.73 1471.54 884.837 1470.05 885.919Z" fill="#554140"/>
<path d="M1587.64 921.98C1577.51 919.118 1566.98 919.535 1556.57 919.731C1545.78 919.933 1535.31 919.551 1524.96 916.231C1505.88 910.121 1488.69 899.624 1472.65 887.798C1471.68 887.081 1470.71 886.361 1469.75 885.636C1471.23 884.554 1472.7 883.448 1474.14 882.306C1474.61 881.926 1475.08 881.546 1475.55 881.167C1478.1 883.072 1480.67 884.946 1483.26 886.789C1491.38 892.625 1499.9 897.881 1508.76 902.519C1517.44 906.99 1526.75 911.064 1536.33 913.157C1554.72 917.175 1573.9 911.836 1592.14 916.991C1595.18 917.85 1590.74 921.878 1588.25 922.032C1588.04 922.049 1587.84 922.031 1587.64 921.98ZM1595.93 908.241C1575.48 908.032 1555.24 904.133 1536.19 896.73C1519.65 890.204 1504.2 881.227 1490.34 870.099C1489.72 869.611 1489.11 869.104 1488.5 868.603C1490.06 866.785 1491.54 864.909 1492.94 862.974C1495.1 864.787 1497.29 866.558 1499.54 868.266C1528.18 890.017 1562.96 902.767 1599.04 903.223C1600.55 903.242 1601.24 904.062 1600.43 905.471C1599.95 906.212 1599.33 906.842 1598.59 907.319C1597.85 907.796 1597.02 908.108 1596.15 908.234C1596.07 908.239 1596 908.242 1595.93 908.241ZM1605.78 893.717C1586.38 888.324 1566.15 886.29 1546.98 879.964C1530.31 874.46 1515.88 864.72 1503.85 852.004C1502.89 850.988 1501.95 849.955 1501.02 848.916C1501.61 847.556 1502.16 846.172 1502.66 844.766C1503.11 843.527 1503.51 842.28 1503.87 841.028C1506.82 844.491 1509.88 847.852 1513.11 851.051C1525.57 863.372 1540.98 872.282 1557.88 876.928C1575.13 881.786 1593.02 883.931 1610.29 888.731C1613.33 889.576 1608.88 893.617 1606.38 893.77C1606.18 893.786 1605.98 893.768 1605.78 893.717ZM1617.66 881.585C1607.46 878.291 1597.52 874.297 1587.57 870.322C1577.71 866.384 1567.8 862.775 1557.72 859.471C1548.93 856.589 1540.14 853.399 1532.11 848.746C1524.31 844.135 1517.66 837.813 1512.66 830.257C1511.98 829.261 1511.33 828.254 1510.71 827.237C1509.38 825.081 1508.15 822.877 1506.99 820.637C1507 820.467 1507.01 820.3 1507.01 820.13C1507.23 814.916 1507.26 809.662 1507.65 804.448C1511.37 813.134 1515.39 821.658 1521.09 829.258C1526.66 836.581 1533.87 842.49 1542.14 846.505C1550.52 850.704 1559.43 853.548 1568.32 856.447C1586.55 862.394 1603.91 870.705 1622.16 876.601C1625.17 877.57 1620.81 881.508 1618.33 881.661C1618.1 881.678 1617.88 881.654 1617.66 881.59L1617.66 881.585ZM1425.88 850.383C1418.33 844.101 1410.83 837.721 1402.6 832.324C1393.52 826.366 1383.71 822.273 1373.57 818.491C1368.09 816.451 1362.58 814.499 1357.04 812.636C1355.47 812.105 1353.9 811.565 1352.32 811.033L1359.22 806.79C1361.99 807.737 1364.75 808.718 1367.49 809.672C1373.69 811.822 1379.85 814.084 1385.97 816.458C1395.6 820.158 1404.73 825.071 1413.12 831.077C1421.21 836.91 1428.7 843.513 1436.42 849.816C1449.04 860.134 1461.58 870.675 1474.63 880.475C1472.74 882.017 1470.8 883.503 1468.82 884.934C1454.15 873.914 1439.98 862.113 1425.88 850.387L1425.88 850.383ZM1627.64 867.91C1612.16 861.018 1596.23 855.149 1580.89 847.947C1568.3 842.033 1556.13 835.036 1545.73 825.718C1538.01 818.713 1531.36 810.623 1525.97 801.703C1523.26 797.271 1520.77 792.705 1518.52 788.021C1517.28 785.441 1516.06 782.846 1514.82 780.258C1516.33 777.953 1518.06 775.811 1520.01 773.867C1522.42 778.848 1524.71 783.886 1527.22 788.819C1534.16 802.474 1543.33 814.736 1555.26 824.433C1577.98 842.904 1606.87 851.547 1633.25 863.294C1634.77 863.967 1632.86 866.102 1632.24 866.617C1631.3 867.438 1630.14 867.963 1628.91 868.127C1628.47 868.161 1628.03 868.088 1627.63 867.915L1627.64 867.91ZM1450.31 832.074C1437.3 819.524 1423.62 807.468 1408.21 797.919C1402.23 794.204 1395.98 790.945 1389.51 788.167L1396.22 784.034C1403.83 787.404 1411.14 791.413 1418.07 796.016C1433.19 806.028 1446.62 818.328 1459.57 830.958C1470.33 841.456 1480.62 852.482 1492.06 862.228C1490.68 864.174 1489.2 866.064 1487.64 867.897C1474.37 856.883 1462.71 844.033 1450.31 832.078L1450.31 832.074ZM1470.77 808.814C1465.3 801.154 1459.64 793.554 1453.03 786.838C1447.46 781.19 1440.68 777.225 1433.43 774.093C1429.22 772.271 1424.83 770.709 1420.45 769.134L1427.24 764.958C1432.92 766.876 1438.49 769.138 1443.91 771.73C1451.03 775.386 1457.39 780.362 1462.66 786.394C1468.96 793.381 1474.44 801.05 1479.85 808.733C1487.26 819.28 1494.66 830.032 1502.98 839.955C1502.19 842.662 1501.24 845.319 1500.13 847.912C1489.32 835.709 1480.21 822.066 1470.77 808.818L1470.77 808.814ZM1490.22 783.619C1486.65 776.532 1482.3 769.866 1477.26 763.742C1472.56 758.247 1466.57 754.223 1460.31 750.692C1458.57 749.711 1456.8 748.771 1455.01 747.874L1461.67 743.775C1464.26 745.099 1466.79 746.517 1469.26 748.03C1475.35 751.623 1480.75 756.274 1485.22 761.763C1490.05 768.038 1494.24 774.786 1497.72 781.903C1501.07 788.527 1503.85 795.464 1506.76 802.339C1506.26 807.728 1506.2 813.216 1505.98 818.661C1500.29 807.216 1496.17 794.947 1490.22 783.623L1490.22 783.619ZM1506.63 764.621C1501.84 756.918 1496.09 749.86 1489.51 743.618C1485.88 740.105 1482.07 736.803 1478.13 733.651L1484.56 729.704C1489.83 733.933 1494.84 738.499 1499.53 743.372C1505.73 749.815 1511.06 757.036 1515.4 764.855C1516.84 767.465 1518.18 770.122 1519.49 772.805C1517.52 774.664 1515.75 776.723 1514.2 778.951C1511.86 774.083 1509.44 769.252 1506.63 764.625L1506.63 764.621Z" fill="white"/>
<path opacity="0.21" d="M2031.8 855.382C2031.8 995.134 1918.51 1108.42 1778.76 1108.42C1639.01 1108.42 1525.72 995.134 1525.72 855.382C1525.72 715.63 1639.01 602.339 1778.76 602.339C1918.51 602.339 2031.8 715.63 2031.8 855.382Z" fill="white"/>
</svg>
