<svg width="88" height="74" viewBox="0 0 88 74" fill="none" xmlns="http://www.w3.org/2000/svg">
<path d="M3.52199 19.6318C5.66284 19.9506 7.37462 21.075 9.17836 21.998C11.6091 23.2006 14.1342 24.1922 16.7269 24.9623C17.4803 25.1605 18.1845 25.5188 18.7937 26.0139C19.4028 26.509 19.9034 27.1299 20.2627 27.8361C20.4604 28.2247 20.5855 28.6457 20.0685 28.9377C19.6345 29.1851 19.2949 28.9559 18.9197 28.7439C14.2425 26.0979 9.02413 24.2564 3.94215 22.2126C3.43398 22.0072 2.93741 21.7728 2.45478 21.5107C2.32965 21.4547 2.21745 21.3723 2.12549 21.2689C2.03354 21.1656 1.96388 21.0435 1.92107 20.9108C1.87826 20.778 1.86325 20.6375 1.87703 20.4984C1.8908 20.3593 1.93304 20.2247 2.001 20.1035C2.23234 19.5063 2.89965 19.6501 3.52199 19.6318Z" fill="#FFA85A"/>
<path d="M24.8733 59.5456C24.7356 59.7849 24.5696 60.0058 24.379 60.2034C21.1166 63.0564 18.821 66.42 16.524 69.7866C16.1053 70.3999 15.7435 71.4251 14.525 70.8898C13.4998 70.4394 14.2017 69.6495 14.5013 69.0301C16.2314 65.4722 19.1245 62.4907 21.8664 59.4388C22.1192 59.0998 22.4655 58.8463 22.8606 58.7109C23.2556 58.5756 23.6813 58.5648 24.0824 58.6798C24.2893 58.714 24.4793 58.8176 24.6224 58.9743C24.7656 59.131 24.8538 59.332 24.8733 59.5456Z" fill="#FFA85A"/>
<path d="M68.0284 66.5223C68.2103 67.1487 68.0749 67.5303 67.4733 67.6462C67.2126 67.7348 66.9289 67.72 66.6784 67.6046C66.4279 67.4893 66.2289 67.2818 66.1208 67.0232C65.052 63.6207 61.8696 61.3087 59.4968 58.5766C58.9115 57.9026 58.2254 57.1597 59.4034 56.473C60.6179 55.7646 61.1632 56.5742 61.7697 57.2549C63.2329 58.9025 64.708 60.544 66.2275 62.1578C66.8089 62.7161 67.2695 63.393 67.5797 64.1447C67.8898 64.8964 68.0427 65.7064 68.0284 66.5223V66.5223Z" fill="#FFA85A"/>
<path d="M77.7228 8.28674C77.6625 9.09639 76.9057 9.80483 76.2794 10.4546C73.5899 13.2423 70.5183 15.7922 68.7388 19.1102C68.3675 19.8029 67.4659 20.8423 66.3834 20.2741C65.4121 19.764 66.0374 18.8425 66.6231 18.0475C69.234 14.5053 72.9463 11.6326 75.7352 8.20021C75.8987 8.00785 76.1037 7.85709 76.334 7.75987C76.5642 7.66264 76.8134 7.62161 77.0619 7.64004C77.2332 7.63637 77.399 7.70238 77.5229 7.8236C77.6467 7.94482 77.7186 8.11136 77.7228 8.28674V8.28674Z" fill="#FFA85A"/>
<path d="M16.5645 41.6218C16.4992 42.2842 15.8922 42.5175 15.306 42.7351C12.0367 43.9572 8.78129 45.2076 5.47248 46.3543C4.56538 46.6608 3.6883 47.0535 2.85272 47.5274C2.53374 47.7467 2.1449 47.8328 1.76589 47.7681C1.38689 47.7033 1.04641 47.4926 0.81425 47.1792C0.327369 46.5654 0.517672 45.9434 1.36539 45.7749C6.06811 44.8337 9.92608 42.4558 14.2694 40.9078C15.4335 40.4964 16.1987 40.59 16.5645 41.6218Z" fill="#FFA85A"/>
<path d="M28.0116 4.23047C29.0014 4.39512 29.9165 4.87167 30.6293 5.59373C32.3398 7.41141 33.3844 9.50539 34.3598 11.6065C34.7128 12.3655 35.1197 13.0937 35.5245 13.83C35.7772 14.2905 36.1564 14.8345 35.311 15.176C35.0233 15.3061 34.7025 15.3384 34.3956 15.2683C34.0887 15.1981 33.8118 15.0293 33.6054 14.7864C33.0906 14.2525 32.6348 13.6621 32.2464 13.0259C30.9215 10.5969 29.9441 8.03131 27.7669 5.94796C27.3531 5.55173 27.098 5.0209 27.4515 4.49411C27.5563 4.33825 27.8905 4.2836 28.0116 4.23047Z" fill="#FFA85A"/>
<path d="M56.5685 3.99003C56.5082 7.08589 55.3603 10.0471 54.8274 13.0843C54.7112 13.7421 54.0923 14.1211 53.2722 14.025C52.3823 13.9202 52.5484 13.2988 52.5356 12.7822C52.4679 11.2043 52.7086 9.62848 53.2435 8.14702C54.0004 6.36817 54.3758 4.44384 54.3444 2.50384C54.3113 1.87637 54.2703 0.920494 55.5225 0.975144C56.6995 1.02575 56.5883 1.92293 56.6417 2.59948C56.6496 3.06419 56.6252 3.52889 56.5685 3.99003Z" fill="#FFA85A"/>
<path d="M45.02 66.6836C45.1811 68.5225 45.3304 70.362 45.5084 72.1994C45.5716 72.8506 46.144 73.7524 44.802 73.8364C43.5861 73.9118 43.1372 73.0622 43.03 72.1938C42.7967 70.3002 42.5535 68.4041 42.4195 66.505C42.3738 65.4032 42.2351 64.3076 42.0048 63.2304C41.816 62.4511 42.0172 61.6485 43.2499 61.5296C44.4269 61.4168 44.6592 62.1328 44.7422 62.8757C44.8826 64.1407 45.0057 65.4089 45.1376 66.675L45.02 66.6836Z" fill="#FFA85A"/>
<path d="M82.7131 50.603C82.6578 51.2902 82.0765 51.6049 81.2628 51.4313C80.2353 51.2177 79.2279 50.9129 78.2519 50.5205C76.0157 49.6006 73.8278 48.6063 71.6182 47.6449C70.816 47.2958 69.9559 46.8571 70.6454 46.0596C70.9548 45.7205 71.3634 45.4936 71.8098 45.4131C72.2562 45.3325 72.716 45.4028 73.12 45.6133C76.1284 46.9289 78.7334 48.8138 82.0285 49.7266C82.2244 49.7683 82.4 49.8786 82.525 50.0386C82.65 50.1986 82.7165 50.3982 82.7131 50.603Z" fill="#FFA85A"/>
<path d="M74.371 36.6022C73.5613 36.6751 73.2395 36.5582 73.0299 36.2986C72.7487 35.9519 72.9128 35.6139 73.1901 35.334C73.7723 34.7453 74.5081 34.3412 75.3092 34.1701C78.8614 33.4151 82.4348 32.7243 85.9909 31.9824C86.639 31.8468 87.1338 31.863 87.4378 32.3903C87.7704 32.9652 87.3092 33.3174 86.7779 33.5036C82.6483 34.9256 78.0378 35.081 74.371 36.6022Z" fill="#FFA85A"/>
<path d="M43.03 72.1947C42.7962 70.3012 42.5535 68.405 42.419 66.5054C42.3736 65.4038 42.2348 64.3085 42.0043 63.2315C41.816 62.4523 42.0166 61.6496 43.2494 61.5301C44.4259 61.4173 44.6587 62.1339 44.7418 62.8772C44.8821 64.1423 45.0048 65.4073 45.1372 66.6759L45.0201 66.6845C45.1812 68.5234 45.331 70.3623 45.5084 72.2002C45.5722 72.8519 46.1441 73.7534 44.8026 73.8369C44.7532 73.8399 44.7037 73.8413 44.6543 73.8413C43.549 73.8418 43.1333 73.0272 43.03 72.1947ZM14.5244 70.8887C13.4992 70.4378 14.2007 69.6477 14.5007 69.0284C16.2308 65.4705 19.1244 62.4897 21.8688 59.4378C22.1215 59.0987 22.4678 58.845 22.8629 58.7097C23.258 58.5743 23.6836 58.5636 24.0847 58.6788C24.2914 58.7137 24.481 58.8177 24.6237 58.9748C24.7664 59.1318 24.8541 59.333 24.8732 59.5465C24.7355 59.7858 24.5695 60.0066 24.3789 60.2043C21.1165 63.0573 18.8209 66.4203 16.5239 69.7874C16.1868 70.2803 15.8872 71.0409 15.1487 71.0409C14.9329 71.0342 14.7206 70.9826 14.5249 70.8892L14.5244 70.8887ZM66.1205 67.0245C65.0513 63.6215 61.8694 61.3095 59.4968 58.578C58.911 57.9039 58.2249 57.161 59.4033 56.4733C60.6179 55.7649 61.1631 56.5747 61.7691 57.2553C63.2317 58.903 64.7072 60.5445 66.2267 62.1582C66.8084 62.7164 67.2693 63.393 67.5798 64.1448C67.8902 64.8965 68.0432 65.7067 68.0289 66.5227C68.2108 67.1492 68.0755 67.5306 67.4734 67.6464C67.3644 67.6681 67.2537 67.6791 67.1427 67.6793C66.9259 67.6995 66.7085 67.6466 66.524 67.5283C66.3395 67.4101 66.1979 67.233 66.1209 67.0245H66.1205ZM81.2625 51.4328C80.2351 51.219 79.2276 50.9143 78.2517 50.5221C76.0159 49.6026 73.8276 48.6082 71.6181 47.6468C70.8163 47.2976 69.9562 46.859 70.6448 46.061C70.9543 45.7221 71.363 45.4953 71.8093 45.4148C72.2556 45.3344 72.7154 45.4048 73.1193 45.6152C76.1277 46.9309 78.7326 48.8158 82.0282 49.7292C82.2242 49.7708 82.3999 49.8811 82.5248 50.0412C82.6497 50.2014 82.716 50.4012 82.7123 50.6061C82.7043 50.7342 82.6709 50.8593 82.614 50.9737C82.5571 51.0881 82.478 51.1895 82.3815 51.2715C82.285 51.3534 82.1731 51.4142 82.0527 51.4504C81.9324 51.4865 81.8061 51.4971 81.6816 51.4815C81.5408 51.4797 81.4006 51.4633 81.263 51.4328H81.2625ZM0.815373 47.1822C0.328977 46.5689 0.521257 45.9471 1.36652 45.7781C6.06983 44.8369 9.92741 42.4584 14.2714 40.911C15.4335 40.4971 16.1991 40.5908 16.5644 41.6226C16.4996 42.2845 15.8917 42.5186 15.3064 42.7357C12.0371 43.9588 8.78159 45.2093 5.47271 46.3555C4.56557 46.6619 3.68844 47.0545 2.85287 47.5284C2.58677 47.6895 2.28463 47.7777 1.97553 47.7844C1.75004 47.7813 1.52821 47.7253 1.32712 47.6208C1.12602 47.5163 0.950974 47.3662 0.815373 47.1817V47.1822ZM73.0303 36.3002C72.7491 35.9536 72.9132 35.6154 73.1905 35.3356C73.7726 34.747 74.5082 34.343 75.3091 34.1718C78.8616 33.4168 82.4345 32.7267 85.991 31.9854C86.6385 31.8487 87.1338 31.8653 87.4378 32.3901C87.7705 32.9654 87.3098 33.3177 86.778 33.5034C82.6485 34.9289 78.0382 35.0847 74.3709 36.6063C74.2117 36.62 74.0709 36.6276 73.9468 36.6276C73.7796 36.6518 73.6092 36.6347 73.4498 36.5777C73.2905 36.5206 73.1468 36.4253 73.0308 36.2997L73.0303 36.3002ZM18.8985 28.7483C14.2214 26.1023 9.00302 24.2608 3.92107 22.2169C3.41269 22.0118 2.91614 21.7772 2.43375 21.5145C2.30861 21.4585 2.19636 21.3762 2.10442 21.2728C2.01247 21.1694 1.94287 21.0473 1.9001 20.9145C1.85733 20.7818 1.84239 20.6413 1.85624 20.5022C1.87008 20.3631 1.91236 20.2285 1.98042 20.1073C2.17072 19.6129 2.65764 19.6235 3.17123 19.6337C3.28047 19.6362 3.39215 19.6382 3.50189 19.6337C5.64272 19.9525 7.35456 21.0772 9.15828 22.0002C11.5889 23.2026 14.1137 24.1944 16.7063 24.9647C17.4596 25.1629 18.1638 25.521 18.773 26.0161C19.3822 26.5112 19.8827 27.1321 20.2421 27.8383C20.4398 28.2275 20.5653 28.6481 20.0478 28.9401C19.9327 29.009 19.802 29.0459 19.6686 29.0473C19.3916 29.0144 19.127 28.9116 18.8985 28.7478V28.7483ZM66.3824 20.2758C65.4111 19.7658 66.0364 18.8448 66.6227 18.0518C69.2336 14.5096 72.9453 11.6364 75.7347 8.20457C75.898 8.01219 76.103 7.86142 76.3332 7.76427C76.5634 7.66712 76.8126 7.62628 77.0609 7.64492C77.2318 7.64097 77.3972 7.70615 77.5211 7.82653C77.6451 7.94691 77.7176 8.11274 77.7228 8.28759C77.663 9.09723 76.9062 9.8055 76.2794 10.4557C73.5899 13.2429 70.5178 15.7935 68.7383 19.1121C68.4417 19.6647 67.807 20.4396 67.0117 20.4396C66.7921 20.4377 66.5762 20.3816 66.3824 20.2758V20.2758ZM33.6051 14.7874C33.0907 14.2531 32.635 13.6628 32.2462 13.0269C30.921 10.598 29.9443 8.03201 27.7674 5.9487C27.3536 5.55197 27.0985 5.02114 27.452 4.49436C27.5568 4.33901 27.8909 4.28435 28.012 4.23122C29.0027 4.39487 29.9186 4.87125 30.6318 5.59388C32.3426 7.41204 33.3866 9.50563 34.3623 11.6072C34.7153 12.3662 35.1216 13.0936 35.5265 13.8299C35.7796 14.2904 36.1587 14.8345 35.3134 15.176C35.1186 15.2569 34.9107 15.2993 34.7005 15.3011C34.4927 15.3003 34.2874 15.2543 34.0985 15.1659C33.9095 15.0775 33.7411 14.9487 33.6046 14.7884L33.6051 14.7874ZM53.272 14.0283C52.3822 13.9236 52.5483 13.3017 52.5355 12.785C52.4671 11.2071 52.7078 9.63126 53.2433 8.14996C53.9998 6.37101 54.3751 4.44653 54.3437 2.50658C54.31 1.8786 54.2695 0.922714 55.5206 0.977871C56.6985 1.02847 56.5868 1.92515 56.6407 2.6017C56.6486 3.06658 56.6242 3.53147 56.5675 3.99278C56.5077 7.08866 55.3599 10.0495 54.8266 13.0872C54.7614 13.3829 54.5923 13.6438 54.3513 13.82C54.1104 13.9963 53.8146 14.0758 53.5201 14.0432C53.437 14.0424 53.354 14.0367 53.2715 14.0263L53.272 14.0283Z" fill="white"/>
</svg>
