<svg width="1985" height="950" viewBox="0 0 1985 950" fill="none" xmlns="http://www.w3.org/2000/svg">
<path opacity="0.21" d="M373.923 722.569C373.923 825.596 290.403 909.116 187.375 909.116C84.3482 909.116 0.828125 825.596 0.828125 722.569C0.828125 619.542 84.3482 536.022 187.375 536.022C290.403 536.022 373.923 619.542 373.923 722.569Z" fill="white"/>
<path d="M274.014 331.739C277.263 332.212 279.861 333.88 282.598 335.249C286.287 337.033 290.118 338.504 294.053 339.647C295.196 339.941 296.265 340.472 297.189 341.207C298.113 341.941 298.873 342.862 299.418 343.91C299.718 344.486 299.908 345.111 299.124 345.544C298.465 345.911 297.95 345.571 297.38 345.257C290.283 341.331 282.364 338.599 274.652 335.567C273.881 335.263 273.127 334.915 272.395 334.526C272.205 334.443 272.035 334.321 271.895 334.167C271.756 334.014 271.65 333.833 271.585 333.636C271.52 333.439 271.497 333.231 271.518 333.024C271.539 332.818 271.603 332.618 271.706 332.438C272.057 331.553 273.07 331.766 274.014 331.739Z" fill="#FFA85A"/>
<path d="M306.448 390.951C306.239 391.306 305.987 391.633 305.698 391.927C300.747 396.159 297.264 401.149 293.778 406.143C293.143 407.053 292.594 408.574 290.745 407.78C289.189 407.112 290.254 405.94 290.709 405.021C293.334 399.743 297.724 395.32 301.885 390.792C302.269 390.289 302.794 389.913 303.394 389.712C303.993 389.512 304.639 389.496 305.248 389.666C305.562 389.717 305.85 389.871 306.067 390.103C306.285 390.336 306.419 390.634 306.448 390.951Z" fill="#FFA85A"/>
<path d="M371.936 401.301C372.212 402.23 372.007 402.796 371.094 402.968C370.698 403.099 370.268 403.077 369.887 402.906C369.507 402.735 369.205 402.427 369.041 402.044C367.42 396.996 362.59 393.566 358.99 389.513C358.102 388.513 357.061 387.411 358.848 386.393C360.691 385.342 361.519 386.543 362.439 387.552C364.659 389.997 366.898 392.432 369.203 394.826C370.086 395.654 370.784 396.658 371.255 397.773C371.726 398.889 371.958 400.09 371.936 401.301V401.301Z" fill="#FFA85A"/>
<path d="M386.646 314.908C386.555 316.109 385.406 317.16 384.456 318.124C380.375 322.259 375.714 326.042 373.013 330.964C372.45 331.992 371.082 333.534 369.439 332.691C367.965 331.934 368.914 330.567 369.803 329.388C373.765 324.133 379.398 319.871 383.63 314.779C383.878 314.494 384.189 314.27 384.539 314.126C384.888 313.982 385.266 313.921 385.643 313.948C385.903 313.943 386.155 314.041 386.343 314.221C386.531 314.4 386.64 314.647 386.646 314.908V314.908Z" fill="#FFA85A"/>
<path d="M293.839 364.361C293.74 365.344 292.819 365.69 291.929 366.012C286.968 367.825 282.028 369.68 277.007 371.381C275.63 371.836 274.299 372.418 273.031 373.121C272.547 373.447 271.957 373.575 271.382 373.479C270.807 373.382 270.29 373.07 269.938 372.605C269.199 371.694 269.488 370.772 270.774 370.522C277.911 369.125 283.765 365.598 290.357 363.302C292.123 362.691 293.284 362.83 293.839 364.361Z" fill="#FFA85A"/>
<path d="M311.211 308.89C312.713 309.134 314.101 309.841 315.183 310.913C317.778 313.609 319.363 316.715 320.843 319.832C321.379 320.958 321.996 322.039 322.61 323.131C322.994 323.814 323.569 324.621 322.286 325.128C321.85 325.321 321.363 325.368 320.898 325.264C320.432 325.16 320.012 324.91 319.699 324.55C318.917 323.758 318.226 322.882 317.637 321.938C315.626 318.335 314.143 314.529 310.84 311.438C310.212 310.85 309.825 310.063 310.361 309.281C310.52 309.05 311.027 308.969 311.211 308.89Z" fill="#FFA85A"/>
<path d="M354.544 308.534C354.453 313.127 352.711 317.52 351.902 322.025C351.726 323.001 350.786 323.563 349.542 323.421C348.192 323.265 348.444 322.344 348.424 321.577C348.321 319.236 348.687 316.899 349.498 314.701C350.647 312.062 351.217 309.207 351.169 306.329C351.119 305.398 351.057 303.98 352.957 304.061C354.743 304.136 354.574 305.467 354.655 306.471C354.667 307.16 354.63 307.85 354.544 308.534Z" fill="#FFA85A"/>
<path d="M337.021 401.54C337.265 404.268 337.492 406.997 337.762 409.723C337.858 410.689 338.727 412.026 336.69 412.151C334.845 412.263 334.163 411.002 334.001 409.714C333.647 406.905 333.277 404.092 333.074 401.275C333.005 399.641 332.794 398.015 332.445 396.417C332.158 395.261 332.464 394.071 334.334 393.894C336.121 393.727 336.473 394.789 336.599 395.891C336.812 397.768 336.999 399.649 337.199 401.527L337.021 401.54Z" fill="#FFA85A"/>
<path d="M394.22 377.684C394.136 378.704 393.254 379.171 392.019 378.913C390.46 378.596 388.931 378.144 387.45 377.562C384.057 376.197 380.737 374.722 377.384 373.296C376.166 372.778 374.861 372.127 375.908 370.944C376.377 370.441 376.997 370.104 377.675 369.985C378.352 369.865 379.05 369.969 379.663 370.282C384.228 372.234 388.181 375.03 393.181 376.384C393.478 376.446 393.745 376.61 393.934 376.847C394.124 377.084 394.225 377.381 394.22 377.684Z" fill="#FFA85A"/>
<path d="M381.562 356.914C380.334 357.022 379.845 356.848 379.527 356.463C379.101 355.949 379.35 355.448 379.77 355.032C380.654 354.159 381.771 353.56 382.986 353.306C388.376 352.186 393.799 351.161 399.195 350.061C400.179 349.859 400.929 349.883 401.391 350.666C401.896 351.518 401.196 352.041 400.389 352.317C394.123 354.427 387.127 354.657 381.562 356.914Z" fill="#FFA85A"/>
<path d="M334.001 409.713C333.646 406.904 333.278 404.091 333.074 401.273C333.005 399.639 332.794 398.014 332.445 396.417C332.159 395.26 332.463 394.07 334.334 393.892C336.119 393.725 336.473 394.788 336.599 395.891C336.812 397.768 336.998 399.644 337.199 401.526L337.021 401.539C337.266 404.267 337.493 406.995 337.762 409.722C337.859 410.688 338.727 412.026 336.691 412.15C336.616 412.154 336.541 412.156 336.466 412.156C334.789 412.157 334.158 410.948 334.001 409.713ZM290.744 407.776C289.188 407.107 290.253 405.935 290.708 405.016C293.333 399.738 297.724 395.316 301.889 390.789C302.273 390.285 302.798 389.909 303.398 389.708C303.997 389.508 304.643 389.492 305.252 389.662C305.565 389.714 305.853 389.869 306.07 390.102C306.286 390.335 306.419 390.633 306.448 390.95C306.239 391.305 305.987 391.632 305.698 391.926C300.747 396.158 297.264 401.147 293.778 406.142C293.267 406.873 292.812 408.002 291.691 408.002C291.364 407.992 291.042 407.915 290.745 407.777L290.744 407.776ZM369.041 402.043C367.418 396.995 362.59 393.565 358.989 389.513C358.1 388.513 357.059 387.411 358.848 386.391C360.691 385.34 361.518 386.541 362.438 387.551C364.657 389.995 366.896 392.43 369.202 394.824C370.085 395.652 370.784 396.656 371.255 397.771C371.726 398.886 371.958 400.088 371.937 401.299C372.213 402.228 372.007 402.794 371.094 402.966C370.928 402.998 370.76 403.014 370.592 403.015C370.263 403.045 369.933 402.966 369.653 402.791C369.373 402.615 369.158 402.353 369.041 402.043H369.041ZM392.019 378.913C390.46 378.596 388.931 378.144 387.45 377.562C384.057 376.198 380.736 374.723 377.383 373.296C376.167 372.778 374.862 372.128 375.906 370.944C376.376 370.441 376.996 370.105 377.674 369.985C378.351 369.866 379.049 369.971 379.662 370.283C384.227 372.234 388.18 375.031 393.181 376.386C393.478 376.447 393.745 376.611 393.934 376.849C394.124 377.086 394.224 377.383 394.219 377.687C394.207 377.877 394.156 378.062 394.07 378.232C393.983 378.402 393.863 378.552 393.717 378.674C393.57 378.795 393.401 378.885 393.218 378.939C393.035 378.993 392.844 379.008 392.655 378.985C392.441 378.983 392.228 378.958 392.02 378.913H392.019ZM269.941 372.607C269.202 371.697 269.494 370.775 270.777 370.524C277.914 369.128 283.768 365.6 290.36 363.304C292.123 362.69 293.285 362.829 293.84 364.36C293.741 365.341 292.819 365.689 291.931 366.011C286.969 367.825 282.029 369.681 277.008 371.381C275.631 371.835 274.3 372.418 273.032 373.121C272.629 373.36 272.17 373.491 271.701 373.501C271.359 373.496 271.022 373.413 270.717 373.258C270.412 373.103 270.146 372.88 269.941 372.607V372.607ZM379.526 356.464C379.1 355.95 379.349 355.448 379.769 355.033C380.653 354.16 381.769 353.56 382.984 353.306C388.375 352.186 393.797 351.162 399.194 350.063C400.177 349.86 400.928 349.885 401.39 350.663C401.895 351.517 401.196 352.039 400.388 352.315C394.122 354.429 387.126 354.661 381.561 356.918C381.319 356.938 381.105 356.949 380.917 356.949C380.664 356.985 380.405 356.96 380.163 356.875C379.921 356.791 379.703 356.649 379.527 356.463L379.526 356.464ZM297.382 345.261C290.284 341.335 282.365 338.603 274.653 335.571C273.882 335.267 273.128 334.919 272.396 334.529C272.207 334.446 272.036 334.324 271.897 334.171C271.757 334.017 271.652 333.836 271.587 333.639C271.522 333.442 271.499 333.234 271.52 333.027C271.541 332.821 271.605 332.621 271.708 332.442C271.997 331.708 272.736 331.724 273.516 331.739C273.681 331.743 273.851 331.746 274.017 331.739C277.266 332.212 279.864 333.88 282.601 335.25C286.289 337.033 290.121 338.505 294.055 339.648C295.198 339.941 296.267 340.473 297.191 341.207C298.116 341.942 298.875 342.863 299.42 343.911C299.721 344.488 299.911 345.112 299.126 345.545C298.951 345.647 298.753 345.702 298.55 345.704C298.13 345.655 297.728 345.503 297.382 345.26V345.261ZM369.438 332.692C367.964 331.935 368.913 330.569 369.803 329.392C373.765 324.137 379.397 319.875 383.63 314.784C383.878 314.498 384.189 314.275 384.539 314.131C384.888 313.986 385.266 313.926 385.643 313.954C385.902 313.948 386.153 314.044 386.341 314.223C386.529 314.402 386.639 314.648 386.647 314.907C386.556 316.108 385.408 317.159 384.457 318.123C380.376 322.258 375.714 326.042 373.013 330.965C372.563 331.785 371.6 332.935 370.393 332.935C370.06 332.932 369.732 332.848 369.438 332.692V332.692ZM319.699 324.549C318.918 323.757 318.227 322.881 317.637 321.938C315.626 318.334 314.144 314.528 310.84 311.437C310.212 310.849 309.825 310.061 310.361 309.28C310.52 309.049 311.028 308.968 311.211 308.889C312.715 309.132 314.105 309.839 315.187 310.911C317.783 313.608 319.367 316.714 320.848 319.832C321.383 320.958 322 322.037 322.614 323.129C322.999 323.812 323.574 324.619 322.291 325.126C321.996 325.246 321.68 325.309 321.361 325.311C321.046 325.31 320.734 325.242 320.448 325.111C320.161 324.98 319.905 324.789 319.698 324.551L319.699 324.549ZM349.543 323.423C348.193 323.268 348.445 322.345 348.426 321.579C348.322 319.238 348.687 316.9 349.5 314.703C350.648 312.064 351.217 309.209 351.17 306.331C351.119 305.399 351.057 303.981 352.956 304.063C354.743 304.138 354.573 305.468 354.655 306.472C354.667 307.162 354.63 307.851 354.544 308.536C354.453 313.128 352.712 317.521 351.902 322.027C351.803 322.466 351.547 322.853 351.181 323.114C350.816 323.376 350.367 323.494 349.92 323.445C349.794 323.444 349.668 323.436 349.542 323.42L349.543 323.423Z" fill="white"/>
<path opacity="0.21" d="M1984.91 216.978C1984.91 336.796 1887.78 433.928 1767.96 433.928C1648.14 433.928 1551.01 336.796 1551.01 216.978C1551.01 97.1593 1648.14 0.0273438 1767.96 0.0273438C1887.78 0.0273438 1984.91 97.1593 1984.91 216.978Z" fill="white"/>
<path d="M308.613 557.792C308.613 602.568 272.314 638.867 227.538 638.867C182.761 638.867 146.463 602.568 146.463 557.792C146.463 513.015 182.761 476.717 227.538 476.717C272.314 476.717 308.613 513.015 308.613 557.792Z" fill="#DF3E3F"/>
<path d="M1302.44 675.15C1308.34 687.336 1315.64 698.391 1325.77 707.473C1334.7 715.467 1345.13 721.462 1355.94 726.528C1369.09 732.7 1382.74 737.728 1396.01 743.634C1397.31 744.21 1398.96 743.343 1399.96 742.519C1400.49 742.078 1402.13 740.246 1400.83 739.669C1378.21 729.603 1353.43 722.201 1333.94 706.363C1323.71 698.051 1315.85 687.536 1309.9 675.827C1307.75 671.598 1305.77 667.277 1303.71 663.005C1302.04 664.673 1300.55 666.51 1299.27 668.488C1300.32 670.712 1301.37 672.938 1302.44 675.15Z" fill="#554140"/>
<path d="M1292.23 655.077C1294.64 659.044 1296.72 663.188 1298.73 667.368C1300.06 665.457 1301.58 663.69 1303.27 662.094C1302.14 659.796 1300.99 657.516 1299.75 655.276C1296.03 648.573 1291.45 642.381 1286.14 636.858C1282.11 632.678 1277.82 628.763 1273.29 625.136L1267.79 628.524C1271.17 631.225 1274.44 634.056 1277.55 637.068C1283.19 642.42 1288.13 648.472 1292.23 655.077V655.077Z" fill="#554140"/>
<path d="M1267.06 654.329C1271.39 659.581 1275.11 665.298 1278.18 671.375C1283.29 681.085 1286.82 691.608 1291.71 701.427C1291.89 696.756 1291.94 692.049 1292.36 687.428C1289.87 681.531 1287.48 675.582 1284.61 669.899C1281.62 663.796 1278.03 658.01 1273.88 652.629C1270.05 647.923 1265.42 643.936 1260.19 640.855C1258.08 639.558 1255.91 638.342 1253.69 637.208L1247.98 640.726C1249.51 641.496 1251.03 642.301 1252.52 643.141C1257.89 646.166 1263.03 649.619 1267.06 654.329Z" fill="#554140"/>
<path d="M1292.57 703.13C1294.03 705.971 1295.65 708.726 1297.43 711.379C1301.72 717.857 1307.42 723.277 1314.11 727.23C1321 731.217 1328.54 733.951 1336.08 736.417C1344.72 739.247 1353.22 742.34 1361.67 745.713C1370.2 749.119 1378.72 752.541 1387.47 755.364C1389.38 755.981 1394.16 751.998 1391.34 751.086C1375.69 746.037 1360.8 738.915 1345.17 733.819C1337.55 731.336 1329.91 728.9 1322.72 725.302C1315.63 721.861 1309.44 716.795 1304.67 710.516C1299.78 704.001 1296.33 696.69 1293.14 689.242C1292.8 693.715 1292.78 698.22 1292.59 702.693C1292.58 702.84 1292.58 702.984 1292.57 703.13Z" fill="#554140"/>
<path d="M1287.47 727.382C1288.27 728.273 1289.08 729.158 1289.9 730.027C1300.22 740.928 1312.59 749.278 1326.88 753.992C1343.32 759.411 1360.66 761.147 1377.3 765.767C1379.23 766.306 1383.99 762.276 1381.16 761.49C1366.35 757.379 1351.02 755.546 1336.22 751.385C1321.74 747.405 1308.52 739.768 1297.84 729.207C1295.07 726.46 1292.44 723.582 1289.91 720.613C1289.6 721.687 1289.26 722.756 1288.88 723.819C1288.45 725.029 1287.98 726.216 1287.47 727.382Z" fill="#554140"/>
<path d="M1246.3 674.144C1251.98 679.901 1256.83 686.417 1261.52 692.983C1269.62 704.342 1277.44 716.041 1286.71 726.509C1287.66 724.284 1288.47 722.005 1289.15 719.682C1282.01 711.175 1275.67 701.953 1269.31 692.91C1264.67 686.322 1259.96 679.744 1254.56 673.754C1250.04 668.584 1244.58 664.318 1238.48 661.184C1233.83 658.964 1229.06 657.027 1224.18 655.385L1218.36 658.97C1222.12 660.319 1225.88 661.655 1229.5 663.22C1235.71 665.902 1241.52 669.303 1246.3 674.144Z" fill="#554140"/>
<path d="M1244 712.938C1254.63 723.186 1264.64 734.204 1276.01 743.652C1277.35 742.08 1278.61 740.459 1279.8 738.788C1269.99 730.435 1261.16 720.978 1251.93 711.98C1240.83 701.151 1229.31 690.606 1216.35 682.025C1210.4 678.078 1204.13 674.642 1197.61 671.753L1191.85 675.3C1197.4 677.68 1202.76 680.474 1207.89 683.658C1221.11 691.842 1232.84 702.179 1244 712.938Z" fill="#554140"/>
<path d="M1278.33 745.553C1290.21 755.091 1303.47 762.785 1317.64 768.376C1333.98 774.719 1351.33 778.056 1368.86 778.228C1369.64 778.152 1370.39 777.899 1371.06 777.487C1371.73 777.075 1372.3 776.516 1372.71 775.852C1373.41 774.644 1372.81 773.939 1371.53 773.924C1340.59 773.546 1310.78 762.621 1286.21 743.978C1284.28 742.514 1282.4 740.995 1280.55 739.44C1279.36 741.1 1278.09 742.711 1276.74 744.27C1277.27 744.699 1277.8 745.13 1278.33 745.553Z" fill="#554140"/>
<path d="M1178.21 701.314C1186.9 704.552 1195.32 708.056 1203.1 713.165C1210.15 717.791 1216.59 723.261 1223.07 728.645C1235.16 738.697 1247.31 748.813 1259.89 758.266C1261.58 757.038 1263.24 755.763 1264.87 754.442C1253.67 746.04 1242.92 737.004 1232.09 728.159C1225.48 722.754 1219.05 717.095 1212.12 712.095C1204.92 706.946 1197.1 702.735 1188.83 699.564C1183.6 697.519 1178.32 695.581 1173 693.751C1170.64 692.932 1168.27 692.094 1165.9 691.282L1159.99 694.924C1161.34 695.379 1162.69 695.843 1164.04 696.298C1168.78 697.902 1173.51 699.574 1178.21 701.314Z" fill="#554140"/>
<path d="M1260.69 758.886C1261.52 759.506 1262.35 760.124 1263.18 760.738C1276.93 770.876 1291.67 779.87 1308.03 785.106C1316.9 787.946 1325.88 788.27 1335.13 788.093C1344.05 787.921 1353.07 787.56 1361.76 790.011C1363.69 790.558 1368.45 786.533 1365.62 785.733C1349.98 781.319 1333.54 785.905 1317.77 782.464C1309.56 780.671 1301.58 777.184 1294.14 773.351C1286.54 769.376 1279.24 764.87 1272.27 759.868C1270.05 758.291 1267.84 756.685 1265.66 755.049C1265.26 755.378 1264.85 755.704 1264.45 756.027C1263.22 757.009 1261.96 757.958 1260.69 758.886Z" fill="#554140"/>
<path d="M1361.49 789.801C1352.8 787.347 1343.78 787.705 1334.86 787.873C1325.61 788.046 1316.63 787.719 1307.76 784.872C1291.4 779.634 1276.66 770.635 1262.92 760.495C1262.08 759.881 1261.25 759.263 1260.42 758.641C1261.7 757.714 1262.96 756.766 1264.19 755.787C1264.59 755.461 1265 755.135 1265.4 754.81C1267.58 756.443 1269.79 758.05 1272.01 759.63C1278.97 764.634 1286.28 769.14 1293.87 773.116C1301.31 776.95 1309.29 780.443 1317.5 782.236C1333.27 785.682 1349.71 781.104 1365.35 785.524C1367.95 786.26 1364.15 789.713 1362.01 789.845C1361.83 789.86 1361.66 789.845 1361.49 789.801V789.801ZM1368.59 778.021C1351.07 777.843 1333.72 774.5 1317.38 768.153C1303.21 762.558 1289.96 754.862 1278.08 745.321C1277.55 744.902 1277.02 744.468 1276.5 744.038C1277.84 742.48 1279.11 740.871 1280.31 739.212C1282.16 740.766 1284.03 742.285 1285.96 743.749C1310.52 762.398 1340.33 773.329 1371.27 773.719C1372.56 773.735 1373.15 774.439 1372.45 775.647C1372.05 776.282 1371.51 776.822 1370.88 777.231C1370.24 777.64 1369.53 777.907 1368.78 778.015C1368.72 778.02 1368.66 778.022 1368.59 778.021ZM1377.04 765.57C1360.41 760.945 1343.07 759.202 1326.64 753.779C1312.34 749.06 1299.97 740.709 1289.66 729.807C1288.84 728.935 1288.03 728.05 1287.23 727.159C1287.74 725.993 1288.21 724.807 1288.64 723.601C1289.03 722.539 1289.37 721.47 1289.68 720.396C1292.21 723.365 1294.83 726.247 1297.6 728.99C1308.28 739.553 1321.49 747.192 1335.97 751.175C1350.77 755.34 1366.1 757.179 1380.91 761.295C1383.52 762.019 1379.7 765.483 1377.56 765.615C1377.39 765.628 1377.21 765.613 1377.04 765.57ZM1387.23 755.168C1378.48 752.344 1369.96 748.92 1361.43 745.511C1352.98 742.136 1344.49 739.041 1335.84 736.209C1328.3 733.738 1320.77 731.003 1313.88 727.013C1307.2 723.06 1301.5 717.64 1297.21 711.162C1296.63 710.308 1296.08 709.445 1295.54 708.572C1294.4 706.724 1293.35 704.835 1292.35 702.914C1292.36 702.768 1292.37 702.625 1292.37 702.48C1292.56 698.009 1292.59 693.504 1292.92 689.034C1296.11 696.481 1299.55 703.79 1304.44 710.305C1309.21 716.584 1315.39 721.65 1322.48 725.092C1329.67 728.692 1337.31 731.13 1344.93 733.615C1360.56 738.714 1375.44 745.84 1391.09 750.894C1393.66 751.725 1389.93 755.102 1387.8 755.232C1387.6 755.248 1387.41 755.227 1387.23 755.172L1387.23 755.168ZM1222.82 728.417C1216.35 723.032 1209.91 717.562 1202.86 712.935C1195.08 707.826 1186.67 704.318 1177.97 701.075C1173.28 699.326 1168.56 697.653 1163.81 696.055C1162.46 695.6 1161.11 695.137 1159.76 694.681L1165.67 691.043C1168.05 691.855 1170.41 692.696 1172.77 693.514C1178.08 695.357 1183.36 697.297 1188.61 699.332C1196.86 702.504 1204.68 706.716 1211.88 711.866C1218.81 716.867 1225.23 722.528 1231.85 727.931C1242.68 736.778 1253.42 745.815 1264.61 754.217C1262.99 755.539 1261.33 756.813 1259.63 758.04C1247.05 748.592 1234.9 738.474 1222.82 728.421L1222.82 728.417ZM1395.78 743.443C1382.51 737.535 1368.86 732.503 1355.71 726.328C1344.91 721.258 1334.48 715.259 1325.56 707.27C1318.95 701.264 1313.24 694.329 1308.62 686.681C1306.3 682.881 1304.17 678.966 1302.24 674.951C1301.17 672.738 1300.13 670.514 1299.07 668.295C1300.36 666.318 1301.85 664.482 1303.51 662.816C1305.58 667.085 1307.55 671.406 1309.7 675.635C1315.65 687.342 1323.5 697.854 1333.73 706.168C1353.21 722.005 1377.98 729.414 1400.59 739.485C1401.89 740.063 1400.25 741.893 1399.72 742.335C1398.92 743.039 1397.93 743.489 1396.87 743.629C1396.49 743.658 1396.12 743.596 1395.77 743.447L1395.78 743.443ZM1243.77 712.72C1232.61 701.961 1220.89 691.624 1207.67 683.437C1202.54 680.253 1197.18 677.458 1191.64 675.076L1197.4 671.533C1203.92 674.423 1210.18 677.859 1216.13 681.806C1229.09 690.389 1240.6 700.935 1251.7 711.764C1260.92 720.764 1269.75 730.217 1279.56 738.572C1278.37 740.241 1277.1 741.862 1275.76 743.433C1264.39 733.99 1254.39 722.973 1243.76 712.723L1243.77 712.72ZM1261.3 692.778C1256.62 686.211 1251.76 679.695 1246.09 673.937C1241.32 669.094 1235.5 665.695 1229.29 663.01C1225.68 661.448 1221.92 660.109 1218.16 658.759L1223.98 655.177C1228.86 656.822 1233.63 658.761 1238.27 660.983C1244.38 664.118 1249.83 668.385 1254.35 673.555C1259.75 679.546 1264.45 686.121 1269.08 692.709C1275.44 701.751 1281.78 710.969 1288.92 719.477C1288.24 721.798 1287.42 724.076 1286.47 726.299C1277.21 715.836 1269.4 704.139 1261.3 692.782L1261.3 692.778ZM1277.98 671.176C1274.92 665.101 1271.19 659.385 1266.86 654.135C1262.84 649.424 1257.7 645.973 1252.33 642.946C1250.84 642.105 1249.33 641.3 1247.79 640.53L1253.51 637.016C1255.72 638.151 1257.89 639.367 1260.01 640.664C1265.23 643.745 1269.86 647.732 1273.69 652.438C1277.83 657.818 1281.42 663.603 1284.4 669.705C1287.28 675.384 1289.66 681.332 1292.15 687.226C1291.72 691.846 1291.67 696.552 1291.49 701.22C1286.61 691.407 1283.08 680.888 1277.97 671.18L1277.98 671.176ZM1292.04 654.888C1287.94 648.284 1283.01 642.233 1277.37 636.882C1274.26 633.869 1270.99 631.038 1267.62 628.336L1273.12 624.952C1277.65 628.578 1281.93 632.492 1285.96 636.671C1291.27 642.194 1295.84 648.385 1299.56 655.089C1300.79 657.327 1301.95 659.605 1303.07 661.905C1301.38 663.498 1299.86 665.264 1298.53 667.174C1296.53 663.001 1294.45 658.858 1292.04 654.892L1292.04 654.888Z" fill="white"/>
<path opacity="0.21" d="M1742.44 732.703C1742.44 852.522 1645.3 949.653 1525.49 949.653C1405.67 949.653 1308.54 852.522 1308.54 732.703C1308.54 612.885 1405.67 515.753 1525.49 515.753C1645.3 515.753 1742.44 612.885 1742.44 732.703Z" fill="white"/>
</svg>
