<svg width="196" height="197" viewBox="0 0 196 197" fill="none" xmlns="http://www.w3.org/2000/svg">
<path d="M112.617 58.4783C116.649 68.2928 121.837 77.2904 129.336 84.8804C135.936 91.5622 143.818 96.7523 152.027 101.236C162.026 106.696 172.472 111.285 182.576 116.542C183.561 117.054 184.897 116.457 185.714 115.86C186.152 115.54 187.521 114.187 186.533 113.672C169.311 104.712 150.274 97.7318 135.781 84.4122C128.299 77.3763 122.384 68.8446 118.42 59.3734C116.935 55.9634 115.604 52.4853 114.188 49.0453C112.803 50.2693 111.55 51.635 110.45 53.1201C111.171 54.9067 111.886 56.6969 112.617 58.4783Z" fill="#554140"/>
<path d="M105.589 42.2967C107.286 45.5149 108.715 48.8562 110.086 52.2223C111.215 50.7902 112.49 49.4802 113.892 48.3133C113.127 46.4604 112.326 44.6233 111.465 42.8119C108.872 37.3919 105.585 32.3312 101.688 27.7571C98.7382 24.2939 95.5683 21.0243 92.198 17.9687L87.7315 20.3538C90.2453 22.629 92.6701 25.0006 94.9606 27.505C99.1197 31.9629 102.691 36.9338 105.589 42.2967Z" fill="#554140"/>
<path d="M85.9182 40.5047C89.0538 44.8198 91.6994 49.47 93.8061 54.3693C97.3394 62.2092 99.6038 70.6089 102.959 78.5225C103.323 74.8782 103.588 71.1998 104.142 67.6058C102.473 62.8744 100.887 58.1068 98.9092 53.5255C96.864 48.6094 94.3279 43.9116 91.3396 39.5035C88.5704 35.6387 85.1345 32.2976 81.1933 29.6369C79.5968 28.5185 77.9578 27.4632 76.2761 26.4711L71.6386 28.9477C72.8027 29.6226 73.9489 30.3249 75.0773 31.0545C79.2176 33.5441 82.8874 36.7431 85.9182 40.5047Z" fill="#554140"/>
<path d="M103.552 79.8889C104.558 82.1809 105.697 84.4125 106.963 86.5727C110.01 91.8456 114.214 96.3592 119.259 99.7727C124.541 103.095 130.155 105.857 136.009 108.016C142.641 110.645 149.139 113.479 155.593 116.517C162.108 119.592 168.616 122.678 175.328 125.306C176.796 125.883 180.723 122.992 178.555 122.146C166.549 117.443 155.24 111.158 143.248 106.421C137.344 104.271 131.609 101.683 126.091 98.6795C120.703 95.6471 116.105 91.3876 112.671 86.2473C109.15 80.916 106.801 75.0327 104.66 69.0543C104.184 72.5356 103.953 76.0592 103.592 79.5487L103.552 79.8889Z" fill="#554140"/>
<path d="M98.3957 98.6108C98.98 99.3466 99.5704 100.077 100.174 100.798C107.583 109.851 117.141 116.906 127.975 121.321C140.576 126.349 154.066 128.541 166.863 132.957C168.355 133.473 172.271 130.549 170.09 129.797C158.698 125.869 146.783 123.699 135.402 119.733C124.257 115.923 114.276 109.314 106.419 100.54C104.386 98.2586 102.466 95.8802 100.63 93.4369C100.335 94.2623 100.014 95.0816 99.6674 95.8949C99.2726 96.8172 98.8487 97.7225 98.3957 98.6108Z" fill="#554140"/>
<path d="M68.7184 55.0026C72.7917 59.8602 76.4736 65.0326 79.7295 70.4712C85.529 79.7444 91.0848 89.2703 97.8386 97.9024C98.6878 96.2082 99.4346 94.4647 100.075 92.681C94.8959 85.6837 90.3705 78.1683 85.8238 70.789C82.6003 65.3502 79.0517 60.1104 75.1973 55.0981C71.9101 50.8371 67.8434 47.2385 63.2136 44.4936C59.6864 42.5344 56.0439 40.7905 52.306 39.2715L47.5794 41.7956C50.4608 43.0308 53.3385 44.2589 56.0924 45.654C60.8658 47.9249 65.1538 51.0998 68.7184 55.0026Z" fill="#554140"/>
<path d="M65.0609 85.2403C72.8912 93.767 80.1949 102.865 88.646 110.8C89.7656 109.634 90.8316 108.427 91.8439 107.178C84.5619 100.171 78.1042 92.3531 71.3125 84.8708C63.1419 75.8669 54.6246 67.0652 44.8932 59.7306C40.4301 56.3585 35.6896 53.3701 30.7226 50.7974L26.048 53.2937C30.2762 55.4221 34.3388 57.865 38.2012 60.6017C48.154 67.64 56.8384 76.2879 65.0609 85.2403Z" fill="#554140"/>
<path d="M90.3686 112.385C99.2155 120.416 109.221 127.072 120.048 132.127C132.535 137.874 145.956 141.319 159.664 142.296C160.279 142.275 160.882 142.113 161.425 141.823C161.968 141.533 162.437 141.123 162.797 140.623C163.398 139.711 162.966 139.132 161.959 139.058C137.765 137.274 114.952 127.295 96.6158 111.532C95.1767 110.295 93.778 109.016 92.4064 107.712C91.3885 108.953 90.3186 110.151 89.1966 111.305C89.5852 111.667 89.9739 112.029 90.3686 112.385Z" fill="#554140"/>
<path d="M14.1202 72.9873C20.7713 75.937 27.1872 79.0849 33.0359 83.4532C38.2411 87.5252 43.2116 91.8883 47.9236 96.5216C56.9044 104.965 65.9332 113.461 75.3303 121.458C76.716 120.579 78.0779 119.662 79.4162 118.709C71.0546 111.599 63.0732 104.015 55.0222 96.5798C50.1021 92.0354 45.3437 87.2992 40.1537 83.0555C34.7638 78.6801 28.8382 75.0092 22.5204 72.1316C18.5179 70.2794 14.4784 68.51 10.4021 66.8235C8.59906 66.0694 6.78933 65.2984 4.96816 64.5506L0.166557 67.1147C1.20264 67.5356 2.23619 67.9623 3.26914 68.3837C6.90813 69.8661 10.5251 71.4006 14.1202 72.9873Z" fill="#554140"/>
<path d="M75.9223 121.966C76.5419 122.491 77.1622 123.014 77.7832 123.536C88.0611 132.127 99.1693 139.871 111.722 144.753C118.532 147.401 125.542 148.086 132.79 148.393C139.784 148.688 146.863 148.837 153.54 151.174C155.03 151.695 158.948 148.776 156.768 148.014C144.737 143.808 131.648 146.605 119.475 143.156C113.123 141.188 107.051 138.411 101.409 134.891C95.655 131.417 90.1527 127.542 84.9433 123.294C83.2765 121.954 81.6273 120.591 79.9957 119.207C79.6687 119.443 79.3375 119.679 79.0021 119.914C77.9919 120.62 76.9592 121.303 75.9223 121.966Z" fill="#554140"/>
<path d="M153.34 150.994C146.661 148.658 139.584 148.504 132.59 148.208C125.342 147.899 118.331 147.214 111.523 144.563C98.972 139.679 87.867 131.936 77.594 123.345C76.97 122.824 76.3487 122.301 75.73 121.776C76.7713 121.11 77.7993 120.425 78.814 119.723C79.146 119.491 79.478 119.254 79.808 119.016C81.4407 120.398 83.0893 121.761 84.754 123.103C89.9618 127.352 95.4624 131.228 101.215 134.703C106.855 138.224 112.926 141.002 119.277 142.97C131.45 146.421 144.541 143.63 156.57 147.837C158.57 148.537 155.426 151.058 153.746 151.058C153.608 151.06 153.471 151.038 153.34 150.994ZM159.468 142.121C145.759 141.141 132.339 137.693 119.855 131.945C109.031 126.89 99.0282 120.234 90.184 112.202C89.79 111.846 89.401 111.483 89.011 111.122C90.1317 109.968 91.2027 108.77 92.224 107.53C93.595 108.83 94.992 110.113 96.432 111.352C114.76 127.114 137.572 137.095 161.766 138.886C162.774 138.96 163.205 139.54 162.602 140.451C162.254 140.929 161.807 141.326 161.292 141.615C160.776 141.904 160.205 142.079 159.616 142.128C159.566 142.126 159.517 142.124 159.468 142.124V142.121ZM166.676 132.787C153.876 128.372 140.388 126.176 127.788 121.146C116.956 116.732 107.402 109.676 99.996 100.622C99.396 99.9003 98.8037 99.171 98.219 98.4343C98.6717 97.547 99.097 96.6419 99.495 95.7192C99.844 94.9062 100.164 94.0872 100.46 93.2612C102.295 95.7052 104.213 98.0823 106.245 100.361C114.1 109.135 124.077 115.744 135.22 119.554C146.6 123.522 158.515 125.696 169.905 129.625C171.911 130.316 168.758 132.843 167.077 132.844C166.942 132.847 166.808 132.828 166.68 132.787H166.676ZM175.143 125.143C168.433 122.513 161.925 119.426 155.411 116.351C148.96 113.306 142.46 110.478 135.83 107.851C129.977 105.692 124.365 102.928 119.084 99.6062C114.041 96.1931 109.839 91.6797 106.794 86.4062C106.383 85.7116 105.989 85.0115 105.61 84.3062C104.81 82.8062 104.073 81.2773 103.384 79.7283C103.397 79.6143 103.41 79.5002 103.422 79.3882C103.784 75.8992 104.022 72.3782 104.496 68.8982C106.634 74.8752 108.98 80.7562 112.496 86.0872C115.928 91.228 120.524 95.4873 125.911 98.5193C131.429 101.525 137.165 104.113 143.069 106.263C155.061 111.002 166.369 117.289 178.369 121.993C180.345 122.766 177.26 125.226 175.585 125.226C175.434 125.226 175.285 125.199 175.144 125.144L175.143 125.143ZM47.743 96.3303C43.0327 91.6975 38.0641 87.3347 32.861 83.2632C27.015 78.8952 20.598 75.7452 13.948 72.7942C10.358 71.2009 6.742 69.6677 3.1 68.1943C2.068 67.7733 1.035 67.3453 0 66.9243L4.8 64.3623C6.62 65.1113 8.43 65.8823 10.234 66.6353C14.3053 68.3319 18.3443 70.1017 22.351 71.9443C28.6632 74.8224 34.5835 78.4921 39.969 82.8652C45.157 87.1092 49.913 91.8452 54.831 96.3892C62.882 103.827 70.859 111.411 79.217 118.521C77.8837 119.476 76.5227 120.393 75.134 121.271C65.745 113.271 56.721 104.774 47.744 96.3313L47.743 96.3303ZM182.396 116.381C172.296 111.123 161.85 106.532 151.853 101.071C143.646 96.5873 135.766 91.3943 129.169 84.7153C124.282 79.7009 120.149 74.003 116.9 67.8003C115.262 64.7162 113.782 61.5513 112.464 58.3174C111.733 56.5364 111.022 54.7452 110.3 52.9592C111.402 51.4749 112.655 50.1098 114.041 48.8862C115.454 52.3262 116.787 55.7992 118.267 59.2102C122.227 68.6812 128.138 77.2117 135.615 84.2454C150.102 97.5664 169.136 104.545 186.356 113.512C187.343 114.026 185.974 115.378 185.536 115.698C184.875 116.211 184.077 116.515 183.243 116.574C182.95 116.58 182.659 116.514 182.397 116.382L182.396 116.381ZM64.887 85.0574C56.671 76.1054 47.987 67.4574 38.038 60.4214C34.1764 57.6842 30.1147 55.2409 25.887 53.1123L30.564 50.6172C35.5302 53.1899 40.2697 56.1784 44.732 59.5503C54.466 66.8863 62.973 75.6862 71.14 84.6892C77.927 92.1712 84.383 99.9893 91.661 106.989C90.6497 108.239 89.583 109.445 88.461 110.609C80.014 102.681 72.716 93.5844 64.888 85.0583L64.887 85.0574ZM79.568 70.3013C76.3155 64.8629 72.6374 59.6907 68.568 54.8333C65.0043 50.9292 60.7175 47.7529 55.945 45.4802C53.191 44.0802 50.314 42.8573 47.433 41.6223L52.162 39.1003C55.8997 40.6202 59.5417 42.3652 63.068 44.3262C67.6958 47.0696 71.7608 50.6667 75.047 54.9263C78.8991 59.9376 82.4452 65.1767 85.666 70.6152C90.209 77.9922 94.732 85.5062 99.907 92.5032C99.2657 94.2859 98.5176 96.0284 97.667 97.7212C90.914 89.0972 85.363 79.5742 79.569 70.3022L79.568 70.3013ZM93.652 54.2012C91.5483 49.3022 88.9053 44.653 85.772 40.3394C82.7424 36.5775 79.0736 33.379 74.934 30.8904C73.8073 30.1604 72.6617 29.4576 71.497 28.7822L76.137 26.3074C77.8163 27.302 79.4547 28.3574 81.052 29.4734C84.9914 32.1341 88.4257 35.4748 91.194 39.3394C94.1798 43.7461 96.7133 48.4427 98.756 53.3582C100.732 57.9382 102.316 62.7043 103.982 67.4353C103.426 71.0283 103.159 74.7064 102.792 78.3484C99.442 70.4414 97.18 62.0443 93.653 54.2063L93.652 54.2012ZM105.444 42.1362C102.547 36.7741 98.9766 31.8046 94.819 27.3484C92.53 24.8424 90.108 22.4713 87.595 20.1963L92.063 17.8142C95.4324 20.8675 98.6013 24.1349 101.55 27.5962C105.445 32.1713 108.728 37.2339 111.317 42.6562C112.177 44.4673 112.973 46.3053 113.741 48.1562C112.342 49.3207 111.069 50.6277 109.941 52.0562C108.567 48.6992 107.14 45.3584 105.445 42.1414L105.444 42.1362Z" fill="#3B3430"/>
</svg>
