<svg width="1531" height="446" viewBox="0 0 1531 446" fill="none" xmlns="http://www.w3.org/2000/svg">
<path fill-rule="evenodd" clip-rule="evenodd" d="M18.8344 2.41207C13.7603 7.23014 8.91396 14.6328 7.04493 22.325C5.77973 27.5368 5.87618 32.8823 8.12432 37.669C8.31863 38.0812 8.80968 38.2569 9.22182 38.0626C9.63691 37.8697 9.81258 37.3786 9.61827 36.9665C7.52861 32.5228 7.47278 27.5578 8.65014 22.7185C10.4457 15.3323 15.0991 8.23186 19.9722 3.61276C20.3009 3.29643 20.3155 2.77382 20.0036 2.44356C19.6872 2.1148 19.1647 2.10016 18.8344 2.41207Z" fill="black"/>
<path fill-rule="evenodd" clip-rule="evenodd" d="M1511.32 406.553C1506.24 411.371 1501.4 418.773 1499.53 426.466C1498.26 431.677 1498.36 437.023 1500.61 441.81C1500.8 442.222 1501.29 442.398 1501.71 442.203C1502.12 442.01 1502.3 441.519 1502.1 441.107C1500.01 436.663 1499.96 431.698 1501.13 426.859C1502.93 419.473 1507.58 412.372 1512.46 407.753C1512.79 407.437 1512.8 406.914 1512.49 406.584C1512.17 406.255 1511.65 406.241 1511.32 406.553Z" fill="black"/>
<path fill-rule="evenodd" clip-rule="evenodd" d="M31.4672 5.33858C26.3931 10.1567 21.5468 17.5593 19.6777 25.2515C18.4125 30.4633 18.509 35.8088 20.7571 40.5955C20.9514 41.0077 21.4425 41.1834 21.8546 40.9891C22.2697 40.7962 22.4454 40.3051 22.2511 39.893C20.1614 35.4493 20.1056 30.4844 21.2829 25.645C23.0785 18.2588 27.7319 11.1584 32.605 6.53927C32.9337 6.22295 32.9483 5.70033 32.6364 5.37007C32.3201 5.04131 31.7975 5.02668 31.4672 5.33858Z" fill="black"/>
<path fill-rule="evenodd" clip-rule="evenodd" d="M1523.95 409.479C1518.88 414.297 1514.03 421.7 1512.16 429.392C1510.9 434.604 1510.99 439.949 1513.24 444.736C1513.44 445.148 1513.93 445.324 1514.34 445.129C1514.75 444.936 1514.93 444.445 1514.74 444.033C1512.65 439.59 1512.59 434.625 1513.77 429.785C1515.56 422.399 1520.22 415.299 1525.09 410.68C1525.42 410.363 1525.43 409.841 1525.12 409.51C1524.8 409.182 1524.28 409.167 1523.95 409.479Z" fill="black"/>
</svg>
