<svg width="1482" height="432" viewBox="0 0 1482 432" fill="none" xmlns="http://www.w3.org/2000/svg">
<path fill-rule="evenodd" clip-rule="evenodd" d="M18.1058 2.28426C13.1932 6.94887 8.50129 14.1158 6.69179 21.5629C5.46689 26.6088 5.56027 31.784 7.7368 36.4183C7.92492 36.8173 8.40033 36.9874 8.79934 36.7993C9.20122 36.6126 9.37129 36.1371 9.18316 35.7381C7.16007 31.4359 7.10601 26.6291 8.24587 21.9439C9.98423 14.793 14.4894 7.91868 19.2073 3.4467C19.5256 3.14045 19.5397 2.63448 19.2377 2.31474C18.9314 1.99645 18.4255 1.98228 18.1058 2.28426Z" fill="black"/>
<path fill-rule="evenodd" clip-rule="evenodd" d="M1463.05 393.553C1458.14 398.218 1453.45 405.384 1451.64 412.832C1450.42 417.877 1450.51 423.053 1452.69 427.687C1452.87 428.086 1453.35 428.256 1453.75 428.068C1454.15 427.881 1454.32 427.406 1454.13 427.007C1452.11 422.705 1452.05 417.898 1453.19 413.213C1454.93 406.062 1459.44 399.187 1464.16 394.715C1464.47 394.409 1464.49 393.903 1464.19 393.583C1463.88 393.265 1463.37 393.251 1463.05 393.553Z" fill="black"/>
<path fill-rule="evenodd" clip-rule="evenodd" d="M30.3355 5.11751C25.423 9.78212 20.731 16.949 18.9215 24.3962C17.6966 29.442 17.79 34.6173 19.9665 39.2515C20.1547 39.6505 20.6301 39.8207 21.0291 39.6325C21.431 39.4458 21.601 38.9704 21.4129 38.5714C19.3898 34.2692 19.3357 29.4624 20.4756 24.7771C22.214 17.6262 26.7191 10.7519 31.437 6.27995C31.7553 5.9737 31.7694 5.46773 31.4674 5.14799C31.1612 4.8297 30.6552 4.81554 30.3355 5.11751Z" fill="black"/>
<path fill-rule="evenodd" clip-rule="evenodd" d="M1475.28 396.386C1470.37 401.051 1465.68 408.218 1463.87 415.665C1462.65 420.711 1462.74 425.886 1464.92 430.52C1465.1 430.919 1465.58 431.089 1465.98 430.901C1466.38 430.715 1466.55 430.239 1466.36 429.84C1464.34 425.538 1464.28 420.731 1465.42 416.046C1467.16 408.895 1471.67 402.021 1476.39 397.549C1476.7 397.242 1476.72 396.736 1476.42 396.417C1476.11 396.098 1475.6 396.084 1475.28 396.386Z" fill="black"/>
</svg>
