<svg width="208" height="243" viewBox="0 0 208 243" fill="none" xmlns="http://www.w3.org/2000/svg">
<path d="M178.422 181.98C178.301 181.878 178.185 181.877 178.16 181.972C178.135 182.067 178 182.227 177.945 182.013C177.89 181.799 177.993 181.166 177.892 181.239C177.791 181.312 177.459 181.488 177.527 181.365C177.568 181.27 177.579 181.164 177.558 181.062C177.537 180.961 177.485 180.87 177.409 180.801C177.066 180.519 176.765 180.187 176.516 179.815L176.257 179.617C176.145 179.503 176.049 179.375 175.97 179.235C175.857 179.079 175.642 178.902 175.648 178.774C175.659 178.474 175.377 178.662 175.285 178.466L175.208 178.299C174.915 178.126 174.662 177.891 174.468 177.608L174.283 177.441C174.031 177.209 173.626 177.084 173.468 176.829L173.25 176.475C172.766 176.237 172.306 175.951 171.878 175.62L171.529 175.248C171.221 174.844 170.804 174.541 170.329 174.375C170.102 174.287 169.915 174.12 169.798 173.903C169.769 173.826 169.721 173.757 169.661 173.702C169.6 173.646 169.527 173.607 169.448 173.586C169.215 173.492 168.775 173.502 168.785 173.035C168.748 172.984 168.693 172.949 168.632 172.937C168.37 173.031 168.434 172.7 168.284 172.656C168.102 172.629 167.924 172.576 167.757 172.497L167.625 172.409C167.392 172.11 167.113 171.852 166.799 171.646C166.313 171.336 165.802 171.069 165.272 170.849L165.225 170.669C165.188 170.56 165.121 170.464 165.031 170.395C164.941 170.326 164.833 170.285 164.72 170.279C164.452 170.192 164.196 170.07 163.958 169.916C163.69 169.814 163.443 169.665 163.227 169.475C163.03 169.237 162.694 169.303 162.567 169.012C162.555 168.983 162.562 168.926 162.549 168.921C162.256 168.796 161.889 168.893 161.682 168.502L160.871 167.928L160.546 167.831C160.034 167.643 159.54 167.406 159.071 167.124L158.668 166.852C158.499 166.742 158.365 166.54 158.206 166.775C158.19 166.799 157.985 166.733 157.971 166.692L157.782 166.132C157.38 166.129 156.98 166.081 156.589 165.99C156.258 165.884 155.918 165.809 155.573 165.767C155.388 165.77 154.83 165.155 154.499 164.954C153.811 164.783 153.111 164.667 152.405 164.607L152.031 164.243L151.826 164.045C151.42 163.944 151.093 164.274 151.101 164.78L150.992 165.156C150.889 165.58 150.753 165.996 150.585 166.399C150.272 167.299 149.769 168.119 149.111 168.8L148.653 169.18C148.193 169.64 147.613 170.182 147.365 170.384L147.213 170.673C147.015 170.937 146.753 171.145 146.454 171.276L146.179 171.441C145.843 171.573 145.451 171.722 145.307 171.77C145.056 171.864 144.813 171.981 144.582 172.119C144.464 172.204 143.957 172.095 143.875 172.121L143.805 172.155L143.317 172.398C142.559 172.486 141.797 172.524 141.036 172.512L140.671 172.68C140.401 172.808 140.119 172.534 139.866 172.734C139.731 172.841 139.344 172.655 139.073 172.611C138.948 172.591 138.821 172.589 138.695 172.605C138.557 172.627 138.434 172.721 138.299 172.71C138.21 172.703 138.306 172.397 138.05 172.449C137.898 172.479 137.705 172.132 137.578 172.409L136.415 172.276L135.936 172.191C135.423 172.015 134.597 171.758 134.096 171.62L133.65 171.554C133.4 171.511 133.162 171.414 132.951 171.27C132.589 171.094 132.214 170.944 131.831 170.822C131.514 170.689 131.15 170.613 130.996 170.213C130.976 170.16 130.896 170.12 130.845 170.074L130.52 169.787C130.042 169.498 129.61 169.135 129.242 168.71L128.944 168.404L128.641 168.099C128.369 167.777 128.081 167.469 127.778 167.177C127.561 166.782 127.367 166.374 127.198 165.955C126.872 165.148 126.632 164.307 126.483 163.446L126.691 163.119L126.862 162.852C126.826 162.482 126.841 162.109 126.907 161.743L126.971 161.473C127.041 161.178 127.13 160.889 127.212 160.6C127.236 160.52 127.318 160.444 127.299 160.374C127.223 160.204 127.156 160.031 127.098 159.854C127.075 159.694 127.416 159.755 127.324 159.468C127.279 159.33 127.412 159.157 127.481 159.016C127.629 158.651 127.819 158.305 128.048 157.986L128.333 157.659C128.721 157.362 129.561 156.809 130.202 156.43L130.782 156.086L131.208 155.834C131.804 155.799 132.398 155.728 132.985 155.62L133.376 155.733L133.714 155.83C134.144 155.735 134.585 155.704 135.023 155.74C135.553 155.783 136.086 155.798 136.618 155.785C136.854 155.77 137.485 155.851 137.504 155.698C137.523 155.545 138.139 155.93 138.457 156.009C138.775 156.088 140.555 155.91 141.862 156.077L143.05 156.309C144.52 156.596 145.989 156.964 147.457 157.308L147.721 157.37C148.007 157.489 148.045 157.136 147.803 156.581C147.218 155.499 146.569 154.454 145.861 153.452L145.403 152.87L145.138 152.532C144.799 152.288 144.492 152.001 144.225 151.678C144.103 151.491 143.476 151.055 143.353 150.906L143.277 150.752C143.181 150.556 142.886 150.785 142.856 150.486C142.841 150.437 142.808 150.397 142.764 150.374C142.65 150.327 141.759 149.75 141.657 149.671C141.579 149.609 141.457 149.6 141.39 149.532C141.038 149.179 140.352 149.236 140.254 148.561L140.249 148.522C140.12 148.472 139.658 148.238 139.226 147.998C138.794 147.758 137.582 147.239 137.468 147.52L137.362 146.989L137.298 146.67C137.042 146.57 136.555 146.351 136.214 146.189C135.872 146.027 134.662 145.505 134.322 145.286L134.016 145.236C133.683 145.181 133.649 144.805 133.624 144.821L133 145.199C132.408 144.73 131.885 144.312 131.838 144.271C131.742 144.163 131.655 144.049 131.575 143.929C131.511 143.837 130.942 143.941 130.736 143.739C130.192 143.417 129.612 143.162 129.009 142.98L128.611 142.801C128.3 142.722 128.009 142.575 127.76 142.371C127.659 142.261 127.405 142.305 127.233 142.233L127.137 142.193C127.052 142.07 126.791 142.063 126.56 142.17L126.476 141.739C126.468 141.699 126.085 141.698 125.898 141.609L125.748 141.536C125.548 141.358 125.324 141.211 125.081 141.1L124.879 141.171C124.829 141.188 124.776 141.194 124.723 141.188C124.671 141.182 124.62 141.165 124.575 141.137C124.314 140.878 123.891 140.524 123.645 140.574L123.132 140.676C122.745 140.492 122.348 140.328 121.944 140.186L121.848 140.113C121.645 139.954 121.466 139.704 121.226 139.953C121.21 139.969 121.055 139.879 120.987 139.816C120.717 139.558 120.474 139.435 120.168 139.647C120 139.761 120.026 139.454 119.997 139.452L119.675 139.432C119.323 139.329 118.61 139.102 118.085 138.931L117.662 138.687L117.282 138.469C116.858 138.361 116.171 138.161 115.755 138.024L115.369 137.96C115.202 137.933 115.151 137.453 114.891 137.787C114.845 137.846 114.505 137.663 114.301 137.592L114.063 137.51C113.722 137.338 113.367 137.197 113.002 137.089C112.654 136.991 111.362 136.547 110.849 136.43C110.132 136.136 109.433 135.8 108.755 135.425C108.403 135.337 108.057 135.229 107.717 135.102C107.538 135.002 106.848 134.838 106.681 134.747C106.46 134.551 106.263 134.329 106.093 134.085C106.029 134.008 105.912 133.959 106.078 134.251L105.815 134.427C105.649 134.537 105.55 134.507 105.44 134.345C105.37 134.242 105.314 134.017 105.292 134.018L104.44 134.063C104.106 133.666 103.748 133.29 103.367 132.938C103.417 133.023 103.357 133.166 103.14 133.086C102.695 132.905 102.263 132.693 101.847 132.45L101.606 132.428L101.335 132.404C100.91 132.128 100.443 131.925 99.9525 131.805L99.5351 131.436L99.2422 131.177C99.0974 131.178 98.9545 131.145 98.8247 131.081C98.695 131.016 98.5817 130.922 98.4937 130.805C98.4097 130.619 97.9928 130.381 97.8804 130.625L97.4947 130.362C97.3271 130.247 97.1351 130.216 97.0803 129.981L97.0721 129.947C96.9878 129.913 96.422 129.751 95.8126 129.586L95.4847 129.245C95.3094 129.065 95.2138 128.776 95.0221 128.652C94.8304 128.528 94.5488 128.541 94.3082 128.48C94.0674 128.429 93.831 128.358 93.6013 128.269L93.4403 128.201C93.2882 128.006 93.1745 127.783 93.1053 127.543L92.896 127.76C92.8692 127.787 92.6285 127.628 92.5012 127.533L92.1062 127.238C91.7806 127.014 91.4866 126.745 91.232 126.44C91.2281 126.331 91.2095 126.223 91.1767 126.119C91.1467 126.122 91.1177 126.133 91.093 126.151C91.0682 126.169 91.0485 126.193 91.0359 126.221C91.0038 126.293 90.8564 126.505 90.8017 126.477C90.6766 126.279 90.5842 126.061 90.528 125.832L90.2155 126.1C90.1091 126.065 90.0159 125.998 89.9489 125.907C89.9359 125.639 89.7493 125.746 89.6407 125.679C89.5605 125.63 89.5693 125.439 89.4886 125.35L89.4107 125.26C89.2801 125.206 89.0127 125.115 88.8143 125.058C88.3609 124.895 87.9341 124.665 87.5475 124.374L87.2051 124.309C87.0431 124.289 86.8909 124.221 86.767 124.113C86.6432 124.005 86.553 123.863 86.5078 123.703C86.4963 123.681 86.4805 123.662 86.4614 123.647C86.4423 123.632 86.4204 123.621 86.3969 123.615L85.7777 123.694C85.4462 123.173 85.2486 122.797 85.3372 122.854C85.4257 122.911 85.6855 122.995 85.5604 122.815L85.5606 122.72C85.5582 122.429 85.3419 122.576 85.2489 122.501C85.0854 122.369 84.9753 122.473 84.8669 122.455L84.5651 122.407C84.1185 122.183 83.937 121.991 84.1615 121.98L84.229 121.932L84.2869 121.895C84.2832 121.824 84.2616 121.756 84.2245 121.696C84.1874 121.636 84.1359 121.588 84.0749 121.555L84.0091 121.58L83.5131 121.772C83.1201 121.472 82.6643 121.135 82.4943 121.025L82.4437 120.935L82.263 120.61C81.9822 120.458 81.6923 120.324 81.3951 120.208C81.2338 120.154 80.961 119.689 80.8546 119.631C80.7065 119.505 80.551 119.388 80.3891 119.28C80.3087 119.271 80.0195 119.16 79.9784 119.054C79.8793 118.842 79.7392 118.652 79.5663 118.497C79.1681 118.306 78.7573 118.144 78.3367 118.012L78.1474 117.78L77.7408 117.285C77.1742 117.027 76.6595 116.665 76.2223 116.217L75.9565 115.934L75.8055 115.774C75.539 115.637 75.2976 115.454 75.0915 115.233C74.7095 114.93 74.2918 114.677 73.8479 114.479L73.7754 114.211L73.6991 113.927C73.5281 113.811 73.3428 113.718 73.1479 113.651L73.1403 113.629C72.9089 112.985 72.192 112.774 71.8466 112.243L71.7277 112.059C71.649 111.823 71.5065 111.627 71.411 111.622C71.1066 111.499 70.8508 111.278 70.6826 110.991C70.5183 110.657 69.4793 109.343 68.9408 108.592L68.499 107.895C68.3123 107.613 68.1793 107.293 67.9811 106.997L67.7639 106.664C67.6823 106.219 67.5864 105.683 67.5512 105.474C67.5 105.185 67.4663 104.894 67.4505 104.601C67.4674 104.539 67.6647 104.352 67.7057 104.27C67.7468 104.188 67.4533 103.766 67.3712 103.656L67.3919 103.632L67.5903 103.394C67.5139 103.244 67.4071 103.113 67.2769 103.009C67.1466 102.905 66.996 102.831 66.835 102.791C66.5357 102.733 66.0479 101.869 65.9369 101.756C65.6613 101.566 65.4222 101.325 65.2313 101.047L64.8764 101.028L64.825 101.025C64.7638 100.974 64.563 100.84 64.3769 100.724C64.1276 100.505 63.9011 100.26 63.701 99.9933C63.6325 99.9031 63.5026 99.6217 63.4453 99.5614C63.388 99.5011 62.7519 98.9771 62.1943 98.517L61.7274 98.0552C61.6179 97.8977 61.474 97.7685 61.3069 97.6776C61.0605 97.5686 60.8605 97.3739 60.7421 97.1278L60.6555 96.8654C60.4658 96.7174 60.1689 96.4719 59.9997 96.3196L59.8483 96.1771C59.7035 96.0385 59.4453 95.8629 59.45 95.7512L59.4623 95.445C59.2511 95.4403 59.0407 95.4198 58.8326 95.3837C58.682 95.3538 58.4616 94.7073 58.305 94.4794L58.1162 94.3041L57.9427 94.1443C57.7412 94.0242 57.5499 93.8872 57.371 93.7344C57.2693 93.6368 56.8752 93.1899 56.6828 92.9725L56.5091 92.7739L56.2943 92.5281C56.0681 92.2507 55.7909 91.9141 55.6783 91.7816C55.42 91.5484 55.1436 91.3368 54.8517 91.149C54.6686 91.0323 54.1953 90.5 53.9124 90.2816C53.6294 90.0631 52.8564 88.859 52.3434 88.4066L52.033 87.8907C51.8573 87.5996 51.491 87.7747 51.3806 87.4165L51.3128 87.1938C51.1668 86.9899 50.9758 86.8242 50.755 86.7101L50.6502 86.6452C50.4387 86.5129 50.1173 86.4019 50.3638 86.092C50.3763 86.0829 50.1981 85.8507 50.138 85.8503L49.7854 85.855C49.5908 85.5926 49.4168 85.3149 49.2647 85.0245C49.1816 84.8451 48.6264 84.616 48.5736 84.4888C48.5208 84.3616 48.2634 83.9433 48.1597 83.9327C48.056 83.922 47.8164 83.8195 47.9416 83.7349C48.0668 83.6502 47.5031 83.3693 47.3557 83.2269L47.2184 83.0923L46.8029 82.6864C46.3779 82.3175 46.0605 81.8362 45.8849 81.2944L45.5098 81.322C45.0822 81.3532 45.214 80.9608 45.029 80.8141C44.9148 80.7488 44.8153 80.6598 44.7371 80.5527C44.6588 80.4456 44.6035 80.3229 44.5746 80.1922L44.5667 80.1438C44.4453 80.0801 44.3098 80.0488 44.1729 80.0528C44.0354 80.057 43.6738 79.4707 43.4872 79.2549L43.3039 79.0633C43.1225 78.8741 42.839 78.7529 42.8476 78.4427C42.8189 78.3818 42.7685 78.3347 42.7065 78.3109L42.1915 78.4736C42.0065 78.1237 41.8495 77.7589 41.7225 77.3826C41.4093 77.0464 41.0709 76.7359 40.7101 76.4538L40.6635 76.232C40.5857 75.8654 40.3047 76.0407 40.2 75.8693C40.084 75.6814 39.9323 75.3435 39.837 75.341C39.488 75.3288 39.5265 74.9952 39.3403 74.874C39.1637 74.7324 39.0265 74.546 38.9423 74.333L38.8471 74.1576C38.4743 73.8757 38.1229 73.5653 37.7963 73.229C37.4755 72.8982 36.561 71.9102 36.4782 71.7734C36.3954 71.6365 36.1182 71.3788 36.0633 71.2512C35.8916 71.0791 35.6982 70.9313 35.488 70.8115C35.254 70.5302 35.0833 70.1996 34.9879 69.8427L34.5393 69.9318L34.52 69.9353C34.2985 69.5557 34.0485 69.1944 33.772 68.8547C33.468 68.4748 32.5 67.3886 32.3977 67.2125C32.2474 67.0278 32.0771 66.8611 31.8898 66.7157C31.7974 66.6247 31.4282 66.2101 31.2529 65.9795L31.1929 65.7559C31.106 65.4387 31.106 65.1679 30.6385 65.1112L30.4655 65.0907C30.2313 64.8031 30.0515 64.4733 29.9354 64.1178L29.9561 63.8958L29.9963 63.4574C29.6662 63.2084 29.2863 62.925 29.1508 62.8233C29.0154 62.7215 28.6164 62.3902 28.6649 62.3068C28.6894 62.1926 28.6859 62.0741 28.6543 61.9622C28.6226 61.8503 28.5641 61.7486 28.4839 61.6661C28.2826 61.4875 28.2944 60.7789 28.3782 60.954C28.4715 61.1633 28.6001 61.354 28.7581 61.5176C28.818 61.5162 29.0669 61.3992 29.0376 61.2627L28.9562 61.178C28.6767 60.8924 28.8694 60.7657 28.9946 60.5803C29.1011 60.4275 29.426 60.5273 29.3802 60.1719L29.3541 59.9761C29.5568 59.7258 29.7779 59.4913 30.015 59.2749C30.2106 59.1033 30.8421 59.6003 30.9601 59.6822C31.0782 59.7642 31.5244 60.1574 31.7381 60.3242C31.9519 60.4909 32.5277 61.238 32.7336 61.381C32.9395 61.524 33.4347 62.2761 33.6196 62.4199C33.8382 62.6538 34.0791 62.8646 34.3391 63.0491C34.522 63.107 34.8581 63.8494 35.1922 64.1954C35.5262 64.5413 36.6866 65.7356 37.0166 66.092C37.4687 66.6224 37.891 67.1786 38.2818 67.7578L38.402 67.843L39.2681 68.4622C40.0188 69.3452 40.8316 70.3116 41.0779 70.6182L41.3207 70.8819C41.5738 71.0915 41.7848 71.3489 41.9423 71.6405L42.03 71.8527L42.8618 72.4207C43.0391 72.5425 43.4846 73.1908 43.6702 73.3152C43.8558 73.4396 44.2948 74.1562 44.5088 74.3846C44.914 74.7606 45.3428 75.1091 45.7927 75.428L45.804 75.5509C45.829 75.8283 46.0804 75.7978 46.1789 75.9452C46.2846 76.1083 46.4046 76.261 46.5375 76.4017C46.7059 76.5746 46.9143 76.712 47.0735 76.8906C47.1974 77.03 47.2621 77.3244 47.3719 77.3534C47.814 77.4808 47.9121 77.9409 48.2499 78.1588C48.4489 78.2962 48.6319 78.4563 48.7952 78.6363L48.9398 78.7855C49.0841 78.9792 49.2154 79.1828 49.3329 79.3947L49.4989 79.5C49.6071 79.5466 49.7027 79.6189 49.778 79.7109C49.8532 79.8029 49.9059 79.9119 49.9317 80.0292L49.9408 80.0996C50.2948 80.2643 50.6296 80.4686 50.9389 80.709C51.252 81.0714 51.5185 81.4734 51.7318 81.9054C51.7592 81.9302 52.1453 82.307 52.5301 82.6818C52.9149 83.0567 54.0561 84.2506 54.2392 84.4708C54.4223 84.691 55.0097 85.4126 55.1415 85.5826L55.2758 85.7249C55.4972 85.9613 55.8315 86.0392 56.014 86.3634C56.1684 86.6385 56.5777 86.7373 56.6716 87.1027L56.7636 87.4628C57.0955 87.7384 57.4104 88.0345 57.7068 88.3494C57.9091 88.5757 58.8495 89.4091 59.2171 89.7888C59.5846 90.1685 60.6471 91.2558 60.7761 91.3375C60.9645 91.5046 61.1288 91.6981 61.2644 91.9121C61.3359 92.0353 61.98 92.3502 62.3275 92.6162C62.764 93.104 63.1687 93.6208 63.539 94.163L63.692 94.2986L65.0411 95.4915C66.5277 96.7999 67.9208 98.0893 68.1375 98.3557L68.4925 98.3274C68.5723 98.3211 68.7331 98.4748 68.7957 98.5835C68.8854 98.7372 68.8214 99.0038 69.1104 98.9927L69.4335 98.9809C69.7595 98.9368 70.0588 98.77 70.2724 98.5131L70.5351 98.4869C70.5856 98.4827 70.5856 98.326 70.6287 98.254L70.7356 98.0762C70.8117 98.2046 70.9332 98.298 71.0752 98.3374L71.1033 98.2981L71.1668 98.2067C71.2978 98.0175 71.4842 97.8753 71.6986 97.801C71.9481 97.6969 72.8166 97.6932 73.0314 97.92L73.2235 97.7149C73.3073 97.6332 73.408 97.5718 73.518 97.5354C73.6279 97.4989 73.7443 97.4884 73.8584 97.5045L73.9365 97.5051C74.0677 97.3557 74.1836 97.1928 74.282 97.0192L74.5895 97.1222L74.6732 97.1501C74.7717 97.1246 75.055 97.0778 75.3035 97.0447C75.6837 97.1047 76.0505 97.2306 76.3883 97.4168L76.4741 97.4357L76.5661 97.4566C76.7297 97.4328 76.891 97.3939 77.0479 97.3406C77.2146 97.2849 77.6453 97.2894 77.7014 97.5671L78.0071 97.2809L78.1336 97.1612C78.2148 97.1438 78.2987 97.1448 78.3792 97.1639C78.4597 97.183 78.535 97.2199 78.5999 97.272C78.8958 97.4763 79.2158 97.6419 79.5525 97.7651C79.9369 97.916 81.1434 98.359 81.3832 98.4765C81.8795 98.7661 82.3608 99.0813 82.8254 99.4209C83.1726 99.6784 84.5139 100.44 84.9317 100.732L85.2116 101.118L85.3846 101.356C85.6461 101.541 86.094 101.898 86.3794 102.15L86.6387 102.379C86.898 102.608 87.1589 102.837 87.4175 103.066C87.4733 103.103 87.5204 103.152 87.5555 103.21C87.6238 103.445 87.5267 103.724 87.9686 103.811C88.1118 103.84 88.1967 104.216 88.4025 104.419C88.7658 104.777 88.8292 105.341 89.2906 105.666C89.3082 105.678 89.276 105.771 89.2666 105.826C89.2584 105.964 89.2303 106.101 89.1833 106.231L89.044 106.489C89.2567 106.596 89.337 106.712 89.2224 106.748L89.2065 106.862C89.182 107.03 89.1857 107.207 89.1774 107.38L89.0058 107.96L88.8864 108.059C88.8254 108.218 88.7045 108.579 88.6168 108.863L88.5293 109.123C88.4719 109.362 88.3957 109.596 88.3014 109.823C88.0964 110.215 87.8653 110.592 87.6097 110.952L87.4657 111.151C87.2854 111.302 87.081 111.419 86.8618 111.498C86.6315 111.488 86.403 111.455 86.1795 111.399C85.9231 111.364 85.6617 111.401 85.4231 111.506L85.2509 111.546C85.0516 111.595 84.8059 111.288 84.5945 111.525L84.4891 111.644C84.3986 111.48 84.2738 111.339 84.1235 111.231C83.8827 111.148 83.6364 111.081 83.3865 111.032L83.2151 110.961L83.0423 110.889C82.8438 110.766 82.6264 110.73 82.5589 110.81C82.4913 110.891 82.1785 111.066 82.0647 110.966C81.951 110.865 81.605 110.617 81.6107 110.69C81.6165 110.764 81.5768 110.913 81.5198 110.917L81.4728 110.894C81.4117 110.862 81.3585 110.816 81.317 110.76C80.9636 110.277 80.5399 110.446 80.147 110.438C79.857 110.432 79.8197 110.439 79.8688 110.132L79.9266 109.781C79.7532 109.866 79.5856 109.874 79.5549 109.799C79.5241 109.725 79.312 109.574 79.2994 109.643L79.3041 109.707L79.3322 110.061C79.0901 109.988 78.4676 109.8 77.949 109.64L77.4792 109.487C77.3258 109.455 77.1824 109.386 77.0607 109.287C76.8225 109.063 76.5351 108.9 76.2222 108.813L76.0114 108.724C75.9108 108.595 75.7811 108.493 75.6333 108.427L75.5708 108.431C75.4918 108.436 75.3801 108.495 75.3439 108.462C74.9542 108.183 74.5344 107.95 74.0925 107.769L73.7092 107.555C73.2918 107.263 72.6944 106.869 72.382 106.678L72.1051 106.572C71.8705 106.481 71.7235 106.487 71.6463 106.186L71.5945 105.984C71.4839 105.965 71.379 105.922 71.2869 105.857C71.1949 105.792 71.118 105.708 71.0616 105.609C71.0355 105.473 70.6582 105.52 70.5623 105.55C70.4664 105.579 70.1984 105.215 70.0345 105.054L69.8274 105.153L69.7797 105.176C69.6783 105.165 69.7357 105.303 69.9003 105.488C70.122 105.796 70.4016 106.055 70.7229 106.251L70.7942 106.519C70.8536 106.763 70.9458 106.996 71.0681 107.213L71.1811 107.404C71.3778 107.594 71.6098 107.743 71.8639 107.842C72.0549 107.9 72.7107 108.892 73.3793 109.481C74.0478 110.07 75.9142 111.718 75.997 111.903C76.0797 112.087 76.6933 112.181 76.8302 112.23C76.967 112.28 77.4022 112.908 77.6786 113.146L77.9753 113.305L78.3038 113.485C78.6803 113.762 79.0731 114.015 79.4803 114.244L79.6242 114.547L79.6914 114.689C79.6777 114.871 79.8105 114.888 79.9867 114.723L80.2054 115.05L80.4166 115.357C80.8356 115.62 81.2323 115.917 81.6025 116.247L82.0272 116.303L82.1732 116.322C82.4634 116.711 82.8029 117.059 83.183 117.356C83.5623 117.652 84.6855 118.171 84.6659 118.234C84.663 118.288 84.6798 118.342 84.7132 118.384C84.7466 118.426 84.7941 118.455 84.8468 118.463C84.9795 118.483 85.3793 118.643 85.655 118.686L85.6757 118.775C85.7657 119.178 86.0915 119.258 86.366 119.424L86.3996 119.445C86.5407 119.636 86.7293 119.785 86.9461 119.877C87.2422 120.036 88.2317 120.659 88.5171 120.82C88.9689 121.077 89.3693 121.418 89.6977 121.826L90.0227 121.708C90.1548 121.659 90.4281 121.827 90.6128 121.947C90.8118 122.076 90.9759 122.267 91.1645 122.418C91.2361 122.48 91.3264 122.515 91.4206 122.518C91.5687 122.5 91.7182 122.524 91.8534 122.587C91.9885 122.649 92.1041 122.748 92.1877 122.874L92.4212 123.156C92.9981 123.396 93.556 123.68 94.09 124.006C94.6777 124.359 96.7989 125.483 97.443 125.839L98.0211 126.182C98.3955 126.478 98.8404 126.669 99.3115 126.735C99.4019 126.748 99.4863 126.788 99.5545 126.85C99.5353 127.18 99.8282 127.146 99.9836 127.212C100.439 127.357 100.87 127.574 101.259 127.855L101.559 128.101C101.997 128.178 102.421 128.32 102.817 128.523C103.271 128.743 103.741 128.927 104.224 129.073C104.49 129.148 105.287 129.559 105.496 129.65C105.706 129.742 107.097 130.3 108.139 130.731L109.089 131.12C109.196 131.182 109.313 131.224 109.435 131.244L109.78 131.232C110.082 131.368 110.394 131.481 110.714 131.568C110.878 131.6 111.416 131.925 111.58 131.969L111.729 131.971C111.858 131.956 111.988 131.971 112.11 132.014C112.233 132.057 112.343 132.128 112.435 132.222C112.56 132.315 112.705 132.376 112.858 132.401C113.072 132.429 113.282 132.483 113.482 132.562L114.224 133.004C114.966 133.132 115.698 133.31 116.416 133.537C116.941 133.706 117.476 133.847 118.016 133.96C118.309 134.07 118.596 134.194 118.876 134.334C119.261 134.476 119.655 134.591 120.056 134.679L120.36 134.732C120.454 134.75 120.54 134.797 120.605 134.869L120.789 135.111C121.06 135.175 121.913 135.445 122.684 135.712L123.34 136.122C123.366 136.137 123.402 136.128 123.431 136.138L123.899 136.299C124.356 136.491 124.826 136.652 125.305 136.78C125.567 136.834 126.553 137.435 126.992 137.644C127.431 137.852 128.921 138.26 129.268 138.41C129.615 138.561 130.982 139.228 131.545 139.533L132.057 139.652L132.491 139.752C132.817 139.987 133.167 140.182 133.537 140.334C133.743 140.396 134.688 140.906 135.184 141.165L135.634 141.346C136.037 141.508 136.235 141.949 136.72 141.996C137.031 142.027 137.369 142.396 137.7 142.596C138.361 142.99 139.027 143.37 139.692 143.754L139.746 143.784C139.811 143.807 140.344 144.182 140.931 144.62L141.471 145.006C141.817 145.253 142.179 145.475 142.529 145.715C142.878 145.955 143.115 146.397 143.59 146.426C143.637 146.428 143.691 146.538 143.745 146.553C144.096 146.655 143.934 147.237 144.476 147.25L144.7 147.255C145.024 147.621 145.296 148.032 145.506 148.477L145.871 148.584L146.199 148.679C146.414 149.042 146.688 149.362 147.011 149.628L147.129 149.978C147.189 150.157 147.464 150.306 147.654 150.461L147.837 150.608C147.826 150.716 147.84 150.824 147.877 150.924C147.915 151.025 147.975 151.115 148.053 151.186L148.199 151.294C148.314 151.378 148.526 151.362 148.529 151.563C148.528 151.928 148.808 152.116 149.02 152.38C149.311 152.79 149.575 153.22 149.81 153.667L149.875 153.775C149.938 153.886 149.931 154.004 149.857 154.038C149.766 154.075 149.682 154.129 149.609 154.196C149.674 154.25 149.754 154.282 149.839 154.288C149.961 154.323 150.075 154.384 150.172 154.468C150.27 154.551 150.348 154.656 150.403 154.773L150.419 154.981L150.429 155.091C150.383 155.208 150.396 155.316 150.464 155.33C150.532 155.343 150.602 155.53 150.569 155.664C150.535 155.798 150.509 156.214 150.572 156.175C150.634 156.137 150.827 156.101 150.83 156.199C150.883 156.428 150.965 156.649 151.075 156.856L151.177 157.016C151.433 157.42 151.433 157.552 151.213 158.122L151.174 158.222C151.183 158.383 151.328 158.458 151.497 158.388L151.56 158.617L151.584 158.7C151.847 158.908 152.133 159.084 152.436 159.225L152.811 159.373L153.561 159.667C154.383 160.01 155.324 160.415 155.652 160.564C155.981 160.714 157.151 161.268 157.522 161.468C157.893 161.669 159.124 162.334 159.469 162.47C159.814 162.606 160.741 163.277 160.919 163.323L161.02 163.423L161.386 163.78C161.852 164.05 162.599 164.495 163.04 164.771C163.481 165.046 164.82 165.961 165.092 166.073L165.251 166.248L165.432 166.447C165.673 166.607 165.983 166.793 166.123 166.861C166.262 166.93 167.347 167.669 168.286 168.267L168.966 169.048L169.16 169.271C169.47 169.496 169.796 169.698 170.135 169.873L170.363 170.054C170.631 170.27 170.884 170.509 171.144 170.738L171.379 170.943C171.736 171.27 172.067 171.627 172.368 172.009L172.796 172.234L173.13 172.41C173.422 172.825 173.754 173.306 173.866 173.481C174.155 173.754 174.427 174.045 174.681 174.352L175.044 174.298L175.082 174.292C175.25 174.428 175.408 174.577 175.554 174.736C175.785 175.14 175.993 175.557 176.176 175.986L176.283 176.159L176.442 176.424C176.603 176.288 176.787 176.254 176.851 176.352C176.915 176.449 177.14 176.957 177.273 177.263L177.22 177.472L177.105 177.922C177.49 177.947 177.852 178.109 178.13 178.379L178.047 178.74C178.046 178.787 178.056 178.833 178.076 178.875C178.095 178.917 178.124 178.954 178.16 178.984C178.64 179.225 178.451 179.663 178.635 179.99C178.674 180.057 178.629 180.241 178.583 180.249C178.432 180.271 178.353 180.288 178.51 180.448C178.592 180.511 178.668 180.581 178.738 180.658C178.804 180.764 178.806 180.908 178.88 181.002C179.05 181.205 178.957 181.335 178.805 181.326L178.443 181.302C178.561 181.519 178.66 181.747 178.739 181.983C178.787 182.145 179.125 182.61 179.065 182.845L179.011 183.059C178.943 183.325 178.672 183.323 178.461 183.385L178.428 183.394C178.302 183.071 178.284 182.713 178.376 182.377L178.432 182.008L178.422 181.98ZM145.756 162.278C145.815 162.469 145.769 162.563 145.653 162.487C145.344 162.311 145.02 162.163 144.685 162.046L144.498 162.199C144.232 162.419 143.932 162.146 143.654 162.157C143.378 162.139 143.106 162.092 142.841 162.016C142.571 161.983 142.303 161.93 142.041 161.857C141.598 161.664 141.097 161.658 140.647 161.839C140.476 161.922 140.37 162.017 140.186 161.801C140.04 161.629 139.929 161.66 139.802 161.787C139.769 161.821 139.567 161.661 139.482 161.682C139.398 161.703 139.341 161.929 139.319 161.919L138.876 161.712C138.448 161.811 137.961 161.91 137.793 161.934C137.625 161.957 136.64 161.799 135.982 161.709L135.389 161.811L134.942 161.887C134.407 161.778 133.94 161.792 133.903 161.918L133.852 161.918L133.745 161.916C133.472 161.855 133.188 161.867 132.92 161.951C132.594 162.036 131.582 162.366 131.374 162.451C130.984 162.639 130.615 162.87 130.273 163.139C130.073 163.331 130.402 164.25 130.447 164.363C130.552 164.562 130.717 164.72 130.916 164.817C131.095 164.863 131.742 165.266 132.134 165.457C132.527 165.649 133.842 166.251 134.201 166.35C135.049 166.53 135.906 166.666 136.768 166.758L137.381 167.094C137.416 167.114 137.479 167.04 137.533 167.043C137.786 167.057 138.147 167.194 138.275 167.077C138.569 166.818 138.787 167.288 139.031 167.209C139.071 167.195 139.168 167.285 139.197 167.268C139.623 167.023 140.17 167.25 140.631 167.166C141.105 167.08 141.547 166.913 142.039 166.858C142.457 166.811 142.869 166.711 143.264 166.561C143.623 166.424 144.023 166.393 144.383 166.238L144.706 166.099C145.03 166.053 145.347 165.965 145.649 165.837L145.64 165.773C145.584 165.39 145.703 165.34 146.052 165.555C146.102 165.586 146.284 165.422 146.354 165.314L146.41 165.228C146.543 165.025 146.694 164.834 146.861 164.659L147.202 164.602L147.456 164.564C147.659 164.336 147.896 164.143 148.16 163.995C148.309 163.939 148.268 163.396 148.354 163.285C148.439 163.174 147.623 162.902 147.098 162.842L146.625 162.646C146.425 162.563 146.231 162.456 146.027 162.383L145.756 162.278ZM72.7227 100.857C72.4075 100.704 72.2393 100.713 72.3441 100.868C72.4489 101.023 72.6979 101.496 72.8176 101.524C72.9373 101.553 73.2976 101.786 73.432 101.808C73.5664 101.831 73.8747 102.306 74.1042 102.455C74.3336 102.603 75.125 102.987 75.3426 103.176C75.5602 103.364 76.3397 103.464 76.4371 103.62L76.5674 103.711C76.6582 103.773 76.8189 103.698 76.9358 103.743C77.0013 103.769 77.0343 103.975 77.0937 103.992L77.3627 104.068C77.6408 104.109 77.9066 104.211 78.1426 104.365C78.6272 104.586 79.1289 104.767 79.6428 104.905L80.0392 105.106L80.4216 105.3C80.6929 105.237 80.9601 105.314 81.0141 105.472L81.0983 105.516L81.2904 105.615C81.5209 105.668 82.0069 105.75 82.3704 105.798C82.7339 105.846 83.878 106.198 84.1107 106.239L84.316 106.311L84.516 106.381C84.654 106.356 84.7938 106.343 84.9338 106.343L84.9539 106.328C85.0018 106.301 85.077 106.269 85.0734 106.229L85.0724 106.153C84.9876 106.009 84.8888 105.875 84.7776 105.751C84.5264 105.476 84.2422 105.235 83.9317 105.032L83.7366 104.931L83.497 104.805C83.1821 104.577 82.8917 104.315 82.6304 104.025L82.3309 103.861L82.1038 103.734C82.1027 103.496 82.0329 103.264 81.9031 103.067L81.8215 103.062L81.4085 103.035C81.1411 102.836 80.7422 102.527 80.5205 102.346L80.3033 102.218C80.0574 102.072 79.7126 102.002 79.9481 101.632C79.9558 101.619 79.769 101.405 79.7063 101.41L79.4285 101.432C79.145 101.496 78.8965 101.475 78.8704 101.389C78.8443 101.304 78.856 101.115 78.9409 101.148C79.0258 101.182 79.079 101.165 78.7429 101.006C78.4068 100.848 77.5494 100.734 77.6199 100.61C77.6903 100.485 77.6688 100.194 77.4444 100.192C77.1048 100.203 76.765 100.195 76.4267 100.167C76.2946 100.127 75.9336 99.9582 75.9038 100.044C75.8741 100.13 75.2664 100.089 74.9379 100.063L74.6747 100.184C74.5274 100.251 74.325 100.371 74.2056 100.309C74.1261 100.25 74.028 100.224 73.9301 100.235C73.8321 100.246 73.7412 100.294 73.675 100.369C73.4974 100.509 73.1424 100.454 72.9832 100.605L72.7227 100.857Z" fill="#6FB2A5"/>
<path d="M29.9351 64.0418L29.9553 63.8211L29.9945 63.3822L29.1491 62.7473C29.015 62.6473 28.6146 62.3137 28.6629 62.2303C28.6873 62.1162 28.6834 61.9978 28.6517 61.886C28.62 61.7741 28.5615 61.6722 28.4813 61.5897C28.3735 61.4435 28.3162 61.2646 28.3184 61.0809C28.3101 60.914 28.3337 60.7933 28.3736 60.8786C28.467 61.088 28.5957 61.2789 28.7537 61.4426C28.8135 61.4412 29.0621 61.3246 29.0323 61.1874L28.9513 61.1033C28.6711 60.8179 28.864 60.6911 28.9889 60.5059C29.0947 60.3526 29.4198 60.4535 29.373 60.0986L29.3471 59.9034C29.5493 59.6535 29.7695 59.4193 30.0059 59.2029C30.2015 59.0323 30.8332 59.5288 30.951 59.612C31.0689 59.6951 31.5153 60.0877 31.7285 60.2551C31.9416 60.4225 32.5196 61.1697 32.7255 61.3129C32.9313 61.4561 33.4264 62.208 33.6112 62.3531C33.8299 62.587 34.071 62.7979 34.3308 62.9828C34.5018 63.1239 34.6402 63.3017 34.7365 63.5037C34.8668 63.7263 35.0171 63.936 35.1856 64.13C35.5183 64.4782 36.6803 65.6716 37.0104 66.0283C37.4626 66.5592 37.8852 67.1157 38.2764 67.6951L38.3968 67.7803L39.2622 68.4008C40.0133 69.2844 40.827 70.2521 41.0729 70.5583L41.3154 70.8215C41.5688 71.0314 41.78 71.2894 41.9375 71.5815L42.025 71.793C42.3052 71.9833 42.679 72.2401 42.8575 72.3613C43.036 72.4824 43.4804 73.1321 43.6656 73.256C43.8507 73.38 44.2907 74.0975 44.5052 74.3267C44.9102 74.7029 45.3389 75.0516 45.7886 75.3707L45.7998 75.4928C45.8053 75.5553 45.8284 75.6148 45.8665 75.6638C45.9047 75.7128 45.9561 75.7492 46.0144 75.7685C46.0776 75.7939 46.1333 75.8356 46.176 75.8895C46.2816 76.0524 46.4016 76.205 46.5344 76.3456C46.7035 76.5182 46.9118 76.6567 47.0711 76.8355C47.125 76.9045 47.1696 76.9806 47.204 77.0617C47.2578 77.174 47.3052 77.2796 47.3678 77.3C47.8096 77.4278 47.9083 77.8879 48.246 78.1061C48.4452 78.2434 48.6281 78.4039 48.7912 78.5842L48.9354 78.7329C49.0802 78.9265 49.212 79.1298 49.3297 79.3418L49.496 79.448C49.6043 79.4946 49.7001 79.5668 49.7754 79.6589C49.8507 79.7509 49.9033 79.8602 49.929 79.9775L49.9382 80.0479C50.2922 80.2127 50.6269 80.4174 50.936 80.6584C51.1841 80.9161 51.392 81.2113 51.5524 81.5337C51.6508 81.7108 51.7195 81.8446 51.7299 81.8543C51.7577 81.8798 52.1434 82.2563 52.5287 82.6321C52.9141 83.0079 54.0556 84.2028 54.2384 84.4226C54.4212 84.6423 55.0101 85.3644 55.1413 85.5349L55.2752 85.6769C55.4966 85.9134 55.8302 85.9911 56.0134 86.316C56.0916 86.4328 56.1918 86.5323 56.3081 86.6089C56.4767 86.7098 56.6049 86.8682 56.6706 87.0564L56.7624 87.4168C57.0944 87.6926 57.4095 87.9889 57.7059 88.3042C57.9093 88.5309 58.8487 89.3651 59.2162 89.7462C59.5836 90.1273 60.6466 91.2145 60.7756 91.2963C60.9638 91.4635 61.128 91.6569 61.2637 91.8707C61.3347 91.9944 61.979 92.3106 62.3266 92.5759C62.7634 93.0641 63.1683 93.5811 63.5388 94.1237L63.6914 94.2588L65.0419 95.453C66.5282 96.7622 67.9219 98.0537 68.138 98.3206L68.4926 98.2928C68.5735 98.2868 68.7326 98.4409 68.7959 98.5492C68.8851 98.7035 68.8225 98.97 69.1108 98.9587L69.4336 98.9473C69.7591 98.9033 70.0577 98.7367 70.2706 98.4802L70.533 98.4543C70.5845 98.4504 70.5838 98.2931 70.6273 98.2219L70.734 98.0441C70.8103 98.1724 70.9316 98.266 71.0735 98.3057L71.1027 98.2666L71.1654 98.1757C71.296 97.9872 71.4816 97.8456 71.6954 97.7715C71.9445 97.6678 72.8131 97.6654 73.027 97.8922L73.2192 97.687C73.3029 97.6054 73.4034 97.5442 73.5132 97.5079C73.623 97.4717 73.7393 97.4613 73.8533 97.4776L73.9315 97.4772C74.0625 97.3282 74.1782 97.1658 74.2765 96.9926L74.5831 97.0964L74.6673 97.125C74.7663 97.0991 75.0487 97.0522 75.2968 97.0205C75.677 97.0811 76.044 97.2074 76.382 97.3941L76.4679 97.4129L76.5599 97.4339C76.7232 97.4104 76.8842 97.3719 77.0409 97.3187C77.2073 97.2633 77.637 97.2688 77.694 97.546L77.9996 97.2609L78.1257 97.1414C78.2067 97.1243 78.2904 97.1254 78.3708 97.1447C78.4511 97.164 78.5263 97.2011 78.5911 97.2533C78.8868 97.4581 79.2067 97.6241 79.5434 97.7474C79.9276 97.8988 81.1338 98.3438 81.3736 98.4616C81.8695 98.7519 82.3507 99.0676 82.8155 99.4074C83.1627 99.6653 84.503 100.429 84.9218 100.722L85.2026 101.107L85.376 101.346C85.6369 101.531 86.0844 101.889 86.3698 102.141L86.6292 102.37C86.8894 102.599 87.149 102.829 87.4081 103.058C87.464 103.095 87.5111 103.144 87.5461 103.202C87.6146 103.437 87.5186 103.715 87.9596 103.803C88.0383 103.819 88.1 103.94 88.1735 104.08C88.2301 104.201 88.3042 104.313 88.3933 104.411C88.5429 104.575 88.6659 104.761 88.7578 104.965C88.8734 105.237 89.0536 105.475 89.2822 105.658C89.2987 105.67 89.2679 105.764 89.2585 105.818C89.2499 105.956 89.2217 106.093 89.1751 106.224L89.0362 106.481C89.2494 106.588 89.3298 106.704 89.2147 106.741L89.199 106.854C89.1748 107.023 89.1787 107.199 89.1706 107.372L89.0001 107.951L88.8814 108.05C88.8212 108.208 88.7002 108.57 88.613 108.853L88.5265 109.113C88.4695 109.352 88.3934 109.586 88.2991 109.813C88.095 110.204 87.8645 110.582 87.6094 110.941L87.4657 111.14C87.2858 111.29 87.0816 111.407 86.8624 111.485C86.6324 111.475 86.404 111.442 86.1807 111.386C85.9243 111.351 85.663 111.387 85.4246 111.492L85.2527 111.532C85.0535 111.58 84.8083 111.273 84.5975 111.509L84.4927 111.629C84.4024 111.465 84.2775 111.324 84.127 111.216C83.8866 111.132 83.6406 111.065 83.3911 111.015L83.2188 110.944L83.046 110.872C82.8476 110.749 82.6303 110.712 82.5625 110.792C82.4947 110.871 82.1833 111.047 82.0695 110.947C81.9557 110.847 81.6097 110.597 81.6162 110.671C81.6226 110.744 81.5826 110.893 81.5261 110.898L81.4793 110.875C81.4185 110.842 81.3654 110.796 81.3239 110.74C80.9702 110.257 80.5472 110.425 80.1546 110.416C79.8649 110.411 79.827 110.418 79.8763 110.111L79.9338 109.759C79.7613 109.844 79.5931 109.852 79.5629 109.777C79.5327 109.702 79.32 109.551 79.3071 109.62L79.3119 109.684L79.3403 110.037C79.0978 109.964 78.4764 109.775 77.9582 109.615L77.4889 109.462C77.3357 109.43 77.1924 109.361 77.0707 109.261C76.8323 109.037 76.5448 108.874 76.2319 108.787L76.0218 108.697C75.921 108.568 75.7913 108.466 75.6436 108.4L75.5811 108.404C75.5015 108.409 75.3915 108.468 75.3546 108.434C74.9648 108.155 74.545 107.923 74.1034 107.74L73.7204 107.525C73.3024 107.234 72.7056 106.839 72.3926 106.648L72.1159 106.542C71.882 106.45 71.735 106.457 71.657 106.156L71.6055 105.954C71.4951 105.935 71.3903 105.891 71.2983 105.826C71.2064 105.761 71.1296 105.677 71.0733 105.578C71.046 105.442 70.6701 105.489 70.5743 105.518C70.4786 105.547 70.2105 105.183 70.0465 105.022L69.8404 105.12L69.7921 105.143C69.6903 105.131 69.7484 105.27 69.9131 105.455C70.1351 105.763 70.4147 106.022 70.7359 106.218L70.8076 106.486C70.8675 106.73 70.9598 106.963 71.0821 107.181L71.1957 107.37C71.3922 107.561 71.6241 107.71 71.8779 107.809C72.0692 107.868 72.7252 108.859 73.3932 109.449C74.0612 110.039 75.928 111.689 76.0113 111.874C76.0947 112.059 76.7069 112.152 76.8441 112.203C76.9814 112.253 77.4171 112.881 77.6937 113.118L77.9905 113.278L78.3189 113.458C78.694 113.737 79.0857 113.991 79.4917 114.22L79.6359 114.524L79.7032 114.665C79.6897 114.848 79.8218 114.865 79.9977 114.701L80.2167 115.027L80.428 115.335C80.8472 115.598 81.2439 115.896 81.6142 116.227L82.0385 116.283L82.1842 116.303C82.475 116.692 82.8147 117.04 83.1949 117.338C83.5736 117.635 84.6964 118.155 84.6774 118.217C84.6745 118.272 84.6913 118.325 84.7245 118.368C84.7578 118.41 84.8053 118.438 84.8579 118.447C84.99 118.467 85.3896 118.627 85.6656 118.671L85.6857 118.76C85.7761 119.164 86.1023 119.243 86.3761 119.41L86.4098 119.43C86.5513 119.622 86.7398 119.771 86.9562 119.864C87.2523 120.023 88.2394 120.644 88.5268 120.808C88.9785 121.066 89.3791 121.408 89.708 121.816L90.0325 121.699C90.1643 121.651 90.4381 121.818 90.6217 121.939C90.8131 122.086 90.997 122.244 91.1729 122.411C91.2446 122.472 91.3347 122.508 91.4287 122.511C91.5765 122.494 91.726 122.517 91.861 122.58C91.996 122.643 92.1115 122.742 92.195 122.868L92.4287 123.151C93.0054 123.39 93.563 123.675 94.0967 124.003C94.6842 124.356 96.8056 125.482 97.4483 125.838L98.0261 126.181C98.4009 126.478 98.8456 126.669 99.3162 126.736C99.4066 126.75 99.491 126.79 99.5595 126.851C99.5407 127.181 99.8329 127.148 99.9884 127.213C100.444 127.359 100.874 127.576 101.264 127.858L101.564 128.104C102.001 128.182 102.425 128.324 102.821 128.528C103.275 128.749 103.745 128.934 104.228 129.08C104.494 129.156 105.29 129.567 105.499 129.659C105.708 129.752 107.099 130.31 108.141 130.743L109.09 131.133C109.197 131.195 109.314 131.237 109.436 131.258L109.78 131.246C110.082 131.383 110.394 131.495 110.713 131.582C110.876 131.614 111.414 131.941 111.578 131.985L111.727 131.988C111.856 131.973 111.986 131.988 112.108 132.031C112.23 132.075 112.341 132.146 112.432 132.24C112.558 132.333 112.703 132.394 112.856 132.419C113.065 132.481 113.299 132.471 113.481 132.58L114.223 133.024C114.964 133.153 115.695 133.332 116.412 133.558C116.937 133.729 117.471 133.871 118.012 133.983C118.304 134.093 118.59 134.218 118.87 134.358C119.255 134.5 119.649 134.616 120.05 134.705L120.353 134.757C120.447 134.775 120.534 134.823 120.599 134.895L120.782 135.138C121.053 135.202 121.905 135.472 122.676 135.74L123.332 136.152C123.358 136.167 123.395 136.158 123.423 136.169L123.891 136.329C124.348 136.522 124.817 136.684 125.296 136.812C125.558 136.867 126.543 137.469 126.982 137.678C127.421 137.887 128.911 138.295 129.257 138.447C129.603 138.598 130.971 139.266 131.533 139.571L132.045 139.69L132.479 139.791C132.804 140.026 133.155 140.221 133.524 140.374C133.73 140.436 134.676 140.947 135.171 141.206L135.621 141.388C136.023 141.55 136.223 141.991 136.706 142.038C137.017 142.07 137.355 142.439 137.686 142.64C138.347 143.034 139.014 143.415 139.678 143.8L139.732 143.83C139.797 143.852 140.33 144.229 140.917 144.667L141.457 145.054C141.803 145.302 142.165 145.524 142.514 145.764C142.864 146.004 143.101 146.445 143.576 146.475C143.622 146.478 143.676 146.587 143.73 146.603C143.797 146.631 143.856 146.674 143.903 146.729C143.949 146.785 143.982 146.851 143.999 146.923C144.022 147.03 144.081 147.125 144.164 147.194C144.248 147.263 144.352 147.3 144.46 147.3L144.684 147.305C145.008 147.672 145.28 148.084 145.491 148.529L145.855 148.636L146.183 148.733C146.398 149.095 146.673 149.416 146.995 149.681L147.114 150.032C147.174 150.211 147.45 150.36 147.639 150.515L147.822 150.662C147.811 150.77 147.825 150.878 147.863 150.978C147.9 151.079 147.961 151.169 148.039 151.24L148.185 151.348C148.299 151.432 148.512 151.417 148.515 151.618C148.514 151.982 148.794 152.17 149.006 152.435C149.298 152.845 149.562 153.276 149.798 153.723L149.862 153.831C149.926 153.943 149.919 154.061 149.846 154.094C149.773 154.126 149.589 154.23 149.598 154.253C149.663 154.307 149.743 154.339 149.827 154.345C149.95 154.379 150.064 154.441 150.161 154.524C150.259 154.608 150.337 154.712 150.392 154.83L150.409 155.038L150.418 155.148C150.372 155.265 150.386 155.373 150.454 155.387C150.523 155.401 150.592 155.587 150.559 155.721C150.526 155.855 150.5 156.271 150.563 156.233C150.626 156.196 150.817 156.159 150.821 156.257C150.874 156.487 150.956 156.707 151.066 156.914L151.168 157.074C151.425 157.478 151.425 157.609 151.206 158.179L151.167 158.279C151.176 158.44 151.321 158.515 151.489 158.446L151.552 158.674L151.576 158.757C151.839 158.966 152.125 159.142 152.428 159.283L152.802 159.431L153.553 159.726C154.374 160.071 155.315 160.475 155.642 160.626C155.97 160.776 157.14 161.332 157.511 161.532C157.883 161.733 159.113 162.4 159.457 162.536C159.802 162.671 160.73 163.343 160.907 163.39L161.009 163.49L161.376 163.847C161.842 164.118 162.589 164.564 163.029 164.84C163.47 165.116 164.806 166.029 165.08 166.145L165.238 166.316L165.419 166.515C165.66 166.675 165.97 166.862 166.11 166.93C166.249 166.999 167.333 167.74 168.273 168.339L168.952 169.121L169.147 169.344C169.457 169.57 169.782 169.771 170.122 169.947L170.349 170.128C170.618 170.344 170.87 170.583 171.131 170.812L171.365 171.018C171.723 171.346 172.055 171.702 172.356 172.085L172.783 172.311L173.117 172.487C173.409 172.902 173.741 173.383 173.854 173.559C173.963 173.687 174.082 173.806 174.209 173.915C174.385 174.065 174.54 174.238 174.67 174.43L175.032 174.377L175.071 174.37C175.238 174.507 175.396 174.655 175.542 174.815C175.694 175.03 175.818 175.266 175.909 175.515C175.983 175.704 176.068 175.888 176.165 176.065L176.271 176.238L176.431 176.502C176.592 176.367 176.775 176.334 176.839 176.431C176.903 176.529 177.128 177.036 177.26 177.342L177.208 177.55L177.095 177.999C177.478 178.025 177.841 178.187 178.119 178.458L178.036 178.819C178.036 178.866 178.046 178.912 178.065 178.954C178.085 178.997 178.113 179.034 178.149 179.063C178.629 179.306 178.441 179.743 178.625 180.07C178.664 180.137 178.62 180.321 178.574 180.328C178.423 180.349 178.344 180.368 178.501 180.527C178.584 180.59 178.66 180.66 178.729 180.738C178.796 180.844 178.798 180.988 178.873 181.082C179.043 181.285 178.95 181.414 178.798 181.406L178.437 181.381C178.555 181.599 178.654 181.827 178.734 182.062C178.782 182.224 179.119 182.69 179.06 182.926L179.006 183.138C178.939 183.404 178.669 183.402 178.457 183.463L178.424 183.472C178.298 183.148 178.28 182.791 178.372 182.455L178.426 182.085L178.431 182.056C178.309 181.954 178.194 181.954 178.168 182.048C178.142 182.142 178.009 182.302 177.953 182.089C177.897 181.875 178 181.242 177.899 181.315C177.798 181.388 177.467 181.564 177.535 181.44C177.576 181.345 177.587 181.239 177.566 181.138C177.545 181.036 177.493 180.945 177.417 180.876C177.074 180.594 176.773 180.261 176.523 179.89L176.264 179.691C176.183 179.62 176.115 179.534 176.063 179.438C176.033 179.396 176.007 179.35 175.975 179.311C175.862 179.157 175.647 178.978 175.652 178.851C175.658 178.677 175.566 178.667 175.47 178.652C175.433 178.651 175.398 178.642 175.367 178.623C175.335 178.604 175.309 178.578 175.291 178.546L175.215 178.378C174.922 178.206 174.669 177.969 174.475 177.686L174.29 177.518C174.038 177.287 173.634 177.161 173.475 176.905L173.256 176.551C172.771 176.314 172.312 176.027 171.884 175.695L171.535 175.322C171.226 174.918 170.809 174.615 170.334 174.448C170.108 174.36 169.92 174.193 169.804 173.975C169.774 173.898 169.727 173.829 169.666 173.774C169.605 173.719 169.533 173.679 169.454 173.658C169.222 173.564 168.781 173.573 168.79 173.108C168.753 173.056 168.699 173.021 168.637 173.01C168.48 173.064 168.437 172.964 168.401 172.871C168.375 172.808 168.349 172.745 168.29 172.728C168.107 172.701 167.93 172.647 167.762 172.569L167.63 172.48C167.398 172.181 167.119 171.923 166.804 171.717C166.319 171.406 165.809 171.139 165.279 170.917L165.231 170.737C165.195 170.628 165.128 170.533 165.038 170.463C164.948 170.394 164.84 170.353 164.727 170.346C164.459 170.259 164.203 170.137 163.965 169.983C163.697 169.881 163.45 169.731 163.233 169.541C163.037 169.302 162.702 169.367 162.575 169.078C162.562 169.047 162.569 168.992 162.557 168.986C162.263 168.861 161.898 168.957 161.69 168.566L160.878 167.991L160.554 167.894C160.042 167.705 159.549 167.468 159.08 167.185L158.677 166.912C158.508 166.802 158.375 166.6 158.215 166.834C158.199 166.857 157.994 166.792 157.98 166.752L157.791 166.192C157.389 166.188 156.99 166.14 156.599 166.049C156.268 165.942 155.928 165.867 155.583 165.824C155.398 165.828 154.841 165.211 154.509 165.011C153.822 164.839 153.122 164.722 152.416 164.66L152.043 164.297L151.838 164.098C151.432 163.996 151.106 164.326 151.114 164.832L151.006 165.207C150.904 165.632 150.769 166.047 150.601 166.45C150.29 167.349 149.788 168.167 149.132 168.847L148.675 169.226C148.216 169.686 147.637 170.226 147.389 170.428L147.237 170.717C147.04 170.981 146.778 171.188 146.479 171.318L146.205 171.481C145.869 171.614 145.479 171.761 145.335 171.809C145.084 171.903 144.841 172.019 144.61 172.157C144.492 172.242 143.986 172.133 143.903 172.159L143.833 172.192L143.346 172.434C142.589 172.521 141.828 172.558 141.067 172.545L140.703 172.713C140.433 172.84 140.152 172.565 139.898 172.766C139.764 172.872 139.376 172.685 139.106 172.642C138.98 172.619 138.852 172.616 138.725 172.631C138.588 172.653 138.465 172.747 138.33 172.736C138.295 172.732 138.289 172.683 138.278 172.628C138.263 172.544 138.237 172.443 138.08 172.475C137.924 172.507 137.734 172.155 137.608 172.435L136.446 172.302L135.968 172.216C135.455 172.039 134.629 171.781 134.13 171.642L133.683 171.576C133.433 171.533 133.195 171.435 132.985 171.291C132.622 171.115 132.248 170.965 131.865 170.842C131.548 170.709 131.185 170.632 131.031 170.231C131.01 170.179 130.931 170.139 130.88 170.092L130.555 169.806C130.077 169.516 129.645 169.151 129.277 168.726L128.979 168.42L128.679 168.111C128.407 167.789 128.119 167.482 127.816 167.19C127.598 166.795 127.405 166.387 127.236 165.967C126.909 165.16 126.668 164.319 126.519 163.458L126.726 163.132L126.897 162.866C126.86 162.496 126.874 162.123 126.94 161.757L127.003 161.488C127.072 161.193 127.162 160.903 127.243 160.614C127.267 160.535 127.349 160.46 127.33 160.389C127.254 160.219 127.187 160.046 127.13 159.869C127.107 159.709 127.446 159.771 127.355 159.484C127.309 159.346 127.442 159.174 127.511 159.032C127.658 158.667 127.848 158.322 128.076 158.003L128.361 157.676C128.747 157.379 129.587 156.827 130.227 156.45L130.805 156.107L131.231 155.855C131.825 155.821 132.418 155.751 133.005 155.644L133.395 155.757L133.733 155.855C134.163 155.76 134.603 155.73 135.041 155.766C135.571 155.81 136.102 155.825 136.634 155.814C136.87 155.799 137.5 155.881 137.519 155.728C137.538 155.575 138.154 155.96 138.471 156.04C138.789 156.12 140.567 155.943 141.873 156.113L143.06 156.346C144.529 156.635 145.997 157.005 147.464 157.35L147.727 157.413C148.014 157.532 148.051 157.179 147.808 156.624C147.223 155.542 146.573 154.496 145.864 153.494L145.407 152.912L145.141 152.573C144.802 152.329 144.495 152.042 144.227 151.719C144.106 151.533 143.479 151.096 143.355 150.946L143.279 150.792C143.237 150.706 143.157 150.701 143.078 150.699C142.976 150.694 142.876 150.692 142.859 150.525C142.851 150.501 142.839 150.479 142.823 150.46C142.807 150.442 142.788 150.426 142.766 150.415C142.652 150.368 141.761 149.789 141.66 149.711C141.581 149.649 141.459 149.638 141.392 149.571C141.041 149.217 140.355 149.274 140.257 148.599L140.252 148.561C140.123 148.51 139.66 148.277 139.229 148.035C138.797 147.793 137.586 147.275 137.472 147.555L137.366 147.024L137.301 146.705C137.045 146.604 136.559 146.385 136.217 146.223C135.875 146.061 134.666 145.537 134.327 145.318L134.021 145.268C133.939 145.252 133.862 145.212 133.8 145.155C133.738 145.097 133.693 145.023 133.668 144.941C133.647 144.885 133.638 144.847 133.629 144.853L133.006 145.229C132.414 144.76 131.891 144.342 131.844 144.3C131.749 144.192 131.661 144.078 131.582 143.959C131.518 143.866 130.95 143.969 130.743 143.767C130.199 143.444 129.62 143.189 129.017 143.007L128.62 142.826C128.309 142.747 128.018 142.599 127.769 142.394C127.667 142.284 127.415 142.328 127.242 142.256L127.146 142.216C127.061 142.092 126.801 142.085 126.57 142.192L126.485 141.761C126.476 141.72 126.093 141.719 125.908 141.63L125.757 141.556C125.557 141.378 125.333 141.231 125.091 141.119L124.889 141.191C124.838 141.207 124.785 141.213 124.733 141.207C124.68 141.201 124.63 141.184 124.585 141.156C124.323 140.896 123.9 140.542 123.656 140.591L123.142 140.693C122.755 140.508 122.359 140.344 121.955 140.201L121.859 140.128C121.656 139.968 121.476 139.718 121.237 139.967C121.218 139.981 121.065 139.894 120.997 139.83C120.727 139.573 120.485 139.449 120.179 139.66C120.071 139.733 120.043 139.631 120.029 139.549C120.022 139.504 120.017 139.463 120.01 139.468L119.688 139.448C119.337 139.344 118.625 139.116 118.1 138.945L117.676 138.701L117.297 138.482C116.873 138.373 116.186 138.173 115.774 138.034L115.388 137.969C115.322 137.942 115.268 137.89 115.238 137.823C115.155 137.703 115.072 137.582 114.909 137.795C114.863 137.854 114.524 137.671 114.32 137.599L114.082 137.516C113.741 137.344 113.387 137.203 113.022 137.094C112.675 136.997 111.383 136.55 110.87 136.433C110.154 136.138 109.455 135.801 108.777 135.426C108.425 135.337 108.079 135.23 107.74 135.102C107.561 135.001 106.872 134.836 106.705 134.746C106.484 134.55 106.286 134.327 106.116 134.084C106.052 134.005 105.94 133.954 106.102 134.249L105.84 134.425C105.674 134.534 105.575 134.504 105.466 134.342C105.395 134.239 105.339 134.014 105.317 134.015L104.464 134.055C104.13 133.657 103.771 133.281 103.391 132.929C103.441 133.016 103.381 133.157 103.164 133.078C102.719 132.896 102.287 132.682 101.871 132.439L101.629 132.417L101.36 132.393C100.935 132.116 100.468 131.913 99.9775 131.793L99.5608 131.423L99.2672 131.164C99.1225 131.165 98.9797 131.132 98.85 131.067C98.7202 131.003 98.607 130.908 98.5189 130.791C98.4354 130.605 98.0186 130.367 97.9066 130.61L97.521 130.346C97.3503 130.234 97.1611 130.199 97.1065 129.965L97.0984 129.93C97.0142 129.896 96.4481 129.734 95.8391 129.568L95.5113 129.227C95.4382 129.145 95.3736 129.055 95.3186 128.96C95.2524 128.832 95.16 128.721 95.0476 128.634C94.8486 128.504 94.574 128.522 94.3343 128.461C94.0937 128.409 93.8575 128.338 93.6278 128.249L93.4668 128.181C93.3145 127.986 93.2006 127.762 93.1314 127.523L92.9225 127.739C92.8958 127.767 92.6551 127.607 92.5285 127.511L92.1329 127.217C91.8074 126.992 91.5134 126.723 91.2585 126.417C91.2545 126.309 91.236 126.201 91.2034 126.098C91.1731 126.1 91.1441 126.111 91.1192 126.129C91.0944 126.147 91.0747 126.171 91.0622 126.2C91.0306 126.272 90.8832 126.483 90.8289 126.455C90.7034 126.257 90.6106 126.039 90.5541 125.81L90.2423 126.078C90.1364 126.042 90.0438 125.975 89.9769 125.884C89.9634 125.617 89.7738 125.725 89.6677 125.656C89.623 125.611 89.5945 125.552 89.5863 125.488C89.5741 125.43 89.5502 125.375 89.5159 125.326L89.4386 125.236C89.3081 125.182 89.0401 125.091 88.8429 125.033C88.3896 124.87 87.9627 124.64 87.5759 124.349L87.2338 124.283C87.072 124.263 86.9197 124.195 86.7958 124.087C86.6719 123.979 86.5819 123.836 86.5365 123.676C86.5247 123.655 86.5088 123.636 86.4897 123.621C86.4706 123.606 86.4487 123.595 86.4254 123.589L85.8064 123.667C85.474 123.147 85.2768 122.77 85.3653 122.827C85.4539 122.884 85.7131 122.968 85.5882 122.789L85.5883 122.694C85.585 122.403 85.3686 122.549 85.2773 122.473C85.1138 122.341 85.0029 122.445 84.8956 122.428L84.5936 122.378C84.1471 122.154 83.9657 121.962 84.1899 121.951L84.2573 121.903L84.3129 121.862C84.309 121.792 84.2874 121.724 84.2504 121.664C84.2133 121.605 84.1619 121.556 84.1011 121.523L84.0358 121.549L83.5416 121.74C83.1482 121.44 82.6929 121.102 82.5228 120.992L82.4728 120.902L82.2919 120.577C82.011 120.425 81.7213 120.29 81.4244 120.174C81.2636 120.12 80.9894 119.655 80.8841 119.597C80.7356 119.471 80.58 119.353 80.4182 119.245C80.3378 119.236 80.0488 119.125 80.0076 119.019C79.9086 118.806 79.7683 118.616 79.5953 118.461C79.197 118.269 78.786 118.107 78.3652 117.974L78.1758 117.742L77.7696 117.246C77.203 116.989 76.6884 116.626 76.2512 116.177L75.9853 115.894L75.8343 115.734C75.5677 115.596 75.3261 115.412 75.1199 115.191C74.7378 114.888 74.3205 114.635 73.8772 114.436L73.8043 114.169L73.7272 113.884C73.5564 113.768 73.3713 113.675 73.1766 113.608L73.169 113.585C73.0155 113.248 72.7691 112.963 72.4597 112.767C72.235 112.611 72.037 112.418 71.8735 112.197L71.7541 112.012C71.6756 111.777 71.5326 111.58 71.4378 111.575C71.1335 111.452 70.8777 111.23 70.7094 110.943C70.5448 110.608 69.5046 109.295 68.9662 108.543L68.5078 107.854C68.3213 107.573 68.1877 107.252 67.9892 106.955L67.7718 106.623C67.6898 106.177 67.5927 105.642 67.5579 105.432C67.5067 105.144 67.4728 104.853 67.4566 104.561C67.473 104.498 67.6702 104.312 67.7112 104.23C67.7521 104.148 67.4584 103.726 67.3741 103.613L67.3947 103.589L67.5926 103.351C67.5161 103.201 67.4092 103.07 67.279 102.966C67.1487 102.862 66.9982 102.788 66.8373 102.748C66.6207 102.705 66.2997 102.238 66.1032 101.939C66.0534 101.86 65.9992 101.784 65.9406 101.711C65.6649 101.52 65.4257 101.279 65.2348 101.001L64.8807 100.982L64.8299 100.978C64.7688 100.927 64.5681 100.793 64.3821 100.677C64.1326 100.458 63.9059 100.213 63.7057 99.9458C63.6602 99.8779 63.6187 99.8072 63.5816 99.7341C63.5443 99.6569 63.5003 99.5834 63.4502 99.5143C63.3931 99.4557 62.7573 98.9289 62.1987 98.4681L61.7317 98.0059C61.6224 97.8481 61.4787 97.7185 61.3119 97.6273C61.0653 97.5186 60.8649 97.3236 60.7468 97.0771L60.6599 96.8148C60.4703 96.6665 60.1734 96.4208 60.0037 96.2676L59.8524 96.1249C59.7076 95.9861 59.4499 95.8109 59.4533 95.6991L59.4653 95.3931C59.2543 95.3877 59.0439 95.3667 58.8362 95.33C58.7438 95.3111 58.6281 95.0639 58.5148 94.8216C58.4558 94.6839 58.3871 94.5508 58.3093 94.4234L58.1209 94.2485L57.9476 94.0885C57.7461 93.9685 57.5548 93.8316 57.3757 93.6791C57.2744 93.582 56.8797 93.1341 56.6872 92.9166L56.5133 92.718L56.2984 92.472C56.0717 92.1937 55.7943 91.8579 55.6818 91.7242C55.4232 91.491 55.1468 91.2792 54.8553 91.0908C54.6726 90.9746 54.1986 90.4413 53.916 90.2232C53.6335 90.0051 52.8594 88.7998 52.346 88.3463L52.0351 87.8303C51.999 87.777 51.9528 87.7318 51.8992 87.6972C51.8456 87.6626 51.7856 87.6393 51.7229 87.6288C51.6463 87.6216 51.5735 87.592 51.5131 87.5435C51.4528 87.495 51.4077 87.4296 51.3829 87.3553L51.3147 87.1327C51.1691 86.9284 50.9782 86.7623 50.7575 86.6481L50.6529 86.5829C50.4407 86.4508 50.1198 86.3384 50.3661 86.0295C50.3786 86.0205 50.2002 85.7881 50.1407 85.7873L49.7884 85.7925C49.5938 85.5295 49.4195 85.2515 49.2671 84.9607C49.1698 84.8376 49.0469 84.7384 48.907 84.6703C48.7822 84.6103 48.6698 84.5266 48.5758 84.4236C48.5227 84.2975 48.2657 83.8786 48.1616 83.8671C48.0576 83.8557 47.8191 83.7532 47.9439 83.6698C48.0687 83.5864 47.505 83.3032 47.3579 83.1612L47.2202 83.0259L46.8051 82.6202C46.3799 82.2507 46.0621 81.769 45.8858 81.227L45.5115 81.2547C45.4689 81.2635 45.4252 81.2629 45.3829 81.253C45.3407 81.2432 45.301 81.2242 45.2667 81.1973C45.2323 81.1705 45.204 81.1364 45.1836 81.0974C45.1632 81.0584 45.1513 81.0153 45.1485 80.9711C45.1333 80.8855 45.0922 80.8071 45.031 80.747C44.9168 80.6816 44.8173 80.5925 44.739 80.4854C44.6607 80.3782 44.6053 80.2554 44.5762 80.1248L44.5743 80.0825C44.4527 80.0188 44.3171 79.9875 44.1802 79.9914C44.0435 79.995 43.6815 79.4085 43.4948 79.1926L43.3108 79.0012C43.1299 78.8114 42.846 78.6904 42.8542 78.3803C42.8257 78.3192 42.7752 78.2719 42.7131 78.2483L42.1988 78.4103C42.0134 78.0604 41.8562 77.6955 41.7288 77.3192C41.4157 76.9829 41.0774 76.6723 40.7168 76.3901L40.6694 76.1676C40.6629 76.0982 40.6325 76.0336 40.5837 75.9851C40.5348 75.9367 40.4707 75.9076 40.4026 75.9031C40.3648 75.9021 40.3279 75.8927 40.294 75.8758C40.2602 75.859 40.2303 75.8349 40.2064 75.8051C40.0903 75.6171 39.9383 75.2791 39.8436 75.2772C39.7656 75.2746 39.6903 75.2477 39.6281 75.1999C39.5659 75.1522 39.5197 75.086 39.4957 75.0102C39.4644 74.9309 39.413 74.8617 39.3467 74.8098C39.17 74.6681 39.0326 74.4815 38.9485 74.2684L38.8527 74.0923C38.4802 73.8101 38.129 73.4997 37.8023 73.1634C37.4813 72.8323 36.5665 71.8436 36.4842 71.7062C36.4253 71.6214 36.36 71.5414 36.289 71.4669C36.2052 71.3819 36.1315 71.2871 36.0695 71.1843C35.8978 71.0121 35.7043 70.8641 35.4942 70.7441C35.2599 70.4627 35.0889 70.1319 34.9934 69.775L34.5453 69.8635L34.5261 69.867C34.3042 69.4873 34.0538 69.1259 33.7769 68.7862C33.472 68.4065 32.5049 67.3186 32.4019 67.143C32.2518 66.9579 32.0815 66.7909 31.8945 66.6452C31.8016 66.5535 31.4321 66.1397 31.2573 65.9085L31.1966 65.6843C31.1087 65.3675 31.1091 65.0964 30.6419 65.0391L30.468 65.0182C30.4226 64.9645 30.3765 64.9027 30.3289 64.8335C30.1592 64.5917 30.0264 64.3248 29.9351 64.0418V64.0418ZM77.4506 100.155C77.1114 100.166 76.7719 100.157 76.4338 100.129C76.3024 100.09 75.941 99.9199 75.9118 100.007C75.8826 100.093 75.2759 100.05 74.9471 100.024L74.6841 100.144C74.537 100.212 74.3356 100.33 74.2161 100.269C74.1366 100.211 74.0385 100.184 73.9407 100.195C73.8429 100.206 73.7523 100.253 73.6862 100.328C73.5101 100.469 73.1541 100.413 72.9952 100.564L72.7269 100.817C72.4111 100.665 72.2441 100.673 72.3485 100.828C72.4529 100.983 72.7031 101.457 72.8219 101.484C72.9407 101.512 73.3017 101.746 73.4361 101.769C73.5704 101.792 73.8786 102.266 74.1085 102.416C74.3384 102.565 75.1289 102.949 75.3465 103.138C75.5641 103.327 76.3429 103.427 76.4411 103.584L76.5709 103.674C76.6623 103.736 76.8221 103.661 76.9389 103.706C76.9711 103.719 76.9968 103.777 77.022 103.837C77.0472 103.896 77.069 103.95 77.0982 103.958L77.368 104.035C77.6459 104.077 77.9116 104.178 78.1476 104.333C78.6319 104.555 79.1334 104.736 79.647 104.874L80.0433 105.076L80.4255 105.271C80.6964 105.208 80.9634 105.285 81.0171 105.442L81.1021 105.486L81.2935 105.585C81.5242 105.638 82.0099 105.721 82.3727 105.769C82.7354 105.817 83.8798 106.171 84.1126 106.212L84.3182 106.284L84.5179 106.355C84.6562 106.33 84.7963 106.317 84.9365 106.317L84.9565 106.303C85.0047 106.276 85.0799 106.243 85.0756 106.204L85.0741 106.129C84.9892 105.985 84.8904 105.85 84.7791 105.726C84.5277 105.451 84.2434 105.209 83.9329 105.007L83.738 104.905L83.4979 104.78C83.1828 104.551 82.8922 104.289 82.6307 103.999L82.3342 103.833L82.1072 103.705C82.1058 103.467 82.0357 103.235 81.9059 103.038L81.8238 103.033L81.4111 103.006C81.1444 102.807 80.7444 102.497 80.5237 102.315L80.3072 102.187C80.0614 102.041 79.7168 101.97 79.9516 101.601C79.96 101.588 79.7725 101.373 79.71 101.377L79.4325 101.399C79.1493 101.462 78.9007 101.44 78.875 101.355C78.8492 101.27 78.8601 101.081 78.945 101.115C79.0298 101.149 79.083 101.131 78.7471 100.973C78.4111 100.814 77.5544 100.699 77.6252 100.574C77.6508 100.522 77.663 100.464 77.6606 100.405C77.6583 100.347 77.6414 100.29 77.6118 100.241C77.5936 100.214 77.5692 100.192 77.5406 100.177C77.5121 100.163 77.4804 100.155 77.4484 100.156L77.4506 100.155ZM147.123 162.875L146.65 162.679C146.449 162.595 146.256 162.488 146.051 162.414L145.768 162.314C145.827 162.505 145.782 162.599 145.666 162.523C145.357 162.347 145.033 162.199 144.698 162.081L144.512 162.234C144.245 162.453 143.946 162.18 143.668 162.19C143.393 162.172 143.12 162.125 142.855 162.049C142.585 162.015 142.318 161.962 142.056 161.888C141.613 161.695 141.113 161.688 140.663 161.868C140.491 161.95 140.387 162.046 140.203 161.83C140.057 161.658 139.945 161.689 139.82 161.815C139.786 161.849 139.584 161.689 139.499 161.71C139.415 161.731 139.36 161.956 139.337 161.946L138.894 161.739C138.467 161.838 137.98 161.937 137.813 161.96C137.645 161.982 136.661 161.823 136.003 161.732L135.411 161.833L134.965 161.909C134.43 161.8 133.965 161.813 133.927 161.939L133.876 161.937L133.77 161.936C133.497 161.874 133.213 161.886 132.945 161.971C132.62 162.054 131.61 162.384 131.401 162.468C131.012 162.656 130.644 162.885 130.303 163.154C130.103 163.346 130.433 164.266 130.478 164.378C130.583 164.576 130.748 164.735 130.948 164.831C131.126 164.878 131.772 165.282 132.165 165.474C132.558 165.665 133.872 166.269 134.231 166.368C135.079 166.549 135.935 166.687 136.796 166.78L137.409 167.117C137.444 167.136 137.506 167.063 137.561 167.065C137.814 167.079 138.174 167.217 138.302 167.101C138.596 166.841 138.814 167.311 139.057 167.233C139.097 167.22 139.194 167.309 139.223 167.293C139.649 167.048 140.195 167.276 140.656 167.193C141.129 167.107 141.57 166.94 142.062 166.886C142.479 166.84 142.89 166.741 143.285 166.591C143.643 166.455 144.043 166.424 144.402 166.27L144.725 166.132C145.049 166.085 145.367 165.997 145.67 165.869L145.661 165.805C145.603 165.422 145.722 165.372 146.071 165.588C146.121 165.619 146.304 165.455 146.373 165.347L146.429 165.262C146.562 165.059 146.712 164.869 146.879 164.694L147.22 164.638L147.474 164.6C147.676 164.373 147.914 164.181 148.177 164.033C148.325 163.977 148.284 163.434 148.369 163.323C148.379 163.311 148.377 163.297 148.367 163.282C147.985 163.056 147.56 162.918 147.12 162.876L147.123 162.875Z" fill="#FE6711"/>
</svg>
