<svg width="205" height="240" viewBox="0 0 205 240" fill="none" xmlns="http://www.w3.org/2000/svg">
<path d="M175.762 179.738C175.642 179.637 175.527 179.636 175.503 179.729C175.479 179.823 175.345 179.981 175.291 179.77C175.236 179.559 175.338 178.935 175.239 179.007C175.139 179.078 174.811 179.252 174.878 179.131C174.919 179.037 174.93 178.933 174.909 178.833C174.888 178.733 174.837 178.642 174.762 178.575C174.423 178.297 174.126 177.969 173.881 177.603L173.625 177.407C173.514 177.295 173.419 177.168 173.342 177.03C173.23 176.877 173.018 176.702 173.024 176.576C173.035 176.28 172.756 176.465 172.666 176.272L172.589 176.107C172.3 175.937 172.051 175.705 171.86 175.426L171.677 175.261C171.428 175.033 171.029 174.909 170.872 174.658L170.657 174.308C170.179 174.074 169.726 173.792 169.303 173.465L168.959 173.098C168.655 172.7 168.243 172.401 167.774 172.237C167.551 172.15 167.365 171.985 167.251 171.771C167.221 171.695 167.175 171.627 167.115 171.573C167.055 171.519 166.983 171.479 166.905 171.459C166.675 171.366 166.241 171.376 166.251 170.916C166.214 170.865 166.16 170.831 166.099 170.819C165.841 170.912 165.904 170.585 165.756 170.542C165.576 170.515 165.401 170.463 165.236 170.385L165.105 170.298C164.876 170.003 164.601 169.749 164.29 169.546C163.811 169.24 163.307 168.977 162.784 168.759L162.737 168.582C162.701 168.474 162.635 168.38 162.546 168.312C162.457 168.243 162.351 168.203 162.239 168.197C161.974 168.112 161.721 167.991 161.487 167.839C161.223 167.739 160.978 167.592 160.765 167.404C160.571 167.169 160.24 167.234 160.115 166.948C160.102 166.919 160.109 166.863 160.097 166.858C159.807 166.734 159.445 166.83 159.241 166.444L158.44 165.878L158.12 165.783C157.614 165.597 157.127 165.364 156.664 165.086L156.266 164.817C156.1 164.709 155.967 164.509 155.811 164.741C155.794 164.764 155.592 164.699 155.578 164.66L155.392 164.107C154.996 164.104 154.601 164.057 154.215 163.967C153.888 163.862 153.552 163.788 153.212 163.746C153.03 163.75 152.479 163.143 152.152 162.945C151.473 162.776 150.783 162.662 150.086 162.602L149.716 162.244L149.514 162.048C149.113 161.948 148.791 162.274 148.798 162.772L148.691 163.143C148.59 163.562 148.456 163.972 148.29 164.369C147.981 165.257 147.485 166.065 146.836 166.737L146.384 167.111C145.93 167.565 145.358 168.099 145.113 168.299L144.963 168.583C144.767 168.844 144.509 169.049 144.214 169.178L143.943 169.34C143.611 169.471 143.225 169.617 143.083 169.665C142.835 169.757 142.595 169.872 142.367 170.008C142.25 170.092 141.75 169.985 141.669 170.011L141.6 170.045L141.118 170.284C140.371 170.37 139.619 170.407 138.868 170.396L138.508 170.562C138.241 170.688 137.964 170.417 137.714 170.615C137.58 170.72 137.198 170.536 136.931 170.493C136.808 170.473 136.682 170.471 136.558 170.487C136.421 170.509 136.3 170.602 136.167 170.59C136.079 170.583 136.174 170.282 135.922 170.333C135.772 170.363 135.581 170.021 135.455 170.294L134.308 170.162L133.836 170.079C133.329 169.904 132.513 169.651 132.02 169.515L131.579 169.45C131.332 169.407 131.097 169.312 130.89 169.17C130.532 168.996 130.163 168.849 129.784 168.728C129.472 168.596 129.113 168.522 128.96 168.127C128.94 168.075 128.862 168.036 128.811 167.99L128.491 167.707C128.018 167.422 127.593 167.064 127.229 166.644L126.935 166.343L126.636 166.042C126.367 165.724 126.083 165.421 125.784 165.133C125.57 164.743 125.379 164.341 125.212 163.928C124.89 163.132 124.653 162.302 124.506 161.453L124.711 161.131L124.88 160.868C124.844 160.503 124.859 160.136 124.924 159.775L124.987 159.508C125.056 159.217 125.144 158.932 125.225 158.647C125.248 158.569 125.33 158.494 125.311 158.424C125.236 158.257 125.17 158.086 125.113 157.911C125.09 157.753 125.426 157.814 125.335 157.531C125.291 157.395 125.422 157.225 125.49 157.085C125.636 156.725 125.824 156.385 126.05 156.07L126.331 155.747C126.713 155.455 127.543 154.909 128.175 154.536L128.747 154.197L129.168 153.948C129.756 153.914 130.341 153.844 130.921 153.737L131.307 153.849L131.64 153.945C132.065 153.851 132.5 153.821 132.932 153.856C133.455 153.898 133.981 153.913 134.506 153.901C134.739 153.886 135.362 153.966 135.38 153.815C135.399 153.664 136.007 154.044 136.321 154.122C136.635 154.2 138.391 154.024 139.681 154.189L140.853 154.418C142.304 154.701 143.754 155.064 145.202 155.404L145.462 155.465C145.745 155.582 145.783 155.234 145.543 154.687C144.966 153.62 144.326 152.589 143.626 151.601L143.175 151.028L142.913 150.694C142.578 150.454 142.275 150.171 142.011 149.852C141.891 149.668 141.273 149.238 141.151 149.09L141.076 148.938C140.981 148.746 140.69 148.971 140.661 148.676C140.646 148.628 140.613 148.589 140.57 148.566C140.458 148.52 139.578 147.951 139.478 147.873C139.401 147.811 139.28 147.802 139.214 147.735C138.867 147.387 138.189 147.444 138.093 146.778L138.088 146.74C137.961 146.69 137.504 146.459 137.078 146.222C136.652 145.985 135.456 145.474 135.343 145.751L135.239 145.227L135.176 144.912C134.923 144.814 134.443 144.598 134.106 144.438C133.769 144.279 132.574 143.763 132.239 143.548L131.936 143.498C131.608 143.444 131.575 143.073 131.55 143.088L130.934 143.461C130.35 142.999 129.834 142.587 129.787 142.546C129.693 142.44 129.606 142.327 129.528 142.209C129.465 142.118 128.903 142.221 128.7 142.021C128.163 141.704 127.591 141.453 126.995 141.273L126.603 141.096C126.296 141.018 126.009 140.873 125.763 140.671C125.663 140.564 125.412 140.607 125.243 140.536L125.148 140.496C125.065 140.375 124.807 140.368 124.579 140.474L124.496 140.049C124.488 140.009 124.11 140.008 123.926 139.92L123.777 139.849C123.58 139.673 123.359 139.528 123.12 139.418L122.92 139.489C122.87 139.505 122.818 139.511 122.766 139.505C122.714 139.499 122.664 139.482 122.62 139.455C122.362 139.199 121.944 138.85 121.702 138.899L121.196 139C120.813 138.818 120.422 138.657 120.024 138.516L119.929 138.444C119.729 138.288 119.552 138.041 119.315 138.286C119.299 138.303 119.146 138.214 119.079 138.151C118.812 137.897 118.573 137.776 118.271 137.984C118.105 138.097 118.131 137.794 118.102 137.792L117.784 137.773C117.437 137.671 116.734 137.447 116.215 137.279L115.797 137.038L115.423 136.823C115.004 136.716 114.326 136.518 113.916 136.384L113.535 136.321C113.371 136.294 113.32 135.82 113.063 136.149C113.017 136.208 112.682 136.028 112.481 135.958L112.246 135.876C111.91 135.706 111.559 135.568 111.199 135.461C110.856 135.365 109.581 134.926 109.074 134.811C108.367 134.521 107.677 134.19 107.008 133.82C106.661 133.733 106.319 133.627 105.984 133.501C105.807 133.402 105.126 133.24 104.962 133.151C104.743 132.958 104.548 132.739 104.381 132.498C104.318 132.422 104.203 132.374 104.366 132.662L104.107 132.835C103.943 132.944 103.845 132.914 103.737 132.754C103.667 132.653 103.612 132.43 103.59 132.432L102.75 132.476C102.42 132.084 102.066 131.713 101.691 131.366C101.74 131.451 101.681 131.592 101.467 131.513C101.027 131.334 100.601 131.124 100.19 130.885L99.9524 130.864L99.6857 130.84C99.2664 130.567 98.8053 130.368 98.3211 130.249L97.9092 129.885L97.6201 129.629C97.4772 129.63 97.3362 129.598 97.2081 129.534C97.0801 129.471 96.9683 129.378 96.8814 129.263C96.7985 129.079 96.3871 128.845 96.2762 129.085L95.8956 128.825C95.7302 128.712 95.5407 128.681 95.4866 128.45L95.4785 128.416C95.3953 128.382 94.8369 128.223 94.2355 128.06L93.9119 127.724C93.7389 127.546 93.6446 127.261 93.4553 127.139C93.2661 127.017 92.9883 127.029 92.7509 126.97C92.5132 126.919 92.2799 126.849 92.0532 126.761L91.8944 126.694C91.7443 126.501 91.632 126.281 91.5637 126.045L91.3572 126.258C91.3308 126.286 91.0932 126.129 90.9676 126.035L90.5778 125.744C90.2565 125.523 89.9663 125.258 89.715 124.957C89.7111 124.849 89.6928 124.743 89.6604 124.641C89.6307 124.644 89.6022 124.654 89.5778 124.672C89.5534 124.689 89.5339 124.713 89.5215 124.741C89.4898 124.812 89.3444 125.021 89.2904 124.993C89.1669 124.798 89.0757 124.583 89.0202 124.357L88.7119 124.622C88.6068 124.587 88.5149 124.521 88.4487 124.431C88.4359 124.167 88.2518 124.272 88.1446 124.206C88.0655 124.158 88.0742 123.969 87.9944 123.882L87.9176 123.793C87.7887 123.74 87.5248 123.65 87.329 123.593C86.8816 123.433 86.4604 123.206 86.0788 122.919L85.741 122.855C85.5811 122.835 85.4309 122.768 85.3087 122.662C85.1864 122.555 85.0975 122.415 85.0528 122.257C85.0414 122.236 85.0259 122.217 85.007 122.202C84.9882 122.187 84.9665 122.176 84.9433 122.17L84.3323 122.248C84.0051 121.735 83.8101 121.364 83.8975 121.42C83.9849 121.476 84.2413 121.559 84.1177 121.382L84.1179 121.288C84.1155 121.001 83.9021 121.146 83.8103 121.072C83.6489 120.942 83.5404 121.044 83.4333 121.027L83.1356 120.979C82.6948 120.759 82.5157 120.569 82.7372 120.558L82.8038 120.51L82.861 120.474C82.8572 120.404 82.836 120.337 82.7994 120.278C82.7627 120.219 82.7119 120.171 82.6517 120.139L82.5868 120.164L82.0973 120.353C81.7095 120.057 81.2597 119.724 81.0919 119.616L81.042 119.527L80.8636 119.207C80.5865 119.057 80.3004 118.924 80.0071 118.81C79.848 118.757 79.5786 118.299 79.4737 118.241C79.3275 118.117 79.1741 118.001 79.0142 117.895C78.9349 117.886 78.6495 117.777 78.6089 117.672C78.5111 117.463 78.3728 117.276 78.2022 117.123C77.8093 116.935 77.4038 116.775 76.9887 116.644L76.8019 116.415L76.4007 115.927C75.8414 115.673 75.3335 115.316 74.902 114.874L74.6397 114.595L74.4907 114.437C74.2277 114.301 73.9894 114.121 73.786 113.904C73.409 113.605 72.9968 113.355 72.5587 113.16L72.4872 112.896L72.4118 112.616C72.243 112.501 72.0602 112.409 71.8678 112.343L71.8603 112.321C71.6319 111.687 70.9245 111.478 70.5835 110.954L70.4662 110.773C70.3885 110.54 70.2479 110.347 70.1536 110.342C69.8532 110.221 69.6007 110.003 69.4347 109.72C69.2725 109.39 68.2471 108.095 67.7155 107.354L67.2795 106.666C67.0952 106.389 66.964 106.073 66.7683 105.781L66.5539 105.453C66.4734 105.013 66.3787 104.485 66.3439 104.279C66.2933 103.994 66.2601 103.707 66.2444 103.418C66.2611 103.357 66.4557 103.172 66.4962 103.092C66.5367 103.011 66.247 102.595 66.166 102.487L66.1864 102.462L66.3822 102.228C66.3068 102.08 66.2013 101.951 66.0728 101.848C65.9443 101.746 65.7956 101.673 65.6368 101.634C65.3413 101.576 64.8599 100.724 64.7503 100.613C64.4784 100.425 64.2424 100.188 64.0539 99.9132L63.7038 99.8941L63.653 99.8914C63.5927 99.8412 63.3944 99.7088 63.2108 99.5948C62.9647 99.3787 62.7413 99.1371 62.5437 98.8741C62.4761 98.7851 62.3479 98.5075 62.2913 98.4481C62.2348 98.3886 61.607 97.8718 61.0567 97.418L60.5959 96.9626C60.4878 96.8072 60.3458 96.6798 60.1809 96.5902C59.9378 96.4827 59.7404 96.2906 59.6235 96.0479L59.538 95.7892C59.3508 95.6432 59.0578 95.4011 58.8907 95.2508L58.7414 95.1103C58.5984 94.9736 58.3436 94.8004 58.3482 94.6903L58.3603 94.3884C58.1519 94.3837 57.9443 94.3634 57.739 94.3278C57.5903 94.2983 57.3727 93.6608 57.2181 93.436L57.0318 93.2631L56.8606 93.1055C56.6617 92.9871 56.473 92.8519 56.2964 92.7012C56.196 92.605 55.807 92.1642 55.6172 91.9498L55.4458 91.754L55.2337 91.5116C55.0105 91.2379 54.7369 90.906 54.6258 90.7753C54.3708 90.5453 54.098 90.3367 53.81 90.1514C53.6293 90.0363 53.1622 89.5114 52.8829 89.2959C52.6037 89.0804 51.8407 87.893 51.3344 87.4468L51.0281 86.938C50.8547 86.6509 50.4932 86.8236 50.3842 86.4703L50.3172 86.2507C50.1732 86.0496 49.9846 85.8862 49.7667 85.7737L49.6634 85.7096C49.4546 85.5791 49.1375 85.4696 49.3806 85.164C49.393 85.1551 49.217 84.9261 49.1577 84.9257L48.8099 84.9302C48.6177 84.6715 48.446 84.3976 48.2958 84.1112C48.2139 83.9343 47.6659 83.7084 47.6138 83.5829C47.5618 83.4575 47.3077 83.045 47.2054 83.0345C47.103 83.0239 46.8665 82.9228 46.9901 82.8394C47.1136 82.7559 46.5573 82.4788 46.4118 82.3383L46.2763 82.2056L45.8663 81.8053C45.4468 81.4415 45.1335 80.9668 44.9602 80.4325L44.59 80.4597C44.168 80.4904 44.2981 80.1034 44.1155 79.9588C44.0028 79.8944 43.9047 79.8066 43.8274 79.701C43.7502 79.5954 43.6955 79.4743 43.667 79.3455L43.6592 79.2977C43.5394 79.2349 43.4057 79.204 43.2706 79.2079C43.135 79.2121 42.778 78.6339 42.5938 78.421L42.4129 78.2321C42.2339 78.0455 41.9541 77.9259 41.9626 77.6201C41.9343 77.56 41.8845 77.5135 41.8234 77.49L41.3152 77.6504C41.1325 77.3054 40.9776 76.9456 40.8521 76.5745C40.5431 76.243 40.2091 75.9367 39.853 75.6585L39.807 75.4398C39.7301 75.0783 39.4529 75.2511 39.3496 75.082C39.235 74.8967 39.0853 74.5635 38.9913 74.561C38.6469 74.5489 38.6848 74.22 38.5011 74.1005C38.3268 73.9608 38.1914 73.7769 38.1082 73.5669L38.0143 73.3939C37.6463 73.1159 37.2996 72.8098 36.9773 72.4781C36.6606 72.1519 35.7581 71.1775 35.6763 71.0425C35.5946 70.9076 35.321 70.6534 35.2668 70.5276C35.0974 70.3578 34.9065 70.212 34.699 70.0939C34.4681 69.8165 34.2996 69.4904 34.2054 69.1384L33.7627 69.2263L33.7437 69.2297C33.525 68.8554 33.2783 68.499 33.0054 68.164C32.7053 67.7893 31.75 66.7181 31.6491 66.5445C31.5007 66.3623 31.3326 66.1979 31.1478 66.0545C31.0566 65.9648 30.6922 65.5559 30.5192 65.3285L30.46 65.1079C30.3741 64.7951 30.3741 64.5282 29.9127 64.4721L29.742 64.4519C29.5108 64.1683 29.3334 63.843 29.2188 63.4925L29.2392 63.2736L29.2788 62.8412C28.953 62.5956 28.578 62.3162 28.4444 62.2158C28.3108 62.1155 27.917 61.7887 27.9648 61.7065C27.989 61.5938 27.9855 61.477 27.9542 61.3666C27.923 61.2563 27.8652 61.156 27.7861 61.0746C27.5875 60.8985 27.599 60.1997 27.6817 60.3724C27.7738 60.5789 27.9008 60.7669 28.0567 60.9282C28.1158 60.9268 28.3613 60.8116 28.3324 60.6769L28.2521 60.5934C27.9762 60.3118 28.1663 60.1868 28.2899 60.004C28.395 59.8534 28.7156 59.9519 28.6703 59.6014L28.6446 59.4082C28.8446 59.1615 29.0627 58.9303 29.2966 58.7169C29.4896 58.5477 30.1128 59.0379 30.2293 59.1187C30.3459 59.1996 30.7862 59.5874 30.9972 59.7519C31.2081 59.9164 31.7765 60.6531 31.9796 60.7942C32.1828 60.9352 32.6716 61.6769 32.8541 61.8188C33.0698 62.0494 33.3076 62.2573 33.5642 62.4393C33.7447 62.4964 34.0765 63.2286 34.4062 63.5697C34.7359 63.9109 35.8811 65.0888 36.2068 65.4403C36.6529 65.9634 37.0698 66.5119 37.4555 67.0831L37.5741 67.1671L38.4288 67.7778C39.1698 68.6486 39.972 69.6017 40.2151 69.9042L40.4547 70.1641C40.7045 70.3709 40.9128 70.6248 41.0682 70.9124L41.1548 71.1216L41.9757 71.6818C42.1507 71.802 42.5903 72.4413 42.7735 72.564C42.9567 72.6867 43.3901 73.3934 43.6012 73.6186C44.0011 73.9894 44.4244 74.3332 44.8683 74.6477L44.8795 74.7689C44.9042 75.0424 45.1523 75.0124 45.2495 75.1578C45.3538 75.3186 45.4723 75.4692 45.6034 75.6079C45.7696 75.7785 45.9753 75.914 46.1325 76.0901C46.2548 76.2277 46.3186 76.5179 46.427 76.5466C46.8633 76.6722 46.9601 77.126 47.2935 77.3409C47.4899 77.4764 47.6705 77.6344 47.8316 77.8118L47.9743 77.959C48.1167 78.1501 48.2463 78.3508 48.3624 78.5597L48.5262 78.6636C48.633 78.7096 48.7273 78.781 48.8016 78.8717C48.8758 78.9624 48.9279 79.0699 48.9534 79.1855L48.9623 79.2549C49.3117 79.4174 49.6421 79.619 49.9473 79.8561C50.2564 80.2135 50.5194 80.6099 50.73 81.0359C50.757 81.0604 51.138 81.432 51.5178 81.8017C51.8976 82.1714 53.0239 83.3488 53.2046 83.566C53.3853 83.7832 53.9651 84.4948 54.0951 84.6624L54.2277 84.8029C54.4462 85.036 54.7761 85.1128 54.9562 85.4325C55.1087 85.7039 55.5126 85.8013 55.6052 86.1617L55.6961 86.5167C56.0236 86.7886 56.3344 87.0806 56.6269 87.3911C56.8266 87.6144 57.7548 88.4363 58.1175 88.8108C58.4802 89.1853 59.5288 90.2576 59.6562 90.3381C59.8421 90.503 60.0042 90.6938 60.1381 90.9049C60.2087 91.0263 60.8444 91.337 61.1872 91.5993C61.6181 92.0805 62.0175 92.5901 62.383 93.1248L62.534 93.2586L63.8655 94.4351C65.3326 95.7255 66.7075 96.9972 66.9214 97.2598L67.2717 97.232C67.3505 97.2258 67.5092 97.3774 67.5709 97.4846C67.6595 97.6362 67.5963 97.899 67.8816 97.8882L68.2004 97.8765C68.5221 97.8332 68.8173 97.6687 69.0281 97.4154L69.2874 97.3896C69.3372 97.3855 69.3371 97.231 69.3797 97.16L69.4852 96.9846C69.5603 97.1113 69.6802 97.2034 69.8203 97.2422L69.848 97.2035L69.9107 97.1134C70.0399 96.9268 70.2238 96.7867 70.4354 96.7134C70.6815 96.6108 71.5386 96.6073 71.7506 96.831L71.9401 96.6287C72.0228 96.5482 72.1222 96.4877 72.2307 96.4518C72.3392 96.4159 72.454 96.4055 72.5666 96.4214L72.6437 96.422C72.7732 96.2747 72.8874 96.1141 72.9846 95.9429L73.288 96.0445L73.3706 96.072C73.4678 96.0469 73.7473 96.0008 73.9926 95.9682C74.3678 96.0275 74.7298 96.1516 75.063 96.3353L75.1477 96.3539L75.2386 96.3746C75.3999 96.3511 75.5591 96.3128 75.714 96.2603C75.8784 96.2054 76.3034 96.2099 76.3588 96.4837L76.6605 96.2016L76.7853 96.0835C76.8654 96.0664 76.9482 96.0673 77.0277 96.0862C77.1071 96.1051 77.1814 96.1415 77.2454 96.1928C77.5375 96.3943 77.8533 96.5577 78.1856 96.6792C78.5649 96.8281 79.7555 97.2651 79.9922 97.381C80.4819 97.6666 80.9569 97.9775 81.4155 98.3124C81.7582 98.5665 83.0818 99.3178 83.4941 99.6059L83.7704 99.9864L83.9411 100.221C84.1992 100.403 84.6413 100.756 84.9229 101.005L85.1789 101.23C85.4347 101.456 85.6922 101.682 85.9475 101.908C86.0025 101.944 86.049 101.993 86.0836 102.049C86.1511 102.282 86.0553 102.556 86.4914 102.642C86.6327 102.671 86.7165 103.042 86.9197 103.242C87.2782 103.594 87.3409 104.152 87.7962 104.471C87.8136 104.483 87.7818 104.576 87.7725 104.629C87.7645 104.766 87.7368 104.901 87.6904 105.029L87.5529 105.283C87.7629 105.388 87.8421 105.503 87.7291 105.539L87.7134 105.651C87.6892 105.817 87.6929 105.991 87.6848 106.162L87.5155 106.734L87.3977 106.831C87.3375 106.988 87.2182 107.345 87.1317 107.624L87.0455 107.88C86.9888 108.116 86.9137 108.347 86.8206 108.571C86.6185 108.957 86.3904 109.329 86.1383 109.684L85.9962 109.88C85.8183 110.028 85.6167 110.144 85.4003 110.222C85.1731 110.212 84.9476 110.18 84.727 110.125C84.474 110.09 84.216 110.127 83.9806 110.23L83.8108 110.269C83.614 110.318 83.3715 110.015 83.163 110.248L83.059 110.366C82.9696 110.204 82.8465 110.065 82.6981 109.959C82.4605 109.876 82.2175 109.811 81.9709 109.762L81.8017 109.692L81.6312 109.621C81.4353 109.5 81.2208 109.465 81.1541 109.544C81.0875 109.623 80.7789 109.795 80.6665 109.697C80.5542 109.598 80.2128 109.352 80.2185 109.425C80.2242 109.498 80.1851 109.645 80.1288 109.649L80.0825 109.626C80.0221 109.594 79.9696 109.549 79.9286 109.493C79.5798 109.017 79.1618 109.184 78.774 109.176C78.4879 109.17 78.4511 109.177 78.4995 108.874L78.5565 108.528C78.3853 108.612 78.22 108.62 78.1896 108.546C78.1593 108.472 77.9499 108.324 77.9376 108.392L77.9422 108.455L77.9699 108.804C77.731 108.732 77.1167 108.546 76.605 108.389L76.1413 108.238C75.99 108.206 75.8484 108.139 75.7283 108.04C75.4932 107.819 75.2096 107.659 74.9009 107.573L74.6928 107.485C74.5936 107.358 74.4655 107.257 74.3196 107.192L74.258 107.196C74.18 107.201 74.0699 107.26 74.0341 107.226C73.6495 106.951 73.2352 106.722 72.7991 106.543L72.4208 106.332C72.0089 106.044 71.4194 105.655 71.1111 105.467L70.8378 105.363C70.6063 105.273 70.4613 105.278 70.385 104.982L70.3338 104.783C70.2248 104.764 70.1212 104.721 70.0303 104.658C69.9395 104.594 69.8636 104.51 69.8079 104.413C69.7822 104.279 69.4098 104.325 69.3152 104.354C69.2206 104.383 68.9561 104.024 68.7943 103.865L68.5899 103.963L68.5429 103.986C68.4428 103.974 68.4995 104.111 68.662 104.293C68.8808 104.597 69.1567 104.852 69.4738 105.045L69.5442 105.31C69.6029 105.55 69.6938 105.781 69.8146 105.995L69.9261 106.182C70.1203 106.371 70.3492 106.517 70.5999 106.614C70.7884 106.672 71.4358 107.65 72.0955 108.231C72.7553 108.812 74.5974 110.438 74.679 110.62C74.7607 110.802 75.3662 110.894 75.5013 110.943C75.6363 110.992 76.0659 111.611 76.3387 111.845L76.6314 112.002L76.9556 112.18C77.3272 112.453 77.7149 112.703 78.1167 112.928L78.2588 113.228L78.3251 113.367C78.3116 113.548 78.4426 113.564 78.6165 113.402L78.8324 113.724L79.0408 114.027C79.4543 114.286 79.8458 114.579 80.2112 114.905L80.6302 114.959L80.7743 114.978C81.0608 115.362 81.3958 115.705 81.7709 115.998C82.1453 116.29 83.2538 116.802 83.2344 116.864C83.2315 116.918 83.2482 116.971 83.2811 117.012C83.3141 117.054 83.361 117.082 83.413 117.09C83.5439 117.11 83.9384 117.268 84.2106 117.31L84.231 117.398C84.3198 117.795 84.6413 117.874 84.9122 118.038L84.9454 118.058C85.0847 118.247 85.2708 118.394 85.4847 118.485C85.777 118.642 86.7535 119.256 87.0351 119.415C87.481 119.668 87.8762 120.005 88.2003 120.407L88.521 120.291C88.6513 120.243 88.9211 120.408 89.1033 120.527C89.2997 120.654 89.4616 120.842 89.6478 120.991C89.7185 121.052 89.8076 121.087 89.9006 121.09C90.0467 121.072 90.1942 121.096 90.3276 121.157C90.461 121.219 90.575 121.317 90.6576 121.44L90.888 121.719C91.4573 121.955 92.0079 122.236 92.5349 122.558C93.1149 122.906 95.2083 124.014 95.8439 124.365L96.4144 124.703C96.7839 124.996 97.223 125.184 97.6879 125.249C97.7771 125.262 97.8603 125.302 97.9277 125.363C97.9088 125.688 98.1978 125.655 98.3512 125.72C98.8009 125.863 99.2256 126.077 99.6099 126.354L99.906 126.596C100.338 126.672 100.756 126.813 101.147 127.013C101.595 127.23 102.059 127.412 102.536 127.555C102.798 127.629 103.584 128.034 103.791 128.125C103.999 128.215 105.371 128.766 106.4 129.191L107.337 129.575C107.442 129.636 107.558 129.678 107.679 129.697L108.018 129.685C108.317 129.82 108.625 129.93 108.94 130.016C109.102 130.048 109.633 130.369 109.795 130.412L109.942 130.415C110.069 130.4 110.198 130.414 110.318 130.457C110.439 130.499 110.548 130.569 110.639 130.661C110.762 130.753 110.905 130.814 111.056 130.838C111.267 130.866 111.474 130.919 111.672 130.997L112.405 131.434C113.136 131.56 113.859 131.735 114.567 131.959C115.086 132.126 115.613 132.265 116.147 132.376C116.436 132.485 116.719 132.608 116.995 132.745C117.375 132.885 117.764 132.999 118.159 133.086L118.459 133.138C118.552 133.155 118.637 133.203 118.701 133.273L118.883 133.512C119.15 133.575 119.992 133.841 120.753 134.104L121.401 134.509C121.426 134.524 121.461 134.515 121.49 134.525L121.952 134.684C122.403 134.873 122.867 135.032 123.34 135.158C123.598 135.211 124.571 135.805 125.004 136.01C125.437 136.216 126.908 136.618 127.251 136.767C127.593 136.915 128.942 137.573 129.498 137.874L130.003 137.991L130.431 138.09C130.752 138.322 131.098 138.514 131.463 138.664C131.666 138.725 132.6 139.228 133.089 139.484L133.533 139.662C133.93 139.822 134.126 140.257 134.604 140.303C134.911 140.334 135.245 140.698 135.572 140.896C136.224 141.284 136.882 141.659 137.538 142.037L137.591 142.067C137.655 142.089 138.181 142.46 138.76 142.891L139.293 143.273C139.634 143.516 139.992 143.735 140.337 143.972C140.682 144.208 140.916 144.644 141.385 144.673C141.431 144.675 141.484 144.783 141.538 144.798C141.884 144.899 141.724 145.472 142.259 145.485L142.48 145.49C142.8 145.851 143.068 146.257 143.276 146.696L143.635 146.801L143.96 146.895C144.171 147.253 144.442 147.569 144.76 147.831L144.877 148.176C144.936 148.352 145.207 148.5 145.396 148.652L145.576 148.798C145.565 148.904 145.578 149.01 145.616 149.109C145.653 149.208 145.712 149.297 145.79 149.368L145.933 149.474C146.047 149.557 146.256 149.541 146.259 149.74C146.258 150.099 146.534 150.284 146.743 150.545C147.031 150.949 147.292 151.373 147.523 151.814L147.587 151.92C147.65 152.03 147.642 152.147 147.57 152.18C147.48 152.217 147.397 152.27 147.325 152.336C147.39 152.389 147.469 152.421 147.552 152.427C147.673 152.461 147.785 152.521 147.881 152.604C147.977 152.686 148.055 152.789 148.108 152.905L148.125 153.11L148.134 153.219C148.089 153.334 148.102 153.441 148.169 153.454C148.236 153.467 148.305 153.651 148.272 153.783C148.239 153.916 148.214 154.326 148.276 154.288C148.337 154.25 148.527 154.215 148.531 154.311C148.582 154.537 148.664 154.755 148.772 154.959L148.873 155.117C149.125 155.516 149.125 155.645 148.908 156.207L148.87 156.306C148.879 156.465 149.022 156.538 149.189 156.47L149.251 156.695L149.275 156.777C149.534 156.982 149.817 157.156 150.115 157.295L150.485 157.441L151.226 157.731C152.037 158.07 152.966 158.469 153.29 158.616C153.614 158.764 154.768 159.31 155.134 159.508C155.5 159.706 156.715 160.362 157.056 160.496C157.396 160.63 158.312 161.292 158.487 161.338L158.587 161.436L158.948 161.788C159.408 162.054 160.145 162.494 160.581 162.765C161.016 163.037 162.337 163.939 162.605 164.05L162.762 164.222L162.941 164.419C163.178 164.576 163.485 164.76 163.623 164.827C163.76 164.895 164.831 165.624 165.758 166.214L166.428 166.984L166.62 167.204C166.926 167.426 167.247 167.625 167.582 167.797L167.807 167.976C168.072 168.189 168.321 168.425 168.578 168.651L168.81 168.853C169.163 169.176 169.489 169.527 169.786 169.904L170.209 170.126L170.538 170.3C170.827 170.709 171.154 171.183 171.265 171.356C171.55 171.625 171.818 171.912 172.069 172.215L172.427 172.162L172.465 172.156C172.63 172.291 172.786 172.437 172.931 172.594C173.159 172.992 173.364 173.404 173.545 173.826L173.65 173.997L173.807 174.258C173.966 174.125 174.147 174.091 174.211 174.187C174.274 174.283 174.496 174.785 174.627 175.086L174.575 175.293L174.462 175.736C174.841 175.76 175.199 175.92 175.473 176.186L175.391 176.543C175.39 176.589 175.4 176.634 175.42 176.676C175.439 176.718 175.467 176.754 175.502 176.783C175.976 177.021 175.79 177.453 175.972 177.776C176.01 177.842 175.966 178.023 175.921 178.03C175.771 178.052 175.694 178.07 175.848 178.227C175.929 178.289 176.005 178.358 176.073 178.434C176.139 178.538 176.141 178.68 176.214 178.774C176.381 178.973 176.29 179.101 176.14 179.092L175.783 179.069C175.899 179.283 175.997 179.508 176.075 179.741C176.122 179.9 176.455 180.359 176.396 180.591L176.343 180.802C176.276 181.064 176.008 181.062 175.8 181.123L175.768 181.132C175.643 180.813 175.625 180.461 175.717 180.129L175.771 179.765L175.762 179.738ZM143.524 160.305C143.582 160.493 143.537 160.586 143.423 160.511C143.118 160.337 142.798 160.192 142.467 160.076L142.283 160.227C142.02 160.443 141.724 160.174 141.45 160.185C141.178 160.167 140.909 160.12 140.647 160.046C140.381 160.013 140.117 159.961 139.859 159.889C139.421 159.699 138.927 159.693 138.482 159.871C138.314 159.953 138.209 160.047 138.028 159.834C137.884 159.664 137.774 159.694 137.649 159.82C137.616 159.854 137.417 159.695 137.333 159.716C137.25 159.737 137.194 159.96 137.172 159.949L136.735 159.746C136.312 159.843 135.832 159.941 135.666 159.964C135.5 159.987 134.528 159.831 133.879 159.742L133.294 159.842L132.853 159.917C132.325 159.81 131.865 159.823 131.828 159.948L131.778 159.948L131.672 159.946C131.403 159.886 131.122 159.898 130.858 159.981C130.536 160.064 129.537 160.39 129.332 160.473C128.948 160.658 128.583 160.886 128.246 161.151C128.049 161.341 128.373 162.247 128.418 162.358C128.522 162.554 128.684 162.711 128.881 162.806C129.057 162.851 129.695 163.249 130.083 163.438C130.47 163.627 131.768 164.22 132.123 164.318C132.959 164.496 133.805 164.63 134.655 164.721L135.261 165.053C135.295 165.072 135.357 164.999 135.411 165.002C135.66 165.016 136.016 165.152 136.142 165.036C136.433 164.781 136.648 165.244 136.889 165.166C136.928 165.153 137.024 165.241 137.052 165.225C137.473 164.982 138.013 165.207 138.468 165.124C138.936 165.039 139.371 164.874 139.857 164.821C140.27 164.774 140.676 164.676 141.065 164.527C141.42 164.393 141.815 164.362 142.169 164.209L142.489 164.072C142.808 164.027 143.121 163.94 143.419 163.814L143.41 163.751C143.355 163.374 143.472 163.324 143.816 163.536C143.866 163.566 144.046 163.406 144.114 163.298L144.17 163.214C144.301 163.013 144.45 162.825 144.615 162.652L144.951 162.597L145.203 162.559C145.402 162.334 145.637 162.145 145.897 161.998C146.043 161.943 146.003 161.408 146.088 161.298C146.172 161.188 145.366 160.921 144.848 160.862L144.382 160.668C144.184 160.585 143.993 160.48 143.791 160.408L143.524 160.305ZM71.4464 99.7267C71.1353 99.5763 70.9694 99.5845 71.0728 99.7376C71.1762 99.8907 71.422 100.357 71.5401 100.385C71.6583 100.413 72.0138 100.643 72.1465 100.665C72.2791 100.688 72.5834 101.156 72.8099 101.303C73.0363 101.449 73.8173 101.828 74.0321 102.014C74.2468 102.2 75.016 102.298 75.1122 102.453L75.2407 102.542C75.3304 102.603 75.4889 102.529 75.6042 102.574C75.6689 102.599 75.7015 102.802 75.7601 102.819L76.0256 102.894C76.3 102.935 76.5623 103.035 76.7953 103.187C77.2734 103.406 77.7686 103.584 78.2757 103.72L78.6669 103.918L79.0443 104.11C79.312 104.048 79.5756 104.124 79.629 104.279L79.7121 104.322L79.9017 104.421C80.1291 104.472 80.6087 104.553 80.9674 104.601C81.3261 104.649 82.4551 104.995 82.6848 105.036L82.8874 105.107L83.0847 105.176C83.221 105.151 83.3589 105.139 83.4971 105.138L83.5168 105.124C83.5641 105.097 83.6383 105.065 83.6348 105.027L83.6338 104.952C83.5501 104.81 83.4526 104.677 83.3429 104.555C83.0949 104.284 82.8144 104.046 82.5079 103.846L82.3154 103.746L82.0789 103.622C81.7683 103.397 81.4817 103.139 81.2238 102.853L80.9281 102.691L80.704 102.565C80.7029 102.33 80.634 102.102 80.5059 101.908L80.4254 101.902L80.0178 101.876C79.7539 101.68 79.3602 101.375 79.1414 101.196L78.9271 101.07C78.6844 100.927 78.3441 100.857 78.5765 100.493C78.5841 100.48 78.3998 100.268 78.3379 100.273L78.0637 100.295C77.784 100.358 77.5387 100.337 77.513 100.253C77.4872 100.168 77.4987 99.9821 77.5825 100.015C77.6663 100.049 77.7188 100.031 77.3872 99.8752C77.0555 99.7191 76.2094 99.607 76.2789 99.4838C76.3484 99.3606 76.327 99.0743 76.1057 99.0719C75.7705 99.083 75.4352 99.0746 75.1013 99.0468C74.9711 99.0078 74.6147 98.8413 74.5854 98.9262C74.556 99.011 73.9564 98.9704 73.6323 98.9447L73.3725 99.0636C73.2271 99.1301 73.0274 99.2479 72.9097 99.1867C72.8312 99.1289 72.7344 99.1029 72.6378 99.1138C72.5411 99.1247 72.4514 99.1717 72.3861 99.2457C72.2109 99.3843 71.8605 99.3297 71.7034 99.4786L71.4464 99.7267Z" fill="#6FB2A5"/>
<path d="M29.218 63.4199L29.2379 63.2022L29.2766 62.7694L28.4422 62.1432C28.3099 62.0446 27.9148 61.7155 27.9624 61.6334C27.9865 61.5208 27.9827 61.4041 27.9513 61.2938C27.92 61.1835 27.8623 61.083 27.7832 61.0016C27.6767 60.8574 27.6202 60.681 27.6224 60.4999C27.6142 60.3353 27.6374 60.2163 27.6768 60.3004C27.769 60.5069 27.896 60.6952 28.052 60.8566C28.111 60.8553 28.3563 60.7402 28.3269 60.605L28.2469 60.5221C27.9703 60.2406 28.1607 60.1155 28.284 59.933C28.3883 59.7818 28.7092 59.8813 28.6629 59.5314L28.6374 59.3389C28.8369 59.0924 29.0542 58.8615 29.2874 58.6482C29.4804 58.4799 30.1038 58.9696 30.2201 59.0516C30.3365 59.1337 30.7771 59.5208 30.9874 59.6859C31.1978 59.8511 31.7682 60.5879 31.9714 60.7292C32.1745 60.8704 32.6632 61.6118 32.8455 61.755C33.0614 61.9856 33.2994 62.1937 33.5558 62.3761C33.7245 62.5152 33.8611 62.6905 33.9561 62.8897C34.0847 63.1093 34.2331 63.316 34.3994 63.5073C34.7278 63.8507 35.8746 65.0277 36.2004 65.3795C36.6466 65.9031 37.0637 66.4519 37.4499 67.0233L37.5686 67.1073L38.4227 67.7193C39.164 68.5907 39.9671 69.545 40.2098 69.847L40.4491 70.1066C40.6992 70.3135 40.9077 70.568 41.0632 70.856L41.1495 71.0646C41.4261 71.2523 41.7949 71.5056 41.9711 71.6251C42.1473 71.7446 42.5859 72.3852 42.7686 72.5075C42.9513 72.6297 43.3856 73.3373 43.5973 73.5633C43.997 73.9344 44.4201 74.2783 44.864 74.593L44.875 74.7134C44.8804 74.7751 44.9032 74.8337 44.9408 74.882C44.9785 74.9303 45.0292 74.9662 45.0868 74.9853C45.1492 75.0103 45.2041 75.0514 45.2463 75.1046C45.3505 75.2653 45.4689 75.4158 45.6 75.5544C45.7668 75.7246 45.9725 75.8613 46.1297 76.0376C46.1829 76.1056 46.2269 76.1807 46.2609 76.2607C46.314 76.3714 46.3607 76.4755 46.4225 76.4956C46.8585 76.6218 46.956 77.0754 47.2892 77.2906C47.4858 77.4261 47.6664 77.5843 47.8273 77.7621L47.9696 77.9088C48.1125 78.0997 48.2426 78.3003 48.3588 78.5093L48.5229 78.614C48.6297 78.66 48.7244 78.7312 48.7987 78.822C48.873 78.9128 48.9249 79.0206 48.9503 79.1363L48.9593 79.2057C49.3087 79.3682 49.639 79.5701 49.9441 79.8078C50.1889 80.0619 50.3941 80.353 50.5524 80.671C50.6495 80.8456 50.7174 80.9776 50.7276 80.9871C50.7551 81.0123 51.1357 81.3836 51.516 81.7542C51.8963 82.1249 53.0229 83.3033 53.2033 83.52C53.3837 83.7367 53.965 84.4489 54.0945 84.617L54.2266 84.757C54.4451 84.9903 54.7743 85.0669 54.9551 85.3874C55.0323 85.5025 55.1312 85.6006 55.2461 85.6762C55.4124 85.7757 55.5389 85.9319 55.6038 86.1175L55.6944 86.4729C56.0221 86.7449 56.3331 87.0371 56.6255 87.3481C56.8263 87.5716 57.7534 88.3944 58.1161 88.7702C58.4788 89.1461 59.5278 90.2183 59.6552 90.2989C59.8409 90.4638 60.0029 90.6545 60.1369 90.8654C60.2069 90.9873 60.8428 91.2993 61.1858 91.5609C61.6169 92.0424 62.0165 92.5523 62.3823 93.0873L62.5329 93.2205L63.8657 94.3984C65.3326 95.6895 66.708 96.9632 66.9213 97.2264L67.2713 97.1991C67.351 97.1931 67.5081 97.3451 67.5705 97.4519C67.6586 97.604 67.5969 97.8669 67.8814 97.8557L68.1999 97.8445C68.5211 97.8012 68.8157 97.637 69.0258 97.384L69.2848 97.3585C69.3356 97.3547 69.3349 97.1996 69.3778 97.1293L69.4831 96.954C69.5584 97.0806 69.6781 97.1729 69.8181 97.2121L69.8469 97.1735L69.9088 97.0839C70.0376 96.898 70.2208 96.7584 70.4318 96.6853C70.6776 96.5831 71.5348 96.5808 71.7458 96.8045L71.9355 96.6021C72.0181 96.5217 72.1173 96.4614 72.2256 96.4256C72.334 96.3899 72.4487 96.3796 72.5612 96.3957L72.6384 96.3954C72.7677 96.2485 72.8818 96.0883 72.9788 95.9175L73.2814 96.0199L73.3645 96.0481C73.4622 96.0226 73.7409 95.9763 73.9857 95.9451C74.3609 96.0049 74.723 96.1296 75.0566 96.3136L75.1413 96.3322L75.2321 96.353C75.3933 96.3298 75.5522 96.2918 75.7068 96.2394C75.871 96.1848 76.295 96.1903 76.3513 96.4636L76.6529 96.1825L76.7773 96.0647C76.8573 96.0478 76.9398 96.0489 77.0192 96.068C77.0985 96.087 77.1727 96.1236 77.2366 96.175C77.5284 96.377 77.8442 96.5408 78.1764 96.6624C78.5556 96.8117 79.7459 97.2507 79.9825 97.3669C80.472 97.6532 80.9469 97.9646 81.4056 98.2997C81.7483 98.5541 83.0709 99.3072 83.4842 99.5959L83.7614 99.9763L83.9326 100.212C84.1901 100.394 84.6317 100.747 84.9133 100.996L85.1693 101.222C85.4262 101.448 85.6823 101.674 85.938 101.9C85.9932 101.936 86.0397 101.985 86.0742 102.042C86.1419 102.274 86.0472 102.548 86.4824 102.635C86.5601 102.65 86.621 102.769 86.6935 102.908C86.7493 103.028 86.8225 103.138 86.9105 103.235C87.0581 103.396 87.1795 103.58 87.2701 103.78C87.3843 104.049 87.5622 104.284 87.7877 104.464C87.804 104.476 87.7736 104.568 87.7644 104.622C87.7559 104.758 87.7281 104.893 87.6821 105.022L87.545 105.276C87.7555 105.381 87.8348 105.496 87.7213 105.532L87.7057 105.643C87.6819 105.81 87.6858 105.984 87.6778 106.155L87.5096 106.725L87.3925 106.822C87.3331 106.979 87.2138 107.336 87.1277 107.615L87.0424 107.871C86.9861 108.107 86.911 108.338 86.818 108.561C86.6166 108.947 86.3892 109.319 86.1375 109.674L85.9958 109.87C85.8183 110.018 85.6168 110.133 85.4005 110.21C85.1734 110.2 84.948 110.167 84.7277 110.112C84.4747 110.077 84.2168 110.114 83.9816 110.217L83.8119 110.256C83.6154 110.304 83.3734 110 83.1653 110.234L83.062 110.351C82.9728 110.19 82.8496 110.051 82.701 109.944C82.4638 109.861 82.2211 109.795 81.9748 109.746L81.8048 109.676L81.6342 109.605C81.4384 109.483 81.224 109.448 81.1571 109.526C81.0902 109.604 80.7829 109.778 80.6706 109.679C80.5583 109.58 80.2168 109.334 80.2232 109.406C80.2296 109.478 80.1901 109.626 80.1343 109.631L80.0882 109.608C80.0281 109.575 79.9757 109.53 79.9348 109.475C79.5857 108.998 79.1683 109.164 78.7809 109.155C78.495 109.15 78.4576 109.157 78.5063 108.854L78.5629 108.508C78.3927 108.591 78.2267 108.599 78.1969 108.525C78.1671 108.451 77.9572 108.302 77.9445 108.37L77.9492 108.433L77.9773 108.782C77.7379 108.71 77.1247 108.523 76.6133 108.365L76.1502 108.214C75.999 108.182 75.8576 108.114 75.7375 108.016C75.5022 107.795 75.2184 107.635 74.9097 107.548L74.7023 107.459C74.6028 107.333 74.4748 107.232 74.3291 107.166L74.2674 107.17C74.1889 107.175 74.0803 107.233 74.0439 107.2C73.6592 106.925 73.245 106.696 72.8091 106.516L72.4311 106.304C72.0186 106.017 71.4297 105.627 71.1208 105.439L70.8477 105.334C70.6169 105.244 70.4718 105.25 70.3948 104.953L70.3439 104.754C70.235 104.735 70.1315 104.692 70.0408 104.628C69.9501 104.564 69.8743 104.481 69.8187 104.383C69.7917 104.249 69.4208 104.295 69.3263 104.324C69.2318 104.353 68.9672 103.993 68.8054 103.834L68.602 103.931L68.5543 103.955C68.4539 103.943 68.5112 104.079 68.6738 104.262C68.8929 104.565 69.1688 104.821 69.4858 105.014L69.5566 105.279C69.6157 105.519 69.7068 105.749 69.8275 105.964L69.9397 106.151C70.1336 106.339 70.3624 106.486 70.6129 106.583C70.8017 106.642 71.4492 107.619 72.1085 108.201C72.7677 108.783 74.6101 110.41 74.6924 110.592C74.7746 110.775 75.3788 110.867 75.5142 110.916C75.6496 110.966 76.0797 111.586 76.3526 111.819L76.6456 111.977L76.9697 112.155C77.3399 112.429 77.7265 112.68 78.1271 112.906L78.2694 113.206L78.3359 113.345C78.3225 113.525 78.4529 113.542 78.6265 113.38L78.8426 113.702L79.0512 114.006C79.4649 114.265 79.8564 114.559 80.2219 114.885L80.6406 114.94L80.7844 114.96C81.0713 115.344 81.4066 115.687 81.7819 115.981C82.1556 116.274 83.2636 116.787 83.245 116.848C83.242 116.902 83.2586 116.955 83.2915 116.997C83.3243 117.038 83.3711 117.066 83.423 117.075C83.5534 117.094 83.9478 117.252 84.2201 117.296L84.24 117.384C84.3293 117.782 84.6512 117.86 84.9214 118.025L84.9546 118.045C85.0943 118.233 85.2803 118.381 85.4939 118.472C85.786 118.629 86.7602 119.242 87.0439 119.404C87.4897 119.658 87.885 119.995 88.2096 120.397L88.5299 120.282C88.6599 120.235 88.9301 120.4 89.1113 120.519C89.3002 120.664 89.4817 120.82 89.6553 120.984C89.726 121.045 89.8149 121.08 89.9078 121.083C90.0536 121.066 90.2011 121.09 90.3343 121.152C90.4675 121.214 90.5816 121.311 90.664 121.435L90.8946 121.714C91.4638 121.951 92.014 122.232 92.5407 122.554C93.1206 122.903 95.2141 124.013 95.8484 124.365L96.4187 124.703C96.7885 124.996 97.2274 125.185 97.6918 125.25C97.781 125.264 97.8643 125.303 97.9319 125.364C97.9134 125.689 98.2017 125.657 98.3551 125.721C98.8048 125.865 99.2295 126.079 99.6139 126.357L99.91 126.6C100.342 126.676 100.759 126.817 101.15 127.018C101.598 127.236 102.062 127.418 102.539 127.562C102.801 127.637 103.587 128.042 103.793 128.134C104 128.225 105.372 128.776 106.4 129.203L107.337 129.587C107.443 129.649 107.558 129.69 107.679 129.71L108.018 129.699C108.316 129.833 108.624 129.944 108.939 130.03C109.1 130.062 109.631 130.384 109.793 130.428L109.94 130.431C110.067 130.416 110.196 130.43 110.316 130.473C110.436 130.516 110.546 130.587 110.636 130.679C110.759 130.771 110.903 130.831 111.054 130.856C111.26 130.917 111.491 130.907 111.671 131.015L112.403 131.453C113.134 131.58 113.855 131.756 114.563 131.979C115.082 132.148 115.609 132.288 116.142 132.399C116.43 132.507 116.713 132.631 116.989 132.769C117.369 132.909 117.758 133.023 118.153 133.11L118.452 133.163C118.546 133.18 118.631 133.227 118.695 133.298L118.876 133.537C119.143 133.601 119.984 133.868 120.745 134.132L121.392 134.538C121.417 134.553 121.454 134.544 121.482 134.555L121.944 134.713C122.395 134.903 122.858 135.062 123.331 135.189C123.589 135.243 124.561 135.837 124.994 136.043C125.427 136.249 126.898 136.652 127.239 136.801C127.581 136.951 128.931 137.61 129.485 137.911L129.991 138.028L130.419 138.128C130.74 138.359 131.086 138.552 131.451 138.703C131.654 138.763 132.587 139.268 133.076 139.523L133.52 139.703C133.917 139.862 134.114 140.297 134.591 140.344C134.897 140.375 135.231 140.739 135.558 140.937C136.21 141.326 136.868 141.701 137.524 142.081L137.577 142.111C137.641 142.133 138.167 142.504 138.746 142.936L139.279 143.319C139.621 143.563 139.978 143.782 140.323 144.019C140.668 144.255 140.902 144.69 141.37 144.72C141.416 144.723 141.469 144.831 141.523 144.846C141.589 144.873 141.647 144.916 141.693 144.971C141.739 145.026 141.772 145.091 141.788 145.161C141.811 145.267 141.869 145.361 141.951 145.429C142.034 145.496 142.137 145.533 142.243 145.533L142.464 145.539C142.784 145.9 143.052 146.306 143.261 146.745L143.62 146.851L143.944 146.946C144.156 147.303 144.427 147.62 144.745 147.882L144.862 148.228C144.922 148.404 145.194 148.551 145.381 148.704L145.562 148.849C145.55 148.955 145.564 149.062 145.601 149.161C145.638 149.26 145.698 149.349 145.776 149.419L145.919 149.526C146.032 149.608 146.242 149.594 146.245 149.792C146.244 150.15 146.521 150.336 146.73 150.597C147.018 151.002 147.279 151.427 147.511 151.867L147.575 151.974C147.638 152.085 147.63 152.201 147.559 152.233C147.487 152.266 147.305 152.367 147.314 152.39C147.379 152.443 147.458 152.475 147.541 152.481C147.662 152.515 147.774 152.575 147.87 152.658C147.966 152.741 148.044 152.843 148.097 152.959L148.114 153.165L148.123 153.273C148.078 153.388 148.092 153.495 148.159 153.509C148.227 153.523 148.295 153.706 148.263 153.838C148.23 153.971 148.205 154.38 148.267 154.343C148.329 154.306 148.517 154.27 148.521 154.367C148.573 154.593 148.655 154.811 148.764 155.014L148.864 155.172C149.117 155.571 149.117 155.7 148.902 156.262L148.862 156.361C148.872 156.519 149.015 156.593 149.181 156.525L149.243 156.75L149.267 156.832C149.526 157.038 149.809 157.212 150.107 157.351L150.476 157.496L151.218 157.788C152.028 158.128 152.956 158.527 153.28 158.675C153.603 158.823 154.758 159.371 155.124 159.569C155.491 159.767 156.704 160.425 157.044 160.559C157.384 160.693 158.3 161.356 158.475 161.402L158.575 161.5L158.938 161.853C159.398 162.119 160.135 162.56 160.57 162.832C161.005 163.104 162.323 164.004 162.594 164.119L162.749 164.288L162.928 164.484C163.166 164.642 163.472 164.826 163.61 164.893C163.747 164.961 164.817 165.692 165.745 166.283L166.415 167.053L166.607 167.274C166.913 167.496 167.234 167.695 167.569 167.868L167.794 168.047C168.059 168.26 168.308 168.496 168.565 168.722L168.797 168.925C169.15 169.248 169.477 169.6 169.774 169.977L170.196 170.199L170.525 170.373C170.813 170.783 171.142 171.257 171.252 171.43C171.36 171.557 171.477 171.674 171.603 171.782C171.777 171.929 171.93 172.1 172.058 172.29L172.415 172.237L172.454 172.231C172.619 172.365 172.774 172.512 172.919 172.67C173.069 172.882 173.191 173.114 173.281 173.36C173.354 173.546 173.438 173.727 173.533 173.902L173.638 174.072L173.796 174.333C173.955 174.2 174.135 174.167 174.198 174.263C174.262 174.359 174.484 174.86 174.615 175.162L174.563 175.367L174.451 175.809C174.83 175.835 175.187 175.995 175.462 176.262L175.381 176.618C175.38 176.664 175.39 176.71 175.409 176.752C175.428 176.793 175.456 176.83 175.492 176.859C175.966 177.098 175.78 177.529 175.962 177.852C176 177.918 175.957 178.1 175.912 178.106C175.762 178.127 175.684 178.145 175.839 178.302C175.921 178.364 175.996 178.434 176.064 178.51C176.131 178.615 176.133 178.757 176.206 178.85C176.374 179.049 176.282 179.177 176.132 179.169L175.776 179.145C175.892 179.36 175.99 179.584 176.069 179.816C176.116 179.976 176.45 180.435 176.391 180.668L176.338 180.877C176.272 181.14 176.005 181.137 175.796 181.198L175.763 181.206C175.639 180.887 175.621 180.535 175.712 180.203L175.766 179.839L175.77 179.811C175.65 179.71 175.536 179.709 175.511 179.802C175.485 179.894 175.354 180.053 175.299 179.842C175.243 179.632 175.345 179.008 175.245 179.08C175.145 179.151 174.819 179.325 174.886 179.203C174.927 179.109 174.938 179.005 174.917 178.905C174.896 178.805 174.844 178.714 174.769 178.646C174.431 178.368 174.134 178.04 173.888 177.674L173.631 177.478C173.551 177.408 173.484 177.323 173.433 177.229C173.404 177.187 173.378 177.141 173.347 177.103C173.234 176.951 173.023 176.774 173.027 176.65C173.033 176.478 172.943 176.468 172.848 176.453C172.812 176.452 172.777 176.443 172.746 176.424C172.715 176.406 172.689 176.38 172.671 176.348L172.596 176.183C172.307 176.013 172.058 175.78 171.866 175.501L171.683 175.335C171.434 175.107 171.036 174.983 170.879 174.731L170.663 174.381C170.185 174.147 169.731 173.864 169.309 173.537L168.964 173.169C168.659 172.771 168.248 172.471 167.78 172.307C167.556 172.22 167.371 172.055 167.256 171.841C167.226 171.765 167.18 171.697 167.12 171.642C167.06 171.588 166.988 171.549 166.911 171.528C166.681 171.435 166.246 171.444 166.255 170.985C166.219 170.934 166.165 170.9 166.104 170.889C165.949 170.942 165.907 170.843 165.871 170.752C165.845 170.689 165.821 170.627 165.761 170.611C165.581 170.584 165.406 170.531 165.241 170.454L165.111 170.366C164.881 170.071 164.606 169.817 164.296 169.613C163.817 169.307 163.313 169.043 162.79 168.824L162.743 168.647C162.707 168.54 162.641 168.446 162.552 168.377C162.464 168.308 162.357 168.268 162.246 168.262C161.981 168.176 161.728 168.055 161.494 167.903C161.229 167.803 160.985 167.655 160.771 167.467C160.578 167.232 160.247 167.296 160.121 167.011C160.109 166.98 160.116 166.926 160.104 166.92C159.814 166.796 159.453 166.892 159.249 166.506L158.447 165.938L158.127 165.843C157.622 165.656 157.135 165.422 156.673 165.143L156.275 164.875C156.108 164.766 155.977 164.567 155.819 164.798C155.803 164.82 155.6 164.756 155.587 164.717L155.4 164.164C155.004 164.16 154.61 164.113 154.224 164.023C153.897 163.918 153.562 163.843 153.221 163.802C153.039 163.805 152.489 163.197 152.162 162.999C151.483 162.83 150.793 162.714 150.096 162.653L149.728 162.295L149.526 162.099C149.125 161.998 148.803 162.324 148.812 162.822L148.705 163.192C148.604 163.611 148.471 164.021 148.305 164.418C147.998 165.304 147.503 166.111 146.855 166.782L146.405 167.155C145.951 167.609 145.381 168.141 145.136 168.34L144.986 168.625C144.791 168.885 144.533 169.089 144.238 169.218L143.968 169.379C143.636 169.509 143.251 169.655 143.109 169.702C142.861 169.794 142.622 169.909 142.394 170.045C142.277 170.129 141.777 170.021 141.696 170.046L141.627 170.08L141.146 170.318C140.399 170.404 139.648 170.44 138.897 170.427L138.538 170.593C138.271 170.718 137.994 170.447 137.744 170.645C137.611 170.75 137.229 170.565 136.962 170.522C136.838 170.5 136.712 170.497 136.587 170.512C136.451 170.534 136.33 170.627 136.197 170.615C136.162 170.612 136.156 170.563 136.146 170.508C136.13 170.426 136.104 170.326 135.95 170.358C135.796 170.389 135.608 170.042 135.484 170.319L134.337 170.187L133.866 170.102C133.359 169.928 132.544 169.674 132.051 169.536L131.611 169.471C131.364 169.428 131.129 169.332 130.922 169.19C130.564 169.016 130.195 168.868 129.817 168.747C129.504 168.615 129.145 168.54 128.993 168.145C128.973 168.093 128.895 168.054 128.844 168.007L128.524 167.725C128.051 167.439 127.626 167.08 127.262 166.66L126.968 166.358L126.672 166.054C126.404 165.736 126.119 165.433 125.82 165.145C125.605 164.756 125.414 164.353 125.248 163.939C124.925 163.144 124.688 162.314 124.54 161.465L124.744 161.143L124.913 160.881C124.876 160.517 124.891 160.149 124.955 159.788L125.018 159.522C125.086 159.231 125.174 158.946 125.255 158.661C125.278 158.583 125.359 158.509 125.34 158.439C125.265 158.272 125.199 158.1 125.142 157.925C125.12 157.768 125.455 157.829 125.364 157.546C125.319 157.41 125.451 157.24 125.518 157.1C125.663 156.741 125.851 156.4 126.076 156.086L126.357 155.764C126.738 155.471 127.567 154.927 128.198 154.555L128.769 154.217L129.189 153.968C129.776 153.935 130.36 153.866 130.94 153.76L131.325 153.872L131.658 153.968C132.082 153.875 132.517 153.845 132.949 153.881C133.472 153.924 133.996 153.939 134.521 153.928C134.754 153.913 135.376 153.995 135.395 153.843C135.413 153.692 136.021 154.072 136.334 154.151C136.647 154.23 138.403 154.056 139.691 154.223L140.863 154.454C142.312 154.739 143.761 155.103 145.209 155.444L145.468 155.506C145.752 155.623 145.788 155.276 145.548 154.729C144.97 153.661 144.329 152.63 143.629 151.642L143.178 151.067L142.916 150.733C142.581 150.493 142.278 150.21 142.014 149.891C141.894 149.707 141.275 149.276 141.153 149.129L141.078 148.977C141.036 148.892 140.958 148.887 140.879 148.885C140.779 148.88 140.68 148.878 140.663 148.713C140.656 148.69 140.644 148.668 140.628 148.65C140.612 148.631 140.593 148.616 140.572 148.605C140.46 148.558 139.58 147.988 139.48 147.91C139.402 147.849 139.282 147.839 139.216 147.773C138.869 147.424 138.192 147.48 138.096 146.814L138.09 146.776C137.963 146.726 137.507 146.496 137.081 146.257C136.655 146.019 135.459 145.508 135.347 145.784L135.242 145.261L135.179 144.946C134.926 144.847 134.446 144.63 134.109 144.47C133.771 144.311 132.578 143.793 132.244 143.578L131.942 143.529C131.86 143.512 131.785 143.474 131.723 143.417C131.662 143.36 131.617 143.287 131.593 143.206C131.572 143.151 131.563 143.114 131.555 143.119L130.94 143.49C130.356 143.027 129.839 142.615 129.793 142.573C129.699 142.468 129.613 142.355 129.534 142.237C129.471 142.146 128.91 142.247 128.706 142.048C128.17 141.73 127.598 141.478 127.003 141.298L126.611 141.12C126.304 141.042 126.017 140.896 125.771 140.694C125.671 140.586 125.422 140.628 125.252 140.558L125.157 140.518C125.073 140.396 124.816 140.389 124.588 140.495L124.504 140.069C124.496 140.029 124.118 140.028 123.935 139.94L123.786 139.868C123.589 139.692 123.367 139.546 123.128 139.436L122.929 139.507C122.879 139.523 122.827 139.529 122.775 139.523C122.723 139.517 122.674 139.5 122.629 139.473C122.37 139.216 121.953 138.867 121.712 138.916L121.205 139.016C120.823 138.834 120.432 138.672 120.033 138.531L119.939 138.458C119.738 138.301 119.561 138.055 119.325 138.3C119.306 138.314 119.156 138.228 119.089 138.165C118.822 137.911 118.583 137.789 118.281 137.997C118.174 138.069 118.147 137.969 118.133 137.888C118.126 137.843 118.121 137.803 118.114 137.808L117.797 137.788C117.45 137.686 116.747 137.46 116.229 137.292L115.811 137.051L115.436 136.835C115.018 136.727 114.341 136.53 113.934 136.393L113.553 136.329C113.488 136.302 113.435 136.251 113.405 136.185C113.323 136.066 113.241 135.947 113.081 136.157C113.035 136.215 112.7 136.035 112.499 135.964L112.264 135.882C111.928 135.713 111.578 135.573 111.218 135.466C110.875 135.37 109.6 134.929 109.094 134.814C108.388 134.523 107.698 134.191 107.028 133.82C106.682 133.733 106.34 133.627 106.006 133.501C105.829 133.401 105.149 133.239 104.984 133.15C104.766 132.956 104.571 132.737 104.403 132.496C104.34 132.419 104.229 132.369 104.389 132.659L104.13 132.833C103.967 132.941 103.869 132.911 103.761 132.751C103.692 132.649 103.636 132.428 103.614 132.429L102.773 132.468C102.443 132.076 102.089 131.705 101.714 131.357C101.763 131.443 101.704 131.583 101.489 131.504C101.05 131.325 100.624 131.114 100.213 130.874L99.975 130.853L99.7089 130.829C99.2899 130.556 98.829 130.356 98.3449 130.237L97.9336 129.872L97.6439 129.617C97.5011 129.618 97.3602 129.585 97.2321 129.521C97.1041 129.457 96.9924 129.364 96.9054 129.249C96.823 129.065 96.4117 128.83 96.3012 129.07L95.9206 128.81C95.7521 128.699 95.5655 128.665 95.5116 128.434L95.5036 128.4C95.4204 128.366 94.8618 128.206 94.2608 128.043L93.9372 127.706C93.8651 127.625 93.8013 127.537 93.7471 127.443C93.6818 127.317 93.5905 127.207 93.4796 127.121C93.2832 126.994 93.0123 127.011 92.7756 126.951C92.5382 126.899 92.3051 126.829 92.0784 126.741L91.9196 126.674C91.7693 126.482 91.6569 126.262 91.5885 126.025L91.3824 126.239C91.3561 126.266 91.1185 126.108 90.9935 126.014L90.6031 125.723C90.2819 125.502 89.9917 125.236 89.7402 124.935C89.7362 124.828 89.7179 124.722 89.6857 124.62C89.6559 124.623 89.6272 124.633 89.6027 124.651C89.5782 124.668 89.5588 124.693 89.5465 124.72C89.5153 124.792 89.3699 125 89.3163 124.973C89.1924 124.777 89.1008 124.562 89.0451 124.336L88.7373 124.6C88.6328 124.565 88.5415 124.499 88.4754 124.409C88.4621 124.146 88.275 124.252 88.1702 124.184C88.1262 124.14 88.098 124.082 88.0899 124.019C88.0779 123.961 88.0542 123.907 88.0204 123.859L87.9441 123.77C87.8153 123.716 87.5509 123.627 87.3563 123.57C86.909 123.409 86.4876 123.182 86.1059 122.895L85.7683 122.83C85.6086 122.81 85.4583 122.743 85.336 122.637C85.2138 122.53 85.1249 122.39 85.0801 122.232C85.0685 122.211 85.0528 122.192 85.0339 122.177C85.015 122.163 84.9935 122.152 84.9704 122.146L84.3597 122.223C84.0315 121.709 83.8369 121.338 83.9243 121.394C84.0116 121.45 84.2674 121.533 84.1442 121.356L84.1443 121.263C84.141 120.976 83.9274 121.12 83.8374 121.045C83.676 120.915 83.5666 121.017 83.4607 121L83.1627 120.952C82.7221 120.73 82.5429 120.541 82.7642 120.53L82.8307 120.482L82.8856 120.443C82.8817 120.373 82.8605 120.306 82.8239 120.247C82.7873 120.189 82.7365 120.141 82.6765 120.108L82.6121 120.134L82.1244 120.322C81.7362 120.026 81.2868 119.693 81.119 119.584L81.0697 119.495L80.8911 119.175C80.6139 119.025 80.328 118.892 80.0349 118.777C79.8763 118.725 79.6057 118.266 79.5018 118.208C79.3552 118.084 79.2017 117.968 79.0419 117.861C78.9626 117.852 78.6774 117.743 78.6367 117.638C78.539 117.428 78.4005 117.241 78.2298 117.088C77.8368 116.899 77.4311 116.739 77.0158 116.608L76.8289 116.379L76.428 115.89C75.8689 115.636 75.361 115.278 74.9295 114.836L74.6671 114.556L74.5181 114.398C74.2549 114.262 74.0165 114.081 73.813 113.864C73.4359 113.565 73.0241 113.315 72.5866 113.119L72.5146 112.855L72.4385 112.574C72.27 112.459 72.0873 112.368 71.8952 112.301L71.8876 112.28C71.7361 111.947 71.4929 111.666 71.1876 111.472C70.9658 111.319 70.7704 111.129 70.6091 110.91L70.4912 110.728C70.4138 110.496 70.2726 110.302 70.179 110.297C69.8787 110.175 69.6262 109.956 69.4601 109.674C69.2977 109.344 68.271 108.048 67.7397 107.307L67.2872 106.627C67.1032 106.35 66.9712 106.034 66.7754 105.741L66.5608 105.413C66.4799 104.974 66.384 104.446 66.3496 104.239C66.299 103.955 66.2656 103.668 66.2496 103.38C66.2657 103.318 66.4603 103.134 66.5007 103.054C66.5411 102.973 66.2512 102.557 66.168 102.445L66.1884 102.421L66.3836 102.187C66.3082 102.039 66.2026 101.91 66.0741 101.807C65.9455 101.704 65.797 101.631 65.6382 101.592C65.4245 101.549 65.1076 101.089 64.9136 100.795C64.8646 100.716 64.811 100.641 64.7532 100.569C64.4812 100.381 64.2451 100.144 64.0566 99.869L63.7072 99.8501L63.6571 99.8468C63.5967 99.7966 63.3987 99.6639 63.2151 99.5497C62.9689 99.3335 62.7452 99.0918 62.5476 98.8285C62.5026 98.7615 62.4617 98.6918 62.4251 98.6197C62.3883 98.5437 62.3449 98.4711 62.2954 98.403C62.239 98.3452 61.6116 97.8257 61.0603 97.3712L60.5993 96.9153C60.4914 96.7598 60.3497 96.632 60.1851 96.542C59.9417 96.4347 59.7439 96.2425 59.6273 95.9994L59.5416 95.7407C59.3544 95.5945 59.0614 95.3521 58.8939 95.2011L58.7447 95.0603C58.6017 94.9235 58.3473 94.7507 58.3508 94.6404L58.3625 94.3386C58.1543 94.3333 57.9467 94.3126 57.7417 94.2763C57.6505 94.2577 57.5363 94.0139 57.4245 93.7749C57.3662 93.6392 57.2985 93.5079 57.2216 93.3823L57.0358 93.2098L56.8646 93.052C56.6658 92.9337 56.477 92.7986 56.3003 92.6482C56.2003 92.5525 55.8107 92.1108 55.6208 91.8963L55.4492 91.7004L55.2371 91.4578C55.0133 91.1833 54.7395 90.8521 54.6285 90.7203C54.3733 90.4904 54.1005 90.2815 53.8128 90.0957C53.6325 89.981 53.1647 89.4551 52.8858 89.24C52.607 89.0249 51.843 87.8362 51.3363 87.389L51.0295 86.8801C50.9938 86.8276 50.9482 86.783 50.8953 86.7488C50.8424 86.7147 50.7832 86.6918 50.7213 86.6814C50.6457 86.6743 50.5739 86.6451 50.5143 86.5973C50.4548 86.5495 50.4102 86.485 50.3857 86.4117L50.3184 86.1921C50.1747 85.9907 49.9863 85.8269 49.7685 85.7142L49.6653 85.6499C49.4559 85.5197 49.1392 85.4087 49.3822 85.1042C49.3945 85.0953 49.2184 84.8661 49.1598 84.8653L48.8121 84.8704C48.62 84.6111 48.448 84.3369 48.2976 84.0501C48.2016 83.9287 48.0802 83.8309 47.9422 83.7637C47.8191 83.7045 47.7081 83.622 47.6153 83.5204C47.563 83.3961 47.3092 82.9829 47.2066 82.9716C47.1039 82.9604 46.8685 82.8592 46.9917 82.777C47.1148 82.6948 46.5585 82.4154 46.4134 82.2754L46.2774 82.1419L45.8677 81.7419C45.4481 81.3775 45.1344 80.9024 44.9604 80.3679L44.5911 80.3952C44.5491 80.4039 44.5059 80.4033 44.4642 80.3936C44.4225 80.3838 44.3834 80.3651 44.3494 80.3386C44.3155 80.3121 44.2876 80.2785 44.2675 80.2401C44.2474 80.2016 44.2356 80.1591 44.2328 80.1155C44.2178 80.0311 44.1773 79.9538 44.1169 79.8945C44.0041 79.8301 43.906 79.7422 43.8287 79.6365C43.7514 79.5308 43.6967 79.4097 43.668 79.2809L43.6661 79.2392C43.546 79.1764 43.4123 79.1455 43.2772 79.1494C43.1423 79.1529 42.785 78.5745 42.6007 78.3615L42.4191 78.1728C42.2406 77.9856 41.9604 77.8662 41.9685 77.5605C41.9404 77.5002 41.8905 77.4536 41.8292 77.4303L41.3217 77.59C41.1387 77.2449 40.9835 76.8851 40.8578 76.514C40.5488 76.1824 40.2149 75.876 39.859 75.5977L39.8123 75.3783C39.8058 75.3098 39.7758 75.2461 39.7276 75.1983C39.6794 75.1505 39.6161 75.1219 39.5489 75.1174C39.5116 75.1164 39.4751 75.1072 39.4417 75.0905C39.4084 75.0739 39.3788 75.0501 39.3553 75.0208C39.2407 74.8354 39.0907 74.5021 38.9972 74.5001C38.9202 74.4976 38.846 74.4711 38.7846 74.424C38.7232 74.3769 38.6776 74.3116 38.6538 74.2369C38.623 74.1587 38.5723 74.0904 38.5068 74.0392C38.3324 73.8995 38.1969 73.7155 38.1138 73.5053L38.0193 73.3316C37.6516 73.0533 37.305 72.7471 36.9825 72.4155C36.6658 72.089 35.7629 71.1139 35.6817 70.9784C35.6235 70.8948 35.5591 70.8159 35.489 70.7424C35.4063 70.6586 35.3336 70.5651 35.2724 70.4638C35.1029 70.2939 34.912 70.1479 34.7046 70.0296C34.4733 69.7521 34.3046 69.4259 34.2103 69.0739L33.7682 69.1611L33.7491 69.1645C33.5302 68.7901 33.283 68.4337 33.0097 68.0987C32.7088 67.7243 31.7543 66.6514 31.6527 66.4782C31.5045 66.2957 31.3365 66.131 31.1519 65.9873C31.0602 65.8969 30.6955 65.4887 30.523 65.2607L30.4631 65.0396C30.3764 64.7272 30.3767 64.4599 29.9157 64.4033L29.744 64.3827C29.6993 64.3297 29.6537 64.2688 29.6068 64.2005C29.4393 63.9621 29.3082 63.6989 29.218 63.4199ZM76.1114 99.0368C75.7767 99.0474 75.4416 99.0387 75.1081 99.0104C74.9783 98.9718 74.6217 98.8043 74.5929 98.8898C74.5641 98.9752 73.9654 98.9326 73.6408 98.9069L73.3814 99.0256C73.2362 99.0918 73.0374 99.2089 72.9195 99.1486C72.8411 99.0908 72.7443 99.0647 72.6478 99.0754C72.5512 99.0862 72.4618 99.133 72.3967 99.2069C72.2228 99.3454 71.8715 99.2903 71.7148 99.4389L71.45 99.6888C71.1384 99.5386 70.9735 99.5469 71.0766 99.6994C71.1796 99.8519 71.4266 100.32 71.5438 100.347C71.661 100.374 72.0174 100.605 72.1499 100.628C72.2825 100.65 72.5867 101.118 72.8136 101.265C73.0405 101.413 73.8206 101.791 74.0354 101.978C74.2501 102.164 75.0187 102.263 75.1155 102.417L75.2437 102.506C75.3339 102.567 75.4916 102.494 75.6069 102.538C75.6386 102.551 75.664 102.608 75.6888 102.667C75.7137 102.726 75.7353 102.778 75.764 102.787L76.0304 102.862C76.3046 102.903 76.5668 103.004 76.7997 103.156C77.2777 103.375 77.7725 103.554 78.2793 103.69L78.6705 103.889L79.0476 104.081C79.315 104.02 79.5785 104.096 79.6315 104.251L79.7153 104.293L79.9043 104.391C80.132 104.444 80.6113 104.526 80.9692 104.573C81.3272 104.621 82.4566 104.969 82.6863 105.01L82.8892 105.081L83.0863 105.151C83.2227 105.126 83.361 105.114 83.4994 105.114L83.5191 105.099C83.5667 105.074 83.6408 105.041 83.6367 105.002L83.6351 104.928C83.5514 104.786 83.4538 104.653 83.344 104.531C83.0959 104.26 82.8152 104.021 82.5089 103.821L82.3165 103.721L82.0796 103.597C81.7686 103.372 81.4818 103.114 81.2236 102.827L80.9311 102.663L80.707 102.537C80.7056 102.303 80.6365 102.074 80.5084 101.88L80.4273 101.875L80.02 101.848C79.7568 101.651 79.362 101.346 79.1443 101.167L78.9306 101.04C78.688 100.896 78.348 100.826 78.5796 100.463C78.5879 100.449 78.4028 100.238 78.3412 100.242L78.0673 100.263C77.7879 100.326 77.5426 100.304 77.5172 100.22C77.4918 100.136 77.5024 99.9496 77.5862 99.983C77.67 100.016 77.7225 99.9991 77.3909 99.8426C77.0593 99.6861 76.2139 99.573 76.2838 99.4496C76.309 99.3979 76.321 99.3406 76.3187 99.2831C76.3164 99.2256 76.2998 99.1698 76.2705 99.1208C76.2525 99.0943 76.2284 99.0728 76.2002 99.0583C76.1721 99.0437 76.1408 99.0365 76.1092 99.0375L76.1114 99.0368ZM144.873 160.893L144.406 160.699C144.208 160.616 144.017 160.51 143.815 160.438L143.535 160.339C143.594 160.528 143.549 160.62 143.435 160.545C143.13 160.371 142.81 160.225 142.479 160.109L142.296 160.26C142.033 160.476 141.737 160.206 141.463 160.216C141.191 160.199 140.922 160.152 140.66 160.077C140.394 160.044 140.13 159.991 139.872 159.918C139.435 159.728 138.942 159.721 138.498 159.899C138.328 159.98 138.225 160.074 138.044 159.861C137.899 159.691 137.789 159.722 137.665 159.847C137.632 159.88 137.433 159.722 137.349 159.743C137.266 159.763 137.211 159.985 137.189 159.975L136.752 159.771C136.33 159.868 135.85 159.966 135.685 159.989C135.52 160.011 134.548 159.854 133.899 159.764L133.315 159.864L132.874 159.938C132.347 159.831 131.887 159.843 131.85 159.968L131.801 159.966L131.695 159.965C131.426 159.904 131.146 159.916 130.881 159.999C130.56 160.081 129.564 160.406 129.358 160.489C128.974 160.674 128.611 160.901 128.274 161.165C128.077 161.355 128.402 162.262 128.447 162.372C128.551 162.568 128.713 162.725 128.911 162.82C129.087 162.865 129.724 163.264 130.112 163.453C130.5 163.642 131.797 164.238 132.151 164.336C132.987 164.514 133.832 164.65 134.682 164.742L135.287 165.074C135.322 165.093 135.383 165.021 135.437 165.023C135.687 165.037 136.042 165.173 136.168 165.058C136.458 164.802 136.674 165.266 136.914 165.189C136.953 165.176 137.048 165.264 137.077 165.248C137.498 165.006 138.037 165.231 138.491 165.149C138.958 165.065 139.394 164.901 139.878 164.847C140.291 164.801 140.696 164.704 141.085 164.556C141.438 164.423 141.833 164.392 142.187 164.24L142.506 164.103C142.827 164.058 143.14 163.971 143.439 163.845L143.43 163.782C143.373 163.404 143.491 163.355 143.835 163.567C143.884 163.598 144.064 163.437 144.133 163.33L144.188 163.246C144.319 163.046 144.468 162.858 144.633 162.686L144.969 162.631L145.22 162.594C145.419 162.369 145.653 162.18 145.913 162.034C146.059 161.979 146.018 161.443 146.103 161.335C146.112 161.322 146.111 161.308 146.1 161.293C145.724 161.071 145.304 160.935 144.87 160.893L144.873 160.893Z" fill="#FE6711"/>
</svg>
