<svg width="1299" height="378" viewBox="0 0 1299 378" fill="none" xmlns="http://www.w3.org/2000/svg">
<path fill-rule="evenodd" clip-rule="evenodd" d="M15.9929 2.09629C11.6885 6.18345 7.57744 12.4631 5.99195 18.9883C4.91869 23.4095 5.00051 27.9441 6.90759 32.0047C7.07242 32.3543 7.48898 32.5034 7.8386 32.3385C8.19072 32.1749 8.33974 31.7583 8.1749 31.4087C6.40226 27.6391 6.35489 23.4274 7.35364 19.3222C8.8768 13.0565 12.8242 7.03321 16.9581 3.11484C17.237 2.8465 17.2493 2.40316 16.9847 2.123C16.7164 1.84412 16.2731 1.8317 15.9929 2.09629Z" fill="black"/>
<path fill-rule="evenodd" clip-rule="evenodd" d="M1282.06 344.928C1277.76 349.015 1273.65 355.294 1272.06 361.82C1270.99 366.241 1271.07 370.775 1272.98 374.836C1273.14 375.186 1273.56 375.335 1273.91 375.17C1274.26 375.006 1274.41 374.59 1274.25 374.24C1272.47 370.47 1272.43 366.259 1273.42 362.153C1274.95 355.888 1278.89 349.865 1283.03 345.946C1283.31 345.678 1283.32 345.234 1283.06 344.954C1282.79 344.675 1282.34 344.663 1282.06 344.928Z" fill="black"/>
<path fill-rule="evenodd" clip-rule="evenodd" d="M26.7089 4.57872C22.4045 8.66587 18.2934 14.9455 16.7079 21.4708C15.6346 25.892 15.7164 30.4265 17.6235 34.4871C17.7884 34.8367 18.2049 34.9858 18.5545 34.8209C18.9067 34.6573 19.0557 34.2408 18.8908 33.8911C17.1182 30.1215 17.0708 25.9098 18.0696 21.8046C19.5927 15.5389 23.5402 9.51563 27.674 5.59726C27.9529 5.32892 27.9653 4.88558 27.7007 4.60542C27.4323 4.32654 26.989 4.31413 26.7089 4.57872Z" fill="black"/>
<path fill-rule="evenodd" clip-rule="evenodd" d="M1292.78 347.41C1288.47 351.497 1284.36 357.777 1282.78 364.302C1281.7 368.723 1281.79 373.258 1283.69 377.318C1283.86 377.668 1284.28 377.817 1284.62 377.652C1284.98 377.489 1285.13 377.072 1284.96 376.722C1283.19 372.953 1283.14 368.741 1284.14 364.636C1285.66 358.37 1289.61 352.347 1293.74 348.429C1294.02 348.16 1294.04 347.717 1293.77 347.437C1293.5 347.158 1293.06 347.145 1292.78 347.41Z" fill="black"/>
</svg>
