<svg width="1512" height="440" viewBox="0 0 1512 440" fill="none" xmlns="http://www.w3.org/2000/svg">
<path fill-rule="evenodd" clip-rule="evenodd" d="M18.6127 2.39939C13.602 7.15727 8.8162 14.4675 6.97052 22.0635C5.72112 27.2102 5.81637 32.489 8.03642 37.2159C8.2283 37.6229 8.71322 37.7964 9.12021 37.6045C9.53012 37.4141 9.70359 36.9291 9.5117 36.5221C7.44816 32.1339 7.39302 27.231 8.55567 22.4521C10.3288 15.1582 14.924 8.14647 19.7362 3.58508C20.0609 3.2727 20.0753 2.75661 19.7673 2.43048C19.4549 2.10583 18.9388 2.09138 18.6127 2.39939Z" fill="black"/>
<path fill-rule="evenodd" clip-rule="evenodd" d="M1492.45 401.491C1487.44 406.249 1482.66 413.559 1480.81 421.155C1479.56 426.302 1479.66 431.581 1481.88 436.308C1482.07 436.715 1482.55 436.888 1482.96 436.696C1483.37 436.506 1483.54 436.021 1483.35 435.614C1481.29 431.226 1481.23 426.323 1482.4 421.544C1484.17 414.25 1488.76 407.238 1493.58 402.677C1493.9 402.364 1493.91 401.848 1493.61 401.522C1493.29 401.198 1492.78 401.183 1492.45 401.491Z" fill="black"/>
<path fill-rule="evenodd" clip-rule="evenodd" d="M31.0872 5.28928C26.0764 10.0472 21.2907 17.3574 19.445 24.9534C18.1956 30.1001 18.2909 35.3789 20.5109 40.1058C20.7028 40.5128 21.1877 40.6863 21.5947 40.4944C22.0046 40.304 22.1781 39.819 21.9862 39.412C19.9226 35.0238 19.8675 30.1209 21.0302 25.342C22.8033 18.0481 27.3985 11.0364 32.2107 6.47497C32.5354 6.16259 32.5498 5.64651 32.2418 5.32037C31.9294 4.99572 31.4133 4.98127 31.0872 5.28928Z" fill="black"/>
<path fill-rule="evenodd" clip-rule="evenodd" d="M1504.93 404.381C1499.92 409.139 1495.13 416.449 1493.28 424.045C1492.03 429.192 1492.13 434.47 1494.35 439.197C1494.54 439.604 1495.03 439.778 1495.43 439.586C1495.84 439.396 1496.02 438.911 1495.83 438.504C1493.76 434.115 1493.71 429.212 1494.87 424.434C1496.64 417.14 1501.24 410.128 1506.05 405.567C1506.37 405.254 1506.39 404.738 1506.08 404.412C1505.77 404.087 1505.25 404.073 1504.93 404.381Z" fill="black"/>
</svg>
