<svg width="500" height="240" viewBox="0 0 500 240" fill="none" xmlns="http://www.w3.org/2000/svg">
<path opacity="0.21" d="M94.4128 182.295C94.4128 208.175 73.4332 229.155 47.5536 229.155C21.6739 229.155 0.694336 208.175 0.694336 182.295C0.694336 156.416 21.6739 135.436 47.5536 135.436C73.4332 135.436 94.4128 156.416 94.4128 182.295Z" fill="white"/>
<path d="M69.3267 84.1217C70.1434 84.2405 70.7964 84.6595 71.4845 85.0035C72.4117 85.4516 73.375 85.8211 74.3641 86.1081C74.6515 86.1819 74.9201 86.3155 75.1525 86.5C75.3849 86.6845 75.5758 86.9158 75.7129 87.179C75.7883 87.3238 75.8361 87.4807 75.6388 87.5895C75.4732 87.6817 75.3437 87.5963 75.2006 87.5173C73.4163 86.5312 71.4256 85.845 69.487 85.0834C69.2931 85.0069 69.1037 84.9196 68.9196 84.8219C68.8718 84.801 68.829 84.7703 68.7939 84.7318C68.7589 84.6933 68.7323 84.6478 68.716 84.5983C68.6996 84.5488 68.6939 84.4965 68.6992 84.4446C68.7044 84.3928 68.7205 84.3427 68.7464 84.2975C68.8347 84.075 69.0893 84.1285 69.3267 84.1217Z" fill="#FFA85A"/>
<path d="M77.4802 98.9951C77.4277 99.0843 77.3643 99.1666 77.2916 99.2403C76.0471 100.303 75.1714 101.557 74.2951 102.811C74.1354 103.04 73.9973 103.422 73.5325 103.222C73.1414 103.055 73.4092 102.76 73.5235 102.529C74.1835 101.204 75.2871 100.093 76.3331 98.9553C76.4296 98.829 76.5617 98.7345 76.7124 98.6841C76.8631 98.6337 77.0255 98.6296 77.1785 98.6725C77.2574 98.6852 77.3299 98.7238 77.3845 98.7822C77.4391 98.8406 77.4728 98.9155 77.4802 98.9951Z" fill="#FFA85A"/>
<path d="M93.9435 101.595C94.0129 101.828 93.9612 101.971 93.7317 102.014C93.6323 102.047 93.5241 102.041 93.4285 101.998C93.333 101.955 93.257 101.878 93.2158 101.782C92.8081 100.514 91.5941 99.6522 90.689 98.6341C90.4657 98.383 90.204 98.1062 90.6533 97.8503C91.1167 97.5863 91.3247 97.888 91.556 98.1416C92.1142 98.7556 92.6769 99.3673 93.2565 99.9686C93.4783 100.177 93.654 100.429 93.7723 100.709C93.8906 100.989 93.9489 101.291 93.9435 101.595Z" fill="#FFA85A"/>
<path d="M97.6414 79.894C97.6184 80.1957 97.3297 80.4597 97.0908 80.7018C96.0648 81.7406 94.893 82.6908 94.2142 83.9272C94.0725 84.1854 93.7286 84.5727 93.3156 84.361C92.9451 84.1709 93.1836 83.8275 93.4071 83.5313C94.4031 82.2113 95.8192 81.1408 96.8831 79.8617C96.9455 79.79 97.0237 79.7339 97.1116 79.6976C97.1994 79.6614 97.2945 79.6461 97.3893 79.653C97.4546 79.6516 97.5179 79.6762 97.5651 79.7214C97.6124 79.7665 97.6398 79.8286 97.6414 79.894Z" fill="#FFA85A"/>
<path d="M74.3107 92.3163C74.2858 92.5631 74.0543 92.6501 73.8306 92.7312C72.5834 93.1865 71.3415 93.6525 70.0792 94.0798C69.7332 94.194 69.3986 94.3403 69.0798 94.5169C68.9581 94.5986 68.8098 94.6307 68.6652 94.6066C68.5206 94.5825 68.3907 94.504 68.3022 94.3872C68.1164 94.1584 68.189 93.9267 68.5124 93.8639C70.3065 93.5131 71.7782 92.6271 73.4352 92.0502C73.8793 91.8969 74.1712 91.9318 74.3107 92.3163Z" fill="#FFA85A"/>
<path d="M78.6774 78.3823C79.0549 78.4437 79.4039 78.6213 79.6758 78.8903C80.3283 79.5677 80.7267 80.348 81.0988 81.1309C81.2334 81.4137 81.3886 81.6851 81.543 81.9595C81.6394 82.1311 81.784 82.3338 81.4616 82.4611C81.3518 82.5095 81.2295 82.5216 81.1124 82.4954C80.9953 82.4693 80.8897 82.4064 80.811 82.3159C80.6146 82.1169 80.4408 81.8969 80.2926 81.6598C79.7873 80.7547 79.4145 79.7987 78.584 79.0223C78.4262 78.8747 78.3289 78.6769 78.4637 78.4806C78.5037 78.4225 78.6312 78.4021 78.6774 78.3823Z" fill="#FFA85A"/>
<path d="M89.5714 78.2928C89.5484 79.4464 89.1105 80.5499 88.9073 81.6817C88.863 81.9269 88.6269 82.0681 88.314 82.0323C87.9746 81.9932 88.038 81.7617 88.0331 81.5692C88.0073 80.9812 88.0991 80.3939 88.3031 79.8419C88.5918 79.179 88.735 78.4619 88.723 77.739C88.7104 77.5051 88.6948 77.1489 89.1724 77.1693C89.6214 77.1882 89.5789 77.5225 89.5993 77.7746C89.6023 77.9478 89.593 78.1209 89.5714 78.2928Z" fill="#FFA85A"/>
<path d="M85.1661 101.655C85.2276 102.341 85.2846 103.026 85.3524 103.711C85.3766 103.954 85.5949 104.29 85.083 104.321C84.6191 104.349 84.4479 104.032 84.407 103.709C84.318 103.003 84.2252 102.297 84.1741 101.589C84.1567 101.178 84.1037 100.77 84.0159 100.369C83.9438 100.078 84.0206 99.7792 84.4909 99.7349C84.9399 99.6928 85.0285 99.9596 85.0602 100.236C85.1137 100.708 85.1607 101.18 85.211 101.652L85.1661 101.655Z" fill="#FFA85A"/>
<path d="M99.5453 95.663C99.5242 95.9191 99.3024 96.0364 98.992 95.9717C98.6001 95.892 98.2158 95.7785 97.8435 95.6323C96.9904 95.2894 96.1558 94.9189 95.3129 94.5606C95.0068 94.4305 94.6787 94.267 94.9418 93.9698C95.0598 93.8435 95.2157 93.7589 95.386 93.7289C95.5563 93.6989 95.7317 93.7251 95.8858 93.8035C97.0334 94.2938 98.0271 94.9962 99.2841 95.3364C99.3589 95.3519 99.4259 95.393 99.4735 95.4527C99.5212 95.5123 99.5466 95.5867 99.5453 95.663Z" fill="#FFA85A"/>
<path d="M96.3627 90.4455C96.0539 90.4726 95.9311 90.4291 95.8512 90.3323C95.7439 90.2031 95.8065 90.0772 95.9123 89.9729C96.1344 89.7535 96.4151 89.6029 96.7206 89.5392C98.0757 89.2579 99.4389 89.0005 100.795 88.724C101.043 88.6735 101.231 88.6795 101.347 88.876C101.474 89.0902 101.298 89.2215 101.096 89.2909C99.5203 89.8207 97.7615 89.8786 96.3627 90.4455Z" fill="#FFA85A"/>
<path d="M84.4074 103.709C84.3182 103.003 84.2257 102.297 84.1744 101.589C84.157 101.178 84.1041 100.77 84.0162 100.369C83.9443 100.078 84.0209 99.7793 84.4911 99.7348C84.9399 99.6927 85.0288 99.9598 85.0604 100.237C85.114 100.708 85.1608 101.18 85.2113 101.652L85.1666 101.656C85.2281 102.341 85.2852 103.026 85.3529 103.711C85.3772 103.954 85.5954 104.29 85.0836 104.321C85.0648 104.322 85.0459 104.322 85.0271 104.322C84.6054 104.323 84.4468 104.019 84.4074 103.709ZM73.5331 103.222C73.142 103.054 73.4096 102.76 73.524 102.529C74.184 101.203 75.2879 100.092 76.3348 98.9551C76.4312 98.8287 76.5633 98.7342 76.714 98.6837C76.8648 98.6333 77.0271 98.6293 77.1802 98.6722C77.259 98.6853 77.3313 98.724 77.3858 98.7825C77.4402 98.8411 77.4737 98.916 77.4809 98.9956C77.4284 99.0848 77.3651 99.1671 77.2924 99.2407C76.0478 100.304 75.1721 101.557 74.2958 102.812C74.1672 102.995 74.0529 103.279 73.7712 103.279C73.6889 103.276 73.6079 103.257 73.5333 103.222L73.5331 103.222ZM93.216 101.782C92.8082 100.514 91.5943 99.6526 90.6892 98.6347C90.4658 98.3835 90.204 98.1066 90.6536 97.8504C91.1169 97.5864 91.3249 97.8882 91.5561 98.1418C92.114 98.7558 92.6769 99.3675 93.2566 99.9688C93.4785 100.177 93.6543 100.429 93.7727 100.709C93.8912 100.989 93.9495 101.291 93.9441 101.595C94.0135 101.829 93.9618 101.971 93.7321 102.014C93.6906 102.022 93.6483 102.026 93.606 102.026C93.5233 102.034 93.4404 102.014 93.37 101.97C93.2996 101.926 93.2456 101.86 93.2162 101.782H93.216ZM98.9925 95.9721C98.6005 95.8924 98.2162 95.7788 97.8439 95.6327C96.991 95.29 96.1562 94.9195 95.3133 94.5612C95.0074 94.4311 94.6793 94.2676 94.942 93.9703C95.06 93.844 95.216 93.7595 95.3862 93.7295C95.5565 93.6995 95.7319 93.7258 95.886 93.8042C97.0336 94.2944 98.0273 94.9968 99.2845 95.3372C99.3593 95.3527 99.4263 95.3938 99.474 95.4535C99.5216 95.5132 99.5469 95.5876 99.5455 95.664C99.5425 95.7117 99.5297 95.7584 99.508 95.801C99.4863 95.8436 99.4561 95.8814 99.4193 95.9119C99.3825 95.9425 99.3398 95.9651 99.2939 95.9786C99.248 95.9921 99.1998 95.996 99.1523 95.9902C99.0986 95.9895 99.0451 95.9834 98.9926 95.9721H98.9925ZM68.3033 94.3881C68.1178 94.1596 68.1911 93.9278 68.5136 93.8648C70.3078 93.5141 71.7794 92.6278 73.4365 92.0512C73.8799 91.8969 74.1719 91.9318 74.3113 92.3163C74.2866 92.563 74.0547 92.6502 73.8314 92.7311C72.5842 93.1869 71.3423 93.6529 70.08 94.08C69.7339 94.1942 69.3993 94.3405 69.0806 94.5171C68.9791 94.5772 68.8638 94.61 68.7459 94.6125C68.6599 94.6113 68.5753 94.5905 68.4985 94.5515C68.4218 94.5126 68.355 94.4567 68.3033 94.3879V94.3881ZM95.852 90.333C95.7447 90.2038 95.8073 90.0778 95.9131 89.9735C96.1352 89.7542 96.4158 89.6036 96.7213 89.5398C98.0766 89.2585 99.4395 89.0013 100.796 88.7251C101.043 88.6742 101.232 88.6803 101.348 88.8759C101.475 89.0903 101.299 89.2216 101.096 89.2908C99.5212 89.822 97.7624 89.88 96.3634 90.447C96.3027 90.4521 96.249 90.455 96.2016 90.455C96.1379 90.464 96.0728 90.4576 96.0121 90.4364C95.9513 90.4151 95.8964 90.3796 95.8522 90.3328L95.852 90.333ZM75.2017 87.5188C73.4175 86.5328 71.4268 85.8465 69.4881 85.0849C69.2941 85.0085 69.1047 84.9211 68.9207 84.8231C68.873 84.8023 68.8301 84.7716 68.7951 84.7331C68.76 84.6946 68.7334 84.6491 68.7171 84.5996C68.7008 84.5501 68.6951 84.4977 68.7004 84.4459C68.7057 84.3941 68.7218 84.3439 68.7478 84.2988C68.8204 84.1145 69.0061 84.1185 69.202 84.1223C69.2437 84.1232 69.2863 84.124 69.3282 84.1223C70.1449 84.2411 70.7979 84.6602 71.486 85.0042C72.4132 85.4522 73.3764 85.8218 74.3654 86.1089C74.6528 86.1827 74.9214 86.3161 75.1538 86.5006C75.3862 86.6851 75.5772 86.9165 75.7142 87.1797C75.7897 87.3247 75.8376 87.4814 75.6401 87.5903C75.5962 87.6159 75.5464 87.6297 75.4955 87.6302C75.3898 87.618 75.2889 87.5796 75.2017 87.5186V87.5188ZM93.316 84.3616C92.9454 84.1715 93.184 83.8283 93.4076 83.5328C94.4036 82.2128 95.8196 81.1421 96.8837 79.8633C96.946 79.7916 97.0242 79.7354 97.112 79.6992C97.1998 79.663 97.2949 79.6478 97.3896 79.6547C97.4548 79.6533 97.5179 79.6775 97.5652 79.7224C97.6125 79.7673 97.6401 79.8291 97.6421 79.8942C97.6193 80.1959 97.3306 80.4599 97.0915 80.7022C96.0655 81.7408 94.8935 82.6913 94.2147 83.9279C94.1015 84.1338 93.8594 84.4226 93.556 84.4226C93.4722 84.4219 93.3899 84.401 93.316 84.3616ZM80.812 82.3163C80.6158 82.1172 80.4419 81.8972 80.2936 81.6603C79.7881 80.7552 79.4155 79.799 78.585 79.0226C78.4272 78.8748 78.3299 78.677 78.4647 78.4807C78.5047 78.4228 78.6322 78.4024 78.6784 78.3826C79.0563 78.4436 79.4057 78.6211 79.6778 78.8904C80.3304 79.5679 80.7286 80.3481 81.1009 81.1312C81.2355 81.4141 81.3905 81.6852 81.545 81.9595C81.6415 82.1311 81.7861 82.3339 81.4637 82.4612C81.3894 82.4913 81.3101 82.5071 81.2299 82.5077C81.1506 82.5075 81.0723 82.4903 81.0002 82.4574C80.9281 82.4244 80.8639 82.3764 80.8118 82.3167L80.812 82.3163ZM88.3146 82.0335C87.9751 81.9944 88.0385 81.7627 88.0336 81.5702C88.0075 80.9821 88.0993 80.3949 88.3036 79.8429C88.5922 79.18 88.7354 78.4629 88.7234 77.7399C88.7106 77.5059 88.6951 77.1497 89.1724 77.1703C89.6217 77.1891 89.5791 77.5233 89.5997 77.7754C89.6027 77.9486 89.5934 78.1219 89.5717 78.2938C89.5489 79.4474 89.1111 80.5508 88.9076 81.6828C88.8828 81.793 88.8182 81.8902 88.7263 81.9559C88.6344 82.0215 88.5216 82.0512 88.4092 82.039C88.3775 82.0387 88.3458 82.0366 88.3144 82.0327L88.3146 82.0335Z" fill="white"/>
<path opacity="0.21" d="M499.081 55.2946C499.081 85.392 474.682 109.791 444.585 109.791C414.487 109.791 390.088 85.392 390.088 55.2946C390.088 25.1971 414.487 0.79834 444.585 0.79834C474.682 0.79834 499.081 25.1971 499.081 55.2946Z" fill="white"/>
<path d="M78.0076 140.904C78.0076 152.152 68.8897 161.27 57.6422 161.27C46.3947 161.27 37.2769 152.152 37.2769 140.904C37.2769 129.657 46.3947 120.539 57.6422 120.539C68.8897 120.539 78.0076 129.657 78.0076 140.904Z" fill="#DF3E3F"/>
<path d="M327.863 170.382C329.345 173.443 331.182 176.22 333.73 178.502C335.973 180.511 338.596 182.017 341.312 183.29C344.618 184.841 348.05 186.105 351.386 187.589C351.712 187.734 352.127 187.516 352.377 187.309C352.511 187.198 352.922 186.738 352.596 186.593C346.91 184.063 340.682 182.203 335.783 178.224C333.21 176.135 331.235 173.494 329.737 170.553C329.196 169.49 328.701 168.405 328.181 167.331C327.762 167.75 327.388 168.212 327.065 168.709C327.331 169.267 327.594 169.826 327.863 170.382Z" fill="#554140"/>
<path d="M325.297 165.342C325.903 166.338 326.426 167.379 326.931 168.429C327.264 167.949 327.646 167.506 328.071 167.105C327.788 166.528 327.497 165.955 327.187 165.392C326.251 163.708 325.1 162.153 323.764 160.765C322.752 159.715 321.673 158.732 320.535 157.82L319.153 158.671C320.002 159.35 320.824 160.061 321.606 160.818C323.024 162.162 324.265 163.683 325.297 165.342Z" fill="#554140"/>
<path d="M318.968 165.154C320.056 166.473 320.994 167.91 321.764 169.436C323.048 171.875 323.937 174.519 325.165 176.985C325.211 175.812 325.223 174.63 325.33 173.469C324.703 171.988 324.102 170.493 323.379 169.066C322.628 167.533 321.725 166.079 320.682 164.727C319.72 163.545 318.555 162.543 317.242 161.769C316.71 161.443 316.166 161.138 315.608 160.853L314.172 161.736C314.558 161.93 314.938 162.132 315.314 162.343C316.663 163.103 317.956 163.971 318.968 165.154Z" fill="#554140"/>
<path d="M325.382 177.41C325.749 178.124 326.157 178.816 326.605 179.483C327.683 181.11 329.117 182.472 330.798 183.465C332.529 184.467 334.424 185.154 336.32 185.774C338.493 186.485 340.629 187.263 342.753 188.11C344.897 188.966 347.041 189.826 349.24 190.536C349.72 190.691 350.921 189.691 350.21 189.461C346.277 188.192 342.535 186.403 338.605 185.122C336.689 184.498 334.769 183.885 332.962 182.981C331.179 182.117 329.624 180.844 328.424 179.266C327.193 177.629 326.327 175.793 325.524 173.922C325.44 175.045 325.435 176.177 325.388 177.301C325.386 177.338 325.384 177.374 325.382 177.41Z" fill="#554140"/>
<path d="M324.099 183.502C324.301 183.726 324.504 183.948 324.711 184.167C327.304 186.906 330.414 189.004 334.009 190.189C338.139 191.551 342.498 191.988 346.681 193.149C347.168 193.284 348.364 192.272 347.652 192.075C343.93 191.041 340.075 190.58 336.355 189.534C332.715 188.534 329.391 186.615 326.705 183.961C326.01 183.271 325.349 182.548 324.714 181.802C324.635 182.072 324.549 182.34 324.454 182.607C324.345 182.911 324.227 183.209 324.099 183.502Z" fill="#554140"/>
<path d="M313.749 170.131C315.176 171.578 316.398 173.215 317.576 174.864C319.613 177.718 321.578 180.657 323.908 183.286C324.147 182.727 324.351 182.155 324.521 181.572C322.727 179.434 321.133 177.118 319.533 174.846C318.367 173.191 317.183 171.539 315.825 170.034C314.689 168.735 313.318 167.663 311.782 166.875C310.615 166.318 309.415 165.831 308.189 165.418L306.726 166.319C307.672 166.657 308.617 166.993 309.526 167.386C311.087 168.061 312.549 168.915 313.749 170.131Z" fill="#554140"/>
<path d="M313.172 179.876C315.845 182.451 318.36 185.219 321.22 187.593C321.555 187.198 321.873 186.791 322.172 186.371C319.704 184.273 317.486 181.897 315.166 179.636C312.375 176.916 309.479 174.266 306.219 172.11C304.725 171.118 303.149 170.255 301.509 169.529L300.062 170.42C301.456 171.018 302.804 171.72 304.093 172.52C307.416 174.576 310.365 177.173 313.172 179.876Z" fill="#554140"/>
<path d="M321.801 188.066C324.789 190.463 328.121 192.396 331.685 193.802C335.793 195.396 340.154 196.235 344.56 196.279C344.756 196.26 344.946 196.196 345.114 196.093C345.282 195.989 345.424 195.849 345.529 195.682C345.704 195.379 345.554 195.202 345.23 195.198C337.454 195.101 329.959 192.356 323.783 187.671C323.298 187.303 322.826 186.922 322.361 186.531C322.06 186.948 321.74 187.352 321.403 187.744C321.536 187.852 321.668 187.96 321.801 188.066Z" fill="#554140"/>
<path d="M296.631 176.955C298.816 177.768 300.932 178.649 302.889 179.933C304.662 181.095 306.281 182.469 307.909 183.822C310.948 186.348 314.003 188.889 317.166 191.264C317.592 190.956 318.009 190.636 318.418 190.304C315.603 188.193 312.9 185.923 310.178 183.7C308.514 182.343 306.899 180.921 305.155 179.664C303.346 178.371 301.379 177.313 299.303 176.516C297.986 176.001 296.658 175.514 295.321 175.055C294.729 174.849 294.134 174.638 293.537 174.434L292.051 175.349C292.391 175.463 292.73 175.579 293.069 175.694C294.262 176.097 295.45 176.517 296.631 176.955Z" fill="#554140"/>
<path d="M317.366 191.415C317.575 191.571 317.784 191.726 317.993 191.88C321.45 194.428 325.156 196.688 329.268 198.004C331.499 198.718 333.756 198.8 336.081 198.755C338.324 198.713 340.592 198.623 342.775 199.239C343.262 199.376 344.458 198.365 343.745 198.164C339.813 197.055 335.68 198.206 331.718 197.341C329.653 196.89 327.648 196.013 325.775 195.05C323.866 194.051 322.029 192.919 320.279 191.662C319.72 191.266 319.165 190.862 318.616 190.451C318.515 190.534 318.414 190.616 318.312 190.697C318.002 190.944 317.686 191.182 317.366 191.415Z" fill="#554140"/>
<path d="M342.707 199.186C340.524 198.569 338.256 198.659 336.012 198.701C333.687 198.745 331.43 198.662 329.2 197.947C325.089 196.631 321.383 194.37 317.928 191.823C317.718 191.669 317.509 191.513 317.301 191.357C317.621 191.124 317.937 190.886 318.247 190.64C318.349 190.558 318.451 190.476 318.551 190.395C319.101 190.805 319.655 191.209 320.214 191.606C321.964 192.863 323.8 193.995 325.709 194.994C327.58 195.957 329.586 196.834 331.65 197.285C335.612 198.151 339.746 197.001 343.678 198.111C344.332 198.296 343.376 199.164 342.838 199.197C342.794 199.201 342.75 199.197 342.707 199.186ZM344.493 196.227C340.088 196.182 335.726 195.342 331.619 193.747C328.056 192.342 324.725 190.408 321.738 188.011C321.605 187.906 321.473 187.797 321.342 187.689C321.678 187.297 321.997 186.893 322.299 186.477C322.764 186.867 323.236 187.249 323.72 187.616C329.894 192.301 337.388 195.048 345.165 195.146C345.489 195.15 345.638 195.327 345.463 195.63C345.361 195.79 345.226 195.926 345.067 196.028C344.907 196.131 344.728 196.198 344.54 196.225C344.525 196.226 344.509 196.227 344.493 196.227ZM346.617 193.099C342.435 191.937 338.076 191.499 333.945 190.136C330.352 188.951 327.243 186.853 324.651 184.114C324.444 183.895 324.24 183.673 324.039 183.449C324.167 183.156 324.285 182.858 324.394 182.555C324.491 182.288 324.577 182.02 324.655 181.75C325.29 182.496 325.95 183.22 326.646 183.909C329.331 186.563 332.653 188.482 336.293 189.483C340.012 190.529 343.867 190.991 347.588 192.025C348.244 192.207 347.284 193.077 346.747 193.11C346.703 193.114 346.659 193.11 346.617 193.099ZM349.177 190.486C346.978 189.777 344.836 188.916 342.691 188.06C340.567 187.212 338.432 186.434 336.259 185.723C334.364 185.102 332.47 184.415 330.739 183.413C329.059 182.419 327.626 181.058 326.548 179.43C326.403 179.216 326.263 178.999 326.128 178.78C325.842 178.316 325.577 177.841 325.326 177.358C325.328 177.322 325.33 177.286 325.331 177.249C325.379 176.126 325.385 174.995 325.469 173.872C326.271 175.743 327.137 177.578 328.366 179.215C329.565 180.793 331.118 182.065 332.901 182.93C334.708 183.834 336.628 184.447 338.543 185.071C342.473 186.352 346.214 188.143 350.147 189.413C350.794 189.621 349.856 190.469 349.32 190.502C349.272 190.506 349.223 190.501 349.176 190.487L349.177 190.486ZM307.848 183.764C306.221 182.411 304.603 181.037 302.83 179.875C300.874 178.591 298.759 177.71 296.574 176.895C295.393 176.456 294.206 176.035 293.012 175.634C292.673 175.52 292.334 175.403 291.995 175.289L293.481 174.375C294.078 174.579 294.672 174.79 295.265 174.996C296.601 175.459 297.928 175.946 299.246 176.457C301.322 177.254 303.288 178.313 305.097 179.606C306.84 180.863 308.454 182.285 310.118 183.642C312.839 185.865 315.541 188.135 318.354 190.246C317.946 190.578 317.529 190.898 317.102 191.206C313.939 188.832 310.886 186.291 307.847 183.765L307.848 183.764ZM351.326 187.541C347.991 186.056 344.559 184.792 341.253 183.241C338.539 181.967 335.916 180.46 333.674 178.453C332.012 176.944 330.578 175.202 329.417 173.281C328.832 172.326 328.297 171.343 327.812 170.334C327.543 169.778 327.28 169.219 327.015 168.662C327.338 168.165 327.712 167.704 328.132 167.286C328.651 168.358 329.146 169.443 329.686 170.506C331.182 173.447 333.157 176.088 335.728 178.176C340.625 182.155 346.852 184.016 352.537 186.547C352.863 186.692 352.451 187.152 352.317 187.263C352.116 187.439 351.866 187.552 351.601 187.588C351.506 187.595 351.412 187.579 351.325 187.542L351.326 187.541ZM313.113 179.821C310.308 177.118 307.361 174.521 304.039 172.465C302.75 171.665 301.402 170.962 300.008 170.364L301.456 169.474C303.095 170.2 304.67 171.063 306.164 172.055C309.422 174.211 312.317 176.861 315.107 179.581C317.425 181.842 319.644 184.217 322.11 186.316C321.811 186.735 321.493 187.142 321.157 187.537C318.297 185.165 315.784 182.397 313.112 179.822L313.113 179.821ZM317.521 174.812C316.343 173.162 315.123 171.525 313.697 170.079C312.497 168.862 311.035 168.008 309.475 167.333C308.566 166.941 307.621 166.605 306.676 166.265L308.139 165.366C309.365 165.779 310.564 166.266 311.731 166.825C313.266 167.612 314.637 168.684 315.772 169.983C317.13 171.488 318.313 173.14 319.477 174.794C321.076 177.066 322.669 179.382 324.463 181.519C324.292 182.102 324.087 182.674 323.848 183.233C321.519 180.604 319.556 177.666 317.52 174.813L317.521 174.812ZM321.712 169.385C320.943 167.859 320.006 166.423 318.918 165.105C317.906 163.921 316.615 163.054 315.266 162.294C314.891 162.082 314.51 161.88 314.124 161.687L315.56 160.804C316.117 161.089 316.662 161.395 317.195 161.72C318.508 162.494 319.672 163.496 320.634 164.678C321.675 166.03 322.578 167.483 323.328 169.016C324.05 170.443 324.65 171.937 325.276 173.418C325.169 174.578 325.155 175.76 325.11 176.933C323.882 174.468 322.995 171.825 321.711 169.386L321.712 169.385ZM325.248 165.294C324.217 163.635 322.977 162.115 321.559 160.77C320.777 160.014 319.956 159.302 319.107 158.624L320.491 157.774C321.629 158.685 322.707 159.668 323.718 160.718C325.053 162.105 326.203 163.66 327.137 165.344C327.448 165.907 327.738 166.479 328.021 167.057C327.595 167.457 327.213 167.901 326.88 168.38C326.376 167.332 325.854 166.291 325.248 165.295L325.248 165.294Z" fill="white"/>
<path opacity="0.21" d="M438.173 184.841C438.173 214.938 413.774 239.337 383.676 239.337C353.579 239.337 329.18 214.938 329.18 184.841C329.18 154.744 353.579 130.345 383.676 130.345C413.774 130.345 438.173 154.744 438.173 184.841Z" fill="white"/>
</svg>
