<svg width="102" height="86" viewBox="0 0 102 86" fill="none" xmlns="http://www.w3.org/2000/svg">
<path d="M3.84453 22.4045C6.34369 22.7764 8.34199 24.088 10.4476 25.1646C13.2852 26.5673 16.2329 27.724 19.2596 28.6223C20.1391 28.8535 20.9611 29.2714 21.6722 29.8489C22.3834 30.4265 22.9677 31.1506 23.3872 31.9744C23.618 32.4277 23.764 32.9188 23.1604 33.2594C22.6538 33.548 22.2574 33.2806 21.8194 33.0333C16.3594 29.9469 10.2676 27.7989 4.33501 25.4149C3.74179 25.1753 3.16211 24.9019 2.59869 24.5962C2.45262 24.5308 2.32164 24.4347 2.2143 24.3142C2.10695 24.1936 2.02564 24.0512 1.97566 23.8964C1.92569 23.7415 1.90817 23.5776 1.92424 23.4153C1.94032 23.2531 1.98963 23.0961 2.06897 22.9547C2.33902 22.2582 3.11803 22.4258 3.84453 22.4045Z" fill="#FFA85A"/>
<path d="M28.7703 68.9618C28.6095 69.2408 28.4157 69.4986 28.1932 69.7291C24.3848 73.0569 21.705 76.9804 19.0235 80.9073C18.5348 81.6227 18.1124 82.8186 16.69 82.1941C15.4932 81.6688 16.3126 80.7474 16.6623 80.0249C18.6819 75.8748 22.0593 72.397 25.2601 68.8372C25.5552 68.4418 25.9595 68.146 26.4207 67.9882C26.8818 67.8303 27.3787 67.8177 27.847 67.9518C28.0886 67.9917 28.3103 68.1125 28.4774 68.2953C28.6446 68.4781 28.7476 68.7126 28.7703 68.9618Z" fill="#FFA85A"/>
<path d="M79.1473 77.0997C79.3597 77.8305 79.2016 78.2755 78.4993 78.4107C78.1951 78.5141 77.8639 78.4968 77.5715 78.3622C77.2791 78.2277 77.0468 77.9856 76.9206 77.6841C75.6731 73.7152 71.9583 71.0183 69.1886 67.8316C68.5054 67.0453 67.7045 66.1788 69.0795 65.3779C70.4973 64.5515 71.1337 65.4959 71.8417 66.2898C73.5497 68.2117 75.2715 70.1265 77.0453 72.0088C77.7238 72.6601 78.2615 73.4496 78.6235 74.3264C78.9856 75.2033 79.164 76.148 79.1473 77.0997V77.0997Z" fill="#FFA85A"/>
<path d="M90.4642 9.17089C90.3939 10.1153 89.5104 10.9417 88.7793 11.6995C85.6396 14.9513 82.0539 17.9256 79.9766 21.7959C79.5432 22.6039 78.4907 23.8163 77.227 23.1535C76.0931 22.5585 76.8231 21.4836 77.5069 20.5563C80.5548 16.4246 84.8883 13.0737 88.144 9.06995C88.3349 8.84558 88.5742 8.66972 88.843 8.55631C89.1118 8.4429 89.4027 8.39505 89.6927 8.41654C89.8928 8.41226 90.0863 8.48926 90.2309 8.63065C90.3755 8.77205 90.4594 8.96632 90.4642 9.17089V9.17089Z" fill="#FFA85A"/>
<path d="M19.071 48.0547C18.9948 48.8274 18.2863 49.0995 17.6019 49.3533C13.7855 50.7788 9.98521 52.2373 6.12262 53.5749C5.0637 53.9323 4.03982 54.3904 3.0644 54.9432C2.69203 55.199 2.23812 55.2994 1.79568 55.2239C1.35324 55.1484 0.955783 54.9027 0.684761 54.537C0.116394 53.821 0.338546 53.0956 1.32814 52.899C6.81793 51.8011 11.3216 49.0275 16.3919 47.2218C17.7508 46.7419 18.644 46.8511 19.071 48.0547Z" fill="#FFA85A"/>
<path d="M32.4338 4.43948C33.5892 4.63154 34.6573 5.1874 35.4893 6.02964C37.4859 8.14985 38.7052 10.5923 39.8438 13.0431C40.2558 13.9285 40.7307 14.7779 41.2033 15.6367C41.4982 16.1738 41.9408 16.8083 40.954 17.2068C40.6182 17.3584 40.2438 17.3961 39.8855 17.3143C39.5273 17.2326 39.2041 17.0356 38.9632 16.7523C38.3622 16.1295 37.8303 15.4408 37.3769 14.6988C35.8303 11.8655 34.6895 8.87291 32.1481 6.44282C31.6651 5.98065 31.3674 5.36147 31.78 4.74701C31.9023 4.56521 32.2924 4.50146 32.4338 4.43948Z" fill="#FFA85A"/>
<path d="M65.7694 4.15918C65.699 7.77033 64.359 11.2245 63.7369 14.7671C63.6013 15.5345 62.8788 15.9766 61.9214 15.8644C60.8827 15.7422 61.0766 15.0174 61.0616 14.4148C60.9826 12.5742 61.2636 10.7361 61.888 9.00808C62.7715 6.93314 63.2098 4.68852 63.1731 2.42562C63.1344 1.69371 63.0866 0.578733 64.5483 0.642479C65.9223 0.701504 65.7924 1.74802 65.8548 2.53718C65.864 3.07924 65.8355 3.62128 65.7694 4.15918Z" fill="#FFA85A"/>
<path d="M52.2888 77.2879C52.4769 79.4329 52.6511 81.5785 52.8588 83.7217C52.9327 84.4814 53.6008 85.5332 52.0343 85.6312C50.615 85.7191 50.0911 84.7281 49.9659 83.7152C49.6935 81.5065 49.4097 79.2948 49.2533 77.0795C49.2 75.7944 49.038 74.5165 48.7692 73.26C48.5488 72.351 48.7836 71.4148 50.2226 71.2761C51.5964 71.1445 51.8676 71.9797 51.9645 72.8462C52.1284 74.3218 52.272 75.801 52.4261 77.2779L52.2888 77.2879Z" fill="#FFA85A"/>
<path d="M96.2904 58.5307C96.2258 59.3323 95.5472 59.6994 94.5974 59.4969C93.3979 59.2477 92.2219 58.8922 91.0827 58.4345C88.4722 57.3615 85.9182 56.2016 83.3388 55.0802C82.4023 54.6729 81.3982 54.1612 82.2032 53.231C82.5643 52.8354 83.0414 52.5707 83.5625 52.4768C84.0835 52.3829 84.6203 52.4649 85.0919 52.7104C88.6037 54.245 91.6447 56.4436 95.4912 57.5084C95.72 57.557 95.9249 57.6857 96.0708 57.8724C96.2167 58.059 96.2944 58.2918 96.2904 58.5307Z" fill="#FFA85A"/>
<path d="M86.5525 42.1994C85.6073 42.2844 85.2317 42.148 84.987 41.8452C84.6587 41.4409 84.8502 41.0466 85.174 40.7202C85.8536 40.0335 86.7126 39.5621 87.6477 39.3626C91.7943 38.4819 95.9658 37.6762 100.117 36.8109C100.874 36.6527 101.451 36.6716 101.806 37.2867C102.194 37.9572 101.656 38.368 101.036 38.5852C96.2151 40.2439 90.833 40.4251 86.5525 42.1994Z" fill="#FFA85A"/>
<path d="M49.9658 83.716C49.6929 81.5073 49.4096 79.2955 49.2526 77.0797C49.1995 75.7948 49.0376 74.5172 48.7685 73.2609C48.5487 72.3519 48.7829 71.4156 50.222 71.2763C51.5953 71.1447 51.8671 71.9805 51.9641 72.8476C52.128 74.3232 52.2711 75.7988 52.4257 77.2785L52.2889 77.2886C52.4771 79.4336 52.6519 81.5785 52.8591 83.7223C52.9335 84.4826 53.6012 85.534 52.0351 85.6314C51.9774 85.635 51.9197 85.6366 51.862 85.6366C50.5717 85.6372 50.0864 84.687 49.9658 83.716ZM16.6896 82.1925C15.4929 81.6666 16.3117 80.7451 16.6619 80.0226C18.6815 75.8725 22.0595 72.3955 25.2632 68.8357C25.5581 68.4402 25.9624 68.1442 26.4236 67.9864C26.8848 67.8285 27.3817 67.816 27.8499 67.9504C28.0912 67.9911 28.3125 68.1124 28.4791 68.2956C28.6456 68.4788 28.7481 68.7134 28.7704 68.9625C28.6096 69.2416 28.4158 69.4992 28.1933 69.7298C24.3849 73.0576 21.7052 76.9804 19.0237 80.908C18.6302 81.4829 18.2805 82.3701 17.4184 82.3701C17.1664 82.3622 16.9186 82.3021 16.6902 82.1931L16.6896 82.1925ZM76.9207 77.6852C75.6726 73.7158 71.9582 71.019 69.1884 67.8328C68.5047 67.0465 67.7038 66.18 69.0794 65.3778C70.4972 64.5514 71.1336 65.4961 71.8411 66.29C73.5485 68.2118 75.2709 70.1266 77.0447 72.0089C77.7237 72.66 78.2619 73.4492 78.6242 74.3261C78.9866 75.203 79.1652 76.148 79.1486 77.0999C79.3609 77.8306 79.2029 78.2755 78.5 78.4106C78.3729 78.4359 78.2436 78.4487 78.114 78.449C77.8609 78.4726 77.6072 78.4108 77.3918 78.2729C77.1763 78.1349 77.011 77.9284 76.9212 77.6852H76.9207ZM94.5969 59.4983C93.3975 59.2489 92.2215 58.8935 91.0822 58.436C88.4723 57.3635 85.9177 56.2036 83.3384 55.0821C82.4024 54.6748 81.3984 54.1632 82.2022 53.2324C82.5635 52.837 83.0406 52.5725 83.5616 52.4787C84.0826 52.3849 84.6194 52.467 85.0909 52.7124C88.6027 54.2471 91.6436 56.4457 95.4907 57.5111C95.7195 57.5597 95.9246 57.6883 96.0704 57.8751C96.2162 58.0619 96.2937 58.295 96.2893 58.534C96.28 58.6834 96.241 58.8294 96.1746 58.9628C96.1082 59.0963 96.0158 59.2145 95.9031 59.3101C95.7904 59.4057 95.6598 59.4766 95.5194 59.5188C95.3789 59.5609 95.2315 59.5733 95.0862 59.5551C94.9218 59.553 94.7581 59.5339 94.5975 59.4983H94.5969ZM0.686232 54.5403C0.118434 53.8249 0.342893 53.0995 1.32962 52.9024C6.82007 51.8045 11.3232 49.0302 16.3942 47.2252C17.7508 46.7424 18.6446 46.8517 19.071 48.0553C18.9954 48.8273 18.2857 49.1004 17.6025 49.3536C13.786 50.7803 9.98566 52.239 6.12302 53.5759C5.06405 53.9333 4.04013 54.3913 3.06472 54.944C2.75409 55.132 2.40138 55.2348 2.04055 55.2426C1.77733 55.239 1.51837 55.1737 1.28362 55.0518C1.04887 54.93 0.844527 54.7548 0.686232 54.5397V54.5403ZM84.987 41.8469C84.6587 41.4426 84.8502 41.0482 85.1739 40.7218C85.8534 40.0352 86.7122 39.5639 87.6471 39.3643C91.7942 38.4836 95.965 37.6786 100.117 36.8139C100.873 36.6546 101.451 36.6739 101.806 37.286C102.194 37.9571 101.656 38.3681 101.035 38.5847C96.2149 40.2474 90.8329 40.4291 86.5519 42.204C86.3661 42.22 86.2016 42.2288 86.0568 42.2288C85.8617 42.2571 85.6627 42.2371 85.4767 42.1706C85.2906 42.104 85.1229 41.9929 84.9876 41.8464L84.987 41.8469ZM21.7958 33.0381C16.3359 29.9517 10.2442 27.8036 4.31169 25.4196C3.71823 25.1803 3.13858 24.9067 2.57546 24.6002C2.42938 24.5349 2.29834 24.4389 2.19101 24.3183C2.08367 24.1977 2.00243 24.0553 1.9525 23.9004C1.90258 23.7455 1.88513 23.5816 1.90129 23.4194C1.91746 23.2571 1.96681 23.1002 2.04626 22.9588C2.26841 22.3822 2.83682 22.3945 3.43636 22.4063C3.56388 22.4093 3.69426 22.4116 3.82236 22.4063C6.32148 22.7782 8.31981 24.0902 10.4254 25.1668C13.2628 26.5693 16.2102 27.7262 19.2366 28.6247C20.116 28.8558 20.9381 29.2735 21.6493 29.8511C22.3604 30.4286 22.9447 31.1529 23.3641 31.9766C23.595 32.4305 23.7415 32.9212 23.1373 33.2617C23.003 33.3421 22.8504 33.3852 22.6948 33.3868C22.3714 33.3485 22.0625 33.2285 21.7958 33.0375V33.0381ZM77.2265 23.1554C76.0927 22.5604 76.8226 21.4861 77.5069 20.5612C80.5548 16.4294 84.8877 13.078 88.1439 9.07492C88.3346 8.85051 88.5738 8.67465 88.8426 8.56133C89.1113 8.44801 89.4022 8.40038 89.6921 8.42212C89.8916 8.41751 90.0846 8.49354 90.2294 8.63396C90.3741 8.77437 90.4587 8.9678 90.4648 9.17175C90.395 10.1162 89.5115 10.9423 88.7798 11.7008C85.6402 14.9519 82.054 17.927 79.9766 21.7979C79.6304 22.4425 78.8895 23.3465 77.9611 23.3465C77.7047 23.3442 77.4527 23.2787 77.2265 23.1554V23.1554ZM38.9636 16.7534C38.3631 16.1302 37.8312 15.4416 37.3773 14.6999C35.8303 11.8667 34.6901 8.87364 32.1489 6.44356C31.6659 5.98081 31.3681 5.36162 31.7807 4.74716C31.903 4.56596 32.2931 4.5022 32.4345 4.44022C33.5909 4.63111 34.6601 5.18678 35.4927 6.02969C37.4898 8.15047 38.7085 10.5925 39.8476 13.0438C40.2596 13.9292 40.7339 14.7778 41.2065 15.6366C41.502 16.1737 41.9445 16.8083 40.9578 17.2067C40.7304 17.301 40.4877 17.3506 40.2423 17.3526C39.9998 17.3517 39.7601 17.298 39.5395 17.1949C39.3189 17.0918 39.1224 16.9415 38.963 16.7545L38.9636 16.7534ZM61.9219 15.868C60.8832 15.7458 61.0771 15.0204 61.0621 14.4177C60.9824 12.5772 61.2633 10.7391 61.8884 9.01122C62.7716 6.93617 63.2096 4.69137 63.1729 2.42852C63.1337 1.69601 63.0864 0.581028 64.5468 0.645365C65.9219 0.704391 65.7915 1.75031 65.8544 2.53948C65.8637 3.08174 65.8351 3.624 65.7689 4.1621C65.6991 7.77327 64.3593 11.2269 63.7367 14.7702C63.6606 15.1152 63.4631 15.4194 63.1819 15.6251C62.9006 15.8307 62.5553 15.9234 62.2116 15.8853C62.1146 15.8844 62.0176 15.8778 61.9213 15.8657L61.9219 15.868Z" fill="white"/>
</svg>
