<svg width="23" height="19" viewBox="0 0 23 19" fill="none" xmlns="http://www.w3.org/2000/svg">
<path d="M1.27024 4.94094C1.80844 5.02102 2.23876 5.30346 2.69221 5.53531C3.30328 5.83739 3.93805 6.08647 4.58986 6.27992C4.77925 6.3297 4.95627 6.4197 5.10941 6.54407C5.26256 6.66844 5.38839 6.82439 5.47872 7.00179C5.52843 7.09941 5.55987 7.20516 5.42989 7.27851C5.32078 7.34067 5.23541 7.28308 5.1411 7.22983C3.9653 6.56516 2.65344 6.1026 1.37587 5.5892C1.24812 5.5376 1.12329 5.47874 1.00196 5.4129C0.9705 5.39883 0.942294 5.37813 0.919177 5.35217C0.89606 5.3262 0.87855 5.29555 0.867788 5.2622C0.857026 5.22885 0.853253 5.19355 0.856715 5.15861C0.860177 5.12367 0.870796 5.08987 0.887881 5.0594C0.946037 4.90941 1.11379 4.94551 1.27024 4.94094Z" fill="#FFA85A"/>
<path d="M6.63802 14.9668C6.6034 15.0269 6.56166 15.0824 6.51375 15.1321C5.69361 15.8487 5.11653 16.6936 4.53907 17.5393C4.43382 17.6933 4.34286 17.9509 4.03654 17.8164C3.77882 17.7032 3.95528 17.5048 4.03058 17.3492C4.4655 16.4555 5.19282 15.7066 5.88212 14.94C5.94566 14.8548 6.03272 14.7911 6.13203 14.7572C6.23135 14.7232 6.33835 14.7204 6.43919 14.7493C6.49121 14.7579 6.53897 14.7839 6.57495 14.8233C6.61094 14.8627 6.63313 14.9131 6.63802 14.9668Z" fill="#FFA85A"/>
<path d="M17.4868 16.7194C17.5326 16.8768 17.4985 16.9726 17.3473 17.0017C17.2818 17.024 17.2105 17.0203 17.1475 16.9913C17.0845 16.9623 17.0345 16.9102 17.0073 16.8452C16.7387 15.9906 15.9387 15.4098 15.3422 14.7235C15.1951 14.5542 15.0227 14.3676 15.3188 14.1951C15.6241 14.0172 15.7611 14.2205 15.9136 14.3915C16.2814 14.8054 16.6522 15.2177 17.0342 15.6231C17.1803 15.7633 17.2961 15.9334 17.374 16.1222C17.452 16.311 17.4904 16.5145 17.4868 16.7194Z" fill="#FFA85A"/>
<path d="M19.9242 2.09102C19.9091 2.29439 19.7188 2.47235 19.5614 2.63556C18.8852 3.33581 18.1131 3.97632 17.6657 4.80979C17.5724 4.9838 17.3457 5.24489 17.0736 5.10214C16.8294 4.97401 16.9866 4.74255 17.1339 4.54286C17.7902 3.65308 18.7235 2.93147 19.4245 2.06928C19.4657 2.02096 19.5172 1.98309 19.5751 1.95867C19.633 1.93425 19.6956 1.92394 19.7581 1.92857C19.8011 1.92765 19.8428 1.94423 19.874 1.97468C19.9051 2.00513 19.9232 2.04696 19.9242 2.09102Z" fill="#FFA85A"/>
<path d="M4.54936 10.4646C4.53296 10.631 4.38037 10.6896 4.23299 10.7443C3.41113 11.0512 2.59275 11.3653 1.76095 11.6534C1.53291 11.7304 1.31242 11.829 1.10237 11.948C1.02218 12.0031 0.924427 12.0248 0.829149 12.0085C0.733871 11.9922 0.648279 11.9393 0.589915 11.8606C0.467518 11.7064 0.515358 11.5502 0.728465 11.5078C1.91068 11.2714 2.88054 10.6741 3.97242 10.2853C4.26505 10.1819 4.45741 10.2054 4.54936 10.4646Z" fill="#FFA85A"/>
<path d="M7.42699 1.07202C7.6758 1.11338 7.90581 1.23308 8.08499 1.41446C8.51495 1.87104 8.77753 2.39703 9.02271 2.92479C9.11144 3.11546 9.21371 3.29837 9.31549 3.48332C9.37899 3.59899 9.4743 3.73563 9.2618 3.82143C9.18949 3.85409 9.10886 3.86221 9.03171 3.8446C8.95456 3.82699 8.88495 3.78457 8.83308 3.72356C8.70367 3.58944 8.58911 3.44114 8.49147 3.28134C8.15843 2.67121 7.91275 2.02675 7.36547 1.50344C7.26146 1.40391 7.19734 1.27057 7.28619 1.13825C7.31254 1.0991 7.39654 1.08537 7.42699 1.07202Z" fill="#FFA85A"/>
<path d="M14.6057 1.01179C14.5906 1.78944 14.302 2.53328 14.168 3.29619C14.1388 3.46143 13.9832 3.55664 13.7771 3.53249C13.5534 3.50617 13.5951 3.35008 13.5919 3.22031C13.5749 2.82395 13.6354 2.42812 13.7699 2.05599C13.9601 1.60915 14.0545 1.12578 14.0466 0.638466C14.0383 0.480851 14.028 0.240742 14.3428 0.25447C14.6387 0.267181 14.6107 0.492545 14.6241 0.66249C14.6261 0.779221 14.62 0.895949 14.6057 1.01179Z" fill="#FFA85A"/>
<path d="M11.7026 16.7597C11.7431 17.2217 11.7806 17.6837 11.8253 18.1453C11.8412 18.3088 11.9851 18.5354 11.6478 18.5565C11.3421 18.5754 11.2293 18.362 11.2023 18.1439C11.1437 17.6682 11.0826 17.1919 11.0489 16.7149C11.0374 16.4381 11.0025 16.1629 10.9446 15.8923C10.8972 15.6966 10.9477 15.495 11.2576 15.4651C11.5535 15.4368 11.6119 15.6166 11.6327 15.8032C11.668 16.121 11.699 16.4396 11.7321 16.7576L11.7026 16.7597Z" fill="#FFA85A"/>
<path d="M21.1783 12.7205C21.1644 12.8932 21.0182 12.9722 20.8137 12.9286C20.5554 12.8749 20.3021 12.7984 20.0568 12.6998C19.4946 12.4687 18.9446 12.219 18.3892 11.9775C18.1875 11.8898 17.9713 11.7796 18.1446 11.5793C18.2224 11.4941 18.3251 11.4371 18.4373 11.4168C18.5495 11.3966 18.6651 11.4143 18.7667 11.4671C19.523 11.7976 20.1778 12.2711 21.0062 12.5004C21.0554 12.5109 21.0996 12.5386 21.131 12.5788C21.1624 12.619 21.1791 12.6691 21.1783 12.7205Z" fill="#FFA85A"/>
<path d="M19.0811 9.20358C18.8776 9.22188 18.7967 9.19252 18.744 9.12731C18.6733 9.04024 18.7146 8.95533 18.7843 8.88504C18.9306 8.73717 19.1156 8.63565 19.317 8.59268C20.21 8.40303 21.1083 8.22952 22.0022 8.04318C22.1651 8.00911 22.2895 8.01318 22.366 8.14563C22.4496 8.29003 22.3336 8.3785 22.2001 8.42528C21.162 8.78246 20.0029 8.82148 19.0811 9.20358Z" fill="#FFA85A"/>
<path d="M11.202 18.1448C11.1432 17.6692 11.0822 17.1929 11.0484 16.7157C11.037 16.439 11.0021 16.1639 10.9441 15.8933C10.8968 15.6976 10.9472 15.4959 11.2571 15.4659C11.5529 15.4376 11.6114 15.6176 11.6323 15.8043C11.6676 16.1221 11.6984 16.4399 11.7317 16.7585L11.7023 16.7607C11.7428 17.2226 11.7804 17.6845 11.825 18.1462C11.8411 18.3099 11.9848 18.5363 11.6476 18.5573C11.6352 18.5581 11.6227 18.5584 11.6103 18.5584C11.3325 18.5585 11.2279 18.3539 11.202 18.1448ZM4.03601 17.8167C3.77829 17.7035 3.95462 17.505 4.03004 17.3494C4.46496 16.4557 5.1924 15.707 5.8823 14.9404C5.94582 14.8552 6.03287 14.7915 6.13219 14.7575C6.23151 14.7235 6.33852 14.7208 6.43936 14.7497C6.49132 14.7585 6.53898 14.7846 6.57485 14.8241C6.61072 14.8635 6.63278 14.914 6.63757 14.9677C6.60295 15.0278 6.56121 15.0833 6.51331 15.1329C5.69318 15.8495 5.1161 16.6943 4.53865 17.5401C4.45391 17.6639 4.37859 17.855 4.19294 17.855C4.13868 17.8533 4.08533 17.8403 4.03613 17.8169L4.03601 17.8167ZM17.0067 16.8461C16.7379 15.9913 15.938 15.4105 15.3415 14.7244C15.1943 14.5551 15.0218 14.3685 15.3181 14.1957C15.6234 14.0178 15.7604 14.2212 15.9128 14.3922C16.2805 14.806 16.6514 15.2184 17.0334 15.6237C17.1796 15.7639 17.2955 15.9339 17.3735 16.1227C17.4515 16.3116 17.49 16.5151 17.4864 16.72C17.5322 16.8774 17.4981 16.9732 17.3468 17.0023C17.3194 17.0078 17.2915 17.0105 17.2636 17.0106C17.2091 17.0157 17.1545 17.0024 17.1081 16.9726C17.0617 16.9429 17.0261 16.8985 17.0068 16.8461H17.0067ZM20.8132 12.9296C20.5549 12.8759 20.3017 12.7993 20.0563 12.7008C19.4943 12.4698 18.9442 12.2201 18.3887 11.9786C18.1871 11.8908 17.9709 11.7807 18.144 11.5802C18.2218 11.4951 18.3246 11.4381 18.4368 11.4179C18.549 11.3977 18.6646 11.4154 18.7661 11.4683C19.5224 11.7987 20.1772 12.2722 21.0057 12.5016C21.055 12.5121 21.0991 12.5398 21.1305 12.58C21.1619 12.6203 21.1786 12.6704 21.1777 12.7219C21.1757 12.7541 21.1673 12.7855 21.153 12.8143C21.1386 12.843 21.1188 12.8685 21.0945 12.8891C21.0702 12.9096 21.0421 12.9249 21.0119 12.934C20.9816 12.9431 20.9499 12.9457 20.9186 12.9418C20.8832 12.9414 20.8479 12.9373 20.8133 12.9296H20.8132ZM0.589706 11.8619C0.467432 11.7078 0.515769 11.5516 0.728258 11.5092C1.91062 11.2727 2.88037 10.6753 3.97239 10.2866C4.26453 10.1826 4.457 10.2062 4.54883 10.4653C4.53255 10.6316 4.37972 10.6904 4.23259 10.7449C3.41072 11.0522 2.59232 11.3663 1.76051 11.6542C1.53246 11.7312 1.31196 11.8298 1.10191 11.9488C1.03502 11.9893 0.959061 12.0114 0.881356 12.0131C0.824671 12.0123 0.768906 11.9983 0.718352 11.972C0.667799 11.9458 0.623794 11.9081 0.589706 11.8617V11.8619ZM18.7437 9.12838C18.673 9.04131 18.7143 8.95637 18.784 8.88608C18.9303 8.73824 19.1152 8.63675 19.3166 8.59375C20.2096 8.40411 21.1078 8.23075 22.0019 8.04454C22.1647 8.01022 22.2892 8.01439 22.3656 8.1462C22.4492 8.29072 22.3334 8.37922 22.1997 8.42587C21.1616 8.78394 20.0026 8.82306 19.0807 9.20528C19.0407 9.20872 19.0053 9.21062 18.9741 9.21062C18.9321 9.21671 18.8892 9.21242 18.8492 9.19808C18.8091 9.18375 18.773 9.15981 18.7438 9.12826L18.7437 9.12838ZM5.13561 7.23142C3.95983 6.56676 2.64799 6.10418 1.37044 5.59078C1.24264 5.53926 1.11782 5.48034 0.996548 5.41433C0.965089 5.40026 0.936871 5.3796 0.913756 5.35363C0.890642 5.32766 0.873147 5.29699 0.862395 5.26363C0.851643 5.23028 0.847887 5.19499 0.851367 5.16005C0.854848 5.12511 0.865477 5.09132 0.882585 5.06087C0.930426 4.93668 1.05283 4.93934 1.18194 4.94189C1.2094 4.94252 1.23748 4.94303 1.26507 4.94189C1.80325 5.02197 2.23358 5.3045 2.68702 5.53635C3.29805 5.83838 3.93276 6.08751 4.58449 6.28101C4.77388 6.33078 4.95091 6.42073 5.10405 6.5451C5.2572 6.66947 5.38303 6.82543 5.47335 7.00283C5.52306 7.10058 5.55461 7.20624 5.42451 7.27958C5.39557 7.29689 5.36272 7.30617 5.3292 7.30652C5.25957 7.29825 5.19304 7.27242 5.13561 7.23129V7.23142ZM17.0725 5.1032C16.8283 4.97507 16.9855 4.74373 17.1329 4.54454C17.7893 3.65477 18.7223 2.93305 19.4236 2.07099C19.4646 2.02267 19.5161 1.98479 19.574 1.96039C19.6319 1.93599 19.6945 1.92573 19.757 1.93041C19.7999 1.92942 19.8415 1.94579 19.8727 1.97603C19.9038 2.00627 19.9221 2.04792 19.9234 2.09184C19.9083 2.29522 19.7181 2.47313 19.5605 2.63647C18.8844 3.33659 18.1121 3.97728 17.6648 4.81087C17.5902 4.94967 17.4306 5.14434 17.2307 5.14434C17.1755 5.14385 17.1212 5.12976 17.0725 5.1032ZM8.83266 3.72454C8.70335 3.59033 8.5888 3.44204 8.49106 3.28232C8.15791 2.67219 7.91238 2.02764 7.36513 1.50433C7.26112 1.40468 7.19699 1.27134 7.28584 1.13902C7.31218 1.09999 7.39619 1.08626 7.42664 1.07292C7.67568 1.11402 7.90593 1.23369 8.08522 1.41521C8.51529 1.87191 8.77773 2.3978 9.02303 2.92569C9.11175 3.11636 9.21391 3.29909 9.31568 3.48403C9.3793 3.5997 9.47461 3.73637 9.26212 3.82217C9.21315 3.84247 9.16087 3.85313 9.10803 3.85357C9.0558 3.85338 9.0042 3.84182 8.95669 3.81962C8.90919 3.79742 8.86686 3.76505 8.83254 3.72478L8.83266 3.72454ZM13.7767 3.53387C13.553 3.50756 13.5948 3.35134 13.5915 3.22156C13.5744 2.82519 13.6349 2.42936 13.7695 2.05727C13.9597 1.61041 14.054 1.127 14.0461 0.6397C14.0377 0.481956 14.0275 0.241846 14.342 0.255701C14.6381 0.268412 14.61 0.493649 14.6236 0.663595C14.6256 0.780369 14.6194 0.897143 14.6052 1.01302C14.5901 1.79068 14.3016 2.53442 14.1675 3.29746C14.1511 3.37175 14.1086 3.43727 14.048 3.48155C13.9875 3.52583 13.9131 3.5458 13.8391 3.5376C13.8182 3.5374 13.7973 3.53598 13.7766 3.53337L13.7767 3.53387Z" fill="white"/>
</svg>
