<svg width="1986" height="951" viewBox="0 0 1986 951" fill="none" xmlns="http://www.w3.org/2000/svg">
<path opacity="0.21" d="M374.216 723.532C374.216 826.609 290.655 910.169 187.578 910.169C84.5014 910.169 0.94104 826.609 0.94104 723.532C0.94104 620.455 84.5014 536.895 187.578 536.895C290.655 536.895 374.216 620.455 374.216 723.532Z" fill="white"/>
<path d="M273.056 325.274C275.455 325.623 277.373 326.856 279.394 327.868C282.119 329.186 284.948 330.273 287.854 331.117C288.698 331.335 289.487 331.727 290.17 332.27C290.853 332.813 291.414 333.494 291.817 334.268C292.038 334.694 292.178 335.155 291.599 335.475C291.112 335.747 290.732 335.495 290.311 335.263C285.07 332.362 279.222 330.344 273.526 328.103C272.957 327.878 272.4 327.621 271.86 327.334C271.719 327.272 271.594 327.182 271.49 327.068C271.387 326.955 271.309 326.821 271.261 326.676C271.213 326.53 271.197 326.376 271.212 326.224C271.227 326.071 271.275 325.924 271.351 325.791C271.61 325.136 272.358 325.294 273.056 325.274Z" fill="#FFA85A"/>
<path d="M297.01 369.03C296.855 369.293 296.669 369.535 296.456 369.752C292.799 372.879 290.226 376.566 287.652 380.257C287.182 380.93 286.777 382.053 285.411 381.466C284.262 380.973 285.049 380.107 285.384 379.428C287.324 375.527 290.566 372.259 293.639 368.913C293.923 368.542 294.311 368.264 294.754 368.115C295.196 367.967 295.674 367.955 296.123 368.081C296.355 368.119 296.568 368.232 296.728 368.404C296.889 368.576 296.988 368.796 297.01 369.03Z" fill="#FFA85A"/>
<path d="M345.372 376.678C345.576 377.365 345.424 377.783 344.75 377.91C344.458 378.007 344.14 377.991 343.859 377.865C343.578 377.738 343.355 377.511 343.234 377.227C342.036 373.497 338.47 370.963 335.81 367.968C335.154 367.229 334.385 366.414 335.706 365.662C337.067 364.885 337.678 365.773 338.358 366.519C339.998 368.325 341.651 370.124 343.354 371.893C344.005 372.506 344.522 373.248 344.869 374.072C345.217 374.896 345.388 375.784 345.372 376.678Z" fill="#FFA85A"/>
<path d="M356.235 312.837C356.168 313.724 355.319 314.501 354.618 315.213C351.603 318.269 348.161 321.065 346.166 324.702C345.75 325.461 344.74 326.601 343.527 325.978C342.438 325.419 343.139 324.409 343.795 323.537C346.722 319.654 350.882 316.505 354.008 312.742C354.191 312.531 354.421 312.366 354.679 312.259C354.937 312.153 355.216 312.108 355.495 312.128C355.687 312.124 355.872 312.196 356.011 312.329C356.15 312.462 356.231 312.644 356.235 312.837Z" fill="#FFA85A"/>
<path d="M287.697 349.381C287.623 350.107 286.943 350.363 286.286 350.601C282.622 351.941 278.974 353.312 275.265 354.569C274.248 354.904 273.265 355.335 272.329 355.854C271.972 356.095 271.536 356.189 271.111 356.118C270.686 356.047 270.305 355.816 270.044 355.473C269.499 354.8 269.712 354.118 270.662 353.933C275.933 352.902 280.257 350.295 285.124 348.598C286.429 348.147 287.287 348.25 287.697 349.381Z" fill="#FFA85A"/>
<path d="M300.525 308.39C301.634 308.571 302.66 309.093 303.458 309.885C305.375 311.877 306.546 314.173 307.639 316.476C308.035 317.308 308.491 318.106 308.944 318.914C309.228 319.418 309.652 320.015 308.705 320.389C308.383 320.532 308.023 320.567 307.679 320.49C307.335 320.413 307.025 320.228 306.794 319.962C306.217 319.377 305.706 318.729 305.271 318.032C303.786 315.369 302.691 312.557 300.251 310.273C299.787 309.839 299.501 309.257 299.897 308.679C300.015 308.508 300.389 308.448 300.525 308.39Z" fill="#FFA85A"/>
<path d="M332.527 308.126C332.459 311.52 331.173 314.767 330.576 318.096C330.445 318.817 329.752 319.233 328.833 319.127C327.835 319.013 328.022 318.331 328.007 317.765C327.931 316.035 328.201 314.308 328.8 312.684C329.649 310.734 330.069 308.624 330.034 306.497C329.997 305.809 329.951 304.761 331.355 304.821C332.674 304.877 332.549 305.86 332.609 306.602C332.618 307.111 332.59 307.621 332.527 308.126Z" fill="#FFA85A"/>
<path d="M319.586 376.855C319.767 378.871 319.934 380.888 320.134 382.902C320.204 383.616 320.846 384.604 319.342 384.697C317.979 384.779 317.476 383.848 317.356 382.896C317.094 380.82 316.822 378.741 316.671 376.66C316.62 375.452 316.465 374.251 316.207 373.07C315.995 372.215 316.22 371.336 317.602 371.205C318.921 371.082 319.182 371.867 319.275 372.681C319.432 374.068 319.57 375.458 319.718 376.846L319.586 376.855Z" fill="#FFA85A"/>
<path d="M361.828 359.227C361.766 359.98 361.114 360.325 360.202 360.135C359.051 359.901 357.922 359.567 356.828 359.136C354.322 358.128 351.87 357.038 349.394 355.984C348.495 355.601 347.531 355.12 348.303 354.246C348.65 353.874 349.108 353.625 349.608 353.537C350.109 353.449 350.624 353.526 351.077 353.757C354.448 355.199 357.368 357.265 361.061 358.266C361.28 358.312 361.477 358.433 361.617 358.608C361.757 358.783 361.832 359.002 361.828 359.227Z" fill="#FFA85A"/>
<path d="M352.479 343.878C351.572 343.958 351.211 343.83 350.976 343.545C350.661 343.165 350.845 342.794 351.156 342.488C351.808 341.842 352.633 341.399 353.531 341.212C357.512 340.384 361.517 339.627 365.502 338.814C366.228 338.665 366.783 338.683 367.124 339.261C367.496 339.891 366.979 340.277 366.384 340.481C361.756 342.04 356.589 342.21 352.479 343.878Z" fill="#FFA85A"/>
<path d="M317.355 382.896C317.093 380.821 316.821 378.742 316.67 376.659C316.619 375.452 316.464 374.251 316.206 373.07C315.994 372.216 316.219 371.336 317.601 371.205C318.919 371.081 319.18 371.867 319.273 372.682C319.431 374.069 319.568 375.455 319.717 376.846L319.585 376.856C319.766 378.872 319.934 380.887 320.133 382.902C320.204 383.617 320.845 384.605 319.342 384.697C319.286 384.7 319.231 384.701 319.175 384.701C317.937 384.702 317.471 383.809 317.355 382.896ZM285.409 381.465C284.26 380.97 285.046 380.104 285.383 379.425C287.322 375.525 290.564 372.257 293.64 368.911C293.923 368.54 294.311 368.261 294.754 368.113C295.197 367.965 295.674 367.953 296.123 368.079C296.355 368.118 296.567 368.232 296.727 368.404C296.887 368.576 296.986 368.796 297.007 369.031C296.853 369.293 296.667 369.535 296.453 369.752C292.797 372.879 290.224 376.566 287.65 380.257C287.272 380.798 286.936 381.631 286.109 381.631C285.867 381.624 285.629 381.568 285.41 381.465L285.409 381.465ZM343.232 377.228C342.034 373.498 338.468 370.963 335.809 367.969C335.153 367.23 334.384 366.415 335.704 365.661C337.065 364.885 337.676 365.773 338.356 366.519C339.995 368.325 341.648 370.125 343.351 371.894C344.003 372.506 344.52 373.247 344.868 374.071C345.215 374.896 345.387 375.784 345.371 376.678C345.575 377.365 345.423 377.783 344.748 377.91C344.626 377.934 344.502 377.946 344.378 377.946C344.135 377.968 343.891 377.91 343.684 377.781C343.478 377.651 343.319 377.457 343.233 377.228H343.232ZM360.202 360.136C359.05 359.901 357.921 359.567 356.827 359.137C354.322 358.129 351.869 357.039 349.393 355.985C348.495 355.602 347.531 355.122 348.303 354.247C348.649 353.875 349.107 353.627 349.608 353.538C350.108 353.45 350.623 353.528 351.076 353.758C354.447 355.2 357.366 357.267 361.06 358.268C361.279 358.314 361.476 358.435 361.616 358.61C361.756 358.786 361.831 359.005 361.826 359.229C361.817 359.37 361.78 359.507 361.716 359.632C361.652 359.758 361.564 359.869 361.456 359.959C361.347 360.049 361.222 360.115 361.087 360.155C360.952 360.195 360.811 360.206 360.671 360.189C360.514 360.187 360.356 360.169 360.202 360.136H360.202ZM270.046 355.476C269.501 354.804 269.716 354.122 270.663 353.937C275.934 352.905 280.257 350.297 285.126 348.601C286.428 348.147 287.286 348.25 287.695 349.381C287.623 350.107 286.941 350.363 286.286 350.601C282.622 351.942 278.973 353.313 275.265 354.57C274.248 354.906 273.265 355.336 272.329 355.855C272.031 356.032 271.692 356.129 271.346 356.136C271.093 356.133 270.845 356.071 270.619 355.957C270.394 355.842 270.198 355.678 270.046 355.475V355.476ZM350.976 343.546C350.661 343.166 350.845 342.796 351.155 342.489C351.808 341.844 352.632 341.401 353.53 341.213C357.511 340.385 361.515 339.629 365.501 338.816C366.226 338.666 366.782 338.685 367.122 339.26C367.495 339.891 366.979 340.277 366.383 340.48C361.755 342.043 356.588 342.214 352.478 343.882C352.3 343.897 352.142 343.905 352.003 343.905C351.816 343.932 351.625 343.913 351.446 343.851C351.267 343.788 351.106 343.684 350.976 343.546L350.976 343.546ZM290.311 335.268C285.07 332.367 279.221 330.348 273.526 328.107C272.956 327.883 272.4 327.625 271.859 327.337C271.719 327.276 271.593 327.186 271.49 327.072C271.387 326.959 271.309 326.825 271.261 326.68C271.213 326.534 271.197 326.38 271.212 326.228C271.228 326.075 271.275 325.928 271.351 325.795C271.565 325.253 272.11 325.264 272.686 325.275C272.808 325.278 272.933 325.28 273.056 325.275C275.456 325.625 277.374 326.858 279.395 327.87C282.119 329.188 284.949 330.275 287.854 331.12C288.699 331.337 289.488 331.73 290.171 332.272C290.853 332.815 291.414 333.496 291.817 334.27C292.038 334.697 292.179 335.158 291.599 335.478C291.47 335.553 291.324 335.594 291.174 335.595C290.864 335.559 290.567 335.447 290.311 335.267V335.268ZM343.526 325.979C342.437 325.42 343.138 324.411 343.795 323.541C346.721 319.658 350.881 316.508 354.007 312.746C354.19 312.535 354.419 312.37 354.677 312.263C354.935 312.157 355.215 312.112 355.493 312.133C355.684 312.128 355.87 312.2 356.009 312.332C356.148 312.464 356.229 312.645 356.235 312.837C356.168 313.725 355.32 314.501 354.617 315.214C351.603 318.27 348.16 321.066 346.166 324.704C345.834 325.309 345.122 326.159 344.231 326.159C343.985 326.157 343.743 326.095 343.526 325.979ZM306.793 319.963C306.216 319.377 305.705 318.73 305.27 318.033C303.785 315.37 302.69 312.557 300.25 310.273C299.787 309.838 299.501 309.256 299.897 308.679C300.014 308.508 300.389 308.449 300.525 308.39C301.635 308.57 302.661 309.092 303.461 309.884C305.378 311.877 306.548 314.172 307.641 316.476C308.037 317.308 308.492 318.106 308.946 318.913C309.23 319.418 309.654 320.014 308.707 320.389C308.489 320.477 308.256 320.524 308.02 320.526C307.787 320.525 307.557 320.475 307.346 320.378C307.134 320.281 306.945 320.139 306.792 319.964L306.793 319.963ZM328.833 319.131C327.836 319.016 328.022 318.334 328.008 317.768C327.931 316.038 328.201 314.31 328.801 312.686C329.649 310.736 330.069 308.626 330.034 306.5C329.996 305.811 329.951 304.763 331.353 304.824C332.673 304.879 332.548 305.862 332.608 306.604C332.617 307.114 332.59 307.623 332.526 308.129C332.459 311.523 331.173 314.769 330.575 318.099C330.502 318.423 330.313 318.709 330.043 318.902C329.773 319.095 329.441 319.183 329.111 319.147C329.018 319.146 328.925 319.14 328.832 319.128L328.833 319.131Z" fill="white"/>
<path opacity="0.21" d="M1985.98 217.696C1985.98 337.572 1888.8 434.751 1768.93 434.751C1649.05 434.751 1551.87 337.572 1551.87 217.696C1551.87 97.8199 1649.05 0.641113 1768.93 0.641113C1888.8 0.641113 1985.98 97.8199 1985.98 217.696Z" fill="white"/>
<path d="M308.873 558.675C308.873 603.473 272.557 639.789 227.759 639.789C182.961 639.789 146.646 603.473 146.646 558.675C146.646 513.877 182.961 477.561 227.759 477.561C272.557 477.561 308.873 513.877 308.873 558.675Z" fill="#DF3E3F"/>
<path d="M1302.5 676.097C1308.4 688.289 1315.7 699.348 1325.83 708.433C1334.75 716.43 1345.19 722.426 1355.99 727.493C1369.14 733.667 1382.8 738.695 1396.06 744.601C1397.36 745.178 1399.01 744.31 1400.01 743.486C1400.54 743.044 1402.18 741.211 1400.88 740.633C1378.26 730.566 1353.49 723.164 1334 707.321C1323.77 699.007 1315.92 688.488 1309.96 676.774C1307.81 672.543 1305.84 668.22 1303.77 663.946C1302.11 665.615 1300.62 667.454 1299.33 669.433C1300.39 671.658 1301.43 673.885 1302.5 676.097Z" fill="#554140"/>
<path d="M1292.3 656.008C1294.71 659.976 1296.79 664.123 1298.8 668.304C1300.12 666.392 1301.64 664.623 1303.33 663.027C1302.21 660.728 1301.05 658.447 1299.82 656.206C1296.1 649.5 1291.52 643.305 1286.2 637.779C1282.18 633.598 1277.89 629.682 1273.36 626.053L1267.86 629.444C1271.24 632.146 1274.51 634.979 1277.62 637.991C1283.26 643.346 1288.19 649.4 1292.3 656.008Z" fill="#554140"/>
<path d="M1267.13 655.26C1271.46 660.514 1275.18 666.234 1278.25 672.313C1283.35 682.028 1286.89 692.556 1291.77 702.379C1291.95 697.706 1292 692.997 1292.43 688.372C1289.94 682.473 1287.55 676.521 1284.67 670.835C1281.69 664.73 1278.1 658.942 1273.95 653.558C1270.12 648.85 1265.49 644.861 1260.27 641.78C1258.15 640.482 1255.98 639.266 1253.77 638.131L1248.05 641.652C1249.59 642.423 1251.1 643.228 1252.59 644.068C1257.96 647.094 1263.1 650.548 1267.13 655.26Z" fill="#554140"/>
<path d="M1292.64 704.092C1294.09 706.935 1295.72 709.69 1297.5 712.344C1301.78 718.825 1307.49 724.246 1314.17 728.2C1321.06 732.188 1328.59 734.923 1336.14 737.389C1344.78 740.219 1353.27 743.312 1361.72 746.686C1370.25 750.092 1378.78 753.514 1387.53 756.337C1389.44 756.953 1394.22 752.969 1391.39 752.057C1375.74 747.007 1360.86 739.884 1345.23 734.788C1337.61 732.305 1329.97 729.869 1322.78 726.27C1315.69 722.829 1309.51 717.762 1304.74 711.48C1299.84 704.962 1296.4 697.648 1293.21 690.198C1292.87 694.672 1292.85 699.18 1292.66 703.655C1292.65 703.802 1292.64 703.946 1292.64 704.092Z" fill="#554140"/>
<path d="M1287.53 728.355C1288.34 729.247 1289.14 730.131 1289.97 731.001C1300.28 741.906 1312.65 750.258 1326.94 754.972C1343.37 760.39 1360.71 762.125 1377.35 766.744C1379.29 767.283 1384.05 763.251 1381.21 762.464C1366.41 758.354 1351.07 756.522 1336.28 752.362C1321.8 748.383 1308.58 740.744 1297.9 730.179C1295.14 727.432 1292.51 724.553 1289.98 721.582C1289.67 722.657 1289.32 723.726 1288.95 724.791C1288.51 726.001 1288.04 727.189 1287.53 728.355Z" fill="#554140"/>
<path d="M1246.37 675.084C1252.05 680.844 1256.91 687.363 1261.59 693.932C1269.69 705.295 1277.51 716.999 1286.77 727.47C1287.72 725.244 1288.54 722.964 1289.22 720.64C1282.08 712.129 1275.74 702.904 1269.38 693.857C1264.74 687.266 1260.03 680.686 1254.63 674.693C1250.12 669.521 1244.66 665.254 1238.55 662.119C1233.91 659.898 1229.14 657.962 1224.26 656.319L1218.44 659.907C1222.2 661.256 1225.96 662.593 1229.57 664.157C1235.78 666.84 1241.6 670.242 1246.37 675.084Z" fill="#554140"/>
<path d="M1244.07 713.895C1254.7 724.147 1264.71 735.169 1276.08 744.62C1277.42 743.047 1278.68 741.425 1279.87 739.753C1270.06 731.397 1261.23 721.937 1252.01 712.935C1240.91 702.103 1229.39 691.554 1216.42 682.971C1210.48 679.023 1204.21 675.586 1197.69 672.697L1191.93 676.247C1197.48 678.627 1202.84 681.422 1207.97 684.606C1221.18 692.793 1232.91 703.133 1244.07 713.895Z" fill="#554140"/>
<path d="M1278.39 746.535C1290.28 756.075 1303.53 763.771 1317.7 769.363C1334.04 775.705 1351.39 779.041 1368.91 779.21C1369.69 779.135 1370.45 778.881 1371.12 778.469C1371.78 778.057 1372.35 777.497 1372.77 776.833C1373.46 775.624 1372.87 774.919 1371.58 774.904C1340.65 774.531 1310.84 763.606 1286.28 744.958C1284.35 743.494 1282.47 741.975 1280.62 740.418C1279.42 742.08 1278.15 743.691 1276.81 745.252C1277.34 745.68 1277.86 746.112 1278.39 746.535Z" fill="#554140"/>
<path d="M1178.29 702.272C1186.98 705.511 1195.4 709.015 1203.18 714.125C1210.23 718.752 1216.67 724.224 1223.14 729.609C1235.23 739.665 1247.38 749.784 1259.96 759.239C1261.65 758.01 1263.31 756.734 1264.94 755.412C1253.74 747.008 1243 737.969 1232.17 729.121C1225.55 723.716 1219.13 718.055 1212.19 713.053C1205 707.903 1197.18 703.691 1188.92 700.52C1183.68 698.474 1178.4 696.536 1173.08 694.706C1170.72 693.887 1168.36 693.05 1165.98 692.237L1160.07 695.882C1161.42 696.337 1162.77 696.801 1164.12 697.256C1168.87 698.86 1173.59 700.532 1178.29 702.272Z" fill="#554140"/>
<path d="M1260.76 759.876C1261.58 760.496 1262.42 761.114 1263.25 761.729C1277 771.869 1291.74 780.864 1308.09 786.1C1316.96 788.941 1325.94 789.263 1335.19 789.084C1344.11 788.911 1353.13 788.548 1361.81 790.999C1363.75 791.546 1368.51 787.519 1365.68 786.719C1350.04 782.305 1333.6 786.896 1317.83 783.455C1309.62 781.663 1301.65 778.175 1294.2 774.342C1286.61 770.366 1279.3 765.86 1272.34 760.856C1270.12 759.279 1267.91 757.673 1265.73 756.036C1265.33 756.366 1264.92 756.692 1264.52 757.015C1263.29 757.997 1262.03 758.947 1260.76 759.876Z" fill="#554140"/>
<path d="M1361.54 790.789C1352.86 788.335 1343.84 788.693 1334.92 788.861C1325.67 789.035 1316.69 788.708 1307.82 785.861C1291.47 780.62 1276.73 771.618 1262.99 761.474C1262.15 760.86 1261.32 760.242 1260.49 759.62C1261.77 758.693 1263.02 757.744 1264.26 756.764C1264.66 756.438 1265.07 756.112 1265.47 755.787C1267.65 757.421 1269.86 759.028 1272.08 760.609C1279.04 765.614 1286.34 770.123 1293.93 774.1C1301.38 777.935 1309.35 781.429 1317.57 783.223C1333.33 786.67 1349.77 782.089 1365.41 786.51C1368.01 787.247 1364.2 790.702 1362.07 790.834C1361.89 790.849 1361.71 790.833 1361.54 790.789ZM1368.65 779.005C1351.13 778.827 1333.78 775.483 1317.44 769.133C1303.27 763.537 1290.02 755.838 1278.14 746.293C1277.61 745.875 1277.09 745.439 1276.57 745.01C1277.9 743.451 1279.17 741.842 1280.38 740.182C1282.22 741.736 1284.1 743.256 1286.03 744.72C1310.58 763.376 1340.39 774.311 1371.32 774.7C1372.61 774.717 1373.2 775.421 1372.51 776.629C1372.1 777.264 1371.56 777.805 1370.93 778.214C1370.3 778.623 1369.58 778.89 1368.84 778.998C1368.77 779.003 1368.71 779.005 1368.65 779.005ZM1377.1 766.547C1360.46 761.921 1343.13 760.177 1326.7 754.753C1312.4 750.032 1300.04 741.678 1289.73 730.772C1288.91 729.9 1288.1 729.015 1287.3 728.123C1287.81 726.956 1288.28 725.77 1288.71 724.563C1289.09 723.501 1289.44 722.431 1289.75 721.357C1292.27 724.327 1294.9 727.21 1297.66 729.954C1308.34 740.521 1321.56 748.164 1336.03 752.148C1350.83 756.314 1366.16 758.154 1380.96 762.27C1383.57 762.995 1379.75 766.461 1377.61 766.592C1377.44 766.606 1377.27 766.591 1377.1 766.547ZM1387.28 756.141C1378.54 753.315 1370.02 749.89 1361.48 746.481C1353.04 743.104 1344.54 740.008 1335.9 737.175C1328.37 734.703 1320.83 731.967 1313.95 727.976C1307.26 724.022 1301.56 718.599 1297.28 712.118C1296.7 711.264 1296.14 710.401 1295.61 709.528C1294.47 707.679 1293.41 705.789 1292.42 703.867C1292.42 703.722 1292.43 703.578 1292.44 703.433C1292.63 698.96 1292.65 694.453 1292.99 689.982C1296.18 697.432 1299.62 704.743 1304.51 711.261C1309.28 717.543 1315.46 722.611 1322.55 726.054C1329.73 729.655 1337.37 732.094 1344.99 734.58C1360.62 739.681 1375.5 746.809 1391.14 751.865C1393.72 752.696 1389.98 756.074 1387.85 756.205C1387.66 756.22 1387.46 756.2 1387.28 756.145L1387.28 756.141ZM1222.9 729.384C1216.42 723.997 1209.99 718.525 1202.94 713.896C1195.16 708.785 1186.75 705.276 1178.05 702.032C1173.36 700.282 1168.64 698.608 1163.89 697.01C1162.54 696.555 1161.19 696.091 1159.84 695.635L1165.75 691.996C1168.13 692.808 1170.49 693.649 1172.85 694.467C1178.16 696.311 1183.44 698.251 1188.68 700.287C1196.94 703.461 1204.76 707.674 1211.96 712.826C1218.89 717.828 1225.31 723.492 1231.92 728.897C1242.75 737.747 1253.49 746.788 1264.68 755.194C1263.06 756.516 1261.4 757.791 1259.7 759.018C1247.12 749.566 1234.98 739.445 1222.89 729.388L1222.9 729.384ZM1395.83 744.411C1382.57 738.5 1368.91 733.467 1355.77 727.289C1344.97 722.217 1334.54 716.216 1325.62 708.224C1319.01 702.216 1313.31 695.277 1308.69 687.626C1306.37 683.825 1304.24 679.909 1302.31 675.891C1301.24 673.678 1300.19 671.453 1299.14 669.233C1300.42 667.255 1301.91 665.418 1303.58 663.751C1305.65 668.023 1307.61 672.345 1309.76 676.576C1315.71 688.287 1323.57 698.804 1333.79 707.121C1353.27 722.964 1378.04 730.376 1400.65 740.451C1401.94 741.029 1400.31 742.86 1399.77 743.302C1398.97 744.006 1397.98 744.456 1396.92 744.596C1396.55 744.625 1396.17 744.563 1395.83 744.414L1395.83 744.411ZM1243.84 713.679C1232.68 702.915 1220.96 692.575 1207.75 684.385C1202.62 681.199 1197.26 678.403 1191.72 676.021L1197.48 672.476C1204 675.366 1210.26 678.804 1216.2 682.753C1229.16 691.339 1240.67 701.889 1251.77 712.722C1260.99 721.726 1269.81 731.183 1279.62 739.542C1278.43 741.211 1277.17 742.832 1275.83 744.405C1264.46 734.958 1254.46 723.937 1243.84 713.683L1243.84 713.679ZM1261.37 693.728C1256.69 687.158 1251.84 680.639 1246.16 674.879C1241.39 670.034 1235.58 666.634 1229.37 663.948C1225.76 662.385 1222 661.046 1218.24 659.695L1224.06 656.112C1228.93 657.758 1233.71 659.697 1238.35 661.92C1244.45 665.056 1249.91 669.324 1254.42 674.497C1259.82 680.49 1264.52 687.068 1269.15 693.658C1275.51 702.704 1281.85 711.926 1288.98 720.437C1288.3 722.759 1287.49 725.038 1286.54 727.263C1277.27 716.796 1269.47 705.094 1261.37 693.731L1261.37 693.728ZM1278.05 672.116C1274.99 666.038 1271.26 660.32 1266.94 655.068C1262.91 650.355 1257.77 646.903 1252.41 643.875C1250.92 643.033 1249.4 642.228 1247.87 641.458L1253.58 637.942C1255.79 639.077 1257.96 640.294 1260.08 641.592C1265.3 644.673 1269.93 648.662 1273.76 653.37C1277.9 658.752 1281.49 664.54 1284.47 670.644C1287.34 676.326 1289.73 682.276 1292.22 688.173C1291.79 692.795 1291.74 697.502 1291.56 702.172C1286.67 692.356 1283.15 681.832 1278.04 672.12L1278.05 672.116ZM1292.11 655.82C1288.01 649.214 1283.08 643.16 1277.44 637.807C1274.33 634.793 1271.06 631.961 1267.69 629.258L1273.19 625.872C1277.72 629.5 1282 633.415 1286.03 637.595C1291.34 643.121 1295.91 649.315 1299.63 656.021C1300.86 658.26 1302.02 660.539 1303.14 662.84C1301.45 664.434 1299.93 666.201 1298.6 668.111C1296.6 663.936 1294.52 659.792 1292.11 655.824L1292.11 655.82Z" fill="white"/>
<path opacity="0.21" d="M1743.39 733.671C1743.39 853.547 1646.21 950.726 1526.34 950.726C1406.46 950.726 1309.28 853.547 1309.28 733.671C1309.28 613.795 1406.46 516.616 1526.34 516.616C1646.21 516.616 1743.39 613.795 1743.39 733.671Z" fill="white"/>
</svg>
