<svg width="116" height="95" viewBox="0 0 116 95" fill="none" xmlns="http://www.w3.org/2000/svg">
<path d="M3.93331 24.3019C6.78775 24.7171 9.07011 26.1815 11.4751 27.3837C14.716 28.95 18.0827 30.2414 21.5397 31.2445C22.5442 31.5026 23.4831 31.9692 24.2953 32.6141C25.1076 33.259 25.7749 34.0676 26.2541 34.9874C26.5177 35.4935 26.6844 36.0419 25.995 36.4222C25.4164 36.7444 24.9636 36.4459 24.4634 36.1697C18.2272 32.7235 11.2694 30.3251 4.49352 27.6631C3.81597 27.3956 3.15389 27.0904 2.51038 26.749C2.34354 26.676 2.19394 26.5687 2.07134 26.4341C1.94873 26.2995 1.85586 26.1405 1.79878 25.9676C1.7417 25.7947 1.72169 25.6117 1.74005 25.4305C1.75841 25.2493 1.81474 25.0741 1.90535 24.9161C2.21379 24.1384 3.10354 24.3256 3.93331 24.3019Z" fill="#FFA85A"/>
<path d="M32.4302 76.2872C32.2466 76.5988 32.0252 76.8866 31.7711 77.144C27.4212 80.8598 24.3605 85.2407 21.2978 89.6255C20.7396 90.4243 20.2571 91.7595 18.6325 91.0623C17.2656 90.4757 18.2015 89.4469 18.6009 88.6402C20.9077 84.0062 24.7652 80.123 28.4211 76.1481C28.7581 75.7066 29.2198 75.3764 29.7465 75.2001C30.2733 75.0239 30.8408 75.0097 31.3757 75.1595C31.6516 75.2041 31.9048 75.339 32.0957 75.5431C32.2866 75.7472 32.4042 76.009 32.4302 76.2872Z" fill="#FFA85A"/>
<path d="M89.9703 85.3738C90.2129 86.1897 90.0323 86.6867 89.2302 86.8376C88.8827 86.9531 88.5044 86.9338 88.1704 86.7835C87.8364 86.6332 87.5711 86.363 87.427 86.0263C86.0021 81.5947 81.759 78.5834 78.5955 75.0251C77.8151 74.1472 76.9003 73.1797 78.4709 72.2853C80.0902 71.3626 80.8172 72.4171 81.6259 73.3036C83.5767 75.4495 85.5434 77.5875 87.5694 79.6893C88.3444 80.4165 88.9585 81.2981 89.3721 82.2772C89.7856 83.2563 89.9894 84.3111 89.9703 85.3738V85.3738Z" fill="#FFA85A"/>
<path d="M102.895 9.52542C102.815 10.5799 101.806 11.5026 100.971 12.3489C97.3849 15.9797 93.2894 19.3008 90.9168 23.6223C90.4218 24.5246 89.2197 25.8783 87.7763 25.1381C86.4812 24.4738 87.315 23.2736 88.096 22.2382C91.5772 17.6247 96.5268 13.8832 100.245 9.41272C100.463 9.16219 100.737 8.96583 101.044 8.8392C101.351 8.71257 101.683 8.65913 102.014 8.68313C102.243 8.67835 102.464 8.76432 102.629 8.9222C102.794 9.08008 102.89 9.297 102.895 9.52542V9.52542Z" fill="#FFA85A"/>
<path d="M21.3519 52.9424C21.2649 53.8051 20.4556 54.1089 19.6739 54.3923C15.3148 55.984 10.9742 57.6125 6.56238 59.106C5.35289 59.5051 4.18342 60.0166 3.0693 60.6337C2.64399 60.9194 2.12553 61.0315 1.62018 60.9472C1.11483 60.8629 0.660856 60.5885 0.351297 60.1803C-0.297888 59.3808 -0.0441468 58.5708 1.08616 58.3514C7.35656 57.1255 12.5006 54.0285 18.2919 52.0124C19.844 51.4766 20.8642 51.5985 21.3519 52.9424Z" fill="#FFA85A"/>
<path d="M36.6154 4.24232C37.935 4.45677 39.1549 5.07743 40.1052 6.01786C42.3856 8.38524 43.7782 11.1125 45.0785 13.8489C45.5491 14.8375 46.0915 15.7859 46.6313 16.7449C46.9681 17.3446 47.4736 18.0532 46.3466 18.498C45.9631 18.6674 45.5354 18.7095 45.1262 18.6181C44.7171 18.5268 44.3479 18.3069 44.0728 17.9905C43.3864 17.2951 42.7788 16.5262 42.261 15.6976C40.4947 12.5341 39.1917 9.1926 36.2891 6.47921C35.7375 5.96316 35.3974 5.27179 35.8687 4.5857C36.0084 4.38271 36.4539 4.31153 36.6154 4.24232Z" fill="#FFA85A"/>
<path d="M74.6892 3.92922C74.6088 7.96142 73.0785 11.8183 72.368 15.774C72.2131 16.6308 71.388 17.1245 70.2946 16.9993C69.1082 16.8628 69.3297 16.0535 69.3125 15.3806C69.2223 13.3255 69.5432 11.273 70.2563 9.34349C71.2655 7.02662 71.7659 4.52028 71.7241 1.99353C71.6799 1.17628 71.6252 -0.0686996 73.2947 0.00248004C74.8639 0.0683871 74.7156 1.23692 74.7868 2.1181C74.7974 2.72336 74.7648 3.3286 74.6892 3.92922Z" fill="#FFA85A"/>
<path d="M59.2926 85.584C59.5075 87.9791 59.7065 90.3748 59.9438 92.7679C60.0282 93.6161 60.7914 94.7905 59.002 94.8999C57.3807 94.9982 56.7822 93.8916 56.6392 92.7606C56.3281 90.2944 56.0039 87.8248 55.8253 85.3513C55.7644 83.9164 55.5794 82.4895 55.2723 81.0865C55.0205 80.0715 55.2888 79.0262 56.9325 78.8714C58.5018 78.7244 58.8115 79.657 58.9222 80.6245C59.1094 82.2722 59.2735 83.9238 59.4495 85.5728L59.2926 85.584Z" fill="#FFA85A"/>
<path d="M109.55 64.64C109.476 65.535 108.701 65.945 107.616 65.7189C106.246 65.4406 104.903 65.0437 103.602 64.5326C100.62 63.3344 97.7032 62.0393 94.7572 60.7871C93.6875 60.3323 92.5407 59.7609 93.4601 58.7222C93.8726 58.2805 94.4175 57.9849 95.0126 57.8801C95.6078 57.7752 96.2209 57.8668 96.7594 58.1409C100.771 59.8545 104.244 62.3096 108.637 63.4985C108.898 63.5528 109.133 63.6965 109.299 63.9049C109.466 64.1133 109.555 64.3733 109.55 64.64Z" fill="#FFA85A"/>
<path d="M98.4283 46.4044C97.3487 46.4993 96.9197 46.3471 96.6402 46.009C96.2652 45.5575 96.484 45.1172 96.8538 44.7528C97.6301 43.9861 98.6111 43.4597 99.6792 43.2369C104.415 42.2536 109.18 41.354 113.921 40.3878C114.785 40.2111 115.445 40.2322 115.85 40.919C116.294 41.6677 115.679 42.1264 114.97 42.3689C109.464 44.2209 103.317 44.4232 98.4283 46.4044Z" fill="#FFA85A"/>
<path d="M56.6397 92.7613C56.328 90.2951 56.0044 87.8254 55.8252 85.3513C55.7645 83.9165 55.5795 82.49 55.2722 81.0873C55.0211 80.0723 55.2886 79.0268 56.9324 78.8713C58.5009 78.7243 58.8114 79.6576 58.9221 80.6258C59.1093 82.2735 59.2728 83.921 59.4494 85.5733L59.2932 85.5846C59.508 87.9796 59.7077 90.3746 59.9444 92.7684C60.0294 93.6173 60.7919 94.7913 59.0032 94.9001C58.9373 94.904 58.8714 94.9059 58.8055 94.9059C57.3318 94.9065 56.7775 93.8455 56.6397 92.7613ZM18.6325 91.0602C17.2656 90.473 18.2008 89.444 18.6009 88.6373C20.9076 84.0034 24.7658 80.121 28.425 76.1462C28.7619 75.7045 29.2236 75.374 29.7504 75.1978C30.2771 75.0215 30.8447 75.0076 31.3795 75.1576C31.6551 75.2031 31.9079 75.3385 32.0981 75.5431C32.2884 75.7476 32.4054 76.0096 32.4308 76.2878C32.2472 76.5994 32.0258 76.887 31.7717 77.1444C27.4219 80.8603 24.3612 85.2404 21.2985 89.6259C20.849 90.2678 20.4495 91.2584 19.4649 91.2584C19.1771 91.2497 18.8941 91.1826 18.6331 91.0608L18.6325 91.0602ZM87.4269 86.0274C86.0014 81.5951 81.7589 78.5839 78.5954 75.0263C77.8144 74.1484 76.8996 73.1807 78.4708 72.2851C80.0902 71.3624 80.8171 72.4171 81.6251 73.3036C83.5753 75.4495 85.5426 77.5875 87.5686 79.6893C88.3442 80.4163 88.9588 81.2976 89.3727 82.2767C89.7866 83.2558 89.9906 84.311 89.9716 85.3738C90.2141 86.1897 90.0336 86.6865 89.2308 86.8374C89.0856 86.8656 88.9379 86.8799 88.7899 86.8802C88.5008 86.9066 88.211 86.8376 87.965 86.6836C87.7189 86.5295 87.5301 86.2989 87.4276 86.0274H87.4269ZM107.616 65.7201C106.246 65.4416 104.903 65.0448 103.602 64.5339C100.621 63.3364 97.7031 62.0412 94.7571 60.789C93.6881 60.3342 92.5413 59.7629 93.4594 58.7236C93.872 58.2822 94.4169 57.9868 95.012 57.882C95.6071 57.7773 96.2202 57.869 96.7587 58.143C100.77 59.8566 104.243 62.3116 108.637 63.5012C108.898 63.5554 109.133 63.6991 109.299 63.9077C109.466 64.1162 109.554 64.3765 109.549 64.6433C109.539 64.8102 109.494 64.9732 109.418 65.1222C109.342 65.2712 109.237 65.4032 109.108 65.51C108.98 65.6167 108.83 65.6959 108.67 65.7429C108.509 65.79 108.341 65.8039 108.175 65.7835C107.987 65.7812 107.8 65.7599 107.617 65.7201H107.616ZM0.353815 60.184C-0.29471 59.3852 -0.0383384 58.5752 1.08867 58.3551C7.35973 57.1292 12.5032 54.0315 18.2951 52.0161C19.8445 51.4769 20.8654 51.599 21.3524 52.9429C21.2661 53.8049 20.4555 54.1099 19.6752 54.3926C15.3161 55.9856 10.9754 57.6144 6.56358 59.1072C5.35406 59.5062 4.18455 60.0176 3.07047 60.6348C2.71567 60.8447 2.31282 60.9595 1.90068 60.9682C1.60004 60.9642 1.30426 60.8912 1.03614 60.7552C0.768009 60.6191 0.534615 60.4236 0.353815 60.1833V60.184ZM96.6401 46.0107C96.2651 45.5593 96.4839 45.1188 96.8536 44.7544C97.6297 43.9878 98.6105 43.4616 99.6784 43.2386C104.415 42.2553 109.179 41.3565 113.921 40.3909C114.784 40.213 115.445 40.2346 115.85 40.9181C116.294 41.6674 115.679 42.1263 114.97 42.3681C109.464 44.2247 103.317 44.4276 98.4275 46.4095C98.2153 46.4273 98.0274 46.4371 97.862 46.4371C97.6391 46.4687 97.4119 46.4464 97.1994 46.3721C96.9869 46.2978 96.7953 46.1737 96.6407 46.0101L96.6401 46.0107ZM24.4646 36.1749C18.2285 32.7286 11.2706 30.3301 4.49473 27.6681C3.81689 27.401 3.15483 27.0954 2.51164 26.7532C2.34479 26.6802 2.19513 26.5731 2.07253 26.4385C1.94993 26.3038 1.85714 26.1448 1.80012 25.9718C1.74309 25.7989 1.72317 25.6159 1.74163 25.4347C1.76009 25.2536 1.81646 25.0784 1.9072 24.9205C2.16094 24.2766 2.81017 24.2904 3.49494 24.3036C3.64059 24.3069 3.78951 24.3095 3.93582 24.3036C6.79026 24.7188 9.07269 26.1837 11.4776 27.3859C14.7185 28.9519 18.0849 30.2437 21.5416 31.247C22.5461 31.505 23.485 31.9714 24.2973 32.6163C25.1095 33.2611 25.7769 34.0698 26.256 34.9896C26.5196 35.4965 26.687 36.0443 25.9969 36.4246C25.8434 36.5143 25.6692 36.5624 25.4914 36.5643C25.1221 36.5214 24.7692 36.3875 24.4646 36.1742V36.1749ZM87.7762 25.1399C86.4812 24.4756 87.3149 23.2761 88.0965 22.2433C91.5777 17.6298 96.5267 13.8876 100.246 9.41783C100.464 9.16726 100.737 8.97089 101.044 8.84436C101.351 8.71783 101.683 8.66465 102.014 8.68893C102.242 8.68378 102.462 8.76867 102.628 8.92546C102.793 9.08225 102.89 9.29823 102.897 9.52596C102.817 10.5805 101.808 11.503 100.972 12.3499C97.3861 15.98 93.29 19.302 90.9174 23.6242C90.5219 24.3439 89.6757 25.3533 88.6152 25.3533C88.3224 25.3507 88.0346 25.2777 87.7762 25.1399V25.1399ZM44.0732 17.9915C43.3874 17.2957 42.7798 16.5268 42.2614 15.6986C40.4945 12.5351 39.1922 9.19308 36.2897 6.47969C35.738 5.96298 35.3979 5.2716 35.8691 4.5855C36.0089 4.38317 36.4544 4.31198 36.6159 4.24277C37.9368 4.45592 39.158 5.07637 40.1089 6.01757C42.39 8.38561 43.7819 11.1124 45.0829 13.8495C45.5535 14.8381 46.0953 15.7856 46.6351 16.7445C46.9725 17.3443 47.478 18.0529 46.351 18.4978C46.0913 18.603 45.814 18.6583 45.5338 18.6606C45.2568 18.6596 44.9831 18.5997 44.7311 18.4846C44.4791 18.3694 44.2547 18.2016 44.0726 17.9928L44.0732 17.9915ZM70.2957 17.0029C69.1093 16.8665 69.3308 16.0565 69.3137 15.3836C69.2226 13.3284 69.5435 11.276 70.2575 9.34671C71.2661 7.02973 71.7665 4.52321 71.7246 1.99653C71.6798 1.17862 71.6257 -0.0663605 73.2938 0.00547818C74.8644 0.0713852 74.7154 1.23925 74.7873 2.12043C74.7979 2.72591 74.7653 3.33139 74.6897 3.93223C74.6099 7.96442 73.0796 11.8208 72.3685 15.7772C72.2816 16.1623 72.0561 16.5021 71.7348 16.7316C71.4136 16.9612 71.0191 17.0648 70.6266 17.0222C70.5157 17.0212 70.405 17.0139 70.295 17.0004L70.2957 17.0029Z" fill="white"/>
</svg>
