<svg width="272" height="312" viewBox="0 0 272 312" fill="none" xmlns="http://www.w3.org/2000/svg">
<path d="M233.359 233.912C233.2 233.78 233.047 233.779 233.015 233.9C232.983 234.021 232.807 234.226 232.734 233.952C232.66 233.677 232.792 232.865 232.66 232.958C232.528 233.05 232.093 233.275 232.182 233.117C232.235 232.995 232.249 232.86 232.221 232.729C232.193 232.599 232.124 232.481 232.025 232.393C231.573 232.029 231.176 231.601 230.848 231.123L230.507 230.866C230.359 230.72 230.232 230.554 230.129 230.374C229.979 230.174 229.697 229.944 229.703 229.781C229.716 229.396 229.347 229.635 229.225 229.383L229.123 229.168C228.738 228.945 228.406 228.641 228.149 228.277L227.906 228.061C227.573 227.763 227.042 227.6 226.833 227.272L226.545 226.815C225.909 226.508 225.304 226.138 224.742 225.71L224.282 225.23C223.875 224.71 223.326 224.319 222.702 224.103C222.405 223.989 222.158 223.773 222.004 223.494C221.965 223.394 221.902 223.306 221.822 223.235C221.742 223.164 221.647 223.112 221.544 223.085C221.237 222.962 220.66 222.973 220.671 222.375C220.622 222.309 220.55 222.263 220.469 222.248C220.126 222.367 220.208 221.942 220.011 221.885C219.772 221.849 219.539 221.78 219.319 221.678L219.145 221.563C218.838 221.178 218.471 220.846 218.058 220.58C217.419 220.179 216.748 219.833 216.051 219.547L215.988 219.316C215.94 219.175 215.851 219.053 215.733 218.963C215.614 218.874 215.472 218.821 215.324 218.812C214.972 218.699 214.635 218.541 214.323 218.342C213.971 218.21 213.646 218.017 213.361 217.772C213.102 217.465 212.662 217.548 212.494 217.174C212.477 217.136 212.486 217.064 212.47 217.057C212.084 216.894 211.604 217.017 211.33 216.513L210.263 215.772L209.837 215.646C209.164 215.402 208.515 215.095 207.899 214.73L207.368 214.378C207.146 214.236 206.969 213.976 206.762 214.277C206.741 214.307 206.471 214.221 206.453 214.169L206.203 213.449C205.676 213.442 205.151 213.379 204.637 213.26C204.202 213.121 203.756 213.023 203.303 212.967C203.061 212.971 202.326 212.177 201.89 211.918C200.988 211.694 200.069 211.541 199.142 211.459L198.649 210.991L198.38 210.735C197.846 210.602 197.421 211.024 197.433 211.674L197.293 212.155C197.161 212.7 196.985 213.233 196.766 213.749C196.361 214.902 195.706 215.952 194.848 216.822L194.25 217.307C193.649 217.895 192.892 218.586 192.567 218.845L192.369 219.215C192.111 219.553 191.769 219.818 191.377 219.984L191.019 220.194C190.578 220.362 190.065 220.551 189.877 220.611C189.548 220.731 189.23 220.879 188.928 221.055C188.773 221.163 188.108 221.021 188 221.054L187.909 221.097L187.27 221.406C186.277 221.514 185.279 221.558 184.28 221.539L183.803 221.753C183.449 221.915 183.079 221.561 182.748 221.817C182.571 221.953 182.062 221.712 181.707 221.654C181.543 221.627 181.376 221.624 181.211 221.644C181.03 221.672 180.87 221.792 180.692 221.776C180.575 221.767 180.699 221.375 180.365 221.439C180.166 221.478 179.911 221.031 179.745 221.386L178.219 221.208L177.591 221.097C176.917 220.867 175.832 220.533 175.175 220.352L174.589 220.265C174.261 220.208 173.948 220.083 173.672 219.897C173.195 219.669 172.704 219.474 172.2 219.315C171.784 219.142 171.306 219.043 171.102 218.528C171.075 218.46 170.97 218.409 170.902 218.349L170.476 217.979C169.846 217.605 169.278 217.136 168.793 216.588L168.4 216.194L168.001 215.801C167.642 215.386 167.263 214.989 166.864 214.612C166.577 214.104 166.321 213.579 166.097 213.04C165.665 212.003 165.345 210.921 165.145 209.815L165.415 209.397L165.638 209.056C165.589 208.581 165.606 208.102 165.691 207.633L165.772 207.287C165.863 206.908 165.978 206.538 166.084 206.167C166.114 206.065 166.222 205.968 166.197 205.877C166.096 205.659 166.007 205.436 165.931 205.209C165.9 205.003 166.347 205.084 166.224 204.716C166.165 204.537 166.337 204.317 166.428 204.136C166.62 203.668 166.867 203.226 167.165 202.818L167.537 202.399C168.044 202.021 169.143 201.315 169.981 200.833L170.739 200.395L171.297 200.073C172.077 200.033 172.855 199.945 173.625 199.809L174.139 199.957L174.582 200.084C175.146 199.964 175.724 199.927 176.299 199.976C176.994 200.034 177.692 200.056 178.39 200.043C178.699 200.025 179.527 200.133 179.552 199.937C179.576 199.74 180.385 200.238 180.803 200.341C181.22 200.444 183.553 200.226 185.268 200.449L186.828 200.753C188.757 201.13 190.685 201.611 192.612 202.061L192.958 202.143C193.335 202.297 193.382 201.844 193.061 201.131C192.288 199.738 191.431 198.393 190.496 197.103L189.893 196.354L189.543 195.918C189.097 195.603 188.693 195.233 188.34 194.816C188.18 194.576 187.355 194.013 187.193 193.82L187.092 193.622C186.965 193.37 186.58 193.662 186.539 193.278C186.519 193.216 186.475 193.164 186.417 193.135C186.268 193.074 185.096 192.328 184.963 192.225C184.86 192.145 184.699 192.132 184.611 192.045C184.148 191.59 183.248 191.66 183.116 190.792L183.109 190.743C182.94 190.677 182.332 190.375 181.764 190.064C181.197 189.753 179.604 189.08 179.456 189.44L179.314 188.757L179.229 188.348C178.893 188.217 178.253 187.934 177.804 187.724C177.356 187.514 175.765 186.836 175.318 186.554L174.916 186.487C174.48 186.415 174.433 185.932 174.4 185.952L173.584 186.434C172.805 185.829 172.117 185.29 172.055 185.236C171.929 185.097 171.813 184.95 171.708 184.796C171.624 184.677 170.879 184.808 170.607 184.547C169.892 184.13 169.13 183.8 168.338 183.563L167.815 183.33C167.407 183.227 167.025 183.037 166.696 182.773C166.563 182.632 166.23 182.686 166.005 182.593L165.879 182.541C165.767 182.383 165.425 182.372 165.122 182.509L165.009 181.955C164.998 181.903 164.496 181.899 164.251 181.784L164.053 181.69C163.79 181.46 163.495 181.27 163.177 181.126L162.912 181.217C162.846 181.238 162.776 181.245 162.708 181.237C162.639 181.23 162.573 181.207 162.513 181.171C162.169 180.836 161.612 180.38 161.29 180.442L160.618 180.571C160.109 180.332 159.588 180.119 159.058 179.934L158.931 179.84C158.665 179.635 158.428 179.312 158.115 179.631C158.093 179.652 157.89 179.536 157.8 179.453C157.445 179.122 157.126 178.962 156.726 179.232C156.505 179.377 156.539 178.983 156.5 178.981L156.077 178.953C155.615 178.819 154.68 178.523 153.99 178.301L153.433 177.985L152.934 177.703C152.377 177.562 151.475 177.301 150.93 177.123L150.423 177.039C150.204 177.003 150.134 176.386 149.795 176.813C149.735 176.889 149.288 176.652 149.02 176.56L148.707 176.453C148.26 176.23 147.793 176.047 147.314 175.906C146.857 175.779 145.16 175.201 144.486 175.048C143.545 174.666 142.627 174.231 141.735 173.746C141.273 173.631 140.818 173.49 140.372 173.325C140.137 173.195 139.231 172.98 139.012 172.863C138.721 172.61 138.461 172.324 138.237 172.01C138.153 171.91 137.999 171.847 138.217 172.223L137.874 172.448C137.658 172.588 137.527 172.549 137.383 172.34C137.289 172.208 137.215 171.918 137.186 171.92L136.069 171.972C135.629 171.46 135.157 170.975 134.656 170.521C134.722 170.631 134.644 170.815 134.359 170.711C133.774 170.476 133.206 170.2 132.659 169.886L132.343 169.857L131.988 169.824C131.43 169.467 130.816 169.205 130.172 169.047L129.622 168.571L129.237 168.237C129.047 168.238 128.859 168.194 128.689 168.111C128.518 168.027 128.369 167.906 128.253 167.756C128.142 167.516 127.594 167.208 127.448 167.52L126.94 167.18C126.72 167.032 126.468 166.991 126.395 166.689L126.384 166.645C126.273 166.601 125.53 166.39 124.73 166.175L124.298 165.735C124.067 165.503 123.94 165.131 123.688 164.971C123.436 164.811 123.067 164.825 122.751 164.747C122.435 164.679 122.124 164.587 121.823 164.471L121.611 164.382C121.411 164.131 121.26 163.844 121.168 163.536L120.895 163.813C120.86 163.849 120.543 163.642 120.376 163.519L119.856 163.139C119.428 162.849 119.041 162.502 118.705 162.109C118.7 161.969 118.675 161.831 118.631 161.698C118.592 161.701 118.554 161.715 118.521 161.737C118.489 161.76 118.463 161.791 118.447 161.827C118.405 161.919 118.213 162.19 118.141 162.154C117.976 161.899 117.854 161.619 117.779 161.324L117.37 161.667C117.231 161.622 117.108 161.535 117.02 161.417C117.001 161.073 116.757 161.21 116.614 161.123C116.509 161.06 116.519 160.814 116.413 160.7L116.31 160.584C116.139 160.514 115.787 160.395 115.527 160.321C114.932 160.109 114.37 159.811 113.862 159.436L113.412 159.35C113.2 159.323 113 159.235 112.837 159.096C112.674 158.957 112.555 158.774 112.495 158.568C112.479 158.54 112.459 158.515 112.433 158.496C112.408 158.476 112.379 158.462 112.349 158.454L111.537 158.552C111.099 157.882 110.838 157.398 110.955 157.472C111.071 157.545 111.412 157.655 111.247 157.424L111.247 157.301C111.242 156.928 110.959 157.115 110.837 157.018C110.622 156.848 110.478 156.981 110.336 156.957L109.94 156.894C109.353 156.604 109.114 156.356 109.408 156.344L109.496 156.281L109.572 156.234C109.567 156.143 109.538 156.055 109.489 155.979C109.44 155.902 109.372 155.84 109.292 155.797L109.206 155.829L108.556 156.072C108.039 155.685 107.44 155.249 107.216 155.107L107.149 154.991L106.91 154.574C106.541 154.377 106.16 154.203 105.77 154.052C105.558 153.982 105.198 153.384 105.058 153.309C104.863 153.146 104.658 152.994 104.445 152.856C104.34 152.843 103.96 152.7 103.906 152.563C103.775 152.29 103.59 152.045 103.362 151.845C102.839 151.598 102.299 151.388 101.747 151.215L101.497 150.916L100.961 150.279C100.217 149.945 99.5398 149.477 98.9638 148.899L98.6136 148.534L98.4148 148.328C98.0645 148.15 97.7468 147.914 97.4753 147.63C96.9727 147.238 96.4234 146.911 95.8402 146.654L95.7436 146.31L95.6419 145.945C95.417 145.795 95.1735 145.674 94.9175 145.587L94.9074 145.558C94.6002 144.732 93.659 144.456 93.2029 143.772L93.046 143.535C92.9414 143.232 92.7534 142.979 92.6281 142.973C92.2282 142.814 91.8915 142.528 91.6694 142.159C91.4519 141.728 90.0819 140.037 89.3713 139.069L88.788 138.172C88.5415 137.809 88.3653 137.398 88.1037 137.016L87.8169 136.588C87.7074 136.015 87.5785 135.327 87.5312 135.058C87.4623 134.688 87.4165 134.314 87.394 133.938C87.4158 133.858 87.6734 133.619 87.7268 133.514C87.7801 133.409 87.3928 132.866 87.2846 132.725L87.3116 132.693L87.5704 132.389C87.4693 132.196 87.3285 132.027 87.1571 131.893C86.9857 131.759 86.7878 131.663 86.5764 131.611C86.1836 131.535 85.539 130.423 85.3927 130.278C85.0303 130.031 84.7154 129.721 84.4633 129.363L83.9979 129.336L83.9304 129.332C83.85 129.267 83.5858 129.093 83.3412 128.944C83.0129 128.661 82.7146 128.345 82.4505 128.002C82.3602 127.885 82.1883 127.523 82.1128 127.446C82.0373 127.368 81.2001 126.692 80.4663 126.098L79.8514 125.502C79.7069 125.299 79.5174 125.133 79.2978 125.015C78.9741 124.874 78.7107 124.623 78.554 124.306L78.4389 123.969C78.1893 123.778 77.7986 123.461 77.5757 123.264L77.3765 123.081C77.1857 122.902 76.8461 122.675 76.8516 122.532L76.866 122.139C76.589 122.131 76.313 122.104 76.04 122.056C75.8423 122.017 75.5495 121.186 75.3428 120.892L75.0943 120.666L74.8658 120.46C74.6009 120.305 74.3492 120.128 74.1137 119.931C73.9798 119.805 73.4604 119.229 73.2069 118.949L72.978 118.693L72.6949 118.376C72.3967 118.019 72.0312 117.585 71.8829 117.414C71.5427 117.113 71.179 116.84 70.7953 116.597C70.5545 116.446 69.9308 115.76 69.5585 115.478C69.1861 115.196 68.1655 113.646 67.4902 113.063L67.0802 112.399C66.8481 112.024 66.3688 112.246 66.2219 111.786L66.1317 111.5C65.9391 111.237 65.6877 111.023 65.3974 110.876L65.2597 110.792C64.9815 110.621 64.5595 110.476 64.881 110.08C64.8973 110.068 64.6622 109.769 64.5834 109.768L64.1212 109.772C63.8644 109.434 63.6346 109.077 63.4334 108.703C63.3235 108.473 62.5941 108.175 62.5242 108.012C62.4542 107.848 62.1142 107.31 61.9782 107.295C61.8422 107.281 61.5273 107.148 61.691 107.04C61.8547 106.932 61.1139 106.568 60.9198 106.385L60.739 106.211L60.1918 105.688C59.6323 105.212 59.2133 104.592 58.98 103.896L58.4882 103.929C57.9276 103.966 58.0983 103.463 57.8548 103.274C57.7047 103.19 57.5737 103.075 57.4705 102.937C57.3673 102.799 57.294 102.641 57.2553 102.473L57.2447 102.411C57.0851 102.329 56.9073 102.288 56.7278 102.292C56.5476 102.296 56.07 101.542 55.824 101.264L55.5825 101.017C55.3435 100.773 54.9711 100.616 54.9806 100.218C54.9426 100.139 54.8762 100.078 54.7949 100.047L54.1205 100.253C53.8758 99.8031 53.6678 99.3339 53.499 98.8502C53.0865 98.4168 52.6409 98.0162 52.1662 97.6521L52.1037 97.367C51.9996 96.8961 51.6321 97.1194 51.4939 96.8988C51.3406 96.6569 51.1398 96.2223 51.0148 96.2185C50.5571 96.2008 50.6056 95.7729 50.3608 95.6163C50.1284 95.4334 49.9474 95.1933 49.8357 94.9195L49.7099 94.6938C49.2194 94.3298 48.7569 93.9293 48.3266 93.4957C47.904 93.0692 46.6991 91.7957 46.5898 91.6196C46.4804 91.4434 46.1153 91.111 46.0426 90.9469C45.8165 90.725 45.562 90.5341 45.2857 90.3792C44.9772 90.0167 44.7515 89.5913 44.6243 89.1326L44.0366 89.2444L44.0113 89.2488C43.7186 88.7602 43.3886 88.295 43.0242 87.8573C42.6233 87.3679 41.3477 85.968 41.2126 85.7415C41.0144 85.5035 40.79 85.2885 40.5437 85.1008C40.4219 84.9835 39.9354 84.4491 39.7042 84.1521L39.6243 83.8647C39.5084 83.457 39.5069 83.1095 38.8935 83.0339L38.6665 83.0067C38.3577 82.6362 38.1201 82.2117 37.9658 81.7548L37.9916 81.47L38.0418 80.9074C37.6075 80.5859 37.1076 80.2199 36.9295 80.0886C36.7513 79.9572 36.2262 79.5295 36.2892 79.4228C36.3207 79.2763 36.3154 79.1242 36.2733 78.9804C36.2312 78.8366 36.1538 78.7057 36.0482 78.5993C35.7832 78.3689 35.7946 77.4595 35.9055 77.6847C36.029 77.954 36.1988 78.1995 36.4069 78.4103C36.4854 78.4089 36.8111 78.2602 36.7719 78.0848L36.6646 77.9757C36.2965 77.6075 36.5484 77.446 36.7116 77.2087C36.8503 77.0132 37.2769 77.1433 37.2148 76.6868L37.1795 76.4353C37.4439 76.1152 37.7323 75.8156 38.042 75.5392C38.2975 75.3201 39.1284 75.9617 39.2837 76.0676C39.439 76.1735 40.0264 76.6809 40.3076 76.8962C40.5889 77.1115 41.3483 78.0738 41.6191 78.2586C41.8899 78.4434 42.5437 79.4115 42.787 79.5973C43.0749 79.8987 43.3921 80.1707 43.734 80.4091C43.9743 80.4845 44.4194 81.4394 44.8594 81.8854C45.2994 82.3314 46.8279 83.8712 47.2628 84.3306C47.8586 85.0141 48.4156 85.7304 48.9314 86.4762L49.0895 86.5862L50.2288 87.3861C51.2184 88.5239 52.2899 89.769 52.6146 90.1641L52.9345 90.5039C53.2675 90.7745 53.5458 91.1062 53.7539 91.4814L53.8702 91.7542L54.9642 92.4881C55.1974 92.6456 55.7853 93.4804 56.0294 93.6411C56.2735 93.8019 56.8534 94.7242 57.1353 95.0186C57.6689 95.5036 58.2332 95.9535 58.8249 96.3654L58.8405 96.5232C58.8749 96.8794 59.2044 96.8418 59.3344 97.0316C59.4739 97.2415 59.6322 97.4383 59.8073 97.6196C60.0291 97.8425 60.3032 98.0201 60.513 98.2503C60.6763 98.43 60.7628 98.8082 60.9069 98.8461C61.4874 99.0122 61.6187 99.6034 62.0629 99.8851C62.3247 100.063 62.5656 100.269 62.7807 100.501L62.9712 100.694C63.1615 100.943 63.3349 101.205 63.4902 101.478L63.7085 101.614C63.8507 101.674 63.9765 101.768 64.0757 101.886C64.1748 102.005 64.2446 102.145 64.2792 102.296L64.2915 102.386C64.7566 102.6 65.1968 102.864 65.6038 103.174C66.0165 103.641 66.3682 104.159 66.6505 104.714C66.6866 104.747 67.195 105.232 67.7018 105.716C68.2085 106.199 69.7119 107.738 69.9533 108.022C70.1947 108.306 70.9692 109.235 71.1429 109.454L71.3199 109.638C71.6115 109.943 72.0503 110.045 72.2915 110.462C72.4956 110.816 73.0329 110.945 73.1581 111.415L73.2809 111.877C73.7176 112.233 74.1323 112.615 74.5228 113.021C74.7894 113.313 76.0274 114.388 76.5116 114.877C76.9957 115.367 78.3952 116.769 78.565 116.874C78.8129 117.09 79.0295 117.339 79.2086 117.615C79.303 117.773 80.1495 118.181 80.6066 118.525C81.1819 119.153 81.7156 119.819 82.2042 120.517L82.4057 120.692L84.1817 122.231C86.1386 123.92 87.9729 125.583 88.2586 125.926L88.7239 125.892C88.8286 125.884 89.0403 126.082 89.123 126.222C89.2415 126.42 89.1592 126.762 89.5381 126.749L89.9617 126.736C90.3889 126.681 90.7803 126.469 91.059 126.141L91.4034 126.108C91.4695 126.103 91.4686 125.902 91.5247 125.81L91.6639 125.582C91.7644 125.748 91.9243 125.868 92.1107 125.92L92.1473 125.87L92.2301 125.753C92.4007 125.51 92.6443 125.329 92.9251 125.235C93.2516 125.103 94.3904 125.103 94.6734 125.396L94.9241 125.133C95.0335 125.029 95.1652 124.951 95.3092 124.905C95.4532 124.859 95.6058 124.846 95.7554 124.867L95.8579 124.869C96.0291 124.677 96.18 124.469 96.3081 124.247L96.7118 124.381L96.8219 124.417C96.9509 124.385 97.322 124.327 97.6478 124.286C98.1466 124.365 98.6284 124.529 99.0723 124.77L99.1849 124.794L99.3058 124.822C99.5201 124.792 99.7314 124.743 99.9369 124.676C100.155 124.605 100.72 124.614 100.795 124.97L101.194 124.605L101.359 124.452C101.466 124.43 101.576 124.432 101.682 124.457C101.787 124.482 101.886 124.53 101.972 124.597C102.361 124.861 102.781 125.075 103.224 125.235C103.729 125.431 105.313 126.007 105.628 126.159C106.281 126.534 106.914 126.941 107.525 127.38C107.982 127.713 109.745 128.698 110.294 129.076L110.664 129.573L110.892 129.879C111.236 130.118 111.825 130.579 112.201 130.904L112.542 131.2C112.884 131.495 113.227 131.79 113.568 132.086C113.641 132.134 113.703 132.197 113.749 132.271C113.84 132.574 113.715 132.93 114.295 133.045C114.483 133.083 114.596 133.567 114.867 133.829C115.346 134.289 115.432 135.015 116.039 135.434C116.062 135.449 116.02 135.569 116.008 135.639C115.998 135.817 115.962 135.992 115.902 136.159L115.72 136.489C116 136.627 116.106 136.777 115.956 136.823L115.936 136.968C115.904 137.184 115.91 137.411 115.901 137.634L115.679 138.377L115.523 138.503C115.444 138.706 115.287 139.17 115.174 139.534L115.061 139.866C114.987 140.173 114.888 140.473 114.766 140.764C114.499 141.266 114.199 141.749 113.866 142.209L113.678 142.463C113.442 142.655 113.175 142.805 112.888 142.905C112.586 142.891 112.286 142.847 111.993 142.774C111.656 142.728 111.314 142.774 111.001 142.907L110.776 142.957C110.515 143.019 110.191 142.623 109.915 142.926L109.777 143.078C109.658 142.868 109.493 142.686 109.296 142.547C108.979 142.438 108.656 142.351 108.328 142.286L108.103 142.194L107.876 142.101C107.615 141.942 107.33 141.895 107.242 141.997C107.153 142.1 106.744 142.323 106.594 142.194C106.445 142.064 105.99 141.743 105.998 141.837C106.005 141.932 105.954 142.123 105.88 142.128L105.818 142.098C105.738 142.056 105.668 141.997 105.613 141.925C105.147 141.303 104.592 141.517 104.077 141.505C103.696 141.496 103.648 141.505 103.71 141.111L103.784 140.66C103.557 140.769 103.337 140.778 103.297 140.682C103.256 140.586 102.977 140.391 102.961 140.479L102.967 140.561L103.006 141.016C102.688 140.921 101.871 140.675 101.19 140.468L100.573 140.269C100.372 140.227 100.183 140.138 100.023 140.009C99.7093 139.72 99.3315 139.51 98.9208 139.396L98.6438 139.28C98.5112 139.114 98.3405 138.983 98.1462 138.897L98.0643 138.902C97.9607 138.907 97.8147 138.983 97.767 138.94C97.2544 138.58 96.7026 138.279 96.122 138.043L95.6181 137.766C95.0691 137.389 94.2835 136.88 93.8727 136.633L93.5091 136.496C93.2009 136.377 93.0082 136.384 92.9051 135.997L92.836 135.738C92.691 135.713 92.5531 135.657 92.432 135.573C92.3109 135.489 92.2096 135.38 92.1351 135.253C92.1001 135.078 91.6055 135.137 91.48 135.174C91.3544 135.211 91.0009 134.742 90.785 134.534L90.514 134.66L90.4516 134.69C90.3186 134.674 90.3946 134.852 90.6116 135.091C90.9041 135.487 91.2722 135.821 91.6947 136.074L91.7897 136.42C91.869 136.733 91.9913 137.033 92.1529 137.312L92.3022 137.557C92.5612 137.803 92.8663 137.996 93.2 138.123C93.4508 138.2 94.3166 139.476 95.1967 140.236C96.0767 140.996 98.5338 143.123 98.6433 143.361C98.7529 143.598 99.558 143.722 99.7378 143.786C99.9175 143.85 100.492 144.659 100.856 144.965L101.246 145.171L101.677 145.404C102.173 145.763 102.689 146.09 103.225 146.386L103.415 146.776L103.504 146.958C103.487 147.193 103.661 147.214 103.891 147.004L104.18 147.425L104.459 147.821C105.01 148.16 105.532 148.544 106.019 148.97L106.576 149.043L106.768 149.069C107.151 149.57 107.598 150.018 108.098 150.402C108.597 150.784 110.073 151.457 110.048 151.538C110.044 151.608 110.066 151.676 110.111 151.731C110.155 151.785 110.217 151.822 110.286 151.833C110.46 151.86 110.985 152.067 111.347 152.124L111.375 152.238C111.495 152.756 111.923 152.86 112.284 153.076L112.328 153.102C112.514 153.348 112.762 153.541 113.047 153.661C113.436 153.866 114.737 154.672 115.113 154.88C115.707 155.213 116.234 155.653 116.667 156.178L117.092 156.029C117.265 155.967 117.624 156.183 117.867 156.339C118.129 156.506 118.345 156.752 118.593 156.947C118.688 157.027 118.806 157.072 118.93 157.077C119.124 157.055 119.32 157.086 119.498 157.167C119.675 157.248 119.827 157.376 119.938 157.537L120.246 157.902C121.003 158.213 121.737 158.581 122.439 159.003C123.211 159.459 126 160.914 126.846 161.375L127.606 161.818C128.099 162.201 128.683 162.449 129.302 162.536C129.42 162.554 129.531 162.605 129.621 162.685C129.598 163.109 129.982 163.067 130.186 163.152C130.784 163.341 131.35 163.622 131.862 163.985L132.257 164.302C132.831 164.404 133.388 164.589 133.908 164.851C134.505 165.137 135.123 165.376 135.757 165.566C136.106 165.664 137.153 166.196 137.429 166.314C137.704 166.433 139.531 167.158 140.901 167.717L142.148 168.222C142.289 168.303 142.443 168.357 142.603 168.384L143.054 168.37C143.452 168.547 143.862 168.693 144.281 168.806C144.497 168.848 145.204 169.269 145.419 169.326L145.614 169.33C145.783 169.312 145.955 169.331 146.115 169.387C146.276 169.444 146.422 169.535 146.542 169.656C146.706 169.776 146.897 169.856 147.098 169.888C147.378 169.925 147.654 169.996 147.917 170.098L148.893 170.671C149.866 170.84 150.827 171.072 151.769 171.367C152.46 171.588 153.161 171.772 153.871 171.92C154.255 172.062 154.632 172.224 155.001 172.405C155.506 172.589 156.024 172.74 156.549 172.855L156.948 172.925C157.072 172.948 157.185 173.01 157.271 173.102L157.514 173.414C157.869 173.498 158.989 173.849 160.002 174.196L160.865 174.727C160.898 174.746 160.945 174.735 160.984 174.748L161.598 174.957C162.199 175.206 162.816 175.415 163.445 175.582C163.789 175.653 165.085 176.431 165.662 176.701C166.238 176.971 168.196 177.503 168.651 177.699C169.107 177.894 170.903 178.758 171.643 179.153L172.315 179.308L172.885 179.44C173.313 179.743 173.774 179.996 174.26 180.193C174.53 180.273 175.773 180.934 176.425 181.269L177.016 181.504C177.545 181.714 177.808 182.281 178.443 182.345C178.851 182.387 179.297 182.862 179.733 183.121C180.601 183.63 181.477 184.122 182.351 184.619L182.422 184.658C182.507 184.687 183.208 185.172 183.981 185.737L184.691 186.237C185.146 186.556 185.622 186.843 186.082 187.153C186.542 187.462 186.855 188.031 187.479 188.071C187.54 188.075 187.611 188.215 187.683 188.236C188.143 188.369 187.934 189.114 188.644 189.134L188.938 189.142C189.366 189.614 189.724 190.144 190.003 190.716L190.481 190.855L190.912 190.979C191.196 191.446 191.558 191.859 191.982 192.201L192.139 192.651C192.219 192.881 192.58 193.075 192.831 193.275L193.071 193.465C193.057 193.603 193.076 193.742 193.126 193.871C193.176 194 193.255 194.116 193.358 194.208L193.549 194.347C193.701 194.456 193.979 194.436 193.984 194.695C193.985 195.162 194.353 195.406 194.632 195.746C195.017 196.274 195.366 196.827 195.676 197.402L195.762 197.541C195.845 197.684 195.836 197.836 195.74 197.879C195.621 197.926 195.511 197.995 195.416 198.081C195.502 198.15 195.607 198.192 195.717 198.2C195.878 198.245 196.028 198.325 196.156 198.433C196.284 198.54 196.388 198.674 196.46 198.826L196.483 199.093L196.496 199.234C196.437 199.383 196.454 199.523 196.544 199.541C196.633 199.558 196.725 199.798 196.682 199.97C196.64 200.142 196.608 200.676 196.69 200.627C196.771 200.578 197.024 200.533 197.029 200.658C197.099 200.953 197.208 201.237 197.354 201.503L197.488 201.71C197.826 202.23 197.827 202.398 197.541 203.129L197.491 203.257C197.503 203.464 197.694 203.56 197.915 203.472L198 203.766L198.032 203.873C198.378 204.141 198.754 204.369 199.152 204.552L199.644 204.744L200.63 205.126C201.709 205.571 202.946 206.096 203.377 206.29C203.809 206.484 205.346 207.202 205.834 207.461C206.321 207.721 207.939 208.582 208.392 208.759C208.846 208.935 210.066 209.801 210.299 209.862L210.433 209.991L210.915 210.451C211.527 210.8 212.51 211.377 213.089 211.733C213.669 212.089 215.43 213.271 215.787 213.417L215.997 213.642L216.235 213.898C216.552 214.105 216.96 214.346 217.143 214.434C217.327 214.523 218.753 215.479 219.989 216.251L220.884 217.257L221.141 217.545C221.548 217.836 221.976 218.096 222.422 218.323L222.722 218.557C223.076 218.835 223.408 219.144 223.751 219.44L224.059 219.704C224.53 220.126 224.966 220.586 225.363 221.078L225.926 221.37L226.365 221.597C226.75 222.132 227.188 222.751 227.336 222.977C227.716 223.329 228.075 223.704 228.409 224.1L228.884 224.033L228.935 224.025C229.156 224.201 229.364 224.392 229.557 224.598C229.862 225.117 230.137 225.654 230.38 226.205L230.52 226.428L230.731 226.769C230.942 226.596 231.182 226.554 231.267 226.679C231.351 226.804 231.649 227.458 231.825 227.851L231.756 228.119L231.609 228.695C232.113 228.73 232.59 228.94 232.956 229.288L232.848 229.752C232.848 229.812 232.861 229.871 232.887 229.925C232.913 229.979 232.951 230.027 232.998 230.065C233.629 230.377 233.384 230.938 233.627 231.359C233.678 231.446 233.621 231.682 233.561 231.691C233.362 231.718 233.259 231.741 233.466 231.946C233.574 232.027 233.674 232.118 233.765 232.217C233.854 232.353 233.857 232.538 233.955 232.66C234.179 232.921 234.057 233.087 233.858 233.074L233.383 233.042C233.539 233.322 233.67 233.615 233.775 233.918C233.839 234.126 234.285 234.725 234.207 235.026L234.137 235.3C234.05 235.642 233.695 235.638 233.418 235.715L233.375 235.727C233.208 235.312 233.182 234.853 233.302 234.421L233.372 233.948L233.359 233.912ZM190.41 208.431C190.489 208.676 190.429 208.797 190.276 208.698C189.87 208.471 189.444 208.279 189.004 208.127L188.761 208.323C188.412 208.602 188.017 208.25 187.653 208.263C187.292 208.238 186.934 208.176 186.586 208.077C186.231 208.033 185.881 207.963 185.537 207.868C184.955 207.618 184.298 207.608 183.708 207.838C183.484 207.942 183.346 208.064 183.104 207.786C182.911 207.564 182.766 207.603 182.601 207.766C182.556 207.809 182.291 207.602 182.18 207.629C182.069 207.656 181.997 207.945 181.968 207.932L181.385 207.664C180.824 207.788 180.187 207.913 179.966 207.942C179.746 207.971 178.453 207.762 177.59 207.643L176.813 207.77L176.227 207.865C175.525 207.722 174.914 207.737 174.865 207.899L174.799 207.898L174.659 207.895C174.3 207.815 173.928 207.829 173.577 207.936C173.149 208.042 171.824 208.461 171.552 208.568C171.042 208.807 170.56 209.101 170.113 209.444C169.852 209.689 170.288 210.872 170.348 211.016C170.487 211.272 170.703 211.477 170.966 211.602C171.2 211.662 172.051 212.183 172.567 212.431C173.083 212.679 174.811 213.459 175.282 213.589C176.395 213.825 177.519 214.005 178.65 214.128L179.457 214.563C179.503 214.588 179.584 214.494 179.655 214.498C179.987 214.517 180.461 214.696 180.628 214.546C181.013 214.216 181.301 214.82 181.621 214.72C181.672 214.703 181.8 214.818 181.838 214.797C182.396 214.484 183.114 214.779 183.718 214.675C184.34 214.567 184.918 214.355 185.563 214.288C186.111 214.23 186.65 214.104 187.167 213.913C187.637 213.74 188.162 213.702 188.632 213.505L189.056 213.329C189.48 213.271 189.895 213.16 190.291 212.998L190.279 212.917C190.202 212.425 190.358 212.36 190.817 212.639C190.883 212.678 191.121 212.47 191.211 212.331L191.285 212.221C191.458 211.961 191.655 211.717 191.873 211.493L192.32 211.423L192.653 211.375C192.917 211.084 193.228 210.838 193.572 210.648C193.767 210.577 193.711 209.881 193.822 209.739C193.934 209.597 192.862 209.243 192.173 209.163L191.552 208.908C191.289 208.8 191.034 208.662 190.766 208.567L190.41 208.431ZM94.2857 129.163C93.8714 128.965 93.651 128.975 93.7893 129.175C93.9275 129.375 94.2568 129.983 94.414 130.021C94.5711 130.058 95.0449 130.359 95.2213 130.389C95.3977 130.419 95.8047 131.03 96.1065 131.222C96.4082 131.415 97.4482 131.911 97.7346 132.155C98.021 132.398 99.0438 132.531 99.1724 132.732L99.3438 132.849C99.4632 132.93 99.6734 132.835 99.827 132.893C99.913 132.926 99.9576 133.191 100.036 133.213L100.389 133.312C100.754 133.367 101.103 133.499 101.413 133.698C102.05 133.985 102.709 134.22 103.383 134.4L103.904 134.66L104.407 134.912C104.762 134.833 105.113 134.933 105.185 135.136L105.296 135.193L105.548 135.322C105.851 135.39 106.488 135.499 106.965 135.563C107.442 135.627 108.944 136.084 109.25 136.139L109.519 136.232L109.782 136.324C109.963 136.292 110.146 136.276 110.33 136.277L110.356 136.258C110.419 136.224 110.517 136.183 110.512 136.132L110.511 136.034C110.398 135.849 110.268 135.676 110.122 135.517C109.791 135.162 109.416 134.851 109.008 134.589L108.752 134.457L108.437 134.295C108.023 134 107.64 133.663 107.296 133.288L106.902 133.077L106.604 132.911C106.601 132.606 106.508 132.308 106.337 132.055L106.23 132.047L105.688 132.01C105.336 131.754 104.811 131.354 104.519 131.121L104.234 130.955C103.911 130.767 103.458 130.674 103.765 130.202C103.775 130.185 103.529 129.908 103.446 129.915L103.082 129.941C102.711 130.022 102.385 129.993 102.35 129.883C102.315 129.773 102.33 129.531 102.441 129.574C102.553 129.618 102.622 129.596 102.181 129.391C101.739 129.186 100.614 129.035 100.706 128.875C100.797 128.715 100.768 128.342 100.473 128.338C100.028 128.35 99.5824 128.337 99.1386 128.299C98.9653 128.248 98.4908 128.029 98.4523 128.139C98.4138 128.25 97.6168 128.193 97.1859 128.158L96.8414 128.311C96.6486 128.397 96.3839 128.549 96.227 128.469C96.1224 128.393 95.9937 128.359 95.8653 128.372C95.7369 128.386 95.618 128.446 95.5316 128.542C95.2996 128.722 94.8337 128.649 94.6258 128.842L94.2857 129.163Z" fill="#6FB2A5"/>
<path d="M37.9626 81.7519L37.9882 81.4685L38.0379 80.9052L36.9255 80.0863C36.7491 79.9574 36.2222 79.5273 36.2853 79.4205C36.3168 79.274 36.3112 79.122 36.2691 78.9783C36.227 78.8345 36.1498 78.7034 36.0443 78.5971C35.9021 78.4089 35.8261 78.179 35.8283 77.9431C35.8167 77.7287 35.8472 77.5739 35.8999 77.6836C36.0234 77.9529 36.193 78.1985 36.4012 78.4093C36.4797 78.4079 36.8055 78.2591 36.7658 78.0828L36.6591 77.9745C36.2901 77.6069 36.5429 77.4448 36.706 77.2076C36.8442 77.0113 37.2714 77.1422 37.2084 76.6863L37.1737 76.4355C37.4381 76.1154 37.7261 75.8157 38.0355 75.5388C38.2915 75.3205 39.1227 75.9607 39.2777 76.068C39.4328 76.1753 40.0204 76.6813 40.3009 76.8972C40.5813 77.1131 41.3431 78.0749 41.6139 78.2597C41.8847 78.4444 42.5377 79.4119 42.7808 79.5991C43.0689 79.9003 43.3863 80.1721 43.728 80.4107C43.953 80.5926 44.1355 80.8214 44.2626 81.0812C44.4346 81.3677 44.6328 81.6375 44.8548 81.8873C45.2929 82.3358 46.8231 83.8732 47.2579 84.3326C47.8536 85.0162 48.4107 85.7326 48.9266 86.4782L49.0849 86.5881L50.2234 87.3886C51.213 88.5263 52.285 89.7723 52.6092 90.1666L52.9285 90.5056C53.262 90.7761 53.5403 91.1083 53.7483 91.484L53.864 91.756C54.2326 92.0015 54.7242 92.3329 54.959 92.4892C55.1939 92.6455 55.7799 93.4816 56.0235 93.6415C56.267 93.8015 56.8475 94.7246 57.1299 95.0198C57.6632 95.5046 58.2274 95.9542 58.819 96.3658L58.8342 96.5227C58.8415 96.603 58.8721 96.6795 58.9224 96.7425C58.9727 96.8056 59.0403 96.8525 59.117 96.8776C59.2001 96.9105 59.2733 96.9642 59.3296 97.0336C59.4689 97.2433 59.627 97.4397 59.8019 97.6208C60.0245 97.8431 60.2986 98.022 60.5084 98.2522C60.5794 98.341 60.6383 98.4389 60.6838 98.5432C60.7549 98.6876 60.8175 98.8234 60.8997 98.8498C61.4802 99.0159 61.6117 99.607 62.0559 99.8886C62.3179 100.066 62.5587 100.273 62.7735 100.505L62.9634 100.696C63.1542 100.946 63.328 101.207 63.4834 101.48L63.7021 101.617C63.8445 101.677 63.9706 101.77 64.0698 101.889C64.169 102.008 64.2385 102.148 64.2727 102.299L64.285 102.389C64.7504 102.602 65.1907 102.867 65.5973 103.177C65.9241 103.509 66.1981 103.889 66.4101 104.304C66.5399 104.532 66.6307 104.704 66.6443 104.716C66.6809 104.749 67.1888 105.234 67.6961 105.718C68.2035 106.203 69.7068 107.742 69.9476 108.025C70.1885 108.308 70.9645 109.237 71.1375 109.457L71.3137 109.64C71.6053 109.944 72.0435 110.045 72.2853 110.464C72.3885 110.614 72.5205 110.742 72.6735 110.841C72.8952 110.971 73.0641 111.175 73.1511 111.417L73.2731 111.88C73.71 112.236 74.1249 112.617 74.5152 113.024C74.7832 113.316 76.0196 114.391 76.5036 114.882C76.9875 115.372 78.3872 116.773 78.5569 116.879C78.8046 117.094 79.0209 117.343 79.2 117.618C79.2936 117.777 80.1407 118.186 80.598 118.528C81.1734 119.157 81.707 119.823 82.1957 120.521L82.3965 120.695L84.1741 122.234C86.1305 123.921 87.9651 125.586 88.25 125.929L88.7153 125.895C88.8214 125.888 89.0309 126.086 89.1144 126.226C89.2321 126.424 89.1511 126.766 89.5295 126.753L89.9531 126.739C90.3802 126.684 90.7714 126.472 91.0498 126.143L91.3942 126.111C91.4618 126.106 91.4602 125.904 91.5169 125.813L91.6563 125.585C91.757 125.75 91.9166 125.871 92.1029 125.923L92.1411 125.873L92.2231 125.756C92.3937 125.515 92.6367 125.334 92.917 125.239C93.2435 125.107 94.3838 125.108 94.6653 125.4L94.9169 125.137C95.0263 125.033 95.158 124.955 95.302 124.909C95.446 124.862 95.5985 124.85 95.7482 124.871L95.8509 124.871C96.0223 124.68 96.1734 124.472 96.3017 124.25L96.7046 124.385L96.8152 124.422C96.9451 124.389 97.3156 124.33 97.6411 124.29C98.1404 124.37 98.6226 124.533 99.067 124.774L99.1798 124.799L99.3007 124.826C99.515 124.797 99.7261 124.748 99.9316 124.681C100.15 124.61 100.714 124.619 100.79 124.975L101.19 124.61L101.355 124.457C101.461 124.436 101.571 124.438 101.676 124.463C101.782 124.488 101.881 124.536 101.966 124.603C102.355 124.867 102.776 125.082 103.218 125.242C103.723 125.438 105.308 126.014 105.623 126.166C106.276 126.541 106.909 126.949 107.52 127.387C107.977 127.72 109.739 128.706 110.29 129.083L110.66 129.58L110.889 129.887C111.232 130.126 111.821 130.587 112.197 130.912L112.538 131.207C112.881 131.503 113.222 131.798 113.563 132.094C113.637 132.141 113.699 132.205 113.745 132.279C113.836 132.582 113.711 132.938 114.29 133.053C114.394 133.073 114.475 133.229 114.572 133.41C114.647 133.566 114.745 133.709 114.862 133.836C115.059 134.046 115.221 134.286 115.343 134.548C115.496 134.898 115.733 135.205 116.034 135.441C116.056 135.456 116.016 135.576 116.004 135.646C115.993 135.824 115.956 135.999 115.896 136.167L115.715 136.496C115.995 136.634 116.101 136.784 115.95 136.831L115.93 136.976C115.899 137.192 115.905 137.419 115.895 137.641L115.673 138.383L115.518 138.51C115.44 138.713 115.282 139.177 115.169 139.541L115.057 139.874C114.983 140.181 114.884 140.481 114.761 140.771C114.495 141.273 114.194 141.757 113.86 142.217L113.673 142.472C113.437 142.664 113.17 142.813 112.882 142.912C112.58 142.899 112.28 142.855 111.987 142.782C111.65 142.736 111.307 142.782 110.995 142.915L110.769 142.965C110.508 143.027 110.185 142.631 109.909 142.934L109.772 143.087C109.653 142.876 109.489 142.694 109.29 142.555C108.975 142.446 108.652 142.359 108.324 142.294L108.097 142.202L107.87 142.108C107.609 141.95 107.324 141.902 107.235 142.004C107.147 142.106 106.739 142.33 106.589 142.201C106.439 142.072 105.984 141.75 105.993 141.844C106.001 141.938 105.949 142.13 105.875 142.136L105.814 142.106C105.734 142.064 105.664 142.004 105.609 141.932C105.143 141.31 104.588 141.524 104.073 141.512C103.693 141.503 103.643 141.513 103.707 141.118L103.781 140.667C103.554 140.775 103.334 140.785 103.294 140.688C103.254 140.592 102.974 140.397 102.957 140.485L102.964 140.567L103.003 141.022C102.684 140.927 101.868 140.681 101.187 140.473L100.57 140.275C100.369 140.233 100.181 140.144 100.02 140.015C99.7066 139.727 99.3285 139.517 98.9174 139.403L98.6412 139.287C98.5084 139.121 98.3378 138.989 98.1437 138.903L98.0616 138.908C97.9572 138.915 97.813 138.989 97.7644 138.946C97.2517 138.586 96.6997 138.286 96.1192 138.05L95.6156 137.772C95.0658 137.396 94.2808 136.886 93.8692 136.641L93.5055 136.503C93.1981 136.384 93.0052 136.392 92.9015 136.005L92.8331 135.746C92.6881 135.721 92.5503 135.664 92.4294 135.581C92.3084 135.497 92.2073 135.388 92.1329 135.261C92.0965 135.086 91.6034 135.144 91.4778 135.181C91.3522 135.218 90.9988 134.749 90.7829 134.542L90.5128 134.667L90.4494 134.697C90.3159 134.681 90.3927 134.859 90.6096 135.098C90.9023 135.494 91.2703 135.828 91.6927 136.081L91.788 136.426C91.8676 136.738 91.9898 137.039 92.1512 137.318L92.3011 137.563C92.5598 137.809 92.8648 138.001 93.1983 138.128C93.4497 138.206 94.3149 139.481 95.1942 140.241C96.0734 141.002 98.5307 143.128 98.6408 143.366C98.7509 143.604 99.5549 143.726 99.7353 143.791C99.9156 143.856 100.49 144.665 100.854 144.97L101.244 145.177L101.676 145.41C102.17 145.769 102.685 146.097 103.219 146.393L103.409 146.784L103.498 146.966C103.481 147.2 103.655 147.222 103.885 147.012L104.174 147.433L104.452 147.829C105.004 148.168 105.526 148.553 106.013 148.979L106.57 149.052L106.762 149.079C107.145 149.58 107.592 150.028 108.093 150.412C108.591 150.795 110.067 151.468 110.042 151.547C110.039 151.617 110.061 151.686 110.105 151.741C110.149 151.795 110.211 151.832 110.28 151.844C110.453 151.869 110.979 152.077 111.341 152.135L111.368 152.249C111.488 152.767 111.917 152.87 112.277 153.086L112.321 153.113C112.508 153.359 112.756 153.552 113.04 153.672C113.429 153.877 114.728 154.679 115.106 154.891C115.7 155.224 116.227 155.664 116.66 156.19L117.086 156.04C117.258 155.98 117.619 156.196 117.86 156.351C118.112 156.542 118.354 156.745 118.585 156.96C118.68 157.039 118.798 157.085 118.922 157.09C119.116 157.068 119.312 157.099 119.489 157.18C119.667 157.262 119.819 157.39 119.929 157.551L120.237 157.915C120.995 158.226 121.728 158.594 122.43 159.016C123.202 159.473 125.992 160.927 126.837 161.387L127.597 161.831C128.09 162.213 128.674 162.46 129.292 162.548C129.411 162.566 129.522 162.618 129.612 162.697C129.589 163.121 129.972 163.08 130.177 163.163C130.775 163.352 131.341 163.634 131.853 163.997L132.248 164.314C132.823 164.416 133.379 164.601 133.9 164.864C134.496 165.15 135.115 165.389 135.749 165.578C136.098 165.677 137.145 166.208 137.42 166.328C137.695 166.447 139.523 167.171 140.892 167.731L142.139 168.236C142.28 168.316 142.434 168.37 142.594 168.397L143.046 168.384C143.443 168.56 143.853 168.706 144.272 168.819C144.486 168.861 145.194 169.283 145.409 169.34L145.605 169.345C145.774 169.326 145.945 169.345 146.105 169.402C146.266 169.458 146.411 169.55 146.531 169.67C146.696 169.791 146.887 169.87 147.089 169.903C147.363 169.983 147.67 169.971 147.909 170.113L148.885 170.685C149.858 170.855 150.818 171.087 151.761 171.38C152.451 171.602 153.152 171.786 153.862 171.933C154.246 172.076 154.623 172.237 154.99 172.418C155.496 172.602 156.014 172.752 156.54 172.868L156.938 172.937C157.062 172.959 157.176 173.022 157.261 173.114L157.504 173.427C157.859 173.51 158.979 173.862 159.992 174.209L160.855 174.74C160.888 174.759 160.936 174.748 160.974 174.762L161.588 174.971C162.189 175.22 162.806 175.429 163.435 175.596C163.779 175.667 165.075 176.445 165.652 176.715C166.229 176.985 168.186 177.516 168.641 177.712C169.096 177.908 170.894 178.772 171.633 179.165L172.306 179.32L172.875 179.452C173.304 179.755 173.765 180.007 174.25 180.205C174.521 180.285 175.764 180.945 176.416 181.28L177.007 181.516C177.535 181.725 177.799 182.292 178.434 182.355C178.841 182.397 179.287 182.872 179.723 183.132C180.591 183.64 181.468 184.132 182.342 184.63L182.412 184.668C182.498 184.697 183.199 185.183 183.971 185.748L184.682 186.248C185.137 186.568 185.613 186.854 186.073 187.164C186.533 187.473 186.846 188.041 187.469 188.082C187.53 188.085 187.601 188.226 187.673 188.246C187.76 188.282 187.838 188.338 187.899 188.409C187.961 188.481 188.004 188.566 188.026 188.658C188.057 188.796 188.134 188.919 188.244 189.007C188.355 189.095 188.492 189.144 188.633 189.144L188.927 189.152C189.355 189.624 189.713 190.154 189.992 190.726L190.47 190.865L190.901 190.991C191.184 191.457 191.546 191.87 191.971 192.213L192.128 192.664C192.208 192.894 192.57 193.086 192.819 193.286L193.06 193.476C193.046 193.614 193.065 193.753 193.115 193.882C193.164 194.011 193.244 194.127 193.348 194.219L193.539 194.358C193.69 194.466 193.969 194.448 193.973 194.706C193.973 195.173 194.342 195.416 194.622 195.757C195.006 196.285 195.355 196.839 195.666 197.414L195.751 197.553C195.835 197.697 195.826 197.849 195.731 197.891C195.635 197.932 195.394 198.064 195.406 198.094C195.492 198.163 195.597 198.205 195.708 198.213C195.869 198.258 196.019 198.337 196.147 198.445C196.275 198.553 196.378 198.687 196.45 198.838L196.473 199.106L196.486 199.247C196.427 199.397 196.445 199.535 196.535 199.554C196.625 199.572 196.716 199.812 196.673 199.984C196.631 200.156 196.599 200.689 196.681 200.641C196.764 200.593 197.014 200.547 197.02 200.673C197.09 200.967 197.199 201.251 197.345 201.517L197.479 201.723C197.817 202.243 197.818 202.411 197.533 203.143L197.482 203.271C197.495 203.477 197.685 203.574 197.906 203.486L197.99 203.779L198.021 203.886C198.368 204.155 198.744 204.382 199.142 204.565L199.633 204.756L200.62 205.138C201.699 205.585 202.936 206.108 203.366 206.302C203.797 206.497 205.335 207.215 205.823 207.475C206.312 207.734 207.929 208.596 208.382 208.771C208.834 208.947 210.055 209.814 210.288 209.875L210.422 210.003L210.905 210.464C211.518 210.812 212.5 211.389 213.08 211.745C213.66 212.101 215.417 213.279 215.778 213.429L215.985 213.65L216.224 213.906C216.54 214.113 216.949 214.354 217.132 214.442C217.315 214.531 218.741 215.487 219.978 216.26L220.872 217.267L221.129 217.555C221.536 217.846 221.964 218.106 222.411 218.332L222.71 218.567C223.064 218.845 223.396 219.153 223.738 219.448L224.048 219.714C224.519 220.136 224.955 220.595 225.352 221.088L225.914 221.379L226.353 221.607C226.737 222.141 227.176 222.76 227.324 222.986C227.468 223.151 227.624 223.305 227.792 223.445C228.024 223.638 228.228 223.861 228.399 224.109L228.874 224.041L228.925 224.033C229.145 224.209 229.353 224.401 229.545 224.607C229.746 224.884 229.909 225.186 230.03 225.507C230.128 225.75 230.24 225.986 230.368 226.214L230.508 226.436L230.719 226.777C230.93 226.604 231.17 226.562 231.254 226.687C231.339 226.813 231.637 227.465 231.812 227.859L231.744 228.126L231.596 228.702C232.1 228.737 232.576 228.947 232.943 229.295L232.836 229.759C232.836 229.819 232.849 229.878 232.875 229.932C232.9 229.987 232.938 230.035 232.985 230.072C233.617 230.386 233.371 230.946 233.614 231.367C233.665 231.453 233.609 231.69 233.549 231.698C233.35 231.725 233.247 231.748 233.454 231.954C233.562 232.034 233.662 232.125 233.754 232.225C233.842 232.361 233.845 232.546 233.943 232.668C234.167 232.929 234.046 233.095 233.847 233.083L233.372 233.05C233.528 233.33 233.66 233.623 233.765 233.926C233.829 234.134 234.274 234.733 234.197 235.036L234.127 235.309C234.04 235.65 233.685 235.645 233.408 235.723L233.364 235.735C233.198 235.319 233.172 234.86 233.292 234.428L233.362 233.954L233.368 233.917C233.207 233.785 233.056 233.784 233.022 233.905C232.988 234.025 232.815 234.23 232.741 233.956C232.666 233.682 232.799 232.87 232.666 232.963C232.534 233.056 232.1 233.281 232.189 233.122C232.243 233 232.257 232.864 232.229 232.734C232.2 232.604 232.131 232.486 232.032 232.397C231.58 232.033 231.183 231.605 230.855 231.127L230.513 230.871C230.406 230.779 230.317 230.669 230.248 230.545C230.209 230.491 230.175 230.432 230.133 230.382C229.983 230.183 229.701 229.952 229.706 229.79C229.714 229.566 229.593 229.552 229.466 229.533C229.419 229.532 229.372 229.519 229.331 229.495C229.29 229.471 229.256 229.437 229.232 229.396L229.131 229.181C228.745 228.958 228.413 228.653 228.157 228.289L227.914 228.072C227.581 227.774 227.05 227.611 226.841 227.282L226.552 226.826C225.915 226.519 225.311 226.149 224.748 225.721L224.288 225.241C223.881 224.721 223.332 224.329 222.708 224.113C222.411 223.999 222.164 223.783 222.01 223.504C221.971 223.405 221.908 223.316 221.828 223.245C221.748 223.174 221.653 223.123 221.55 223.095C221.244 222.974 220.665 222.984 220.676 222.385C220.627 222.319 220.555 222.274 220.475 222.259C220.268 222.328 220.212 222.2 220.164 222.081C220.129 221.999 220.096 221.918 220.017 221.897C219.778 221.86 219.545 221.791 219.325 221.69L219.151 221.575C218.845 221.19 218.477 220.858 218.063 220.591C217.425 220.19 216.754 219.845 216.058 219.558L215.995 219.327C215.946 219.187 215.858 219.064 215.74 218.974C215.622 218.885 215.48 218.832 215.332 218.823C214.979 218.71 214.642 218.552 214.33 218.353C213.978 218.221 213.652 218.028 213.367 217.782C213.108 217.475 212.669 217.557 212.501 217.185C212.484 217.146 212.493 217.074 212.477 217.067C212.091 216.905 211.611 217.027 211.338 216.524L210.27 215.782L209.844 215.656C209.171 215.411 208.522 215.104 207.906 214.739L207.376 214.387C207.154 214.246 206.978 213.985 206.769 214.286C206.748 214.315 206.478 214.231 206.46 214.179L206.21 213.459C205.683 213.452 205.158 213.389 204.645 213.27C204.21 213.132 203.763 213.033 203.31 212.978C203.068 212.982 202.334 212.187 201.897 211.929C200.994 211.705 200.075 211.552 199.148 211.47L198.657 211.001L198.388 210.745C197.854 210.613 197.427 211.035 197.44 211.684L197.3 212.166C197.168 212.71 196.992 213.243 196.774 213.759C196.368 214.913 195.713 215.962 194.855 216.832L194.257 217.317C193.656 217.905 192.898 218.596 192.574 218.854L192.376 219.224C192.117 219.562 191.775 219.827 191.384 219.993L191.024 220.202C190.584 220.37 190.072 220.558 189.883 220.619C189.554 220.738 189.236 220.887 188.934 221.063C188.779 221.172 188.114 221.029 188.006 221.062L187.914 221.105L187.275 221.414C186.282 221.521 185.283 221.565 184.284 221.546L183.807 221.76C183.453 221.922 183.083 221.567 182.751 221.824C182.575 221.961 182.066 221.719 181.711 221.662C181.546 221.632 181.378 221.627 181.211 221.646C181.031 221.675 180.871 221.795 180.693 221.779C180.647 221.775 180.638 221.711 180.625 221.64C180.604 221.532 180.569 221.403 180.364 221.443C180.159 221.484 179.908 221.031 179.744 221.39L178.218 221.214L177.59 221.102C176.916 220.872 175.831 220.538 175.175 220.357L174.588 220.271C174.26 220.214 173.947 220.088 173.671 219.902C173.194 219.674 172.703 219.48 172.199 219.32C171.783 219.147 171.306 219.048 171.101 218.533C171.074 218.465 170.97 218.414 170.903 218.353L170.475 217.984C169.846 217.61 169.279 217.14 168.793 216.592L168.401 216.198L168.006 215.801C167.647 215.386 167.268 214.99 166.869 214.614C166.582 214.106 166.326 213.58 166.103 213.041C165.67 212.003 165.351 210.922 165.151 209.816L165.421 209.398L165.644 209.057C165.595 208.583 165.612 208.104 165.696 207.634L165.778 207.289C165.868 206.91 165.984 206.538 166.09 206.168C166.121 206.066 166.228 205.97 166.203 205.879C166.103 205.661 166.014 205.437 165.938 205.21C165.907 205.005 166.353 205.086 166.231 204.717C166.171 204.539 166.345 204.319 166.435 204.137C166.626 203.669 166.874 203.227 167.172 202.819L167.545 202.4C168.051 202.02 169.15 201.315 169.989 200.833L170.747 200.396L171.304 200.073C172.084 200.033 172.862 199.945 173.632 199.81L174.145 199.957L174.588 200.084C175.152 199.964 175.731 199.927 176.305 199.976C177 200.033 177.698 200.056 178.396 200.043C178.706 200.025 179.534 200.134 179.558 199.937C179.582 199.74 180.392 200.237 180.809 200.341C181.226 200.445 183.56 200.227 185.274 200.449L186.833 200.754C188.762 201.131 190.691 201.612 192.618 202.061L192.964 202.144C193.341 202.297 193.388 201.845 193.067 201.132C192.294 199.739 191.437 198.394 190.502 197.104L189.899 196.354L189.549 195.918C189.103 195.604 188.698 195.234 188.346 194.817C188.186 194.578 187.361 194.014 187.198 193.821L187.098 193.623C187.042 193.512 186.937 193.506 186.833 193.502C186.699 193.496 186.568 193.494 186.545 193.279C186.535 193.248 186.519 193.22 186.498 193.196C186.477 193.171 186.451 193.151 186.423 193.137C186.273 193.076 185.1 192.329 184.968 192.228C184.864 192.148 184.703 192.134 184.616 192.048C184.153 191.592 183.253 191.662 183.122 190.794L183.114 190.746C182.946 190.68 182.337 190.378 181.77 190.066C181.203 189.753 179.61 189.083 179.462 189.442L179.32 188.76L179.234 188.35C178.898 188.22 178.259 187.936 177.809 187.726C177.36 187.517 175.77 186.838 175.325 186.557L174.923 186.491C174.814 186.47 174.714 186.419 174.632 186.345C174.55 186.271 174.49 186.175 174.458 186.07C174.43 185.998 174.418 185.949 174.406 185.956L173.59 186.437C172.812 185.831 172.123 185.293 172.061 185.238C171.936 185.1 171.82 184.954 171.715 184.799C171.631 184.68 170.885 184.81 170.614 184.549C169.899 184.133 169.137 183.803 168.345 183.566L167.823 183.332C167.414 183.229 167.032 183.039 166.704 182.775C166.57 182.633 166.239 182.687 166.012 182.595L165.886 182.543C165.774 182.384 165.432 182.374 165.129 182.51L165.017 181.956C165.005 181.903 164.502 181.901 164.258 181.785L164.06 181.69C163.797 181.46 163.501 181.27 163.183 181.126L162.918 181.217C162.853 181.238 162.783 181.245 162.714 181.237C162.645 181.229 162.579 181.207 162.519 181.171C162.174 180.836 161.618 180.38 161.298 180.442L160.624 180.57C160.115 180.331 159.594 180.119 159.063 179.934L158.937 179.839C158.67 179.633 158.433 179.312 158.12 179.631C158.095 179.648 157.894 179.536 157.805 179.453C157.45 179.122 157.131 178.962 156.731 179.232C156.588 179.325 156.551 179.194 156.533 179.088C156.523 179.031 156.516 178.978 156.507 178.984L156.085 178.957C155.623 178.823 154.688 178.526 153.998 178.305L153.441 177.989L152.942 177.707C152.385 177.565 151.483 177.305 150.942 177.125L150.435 177.04C150.348 177.004 150.277 176.937 150.237 176.852C150.128 176.697 150.019 176.542 149.806 176.814C149.745 176.89 149.299 176.654 149.031 176.561L148.719 176.453C148.271 176.231 147.805 176.048 147.325 175.907C146.869 175.78 145.172 175.201 144.498 175.048C143.557 174.666 142.638 174.231 141.746 173.746C141.285 173.631 140.83 173.491 140.384 173.327C140.149 173.195 139.243 172.981 139.024 172.864C138.733 172.612 138.472 172.325 138.248 172.011C138.164 171.911 138.016 171.845 138.23 172.224L137.887 172.448C137.67 172.589 137.539 172.549 137.396 172.34C137.303 172.208 137.228 171.919 137.199 171.92L136.08 171.968C135.639 171.456 135.167 170.971 134.667 170.517C134.732 170.629 134.655 170.811 134.369 170.707C133.784 170.472 133.216 170.196 132.669 169.881L132.352 169.853L131.998 169.821C131.44 169.463 130.826 169.201 130.181 169.044L129.633 168.567L129.246 168.234C129.056 168.234 128.869 168.191 128.698 168.107C128.528 168.024 128.379 167.902 128.263 167.752C128.152 167.512 127.604 167.204 127.458 167.516L126.951 167.176C126.726 167.031 126.478 166.986 126.405 166.685L126.395 166.64C126.284 166.596 125.54 166.385 124.74 166.17L124.308 165.73C124.212 165.625 124.127 165.51 124.054 165.387C123.967 165.223 123.845 165.079 123.697 164.967C123.436 164.8 123.075 164.821 122.76 164.742C122.444 164.674 122.134 164.582 121.832 164.466L121.62 164.378C121.42 164.127 121.269 163.84 121.177 163.532L120.904 163.809C120.869 163.844 120.553 163.638 120.386 163.514L119.866 163.135C119.437 162.845 119.05 162.498 118.715 162.105C118.709 161.965 118.684 161.827 118.641 161.694C118.601 161.697 118.563 161.711 118.531 161.734C118.498 161.757 118.472 161.788 118.456 161.824C118.415 161.917 118.222 162.187 118.151 162.152C117.985 161.897 117.862 161.616 117.787 161.322L117.379 161.664C117.24 161.619 117.118 161.532 117.03 161.415C117.011 161.072 116.763 161.209 116.623 161.12C116.564 161.062 116.527 160.987 116.516 160.905C116.5 160.83 116.468 160.759 116.423 160.696L116.321 160.58C116.149 160.51 115.797 160.392 115.538 160.318C114.942 160.106 114.381 159.808 113.872 159.434L113.423 159.348C113.21 159.321 113.01 159.232 112.847 159.094C112.684 158.955 112.565 158.771 112.505 158.565C112.49 158.538 112.469 158.514 112.443 158.494C112.418 158.475 112.39 158.461 112.359 158.453L111.547 158.55C111.108 157.881 110.848 157.396 110.964 157.47C111.081 157.543 111.421 157.652 111.257 157.422L111.256 157.299C111.251 156.927 110.967 157.113 110.847 157.015C110.632 156.845 110.487 156.978 110.346 156.955L109.949 156.89C109.363 156.6 109.123 156.353 109.418 156.34L109.506 156.278L109.579 156.227C109.573 156.136 109.545 156.048 109.496 155.972C109.447 155.895 109.379 155.833 109.299 155.79L109.214 155.823L108.566 156.067C108.048 155.679 107.449 155.244 107.226 155.101L107.16 154.985L106.921 154.568C106.551 154.371 106.171 154.197 105.78 154.046C105.569 153.977 105.207 153.378 105.069 153.303C104.873 153.14 104.669 152.989 104.456 152.849C104.35 152.837 103.97 152.693 103.916 152.557C103.785 152.283 103.6 152.039 103.372 151.839C102.849 151.591 102.309 151.381 101.756 151.209L101.506 150.91L100.971 150.272C100.226 149.938 99.5492 149.471 98.9735 148.892L98.6234 148.527L98.4245 148.321C98.0739 148.143 97.756 147.906 97.4844 147.622C96.9817 147.231 96.4329 146.904 95.8502 146.647L95.7533 146.303L95.651 145.937C95.4263 145.787 95.183 145.667 94.9272 145.58L94.9171 145.551C94.7142 145.117 94.3896 144.751 93.9827 144.497C93.687 144.296 93.4263 144.048 93.2109 143.763L93.0534 143.525C92.9494 143.223 92.7608 142.969 92.6364 142.962C92.2364 142.803 91.8997 142.517 91.6776 142.148C91.4602 141.718 90.0893 140.026 89.3796 139.059L88.7749 138.172C88.529 137.811 88.3523 137.398 88.0906 137.016L87.8039 136.588C87.6943 136.016 87.5647 135.328 87.5181 135.059C87.4496 134.689 87.404 134.315 87.3815 133.939C87.4028 133.858 87.6609 133.62 87.7143 133.515C87.7676 133.411 87.3803 132.868 87.2692 132.722L87.2962 132.691L87.555 132.386C87.454 132.193 87.3131 132.024 87.1417 131.89C86.9703 131.756 86.7724 131.66 86.5611 131.609C86.2766 131.552 85.8533 130.951 85.5941 130.567C85.5285 130.465 85.457 130.367 85.3797 130.273C85.0171 130.027 84.7022 129.717 84.4503 129.359L83.9855 129.332L83.9188 129.328C83.8384 129.262 83.5744 129.089 83.3298 128.939C83.0013 128.657 82.7028 128.341 82.4389 127.997C82.3789 127.91 82.3242 127.819 82.2752 127.725C82.2259 127.626 82.1678 127.531 82.1018 127.442C82.0266 127.367 81.1899 126.688 80.4547 126.094L79.8398 125.498C79.6956 125.295 79.5066 125.128 79.2872 125.01C78.9631 124.87 78.6993 124.618 78.5431 124.301L78.4281 123.964C78.1785 123.773 77.7878 123.456 77.5644 123.259L77.3653 123.075C77.1745 122.896 76.8355 122.67 76.8396 122.526L76.854 122.133C76.5771 122.126 76.3009 122.098 76.028 122.05C75.9067 122.025 75.7538 121.707 75.604 121.396C75.526 121.219 75.4353 121.047 75.3327 120.883L75.0847 120.658L74.8565 120.452C74.5915 120.297 74.3398 120.12 74.1041 119.924C73.9708 119.799 73.4508 119.222 73.1973 118.942L72.9682 118.686L72.6851 118.369C72.3863 118.011 72.0208 117.579 71.8727 117.406C71.5322 117.106 71.1686 116.833 70.7851 116.59C70.5449 116.44 69.9204 115.753 69.5487 115.472C69.1769 115.19 68.1559 113.639 67.4801 113.055L67.0699 112.391C67.0222 112.323 66.9614 112.264 66.8909 112.22C66.8203 112.175 66.7416 112.145 66.6592 112.131C66.5586 112.121 66.4629 112.083 66.3835 112.021C66.3041 111.958 66.2446 111.874 66.2117 111.778L66.1213 111.492C65.9293 111.229 65.6781 111.015 65.3879 110.868L65.2504 110.783C64.9714 110.613 64.5496 110.467 64.8716 110.072C64.8879 110.06 64.6528 109.761 64.5748 109.76L64.1124 109.765C63.8558 109.426 63.6259 109.069 63.4247 108.695C63.2965 108.536 63.1346 108.408 62.9508 108.32C62.7867 108.243 62.6388 108.135 62.515 108.002C62.4448 107.84 62.1057 107.301 61.9691 107.286C61.8325 107.271 61.519 107.138 61.6825 107.031C61.8459 106.925 61.1048 106.559 60.9112 106.376L60.7299 106.202L60.1833 105.679C59.6236 105.203 59.2045 104.583 58.9708 103.886L58.4797 103.92C58.4238 103.931 58.3664 103.93 58.3109 103.917C58.2554 103.905 58.2033 103.88 58.158 103.845C58.1128 103.811 58.0755 103.767 58.0486 103.717C58.0217 103.666 58.0058 103.611 58.0021 103.554C57.9817 103.444 57.9274 103.344 57.8469 103.266C57.6967 103.182 57.5658 103.067 57.4625 102.929C57.3593 102.791 57.286 102.633 57.2473 102.465L57.2446 102.411C57.0847 102.329 56.9067 102.288 56.7269 102.292C56.5475 102.296 56.0699 101.542 55.8239 101.264L55.5817 101.017C55.3435 100.773 54.9702 100.616 54.9798 100.218C54.9421 100.139 54.8756 100.078 54.794 100.048L54.1196 100.254C53.8748 99.8036 53.6669 99.3344 53.4982 98.8506C53.0858 98.4176 52.6404 98.0172 52.1659 97.6533L52.1029 97.3675C52.0941 97.2783 52.0539 97.1952 51.9895 97.1328C51.9252 97.0704 51.8409 97.0328 51.7515 97.0267C51.7019 97.0252 51.6534 97.0131 51.6089 96.9913C51.5644 96.9694 51.525 96.9383 51.4936 96.9C51.3404 96.6582 51.1395 96.2235 51.0151 96.2206C50.9127 96.217 50.8139 96.1821 50.732 96.1205C50.6502 96.059 50.5892 95.9737 50.5574 95.8764C50.5161 95.7744 50.4483 95.6853 50.3611 95.6184C50.1284 95.4357 49.9474 95.1956 49.836 94.9216L49.7096 94.695C49.2194 94.3311 48.7572 93.9309 48.3269 93.4978C47.9043 93.0713 46.6994 91.7978 46.5909 91.6211C46.5131 91.5119 46.4271 91.4089 46.3336 91.313C46.2233 91.2035 46.1261 91.0814 46.0443 90.9492C45.8182 90.7273 45.5637 90.5364 45.2873 90.3815C44.9786 90.0192 44.7528 89.5938 44.626 89.135L44.0382 89.2468L44.0129 89.2511C43.7201 88.7626 43.3899 88.2975 43.0251 87.8602C42.6233 87.3714 41.3494 85.9704 41.2135 85.7444C41.0156 85.5061 40.7915 85.291 40.5454 85.1031C40.423 84.985 39.9363 84.4521 39.7059 84.1544L39.6253 83.8662C39.5087 83.4591 39.508 83.1111 38.8946 83.0355L38.6662 83.0079C38.6064 82.9387 38.5456 82.8592 38.4829 82.7701C38.2591 82.4589 38.0837 82.1156 37.9626 81.7519ZM100.481 128.325C100.036 128.337 99.5903 128.324 99.1465 128.286C98.9737 128.235 98.4987 128.016 98.4608 128.127C98.4228 128.238 97.6263 128.18 97.1945 128.145L96.8499 128.299C96.657 128.385 96.3932 128.536 96.236 128.457C96.1315 128.382 96.0027 128.347 95.8743 128.361C95.7459 128.374 95.6272 128.435 95.5409 128.531C95.3102 128.71 94.8427 128.637 94.6348 128.83L94.2836 129.155C93.8686 128.958 93.6493 128.968 93.787 129.167C93.9247 129.366 94.2551 129.976 94.4111 130.011C94.5671 130.047 95.0421 130.35 95.2185 130.38C95.3948 130.41 95.8015 131.02 96.1038 131.213C96.4062 131.406 97.4453 131.902 97.7318 132.146C98.0182 132.389 99.0409 132.522 99.1703 132.723L99.3411 132.838C99.4614 132.919 99.6708 132.824 99.8243 132.882C99.8667 132.899 99.9006 132.973 99.9339 133.05C99.9672 133.126 99.9961 133.195 100.034 133.206L100.389 133.305C100.754 133.36 101.103 133.492 101.413 133.692C102.05 133.979 102.709 134.213 103.384 134.393L103.905 134.654L104.407 134.906C104.763 134.827 105.113 134.927 105.185 135.129L105.296 135.185L105.548 135.313C105.851 135.382 106.489 135.491 106.965 135.554C107.442 135.617 108.945 136.076 109.251 136.13L109.521 136.224L109.783 136.315C109.965 136.284 110.149 136.268 110.333 136.268L110.359 136.25C110.422 136.216 110.521 136.174 110.515 136.124L110.513 136.027C110.401 135.842 110.27 135.668 110.124 135.509C109.793 135.155 109.418 134.843 109.01 134.581L108.754 134.45L108.438 134.288C108.024 133.993 107.641 133.656 107.296 133.282L106.907 133.067L106.608 132.902C106.605 132.596 106.512 132.298 106.341 132.045L106.233 132.038L105.692 132.001C105.341 131.745 104.814 131.345 104.524 131.111L104.239 130.945C103.916 130.757 103.463 130.664 103.77 130.192C103.781 130.174 103.534 129.898 103.452 129.903L103.088 129.93C102.716 130.01 102.39 129.981 102.356 129.872C102.322 129.762 102.335 129.519 102.447 129.563C102.558 129.607 102.628 129.584 102.186 129.379C101.745 129.174 100.62 129.023 100.712 128.863C100.745 128.796 100.761 128.721 100.758 128.646C100.755 128.572 100.732 128.499 100.693 128.435C100.669 128.4 100.637 128.372 100.599 128.353C100.562 128.334 100.52 128.325 100.478 128.326L100.481 128.325ZM192.193 209.155L191.571 208.901C191.308 208.793 191.054 208.654 190.785 208.558L190.412 208.429C190.491 208.674 190.431 208.795 190.279 208.697C189.873 208.469 189.447 208.277 189.007 208.125L188.763 208.321C188.414 208.601 188.02 208.248 187.655 208.261C187.294 208.237 186.936 208.175 186.587 208.076C186.233 208.032 185.882 207.962 185.538 207.866C184.956 207.616 184.3 207.605 183.71 207.835C183.485 207.939 183.348 208.061 183.106 207.783C182.913 207.562 182.767 207.601 182.602 207.763C182.558 207.807 182.293 207.6 182.182 207.626C182.071 207.653 181.999 207.942 181.969 207.929L181.387 207.661C180.827 207.786 180.188 207.911 179.969 207.94C179.749 207.969 178.456 207.76 177.593 207.64L176.816 207.767L176.23 207.862C175.529 207.72 174.917 207.735 174.869 207.897L174.802 207.894L174.662 207.893C174.304 207.812 173.931 207.826 173.58 207.933C173.153 208.039 171.829 208.458 171.555 208.565C171.045 208.805 170.563 209.098 170.116 209.442C169.856 209.688 170.292 210.87 170.352 211.014C170.491 211.269 170.707 211.474 170.97 211.598C171.204 211.659 172.054 212.181 172.571 212.428C173.087 212.676 174.814 213.457 175.286 213.586C176.399 213.822 177.523 214.002 178.654 214.125L179.461 214.56C179.506 214.585 179.587 214.491 179.659 214.495C179.992 214.513 180.465 214.693 180.632 214.544C181.017 214.211 181.306 214.816 181.625 214.716C181.676 214.7 181.804 214.815 181.842 214.795C182.4 214.481 183.119 214.776 183.722 214.671C184.344 214.564 184.922 214.351 185.567 214.284C186.115 214.226 186.653 214.1 187.171 213.91C187.64 213.737 188.165 213.699 188.635 213.503L189.059 213.326C189.485 213.268 189.901 213.156 190.298 212.993L190.286 212.911C190.209 212.419 190.365 212.355 190.824 212.634C190.889 212.674 191.129 212.465 191.219 212.326L191.293 212.217C191.466 211.956 191.663 211.713 191.881 211.489L192.328 211.419L192.662 211.371C192.926 211.08 193.237 210.835 193.581 210.646C193.776 210.575 193.719 209.877 193.831 209.736C193.843 209.72 193.841 209.702 193.828 209.682C193.326 209.391 192.767 209.212 192.19 209.156L192.193 209.155Z" fill="#FE6711"/>
</svg>
