<svg width="2309" height="1106" viewBox="0 0 2309 1106" fill="none" xmlns="http://www.w3.org/2000/svg">
<path opacity="0.21" d="M434.878 841.199C434.878 961.04 337.728 1058.19 217.887 1058.19C98.0468 1058.19 0.896729 961.04 0.896729 841.199C0.896729 721.359 98.0468 624.208 217.887 624.208C337.728 624.208 434.878 721.359 434.878 841.199Z" fill="white"/>
<path d="M318.114 386.588C321.859 387.138 324.854 389.079 328.009 390.671C332.261 392.746 336.678 394.457 341.214 395.786C342.532 396.128 343.764 396.747 344.829 397.601C345.895 398.455 346.77 399.527 347.399 400.745C347.745 401.416 347.964 402.143 347.059 402.646C346.3 403.073 345.706 402.678 345.05 402.312C336.868 397.746 327.739 394.568 318.849 391.041C317.96 390.687 317.092 390.283 316.247 389.83C316.028 389.734 315.832 389.592 315.671 389.413C315.51 389.235 315.389 389.024 315.314 388.795C315.239 388.566 315.212 388.324 315.237 388.083C315.261 387.843 315.335 387.611 315.453 387.402C315.858 386.372 317.025 386.62 318.114 386.588Z" fill="#FFA85A"/>
<path d="M355.502 455.463C355.261 455.876 354.971 456.257 354.637 456.598C348.93 461.522 344.915 467.326 340.896 473.135C340.164 474.193 339.531 475.963 337.4 475.039C335.606 474.262 336.834 472.899 337.358 471.83C340.384 465.69 345.446 460.545 350.242 455.279C350.684 454.694 351.29 454.257 351.981 454.023C352.672 453.79 353.417 453.771 354.119 453.969C354.481 454.028 354.813 454.207 355.063 454.477C355.314 454.748 355.468 455.095 355.502 455.463Z" fill="#FFA85A"/>
<path d="M430.995 467.502C431.313 468.583 431.076 469.242 430.024 469.442C429.568 469.595 429.072 469.569 428.634 469.37C428.195 469.171 427.847 468.813 427.658 468.367C425.789 462.495 420.222 458.506 416.071 453.791C415.047 452.628 413.847 451.346 415.908 450.161C418.032 448.939 418.986 450.336 420.047 451.51C422.607 454.354 425.187 457.186 427.845 459.971C428.862 460.934 429.668 462.102 430.21 463.4C430.753 464.697 431.02 466.094 430.995 467.502V467.502Z" fill="#FFA85A"/>
<path d="M447.953 367.011C447.847 368.408 446.523 369.63 445.428 370.751C440.723 375.562 435.35 379.962 432.237 385.688C431.587 386.883 430.01 388.676 428.116 387.696C426.417 386.816 427.511 385.226 428.536 383.854C433.103 377.741 439.597 372.784 444.476 366.861C444.762 366.529 445.12 366.269 445.523 366.101C445.926 365.934 446.362 365.863 446.797 365.895C447.096 365.888 447.386 366.002 447.603 366.211C447.82 366.421 447.945 366.708 447.953 367.011V367.011Z" fill="#FFA85A"/>
<path d="M340.967 424.534C340.853 425.677 339.791 426.08 338.766 426.455C333.047 428.564 327.352 430.722 321.563 432.701C319.976 433.229 318.442 433.907 316.98 434.725C316.422 435.103 315.742 435.252 315.079 435.14C314.416 435.028 313.82 434.665 313.414 434.124C312.563 433.065 312.895 431.992 314.378 431.701C322.605 430.077 329.354 425.973 336.952 423.302C338.989 422.592 340.327 422.754 340.967 424.534Z" fill="#FFA85A"/>
<path d="M360.993 360.011C362.724 360.295 364.325 361.118 365.572 362.364C368.564 365.5 370.391 369.113 372.097 372.739C372.714 374.049 373.426 375.305 374.134 376.576C374.576 377.37 375.239 378.309 373.76 378.899C373.257 379.123 372.696 379.179 372.159 379.058C371.622 378.937 371.138 378.645 370.777 378.226C369.877 377.305 369.08 376.286 368.4 375.188C366.083 370.997 364.373 366.57 360.565 362.975C359.841 362.291 359.395 361.375 360.013 360.466C360.197 360.197 360.781 360.103 360.993 360.011Z" fill="#FFA85A"/>
<path d="M410.946 359.597C410.841 364.939 408.833 370.049 407.901 375.29C407.697 376.425 406.615 377.079 405.18 376.913C403.624 376.732 403.914 375.66 403.892 374.768C403.773 372.046 404.194 369.326 405.13 366.77C406.454 363.7 407.111 360.38 407.056 357.032C406.998 355.949 406.926 354.3 409.117 354.394C411.176 354.481 410.981 356.03 411.074 357.197C411.088 357.999 411.046 358.801 410.946 359.597Z" fill="#FFA85A"/>
<path d="M390.746 467.781C391.028 470.954 391.289 474.128 391.601 477.299C391.711 478.422 392.713 479.978 390.365 480.123C388.237 480.253 387.452 478.787 387.265 477.289C386.856 474.021 386.431 470.749 386.197 467.472C386.117 465.571 385.874 463.681 385.471 461.822C385.141 460.477 385.493 459.092 387.649 458.887C389.708 458.692 390.115 459.928 390.26 461.21C390.506 463.393 390.721 465.581 390.952 467.766L390.746 467.781Z" fill="#FFA85A"/>
<path d="M456.684 440.032C456.587 441.218 455.57 441.761 454.147 441.462C452.349 441.093 450.587 440.567 448.88 439.89C444.968 438.302 441.141 436.587 437.275 434.928C435.872 434.325 434.367 433.568 435.574 432.192C436.115 431.607 436.83 431.215 437.611 431.076C438.391 430.937 439.196 431.058 439.902 431.422C445.165 433.692 449.722 436.945 455.486 438.52C455.829 438.592 456.136 438.782 456.355 439.058C456.573 439.334 456.69 439.679 456.684 440.032Z" fill="#FFA85A"/>
<path d="M442.092 415.871C440.675 415.997 440.113 415.795 439.746 415.347C439.254 414.749 439.541 414.166 440.026 413.683C441.045 412.667 442.332 411.97 443.733 411.675C449.947 410.372 456.198 409.18 462.418 407.9C463.552 407.666 464.418 407.694 464.949 408.604C465.531 409.596 464.725 410.203 463.795 410.525C456.571 412.978 448.506 413.246 442.092 415.871Z" fill="#FFA85A"/>
<path d="M387.265 477.287C386.856 474.02 386.431 470.748 386.196 467.47C386.116 465.569 385.874 463.679 385.471 461.82C385.141 460.475 385.492 459.09 387.649 458.884C389.707 458.69 390.114 459.926 390.259 461.209C390.505 463.392 390.719 465.575 390.951 467.764L390.746 467.779C391.028 470.952 391.29 474.125 391.6 477.297C391.712 478.421 392.712 479.977 390.366 480.121C390.279 480.126 390.193 480.128 390.106 480.128C388.173 480.129 387.445 478.724 387.265 477.287ZM337.399 475.033C335.606 474.255 336.833 472.892 337.357 471.823C340.384 465.684 345.446 460.54 350.247 455.274C350.689 454.689 351.295 454.251 351.986 454.017C352.677 453.784 353.421 453.765 354.123 453.964C354.485 454.024 354.816 454.204 355.066 454.475C355.316 454.746 355.469 455.093 355.502 455.461C355.262 455.874 354.971 456.255 354.638 456.596C348.931 461.519 344.915 467.323 340.897 473.133C340.307 473.984 339.783 475.296 338.491 475.296C338.113 475.284 337.742 475.195 337.4 475.034L337.399 475.033ZM427.658 468.365C425.787 462.493 420.221 458.504 416.071 453.79C415.046 452.627 413.846 451.345 415.907 450.158C418.032 448.936 418.986 450.333 420.046 451.508C422.604 454.351 425.185 457.183 427.844 459.968C428.861 460.931 429.668 462.099 430.211 463.396C430.754 464.693 431.021 466.091 430.996 467.499C431.315 468.58 431.078 469.239 430.024 469.439C429.834 469.476 429.64 469.495 429.446 469.495C429.067 469.53 428.686 469.439 428.364 469.235C428.041 469.031 427.793 468.725 427.659 468.365H427.658ZM454.146 441.46C452.349 441.091 450.587 440.566 448.879 439.889C444.968 438.302 441.14 436.586 437.275 434.927C435.872 434.325 434.368 433.568 435.572 432.191C436.114 431.606 436.829 431.214 437.609 431.076C438.39 430.937 439.195 431.058 439.901 431.421C445.164 433.692 449.721 436.944 455.486 438.52C455.829 438.592 456.136 438.783 456.354 439.059C456.573 439.335 456.689 439.68 456.682 440.034C456.669 440.255 456.61 440.471 456.51 440.668C456.411 440.866 456.273 441.04 456.104 441.182C455.935 441.323 455.739 441.428 455.529 441.491C455.318 441.553 455.097 441.571 454.879 441.544C454.633 441.541 454.388 441.513 454.147 441.46H454.146ZM313.417 434.125C312.566 433.067 312.903 431.994 314.381 431.702C322.609 430.078 329.357 425.974 336.956 423.304C338.989 422.59 340.329 422.751 340.968 424.532C340.854 425.674 339.791 426.078 338.767 426.453C333.048 428.563 327.353 430.721 321.564 432.699C319.978 433.227 318.443 433.905 316.981 434.723C316.516 435.001 315.987 435.153 315.447 435.165C315.052 435.159 314.664 435.063 314.312 434.882C313.961 434.702 313.654 434.443 313.417 434.125V434.125ZM439.745 415.347C439.253 414.749 439.54 414.166 440.026 413.683C441.044 412.667 442.331 411.97 443.732 411.675C449.946 410.372 456.196 409.181 462.418 407.902C463.551 407.666 464.417 407.695 464.949 408.6C465.531 409.593 464.725 410.201 463.795 410.521C456.571 412.981 448.506 413.25 442.091 415.876C441.812 415.899 441.566 415.912 441.349 415.912C441.056 415.954 440.758 415.925 440.479 415.826C440.2 415.728 439.949 415.563 439.746 415.347L439.745 415.347ZM345.051 402.316C336.869 397.75 327.74 394.572 318.85 391.045C317.961 390.691 317.092 390.287 316.248 389.833C316.029 389.736 315.833 389.594 315.672 389.416C315.511 389.238 315.39 389.027 315.315 388.798C315.24 388.569 315.214 388.326 315.238 388.086C315.262 387.846 315.336 387.614 315.455 387.405C315.788 386.552 316.64 386.57 317.538 386.588C317.729 386.592 317.925 386.595 318.117 386.588C321.862 387.138 324.856 389.079 328.012 390.671C332.264 392.746 336.68 394.458 341.216 395.787C342.534 396.129 343.766 396.747 344.831 397.601C345.897 398.455 346.772 399.527 347.401 400.746C347.747 401.417 347.966 402.143 347.061 402.647C346.86 402.766 346.631 402.829 346.398 402.832C345.913 402.775 345.45 402.598 345.051 402.315V402.316ZM428.116 387.696C426.417 386.815 427.511 385.226 428.536 383.858C433.104 377.746 439.597 372.788 444.476 366.865C444.762 366.533 445.12 366.273 445.523 366.106C445.926 365.938 446.362 365.868 446.796 365.9C447.095 365.893 447.384 366.005 447.601 366.213C447.818 366.421 447.945 366.707 447.954 367.009C447.849 368.406 446.526 369.628 445.429 370.75C440.724 375.56 435.35 379.961 432.237 385.687C431.718 386.641 430.608 387.978 429.217 387.978C428.833 387.975 428.455 387.878 428.116 387.696V387.696ZM370.777 378.225C369.878 377.303 369.08 376.284 368.4 375.187C366.082 370.996 364.373 366.568 360.565 362.973C359.842 362.288 359.395 361.372 360.014 360.463C360.197 360.195 360.781 360.101 360.993 360.009C362.726 360.291 364.329 361.113 365.576 362.36C368.569 365.498 370.395 369.111 372.102 372.737C372.719 374.047 373.43 375.302 374.139 376.573C374.581 377.367 375.245 378.306 373.766 378.895C373.425 379.035 373.061 379.108 372.694 379.111C372.33 379.11 371.971 379.031 371.641 378.878C371.31 378.725 371.015 378.503 370.777 378.226L370.777 378.225ZM405.181 376.915C403.625 376.734 403.915 375.661 403.893 374.769C403.774 372.047 404.195 369.327 405.131 366.771C406.455 363.701 407.111 360.381 407.056 357.033C406.997 355.949 406.926 354.3 409.115 354.395C411.176 354.482 410.98 356.03 411.074 357.197C411.088 357.999 411.046 358.802 410.946 359.598C410.842 364.94 408.834 370.049 407.901 375.291C407.787 375.801 407.491 376.251 407.07 376.556C406.648 376.86 406.131 376.997 405.616 376.941C405.47 376.939 405.325 376.929 405.181 376.912L405.181 376.915Z" fill="white"/>
<path opacity="0.21" d="M2308.77 253.099C2308.77 392.471 2195.79 505.454 2056.41 505.454C1917.04 505.454 1804.06 392.471 1804.06 253.099C1804.06 113.727 1917.04 0.743164 2056.41 0.743164C2195.79 0.743164 2308.77 113.727 2308.77 253.099Z" fill="white"/>
<path d="M358.91 649.532C358.91 701.616 316.687 743.838 264.604 743.838C212.52 743.838 170.298 701.616 170.298 649.532C170.298 597.448 212.52 555.226 264.604 555.226C316.687 555.226 358.91 597.448 358.91 649.532Z" fill="#DF3E3F"/>
<path d="M1503.65 786.154C1510.42 800.319 1518.83 813.162 1530.51 823.703C1540.79 832.982 1552.82 839.93 1565.28 845.796C1580.45 852.943 1596.2 858.757 1611.51 865.594C1613 866.261 1614.92 865.248 1616.07 864.286C1616.68 863.771 1618.58 861.635 1617.08 860.967C1590.99 849.315 1562.4 840.767 1539.94 822.39C1528.15 812.745 1519.1 800.531 1512.26 786.923C1509.78 782.007 1507.52 776.985 1505.15 772.02C1503.21 773.964 1501.49 776.107 1500 778.412C1501.22 780.996 1502.42 783.584 1503.65 786.154Z" fill="#554140"/>
<path d="M1491.88 762.684C1494.66 767.295 1497.05 772.114 1499.36 776.974C1500.89 774.746 1502.65 772.685 1504.61 770.823C1503.32 768.151 1501.99 765.501 1500.57 762.897C1496.29 755.104 1491.02 747.909 1484.89 741.493C1480.25 736.64 1475.3 732.094 1470.08 727.884L1463.72 731.842C1467.61 734.977 1471.38 738.264 1474.97 741.761C1481.47 747.976 1487.16 755.008 1491.88 762.684V762.684Z" fill="#554140"/>
<path d="M1462.89 761.83C1467.87 767.932 1472.17 774.578 1475.69 781.644C1481.57 792.934 1485.62 805.175 1491.25 816.592C1491.47 811.155 1491.54 805.675 1492.04 800.293C1489.18 793.436 1486.43 786.516 1483.12 779.908C1479.69 772.812 1475.55 766.086 1470.77 759.833C1466.36 754.364 1461.02 749.735 1454.99 746.163C1452.55 744.658 1450.05 743.248 1447.49 741.934L1440.88 746.044C1442.65 746.937 1444.39 747.87 1446.12 748.844C1452.32 752.351 1458.25 756.357 1462.89 761.83Z" fill="#554140"/>
<path d="M1492.26 818.71C1493.94 822.012 1495.81 825.211 1497.86 828.293C1502.79 835.818 1509.36 842.108 1517.07 846.688C1525 851.308 1533.7 854.469 1542.4 857.318C1552.37 860.588 1562.16 864.163 1571.91 868.065C1581.75 872.005 1591.58 875.963 1601.67 879.223C1603.87 879.935 1609.4 875.29 1606.14 874.237C1588.09 868.404 1570.93 860.158 1552.9 854.272C1544.11 851.403 1535.3 848.589 1527.01 844.423C1518.83 840.439 1511.7 834.562 1506.21 827.271C1500.58 819.704 1496.62 811.208 1492.96 802.553C1492.56 807.756 1492.52 812.998 1492.29 818.202C1492.28 818.373 1492.27 818.54 1492.26 818.71Z" fill="#554140"/>
<path d="M1486.39 846.923C1487.31 847.958 1488.24 848.985 1489.19 849.994C1501.06 862.644 1515.32 872.322 1531.8 877.767C1550.75 884.025 1570.75 885.999 1589.94 891.327C1592.17 891.949 1597.67 887.25 1594.41 886.343C1577.33 881.601 1559.64 879.51 1542.58 874.71C1525.88 870.12 1510.65 861.273 1498.35 849.019C1495.16 845.832 1492.14 842.492 1489.23 839.045C1488.87 840.295 1488.47 841.539 1488.03 842.777C1487.53 844.184 1486.98 845.567 1486.39 846.923Z" fill="#554140"/>
<path d="M1438.97 784.882C1445.51 791.568 1451.1 799.139 1456.5 806.769C1465.83 819.968 1474.82 833.564 1485.5 845.722C1486.61 843.13 1487.55 840.475 1488.34 837.771C1480.12 827.888 1472.82 817.171 1465.49 806.663C1460.16 799.007 1454.73 791.364 1448.51 784.407C1443.3 778.401 1437.01 773.45 1429.96 769.819C1424.61 767.247 1419.1 765.006 1413.47 763.108L1406.73 767.296C1411.08 768.855 1415.42 770.401 1419.59 772.212C1426.75 775.318 1433.46 779.261 1438.97 784.882Z" fill="#554140"/>
<path d="M1436.29 829.978C1448.54 841.875 1460.06 854.67 1473.18 865.634C1474.72 863.801 1476.19 861.911 1477.57 859.964C1466.25 850.27 1456.09 839.288 1445.45 828.842C1432.66 816.271 1419.39 804.031 1404.44 794.08C1397.59 789.503 1390.36 785.521 1382.83 782.177L1376.17 786.32C1382.57 789.075 1388.76 792.312 1394.67 796.003C1409.91 805.491 1423.43 817.489 1436.29 829.978Z" fill="#554140"/>
<path d="M1475.86 868.062C1489.54 879.121 1504.81 888.033 1521.15 894.498C1539.99 901.829 1559.99 905.664 1580.21 905.817C1581.11 905.728 1581.98 905.431 1582.76 904.95C1583.53 904.47 1584.18 903.818 1584.67 903.044C1585.47 901.637 1584.79 900.819 1583.3 900.805C1547.62 900.448 1513.25 887.824 1484.96 866.21C1482.74 864.513 1480.57 862.751 1478.44 860.947C1477.05 862.882 1475.59 864.757 1474.03 866.574C1474.64 867.071 1475.24 867.571 1475.86 868.062Z" fill="#554140"/>
<path d="M1360.45 816.564C1370.48 820.308 1380.19 824.362 1389.16 830.284C1397.29 835.647 1404.7 841.993 1412.16 848.24C1426.09 859.902 1440.09 871.638 1454.59 882.602C1456.55 881.168 1458.47 879.68 1460.35 878.139C1447.45 868.394 1435.06 857.911 1422.58 847.65C1414.96 841.381 1407.56 834.814 1399.57 829.016C1391.27 823.045 1382.25 818.167 1372.73 814.5C1366.68 812.134 1360.6 809.894 1354.46 807.779C1351.74 806.833 1349.01 805.864 1346.28 804.926L1339.44 809.178C1341 809.704 1342.56 810.24 1344.11 810.766C1349.59 812.619 1355.03 814.551 1360.45 816.564Z" fill="#554140"/>
<path d="M1455.52 883.591C1456.48 884.31 1457.44 885.026 1458.4 885.738C1474.23 897.488 1491.21 907.906 1510.06 913.951C1520.29 917.23 1530.65 917.582 1541.32 917.352C1551.61 917.129 1562.02 916.684 1572.03 919.511C1574.26 920.142 1579.76 915.45 1576.49 914.527C1558.46 909.436 1539.49 914.812 1521.31 910.853C1511.84 908.79 1502.65 904.757 1494.07 900.32C1485.32 895.718 1476.91 890.499 1468.89 884.701C1466.32 882.875 1463.79 881.013 1461.27 879.116C1460.81 879.5 1460.34 879.881 1459.87 880.257C1458.45 881.402 1456.99 882.508 1455.52 883.591Z" fill="#554140"/>
<path d="M1571.71 919.289C1561.7 916.442 1551.29 916.864 1541 917.064C1530.34 917.272 1519.98 916.897 1509.75 913.594C1490.9 907.515 1473.9 897.064 1458.06 885.286C1457.1 884.573 1456.14 883.855 1455.18 883.133C1456.65 882.054 1458.11 880.952 1459.53 879.812C1460 879.433 1460.46 879.055 1460.92 878.676C1463.44 880.573 1465.99 882.439 1468.55 884.275C1476.57 890.087 1484.99 895.321 1493.74 899.937C1502.33 904.389 1511.52 908.444 1520.99 910.524C1539.17 914.519 1558.13 909.187 1576.17 914.314C1579.17 915.169 1574.78 919.186 1572.31 919.34C1572.11 919.357 1571.91 919.34 1571.71 919.289V919.289ZM1579.91 905.592C1559.7 905.395 1539.7 901.52 1520.86 894.153C1504.52 887.659 1489.25 878.72 1475.55 867.638C1474.94 867.152 1474.33 866.646 1473.73 866.147C1475.27 864.335 1476.74 862.465 1478.13 860.535C1480.26 862.341 1482.42 864.105 1484.64 865.806C1512.95 887.467 1547.32 900.155 1583 900.589C1584.48 900.607 1585.17 901.425 1584.36 902.829C1583.9 903.568 1583.27 904.196 1582.54 904.672C1581.81 905.147 1580.99 905.458 1580.13 905.584C1580.06 905.59 1579.98 905.593 1579.91 905.592ZM1589.66 891.112C1570.48 885.747 1550.49 883.732 1531.54 877.438C1515.06 871.962 1500.8 862.263 1488.92 849.597C1487.97 848.584 1487.04 847.556 1486.12 846.521C1486.7 845.165 1487.25 843.786 1487.75 842.384C1488.19 841.149 1488.59 839.906 1488.95 838.658C1491.86 842.107 1494.89 845.455 1498.07 848.642C1510.38 860.914 1525.62 869.785 1542.31 874.406C1559.37 879.238 1577.05 881.366 1594.12 886.141C1597.13 886.981 1592.72 891.01 1590.26 891.164C1590.06 891.18 1589.86 891.163 1589.66 891.112ZM1601.41 879.015C1591.33 875.737 1581.5 871.763 1571.67 867.806C1561.93 863.888 1552.13 860.295 1542.17 857.009C1533.48 854.142 1524.79 850.967 1516.85 846.334C1509.15 841.743 1502.58 835.446 1497.64 827.918C1496.97 826.927 1496.33 825.924 1495.71 824.91C1494.4 822.762 1493.19 820.566 1492.04 818.334C1492.05 818.165 1492.05 817.999 1492.06 817.829C1492.28 812.633 1492.31 807.396 1492.7 802.2C1496.37 810.855 1500.34 819.348 1505.98 826.918C1511.47 834.214 1518.6 840.099 1526.77 844.095C1535.06 848.276 1543.86 851.105 1552.65 853.989C1570.67 859.906 1587.83 868.179 1605.87 874.045C1608.84 875.009 1604.53 878.936 1602.07 879.089C1601.85 879.107 1601.62 879.084 1601.41 879.02L1601.41 879.015ZM1411.84 848.024C1404.38 841.768 1396.96 835.414 1388.83 830.04C1379.86 824.106 1370.17 820.033 1360.14 816.269C1354.73 814.239 1349.28 812.297 1343.81 810.443C1342.25 809.915 1340.7 809.377 1339.14 808.848L1345.96 804.616C1348.7 805.558 1351.43 806.534 1354.14 807.483C1360.27 809.623 1366.36 811.874 1372.4 814.236C1381.92 817.919 1390.94 822.81 1399.23 828.791C1407.23 834.6 1414.63 841.176 1422.25 847.453C1434.73 857.729 1447.12 868.227 1460.02 877.988C1458.15 879.525 1456.23 881.007 1454.27 882.434C1439.77 871.459 1425.77 859.706 1411.84 848.029L1411.84 848.024ZM1611.28 865.38C1595.98 858.521 1580.24 852.681 1565.08 845.511C1552.64 839.624 1540.61 832.657 1530.33 823.377C1522.71 816.4 1516.14 808.341 1510.81 799.454C1508.13 795.039 1505.68 790.49 1503.46 785.823C1502.23 783.252 1501.02 780.667 1499.81 778.088C1501.29 775.79 1503.01 773.654 1504.94 771.716C1507.31 776.678 1509.58 781.699 1512.06 786.614C1518.91 800.218 1527.96 812.433 1539.75 822.091C1562.2 840.487 1590.77 849.084 1616.84 860.777C1618.33 861.447 1616.44 863.576 1615.83 864.09C1614.9 864.908 1613.76 865.432 1612.54 865.596C1612.11 865.63 1611.67 865.557 1611.28 865.385L1611.28 865.38ZM1436 829.764C1423.15 817.264 1409.63 805.256 1394.4 795.748C1388.49 792.049 1382.31 788.804 1375.91 786.039L1382.56 781.917C1390.08 785.272 1397.3 789.262 1404.15 793.846C1419.09 803.815 1432.36 816.067 1445.15 828.647C1455.78 839.103 1465.95 850.086 1477.26 859.792C1475.89 861.733 1474.43 863.617 1472.88 865.445C1459.77 854.476 1448.25 841.676 1436 829.768L1436 829.764ZM1456.24 806.571C1450.84 798.941 1445.25 791.37 1438.71 784.68C1433.21 779.054 1426.51 775.107 1419.35 771.989C1415.18 770.176 1410.85 768.621 1406.51 767.055L1413.23 762.888C1418.85 764.797 1424.35 767.048 1429.7 769.628C1436.74 773.268 1443.03 778.224 1448.23 784.232C1454.46 791.192 1459.88 798.832 1465.21 806.486C1472.54 816.993 1479.85 827.705 1488.07 837.589C1487.28 840.287 1486.34 842.936 1485.24 845.521C1474.57 833.365 1465.57 819.773 1456.24 806.576L1456.24 806.571ZM1475.48 781.451C1471.95 774.391 1467.66 767.749 1462.68 761.649C1458.04 756.175 1452.11 752.168 1445.93 748.652C1444.21 747.676 1442.46 746.74 1440.69 745.847L1447.28 741.758C1449.84 743.076 1452.34 744.488 1454.78 745.995C1460.8 749.573 1466.14 754.204 1470.55 759.672C1475.32 765.924 1479.46 772.646 1482.89 779.737C1486.2 786.337 1488.95 793.249 1491.82 800.099C1491.32 805.469 1491.26 810.939 1491.05 816.366C1485.42 804.962 1481.36 792.737 1475.48 781.456L1475.48 781.451ZM1491.71 762.508C1486.99 754.834 1481.3 747.803 1474.8 741.587C1471.22 738.087 1467.45 734.799 1463.56 731.66L1469.91 727.723C1475.13 731.935 1480.07 736.482 1484.7 741.336C1490.83 747.753 1496.1 754.947 1500.38 762.737C1501.8 765.338 1503.13 767.985 1504.43 770.658C1502.47 772.511 1500.72 774.565 1499.19 776.786C1496.88 771.936 1494.49 767.122 1491.71 762.513L1491.71 762.508Z" fill="white"/>
<path opacity="0.21" d="M2026.73 852.987C2026.73 992.359 1913.74 1105.34 1774.37 1105.34C1635 1105.34 1522.01 992.359 1522.01 852.987C1522.01 713.615 1635 600.632 1774.37 600.632C1913.74 600.632 2026.73 713.615 2026.73 852.987Z" fill="white"/>
</svg>
