<svg width="104" height="106" viewBox="0 0 104 106" fill="none" xmlns="http://www.w3.org/2000/svg">
<g clip-path="url(#clip0_395:236)">
<path fill-rule="evenodd" clip-rule="evenodd" d="M14.7118 51.084C39.2648 32.6976 70.4554 35.0283 88.8684 60.2838C89.4813 61.1247 90.6569 61.3197 91.4898 60.7291C92.3292 60.1242 92.5121 58.9545 91.8992 58.1136C72.1691 31.0296 38.7472 28.3816 12.4337 48.0795C11.6117 48.6925 11.4504 49.8725 12.0786 50.703C12.7134 51.5191 13.8898 51.697 14.7118 51.084Z" fill="black"/>
<path d="M63.2346 61.2088C60.4811 59.9357 57.2382 61.1145 55.9914 63.8417C54.7446 66.569 55.9661 69.8119 58.7195 71.0849C61.473 72.358 64.7158 71.1792 65.9626 68.452C67.2094 65.7247 65.988 62.4819 63.2346 61.2088Z" fill="black"/>
<path d="M40.194 56.9189C37.4943 55.6707 34.3148 56.8265 33.0924 59.5004C31.87 62.1743 33.0675 65.3538 35.7672 66.602C38.4668 67.8502 41.6462 66.6944 42.8687 64.0205C44.0911 61.3466 42.8936 58.1671 40.194 56.9189Z" fill="black"/>
</g>
<defs>
<clipPath id="clip0_395:236">
<rect width="78.2551" height="77.3542" fill="white" transform="matrix(-0.907568 -0.419618 0.415727 -0.909358 71.8262 104.33)"/>
</clipPath>
</defs>
</svg>
