<svg width="148" height="152" viewBox="0 0 148 152" fill="none" xmlns="http://www.w3.org/2000/svg">
<path d="M85.2001 45.1778C88.1981 52.6945 92.0701 59.5796 97.6881 65.375C102.633 70.477 108.548 74.4288 114.713 77.837C122.222 81.9877 130.072 85.4682 137.661 89.4622C138.401 89.8516 139.409 89.3875 140.027 88.9265C140.358 88.6792 141.395 87.6347 140.652 87.2439C127.717 80.4357 113.407 75.1547 102.544 64.9897C96.9368 59.6195 92.5152 53.095 89.5673 45.8415C88.4626 43.2302 87.4734 40.566 86.4207 37.9314C85.3728 38.8764 84.4238 39.9296 83.5894 41.074C84.1257 42.4423 84.6566 43.8135 85.2001 45.1778Z" fill="#554140"/>
<path d="M79.9301 32.6201C81.1975 35.0852 82.2618 37.646 83.2829 40.226C84.1397 39.1215 85.1068 38.1101 86.1682 37.2082C85.5987 35.788 85.0022 34.3801 84.3595 32.9921C82.4254 28.8394 79.9666 24.9654 77.0451 21.4676C74.8342 18.8193 72.4564 16.3206 69.9266 13.987L66.5486 15.8371C68.4355 17.5746 70.2549 19.3865 71.9726 21.301C75.0917 24.7085 77.766 28.5124 79.9301 32.6201Z" fill="#554140"/>
<path d="M65.2089 31.2631C67.558 34.566 69.5361 38.1281 71.1066 41.8839C73.7419 47.8933 75.4175 54.3379 77.918 60.4047C78.2073 57.6031 78.4214 54.7759 78.8541 52.0123C77.6133 48.3838 76.4351 44.7271 74.9608 41.2151C73.4368 37.4461 71.5416 33.8469 69.3039 30.4721C67.2295 27.5138 64.6499 24.9605 61.6863 22.9322C60.486 22.0793 59.2533 21.2751 57.9883 20.5196L54.4789 22.441C55.3547 22.9549 56.2169 23.4899 57.0655 24.0459C60.18 25.9421 62.9367 28.3852 65.2089 31.2631Z" fill="#554140"/>
<path d="M78.3937 61.6156C79.1423 63.3697 79.9906 65.0771 80.9345 66.729C83.2065 70.7618 86.3528 74.2073 90.1359 76.8056C94.0977 79.3326 98.3112 81.4293 102.708 83.0617C107.688 85.0518 112.567 87.1997 117.412 89.5044C122.302 91.8368 127.188 94.1779 132.228 96.1672C133.331 96.6039 136.297 94.3705 134.669 93.7299C125.653 90.171 117.167 85.3946 108.162 81.8088C103.728 80.1835 99.4222 78.2216 95.2812 75.9395C91.2384 73.6349 87.7952 70.386 85.2313 66.4565C82.6027 62.381 80.8582 57.8773 79.2704 53.2998C78.8989 55.9723 78.7108 58.6762 78.4254 61.3544L78.3937 61.6156Z" fill="#554140"/>
<path d="M74.5376 75.9846C74.974 76.5464 75.4151 77.1039 75.8661 77.6542C81.401 84.5645 88.5597 89.9351 96.6885 93.2758C106.144 97.0802 116.278 98.7064 125.882 102.041C127.002 102.429 129.958 100.173 128.321 99.605C119.771 96.6395 110.821 95.0236 102.279 92.0284C93.9142 89.1527 86.436 84.126 80.5629 77.431C79.0427 75.6906 77.609 73.8749 76.2382 72.0093C76.0128 72.6432 75.7682 73.2726 75.5045 73.8975C75.204 74.6061 74.8817 75.3018 74.5376 75.9846Z" fill="#554140"/>
<path d="M52.3198 42.3908C55.3716 46.1049 58.1271 50.0624 60.5604 54.2261C64.8962 61.3244 69.0474 68.6178 74.1053 75.2199C74.7522 73.9155 75.3221 72.5734 75.812 71.201C71.9348 65.848 68.5526 60.0945 65.1538 54.4456C62.7449 50.2817 60.0902 46.2719 57.204 42.438C54.7425 39.1789 51.6906 36.4315 48.2109 34.3421C45.5594 32.8517 42.8201 31.5271 40.008 30.3755L36.4345 32.333C38.602 33.27 40.7668 34.2016 42.8375 35.2619C46.4274 36.9868 49.6477 39.4078 52.3198 42.3908Z" fill="#554140"/>
<path d="M49.5474 65.5546C55.4121 72.0684 60.878 79.0229 67.2128 85.0795C68.0607 84.1802 68.8684 83.2492 69.6359 82.2864C64.1782 76.9376 59.3445 70.9621 54.258 65.2458C48.1387 58.3672 41.7575 51.6451 34.456 46.0541C31.1074 43.4835 27.5483 41.2086 23.8169 39.2538L20.2858 41.1887C23.4624 42.8056 26.513 44.6644 29.4117 46.7497C36.8812 52.1124 43.3888 58.7157 49.5474 65.5546Z" fill="#554140"/>
<path d="M68.5196 86.5541C75.1374 92.6738 82.6313 97.7341 90.7493 101.565C100.112 105.919 110.186 108.505 120.485 109.2C120.948 109.181 121.401 109.054 121.81 108.83C122.22 108.605 122.574 108.289 122.846 107.905C123.302 107.203 122.979 106.761 122.223 106.708C104.046 105.439 86.9379 97.8826 73.2183 85.8757C72.1415 84.933 71.0953 83.9587 70.0695 82.9647C69.2996 83.9201 68.4907 84.8423 67.6429 85.7313C67.9336 86.007 68.2243 86.2826 68.5196 86.5541Z" fill="#554140"/>
<path d="M11.3531 56.2796C16.347 58.5158 21.1631 60.9049 25.5475 64.2326C29.4487 67.3355 33.1723 70.6627 36.7002 74.1982C43.4257 80.6393 50.1871 87.1213 57.2277 93.2179C58.274 92.538 59.3026 91.8295 60.3134 91.0927C54.0487 85.6717 48.0719 79.8856 42.0422 74.2144C38.3574 70.7479 34.7949 67.1336 30.9057 63.8989C26.8666 60.564 22.4216 57.7716 17.6783 55.5894C14.6734 54.1845 11.6404 52.8434 8.57923 51.566C7.2253 50.9947 5.86638 50.4105 4.49875 49.8441L0.875091 51.8305C1.65316 52.1492 2.42931 52.4724 3.20503 52.7916C5.93781 53.9141 8.65385 55.0768 11.3531 56.2796Z" fill="#554140"/>
<path d="M57.6901 93.9298C58.1536 94.3294 58.6176 94.728 59.0822 95.1253C66.7705 101.666 75.0861 107.554 84.4982 111.244C89.6042 113.245 94.869 113.742 100.313 113.947C105.567 114.146 110.885 114.232 115.893 115.995C117.01 116.388 119.965 114.137 118.33 113.561C109.307 110.387 99.4623 112.582 90.3293 109.989C85.5649 108.507 81.0138 106.404 76.7887 103.73C72.4789 101.091 68.3601 98.1443 64.4628 94.911C63.2157 93.891 61.9819 92.8538 60.7615 91.7995C60.5149 91.9821 60.2651 92.1641 60.0122 92.3455C59.2504 92.8905 58.4718 93.418 57.6901 93.9298Z" fill="#554140"/>
<path d="M115.755 116.022C110.746 114.23 105.438 114.111 100.193 113.884C94.7566 113.647 89.4983 113.122 84.3923 111.088C74.9791 107.341 66.6503 101.401 58.9456 94.8098C58.4776 94.4098 58.0116 94.0087 57.5476 93.6062C58.3286 93.0947 59.0996 92.5697 59.8606 92.0312C60.1096 91.8532 60.3586 91.6713 60.6061 91.4887C61.8306 92.549 63.0671 93.5941 64.3156 94.6242C68.2214 97.8835 72.3469 100.857 76.6613 103.524C80.8916 106.224 85.4446 108.356 90.2078 109.866C99.3376 112.513 109.156 110.372 118.178 113.6C119.678 114.137 117.32 116.071 116.06 116.071C115.956 116.072 115.853 116.056 115.755 116.022ZM120.351 109.215C110.069 108.462 100.005 105.817 90.6413 101.408C82.523 97.529 75.0213 92.4229 68.3881 86.261C68.0926 85.9879 67.8008 85.7095 67.5083 85.4325C68.3488 84.5467 69.1521 83.6281 69.9181 82.6768C70.9463 83.6741 71.9941 84.6584 73.0741 85.609C86.8201 97.7014 103.929 105.359 122.075 106.733C122.831 106.789 123.154 107.234 122.702 107.933C122.44 108.3 122.105 108.604 121.719 108.826C121.332 109.048 120.904 109.182 120.462 109.22C120.425 109.218 120.388 109.217 120.351 109.217V109.215ZM125.757 102.054C116.157 98.6665 106.041 96.9817 96.5911 93.1228C88.4673 89.7359 81.3015 84.3228 75.7471 77.3771C75.2971 76.8232 74.8528 76.2637 74.4143 75.6985C74.7538 75.0177 75.0728 74.3234 75.3713 73.6155C75.6331 72.9918 75.8731 72.3635 76.0951 71.7298C77.4713 73.6048 78.9098 75.4284 80.4338 77.1769C86.3248 83.9083 93.8078 88.9785 102.165 91.9014C110.7 94.9456 119.636 96.6135 128.179 99.6277C129.683 100.158 127.319 102.097 126.058 102.097C125.957 102.099 125.856 102.085 125.76 102.054H125.757ZM132.107 96.1893C127.075 94.1716 122.194 91.8033 117.308 89.4442C112.47 87.1081 107.595 84.9385 102.623 82.9231C98.2328 81.2662 94.0236 79.1462 90.0631 76.5975C86.2809 73.9791 83.1292 70.5165 80.8456 66.4707C80.5376 65.9378 80.2416 65.4007 79.9576 64.8596C79.3576 63.7088 78.8048 62.5358 78.2881 61.3475C78.2978 61.26 78.3076 61.1725 78.3166 61.0866C78.5881 58.4098 78.7666 55.7086 79.1221 53.0388C80.7256 57.6242 82.4851 62.136 85.1221 66.2259C87.6963 70.1699 91.1433 73.4376 95.1833 75.7637C99.3221 78.0692 103.624 80.0551 108.052 81.7047C117.046 85.3404 125.527 90.1637 134.527 93.7725C136.009 94.3655 133.695 96.2529 132.439 96.2529C132.326 96.253 132.214 96.2316 132.108 96.19L132.107 96.1893ZM36.5574 74.0843C33.0246 70.5301 29.2982 67.183 25.3959 64.0594C21.0114 60.7083 16.1986 58.2917 11.2111 56.0277C8.51862 54.8053 5.80662 53.6291 3.07512 52.4988C2.30112 52.1758 1.52637 51.8474 0.750122 51.5244L4.35012 49.5589C5.71512 50.1335 7.07262 50.725 8.42562 51.3027C11.4791 52.6043 14.5084 53.9621 17.5134 55.3757C22.2475 57.5838 26.6877 60.3991 30.7269 63.7541C34.6178 67.01 38.1848 70.6434 41.8733 74.1295C47.9116 79.8358 53.8943 85.6542 60.1628 91.1089C59.1628 91.8413 58.1421 92.5446 57.1006 93.2187C50.0588 87.0812 43.2908 80.5624 36.5581 74.0851L36.5574 74.0843ZM137.547 89.4672C129.972 85.4333 122.138 81.9111 114.64 77.7215C108.485 74.2815 102.575 70.2975 97.6268 65.1735C93.9614 61.3265 90.8618 56.9551 88.4251 52.1965C87.1967 49.8304 86.0863 47.4023 85.0981 44.9213C84.5498 43.555 84.0166 42.1808 83.4751 40.8106C84.3013 39.6718 85.2416 38.6245 86.2808 37.6859C87.3406 40.325 88.3403 42.9894 89.4503 45.6063C92.4202 52.8723 96.8535 59.4168 102.461 64.8129C113.327 75.0326 127.602 80.3867 140.517 87.266C141.257 87.6604 140.231 88.6976 139.902 88.9431C139.406 89.3362 138.808 89.57 138.182 89.6152C137.962 89.6194 137.744 89.5689 137.548 89.4679L137.547 89.4672ZM49.4153 65.4359C43.2534 58.568 36.7403 51.9334 29.2786 46.5355C26.3824 44.4355 23.3361 42.5611 20.1654 40.9281L23.6731 39.0138C27.3977 40.9876 30.9524 43.2803 34.2991 45.8672C41.5996 51.4953 47.9798 58.2464 54.1051 65.1534C59.1953 70.8935 64.0373 76.8914 69.4958 82.2617C68.7373 83.2202 67.9373 84.146 67.0958 85.039C60.7606 78.9568 55.2871 71.9777 49.4161 65.4366L49.4153 65.4359ZM60.4261 54.1152C57.9867 49.943 55.2281 45.9749 52.1761 42.2483C49.5033 39.2532 46.2882 36.8164 42.7088 35.0728C40.6433 33.9988 38.4856 33.0606 36.3249 32.1131L39.8716 30.1783C42.6749 31.3443 45.4064 32.683 48.0511 34.1875C51.522 36.2922 54.5707 39.0518 57.0353 42.3197C59.9244 46.1643 62.584 50.1837 64.9996 54.3561C68.4068 60.0156 71.7991 65.7802 75.6803 71.1482C75.1993 72.5158 74.6383 73.8527 74.0003 75.1514C68.9356 68.5352 64.7723 61.2293 60.4268 54.1159L60.4261 54.1152ZM70.9891 41.7634C69.4113 38.005 67.4291 34.4382 65.0791 31.1288C62.8069 28.2428 60.0553 25.7889 56.9506 23.8797C56.1056 23.3197 55.2463 22.7805 54.3728 22.2624L57.8528 20.3637C59.1123 21.1268 60.3411 21.9364 61.5391 22.7926C64.4937 24.8338 67.0693 27.3968 69.1456 30.3616C71.3849 33.7424 73.2851 37.3456 74.8171 41.1167C76.2991 44.6304 77.4871 48.2869 78.7366 51.9165C78.3196 54.673 78.1193 57.4947 77.8441 60.2888C75.3316 54.2227 73.6351 47.7806 70.9898 41.7674L70.9891 41.7634ZM79.8331 32.5074C77.6605 28.3936 74.9825 24.5811 71.8643 21.1623C70.1476 19.2398 68.3311 17.4207 66.4463 15.6753L69.7973 13.8478C72.3244 16.1902 74.7011 18.697 76.9126 21.3524C79.8339 24.8624 82.2963 28.7463 84.2378 32.9063C84.8828 34.2957 85.4798 35.7058 86.0558 37.1258C85.0068 38.0192 84.0517 39.0219 83.2058 40.1178C82.1753 37.5423 81.1051 34.9793 79.8338 32.5113L79.8331 32.5074Z" fill="#3B3430"/>
</svg>
