<svg width="241" height="286" viewBox="0 0 241 286" fill="none" xmlns="http://www.w3.org/2000/svg">
<path d="M207.154 214.386C207.013 214.266 206.877 214.265 206.848 214.377C206.819 214.489 206.661 214.678 206.597 214.426C206.533 214.174 206.654 213.428 206.537 213.514C206.419 213.6 206.03 213.808 206.109 213.663C206.158 213.551 206.171 213.426 206.147 213.307C206.122 213.187 206.062 213.079 205.974 212.999C205.573 212.667 205.222 212.276 204.932 211.839L204.63 211.606C204.499 211.472 204.387 211.321 204.296 211.156C204.164 210.973 203.913 210.764 203.92 210.614C203.934 210.26 203.603 210.482 203.497 210.252L203.407 210.055C203.065 209.852 202.77 209.575 202.544 209.242L202.328 209.045C202.034 208.773 201.562 208.627 201.377 208.326L201.123 207.909C200.558 207.63 200.021 207.294 199.522 206.905L199.115 206.467C198.756 205.992 198.269 205.635 197.715 205.441C197.45 205.338 197.231 205.141 197.096 204.886C197.061 204.795 197.006 204.713 196.935 204.649C196.865 204.584 196.78 204.537 196.688 204.512C196.416 204.402 195.901 204.415 195.914 203.866C195.871 203.805 195.807 203.764 195.735 203.75C195.429 203.862 195.504 203.471 195.329 203.42C195.116 203.388 194.909 203.326 194.714 203.234L194.559 203.129C194.288 202.778 193.963 202.475 193.596 202.233C193.03 201.868 192.433 201.555 191.814 201.296L191.76 201.084C191.717 200.955 191.638 200.843 191.534 200.762C191.429 200.68 191.302 200.633 191.171 200.625C190.857 200.524 190.558 200.381 190.281 200.199C189.969 200.08 189.679 199.905 189.427 199.681C189.199 199.401 188.805 199.48 188.658 199.138C188.643 199.103 188.651 199.036 188.637 199.03C188.294 198.883 187.866 198.998 187.625 198.538L186.678 197.863L186.299 197.75C185.701 197.529 185.125 197.252 184.578 196.92L184.107 196.6C183.91 196.471 183.753 196.233 183.568 196.51C183.548 196.538 183.309 196.461 183.293 196.414L183.074 195.754C182.604 195.75 182.137 195.695 181.68 195.589C181.293 195.464 180.896 195.377 180.493 195.328C180.277 195.333 179.627 194.608 179.24 194.373C178.437 194.173 177.619 194.037 176.794 193.968L176.358 193.54L176.119 193.307C175.644 193.188 175.263 193.578 175.27 194.174L175.142 194.618C175.022 195.119 174.862 195.609 174.664 196.084C174.297 197.146 173.707 198.113 172.937 198.917L172.402 199.366C171.863 199.91 171.184 200.549 170.894 200.788L170.715 201.129C170.483 201.441 170.177 201.686 169.827 201.841L169.506 202.036C169.113 202.193 168.655 202.369 168.486 202.426C168.193 202.538 167.909 202.676 167.638 202.839C167.5 202.939 166.908 202.812 166.812 202.843L166.73 202.884L166.159 203.171C165.274 203.276 164.384 203.322 163.495 203.311L163.068 203.509C162.752 203.661 162.424 203.338 162.128 203.575C161.969 203.701 161.517 203.482 161.202 203.432C161.056 203.407 160.906 203.405 160.759 203.425C160.598 203.451 160.454 203.563 160.296 203.549C160.192 203.541 160.305 203.181 160.006 203.242C159.829 203.279 159.604 202.87 159.455 203.197L158.096 203.042L157.537 202.943C156.938 202.736 155.973 202.436 155.389 202.274L154.867 202.198C154.575 202.147 154.297 202.034 154.052 201.864C153.628 201.658 153.191 201.482 152.744 201.338C152.374 201.182 151.949 201.094 151.769 200.622C151.746 200.56 151.653 200.514 151.593 200.459L151.215 200.122C150.656 199.783 150.153 199.355 149.723 198.855L149.376 198.495L149.022 198.136C148.705 197.757 148.369 197.395 148.016 197.051C147.763 196.587 147.538 196.106 147.342 195.612C146.962 194.662 146.684 193.671 146.511 192.657L146.755 192.271L146.955 191.956C146.914 191.521 146.932 191.081 147.01 190.649L147.085 190.331C147.167 189.982 147.273 189.642 147.369 189.301C147.396 189.207 147.493 189.118 147.471 189.034C147.383 188.835 147.305 188.63 147.238 188.422C147.211 188.233 147.609 188.305 147.502 187.967C147.45 187.804 147.605 187.6 147.687 187.434C147.86 187.003 148.083 186.595 148.351 186.219L148.685 185.832C149.138 185.482 150.122 184.828 150.871 184.38L151.55 183.973L152.048 183.675C152.744 183.633 153.438 183.547 154.125 183.419L154.581 183.551L154.975 183.665C155.478 183.551 155.994 183.515 156.505 183.556C157.125 183.605 157.747 183.622 158.368 183.605C158.644 183.587 159.381 183.682 159.404 183.501C159.427 183.32 160.145 183.772 160.516 183.865C160.888 183.957 162.968 183.744 164.494 183.938L165.883 184.208C167.599 184.543 169.315 184.974 171.029 185.376L171.337 185.449C171.671 185.588 171.717 185.172 171.434 184.519C170.753 183.244 169.998 182.014 169.172 180.835L168.639 180.15L168.329 179.752C167.934 179.466 167.576 179.128 167.264 178.748C167.122 178.528 166.391 178.016 166.247 177.84L166.159 177.658C166.047 177.428 165.702 177.698 165.668 177.345C165.65 177.289 165.612 177.242 165.56 177.215C165.427 177.159 164.387 176.481 164.269 176.388C164.178 176.315 164.035 176.304 163.956 176.225C163.547 175.809 162.745 175.879 162.632 175.083L162.626 175.037C162.476 174.978 161.936 174.704 161.432 174.422C160.928 174.14 159.513 173.531 159.379 173.862L159.256 173.236L159.182 172.861C158.883 172.743 158.315 172.487 157.916 172.296C157.518 172.106 156.105 171.493 155.708 171.237L155.35 171.178C154.962 171.114 154.923 170.671 154.893 170.689L154.163 171.136C153.473 170.585 152.863 170.094 152.808 170.045C152.697 169.919 152.594 169.784 152.502 169.643C152.427 169.534 151.762 169.659 151.522 169.421C150.887 169.043 150.21 168.744 149.505 168.53L149.041 168.32C148.678 168.228 148.339 168.055 148.047 167.814C147.929 167.686 147.633 167.738 147.432 167.654L147.32 167.607C147.222 167.462 146.916 167.454 146.646 167.581L146.549 167.073C146.539 167.025 146.092 167.025 145.874 166.921L145.698 166.836C145.466 166.626 145.204 166.453 144.921 166.323L144.685 166.408C144.626 166.428 144.563 166.435 144.502 166.428C144.441 166.421 144.382 166.401 144.329 166.368C144.024 166.063 143.531 165.647 143.244 165.706L142.644 165.828C142.192 165.612 141.729 165.42 141.257 165.252L141.145 165.166C140.909 164.98 140.7 164.685 140.419 164.979C140.4 164.999 140.219 164.893 140.14 164.818C139.825 164.516 139.541 164.371 139.184 164.621C138.986 164.756 139.018 164.394 138.984 164.392L138.607 164.369C138.197 164.248 137.365 163.983 136.751 163.782L136.257 163.495L135.814 163.239C135.319 163.113 134.516 162.878 134.031 162.719L133.58 162.644C133.385 162.613 133.326 162.046 133.022 162.44C132.968 162.51 132.571 162.296 132.333 162.213L132.055 162.116C131.657 161.914 131.243 161.749 130.816 161.622C130.41 161.508 128.902 160.987 128.302 160.85C127.466 160.505 126.65 160.111 125.858 159.671C125.447 159.568 125.043 159.442 124.646 159.293C124.437 159.174 123.632 158.982 123.437 158.876C123.179 158.646 122.948 158.384 122.751 158.097C122.676 158.006 122.54 157.949 122.732 158.293L122.425 158.501C122.231 158.631 122.115 158.596 121.988 158.405C121.905 158.284 121.841 158.018 121.815 158.02L120.82 158.075C120.43 157.607 120.012 157.165 119.569 156.751C119.627 156.852 119.556 157.021 119.303 156.927C118.783 156.714 118.279 156.465 117.793 156.179L117.511 156.155L117.196 156.126C116.7 155.802 116.154 155.564 115.581 155.424L115.095 154.989L114.753 154.685C114.584 154.687 114.417 154.648 114.265 154.573C114.114 154.497 113.982 154.386 113.879 154.249C113.781 154.029 113.295 153.75 113.163 154.037L112.713 153.728C112.517 153.593 112.293 153.557 112.23 153.28L112.22 153.24C112.122 153.2 111.461 153.011 110.749 152.817L110.367 152.416C110.162 152.204 110.051 151.864 109.828 151.718C109.604 151.573 109.275 151.588 108.994 151.518C108.713 151.457 108.437 151.375 108.168 151.27L107.981 151.19C107.803 150.961 107.671 150.698 107.591 150.415L107.345 150.671C107.314 150.704 107.033 150.516 106.885 150.404L106.424 150.058C106.044 149.795 105.701 149.479 105.404 149.119C105.4 148.991 105.378 148.864 105.34 148.742C105.305 148.745 105.271 148.758 105.242 148.779C105.213 148.8 105.19 148.829 105.176 148.862C105.138 148.947 104.965 149.197 104.901 149.164C104.756 148.931 104.648 148.674 104.583 148.404L104.217 148.721C104.093 148.68 103.984 148.601 103.906 148.494C103.892 148.178 103.673 148.305 103.547 148.226C103.453 148.169 103.464 147.943 103.37 147.839L103.279 147.733C103.126 147.669 102.814 147.563 102.582 147.496C102.053 147.305 101.555 147.034 101.104 146.693L100.704 146.617C100.515 146.593 100.337 146.513 100.193 146.387C100.048 146.26 99.9431 146.092 99.8906 145.904C99.8772 145.878 99.8588 145.856 99.8365 145.838C99.8142 145.82 99.7886 145.807 99.7611 145.8L99.0375 145.895C98.6513 145.282 98.4213 144.839 98.5247 144.906C98.628 144.973 98.9313 145.071 98.7855 144.86L98.7859 144.748C98.7838 144.405 98.5307 144.579 98.4222 144.49C98.2315 144.335 98.1027 144.458 97.976 144.437L97.6236 144.381C97.1022 144.118 96.8906 143.893 97.1529 143.879L97.2319 143.822L97.2996 143.778C97.2954 143.694 97.2704 143.614 97.2271 143.544C97.1839 143.474 97.1238 143.417 97.0526 143.378L96.9757 143.408L96.3958 143.635C95.9373 143.283 95.4055 142.886 95.207 142.756L95.1482 142.651L94.9377 142.269C94.6099 142.09 94.2716 141.932 93.9246 141.796C93.7363 141.733 93.4185 141.186 93.2943 141.118C93.1215 140.969 92.9401 140.831 92.7511 140.705C92.6572 140.694 92.3196 140.565 92.2718 140.44C92.1565 140.189 91.9932 139.966 91.7916 139.784C91.3268 139.56 90.8471 139.37 90.3559 139.215L90.1353 138.942L89.6613 138.359C88.9998 138.057 88.3993 137.631 87.8894 137.104L87.5795 136.771L87.4034 136.583C87.0923 136.421 86.8106 136.206 86.5703 135.947C86.1247 135.59 85.6372 135.293 85.119 135.061L85.0349 134.745L84.9463 134.411C84.7468 134.274 84.5305 134.165 84.3029 134.086L84.294 134.06C84.025 133.302 83.188 133.055 82.7855 132.429L82.647 132.213C82.5555 131.935 82.3895 131.704 82.2779 131.699C81.9225 131.555 81.6241 131.294 81.4282 130.957C81.237 130.563 80.0259 129.018 79.3982 128.133L78.8836 127.312C78.666 126.981 78.5114 126.604 78.2804 126.255L78.0273 125.864C77.933 125.339 77.8221 124.707 77.7814 124.461C77.7222 124.121 77.6835 123.778 77.6656 123.433C77.6855 123.359 77.9163 123.138 77.9645 123.042C78.0126 122.945 77.6706 122.449 77.575 122.319L77.5992 122.29L77.8315 122.009C77.7426 121.833 77.618 121.679 77.4661 121.556C77.3142 121.434 77.1383 121.347 76.9503 121.301C76.6007 121.233 76.0327 120.216 75.9031 120.083C75.5817 119.859 75.3028 119.576 75.0803 119.249L74.6658 119.227L74.6056 119.224C74.5343 119.164 74.2999 119.006 74.0828 118.87C73.7919 118.612 73.5279 118.324 73.2946 118.01C73.2147 117.904 73.0637 117.573 72.9968 117.502C72.93 117.431 72.1879 116.815 71.5375 116.274L70.9929 115.73C70.8653 115.545 70.6974 115.393 70.5025 115.286C70.2148 115.158 69.9816 114.929 69.8437 114.64L69.7431 114.331C69.5218 114.156 69.1754 113.868 68.978 113.689L68.8015 113.521C68.6326 113.358 68.3313 113.152 68.337 113.02L68.352 112.659C68.1053 112.654 67.8595 112.63 67.6165 112.588C67.4406 112.553 67.1844 111.792 67.0019 111.524L66.7817 111.317L66.5794 111.129C66.3442 110.988 66.121 110.827 65.9122 110.648C65.7937 110.533 65.3341 110.007 65.1098 109.751L64.9073 109.517L64.6569 109.228C64.3932 108.902 64.07 108.506 63.9388 108.35C63.6375 108.075 63.315 107.827 62.9744 107.606C62.7607 107.469 62.2089 106.843 61.8788 106.586C61.5486 106.329 60.648 104.911 60.0497 104.379L59.6881 103.772C59.4835 103.429 59.0551 103.636 58.9268 103.215L58.848 102.952C58.678 102.712 58.4552 102.517 58.1974 102.383L58.0752 102.307C57.8283 102.152 57.4531 102.021 57.7417 101.656C57.7564 101.645 57.5486 101.372 57.4783 101.371L57.0665 101.378C56.8396 101.069 56.6369 100.742 56.4598 100.4C56.3631 100.189 55.7149 99.9199 55.6535 99.7701C55.5922 99.6203 55.2923 99.1279 55.1712 99.1155C55.05 99.1032 54.7702 98.983 54.9167 98.8829C55.0632 98.7828 54.4052 98.453 54.2332 98.2855L54.0732 98.1271L53.5886 97.6497C53.0928 97.2158 52.723 96.6493 52.519 96.0111L52.0807 96.0444C51.581 96.0822 51.7359 95.6193 51.52 95.4469C51.3867 95.3702 51.2707 95.2656 51.1795 95.1395C51.0883 95.0135 51.0239 94.8689 50.9904 94.7149L50.9813 94.6579C50.8395 94.5831 50.6814 94.5465 50.5214 94.5515C50.3608 94.5568 49.9395 93.8666 49.7219 93.6126L49.5082 93.3872C49.2966 93.1647 48.9657 93.0224 48.9764 92.6568C48.943 92.5851 48.8842 92.5296 48.8119 92.5017L48.2098 92.6947C47.9944 92.2827 47.8118 91.8531 47.6641 91.4099C47.299 91.0143 46.9042 90.649 46.4833 90.3174L46.4293 90.0561C46.3392 89.6242 46.0105 89.8314 45.8886 89.6296C45.7534 89.4084 45.5769 89.0105 45.4656 89.0077C45.0579 88.9942 45.1035 88.6009 44.8862 88.4585C44.6802 88.2919 44.5203 88.0725 44.4224 87.8217L44.3116 87.6152C43.8765 87.2838 43.4667 86.9188 43.0859 86.5231C42.7117 86.1339 41.6454 84.9715 41.5489 84.8104C41.4525 84.6493 41.1291 84.3461 41.0652 84.1959C40.8651 83.9934 40.6394 83.8196 40.394 83.679C40.1212 83.3479 39.9225 82.9586 39.8118 82.5381L39.2875 82.6442L39.2649 82.6484C39.0069 82.2014 38.7156 81.7761 38.3933 81.3764C38.0389 80.9293 36.9103 79.6512 36.7912 79.444C36.616 79.2266 36.4173 79.0305 36.1988 78.8595C36.091 78.7525 35.6606 78.2647 35.4562 77.9933L35.3866 77.7298C35.2857 77.3562 35.2864 77.037 34.7402 76.9712L34.5381 76.9475C34.2651 76.6091 34.0558 76.2207 33.9209 75.802L33.9455 75.5403L33.9935 75.0234C33.6083 74.7307 33.165 74.3976 33.007 74.278C32.849 74.1583 32.3836 73.7687 32.4403 73.6703C32.4692 73.5356 32.4653 73.3959 32.4286 73.2642C32.392 73.1324 32.3237 73.0126 32.2303 72.9155C31.9955 72.7055 32.0107 71.8703 32.1083 72.0765C32.2168 72.3231 32.3667 72.5475 32.551 72.7399C32.6209 72.7381 32.9119 72.5997 32.878 72.4388L32.783 72.3393C32.4571 72.0033 32.6825 71.8535 32.8292 71.6347C32.9539 71.4544 33.3333 71.5713 33.2805 71.1525L33.2505 70.9217C33.4879 70.6263 33.7466 70.3495 34.0242 70.0938C34.253 69.8912 34.9897 70.4755 35.1275 70.5719C35.2653 70.6682 35.7857 71.1307 36.0351 71.3267C36.2845 71.5228 36.9557 72.402 37.1959 72.5701C37.4362 72.7383 38.0132 73.6235 38.2289 73.7927C38.4837 74.0678 38.7648 74.3157 39.0681 74.5326C39.2818 74.6005 39.6729 75.4747 40.0625 75.8817C40.452 76.2887 41.8052 77.6937 42.19 78.1131C42.717 78.7372 43.2093 79.3918 43.6646 80.0736L43.8048 80.1737L44.8154 80.9016C45.6907 81.9406 46.6383 83.0778 46.9254 83.4387L47.2085 83.7489C47.5037 83.9954 47.7497 84.2984 47.9331 84.6417L48.0351 84.8915L49.0058 85.5591C49.2126 85.7024 49.7317 86.4655 49.9483 86.6117C50.1649 86.7579 50.6763 87.6015 50.9259 87.8702C51.3985 88.3124 51.8988 88.7222 52.4236 89.0971L52.4366 89.2419C52.4652 89.5688 52.7591 89.5323 52.8738 89.7058C52.9969 89.8978 53.1369 90.0775 53.2918 90.243C53.4882 90.4464 53.7314 90.6079 53.917 90.818C54.0615 90.9822 54.1364 91.3289 54.2646 91.3629C54.7809 91.512 54.8945 92.0542 55.2887 92.3102C55.521 92.4717 55.7344 92.66 55.9248 92.8717L56.0934 93.0473C56.2616 93.2753 56.4146 93.5149 56.5514 93.7644L56.7452 93.8881C56.8715 93.9429 56.983 94.0279 57.0707 94.1362C57.1584 94.2444 57.2198 94.3728 57.2497 94.5109L57.2602 94.5938C57.6734 94.7872 58.0641 95.0273 58.425 95.3099C58.7901 95.7364 59.1005 96.2096 59.3489 96.7182C59.3808 96.7475 59.8311 97.1907 60.2799 97.6316C60.7287 98.0726 62.0594 99.4772 62.2729 99.7363C62.4864 99.9955 63.1712 100.845 63.3247 101.045L63.4814 101.212C63.7395 101.49 64.1299 101.581 64.3425 101.963C64.5223 102.287 65.0003 102.402 65.1092 102.833L65.216 103.257C65.6031 103.581 65.9704 103.929 66.316 104.3C66.5518 104.566 67.6489 105.546 68.0775 105.993C68.5061 106.44 69.7451 107.719 69.8957 107.815C70.1154 108.011 70.307 108.239 70.465 108.491C70.5483 108.636 71.3002 109.006 71.7055 109.319C72.2145 109.893 72.6862 110.501 73.1177 111.139L73.2961 111.299L74.8699 112.702C76.6039 114.24 78.2288 115.757 78.4814 116.07L78.8962 116.036C78.9895 116.029 79.1771 116.209 79.2499 116.337C79.3544 116.518 79.2791 116.833 79.6168 116.819L79.9943 116.804C80.3753 116.752 80.7252 116.554 80.9754 116.251L81.2824 116.22C81.3414 116.215 81.3417 116.03 81.3923 115.945L81.5176 115.735C81.6062 115.886 81.7479 115.996 81.9138 116.042L81.9467 115.996L82.021 115.888C82.1744 115.665 82.3925 115.497 82.6432 115.409C82.9349 115.285 83.9496 115.279 84.2001 115.546L84.425 115.304C84.523 115.207 84.6408 115.135 84.7694 115.092C84.898 115.048 85.034 115.036 85.1672 115.054L85.2585 115.055C85.4121 114.879 85.5478 114.686 85.6632 114.482L86.0221 114.602L86.12 114.635C86.2351 114.605 86.5661 114.549 86.8566 114.509C87.3007 114.579 87.7289 114.727 88.1231 114.946L88.2233 114.968L88.3308 114.992C88.522 114.964 88.7105 114.917 88.894 114.854C89.0888 114.788 89.592 114.793 89.657 115.12L90.0147 114.782L90.1628 114.64C90.2577 114.62 90.3557 114.621 90.4498 114.643C90.5438 114.665 90.6317 114.709 90.7074 114.77C91.0527 115.01 91.4262 115.205 91.8193 115.349C92.2681 115.526 93.6767 116.045 93.9567 116.183C94.5359 116.524 95.0975 116.894 95.6396 117.293C96.0448 117.596 97.6102 118.491 98.0977 118.834L98.424 119.288L98.6255 119.569C98.9307 119.785 99.4533 120.206 99.7861 120.502L100.089 120.772C100.391 121.041 100.695 121.31 100.997 121.579C101.062 121.623 101.117 121.681 101.158 121.748C101.237 122.026 101.123 122.354 101.639 122.456C101.807 122.49 101.905 122.933 102.145 123.172C102.569 123.592 102.642 124.258 103.18 124.639C103.201 124.653 103.163 124.764 103.152 124.828C103.142 124.991 103.109 125.152 103.053 125.306L102.89 125.61C103.138 125.735 103.232 125.873 103.098 125.915L103.079 126.049C103.05 126.248 103.054 126.456 103.044 126.66L102.842 127.344L102.703 127.46C102.631 127.648 102.489 128.075 102.386 128.409L102.283 128.715C102.216 128.997 102.126 129.274 102.015 129.541C101.775 130.004 101.504 130.449 101.205 130.873L101.036 131.108C100.825 131.286 100.586 131.425 100.33 131.518C100.061 131.507 99.794 131.469 99.533 131.404C99.2335 131.363 98.928 131.407 98.6491 131.532L98.4478 131.579C98.2148 131.637 97.9284 131.275 97.681 131.555L97.5575 131.696C97.4521 131.503 97.3066 131.337 97.1312 131.21C96.8501 131.112 96.5625 131.034 96.2706 130.977L96.0705 130.894L95.8688 130.809C95.6372 130.665 95.3832 130.623 95.3041 130.718C95.2251 130.812 94.8592 131.02 94.7265 130.902C94.5938 130.784 94.1901 130.491 94.1966 130.578C94.2032 130.665 94.1566 130.841 94.0899 130.846L94.0351 130.819C93.9638 130.781 93.9017 130.727 93.8533 130.661C93.4414 130.092 92.9461 130.292 92.487 130.284C92.1482 130.278 92.1046 130.286 92.1627 129.924L92.231 129.51C92.0281 129.611 91.8323 129.621 91.7966 129.533C91.7608 129.445 91.5133 129.267 91.4985 129.349L91.5038 129.424L91.5359 129.841C91.2532 129.756 90.5263 129.535 89.9208 129.348L89.3721 129.169C89.193 129.132 89.0256 129.051 88.8836 128.934C88.6058 128.671 88.2703 128.48 87.905 128.377L87.6589 128.273C87.5417 128.121 87.3903 128.001 87.2177 127.923L87.1448 127.929C87.0524 127.934 86.9218 128.005 86.8796 127.965C86.4249 127.638 85.9349 127.365 85.419 127.152L84.9716 126.9C84.4846 126.557 83.7875 126.094 83.4228 125.87L83.0996 125.746C82.8257 125.639 82.6539 125.646 82.5643 125.292L82.5042 125.054C82.3751 125.032 82.2526 124.981 82.1452 124.905C82.0378 124.829 81.9481 124.729 81.8824 124.613C81.8523 124.453 81.4113 124.509 81.2992 124.544C81.1871 124.579 80.8748 124.15 80.6836 123.961L80.4414 124.078L80.3856 124.105C80.2672 124.092 80.334 124.255 80.5259 124.473C80.7843 124.835 81.1104 125.14 81.4854 125.37L81.5681 125.686C81.637 125.973 81.7442 126.248 81.8866 126.504L82.0183 126.728C82.2477 126.952 82.5184 127.127 82.815 127.242C83.0381 127.311 83.8022 128.478 84.582 129.171C85.3619 129.864 87.539 131.803 87.6353 132.02C87.7315 132.237 88.4483 132.346 88.6081 132.404C88.7679 132.462 89.275 133.201 89.5974 133.481L89.9437 133.668L90.3271 133.879C90.7664 134.205 91.2248 134.503 91.7 134.771L91.8675 135.128L91.9458 135.295C91.9293 135.51 92.0844 135.529 92.2907 135.335L92.5455 135.72L92.7916 136.082C93.2806 136.39 93.7434 136.74 94.1753 137.128L94.6713 137.192L94.8419 137.214C95.1801 137.672 95.576 138.081 96.0195 138.431C96.462 138.779 97.7732 139.388 97.7501 139.462C97.7466 139.527 97.7662 139.59 97.8051 139.639C97.844 139.689 97.8995 139.722 97.961 139.732C98.116 139.756 98.5828 139.943 98.9048 139.993L98.9288 140.098C99.0331 140.573 99.4136 140.666 99.7339 140.861L99.7732 140.885C99.9376 141.111 100.158 141.286 100.411 141.394C100.756 141.581 101.911 142.313 102.244 142.502C102.772 142.804 103.239 143.205 103.621 143.685L104.001 143.545C104.156 143.487 104.475 143.684 104.69 143.826C104.923 143.977 105.114 144.202 105.334 144.379C105.417 144.452 105.523 144.494 105.633 144.497C105.806 144.476 105.981 144.503 106.138 144.577C106.296 144.65 106.431 144.767 106.528 144.914L106.801 145.247C107.474 145.528 108.125 145.862 108.748 146.245C109.434 146.659 111.91 147.979 112.662 148.397L113.337 148.8C113.774 149.149 114.293 149.373 114.843 149.449C114.949 149.465 115.047 149.512 115.127 149.584C115.104 149.974 115.446 149.933 115.627 150.01C116.16 150.18 116.662 150.435 117.116 150.765L117.466 151.054C117.977 151.144 118.472 151.311 118.935 151.549C119.465 151.808 120.014 152.024 120.577 152.194C120.888 152.282 121.818 152.764 122.063 152.872C122.308 152.979 123.931 153.634 125.149 154.14L126.257 154.596C126.382 154.669 126.519 154.718 126.662 154.742L127.064 154.727C127.417 154.887 127.782 155.018 128.155 155.12C128.346 155.157 128.975 155.54 129.166 155.591L129.339 155.594C129.49 155.575 129.643 155.592 129.785 155.643C129.928 155.694 130.057 155.777 130.164 155.887C130.31 155.997 130.479 156.069 130.658 156.097C130.908 156.129 131.153 156.193 131.387 156.285L132.253 156.806C133.119 156.955 133.974 157.162 134.812 157.428C135.426 157.626 136.05 157.792 136.682 157.923C137.023 158.052 137.358 158.198 137.685 158.362C138.135 158.528 138.595 158.664 139.062 158.767L139.418 158.829C139.528 158.849 139.628 158.905 139.704 158.989L139.919 159.274C140.235 159.349 141.231 159.665 142.131 159.978L142.897 160.46C142.927 160.478 142.969 160.467 143.003 160.479L143.549 160.667C144.083 160.892 144.632 161.081 145.191 161.23C145.497 161.294 146.648 162 147.16 162.245C147.672 162.49 149.413 162.967 149.818 163.144C150.223 163.32 151.818 164.104 152.476 164.462L153.074 164.601L153.581 164.718C153.96 164.994 154.37 165.223 154.801 165.402C155.041 165.474 156.145 166.073 156.724 166.377L157.25 166.59C157.719 166.779 157.951 167.298 158.517 167.353C158.879 167.389 159.274 167.823 159.661 168.059C160.432 168.521 161.21 168.968 161.986 169.418L162.048 169.454C162.124 169.48 162.746 169.921 163.431 170.436L164.061 170.89C164.464 171.181 164.887 171.442 165.295 171.724C165.704 172.005 165.979 172.526 166.534 172.559C166.589 172.562 166.651 172.69 166.715 172.709C167.125 172.828 166.934 173.514 167.567 173.528L167.829 173.534C168.207 173.964 168.524 174.449 168.769 174.973L169.194 175.098L169.578 175.209C169.827 175.636 170.147 176.013 170.524 176.325L170.661 176.738C170.73 176.948 171.051 177.124 171.274 177.306L171.487 177.479C171.474 177.606 171.489 177.733 171.533 177.852C171.577 177.97 171.647 178.076 171.739 178.16L171.908 178.287C172.043 178.385 172.29 178.366 172.293 178.603C172.292 179.032 172.618 179.254 172.865 179.565C173.205 180.047 173.512 180.553 173.786 181.079L173.861 181.206C173.935 181.337 173.926 181.477 173.84 181.517C173.733 181.561 173.635 181.624 173.55 181.704C173.626 181.768 173.719 181.805 173.818 181.812C173.961 181.852 174.094 181.925 174.207 182.023C174.321 182.121 174.412 182.244 174.476 182.382L174.495 182.627L174.505 182.757C174.452 182.894 174.467 183.022 174.546 183.038C174.626 183.054 174.707 183.273 174.668 183.432C174.629 183.59 174.597 184.08 174.67 184.035C174.743 183.989 174.969 183.947 174.972 184.061C175.033 184.332 175.129 184.592 175.257 184.836L175.375 185.024C175.674 185.5 175.674 185.654 175.415 186.327L175.37 186.445C175.379 186.635 175.549 186.723 175.746 186.64L175.82 186.909L175.848 187.008C176.155 187.252 176.488 187.459 176.842 187.625L177.279 187.798L178.155 188.143C179.115 188.546 180.214 189.02 180.597 189.196C180.98 189.372 182.346 190.022 182.779 190.257C183.212 190.493 184.649 191.275 185.051 191.434C185.454 191.593 186.537 192.381 186.744 192.436L186.862 192.553L187.289 192.973C187.833 193.29 188.705 193.814 189.22 194.137C189.734 194.461 191.296 195.536 191.614 195.668L191.799 195.874L192.01 196.108C192.291 196.296 192.653 196.514 192.816 196.595C192.979 196.675 194.245 197.544 195.341 198.247L196.133 199.165L196.36 199.428C196.722 199.693 197.102 199.929 197.498 200.135L197.763 200.348C198.077 200.602 198.371 200.883 198.675 201.153L198.949 201.394C199.366 201.779 199.752 202.198 200.103 202.648L200.602 202.912L200.992 203.119C201.332 203.607 201.719 204.173 201.85 204.379C202.186 204.701 202.504 205.043 202.799 205.404L203.223 205.34L203.269 205.333C203.464 205.493 203.648 205.667 203.819 205.855C204.088 206.33 204.33 206.822 204.543 207.326L204.667 207.53L204.853 207.842C205.042 207.682 205.256 207.642 205.331 207.756C205.405 207.871 205.667 208.469 205.821 208.83L205.759 209.076L205.624 209.606C206.074 209.635 206.497 209.825 206.821 210.142L206.723 210.569C206.722 210.624 206.734 210.678 206.756 210.728C206.779 210.777 206.813 210.821 206.854 210.855C207.415 211.139 207.193 211.655 207.407 212.041C207.452 212.12 207.4 212.337 207.347 212.345C207.17 212.372 207.078 212.393 207.26 212.581C207.356 212.654 207.445 212.737 207.526 212.828C207.604 212.952 207.605 213.122 207.692 213.233C207.89 213.471 207.781 213.624 207.603 213.614L207.18 213.587C207.318 213.843 207.433 214.111 207.525 214.389C207.58 214.58 207.974 215.127 207.903 215.404L207.84 215.657C207.76 215.971 207.443 215.969 207.196 216.042L207.158 216.053C207.011 215.672 206.991 215.251 207.1 214.854L207.166 214.419L207.154 214.386ZM169.031 191.238C169.099 191.463 169.045 191.574 168.91 191.484C168.549 191.277 168.171 191.104 167.78 190.967L167.562 191.148C167.25 191.407 166.9 191.086 166.575 191.099C166.253 191.079 165.935 191.024 165.625 190.935C165.31 190.897 164.998 190.835 164.692 190.749C164.175 190.524 163.589 190.517 163.062 190.732C162.863 190.83 162.739 190.942 162.525 190.688C162.354 190.486 162.224 190.522 162.076 190.673C162.037 190.713 161.801 190.524 161.702 190.549C161.603 190.575 161.537 190.841 161.511 190.829L160.994 190.586C160.493 190.703 159.925 190.821 159.728 190.85C159.532 190.878 158.381 190.694 157.612 190.589L156.92 190.71L156.397 190.801C155.772 190.674 155.227 190.691 155.183 190.84L155.124 190.84L154.999 190.838C154.68 190.766 154.348 190.781 154.035 190.881C153.653 190.982 152.47 191.373 152.227 191.473C151.772 191.696 151.34 191.969 150.94 192.287C150.706 192.513 151.088 193.597 151.141 193.729C151.263 193.963 151.455 194.15 151.688 194.263C151.896 194.317 152.651 194.79 153.109 195.015C153.568 195.24 155.103 195.946 155.523 196.062C156.513 196.273 157.513 196.431 158.52 196.538L159.236 196.933C159.277 196.955 159.35 196.868 159.414 196.871C159.709 196.888 160.13 197.049 160.28 196.911C160.625 196.605 160.878 197.158 161.164 197.064C161.21 197.048 161.323 197.153 161.357 197.134C161.855 196.843 162.494 197.11 163.033 197.01C163.587 196.908 164.103 196.709 164.679 196.644C165.167 196.588 165.648 196.469 166.11 196.291C166.53 196.129 166.998 196.091 167.418 195.907L167.797 195.743C168.175 195.688 168.545 195.584 168.899 195.433L168.888 195.358C168.823 194.906 168.962 194.847 169.369 195.1C169.428 195.135 169.641 194.943 169.723 194.814L169.789 194.713C169.944 194.473 170.121 194.248 170.317 194.041L170.715 193.974L171.013 193.928C171.25 193.659 171.528 193.432 171.836 193.256C172.01 193.189 171.963 192.55 172.064 192.419C172.164 192.288 171.211 191.969 170.597 191.9L170.046 191.669C169.812 191.572 169.585 191.446 169.347 191.36L169.031 191.238ZM83.8333 119.008C83.4653 118.829 83.2688 118.839 83.3909 119.022C83.5129 119.204 83.8029 119.761 83.9427 119.795C84.0825 119.828 84.5029 120.102 84.6599 120.128C84.8169 120.154 85.1761 120.713 85.4439 120.888C85.7117 121.063 86.6354 121.513 86.8893 121.735C87.1431 121.957 88.0536 122.073 88.1671 122.257L88.3191 122.363C88.4251 122.437 88.6129 122.348 88.7494 122.4C88.8259 122.431 88.8641 122.674 88.9334 122.693L89.2475 122.782C89.5724 122.831 89.8827 122.95 90.1581 123.131C90.7238 123.391 91.3096 123.602 91.9097 123.764L92.3724 124L92.8188 124.228C93.1358 124.153 93.4478 124.243 93.5106 124.429L93.6089 124.48L93.8331 124.598C94.1023 124.658 94.67 124.754 95.0945 124.811C95.5191 124.867 96.855 125.278 97.1269 125.327L97.3666 125.41L97.6001 125.493C97.7614 125.463 97.9248 125.447 98.0884 125.447L98.1118 125.429C98.1678 125.398 98.2558 125.359 98.2517 125.313L98.2507 125.223C98.1519 125.054 98.0368 124.895 97.9071 124.75C97.6142 124.427 97.2826 124.142 96.9203 123.904L96.6925 123.785L96.4129 123.638C96.0455 123.369 95.7068 123.062 95.4021 122.72L95.0525 122.528L94.7874 122.378C94.7866 122.097 94.7056 121.824 94.5544 121.593L94.4591 121.586L93.9765 121.556C93.6646 121.323 93.1991 120.959 92.9405 120.746L92.6871 120.595C92.4001 120.424 91.9973 120.342 92.2733 119.906C92.2824 119.891 92.0646 119.638 91.9913 119.644L91.6667 119.671C91.3353 119.747 91.045 119.723 91.0147 119.622C90.9844 119.521 90.9984 119.298 91.0975 119.338C91.1967 119.377 91.2589 119.357 90.8666 119.171C90.4742 118.985 89.4728 118.853 89.5553 118.706C89.6379 118.558 89.6133 118.216 89.3512 118.214C88.9544 118.228 88.5574 118.219 88.1622 118.186C88.008 118.14 87.5865 117.942 87.5516 118.043C87.5166 118.145 86.8068 118.098 86.423 118.068L86.1153 118.211C85.943 118.29 85.7063 118.432 85.5669 118.359C85.4742 118.29 85.3596 118.259 85.2452 118.272C85.1307 118.286 85.0244 118.342 84.9469 118.431C84.7391 118.597 84.3244 118.532 84.1381 118.711L83.8333 119.008Z" fill="#6FB2A5"/>
<path d="M33.9209 75.6767L33.9448 75.4165L33.9913 74.8992L33.0049 74.1524C32.8484 74.0348 32.3814 73.6422 32.4379 73.544C32.4665 73.4095 32.4622 73.27 32.4254 73.1382C32.3885 73.0064 32.3203 72.8864 32.2268 72.7893C32.1011 72.6172 32.0344 72.4065 32.0373 72.1901C32.0279 71.9933 32.0556 71.8511 32.1021 71.9515C32.2109 72.1982 32.3608 72.4229 32.5452 72.6155C32.615 72.6139 32.9055 72.476 32.8709 72.3144L32.7764 72.2154C32.4496 71.8796 32.6751 71.7298 32.8213 71.5114C32.945 71.3306 33.3246 71.4489 33.2704 71.0308L33.2405 70.8009C33.4771 70.506 33.7346 70.2297 34.011 69.9743C34.2397 69.7729 34.9766 70.357 35.1141 70.4548C35.2516 70.5527 35.7724 71.0145 36.0211 71.2115C36.2697 71.4085 36.9437 72.288 37.1838 72.4564C37.424 72.6249 38.0011 73.5101 38.2167 73.6808C38.4717 73.9561 38.753 74.2042 39.0562 74.4218C39.2556 74.5877 39.417 74.797 39.5291 75.0349C39.6809 75.2971 39.8562 75.5439 40.0527 75.7722C40.4407 76.182 41.7959 77.5865 42.181 78.0064C42.7082 78.6313 43.2009 79.2863 43.6569 79.9685L43.7973 80.0687L44.8071 80.7986C45.6829 81.8386 46.6317 82.9777 46.9185 83.3382L47.2013 83.6479C47.4969 83.8948 47.7432 84.1985 47.9267 84.5424L48.0286 84.7916C48.3556 85.0154 48.7916 85.3175 48.9999 85.4599C49.2082 85.6024 49.7263 86.3672 49.9423 86.513C50.1583 86.6588 50.6711 87.5036 50.9212 87.7734C51.3937 88.2161 51.8938 88.6264 52.4186 89.0016L52.4314 89.1455C52.4377 89.2192 52.4646 89.2892 52.5091 89.3469C52.5535 89.4045 52.6135 89.4474 52.6816 89.47C52.7554 89.4999 52.8204 89.5489 52.8702 89.6124C52.9933 89.8042 53.1332 89.9838 53.288 90.1492C53.4852 90.3524 53.7283 90.5154 53.9141 90.7257C53.9769 90.807 54.0289 90.8966 54.069 90.9921C54.1316 91.1244 54.1868 91.2487 54.2598 91.2726C54.7756 91.4226 54.8902 91.9645 55.2843 92.2212C55.5167 92.3827 55.7301 92.5715 55.9203 92.7837L56.0885 92.9587C56.2572 93.1866 56.4108 93.426 56.548 93.6756L56.742 93.8005C56.8684 93.8552 56.9803 93.9402 57.0681 94.0486C57.1559 94.1569 57.2171 94.2856 57.247 94.4238L57.2576 94.5068C57.6708 94.7004 58.0614 94.9411 58.422 95.2246C58.7114 95.5278 58.9536 95.8754 59.1405 96.2551C59.2551 96.4636 59.3352 96.6212 59.3473 96.6325C59.3797 96.6626 59.8296 97.1056 60.2791 97.5479C60.7285 97.9902 62.0599 99.3964 62.273 99.6551C62.4861 99.9138 63.1729 100.764 63.3258 100.964L63.4819 101.132C63.7401 101.41 64.1296 101.501 64.3431 101.884C64.4342 102.021 64.5511 102.138 64.6869 102.228C64.8836 102.347 65.033 102.533 65.1095 102.755L65.2162 103.18C65.6035 103.504 65.9711 103.853 66.3167 104.224C66.5539 104.491 67.6497 105.472 68.0783 105.921C68.5069 106.369 69.7466 107.649 69.8972 107.745C70.1167 107.942 70.3081 108.169 70.4663 108.421C70.549 108.567 71.301 108.938 71.7066 109.25C72.2159 109.825 72.688 110.434 73.1199 111.072L73.2979 111.231L74.8733 112.636C76.6072 114.177 78.2328 115.696 78.4848 116.011L78.899 115.977C78.9934 115.97 79.1791 116.152 79.2528 116.279C79.3567 116.461 79.2833 116.775 79.62 116.761L79.9969 116.747C80.3772 116.695 80.7261 116.498 80.9752 116.195L81.2817 116.164C81.3418 116.16 81.3413 115.974 81.3921 115.89L81.5171 115.681C81.6059 115.832 81.7475 115.942 81.9131 115.989L81.9472 115.942L82.0206 115.835C82.1734 115.613 82.3904 115.446 82.6402 115.358C82.9312 115.235 83.9458 115.231 84.1951 115.498L84.42 115.256C84.5178 115.16 84.6353 115.087 84.7636 115.045C84.8919 115.002 85.0277 114.989 85.1608 115.008L85.2521 115.008C85.4054 114.832 85.5407 114.64 85.6558 114.436L86.0137 114.558L86.112 114.591C86.2276 114.561 86.5575 114.505 86.8473 114.467C87.2913 114.538 87.7196 114.686 88.1141 114.906L88.2144 114.928L88.3218 114.953C88.5126 114.924 88.7006 114.879 88.8837 114.816C89.0782 114.75 89.58 114.756 89.6461 115.083L90.0035 114.746L90.1509 114.605C90.2456 114.585 90.3433 114.586 90.4371 114.609C90.531 114.631 90.6187 114.675 90.6942 114.736C91.0393 114.977 91.4127 115.172 91.8056 115.317C92.2541 115.495 93.6622 116.017 93.942 116.156C94.5208 116.497 95.0823 116.869 95.6245 117.268C96.0297 117.572 97.5937 118.469 98.0824 118.814L98.4097 119.268L98.612 119.549C98.9164 119.767 99.4384 120.187 99.7713 120.484L100.074 120.754C100.377 121.023 100.68 121.293 100.983 121.563C101.048 121.606 101.103 121.664 101.143 121.732C101.223 122.009 101.111 122.337 101.625 122.44C101.717 122.458 101.789 122.601 101.875 122.766C101.941 122.909 102.027 123.04 102.131 123.156C102.306 123.348 102.449 123.568 102.556 123.807C102.691 124.128 102.901 124.409 103.167 124.624C103.187 124.638 103.15 124.748 103.139 124.812C103.129 124.976 103.096 125.137 103.041 125.291L102.879 125.594C103.128 125.719 103.221 125.857 103.087 125.9L103.068 126.033C103.04 126.232 103.044 126.44 103.034 126.644L102.834 127.326L102.696 127.443C102.625 127.629 102.483 128.056 102.381 128.39L102.28 128.697C102.213 128.978 102.123 129.254 102.013 129.521C101.774 129.983 101.504 130.428 101.206 130.852L101.038 131.087C100.827 131.264 100.589 131.402 100.332 131.494C100.064 131.483 99.7971 131.444 99.5364 131.378C99.2371 131.337 98.9319 131.381 98.6533 131.505L98.4524 131.552C98.2198 131.609 97.9339 131.247 97.6873 131.526L97.5648 131.667C97.4595 131.474 97.3139 131.308 97.1382 131.181C96.8576 131.083 96.5705 131.004 96.2791 130.946L96.0781 130.862L95.8763 130.777C95.6448 130.633 95.3911 130.59 95.3118 130.684C95.2325 130.778 94.8685 130.986 94.7358 130.868C94.603 130.75 94.1994 130.456 94.2068 130.543C94.2142 130.629 94.1673 130.805 94.1012 130.811L94.0466 130.784C93.9756 130.745 93.9137 130.691 93.8653 130.625C93.453 130.056 92.9587 130.255 92.5003 130.246C92.1619 130.239 92.1177 130.248 92.1757 129.886L92.2434 129.472C92.0418 129.572 91.8453 129.582 91.8102 129.493C91.7751 129.405 91.5268 129.227 91.5117 129.308L91.5172 129.383L91.5499 129.8C91.2667 129.715 90.5413 129.492 89.9363 129.305L89.3885 129.125C89.2096 129.088 89.0424 129.007 88.9004 128.889C88.6224 128.625 88.2868 128.434 87.9215 128.331L87.6762 128.226C87.5587 128.074 87.4074 127.954 87.2351 127.876L87.1621 127.881C87.0691 127.887 86.9405 127.957 86.8975 127.917C86.4427 127.589 85.9528 127.316 85.4373 127.102L84.9903 126.849C84.5026 126.506 83.8063 126.041 83.441 125.817L83.118 125.693C82.845 125.585 82.6733 125.593 82.5827 125.238L82.5228 125.001C82.3939 124.978 82.2715 124.927 82.1643 124.851C82.057 124.774 81.9674 124.674 81.9018 124.558C81.8701 124.398 81.4311 124.454 81.3192 124.488C81.2073 124.523 80.8947 124.094 80.7035 123.904L80.4627 124.02L80.4062 124.048C80.2874 124.034 80.355 124.197 80.5471 124.415C80.8059 124.777 81.132 125.082 81.5068 125.313L81.5901 125.629C81.6597 125.916 81.7672 126.191 81.9097 126.447L82.042 126.67C82.2713 126.895 82.5418 127.07 82.8381 127.186C83.0614 127.255 83.8261 128.422 84.6053 129.117C85.3845 129.811 87.5622 131.752 87.6593 131.97C87.7563 132.188 88.4712 132.297 88.6313 132.356C88.7915 132.414 89.2994 133.154 89.6221 133.433L89.9686 133.621L90.3518 133.833C90.7895 134.16 91.2465 134.46 91.7203 134.729L91.8882 135.086L91.9667 135.253C91.9505 135.468 92.1048 135.488 92.3105 135.295L92.5658 135.679L92.8121 136.041C93.3012 136.35 93.764 136.701 94.1961 137.09L94.6915 137.155L94.8616 137.179C95.2006 137.637 95.5968 138.047 96.0404 138.397C96.4823 138.746 97.7927 139.358 97.7705 139.431C97.7669 139.495 97.7864 139.558 97.8253 139.608C97.8641 139.658 97.9194 139.691 97.9809 139.702C98.1351 139.725 98.6016 139.913 98.9238 139.964L98.9472 140.069C99.0522 140.544 99.433 140.637 99.7525 140.834L99.7918 140.858C99.9567 141.083 100.177 141.259 100.429 141.368C100.775 141.555 101.927 142.285 102.262 142.478C102.789 142.781 103.257 143.183 103.64 143.664L104.019 143.525C104.173 143.469 104.493 143.665 104.707 143.807C104.93 143.981 105.145 144.166 105.35 144.362C105.434 144.435 105.539 144.477 105.649 144.48C105.821 144.459 105.996 144.487 106.153 144.561C106.311 144.635 106.446 144.752 106.543 144.899L106.815 145.232C107.489 145.514 108.139 145.849 108.762 146.234C109.448 146.649 111.923 147.972 112.674 148.391L113.348 148.795C113.785 149.144 114.304 149.369 114.854 149.446C114.959 149.462 115.058 149.509 115.138 149.582C115.115 149.971 115.456 149.931 115.638 150.007C116.17 150.178 116.672 150.434 117.127 150.765L117.477 151.055C117.987 151.146 118.482 151.313 118.944 151.552C119.473 151.812 120.023 152.029 120.586 152.201C120.897 152.29 121.826 152.773 122.07 152.881C122.314 152.99 123.938 153.646 125.153 154.154L126.261 154.613C126.386 154.686 126.523 154.735 126.665 154.759L127.067 154.745C127.42 154.905 127.784 155.037 128.156 155.139C128.347 155.177 128.975 155.561 129.166 155.613L129.34 155.616C129.49 155.598 129.643 155.615 129.785 155.666C129.928 155.717 130.057 155.801 130.163 155.911C130.31 156.021 130.479 156.093 130.658 156.122C130.902 156.194 131.176 156.183 131.388 156.311L132.253 156.833C133.118 156.984 133.972 157.193 134.809 157.459C135.422 157.659 136.046 157.825 136.677 157.957C137.018 158.086 137.352 158.233 137.678 158.398C138.128 158.564 138.588 158.7 139.055 158.804L139.41 158.866C139.52 158.886 139.621 158.942 139.696 159.027L139.911 159.313C140.227 159.388 141.222 159.706 142.121 160.02L142.887 160.504C142.916 160.522 142.96 160.511 142.993 160.524L143.539 160.713C144.073 160.939 144.621 161.128 145.18 161.279C145.485 161.343 146.635 162.051 147.147 162.297C147.659 162.542 149.399 163.021 149.803 163.199C150.207 163.377 151.803 164.162 152.459 164.521L153.057 164.66L153.563 164.779C153.943 165.054 154.353 165.284 154.784 165.463C155.024 165.536 156.127 166.137 156.706 166.441L157.231 166.655C157.7 166.845 157.932 167.365 158.497 167.42C158.86 167.457 159.254 167.891 159.641 168.127C160.412 168.59 161.19 169.038 161.965 169.491L162.028 169.526C162.104 169.552 162.726 169.995 163.41 170.51L164.04 170.966C164.444 171.258 164.866 171.519 165.275 171.801C165.683 172.083 165.959 172.603 166.513 172.637C166.567 172.64 166.63 172.769 166.694 172.788C166.771 172.82 166.84 172.871 166.894 172.936C166.949 173.002 166.987 173.08 167.006 173.164C167.034 173.29 167.102 173.403 167.199 173.483C167.297 173.564 167.419 173.608 167.544 173.608L167.806 173.614C168.184 174.045 168.501 174.53 168.747 175.054L169.172 175.18L169.555 175.293C169.805 175.72 170.126 176.098 170.502 176.41L170.64 176.823C170.71 177.034 171.031 177.209 171.252 177.391L171.466 177.565C171.453 177.691 171.469 177.819 171.513 177.937C171.557 178.056 171.627 178.161 171.719 178.245L171.888 178.373C172.022 178.471 172.271 178.453 172.273 178.69C172.271 179.118 172.599 179.34 172.846 179.652C173.186 180.135 173.494 180.642 173.769 181.168L173.844 181.296C173.918 181.427 173.909 181.567 173.824 181.605C173.739 181.644 173.524 181.766 173.534 181.793C173.611 181.856 173.704 181.894 173.802 181.901C173.946 181.942 174.079 182.014 174.192 182.112C174.306 182.211 174.397 182.333 174.461 182.472L174.48 182.717L174.491 182.847C174.437 182.984 174.453 183.112 174.533 183.128C174.613 183.145 174.693 183.364 174.654 183.522C174.616 183.68 174.585 184.17 174.659 184.125C174.732 184.081 174.955 184.038 174.96 184.153C175.021 184.423 175.117 184.683 175.245 184.926L175.364 185.115C175.663 185.591 175.663 185.745 175.407 186.418L175.36 186.535C175.371 186.725 175.54 186.813 175.737 186.731L175.81 187L175.838 187.098C176.145 187.343 176.478 187.55 176.832 187.716L177.268 187.889L178.145 188.236C179.103 188.641 180.202 189.116 180.584 189.293C180.966 189.47 182.332 190.123 182.765 190.359C183.199 190.594 184.634 191.379 185.036 191.538C185.438 191.697 186.521 192.488 186.728 192.543L186.847 192.66L187.275 193.081C187.819 193.398 188.69 193.923 189.205 194.248C189.719 194.572 191.278 195.646 191.598 195.782L191.781 195.984L191.993 196.218C192.274 196.406 192.636 196.626 192.799 196.706C192.962 196.787 194.226 197.658 195.323 198.363L196.115 199.283L196.342 199.546C196.703 199.811 197.084 200.048 197.48 200.254L197.745 200.468C198.059 200.722 198.353 201.003 198.657 201.273L198.931 201.515C199.348 201.9 199.734 202.32 200.085 202.771L200.584 203.036L200.974 203.243C201.314 203.731 201.702 204.298 201.833 204.505C201.96 204.656 202.098 204.796 202.247 204.924C202.452 205.1 202.633 205.304 202.784 205.531L203.207 205.467L203.253 205.459C203.448 205.62 203.632 205.795 203.802 205.983C203.98 206.236 204.124 206.513 204.23 206.807C204.316 207.029 204.415 207.246 204.528 207.455L204.651 207.658L204.838 207.97C205.026 207.81 205.24 207.771 205.314 207.885C205.389 208 205.651 208.597 205.805 208.958L205.744 209.203L205.611 209.732C206.059 209.763 206.482 209.953 206.806 210.271L206.709 210.697C206.709 210.752 206.72 210.807 206.743 210.857C206.766 210.906 206.799 210.95 206.84 210.984C207.401 211.27 207.181 211.785 207.395 212.17C207.44 212.249 207.389 212.467 207.336 212.474C207.158 212.499 207.067 212.521 207.25 212.709C207.346 212.783 207.435 212.866 207.516 212.957C207.594 213.082 207.596 213.251 207.683 213.363C207.881 213.601 207.772 213.754 207.595 213.744L207.173 213.716C207.311 213.972 207.426 214.241 207.519 214.518C207.575 214.709 207.968 215.257 207.899 215.535L207.835 215.785C207.756 216.099 207.441 216.096 207.194 216.169L207.155 216.179C207.008 215.799 206.987 215.377 207.096 214.981L207.16 214.546L207.165 214.512C207.023 214.391 206.889 214.391 206.858 214.502C206.828 214.612 206.672 214.801 206.607 214.55C206.542 214.299 206.663 213.553 206.545 213.639C206.427 213.725 206.04 213.933 206.12 213.787C206.168 213.675 206.181 213.55 206.157 213.43C206.132 213.311 206.071 213.203 205.983 213.122C205.582 212.79 205.231 212.399 204.941 211.961L204.638 211.728C204.543 211.644 204.464 211.543 204.403 211.43C204.369 211.38 204.339 211.326 204.302 211.28C204.169 211.098 203.919 210.888 203.924 210.739C203.932 210.534 203.825 210.522 203.712 210.504C203.67 210.504 203.628 210.492 203.592 210.47C203.555 210.448 203.525 210.417 203.504 210.379L203.415 210.182C203.073 209.979 202.778 209.701 202.552 209.368L202.336 209.17C202.042 208.898 201.57 208.751 201.385 208.449L201.13 208.032C200.564 207.753 200.028 207.416 199.53 207.026L199.122 206.587C198.762 206.111 198.275 205.754 197.721 205.558C197.457 205.455 197.238 205.258 197.103 205.002C197.068 204.911 197.012 204.83 196.942 204.765C196.871 204.7 196.786 204.654 196.694 204.629C196.423 204.519 195.908 204.53 195.92 203.981C195.877 203.921 195.813 203.88 195.741 203.866C195.557 203.93 195.508 203.813 195.465 203.704C195.435 203.628 195.406 203.555 195.336 203.535C195.123 203.503 194.916 203.44 194.72 203.348L194.566 203.243C194.295 202.891 193.97 202.588 193.603 202.346C193.037 201.98 192.441 201.666 191.822 201.405L191.767 201.194C191.725 201.065 191.646 200.953 191.542 200.871C191.437 200.789 191.311 200.742 191.179 200.734C190.866 200.632 190.567 200.488 190.289 200.307C189.977 200.187 189.688 200.011 189.436 199.787C189.206 199.506 188.815 199.584 188.667 199.243C188.652 199.206 188.661 199.141 188.646 199.134C188.304 198.987 187.876 199.101 187.635 198.641L186.687 197.964L186.309 197.85C185.711 197.629 185.135 197.35 184.589 197.017L184.119 196.696C183.921 196.567 183.766 196.329 183.578 196.606C183.56 196.633 183.32 196.556 183.304 196.509L183.084 195.849C182.616 195.845 182.149 195.789 181.693 195.683C181.306 195.557 180.909 195.469 180.506 195.42C180.291 195.424 179.641 194.698 179.254 194.463C178.451 194.261 177.634 194.124 176.81 194.053L176.374 193.625L176.136 193.391C175.661 193.272 175.28 193.661 175.289 194.257L175.162 194.699C175.043 195.2 174.884 195.69 174.688 196.164C174.322 197.224 173.735 198.19 172.968 198.992L172.433 199.439C171.896 199.982 171.22 200.619 170.93 200.857L170.752 201.198C170.521 201.509 170.216 201.754 169.866 201.907L169.546 202.101C169.153 202.257 168.697 202.432 168.529 202.488C168.236 202.599 167.952 202.737 167.682 202.899C167.544 203 166.953 202.872 166.857 202.902L166.775 202.942L166.205 203.228C165.321 203.331 164.432 203.376 163.543 203.362L163.118 203.56C162.802 203.711 162.475 203.387 162.178 203.624C162.021 203.75 161.569 203.53 161.253 203.479C161.107 203.453 160.957 203.449 160.809 203.467C160.648 203.494 160.505 203.605 160.347 203.591C160.306 203.587 160.298 203.529 160.287 203.464C160.269 203.365 160.238 203.246 160.056 203.284C159.873 203.322 159.652 202.908 159.505 203.238L158.147 203.083L157.589 202.983C156.99 202.775 156.026 202.473 155.443 202.309L154.921 202.233C154.63 202.181 154.352 202.067 154.107 201.898C153.684 201.69 153.247 201.514 152.8 201.37C152.43 201.213 152.006 201.124 151.826 200.652C151.802 200.589 151.71 200.543 151.65 200.488L151.271 200.151C150.713 199.81 150.21 199.381 149.78 198.88L149.432 198.52L149.083 198.157C148.766 197.778 148.43 197.416 148.076 197.073C147.822 196.608 147.597 196.127 147.401 195.633C147.02 194.682 146.74 193.691 146.567 192.677L146.809 192.292L147.009 191.979C146.967 191.543 146.984 191.103 147.061 190.672L147.136 190.355C147.217 190.007 147.322 189.665 147.417 189.325C147.446 189.232 147.541 189.143 147.519 189.059C147.431 188.86 147.353 188.655 147.286 188.446C147.259 188.258 147.656 188.331 147.549 187.993C147.496 187.83 147.652 187.627 147.732 187.46C147.904 187.03 148.127 186.622 148.394 186.247L148.727 185.861C149.179 185.511 150.16 184.858 150.908 184.413L151.584 184.008L152.081 183.71C152.776 183.669 153.468 183.585 154.154 183.458L154.61 183.591L155.003 183.706C155.506 183.594 156.021 183.558 156.531 183.6C157.15 183.65 157.771 183.667 158.392 183.653C158.668 183.635 159.404 183.731 159.426 183.55C159.448 183.37 160.167 183.823 160.537 183.916C160.908 184.01 162.985 183.8 164.509 183.997L165.896 184.27C167.611 184.608 169.325 185.042 171.038 185.446L171.345 185.52C171.68 185.659 171.724 185.244 171.441 184.591C170.758 183.315 170.002 182.085 169.175 180.905L168.642 180.219L168.332 179.82C167.936 179.534 167.578 179.196 167.266 178.815C167.124 178.596 166.393 178.082 166.249 177.906L166.16 177.724C166.111 177.623 166.018 177.618 165.925 177.615C165.806 177.61 165.689 177.608 165.669 177.411C165.661 177.383 165.647 177.357 165.628 177.335C165.61 177.313 165.587 177.294 165.562 177.281C165.429 177.226 164.388 176.545 164.271 176.453C164.179 176.38 164.036 176.368 163.958 176.289C163.548 175.873 162.747 175.941 162.634 175.145L162.628 175.1C162.478 175.041 161.938 174.766 161.434 174.482C160.931 174.198 159.516 173.589 159.383 173.919L159.26 173.294L159.185 172.918C158.886 172.8 158.319 172.542 157.92 172.352C157.521 172.161 156.109 171.545 155.714 171.288L155.356 171.23C155.26 171.211 155.171 171.165 155.098 171.097C155.026 171.029 154.973 170.942 154.945 170.845C154.92 170.779 154.909 170.735 154.899 170.741L154.171 171.185C153.481 170.633 152.87 170.142 152.815 170.092C152.704 169.966 152.602 169.832 152.51 169.691C152.435 169.581 151.771 169.704 151.53 169.466C150.896 169.087 150.219 168.787 149.515 168.573L149.052 168.36C148.689 168.268 148.35 168.095 148.059 167.853C147.94 167.724 147.645 167.775 147.444 167.691L147.332 167.644C147.233 167.498 146.929 167.491 146.659 167.617L146.561 167.109C146.551 167.06 146.103 167.061 145.887 166.956L145.711 166.869C145.477 166.659 145.215 166.486 144.933 166.355L144.697 166.44C144.638 166.459 144.576 166.466 144.515 166.459C144.454 166.452 144.395 166.432 144.342 166.4C144.036 166.093 143.544 165.677 143.258 165.735L142.658 165.856C142.206 165.639 141.743 165.446 141.272 165.278L141.16 165.192C140.923 165.004 140.714 164.71 140.434 165.004C140.412 165.02 140.233 164.918 140.155 164.842C139.839 164.54 139.556 164.395 139.199 164.643C139.072 164.729 139.04 164.61 139.024 164.513C139.015 164.46 139.01 164.411 139.002 164.417L138.626 164.394C138.216 164.273 137.385 164.004 136.772 163.805L136.278 163.517L135.834 163.26C135.34 163.132 134.538 162.897 134.057 162.734L133.606 162.658C133.529 162.626 133.467 162.565 133.432 162.487C133.335 162.345 133.238 162.203 133.048 162.453C132.993 162.523 132.597 162.308 132.36 162.224L132.082 162.127C131.684 161.924 131.27 161.759 130.844 161.631C130.439 161.517 128.931 160.992 128.332 160.855C127.496 160.508 126.681 160.113 125.889 159.671C125.479 159.568 125.075 159.441 124.679 159.292C124.47 159.173 123.665 158.98 123.471 158.874C123.213 158.643 122.982 158.381 122.784 158.094C122.709 158.002 122.578 157.942 122.767 158.289L122.461 158.496C122.267 158.626 122.151 158.59 122.024 158.399C121.942 158.278 121.877 158.014 121.851 158.014L120.855 158.063C120.465 157.595 120.047 157.152 119.603 156.738C119.661 156.84 119.591 157.007 119.338 156.913C118.818 156.7 118.314 156.449 117.829 156.162L117.546 156.137L117.232 156.11C116.736 155.784 116.191 155.545 115.618 155.404L115.132 154.969L114.79 154.664C114.621 154.666 114.454 154.627 114.303 154.551C114.151 154.475 114.019 154.364 113.916 154.227C113.819 154.007 113.333 153.727 113.202 154.014L112.752 153.704C112.552 153.571 112.332 153.531 112.268 153.255L112.259 153.214C112.16 153.173 111.5 152.984 110.789 152.789L110.406 152.387C110.321 152.291 110.246 152.186 110.182 152.073C110.105 151.923 109.997 151.792 109.866 151.689C109.633 151.537 109.313 151.559 109.033 151.487C108.752 151.426 108.476 151.343 108.208 151.238L108.02 151.158C107.843 150.928 107.71 150.665 107.629 150.383L107.385 150.638C107.354 150.671 107.073 150.483 106.925 150.37L106.464 150.024C106.084 149.76 105.741 149.443 105.444 149.084C105.439 148.955 105.418 148.829 105.38 148.707C105.345 148.71 105.311 148.723 105.282 148.744C105.253 148.765 105.23 148.794 105.215 148.827C105.178 148.913 105.005 149.161 104.942 149.129C104.796 148.896 104.688 148.639 104.622 148.369L104.258 148.685C104.134 148.644 104.026 148.564 103.948 148.457C103.933 148.143 103.711 148.27 103.587 148.189C103.535 148.136 103.502 148.066 103.492 147.992C103.478 147.923 103.45 147.858 103.41 147.801L103.32 147.694C103.168 147.631 102.855 147.524 102.625 147.457C102.096 147.265 101.598 146.994 101.146 146.652L100.747 146.575C100.558 146.552 100.38 146.471 100.236 146.345C100.091 146.218 99.9861 146.05 99.9333 145.861C99.9196 145.836 99.901 145.814 99.8787 145.796C99.8564 145.779 99.8309 145.766 99.8037 145.759L99.0807 145.851C98.6933 145.239 98.4635 144.795 98.5668 144.862C98.6702 144.929 98.9727 145.027 98.8272 144.817L98.8275 144.705C98.824 144.363 98.5711 144.535 98.4646 144.445C98.2738 144.29 98.1442 144.413 98.0188 144.392L97.6663 144.335C97.1452 144.071 96.9335 143.845 97.1954 143.832L97.2742 143.774L97.3392 143.727C97.3347 143.644 97.3097 143.564 97.2665 143.494C97.2233 143.424 97.1633 143.366 97.0923 143.327L97.0161 143.358L96.4386 143.584C95.9796 143.231 95.4484 142.834 95.25 142.704L95.1917 142.598L94.9809 142.215C94.6531 142.037 94.315 141.878 93.9684 141.742C93.7807 141.679 93.4612 141.131 93.3383 141.063C93.1651 140.914 92.9835 140.776 92.7947 140.649C92.7009 140.638 92.3635 140.508 92.3155 140.383C92.2002 140.132 92.0366 139.909 91.8348 139.726C91.37 139.501 90.8902 139.31 90.3989 139.155L90.1781 138.881L89.7045 138.298C89.0432 137.995 88.4427 137.568 87.9329 137.04L87.6228 136.707L87.4467 136.518C87.1354 136.356 86.8536 136.14 86.6131 135.88C86.1674 135.524 85.6804 135.226 85.163 134.993L85.0782 134.677L84.9886 134.342C84.7893 134.205 84.5733 134.096 84.3461 134.017L84.3372 133.991C84.1584 133.593 83.8711 133.258 83.5101 133.027C83.2478 132.844 83.0169 132.617 82.8264 132.356L82.6872 132.139C82.5959 131.862 82.4291 131.63 82.3184 131.624C81.9632 131.48 81.6648 131.219 81.4686 130.881C81.277 130.487 80.0641 128.941 79.4365 128.055L78.9022 127.244C78.6848 126.914 78.5292 126.536 78.298 126.186L78.0446 125.795C77.9495 125.27 77.8369 124.639 77.7965 124.392C77.7371 124.053 77.698 123.71 77.6796 123.365C77.6988 123.291 77.9294 123.071 77.9773 122.975C78.0253 122.879 77.6829 122.382 77.5846 122.249L77.6087 122.22L77.8403 121.939C77.7512 121.763 77.6265 121.608 77.4745 121.486C77.3226 121.364 77.1469 121.276 76.959 121.23C76.7062 121.179 76.332 120.63 76.1029 120.278C76.0449 120.185 75.9817 120.095 75.9133 120.009C75.5918 119.785 75.3128 119.502 75.0902 119.174L74.6767 119.152L74.6174 119.148C74.546 119.088 74.3119 118.93 74.0948 118.794C73.8037 118.536 73.5394 118.247 73.306 117.933C73.253 117.853 73.2047 117.77 73.1614 117.684C73.118 117.593 73.0667 117.506 73.0083 117.425C72.9417 117.356 72.2 116.736 71.5483 116.194L71.0036 115.65C70.8761 115.464 70.7086 115.312 70.5139 115.205C70.226 115.077 69.9924 114.847 69.8547 114.557L69.7537 114.248C69.5324 114.074 69.1861 113.785 68.9881 113.604L68.8117 113.436C68.6427 113.273 68.342 113.067 68.3462 112.935L68.3607 112.575C68.1143 112.569 67.8686 112.544 67.626 112.501C67.5182 112.479 67.3834 112.188 67.2515 111.903C67.1828 111.74 67.1028 111.584 67.0121 111.434L66.7924 111.228L66.5901 111.04C66.355 110.899 66.1318 110.738 65.9229 110.558C65.8048 110.444 65.3445 109.917 65.12 109.661L64.9172 109.427L64.6666 109.137C64.4022 108.81 64.0788 108.414 63.9477 108.257C63.646 107.983 63.3235 107.734 62.9833 107.512C62.7702 107.375 62.2174 106.748 61.8877 106.491C61.5581 106.235 60.6559 104.815 60.057 104.282L59.6947 103.674C59.6526 103.612 59.5987 103.558 59.5361 103.518C59.4736 103.477 59.4036 103.45 59.3304 103.437C59.2409 103.429 59.1559 103.394 59.0855 103.337C59.0152 103.28 58.9625 103.203 58.9337 103.116L58.8544 102.853C58.6846 102.613 58.4619 102.417 58.2044 102.283L58.0823 102.206C57.8348 102.051 57.4601 101.919 57.7482 101.555C57.7628 101.544 57.5548 101.271 57.4854 101.27L57.0739 101.276C56.8471 100.967 56.6439 100.64 56.4664 100.297C56.353 100.152 56.2095 100.035 56.0463 99.9555C55.9006 99.885 55.7695 99.7865 55.6598 99.6653C55.5981 99.5168 55.2985 99.0235 55.177 99.0102C55.0555 98.9969 54.7771 98.8764 54.923 98.778C55.0689 98.6795 54.411 98.3466 54.2394 98.1796L54.0788 98.0203L53.5946 97.543C53.0986 97.1082 52.7282 96.541 52.5231 95.9026L52.0859 95.9358C52.0362 95.9463 51.9851 95.9457 51.9358 95.9341C51.8865 95.9225 51.8402 95.9002 51.8001 95.8687C51.76 95.8371 51.727 95.797 51.7032 95.751C51.6795 95.7051 51.6656 95.6543 51.6625 95.6022C51.6448 95.5014 51.597 95.4091 51.5256 95.3383C51.3923 95.2615 51.2763 95.1567 51.185 95.0305C51.0937 94.9044 51.0291 94.7597 50.9954 94.6058L50.9932 94.556C50.8512 94.4811 50.693 94.4444 50.5331 94.4493C50.3734 94.4538 49.9515 93.7632 49.7338 93.509L49.5192 93.2838C49.3083 93.0605 48.9768 92.9182 48.9869 92.5529C48.9538 92.4809 48.8948 92.4252 48.8223 92.3976L48.2215 92.5893C48.0055 92.1772 47.8224 91.7475 47.6742 91.3042C47.3091 90.9084 46.9144 90.5429 46.4937 90.2109L46.4388 89.9489C46.4313 89.867 46.3959 89.7909 46.3389 89.7339C46.2819 89.6769 46.207 89.6427 46.1275 89.6375C46.0834 89.6364 46.0403 89.6255 46.0008 89.6056C45.9613 89.5858 45.9264 89.5574 45.8986 89.5224C45.7632 89.301 45.5863 88.903 45.4756 88.9008C45.3845 88.898 45.2967 88.8663 45.2241 88.8102C45.1516 88.754 45.0977 88.676 45.0698 88.5868C45.0334 88.4934 44.9735 88.412 44.8961 88.3508C44.6899 88.1842 44.5298 87.9645 44.4318 87.7136L44.3203 87.5062C43.8856 87.1742 43.4759 86.8089 43.0949 86.4132C42.7206 86.0236 41.6537 84.8598 41.5578 84.6981C41.4891 84.5982 41.413 84.5041 41.3301 84.4164C41.2324 84.3163 41.1465 84.2047 41.0742 84.0838C40.874 83.8811 40.6483 83.7069 40.403 83.5659C40.1298 83.2347 39.9306 82.8452 39.8196 82.4246L39.2962 82.5297L39.2737 82.5338C39.0152 82.0867 38.7233 81.6612 38.4004 81.2614C38.0449 80.8145 36.9171 79.534 36.7971 79.3272C36.622 79.1094 36.4235 78.9129 36.2053 78.7414C36.0969 78.6335 35.666 78.1465 35.4622 77.8743L35.3917 77.6101C35.2896 77.237 35.2904 76.9176 34.7449 76.8507L34.5418 76.8264C34.4889 76.7631 34.4351 76.6904 34.3796 76.6089C34.1818 76.3242 34.0271 76.01 33.9209 75.6767V75.6767ZM89.3579 118.158C88.9617 118.172 88.5652 118.162 88.1705 118.128C88.017 118.082 87.5952 117.883 87.561 117.985C87.5268 118.087 86.8183 118.037 86.4343 118.007L86.127 118.15C85.9551 118.229 85.7197 118.369 85.5802 118.297C85.4875 118.228 85.373 118.197 85.2588 118.21C85.1445 118.223 85.0386 118.28 84.9614 118.368C84.7554 118.534 84.3397 118.469 84.154 118.646L83.8402 118.946C83.4717 118.767 83.2766 118.777 83.3983 118.959C83.52 119.141 83.8115 119.699 83.9502 119.731C84.0888 119.763 84.5102 120.039 84.667 120.066C84.8238 120.093 85.1831 120.651 85.4514 120.827C85.7196 121.003 86.6422 121.454 86.8961 121.676C87.1499 121.899 88.0593 122.016 88.1737 122.2L88.3252 122.305C88.4319 122.379 88.6186 122.291 88.755 122.344C88.7925 122.359 88.8224 122.426 88.8518 122.497C88.8811 122.567 88.9065 122.63 88.9406 122.64L89.2556 122.729C89.5801 122.779 89.8902 122.898 90.1656 123.08C90.7309 123.341 91.3162 123.553 91.9158 123.716L92.3784 123.952L92.8244 124.181C93.1409 124.107 93.4526 124.198 93.5151 124.383L93.6142 124.434L93.8377 124.551C94.1071 124.613 94.6742 124.71 95.0977 124.766C95.5213 124.822 96.8573 125.237 97.1291 125.285L97.369 125.37L97.6022 125.453C97.7637 125.423 97.9273 125.408 98.0911 125.407L98.1145 125.39C98.1709 125.359 98.2586 125.32 98.2538 125.274L98.2521 125.185C98.1532 125.015 98.038 124.857 97.9082 124.712C97.615 124.388 97.2833 124.103 96.921 123.865L96.6936 123.745L96.4133 123.598C96.0457 123.329 95.7067 123.021 95.4017 122.679L95.0557 122.484L94.7908 122.333C94.7895 122.053 94.708 121.78 94.5568 121.548L94.4609 121.542L93.9789 121.511C93.6677 121.276 93.201 120.912 92.9436 120.699L92.691 120.547C92.4041 120.376 92.0018 120.293 92.2766 119.858C92.2864 119.842 92.0677 119.589 91.9947 119.594L91.6706 119.62C91.3398 119.696 91.0495 119.67 91.0196 119.57C90.9896 119.47 91.0026 119.247 91.1017 119.286C91.2007 119.326 91.2629 119.305 90.8708 119.119C90.4786 118.933 89.4783 118.799 89.5612 118.651C89.5911 118.589 89.6055 118.521 89.6028 118.452C89.6002 118.384 89.5806 118.317 89.546 118.258C89.5248 118.227 89.4963 118.201 89.463 118.184C89.4297 118.166 89.3927 118.158 89.3553 118.159L89.3579 118.158ZM170.631 191.958L170.078 191.727C169.845 191.629 169.619 191.502 169.38 191.416L169.049 191.299C169.118 191.524 169.065 191.634 168.929 191.545C168.569 191.337 168.191 191.164 167.8 191.026L167.582 191.206C167.271 191.465 166.921 191.143 166.597 191.156C166.275 191.135 165.957 191.08 165.647 190.991C165.332 190.952 165.02 190.889 164.714 190.802C164.198 190.576 163.614 190.568 163.088 190.781C162.887 190.878 162.765 190.991 162.551 190.737C162.38 190.534 162.25 190.571 162.103 190.72C162.064 190.76 161.828 190.572 161.729 190.597C161.631 190.622 161.566 190.887 161.539 190.875L161.022 190.632C160.523 190.749 159.954 190.866 159.759 190.893C159.563 190.921 158.414 190.735 157.646 190.628L156.955 190.748L156.433 190.838C155.809 190.711 155.265 190.726 155.221 190.875L155.162 190.873L155.037 190.872C154.719 190.8 154.387 190.814 154.074 190.914C153.694 191.013 152.514 191.403 152.27 191.502C151.816 191.724 151.385 191.996 150.987 192.313C150.754 192.54 151.137 193.623 151.189 193.755C151.312 193.988 151.504 194.175 151.737 194.289C151.946 194.343 152.699 194.818 153.158 195.043C153.617 195.268 155.15 195.978 155.57 196.094C156.559 196.306 157.558 196.467 158.564 196.575L159.28 196.971C159.321 196.994 159.393 196.908 159.457 196.91C159.753 196.926 160.173 197.089 160.322 196.951C160.666 196.645 160.921 197.198 161.205 197.106C161.251 197.09 161.364 197.196 161.398 197.176C161.896 196.886 162.534 197.154 163.071 197.056C163.625 196.954 164.14 196.757 164.714 196.692C165.202 196.637 165.682 196.519 166.143 196.343C166.561 196.182 167.028 196.145 167.447 195.962L167.825 195.799C168.204 195.744 168.575 195.639 168.929 195.488L168.918 195.413C168.852 194.961 168.991 194.902 169.399 195.156C169.456 195.192 169.67 195 169.751 194.872L169.817 194.771C169.972 194.532 170.148 194.307 170.344 194.101L170.742 194.035L171.039 193.99C171.275 193.721 171.552 193.495 171.86 193.32C172.033 193.254 171.986 192.614 172.086 192.484C172.097 192.469 172.095 192.452 172.083 192.435C171.638 192.17 171.141 192.008 170.628 191.959L170.631 191.958Z" fill="#FE6711"/>
</svg>
