<svg width="242" height="284" viewBox="0 0 242 284" fill="none" xmlns="http://www.w3.org/2000/svg">
<path d="M207.274 212.824C207.132 212.704 206.997 212.703 206.968 212.814C206.939 212.924 206.781 213.111 206.717 212.862C206.652 212.613 206.773 211.874 206.655 211.959C206.537 212.044 206.149 212.249 206.229 212.106C206.277 211.995 206.29 211.871 206.265 211.753C206.241 211.635 206.18 211.528 206.092 211.448C205.691 211.119 205.34 210.732 205.049 210.298L204.747 210.067C204.616 209.934 204.503 209.785 204.412 209.621C204.279 209.44 204.029 209.232 204.035 209.084C204.049 208.734 203.719 208.953 203.612 208.724L203.521 208.529C203.179 208.328 202.885 208.053 202.658 207.723L202.442 207.528C202.147 207.258 201.675 207.112 201.49 206.815L201.236 206.401C200.67 206.124 200.134 205.79 199.635 205.404L199.227 204.97C198.867 204.499 198.38 204.145 197.826 203.952C197.562 203.849 197.342 203.654 197.207 203.401C197.172 203.311 197.117 203.23 197.046 203.166C196.975 203.102 196.89 203.055 196.798 203.031C196.526 202.921 196.012 202.933 196.024 202.389C195.981 202.329 195.917 202.288 195.845 202.275C195.539 202.384 195.614 201.998 195.439 201.947C195.226 201.915 195.019 201.853 194.823 201.761L194.669 201.658C194.398 201.309 194.072 201.009 193.705 200.768C193.138 200.407 192.542 200.095 191.923 199.838L191.868 199.628C191.825 199.501 191.746 199.39 191.642 199.309C191.537 199.228 191.41 199.18 191.279 199.173C190.965 199.072 190.666 198.929 190.389 198.749C190.077 198.631 189.788 198.457 189.535 198.235C189.306 197.957 188.914 198.034 188.766 197.695C188.751 197.661 188.759 197.595 188.745 197.589C188.402 197.443 187.974 197.556 187.733 197.1L186.785 196.43L186.406 196.318C185.808 196.098 185.232 195.822 184.685 195.493L184.214 195.175C184.017 195.047 183.86 194.811 183.675 195.085C183.655 195.112 183.416 195.036 183.4 194.989L183.18 194.335C182.711 194.331 182.244 194.275 181.787 194.17C181.401 194.045 181.004 193.958 180.601 193.908C180.385 193.913 179.734 193.195 179.347 192.961C178.545 192.761 177.727 192.625 176.903 192.555L176.466 192.131L176.227 191.9C175.753 191.781 175.372 192.166 175.381 192.756L175.254 193.195C175.134 193.69 174.976 194.175 174.779 194.645C174.414 195.695 173.827 196.651 173.059 197.446L172.525 197.888C171.988 198.425 171.311 199.056 171.022 199.293L170.844 199.63C170.612 199.938 170.307 200.18 169.958 200.333L169.638 200.525C169.245 200.679 168.788 200.853 168.62 200.909C168.326 201.018 168.043 201.155 167.773 201.315C167.635 201.415 167.043 201.288 166.947 201.318L166.866 201.358L166.296 201.641C165.412 201.743 164.523 201.787 163.634 201.774L163.209 201.97C162.893 202.119 162.564 201.799 162.269 202.033C162.111 202.157 161.659 201.94 161.344 201.889C161.198 201.865 161.049 201.862 160.902 201.882C160.74 201.907 160.597 202.017 160.439 202.004C160.336 201.995 160.447 201.639 160.149 201.699C159.972 201.735 159.747 201.33 159.598 201.653L158.24 201.498L157.682 201.398C157.083 201.192 156.118 200.893 155.534 200.731L155.013 200.655C154.721 200.604 154.443 200.491 154.197 200.323C153.774 200.118 153.337 199.943 152.89 199.8C152.52 199.645 152.095 199.557 151.915 199.09C151.891 199.028 151.798 198.982 151.738 198.928L151.36 198.594C150.801 198.256 150.297 197.832 149.867 197.336L149.52 196.98L149.165 196.624C148.848 196.248 148.512 195.889 148.158 195.548C147.905 195.088 147.678 194.612 147.482 194.123C147.101 193.182 146.821 192.2 146.646 191.196L146.889 190.815L147.089 190.503C147.046 190.073 147.064 189.637 147.141 189.21L147.215 188.896C147.297 188.551 147.401 188.214 147.497 187.877C147.524 187.784 147.62 187.696 147.599 187.613C147.51 187.415 147.431 187.213 147.364 187.006C147.337 186.82 147.735 186.892 147.627 186.557C147.575 186.395 147.73 186.194 147.811 186.029C147.983 185.604 148.205 185.201 148.472 184.829L148.805 184.447C149.257 184.101 150.238 183.455 150.986 183.013L151.663 182.613L152.16 182.318C152.856 182.278 153.548 182.195 154.234 182.069L154.691 182.201L155.085 182.315C155.587 182.203 156.102 182.168 156.613 182.21C157.232 182.26 157.853 182.277 158.475 182.262C158.75 182.245 159.487 182.34 159.509 182.161C159.531 181.982 160.25 182.432 160.621 182.524C160.993 182.616 163.07 182.409 164.595 182.604L165.983 182.874C167.698 183.209 169.413 183.639 171.126 184.04L171.434 184.113C171.769 184.252 171.813 183.84 171.53 183.193C170.847 181.93 170.09 180.711 169.262 179.543L168.728 178.864L168.418 178.47C168.023 178.185 167.664 177.851 167.352 177.473C167.21 177.255 166.479 176.747 166.335 176.573L166.246 176.393C166.134 176.165 165.79 176.432 165.755 176.082C165.737 176.026 165.699 175.98 165.647 175.953C165.514 175.898 164.474 175.224 164.356 175.132C164.264 175.06 164.121 175.049 164.043 174.97C163.633 174.558 162.832 174.625 162.718 173.837L162.711 173.792C162.561 173.733 162.021 173.461 161.517 173.18C161.013 172.9 159.598 172.295 159.465 172.623L159.341 172.003L159.267 171.631C158.968 171.514 158.4 171.259 158.001 171.07C157.603 170.881 156.189 170.271 155.793 170.017L155.435 169.958C155.047 169.894 155.008 169.455 154.978 169.473L154.249 169.914C153.559 169.367 152.948 168.88 152.893 168.831C152.782 168.706 152.679 168.573 152.586 168.433C152.512 168.325 151.848 168.447 151.607 168.211C150.972 167.836 150.295 167.538 149.591 167.326L149.127 167.116C148.763 167.024 148.424 166.853 148.133 166.614C148.015 166.487 147.718 166.538 147.518 166.454L147.406 166.407C147.307 166.264 147.002 166.255 146.733 166.381L146.634 165.878C146.625 165.83 146.178 165.829 145.96 165.726L145.784 165.641C145.551 165.433 145.289 165.261 145.006 165.132L144.77 165.215C144.712 165.235 144.65 165.242 144.588 165.235C144.527 165.228 144.468 165.208 144.415 165.176C144.11 164.873 143.616 164.46 143.33 164.518L142.731 164.638C142.279 164.423 141.816 164.231 141.344 164.065L141.232 163.98C140.996 163.795 140.786 163.503 140.506 163.793C140.487 163.812 140.307 163.708 140.227 163.633C139.912 163.333 139.628 163.19 139.271 163.436C139.075 163.569 139.106 163.211 139.071 163.209L138.695 163.186C138.285 163.065 137.453 162.801 136.84 162.601L136.345 162.316L135.902 162.062C135.407 161.936 134.605 161.702 134.12 161.543L133.669 161.468C133.475 161.437 133.415 160.876 133.111 161.266C133.057 161.334 132.661 161.122 132.423 161.039L132.144 160.942C131.747 160.742 131.332 160.577 130.906 160.451C130.5 160.338 128.992 159.818 128.393 159.682C127.556 159.339 126.74 158.948 125.948 158.51C125.538 158.407 125.134 158.282 124.737 158.133C124.529 158.016 123.723 157.824 123.528 157.719C123.27 157.49 123.039 157.231 122.841 156.947C122.767 156.856 122.631 156.799 122.823 157.14L122.517 157.346C122.324 157.474 122.208 157.439 122.08 157.25C121.997 157.13 121.932 156.867 121.906 156.869L120.912 156.921C120.522 156.457 120.104 156.018 119.66 155.608C119.718 155.708 119.648 155.874 119.395 155.781C118.875 155.57 118.37 155.322 117.885 155.038L117.603 155.013L117.288 154.985C116.792 154.663 116.246 154.427 115.674 154.286L115.186 153.855L114.844 153.553C114.675 153.555 114.509 153.516 114.357 153.441C114.206 153.366 114.073 153.256 113.971 153.12C113.873 152.902 113.386 152.625 113.255 152.909L112.805 152.602C112.609 152.469 112.385 152.432 112.321 152.158L112.311 152.118C112.213 152.078 111.552 151.89 110.841 151.697L110.458 151.299C110.254 151.089 110.142 150.752 109.918 150.607C109.694 150.463 109.366 150.477 109.085 150.407C108.804 150.347 108.528 150.264 108.26 150.16L108.072 150.081C107.894 149.853 107.761 149.593 107.681 149.313L107.436 149.566C107.405 149.599 107.124 149.412 106.976 149.301L106.514 148.958C106.134 148.696 105.791 148.382 105.494 148.026C105.489 147.899 105.468 147.773 105.429 147.653C105.394 147.656 105.361 147.669 105.332 147.689C105.303 147.71 105.28 147.738 105.265 147.771C105.228 147.855 105.056 148.102 104.992 148.069C104.846 147.838 104.738 147.584 104.672 147.317L104.307 147.63C104.183 147.589 104.074 147.511 103.996 147.404C103.981 147.092 103.763 147.217 103.636 147.139C103.543 147.082 103.553 146.859 103.459 146.755L103.368 146.65C103.215 146.587 102.903 146.481 102.672 146.414C102.143 146.224 101.644 145.955 101.193 145.617L100.793 145.54C100.604 145.517 100.427 145.437 100.282 145.311C100.137 145.186 100.032 145.02 99.9793 144.833C99.9659 144.808 99.9474 144.785 99.9252 144.768C99.9029 144.75 99.8772 144.737 99.8498 144.73L99.1271 144.823C98.74 144.215 98.5094 143.777 98.6128 143.843C98.7161 143.909 99.0194 144.007 98.8733 143.798L98.8735 143.687C98.8706 143.348 98.6182 143.519 98.5096 143.431C98.3187 143.277 98.1904 143.398 98.0637 143.378L97.7115 143.322C97.1901 143.06 96.9783 142.836 97.2403 142.824L97.3191 142.767L97.3867 142.724C97.3823 142.641 97.3572 142.561 97.3138 142.492C97.2705 142.423 97.2103 142.366 97.1391 142.327L97.0624 142.357L96.4834 142.581C96.0247 142.231 95.4926 141.837 95.2941 141.709L95.2351 141.604L95.0241 141.225C94.6963 141.048 94.3579 140.891 94.011 140.756C93.8228 140.693 93.5042 140.151 93.3801 140.083C93.2071 139.936 93.0257 139.799 92.8366 139.674C92.7428 139.663 92.4052 139.534 92.3572 139.41C92.2415 139.162 92.0779 138.941 91.8762 138.76C91.4113 138.537 90.9317 138.348 90.4408 138.194L90.2198 137.923L89.7452 137.346C89.0837 137.045 88.4829 136.623 87.9725 136.1L87.6622 135.77L87.486 135.583C87.1748 135.423 86.893 135.209 86.6524 134.952C86.2065 134.599 85.7189 134.303 85.2008 134.072L85.1161 133.76L85.0269 133.429C84.8273 133.293 84.611 133.184 84.3835 133.106L84.3746 133.08C84.1044 132.33 83.2677 132.083 82.8644 131.464L82.7256 131.249C82.6337 130.974 82.4673 130.745 82.3559 130.74C82.0005 130.596 81.7019 130.338 81.5055 130.004C81.3137 129.613 80.1007 128.081 79.472 127.205L78.9562 126.391C78.7382 126.063 78.583 125.69 78.3516 125.344L78.098 124.956C78.0027 124.436 77.8907 123.811 77.8496 123.567C77.7897 123.231 77.7504 122.891 77.7319 122.55C77.7516 122.477 77.9818 122.259 78.0297 122.163C78.0776 122.068 77.735 121.576 77.6392 121.448L77.6633 121.419L77.8949 121.141C77.8057 120.967 77.6809 120.814 77.5289 120.692C77.3769 120.571 77.2011 120.485 77.0131 120.439C76.6637 120.37 76.0943 119.363 75.9646 119.231C75.643 119.009 75.3638 118.729 75.1409 118.404L74.7267 118.381L74.6667 118.378C74.5953 118.319 74.3608 118.162 74.1436 118.027C73.8525 117.771 73.5882 117.486 73.3545 117.175C73.2745 117.069 73.1229 116.741 73.056 116.671C72.9891 116.6 72.2465 115.989 71.5957 115.452L71.0506 114.914C70.9228 114.73 70.7547 114.579 70.5597 114.473C70.2721 114.346 70.0386 114.119 69.9003 113.832L69.7992 113.526C69.5778 113.353 69.2312 113.067 69.0337 112.889L68.857 112.723C68.6879 112.561 68.3865 112.356 68.3919 112.226L68.4063 111.869C68.1597 111.863 67.9141 111.839 67.6713 111.797C67.4955 111.762 67.2381 111.008 67.0552 110.742L66.8349 110.538L66.6323 110.351C66.3971 110.211 66.1738 110.051 65.9649 109.873C65.8462 109.759 65.3861 109.238 65.1615 108.984L64.9588 108.753L64.708 108.466C64.4439 108.142 64.1203 107.75 63.9889 107.595C63.6873 107.323 63.3646 107.076 63.024 106.857C62.8102 106.721 62.2577 106.1 61.9274 105.845C61.597 105.59 60.6945 104.186 60.0957 103.658L59.7333 103.056C59.5282 102.716 59.1006 102.921 58.9717 102.503L58.8925 102.243C58.7221 102.005 58.4991 101.812 58.2414 101.679L58.1191 101.603C57.8721 101.449 57.497 101.319 57.7847 100.958C57.7993 100.947 57.5912 100.676 57.521 100.676L57.1095 100.681C56.8823 100.375 56.6791 100.051 56.5015 99.7125C56.4046 99.5032 55.7565 99.2359 55.6948 99.0876C55.6332 98.9392 55.3327 98.4512 55.2117 98.4388C55.0906 98.4263 54.8108 98.3068 54.957 98.208C55.1031 98.1093 54.4451 97.7816 54.273 97.6154L54.1128 97.4584L53.6277 96.9849C53.1316 96.5545 52.761 95.9931 52.556 95.3611L52.1181 95.3932C51.619 95.4296 51.7728 94.9718 51.5569 94.8007C51.4235 94.7246 51.3074 94.6208 51.2161 94.4959C51.1247 94.3709 51.0601 94.2277 51.0263 94.0753L51.0171 94.0188C50.8754 93.9445 50.7173 93.908 50.5575 93.9126C50.397 93.9175 49.9748 93.2336 49.7569 92.9818L49.543 92.7583C49.3312 92.5376 49.0002 92.3962 49.0103 92.0344C48.9768 91.9634 48.9179 91.9083 48.8456 91.8806L48.2445 92.0703C48.0284 91.6622 47.8452 91.2367 47.6968 90.7977C47.3312 90.4055 46.9362 90.0432 46.515 89.7142L46.4605 89.4554C46.3696 89.0279 46.0417 89.2323 45.9195 89.0323C45.784 88.8131 45.6069 88.4189 45.4957 88.416C45.0884 88.4017 45.1331 88.0126 44.9158 87.8713C44.7097 87.706 44.5495 87.4886 44.4512 87.2402L44.3401 87.0355C43.9048 86.7067 43.4947 86.3446 43.1134 85.9523C42.7389 85.5664 41.6713 84.4138 41.5746 84.2542C41.4779 84.0945 41.1543 83.7939 41.0902 83.6451C40.8898 83.4443 40.664 83.2718 40.4186 83.1322C40.1454 82.804 39.9462 82.4183 39.8347 82.002L39.3111 82.1059L39.2886 82.11C39.03 81.6671 38.7381 81.2456 38.4154 80.8494C38.0604 80.4062 36.9304 79.1391 36.811 78.9338C36.6355 78.7182 36.4366 78.5238 36.2181 78.3541C36.1102 78.248 35.6792 77.7644 35.4745 77.4954L35.4044 77.2345C35.3029 76.8645 35.3029 76.5487 34.7572 76.4824L34.5552 76.4586C34.2818 76.1231 34.072 75.7383 33.9364 75.3237L33.9604 75.0648L34.0074 74.5533C33.622 74.2628 33.1784 73.9323 33.0204 73.8136C32.8623 73.6949 32.3965 73.3083 32.453 73.2111C32.4817 73.0779 32.4775 72.9396 32.4406 72.8091C32.4037 72.6786 32.3353 72.5599 32.2417 72.4637C32.0067 72.2554 32.0204 71.4289 32.1182 71.6331C32.2271 71.8773 32.3773 72.0998 32.5618 72.2905C32.6316 72.2889 32.9221 72.1526 32.8879 71.9933L32.7928 71.8945C32.4666 71.5614 32.6915 71.4136 32.8376 71.1974C32.9619 71.0192 33.3411 71.1357 33.2876 70.7211L33.2571 70.4926C33.4937 70.2008 33.7517 69.9273 34.0284 69.6749C34.2567 69.4748 34.9938 70.0546 35.1317 70.1502C35.2695 70.2458 35.7904 70.7046 36.0399 70.8991C36.2894 71.0937 36.9617 71.9651 37.202 72.132C37.4423 72.2989 38.0205 73.1761 38.2364 73.3439C38.4915 73.6167 38.7728 73.8627 39.0762 74.0779C39.2898 74.1455 39.6823 75.0115 40.0722 75.4151C40.4622 75.8186 41.8168 77.2118 42.2021 77.6276C42.7298 78.2464 43.2228 78.8952 43.679 79.5708L43.8194 79.6702L44.8304 80.3926C45.7069 81.4226 46.6558 82.5499 46.9433 82.9077L47.2267 83.2152C47.5221 83.4597 47.7685 83.7601 47.9523 84.1002L48.0548 84.3477L49.0258 85.0103C49.2328 85.1525 49.7528 85.9088 49.9695 86.0539C50.1861 86.1991 50.6988 87.0349 50.9485 87.3013C51.4216 87.7399 51.9222 88.1465 52.4473 88.5186L52.4606 88.6619C52.4897 88.9855 52.7832 88.95 52.8982 89.1219C53.0216 89.3121 53.1617 89.4903 53.3168 89.6544C53.5134 89.8561 53.7567 90.0164 53.9426 90.2247C54.0872 90.3875 54.1628 90.7308 54.2909 90.7647C54.807 90.9133 54.9216 91.45 55.3159 91.7042C55.5482 91.8645 55.7619 92.0513 55.9524 92.2612L56.1212 92.4353C56.2897 92.6613 56.443 92.8987 56.5802 93.1459L56.774 93.2687C56.9003 93.3232 57.0119 93.4076 57.0997 93.5149C57.1876 93.6222 57.2491 93.7493 57.2793 93.8861L57.2899 93.9682C57.7031 94.1604 58.0939 94.3988 58.455 94.6792C58.8206 95.102 59.1316 95.5709 59.3807 96.0748C59.4127 96.1038 59.8634 96.5433 60.3126 96.9806C60.7618 97.4179 62.094 98.8106 62.3078 99.0675C62.5216 99.3245 63.2074 100.166 63.3612 100.364L63.5181 100.531C63.7764 100.806 64.1666 100.897 64.3797 101.275C64.56 101.596 65.0378 101.712 65.1474 102.138L65.2549 102.558C65.6423 102.879 66.0099 103.225 66.3559 103.592C66.5921 103.856 67.69 104.828 68.119 105.271C68.5481 105.714 69.7884 106.983 69.9391 107.078C70.159 107.273 70.3508 107.499 70.5091 107.748C70.5926 107.892 71.3445 108.259 71.7501 108.57C72.2597 109.139 72.7321 109.742 73.1644 110.374L73.343 110.532L74.918 111.924C76.6534 113.45 78.2797 114.955 78.5326 115.265L78.947 115.232C79.0402 115.225 79.2279 115.404 79.3009 115.531C79.4057 115.71 79.331 116.021 79.6684 116.008L80.0455 115.995C80.426 115.943 80.7753 115.749 81.0246 115.449L81.3312 115.419C81.3902 115.414 81.3901 115.231 81.4405 115.147L81.5652 114.94C81.654 115.089 81.7959 115.198 81.9617 115.244L81.9944 115.199L82.0685 115.092C82.2214 114.871 82.4389 114.706 82.6892 114.619C82.9803 114.498 83.9941 114.493 84.2448 114.758L84.469 114.519C84.5668 114.423 84.6844 114.352 84.8127 114.309C84.9411 114.267 85.0769 114.255 85.2101 114.273L85.3012 114.274C85.4544 114.1 85.5896 113.91 85.7045 113.707L86.0633 113.828L86.1611 113.86C86.2761 113.83 86.6067 113.776 86.8968 113.737C87.3406 113.807 87.7687 113.954 88.163 114.172L88.2631 114.194L88.3706 114.218C88.5615 114.19 88.7497 114.145 88.9329 114.083C89.1275 114.018 89.6302 114.023 89.6957 114.347L90.0525 114.013L90.2001 113.874C90.2949 113.854 90.3928 113.855 90.4868 113.877C90.5808 113.899 90.6687 113.942 90.7444 114.003C91.0899 114.241 91.4634 114.435 91.8564 114.578C92.3052 114.755 93.7134 115.271 93.9934 115.409C94.5727 115.746 95.1345 116.114 95.6769 116.51C96.0823 116.811 97.6479 117.699 98.1356 118.04L98.4625 118.49L98.6643 118.768C98.9696 118.983 99.4925 119.401 99.8256 119.695L100.128 119.962C100.431 120.229 100.736 120.495 101.038 120.763C101.103 120.806 101.158 120.863 101.199 120.931C101.278 121.205 101.165 121.53 101.681 121.632C101.848 121.665 101.947 122.105 102.187 122.341C102.612 122.758 102.686 123.417 103.224 123.795C103.245 123.809 103.207 123.919 103.196 123.982C103.187 124.143 103.154 124.303 103.099 124.455L102.937 124.755C103.185 124.88 103.279 125.016 103.145 125.058L103.126 125.19C103.098 125.387 103.102 125.593 103.093 125.795L102.892 126.471L102.753 126.586C102.682 126.772 102.541 127.194 102.438 127.525L102.336 127.828C102.269 128.107 102.18 128.38 102.07 128.644C101.831 129.101 101.562 129.541 101.263 129.961L101.095 130.193C100.885 130.369 100.646 130.505 100.39 130.597C100.122 130.586 99.8548 130.547 99.5939 130.482C99.2947 130.442 98.9895 130.485 98.7111 130.607L98.5102 130.653C98.2774 130.71 97.9906 130.352 97.744 130.629L97.6209 130.767C97.5152 130.577 97.3696 130.412 97.1941 130.286C96.9131 130.189 96.6256 130.111 96.3339 130.053L96.1337 129.971L95.932 129.887C95.7004 129.743 95.4466 129.702 95.3678 129.795C95.2889 129.888 94.9239 130.093 94.791 129.976C94.6582 129.859 94.2543 129.569 94.261 129.655C94.2678 129.741 94.2215 129.915 94.155 129.919L94.1002 129.892C94.0288 129.855 93.9667 129.801 93.9182 129.736C93.5056 129.172 93.0111 129.369 92.5525 129.36C92.214 129.354 92.1705 129.362 92.2277 129.003L92.2952 128.594C92.0927 128.693 91.8971 128.702 91.8612 128.615C91.8254 128.528 91.5777 128.352 91.5631 128.432L91.5686 128.507L91.6014 128.92C91.3188 128.835 90.5921 128.615 89.9869 128.429L89.4384 128.25C89.2594 128.213 89.092 128.133 88.9499 128.017C88.6718 127.755 88.3363 127.566 87.9712 127.464L87.725 127.36C87.6076 127.209 87.4562 127.091 87.2836 127.013L87.2107 127.018C87.1185 127.024 86.9882 127.093 86.9459 127.054C86.491 126.729 86.001 126.458 85.4851 126.246L85.0376 125.996C84.5504 125.656 83.8531 125.196 83.4884 124.973L83.1652 124.85C82.8913 124.744 82.7198 124.75 82.6295 124.399L82.5691 124.164C82.44 124.142 82.3175 124.091 82.21 124.016C82.1026 123.94 82.0129 123.841 81.947 123.726C81.9165 123.567 81.4761 123.622 81.3642 123.657C81.2522 123.691 80.9394 123.266 80.7481 123.078L80.5063 123.194L80.4506 123.221C80.3323 123.207 80.3993 123.368 80.5915 123.584C80.8503 123.943 81.1767 124.246 81.5518 124.474L81.635 124.788C81.7044 125.072 81.812 125.344 81.9549 125.597L82.0868 125.819C82.3164 126.042 82.5872 126.216 82.8838 126.33C83.1068 126.399 83.8725 127.555 84.6529 128.242C85.4333 128.929 87.6122 130.853 87.7087 131.068C87.8053 131.283 88.5216 131.393 88.6813 131.45C88.8411 131.508 89.3492 132.241 89.6718 132.518L90.0181 132.703L90.4016 132.913C90.8411 133.237 91.2997 133.533 91.7749 133.799L91.943 134.153L92.0215 134.318C92.0054 134.531 92.1605 134.55 92.3662 134.359L92.6215 134.74L92.868 135.098C93.3572 135.404 93.8202 135.751 94.2525 136.136L94.7481 136.201L94.9185 136.223C95.2574 136.677 95.6537 137.083 96.0974 137.43C96.5402 137.775 97.8513 138.381 97.8284 138.454C97.825 138.517 97.8447 138.58 97.8837 138.629C97.9227 138.679 97.9781 138.711 98.0396 138.721C98.1945 138.745 98.6612 138.931 98.9831 138.982L99.0072 139.085C99.1123 139.556 99.4926 139.648 99.813 139.843L99.8523 139.866C100.017 140.09 100.237 140.264 100.49 140.371C100.836 140.556 101.991 141.284 102.324 141.471C102.851 141.771 103.319 142.169 103.702 142.644L104.082 142.507C104.236 142.45 104.555 142.646 104.77 142.786C105.003 142.937 105.194 143.16 105.415 143.335C105.498 143.408 105.604 143.449 105.713 143.452C105.886 143.432 106.061 143.459 106.219 143.532C106.376 143.605 106.511 143.721 106.609 143.867L106.881 144.197C107.555 144.476 108.206 144.808 108.829 145.189C109.515 145.6 111.992 146.911 112.743 147.327L113.418 147.726C113.855 148.073 114.375 148.295 114.925 148.372C115.03 148.388 115.129 148.435 115.208 148.506C115.186 148.892 115.528 148.852 115.709 148.929C116.241 149.098 116.743 149.351 117.198 149.679L117.548 149.966C118.059 150.056 118.554 150.222 119.016 150.458C119.546 150.716 120.095 150.93 120.659 151.1C120.969 151.188 121.899 151.667 122.144 151.774C122.389 151.881 124.012 152.532 125.229 153.035L126.338 153.489C126.463 153.561 126.6 153.61 126.742 153.634L127.144 153.62C127.497 153.779 127.861 153.909 128.234 154.011C128.426 154.048 129.054 154.428 129.245 154.479L129.419 154.482C129.57 154.464 129.722 154.481 129.865 154.532C130.007 154.582 130.137 154.665 130.243 154.774C130.389 154.883 130.558 154.955 130.737 154.983C130.987 155.016 131.232 155.079 131.466 155.171L132.332 155.687C133.198 155.837 134.052 156.044 134.89 156.308C135.504 156.506 136.127 156.671 136.759 156.802C137.1 156.931 137.435 157.076 137.762 157.239C138.212 157.404 138.671 157.539 139.139 157.642L139.494 157.704C139.604 157.724 139.704 157.78 139.78 157.863L139.995 158.146C140.311 158.221 141.307 158.535 142.207 158.847L142.973 159.326C143.003 159.343 143.045 159.333 143.079 159.345L143.625 159.532C144.159 159.756 144.708 159.943 145.267 160.093C145.572 160.156 146.723 160.858 147.235 161.101C147.748 161.344 149.488 161.82 149.893 161.996C150.297 162.171 151.893 162.95 152.551 163.305L153.148 163.444L153.655 163.561C154.035 163.835 154.444 164.063 154.875 164.24C155.116 164.312 156.22 164.908 156.798 165.209L157.324 165.421C157.794 165.61 158.026 166.124 158.591 166.179C158.954 166.216 159.349 166.646 159.736 166.88C160.507 167.338 161.285 167.782 162.061 168.23L162.124 168.265C162.2 168.292 162.822 168.729 163.507 169.24L164.137 169.691C164.541 169.979 164.964 170.239 165.372 170.518C165.78 170.797 166.056 171.313 166.611 171.347C166.666 171.35 166.729 171.478 166.792 171.496C167.202 171.615 167.013 172.293 167.645 172.308L167.907 172.314C168.285 172.741 168.602 173.222 168.848 173.741L169.273 173.865L169.657 173.976C169.907 174.399 170.228 174.773 170.604 175.083L170.742 175.491C170.812 175.7 171.133 175.874 171.355 176.055L171.569 176.226C171.556 176.352 171.572 176.478 171.616 176.595C171.66 176.712 171.73 176.817 171.822 176.901L171.991 177.027C172.126 177.124 172.373 177.106 172.376 177.341C172.376 177.765 172.703 177.985 172.95 178.293C173.29 178.772 173.598 179.273 173.872 179.794L173.948 179.92C174.022 180.05 174.013 180.188 173.928 180.227C173.821 180.271 173.723 180.333 173.638 180.412C173.714 180.475 173.808 180.512 173.906 180.519C174.049 180.56 174.182 180.631 174.295 180.729C174.409 180.826 174.501 180.948 174.564 181.085L174.584 181.328L174.595 181.456C174.542 181.592 174.557 181.718 174.636 181.734C174.716 181.75 174.797 181.967 174.758 182.124C174.719 182.28 174.689 182.765 174.762 182.72C174.835 182.676 175.06 182.634 175.064 182.748C175.125 183.016 175.221 183.273 175.35 183.514L175.468 183.701C175.767 184.173 175.767 184.326 175.51 184.991L175.465 185.107C175.475 185.295 175.645 185.383 175.842 185.301L175.916 185.568L175.944 185.665C176.251 185.908 176.585 186.113 176.938 186.278L177.376 186.45L178.252 186.793C179.211 187.194 180.31 187.666 180.693 187.841C181.076 188.015 182.442 188.661 182.875 188.895C183.308 189.129 184.745 189.906 185.148 190.064C185.55 190.222 186.633 191.005 186.84 191.06L186.959 191.175L187.386 191.592C187.93 191.907 188.802 192.427 189.317 192.748C189.832 193.069 191.394 194.136 191.712 194.268L191.898 194.472L192.109 194.704C192.39 194.89 192.752 195.107 192.915 195.187C193.078 195.267 194.344 196.13 195.441 196.827L196.234 197.738L196.461 197.998C196.822 198.261 197.203 198.496 197.599 198.7L197.865 198.912C198.178 199.163 198.473 199.443 198.777 199.71L199.051 199.949C199.468 200.331 199.855 200.747 200.206 201.192L200.705 201.455L201.096 201.66C201.436 202.145 201.824 202.705 201.955 202.91C202.292 203.228 202.61 203.568 202.906 203.926L203.329 203.863L203.374 203.856C203.57 204.015 203.754 204.188 203.925 204.374C204.195 204.845 204.437 205.332 204.652 205.831L204.775 206.034L204.962 206.342C205.15 206.184 205.364 206.145 205.439 206.259C205.514 206.372 205.776 206.965 205.931 207.322L205.87 207.566L205.736 208.09C206.185 208.119 206.608 208.308 206.933 208.623L206.835 209.045C206.835 209.099 206.846 209.153 206.869 209.202C206.892 209.251 206.926 209.294 206.967 209.328C207.528 209.61 207.308 210.121 207.522 210.503C207.567 210.581 207.515 210.796 207.462 210.804C207.285 210.83 207.193 210.851 207.376 211.037C207.472 211.11 207.561 211.192 207.642 211.282C207.72 211.405 207.722 211.573 207.809 211.683C208.007 211.919 207.898 212.071 207.721 212.06L207.298 212.032C207.436 212.286 207.552 212.552 207.644 212.827C207.7 213.016 208.094 213.558 208.024 213.833L207.961 214.082C207.882 214.393 207.566 214.39 207.319 214.462L207.281 214.473C207.133 214.096 207.112 213.679 207.221 213.286L207.285 212.856L207.274 212.824ZM169.142 189.837C169.211 190.06 169.157 190.17 169.022 190.081C168.661 189.876 168.283 189.704 167.892 189.567L167.674 189.746C167.363 190.001 167.013 189.683 166.688 189.695C166.367 189.675 166.049 189.62 165.739 189.531C165.424 189.493 165.112 189.43 164.806 189.345C164.289 189.121 163.704 189.114 163.178 189.325C162.979 189.421 162.855 189.532 162.641 189.28C162.47 189.08 162.34 189.116 162.193 189.264C162.153 189.304 161.918 189.117 161.819 189.142C161.72 189.166 161.655 189.43 161.629 189.417L161.111 189.176C160.611 189.291 160.043 189.407 159.847 189.434C159.651 189.462 158.501 189.277 157.733 189.172L157.041 189.291L156.519 189.379C155.894 189.252 155.35 189.268 155.307 189.416L155.247 189.415L155.123 189.413C154.804 189.342 154.472 189.356 154.159 189.454C153.778 189.553 152.597 189.938 152.355 190.037C151.9 190.256 151.469 190.525 151.07 190.839C150.837 191.063 151.221 192.135 151.274 192.267C151.396 192.498 151.588 192.684 151.821 192.796C152.03 192.85 152.784 193.32 153.243 193.544C153.701 193.767 155.237 194.469 155.656 194.585C156.645 194.795 157.645 194.954 158.652 195.061L159.368 195.453C159.408 195.476 159.481 195.39 159.545 195.393C159.84 195.41 160.261 195.571 160.41 195.434C160.754 195.132 161.008 195.68 161.293 195.587C161.339 195.572 161.453 195.676 161.487 195.657C161.984 195.37 162.623 195.636 163.161 195.538C163.714 195.438 164.23 195.242 164.804 195.179C165.292 195.124 165.772 195.008 166.233 194.832C166.652 194.673 167.12 194.636 167.539 194.456L167.917 194.294C168.295 194.24 168.665 194.137 169.018 193.989L169.007 193.914C168.941 193.468 169.08 193.409 169.488 193.66C169.546 193.696 169.759 193.505 169.84 193.378L169.906 193.279C170.061 193.041 170.237 192.819 170.432 192.615L170.83 192.549L171.127 192.504C171.363 192.238 171.641 192.014 171.948 191.84C172.122 191.775 172.074 191.142 172.174 191.012C172.274 190.883 171.321 190.566 170.708 190.496L170.156 190.267C169.922 190.17 169.696 190.045 169.458 189.959L169.142 189.837ZM83.8851 118.183C83.5171 118.005 83.3208 118.015 83.4431 118.196C83.5654 118.377 83.8562 118.929 83.9959 118.962C84.1356 118.995 84.5562 119.267 84.7131 119.293C84.87 119.32 85.2299 119.874 85.4978 120.047C85.7657 120.221 86.6895 120.668 86.9435 120.888C87.1975 121.108 88.1074 121.225 88.2211 121.407L88.3732 121.513C88.4792 121.586 88.6667 121.498 88.8031 121.551C88.8796 121.581 88.9182 121.821 88.9875 121.841L89.3015 121.929C89.6261 121.978 89.9364 122.096 90.2119 122.276C90.7775 122.535 91.3632 122.745 91.9631 122.906L92.4258 123.141L92.8722 123.367C93.1888 123.294 93.5007 123.384 93.5637 123.568L93.662 123.619L93.8863 123.735C94.1553 123.796 94.7226 123.892 95.1469 123.949C95.5712 124.005 96.9066 124.415 97.1784 124.464L97.4179 124.547L97.6514 124.629C97.8125 124.599 97.9757 124.584 98.1391 124.584L98.1625 124.567C98.2184 124.536 98.3062 124.498 98.302 124.452L98.3009 124.363C98.2018 124.196 98.0865 124.039 97.9567 123.895C97.6634 123.574 97.3316 123.292 96.9691 123.055L96.7414 122.937L96.4617 122.791C96.0942 122.524 95.7552 122.219 95.4501 121.881L95.1004 121.69L94.8353 121.541C94.834 121.263 94.7525 120.993 94.601 120.763L94.5058 120.757L94.0236 120.725C93.7116 120.494 93.2458 120.133 92.9871 119.922L92.7336 119.772C92.4465 119.602 92.044 119.52 92.3188 119.089C92.3279 119.074 92.1098 118.823 92.0366 118.83L91.7123 118.855C91.3814 118.93 91.0913 118.905 91.0608 118.805C91.0304 118.706 91.044 118.485 91.1431 118.525C91.2422 118.564 91.3044 118.543 90.912 118.359C90.5197 118.174 89.5189 118.042 89.6011 117.896C89.6833 117.75 89.6581 117.411 89.3962 117.409C88.9998 117.422 88.6032 117.412 88.2083 117.379C88.0542 117.333 87.6327 117.136 87.598 117.236C87.5633 117.337 86.854 117.289 86.4706 117.258L86.1634 117.399C85.9914 117.477 85.7552 117.617 85.6158 117.544C85.5231 117.476 85.4085 117.445 85.2942 117.458C85.1799 117.471 85.0738 117.527 84.9966 117.614C84.7893 117.778 84.3748 117.714 84.1891 117.89L83.8851 118.183Z" fill="#6FB2A5"/>
<path d="M33.9354 75.2379L33.9589 74.9804L34.0047 74.4685L33.0177 73.7277C32.8612 73.6111 32.3938 73.2219 32.4502 73.1248C32.4786 72.9916 32.4741 72.8536 32.4371 72.7231C32.4 72.5926 32.3317 72.4737 32.2382 72.3774C32.1122 72.2069 32.0453 71.9983 32.048 71.784C32.0383 71.5893 32.0658 71.4486 32.1124 71.548C32.2214 71.7923 32.3716 72.015 32.5561 72.2059C32.6259 72.2043 32.9161 72.0683 32.8812 71.9083L32.7866 71.8102C32.4595 71.4773 32.6848 71.3294 32.8305 71.1134C32.9539 70.9347 33.3335 71.0523 33.2788 70.6384L33.2486 70.4107C33.4846 70.1192 33.7416 69.8461 34.0175 69.5937C34.2458 69.3947 34.9831 69.9739 35.1207 70.0709C35.2583 70.168 35.7795 70.6259 36.0283 70.8212C36.2771 71.0165 36.9519 71.8881 37.1922 72.0552C37.4325 72.2223 38.0105 73.0993 38.2262 73.2686C38.4815 73.5414 38.763 73.7874 39.0663 74.0032C39.2658 74.1677 39.4274 74.3751 39.5398 74.6108C39.6919 74.8705 39.8675 75.1151 40.0641 75.3413C40.4525 75.7475 41.809 77.1397 42.1944 77.5558C42.7223 78.1751 43.2156 78.8242 43.6724 79.5001L43.8128 79.5995L44.8231 80.3234C45.6999 81.3541 46.6498 82.4829 46.937 82.8402L47.22 83.1472C47.5158 83.392 47.7624 83.693 47.9463 84.0337L48.0485 84.2804C48.3756 84.5024 48.8119 84.8021 49.0203 84.9434C49.2287 85.0847 49.7475 85.8425 49.9636 85.9871C50.1797 86.1317 50.6934 86.9687 50.9438 87.236C51.4166 87.6749 51.9171 88.0817 52.4421 88.4539L52.4551 88.5964C52.4615 88.6693 52.4885 88.7387 52.533 88.7958C52.5775 88.8529 52.6375 88.8954 52.7056 88.918C52.7794 88.9476 52.8444 88.9962 52.8943 89.0591C53.0176 89.2491 53.1577 89.4272 53.3127 89.5911C53.51 89.7925 53.7533 89.9542 53.9392 90.1627C54.0021 90.2432 54.0542 90.332 54.0944 90.4266C54.1572 90.5575 54.2125 90.6807 54.2855 90.7045C54.8013 90.8537 54.9166 91.3903 55.3108 91.6448C55.5433 91.8051 55.7569 91.9922 55.9473 92.2026L56.1156 92.3761C56.2846 92.6019 56.4384 92.8391 56.5759 93.0863L56.77 93.2102C56.8964 93.2646 57.0083 93.3488 57.0962 93.4562C57.1841 93.5636 57.2455 93.6911 57.2755 93.8279L57.2862 93.91C57.6995 94.1023 58.0903 94.3411 58.4511 94.6223C58.7407 94.9228 58.9833 95.2672 59.1707 95.6433C59.2855 95.8498 59.3657 96.0059 59.3778 96.0172C59.4103 96.047 59.8606 96.4862 60.3104 96.9246C60.7602 97.363 62.0929 98.7569 62.3063 99.0132C62.5196 99.2695 63.2072 100.112 63.3603 100.311L63.5166 100.476C63.7751 100.752 64.1645 100.843 64.3783 101.222C64.4697 101.358 64.5867 101.474 64.7225 101.564C64.9192 101.681 65.0689 101.866 65.1456 102.086L65.2528 102.506C65.6404 102.828 66.0083 103.173 66.3542 103.541C66.5917 103.806 67.6883 104.779 68.1173 105.223C68.5463 105.668 69.7871 106.936 69.9378 107.032C70.1574 107.227 70.3491 107.452 70.5075 107.702C70.5904 107.846 71.3425 108.215 71.7483 108.524C72.2582 109.094 72.7309 109.697 73.1635 110.33L73.3416 110.487L74.9182 111.881C76.6532 113.408 78.2802 114.914 78.5325 115.226L78.9464 115.193C79.0408 115.186 79.2266 115.366 79.3004 115.493C79.4045 115.672 79.3316 115.983 79.6681 115.97L80.0448 115.957C80.4248 115.906 80.7733 115.711 81.0218 115.412L81.3281 115.382C81.3882 115.377 81.3874 115.194 81.4381 115.111L81.5627 114.904C81.6518 115.053 81.7934 115.162 81.9589 115.209L81.993 115.163L82.0662 115.057C82.2186 114.837 82.4353 114.672 82.6848 114.586C82.9755 114.465 83.9895 114.462 84.2391 114.727L84.4635 114.487C84.5611 114.392 84.6785 114.321 84.8067 114.279C84.9349 114.236 85.0705 114.224 85.2036 114.243L85.2949 114.243C85.4478 114.069 85.5828 113.88 85.6975 113.678L86.0555 113.799L86.1537 113.832C86.2693 113.802 86.5989 113.747 86.8886 113.71C87.3324 113.781 87.7607 113.928 88.1553 114.146L88.2555 114.168L88.3629 114.193C88.5536 114.165 88.7414 114.12 88.9244 114.058C89.1186 113.994 89.6202 114 89.6867 114.324L90.0434 113.991L90.1906 113.852C90.2852 113.832 90.3828 113.833 90.4767 113.856C90.5705 113.878 90.6583 113.921 90.7338 113.982C91.0791 114.221 91.4525 114.415 91.8455 114.559C92.294 114.735 93.702 115.254 93.9819 115.392C94.5609 115.731 95.1226 116.099 95.6651 116.495C96.0705 116.796 97.635 117.687 98.1238 118.029L98.4517 118.478L98.6542 118.757C98.9587 118.973 99.4811 119.39 99.8143 119.684L100.117 119.952C100.421 120.219 100.724 120.486 101.026 120.754C101.092 120.797 101.147 120.854 101.187 120.922C101.267 121.196 101.155 121.52 101.67 121.623C101.762 121.641 101.834 121.782 101.92 121.947C101.986 122.088 102.072 122.218 102.177 122.332C102.351 122.523 102.495 122.741 102.602 122.978C102.737 123.296 102.947 123.574 103.214 123.787C103.233 123.801 103.198 123.91 103.187 123.973C103.177 124.135 103.144 124.295 103.089 124.447L102.927 124.747C103.176 124.871 103.27 125.007 103.136 125.05L103.117 125.182C103.089 125.378 103.094 125.585 103.084 125.786L102.885 126.461L102.747 126.576C102.676 126.761 102.535 127.183 102.433 127.514L102.333 127.817C102.266 128.096 102.177 128.369 102.067 128.633C101.829 129.09 101.56 129.53 101.262 129.949L101.095 130.181C100.885 130.356 100.646 130.492 100.39 130.583C100.122 130.572 99.8553 130.533 99.5946 130.467C99.2954 130.426 98.9904 130.469 98.7121 130.591L98.5114 130.637C98.279 130.694 97.9928 130.335 97.7466 130.611L97.6244 130.75C97.5189 130.559 97.3731 130.395 97.1974 130.269C96.9168 130.171 96.6297 130.093 96.3384 130.035L96.1373 129.951L95.9356 129.867C95.7039 129.724 95.4504 129.681 95.3712 129.774C95.2921 129.867 94.9286 130.072 94.7958 129.955C94.6629 129.838 94.259 129.547 94.2666 129.633C94.2741 129.718 94.2275 129.892 94.1614 129.898L94.1068 129.871C94.0358 129.832 93.9738 129.779 93.9254 129.713C93.5125 129.15 93.0187 129.346 92.5606 129.336C92.2224 129.329 92.1782 129.338 92.2357 128.979L92.3027 128.57C92.1013 128.668 91.905 128.678 91.8698 128.59C91.8345 128.502 91.5862 128.327 91.5712 128.406L91.5768 128.481L91.61 128.894C91.3269 128.809 90.6016 128.588 89.9966 128.401L89.4488 128.223C89.2699 128.185 89.1027 128.105 88.9607 127.988C88.6824 127.727 88.3467 127.537 87.9815 127.435L87.7362 127.33C87.6185 127.18 87.4671 127.061 87.2948 126.983L87.2218 126.988C87.1289 126.994 87.0004 127.062 86.9574 127.023C86.5024 126.698 86.0124 126.426 85.4968 126.214L85.0497 125.963C84.5618 125.623 83.8652 125.162 83.4998 124.94L83.1768 124.816C82.9038 124.709 82.7322 124.716 82.6411 124.365L82.5809 124.13C82.452 124.108 82.3297 124.057 82.2223 123.981C82.115 123.905 82.0254 123.806 81.9596 123.691C81.9277 123.532 81.489 123.587 81.3772 123.621C81.2655 123.655 80.9524 123.23 80.761 123.042L80.5205 123.157L80.4641 123.184C80.3453 123.17 80.4131 123.332 80.6054 123.548C80.8646 123.906 81.1909 124.209 81.5659 124.437L81.6496 124.751C81.7195 125.034 81.8273 125.307 81.9701 125.56L82.1027 125.782C82.3322 126.005 82.6028 126.178 82.8991 126.293C83.1224 126.363 83.8883 127.519 84.6681 128.207C85.4478 128.895 87.6272 130.82 87.7244 131.035C87.8217 131.251 88.5364 131.36 88.6965 131.419C88.8567 131.477 89.3654 132.21 89.6883 132.486L90.0348 132.673L90.4182 132.884C90.8561 133.208 91.3133 133.505 91.7872 133.772L91.9555 134.127L92.0342 134.292C92.0184 134.505 92.1726 134.524 92.3779 134.333L92.6336 134.714L92.8803 135.073C93.3696 135.38 93.8326 135.728 94.265 136.113L94.7602 136.179L94.9303 136.202C95.2698 136.656 95.6664 137.062 96.1102 137.409C96.5523 137.756 97.8629 138.363 97.8408 138.435C97.8374 138.499 97.857 138.561 97.8958 138.611C97.9347 138.66 97.99 138.693 98.0515 138.704C98.2057 138.727 98.6722 138.913 98.9943 138.965L99.0178 139.069C99.1234 139.539 99.5042 139.632 99.8238 139.827L99.8631 139.851C100.028 140.074 100.248 140.248 100.501 140.356C100.847 140.542 101.999 141.267 102.334 141.458C102.862 141.759 103.329 142.158 103.713 142.633L104.092 142.497C104.246 142.441 104.566 142.637 104.78 142.777C105.003 142.949 105.218 143.133 105.423 143.327C105.507 143.4 105.612 143.441 105.722 143.445C105.894 143.424 106.069 143.452 106.226 143.525C106.384 143.599 106.519 143.715 106.616 143.861L106.889 144.191C107.562 144.471 108.213 144.803 108.836 145.185C109.522 145.597 111.998 146.91 112.749 147.326L113.423 147.727C113.861 148.073 114.38 148.296 114.929 148.374C115.035 148.39 115.133 148.436 115.213 148.508C115.191 148.893 115.532 148.855 115.714 148.93C116.246 149.1 116.748 149.354 117.203 149.682L117.553 149.97C118.063 150.06 118.558 150.227 119.02 150.464C119.55 150.722 120.099 150.938 120.662 151.108C120.973 151.197 121.902 151.676 122.146 151.784C122.391 151.892 124.014 152.544 125.23 153.049L126.338 153.504C126.463 153.576 126.6 153.625 126.742 153.649L127.144 153.636C127.496 153.795 127.86 153.926 128.233 154.028C128.424 154.065 129.052 154.446 129.243 154.498L129.417 154.501C129.567 154.484 129.719 154.501 129.862 154.552C130.004 154.603 130.133 154.686 130.24 154.795C130.386 154.903 130.556 154.975 130.735 155.004C130.978 155.076 131.252 155.065 131.464 155.192L132.33 155.71C133.195 155.861 134.048 156.069 134.885 156.333C135.499 156.532 136.122 156.698 136.753 156.829C137.094 156.958 137.428 157.104 137.755 157.267C138.204 157.432 138.664 157.567 139.131 157.671L139.486 157.733C139.596 157.753 139.697 157.809 139.772 157.893L139.987 158.176C140.303 158.251 141.298 158.567 142.197 158.879L142.963 159.359C142.993 159.377 143.036 159.367 143.07 159.379L143.615 159.567C144.149 159.792 144.697 159.98 145.256 160.13C145.561 160.193 146.712 160.896 147.224 161.14C147.736 161.384 149.476 161.86 149.879 162.037C150.283 162.214 151.88 162.993 152.536 163.349L153.134 163.488L153.64 163.606C154.02 163.879 154.43 164.107 154.861 164.286C155.101 164.357 156.205 164.954 156.783 165.256L157.309 165.469C157.777 165.657 158.011 166.172 158.575 166.227C158.937 166.264 159.333 166.694 159.719 166.929C160.49 167.389 161.269 167.833 162.045 168.282L162.107 168.317C162.183 168.343 162.805 168.783 163.49 169.293L164.12 169.746C164.525 170.035 164.947 170.294 165.355 170.574C165.763 170.854 166.04 171.368 166.594 171.403C166.648 171.406 166.711 171.534 166.775 171.552C166.852 171.584 166.921 171.635 166.976 171.7C167.03 171.765 167.069 171.842 167.088 171.925C167.115 172.05 167.183 172.162 167.281 172.242C167.379 172.322 167.501 172.365 167.626 172.365L167.888 172.372C168.267 172.799 168.584 173.28 168.83 173.799L169.255 173.924L169.638 174.037C169.889 174.459 170.21 174.834 170.586 175.144L170.724 175.553C170.795 175.761 171.116 175.935 171.338 176.116L171.552 176.288C171.538 176.413 171.554 176.539 171.599 176.656C171.643 176.774 171.713 176.878 171.805 176.962L171.975 177.088C172.108 177.186 172.357 177.168 172.36 177.402C172.359 177.827 172.686 178.046 172.934 178.355C173.274 178.834 173.583 179.336 173.858 179.857L173.933 179.984C174.007 180.114 173.999 180.252 173.914 180.291C173.829 180.329 173.614 180.449 173.625 180.476C173.701 180.539 173.794 180.576 173.893 180.583C174.036 180.624 174.169 180.695 174.282 180.793C174.396 180.89 174.488 181.012 174.551 181.149L174.571 181.392L174.582 181.52C174.529 181.657 174.544 181.783 174.624 181.799C174.705 181.816 174.785 182.033 174.746 182.189C174.708 182.345 174.678 182.83 174.752 182.786C174.825 182.742 175.048 182.7 175.052 182.814C175.114 183.082 175.211 183.339 175.339 183.58L175.458 183.767C175.757 184.238 175.758 184.391 175.502 185.056L175.456 185.173C175.467 185.36 175.636 185.447 175.833 185.367L175.907 185.633L175.934 185.73C176.241 185.973 176.575 186.179 176.929 186.344L177.365 186.516L178.242 186.86C179.2 187.263 180.299 187.734 180.681 187.91C181.063 188.085 182.429 188.734 182.863 188.968C183.296 189.202 184.732 189.98 185.134 190.138C185.536 190.296 186.619 191.081 186.826 191.136L186.945 191.252L187.374 191.669C187.918 191.984 188.789 192.505 189.304 192.827C189.819 193.149 191.378 194.213 191.698 194.349L191.882 194.549L192.094 194.781C192.375 194.967 192.737 195.185 192.9 195.265C193.063 195.345 194.328 196.21 195.426 196.908L196.218 197.82L196.446 198.081C196.807 198.344 197.187 198.579 197.583 198.784L197.849 198.996C198.163 199.248 198.457 199.526 198.761 199.794L199.035 200.034C199.453 200.416 199.84 200.832 200.191 201.278L200.69 201.542L201.08 201.747C201.42 202.231 201.809 202.793 201.94 202.997C202.067 203.147 202.206 203.286 202.355 203.413C202.56 203.588 202.741 203.79 202.893 204.014L203.315 203.952L203.361 203.944C203.556 204.103 203.74 204.277 203.911 204.463C204.089 204.714 204.233 204.989 204.339 205.279C204.425 205.5 204.525 205.714 204.638 205.921L204.761 206.123L204.948 206.431C205.136 206.274 205.35 206.235 205.424 206.349C205.499 206.462 205.762 207.054 205.917 207.411L205.856 207.654L205.723 208.177C206.171 208.208 206.594 208.397 206.919 208.712L206.823 209.134C206.822 209.189 206.834 209.242 206.857 209.292C206.879 209.341 206.913 209.384 206.954 209.418C207.515 209.701 207.296 210.211 207.51 210.593C207.555 210.671 207.505 210.886 207.451 210.894C207.274 210.918 207.182 210.94 207.366 211.126C207.462 211.199 207.551 211.282 207.632 211.372C207.71 211.495 207.712 211.663 207.799 211.774C207.998 212.01 207.889 212.161 207.712 212.151L207.29 212.123C207.428 212.376 207.544 212.642 207.637 212.917C207.693 213.106 208.087 213.649 208.018 213.924L207.955 214.172C207.877 214.482 207.562 214.479 207.315 214.551L207.276 214.561C207.129 214.184 207.107 213.767 207.215 213.374L207.279 212.944L207.284 212.91C207.142 212.791 207.007 212.79 206.977 212.9C206.946 213.009 206.792 213.196 206.726 212.947C206.661 212.699 206.781 211.96 206.663 212.045C206.545 212.13 206.158 212.336 206.238 212.191C206.286 212.08 206.299 211.957 206.274 211.838C206.249 211.72 206.188 211.613 206.1 211.533C205.699 211.204 205.348 210.816 205.057 210.383L204.754 210.151C204.659 210.068 204.58 209.968 204.519 209.856C204.485 209.806 204.455 209.753 204.417 209.708C204.284 209.527 204.034 209.319 204.039 209.171C204.047 208.968 203.939 208.956 203.827 208.938C203.784 208.938 203.743 208.926 203.706 208.905C203.67 208.883 203.64 208.852 203.619 208.815L203.529 208.62C203.187 208.418 202.892 208.142 202.665 207.812L202.45 207.616C202.155 207.346 201.684 207.2 201.498 206.901L201.242 206.488C200.677 206.211 200.141 205.876 199.641 205.489L199.233 205.054C198.873 204.583 198.386 204.229 197.832 204.034C197.568 203.932 197.348 203.736 197.213 203.483C197.178 203.393 197.123 203.313 197.052 203.248C196.981 203.184 196.896 203.138 196.804 203.112C196.533 203.003 196.018 203.014 196.029 202.471C195.986 202.411 195.922 202.37 195.851 202.357C195.667 202.419 195.617 202.303 195.575 202.195C195.544 202.121 195.515 202.048 195.445 202.028C195.232 201.996 195.025 201.934 194.83 201.842L194.675 201.738C194.404 201.39 194.078 201.089 193.711 200.848C193.145 200.486 192.549 200.174 191.93 199.915L191.875 199.705C191.832 199.578 191.754 199.467 191.649 199.386C191.544 199.305 191.418 199.257 191.287 199.249C190.973 199.148 190.674 199.005 190.397 198.826C190.084 198.706 189.795 198.532 189.543 198.31C189.313 198.031 188.922 198.107 188.774 197.77C188.759 197.734 188.767 197.669 188.753 197.663C188.41 197.516 187.983 197.629 187.741 197.173L186.793 196.501L186.415 196.388C185.817 196.168 185.241 195.891 184.695 195.561L184.224 195.243C184.027 195.115 183.871 194.879 183.684 195.152C183.666 195.179 183.426 195.103 183.41 195.056L183.189 194.403C182.721 194.398 182.254 194.342 181.798 194.236C181.412 194.111 181.015 194.023 180.612 193.974C180.397 193.978 179.746 193.259 179.358 193.025C178.556 192.824 177.739 192.688 176.915 192.616L176.48 192.191L176.241 191.96C175.767 191.841 175.386 192.226 175.396 192.815L175.27 193.253C175.151 193.748 174.993 194.233 174.797 194.703C174.434 195.751 173.848 196.706 173.082 197.499L172.549 197.941C172.013 198.477 171.338 199.107 171.048 199.342L170.871 199.679C170.64 199.987 170.335 200.228 169.987 200.38L169.666 200.571C169.274 200.725 168.819 200.897 168.651 200.953C168.358 201.062 168.074 201.198 167.805 201.359C167.667 201.458 167.076 201.33 166.98 201.361L166.898 201.4L166.329 201.682C165.445 201.783 164.557 201.826 163.669 201.811L163.244 202.006C162.928 202.155 162.601 201.834 162.305 202.068C162.148 202.193 161.695 201.974 161.38 201.923C161.233 201.897 161.084 201.893 160.936 201.911C160.775 201.937 160.632 202.047 160.475 202.033C160.434 202.029 160.426 201.972 160.414 201.907C160.396 201.809 160.365 201.692 160.183 201.729C160 201.766 159.778 201.355 159.632 201.683L158.275 201.527L157.717 201.427C157.118 201.22 156.154 200.92 155.571 200.757L155.05 200.68C154.758 200.629 154.48 200.516 154.235 200.348C153.812 200.142 153.375 199.967 152.928 199.823C152.558 199.668 152.134 199.579 151.954 199.111C151.93 199.049 151.837 199.003 151.778 198.949L151.399 198.614C150.84 198.276 150.337 197.851 149.906 197.355L149.558 196.998L149.209 196.638C148.891 196.262 148.554 195.904 148.201 195.563C147.947 195.103 147.721 194.626 147.524 194.137C147.142 193.195 146.861 192.214 146.686 191.21L146.928 190.829L147.127 190.519C147.084 190.088 147.101 189.653 147.177 189.226L147.251 188.912C147.332 188.568 147.436 188.23 147.532 187.893C147.56 187.801 147.655 187.713 147.633 187.63C147.544 187.433 147.466 187.23 147.399 187.023C147.372 186.837 147.769 186.91 147.661 186.575C147.608 186.413 147.763 186.213 147.844 186.047C148.015 185.622 148.237 185.219 148.503 184.848L148.836 184.466C149.287 184.12 150.266 183.476 151.013 183.036L151.689 182.637L152.185 182.342C152.88 182.303 153.571 182.221 154.256 182.096L154.712 182.229L155.106 182.343C155.608 182.232 156.122 182.197 156.633 182.24C157.251 182.29 157.872 182.308 158.492 182.295C158.768 182.278 159.504 182.374 159.526 182.195C159.548 182.016 160.267 182.466 160.637 182.559C161.008 182.652 163.084 182.447 164.607 182.644L165.993 182.917C167.708 183.254 169.422 183.685 171.134 184.088L171.441 184.162C171.777 184.3 171.82 183.889 171.536 183.242C170.852 181.979 170.094 180.759 169.266 179.59L168.732 178.911L168.422 178.516C168.026 178.232 167.668 177.897 167.355 177.519C167.213 177.302 166.481 176.792 166.337 176.618L166.248 176.438C166.199 176.338 166.106 176.332 166.013 176.329C165.894 176.324 165.777 176.322 165.758 176.127C165.749 176.099 165.735 176.074 165.716 176.052C165.698 176.03 165.675 176.012 165.65 175.999C165.517 175.943 164.476 175.268 164.358 175.177C164.266 175.105 164.124 175.092 164.046 175.014C163.636 174.602 162.835 174.668 162.721 173.88L162.714 173.836C162.564 173.776 162.024 173.504 161.52 173.222C161.017 172.94 159.602 172.335 159.469 172.662L159.346 172.043L159.27 171.67C158.972 171.553 158.404 171.297 158.005 171.108C157.606 170.919 156.194 170.307 155.799 170.052L155.441 169.994C155.345 169.975 155.256 169.929 155.183 169.862C155.111 169.795 155.058 169.709 155.03 169.613C155.004 169.548 154.994 169.503 154.984 169.509L154.256 169.948C153.566 169.401 152.955 168.913 152.9 168.864C152.789 168.739 152.687 168.606 152.594 168.466C152.519 168.358 151.856 168.479 151.615 168.242C150.98 167.866 150.304 167.569 149.6 167.356L149.136 167.145C148.773 167.052 148.434 166.881 148.143 166.641C148.024 166.513 147.729 166.563 147.528 166.48L147.416 166.433C147.317 166.289 147.013 166.281 146.743 166.405L146.644 165.902C146.634 165.854 146.187 165.854 145.97 165.75L145.794 165.664C145.561 165.456 145.299 165.284 145.016 165.154L144.781 165.237C144.722 165.257 144.66 165.263 144.599 165.256C144.538 165.249 144.479 165.229 144.426 165.197C144.12 164.893 143.627 164.48 143.341 164.538L142.742 164.656C142.29 164.441 141.827 164.249 141.356 164.082L141.244 163.997C141.007 163.811 140.798 163.519 140.518 163.81C140.496 163.825 140.317 163.725 140.239 163.65C139.923 163.349 139.64 163.205 139.284 163.451C139.157 163.536 139.124 163.418 139.108 163.322C139.099 163.269 139.094 163.221 139.086 163.227L138.71 163.204C138.3 163.083 137.469 162.816 136.856 162.617L136.362 162.332L135.918 162.077C135.424 161.949 134.622 161.716 134.141 161.554L133.69 161.478C133.613 161.446 133.551 161.385 133.516 161.308C133.419 161.167 133.322 161.027 133.132 161.275C133.078 161.344 132.681 161.13 132.444 161.047L132.166 160.95C131.769 160.749 131.354 160.584 130.928 160.458C130.523 160.344 129.015 159.822 128.416 159.686C127.581 159.341 126.765 158.949 125.973 158.51C125.563 158.408 125.159 158.282 124.763 158.133C124.554 158.015 123.75 157.823 123.555 157.717C123.297 157.489 123.066 157.229 122.867 156.945C122.793 156.853 122.661 156.794 122.851 157.138L122.545 157.342C122.352 157.471 122.235 157.435 122.109 157.246C122.026 157.126 121.96 156.864 121.935 156.864L120.939 156.911C120.549 156.447 120.13 156.008 119.686 155.597C119.744 155.699 119.675 155.864 119.421 155.771C118.901 155.559 118.397 155.31 117.912 155.025L117.63 155L117.315 154.972C116.819 154.649 116.274 154.413 115.702 154.272L115.215 153.84L114.873 153.538C114.704 153.539 114.537 153.501 114.385 153.425C114.234 153.35 114.102 153.24 113.999 153.104C113.901 152.886 113.415 152.608 113.284 152.892L112.834 152.585C112.635 152.453 112.414 152.413 112.35 152.14L112.341 152.099C112.243 152.059 111.582 151.87 110.871 151.676L110.488 151.278C110.403 151.183 110.327 151.079 110.263 150.967C110.186 150.818 110.078 150.689 109.947 150.587C109.715 150.436 109.394 150.456 109.114 150.385C108.833 150.324 108.558 150.242 108.289 150.137L108.102 150.058C107.924 149.83 107.791 149.57 107.71 149.29L107.466 149.543C107.435 149.575 107.154 149.389 107.006 149.277L106.544 148.933C106.164 148.671 105.821 148.357 105.524 148.001C105.519 147.874 105.497 147.749 105.459 147.628C105.424 147.631 105.39 147.644 105.361 147.665C105.332 147.685 105.309 147.714 105.295 147.747C105.258 147.831 105.086 148.077 105.022 148.045C104.876 147.814 104.767 147.56 104.701 147.292L104.337 147.604C104.214 147.563 104.106 147.485 104.028 147.379C104.012 147.068 103.791 147.193 103.667 147.112C103.615 147.06 103.581 146.991 103.572 146.917C103.557 146.849 103.529 146.784 103.489 146.728L103.399 146.622C103.247 146.559 102.934 146.453 102.704 146.386C102.175 146.196 101.676 145.927 101.225 145.588L100.826 145.511C100.637 145.488 100.459 145.408 100.314 145.282C100.17 145.156 100.064 144.99 100.012 144.803C99.9978 144.778 99.9792 144.756 99.9569 144.739C99.9345 144.722 99.909 144.709 99.8818 144.702L99.1593 144.792C98.7712 144.185 98.541 143.746 98.6443 143.812C98.7477 143.879 99.0503 143.976 98.9045 143.768L98.9046 143.657C98.9006 143.318 98.6481 143.488 98.5415 143.4C98.3506 143.246 98.2213 143.367 98.096 143.346L97.7435 143.289C97.2223 143.027 97.0104 142.803 97.2722 142.791L97.3508 142.734L97.4158 142.687C97.4112 142.605 97.386 142.525 97.3427 142.456C97.2995 142.387 97.2394 142.33 97.1684 142.291L97.0923 142.322L96.5154 142.545C96.0562 142.194 95.5247 141.8 95.3262 141.672L95.2678 141.566L95.0565 141.188C94.7287 141.01 94.3905 140.853 94.0439 140.717C93.8562 140.655 93.5361 140.112 93.4132 140.044C93.2398 139.897 93.0582 139.76 92.8693 139.634C92.7755 139.623 92.4381 139.493 92.39 139.37C92.2743 139.122 92.1106 138.9 91.9086 138.719C91.4438 138.496 90.964 138.306 90.4727 138.151L90.2516 137.88L89.7775 137.302C89.116 137.001 88.5153 136.578 88.0049 136.055L87.6946 135.724L87.5183 135.537C87.207 135.377 86.925 135.163 86.6842 134.905C86.2382 134.551 85.7511 134.256 85.2336 134.024L85.1485 133.712L85.0585 133.38C84.8591 133.244 84.6431 133.136 84.4158 133.057L84.4069 133.031C84.2276 132.637 83.94 132.306 83.5788 132.076C83.3165 131.895 83.0854 131.67 82.8946 131.411L82.7552 131.196C82.6635 130.922 82.4965 130.692 82.3859 130.686C82.0306 130.542 81.732 130.283 81.5355 129.949C81.3433 129.559 80.129 128.026 79.5005 127.149L78.9653 126.345C78.7476 126.018 78.5916 125.644 78.3599 125.297L78.1061 124.91C78.0103 124.39 77.8969 123.766 77.8562 123.521C77.7964 123.185 77.7568 122.846 77.7379 122.504C77.757 122.431 77.9872 122.214 78.035 122.118C78.0827 122.023 77.7398 121.531 77.6414 121.399L77.6655 121.37L77.8965 121.093C77.8072 120.918 77.6824 120.765 77.5303 120.644C77.3783 120.523 77.2026 120.436 77.0148 120.39C76.762 120.339 76.3872 119.794 76.1577 119.447C76.0997 119.354 76.0364 119.265 75.9679 119.18C75.6462 118.957 75.3669 118.677 75.144 118.352L74.7307 118.329L74.6714 118.325C74.6 118.266 74.3658 118.109 74.1486 117.974C73.8574 117.718 73.5927 117.432 73.359 117.121C73.3059 117.042 73.2575 116.959 73.2142 116.874C73.1706 116.784 73.1193 116.698 73.0607 116.618C72.9941 116.549 72.2519 115.935 71.5998 115.397L71.0546 114.858C70.927 114.674 70.7593 114.523 70.5646 114.416C70.2767 114.289 70.0428 114.062 69.9048 113.774L69.8034 113.468C69.582 113.295 69.2354 113.009 69.0373 112.83L68.8608 112.664C68.6917 112.502 68.3908 112.297 68.3949 112.167L68.4088 111.81C68.1625 111.804 67.917 111.779 67.6744 111.736C67.5666 111.714 67.4315 111.426 67.2992 111.143C67.2303 110.983 67.1502 110.827 67.0593 110.679L66.8394 110.475L66.637 110.288C66.4018 110.148 66.1785 109.988 65.9694 109.81C65.8512 109.697 65.3904 109.175 65.1657 108.921L64.9627 108.689L64.7119 108.402C64.4471 108.078 64.1233 107.686 63.9921 107.53C63.6901 107.258 63.3675 107.011 63.0271 106.791C62.8139 106.656 62.2605 106.034 61.9307 105.779C61.6009 105.525 60.6972 104.119 60.0978 103.59L59.7349 102.988C59.6927 102.926 59.6388 102.873 59.5762 102.832C59.5136 102.792 59.4436 102.765 59.3705 102.753C59.281 102.744 59.196 102.71 59.1256 102.653C59.0551 102.597 59.0024 102.52 58.9735 102.434L58.8939 102.174C58.7239 101.936 58.501 101.742 58.2434 101.609L58.1213 101.533C57.8737 101.378 57.499 101.247 57.7865 100.887C57.801 100.877 57.5928 100.605 57.5234 100.604L57.1121 100.611C56.8849 100.304 56.6814 99.9794 56.5035 99.6403C56.39 99.4967 56.2464 99.3809 56.0832 99.3015C55.9375 99.2315 55.8063 99.1339 55.6965 99.0137C55.6346 98.8666 55.3345 98.3779 55.213 98.3646C55.0916 98.3513 54.8132 98.2316 54.9588 98.1343C55.1045 98.0371 54.4465 97.7067 54.2748 97.5411L54.114 97.3832L53.6294 96.91C53.133 96.4789 52.762 95.917 52.5562 95.2848L52.1193 95.317C52.0696 95.3273 52.0185 95.3266 51.9692 95.3151C51.9199 95.3036 51.8736 95.2814 51.8335 95.2501C51.7934 95.2188 51.7603 95.1791 51.7365 95.1335C51.7127 95.088 51.6988 95.0378 51.6956 94.9862C51.6778 94.8864 51.6298 94.795 51.5584 94.7248C51.425 94.6486 51.3089 94.5446 51.2175 94.4196C51.1261 94.2947 51.0613 94.1514 51.0274 93.999L51.0252 93.9496C50.8832 93.8754 50.725 93.8388 50.5651 93.8434C50.4056 93.8476 49.9829 93.1634 49.765 92.9115L49.5502 92.6883C49.3391 92.4669 49.0076 92.3257 49.0172 91.964C48.9839 91.8928 48.9249 91.8376 48.8524 91.8101L48.2521 91.999C48.0357 91.5908 47.8521 91.1652 47.7034 90.7261C47.3379 90.3339 46.9429 89.9715 46.522 89.6423L46.4667 89.3828C46.4591 89.3019 46.4236 89.2265 46.3666 89.1699C46.3095 89.1134 46.2346 89.0795 46.1551 89.0742C46.1111 89.073 46.0679 89.0622 46.0284 89.0425C45.9889 89.0228 45.954 88.9946 45.9262 88.9599C45.7906 88.7406 45.6131 88.3464 45.5026 88.3441C45.4115 88.3411 45.3237 88.3097 45.2511 88.254C45.1785 88.1983 45.1245 88.121 45.0965 88.0327C45.06 87.9402 45 87.8595 44.9226 87.7989C44.7162 87.6336 44.5559 87.416 44.4576 87.1674L44.3459 86.962C43.9109 86.6328 43.501 86.2706 43.1196 85.8783C42.7449 85.4921 41.677 84.3387 41.5809 84.1785C41.5121 84.0795 41.4359 83.9862 41.353 83.8993C41.2552 83.8002 41.1691 83.6896 41.0967 83.5697C40.8963 83.3688 40.6705 83.1961 40.4252 83.0562C40.1516 82.7279 39.952 82.3421 39.8405 81.9257L39.3175 82.0289L39.295 82.0329C39.0359 81.59 38.7436 81.1684 38.4203 80.7722C38.0644 80.3293 36.9354 79.0603 36.8152 78.8554C36.6399 78.6395 36.4412 78.4447 36.2228 78.2747C36.1144 78.1678 35.683 77.685 35.4789 77.4153L35.4081 77.1538C35.3055 76.7843 35.3059 76.4681 34.7606 76.4012L34.5575 76.3768C34.5046 76.3141 34.4507 76.2421 34.3952 76.1613C34.1971 75.8792 34.042 75.5679 33.9354 75.2379V75.2379ZM89.403 117.367C89.007 117.38 88.6107 117.369 88.2161 117.336C88.0626 117.29 87.6408 117.092 87.6068 117.193C87.5727 117.294 86.8645 117.244 86.4807 117.214L86.1737 117.354C86.002 117.432 85.7669 117.571 85.6274 117.499C85.5346 117.431 85.4202 117.4 85.306 117.413C85.1918 117.426 85.0861 117.481 85.009 117.568C84.8033 117.732 84.3878 117.667 84.2024 117.843L83.8892 118.138C83.5206 117.961 83.3256 117.971 83.4475 118.151C83.5694 118.331 83.8616 118.884 84.0002 118.916C84.1388 118.948 84.5604 119.222 84.7171 119.249C84.8739 119.275 85.2338 119.829 85.5022 120.003C85.7705 120.178 86.6932 120.625 86.9473 120.846C87.2013 121.066 88.1104 121.184 88.225 121.366L88.3766 121.471C88.4833 121.543 88.6698 121.456 88.8062 121.509C88.8437 121.524 88.8737 121.591 88.9031 121.661C88.9325 121.73 88.958 121.793 88.9921 121.803L89.3071 121.892C89.6315 121.941 89.9416 122.059 90.2171 122.24C90.7824 122.499 91.3678 122.71 91.9673 122.872L92.43 123.107L92.8761 123.334C93.1923 123.261 93.504 123.351 93.5667 123.534L93.6658 123.585L93.8893 123.701C94.1587 123.763 94.7256 123.86 95.149 123.916C95.5724 123.972 96.9083 124.385 97.18 124.433L97.42 124.517L97.6531 124.599C97.8145 124.57 97.9781 124.555 98.1418 124.555L98.1651 124.538C98.2214 124.508 98.3091 124.469 98.3041 124.424L98.3023 124.335C98.2032 124.167 98.0879 124.01 97.9579 123.866C97.6645 123.545 97.3325 123.263 96.9701 123.026L96.7427 122.908L96.4623 122.762C96.0945 122.495 95.7552 122.19 95.4499 121.851L95.1039 121.657L94.8389 121.508C94.8372 121.23 94.7554 120.96 94.6039 120.73L94.508 120.724L94.0262 120.692C93.7149 120.46 93.2479 120.098 92.9904 119.887L92.7377 119.737C92.4507 119.567 92.0484 119.484 92.3225 119.054C92.3322 119.038 92.1133 118.788 92.0404 118.793L91.7165 118.818C91.386 118.892 91.0958 118.866 91.0657 118.767C91.0357 118.668 91.0483 118.447 91.1474 118.486C91.2465 118.526 91.3086 118.505 90.9164 118.32C90.5242 118.135 89.5242 118.001 89.6068 117.855C89.6367 117.794 89.6509 117.727 89.6481 117.659C89.6454 117.591 89.6257 117.524 89.5911 117.467C89.5699 117.435 89.5413 117.41 89.508 117.393C89.4747 117.375 89.4378 117.367 89.4003 117.368L89.403 117.367ZM170.737 190.533L170.184 190.304C169.95 190.206 169.725 190.081 169.486 189.995L169.155 189.878C169.224 190.101 169.171 190.211 169.036 190.122C168.675 189.916 168.297 189.743 167.906 189.606L167.689 189.785C167.378 190.04 167.028 189.721 166.704 189.733C166.382 189.712 166.064 189.657 165.754 189.569C165.439 189.529 165.127 189.467 164.822 189.381C164.305 189.155 163.721 189.147 163.196 189.358C162.996 189.453 162.874 189.564 162.659 189.312C162.488 189.112 162.358 189.148 162.212 189.296C162.172 189.335 161.937 189.148 161.838 189.173C161.739 189.197 161.675 189.46 161.648 189.448L161.131 189.207C160.632 189.321 160.064 189.437 159.869 189.464C159.674 189.49 158.524 189.305 157.757 189.198L157.066 189.316L156.545 189.404C155.921 189.277 155.377 189.292 155.333 189.439L155.274 189.437L155.15 189.436C154.831 189.364 154.5 189.377 154.187 189.476C153.807 189.573 152.628 189.958 152.385 190.056C151.931 190.275 151.501 190.543 151.103 190.856C150.87 191.08 151.255 192.153 151.308 192.283C151.431 192.515 151.623 192.7 151.856 192.813C152.064 192.866 152.818 193.338 153.277 193.562C153.736 193.785 155.27 194.49 155.689 194.605C156.678 194.817 157.677 194.977 158.683 195.086L159.399 195.479C159.439 195.501 159.512 195.416 159.576 195.419C159.871 195.435 160.292 195.596 160.44 195.46C160.784 195.158 161.039 195.706 161.323 195.615C161.369 195.599 161.482 195.704 161.516 195.685C162.013 195.399 162.651 195.665 163.188 195.568C163.741 195.469 164.256 195.274 164.829 195.211C165.317 195.156 165.796 195.041 166.257 194.867C166.675 194.708 167.142 194.672 167.561 194.492L167.938 194.331C168.317 194.277 168.687 194.174 169.041 194.025L169.03 193.95C168.963 193.503 169.102 193.445 169.51 193.697C169.567 193.733 169.781 193.542 169.862 193.416L169.927 193.317C170.082 193.08 170.258 192.858 170.453 192.654L170.851 192.589L171.147 192.545C171.383 192.28 171.66 192.056 171.967 191.883C172.14 191.818 172.092 191.184 172.192 191.056C172.203 191.041 172.201 191.025 172.189 191.007C171.743 190.744 171.247 190.583 170.734 190.534L170.737 190.533Z" fill="#FE6711"/>
</svg>
