<svg width="172" height="179" viewBox="0 0 172 179" fill="none" xmlns="http://www.w3.org/2000/svg">
<path d="M99.4523 53.9183C102.936 62.7723 107.443 70.879 113.994 77.6959C119.76 83.6971 126.664 88.3395 133.861 92.3402C142.627 97.2124 151.792 101.293 160.652 105.981C161.516 106.438 162.696 105.888 163.42 105.342C163.807 105.05 165.022 103.815 164.155 103.357C149.053 95.3667 132.341 89.1813 119.671 77.2277C113.132 70.9121 107.981 63.232 104.555 54.6882C103.271 51.6126 102.122 48.4742 100.899 45.3709C99.6714 46.4881 98.5593 47.7327 97.5809 49.0843C98.2039 50.6961 98.8207 52.3113 99.4523 53.9183Z" fill="#554140"/>
<path d="M93.3048 39.0377C94.7805 41.9417 96.0183 44.9591 97.2056 47.9994C98.2108 46.6941 99.3447 45.4983 100.589 44.4314C99.9265 42.7579 99.2326 41.0989 98.4847 39.4637C96.2338 34.571 93.3685 30.0086 89.9609 25.8913C87.3821 22.774 84.6077 19.8336 81.655 17.0884L77.6988 19.2804C79.9011 21.3244 82.0242 23.4563 84.0281 25.7095C87.6671 29.7197 90.7847 34.1988 93.3048 39.0377V39.0377Z" fill="#554140"/>
<path d="M76.1477 37.4468C78.887 41.3361 81.1914 45.5324 83.0185 49.9582C86.0852 57.0394 88.0279 64.6366 90.9367 71.7859C91.2828 68.4803 91.5411 65.1446 92.0548 61.8834C90.6131 57.6067 89.2447 53.2966 87.5295 49.1581C85.7569 44.7166 83.5495 40.4763 80.9408 36.5018C78.5219 33.0182 75.511 30.0138 72.0493 27.6297C70.6474 26.627 69.2074 25.682 67.7294 24.7945L63.6185 27.0711C64.6417 27.6748 65.649 28.3034 66.6402 28.9568C70.2788 31.1846 73.4972 34.0585 76.1477 37.4468V37.4468Z" fill="#554140"/>
<path d="M91.5084 73.3015C92.3781 75.3671 93.3647 77.3772 94.4631 79.3217C97.1068 84.0688 100.774 88.1212 105.187 91.173C109.809 94.1403 114.727 96.5996 119.86 98.5112C125.673 100.843 131.368 103.36 137.022 106.063C142.73 108.798 148.433 111.544 154.317 113.874C155.603 114.386 159.076 111.745 157.175 110.994C146.65 106.825 136.748 101.219 126.235 97.0186C121.059 95.1155 116.034 92.8153 111.201 90.1373C106.484 87.4324 102.469 83.6126 99.4844 78.9881C96.4242 74.1916 94.3981 68.8878 92.5554 63.4966C92.1141 66.6479 91.8868 69.8358 91.546 72.9936L91.5084 73.3015Z" fill="#554140"/>
<path d="M87.0147 90.2437C87.5229 90.9045 88.0366 91.5602 88.5618 92.2074C95.0077 100.335 103.354 106.643 112.839 110.556C123.873 115.012 135.705 116.899 146.913 120.8C148.221 121.255 151.679 118.587 149.769 117.923C139.79 114.453 129.341 112.575 119.373 109.07C109.61 105.705 100.89 99.8033 94.0482 91.9309C92.2774 89.8843 90.6078 87.7488 89.0118 85.5542C88.7468 86.3019 88.4595 87.0443 88.1497 87.7814C87.7968 88.6173 87.4185 89.4381 87.0147 90.2437Z" fill="#554140"/>
<path d="M61.1155 50.5671C64.6743 54.9387 67.8859 59.5982 70.72 64.5017C75.7712 72.8609 80.6058 81.4505 86.5026 89.2224C87.2627 87.682 87.9328 86.0976 88.5095 84.4776C83.99 78.1756 80.0505 71.3997 76.0912 64.7473C73.2856 59.8434 70.1919 55.122 66.8272 50.6087C63.9575 46.772 60.3961 43.5407 56.3324 41.0865C53.2357 39.3364 50.0358 37.7821 46.7504 36.4321L42.566 38.751C45.0983 39.8498 47.6273 40.9423 50.046 42.1869C54.2394 44.2107 57.9988 47.0568 61.1155 50.5671V50.5671Z" fill="#554140"/>
<path d="M57.8659 77.8546C64.7039 85.5182 71.0744 93.7027 78.463 100.826C79.4567 99.763 80.4035 98.6628 81.3032 97.5254C74.9379 91.2343 69.3038 84.2024 63.3734 77.477C56.2389 69.3839 48.7978 61.4762 40.2778 54.9048C36.3703 51.8835 32.216 49.2115 27.8594 46.9172L23.7264 49.209C27.4354 51.1062 30.9964 53.2892 34.3792 55.7396C43.0962 62.0413 50.6854 69.8086 57.8659 77.8546Z" fill="#554140"/>
<path d="M79.995 102.704C87.7065 109.895 96.4441 115.836 105.914 120.326C116.835 125.429 128.592 128.448 140.618 129.236C141.158 129.212 141.688 129.062 142.167 128.796C142.645 128.531 143.06 128.157 143.379 127.704C143.913 126.876 143.538 126.356 142.654 126.296C121.431 124.852 101.473 115.999 85.484 101.891C84.2291 100.784 83.01 99.6387 81.8148 98.4704C80.9131 99.5983 79.966 100.687 78.9734 101.737C79.3121 102.061 79.6508 102.385 79.995 102.704Z" fill="#554140"/>
<path d="M13.312 66.9889C19.1411 69.6105 24.7621 72.413 29.8761 76.3229C34.4261 79.9693 38.7679 83.8806 42.8805 88.0381C50.7216 95.6114 58.6045 103.233 66.8146 110.399C68.039 109.595 69.2428 108.757 70.426 107.885C63.1206 101.513 56.1527 94.7095 49.1225 88.0417C44.8263 83.9661 40.6736 79.7159 36.138 75.9141C31.4275 71.9946 26.2412 68.7158 20.7047 66.1571C17.1973 64.5097 13.657 62.9375 10.0836 61.4406C8.5031 60.771 6.91682 60.0863 5.32032 59.4226L1.08069 61.7746C1.98899 62.148 2.89502 62.5268 3.80056 62.9008C6.9907 64.2162 10.1612 65.5789 13.312 66.9889Z" fill="#554140"/>
<path d="M67.3633 111.412C67.9034 111.882 68.4441 112.35 68.9854 112.817C77.9445 120.5 87.6376 127.412 98.6171 131.732C104.573 134.075 110.719 134.645 117.075 134.872C123.209 135.09 129.418 135.176 135.26 137.239C136.564 137.699 140.02 135.038 138.113 134.365C127.586 130.652 116.086 133.266 105.429 130.237C99.8701 128.505 94.5619 126.04 89.6361 122.902C84.6112 119.806 79.81 116.347 75.2684 112.549C73.8151 111.351 72.3774 110.132 70.9553 108.894C70.6668 109.11 70.3747 109.325 70.0789 109.539C69.1879 110.184 68.2774 110.807 67.3633 111.412Z" fill="#554140"/>
<path d="M135.108 137.358C129.264 135.245 123.071 135.106 116.952 134.838C110.61 134.559 104.475 133.939 98.5181 131.542C87.536 127.125 77.8191 120.122 68.8303 112.352C68.2843 111.881 67.7406 111.408 67.1993 110.934C68.1104 110.331 69.0099 109.712 69.8978 109.077C70.1883 108.867 70.4787 108.653 70.7675 108.437C72.1961 109.687 73.6387 110.919 75.0952 112.134C79.652 115.976 84.4651 119.482 89.4986 122.624C94.434 125.808 99.7458 128.321 105.303 130.101C115.954 133.222 127.409 130.698 137.934 134.502C139.684 135.135 136.933 137.416 135.463 137.416C135.342 137.417 135.222 137.397 135.108 137.358V137.358ZM140.47 129.333C128.475 128.446 116.732 125.329 105.809 120.13C96.3372 115.558 87.5852 109.539 79.8465 102.275C79.5017 101.953 79.1614 101.625 78.8201 101.298C79.8007 100.254 80.7378 99.1711 81.6315 98.0497C82.8311 99.2254 84.0535 100.386 85.3135 101.506C101.35 115.761 121.311 124.788 142.481 126.407C143.363 126.474 143.74 126.999 143.212 127.823C142.908 128.254 142.516 128.614 142.066 128.875C141.615 129.137 141.115 129.295 140.599 129.339C140.556 129.337 140.513 129.336 140.47 129.336V129.333ZM146.777 120.892C135.577 116.899 123.775 114.913 112.75 110.364C103.272 106.371 94.9122 99.9901 88.432 91.8023C87.907 91.1493 87.3887 90.4897 86.8771 89.8235C87.2732 89.021 87.6454 88.2025 87.9936 87.368C88.299 86.6328 88.579 85.8921 88.838 85.145C90.4436 87.3554 92.1219 89.5052 93.8999 91.5662C100.773 99.5014 109.503 105.478 119.253 108.924C129.21 112.512 139.636 114.479 149.602 118.032C151.358 118.657 148.599 120.942 147.128 120.943C147.01 120.946 146.893 120.928 146.78 120.892H146.777ZM154.186 113.979C148.314 111.6 142.62 108.808 136.92 106.027C131.275 103.273 125.588 100.716 119.787 98.34C114.665 96.3869 109.755 93.8878 105.134 90.8833C100.721 87.7966 97.0444 83.7148 94.3802 78.9455C94.0209 78.3173 93.6756 77.6841 93.3442 77.0463C92.6442 75.6897 91.9994 74.307 91.3965 72.9061C91.4079 72.803 91.4192 72.6998 91.4297 72.5985C91.7465 69.4432 91.9547 66.2588 92.3695 63.1116C94.2402 68.5171 96.293 73.8357 99.3695 78.657C102.373 83.3062 106.394 87.1583 111.108 89.9003C115.936 92.6182 120.955 94.9591 126.121 96.9038C136.614 101.19 146.508 106.875 157.008 111.13C158.737 111.829 156.038 114.054 154.572 114.054C154.44 114.054 154.31 114.028 154.186 113.979L154.186 113.979ZM42.7106 87.9207C38.5891 83.7308 34.2416 79.7852 29.6889 76.103C24.5737 72.1527 18.9588 69.3039 13.14 66.6351C9.99879 65.1941 6.83479 63.8075 3.64805 62.475C2.74505 62.0943 1.84117 61.7072 0.935547 61.3265L5.13554 59.0094C6.72804 59.6868 8.31179 60.384 9.89029 61.065C13.4527 62.5995 16.9868 64.2 20.4927 65.8665C26.0159 68.4693 31.1961 71.7882 35.9084 75.7431C40.4479 79.5813 44.6094 83.8644 48.9126 87.9739C55.9573 94.7007 62.9371 101.56 70.2504 107.99C69.0837 108.853 67.8928 109.682 66.6777 110.477C58.4624 103.242 50.5664 95.5572 42.7115 87.9216L42.7106 87.9207ZM160.532 106.054C151.694 101.299 142.554 97.1471 133.807 92.2083C126.626 88.1531 119.731 83.4567 113.958 77.4163C109.682 72.8814 106.066 67.7283 103.223 62.1187C101.79 59.3295 100.494 56.4672 99.3415 53.5425C98.7019 51.9318 98.0797 50.3119 97.448 48.6967C98.4119 47.3543 99.509 46.1197 100.721 45.0132C101.958 48.1242 103.124 51.2651 104.419 54.35C107.884 62.9154 113.056 70.6301 119.599 76.9913C132.275 89.0385 148.929 95.35 163.997 103.46C164.861 103.924 163.663 105.147 163.279 105.437C162.701 105.9 162.003 106.176 161.273 106.229C161.016 106.234 160.762 106.174 160.533 106.055L160.532 106.054ZM57.7116 77.7256C50.5226 69.6296 42.9241 61.8086 34.2188 55.4453C30.8399 52.9698 27.2859 50.7602 23.5867 48.8352L27.679 46.5786C32.0244 48.9054 36.1715 51.608 40.076 54.6575C48.5933 61.2921 56.0369 69.2505 63.183 77.3927C69.1216 84.1593 74.7706 91.2297 81.1389 97.5604C80.254 98.6903 79.3206 99.7817 78.3389 100.834C70.9477 93.6644 64.562 85.4373 57.7125 77.7265L57.7116 77.7256ZM70.5575 64.3805C67.7116 59.4622 64.4932 54.7845 60.9325 50.3915C57.8142 46.8608 54.0634 43.9882 49.8874 41.9329C47.4776 40.6667 44.9603 39.5607 42.4394 38.4438L46.5773 36.163C49.8477 37.5375 53.0345 39.1157 56.12 40.8892C60.1694 43.3702 63.7262 46.6234 66.6016 50.4757C69.9722 55.0078 73.075 59.746 75.8932 64.6645C79.8684 71.3361 83.826 78.1315 88.3541 84.4595C87.7929 86.0717 87.1384 87.6476 86.3941 89.1785C80.4852 81.3792 75.6281 72.7668 70.5584 64.3814L70.5575 64.3805ZM82.881 49.8199C81.0402 45.3894 78.7276 41.1848 75.986 37.2836C73.3351 33.8814 70.1249 30.9888 66.5028 28.7381C65.5169 28.0779 64.5145 27.4423 63.4954 26.8315L67.5554 24.5933C69.0248 25.4929 70.4583 26.4473 71.856 27.4566C75.303 29.8628 78.308 32.8842 80.7302 36.3792C83.3428 40.3645 85.5596 44.612 87.347 49.0575C89.076 53.1996 90.462 57.51 91.9197 61.7886C91.4332 65.038 91.1996 68.3644 90.8785 71.6582C87.9472 64.5072 85.968 56.9131 82.8819 49.8245L82.881 49.8199ZM93.199 38.9086C90.6643 34.0592 87.54 29.5649 83.9021 25.5348C81.8992 23.2684 79.78 21.124 77.5811 19.0666L81.4906 16.9123C84.4388 19.6736 87.2116 22.6286 89.7917 25.7589C93.1999 29.8965 96.0728 34.475 98.3379 39.3789C99.0903 41.0167 99.7868 42.679 100.459 44.353C99.235 45.4061 98.1207 46.5881 97.1339 47.88C95.9316 44.844 94.683 41.8226 93.1999 38.9133L93.199 38.9086Z" fill="#3B3430"/>
</svg>
