<svg width="1693" height="492" viewBox="0 0 1693 492" fill="none" xmlns="http://www.w3.org/2000/svg">
<path fill-rule="evenodd" clip-rule="evenodd" d="M21.1783 1.94636C15.5677 7.27381 10.2091 15.4591 8.14244 23.9645C6.74347 29.7274 6.85012 35.638 9.33593 40.9308C9.55079 41.3865 10.0938 41.5808 10.5495 41.366C11.0085 41.1527 11.2027 40.6097 10.9878 40.154C8.67725 35.2405 8.61551 29.7506 9.91735 24.3996C11.9027 16.2326 17.0481 8.38144 22.4364 3.27399C22.7999 2.92422 22.816 2.34635 22.4711 1.98117C22.1213 1.61766 21.5435 1.60148 21.1783 1.94636Z" fill="black"/>
<path fill-rule="evenodd" clip-rule="evenodd" d="M1671.45 448.814C1665.84 454.141 1660.48 462.327 1658.42 470.832C1657.02 476.595 1657.13 482.506 1659.61 487.798C1659.83 488.254 1660.37 488.448 1660.82 488.234C1661.28 488.02 1661.48 487.477 1661.26 487.022C1658.95 482.108 1658.89 476.618 1660.19 471.267C1662.18 463.1 1667.32 455.249 1672.71 450.142C1673.07 449.792 1673.09 449.214 1672.75 448.849C1672.4 448.485 1671.82 448.469 1671.45 448.814Z" fill="black"/>
<path fill-rule="evenodd" clip-rule="evenodd" d="M35.1462 5.1822C29.5356 10.5097 24.177 18.695 22.1103 27.2003C20.7114 32.9632 20.818 38.8739 23.3038 44.1666C23.5187 44.6223 24.0617 44.8167 24.5174 44.6018C24.9763 44.3886 25.1706 43.8456 24.9557 43.3898C22.6451 38.4763 22.5834 32.9865 23.8852 27.6355C25.8706 19.4684 31.016 11.6173 36.4043 6.50983C36.7678 6.16006 36.7839 5.58219 36.439 5.21701C36.0892 4.85349 35.5114 4.83732 35.1462 5.1822Z" fill="black"/>
<path fill-rule="evenodd" clip-rule="evenodd" d="M1685.42 452.05C1679.81 457.377 1674.45 465.563 1672.39 474.068C1670.99 479.831 1671.09 485.742 1673.58 491.034C1673.79 491.49 1674.34 491.684 1674.79 491.469C1675.25 491.256 1675.45 490.713 1675.23 490.258C1672.92 485.344 1672.86 479.854 1674.16 474.503C1676.15 466.336 1681.29 458.485 1686.68 453.378C1687.04 453.028 1687.06 452.45 1686.71 452.085C1686.36 451.721 1685.79 451.705 1685.42 452.05Z" fill="black"/>
</svg>
