<svg width="103" height="104" viewBox="0 0 103 104" fill="none" xmlns="http://www.w3.org/2000/svg">
<g clip-path="url(#clip0_324:186)">
<path fill-rule="evenodd" clip-rule="evenodd" d="M14.5637 50.4205C38.7782 32.2828 69.5339 34.5753 87.6857 59.479C88.29 60.3082 89.4492 60.5002 90.2705 59.9177C91.0984 59.3209 91.279 58.1673 90.6747 57.3381C71.2245 30.6314 38.2686 28.0264 12.3179 47.4579C11.5073 48.0625 11.348 49.2263 11.9673 50.0452C12.5931 50.85 13.753 51.0252 14.5637 50.4205Z" fill="black"/>
<path d="M62.4082 60.3956C59.6933 59.1406 56.4954 60.3037 55.2654 62.9935C54.0355 65.6833 55.2394 68.8812 57.9544 70.1362C60.6693 71.3913 63.8671 70.2281 65.0971 67.5383C66.327 64.8485 65.1231 61.6506 62.4082 60.3956Z" fill="black"/>
<path d="M39.6887 56.1691C37.0269 54.9386 33.8914 56.0789 32.6856 58.7162C31.4797 61.3534 32.66 64.4888 35.3219 65.7193C37.9838 66.9498 41.1191 65.8094 42.325 63.1721C43.5309 60.5349 42.3506 57.3995 39.6887 56.1691Z" fill="black"/>
</g>
<defs>
<clipPath id="clip0_324:186">
<rect width="77.1551" height="76.2963" fill="white" transform="matrix(-0.907606 -0.419554 0.415792 -0.909337 70.873 102.92)"/>
</clipPath>
</defs>
</svg>
