<svg width="148" height="152" viewBox="0 0 148 152" fill="none" xmlns="http://www.w3.org/2000/svg">
<path d="M85.2504 45.6699C88.2475 53.1921 92.1188 60.0819 97.7367 65.8809C102.681 70.986 108.597 74.9399 114.762 78.3497C122.271 82.5023 130.122 85.9841 137.711 89.9799C138.451 90.3695 139.46 89.9048 140.078 89.4434C140.409 89.1958 141.446 88.1503 140.703 87.7593C127.767 80.9481 113.456 75.6655 102.593 65.4944C96.9863 60.121 92.5652 53.5921 89.6181 46.3333C88.5137 43.7201 87.5248 41.054 86.4724 38.4175C85.4242 39.3635 84.4749 40.4178 83.6402 41.5631C84.1762 42.9324 84.707 44.3047 85.2504 45.6699Z" fill="#554140"/>
<path d="M79.9815 33.0977C81.2487 35.5648 82.3127 38.1275 83.3336 40.7096C84.1908 39.604 85.1583 38.5915 86.2201 37.6886C85.6507 36.2673 85.0543 34.8583 84.4117 33.4693C82.4779 29.3133 80.0194 25.4364 77.0978 21.9362C74.8869 19.286 72.509 16.7856 69.979 14.4506L66.5999 16.3028C68.487 18.0415 70.3064 19.8546 72.0241 21.7704C75.1434 25.1802 77.8175 28.9869 79.9815 33.0977V33.0977Z" fill="#554140"/>
<path d="M65.2609 31.7396C67.61 35.0447 69.5878 38.6095 71.158 42.3681C73.7928 48.3821 75.4676 54.8317 77.9675 60.9031C78.2574 58.0992 78.472 55.2695 78.9053 52.5036C77.6649 48.8722 76.4871 45.2127 75.0131 41.6981C73.4895 37.9262 71.5945 34.3243 69.3569 30.9471C67.2826 27.9867 64.703 25.4318 61.7391 23.4023C60.5386 22.5489 59.3058 21.7443 58.0407 20.9884L54.5303 22.9121C55.4061 23.4263 56.2684 23.9615 57.1171 24.5179C60.2319 26.4151 62.9887 28.8597 65.2609 31.7396V31.7396Z" fill="#554140"/>
<path d="M78.4441 62.1206C79.1924 63.8759 80.0405 65.5845 80.9842 67.2376C83.2558 71.273 86.4018 74.7206 90.1849 77.3202C94.1467 79.8484 98.3603 81.946 102.757 83.5789C107.738 85.5696 112.617 87.7183 117.462 90.0239C122.352 92.3572 127.238 94.6992 132.279 96.6891C133.381 97.126 136.348 94.8902 134.72 94.2495C125.704 90.6895 117.218 85.9109 108.212 82.3241C103.778 80.6982 99.472 78.7356 95.331 76.4526C91.288 74.1469 87.845 70.896 85.2816 66.964C82.6534 62.8858 80.9095 58.3789 79.3223 53.7981C78.9503 56.4728 78.7617 59.1788 78.4757 61.8593L78.4441 62.1206Z" fill="#554140"/>
<path d="M74.589 76.5012C75.0254 77.0633 75.4664 77.6212 75.9173 78.1718C81.4515 85.0863 88.6098 90.4597 96.7387 93.8014C106.194 97.6069 116.329 99.2324 125.933 102.567C127.053 102.956 130.009 100.697 128.373 100.129C119.822 97.1634 110.872 95.5479 102.33 92.552C93.9649 89.6757 86.4869 84.6465 80.6145 77.9476C79.0945 76.2062 77.661 74.3894 76.2904 72.5226C76.0649 73.157 75.8202 73.7869 75.5563 74.4123C75.2557 75.1215 74.9333 75.8178 74.589 76.5012Z" fill="#554140"/>
<path d="M52.3725 42.8762C55.4243 46.5928 58.1795 50.5531 60.6125 54.7197C64.9479 61.8231 69.0985 69.1216 74.1561 75.7283C74.8034 74.4226 75.3736 73.0793 75.8639 71.7058C71.9869 66.3491 68.6052 60.5915 65.2068 54.9385C62.7982 50.7716 60.1436 46.759 57.2577 42.9226C54.7962 39.6612 51.7443 36.9122 48.2644 34.8217C45.6126 33.3305 42.873 32.0053 40.0606 30.8534L36.4861 32.8131C38.6539 33.7505 40.8189 34.6824 42.8898 35.7433C46.48 37.4689 49.7005 39.8913 52.3725 42.8762V42.8762Z" fill="#554140"/>
<path d="M49.5985 66.0569C55.4629 72.5748 60.9284 79.5339 67.2631 85.5942C68.1113 84.694 68.9193 83.7621 69.687 82.7984C64.2295 77.4463 59.3961 71.4669 54.3099 65.747C48.1909 58.864 41.8099 52.1377 34.5083 46.5435C31.1596 43.9716 27.6004 41.6955 23.8688 39.7397L20.3368 41.6769C23.5136 43.2944 26.5643 45.1542 29.4631 47.2406C36.9327 52.6062 43.4402 59.2136 49.5985 66.0569Z" fill="#554140"/>
<path d="M68.5711 87.0789C75.1883 93.2019 82.6819 98.2646 90.7998 102.097C100.162 106.452 110.236 109.039 120.536 109.732C120.999 109.713 121.452 109.586 121.862 109.361C122.271 109.137 122.626 108.82 122.898 108.435C123.354 107.733 123.031 107.291 122.275 107.238C104.096 105.971 86.9887 98.4125 73.2703 86.3991C72.1936 85.4559 71.1475 84.4811 70.1218 83.4865C69.3517 84.4428 68.5425 85.3658 67.6945 86.2556C67.9851 86.5315 68.2758 86.8073 68.5711 87.0789Z" fill="#554140"/>
<path d="M11.4049 56.779C16.399 59.016 21.2152 61.4061 25.5996 64.7356C29.5007 67.8401 33.2241 71.1693 36.7518 74.7069C43.4769 81.1517 50.238 87.6376 57.2784 93.7377C58.3249 93.057 59.3537 92.3478 60.3648 91.6102C54.1003 86.1862 48.1239 80.3966 42.0944 74.7221C38.4098 71.2536 34.8476 67.6372 30.9585 64.4006C26.9195 61.0638 22.4744 58.2701 17.7309 56.0871C14.7259 54.6817 11.6928 53.3401 8.63153 52.0622C7.27755 51.4907 5.91857 50.9063 4.55088 50.3397L0.926444 52.3283C1.70455 52.6471 2.48073 52.9705 3.25649 53.2897C5.98939 54.4127 8.70554 55.5757 11.4049 56.779Z" fill="#554140"/>
<path d="M57.741 94.4613C58.2044 94.8611 58.6684 95.2599 59.1329 95.6574C66.8206 102.201 75.1356 108.092 84.5476 111.783C89.6536 113.785 94.9186 114.281 100.363 114.486C105.617 114.683 110.936 114.768 115.943 116.532C117.061 116.925 120.016 114.671 118.381 114.096C109.358 110.921 99.5124 113.12 90.3793 110.526C85.6148 109.044 81.0638 106.94 76.839 104.265C72.5294 101.625 68.4108 98.6769 64.5138 95.442C63.2669 94.4214 62.0333 93.3837 60.8129 92.3288C60.5662 92.5116 60.3164 92.6938 60.0634 92.8754C59.3015 93.421 58.5228 93.949 57.741 94.4613Z" fill="#554140"/>
<path d="M115.806 116.564C110.797 114.77 105.489 114.652 100.243 114.425C94.8073 114.188 89.549 113.662 84.443 111.626C75.0298 107.876 66.701 101.931 58.9963 95.3354C58.5283 94.9351 58.0623 94.5336 57.5983 94.1308C58.3793 93.619 59.1503 93.0936 59.9113 92.5546C60.1603 92.3764 60.4093 92.1945 60.6568 92.0117C61.8813 93.0728 63.1178 94.1187 64.3663 95.1496C68.2721 98.4115 72.3976 101.388 76.712 104.056C80.9423 106.759 85.4953 108.892 90.2585 110.403C99.3883 113.053 109.207 110.91 118.228 114.14C119.728 114.677 117.37 116.613 116.11 116.613C116.007 116.614 115.904 116.598 115.806 116.564V116.564ZM120.402 109.751C110.12 108.998 100.055 106.352 90.692 101.938C82.5736 98.0567 75.0719 92.9466 68.4388 86.7799C68.1433 86.5065 67.8515 86.228 67.559 85.9508C68.3995 85.0643 69.2028 84.1449 69.9688 83.1929C70.997 84.191 72.0448 85.1761 73.1248 86.1274C86.8708 98.2292 103.98 105.892 122.125 107.268C122.881 107.324 123.205 107.77 122.752 108.469C122.491 108.836 122.156 109.14 121.769 109.363C121.383 109.585 120.954 109.719 120.513 109.757C120.475 109.755 120.438 109.754 120.402 109.754V109.751ZM125.808 102.585C116.208 99.1951 106.092 97.509 96.6418 93.647C88.518 90.2575 81.3522 84.8402 75.7978 77.889C75.3478 77.3347 74.9035 76.7747 74.465 76.2091C74.8045 75.5279 75.1235 74.8329 75.422 74.1245C75.6838 73.5003 75.9238 72.8715 76.1458 72.2373C77.522 74.1138 78.9605 75.9389 80.4845 77.6887C86.3755 84.4253 93.8585 89.4995 102.216 92.4247C110.751 95.4712 119.687 97.1404 128.229 100.157C129.734 100.688 127.369 102.628 126.109 102.629C126.008 102.631 125.907 102.616 125.811 102.585H125.808ZM132.158 96.7159C127.126 94.6966 122.245 92.3265 117.359 89.9655C112.521 87.6276 107.646 85.4563 102.673 83.4394C98.2835 81.7812 94.0743 79.6596 90.1138 77.1089C86.3316 74.4884 83.1799 71.0231 80.8963 66.9742C80.5883 66.4408 80.2923 65.9033 80.0083 65.3617C79.4083 64.2101 78.8555 63.0362 78.3388 61.8469C78.3485 61.7594 78.3583 61.6718 78.3673 61.5858C78.6388 58.907 78.8173 56.2036 79.1728 53.5317C80.7763 58.1208 82.5358 62.6361 85.1728 66.7292C87.747 70.6762 91.194 73.9465 95.234 76.2744C99.3728 78.5817 103.674 80.5691 108.103 82.22C117.097 85.8586 125.578 90.6856 134.578 94.2973C136.06 94.8908 133.746 96.7796 132.49 96.7796C132.376 96.7797 132.264 96.7583 132.159 96.7167L132.158 96.7159ZM36.608 74.5937C33.0753 71.0367 29.3489 67.687 25.4465 64.561C21.062 61.2073 16.2493 58.7887 11.2618 56.523C8.56928 55.2997 5.85728 54.1225 3.12578 52.9913C2.35178 52.6681 1.57703 52.3394 0.800781 52.0162L4.40078 50.0491C5.76578 50.6242 7.12328 51.2161 8.47628 51.7943C11.5298 53.0969 14.559 54.4557 17.564 55.8705C22.2982 58.0802 26.7384 60.8978 30.7775 64.2554C34.6685 67.5139 38.2355 71.1501 41.924 74.6389C47.9623 80.3497 53.945 86.1726 60.2135 91.6316C59.2135 92.3646 58.1928 93.0684 57.1513 93.743C50.1095 87.6007 43.3415 81.0769 36.6088 74.5945L36.608 74.5937ZM137.598 89.9886C130.023 85.9516 122.188 82.4266 114.691 78.2338C108.535 74.791 102.625 70.8039 97.6775 65.6759C94.0121 61.8259 90.9125 57.4511 88.4758 52.6888C87.2474 50.3209 86.137 47.8909 85.1488 45.4079C84.6005 44.0405 84.0673 42.6653 83.5258 41.294C84.352 40.1543 85.2923 39.1062 86.3315 38.1668C87.3913 40.808 88.391 43.4745 89.501 46.0934C92.4709 53.3651 96.9042 59.9147 102.512 65.3151C113.377 75.5427 127.653 80.901 140.568 87.7857C141.308 88.1804 140.281 89.2184 139.953 89.4641C139.457 89.8575 138.859 90.0915 138.233 90.1367C138.013 90.1409 137.795 90.0904 137.599 89.9893L137.598 89.9886ZM49.466 65.9385C43.304 59.0653 36.791 52.4255 29.3293 47.0234C26.4331 44.9217 23.3868 43.0458 20.216 41.4115L23.7238 39.4958C27.4484 41.4712 31.0031 43.7656 34.3498 46.3545C41.6503 51.987 48.0305 58.7435 54.1558 65.6558C59.246 71.4004 64.088 77.403 69.5465 82.7775C68.788 83.7367 67.988 84.6633 67.1465 85.557C60.8113 79.47 55.3378 72.4854 49.4668 65.9393L49.466 65.9385ZM60.4768 54.609C58.0374 50.4335 55.2788 46.4623 52.2268 42.7329C49.554 39.7354 46.3389 37.2967 42.7595 35.5517C40.694 34.4768 38.5363 33.5379 36.3755 32.5897L39.9223 30.6534C42.7255 31.8203 45.4571 33.1601 48.1018 34.6657C51.5727 36.772 54.6214 39.5338 57.086 42.8043C59.9751 46.6519 62.6346 50.6744 65.0503 54.85C68.4575 60.514 71.8498 66.2831 75.731 71.6553C75.25 73.024 74.689 74.3619 74.051 75.6616C68.9863 69.0402 64.823 61.7286 60.4775 54.6097L60.4768 54.609ZM71.0398 42.2476C69.462 38.4862 67.4797 34.9167 65.1298 31.6047C62.8576 28.7164 60.106 26.2606 57.0013 24.3499C56.1563 23.7894 55.297 23.2498 54.4235 22.7313L57.9035 20.8311C59.163 21.5948 60.3918 22.4051 61.5898 23.2619C64.5443 25.3048 67.12 27.8697 69.1963 30.8369C71.4356 34.2203 73.3358 37.8263 74.8678 41.6003C76.3498 45.1168 77.5378 48.7761 78.7873 52.4085C78.3703 55.1672 78.17 57.9912 77.8948 60.7874C75.3823 54.7166 73.6858 48.2694 71.0405 42.2515L71.0398 42.2476ZM79.8838 32.9843C77.7112 28.8673 75.0332 25.0518 71.915 21.6304C70.1983 19.7063 68.3818 17.8858 66.497 16.1391L69.848 14.3102C72.3751 16.6544 74.7518 19.1631 76.9633 21.8206C79.8846 25.3334 82.347 29.2203 84.2885 33.3835C84.9335 34.774 85.5305 36.1852 86.1065 37.6064C85.0575 38.5004 84.1023 39.5039 83.2565 40.6006C82.226 38.0232 81.1558 35.4582 79.8845 32.9882L79.8838 32.9843Z" fill="#3B3430"/>
</svg>
