<svg width="133" height="133" viewBox="0 0 133 133" fill="none" xmlns="http://www.w3.org/2000/svg">
<g clip-path="url(#clip0_310:319)">
<path fill-rule="evenodd" clip-rule="evenodd" d="M17.9793 64.4886C49.6093 40.6179 89.601 43.3857 113.034 75.782C113.814 76.8607 115.321 77.103 116.393 76.336C117.474 75.5504 117.718 74.0421 116.938 72.9635C91.8287 38.2216 48.9772 35.0619 15.0793 60.6353C14.0204 61.4311 13.8048 62.9524 14.6046 64.0176C15.4128 65.0642 16.9204 65.2845 17.9793 64.4886Z" fill="black"/>
<path d="M80.1569 77.1423C76.6342 75.523 72.4658 77.0658 70.8465 80.5884C69.2272 84.111 70.7702 88.2794 74.2928 89.8987C77.8154 91.518 81.9837 89.9752 83.603 86.4525C85.2224 82.9299 83.6795 78.7616 80.1569 77.1423Z" fill="black"/>
<path d="M50.6329 71.7889C47.1791 70.2013 43.0922 71.7139 41.5045 75.1677C39.9168 78.6215 41.4297 82.7084 44.8835 84.2961C48.3372 85.8837 52.4241 84.371 54.0117 80.9172C55.5994 77.4634 54.0867 73.3766 50.6329 71.7889Z" fill="black"/>
</g>
<defs>
<clipPath id="clip0_310:319">
<rect width="100" height="100" fill="white" transform="translate(90.8597 132.627) rotate(-155.312)"/>
</clipPath>
</defs>
</svg>
