<svg width="328" height="96" viewBox="0 0 328 96" fill="none" xmlns="http://www.w3.org/2000/svg">
<path fill-rule="evenodd" clip-rule="evenodd" d="M4.86318 1.26099C3.7811 2.28846 2.74762 3.8671 2.34904 5.50747C2.07923 6.61891 2.0998 7.75885 2.57922 8.77963C2.62066 8.86752 2.72538 8.905 2.81327 8.86356C2.90179 8.82243 2.93925 8.71771 2.89781 8.62982C2.45219 7.68218 2.44028 6.6234 2.69136 5.59139C3.07426 4.01627 4.06661 2.50208 5.10581 1.51704C5.17592 1.44958 5.17902 1.33814 5.11251 1.26771C5.04505 1.1976 4.93361 1.19448 4.86318 1.26099Z" fill="black"/>
<path fill-rule="evenodd" clip-rule="evenodd" d="M323.14 87.4451C322.057 88.4725 321.024 90.0512 320.625 91.6916C320.356 92.803 320.376 93.9429 320.856 94.9637C320.897 95.0516 321.002 95.0891 321.09 95.0476C321.178 95.0065 321.216 94.9018 321.174 94.8139C320.729 93.8663 320.717 92.8075 320.968 91.7755C321.351 90.2003 322.343 88.6862 323.382 87.7011C323.452 87.6337 323.455 87.5222 323.389 87.4518C323.321 87.3817 323.21 87.3786 323.14 87.4451Z" fill="black"/>
<path fill-rule="evenodd" clip-rule="evenodd" d="M7.55702 1.88502C6.47495 2.91248 5.44146 4.49112 5.04289 6.13149C4.77308 7.24293 4.79365 8.38288 5.27307 9.40366C5.31451 9.49154 5.41923 9.52902 5.50712 9.48758C5.59564 9.44646 5.6331 9.34173 5.59166 9.25384C5.14604 8.3062 5.13413 7.24742 5.3852 6.21541C5.76811 4.64029 6.76045 3.1261 7.79965 2.14107C7.86976 2.07361 7.87287 1.96216 7.80635 1.89173C7.7389 1.82162 7.62745 1.8185 7.55702 1.88502Z" fill="black"/>
<path fill-rule="evenodd" clip-rule="evenodd" d="M325.833 88.0691C324.751 89.0966 323.718 90.6752 323.319 92.3156C323.049 93.427 323.07 94.567 323.549 95.5877C323.591 95.6756 323.696 95.7131 323.783 95.6717C323.872 95.6305 323.909 95.5258 323.868 95.4379C323.422 94.4903 323.41 93.4315 323.662 92.3995C324.044 90.8244 325.037 89.3102 326.076 88.3251C326.146 88.2577 326.149 88.1462 326.083 88.0758C326.015 88.0057 325.904 88.0026 325.833 88.0691Z" fill="black"/>
</svg>
