<svg width="1299" height="378" viewBox="0 0 1299 378" fill="none" xmlns="http://www.w3.org/2000/svg">
<path fill-rule="evenodd" clip-rule="evenodd" d="M15.993 2.09629C11.6887 6.18345 7.57756 12.4631 5.99208 18.9883C4.91881 23.4095 5.00063 27.9441 6.90771 32.0047C7.07254 32.3543 7.48911 32.5034 7.83872 32.3385C8.19084 32.1749 8.33986 31.7583 8.17503 31.4087C6.40238 27.6391 6.35501 23.4274 7.35376 19.3222C8.87693 13.0565 12.8244 7.03321 16.9582 3.11484C17.2371 2.8465 17.2494 2.40316 16.9848 2.123C16.7165 1.84412 16.2732 1.8317 15.993 2.09629Z" fill="black"/>
<path fill-rule="evenodd" clip-rule="evenodd" d="M1282.06 344.928C1277.76 349.015 1273.65 355.294 1272.06 361.82C1270.99 366.241 1271.07 370.775 1272.98 374.836C1273.14 375.186 1273.56 375.335 1273.91 375.17C1274.26 375.006 1274.41 374.59 1274.24 374.24C1272.47 370.47 1272.42 366.259 1273.42 362.153C1274.95 355.888 1278.89 349.865 1283.03 345.946C1283.31 345.678 1283.32 345.234 1283.05 344.954C1282.79 344.675 1282.34 344.663 1282.06 344.928Z" fill="black"/>
<path fill-rule="evenodd" clip-rule="evenodd" d="M26.7089 4.57884C22.4045 8.66599 18.2934 14.9457 16.7079 21.4709C15.6346 25.8921 15.7164 30.4267 17.6235 34.4872C17.7884 34.8368 18.2049 34.9859 18.5545 34.8211C18.9067 34.6575 19.0557 34.2409 18.8908 33.8913C17.1182 30.1217 17.0708 25.9099 18.0696 21.8047C19.5927 15.539 23.5402 9.51575 27.674 5.59738C27.9529 5.32904 27.9653 4.88571 27.7007 4.60555C27.4323 4.32666 26.989 4.31425 26.7089 4.57884Z" fill="black"/>
<path fill-rule="evenodd" clip-rule="evenodd" d="M1292.78 347.41C1288.48 351.497 1284.36 357.777 1282.78 364.302C1281.71 368.723 1281.79 373.258 1283.69 377.318C1283.86 377.668 1284.28 377.817 1284.63 377.652C1284.98 377.489 1285.13 377.072 1284.96 376.722C1283.19 372.953 1283.14 368.741 1284.14 364.636C1285.66 358.37 1289.61 352.347 1293.74 348.429C1294.02 348.16 1294.04 347.717 1293.77 347.437C1293.5 347.158 1293.06 347.145 1292.78 347.41Z" fill="black"/>
</svg>
