<svg width="88" height="74" viewBox="0 0 88 74" fill="none" xmlns="http://www.w3.org/2000/svg">
<path d="M3.47025 19.1793C5.61112 19.4978 7.32292 20.6213 9.12667 21.5436C11.5574 22.7453 14.0825 23.7361 16.6753 24.5056C17.4287 24.7036 18.1329 25.0616 18.7421 25.5564C19.3512 26.0511 19.8518 26.6715 20.2111 27.3771C20.4089 27.7654 20.5339 28.1861 20.0169 28.4779C19.5829 28.7251 19.2433 28.4961 18.8681 28.2842C14.1909 25.6403 8.97244 23.8003 3.89041 21.758C3.38224 21.5528 2.88567 21.3186 2.40303 21.0567C2.27789 21.0007 2.16569 20.9184 2.07374 20.8151C1.98178 20.7118 1.91213 20.5899 1.86932 20.4572C1.82651 20.3245 1.8115 20.1841 1.82527 20.0452C1.83904 19.9062 1.88128 19.7717 1.94924 19.6505C2.18058 19.0539 2.84791 19.1975 3.47025 19.1793Z" fill="#FFA85A"/>
<path d="M24.8226 59.0617C24.6849 59.3008 24.5189 59.5216 24.3283 59.719C21.0659 62.5698 18.7703 65.9307 16.4732 69.2947C16.0546 69.9075 15.6927 70.9319 14.4742 70.397C13.449 69.947 14.151 69.1577 14.4505 68.5388C16.1806 64.9837 19.0738 62.0045 21.8157 58.955C22.0685 58.6163 22.4148 58.3629 22.8099 58.2277C23.2049 58.0925 23.6306 58.0817 24.0317 58.1966C24.2387 58.2307 24.4286 58.3342 24.5718 58.4908C24.7149 58.6474 24.8032 58.8482 24.8226 59.0617Z" fill="#FFA85A"/>
<path d="M67.9774 66.033C68.1593 66.659 68.0239 67.0402 67.4223 67.156C67.1617 67.2446 66.878 67.2298 66.6275 67.1145C66.377 66.9992 66.178 66.7919 66.0699 66.5336C65.0013 63.1337 61.819 60.8235 59.4464 58.0936C58.8612 57.4201 58.1751 56.6778 59.353 55.9916C60.5675 55.2837 61.1127 56.0928 61.7192 56.7728C63.1823 58.4192 64.6573 60.0594 66.1767 61.6719C66.758 62.2298 67.2186 62.9062 67.5287 63.6573C67.8389 64.4084 67.9917 65.2177 67.9774 66.033V66.033Z" fill="#FFA85A"/>
<path d="M77.6716 7.84289C77.6113 8.6519 76.8545 9.35979 76.2282 10.009C73.5387 12.7946 70.467 15.3424 68.6875 18.6579C68.3163 19.3501 67.4147 20.3887 66.3321 19.8208C65.3608 19.3112 65.9861 18.3904 66.5719 17.5961C69.1828 14.0566 72.8951 11.1861 75.684 7.75643C75.8475 7.56422 76.0525 7.41358 76.2828 7.31642C76.513 7.21927 76.7622 7.17828 77.0107 7.19669C77.182 7.19302 77.3478 7.25898 77.4717 7.38011C77.5955 7.50123 77.6674 7.66765 77.6716 7.84289V7.84289Z" fill="#FFA85A"/>
<path d="M16.5137 41.152C16.4485 41.8139 15.8415 42.047 15.2553 42.2644C11.986 43.4856 8.73054 44.735 5.42172 45.8808C4.51461 46.187 3.63753 46.5794 2.80195 47.0529C2.48296 47.272 2.09413 47.3581 1.71512 47.2934C1.33611 47.2287 0.995636 47.0182 0.763469 46.705C0.276587 46.0917 0.46689 45.4702 1.31461 45.3018C6.01735 44.3613 9.87533 41.9853 14.2187 40.4385C15.3828 40.0274 16.148 40.121 16.5137 41.152Z" fill="#FFA85A"/>
<path d="M27.9607 3.78981C28.9505 3.95433 29.8655 4.4305 30.5782 5.15199C32.2886 6.96823 33.3331 9.06055 34.3084 11.1599C34.6613 11.9184 35.0681 12.646 35.473 13.3817C35.7256 13.8418 36.1047 14.3854 35.2595 14.7267C34.9718 14.8566 34.6511 14.8889 34.3442 14.8188C34.0373 14.7488 33.7604 14.58 33.554 14.3374C33.0393 13.8038 32.5835 13.2139 32.1951 12.5782C30.8703 10.1512 29.8931 7.58763 27.716 5.50593C27.3023 5.11002 27.0472 4.57961 27.4007 4.05325C27.5055 3.89751 27.8396 3.8429 27.9607 3.78981Z" fill="#FFA85A"/>
<path d="M56.5171 3.54969C56.4568 6.64312 55.309 9.60205 54.7761 12.6368C54.6599 13.2941 54.041 13.6728 53.2209 13.5768C52.3311 13.4721 52.4972 12.8512 52.4843 12.335C52.4166 10.7583 52.6573 9.18371 53.1922 7.70342C53.9491 5.92596 54.3245 4.00314 54.2931 2.06467C54.26 1.43769 54.2189 0.482562 55.4711 0.537169C56.6481 0.587732 56.5369 1.48421 56.5903 2.16023C56.5982 2.62458 56.5738 3.08891 56.5171 3.54969Z" fill="#FFA85A"/>
<path d="M44.969 66.1942C45.1301 68.0316 45.2794 69.8696 45.4573 71.7056C45.5206 72.3563 46.0929 73.2574 44.751 73.3413C43.5351 73.4166 43.0864 72.5677 42.9791 71.7C42.7458 69.8079 42.5026 67.9133 42.3687 66.0157C42.323 64.9148 42.1843 63.8201 41.954 62.7437C41.7652 61.965 41.9664 61.1631 43.199 61.0443C44.3759 60.9315 44.6082 61.647 44.6912 62.3892C44.8316 63.6533 44.9546 64.9205 45.0866 66.1856L44.969 66.1942Z" fill="#FFA85A"/>
<path d="M82.6622 50.1262C82.6069 50.8128 82.0256 51.1273 81.2119 50.9538C80.1844 50.7403 79.177 50.4358 78.2011 50.0437C75.9648 49.1245 73.777 48.131 71.5674 47.1703C70.7652 46.8214 69.9051 46.3831 70.5947 45.5862C70.904 45.2474 71.3127 45.0206 71.759 44.9401C72.2054 44.8597 72.6652 44.9299 73.0692 45.1403C76.0775 46.4549 78.6825 48.3383 81.9776 49.2504C82.1735 49.2921 82.3491 49.4023 82.4741 49.5622C82.5991 49.722 82.6656 49.9215 82.6622 50.1262Z" fill="#FFA85A"/>
<path d="M74.3207 36.1362C73.511 36.209 73.1892 36.0922 72.9796 35.8328C72.6984 35.4864 72.8625 35.1487 73.1398 34.8691C73.722 34.2808 74.4578 33.877 75.2589 33.7061C78.811 32.9517 82.3844 32.2615 85.9405 31.5202C86.5885 31.3847 87.0834 31.4009 87.3874 31.9278C87.72 32.5022 87.2588 32.8541 86.7274 33.0402C82.598 34.461 77.9875 34.6162 74.3207 36.1362Z" fill="#FFA85A"/>
<path d="M42.9801 71.7005C42.7463 69.8084 42.5036 67.9137 42.3691 66.0156C42.3237 64.9149 42.1849 63.8204 41.9544 62.7443C41.7661 61.9656 41.9667 61.1635 43.1995 61.0442C44.376 60.9315 44.6088 61.6475 44.6919 62.3902C44.8323 63.6543 44.9549 64.9183 45.0873 66.1859L44.9702 66.1946C45.1313 68.032 45.2811 69.8694 45.4585 71.7059C45.5223 72.3571 46.0942 73.2579 44.7527 73.3413C44.7033 73.3443 44.6538 73.3457 44.6044 73.3457C43.4991 73.3462 43.0834 72.5322 42.9801 71.7005ZM14.4746 70.3954C13.4494 69.9449 14.1508 69.1555 14.4509 68.5366C16.1809 64.9815 19.0746 62.003 21.819 58.9535C22.0716 58.6147 22.4179 58.3612 22.813 58.226C23.2081 58.0907 23.6338 58.08 24.0349 58.1951C24.2416 58.23 24.4312 58.3339 24.5739 58.4909C24.7165 58.6478 24.8043 58.8488 24.8234 59.0622C24.6856 59.3012 24.5196 59.5219 24.3291 59.7194C21.0666 62.5701 18.7711 65.9306 16.4741 69.295C16.137 69.7875 15.8374 70.5475 15.0989 70.5475C14.883 70.5408 14.6708 70.4893 14.4751 70.3959L14.4746 70.3954ZM66.0705 66.5343C65.0013 63.1339 61.8195 60.8238 59.4468 58.0944C58.8611 57.4209 58.175 56.6785 59.3534 55.9914C60.5679 55.2835 61.1131 56.0927 61.7192 56.7728C63.1818 58.4191 64.6573 60.0593 66.1768 61.6718C66.7584 62.2295 67.2194 62.9056 67.5298 63.6568C67.8402 64.408 67.9932 65.2175 67.979 66.0329C68.1609 66.6588 68.0255 67.0399 67.4234 67.1557C67.3145 67.1774 67.2037 67.1884 67.0927 67.1886C66.8759 67.2088 66.6586 67.1559 66.4741 67.0377C66.2895 66.9195 66.1479 66.7426 66.071 66.5343H66.0705ZM81.2125 50.9548C80.1851 50.7411 79.1777 50.4367 78.2017 50.0448C75.966 49.126 73.7777 48.1324 71.5681 47.1717C70.7664 46.8228 69.9063 46.3846 70.5948 45.5872C70.9043 45.2485 71.313 45.0219 71.7593 44.9416C72.2057 44.8612 72.6655 44.9316 73.0694 45.1418C76.0777 46.4564 78.6827 48.3398 81.9782 49.2525C82.1742 49.2941 82.3499 49.4043 82.4748 49.5643C82.5997 49.7243 82.666 49.924 82.6623 50.1287C82.6544 50.2567 82.6209 50.3818 82.564 50.4961C82.5071 50.6104 82.428 50.7117 82.3315 50.7936C82.235 50.8755 82.1231 50.9362 82.0028 50.9723C81.8824 51.0084 81.7561 51.0191 81.6317 51.0034C81.4909 51.0017 81.3506 50.9853 81.213 50.9548H81.2125ZM0.765568 46.7076C0.279173 46.0947 0.471452 45.4734 1.31671 45.3045C6.02001 44.364 9.87759 41.9875 14.2215 40.4413C15.3836 40.0276 16.1493 40.1213 16.5146 41.1523C16.4498 41.8137 15.8419 42.0476 15.2566 42.2645C11.9873 43.4866 8.73177 44.7362 5.4229 45.8815C4.51575 46.1876 3.63863 46.5799 2.80306 47.0535C2.53696 47.2145 2.23482 47.3025 1.92572 47.3092C1.70024 47.3061 1.47841 47.2502 1.27731 47.1458C1.07621 47.0414 0.901168 46.8914 0.765568 46.7071V46.7076ZM72.9804 35.834C72.6991 35.4877 72.8632 35.1498 73.1405 34.8702C73.7226 34.2821 74.4582 33.8784 75.2591 33.7073C78.8117 32.9529 82.3845 32.2634 85.941 31.5226C86.5886 31.3861 87.0838 31.4027 87.3878 31.927C87.7205 32.5019 87.2598 32.8539 86.728 33.0395C82.5986 34.4639 77.9882 34.6195 74.321 36.1399C74.1618 36.1536 74.0209 36.1612 73.8968 36.1612C73.7297 36.1854 73.5592 36.1683 73.3999 36.1113C73.2405 36.0543 73.0968 35.9591 72.9809 35.8336L72.9804 35.834ZM18.8487 28.2881C14.1716 25.6442 8.9532 23.8041 3.87126 21.7618C3.36288 21.5569 2.86633 21.3225 2.38394 21.0599C2.2588 21.004 2.14656 20.9218 2.05461 20.8185C1.96266 20.7152 1.89307 20.5931 1.8503 20.4605C1.80753 20.3278 1.79258 20.1874 1.80643 20.0484C1.82028 19.9094 1.86255 19.775 1.93061 19.6539C2.12092 19.1599 2.60783 19.1705 3.12142 19.1806C3.23066 19.1831 3.34234 19.1851 3.45208 19.1806C5.59291 19.4991 7.30474 20.623 9.10845 21.5453C11.5391 22.7468 14.0639 23.7378 16.6564 24.5075C17.4098 24.7055 18.114 25.0633 18.7232 25.558C19.3324 26.0527 19.8329 26.6731 20.1922 27.3788C20.3899 27.7676 20.5155 28.1879 19.9979 28.4797C19.8828 28.5485 19.7521 28.5854 19.6188 28.5868C19.3418 28.554 19.0771 28.4512 18.8487 28.2876V28.2881ZM66.3325 19.8223C65.3612 19.3126 65.9865 18.3923 66.5727 17.6C69.1836 14.0606 72.8953 11.1896 75.6847 7.76045C75.8481 7.56822 76.053 7.41757 76.2832 7.3205C76.5134 7.22342 76.7626 7.18262 77.011 7.20125C77.1818 7.1973 77.3472 7.26243 77.4712 7.38271C77.5952 7.503 77.6677 7.6687 77.6728 7.84341C77.613 8.65242 76.8562 9.36013 76.2294 10.0099C73.5399 12.7949 70.4678 15.3435 68.6884 18.6594C68.3918 19.2116 67.7571 19.9859 66.9617 19.9859C66.7421 19.984 66.5263 19.9279 66.3325 19.8223V19.8223ZM33.5552 14.3381C33.0408 13.8042 32.5851 13.2144 32.1963 12.579C30.8711 10.152 29.8944 7.58803 27.7175 5.50635C27.3038 5.10994 27.0487 4.57952 27.4021 4.05316C27.5069 3.89793 27.8411 3.84331 27.9622 3.79022C28.9528 3.95374 29.8687 4.42975 30.5819 5.15182C32.2927 6.96855 33.3367 9.06049 34.3125 11.1604C34.6654 11.9188 35.0718 12.6457 35.4766 13.3814C35.7297 13.8415 36.1088 14.3851 35.2635 14.7264C35.0687 14.8072 34.8608 14.8496 34.6506 14.8514C34.4428 14.8506 34.2376 14.8047 34.0486 14.7163C33.8596 14.628 33.6912 14.4993 33.5547 14.3391L33.5552 14.3381ZM53.222 13.5796C52.3323 13.475 52.4984 12.8535 52.4855 12.3373C52.4172 10.7606 52.6579 9.18603 53.1934 7.70589C53.9499 5.92834 54.3251 4.00536 54.2937 2.06693C54.2601 1.43944 54.2196 0.484309 55.4707 0.539423C56.6486 0.589986 56.5369 1.48595 56.5908 2.16198C56.5987 2.6265 56.5742 3.09102 56.5176 3.55197C56.4578 6.64542 55.31 9.60395 54.7766 12.6392C54.7115 12.9347 54.5423 13.1954 54.3014 13.3715C54.0605 13.5477 53.7646 13.6271 53.4702 13.5945C53.3871 13.5937 53.3041 13.588 53.2216 13.5777L53.222 13.5796Z" fill="white"/>
</svg>
