<svg width="1272" height="370" viewBox="0 0 1272 370" fill="none" xmlns="http://www.w3.org/2000/svg">
<path fill-rule="evenodd" clip-rule="evenodd" d="M16.0194 1.97108C11.8055 5.97229 7.78089 12.1199 6.22874 18.5079C5.17804 22.8362 5.25814 27.2754 7.12512 31.2506C7.28649 31.5928 7.69429 31.7388 8.03655 31.5774C8.38127 31.4172 8.52715 31.0094 8.36578 30.6671C6.63041 26.9768 6.58404 22.8536 7.56179 18.8347C9.05293 12.7008 12.9174 6.80418 16.9643 2.96821C17.2373 2.70551 17.2494 2.2715 16.9904 1.99723C16.7277 1.72421 16.2937 1.71206 16.0194 1.97108Z" fill="black"/>
<path fill-rule="evenodd" clip-rule="evenodd" d="M1255.47 337.593C1251.25 341.595 1247.23 347.742 1245.68 354.13C1244.63 358.459 1244.71 362.898 1246.57 366.873C1246.73 367.215 1247.14 367.361 1247.48 367.2C1247.83 367.04 1247.97 366.632 1247.81 366.29C1246.08 362.599 1246.03 358.476 1247.01 354.457C1248.5 348.323 1252.36 342.427 1256.41 338.591C1256.68 338.328 1256.7 337.894 1256.44 337.62C1256.18 337.347 1255.74 337.334 1255.47 337.593Z" fill="black"/>
<path fill-rule="evenodd" clip-rule="evenodd" d="M26.5096 4.40139C22.2958 8.4026 18.2711 14.5502 16.7189 20.9382C15.6682 25.2665 15.7484 29.7057 17.6153 33.6809C17.7767 34.0231 18.1845 34.1691 18.5268 34.0077C18.8715 33.8475 19.0174 33.4397 18.856 33.0974C17.1206 29.4071 17.0743 25.2839 18.052 21.265C19.5431 15.1311 23.4076 9.23449 27.4545 5.39851C27.7275 5.13582 27.7396 4.70181 27.4806 4.42754C27.2179 4.15451 26.7839 4.14236 26.5096 4.40139Z" fill="black"/>
<path fill-rule="evenodd" clip-rule="evenodd" d="M1265.96 340.024C1261.74 344.025 1257.72 350.173 1256.17 356.561C1255.12 360.889 1255.2 365.328 1257.06 369.303C1257.23 369.646 1257.63 369.791 1257.98 369.63C1258.32 369.47 1258.47 369.062 1258.3 368.72C1256.57 365.03 1256.52 360.906 1257.5 356.887C1258.99 350.754 1262.86 344.857 1266.9 341.021C1267.18 340.758 1267.19 340.324 1266.93 340.05C1266.67 339.777 1266.23 339.765 1265.96 340.024Z" fill="black"/>
</svg>
