<svg width="170" height="177" viewBox="0 0 170 177" fill="none" xmlns="http://www.w3.org/2000/svg">
<path d="M97.7683 53.3236C101.211 62.0674 105.665 70.0733 112.139 76.8059C117.836 82.7329 124.658 87.3182 131.769 91.2698C140.43 96.0824 149.486 100.114 158.24 104.743C159.094 105.195 160.259 104.652 160.974 104.114C161.357 103.825 162.556 102.606 161.7 102.153C146.779 94.2606 130.267 88.1503 117.747 76.3443C111.286 70.1068 106.196 62.522 102.81 54.0846C101.541 51.0472 100.405 47.9479 99.1964 44.8832C97.9838 45.9863 96.8852 47.2152 95.9187 48.5498C96.5344 50.1415 97.144 51.7366 97.7683 53.3236Z" fill="#554140"/>
<path d="M91.6945 38.6332C93.1528 41.5011 94.3761 44.4808 95.5495 47.4832C96.5425 46.1944 97.6625 45.0137 98.8914 43.9604C98.237 42.3078 97.5512 40.6694 96.812 39.0546C94.5876 34.2228 91.7563 29.7172 88.3892 25.651C85.841 22.5724 83.0997 19.6684 80.1822 16.9572L76.2739 19.1212C78.45 21.1399 80.5478 23.2454 82.5278 25.4707C86.1236 29.4312 89.2041 33.8546 91.6945 38.6332V38.6332Z" fill="#554140"/>
<path d="M74.7401 37.0616C77.4468 40.9025 79.724 45.0466 81.5297 49.4173C84.5603 56.4102 86.4805 63.9126 89.3552 70.9727C89.6967 67.7086 89.9514 64.4147 90.4585 61.1944C89.0337 56.9711 87.6811 52.7148 85.9861 48.6278C84.2343 44.2417 82.0529 40.0542 79.4752 36.1291C77.085 32.6887 74.1101 29.7216 70.6898 27.3668C69.3047 26.3765 67.8819 25.4431 66.4217 24.5665L62.3607 26.8141C63.3716 27.4104 64.3668 28.0312 65.3461 28.6766C68.9412 30.877 72.1211 33.7154 74.7401 37.0616V37.0616Z" fill="#554140"/>
<path d="M89.9191 72.4643C90.7788 74.5042 91.7538 76.4894 92.8392 78.4098C95.4519 83.098 99.0753 87.1002 103.436 90.1146C108.003 93.0454 112.862 95.4748 117.934 97.3632C123.678 99.6664 129.305 102.153 134.892 104.823C140.532 107.525 146.166 110.237 151.98 112.539C153.251 113.045 156.681 110.437 154.804 109.696C144.404 105.577 134.62 100.04 124.233 95.8902C119.118 94.0101 114.153 91.7379 109.378 89.0927C104.717 86.4209 100.75 82.6482 97.8003 78.081C94.7761 73.344 92.7737 68.1062 90.9523 62.782C90.5167 65.894 90.2926 69.0419 89.9563 72.1603L89.9191 72.4643Z" fill="#554140"/>
<path d="M85.4795 89.1945C85.9817 89.8471 86.4892 90.4946 87.0083 91.1338C93.3781 99.1606 101.626 105.391 110.998 109.257C121.899 113.659 133.59 115.524 144.665 119.378C145.957 119.828 149.373 117.194 147.486 116.537C137.627 113.109 127.303 111.253 117.453 107.79C107.807 104.466 99.1896 98.6368 92.429 90.8616C90.6791 88.8402 89.0293 86.7312 87.452 84.5637C87.1903 85.3021 86.9065 86.0352 86.6006 86.7631C86.252 87.5885 85.8783 88.399 85.4795 89.1945Z" fill="#554140"/>
<path d="M59.8873 50.0179C63.4038 54.3353 66.5773 58.9369 69.378 63.7794C74.3694 72.0347 79.1469 80.5175 84.9738 88.193C85.7245 86.672 86.3864 85.1075 86.9559 83.5079C82.49 77.2841 78.597 70.5925 74.6845 64.0227C71.912 59.1798 68.855 54.517 65.5302 50.0598C62.6945 46.2707 59.1756 43.0793 55.1605 40.6553C52.1008 38.9266 48.9393 37.3913 45.6932 36.0578L41.5595 38.3471C44.0615 39.4325 46.5602 40.5116 48.9499 41.741C53.0931 43.7401 56.8076 46.551 59.8873 50.0179V50.0179Z" fill="#554140"/>
<path d="M56.6765 76.9657C63.4333 84.5344 69.7283 92.6174 77.0291 99.6524C78.0107 98.603 78.946 97.5168 79.8348 96.3937C73.5451 90.1804 67.9778 83.2357 62.1178 76.5935C55.0679 68.6007 47.7152 60.7909 39.2967 54.3005C35.4358 51.3165 31.331 48.6772 27.0265 46.4111L22.9434 48.6736C26.6081 50.5476 30.1266 52.7038 33.4691 55.124C42.0821 61.3481 49.5812 69.0193 56.6765 76.9657Z" fill="#554140"/>
<path d="M78.5429 101.499C86.1632 108.602 94.797 114.47 104.154 118.905C114.946 123.947 126.563 126.929 138.445 127.709C138.978 127.686 139.502 127.537 139.975 127.275C140.447 127.013 140.857 126.644 141.172 126.196C141.7 125.379 141.329 124.865 140.456 124.806C119.486 123.377 99.7657 114.631 83.9662 100.697C82.7262 99.6034 81.5215 98.4726 80.3404 97.3187C79.4496 98.4325 78.514 99.5077 77.5334 100.544C77.8681 100.864 78.2028 101.184 78.5429 101.499Z" fill="#554140"/>
<path d="M12.6526 66.2318C18.4123 68.8215 23.9662 71.5897 29.0193 75.4515C33.5153 79.053 37.8055 82.916 41.8694 87.0222C49.6174 94.5019 57.4067 102.029 65.5194 109.107C66.729 108.313 67.9182 107.485 69.0871 106.625C61.8685 100.331 54.9832 93.6121 48.0365 87.0266C43.7913 83.0013 39.6878 78.8037 35.2061 75.0487C30.5516 71.1774 25.4271 67.9389 19.9566 65.4114C16.4911 63.7841 12.993 62.2311 9.46224 60.7523C7.90063 60.0909 6.33329 59.4146 4.75585 58.7589L0.567375 61.0809C1.46482 61.4498 2.36004 61.824 3.25477 62.1934C6.40683 63.4928 9.53945 64.8389 12.6526 66.2318Z" fill="#554140"/>
<path d="M66.0618 110.098C66.5955 110.562 67.1298 111.024 67.6647 111.485C76.5177 119.073 86.0959 125.901 96.9448 130.169C102.83 132.484 108.903 133.047 115.183 133.272C121.243 133.488 127.378 133.574 133.151 135.612C134.439 136.067 137.854 133.439 135.969 132.774C125.568 129.106 114.205 131.686 103.675 128.693C98.1823 126.982 92.9373 124.547 88.0699 121.448C83.1046 118.39 78.3604 114.972 73.8725 111.221C72.4364 110.038 71.0158 108.835 69.6105 107.611C69.3255 107.824 69.0369 108.037 68.7446 108.248C67.8644 108.885 66.9648 109.5 66.0618 110.098Z" fill="#554140"/>
<path d="M132.999 135.725C127.224 133.638 121.106 133.501 115.059 133.236C108.792 132.96 102.731 132.349 96.8446 129.981C85.9932 125.619 76.392 118.704 67.5101 111.032C66.9706 110.566 66.4334 110.099 65.8986 109.631C66.7989 109.035 67.6877 108.424 68.5649 107.797C68.852 107.59 69.139 107.378 69.4243 107.166C70.8359 108.4 72.2613 109.617 73.7005 110.816C78.2031 114.61 82.9588 118.072 87.9324 121.175C92.809 124.319 98.0577 126.801 103.549 128.558C114.073 131.64 125.391 129.148 135.791 132.905C137.521 133.53 134.802 135.782 133.35 135.782C133.231 135.783 133.112 135.764 132.999 135.725V135.725ZM138.297 127.8C126.444 126.924 114.842 123.846 104.048 118.712C94.6896 114.197 86.0418 108.253 78.3952 101.08C78.0546 100.762 77.7183 100.438 77.3811 100.116C78.35 99.0844 79.2759 98.0151 80.159 96.9077C81.3443 98.0687 82.5521 99.2145 83.7971 100.321C99.6432 114.398 119.366 123.312 140.284 124.911C141.155 124.977 141.528 125.495 141.007 126.309C140.706 126.735 140.319 127.09 139.874 127.348C139.428 127.607 138.934 127.763 138.425 127.806C138.382 127.804 138.339 127.803 138.297 127.803V127.8ZM144.529 119.464C133.462 115.521 121.801 113.56 110.907 109.068C101.542 105.125 93.2816 98.8239 86.8785 90.7383C86.3598 90.0935 85.8476 89.4421 85.3422 88.7842C85.7335 87.9918 86.1013 87.1835 86.4454 86.3594C86.7471 85.6334 87.0238 84.9019 87.2797 84.1642C88.8662 86.3469 90.5245 88.4699 92.2813 90.5052C99.0723 98.3413 107.699 104.243 117.333 107.646C127.172 111.19 137.473 113.131 147.321 116.64C149.055 117.257 146.329 119.514 144.876 119.515C144.759 119.518 144.643 119.501 144.532 119.464H144.529ZM151.849 112.638C146.048 110.289 140.421 107.532 134.789 104.786C129.212 102.066 123.592 99.5405 117.86 97.1944C112.8 95.2657 107.947 92.7978 103.382 89.8308C99.0216 86.7827 95.3884 82.7518 92.7559 78.0422C92.4009 77.4218 92.0597 76.7965 91.7323 76.1666C91.0406 74.827 90.4034 73.4616 89.8077 72.0782C89.819 71.9764 89.8302 71.8745 89.8406 71.7745C90.1536 68.6585 90.3593 65.514 90.7691 62.406C92.6176 67.744 94.6459 72.9962 97.6858 77.7572C100.653 82.3484 104.627 86.1523 109.284 88.8601C114.055 91.544 119.014 93.8557 124.119 95.7761C134.487 100.008 144.263 105.623 154.638 109.824C156.347 110.515 153.68 112.712 152.231 112.712C152.101 112.712 151.972 112.687 151.85 112.638L151.849 112.638ZM41.7015 86.9052C37.629 82.7677 33.3333 78.8714 28.8348 75.2352C23.7804 71.3342 18.2324 68.521 12.4829 65.8855C9.37905 64.4625 6.25272 63.0932 3.10391 61.7774C2.21166 61.4015 1.31855 61.0192 0.423706 60.6432L4.5737 58.3551C6.14724 59.024 7.71214 59.7126 9.27184 60.3851C12.7918 61.9003 16.2839 63.4808 19.748 65.1265C25.2055 67.6969 30.324 70.9742 34.9802 74.8798C39.4657 78.67 43.5776 82.8996 47.8296 86.9577C54.7904 93.6005 61.6872 100.374 68.9134 106.724C67.7606 107.576 66.5839 108.395 65.3833 109.179C57.2657 102.035 49.4637 94.4464 41.7023 86.9061L41.7015 86.9052ZM158.12 104.812C149.388 100.117 140.356 96.0164 131.713 91.1393C124.618 87.1347 117.805 82.4969 112.101 76.5321C107.876 72.0538 104.302 66.9651 101.493 61.4255C100.077 58.6712 98.7973 55.8446 97.6581 52.9565C97.0261 51.3659 96.4114 49.7663 95.7872 48.1712C96.7396 46.8456 97.8236 45.6264 99.0216 44.5337C100.243 47.6059 101.396 50.7076 102.675 53.7539C106.099 62.2122 111.21 69.8307 117.674 76.1123C130.199 88.0091 146.656 94.2418 161.544 102.25C162.397 102.709 161.214 103.917 160.835 104.202C160.264 104.66 159.574 104.932 158.852 104.985C158.599 104.99 158.348 104.931 158.121 104.813L158.12 104.812ZM56.5239 76.8375C49.4205 68.8426 41.9124 61.1193 33.3107 54.8356C29.9721 52.391 26.4603 50.2089 22.8052 48.3079L26.8488 46.0796C31.1425 48.3773 35.2402 51.0462 39.0982 54.0576C47.5141 60.6093 54.8691 68.4683 61.9301 76.5087C67.798 83.1908 73.3798 90.1729 79.6722 96.4245C78.7978 97.5403 77.8756 98.618 76.9055 99.6576C69.6024 92.5772 63.2927 84.4528 56.5247 76.8384L56.5239 76.8375ZM69.2168 63.6591C66.4048 58.8022 63.2247 54.183 59.7064 49.8449C56.6253 46.3582 52.919 43.5215 48.7928 41.4919C46.4117 40.2416 43.9243 39.1494 41.4335 38.0464L45.5221 35.7941C48.7536 37.1514 51.9024 38.7099 54.9512 40.4612C58.9524 42.9113 62.4669 46.1238 65.308 49.928C68.6385 54.4035 71.7044 59.0825 74.489 63.9395C78.4168 70.5278 82.3273 77.2383 86.8016 83.4872C86.2471 85.0793 85.6003 86.6355 84.8649 88.1474C79.0264 80.4454 74.2271 71.9406 69.2177 63.66L69.2168 63.6591ZM81.3936 49.2804C79.5748 44.9052 77.2897 40.7531 74.5807 36.9007C71.9613 33.541 68.7894 30.6845 65.2103 28.4619C64.2362 27.81 63.2457 27.1823 62.2388 26.5792L66.2504 24.3689C67.7024 25.2573 69.1188 26.1998 70.4999 27.1965C73.9058 29.5726 76.875 32.5562 79.2685 36.0076C81.8499 39.9431 84.0404 44.1376 85.8064 48.5275C87.5149 52.6178 88.8843 56.8744 90.3247 61.0996C89.844 64.3084 89.6132 67.5932 89.2959 70.8458C86.3995 63.7842 84.4438 56.285 81.3945 49.285L81.3936 49.2804ZM91.5888 38.5054C89.0843 33.7166 85.9972 29.2784 82.4026 25.2987C80.4235 23.0606 78.3295 20.943 76.1568 18.9112L80.0198 16.7838C82.9329 19.5106 85.6727 22.4287 88.2221 25.52C91.5897 29.6059 94.4283 34.1272 96.6664 38.9698C97.41 40.5872 98.0982 42.2287 98.7622 43.8818C97.5529 44.9218 96.4518 46.089 95.4768 47.3647C94.2889 44.3666 93.0551 41.383 91.5896 38.51L91.5888 38.5054Z" fill="#3B3430"/>
</svg>
