<svg width="121" height="123" viewBox="0 0 121 123" fill="none" xmlns="http://www.w3.org/2000/svg">
<g clip-path="url(#clip0_324:186)">
<path fill-rule="evenodd" clip-rule="evenodd" d="M16.4532 59.3762C44.9893 38.0728 81.3044 40.8644 102.803 70.2651C103.518 71.244 104.887 71.4738 105.855 70.7897C106.831 70.0889 107.041 68.7299 106.325 67.751C83.2893 36.2218 44.376 33.0555 13.7937 55.8783C12.8383 56.5885 12.6535 57.9594 13.3869 58.9263C14.1279 59.8765 15.4978 60.0864 16.4532 59.3762Z" fill="black"/>
<path d="M72.9605 71.2804C69.7519 69.7936 65.9799 71.1549 64.5353 74.3212C63.0908 77.4874 64.5208 81.2595 67.7293 82.7464C70.9378 84.2333 74.7098 82.8719 76.1544 79.7056C77.5989 76.5394 76.169 72.7673 72.9605 71.2804Z" fill="black"/>
<path d="M46.1273 66.2335C42.9815 64.7757 39.2831 66.1104 37.8668 69.2148C36.4505 72.3192 37.8526 76.0176 40.9984 77.4754C44.1442 78.9332 47.8425 77.5984 49.2588 74.4941C50.6751 71.3897 49.2731 67.6913 46.1273 66.2335Z" fill="black"/>
</g>
<defs>
<clipPath id="clip0_324:186">
<rect width="91.2353" height="89.7847" fill="white" transform="matrix(-0.907101 -0.420364 0.414979 -0.909579 83.0703 121.419)"/>
</clipPath>
</defs>
</svg>
