<svg width="2315" height="1108" viewBox="0 0 2315 1108" fill="none" xmlns="http://www.w3.org/2000/svg">
<path opacity="0.21" d="M435.163 842.746C435.163 962.913 337.749 1060.33 217.582 1060.33C97.4146 1060.33 0 962.913 0 842.746C0 722.579 97.4146 625.164 217.582 625.164C337.749 625.164 435.163 722.579 435.163 842.746Z" fill="white"/>
<path d="M317.277 378.456C320.076 378.864 322.314 380.301 324.673 381.48C327.851 383.017 331.152 384.285 334.542 385.269C335.527 385.522 336.448 385.98 337.244 386.613C338.041 387.246 338.695 388.039 339.165 388.942C339.424 389.438 339.587 389.976 338.911 390.35C338.344 390.666 337.9 390.373 337.409 390.102C331.294 386.72 324.471 384.367 317.827 381.755C317.162 381.492 316.513 381.193 315.882 380.858C315.718 380.786 315.572 380.681 315.451 380.549C315.331 380.417 315.24 380.261 315.184 380.091C315.128 379.921 315.109 379.742 315.127 379.564C315.145 379.386 315.2 379.214 315.289 379.059C315.591 378.296 316.464 378.48 317.277 378.456Z" fill="#FFA85A"/>
<path d="M345.222 429.467C345.042 429.773 344.825 430.055 344.575 430.308C340.31 433.954 337.308 438.253 334.305 442.555C333.757 443.339 333.284 444.649 331.691 443.965C330.35 443.39 331.268 442.38 331.66 441.589C333.922 437.042 337.705 433.231 341.29 429.331C341.621 428.897 342.073 428.573 342.59 428.4C343.107 428.228 343.663 428.214 344.188 428.361C344.458 428.404 344.707 428.537 344.894 428.737C345.081 428.937 345.196 429.194 345.222 429.467Z" fill="#FFA85A"/>
<path d="M401.646 438.384C401.884 439.184 401.707 439.672 400.92 439.82C400.579 439.933 400.208 439.914 399.881 439.767C399.553 439.619 399.293 439.354 399.152 439.024C397.754 434.675 393.593 431.721 390.491 428.229C389.726 427.367 388.828 426.418 390.369 425.541C391.957 424.635 392.67 425.67 393.463 426.54C395.376 428.645 397.304 430.743 399.291 432.806C400.051 433.519 400.654 434.384 401.059 435.345C401.465 436.306 401.665 437.341 401.646 438.384V438.384Z" fill="#FFA85A"/>
<path d="M414.32 363.957C414.241 364.992 413.251 365.897 412.433 366.728C408.916 370.29 404.9 373.549 402.573 377.79C402.088 378.675 400.909 380.003 399.494 379.277C398.224 378.625 399.041 377.447 399.807 376.431C403.221 371.904 408.075 368.233 411.721 363.846C411.935 363.601 412.203 363.408 412.504 363.284C412.805 363.159 413.131 363.107 413.456 363.13C413.68 363.126 413.896 363.21 414.058 363.365C414.22 363.52 414.314 363.733 414.32 363.957V363.957Z" fill="#FFA85A"/>
<path d="M334.358 406.56C334.272 407.407 333.479 407.705 332.712 407.983C328.438 409.545 324.181 411.143 319.855 412.608C318.669 413 317.522 413.502 316.43 414.107C316.013 414.388 315.504 414.498 315.009 414.415C314.513 414.332 314.068 414.063 313.764 413.662C313.128 412.878 313.377 412.083 314.485 411.868C320.634 410.665 325.678 407.626 331.357 405.648C332.879 405.122 333.879 405.241 334.358 406.56Z" fill="#FFA85A"/>
<path d="M349.325 358.773C350.619 358.983 351.815 359.592 352.747 360.515C354.984 362.838 356.349 365.514 357.625 368.199C358.086 369.17 358.618 370.1 359.147 371.041C359.478 371.63 359.973 372.325 358.868 372.761C358.492 372.928 358.073 372.969 357.671 372.879C357.27 372.79 356.908 372.574 356.638 372.263C355.965 371.581 355.369 370.827 354.861 370.014C353.129 366.909 351.852 363.63 349.005 360.968C348.464 360.462 348.131 359.783 348.593 359.11C348.73 358.911 349.167 358.841 349.325 358.773Z" fill="#FFA85A"/>
<path d="M386.661 358.466C386.582 362.422 385.081 366.207 384.385 370.089C384.233 370.929 383.423 371.414 382.351 371.291C381.188 371.157 381.405 370.363 381.388 369.703C381.3 367.686 381.614 365.672 382.314 363.779C383.303 361.505 383.794 359.046 383.753 356.566C383.71 355.765 383.656 354.543 385.293 354.613C386.832 354.677 386.687 355.824 386.757 356.689C386.767 357.283 386.735 357.876 386.661 358.466Z" fill="#FFA85A"/>
<path d="M371.563 438.59C371.774 440.94 371.969 443.291 372.202 445.639C372.284 446.471 373.033 447.624 371.278 447.731C369.688 447.827 369.101 446.741 368.961 445.632C368.656 443.212 368.338 440.788 368.163 438.361C368.103 436.953 367.921 435.553 367.62 434.176C367.373 433.181 367.637 432.155 369.248 432.003C370.787 431.859 371.091 432.774 371.2 433.723C371.383 435.34 371.544 436.961 371.717 438.579L371.563 438.59Z" fill="#FFA85A"/>
<path d="M420.845 418.038C420.773 418.917 420.012 419.319 418.949 419.097C417.605 418.824 416.288 418.435 415.012 417.933C412.088 416.757 409.228 415.487 406.339 414.258C405.29 413.812 404.166 413.251 405.067 412.232C405.472 411.798 406.006 411.508 406.589 411.405C407.173 411.302 407.774 411.392 408.302 411.661C412.236 413.343 415.642 415.752 419.95 416.918C420.206 416.972 420.436 417.113 420.599 417.317C420.762 417.522 420.849 417.777 420.845 418.038Z" fill="#FFA85A"/>
<path d="M409.939 400.145C408.88 400.238 408.46 400.088 408.186 399.756C407.818 399.313 408.033 398.881 408.395 398.524C409.156 397.772 410.118 397.255 411.166 397.036C415.81 396.072 420.482 395.189 425.131 394.241C425.979 394.067 426.626 394.088 427.023 394.762C427.458 395.497 426.855 395.947 426.16 396.185C420.761 398.002 414.733 398.201 409.939 400.145Z" fill="#FFA85A"/>
<path d="M368.96 445.633C368.654 443.213 368.337 440.789 368.161 438.362C368.102 436.954 367.92 435.554 367.619 434.178C367.373 433.182 367.635 432.156 369.247 432.003C370.785 431.859 371.089 432.775 371.198 433.725C371.382 435.341 371.542 436.958 371.715 438.579L371.562 438.591C371.773 440.941 371.968 443.291 372.2 445.64C372.284 446.473 373.032 447.625 371.278 447.731C371.213 447.735 371.148 447.737 371.084 447.737C369.639 447.738 369.095 446.697 368.96 445.633ZM331.69 443.963C330.349 443.387 331.267 442.378 331.659 441.586C333.921 437.039 337.704 433.229 341.292 429.329C341.623 428.896 342.076 428.571 342.592 428.398C343.109 428.225 343.665 428.212 344.19 428.359C344.46 428.404 344.708 428.537 344.894 428.737C345.081 428.938 345.196 429.195 345.221 429.468C345.04 429.774 344.823 430.056 344.574 430.309C340.309 433.955 337.307 438.253 334.304 442.556C333.863 443.186 333.472 444.158 332.506 444.158C332.224 444.149 331.946 444.084 331.691 443.964L331.69 443.963ZM399.15 439.025C397.752 434.676 393.592 431.721 390.49 428.23C389.724 427.369 388.827 426.419 390.368 425.54C391.955 424.635 392.668 425.67 393.461 426.54C395.373 428.645 397.302 430.743 399.289 432.806C400.049 433.519 400.652 434.384 401.058 435.345C401.464 436.305 401.664 437.341 401.645 438.384C401.883 439.184 401.706 439.672 400.919 439.82C400.776 439.848 400.632 439.862 400.486 439.862C400.203 439.888 399.919 439.82 399.678 439.669C399.436 439.518 399.251 439.291 399.151 439.025H399.15ZM418.948 419.098C417.604 418.825 416.287 418.436 415.011 417.934C412.088 416.759 409.227 415.489 406.338 414.26C405.29 413.814 404.165 413.253 405.065 412.233C405.47 411.8 406.004 411.51 406.588 411.407C407.171 411.305 407.773 411.395 408.301 411.663C412.234 413.345 415.64 415.754 419.949 416.921C420.205 416.974 420.435 417.115 420.598 417.32C420.761 417.525 420.848 417.78 420.843 418.042C420.833 418.206 420.789 418.365 420.715 418.512C420.64 418.658 420.537 418.787 420.411 418.892C420.284 418.997 420.138 419.075 419.981 419.121C419.824 419.167 419.658 419.181 419.496 419.161C419.312 419.158 419.128 419.137 418.948 419.098H418.948ZM313.766 413.666C313.13 412.882 313.381 412.088 314.486 411.872C320.636 410.669 325.679 407.629 331.359 405.651C332.878 405.122 333.879 405.242 334.357 406.561C334.272 407.407 333.478 407.706 332.712 407.983C328.438 409.546 324.181 411.145 319.855 412.609C318.669 413.001 317.522 413.503 316.43 414.108C316.082 414.314 315.687 414.427 315.283 414.436C314.988 414.432 314.698 414.36 314.435 414.227C314.172 414.093 313.943 413.901 313.766 413.665V413.666ZM408.184 399.759C407.817 399.316 408.031 398.883 408.394 398.526C409.155 397.774 410.117 397.257 411.164 397.038C415.809 396.074 420.48 395.192 425.13 394.244C425.977 394.069 426.624 394.091 427.022 394.761C427.457 395.497 426.854 395.947 426.159 396.184C420.76 398.006 414.732 398.205 409.937 400.15C409.729 400.167 409.545 400.177 409.383 400.177C409.164 400.208 408.941 400.186 408.733 400.113C408.524 400.04 408.337 399.918 408.185 399.758L408.184 399.759ZM337.409 390.107C331.294 386.725 324.471 384.372 317.826 381.76C317.162 381.498 316.512 381.198 315.882 380.862C315.718 380.79 315.571 380.685 315.451 380.553C315.331 380.421 315.24 380.265 315.184 380.095C315.128 379.926 315.109 379.746 315.127 379.568C315.145 379.39 315.2 379.219 315.289 379.064C315.538 378.432 316.174 378.445 316.846 378.458C316.989 378.462 317.135 378.464 317.278 378.458C320.077 378.866 322.316 380.303 324.674 381.483C327.852 383.02 331.153 384.287 334.543 385.272C335.528 385.525 336.448 385.982 337.245 386.615C338.041 387.248 338.696 388.041 339.165 388.944C339.424 389.441 339.588 389.979 338.911 390.352C338.761 390.44 338.59 390.487 338.416 390.489C338.054 390.447 337.708 390.316 337.409 390.106V390.107ZM399.492 379.279C398.223 378.627 399.04 377.45 399.807 376.437C403.22 371.91 408.073 368.238 411.72 363.852C411.934 363.606 412.202 363.413 412.503 363.289C412.804 363.165 413.13 363.113 413.454 363.136C413.678 363.131 413.894 363.215 414.056 363.368C414.218 363.522 414.313 363.734 414.32 363.958C414.241 364.992 413.252 365.898 412.432 366.729C408.916 370.291 404.899 373.551 402.573 377.792C402.185 378.498 401.355 379.488 400.315 379.488C400.028 379.486 399.746 379.414 399.492 379.279V379.279ZM356.637 372.265C355.965 371.582 355.369 370.827 354.861 370.015C353.128 366.91 351.851 363.631 349.005 360.969C348.464 360.462 348.13 359.783 348.592 359.11C348.729 358.911 349.166 358.841 349.324 358.774C350.62 358.983 351.817 359.592 352.75 360.515C354.987 362.839 356.352 365.514 357.627 368.2C358.089 369.17 358.62 370.1 359.149 371.041C359.48 371.629 359.976 372.325 358.871 372.761C358.616 372.865 358.344 372.919 358.069 372.921C357.798 372.92 357.529 372.861 357.282 372.748C357.035 372.635 356.815 372.471 356.637 372.266L356.637 372.265ZM382.351 371.295C381.188 371.161 381.405 370.366 381.388 369.706C381.299 367.689 381.613 365.675 382.314 363.782C383.303 361.508 383.793 359.049 383.752 356.569C383.708 355.767 383.655 354.545 385.291 354.616C386.831 354.68 386.685 355.826 386.755 356.691C386.766 357.285 386.734 357.879 386.66 358.469C386.582 362.425 385.081 366.209 384.384 370.092C384.298 370.47 384.077 370.803 383.762 371.028C383.447 371.254 383.06 371.355 382.675 371.313C382.567 371.313 382.458 371.305 382.35 371.292L382.351 371.295Z" fill="white"/>
<path opacity="0.21" d="M2314.16 253.043C2314.16 392.794 2200.87 506.085 2061.12 506.085C1921.36 506.085 1808.07 392.794 1808.07 253.043C1808.07 113.291 1921.36 0 2061.12 0C2200.87 0 2314.16 113.291 2314.16 253.043Z" fill="white"/>
<path d="M358.988 650.556C358.988 702.782 316.651 745.119 264.425 745.119C212.2 745.119 169.863 702.782 169.863 650.556C169.863 598.331 212.2 555.994 264.425 555.994C316.651 555.994 358.988 598.331 358.988 650.556Z" fill="#DF3E3F"/>
<path d="M1518.3 787.437C1525.18 801.651 1533.7 814.545 1545.52 825.138C1555.93 834.463 1568.1 841.455 1580.71 847.364C1596.05 854.564 1611.98 860.429 1627.46 867.317C1628.97 867.989 1630.9 866.978 1632.06 866.017C1632.68 865.502 1634.59 863.366 1633.07 862.693C1606.69 850.951 1577.79 842.317 1555.05 823.844C1543.12 814.149 1533.95 801.884 1527 788.228C1524.49 783.294 1522.19 778.255 1519.78 773.272C1517.84 775.217 1516.1 777.36 1514.6 779.667C1515.84 782.261 1517.05 784.857 1518.3 787.437Z" fill="#554140"/>
<path d="M1506.4 764.026C1509.21 768.653 1511.63 773.487 1513.98 778.362C1515.52 776.134 1517.29 774.072 1519.27 772.212C1517.96 769.531 1516.61 766.872 1515.16 764.259C1510.82 756.441 1505.49 749.219 1499.28 742.776C1494.59 737.901 1489.58 733.335 1484.3 729.104L1477.88 733.055C1481.82 736.206 1485.64 739.508 1489.27 743.021C1495.85 749.264 1501.61 756.323 1506.4 764.026V764.026Z" fill="#554140"/>
<path d="M1477.03 763.154C1482.08 769.28 1486.43 775.948 1490 783.036C1495.96 794.362 1500.08 806.636 1505.78 818.087C1505.99 812.64 1506.05 807.15 1506.55 801.759C1503.64 794.882 1500.85 787.943 1497.5 781.314C1494.02 774.197 1489.82 767.448 1484.98 761.172C1480.52 755.682 1475.12 751.032 1469.02 747.439C1466.55 745.925 1464.03 744.507 1461.44 743.184L1454.78 747.287C1456.56 748.185 1458.33 749.125 1460.07 750.105C1466.33 753.632 1472.33 757.66 1477.03 763.154Z" fill="#554140"/>
<path d="M1506.79 820.072C1508.49 823.387 1510.39 826.599 1512.46 829.693C1517.47 837.249 1524.12 843.571 1531.92 848.182C1539.95 852.833 1548.74 856.022 1557.54 858.899C1567.63 862.2 1577.54 865.807 1587.39 869.742C1597.35 873.715 1607.29 877.707 1617.49 880.999C1619.72 881.719 1625.3 877.074 1622 876.01C1603.75 870.12 1586.38 861.813 1568.15 855.869C1559.26 852.972 1550.35 850.13 1541.96 845.934C1533.69 841.92 1526.47 836.012 1520.91 828.688C1515.2 821.088 1511.18 812.561 1507.45 803.874C1507.06 809.09 1507.04 814.346 1506.82 819.563C1506.81 819.734 1506.8 819.902 1506.79 820.072Z" fill="#554140"/>
<path d="M1500.84 848.358C1501.77 849.398 1502.72 850.43 1503.68 851.444C1515.71 864.159 1530.14 873.898 1546.82 879.397C1565.99 885.718 1586.21 887.744 1605.62 893.133C1607.88 893.761 1613.43 889.061 1610.13 888.144C1592.85 883.349 1574.97 881.21 1557.71 876.357C1540.81 871.715 1525.39 862.806 1512.93 850.488C1509.7 847.284 1506.64 843.927 1503.69 840.463C1503.33 841.716 1502.92 842.963 1502.48 844.203C1501.98 845.614 1501.43 846.999 1500.84 848.358Z" fill="#554140"/>
<path d="M1452.81 786.265C1459.44 792.981 1465.1 800.581 1470.57 808.239C1480.02 821.488 1489.14 835.134 1499.95 847.342C1501.06 844.748 1502.01 842.089 1502.8 839.381C1494.47 829.458 1487.07 818.702 1479.65 808.154C1474.24 800.47 1468.75 792.798 1462.45 785.811C1457.18 779.78 1450.81 774.804 1443.69 771.149C1438.27 768.559 1432.7 766.301 1427.01 764.385L1420.22 768.566C1424.61 770.139 1429 771.699 1433.22 773.523C1440.46 776.652 1447.24 780.619 1452.81 786.265Z" fill="#554140"/>
<path d="M1450.13 831.513C1462.54 843.466 1474.2 856.318 1487.48 867.338C1489.03 865.505 1490.51 863.614 1491.9 861.665C1480.44 851.922 1470.15 840.891 1459.39 830.396C1446.44 817.766 1433 805.466 1417.87 795.457C1410.94 790.853 1403.63 786.845 1396.02 783.476L1389.3 787.612C1395.77 790.389 1402.02 793.648 1408.01 797.361C1423.43 806.907 1437.11 818.964 1450.13 831.513Z" fill="#554140"/>
<path d="M1490.17 869.552C1504.04 880.677 1519.5 889.652 1536.03 896.174C1555.1 903.572 1575.34 907.465 1595.78 907.666C1596.69 907.578 1597.57 907.283 1598.35 906.803C1599.13 906.322 1599.79 905.67 1600.28 904.895C1601.09 903.486 1600.39 902.664 1598.89 902.646C1562.81 902.205 1528.03 889.462 1499.37 867.716C1497.12 866.008 1494.93 864.237 1492.77 862.422C1491.37 864.359 1489.89 866.237 1488.33 868.056C1488.94 868.556 1489.56 869.059 1490.17 869.552Z" fill="#554140"/>
<path d="M1373.38 817.954C1383.52 821.732 1393.34 825.819 1402.42 831.777C1410.65 837.174 1418.16 843.553 1425.71 849.834C1439.81 861.559 1453.99 873.358 1468.67 884.384C1470.64 882.951 1472.58 881.464 1474.48 879.923C1461.41 870.123 1448.88 859.584 1436.24 849.267C1428.52 842.963 1421.03 836.362 1412.94 830.53C1404.54 824.524 1395.42 819.613 1385.78 815.914C1379.67 813.528 1373.51 811.267 1367.3 809.133C1364.56 808.178 1361.8 807.201 1359.03 806.253L1352.13 810.501C1353.71 811.031 1355.28 811.572 1356.85 812.103C1362.39 813.974 1367.9 815.924 1373.38 817.954Z" fill="#554140"/>
<path d="M1469.6 885.103C1470.56 885.827 1471.53 886.547 1472.51 887.264C1488.55 899.089 1505.74 909.579 1524.82 915.688C1535.17 919.001 1545.64 919.379 1556.43 919.172C1566.84 918.973 1577.37 918.551 1587.5 921.41C1589.76 922.048 1595.31 917.354 1592 916.421C1573.76 911.272 1554.58 916.621 1536.19 912.606C1526.61 910.515 1517.3 906.447 1508.62 901.976C1499.76 897.339 1491.23 892.084 1483.11 886.249C1480.52 884.41 1477.94 882.537 1475.4 880.628C1474.93 881.012 1474.46 881.393 1473.98 881.77C1472.55 882.914 1471.08 884.021 1469.6 885.103Z" fill="#554140"/>
<path d="M1587.18 921.164C1577.05 918.302 1566.53 918.72 1556.12 918.915C1545.33 919.117 1534.86 918.736 1524.51 915.416C1505.43 909.305 1488.23 898.809 1472.2 886.982C1471.23 886.266 1470.26 885.545 1469.29 884.82C1470.78 883.739 1472.24 882.633 1473.68 881.49C1474.16 881.111 1474.63 880.731 1475.09 880.351C1477.64 882.256 1480.22 884.13 1482.81 885.974C1490.93 891.81 1499.45 897.066 1508.31 901.703C1516.99 906.175 1526.3 910.249 1535.87 912.341C1554.26 916.36 1573.45 911.02 1591.69 916.176C1594.72 917.034 1590.28 921.063 1587.79 921.216C1587.59 921.233 1587.38 921.216 1587.18 921.164V921.164ZM1595.47 907.425C1575.03 907.217 1554.79 903.317 1535.73 895.914C1519.2 889.389 1503.74 880.412 1489.88 869.284C1489.26 868.796 1488.65 868.288 1488.04 867.787C1489.6 865.97 1491.08 864.094 1492.49 862.159C1494.64 863.971 1496.83 865.743 1499.08 867.45C1527.73 889.202 1562.5 901.952 1598.59 902.407C1600.09 902.426 1600.79 903.247 1599.97 904.655C1599.5 905.396 1598.87 906.027 1598.13 906.503C1597.39 906.98 1596.56 907.292 1595.69 907.418C1595.62 907.424 1595.54 907.426 1595.47 907.425ZM1605.33 892.902C1585.92 887.508 1565.69 885.474 1546.53 879.149C1529.85 873.645 1515.43 863.904 1503.4 851.189C1502.44 850.172 1501.49 849.14 1500.56 848.1C1501.15 846.74 1501.7 845.357 1502.21 843.95C1502.66 842.712 1503.05 841.464 1503.42 840.212C1506.36 843.675 1509.43 847.036 1512.65 850.236C1525.11 862.556 1540.53 871.467 1557.42 876.112C1574.68 880.971 1592.56 883.116 1609.84 887.916C1612.88 888.761 1608.42 892.801 1605.93 892.954C1605.73 892.971 1605.52 892.953 1605.33 892.902ZM1617.21 880.77C1607 877.476 1597.06 873.482 1587.11 869.507C1577.26 865.569 1567.35 861.959 1557.26 858.656C1548.47 855.774 1539.68 852.583 1531.65 847.93C1523.85 843.319 1517.2 836.997 1512.2 829.441C1511.53 828.446 1510.88 827.439 1510.25 826.421C1508.93 824.266 1507.7 822.062 1506.53 819.822C1506.54 819.652 1506.55 819.485 1506.56 819.315C1506.78 814.1 1506.81 808.846 1507.2 803.633C1510.92 812.319 1514.94 820.843 1520.64 828.442C1526.2 835.766 1533.41 841.675 1541.68 845.69C1550.07 849.889 1558.98 852.732 1567.86 855.631C1586.1 861.578 1603.46 869.89 1621.71 875.785C1624.71 876.754 1620.36 880.693 1617.87 880.845C1617.65 880.863 1617.42 880.839 1617.2 880.775L1617.21 880.77ZM1425.43 849.567C1417.88 843.286 1410.37 836.906 1402.14 831.509C1393.06 825.55 1383.25 821.458 1373.11 817.676C1367.64 815.636 1362.13 813.684 1356.59 811.82C1355.01 811.289 1353.44 810.749 1351.86 810.218L1358.76 805.975C1361.53 806.921 1364.29 807.902 1367.04 808.856C1373.24 811.007 1379.4 813.269 1385.51 815.642C1395.15 819.343 1404.27 824.256 1412.66 830.262C1420.75 836.095 1428.24 842.698 1435.96 849C1448.59 859.319 1461.12 869.859 1474.18 879.66C1472.29 881.201 1470.35 882.687 1468.37 884.118C1453.69 873.098 1439.52 861.297 1425.42 849.572L1425.43 849.567ZM1627.18 867.095C1611.7 860.203 1595.78 854.334 1580.44 847.131C1567.84 841.218 1555.67 834.221 1545.27 824.902C1537.56 817.897 1530.9 809.808 1525.52 800.887C1522.8 796.456 1520.32 791.89 1518.07 787.206C1516.82 784.625 1515.6 782.031 1514.37 779.443C1515.87 777.137 1517.61 774.995 1519.55 773.052C1521.96 778.032 1524.26 783.071 1526.77 788.004C1533.71 801.659 1542.87 813.92 1554.8 823.617C1577.52 842.089 1606.42 850.731 1632.8 862.478C1634.31 863.152 1632.4 865.287 1631.78 865.802C1630.84 866.623 1629.69 867.148 1628.45 867.311C1628.02 867.345 1627.58 867.272 1627.18 867.099L1627.18 867.095ZM1449.86 831.259C1436.85 818.709 1423.17 806.652 1407.75 797.103C1401.77 793.389 1395.52 790.129 1389.05 787.351L1395.77 783.218C1403.38 786.589 1410.68 790.597 1417.62 795.201C1432.74 805.212 1446.17 817.513 1459.11 830.143C1469.87 840.641 1480.16 851.666 1491.61 861.412C1490.22 863.359 1488.75 865.249 1487.18 867.082C1473.92 856.068 1462.25 843.218 1449.86 831.262L1449.86 831.259ZM1470.32 807.998C1464.85 800.339 1459.19 792.739 1452.57 786.023C1447 780.374 1440.22 776.41 1432.98 773.278C1428.76 771.456 1424.38 769.894 1419.99 768.319L1426.78 764.142C1432.47 766.061 1438.04 768.323 1443.45 770.914C1450.57 774.571 1456.93 779.547 1462.2 785.578C1468.5 792.565 1473.99 800.235 1479.39 807.918C1486.81 818.465 1494.21 829.217 1502.53 839.14C1501.74 841.847 1500.78 844.504 1499.67 847.097C1488.87 834.893 1479.76 821.251 1470.31 808.003L1470.32 807.998ZM1489.76 782.803C1486.19 775.717 1481.85 769.05 1476.8 762.927C1472.11 757.432 1466.11 753.407 1459.85 749.876C1458.11 748.895 1456.35 747.956 1454.56 747.058L1461.22 742.959C1463.8 744.283 1466.33 745.702 1468.81 747.215C1474.9 750.808 1480.3 755.458 1484.76 760.948C1489.59 767.223 1493.78 773.97 1497.26 781.087C1500.61 787.712 1503.4 794.648 1506.3 801.524C1505.8 806.912 1505.74 812.401 1505.53 817.845C1499.83 806.4 1495.72 794.131 1489.76 782.808L1489.76 782.803ZM1506.18 763.805C1501.39 756.102 1495.63 749.044 1489.06 742.803C1485.43 739.289 1481.62 735.987 1477.68 732.836L1484.1 728.889C1489.38 733.118 1494.38 737.684 1499.07 742.557C1505.27 748.999 1510.6 756.22 1514.94 764.039C1516.38 766.65 1517.73 769.307 1519.04 771.99C1517.07 773.848 1515.29 775.908 1513.75 778.135C1511.4 773.267 1508.98 768.436 1506.17 763.81L1506.18 763.805Z" fill="white"/>
<path opacity="0.21" d="M2031.35 854.567C2031.35 994.318 1918.06 1107.61 1778.3 1107.61C1638.55 1107.61 1525.26 994.318 1525.26 854.567C1525.26 714.815 1638.55 601.524 1778.3 601.524C1918.06 601.524 2031.35 714.815 2031.35 854.567Z" fill="white"/>
</svg>
