<svg width="2643" height="1265" viewBox="0 0 2643 1265" fill="none" xmlns="http://www.w3.org/2000/svg">
<path opacity="0.21" d="M497 962.5C497 1099.74 385.743 1211 248.5 1211C111.257 1211 0 1099.74 0 962.5C0 825.257 111.257 714 248.5 714C385.743 714 497 825.257 497 962.5Z" fill="white"/>
<path d="M363.968 441.874C368.299 442.504 371.762 444.726 375.411 446.55C380.328 448.926 385.437 450.886 390.682 452.408C392.206 452.799 393.631 453.507 394.863 454.486C396.095 455.464 397.108 456.691 397.835 458.087C398.235 458.855 398.488 459.687 397.442 460.264C396.564 460.753 395.877 460.3 395.118 459.881C385.656 454.652 375.099 451.013 364.818 446.974C363.79 446.568 362.785 446.105 361.809 445.587C361.556 445.476 361.329 445.313 361.143 445.109C360.957 444.905 360.816 444.663 360.729 444.401C360.643 444.139 360.612 443.861 360.64 443.586C360.668 443.311 360.754 443.045 360.891 442.806C361.359 441.626 362.709 441.91 363.968 441.874Z" fill="#FFA85A"/>
<path d="M407.206 520.75C406.927 521.223 406.592 521.66 406.206 522.05C399.606 527.688 394.962 534.335 390.315 540.988C389.468 542.2 388.736 544.226 386.271 543.168C384.197 542.278 385.617 540.717 386.223 539.493C389.723 532.462 395.576 526.57 401.123 520.539C401.634 519.869 402.335 519.368 403.134 519.101C403.933 518.833 404.794 518.812 405.606 519.039C406.025 519.107 406.409 519.312 406.699 519.621C406.988 519.931 407.167 520.328 407.206 520.75Z" fill="#FFA85A"/>
<path d="M494.511 534.537C494.879 535.775 494.605 536.529 493.388 536.758C492.861 536.934 492.287 536.904 491.78 536.676C491.273 536.448 490.871 536.038 490.652 535.527C488.49 528.803 482.052 524.234 477.252 518.835C476.068 517.503 474.68 516.035 477.063 514.678C479.52 513.278 480.623 514.878 481.85 516.223C484.81 519.479 487.794 522.723 490.868 525.912C492.044 527.016 492.976 528.353 493.603 529.839C494.231 531.324 494.54 532.925 494.511 534.537V534.537Z" fill="#FFA85A"/>
<path d="M514.122 419.453C514 421.053 512.469 422.453 511.202 423.737C505.761 429.246 499.547 434.285 495.947 440.842C495.196 442.211 493.372 444.265 491.182 443.142C489.217 442.134 490.482 440.313 491.667 438.742C496.949 431.742 504.459 426.065 510.101 419.282C510.432 418.902 510.847 418.604 511.312 418.412C511.778 418.22 512.282 418.139 512.785 418.175C513.132 418.168 513.467 418.299 513.718 418.538C513.968 418.778 514.114 419.107 514.122 419.453V419.453Z" fill="#FFA85A"/>
<path d="M390.397 485.33C390.265 486.639 389.037 487.1 387.851 487.53C381.237 489.945 374.651 492.415 367.957 494.681C366.122 495.287 364.347 496.063 362.657 497C362.012 497.433 361.225 497.603 360.458 497.475C359.692 497.347 359.003 496.931 358.533 496.312C357.548 495.099 357.933 493.869 359.648 493.536C369.162 491.676 376.967 486.977 385.754 483.918C388.109 483.105 389.657 483.291 390.397 485.33Z" fill="#FFA85A"/>
<path d="M413.556 411.438C415.558 411.763 417.409 412.705 418.851 414.132C422.311 417.724 424.424 421.862 426.397 426.014C427.111 427.514 427.934 428.952 428.753 430.407C429.264 431.317 430.031 432.393 428.321 433.068C427.739 433.324 427.09 433.388 426.469 433.25C425.849 433.111 425.288 432.777 424.871 432.298C423.83 431.242 422.908 430.076 422.122 428.819C419.442 424.019 417.465 418.949 413.061 414.832C412.224 414.049 411.708 412.999 412.423 411.958C412.635 411.65 413.311 411.542 413.556 411.438Z" fill="#FFA85A"/>
<path d="M471.325 410.962C471.203 417.08 468.881 422.932 467.803 428.934C467.568 430.234 466.316 430.983 464.657 430.793C462.857 430.586 463.193 429.358 463.167 428.337C463.03 425.219 463.517 422.105 464.599 419.177C466.13 415.662 466.89 411.859 466.826 408.025C466.759 406.785 466.676 404.896 469.209 405.004C471.59 405.104 471.365 406.877 471.473 408.214C471.489 409.133 471.44 410.051 471.325 410.962Z" fill="#FFA85A"/>
<path d="M447.964 534.856C448.29 538.49 448.592 542.125 448.952 545.756C449.08 547.043 450.238 548.825 447.523 548.991C445.063 549.14 444.155 547.461 443.938 545.745C443.466 542.003 442.974 538.256 442.703 534.503C442.611 532.326 442.33 530.161 441.864 528.032C441.482 526.492 441.889 524.906 444.383 524.671C446.764 524.448 447.234 525.863 447.402 527.331C447.686 529.831 447.935 532.337 448.202 534.839L447.964 534.856Z" fill="#FFA85A"/>
<path d="M524.219 503.078C524.107 504.436 522.931 505.058 521.285 504.715C519.206 504.293 517.168 503.691 515.194 502.915C510.67 501.097 506.244 499.132 501.774 497.232C500.151 496.542 498.411 495.675 499.806 494.099C500.432 493.429 501.259 492.981 502.162 492.821C503.065 492.662 503.995 492.801 504.812 493.217C510.898 495.817 516.168 499.542 522.834 501.346C523.23 501.429 523.586 501.647 523.838 501.963C524.091 502.279 524.226 502.673 524.219 503.078Z" fill="#FFA85A"/>
<path d="M507.344 475.41C505.706 475.554 505.055 475.323 504.631 474.81C504.062 474.125 504.394 473.457 504.955 472.904C506.133 471.74 507.621 470.942 509.242 470.604C516.428 469.112 523.657 467.747 530.851 466.281C532.162 466.013 533.163 466.045 533.778 467.087C534.451 468.223 533.518 468.919 532.443 469.287C524.089 472.097 514.762 472.404 507.344 475.41Z" fill="#FFA85A"/>
<path d="M443.938 545.746C443.465 542.004 442.974 538.257 442.702 534.503C442.61 532.326 442.329 530.161 441.863 528.033C441.482 526.493 441.888 524.907 444.382 524.671C446.762 524.448 447.233 525.864 447.401 527.333C447.685 529.833 447.933 532.332 448.201 534.839L447.964 534.857C448.29 538.491 448.593 542.124 448.952 545.756C449.081 547.044 450.238 548.826 447.524 548.991C447.424 548.997 447.324 549 447.224 549C444.988 549.001 444.147 547.391 443.938 545.746ZM386.27 543.165C384.196 542.274 385.615 540.712 386.222 539.488C389.722 532.457 395.576 526.567 401.128 520.536C401.639 519.866 402.34 519.364 403.139 519.097C403.938 518.829 404.799 518.808 405.611 519.036C406.029 519.105 406.413 519.31 406.701 519.621C406.99 519.931 407.167 520.329 407.206 520.751C406.927 521.223 406.592 521.66 406.206 522.05C399.606 527.688 394.962 534.334 390.315 540.988C389.633 541.962 389.027 543.465 387.533 543.465C387.096 543.452 386.667 543.35 386.271 543.166L386.27 543.165ZM490.651 535.528C488.488 528.803 482.051 524.235 477.251 518.837C476.066 517.505 474.678 516.036 477.062 514.677C479.519 513.277 480.622 514.878 481.848 516.223C484.807 519.479 487.792 522.723 490.866 525.912C492.043 527.015 492.975 528.352 493.603 529.838C494.231 531.323 494.541 532.924 494.512 534.537C494.88 535.775 494.606 536.528 493.388 536.757C493.168 536.8 492.944 536.822 492.719 536.822C492.28 536.862 491.841 536.758 491.467 536.524C491.094 536.29 490.808 535.94 490.652 535.528H490.651ZM521.284 504.716C519.205 504.294 517.167 503.692 515.193 502.917C510.67 501.1 506.243 499.134 501.773 497.234C500.151 496.544 498.411 495.678 499.804 494.101C500.43 493.431 501.257 492.983 502.16 492.824C503.063 492.665 503.993 492.804 504.81 493.22C510.896 495.82 516.166 499.545 522.833 501.35C523.229 501.432 523.585 501.65 523.838 501.966C524.09 502.283 524.224 502.678 524.217 503.083C524.201 503.336 524.133 503.583 524.018 503.809C523.903 504.035 523.743 504.236 523.548 504.398C523.352 504.56 523.126 504.68 522.883 504.751C522.639 504.822 522.384 504.844 522.132 504.813C521.847 504.809 521.563 504.777 521.285 504.716H521.284ZM358.536 496.317C357.552 495.105 357.941 493.876 359.651 493.542C369.166 491.682 376.97 486.981 385.758 483.923C388.109 483.105 389.658 483.291 390.397 485.33C390.266 486.638 389.036 487.1 387.852 487.529C381.238 489.946 374.652 492.418 367.958 494.683C366.123 495.288 364.348 496.064 362.658 497.001C362.12 497.319 361.508 497.493 360.883 497.506C360.427 497.5 359.978 497.39 359.571 497.183C359.164 496.977 358.81 496.68 358.536 496.316V496.317ZM504.63 474.812C504.061 474.127 504.393 473.458 504.954 472.905C506.132 471.742 507.62 470.944 509.24 470.606C516.427 469.114 523.655 467.75 530.85 466.285C532.16 466.015 533.162 466.048 533.777 467.085C534.45 468.222 533.518 468.918 532.442 469.285C524.088 472.102 514.761 472.41 507.342 475.417C507.02 475.444 506.735 475.459 506.484 475.459C506.146 475.507 505.801 475.473 505.479 475.36C505.156 475.247 504.866 475.059 504.631 474.811L504.63 474.812ZM395.119 459.888C385.657 454.659 375.1 451.02 364.819 446.981C363.79 446.575 362.786 446.112 361.81 445.592C361.557 445.482 361.33 445.319 361.144 445.115C360.958 444.911 360.817 444.669 360.73 444.407C360.644 444.144 360.614 443.867 360.642 443.592C360.67 443.317 360.755 443.051 360.893 442.812C361.278 441.835 362.263 441.856 363.302 441.876C363.523 441.881 363.749 441.885 363.971 441.876C368.302 442.506 371.765 444.728 375.414 446.552C380.331 448.929 385.439 450.888 390.684 452.411C392.208 452.802 393.633 453.51 394.865 454.488C396.097 455.467 397.11 456.694 397.837 458.089C398.237 458.858 398.491 459.69 397.444 460.267C397.211 460.403 396.947 460.476 396.677 460.479C396.117 460.414 395.581 460.21 395.119 459.887V459.888ZM491.181 443.145C489.216 442.137 490.481 440.317 491.667 438.75C496.949 431.75 504.458 426.072 510.101 419.29C510.431 418.909 510.846 418.612 511.312 418.42C511.777 418.228 512.282 418.147 512.784 418.184C513.13 418.176 513.464 418.305 513.715 418.543C513.966 418.78 514.113 419.108 514.123 419.454C514.002 421.054 512.471 422.453 511.203 423.738C505.762 429.246 499.547 434.287 495.947 440.845C495.347 441.937 494.063 443.468 492.454 443.468C492.01 443.464 491.573 443.354 491.181 443.145V443.145ZM424.871 432.298C423.83 431.243 422.908 430.076 422.122 428.819C419.441 424.019 417.465 418.949 413.061 414.832C412.224 414.048 411.708 412.999 412.423 411.958C412.635 411.651 413.311 411.543 413.556 411.438C415.56 411.761 417.413 412.702 418.856 414.13C422.317 417.723 424.429 421.861 426.403 426.014C427.117 427.514 427.939 428.951 428.758 430.406C429.27 431.316 430.037 432.392 428.327 433.067C427.933 433.226 427.512 433.31 427.087 433.314C426.667 433.312 426.251 433.221 425.869 433.047C425.487 432.872 425.146 432.617 424.87 432.3L424.871 432.298ZM464.658 430.798C462.858 430.591 463.194 429.362 463.168 428.341C463.03 425.223 463.517 422.109 464.6 419.182C466.13 415.666 466.89 411.863 466.826 408.029C466.758 406.788 466.676 404.899 469.207 405.008C471.59 405.108 471.364 406.88 471.473 408.217C471.489 409.136 471.44 410.055 471.325 410.966C471.204 417.084 468.882 422.936 467.803 428.939C467.671 429.523 467.329 430.038 466.842 430.387C466.354 430.735 465.756 430.892 465.16 430.828C464.992 430.826 464.824 430.815 464.657 430.795L464.658 430.798Z" fill="white"/>
<path opacity="0.21" d="M2643 289C2643 448.61 2513.61 578 2354 578C2194.39 578 2065 448.61 2065 289C2065 129.39 2194.39 0 2354 0C2513.61 0 2643 129.39 2643 289Z" fill="white"/>
<path d="M410 743C410 802.647 361.647 851 302 851C242.353 851 194 802.647 194 743C194 683.353 242.353 635 302 635C361.647 635 410 683.353 410 743Z" fill="#DF3E3F"/>
<path d="M1735.01 899.321C1742.87 915.556 1752.61 930.283 1766.12 942.383C1778.02 953.035 1791.93 961.023 1806.33 967.774C1823.86 976 1842.07 982.7 1859.76 990.571C1861.48 991.339 1863.69 990.184 1865.01 989.087C1865.72 988.499 1867.9 986.059 1866.17 985.29C1836.02 971.876 1802.99 962.009 1777.01 940.907C1763.37 929.832 1752.89 915.824 1744.95 900.225C1742.08 894.591 1739.45 888.835 1736.7 883.143C1734.47 885.364 1732.49 887.812 1730.78 890.447C1732.19 893.409 1733.58 896.374 1735.01 899.321Z" fill="#554140"/>
<path d="M1721.4 872.595C1724.62 877.879 1727.39 883.4 1730.07 888.969C1731.83 886.423 1733.86 884.069 1736.11 881.945C1734.61 878.884 1733.07 875.846 1731.42 872.862C1726.46 863.932 1720.36 855.684 1713.27 848.324C1707.9 842.757 1702.18 837.54 1696.15 832.708L1688.82 837.219C1693.32 840.818 1697.68 844.59 1701.83 848.602C1709.35 855.734 1715.93 863.796 1721.4 872.595V872.595Z" fill="#554140"/>
<path d="M1687.84 871.597C1693.61 878.594 1698.58 886.21 1702.66 894.305C1709.47 907.241 1714.19 921.259 1720.7 934.338C1720.94 928.117 1721.01 921.847 1721.58 915.691C1718.25 907.837 1715.06 899.911 1711.23 892.341C1707.25 884.211 1702.46 876.504 1696.93 869.335C1691.83 863.065 1685.65 857.753 1678.69 853.648C1675.87 851.919 1672.98 850.299 1670.02 848.788L1662.41 853.472C1664.45 854.499 1666.47 855.571 1668.46 856.691C1675.62 860.721 1682.47 865.322 1687.84 871.597Z" fill="#554140"/>
<path d="M1721.85 936.594C1723.8 940.379 1725.96 944.048 1728.34 947.583C1734.06 956.213 1741.66 963.435 1750.57 968.702C1759.75 974.015 1769.8 977.659 1779.86 980.947C1791.38 984.719 1802.71 988.841 1813.97 993.337C1825.34 997.876 1836.71 1002.44 1848.37 1006.2C1850.92 1007.02 1857.29 1001.72 1853.52 1000.5C1832.66 993.771 1812.82 984.28 1791.97 977.488C1781.81 974.178 1771.63 970.931 1762.05 966.136C1752.59 961.551 1744.35 954.801 1737.99 946.436C1731.46 937.755 1726.86 928.016 1722.61 918.094C1722.16 924.051 1722.13 930.053 1721.88 936.012C1721.87 936.207 1721.86 936.399 1721.85 936.594Z" fill="#554140"/>
<path d="M1715.05 968.899C1716.12 970.086 1717.2 971.265 1718.29 972.423C1732.05 986.948 1748.54 998.074 1767.6 1004.36C1789.51 1011.58 1812.62 1013.9 1834.8 1020.06C1837.39 1020.77 1843.73 1015.41 1839.95 1014.36C1820.21 1008.88 1799.77 1006.43 1780.04 1000.89C1760.74 995.582 1743.11 985.404 1728.87 971.333C1725.18 967.673 1721.68 963.839 1718.31 959.882C1717.89 961.313 1717.43 962.737 1716.93 964.153C1716.35 965.764 1715.73 967.346 1715.05 968.899Z" fill="#554140"/>
<path d="M1660.16 897.992C1667.73 905.662 1674.21 914.343 1680.46 923.091C1691.26 938.224 1701.68 953.809 1714.04 967.754C1715.3 964.791 1716.39 961.755 1717.29 958.662C1707.77 947.328 1699.32 935.042 1690.83 922.995C1684.65 914.218 1678.37 905.455 1671.17 897.475C1665.15 890.586 1657.87 884.903 1649.73 880.726C1643.54 877.768 1637.18 875.187 1630.68 872.999L1622.92 877.773C1627.94 879.57 1632.94 881.351 1637.76 883.436C1646.04 887.011 1653.8 891.542 1660.16 897.992Z" fill="#554140"/>
<path d="M1657.1 949.672C1671.28 963.326 1684.61 978.005 1699.78 990.594C1701.56 988.5 1703.24 986.341 1704.83 984.115C1691.74 972.986 1679.98 960.386 1667.67 948.398C1652.87 933.971 1637.51 919.921 1620.23 908.487C1612.3 903.228 1603.95 898.649 1595.25 894.8L1587.58 899.523C1594.97 902.695 1602.12 906.418 1608.96 910.66C1626.58 921.565 1642.22 935.338 1657.1 949.672Z" fill="#554140"/>
<path d="M1702.86 993.104C1718.71 1005.81 1736.38 1016.07 1755.28 1023.52C1777.06 1031.97 1800.19 1036.42 1823.55 1036.66C1824.59 1036.56 1825.6 1036.22 1826.49 1035.67C1827.38 1035.12 1828.14 1034.38 1828.69 1033.49C1829.62 1031.88 1828.83 1030.94 1827.11 1030.92C1785.87 1030.41 1746.12 1015.85 1713.37 991.009C1710.8 989.058 1708.3 987.034 1705.83 984.961C1704.23 987.173 1702.54 989.318 1700.75 991.395C1701.46 991.966 1702.15 992.541 1702.86 993.104Z" fill="#554140"/>
<path d="M1569.38 934.178C1580.97 938.493 1592.19 943.163 1602.57 949.97C1611.97 956.135 1620.56 963.423 1629.19 970.597C1645.31 983.99 1661.51 997.469 1678.28 1010.06C1680.54 1008.43 1682.75 1006.73 1684.92 1004.97C1669.99 993.776 1655.66 981.736 1641.22 969.951C1632.4 962.75 1623.84 955.21 1614.59 948.548C1604.99 941.687 1594.56 936.076 1583.55 931.85C1576.57 929.123 1569.53 926.54 1562.44 924.102C1559.3 923.01 1556.14 921.894 1552.98 920.811L1545.1 925.661C1546.9 926.267 1548.7 926.885 1550.49 927.492C1556.82 929.63 1563.12 931.858 1569.38 934.178Z" fill="#554140"/>
<path d="M1679.34 1010.86C1680.45 1011.69 1681.56 1012.51 1682.67 1013.33C1701 1026.84 1720.66 1038.83 1742.46 1045.81C1754.29 1049.59 1766.26 1050.03 1778.59 1049.79C1790.49 1049.57 1802.51 1049.09 1814.09 1052.35C1816.67 1053.08 1823.01 1047.72 1819.24 1046.66C1798.38 1040.77 1776.47 1046.88 1755.45 1042.29C1744.5 1039.9 1733.87 1035.25 1723.94 1030.14C1713.81 1024.84 1704.07 1018.84 1694.79 1012.17C1691.82 1010.07 1688.88 1007.93 1685.97 1005.75C1685.44 1006.19 1684.9 1006.63 1684.36 1007.06C1682.72 1008.36 1681.04 1009.63 1679.34 1010.86Z" fill="#554140"/>
<path d="M1813.73 1052.07C1802.15 1048.8 1790.13 1049.28 1778.23 1049.5C1765.9 1049.73 1753.93 1049.29 1742.1 1045.5C1720.3 1038.52 1700.65 1026.53 1682.32 1013.02C1681.21 1012.21 1680.1 1011.38 1679 1010.55C1680.69 1009.32 1682.37 1008.06 1684.02 1006.75C1684.56 1006.32 1685.09 1005.88 1685.63 1005.45C1688.54 1007.63 1691.48 1009.77 1694.45 1011.87C1703.73 1018.54 1713.46 1024.54 1723.59 1029.84C1733.51 1034.95 1744.15 1039.6 1755.09 1041.99C1776.11 1046.58 1798.03 1040.48 1818.88 1046.37C1822.35 1047.35 1817.27 1051.95 1814.42 1052.13C1814.19 1052.15 1813.96 1052.13 1813.73 1052.07V1052.07ZM1823.2 1036.38C1799.84 1036.14 1776.71 1031.69 1754.93 1023.23C1736.03 1015.78 1718.37 1005.52 1702.53 992.811C1701.82 992.253 1701.12 991.674 1700.43 991.101C1702.21 989.026 1703.9 986.883 1705.51 984.673C1707.97 986.743 1710.47 988.767 1713.04 990.717C1745.78 1015.56 1785.52 1030.13 1826.76 1030.65C1828.48 1030.67 1829.27 1031.61 1828.35 1033.22C1827.81 1034.06 1827.09 1034.78 1826.24 1035.33C1825.4 1035.87 1824.45 1036.23 1823.45 1036.37C1823.37 1036.38 1823.29 1036.38 1823.2 1036.38ZM1834.46 1019.79C1812.29 1013.63 1789.17 1011.31 1767.27 1004.08C1748.21 997.793 1731.72 986.668 1717.98 972.144C1716.88 970.983 1715.8 969.803 1714.73 968.616C1715.41 967.063 1716.04 965.483 1716.62 963.876C1717.13 962.462 1717.58 961.037 1718 959.607C1721.37 963.563 1724.87 967.402 1728.55 971.056C1742.79 985.128 1760.41 995.306 1779.71 1000.61C1799.44 1006.16 1819.88 1008.61 1839.62 1014.1C1843.09 1015.06 1838 1019.68 1835.15 1019.85C1834.92 1019.87 1834.69 1019.85 1834.46 1019.79ZM1848.04 1005.94C1836.38 1002.17 1825.02 997.611 1813.64 993.07C1802.38 988.572 1791.06 984.448 1779.54 980.675C1769.49 977.383 1759.44 973.739 1750.26 968.424C1741.35 963.157 1733.75 955.936 1728.04 947.305C1727.27 946.168 1726.52 945.018 1725.81 943.856C1724.29 941.394 1722.89 938.876 1721.56 936.318C1721.57 936.124 1721.58 935.933 1721.59 935.739C1721.84 929.783 1721.87 923.782 1722.32 917.828C1726.57 927.749 1731.16 937.485 1737.68 946.165C1744.04 954.53 1752.27 961.279 1761.73 965.865C1771.31 970.661 1781.49 973.91 1791.65 977.221C1812.49 984.014 1832.33 993.508 1853.19 1000.24C1856.62 1001.35 1851.64 1005.85 1848.8 1006.02C1848.54 1006.04 1848.28 1006.01 1848.04 1005.94L1848.04 1005.94ZM1628.87 970.288C1620.24 963.114 1611.66 955.827 1602.26 949.662C1591.88 942.856 1580.67 938.181 1569.08 933.861C1562.82 931.531 1556.52 929.301 1550.19 927.172C1548.4 926.566 1546.6 925.949 1544.8 925.342L1552.68 920.496C1555.85 921.577 1559 922.697 1562.14 923.787C1569.22 926.244 1576.26 928.827 1583.25 931.539C1594.26 935.766 1604.69 941.378 1614.28 948.238C1623.52 954.9 1632.08 962.442 1640.91 969.641C1655.34 981.427 1669.66 993.467 1684.58 1004.66C1682.42 1006.42 1680.21 1008.12 1677.94 1009.75C1661.17 997.166 1644.98 983.687 1628.86 970.294L1628.87 970.288ZM1859.44 990.317C1841.75 982.444 1823.55 975.741 1806.02 967.513C1791.63 960.758 1777.71 952.766 1765.83 942.123C1757.01 934.121 1749.41 924.882 1743.25 914.693C1740.15 909.632 1737.31 904.416 1734.74 899.066C1733.31 896.119 1731.92 893.155 1730.51 890.199C1732.23 887.566 1734.21 885.12 1736.44 882.9C1739.19 888.588 1741.81 894.344 1744.68 899.978C1752.61 915.574 1763.08 929.579 1776.72 940.655C1802.69 961.754 1835.71 971.626 1865.86 985.044C1867.59 985.814 1865.41 988.252 1864.69 988.84C1863.63 989.778 1862.3 990.378 1860.89 990.564C1860.39 990.603 1859.89 990.52 1859.43 990.322L1859.44 990.317ZM1656.79 949.378C1641.92 935.044 1626.29 921.273 1608.67 910.365C1601.83 906.123 1594.69 902.399 1587.29 899.227L1594.97 894.506C1603.66 898.356 1612.02 902.935 1619.94 908.193C1637.22 919.628 1652.57 933.678 1667.36 948.104C1679.66 960.095 1691.42 972.688 1704.5 983.82C1702.92 986.044 1701.23 988.202 1699.45 990.296C1684.28 977.715 1670.95 963.038 1656.79 949.382L1656.79 949.378ZM1680.17 922.812C1673.92 914.064 1667.45 905.383 1659.89 897.712C1653.52 891.26 1645.77 886.732 1637.49 883.154C1632.68 881.073 1627.67 879.289 1622.65 877.49L1630.41 872.72C1636.91 874.912 1643.27 877.495 1649.46 880.455C1657.6 884.632 1664.87 890.316 1670.89 897.204C1678.09 905.185 1684.36 913.945 1690.54 922.721C1699.02 934.767 1707.47 947.048 1716.98 958.382C1716.07 961.474 1714.99 964.509 1713.72 967.47C1701.37 953.531 1690.96 937.949 1680.16 922.818L1680.17 922.812ZM1702.39 894.036C1698.31 885.943 1693.34 878.328 1687.58 871.334C1682.21 865.057 1675.36 860.46 1668.21 856.427C1666.22 855.307 1664.2 854.234 1662.15 853.208L1669.77 848.527C1672.72 850.039 1675.61 851.66 1678.44 853.388C1685.4 857.492 1691.57 862.804 1696.67 869.073C1702.2 876.241 1706.98 883.948 1710.96 892.077C1714.79 899.643 1717.97 907.566 1721.29 915.419C1720.72 921.573 1720.65 927.842 1720.41 934.061C1713.9 920.988 1709.19 906.975 1702.39 894.042L1702.39 894.036ZM1721.15 872.338C1715.67 863.54 1709.1 855.479 1701.58 848.35C1697.43 844.337 1693.08 840.565 1688.58 836.965L1695.92 832.457C1701.95 837.288 1707.67 842.503 1713.03 848.069C1720.11 855.427 1726.21 863.676 1731.16 872.606C1732.81 875.588 1734.35 878.623 1735.85 881.687C1733.59 883.81 1731.56 886.162 1729.8 888.706C1727.12 883.146 1724.35 877.628 1721.14 872.344L1721.15 872.338Z" fill="white"/>
<path opacity="0.21" d="M2320 976C2320 1135.61 2190.61 1265 2031 1265C1871.39 1265 1742 1135.61 1742 976C1742 816.39 1871.39 687 2031 687C2190.61 687 2320 816.39 2320 976Z" fill="white"/>
</svg>
