<svg width="103" height="86" viewBox="0 0 103 86" fill="none" xmlns="http://www.w3.org/2000/svg">
<path d="M4.28916 21.9783C6.7868 22.3538 8.78388 23.6783 10.8882 24.7655C13.7241 26.1821 16.67 27.3501 19.6949 28.2573C20.5738 28.4907 21.3953 28.9127 22.106 29.496C22.8167 30.0792 23.4007 30.8105 23.8199 31.6424C24.0506 32.1001 24.1965 32.5961 23.5933 32.94C23.087 33.2315 22.6908 32.9615 22.2531 32.7117C16.7964 29.5949 10.7083 27.4258 4.77934 25.0182C4.18648 24.7763 3.60715 24.5002 3.04408 24.1915C2.8981 24.1255 2.7672 24.0285 2.65992 23.9067C2.55263 23.7849 2.47137 23.6412 2.42143 23.4848C2.37148 23.3284 2.35397 23.1629 2.37004 22.999C2.38611 22.8352 2.43539 22.6767 2.51468 22.5338C2.78457 21.8304 3.5631 21.9997 4.28916 21.9783Z" fill="#FFA85A"/>
<path d="M29.1859 68.9933C29.0252 69.2751 28.8315 69.5354 28.6092 69.7682C24.803 73.1288 22.1248 77.0908 19.4449 81.0564C18.9564 81.7788 18.5343 82.9864 17.1127 82.3558C15.9166 81.8253 16.7355 80.8949 17.085 80.1653C19.1035 75.9744 22.4789 72.4624 25.6778 68.8675C25.9727 68.4682 26.3767 68.1695 26.8376 68.0101C27.2985 67.8507 27.7951 67.8379 28.2631 67.9734C28.5045 68.0137 28.7262 68.1357 28.8932 68.3203C29.0602 68.5049 29.1632 68.7416 29.1859 68.9933Z" fill="#FFA85A"/>
<path d="M79.5343 77.2109C79.7465 77.9488 79.5885 78.3982 78.8867 78.5347C78.5825 78.6391 78.2515 78.6217 77.9593 78.4858C77.667 78.3499 77.4349 78.1055 77.3088 77.801C76.0619 73.7933 72.349 71.07 69.5807 67.8521C68.8979 67.0582 68.0974 66.1832 69.4717 65.3744C70.8887 64.54 71.5248 65.4936 72.2325 66.2953C73.9396 68.2359 75.6605 70.1694 77.4333 72.0702C78.1116 72.7278 78.6489 73.5251 79.0108 74.4105C79.3727 75.2959 79.551 76.2499 79.5343 77.2109V77.2109Z" fill="#FFA85A"/>
<path d="M90.8434 8.61499C90.773 9.56868 89.8901 10.4032 89.1594 11.1685C86.0217 14.4522 82.4381 17.4557 80.362 21.364C79.9289 22.18 78.8771 23.4043 77.6141 22.735C76.4809 22.1341 77.2104 21.0487 77.8938 20.1123C80.9399 15.9399 85.2708 12.5561 88.5245 8.51307C88.7153 8.28649 88.9545 8.10891 89.2231 7.99438C89.4918 7.87986 89.7825 7.83153 90.0723 7.85323C90.2722 7.84891 90.4656 7.92667 90.6102 8.06945C90.7547 8.21224 90.8385 8.40841 90.8434 8.61499V8.61499Z" fill="#FFA85A"/>
<path d="M19.4918 47.8803C19.4156 48.6606 18.7075 48.9354 18.0236 49.1917C14.2095 50.6312 10.4116 52.1041 6.55142 53.4549C5.49316 53.8158 4.46992 54.2784 3.4951 54.8366C3.12297 55.0949 2.66933 55.1964 2.22717 55.1201C1.78501 55.0439 1.3878 54.7957 1.11694 54.4265C0.548929 53.7034 0.770943 52.9708 1.75992 52.7723C7.2463 51.6636 11.7472 48.8626 16.8143 47.0392C18.1724 46.5546 19.065 46.6649 19.4918 47.8803Z" fill="#FFA85A"/>
<path d="M32.8477 3.83694C34.0025 4.03089 35.0701 4.59221 35.9017 5.44272C37.8973 7.58375 39.116 10.0502 40.2539 12.5251C40.6658 13.4191 41.1404 14.2769 41.6128 15.1441C41.9075 15.6865 42.3499 16.3273 41.3636 16.7296C41.028 16.8828 40.6538 16.9209 40.2957 16.8383C39.9376 16.7557 39.6146 16.5568 39.3738 16.2707C38.7732 15.6418 38.2414 14.9463 37.7883 14.197C36.2425 11.3359 35.1023 8.31392 32.5622 5.85996C32.0794 5.39325 31.7818 4.76798 32.1942 4.14749C32.3165 3.9639 32.7064 3.89953 32.8477 3.83694Z" fill="#FFA85A"/>
<path d="M66.1636 3.55356C66.0932 7.20031 64.754 10.6885 64.1322 14.2661C63.9967 15.041 63.2746 15.4875 62.3177 15.3742C61.2795 15.2508 61.4733 14.5188 61.4583 13.9103C61.3794 12.0516 61.6602 10.1953 62.2843 8.45027C63.1674 6.35487 63.6054 4.08812 63.5687 1.80291C63.5301 1.06378 63.4822 -0.06219 64.9432 0.00218541C66.3165 0.0617923 66.1867 1.11862 66.249 1.91557C66.2582 2.46297 66.2297 3.01036 66.1636 3.55356Z" fill="#FFA85A"/>
<path d="M52.691 77.4012C52.879 79.5673 53.0532 81.734 53.2608 83.8983C53.3346 84.6654 54.0024 85.7276 52.4367 85.8266C51.0181 85.9154 50.4944 84.9146 50.3693 83.8917C50.0971 81.6613 49.8134 79.4278 49.6571 77.1908C49.6038 75.8931 49.4419 74.6025 49.1732 73.3337C48.9529 72.4157 49.1877 71.4704 50.6259 71.3303C51.999 71.1974 52.2701 72.0408 52.3669 72.9158C52.5307 74.406 52.6743 75.8997 52.8283 77.3911L52.691 77.4012Z" fill="#FFA85A"/>
<path d="M96.6656 58.4593C96.601 59.2687 95.9228 59.6394 94.9736 59.435C93.7749 59.1833 92.5996 58.8244 91.461 58.3622C88.852 57.2787 86.2996 56.1075 83.7218 54.9751C82.7858 54.5639 81.7823 54.0472 82.5868 53.1079C82.9477 52.7085 83.4245 52.4412 83.9453 52.3463C84.466 52.2515 85.0025 52.3343 85.4738 52.5822C88.9835 54.1318 92.0227 56.3519 95.8669 57.4271C96.0955 57.4762 96.3003 57.6061 96.4461 57.7946C96.5919 57.983 96.6696 58.2181 96.6656 58.4593Z" fill="#FFA85A"/>
<path d="M86.9333 41.9681C85.9887 42.0539 85.6133 41.9162 85.3687 41.6104C85.0406 41.2021 85.232 40.8039 85.5556 40.4743C86.2348 39.7809 87.0933 39.3048 88.0279 39.1033C92.1721 38.214 96.341 37.4003 100.49 36.5265C101.246 36.3667 101.823 36.3858 102.178 37.0069C102.566 37.6841 102.028 38.0989 101.408 38.3183C96.5902 39.9933 91.2113 40.1763 86.9333 41.9681Z" fill="#FFA85A"/>
<path d="M50.3682 83.8923C50.0954 81.6619 49.8123 79.4284 49.6554 77.1908C49.6024 75.8933 49.4405 74.6031 49.1716 73.3345C48.9519 72.4166 49.186 71.4711 50.6242 71.3304C51.9968 71.1975 52.2684 72.0415 52.3653 72.9171C52.5291 74.4073 52.6721 75.8973 52.8267 77.3916L52.69 77.4018C52.878 79.5679 53.0527 81.7339 53.2597 83.8987C53.3341 84.6664 54.0014 85.7282 52.4362 85.8266C52.3786 85.8302 52.3209 85.8318 52.2632 85.8318C50.9737 85.8324 50.4887 84.8728 50.3682 83.8923ZM17.1118 82.3539C15.9157 81.8228 16.7341 80.8922 17.0841 80.1626C19.1025 75.9718 22.4785 72.4606 25.6802 68.8658C25.975 68.4664 26.379 68.1676 26.84 68.0081C27.3009 67.8487 27.7975 67.8361 28.2655 67.9718C28.5066 68.0129 28.7278 68.1354 28.8943 68.3204C29.0607 68.5054 29.1631 68.7423 29.1854 68.9939C29.0247 69.2757 28.831 69.5359 28.6087 69.7687C24.8025 73.1292 22.1244 77.0906 19.4445 81.0567C19.0512 81.6373 18.7017 82.5332 17.8401 82.5332C17.5883 82.5253 17.3407 82.4645 17.1124 82.3545L17.1118 82.3539ZM77.307 77.8023C76.0597 73.7938 72.3475 71.0705 69.5794 67.853C68.896 67.0591 68.0956 66.184 69.4704 65.3739C70.8874 64.5395 71.5234 65.4934 72.2305 66.2951C73.9369 68.2358 75.6583 70.1694 77.431 72.0702C78.1096 72.7277 78.6474 73.5247 79.0096 74.4102C79.3717 75.2957 79.5502 76.25 79.5336 77.2112C79.7458 77.9491 79.5879 78.3983 78.8855 78.5348C78.7583 78.5604 78.6291 78.5733 78.4996 78.5735C78.2467 78.5974 77.9931 78.535 77.7778 78.3957C77.5626 78.2564 77.3974 78.0479 77.3076 77.8023H77.307ZM94.9727 59.4367C93.774 59.1848 92.5987 58.8259 91.4601 58.3639C88.8517 57.2809 86.2987 56.1096 83.7209 54.9771C82.7855 54.5658 81.7821 54.0491 82.5854 53.1091C82.9465 52.7099 83.4233 52.4428 83.944 52.3481C84.4647 52.2534 85.0012 52.3363 85.4724 52.5841C88.9821 54.1338 92.0212 56.3541 95.866 57.4299C96.0947 57.479 96.2996 57.6089 96.4454 57.7975C96.5911 57.9862 96.6685 58.2215 96.6642 58.4629C96.6549 58.6138 96.6159 58.7612 96.5495 58.8959C96.4831 59.0307 96.3908 59.1501 96.2782 59.2466C96.1656 59.3432 96.0351 59.4148 95.8947 59.4573C95.7543 59.4999 95.6069 59.5124 95.4617 59.494C95.2975 59.4919 95.1339 59.4726 94.9733 59.4367H94.9727ZM1.11793 54.4299C0.550474 53.7075 0.7748 52.975 1.76094 52.7759C7.24812 51.6672 11.7486 48.8657 16.8166 47.043C18.1724 46.5554 19.0656 46.6658 19.4918 47.8812C19.4162 48.6608 18.7069 48.9366 18.0241 49.1923C14.2099 50.633 10.4118 52.106 6.55149 53.4561C5.49315 53.8169 4.46984 54.2794 3.49501 54.8376C3.18456 55.0275 2.83207 55.1312 2.47145 55.1392C2.20838 55.1355 1.94958 55.0695 1.71497 54.9465C1.48035 54.8234 1.27614 54.6466 1.11793 54.4293V54.4299ZM85.3686 41.6118C85.0404 41.2035 85.2319 40.8052 85.5554 40.4756C86.2345 39.7823 87.0927 39.3064 88.0271 39.1048C92.1717 38.2155 96.34 37.4026 100.489 36.5294C101.245 36.3684 101.823 36.388 102.177 37.0061C102.565 37.6838 102.028 38.0988 101.407 38.3175C96.5898 39.9966 91.211 40.1801 86.9326 41.9724C86.7469 41.9885 86.5825 41.9975 86.4377 41.9975C86.2427 42.026 86.0439 42.0059 85.858 41.9387C85.672 41.8715 85.5044 41.7592 85.3691 41.6113L85.3686 41.6118ZM22.2149 32.7164C16.7583 29.5997 10.6702 27.4305 4.74124 25.0231C4.14813 24.7815 3.56883 24.5051 3.00604 24.1956C2.86004 24.1297 2.72909 24.0328 2.62181 23.911C2.51454 23.7892 2.43335 23.6454 2.38345 23.489C2.33355 23.3326 2.31612 23.1671 2.33227 23.0032C2.34843 22.8394 2.39775 22.6809 2.47715 22.5381C2.69917 21.9558 3.26724 21.9683 3.86642 21.9802C3.99387 21.9832 4.12417 21.9856 4.2522 21.9802C6.74983 22.3557 8.74697 23.6806 10.8513 24.7678C13.687 26.1841 16.6326 27.3524 19.6573 28.2597C20.5362 28.4931 21.3578 28.9149 22.0685 29.4981C22.7792 30.0813 23.3632 30.8127 23.7824 31.6445C24.013 32.1029 24.1595 32.5984 23.5557 32.9423C23.4214 33.0235 23.2689 33.067 23.1134 33.0686C22.7902 33.0299 22.4814 32.9087 22.2149 32.7159V32.7164ZM77.6127 22.7366C76.4795 22.1358 77.209 21.051 77.8929 20.117C80.939 15.9446 85.2693 12.5602 88.5236 8.51779C88.7142 8.29119 88.9533 8.11359 89.2218 7.99916C89.4904 7.88472 89.7812 7.83663 90.0709 7.85859C90.2702 7.85393 90.4632 7.9307 90.6078 8.0725C90.7525 8.2143 90.837 8.40963 90.8431 8.61558C90.7733 9.56927 89.8904 10.4035 89.1591 11.1695C86.0214 14.4525 82.4373 17.4569 80.3612 21.3658C80.0152 22.0167 79.2747 22.9296 78.3468 22.9296C78.0906 22.9273 77.8388 22.8612 77.6127 22.7366V22.7366ZM39.3725 16.2717C38.7724 15.6424 38.2408 14.947 37.7872 14.1981C36.2411 11.337 35.1016 8.31454 32.5619 5.86059C32.0792 5.39328 31.7816 4.76801 32.1939 4.14751C32.3161 3.96453 32.706 3.90014 32.8473 3.83756C34.0031 4.03032 35.0716 4.59145 35.9037 5.44265C37.8996 7.58427 39.1176 10.0503 40.256 12.5257C40.6677 13.4198 41.1418 14.2767 41.6141 15.1439C41.9094 15.6863 42.3517 16.3272 41.3656 16.7295C41.1383 16.8248 40.8957 16.8748 40.6505 16.8768C40.4081 16.8759 40.1686 16.8217 39.9481 16.7176C39.7277 16.6135 39.5312 16.4617 39.3719 16.2729L39.3725 16.2717ZM62.3172 15.3776C61.2791 15.2543 61.4729 14.5217 61.4579 13.9131C61.3782 12.0545 61.659 10.1983 62.2837 8.45347C63.1663 6.35803 63.6041 4.09117 63.5675 1.80609C63.5283 1.06638 63.481 -0.0595587 64.9406 0.00541109C66.3148 0.0650164 66.1845 1.12121 66.2473 1.91814C66.2566 2.46572 66.2281 3.01331 66.1619 3.5567C66.0922 7.20335 64.7531 10.691 64.1309 14.2691C64.0549 14.6174 63.8575 14.9247 63.5764 15.1323C63.2953 15.3399 62.9502 15.4336 62.6067 15.3951C62.5097 15.3942 62.4129 15.3875 62.3166 15.3753L62.3172 15.3776Z" fill="white"/>
</svg>
