<svg width="1300" height="378" viewBox="0 0 1300 378" fill="none" xmlns="http://www.w3.org/2000/svg">
<path fill-rule="evenodd" clip-rule="evenodd" d="M16.0579 1.63913C11.7502 5.72949 7.63585 12.0141 6.04912 18.5444C4.97501 22.9691 5.0569 27.5072 6.96547 31.5709C7.13043 31.9208 7.54732 32.07 7.89721 31.905C8.24961 31.7413 8.39874 31.3244 8.23378 30.9745C6.45975 27.202 6.41234 22.9869 7.41188 18.8785C8.93623 12.6079 12.8868 6.57991 17.0238 2.65847C17.3029 2.38992 17.3153 1.94624 17.0505 1.66586C16.782 1.38676 16.3383 1.37434 16.0579 1.63913Z" fill="black"/>
<path fill-rule="evenodd" clip-rule="evenodd" d="M1283.12 344.739C1278.81 348.829 1274.7 355.114 1273.11 361.644C1272.04 366.069 1272.12 370.607 1274.03 374.671C1274.19 375.021 1274.61 375.17 1274.96 375.005C1275.31 374.841 1275.46 374.424 1275.3 374.074C1273.52 370.302 1273.47 366.087 1274.47 361.978C1276 355.708 1279.95 349.68 1284.09 345.758C1284.36 345.49 1284.38 345.046 1284.11 344.766C1283.84 344.487 1283.4 344.474 1283.12 344.739Z" fill="black"/>
<path fill-rule="evenodd" clip-rule="evenodd" d="M26.7823 4.12351C22.4745 8.21386 18.3602 14.4985 16.7735 21.0288C15.6994 25.4534 15.7813 29.9916 17.6898 34.0553C17.8548 34.4052 18.2717 34.5544 18.6216 34.3894C18.974 34.2257 19.1231 33.8088 18.9581 33.4589C17.1841 29.6863 17.1367 25.4713 18.1362 21.3629C19.6606 15.0923 23.6111 9.06429 27.7482 5.14285C28.0273 4.8743 28.0397 4.43062 27.7749 4.15024C27.5063 3.87113 27.0627 3.85871 26.7823 4.12351Z" fill="black"/>
<path fill-rule="evenodd" clip-rule="evenodd" d="M1293.84 347.223C1289.54 351.313 1285.42 357.598 1283.84 364.128C1282.76 368.553 1282.84 373.091 1284.75 377.155C1284.92 377.505 1285.33 377.654 1285.68 377.489C1286.04 377.325 1286.18 376.908 1286.02 376.559C1284.25 372.786 1284.2 368.571 1285.2 364.462C1286.72 358.192 1290.67 352.164 1294.81 348.242C1295.09 347.974 1295.1 347.53 1294.84 347.25C1294.57 346.971 1294.12 346.958 1293.84 347.223Z" fill="black"/>
</svg>
