<svg width="1300" height="378" viewBox="0 0 1300 378" fill="none" xmlns="http://www.w3.org/2000/svg">
<path fill-rule="evenodd" clip-rule="evenodd" d="M16.0574 1.63913C11.7497 5.72949 7.63536 12.0141 6.04863 18.5444C4.97452 22.9691 5.05641 27.5072 6.96498 31.5709C7.12995 31.9208 7.54684 32.07 7.89672 31.905C8.24912 31.7413 8.39825 31.3244 8.23329 30.9745C6.45926 27.202 6.41185 22.9869 7.41139 18.8785C8.93574 12.6079 12.8863 6.57991 17.0233 2.65847C17.3025 2.38992 17.3148 1.94624 17.05 1.66586C16.7815 1.38676 16.3378 1.37434 16.0574 1.63913Z" fill="black"/>
<path fill-rule="evenodd" clip-rule="evenodd" d="M1283.12 344.739C1278.81 348.829 1274.7 355.114 1273.11 361.644C1272.04 366.069 1272.12 370.607 1274.03 374.671C1274.19 375.021 1274.61 375.17 1274.96 375.005C1275.31 374.841 1275.46 374.424 1275.29 374.074C1273.52 370.302 1273.47 366.087 1274.47 361.978C1276 355.708 1279.95 349.68 1284.08 345.758C1284.36 345.49 1284.38 345.046 1284.11 344.766C1283.84 344.487 1283.4 344.474 1283.12 344.739Z" fill="black"/>
<path fill-rule="evenodd" clip-rule="evenodd" d="M26.782 4.12351C22.4743 8.21386 18.36 14.4985 16.7732 21.0288C15.6991 25.4534 15.781 29.9916 17.6896 34.0553C17.8546 34.4052 18.2714 34.5544 18.6213 34.3894C18.9737 34.2257 19.1229 33.8088 18.9579 33.4589C17.1839 29.6863 17.1365 25.4713 18.136 21.3629C19.6604 15.0923 23.6109 9.06429 27.748 5.14285C28.0271 4.8743 28.0394 4.43062 27.7746 4.15024C27.5061 3.87113 27.0624 3.85871 26.782 4.12351Z" fill="black"/>
<path fill-rule="evenodd" clip-rule="evenodd" d="M1293.84 347.223C1289.54 351.313 1285.42 357.598 1283.83 364.128C1282.76 368.553 1282.84 373.091 1284.75 377.155C1284.92 377.505 1285.33 377.654 1285.68 377.489C1286.04 377.325 1286.18 376.908 1286.02 376.559C1284.25 372.786 1284.2 368.571 1285.2 364.462C1286.72 358.192 1290.67 352.164 1294.81 348.242C1295.09 347.974 1295.1 347.53 1294.84 347.25C1294.57 346.971 1294.12 346.958 1293.84 347.223Z" fill="black"/>
</svg>
