<svg width="101" height="86" viewBox="0 0 101 86" fill="none" xmlns="http://www.w3.org/2000/svg">
<path d="M3.89149 22.0367C6.35941 22.4075 8.33272 23.7154 10.412 24.7891C13.2141 26.1879 16.125 27.3413 19.1138 28.2372C19.9823 28.4677 20.7941 28.8845 21.4963 29.4604C22.1986 30.0363 22.7756 30.7585 23.1898 31.58C23.4178 32.032 23.5619 32.5217 22.9659 32.8614C22.4656 33.1492 22.0741 32.8826 21.6416 32.6359C16.2499 29.5581 10.2342 27.4161 4.37584 25.0386C3.79003 24.7997 3.21761 24.5271 2.66123 24.2222C2.51699 24.1571 2.38765 24.0612 2.28164 23.941C2.17564 23.8207 2.09534 23.6788 2.04599 23.5243C1.99664 23.3699 1.97934 23.2065 1.99521 23.0447C2.01109 22.8829 2.05979 22.7263 2.13813 22.5853C2.40481 21.8907 3.17408 22.0579 3.89149 22.0367Z" fill="#FFA85A"/>
<path d="M28.4932 68.4642C28.3344 68.7425 28.143 68.9995 27.9233 69.2294C24.1624 72.548 21.5161 76.4605 18.8681 80.3766C18.3855 81.09 17.9684 82.2825 16.5637 81.6597C15.3819 81.1359 16.1911 80.217 16.5364 79.4966C18.5308 75.358 21.866 71.8899 25.0269 68.34C25.3183 67.9457 25.7175 67.6507 26.1729 67.4933C26.6283 67.3359 27.119 67.3233 27.5814 67.4571C27.82 67.4968 28.039 67.6173 28.204 67.7996C28.369 67.9819 28.4707 68.2157 28.4932 68.4642Z" fill="#FFA85A"/>
<path d="M78.2416 76.5793C78.4513 77.308 78.2952 77.7518 77.6016 77.8866C77.3011 77.9897 76.9741 77.9725 76.6853 77.8383C76.3965 77.7041 76.1671 77.4627 76.0425 77.162C74.8105 73.2043 71.1417 70.515 68.4064 67.3372C67.7317 66.5531 66.9407 65.6891 68.2987 64.8904C69.6989 64.0663 70.3274 65.0081 71.0266 65.7997C72.7134 67.7162 74.4139 69.6256 76.1656 71.5027C76.8358 72.1521 77.3667 72.9394 77.7243 73.8138C78.0819 74.6882 78.2581 75.6303 78.2416 76.5793V76.5793Z" fill="#FFA85A"/>
<path d="M89.4159 8.84024C89.3464 9.78201 88.474 10.6061 87.752 11.3618C84.6516 14.6045 81.1107 17.5704 79.0594 21.4299C78.6314 22.2357 77.5921 23.4447 76.3441 22.7837C75.2244 22.1904 75.9453 21.1186 76.6205 20.1939C79.6303 16.0736 83.9097 12.7321 87.1246 8.73959C87.3131 8.51584 87.5495 8.34048 87.8149 8.22739C88.0804 8.11429 88.3676 8.06657 88.654 8.088C88.8515 8.08374 89.0426 8.16052 89.1854 8.30152C89.3282 8.44252 89.4111 8.63624 89.4159 8.84024V8.84024Z" fill="#FFA85A"/>
<path d="M18.9142 47.6151C18.839 48.3857 18.1393 48.657 17.4635 48.9102C13.6948 50.3317 9.94211 51.7863 6.12786 53.1201C5.08219 53.4766 4.07113 53.9334 3.10792 54.4846C2.74021 54.7398 2.29197 54.8399 1.85507 54.7646C1.41817 54.6893 1.02569 54.4443 0.75806 54.0796C0.196807 53.3656 0.416179 52.6422 1.39339 52.4461C6.81447 51.3513 11.2618 48.5852 16.2686 46.7846C17.6105 46.306 18.4925 46.4149 18.9142 47.6151Z" fill="#FFA85A"/>
<path d="M32.1108 4.12207C33.2519 4.31359 34.3067 4.86789 35.1284 5.70777C37.1003 7.82203 38.3045 10.2577 39.4289 12.7016C39.8358 13.5845 40.3049 14.4315 40.7716 15.2879C41.0628 15.8235 41.5 16.4563 40.5254 16.8536C40.1938 17.0048 39.824 17.0424 39.4702 16.9608C39.1164 16.8793 38.7971 16.6829 38.5592 16.4003C37.9658 15.7793 37.4404 15.0926 36.9926 14.3526C35.4652 11.5273 34.3385 8.54307 31.8287 6.11979C31.3517 5.65891 31.0576 5.04147 31.4651 4.42873C31.5859 4.24744 31.9711 4.18387 32.1108 4.12207Z" fill="#FFA85A"/>
<path d="M65.03 3.84212C64.9605 7.44329 63.6372 10.8879 63.0228 14.4208C62.8889 15.186 62.1754 15.6268 61.2299 15.515C60.2041 15.3932 60.3956 14.6703 60.3808 14.0694C60.3028 12.2339 60.5802 10.4009 61.1969 8.67762C62.0695 6.60841 62.5022 4.36999 62.466 2.11335C62.4278 1.38346 62.3806 0.271559 63.8241 0.33513C65.181 0.393992 65.0528 1.43761 65.1143 2.22459C65.1235 2.76515 65.0953 3.3057 65.03 3.84212Z" fill="#FFA85A"/>
<path d="M51.7181 76.7671C51.9039 78.9062 52.076 81.0458 52.2811 83.1831C52.3541 83.9407 53.0139 84.9896 51.4668 85.0873C50.0651 85.175 49.5477 84.1867 49.424 83.1767C49.1551 80.974 48.8747 78.7685 48.7203 76.5594C48.6676 75.2778 48.5077 74.0034 48.2422 72.7504C48.0245 71.8439 48.2565 70.9103 49.6776 70.772C51.0343 70.6408 51.3022 71.4736 51.3979 72.3377C51.5597 73.8093 51.7016 75.2844 51.8538 76.7571L51.7181 76.7671Z" fill="#FFA85A"/>
<path d="M95.1694 58.062C95.1055 58.8613 94.4354 59.2274 93.4975 59.0255C92.313 58.7769 91.1517 58.4225 90.0267 57.966C87.4488 56.896 84.9267 55.7394 82.3795 54.6211C81.4547 54.215 80.4632 53.7047 81.2581 52.7771C81.6147 52.3827 82.0858 52.1187 82.6004 52.025C83.115 51.9314 83.6451 52.0132 84.1107 52.258C87.5787 53.7883 90.5817 55.9808 94.3801 57.0426C94.606 57.091 94.8084 57.2194 94.9525 57.4055C95.0965 57.5916 95.1732 57.8237 95.1694 58.062Z" fill="#FFA85A"/>
<path d="M85.5533 41.7765C84.6199 41.8612 84.2489 41.7252 84.0073 41.4233C83.6831 41.0201 83.8723 40.6269 84.1919 40.3013C84.8631 39.6166 85.7114 39.1465 86.6348 38.9475C90.7297 38.0693 94.849 37.2658 98.9484 36.4028C99.6954 36.2451 100.266 36.2639 100.616 36.8773C101 37.546 100.468 37.9557 99.8555 38.1723C95.0952 39.8263 89.7803 40.007 85.5533 41.7765Z" fill="#FFA85A"/>
<path d="M49.4232 83.1773C49.1537 80.9747 48.8739 78.7691 48.719 76.5595C48.6665 75.2781 48.5066 74.0041 48.2409 72.7513C48.0238 71.8449 48.2551 70.9112 49.6762 70.7723C51.0324 70.641 51.3008 71.4745 51.3965 72.3392C51.5584 73.8107 51.6997 75.2821 51.8524 76.7578L51.7173 76.7678C51.9031 78.9068 52.0758 81.0458 52.2803 83.1836C52.3538 83.9417 53.0131 84.9902 51.4666 85.0874C51.4097 85.0909 51.3527 85.0925 51.2957 85.0925C50.0216 85.0931 49.5423 84.1455 49.4232 83.1773ZM16.5628 81.658C15.3809 81.1336 16.1895 80.2146 16.5354 79.4942C18.5298 75.3557 21.8655 71.8884 25.0292 68.3385C25.3205 67.9441 25.7196 67.6489 26.1751 67.4915C26.6305 67.3341 27.1212 67.3217 27.5837 67.4556C27.8219 67.4962 28.0405 67.6172 28.2049 67.7999C28.3694 67.9826 28.4706 68.2165 28.4926 68.465C28.3338 68.7433 28.1424 69.0001 27.9227 69.23C24.1619 72.5486 21.5157 76.4605 18.8677 80.3771C18.4791 80.9504 18.1337 81.8351 17.2824 81.8351C17.0336 81.8273 16.7889 81.7673 16.5633 81.6586L16.5628 81.658ZM76.0413 77.1633C74.8088 73.2049 71.1409 70.5156 68.4057 67.3383C67.7305 66.5543 66.9396 65.6901 68.298 64.8902C69.6981 64.0662 70.3266 65.0082 71.0252 65.7999C72.7113 67.7164 74.4122 69.6258 76.1638 71.5028C76.8344 72.1521 77.3658 72.9392 77.7236 73.8136C78.0814 74.688 78.2578 75.6304 78.2414 76.5796C78.4511 77.3083 78.295 77.7519 77.601 77.8867C77.4754 77.9119 77.3477 77.9247 77.2197 77.9249C76.9698 77.9485 76.7193 77.8869 76.5065 77.7493C76.2938 77.6118 76.1306 77.4058 76.0419 77.1633H76.0413ZM93.4967 59.0271C92.3123 58.7784 91.151 58.424 90.0259 57.9678C87.4486 56.8983 84.926 55.7416 82.3789 54.6232C81.4546 54.2171 80.4631 53.7069 81.2569 52.7787C81.6136 52.3844 82.0848 52.1206 82.5993 52.0271C83.1138 51.9336 83.6439 52.0155 84.1095 52.2602C87.5774 53.7906 90.5803 55.983 94.3794 57.0455C94.6053 57.0939 94.8078 57.2222 94.9518 57.4085C95.0958 57.5947 95.1723 57.8272 95.168 58.0655C95.1588 58.2145 95.1203 58.3601 95.0547 58.4931C94.9891 58.6262 94.8979 58.7441 94.7866 58.8395C94.6754 58.9348 94.5464 59.0055 94.4077 59.0475C94.2689 59.0896 94.1234 59.1019 93.9799 59.0838C93.8176 59.0817 93.6559 59.0627 93.4973 59.0271H93.4967ZM0.759306 54.0829C0.198601 53.3695 0.420256 52.6462 1.39465 52.4496C6.81651 51.3548 11.2634 48.5882 16.271 46.7883C17.6107 46.3068 18.4933 46.4158 18.9144 47.616C18.8397 48.3859 18.1389 48.6582 17.4642 48.9108C13.6954 50.3334 9.94256 51.7881 6.12817 53.1212C5.08243 53.4776 4.0713 53.9343 3.10808 54.4856C2.80133 54.673 2.45303 54.7755 2.0967 54.7833C1.83677 54.7797 1.58105 54.7146 1.34923 54.593C1.11741 54.4715 0.915623 54.2969 0.759306 54.0823V54.0829ZM84.0069 41.425C83.6826 41.0218 83.8718 40.6285 84.1915 40.303C84.8625 39.6183 85.7105 39.1484 86.6337 38.9493C90.7291 38.0711 94.8477 37.2683 98.9476 36.406C99.6941 36.2471 100.265 36.2664 100.615 36.8768C100.999 37.546 100.468 37.9558 99.8548 38.1718C95.0945 39.83 89.7798 40.0111 85.5523 41.7811C85.3688 41.797 85.2064 41.8058 85.0633 41.8058C84.8706 41.834 84.6742 41.8141 84.4904 41.7477C84.3067 41.6814 84.1411 41.5705 84.0074 41.4244L84.0069 41.425ZM21.6051 32.6407C16.2135 29.5629 10.1978 27.4208 4.33947 25.0434C3.75342 24.8049 3.18102 24.532 2.62493 24.2264C2.48067 24.1612 2.35128 24.0655 2.24528 23.9453C2.13929 23.825 2.05906 23.683 2.00976 23.5285C1.96045 23.3741 1.94323 23.2106 1.95919 23.0489C1.97515 22.8871 2.02389 22.7306 2.10234 22.5896C2.32172 22.0145 2.88303 22.0268 3.47507 22.0386C3.601 22.0416 3.72975 22.0439 3.85625 22.0386C6.32415 22.4094 8.29751 23.7178 10.3768 24.7914C13.1788 26.19 16.0893 27.3436 19.0779 28.2397C19.9464 28.4701 20.7582 28.8867 21.4604 29.4626C22.1627 30.0385 22.7397 30.7607 23.1539 31.5822C23.3818 32.0348 23.5265 32.5241 22.9299 32.8638C22.7972 32.9439 22.6466 32.9869 22.4929 32.9885C22.1736 32.9502 21.8685 32.8306 21.6051 32.6402V32.6407ZM76.3434 22.7856C75.2237 22.1923 75.9445 21.121 76.6203 20.1987C79.6301 16.0784 83.9088 12.7363 87.1243 8.74439C87.3127 8.52061 87.5489 8.34524 87.8143 8.23223C88.0797 8.11923 88.367 8.07173 88.6532 8.09342C88.8502 8.08882 89.0408 8.16463 89.1838 8.30466C89.3267 8.44468 89.4103 8.63758 89.4162 8.84096C89.3473 9.78273 88.4749 10.6066 87.7523 11.3629C84.6519 14.605 81.1105 17.5718 79.0591 21.4319C78.7172 22.0747 77.9856 22.9761 77.0687 22.9761C76.8156 22.9738 76.5668 22.9086 76.3434 22.7856V22.7856ZM38.5584 16.4014C37.9655 15.78 37.4402 15.0933 36.992 14.3537C35.4643 11.5284 34.3384 8.54367 31.8289 6.12038C31.3519 5.65891 31.0579 5.04145 31.4653 4.42871C31.5861 4.248 31.9713 4.18442 32.1109 4.12262C33.2529 4.31298 34.3088 4.8671 35.1309 5.70766C37.1031 7.82252 38.3066 10.2578 39.4314 12.7023C39.8382 13.5852 40.3067 14.4313 40.7734 15.2878C41.0651 15.8234 41.5022 16.4562 40.5278 16.8535C40.3032 16.9476 40.0635 16.9969 39.8212 16.999C39.5817 16.9981 39.3451 16.9446 39.1272 16.8418C38.9094 16.7389 38.7153 16.5891 38.5579 16.4026L38.5584 16.4014ZM61.2299 15.5185C60.2042 15.3967 60.3957 14.6733 60.3809 14.0723C60.3022 12.2369 60.5796 10.4039 61.1969 8.68087C62.069 6.61161 62.5016 4.37307 62.4654 2.11653C62.4266 1.38607 62.3799 0.274193 63.8221 0.338351C65.18 0.397212 65.0512 1.44021 65.1133 2.22718C65.1225 2.76793 65.0943 3.30867 65.0289 3.84527C64.96 7.44637 63.6369 10.8904 63.022 14.4238C62.9469 14.7678 62.7519 15.0712 62.4742 15.2763C62.1964 15.4813 61.8554 15.5738 61.516 15.5358C61.4202 15.5349 61.3245 15.5283 61.2294 15.5162L61.2299 15.5185Z" fill="white"/>
</svg>
