<svg width="88" height="74" viewBox="0 0 88 74" fill="none" xmlns="http://www.w3.org/2000/svg">
<path d="M3.47049 19.1793C5.61136 19.4978 7.32317 20.6213 9.12691 21.5436C11.5577 22.7452 14.0828 23.7361 16.6756 24.5056C17.4289 24.7036 18.1331 25.0616 18.7423 25.5564C19.3515 26.0511 19.852 26.6715 20.2114 27.3771C20.4091 27.7654 20.5342 28.1861 20.0171 28.4779C19.5831 28.7251 19.2435 28.4961 18.8683 28.2842C14.1912 25.6403 8.97269 23.8002 3.89066 21.758C3.38248 21.5527 2.88591 21.3186 2.40327 21.0567C2.27814 21.0007 2.16594 20.9184 2.07398 20.8151C1.98202 20.7118 1.91237 20.5899 1.86956 20.4572C1.82675 20.3245 1.81174 20.1841 1.82551 20.0451C1.83928 19.9061 1.88153 19.7717 1.94949 19.6505C2.18083 19.0539 2.84815 19.1975 3.47049 19.1793Z" fill="#FFA85A"/>
<path d="M24.8226 59.0617C24.6849 59.3008 24.5189 59.5216 24.3283 59.719C21.0659 62.5698 18.7703 65.9307 16.4732 69.2947C16.0546 69.9075 15.6927 70.9319 14.4742 70.3969C13.449 69.9469 14.151 69.1576 14.4505 68.5388C16.1806 64.9837 19.0738 62.0045 21.8157 58.955C22.0685 58.6163 22.4148 58.3629 22.8099 58.2277C23.2049 58.0925 23.6306 58.0816 24.0317 58.1966C24.2387 58.2307 24.4286 58.3342 24.5718 58.4908C24.7149 58.6474 24.8032 58.8482 24.8226 59.0617Z" fill="#FFA85A"/>
<path d="M67.9774 66.033C68.1593 66.6589 68.0239 67.0402 67.4223 67.156C67.1617 67.2446 66.878 67.2298 66.6275 67.1145C66.377 66.9992 66.178 66.7919 66.0699 66.5335C65.0013 63.1337 61.819 60.8234 59.4464 58.0935C58.8612 57.42 58.1751 56.6778 59.353 55.9916C60.5675 55.2837 61.1127 56.0928 61.7192 56.7728C63.1823 58.4192 64.6573 60.0594 66.1767 61.6719C66.758 62.2298 67.2186 62.9061 67.5287 63.6573C67.8389 64.4084 67.9917 65.2177 67.9774 66.033Z" fill="#FFA85A"/>
<path d="M77.6718 7.84287C77.6115 8.65189 76.8547 9.35977 76.2284 10.009C73.5389 12.7945 70.4673 15.3424 68.6877 18.6579C68.3165 19.3501 67.4149 20.3886 66.3324 19.8208C65.361 19.3111 65.9863 18.3904 66.5721 17.596C69.183 14.0566 72.8953 11.1861 75.6842 7.75641C75.8477 7.5642 76.0527 7.41356 76.283 7.31641C76.5133 7.21926 76.7625 7.17827 77.0109 7.19667C77.1823 7.19301 77.348 7.25897 77.4719 7.38009C77.5958 7.50121 77.6677 7.66763 77.6718 7.84287Z" fill="#FFA85A"/>
<path d="M16.514 41.152C16.4487 41.8139 15.8417 42.047 15.2555 42.2644C11.9862 43.4856 8.73078 44.735 5.42196 45.8808C4.51486 46.187 3.63777 46.5794 2.80219 47.0529C2.48321 47.272 2.09437 47.3581 1.71536 47.2934C1.33635 47.2287 0.99588 47.0182 0.763713 46.705C0.276831 46.0917 0.467135 45.4702 1.31485 45.3018C6.01759 44.3613 9.87558 41.9853 14.219 40.4385C15.383 40.0274 16.1482 40.121 16.514 41.152Z" fill="#FFA85A"/>
<path d="M27.961 3.78979C28.9507 3.95432 29.8657 4.43048 30.5784 5.15197C32.2888 6.96821 33.3333 9.06053 34.3086 11.1599C34.6616 11.9184 35.0684 12.646 35.4732 13.3817C35.7258 13.8418 36.105 14.3854 35.2597 14.7267C34.9721 14.8566 34.6513 14.8889 34.3444 14.8188C34.0375 14.7488 33.7606 14.58 33.5543 14.3373C33.0395 13.8038 32.5838 13.2139 32.1954 12.5782C30.8706 10.1512 29.8933 7.58762 27.7163 5.50592C27.3025 5.11001 27.0475 4.5796 27.4009 4.05323C27.5057 3.8975 27.8399 3.84289 27.961 3.78979Z" fill="#FFA85A"/>
<path d="M56.5174 3.54968C56.4571 6.6431 55.3092 9.60203 54.7763 12.6368C54.6601 13.2941 54.0412 13.6728 53.2211 13.5768C52.3313 13.4721 52.4974 12.8512 52.4845 12.3349C52.4169 10.7583 52.6575 9.1837 53.1924 7.7034C53.9493 5.92594 54.3247 4.00313 54.2933 2.06465C54.2602 1.43768 54.2192 0.482547 55.4713 0.537154C56.6484 0.587717 56.5371 1.48419 56.5905 2.16022C56.5985 2.62456 56.574 3.08889 56.5174 3.54968Z" fill="#FFA85A"/>
<path d="M44.9695 66.1941C45.1306 68.0316 45.2799 69.8696 45.4578 71.7056C45.5211 72.3563 46.0934 73.2573 44.7515 73.3413C43.5356 73.4166 43.0868 72.5677 42.9796 71.7C42.7463 69.8079 42.5031 67.9133 42.3692 66.0156C42.3235 64.9148 42.1848 63.8201 41.9545 62.7437C41.7657 61.965 41.9669 61.1631 43.1995 61.0443C44.3764 60.9315 44.6087 61.647 44.6917 62.3892C44.8321 63.6533 44.9551 64.9204 45.0871 66.1855L44.9695 66.1941Z" fill="#FFA85A"/>
<path d="M82.6627 50.1261C82.6074 50.8128 82.026 51.1273 81.2124 50.9538C80.1849 50.7403 79.1775 50.4358 78.2016 50.0437C75.9653 49.1245 73.7775 48.131 71.5679 47.1703C70.7657 46.8214 69.9056 46.3831 70.5951 45.5862C70.9045 45.2473 71.3131 45.0206 71.7595 44.9401C72.2059 44.8597 72.6657 44.9299 73.0697 45.1402C76.078 46.4548 78.683 48.3383 81.9781 49.2504C82.174 49.292 82.3496 49.4023 82.4746 49.5622C82.5996 49.722 82.6661 49.9215 82.6627 50.1261Z" fill="#FFA85A"/>
<path d="M74.3209 36.1362C73.5113 36.209 73.1895 36.0922 72.9799 35.8328C72.6986 35.4864 72.8627 35.1487 73.14 34.869C73.7222 34.2808 74.4581 33.877 75.2591 33.7061C78.8113 32.9517 82.3847 32.2615 85.9407 31.5202C86.5888 31.3847 87.0836 31.4009 87.3876 31.9278C87.7203 32.5022 87.2591 32.8541 86.7277 33.0402C82.5982 34.461 77.9878 34.6162 74.3209 36.1362Z" fill="#FFA85A"/>
<path d="M42.9801 71.7004C42.7463 69.8084 42.5036 67.9137 42.3691 66.0155C42.3237 64.9149 42.1849 63.8204 41.9544 62.7443C41.7661 61.9656 41.9668 61.1635 43.1995 61.0442C44.376 60.9314 44.6088 61.6474 44.6919 62.3902C44.8322 63.6543 44.9549 64.9183 45.0873 66.1859L44.9702 66.1945C45.1313 68.032 45.2811 69.8694 45.4585 71.7059C45.5223 72.3571 46.0942 73.2578 44.7527 73.3413C44.7033 73.3443 44.6538 73.3457 44.6044 73.3457C43.4991 73.3462 43.0834 72.5322 42.9801 71.7004ZM14.4746 70.3954C13.4494 69.9449 14.1508 69.1554 14.4509 68.5365C16.1809 64.9815 19.0746 62.003 21.819 58.9535C22.0716 58.6147 22.4179 58.3612 22.813 58.2259C23.2081 58.0907 23.6338 58.08 24.0349 58.1951C24.2416 58.23 24.4312 58.3339 24.5739 58.4908C24.7165 58.6478 24.8043 58.8487 24.8234 59.0621C24.6856 59.3012 24.5196 59.5219 24.3291 59.7194C21.0666 62.5701 18.7711 65.9305 16.4741 69.295C16.137 69.7875 15.8374 70.5475 15.0989 70.5475C14.883 70.5408 14.6708 70.4893 14.4751 70.3959L14.4746 70.3954ZM66.0705 66.5343C65.0013 63.1339 61.8195 60.8237 59.4468 58.0943C58.8611 57.4208 58.175 56.6785 59.3534 55.9913C60.5679 55.2834 61.1131 56.0927 61.7192 56.7727C63.1818 58.4191 64.6573 60.0593 66.1768 61.6718C66.7584 62.2295 67.2194 62.9056 67.5298 63.6568C67.8402 64.4079 67.9932 65.2174 67.979 66.0328C68.1609 66.6588 68.0255 67.0399 67.4234 67.1557C67.3145 67.1774 67.2037 67.1883 67.0927 67.1885C66.8759 67.2087 66.6586 67.1558 66.4741 67.0377C66.2895 66.9195 66.1479 66.7426 66.071 66.5343H66.0705ZM81.2125 50.9548C80.1851 50.7411 79.1777 50.4367 78.2017 50.0447C75.966 49.126 73.7777 48.1324 71.5681 47.1717C70.7664 46.8228 69.9063 46.3845 70.5948 45.5871C70.9043 45.2485 71.313 45.0219 71.7593 44.9415C72.2057 44.8612 72.6655 44.9315 73.0694 45.1418C76.0777 46.4564 78.6827 48.3398 81.9782 49.2525C82.1742 49.2941 82.3499 49.4043 82.4748 49.5643C82.5997 49.7243 82.666 49.924 82.6623 50.1287C82.6544 50.2567 82.6209 50.3817 82.564 50.4961C82.5071 50.6104 82.428 50.7116 82.3315 50.7936C82.235 50.8755 82.1231 50.9362 82.0028 50.9723C81.8824 51.0084 81.7561 51.019 81.6317 51.0034C81.4909 51.0016 81.3506 50.9853 81.213 50.9548H81.2125ZM0.765568 46.7075C0.279173 46.0947 0.471452 45.4733 1.31671 45.3045C6.02001 44.364 9.87759 41.9874 14.2215 40.4412C15.3836 40.0276 16.1493 40.1213 16.5146 41.1523C16.4498 41.8136 15.8419 42.0476 15.2566 42.2645C11.9873 43.4866 8.73177 44.7362 5.4229 45.8814C4.51575 46.1876 3.63863 46.5799 2.80306 47.0534C2.53696 47.2144 2.23482 47.3025 1.92572 47.3092C1.70024 47.3061 1.47841 47.2501 1.27731 47.1458C1.07621 47.0414 0.901168 46.8913 0.765568 46.707V46.7075ZM72.9804 35.834C72.6991 35.4877 72.8632 35.1498 73.1405 34.8702C73.7226 34.282 74.4582 33.8783 75.2591 33.7073C78.8117 32.9529 82.3845 32.2633 85.941 31.5226C86.5886 31.3861 87.0838 31.4026 87.3878 31.927C87.7205 32.5019 87.2598 32.8539 86.728 33.0395C82.5985 34.4638 77.9882 34.6195 74.321 36.1399C74.1618 36.1536 74.0209 36.1611 73.8968 36.1611C73.7297 36.1854 73.5592 36.1683 73.3999 36.1113C73.2405 36.0543 73.0968 35.959 72.9809 35.8335L72.9804 35.834ZM18.8487 28.2881C14.1716 25.6441 8.9532 23.804 3.87126 21.7618C3.36288 21.5569 2.86633 21.3224 2.38394 21.0599C2.2588 21.0039 2.14656 20.9217 2.05461 20.8184C1.96266 20.7151 1.89307 20.5931 1.8503 20.4604C1.80753 20.3278 1.79258 20.1874 1.80643 20.0484C1.82028 19.9094 1.86255 19.775 1.93061 19.6538C2.12092 19.1598 2.60783 19.1704 3.12142 19.1806C3.23066 19.1831 3.34234 19.1851 3.45208 19.1806C5.59291 19.4991 7.30474 20.623 9.10845 21.5453C11.5391 22.7467 14.0639 23.7377 16.6564 24.5075C17.4098 24.7054 18.114 25.0632 18.7232 25.558C19.3324 26.0527 19.8329 26.6731 20.1922 27.3788C20.3899 27.7676 20.5155 28.1879 19.9979 28.4797C19.8828 28.5485 19.7521 28.5854 19.6188 28.5868C19.3418 28.5539 19.0771 28.4512 18.8487 28.2876V28.2881ZM66.3325 19.8222C65.3612 19.3125 65.9865 18.3923 66.5727 17.6C69.1836 14.0606 72.8953 11.1896 75.6847 7.76042C75.8481 7.56819 76.053 7.41754 76.2832 7.32047C76.5134 7.22339 76.7626 7.18259 77.011 7.20122C77.1818 7.19727 77.3472 7.2624 77.4712 7.38268C77.5952 7.50297 77.6677 7.66867 77.6728 7.84338C77.613 8.65239 76.8562 9.3601 76.2294 10.0098C73.5399 12.7948 70.4678 15.3435 68.6883 18.6594C68.3918 19.2115 67.7571 19.9859 66.9617 19.9859C66.7421 19.9839 66.5263 19.9279 66.3325 19.8222ZM33.5552 14.3381C33.0408 13.8042 32.5851 13.2143 32.1963 12.579C30.8711 10.1519 29.8944 7.588 27.7175 5.50632C27.3038 5.10991 27.0487 4.57949 27.4021 4.05313C27.5069 3.8979 27.8411 3.84328 27.9622 3.79019C28.9528 3.95371 29.8687 4.42972 30.5819 5.15179C32.2927 6.96852 33.3367 9.06046 34.3125 11.1603C34.6654 11.9188 35.0718 12.6457 35.4766 13.3814C35.7297 13.8415 36.1088 14.3851 35.2635 14.7264C35.0687 14.8072 34.8608 14.8496 34.6506 14.8513C34.4428 14.8506 34.2376 14.8046 34.0486 14.7163C33.8596 14.628 33.6912 14.4992 33.5547 14.339L33.5552 14.3381ZM53.222 13.5796C52.3323 13.475 52.4984 12.8535 52.4855 12.3373C52.4172 10.7606 52.6579 9.186 53.1934 7.70586C53.9499 5.9283 54.3251 4.00533 54.2937 2.0669C54.2601 1.43941 54.2196 0.484279 55.4707 0.539392C56.6486 0.589955 56.5369 1.48592 56.5908 2.16195C56.5987 2.62647 56.5742 3.09099 56.5176 3.55194C56.4578 6.64539 55.31 9.60391 54.7766 12.6392C54.7115 12.9347 54.5423 13.1953 54.3014 13.3715C54.0605 13.5476 53.7646 13.6271 53.4702 13.5944C53.3871 13.5937 53.3041 13.588 53.2216 13.5776L53.222 13.5796Z" fill="white"/>
</svg>
