<svg width="148" height="152" viewBox="0 0 148 152" fill="none" xmlns="http://www.w3.org/2000/svg">
<path d="M85.2499 45.6699C88.247 53.1921 92.1184 60.0819 97.7362 65.8809C102.681 70.986 108.597 74.9399 114.762 78.3497C122.271 82.5023 130.121 85.9841 137.711 89.9799C138.451 90.3695 139.459 89.9048 140.077 89.4434C140.408 89.1958 141.445 88.1503 140.703 87.7593C127.767 80.9481 113.456 75.6655 102.593 65.4944C96.9858 60.121 92.5647 53.5921 89.6176 46.3333C88.5132 43.7201 87.5243 41.054 86.472 38.4175C85.4237 39.3635 84.4744 40.4178 83.6397 41.5631C84.1757 42.9324 84.7065 44.3047 85.2499 45.6699Z" fill="#554140"/>
<path d="M79.9807 33.0977C81.248 35.5648 82.312 38.1275 83.3329 40.7096C84.1901 39.604 85.1575 38.5915 86.2194 37.6886C85.65 36.2673 85.0536 34.8583 84.411 33.4693C82.4772 29.3133 80.0186 25.4364 77.0971 21.9362C74.8862 19.286 72.5083 16.7856 69.9783 14.4506L66.5992 16.3028C68.4862 18.0415 70.3057 19.8546 72.0234 21.7704C75.1427 25.1802 77.8168 28.9869 79.9807 33.0977V33.0977Z" fill="#554140"/>
<path d="M65.2605 31.7396C67.6095 35.0447 69.5873 38.6095 71.1575 42.3681C73.7923 48.3821 75.4671 54.8317 77.967 60.9031C78.2569 58.0992 78.4715 55.2695 78.9048 52.5036C77.6644 48.8722 76.4866 45.2127 75.0126 41.6981C73.489 37.9262 71.594 34.3243 69.3564 30.9471C67.2821 27.9867 64.7025 25.4318 61.7386 23.4023C60.5382 22.5489 59.3053 21.7443 58.0402 20.9884L54.5298 22.9121C55.4057 23.4263 56.2679 23.9615 57.1166 24.5179C60.2315 26.4151 62.9882 28.8597 65.2605 31.7396V31.7396Z" fill="#554140"/>
<path d="M78.4438 62.1206C79.1921 63.8759 80.0402 65.5845 80.9839 67.2376C83.2556 71.273 86.4016 74.7206 90.1847 77.3202C94.1464 79.8484 98.36 81.946 102.757 83.5789C107.737 85.5696 112.617 87.7183 117.461 90.0239C122.352 92.3572 127.238 94.6992 132.278 96.6891C133.381 97.126 136.348 94.8902 134.72 94.2495C125.703 90.6895 117.218 85.9109 108.212 82.3241C103.777 80.6982 99.4717 78.7356 95.3307 76.4526C91.2878 74.1469 87.8448 70.896 85.2813 66.964C82.6531 62.8858 80.9092 58.3789 79.322 53.7981C78.9501 56.4728 78.7614 59.1788 78.4755 61.8593L78.4438 62.1206Z" fill="#554140"/>
<path d="M74.5883 76.5012C75.0246 77.0633 75.4656 77.6212 75.9166 78.1718C81.4508 85.0863 88.6091 90.4597 96.7379 93.8014C106.193 97.6069 116.328 99.2324 125.932 102.567C127.053 102.956 130.009 100.697 128.372 100.129C119.822 97.1634 110.871 95.5479 102.329 92.552C93.9642 89.6757 86.4862 84.6465 80.6138 77.9476C79.0938 76.2062 77.6603 74.3894 76.2897 72.5226C76.0641 73.157 75.8194 73.7869 75.5556 74.4123C75.255 75.1215 74.9325 75.8178 74.5883 76.5012Z" fill="#554140"/>
<path d="M52.3718 42.8762C55.4235 46.5928 58.1788 50.5531 60.6118 54.7197C64.9472 61.8231 69.0978 69.1216 74.1554 75.7283C74.8026 74.4226 75.3729 73.0793 75.8631 71.7058C71.9862 66.3491 68.6044 60.5915 65.206 54.9385C62.7974 50.7716 60.1429 46.759 57.2569 42.9226C54.7955 39.6612 51.7436 36.9122 48.2636 34.8217C45.6119 33.3305 42.8723 32.0053 40.0599 30.8534L36.4854 32.8131C38.6532 33.7505 40.8182 34.6824 42.8891 35.7433C46.4793 37.4689 49.6997 39.8913 52.3718 42.8762V42.8762Z" fill="#554140"/>
<path d="M49.5982 66.0569C55.4627 72.5748 60.9282 79.5339 67.2628 85.5942C68.1111 84.694 68.919 83.7621 69.6868 82.7984C64.2292 77.4463 59.3959 71.4669 54.3096 65.747C48.1906 58.864 41.8097 52.1377 34.508 46.5435C31.1594 43.9716 27.6001 41.6955 23.8685 39.7397L20.3366 41.6769C23.5134 43.2944 26.5641 45.1542 29.4629 47.2406C36.9325 52.6062 43.44 59.2136 49.5982 66.0569Z" fill="#554140"/>
<path d="M68.5701 87.0789C75.1874 93.2019 82.6809 98.2646 90.7988 102.097C100.161 106.452 110.235 109.039 120.535 109.732C120.998 109.713 121.451 109.586 121.861 109.361C122.27 109.137 122.625 108.82 122.897 108.435C123.353 107.733 123.03 107.291 122.274 107.238C104.095 105.971 86.9878 98.4125 73.2694 86.3991C72.1926 85.4559 71.1465 84.4811 70.1208 83.4865C69.3507 84.4428 68.5416 85.3658 67.6935 86.2556C67.9841 86.5315 68.2748 86.8073 68.5701 87.0789Z" fill="#554140"/>
<path d="M11.4045 56.779C16.3985 59.016 21.2147 61.4061 25.5991 64.7356C29.5002 67.8401 33.2236 71.1693 36.7513 74.7069C43.4764 81.1517 50.2375 87.6376 57.2779 93.7377C58.3244 93.057 59.3532 92.3478 60.3643 91.6102C54.0998 86.1862 48.1234 80.3966 42.0939 74.7221C38.4093 71.2536 34.8471 67.6372 30.958 64.4006C26.919 61.0638 22.474 58.2701 17.7305 56.0871C14.7255 54.6817 11.6923 53.3401 8.63104 52.0622C7.27706 51.4907 5.91808 50.9063 4.5504 50.3397L0.925956 52.3283C1.70406 52.6471 2.48024 52.9705 3.256 53.2897C5.9889 54.4127 8.70505 55.5757 11.4045 56.779Z" fill="#554140"/>
<path d="M57.741 94.4613C58.2044 94.8611 58.6684 95.2599 59.1329 95.6574C66.8206 102.201 75.1356 108.092 84.5476 111.783C89.6536 113.785 94.9186 114.281 100.363 114.486C105.617 114.683 110.936 114.768 115.943 116.532C117.061 116.925 120.016 114.671 118.381 114.096C109.358 110.921 99.5124 113.12 90.3793 110.526C85.6148 109.044 81.0638 106.94 76.839 104.265C72.5294 101.625 68.4108 98.6769 64.5138 95.442C63.2669 94.4214 62.0333 93.3837 60.8129 92.3288C60.5662 92.5116 60.3164 92.6938 60.0634 92.8754C59.3015 93.421 58.5228 93.949 57.741 94.4613Z" fill="#554140"/>
<path d="M115.806 116.564C110.797 114.77 105.489 114.652 100.244 114.425C94.8075 114.188 89.5493 113.662 84.4433 111.626C75.03 107.876 66.7013 101.931 58.9965 95.3354C58.5285 94.9351 58.0625 94.5336 57.5985 94.1308C58.3795 93.619 59.1505 93.0936 59.9115 92.5546C60.1605 92.3764 60.4095 92.1945 60.657 92.0117C61.8815 93.0728 63.118 94.1187 64.3665 95.1496C68.2723 98.4115 72.3978 101.388 76.7123 104.056C80.9426 106.759 85.4956 108.892 90.2588 110.403C99.3885 113.053 109.207 110.91 118.229 114.14C119.729 114.677 117.37 116.613 116.11 116.613C116.007 116.614 115.904 116.598 115.806 116.564V116.564ZM120.402 109.751C110.12 108.998 100.056 106.352 90.6923 101.938C82.5739 98.0567 75.0722 92.9466 68.439 86.7799C68.1435 86.5065 67.8518 86.228 67.5593 85.9508C68.3998 85.0643 69.203 84.1449 69.969 83.1929C70.9973 84.191 72.045 85.1761 73.125 86.1274C86.871 98.2292 103.98 105.892 122.126 107.268C122.882 107.324 123.205 107.77 122.753 108.469C122.491 108.836 122.156 109.14 121.77 109.363C121.383 109.585 120.955 109.719 120.513 109.757C120.475 109.755 120.438 109.754 120.402 109.754V109.751ZM125.808 102.585C116.208 99.1951 106.092 97.509 96.642 93.647C88.5182 90.2575 81.3525 84.8402 75.798 77.889C75.348 77.3347 74.9038 76.7747 74.4653 76.2091C74.8048 75.5279 75.1238 74.8329 75.4223 74.1245C75.684 73.5003 75.924 72.8715 76.146 72.2373C77.5223 74.1138 78.9608 75.9389 80.4848 77.6887C86.3758 84.4253 93.8587 89.4995 102.216 92.4247C110.751 95.4712 119.687 97.1404 128.23 100.157C129.734 100.688 127.37 102.628 126.109 102.629C126.008 102.631 125.907 102.616 125.811 102.585H125.808ZM132.158 96.7159C127.126 94.6966 122.245 92.3265 117.359 89.9655C112.521 87.6276 107.646 85.4563 102.674 83.4394C98.2837 81.7812 94.0745 79.6596 90.114 77.1089C86.3318 74.4884 83.1801 71.0231 80.8965 66.9742C80.5885 66.4408 80.2925 65.9033 80.0085 65.3617C79.4085 64.2101 78.8558 63.0362 78.339 61.8469C78.3488 61.7594 78.3585 61.6718 78.3675 61.5858C78.639 58.907 78.8175 56.2036 79.173 53.5317C80.7765 58.1208 82.536 62.6361 85.173 66.7292C87.7473 70.6762 91.1943 73.9465 95.2343 76.2744C99.3731 78.5817 103.675 80.5691 108.103 82.22C117.097 85.8586 125.578 90.6856 134.578 94.2973C136.06 94.8908 133.746 96.7796 132.49 96.7796C132.377 96.7797 132.265 96.7583 132.159 96.7167L132.158 96.7159ZM36.6083 74.5937C33.0756 71.0367 29.3491 67.687 25.4468 64.561C21.0623 61.2073 16.2495 58.7887 11.262 56.523C8.56952 55.2997 5.85753 54.1225 3.12603 52.9913C2.35203 52.6681 1.57728 52.3394 0.801025 52.0162L4.40102 50.0491C5.76602 50.6242 7.12352 51.2161 8.47652 51.7943C11.53 53.0969 14.5593 54.4557 17.5643 55.8705C22.2985 58.0802 26.7386 60.8978 30.7778 64.2554C34.6688 67.5139 38.2358 71.1501 41.9243 74.6389C47.9625 80.3497 53.9453 86.1726 60.2138 91.6316C59.2138 92.3646 58.193 93.0684 57.1515 93.743C50.1098 87.6007 43.3418 81.0769 36.609 74.5945L36.6083 74.5937ZM137.598 89.9886C130.023 85.9516 122.189 82.4266 114.691 78.2338C108.536 74.791 102.626 70.8039 97.6778 65.6759C94.0123 61.8259 90.9127 57.4511 88.476 52.6888C87.2476 50.3209 86.1372 47.8909 85.149 45.4079C84.6008 44.0405 84.0675 42.6653 83.526 41.294C84.3522 40.1543 85.2926 39.1062 86.3318 38.1668C87.3915 40.808 88.3913 43.4745 89.5013 46.0934C92.4711 53.3651 96.9044 59.9147 102.512 65.3151C113.378 75.5427 127.653 80.901 140.568 87.7857C141.308 88.1804 140.282 89.2184 139.953 89.4641C139.457 89.8575 138.859 90.0915 138.233 90.1367C138.013 90.1409 137.795 90.0904 137.599 89.9893L137.598 89.9886ZM49.4663 65.9385C43.3043 59.0653 36.7913 52.4255 29.3295 47.0234C26.4334 44.9217 23.387 43.0458 20.2163 41.4115L23.724 39.4958C27.4486 41.4712 31.0033 43.7656 34.35 46.3545C41.6505 51.987 48.0308 58.7435 54.156 65.6558C59.2463 71.4004 64.0883 77.403 69.5468 82.7775C68.7883 83.7367 67.9883 84.6633 67.1468 85.557C60.8115 79.47 55.338 72.4854 49.467 65.9393L49.4663 65.9385ZM60.477 54.609C58.0377 50.4335 55.279 46.4623 52.227 42.7329C49.5542 39.7354 46.3392 37.2967 42.7598 35.5517C40.6943 34.4768 38.5365 33.5379 36.3758 32.5897L39.9225 30.6534C42.7258 31.8203 45.4573 33.1601 48.102 34.6657C51.5729 36.772 54.6216 39.5338 57.0863 42.8043C59.9753 46.6519 62.6349 50.6744 65.0505 54.85C68.4578 60.514 71.85 66.2831 75.7313 71.6553C75.2502 73.024 74.6892 74.3619 74.0513 75.6616C68.9865 69.0402 64.8233 61.7286 60.4778 54.6097L60.477 54.609ZM71.04 42.2476C69.4622 38.4862 67.48 34.9167 65.13 31.6047C62.8578 28.7164 60.1062 26.2606 57.0015 24.3499C56.1565 23.7894 55.2973 23.2498 54.4238 22.7313L57.9038 20.8311C59.1633 21.5948 60.392 22.4051 61.59 23.2619C64.5446 25.3048 67.1203 27.8697 69.1965 30.8369C71.4359 34.2203 73.336 37.8263 74.868 41.6003C76.35 45.1168 77.538 48.7761 78.7875 52.4085C78.3705 55.1672 78.1703 57.9912 77.895 60.7874C75.3825 54.7166 73.686 48.2694 71.0408 42.2515L71.04 42.2476ZM79.884 32.9843C77.7114 28.8673 75.0335 25.0518 71.9153 21.6304C70.1985 19.7063 68.382 17.8858 66.4973 16.1391L69.8483 14.3102C72.3753 16.6544 74.752 19.1631 76.9635 21.8206C79.8848 25.3334 82.3473 29.2203 84.2888 33.3835C84.9338 34.774 85.5308 36.1852 86.1068 37.6064C85.0577 38.5004 84.1026 39.5039 83.2568 40.6006C82.2263 38.0232 81.156 35.4582 79.8848 32.9882L79.884 32.9843Z" fill="#3B3430"/>
</svg>
