<svg width="2338" height="1119" viewBox="0 0 2338 1119" fill="none" xmlns="http://www.w3.org/2000/svg">
<path opacity="0.21" d="M440.128 851.347C440.128 972.704 341.749 1071.08 220.392 1071.08C99.0353 1071.08 0.65625 972.704 0.65625 851.347C0.65625 729.99 99.0353 631.611 220.392 631.611C341.749 631.611 440.128 729.99 440.128 851.347Z" fill="white"/>
<path d="M321.85 390.985C325.64 391.542 328.67 393.507 331.864 395.119C336.167 397.221 340.638 398.954 345.228 400.299C346.562 400.646 347.808 401.272 348.887 402.137C349.965 403.002 350.851 404.087 351.488 405.321C351.838 406 352.059 406.736 351.144 407.246C350.375 407.678 349.774 407.278 349.11 406.907C340.829 402.284 331.591 399.066 322.594 395.494C321.694 395.135 320.815 394.726 319.96 394.268C319.739 394.17 319.54 394.026 319.377 393.845C319.215 393.665 319.091 393.452 319.015 393.22C318.94 392.988 318.913 392.742 318.937 392.499C318.962 392.256 319.037 392.021 319.157 391.809C319.567 390.765 320.748 391.017 321.85 390.985Z" fill="#FFA85A"/>
<path d="M359.689 460.731C359.445 461.149 359.151 461.535 358.814 461.881C353.038 466.866 348.974 472.744 344.907 478.627C344.166 479.698 343.525 481.49 341.368 480.554C339.553 479.767 340.796 478.387 341.326 477.305C344.389 471.088 349.511 465.878 354.365 460.545C354.813 459.952 355.426 459.509 356.125 459.273C356.825 459.036 357.578 459.017 358.288 459.218C358.655 459.278 358.991 459.459 359.245 459.733C359.498 460.007 359.654 460.358 359.689 460.731Z" fill="#FFA85A"/>
<path d="M436.091 472.922C436.413 474.017 436.173 474.684 435.108 474.886C434.647 475.041 434.144 475.015 433.701 474.814C433.257 474.612 432.905 474.25 432.714 473.798C430.822 467.852 425.188 463.812 420.987 459.038C419.951 457.86 418.736 456.562 420.822 455.362C422.972 454.124 423.937 455.539 425.011 456.728C427.601 459.607 430.213 462.476 432.903 465.296C433.932 466.271 434.747 467.454 435.297 468.768C435.846 470.081 436.116 471.497 436.091 472.922V472.922Z" fill="#FFA85A"/>
<path d="M453.252 371.16C453.146 372.574 451.806 373.812 450.697 374.948C445.935 379.819 440.497 384.275 437.347 390.073C436.69 391.283 435.094 393.1 433.177 392.107C431.457 391.215 432.564 389.605 433.602 388.216C438.224 382.026 444.796 377.006 449.734 371.008C450.023 370.672 450.386 370.409 450.794 370.239C451.201 370.069 451.643 369.997 452.082 370.029C452.386 370.023 452.679 370.138 452.898 370.35C453.118 370.562 453.245 370.853 453.252 371.16V371.16Z" fill="#FFA85A"/>
<path d="M344.978 429.411C344.863 430.568 343.788 430.976 342.75 431.356C336.962 433.492 331.199 435.677 325.341 437.68C323.735 438.216 322.182 438.902 320.702 439.73C320.138 440.113 319.449 440.264 318.778 440.151C318.107 440.038 317.504 439.669 317.093 439.122C316.231 438.049 316.568 436.962 318.069 436.668C326.395 435.023 333.225 430.868 340.915 428.163C342.976 427.444 344.331 427.608 344.978 429.411Z" fill="#FFA85A"/>
<path d="M365.246 364.072C366.998 364.359 368.618 365.192 369.879 366.454C372.907 369.63 374.757 373.289 376.483 376.96C377.108 378.287 377.828 379.559 378.545 380.846C378.992 381.65 379.663 382.601 378.167 383.198C377.658 383.425 377.09 383.481 376.546 383.359C376.003 383.236 375.513 382.941 375.148 382.517C374.236 381.584 373.43 380.552 372.742 379.441C370.397 375.196 368.667 370.713 364.812 367.073C364.08 366.38 363.628 365.453 364.254 364.532C364.44 364.26 365.031 364.164 365.246 364.072Z" fill="#FFA85A"/>
<path d="M415.8 363.652C415.694 369.062 413.661 374.236 412.718 379.543C412.512 380.693 411.416 381.355 409.964 381.187C408.389 381.004 408.683 379.918 408.66 379.015C408.541 376.258 408.967 373.505 409.914 370.916C411.254 367.807 411.918 364.445 411.863 361.055C411.804 359.958 411.731 358.288 413.948 358.383C416.032 358.472 415.835 360.04 415.93 361.222C415.944 362.034 415.901 362.846 415.8 363.652Z" fill="#FFA85A"/>
<path d="M395.357 473.204C395.642 476.418 395.906 479.632 396.221 482.843C396.333 483.981 397.347 485.556 394.971 485.703C392.818 485.835 392.023 484.35 391.833 482.833C391.42 479.524 390.989 476.211 390.752 472.892C390.671 470.967 390.426 469.053 390.018 467.17C389.684 465.809 390.04 464.406 392.223 464.198C394.306 464.001 394.718 465.252 394.865 466.55C395.113 468.761 395.331 470.977 395.565 473.189L395.357 473.204Z" fill="#FFA85A"/>
<path d="M462.089 445.105C461.991 446.306 460.961 446.856 459.521 446.553C457.702 446.179 455.918 445.647 454.191 444.961C450.232 443.353 446.358 441.616 442.446 439.936C441.026 439.326 439.503 438.559 440.724 437.165C441.272 436.573 441.995 436.176 442.786 436.035C443.576 435.895 444.39 436.018 445.105 436.385C450.431 438.684 455.043 441.978 460.877 443.573C461.223 443.646 461.534 443.839 461.756 444.119C461.977 444.398 462.095 444.747 462.089 445.105Z" fill="#FFA85A"/>
<path d="M447.321 420.638C445.888 420.766 445.318 420.561 444.947 420.108C444.449 419.502 444.74 418.911 445.231 418.422C446.261 417.394 447.564 416.687 448.982 416.388C455.271 415.069 461.597 413.862 467.893 412.566C469.04 412.329 469.916 412.357 470.454 413.279C471.043 414.283 470.227 414.899 469.286 415.224C461.975 417.709 453.813 417.98 447.321 420.638Z" fill="#FFA85A"/>
<path d="M391.834 482.831C391.42 479.522 390.99 476.209 390.752 472.889C390.672 470.964 390.426 469.05 390.018 467.169C389.685 465.807 390.04 464.404 392.223 464.195C394.305 463.998 394.718 465.25 394.865 466.549C395.113 468.76 395.33 470.97 395.565 473.187L395.357 473.202C395.643 476.416 395.908 479.629 396.222 482.841C396.335 483.98 397.347 485.555 394.972 485.701C394.885 485.706 394.797 485.708 394.71 485.708C392.753 485.709 392.017 484.286 391.834 482.831ZM341.367 480.549C339.552 479.761 340.794 478.38 341.326 477.298C344.388 471.081 349.511 465.872 354.37 460.539C354.817 459.947 355.43 459.503 356.13 459.267C356.829 459.03 357.583 459.012 358.293 459.213C358.659 459.274 358.995 459.456 359.247 459.73C359.5 460.005 359.655 460.356 359.689 460.729C359.445 461.147 359.151 461.533 358.814 461.879C353.038 466.864 348.974 472.741 344.907 478.624C344.311 479.486 343.78 480.815 342.473 480.815C342.091 480.803 341.715 480.713 341.368 480.55L341.367 480.549ZM432.714 473.796C430.821 467.85 425.188 463.81 420.987 459.037C419.95 457.859 418.735 456.561 420.822 455.359C422.972 454.121 423.937 455.536 425.01 456.725C427.599 459.605 430.212 462.473 432.902 465.293C433.932 466.268 434.748 467.451 435.297 468.764C435.847 470.078 436.118 471.494 436.093 472.92C436.415 474.014 436.175 474.681 435.109 474.883C434.916 474.921 434.72 474.94 434.523 474.941C434.14 474.976 433.755 474.884 433.428 474.677C433.101 474.47 432.851 474.161 432.715 473.796H432.714ZM459.521 446.551C457.702 446.177 455.919 445.645 454.191 444.96C450.233 443.353 446.359 441.615 442.447 439.935C441.027 439.325 439.505 438.559 440.724 437.164C441.272 436.572 441.995 436.176 442.785 436.035C443.575 435.895 444.39 436.018 445.105 436.385C450.431 438.684 455.042 441.978 460.877 443.574C461.224 443.647 461.535 443.84 461.756 444.119C461.977 444.399 462.095 444.748 462.088 445.106C462.074 445.33 462.015 445.549 461.914 445.749C461.813 445.949 461.673 446.126 461.502 446.269C461.332 446.412 461.133 446.519 460.92 446.582C460.707 446.645 460.484 446.663 460.263 446.636C460.014 446.633 459.766 446.604 459.522 446.551H459.521ZM317.097 439.123C316.236 438.052 316.576 436.965 318.073 436.67C326.399 435.025 333.229 430.869 340.919 428.165C342.977 427.442 344.332 427.605 344.979 429.408C344.864 430.565 343.788 430.974 342.752 431.353C336.964 433.491 331.2 435.676 325.342 437.679C323.736 438.214 322.183 438.9 320.704 439.728C320.233 440.01 319.698 440.164 319.151 440.176C318.752 440.17 318.359 440.072 318.003 439.89C317.647 439.707 317.337 439.445 317.097 439.123V439.123ZM444.947 420.108C444.449 419.502 444.74 418.911 445.231 418.422C446.261 417.394 447.563 416.688 448.981 416.389C455.271 415.069 461.596 413.863 467.893 412.568C469.039 412.329 469.916 412.358 470.454 413.275C471.043 414.281 470.228 414.896 469.286 415.221C461.975 417.712 453.813 417.984 447.32 420.643C447.039 420.667 446.789 420.68 446.57 420.68C446.274 420.722 445.972 420.692 445.69 420.593C445.408 420.493 445.153 420.326 444.948 420.107L444.947 420.108ZM349.111 406.911C340.831 402.288 331.592 399.07 322.595 395.498C321.695 395.14 320.816 394.73 319.962 394.271C319.74 394.173 319.542 394.029 319.379 393.848C319.216 393.668 319.093 393.454 319.017 393.222C318.942 392.99 318.915 392.745 318.94 392.502C318.964 392.259 319.039 392.024 319.159 391.812C319.496 390.948 320.358 390.966 321.268 390.984C321.461 390.989 321.659 390.992 321.853 390.984C325.643 391.541 328.674 393.507 331.867 395.12C336.17 397.221 340.64 398.954 345.23 400.3C346.564 400.646 347.811 401.272 348.889 402.137C349.968 403.002 350.854 404.087 351.49 405.321C351.84 406.001 352.062 406.736 351.146 407.246C350.942 407.367 350.711 407.431 350.475 407.434C349.984 407.376 349.516 407.197 349.111 406.911V406.911ZM433.178 392.106C431.458 391.215 432.565 389.606 433.603 388.22C438.225 382.03 444.796 377.01 449.735 371.013C450.024 370.676 450.387 370.413 450.794 370.243C451.202 370.073 451.643 370.002 452.083 370.035C452.385 370.028 452.678 370.142 452.898 370.352C453.117 370.562 453.245 370.852 453.255 371.158C453.149 372.572 451.809 373.81 450.699 374.946C445.938 379.817 440.499 384.274 437.348 390.073C436.823 391.038 435.7 392.393 434.292 392.393C433.903 392.389 433.521 392.291 433.178 392.106V392.106ZM375.148 382.516C374.237 381.582 373.431 380.55 372.742 379.439C370.396 375.195 368.667 370.711 364.813 367.071C364.08 366.377 363.629 365.45 364.255 364.529C364.44 364.258 365.032 364.162 365.246 364.069C367 364.355 368.622 365.188 369.884 366.451C372.913 369.628 374.761 373.286 376.489 376.958C377.114 378.285 377.833 379.556 378.55 380.842C378.998 381.647 379.669 382.598 378.173 383.195C377.828 383.336 377.46 383.41 377.087 383.413C376.72 383.412 376.356 383.331 376.022 383.177C375.687 383.023 375.389 382.797 375.147 382.517L375.148 382.516ZM409.967 381.189C408.391 381.006 408.685 379.919 408.663 379.017C408.542 376.259 408.968 373.506 409.916 370.917C411.255 367.809 411.92 364.446 411.864 361.056C411.804 359.958 411.733 358.288 413.948 358.384C416.033 358.473 415.835 360.04 415.931 361.222C415.945 362.034 415.901 362.847 415.801 363.653C415.695 369.063 413.663 374.236 412.719 379.545C412.604 380.061 412.304 380.517 411.877 380.825C411.451 381.133 410.927 381.272 410.406 381.215C410.259 381.214 410.112 381.204 409.966 381.186L409.967 381.189Z" fill="white"/>
<path opacity="0.21" d="M2337.72 255.807C2337.72 396.942 2223.31 511.354 2082.18 511.354C1941.04 511.354 1826.63 396.942 1826.63 255.807C1826.63 114.671 1941.04 0.258789 2082.18 0.258789C2223.31 0.258789 2337.72 114.671 2337.72 255.807Z" fill="white"/>
<path d="M363.198 657.255C363.198 709.998 320.442 752.754 267.699 752.754C214.956 752.754 172.2 709.998 172.2 657.255C172.2 604.513 214.956 561.756 267.699 561.756C320.442 561.756 363.198 604.513 363.198 657.255Z" fill="#DF3E3F"/>
<path d="M1521.67 795.614C1528.52 809.957 1537.03 822.961 1548.85 833.634C1559.25 843.029 1571.43 850.063 1584.04 856.001C1599.39 863.237 1615.34 869.122 1630.83 876.043C1632.34 876.718 1634.27 875.692 1635.44 874.718C1636.06 874.196 1637.98 872.033 1636.47 871.357C1610.06 859.561 1581.13 850.91 1558.4 832.303C1546.46 822.538 1537.31 810.17 1530.38 796.391C1527.88 791.413 1525.59 786.328 1523.18 781.299C1521.23 783.269 1519.48 785.439 1517.98 787.773C1519.21 790.39 1520.42 793.01 1521.67 795.614Z" fill="#554140"/>
<path d="M1509.76 771.838C1512.57 776.507 1514.99 781.387 1517.32 786.308C1518.88 784.052 1520.66 781.964 1522.64 780.079C1521.33 777.373 1519.99 774.689 1518.55 772.052C1514.22 764.161 1508.88 756.876 1502.68 750.38C1497.99 745.465 1492.98 740.862 1487.69 736.599L1481.25 740.608C1485.2 743.783 1489.01 747.111 1492.64 750.652C1499.22 756.945 1504.98 764.065 1509.76 771.838V771.838Z" fill="#554140"/>
<path d="M1480.42 770.974C1485.46 777.153 1489.81 783.883 1493.37 791.038C1499.32 802.471 1503.42 814.867 1509.11 826.428C1509.34 820.921 1509.41 815.372 1509.92 809.922C1507.02 802.978 1504.24 795.971 1500.9 789.279C1497.42 782.093 1493.23 775.283 1488.4 768.951C1483.94 763.413 1478.53 758.726 1472.43 755.109C1469.96 753.586 1467.42 752.158 1464.83 750.828L1458.14 754.991C1459.93 755.895 1461.7 756.84 1463.45 757.826C1469.72 761.376 1475.72 765.433 1480.42 770.974Z" fill="#554140"/>
<path d="M1510.15 828.582C1511.84 831.925 1513.73 835.165 1515.8 838.285C1520.79 845.904 1527.44 852.273 1535.24 856.91C1543.28 861.588 1552.08 864.787 1560.88 867.671C1570.97 870.98 1580.89 874.599 1590.75 878.549C1600.71 882.537 1610.66 886.544 1620.87 889.844C1623.1 890.565 1628.69 885.86 1625.39 884.794C1607.13 878.89 1589.76 870.542 1571.51 864.584C1562.61 861.68 1553.69 858.833 1545.31 854.615C1537.03 850.582 1529.82 844.632 1524.26 837.248C1518.56 829.587 1514.56 820.984 1510.85 812.22C1510.45 817.489 1510.41 822.797 1510.17 828.067C1510.16 828.24 1510.16 828.409 1510.15 828.582Z" fill="#554140"/>
<path d="M1504.2 857.152C1505.14 858.2 1506.08 859.239 1507.04 860.261C1519.05 873.07 1533.47 882.867 1550.16 888.378C1569.33 894.713 1589.58 896.708 1609 902.101C1611.26 902.73 1616.83 897.971 1613.52 897.053C1596.24 892.254 1578.33 890.139 1561.07 885.282C1544.17 880.636 1528.75 871.679 1516.3 859.272C1513.08 856.045 1510.02 852.664 1507.08 849.173C1506.71 850.439 1506.3 851.699 1505.86 852.953C1505.35 854.378 1504.8 855.778 1504.2 857.152Z" fill="#554140"/>
<path d="M1456.21 794.318C1462.83 801.088 1468.49 808.755 1473.95 816.48C1483.39 829.846 1492.5 843.612 1503.3 855.923C1504.42 853.298 1505.38 850.609 1506.18 847.87C1497.86 837.863 1490.47 827.012 1483.05 816.372C1477.65 808.62 1472.16 800.88 1465.86 793.835C1460.6 787.754 1454.23 782.742 1447.1 779.065C1441.68 776.462 1436.1 774.193 1430.4 772.271L1423.59 776.514C1427.98 778.092 1432.37 779.657 1436.59 781.49C1443.85 784.634 1450.64 788.626 1456.21 794.318Z" fill="#554140"/>
<path d="M1453.5 839.983C1465.9 852.029 1477.56 864.984 1490.83 876.085C1492.39 874.229 1493.87 872.314 1495.27 870.342C1483.82 860.527 1473.53 849.408 1462.77 838.831C1449.83 826.103 1436.39 813.709 1421.27 803.634C1414.33 799.001 1407.01 794.97 1399.39 791.584L1392.66 795.78C1399.13 798.569 1405.39 801.846 1411.38 805.583C1426.8 815.19 1440.48 827.337 1453.5 839.983Z" fill="#554140"/>
<path d="M1493.54 878.558C1507.39 889.755 1522.84 898.777 1539.38 905.321C1558.44 912.742 1578.69 916.622 1599.15 916.774C1600.07 916.683 1600.95 916.383 1601.73 915.896C1602.51 915.409 1603.17 914.749 1603.66 913.966C1604.48 912.541 1603.79 911.712 1602.28 911.698C1566.16 911.342 1531.38 898.563 1502.75 876.681C1500.5 874.963 1498.31 873.18 1496.16 871.353C1494.75 873.312 1493.27 875.212 1491.7 877.052C1492.31 877.555 1492.92 878.062 1493.54 878.558Z" fill="#554140"/>
<path d="M1376.75 826.406C1386.9 830.196 1396.72 834.3 1405.8 840.295C1414.02 845.725 1421.53 852.151 1429.08 858.475C1443.18 870.283 1457.34 882.165 1472.02 893.265C1474 891.813 1475.94 890.307 1477.85 888.745C1464.79 878.879 1452.26 868.265 1439.63 857.876C1431.91 851.529 1424.42 844.88 1416.33 839.01C1407.94 832.964 1398.81 828.026 1389.17 824.314C1383.06 821.919 1376.89 819.651 1370.68 817.511C1367.93 816.553 1365.17 815.573 1362.4 814.623L1355.48 818.93C1357.06 819.462 1358.63 820.004 1360.21 820.537C1365.75 822.413 1371.26 824.369 1376.75 826.406Z" fill="#554140"/>
<path d="M1472.96 894.284C1473.93 895.013 1474.9 895.737 1475.87 896.459C1491.89 908.355 1509.08 918.901 1528.16 925.019C1538.51 928.338 1548.99 928.694 1559.79 928.458C1570.21 928.231 1580.74 927.78 1590.87 930.641C1593.13 931.279 1598.7 926.527 1595.39 925.593C1577.14 920.441 1557.94 925.887 1539.54 921.88C1529.96 919.794 1520.66 915.711 1511.97 911.219C1503.12 906.561 1494.6 901.277 1486.49 895.407C1483.89 893.558 1481.32 891.673 1478.78 889.753C1478.31 890.142 1477.84 890.527 1477.36 890.909C1475.92 892.068 1474.45 893.189 1472.96 894.284Z" fill="#554140"/>
<path d="M1590.55 930.417C1580.41 927.535 1569.89 927.962 1559.47 928.166C1548.67 928.376 1538.2 927.997 1527.84 924.653C1508.76 918.498 1491.56 907.915 1475.53 895.99C1474.55 895.267 1473.58 894.541 1472.62 893.81C1474.1 892.717 1475.57 891.601 1477.01 890.447C1477.49 890.063 1477.96 889.68 1478.43 889.296C1480.98 891.217 1483.55 893.107 1486.14 894.966C1494.26 900.85 1502.78 906.15 1511.64 910.824C1520.33 915.332 1529.64 919.438 1539.22 921.543C1557.61 925.588 1576.81 920.188 1595.06 925.38C1598.1 926.245 1593.65 930.312 1591.16 930.469C1590.95 930.486 1590.75 930.469 1590.55 930.417V930.417ZM1598.85 916.547C1578.4 916.349 1558.15 912.426 1539.09 904.966C1522.55 898.391 1507.09 889.34 1493.23 878.119C1492.61 877.626 1492 877.115 1491.39 876.609C1492.95 874.774 1494.43 872.88 1495.84 870.926C1497.99 872.754 1500.18 874.541 1502.43 876.263C1531.08 898.197 1565.87 911.043 1601.97 911.481C1603.48 911.499 1604.17 912.327 1603.36 913.749C1602.88 914.497 1602.25 915.134 1601.51 915.615C1600.77 916.097 1599.94 916.412 1599.07 916.54C1599 916.545 1598.92 916.548 1598.85 916.547ZM1608.72 901.885C1589.3 896.453 1569.07 894.412 1549.9 888.04C1533.22 882.496 1518.79 872.674 1506.76 859.849C1505.8 858.824 1504.86 857.783 1503.93 856.735C1504.52 855.362 1505.07 853.965 1505.58 852.545C1506.02 851.295 1506.42 850.036 1506.79 848.772C1509.73 852.265 1512.8 855.656 1516.02 858.882C1528.48 871.308 1543.9 880.291 1560.8 884.97C1578.06 889.862 1595.96 892.016 1613.23 896.85C1616.27 897.701 1611.82 901.781 1609.32 901.937C1609.12 901.954 1608.91 901.936 1608.72 901.885ZM1620.61 889.634C1610.41 886.316 1600.46 882.292 1590.51 878.286C1580.65 874.318 1570.74 870.681 1560.65 867.353C1551.86 864.45 1543.06 861.236 1535.03 856.545C1527.23 851.896 1520.58 845.52 1515.58 837.897C1514.91 836.893 1514.26 835.878 1513.64 834.851C1512.31 832.677 1511.08 830.453 1509.92 828.193C1509.93 828.022 1509.93 827.853 1509.94 827.681C1510.17 822.419 1510.2 817.117 1510.59 811.855C1514.31 820.619 1518.32 829.219 1524.03 836.884C1529.59 844.272 1536.8 850.231 1545.07 854.277C1553.45 858.51 1562.37 861.374 1571.26 864.294C1589.5 870.285 1606.86 878.663 1625.12 884.601C1628.12 885.578 1623.76 889.554 1621.28 889.71C1621.05 889.728 1620.83 889.704 1620.61 889.639L1620.61 889.634ZM1428.75 858.26C1421.2 851.925 1413.7 845.491 1405.47 840.05C1396.39 834.042 1386.57 829.918 1376.43 826.107C1370.95 824.051 1365.44 822.085 1359.9 820.207C1358.33 819.673 1356.75 819.128 1355.18 818.593L1362.08 814.307C1364.85 815.261 1367.61 816.249 1370.36 817.21C1376.56 819.376 1382.72 821.655 1388.84 824.047C1398.48 827.776 1407.6 832.728 1415.99 838.785C1424.08 844.666 1431.57 851.325 1439.29 857.681C1451.92 868.087 1464.46 878.716 1477.51 888.599C1475.62 890.156 1473.68 891.657 1471.69 893.102C1457.02 881.989 1442.85 870.089 1428.75 858.264L1428.75 858.26ZM1630.6 875.828C1615.12 868.882 1599.19 862.969 1583.84 855.709C1571.25 849.749 1559.07 842.695 1548.67 833.297C1540.96 826.233 1534.31 818.073 1528.92 809.074C1526.21 804.604 1523.73 799.997 1521.48 795.271C1520.23 792.668 1519.01 790.05 1517.78 787.439C1519.28 785.112 1521.02 782.949 1522.97 780.987C1525.38 786.011 1527.67 791.095 1530.18 796.072C1537.12 809.847 1546.28 822.216 1558.21 831.995C1580.93 850.622 1609.84 859.327 1636.22 871.166C1637.74 871.845 1635.82 874 1635.2 874.52C1634.26 875.349 1633.11 875.88 1631.87 876.046C1631.44 876.08 1631 876.007 1630.6 875.832L1630.6 875.828ZM1453.21 839.769C1440.2 827.112 1426.52 814.953 1411.1 805.325C1405.12 801.58 1398.87 798.294 1392.39 795.495L1399.12 791.32C1406.73 794.717 1414.04 798.758 1420.97 803.4C1436.09 813.493 1449.52 825.899 1462.47 838.637C1473.22 849.225 1483.52 860.345 1494.96 870.174C1493.57 872.139 1492.09 874.047 1490.53 875.898C1477.26 864.791 1465.6 851.83 1453.2 839.772L1453.21 839.769ZM1473.69 816.283C1468.22 808.557 1462.56 800.89 1455.95 794.117C1450.38 788.419 1443.6 784.423 1436.35 781.266C1432.14 779.43 1427.75 777.856 1423.36 776.27L1430.16 772.05C1435.85 773.984 1441.42 776.263 1446.83 778.875C1453.95 782.561 1460.32 787.579 1465.58 793.662C1471.88 800.709 1477.37 808.446 1482.77 816.196C1490.18 826.835 1497.58 837.682 1505.9 847.691C1505.1 850.423 1504.15 853.105 1503.04 855.722C1492.23 843.413 1483.13 829.651 1473.68 816.288L1473.69 816.283ZM1493.16 790.845C1489.59 783.696 1485.25 776.971 1480.2 770.794C1475.51 765.252 1469.51 761.194 1463.25 757.634C1461.51 756.645 1459.75 755.698 1457.96 754.793L1464.63 750.653C1467.21 751.987 1469.74 753.418 1472.21 754.943C1478.31 758.566 1483.71 763.255 1488.17 768.792C1493 775.122 1497.19 781.929 1500.67 789.109C1504.01 795.792 1506.8 802.791 1509.7 809.728C1509.19 815.166 1509.13 820.705 1508.91 826.199C1503.22 814.653 1499.11 802.273 1493.16 790.85L1493.16 790.845ZM1509.59 771.663C1504.81 763.893 1499.05 756.773 1492.48 750.479C1488.85 746.935 1485.04 743.605 1481.1 740.427L1487.53 736.44C1492.81 740.705 1497.81 745.309 1502.5 750.224C1508.7 756.722 1514.03 764.006 1518.36 771.894C1519.8 774.528 1521.15 777.208 1522.46 779.915C1520.48 781.792 1518.71 783.872 1517.16 786.12C1514.82 781.209 1512.4 776.335 1509.59 771.668L1509.59 771.663Z" fill="white"/>
<path opacity="0.21" d="M2052.11 863.284C2052.11 1004.42 1937.7 1118.83 1796.57 1118.83C1655.43 1118.83 1541.02 1004.42 1541.02 863.284C1541.02 722.149 1655.43 607.737 1796.57 607.737C1937.7 607.737 2052.11 722.149 2052.11 863.284Z" fill="white"/>
</svg>
