<svg width="239" height="283" viewBox="0 0 239 283" fill="none" xmlns="http://www.w3.org/2000/svg">
<path d="M204.843 211.853C204.703 211.734 204.569 211.734 204.54 211.844C204.512 211.954 204.355 212.141 204.292 211.892C204.229 211.644 204.349 210.907 204.233 210.992C204.116 211.076 203.732 211.282 203.811 211.139C203.859 211.028 203.872 210.905 203.847 210.787C203.823 210.669 203.763 210.563 203.676 210.483C203.281 210.155 202.934 209.77 202.647 209.338L202.349 209.107C202.219 208.975 202.108 208.826 202.018 208.663C201.888 208.482 201.64 208.276 201.647 208.128C201.661 207.779 201.334 207.998 201.229 207.77L201.14 207.575C200.802 207.375 200.511 207.101 200.288 206.773L200.074 206.578C199.783 206.31 199.317 206.165 199.134 205.868L198.883 205.456C198.325 205.181 197.795 204.849 197.302 204.464L196.9 204.032C196.544 203.563 196.064 203.211 195.516 203.019C195.254 202.917 195.038 202.722 194.904 202.47C194.87 202.38 194.816 202.3 194.746 202.236C194.676 202.172 194.592 202.126 194.501 202.102C194.232 201.993 193.724 202.005 193.736 201.463C193.694 201.403 193.63 201.363 193.559 201.349C193.257 201.459 193.332 201.073 193.159 201.023C192.948 200.992 192.743 200.93 192.55 200.839L192.398 200.736C192.13 200.388 191.809 200.089 191.446 199.85C190.886 199.49 190.297 199.181 189.685 198.925L189.631 198.716C189.589 198.589 189.512 198.478 189.408 198.398C189.305 198.317 189.18 198.27 189.05 198.263C188.74 198.162 188.444 198.021 188.171 197.842C187.862 197.725 187.576 197.551 187.327 197.33C187.101 197.054 186.713 197.131 186.567 196.793C186.552 196.759 186.56 196.693 186.546 196.687C186.207 196.542 185.784 196.656 185.546 196.201L184.61 195.535L184.236 195.423C183.645 195.205 183.076 194.931 182.535 194.603L182.07 194.287C181.875 194.16 181.721 193.925 181.537 194.199C181.518 194.226 181.281 194.15 181.266 194.103L181.049 193.451C180.585 193.448 180.123 193.393 179.672 193.289C179.29 193.165 178.897 193.079 178.499 193.03C178.286 193.035 177.644 192.32 177.261 192.087C176.468 191.889 175.66 191.756 174.845 191.687L174.413 191.265L174.178 191.034C173.709 190.917 173.332 191.302 173.339 191.891L173.212 192.328C173.093 192.823 172.936 193.307 172.74 193.777C172.377 194.825 171.795 195.78 171.034 196.574L170.505 197.017C169.973 197.554 169.303 198.185 169.016 198.421L168.839 198.758C168.61 199.066 168.308 199.308 167.962 199.461L167.645 199.653C167.256 199.808 166.804 199.982 166.638 200.038C166.347 200.148 166.067 200.285 165.8 200.446C165.663 200.545 165.078 200.419 164.983 200.45L164.902 200.49L164.338 200.774C163.464 200.877 162.584 200.923 161.706 200.911L161.285 201.107C160.972 201.257 160.648 200.938 160.355 201.172C160.198 201.296 159.752 201.08 159.44 201.03C159.296 201.006 159.149 201.004 159.003 201.024C158.843 201.05 158.702 201.16 158.546 201.146C158.443 201.138 158.554 200.782 158.259 200.843C158.084 200.879 157.862 200.475 157.714 200.798L156.372 200.646L155.82 200.548C155.227 200.343 154.274 200.046 153.697 199.886L153.182 199.811C152.893 199.761 152.618 199.649 152.376 199.482C151.958 199.278 151.526 199.104 151.084 198.962C150.718 198.808 150.298 198.721 150.121 198.255C150.097 198.194 150.006 198.148 149.946 198.094L149.573 197.761C149.021 197.426 148.523 197.004 148.099 196.509L147.756 196.154L147.406 195.8C147.093 195.426 146.761 195.068 146.412 194.729C146.162 194.27 145.939 193.795 145.746 193.307C145.37 192.369 145.095 191.39 144.925 190.389L145.165 190.008L145.364 189.697C145.322 189.267 145.341 188.833 145.418 188.407L145.491 188.092C145.573 187.748 145.677 187.412 145.772 187.075C145.799 186.982 145.895 186.894 145.873 186.812C145.786 186.615 145.708 186.413 145.642 186.207C145.616 186.021 146.009 186.092 145.903 185.758C145.852 185.597 146.005 185.396 146.086 185.231C146.257 184.806 146.477 184.404 146.742 184.032L147.072 183.65C147.52 183.304 148.491 182.658 149.232 182.216L149.902 181.815L150.394 181.52C151.082 181.479 151.767 181.394 152.446 181.267L152.897 181.398L153.286 181.511C153.783 181.399 154.293 181.362 154.798 181.403C155.41 181.452 156.024 181.468 156.639 181.452C156.911 181.435 157.64 181.528 157.662 181.349C157.684 181.171 158.394 181.617 158.761 181.709C159.128 181.8 161.183 181.589 162.691 181.781L164.063 182.048C165.759 182.379 167.454 182.805 169.148 183.202L169.452 183.274C169.782 183.412 169.827 183 169.548 182.356C168.875 181.097 168.128 179.882 167.312 178.718L166.785 178.042L166.48 177.648C166.089 177.366 165.735 177.032 165.427 176.656C165.287 176.439 164.564 175.933 164.422 175.76L164.335 175.581C164.224 175.353 163.884 175.62 163.85 175.272C163.833 175.216 163.794 175.169 163.744 175.142C163.612 175.088 162.584 174.418 162.468 174.326C162.378 174.254 162.236 174.243 162.159 174.165C161.754 173.754 160.962 173.823 160.851 173.037L160.844 172.992C160.696 172.933 160.162 172.663 159.664 172.384C159.167 172.105 157.768 171.504 157.636 171.831L157.515 171.213L157.442 170.842C157.147 170.726 156.585 170.473 156.191 170.285C155.797 170.097 154.401 169.491 154.009 169.238L153.655 169.18C153.272 169.117 153.234 168.679 153.204 168.697L152.483 169.139C151.801 168.595 151.198 168.11 151.143 168.061C151.034 167.936 150.933 167.804 150.841 167.664C150.767 167.556 150.11 167.68 149.872 167.444C149.245 167.071 148.577 166.776 147.88 166.565L147.422 166.357C147.063 166.266 146.728 166.096 146.44 165.858C146.323 165.731 146.03 165.782 145.832 165.699L145.721 165.653C145.624 165.509 145.322 165.502 145.056 165.628L144.959 165.126C144.95 165.079 144.508 165.078 144.293 164.976L144.119 164.891C143.889 164.684 143.63 164.513 143.351 164.384L143.117 164.468C143.059 164.488 142.997 164.495 142.937 164.488C142.876 164.482 142.818 164.461 142.766 164.429C142.465 164.128 141.977 163.717 141.694 163.775L141.101 163.896C140.654 163.682 140.197 163.492 139.731 163.327L139.62 163.242C139.387 163.058 139.18 162.767 138.903 163.057C138.884 163.077 138.705 162.972 138.627 162.898C138.315 162.6 138.036 162.457 137.682 162.703C137.487 162.836 137.519 162.479 137.485 162.477L137.113 162.455C136.707 162.335 135.885 162.073 135.279 161.875L134.791 161.591L134.353 161.339C133.863 161.214 133.07 160.982 132.591 160.824L132.145 160.751C131.953 160.72 131.895 160.16 131.594 160.549C131.54 160.618 131.149 160.407 130.913 160.324L130.638 160.229C130.246 160.029 129.836 159.866 129.415 159.741C129.013 159.629 127.523 159.113 126.93 158.979C126.104 158.638 125.298 158.249 124.515 157.813C124.11 157.712 123.71 157.587 123.318 157.44C123.112 157.323 122.316 157.134 122.123 157.029C121.868 156.801 121.641 156.543 121.445 156.26C121.372 156.169 121.237 156.113 121.427 156.453L121.124 156.658C120.932 156.787 120.818 156.752 120.692 156.564C120.61 156.444 120.546 156.181 120.521 156.184L119.538 156.237C119.152 155.775 118.74 155.339 118.302 154.93C118.359 155.029 118.289 155.196 118.039 155.103C117.525 154.893 117.027 154.647 116.547 154.365L116.269 154.341L115.957 154.313C115.467 153.992 114.928 153.758 114.362 153.619L113.881 153.19L113.543 152.889C113.376 152.891 113.211 152.853 113.061 152.778C112.912 152.703 112.781 152.594 112.68 152.458C112.583 152.241 112.102 151.966 111.972 152.249L111.528 151.944C111.334 151.811 111.113 151.775 111.05 151.501L111.04 151.462C110.943 151.422 110.29 151.235 109.587 151.044L109.209 150.648C109.007 150.439 108.898 150.103 108.677 149.959C108.456 149.815 108.131 149.83 107.853 149.761C107.575 149.701 107.302 149.619 107.037 149.516L106.852 149.437C106.676 149.21 106.546 148.951 106.466 148.672L106.224 148.925C106.193 148.957 105.916 148.772 105.769 148.661L105.314 148.32C104.938 148.059 104.599 147.747 104.306 147.392C104.302 147.265 104.28 147.14 104.243 147.019C104.208 147.023 104.175 147.035 104.146 147.056C104.117 147.077 104.095 147.105 104.08 147.138C104.043 147.221 103.872 147.468 103.809 147.436C103.665 147.206 103.559 146.952 103.495 146.686L103.133 146.999C103.01 146.958 102.903 146.88 102.826 146.774C102.811 146.462 102.596 146.587 102.471 146.51C102.378 146.453 102.389 146.23 102.296 146.127L102.206 146.022C102.055 145.96 101.747 145.855 101.518 145.788C100.995 145.6 100.503 145.333 100.057 144.996L99.6618 144.92C99.4748 144.897 99.2993 144.818 99.1565 144.693C99.0138 144.568 98.91 144.402 98.8581 144.216C98.8448 144.191 98.8267 144.169 98.8047 144.151C98.7826 144.134 98.7573 144.121 98.7302 144.114L98.0153 144.208C97.6336 143.602 97.4063 143.165 97.5085 143.231C97.6106 143.297 97.9103 143.394 97.7662 143.186L97.7666 143.075C97.7644 142.736 97.5144 142.907 97.4072 142.82C97.2187 142.667 97.0915 142.788 96.9663 142.768L96.6181 142.712C96.103 142.453 95.8939 142.23 96.1531 142.217L96.2311 142.16L96.298 142.116C96.2938 142.034 96.2691 141.955 96.2263 141.885C96.1836 141.816 96.1242 141.76 96.0539 141.721L95.9779 141.751L95.405 141.975C94.9519 141.628 94.4265 141.235 94.2304 141.108L94.1722 141.003L93.9642 140.626C93.6404 140.449 93.306 140.294 92.9632 140.159C92.7771 140.097 92.4631 139.557 92.3404 139.489C92.1697 139.342 91.9905 139.206 91.8037 139.082C91.7109 139.071 91.3774 138.943 91.3301 138.82C91.2162 138.572 91.0548 138.352 90.8556 138.172C90.3963 137.951 89.9223 137.763 89.4371 137.61L89.219 137.34L88.7507 136.765C88.0971 136.466 87.5037 136.046 86.9999 135.525L86.6936 135.196L86.5197 135.011C86.2123 134.851 85.934 134.639 85.6965 134.383C85.2562 134.03 84.7744 133.736 84.2625 133.507L84.1793 133.196L84.0918 132.865C83.8946 132.73 83.6809 132.622 83.456 132.545L83.4473 132.519C83.1814 131.771 82.3544 131.526 81.9567 130.909L81.8198 130.695C81.7294 130.421 81.5654 130.192 81.4551 130.188C81.1039 130.045 80.8091 129.788 80.6155 129.454C80.4265 129.065 79.2298 127.539 78.6096 126.666L78.101 125.855C77.886 125.528 77.7332 125.156 77.5049 124.811L77.2548 124.425C77.1616 123.906 77.0519 123.283 77.0117 123.039C76.9532 122.704 76.9149 122.365 76.8972 122.024C76.9168 121.951 77.1449 121.733 77.1924 121.638C77.24 121.543 76.902 121.052 76.8075 120.925L76.8314 120.896L77.061 120.618C76.9731 120.444 76.85 120.292 76.6999 120.171C76.5497 120.051 76.376 119.965 76.1902 119.919C75.8448 119.852 75.2835 118.847 75.1555 118.716C74.8378 118.495 74.5623 118.216 74.3424 117.892L73.9329 117.87L73.8735 117.867C73.803 117.808 73.5714 117.652 73.3569 117.518C73.0694 117.264 72.8086 116.979 72.578 116.669C72.4991 116.564 72.3498 116.237 72.2837 116.167C72.2177 116.097 71.4844 115.488 70.8418 114.954L70.3037 114.417C70.1776 114.234 70.0117 114.084 69.819 113.979C69.5349 113.853 69.3044 113.626 69.1681 113.34L69.0687 113.035C68.85 112.863 68.5078 112.578 68.3127 112.401L68.1383 112.236C67.9714 112.074 67.6737 111.871 67.6793 111.741L67.6941 111.384C67.4503 111.379 67.2075 111.356 66.9674 111.314C66.7936 111.28 66.5404 110.528 66.3601 110.263L66.1425 110.059L65.9426 109.874C65.7102 109.734 65.4896 109.575 65.2834 109.398C65.1662 109.284 64.7121 108.765 64.4905 108.512L64.2904 108.282L64.0429 107.996C63.7824 107.674 63.463 107.282 63.3334 107.128C63.0356 106.857 62.717 106.612 62.3804 106.394C62.1693 106.258 61.624 105.64 61.2978 105.386C60.9716 105.133 60.0816 103.733 59.4904 103.207L59.1331 102.608C58.9309 102.269 58.5077 102.474 58.3809 102.057L58.303 101.798C58.135 101.561 57.9148 101.368 57.6601 101.236L57.5394 101.161C57.2954 101.007 56.9247 100.879 57.2098 100.517C57.2243 100.507 57.019 100.237 56.9496 100.237L56.5427 100.243C56.3185 99.9379 56.1181 99.615 55.9431 99.2774C55.8476 99.0687 55.2072 98.8033 55.1465 98.6554C55.0858 98.5074 54.7895 98.0211 54.6698 98.0089C54.5502 97.9967 54.2737 97.878 54.4184 97.7791C54.5631 97.6803 53.913 97.3546 53.7431 97.1891L53.5849 97.0328L53.1061 96.5612C52.6162 96.1328 52.2508 95.5733 52.0491 94.943L51.6161 94.9759C51.1224 95.0132 51.2754 94.5561 51.0621 94.3858C50.9303 94.3101 50.8157 94.2067 50.7256 94.0822C50.6355 93.9578 50.5718 93.815 50.5387 93.6629L50.5297 93.6066C50.3897 93.5328 50.2334 93.4966 50.0753 93.5015C49.9167 93.5067 49.5004 92.8251 49.2854 92.5743L49.0742 92.3517C48.8651 92.1319 48.5381 91.9914 48.5487 91.6304C48.5157 91.5596 48.4575 91.5048 48.3861 91.4772L47.7913 91.6677C47.5783 91.2609 47.3979 90.8366 47.2519 90.3989C46.8912 90.0083 46.5011 89.6475 46.0852 89.32L46.0318 89.0619C45.9427 88.6355 45.618 88.84 45.4975 88.6408C45.3639 88.4223 45.1895 88.0293 45.0795 88.0266C44.6767 88.0132 44.7217 87.6248 44.5071 87.4842C44.3035 87.3197 44.1455 87.103 44.0487 86.8553L43.9392 86.6514C43.5094 86.3241 43.1044 85.9636 42.7281 85.5728C42.3584 85.1885 41.3047 84.0405 41.2094 83.8814C41.1141 83.7223 40.7945 83.4229 40.7314 83.2745C40.5336 83.0746 40.3106 82.9029 40.0682 82.764C39.7986 82.4371 39.6023 82.0526 39.4929 81.6374L38.9748 81.7421L38.9525 81.7462C38.6976 81.3048 38.4097 80.8848 38.0913 80.49C37.741 80.0485 36.6258 78.7863 36.5081 78.5817C36.335 78.367 36.1386 78.1733 35.9228 78.0045C35.8163 77.8988 35.3909 77.417 35.189 77.149L35.1202 76.8888C35.0205 76.5198 35.0211 76.2047 34.4815 76.1396L34.2818 76.1162C34.012 75.782 33.8052 75.3985 33.6719 74.985L33.6961 74.7266L33.7435 74.2162C33.3629 73.9271 32.9249 73.5981 32.7687 73.4799C32.6126 73.3618 32.1527 72.977 32.2088 72.8798C32.2373 72.7468 32.2335 72.6089 32.1972 72.4788C32.1609 72.3486 32.0935 72.2303 32.0012 72.1345C31.7692 71.927 31.7842 71.1023 31.8806 71.3059C31.9878 71.5494 32.1359 71.7711 32.318 71.9611C32.3871 71.9593 32.6746 71.8227 32.6411 71.6638L32.5472 71.5655C32.2252 71.2337 32.4479 71.0858 32.5928 70.8698C32.716 70.6917 33.0909 70.8073 33.0387 70.3937L33.009 70.1658C33.2435 69.8741 33.4991 69.6008 33.7732 69.3483C33.9993 69.1483 34.7273 69.7254 34.8634 69.8205C34.9995 69.9157 35.5138 70.3724 35.7602 70.5661C36.0067 70.7597 36.6699 71.628 36.9072 71.794C37.1446 71.96 37.7148 72.8343 37.928 73.0013C38.1798 73.273 38.4575 73.5179 38.7572 73.7321C38.9683 73.7991 39.3548 74.6625 39.7398 75.0644C40.1247 75.4663 41.4618 76.8539 41.842 77.2681C42.3628 77.8845 42.8492 78.5309 43.2991 79.2042L43.4377 79.3031L44.4363 80.022C45.3012 81.0481 46.2375 82.1711 46.5212 82.5276L46.8009 82.8339C47.0926 83.0773 47.3358 83.3765 47.5169 83.7156L47.6178 83.9623L48.5769 84.6216C48.7813 84.7631 49.2942 85.5167 49.5082 85.6611C49.7222 85.8055 50.2276 86.6386 50.4742 86.9039C50.9412 87.3407 51.4355 87.7454 51.9542 88.1156L51.967 88.2587C51.9953 88.5814 52.2856 88.5455 52.399 88.7168C52.5206 88.9064 52.6589 89.0839 52.812 89.2473C53.0061 89.4482 53.2464 89.6077 53.4298 89.8152C53.5726 89.9773 53.6467 90.3197 53.7733 90.3533C54.2834 90.5006 54.3958 91.036 54.7852 91.2889C55.0147 91.4484 55.2256 91.6344 55.4137 91.8434L55.5803 92.0168C55.7465 92.242 55.8977 92.4786 56.033 92.725L56.2244 92.8472C56.3492 92.9013 56.4594 92.9852 56.5461 93.0921C56.6327 93.199 56.6934 93.3258 56.723 93.4622L56.7333 93.5441C57.1416 93.7351 57.5277 93.9722 57.8842 94.2514C58.245 94.6725 58.5518 95.1398 58.7972 95.6421C58.8288 95.671 59.2737 96.1087 59.7171 96.5442C60.1606 96.9796 61.4755 98.3668 61.6865 98.6227C61.8974 98.8787 62.5741 99.7173 62.7258 99.9148L62.8806 100.08C63.1357 100.355 63.5214 100.445 63.7315 100.822C63.9092 101.142 64.3815 101.256 64.4891 101.681L64.5946 102.1C64.9771 102.42 65.3401 102.764 65.6816 103.13C65.9146 103.393 66.9986 104.361 67.4221 104.802C67.8456 105.243 69.0699 106.506 69.2188 106.601C69.4359 106.795 69.6251 107.02 69.7812 107.269C69.8636 107.412 70.6065 107.777 71.007 108.086C71.51 108.653 71.9761 109.254 72.4024 109.884L72.5788 110.041L74.1338 111.427C75.8472 112.947 77.4528 114.444 77.7024 114.754L78.1122 114.72C78.2044 114.713 78.3898 114.891 78.4617 115.018C78.565 115.197 78.4906 115.507 78.8243 115.493L79.1972 115.479C79.5737 115.427 79.9194 115.232 80.1665 114.933L80.4698 114.902C80.5281 114.897 80.5284 114.714 80.5783 114.631L80.7021 114.423C80.7897 114.573 80.9297 114.681 81.0936 114.727L81.1261 114.681L81.1996 114.574C81.3511 114.354 81.5665 114.188 81.8142 114.101C82.1024 113.98 83.1049 113.973 83.3524 114.237L83.5746 113.998C83.6715 113.903 83.7879 113.831 83.9149 113.788C84.0419 113.746 84.1763 113.733 84.3079 113.752L84.3981 113.752C84.5498 113.578 84.6839 113.388 84.7979 113.186L85.1525 113.305L85.2492 113.337C85.363 113.308 85.69 113.253 85.977 113.214C86.4157 113.283 86.8389 113.428 87.2284 113.644L87.3274 113.666L87.4336 113.69C87.6224 113.662 87.8087 113.617 87.99 113.554C88.1825 113.489 88.6796 113.494 88.7438 113.817L89.0973 113.483L89.2435 113.343C89.3373 113.323 89.4341 113.324 89.5271 113.346C89.62 113.368 89.7068 113.411 89.7816 113.471C90.1228 113.708 90.4919 113.901 90.8803 114.043C91.3237 114.218 92.7155 114.731 92.9921 114.867C93.5644 115.203 94.1193 115.569 94.655 115.964C95.0553 116.263 96.6021 117.146 97.0837 117.485L97.4062 117.934L97.6053 118.211C97.9069 118.425 98.4232 118.84 98.7521 119.133L99.051 119.399C99.3498 119.665 99.6505 119.93 99.9487 120.197C100.013 120.24 100.067 120.297 100.108 120.364C100.186 120.638 100.073 120.962 100.583 121.063C100.749 121.096 100.846 121.534 101.083 121.77C101.502 122.184 101.574 122.842 102.106 123.218C102.126 123.232 102.089 123.341 102.078 123.404C102.068 123.566 102.035 123.725 101.981 123.877L101.819 124.177C102.065 124.3 102.157 124.436 102.025 124.479L102.006 124.61C101.978 124.807 101.982 125.013 101.972 125.214L101.773 125.889L101.635 126.004C101.564 126.189 101.423 126.611 101.322 126.941L101.22 127.243C101.153 127.522 101.065 127.795 100.956 128.059C100.718 128.515 100.451 128.955 100.155 129.374L99.9884 129.606C99.78 129.782 99.5439 129.918 99.2906 130.011C99.0249 130 98.7611 129.962 98.5032 129.898C98.2074 129.858 97.9055 129.901 97.6299 130.024L97.4311 130.07C97.2008 130.128 96.9179 129.771 96.6734 130.047L96.5515 130.186C96.4473 129.996 96.3035 129.832 96.1302 129.706C95.8525 129.61 95.5683 129.533 95.2799 129.476L95.0822 129.394L94.8829 129.31C94.654 129.168 94.4031 129.126 94.325 129.22C94.2469 129.313 93.8855 129.518 93.7543 129.402C93.6232 129.285 93.2243 128.996 93.2307 129.082C93.2372 129.168 93.1912 129.341 93.1254 129.346L93.0712 129.32C93.0007 129.282 92.9394 129.229 92.8915 129.163C92.4846 128.602 91.9952 128.8 91.5416 128.791C91.2069 128.785 91.1638 128.794 91.2211 128.436L91.2885 128.027C91.0882 128.127 90.8947 128.136 90.8594 128.049C90.824 127.962 90.5794 127.787 90.5648 127.867L90.5701 127.942L90.6018 128.354C90.3225 128.269 89.6043 128.052 89.006 127.867L88.4639 127.69C88.287 127.653 88.1216 127.574 87.9813 127.458C87.7067 127.198 87.3753 127.009 87.0144 126.908L86.7712 126.805C86.6553 126.655 86.5058 126.536 86.3352 126.46L86.2632 126.465C86.1719 126.47 86.0429 126.54 86.0012 126.501C85.5519 126.177 85.0678 125.908 84.558 125.698L84.1159 125.449C83.6347 125.11 82.9459 124.653 82.5857 124.432L82.2663 124.309C81.9956 124.203 81.826 124.21 81.7373 123.86L81.678 123.625C81.5504 123.604 81.4293 123.553 81.3232 123.478C81.2171 123.403 81.1285 123.304 81.0636 123.19C81.0338 123.032 80.5981 123.087 80.4873 123.122C80.3766 123.156 80.068 122.733 79.8791 122.546L79.6398 122.662L79.5847 122.688C79.4677 122.675 79.5336 122.836 79.7233 123.051C79.9786 123.409 80.3009 123.71 80.6714 123.937L80.7531 124.25C80.8212 124.533 80.9272 124.805 81.0679 125.057L81.198 125.278C81.4247 125.5 81.6922 125.673 81.9853 125.787C82.2056 125.855 82.9608 127.007 83.7313 127.691C84.5019 128.375 86.6531 130.29 86.7483 130.505C86.8434 130.719 87.5515 130.827 87.7094 130.884C87.8673 130.941 88.3684 131.672 88.687 131.947L89.0291 132.132L89.408 132.341C89.842 132.663 90.295 132.957 90.7645 133.222L90.9301 133.575L91.0074 133.739C90.9912 133.952 91.1444 133.971 91.3482 133.779L91.6 134.159L91.8432 134.516C92.3263 134.821 92.7837 135.166 93.2104 135.549L93.7004 135.613L93.869 135.635C94.2032 136.087 94.5944 136.491 95.0326 136.836C95.4699 137.18 96.7654 137.782 96.7426 137.855C96.7392 137.919 96.7585 137.981 96.797 138.03C96.8354 138.079 96.8902 138.112 96.951 138.122C97.1041 138.145 97.5653 138.33 97.8835 138.38L97.9072 138.483C98.0103 138.952 98.3862 139.044 98.7028 139.237L98.7416 139.261C98.904 139.483 99.1214 139.657 99.3715 139.763C99.713 139.947 100.854 140.671 101.183 140.857C101.704 141.155 102.166 141.551 102.544 142.025L102.919 141.888C103.072 141.831 103.387 142.025 103.6 142.165C103.829 142.314 104.018 142.537 104.236 142.712C104.319 142.784 104.423 142.824 104.531 142.828C104.702 142.807 104.875 142.834 105.031 142.906C105.187 142.979 105.32 143.094 105.416 143.24L105.685 143.568C106.351 143.846 106.994 144.175 107.61 144.554C108.287 144.964 110.734 146.267 111.477 146.68L112.143 147.078C112.575 147.422 113.088 147.643 113.632 147.719C113.736 147.735 113.833 147.781 113.912 147.853C113.889 148.237 114.227 148.197 114.407 148.273C114.932 148.441 115.429 148.692 115.878 149.018L116.224 149.304C116.729 149.393 117.218 149.557 117.675 149.793C118.198 150.048 118.741 150.262 119.298 150.43C119.604 150.517 120.523 150.993 120.765 151.099C121.008 151.206 122.611 151.852 123.814 152.352L124.909 152.803C125.033 152.875 125.168 152.924 125.309 152.947L125.707 152.932C126.055 153.09 126.416 153.219 126.784 153.32C126.974 153.357 127.594 153.735 127.783 153.785L127.955 153.788C128.104 153.77 128.254 153.787 128.395 153.837C128.536 153.887 128.664 153.969 128.77 154.078C128.914 154.186 129.081 154.257 129.258 154.285C129.505 154.317 129.746 154.38 129.978 154.471L130.834 154.985C131.69 155.132 132.534 155.338 133.362 155.6C133.969 155.796 134.585 155.959 135.209 156.089C135.547 156.216 135.878 156.361 136.201 156.523C136.645 156.687 137.1 156.821 137.562 156.922L137.913 156.984C138.021 157.003 138.121 157.059 138.195 157.142L138.408 157.423C138.72 157.497 139.704 157.809 140.594 158.118L141.351 158.595C141.38 158.612 141.421 158.602 141.455 158.614L141.995 158.799C142.522 159.022 143.065 159.208 143.617 159.356C143.919 159.419 145.056 160.116 145.562 160.358C146.069 160.6 147.789 161.071 148.189 161.246C148.589 161.42 150.165 162.194 150.815 162.548L151.406 162.685L151.907 162.801C152.282 163.073 152.686 163.3 153.112 163.476C153.35 163.547 154.44 164.139 155.012 164.439L155.532 164.649C155.996 164.837 156.224 165.349 156.783 165.404C157.142 165.439 157.532 165.868 157.914 166.1C158.676 166.557 159.444 166.998 160.211 167.443L160.273 167.479C160.348 167.504 160.962 167.94 161.639 168.449L162.262 168.897C162.66 169.184 163.078 169.442 163.481 169.72C163.885 169.998 164.157 170.512 164.706 170.545C164.759 170.548 164.821 170.675 164.884 170.693C165.289 170.811 165.101 171.488 165.726 171.502L165.985 171.508C166.359 171.933 166.671 172.412 166.913 172.929L167.334 173.052L167.713 173.163C167.959 173.584 168.276 173.957 168.647 174.265L168.783 174.672C168.852 174.88 169.169 175.053 169.389 175.233L169.599 175.404C169.586 175.529 169.602 175.655 169.645 175.772C169.688 175.889 169.758 175.993 169.848 176.076L170.015 176.202C170.149 176.299 170.393 176.28 170.396 176.514C170.394 176.938 170.717 177.157 170.961 177.464C171.297 177.941 171.601 178.44 171.871 178.96L171.946 179.085C172.018 179.214 172.009 179.352 171.925 179.392C171.819 179.435 171.722 179.498 171.638 179.577C171.713 179.639 171.805 179.676 171.903 179.683C172.044 179.723 172.175 179.794 172.288 179.891C172.4 179.988 172.49 180.109 172.553 180.246L172.572 180.488L172.582 180.616C172.53 180.752 172.544 180.878 172.623 180.894C172.701 180.909 172.781 181.126 172.743 181.283C172.704 181.439 172.673 181.923 172.745 181.878C172.818 181.833 173.04 181.791 173.044 181.905C173.103 182.172 173.198 182.429 173.325 182.669L173.442 182.855C173.737 183.325 173.737 183.478 173.481 184.142L173.436 184.258C173.446 184.446 173.613 184.532 173.809 184.451L173.882 184.717L173.909 184.814C174.212 185.055 174.542 185.26 174.891 185.423L175.323 185.594L176.189 185.935C177.137 186.333 178.223 186.802 178.601 186.975C178.98 187.149 180.33 187.791 180.757 188.024C181.185 188.256 182.605 189.028 183.003 189.186C183.401 189.343 184.47 190.122 184.675 190.176L184.792 190.291L185.214 190.706C185.751 191.019 186.613 191.536 187.121 191.856C187.63 192.175 189.173 193.237 189.487 193.368L189.67 193.571L189.879 193.802C190.156 193.987 190.514 194.203 190.675 194.283C190.836 194.362 192.087 195.221 193.17 195.914L193.953 196.821L194.177 197.081C194.534 197.342 194.909 197.576 195.301 197.779L195.563 197.99C195.873 198.24 196.164 198.518 196.464 198.784L196.734 199.022C197.147 199.402 197.528 199.817 197.875 200.261L198.368 200.522L198.753 200.726C199.089 201.209 199.472 201.767 199.601 201.971C199.934 202.288 200.247 202.626 200.539 202.983L200.958 202.92L201.003 202.913C201.196 203.071 201.378 203.243 201.547 203.429C201.812 203.898 202.051 204.383 202.263 204.881L202.385 205.083L202.568 205.391C202.755 205.232 202.967 205.193 203.041 205.306C203.114 205.419 203.373 206.01 203.525 206.366L203.464 206.609L203.331 207.133C203.775 207.161 204.193 207.348 204.513 207.662L204.416 208.083C204.416 208.138 204.427 208.191 204.45 208.24C204.472 208.289 204.505 208.332 204.546 208.366C205.1 208.646 204.881 209.156 205.093 209.537C205.137 209.615 205.085 209.829 205.033 209.838C204.858 209.864 204.767 209.885 204.947 210.07C205.042 210.142 205.13 210.224 205.21 210.314C205.287 210.437 205.288 210.604 205.374 210.714C205.57 210.949 205.462 211.101 205.286 211.091L204.869 211.064C205.005 211.317 205.118 211.582 205.209 211.856C205.264 212.044 205.653 212.585 205.583 212.859L205.52 213.108C205.442 213.418 205.129 213.416 204.885 213.488L204.847 213.499C204.702 213.123 204.682 212.707 204.789 212.315L204.854 211.886L204.843 211.853ZM167.174 188.99C167.242 189.212 167.189 189.322 167.055 189.234C166.699 189.029 166.325 188.858 165.938 188.722L165.723 188.901C165.414 189.157 165.069 188.84 164.748 188.853C164.43 188.833 164.116 188.779 163.809 188.691C163.498 188.653 163.19 188.592 162.887 188.507C162.376 188.284 161.798 188.278 161.277 188.49C161.08 188.586 160.958 188.697 160.746 188.447C160.578 188.247 160.449 188.283 160.303 188.431C160.264 188.471 160.031 188.285 159.934 188.31C159.836 188.335 159.77 188.597 159.745 188.585L159.234 188.346C158.739 188.461 158.177 188.578 157.983 188.606C157.789 188.633 156.652 188.452 155.892 188.348L155.208 188.468L154.692 188.557C154.074 188.432 153.536 188.448 153.493 188.596L153.434 188.595L153.311 188.594C152.996 188.523 152.668 188.538 152.358 188.636C151.981 188.736 150.812 189.122 150.572 189.221C150.122 189.441 149.696 189.71 149.301 190.024C149.069 190.248 149.447 191.317 149.499 191.448C149.62 191.679 149.809 191.864 150.04 191.975C150.245 192.028 150.991 192.496 151.444 192.719C151.897 192.941 153.414 193.638 153.828 193.753C154.807 193.96 155.795 194.117 156.79 194.223L157.498 194.613C157.538 194.635 157.61 194.549 157.673 194.552C157.965 194.568 158.381 194.728 158.529 194.591C158.869 194.289 159.12 194.835 159.402 194.742C159.448 194.727 159.559 194.831 159.593 194.812C160.085 194.525 160.717 194.788 161.249 194.69C161.796 194.589 162.306 194.393 162.875 194.329C163.358 194.273 163.833 194.155 164.289 193.98C164.704 193.82 165.166 193.782 165.581 193.601L165.955 193.439C166.329 193.385 166.695 193.282 167.044 193.133L167.034 193.059C166.969 192.613 167.107 192.554 167.509 192.804C167.567 192.839 167.778 192.649 167.858 192.522L167.923 192.422C168.077 192.185 168.252 191.963 168.445 191.759L168.839 191.692L169.133 191.647C169.367 191.381 169.641 191.157 169.946 190.983C170.118 190.918 170.072 190.286 170.171 190.157C170.27 190.027 169.328 189.713 168.722 189.644L168.177 189.417C167.946 189.32 167.722 189.196 167.487 189.111L167.174 188.99ZM82.9904 117.655C82.6268 117.479 82.4327 117.489 82.5533 117.669C82.6739 117.849 82.9604 118.399 83.0986 118.432C83.2367 118.465 83.6521 118.736 83.8073 118.762C83.9624 118.788 84.3173 119.34 84.5819 119.512C84.8465 119.685 85.7592 120.13 86.0101 120.349C86.2609 120.568 87.1605 120.682 87.2726 120.864L87.4228 120.969C87.5275 121.042 87.7131 120.954 87.8479 121.006C87.9235 121.036 87.9613 121.276 88.0298 121.295L88.3401 121.383C88.6611 121.431 88.9677 121.548 89.2399 121.728C89.7987 121.984 90.3775 122.193 90.9705 122.353L91.4277 122.586L91.8687 122.811C92.182 122.737 92.4902 122.826 92.5523 123.01L92.6494 123.06L92.871 123.176C93.1369 123.236 93.6978 123.331 94.1173 123.387C94.5367 123.442 95.8567 123.848 96.1253 123.897L96.3621 123.979L96.5928 124.061C96.7523 124.031 96.9136 124.016 97.0753 124.015L97.0984 123.998C97.1537 123.967 97.2406 123.929 97.2366 123.883L97.2356 123.794C97.138 123.627 97.0242 123.471 96.8961 123.327C96.6066 123.008 96.2791 122.727 95.921 122.492L95.696 122.374L95.4196 122.229C95.0567 121.964 94.722 121.66 94.4209 121.323L94.0754 121.133L93.8135 120.984C93.8128 120.707 93.7326 120.438 93.5833 120.209L93.4891 120.203L93.0123 120.173C92.7041 119.942 92.2442 119.583 91.9886 119.373L91.7382 119.224C91.4546 119.055 91.0567 118.974 91.3293 118.543C91.3383 118.528 91.1231 118.279 91.0506 118.285L90.7299 118.311C90.4026 118.386 90.1157 118.362 90.0857 118.263C90.0558 118.163 90.0696 117.943 90.1676 117.982C90.2655 118.021 90.3271 118.001 89.9394 117.817C89.5517 117.634 88.5622 117.503 88.6438 117.358C88.7253 117.212 88.701 116.874 88.4421 116.872C88.05 116.886 87.6578 116.877 87.2673 116.845C87.115 116.799 86.6985 116.603 86.664 116.703C86.6295 116.804 85.9282 116.757 85.549 116.727L85.245 116.868C85.0747 116.947 84.8409 117.087 84.7032 117.015C84.6116 116.947 84.4984 116.916 84.3853 116.929C84.2722 116.942 84.1672 116.998 84.0906 117.086C83.8853 117.249 83.4756 117.186 83.2916 117.362L82.9904 117.655Z" fill="#6FB2A5"/>
<path d="M33.6719 74.8635L33.6955 74.6065L33.7414 74.0958L32.7667 73.3582C32.6122 73.242 32.1507 72.8544 32.2065 72.7574C32.2348 72.6245 32.2305 72.4868 32.1941 72.3566C32.1576 72.2265 32.0903 72.108 31.9979 72.0121C31.8736 71.8421 31.8078 71.6341 31.8106 71.4203C31.8013 71.226 31.8287 71.0857 31.8746 71.1848C31.9821 71.4284 32.1303 71.6503 32.3124 71.8405C32.3814 71.8389 32.6685 71.7028 32.6342 71.5432L32.5408 71.4455C32.2179 71.1138 32.4408 70.9659 32.5851 70.7502C32.7074 70.5717 33.0824 70.6886 33.0289 70.2757L32.9993 70.0486C33.233 69.7575 33.4874 69.4846 33.7605 69.2325C33.9864 69.0337 34.7146 69.6105 34.8505 69.7071C34.9863 69.8037 35.5009 70.2598 35.7466 70.4544C35.9923 70.6489 36.6582 71.5175 36.8956 71.6838C37.1329 71.8502 37.7031 72.7243 37.9161 72.893C38.1682 73.1648 38.4461 73.4099 38.7456 73.6247C38.9427 73.7886 39.1022 73.9952 39.2129 74.2302C39.363 74.4891 39.5362 74.7329 39.7303 74.9583C40.1138 75.363 41.4529 76.7501 41.8333 77.1647C42.3543 77.7818 42.8412 78.4287 43.2918 79.1024L43.4305 79.2013L44.4282 79.9222C45.2937 80.9492 46.2312 82.0741 46.5146 82.4301L46.794 82.736C47.0861 82.9798 47.3295 83.2798 47.5108 83.6194L47.6115 83.8654C47.9346 84.0865 48.3654 84.3848 48.5713 84.5255C48.7771 84.6662 49.289 85.4215 49.5024 85.5655C49.7159 85.7095 50.2226 86.5438 50.4697 86.8101C50.9366 87.2473 51.4308 87.6525 51.9493 88.0231L51.962 88.1652C51.9682 88.238 51.9948 88.3071 52.0387 88.3641C52.0827 88.421 52.1419 88.4633 52.2092 88.4857C52.2821 88.5152 52.3463 88.5636 52.3955 88.6263C52.5172 88.8157 52.6554 88.9931 52.8084 89.1565C53.0032 89.3571 53.2435 89.518 53.427 89.7258C53.4891 89.806 53.5405 89.8946 53.5801 89.9889C53.642 90.1195 53.6965 90.2422 53.7687 90.2659C54.2783 90.414 54.3916 90.9492 54.781 91.2026C55.0106 91.3621 55.2215 91.5486 55.4094 91.7581L55.5756 91.931C55.7423 92.156 55.8941 92.3925 56.0297 92.6389L56.2214 92.7623C56.3463 92.8163 56.4568 92.9003 56.5436 93.0073C56.6303 93.1143 56.6908 93.2414 56.7203 93.3779L56.7308 93.4598C57.1391 93.651 57.525 93.8887 57.8813 94.1687C58.1673 94.4682 58.4067 94.8114 58.5914 95.1864C58.7046 95.3923 58.7837 95.5479 58.7957 95.5591C58.8277 95.5888 59.2723 96.0263 59.7164 96.4631C60.1605 96.8998 61.476 98.2886 61.6866 98.5441C61.8972 98.7995 62.5758 99.6389 62.7269 99.8371L62.8812 100.002C63.1363 100.277 63.5212 100.367 63.7321 100.745C63.8222 100.881 63.9377 100.996 64.0718 101.085C64.2662 101.202 64.4139 101.386 64.4894 101.605L64.5948 102.025C64.9775 102.345 65.3408 102.689 65.6822 103.056C65.9167 103.319 66.9994 104.289 67.4229 104.732C67.8464 105.175 69.0714 106.438 69.2202 106.533C69.4371 106.727 69.6263 106.952 69.7826 107.201C69.8643 107.345 70.6073 107.712 71.008 108.02C71.5113 108.587 71.9778 109.188 72.4047 109.819L72.5805 109.976L74.1372 111.364C75.8504 112.885 77.4567 114.386 77.7057 114.696L78.115 114.663C78.2082 114.656 78.3917 114.835 78.4645 114.961C78.5672 115.141 78.4946 115.451 78.8273 115.437L79.1998 115.424C79.5755 115.372 79.9202 115.178 80.1663 114.879L80.4691 114.848C80.5285 114.844 80.528 114.661 80.5782 114.578L80.7016 114.371C80.7895 114.52 80.9293 114.629 81.0929 114.675L81.1267 114.629L81.1992 114.523C81.3501 114.304 81.5645 114.139 81.8113 114.052C82.0989 113.931 83.1012 113.927 83.3476 114.191L83.5698 113.951C83.6664 113.857 83.7825 113.785 83.9092 113.743C84.036 113.7 84.1702 113.688 84.3017 113.707L84.3919 113.706C84.5433 113.533 84.677 113.344 84.7907 113.142L85.1444 113.262L85.2415 113.295C85.3557 113.265 85.6817 113.21 85.968 113.173C86.4067 113.243 86.8299 113.389 87.2196 113.606L87.3187 113.628L87.4249 113.652C87.6134 113.624 87.7991 113.579 87.9801 113.517C88.1722 113.453 88.668 113.458 88.7333 113.781L89.0864 113.449L89.232 113.309C89.3256 113.289 89.4221 113.291 89.5148 113.313C89.6076 113.335 89.6943 113.378 89.7689 113.439C90.1099 113.677 90.4788 113.87 90.8671 114.013C91.3102 114.188 92.7014 114.704 92.9779 114.841C93.5498 115.178 94.1046 115.545 94.6404 115.939C95.0407 116.239 96.5861 117.126 97.0689 117.466L97.3924 117.914L97.5923 118.192C97.893 118.407 98.4089 118.822 98.7378 119.115L99.0368 119.382C99.3367 119.648 99.636 119.914 99.9346 120.181C99.9991 120.223 100.053 120.28 100.094 120.348C100.172 120.622 100.061 120.945 100.57 121.047C100.661 121.065 100.732 121.206 100.816 121.369C100.881 121.51 100.967 121.64 101.07 121.754C101.242 121.944 101.384 122.161 101.489 122.397C101.622 122.714 101.83 122.991 102.093 123.204C102.112 123.218 102.077 123.326 102.066 123.39C102.056 123.551 102.023 123.71 101.969 123.862L101.808 124.162C102.054 124.285 102.147 124.421 102.014 124.464L101.996 124.595C101.968 124.792 101.972 124.997 101.962 125.199L101.765 125.872L101.628 125.987C101.558 126.172 101.418 126.593 101.317 126.923L101.217 127.226C101.15 127.504 101.062 127.776 100.953 128.039C100.717 128.496 100.451 128.935 100.156 129.354L99.9898 129.585C99.782 129.76 99.5462 129.897 99.2931 129.988C99.0277 129.977 98.7642 129.938 98.5066 129.873C98.2108 129.833 97.9092 129.876 97.634 129.998L97.4356 130.044C97.2057 130.101 96.9232 129.743 96.6796 130.019L96.5585 130.158C96.4545 129.968 96.3106 129.804 96.1371 129.678C95.8598 129.581 95.5761 129.503 95.2882 129.446L95.0896 129.363L94.8902 129.279C94.6614 129.137 94.4108 129.095 94.3324 129.187C94.2541 129.28 93.8945 129.485 93.7634 129.369C93.6322 129.252 93.2333 128.962 93.2407 129.048C93.248 129.133 93.2016 129.307 93.1364 129.313L93.0824 129.286C93.0123 129.247 92.9511 129.194 92.9033 129.129C92.4959 128.567 92.0075 128.763 91.5546 128.754C91.2203 128.748 91.1765 128.756 91.2339 128.399L91.3007 127.99C91.1015 128.089 90.9074 128.098 90.8727 128.011C90.838 127.924 90.5927 127.749 90.5777 127.828L90.5832 127.903L90.6155 128.314C90.3357 128.23 89.619 128.01 89.0212 127.825L88.4799 127.648C88.3032 127.61 88.138 127.53 87.9977 127.414C87.7229 127.154 87.3913 126.965 87.0304 126.864L86.7881 126.759C86.672 126.61 86.5225 126.491 86.3522 126.414L86.28 126.419C86.1882 126.425 86.0611 126.493 86.0186 126.455C85.5693 126.13 85.0852 125.86 84.5759 125.649L84.1342 125.399C83.6523 125.061 82.9643 124.602 82.6034 124.381L82.2842 124.257C82.0145 124.151 81.8448 124.159 81.7552 123.808L81.6961 123.574C81.5687 123.552 81.4478 123.501 81.3418 123.426C81.2358 123.35 81.1473 123.252 81.0825 123.137C81.0512 122.979 80.6174 123.034 80.5069 123.068C80.3963 123.102 80.0874 122.678 79.8985 122.491L79.6606 122.606L79.6047 122.633C79.4873 122.619 79.5542 122.781 79.7439 122.996C79.9997 123.353 80.3219 123.655 80.6923 123.882L80.7746 124.194C80.8434 124.478 80.9496 124.749 81.0904 125.002L81.2212 125.223C81.4477 125.445 81.715 125.617 82.0077 125.732C82.2284 125.801 82.984 126.953 83.754 127.639C84.5239 128.324 86.6757 130.241 86.7716 130.456C86.8675 130.671 87.5738 130.779 87.7321 130.837C87.8904 130.896 88.3922 131.626 88.7111 131.901L89.0534 132.087L89.4321 132.296C89.8645 132.62 90.3161 132.915 90.7842 133.181L90.9502 133.534L91.0277 133.699C91.0118 133.912 91.1642 133.931 91.3674 133.74L91.6197 134.12L91.8631 134.477C92.3464 134.782 92.8037 135.129 93.2306 135.513L93.7201 135.578L93.8882 135.601C94.2231 136.053 94.6147 136.458 95.053 136.804C95.4896 137.149 96.7844 137.752 96.7624 137.825C96.7589 137.888 96.7782 137.95 96.8166 138C96.8549 138.049 96.9096 138.082 96.9703 138.092C97.1227 138.115 97.5836 138.301 97.902 138.352L97.9251 138.455C98.0289 138.924 98.4051 139.016 98.7209 139.211L98.7596 139.234C98.9226 139.457 99.1399 139.63 99.3896 139.738C99.7309 139.922 100.869 140.644 101.201 140.834C101.721 141.134 102.183 141.531 102.562 142.005L102.937 141.868C103.089 141.813 103.405 142.007 103.616 142.147C103.837 142.318 104.049 142.501 104.252 142.695C104.334 142.767 104.438 142.808 104.547 142.812C104.717 142.791 104.89 142.819 105.045 142.892C105.201 142.964 105.334 143.08 105.43 143.225L105.7 143.554C106.365 143.833 107.008 144.163 107.623 144.543C108.301 144.954 110.747 146.261 111.488 146.674L112.154 147.073C112.586 147.418 113.099 147.64 113.642 147.716C113.746 147.732 113.844 147.779 113.923 147.85C113.9 148.234 114.238 148.195 114.417 148.27C114.943 148.439 115.439 148.692 115.888 149.019L116.234 149.305C116.738 149.395 117.227 149.56 117.683 149.796C118.207 150.053 118.749 150.267 119.306 150.437C119.613 150.525 120.531 151.002 120.772 151.109C121.013 151.216 122.617 151.864 123.819 152.366L124.913 152.819C125.037 152.891 125.172 152.94 125.312 152.963L125.71 152.949C126.058 153.108 126.418 153.238 126.786 153.339C126.974 153.376 127.595 153.755 127.784 153.807L127.955 153.81C128.104 153.792 128.254 153.809 128.395 153.86C128.536 153.91 128.664 153.993 128.769 154.101C128.913 154.21 129.081 154.281 129.258 154.31C129.498 154.381 129.769 154.37 129.978 154.497L130.834 155.012C131.688 155.161 132.532 155.368 133.359 155.63C133.965 155.828 134.581 155.992 135.204 156.122C135.541 156.25 135.872 156.395 136.194 156.557C136.638 156.722 137.093 156.856 137.555 156.959L137.905 157.02C138.014 157.04 138.113 157.096 138.188 157.179L138.4 157.461C138.712 157.536 139.695 157.85 140.584 158.16L141.341 158.638C141.37 158.655 141.412 158.645 141.446 158.658L141.985 158.844C142.512 159.068 143.054 159.255 143.606 159.403C143.908 159.467 145.044 160.166 145.55 160.409C146.056 160.651 147.775 161.124 148.174 161.3C148.573 161.475 150.151 162.251 150.798 162.605L151.389 162.743L151.89 162.86C152.265 163.132 152.669 163.359 153.095 163.536C153.333 163.608 154.423 164.201 154.995 164.502L155.514 164.713C155.977 164.901 156.207 165.414 156.765 165.468C157.123 165.505 157.513 165.933 157.895 166.167C158.656 166.624 159.425 167.066 160.192 167.514L160.253 167.549C160.329 167.574 160.943 168.012 161.619 168.52L162.242 168.971C162.641 169.259 163.058 169.517 163.461 169.795C163.864 170.074 164.137 170.587 164.685 170.621C164.738 170.624 164.8 170.752 164.863 170.77C164.94 170.802 165.008 170.852 165.062 170.917C165.115 170.981 165.153 171.058 165.172 171.141C165.199 171.266 165.266 171.377 165.363 171.457C165.46 171.536 165.58 171.58 165.704 171.58L165.963 171.586C166.336 172.012 166.649 172.49 166.892 173.008L167.312 173.132L167.69 173.244C167.938 173.665 168.254 174.038 168.626 174.347L168.762 174.755C168.832 174.963 169.149 175.136 169.368 175.316L169.579 175.487C169.566 175.612 169.582 175.738 169.625 175.855C169.668 175.972 169.738 176.076 169.829 176.16L169.996 176.285C170.128 176.382 170.374 176.365 170.377 176.598C170.375 177.022 170.698 177.24 170.943 177.548C171.279 178.026 171.583 178.526 171.854 179.046L171.928 179.172C172.002 179.302 171.993 179.44 171.909 179.478C171.825 179.516 171.612 179.636 171.623 179.663C171.698 179.725 171.791 179.763 171.888 179.769C172.029 179.81 172.161 179.881 172.273 179.978C172.385 180.075 172.475 180.196 172.538 180.333L172.557 180.575L172.568 180.704C172.515 180.84 172.53 180.965 172.61 180.982C172.689 180.998 172.768 181.214 172.73 181.37C172.691 181.526 172.661 182.01 172.734 181.966C172.807 181.922 173.027 181.88 173.031 181.994C173.092 182.26 173.187 182.517 173.314 182.757L173.431 182.944C173.726 183.414 173.726 183.566 173.473 184.23L173.427 184.346C173.438 184.533 173.605 184.62 173.799 184.539L173.872 184.805L173.899 184.902C174.203 185.144 174.532 185.348 174.881 185.512L175.313 185.683L176.179 186.026C177.126 186.426 178.211 186.895 178.589 187.07C178.966 187.244 180.316 187.889 180.744 188.122C181.172 188.355 182.591 189.13 182.988 189.287C183.385 189.444 184.455 190.225 184.659 190.279L184.777 190.395L185.2 190.81C185.737 191.124 186.598 191.643 187.107 191.963C187.615 192.284 189.155 193.344 189.471 193.478L189.652 193.678L189.862 193.909C190.139 194.095 190.497 194.311 190.658 194.391C190.819 194.47 192.069 195.331 193.153 196.027L193.935 196.936L194.159 197.195C194.516 197.458 194.892 197.691 195.283 197.895L195.546 198.106C195.855 198.357 196.146 198.635 196.446 198.901L196.717 199.14C197.129 199.521 197.511 199.935 197.858 200.38L198.351 200.642L198.736 200.847C199.072 201.329 199.455 201.889 199.584 202.093C199.71 202.242 199.847 202.38 199.994 202.507C200.197 202.681 200.375 202.882 200.525 203.106L200.942 203.043L200.988 203.035C201.18 203.194 201.362 203.367 201.531 203.552C201.706 203.803 201.848 204.076 201.953 204.366C202.038 204.586 202.136 204.8 202.248 205.006L202.369 205.207L202.554 205.514C202.74 205.357 202.951 205.318 203.025 205.431C203.098 205.544 203.358 206.134 203.51 206.491L203.449 206.733L203.318 207.255C203.76 207.285 204.178 207.473 204.499 207.787L204.403 208.208C204.403 208.263 204.414 208.316 204.436 208.365C204.459 208.415 204.492 208.458 204.533 208.492C205.087 208.773 204.869 209.282 205.081 209.663C205.125 209.741 205.075 209.955 205.022 209.963C204.847 209.988 204.756 210.01 204.937 210.195C205.032 210.268 205.12 210.35 205.2 210.44C205.277 210.563 205.279 210.73 205.365 210.84C205.561 211.075 205.453 211.227 205.278 211.217L204.862 211.189C204.998 211.442 205.112 211.707 205.203 211.981C205.258 212.17 205.647 212.711 205.579 212.985L205.516 213.233C205.438 213.543 205.127 213.54 204.882 213.611L204.844 213.622C204.699 213.246 204.678 212.83 204.785 212.438L204.849 212.008L204.854 211.975C204.714 211.856 204.581 211.855 204.55 211.965C204.52 212.074 204.367 212.261 204.303 212.013C204.238 211.765 204.358 211.028 204.241 211.113C204.124 211.198 203.742 211.403 203.821 211.259C203.869 211.148 203.882 211.025 203.857 210.907C203.833 210.789 203.773 210.682 203.686 210.603C203.29 210.274 202.943 209.888 202.656 209.456L202.357 209.226C202.263 209.142 202.185 209.043 202.125 208.932C202.091 208.882 202.061 208.829 202.024 208.784C201.893 208.604 201.646 208.396 201.651 208.249C201.659 208.046 201.553 208.034 201.442 208.017C201.4 208.017 201.359 208.005 201.323 207.984C201.287 207.962 201.257 207.931 201.236 207.894L201.148 207.699C200.81 207.499 200.519 207.224 200.295 206.895L200.082 206.7C199.791 206.431 199.325 206.285 199.142 205.988L198.89 205.576C198.332 205.3 197.802 204.967 197.309 204.582L196.906 204.148C196.55 203.679 196.07 203.326 195.522 203.133C195.261 203.031 195.044 202.836 194.911 202.584C194.876 202.494 194.822 202.414 194.752 202.35C194.682 202.286 194.598 202.239 194.507 202.215C194.239 202.106 193.731 202.117 193.742 201.575C193.7 201.515 193.637 201.475 193.566 201.462C193.384 201.524 193.335 201.409 193.293 201.301C193.263 201.227 193.234 201.154 193.165 201.135C192.955 201.103 192.75 201.041 192.557 200.95L192.405 200.847C192.137 200.499 191.815 200.199 191.453 199.96C190.893 199.599 190.305 199.288 189.693 199.031L189.639 198.822C189.597 198.695 189.52 198.585 189.416 198.504C189.313 198.423 189.188 198.376 189.058 198.368C188.748 198.267 188.453 198.126 188.179 197.946C187.87 197.828 187.584 197.654 187.335 197.433C187.109 197.156 186.722 197.232 186.576 196.895C186.561 196.86 186.57 196.795 186.556 196.789C186.217 196.643 185.795 196.756 185.556 196.301L184.62 195.633L184.246 195.52C183.655 195.301 183.086 195.026 182.546 194.697L182.082 194.381C181.887 194.253 181.733 194.018 181.548 194.291C181.53 194.318 181.293 194.242 181.277 194.195L181.06 193.544C180.597 193.54 180.136 193.485 179.685 193.379C179.303 193.255 178.911 193.168 178.512 193.119C178.3 193.124 177.657 192.407 177.275 192.175C176.482 191.976 175.674 191.84 174.86 191.77L174.43 191.347L174.194 191.116C173.725 190.998 173.349 191.383 173.358 191.971L173.232 192.408C173.114 192.902 172.958 193.386 172.764 193.854C172.403 194.901 171.822 195.855 171.064 196.647L170.537 197.088C170.006 197.624 169.338 198.253 169.051 198.488L168.876 198.825C168.647 199.132 168.346 199.373 168 199.525L167.684 199.716C167.296 199.87 166.845 200.043 166.679 200.099C166.389 200.208 166.109 200.344 165.842 200.505C165.706 200.604 165.122 200.477 165.027 200.507L164.946 200.547L164.383 200.829C163.509 200.931 162.631 200.975 161.753 200.961L161.333 201.157C161.021 201.306 160.697 200.986 160.405 201.22C160.249 201.344 159.802 201.127 159.491 201.076C159.346 201.051 159.198 201.047 159.051 201.065C158.892 201.091 158.751 201.201 158.595 201.187C158.555 201.183 158.547 201.126 158.536 201.062C158.518 200.964 158.488 200.847 158.307 200.884C158.127 200.922 157.908 200.512 157.763 200.839L156.422 200.685L155.87 200.586C155.279 200.381 154.326 200.082 153.75 199.921L153.234 199.845C152.946 199.794 152.672 199.682 152.429 199.514C152.011 199.31 151.58 199.135 151.138 198.993C150.772 198.838 150.353 198.75 150.176 198.284C150.153 198.222 150.061 198.176 150.002 198.122L149.628 197.789C149.076 197.452 148.579 197.029 148.154 196.534L147.811 196.179L147.465 195.82C147.152 195.446 146.82 195.089 146.471 194.749C146.22 194.29 145.997 193.815 145.803 193.327C145.427 192.389 145.151 191.41 144.979 190.408L145.218 190.029L145.416 189.719C145.374 189.289 145.391 188.855 145.467 188.429L145.541 188.115C145.621 187.772 145.725 187.435 145.819 187.098C145.847 187.006 145.942 186.919 145.92 186.836C145.832 186.639 145.755 186.437 145.689 186.231C145.663 186.045 146.055 186.117 145.949 185.783C145.897 185.622 146.05 185.422 146.13 185.257C146.3 184.832 146.52 184.43 146.784 184.059L147.113 183.678C147.559 183.332 148.528 182.688 149.267 182.248L149.936 181.849L150.427 181.554C151.113 181.514 151.797 181.431 152.474 181.306L152.925 181.437L153.314 181.551C153.81 181.439 154.319 181.404 154.824 181.446C155.435 181.495 156.048 181.513 156.662 181.498C156.934 181.481 157.661 181.576 157.683 181.397C157.705 181.219 158.415 181.666 158.782 181.759C159.148 181.851 161.2 181.644 162.706 181.839L164.076 182.108C165.77 182.442 167.464 182.87 169.157 183.27L169.46 183.343C169.791 183.481 169.834 183.07 169.554 182.425C168.88 181.166 168.133 179.951 167.315 178.786L166.789 178.108L166.483 177.715C166.092 177.432 165.737 177.098 165.429 176.722C165.289 176.505 164.566 175.998 164.424 175.824L164.337 175.645C164.288 175.544 164.196 175.539 164.104 175.537C163.987 175.532 163.871 175.53 163.852 175.335C163.843 175.307 163.829 175.282 163.811 175.26C163.793 175.238 163.77 175.22 163.745 175.207C163.614 175.152 162.586 174.48 162.47 174.389C162.379 174.317 162.238 174.305 162.161 174.227C161.756 173.816 160.965 173.883 160.852 173.097L160.846 173.053C160.698 172.994 160.164 172.723 159.667 172.443C159.169 172.162 157.772 171.561 157.64 171.887L157.518 171.269L157.445 170.898C157.149 170.781 156.589 170.526 156.195 170.338C155.8 170.151 154.405 169.542 154.015 169.288L153.662 169.231C153.567 169.212 153.478 169.166 153.407 169.099C153.335 169.032 153.283 168.946 153.255 168.851C153.23 168.786 153.22 168.742 153.21 168.748L152.49 169.187C151.808 168.641 151.205 168.156 151.151 168.107C151.041 167.982 150.94 167.85 150.849 167.71C150.775 167.603 150.119 167.724 149.881 167.488C149.254 167.114 148.586 166.818 147.89 166.606L147.432 166.396C147.073 166.305 146.739 166.134 146.451 165.896C146.334 165.768 146.043 165.819 145.844 165.736L145.733 165.689C145.635 165.545 145.334 165.538 145.068 165.662L144.971 165.16C144.961 165.112 144.519 165.113 144.305 165.009L144.131 164.924C143.901 164.716 143.642 164.545 143.363 164.416L143.129 164.499C143.071 164.519 143.01 164.525 142.95 164.519C142.889 164.512 142.831 164.492 142.779 164.46C142.477 164.157 141.99 163.746 141.708 163.804L141.115 163.923C140.668 163.708 140.211 163.518 139.745 163.352L139.635 163.267C139.401 163.081 139.194 162.791 138.917 163.081C138.895 163.097 138.719 162.997 138.641 162.922C138.33 162.623 138.05 162.479 137.698 162.725C137.572 162.81 137.54 162.692 137.524 162.596C137.516 162.544 137.51 162.496 137.502 162.502L137.131 162.479C136.726 162.359 135.905 162.094 135.299 161.897L134.811 161.612L134.373 161.359C133.884 161.232 133.092 161 132.617 160.839L132.171 160.765C132.095 160.732 132.033 160.672 131.999 160.595C131.903 160.455 131.807 160.314 131.619 160.562C131.566 160.631 131.174 160.419 130.94 160.336L130.665 160.239C130.272 160.04 129.863 159.876 129.442 159.75C129.042 159.637 127.552 159.119 126.96 158.983C126.134 158.641 125.328 158.251 124.546 157.814C124.141 157.712 123.742 157.587 123.35 157.44C123.144 157.322 122.349 157.132 122.157 157.026C121.902 156.798 121.674 156.54 121.478 156.256C121.404 156.166 121.274 156.106 121.461 156.449L121.159 156.654C120.968 156.782 120.853 156.746 120.727 156.558C120.646 156.438 120.581 156.177 120.556 156.178L119.572 156.226C119.187 155.763 118.774 155.326 118.335 154.917C118.392 155.018 118.323 155.183 118.073 155.09C117.559 154.879 117.061 154.631 116.582 154.348L116.303 154.324L115.992 154.296C115.502 153.975 114.964 153.739 114.398 153.6L113.918 153.17L113.579 152.869C113.412 152.87 113.247 152.832 113.098 152.757C112.948 152.682 112.818 152.572 112.716 152.437C112.62 152.22 112.14 151.943 112.01 152.226L111.565 151.92C111.369 151.79 111.15 151.75 111.088 151.477L111.078 151.436C110.981 151.397 110.328 151.209 109.626 151.017L109.248 150.62C109.164 150.525 109.089 150.421 109.026 150.31C108.95 150.162 108.843 150.032 108.714 149.931C108.484 149.781 108.167 149.802 107.891 149.731C107.613 149.671 107.341 149.589 107.076 149.485L106.89 149.406C106.715 149.179 106.584 148.919 106.504 148.641L106.263 148.893C106.232 148.925 105.955 148.739 105.809 148.628L105.353 148.286C104.977 148.025 104.638 147.712 104.345 147.357C104.34 147.231 104.319 147.106 104.282 146.986C104.247 146.989 104.213 147.001 104.184 147.022C104.156 147.043 104.133 147.071 104.119 147.104C104.082 147.188 103.912 147.434 103.849 147.402C103.704 147.172 103.598 146.918 103.533 146.651L103.173 146.963C103.05 146.923 102.944 146.844 102.867 146.739C102.851 146.428 102.632 146.554 102.51 146.474C102.459 146.421 102.426 146.353 102.416 146.279C102.403 146.211 102.375 146.147 102.335 146.09L102.246 145.985C102.096 145.922 101.787 145.817 101.559 145.751C101.037 145.561 100.544 145.294 100.098 144.956L99.7037 144.88C99.5169 144.857 99.3413 144.777 99.1985 144.652C99.0557 144.527 98.952 144.361 98.8999 144.175C98.8863 144.15 98.868 144.128 98.8459 144.111C98.8239 144.093 98.7987 144.081 98.7718 144.074L98.0575 144.165C97.6746 143.56 97.4476 143.122 97.5497 143.188C97.6518 143.254 97.9507 143.351 97.807 143.143L97.8072 143.033C97.8037 142.695 97.5538 142.865 97.4486 142.777C97.2601 142.623 97.132 142.744 97.0082 142.724L96.6599 142.667C96.145 142.407 95.9358 142.183 96.1946 142.171L96.2724 142.114L96.3367 142.067C96.3322 141.985 96.3075 141.906 96.2648 141.837C96.2221 141.768 96.1628 141.711 96.0927 141.673L96.0174 141.703L95.4468 141.926C94.9933 141.577 94.4684 141.185 94.2723 141.057L94.2148 140.952L94.0064 140.574C93.6826 140.398 93.3484 140.241 93.006 140.106C92.8206 140.045 92.5048 139.503 92.3834 139.436C92.2122 139.289 92.0329 139.153 91.8462 139.027C91.7536 139.016 91.4202 138.888 91.3728 138.764C91.2588 138.517 91.0972 138.296 90.8978 138.116C90.4386 137.894 89.9645 137.705 89.4791 137.551L89.2609 137.282L88.7929 136.705C88.1395 136.406 87.5461 135.985 87.0423 135.463L86.7359 135.134L86.5619 134.948C86.2544 134.788 85.9759 134.575 85.7383 134.318C85.2978 133.966 84.8167 133.671 84.3054 133.441L84.2217 133.13L84.1331 132.799C83.9362 132.663 83.7228 132.556 83.4982 132.478L83.4895 132.452C83.3128 132.059 83.0289 131.729 82.6721 131.5C82.4131 131.319 82.1849 131.095 81.9966 130.838L81.8591 130.623C81.7688 130.349 81.6041 130.12 81.4947 130.115C81.1437 129.972 80.8488 129.714 80.655 129.381C80.4656 128.992 79.2671 127.464 78.647 126.59L78.1189 125.789C77.9042 125.463 77.7504 125.09 77.5219 124.745L77.2715 124.358C77.1775 123.84 77.0662 123.217 77.0263 122.973C76.9676 122.638 76.9289 122.299 76.9107 121.959C76.9297 121.885 77.1575 121.669 77.2049 121.573C77.2522 121.478 76.9138 120.988 76.8168 120.856L76.8406 120.828L77.0693 120.551C76.9813 120.376 76.8581 120.224 76.7079 120.103C76.5578 119.982 76.3842 119.896 76.1986 119.85C75.9488 119.8 75.579 119.257 75.3526 118.91C75.2954 118.818 75.2329 118.729 75.1653 118.645C74.8476 118.423 74.5719 118.143 74.3519 117.819L73.9434 117.798L73.8848 117.794C73.8143 117.735 73.5829 117.578 73.3685 117.444C73.0809 117.189 72.8197 116.904 72.589 116.594C72.5366 116.515 72.4889 116.433 72.4461 116.348C72.4032 116.258 72.3526 116.173 72.2948 116.092C72.229 116.024 71.4962 115.412 70.8522 114.877L70.3139 114.339C70.188 114.156 70.0225 114.005 69.8301 113.9C69.5457 113.773 69.3148 113.547 69.1788 113.26L69.079 112.955C68.8603 112.783 68.5181 112.497 68.3224 112.319L68.1482 112.153C67.9812 111.992 67.6841 111.789 67.6882 111.659L67.7024 111.302C67.459 111.296 67.2163 111.272 66.9766 111.23C66.8701 111.208 66.7369 110.92 66.6065 110.639C66.5386 110.479 66.4595 110.324 66.3699 110.176L66.1528 109.972L65.953 109.786C65.7206 109.647 65.5001 109.488 65.2937 109.311C65.177 109.198 64.7221 108.677 64.5003 108.425L64.3 108.194L64.0523 107.908C63.7911 107.584 63.4715 107.194 63.3419 107.039C63.0438 106.768 62.7252 106.522 62.389 106.303C62.1785 106.168 61.6322 105.548 61.3065 105.295C60.9808 105.041 60.0893 103.64 59.4975 103.113L59.1395 102.513C59.0979 102.451 59.0446 102.398 58.9828 102.358C58.921 102.318 58.8519 102.291 58.7795 102.279C58.6911 102.27 58.6071 102.236 58.5376 102.18C58.468 102.123 58.416 102.047 58.3875 101.961L58.3092 101.702C58.1414 101.464 57.9214 101.272 57.6669 101.139L57.5463 101.063C57.3017 100.91 56.9315 100.779 57.2161 100.42C57.2306 100.409 57.025 100.139 56.9565 100.138L56.5499 100.145C56.3257 99.839 56.125 99.5157 55.9496 99.1776C55.8375 99.0345 55.6957 98.9192 55.5344 98.8402C55.3905 98.7705 55.2609 98.6733 55.1526 98.5536C55.0916 98.4069 54.7955 97.9198 54.6755 97.9067C54.5555 97.8935 54.2804 97.7745 54.4245 97.6773C54.5686 97.5801 53.9186 97.2513 53.7491 97.0864L53.5904 96.9291L53.1119 96.4577C52.6218 96.0283 52.2558 95.4682 52.0531 94.8377L51.6212 94.8705C51.5721 94.8809 51.5215 94.8802 51.4728 94.8688C51.4241 94.8574 51.3784 94.8353 51.3387 94.8042C51.2991 94.773 51.2665 94.7334 51.2431 94.688C51.2196 94.6426 51.2059 94.5925 51.2028 94.541C51.1853 94.4415 51.138 94.3503 51.0675 94.2805C50.9358 94.2046 50.8211 94.101 50.7309 93.9765C50.6407 93.8519 50.5769 93.7091 50.5436 93.5571L50.5414 93.5078C50.4011 93.4339 50.2448 93.3977 50.0868 93.4025C49.929 93.4069 49.5121 92.7249 49.297 92.4739L49.085 92.2515C48.8766 92.0309 48.549 91.8904 48.559 91.5296C48.5262 91.4586 48.468 91.4036 48.3964 91.3763L47.8027 91.5655C47.5893 91.1586 47.4083 90.7342 47.2619 90.2965C46.9011 89.9057 46.5112 89.5447 46.0954 89.2168L46.0411 88.958C46.0337 88.8772 45.9987 88.8021 45.9424 88.7458C45.8861 88.6895 45.8121 88.6557 45.7336 88.6506C45.69 88.6494 45.6474 88.6386 45.6083 88.619C45.5693 88.5994 45.5349 88.5714 45.5074 88.5368C45.3736 88.3182 45.1987 87.9252 45.0894 87.923C44.9994 87.9202 44.9127 87.889 44.8409 87.8335C44.7692 87.778 44.716 87.701 44.6884 87.6129C44.6525 87.5207 44.5932 87.4402 44.5168 87.3799C44.313 87.2153 44.1548 86.9984 44.058 86.7505L43.9478 86.5457C43.5183 86.2179 43.1134 85.8571 42.7369 85.4663C42.3671 85.0816 41.3129 83.9323 41.2181 83.7726C41.1502 83.674 41.0751 83.581 40.9932 83.4944C40.8966 83.3956 40.8117 83.2854 40.7403 83.1659C40.5424 82.9657 40.3194 82.7937 40.0771 82.6545C39.8071 82.3274 39.6103 81.9427 39.5006 81.5274L38.9835 81.6311L38.9612 81.6352C38.7057 81.1937 38.4173 80.7735 38.0983 80.3787C37.747 79.9373 36.6326 78.6728 36.514 78.4685C36.341 78.2534 36.1448 78.0593 35.9292 77.89C35.8221 77.7835 35.3963 77.3025 35.1949 77.0337L35.1253 76.7728C35.0243 76.4044 35.0251 76.0889 34.4861 76.0229L34.2855 75.9989C34.2332 75.9364 34.1801 75.8646 34.1252 75.7841C33.9298 75.5029 33.7769 75.1926 33.6719 74.8635V74.8635ZM88.4489 116.818C88.0574 116.831 87.6656 116.821 87.2756 116.788C87.124 116.743 86.7072 116.546 86.6734 116.647C86.6396 116.748 85.9396 116.698 85.5602 116.669L85.2566 116.809C85.0868 116.887 84.8542 117.026 84.7164 116.955C84.6247 116.887 84.5117 116.856 84.3988 116.869C84.2859 116.882 84.1812 116.937 84.1049 117.025C83.9014 117.188 83.4908 117.124 83.3073 117.299L82.9973 117.595C82.6331 117.418 82.4403 117.428 82.5606 117.608C82.6809 117.788 82.9689 118.339 83.1059 118.371C83.2429 118.403 83.6593 118.675 83.8142 118.701C83.9692 118.728 84.3242 119.279 84.5893 119.453C84.8543 119.627 85.7659 120.072 86.0167 120.292C86.2676 120.511 87.1661 120.627 87.2791 120.809L87.4288 120.913C87.5342 120.985 87.7187 120.898 87.8534 120.951C87.8906 120.966 87.9201 121.032 87.9491 121.102C87.9781 121.171 88.0032 121.234 88.0368 121.244L88.3481 121.332C88.6687 121.38 88.9751 121.498 89.2472 121.678C89.8058 121.935 90.3842 122.145 90.9766 122.306L91.4337 122.54L91.8743 122.766C92.187 122.693 92.495 122.782 92.5568 122.965L92.6547 123.015L92.8755 123.13C93.1417 123.192 93.702 123.288 94.1205 123.343C94.539 123.399 95.859 123.808 96.1275 123.856L96.3646 123.94L96.595 124.022C96.7546 123.992 96.9163 123.977 97.0781 123.977L97.1012 123.96C97.1569 123.929 97.2436 123.891 97.2388 123.845L97.2371 123.757C97.1394 123.59 97.0255 123.433 96.8973 123.29C96.6076 122.97 96.2798 122.689 95.9219 122.453L95.6972 122.335L95.4203 122.19C95.057 121.924 94.722 121.62 94.4206 121.283L94.0788 121.09L93.817 120.941C93.8157 120.664 93.7352 120.395 93.5857 120.166L93.491 120.16L93.0148 120.129C92.7073 119.897 92.2462 119.537 91.9919 119.327L91.7422 119.177C91.4587 119.008 91.0612 118.926 91.3327 118.496C91.3424 118.481 91.1263 118.231 91.0542 118.236L90.734 118.262C90.4072 118.336 90.1203 118.311 90.0907 118.212C90.0612 118.113 90.0739 117.893 90.1718 117.932C90.2697 117.971 90.3311 117.951 89.9437 117.767C89.5562 117.583 88.5678 117.45 88.6497 117.305C88.6793 117.244 88.6935 117.176 88.6908 117.108C88.6882 117.04 88.6688 116.974 88.6347 116.917C88.6137 116.885 88.5856 116.86 88.5527 116.843C88.5197 116.826 88.4832 116.817 88.4462 116.819L88.4489 116.818ZM168.755 189.7L168.209 189.472C167.978 189.375 167.755 189.25 167.519 189.165L167.192 189.049C167.26 189.272 167.207 189.381 167.074 189.292C166.718 189.087 166.344 188.916 165.958 188.779L165.743 188.958C165.435 189.213 165.09 188.895 164.769 188.908C164.452 188.888 164.137 188.833 163.831 188.745C163.519 188.706 163.211 188.644 162.909 188.559C162.399 188.335 161.822 188.327 161.302 188.538C161.104 188.634 160.983 188.745 160.771 188.494C160.603 188.294 160.474 188.33 160.329 188.478C160.29 188.517 160.057 188.331 159.96 188.355C159.862 188.38 159.798 188.642 159.772 188.63L159.261 188.39C158.768 188.505 158.206 188.621 158.013 188.648C157.82 188.675 156.684 188.491 155.926 188.386L155.243 188.505L154.727 188.593C154.11 188.467 153.573 188.483 153.53 188.63L153.471 188.628L153.348 188.627C153.033 188.555 152.705 188.57 152.396 188.668C152.021 188.766 150.855 189.151 150.614 189.249C150.165 189.468 149.74 189.736 149.346 190.049C149.116 190.273 149.494 191.343 149.546 191.473C149.668 191.704 149.857 191.888 150.088 192C150.294 192.054 151.038 192.523 151.492 192.746C151.945 192.968 153.46 193.669 153.875 193.784C154.852 193.993 155.839 194.152 156.833 194.259L157.54 194.65C157.58 194.672 157.652 194.587 157.715 194.59C158.008 194.606 158.423 194.766 158.57 194.63C158.91 194.328 159.161 194.875 159.442 194.783C159.488 194.767 159.599 194.872 159.633 194.853C160.125 194.566 160.755 194.831 161.286 194.734C161.833 194.634 162.342 194.439 162.909 194.375C163.391 194.32 163.865 194.204 164.321 194.03C164.734 193.871 165.196 193.835 165.61 193.654L165.983 193.493C166.358 193.439 166.724 193.336 167.074 193.186L167.063 193.112C166.998 192.666 167.135 192.608 167.538 192.858C167.595 192.894 167.806 192.704 167.886 192.578L167.951 192.479C168.104 192.242 168.278 192.02 168.471 191.817L168.865 191.751L169.158 191.707C169.391 191.442 169.666 191.218 169.969 191.045C170.141 190.98 170.093 190.348 170.193 190.22C170.203 190.205 170.202 190.189 170.19 190.171C169.75 189.91 169.259 189.749 168.752 189.701L168.755 189.7Z" fill="#FE6711"/>
</svg>
