<svg width="208" height="243" viewBox="0 0 208 243" fill="none" xmlns="http://www.w3.org/2000/svg">
<path d="M178.421 181.98C178.3 181.878 178.183 181.877 178.159 181.972C178.134 182.067 177.999 182.227 177.944 182.013C177.888 181.799 177.992 181.166 177.891 181.239C177.79 181.312 177.458 181.488 177.525 181.365C177.567 181.27 177.578 181.164 177.557 181.062C177.536 180.961 177.484 180.87 177.408 180.801C177.065 180.519 176.764 180.187 176.515 179.815L176.256 179.617C176.144 179.503 176.047 179.375 175.969 179.235C175.856 179.079 175.641 178.902 175.646 178.774C175.658 178.474 175.376 178.662 175.284 178.466L175.206 178.299C174.913 178.126 174.661 177.891 174.467 177.608L174.282 177.441C174.03 177.209 173.625 177.084 173.467 176.829L173.249 176.475C172.764 176.237 172.305 175.951 171.877 175.62L171.528 175.248C171.22 174.844 170.803 174.541 170.328 174.375C170.101 174.287 169.913 174.12 169.797 173.903C169.767 173.826 169.72 173.757 169.659 173.702C169.599 173.646 169.526 173.607 169.447 173.586C169.214 173.492 168.774 173.502 168.784 173.035C168.747 172.984 168.692 172.949 168.63 172.937C168.369 173.031 168.433 172.7 168.283 172.656C168.1 172.629 167.923 172.576 167.755 172.497L167.623 172.409C167.391 172.11 167.112 171.852 166.797 171.646C166.312 171.336 165.801 171.069 165.271 170.849L165.224 170.669C165.187 170.56 165.12 170.464 165.03 170.395C164.94 170.326 164.832 170.285 164.719 170.279C164.45 170.192 164.194 170.07 163.957 169.916C163.689 169.814 163.442 169.665 163.226 169.475C163.029 169.237 162.693 169.303 162.566 169.012C162.553 168.983 162.56 168.926 162.548 168.921C162.254 168.796 161.888 168.893 161.681 168.502L160.869 167.928L160.545 167.831C160.033 167.643 159.539 167.406 159.07 167.124L158.667 166.852C158.498 166.742 158.364 166.54 158.205 166.775C158.188 166.799 157.983 166.733 157.97 166.692L157.781 166.132C157.379 166.129 156.979 166.081 156.588 165.99C156.257 165.884 155.917 165.809 155.571 165.767C155.387 165.77 154.829 165.155 154.498 164.954C153.81 164.783 153.11 164.667 152.404 164.607L152.029 164.243L151.825 164.045C151.418 163.944 151.092 164.274 151.099 164.78L150.991 165.156C150.888 165.58 150.752 165.996 150.584 166.399C150.271 167.299 149.768 168.119 149.11 168.8L148.652 169.18C148.192 169.64 147.612 170.182 147.364 170.384L147.212 170.673C147.013 170.937 146.752 171.145 146.452 171.276L146.178 171.441C145.842 171.573 145.45 171.722 145.306 171.77C145.055 171.864 144.812 171.981 144.581 172.119C144.463 172.204 143.956 172.095 143.873 172.121L143.803 172.155L143.315 172.398C142.558 172.486 141.796 172.524 141.035 172.512L140.67 172.68C140.4 172.808 140.118 172.534 139.865 172.734C139.729 172.841 139.343 172.655 139.072 172.611C138.947 172.591 138.82 172.589 138.694 172.605C138.555 172.627 138.433 172.721 138.298 172.71C138.209 172.703 138.305 172.397 138.049 172.449C137.897 172.479 137.704 172.132 137.577 172.409L136.414 172.276L135.935 172.191C135.422 172.015 134.595 171.758 134.095 171.62L133.649 171.554C133.398 171.511 133.16 171.414 132.95 171.27C132.587 171.094 132.213 170.944 131.83 170.822C131.513 170.689 131.149 170.613 130.995 170.213C130.974 170.16 130.895 170.12 130.843 170.074L130.519 169.787C130.04 169.498 129.609 169.135 129.241 168.71L128.943 168.404L128.639 168.099C128.367 167.777 128.08 167.469 127.777 167.177C127.559 166.782 127.366 166.374 127.197 165.955C126.871 165.148 126.631 164.307 126.482 163.446L126.69 163.119L126.861 162.852C126.825 162.482 126.84 162.109 126.906 161.743L126.969 161.473C127.039 161.178 127.129 160.889 127.211 160.6C127.234 160.52 127.317 160.444 127.298 160.374C127.222 160.204 127.155 160.031 127.097 159.854C127.074 159.694 127.415 159.755 127.323 159.468C127.278 159.33 127.411 159.157 127.48 159.016C127.628 158.651 127.818 158.305 128.047 157.986L128.332 157.659C128.72 157.362 129.56 156.809 130.201 156.43L130.781 156.086L131.207 155.834C131.803 155.799 132.396 155.728 132.984 155.62L133.375 155.733L133.713 155.83C134.143 155.735 134.584 155.704 135.022 155.74C135.552 155.783 136.085 155.798 136.617 155.785C136.853 155.77 137.484 155.851 137.503 155.698C137.522 155.545 138.138 155.93 138.456 156.009C138.774 156.088 140.554 155.91 141.861 156.077L143.049 156.309C144.519 156.596 145.988 156.964 147.456 157.308L147.719 157.37C148.006 157.489 148.044 157.136 147.802 156.581C147.217 155.499 146.568 154.454 145.859 153.452L145.402 152.87L145.137 152.532C144.797 152.288 144.491 152.001 144.223 151.678C144.102 151.491 143.475 151.055 143.351 150.906L143.275 150.752C143.179 150.556 142.885 150.785 142.855 150.486C142.84 150.437 142.807 150.397 142.763 150.374C142.649 150.327 141.757 149.75 141.656 149.671C141.578 149.609 141.455 149.6 141.388 149.532C141.037 149.179 140.351 149.236 140.253 148.561L140.247 148.522C140.119 148.472 139.656 148.238 139.225 147.998C138.793 147.758 137.581 147.239 137.467 147.52L137.361 146.989L137.297 146.67C137.041 146.57 136.554 146.351 136.213 146.189C135.871 146.027 134.661 145.505 134.321 145.286L134.014 145.236C133.682 145.181 133.648 144.805 133.622 144.821L132.998 145.199C132.407 144.73 131.884 144.312 131.836 144.271C131.741 144.163 131.653 144.049 131.574 143.929C131.51 143.837 130.941 143.941 130.735 143.739C130.191 143.417 129.611 143.162 129.007 142.98L128.61 142.801C128.299 142.722 128.008 142.575 127.759 142.371C127.657 142.261 127.404 142.305 127.232 142.233L127.136 142.193C127.051 142.07 126.79 142.063 126.559 142.17L126.475 141.739C126.467 141.699 126.084 141.698 125.897 141.609L125.746 141.536C125.547 141.358 125.322 141.211 125.08 141.1L124.878 141.171C124.828 141.188 124.774 141.194 124.722 141.188C124.67 141.182 124.619 141.165 124.574 141.137C124.312 140.878 123.889 140.524 123.644 140.574L123.131 140.676C122.743 140.492 122.347 140.328 121.943 140.186L121.847 140.113C121.644 139.954 121.465 139.704 121.225 139.953C121.208 139.969 121.054 139.879 120.986 139.816C120.716 139.558 120.473 139.435 120.167 139.647C119.998 139.761 120.025 139.454 119.996 139.452L119.673 139.432C119.322 139.329 118.609 139.102 118.084 138.931L117.66 138.687L117.281 138.469C116.857 138.361 116.169 138.161 115.754 138.024L115.368 137.96C115.201 137.933 115.15 137.453 114.89 137.787C114.843 137.846 114.504 137.663 114.3 137.592L114.061 137.51C113.721 137.338 113.366 137.197 113.001 137.089C112.653 136.991 111.361 136.547 110.847 136.43C110.131 136.136 109.432 135.8 108.753 135.425C108.402 135.337 108.056 135.229 107.716 135.102C107.537 135.002 106.847 134.838 106.68 134.747C106.459 134.551 106.261 134.329 106.092 134.085C106.028 134.008 105.911 133.959 106.076 134.251L105.814 134.427C105.648 134.537 105.549 134.507 105.439 134.345C105.369 134.242 105.313 134.017 105.291 134.018L104.439 134.063C104.105 133.666 103.746 133.29 103.366 132.938C103.416 133.023 103.356 133.166 103.139 133.086C102.694 132.905 102.261 132.693 101.846 132.45L101.604 132.428L101.334 132.404C100.909 132.128 100.442 131.925 99.9513 131.805L99.5339 131.436L99.241 131.177C99.0962 131.178 98.9533 131.145 98.8235 131.081C98.6937 131.016 98.5804 130.922 98.4925 130.805C98.4084 130.619 97.9916 130.381 97.8792 130.625L97.4935 130.362C97.3259 130.247 97.1339 130.216 97.0791 129.981L97.0709 129.947C96.9866 129.913 96.4208 129.751 95.8113 129.586L95.4835 129.245C95.3081 129.065 95.2126 128.776 95.0209 128.652C94.8291 128.528 94.5476 128.541 94.307 128.48C94.0662 128.429 93.8298 128.358 93.6001 128.269L93.4391 128.201C93.287 128.006 93.1732 127.783 93.1041 127.543L92.8947 127.76C92.868 127.787 92.6272 127.628 92.5 127.533L92.105 127.238C91.7794 127.014 91.4854 126.745 91.2308 126.44C91.2269 126.331 91.2083 126.223 91.1755 126.119C91.1454 126.122 91.1165 126.133 91.0918 126.151C91.067 126.169 91.0473 126.193 91.0347 126.221C91.0025 126.293 90.8552 126.505 90.8005 126.477C90.6753 126.279 90.583 126.061 90.5268 125.832L90.2143 126.1C90.1078 126.065 90.0147 125.998 89.9476 125.907C89.9347 125.639 89.7481 125.746 89.6394 125.679C89.5593 125.63 89.5681 125.439 89.4874 125.35L89.4095 125.26C89.2789 125.206 89.0114 125.115 88.813 125.058C88.3597 124.895 87.9329 124.665 87.5463 124.374L87.2039 124.309C87.0419 124.289 86.8897 124.221 86.7658 124.113C86.642 124.005 86.5518 123.863 86.5066 123.703C86.4951 123.681 86.4793 123.662 86.4602 123.647C86.4411 123.632 86.4191 123.621 86.3957 123.615L85.7765 123.694C85.445 123.173 85.2474 122.797 85.336 122.854C85.4245 122.911 85.6843 122.995 85.5592 122.815L85.5594 122.72C85.557 122.429 85.3406 122.576 85.2477 122.501C85.0841 122.369 84.9741 122.473 84.8656 122.455L84.5639 122.407C84.1172 122.183 83.9358 121.991 84.1603 121.98L84.2278 121.932L84.2857 121.895C84.2819 121.824 84.2604 121.756 84.2233 121.696C84.1862 121.636 84.1346 121.588 84.0736 121.555L84.0079 121.58L83.5119 121.772C83.1189 121.472 82.6631 121.135 82.493 121.025L82.4425 120.935L82.2618 120.61C81.981 120.458 81.6911 120.324 81.3939 120.208C81.2326 120.154 80.9598 119.689 80.8534 119.631C80.7053 119.505 80.5498 119.388 80.3879 119.28C80.3075 119.271 80.0183 119.16 79.9772 119.054C79.8781 118.842 79.738 118.652 79.5651 118.497C79.1669 118.306 78.7561 118.144 78.3355 118.012L78.1462 117.78L77.7396 117.285C77.1729 117.027 76.6583 116.665 76.2211 116.217L75.9553 115.934L75.8043 115.774C75.5378 115.637 75.2964 115.454 75.0902 115.233C74.7083 114.93 74.2905 114.677 73.8467 114.479L73.7742 114.211L73.6979 113.927C73.5269 113.811 73.3416 113.718 73.1467 113.651L73.139 113.629C72.9076 112.985 72.1908 112.774 71.8453 112.243L71.7265 112.059C71.6478 111.823 71.5053 111.627 71.4098 111.622C71.1053 111.499 70.8496 111.278 70.6814 110.991C70.5171 110.657 69.4781 109.343 68.9395 108.592L68.4978 107.895C68.311 107.613 68.1781 107.293 67.9799 106.997L67.7627 106.664C67.6811 106.219 67.5852 105.683 67.55 105.474C67.4988 105.185 67.4651 104.894 67.4493 104.601C67.4662 104.539 67.6634 104.352 67.7045 104.27C67.7456 104.188 67.4521 103.766 67.37 103.656L67.3907 103.632L67.5891 103.394C67.5127 103.244 67.4059 103.113 67.2756 103.009C67.1454 102.905 66.9948 102.831 66.8338 102.791C66.5344 102.733 66.0467 101.869 65.9356 101.756C65.6601 101.566 65.421 101.325 65.23 101.047L64.8752 101.028L64.8238 101.025C64.7626 100.974 64.5618 100.84 64.3757 100.724C64.1263 100.505 63.8999 100.26 63.6997 99.9933C63.6312 99.9031 63.5014 99.6217 63.4441 99.5614C63.3868 99.5011 62.7506 98.9771 62.1931 98.517L61.7262 98.0552C61.6167 97.8977 61.4727 97.7685 61.3057 97.6776C61.0593 97.5686 60.8593 97.3739 60.7409 97.1278L60.6543 96.8654C60.4646 96.7174 60.1677 96.4719 59.9985 96.3196L59.8471 96.1771C59.7023 96.0385 59.4441 95.8629 59.4488 95.7512L59.4611 95.445C59.2499 95.4403 59.0395 95.4198 58.8314 95.3837C58.6808 95.3538 58.4604 94.7073 58.3037 94.4794L58.115 94.3041L57.9415 94.1443C57.74 94.0242 57.5487 93.8872 57.3697 93.7344C57.2681 93.6368 56.8739 93.1899 56.6816 92.9725L56.5079 92.7739L56.2931 92.5281C56.0669 92.2507 55.7897 91.9141 55.6771 91.7816C55.4187 91.5484 55.1424 91.3368 54.8505 91.149C54.6674 91.0323 54.1941 90.5 53.9112 90.2816C53.6282 90.0631 52.8551 88.859 52.3422 88.4066L52.0318 87.8907C51.8561 87.5996 51.4898 87.7747 51.3793 87.4165L51.3115 87.1938C51.1656 86.9899 50.9746 86.8242 50.7538 86.7101L50.649 86.6452C50.4374 86.5129 50.1161 86.4019 50.3626 86.092C50.3751 86.0829 50.1968 85.8507 50.1367 85.8503L49.7842 85.855C49.5896 85.5926 49.4155 85.3149 49.2634 85.0245C49.1804 84.8451 48.6252 84.616 48.5724 84.4888C48.5196 84.3616 48.2622 83.9433 48.1585 83.9327C48.0548 83.922 47.8152 83.8195 47.9404 83.7349C48.0656 83.6502 47.5019 83.3693 47.3545 83.2269L47.2172 83.0923L46.8017 82.6864C46.3767 82.3175 46.0593 81.8362 45.8837 81.2944L45.5086 81.322C45.0809 81.3532 45.2128 80.9608 45.0278 80.8141C44.9136 80.7488 44.8141 80.6598 44.7359 80.5527C44.6576 80.4456 44.6023 80.3229 44.5734 80.1922L44.5654 80.1438C44.444 80.0801 44.3086 80.0488 44.1717 80.0528C44.0342 80.057 43.6726 79.4707 43.486 79.2549L43.3027 79.0633C43.1213 78.8741 42.8378 78.7529 42.8464 78.4427C42.8177 78.3818 42.7673 78.3347 42.7053 78.3109L42.1903 78.4736C42.0053 78.1237 41.8483 77.7589 41.7212 77.3826C41.4081 77.0464 41.0697 76.7359 40.7089 76.4538L40.6623 76.232C40.5845 75.8654 40.3035 76.0407 40.1988 75.8693C40.0828 75.6814 39.9311 75.3435 39.8358 75.341C39.4868 75.3288 39.5252 74.9952 39.3391 74.874C39.1625 74.7324 39.0253 74.546 38.9411 74.333L38.8459 74.1576C38.4731 73.8757 38.1217 73.5653 37.7951 73.229C37.4743 72.8982 36.5598 71.9102 36.477 71.7734C36.3942 71.6365 36.117 71.3788 36.0621 71.2512C35.8904 71.0791 35.697 70.9313 35.4868 70.8115C35.2527 70.5302 35.0821 70.1996 34.9867 69.8427L34.5381 69.9318L34.5188 69.9353C34.2972 69.5557 34.0472 69.1944 33.7708 68.8547C33.4667 68.4748 32.4988 67.3886 32.3965 67.2125C32.2462 67.0278 32.0758 66.8611 31.8886 66.7157C31.7962 66.6247 31.427 66.2101 31.2517 65.9795L31.1917 65.7559C31.1048 65.4387 31.1048 65.1679 30.6373 65.1112L30.4642 65.0907C30.23 64.8031 30.0503 64.4733 29.9342 64.1178L29.9549 63.8958L29.9951 63.4574C29.665 63.2084 29.285 62.925 29.1496 62.8233C29.0142 62.7215 28.6152 62.3902 28.6636 62.3068C28.6882 62.1926 28.6846 62.0741 28.653 61.9622C28.6214 61.8503 28.5628 61.7486 28.4827 61.6661C28.2814 61.4875 28.2932 60.7789 28.377 60.954C28.4703 61.1633 28.5989 61.354 28.7569 61.5176C28.8168 61.5162 29.0657 61.3992 29.0364 61.2627L28.9549 61.178C28.6755 60.8924 28.8681 60.7657 28.9934 60.5803C29.0999 60.4275 29.4248 60.5273 29.3789 60.1719L29.3529 59.9761C29.5556 59.7258 29.7766 59.4913 30.0138 59.2749C30.2094 59.1033 30.8408 59.6003 30.9589 59.6822C31.077 59.7642 31.5232 60.1574 31.7369 60.3242C31.9507 60.4909 32.5265 61.238 32.7324 61.381C32.9382 61.524 33.4335 62.2761 33.6184 62.4199C33.8369 62.6538 34.0779 62.8646 34.3378 63.0491C34.5208 63.107 34.8569 63.8494 35.191 64.1954C35.525 64.5413 36.6854 65.7356 37.0154 66.092C37.4674 66.6224 37.8898 67.1786 38.2805 67.7578L38.4007 67.843L39.2668 68.4622C40.0176 69.3452 40.8304 70.3116 41.0767 70.6182L41.3195 70.8819C41.5725 71.0915 41.7836 71.3489 41.941 71.6405L42.0288 71.8527L42.8606 72.4207C43.0379 72.5425 43.4833 73.1908 43.6689 73.3152C43.8545 73.4396 44.2936 74.1562 44.5076 74.3846C44.9128 74.7606 45.3416 75.1091 45.7915 75.428L45.8028 75.5509C45.8278 75.8283 46.0792 75.7978 46.1777 75.9452C46.2834 76.1083 46.4034 76.261 46.5363 76.4017C46.7047 76.5746 46.9131 76.712 47.0723 76.8906C47.1962 77.03 47.2609 77.3244 47.3707 77.3534C47.8128 77.4808 47.9109 77.9409 48.2487 78.1588C48.4477 78.2962 48.6307 78.4563 48.794 78.6363L48.9385 78.7855C49.0828 78.9792 49.2141 79.1828 49.3317 79.3947L49.4977 79.5C49.6059 79.5466 49.7015 79.6189 49.7767 79.7109C49.852 79.8029 49.9047 79.9119 49.9305 80.0292L49.9396 80.0996C50.2936 80.2643 50.6284 80.4686 50.9377 80.709C51.2508 81.0714 51.5173 81.4734 51.7306 81.9054C51.758 81.9302 52.1441 82.307 52.5289 82.6818C52.9137 83.0567 54.0548 84.2506 54.238 84.4708C54.4211 84.691 55.0085 85.4126 55.1403 85.5826L55.2746 85.7249C55.496 85.9613 55.8303 86.0392 56.0128 86.3634C56.1672 86.6385 56.5765 86.7373 56.6704 87.1027L56.7624 87.4628C57.0942 87.7384 57.4092 88.0345 57.7055 88.3494C57.9078 88.5757 58.8483 89.4091 59.2158 89.7888C59.5834 90.1685 60.6458 91.2558 60.7749 91.3375C60.9633 91.5046 61.1276 91.6981 61.2632 91.9121C61.3347 92.0353 61.9788 92.3502 62.3262 92.6162C62.7628 93.104 63.1675 93.6208 63.5377 94.163L63.6907 94.2986L65.0399 95.4915C66.5265 96.7999 67.9196 98.0893 68.1362 98.3557L68.4912 98.3274C68.5711 98.3211 68.7319 98.4748 68.7945 98.5835C68.8842 98.7372 68.8202 99.0038 69.1092 98.9927L69.4323 98.9809C69.7583 98.9368 70.0575 98.77 70.2712 98.5131L70.5339 98.4869C70.5844 98.4827 70.5843 98.326 70.6275 98.254L70.7344 98.0762C70.8105 98.2046 70.932 98.298 71.074 98.3374L71.1021 98.2981L71.1656 98.2067C71.2966 98.0175 71.4829 97.8753 71.6974 97.801C71.9468 97.6969 72.8153 97.6932 73.0301 97.92L73.2223 97.7149C73.3061 97.6332 73.4068 97.5718 73.5168 97.5354C73.6267 97.4989 73.7431 97.4884 73.8572 97.5045L73.9353 97.5051C74.0665 97.3557 74.1823 97.1928 74.2808 97.0192L74.5882 97.1222L74.672 97.1501C74.7705 97.1246 75.0537 97.0778 75.3023 97.0447C75.6825 97.1047 76.0493 97.2306 76.387 97.4168L76.4728 97.4357L76.5649 97.4566C76.7284 97.4328 76.8897 97.3939 77.0467 97.3406C77.2134 97.2849 77.6441 97.2894 77.7001 97.5671L78.0058 97.2809L78.1323 97.1612C78.2136 97.1438 78.2974 97.1448 78.378 97.1639C78.4585 97.183 78.5338 97.2199 78.5987 97.272C78.8946 97.4763 79.2146 97.6419 79.5513 97.7651C79.9357 97.916 81.1421 98.359 81.382 98.4765C81.8782 98.7661 82.3596 99.0813 82.8242 99.4209C83.1714 99.6784 84.5126 100.44 84.9304 100.732L85.2104 101.118L85.3833 101.356C85.6449 101.541 86.0928 101.898 86.3781 102.15L86.6375 102.379C86.8968 102.608 87.1576 102.837 87.4163 103.066C87.4721 103.103 87.5191 103.152 87.5542 103.21C87.6226 103.445 87.5255 103.724 87.9674 103.811C88.1106 103.84 88.1954 104.216 88.4013 104.419C88.7645 104.777 88.828 105.341 89.2894 105.666C89.307 105.678 89.2748 105.771 89.2653 105.826C89.2572 105.964 89.2291 106.101 89.1821 106.231L89.0427 106.489C89.2555 106.596 89.3358 106.712 89.2212 106.748L89.2052 106.862C89.1808 107.03 89.1845 107.207 89.1762 107.38L89.0046 107.96L88.8852 108.059C88.8242 108.218 88.7032 108.579 88.6156 108.863L88.5281 109.123C88.4707 109.362 88.3945 109.596 88.3001 109.823C88.0952 110.215 87.8641 110.592 87.6085 110.952L87.4645 111.151C87.2841 111.302 87.0798 111.419 86.8606 111.498C86.6303 111.488 86.4018 111.455 86.1782 111.399C85.9219 111.364 85.6604 111.401 85.4219 111.506L85.2497 111.546C85.0503 111.595 84.8047 111.288 84.5933 111.525L84.4879 111.644C84.3974 111.48 84.2726 111.339 84.1223 111.231C83.8815 111.148 83.6352 111.081 83.3853 111.032L83.2138 110.961L83.0411 110.889C82.8426 110.766 82.6252 110.73 82.5576 110.81C82.4901 110.891 82.1773 111.066 82.0635 110.966C81.9497 110.865 81.6037 110.617 81.6095 110.69C81.6152 110.764 81.5756 110.913 81.5186 110.917L81.4716 110.894C81.4105 110.862 81.3573 110.816 81.3157 110.76C80.9624 110.277 80.5387 110.446 80.1458 110.438C79.8558 110.432 79.8185 110.439 79.8676 110.132L79.9254 109.781C79.7519 109.866 79.5844 109.874 79.5536 109.799C79.5229 109.725 79.3108 109.574 79.2982 109.643L79.3029 109.707L79.331 110.061C79.0889 109.988 78.4664 109.8 77.9478 109.64L77.4779 109.487C77.3246 109.455 77.1812 109.386 77.0595 109.287C76.8212 109.063 76.5338 108.9 76.221 108.813L76.0102 108.724C75.9096 108.595 75.7799 108.493 75.632 108.427L75.5696 108.431C75.4906 108.436 75.3789 108.495 75.3427 108.462C74.953 108.183 74.5332 107.95 74.0913 107.769L73.708 107.555C73.2906 107.263 72.6932 106.869 72.3808 106.678L72.1039 106.572C71.8693 106.481 71.7223 106.487 71.645 106.186L71.5933 105.984C71.4827 105.965 71.3778 105.922 71.2857 105.857C71.1937 105.792 71.1168 105.708 71.0604 105.609C71.0343 105.473 70.6569 105.52 70.5611 105.55C70.4652 105.579 70.1972 105.215 70.0333 105.054L69.8262 105.153L69.7785 105.176C69.6771 105.165 69.7345 105.303 69.8991 105.488C70.1208 105.796 70.4004 106.055 70.7217 106.251L70.793 106.519C70.8524 106.763 70.9446 106.996 71.0669 107.213L71.1799 107.404C71.3766 107.594 71.6086 107.743 71.8626 107.842C72.0537 107.9 72.7095 108.892 73.378 109.481C74.0466 110.07 75.913 111.718 75.9957 111.903C76.0785 112.087 76.6921 112.181 76.8289 112.23C76.9658 112.28 77.401 112.908 77.6774 113.146L77.9741 113.305L78.3026 113.485C78.6791 113.762 79.0719 114.015 79.479 114.244L79.623 114.547L79.6902 114.689C79.6764 114.871 79.8093 114.888 79.9855 114.723L80.2042 115.05L80.4154 115.357C80.8344 115.62 81.2311 115.917 81.6013 116.247L82.0259 116.303L82.172 116.322C82.4622 116.711 82.8017 117.059 83.1818 117.356C83.5611 117.652 84.6843 118.171 84.6647 118.234C84.6618 118.288 84.6786 118.342 84.712 118.384C84.7454 118.426 84.7929 118.455 84.8456 118.463C84.9783 118.483 85.3781 118.643 85.6538 118.686L85.6745 118.775C85.7645 119.178 86.0903 119.258 86.3648 119.424L86.3984 119.445C86.5395 119.636 86.7281 119.785 86.9449 119.877C87.241 120.036 88.2305 120.659 88.5158 120.82C88.9677 121.077 89.3681 121.418 89.6965 121.826L90.0215 121.708C90.1536 121.659 90.4269 121.827 90.6116 121.947C90.8106 122.076 90.9746 122.267 91.1633 122.418C91.2349 122.48 91.3252 122.515 91.4194 122.518C91.5675 122.5 91.717 122.524 91.8521 122.587C91.9873 122.649 92.1028 122.748 92.1865 122.874L92.42 123.156C92.9969 123.396 93.5548 123.68 94.0888 124.006C94.6764 124.359 96.7977 125.483 97.4417 125.839L98.0198 126.182C98.3943 126.478 98.8392 126.669 99.3103 126.735C99.4007 126.748 99.4851 126.788 99.5533 126.85C99.5341 127.18 99.827 127.146 99.9824 127.212C100.438 127.357 100.868 127.574 101.258 127.855L101.558 128.101C101.996 128.178 102.419 128.32 102.816 128.523C103.27 128.743 103.74 128.927 104.223 129.073C104.488 129.148 105.285 129.559 105.495 129.65C105.705 129.742 107.095 130.3 108.138 130.731L109.088 131.12C109.195 131.182 109.312 131.224 109.434 131.244L109.778 131.232C110.081 131.368 110.393 131.481 110.713 131.568C110.877 131.6 111.415 131.925 111.579 131.969L111.727 131.971C111.856 131.956 111.987 131.971 112.109 132.014C112.231 132.057 112.342 132.128 112.434 132.222C112.558 132.315 112.703 132.376 112.857 132.401C113.071 132.429 113.28 132.483 113.481 132.562L114.223 133.004C114.965 133.132 115.697 133.31 116.414 133.537C116.94 133.706 117.474 133.847 118.015 133.96C118.308 134.07 118.595 134.194 118.875 134.334C119.26 134.476 119.654 134.591 120.054 134.679L120.359 134.732C120.453 134.75 120.539 134.797 120.604 134.869L120.788 135.111C121.058 135.175 121.912 135.445 122.683 135.712L123.339 136.122C123.365 136.137 123.4 136.128 123.43 136.138L123.897 136.299C124.355 136.491 124.825 136.652 125.304 136.78C125.566 136.834 126.551 137.435 126.99 137.644C127.429 137.852 128.92 138.26 129.267 138.41C129.614 138.561 130.981 139.228 131.544 139.533L132.056 139.652L132.49 139.752C132.815 139.987 133.166 140.182 133.535 140.334C133.741 140.396 134.687 140.906 135.183 141.165L135.633 141.346C136.035 141.508 136.234 141.949 136.719 141.996C137.029 142.027 137.368 142.396 137.699 142.596C138.36 142.99 139.026 143.37 139.691 143.754L139.745 143.784C139.81 143.807 140.343 144.182 140.93 144.62L141.47 145.006C141.815 145.253 142.178 145.475 142.527 145.715C142.877 145.955 143.114 146.397 143.589 146.426C143.636 146.428 143.69 146.538 143.744 146.553C144.095 146.655 143.933 147.237 144.474 147.25L144.699 147.255C145.023 147.621 145.295 148.032 145.505 148.477L145.87 148.584L146.198 148.679C146.412 149.042 146.687 149.362 147.01 149.628L147.127 149.978C147.187 150.157 147.462 150.306 147.653 150.461L147.836 150.608C147.825 150.716 147.838 150.824 147.876 150.924C147.914 151.025 147.974 151.115 148.052 151.186L148.197 151.294C148.313 151.378 148.525 151.362 148.527 151.563C148.527 151.928 148.807 152.116 149.018 152.38C149.31 152.79 149.574 153.22 149.809 153.667L149.874 153.775C149.937 153.886 149.929 154.004 149.856 154.038C149.765 154.075 149.681 154.129 149.608 154.196C149.673 154.25 149.753 154.282 149.837 154.288C149.96 154.323 150.074 154.384 150.171 154.468C150.268 154.551 150.347 154.656 150.401 154.773L150.418 154.981L150.428 155.091C150.382 155.208 150.395 155.316 150.463 155.33C150.531 155.343 150.601 155.53 150.567 155.664C150.534 155.798 150.508 156.214 150.571 156.175C150.633 156.137 150.826 156.101 150.829 156.199C150.881 156.428 150.964 156.649 151.074 156.856L151.176 157.016C151.432 157.42 151.432 157.552 151.212 158.122L151.173 158.222C151.181 158.383 151.326 158.458 151.496 158.388L151.559 158.617L151.583 158.7C151.846 158.908 152.132 159.084 152.435 159.225L152.809 159.373L153.56 159.667C154.382 160.01 155.323 160.415 155.651 160.564C155.98 160.714 157.15 161.268 157.521 161.468C157.891 161.669 159.122 162.334 159.467 162.47C159.812 162.606 160.74 163.277 160.917 163.323L161.019 163.423L161.385 163.78C161.851 164.05 162.598 164.495 163.039 164.771C163.48 165.046 164.819 165.961 165.091 166.073L165.25 166.248L165.431 166.447C165.671 166.607 165.982 166.793 166.121 166.861C166.261 166.93 167.346 167.669 168.285 168.267L168.965 169.048L169.159 169.271C169.469 169.496 169.794 169.698 170.134 169.873L170.361 170.054C170.63 170.27 170.883 170.509 171.143 170.738L171.378 170.943C171.735 171.27 172.066 171.627 172.367 172.009L172.795 172.234L173.129 172.41C173.421 172.825 173.753 173.306 173.865 173.481C174.154 173.754 174.426 174.045 174.68 174.352L175.042 174.298L175.081 174.292C175.249 174.428 175.407 174.577 175.553 174.736C175.784 175.14 175.992 175.557 176.175 175.986L176.281 176.159L176.441 176.424C176.602 176.288 176.786 176.254 176.85 176.352C176.914 176.449 177.139 176.957 177.271 177.263L177.219 177.472L177.104 177.922C177.489 177.947 177.851 178.109 178.129 178.379L178.045 178.74C178.045 178.787 178.055 178.833 178.075 178.875C178.094 178.917 178.123 178.954 178.158 178.984C178.639 179.225 178.45 179.663 178.634 179.99C178.672 180.057 178.628 180.241 178.582 180.249C178.431 180.271 178.352 180.288 178.509 180.448C178.591 180.511 178.667 180.581 178.736 180.658C178.803 180.764 178.805 180.908 178.879 181.002C179.049 181.205 178.956 181.335 178.804 181.326L178.442 181.302C178.56 181.519 178.659 181.747 178.738 181.983C178.786 182.145 179.124 182.61 179.064 182.845L179.009 183.059C178.942 183.325 178.671 183.323 178.459 183.385L178.427 183.394C178.3 183.071 178.282 182.713 178.375 182.377L178.431 182.008L178.421 181.98ZM145.755 162.278C145.814 162.469 145.768 162.563 145.652 162.487C145.343 162.311 145.019 162.163 144.684 162.046L144.497 162.199C144.23 162.419 143.931 162.146 143.653 162.157C143.377 162.139 143.105 162.092 142.839 162.016C142.569 161.983 142.302 161.93 142.04 161.857C141.597 161.664 141.096 161.658 140.645 161.839C140.475 161.922 140.369 162.017 140.185 161.801C140.039 161.629 139.928 161.66 139.801 161.787C139.767 161.821 139.566 161.661 139.481 161.682C139.396 161.703 139.34 161.929 139.318 161.919L138.875 161.712C138.447 161.811 137.96 161.91 137.792 161.934C137.624 161.957 136.638 161.799 135.98 161.709L135.388 161.811L134.94 161.887C134.405 161.778 133.939 161.792 133.902 161.918L133.851 161.918L133.744 161.916C133.471 161.855 133.187 161.867 132.919 161.951C132.592 162.036 131.58 162.366 131.373 162.451C130.983 162.639 130.614 162.87 130.272 163.139C130.072 163.331 130.401 164.25 130.446 164.363C130.551 164.562 130.715 164.72 130.915 164.817C131.094 164.863 131.74 165.266 132.133 165.457C132.526 165.649 133.841 166.251 134.2 166.35C135.048 166.53 135.905 166.666 136.767 166.758L137.38 167.094C137.415 167.114 137.478 167.04 137.532 167.043C137.785 167.057 138.145 167.194 138.274 167.077C138.568 166.818 138.786 167.288 139.03 167.209C139.069 167.195 139.167 167.285 139.196 167.268C139.622 167.023 140.169 167.25 140.63 167.166C141.104 167.08 141.546 166.913 142.038 166.858C142.456 166.811 142.867 166.711 143.262 166.561C143.621 166.424 144.022 166.393 144.381 166.238L144.705 166.099C145.029 166.053 145.346 165.965 145.648 165.837L145.639 165.773C145.583 165.39 145.701 165.34 146.051 165.555C146.1 165.586 146.283 165.422 146.352 165.314L146.409 165.228C146.542 165.025 146.692 164.834 146.86 164.659L147.201 164.602L147.455 164.564C147.657 164.336 147.895 164.143 148.159 163.995C148.307 163.939 148.267 163.396 148.352 163.285C148.438 163.174 147.622 162.902 147.097 162.842L146.624 162.646C146.424 162.563 146.229 162.456 146.026 162.383L145.755 162.278ZM72.7215 100.857C72.4063 100.704 72.2381 100.713 72.3429 100.868C72.4476 101.023 72.6966 101.496 72.8164 101.524C72.9361 101.553 73.2964 101.786 73.4308 101.808C73.5652 101.831 73.8735 102.306 74.1029 102.455C74.3324 102.603 75.1238 102.987 75.3414 103.176C75.559 103.364 76.3385 103.464 76.4359 103.62L76.5662 103.711C76.657 103.773 76.8177 103.698 76.9345 103.743C77 103.769 77.0331 103.975 77.0925 103.992L77.3615 104.068C77.6396 104.109 77.9054 104.211 78.1414 104.365C78.6259 104.586 79.1277 104.767 79.6416 104.905L80.038 105.106L80.4204 105.3C80.6916 105.237 80.9588 105.314 81.0129 105.472L81.0971 105.516L81.2892 105.615C81.5196 105.668 82.0057 105.75 82.3692 105.798C82.7326 105.846 83.8767 106.198 84.1095 106.239L84.3148 106.311L84.5148 106.381C84.6528 106.356 84.7926 106.343 84.9326 106.343L84.9526 106.328C85.0005 106.301 85.0757 106.269 85.0722 106.229L85.0712 106.153C84.9864 106.009 84.8876 105.875 84.7764 105.751C84.5252 105.476 84.241 105.235 83.9304 105.032L83.7354 104.931L83.4957 104.805C83.1809 104.577 82.8905 104.315 82.6292 104.025L82.3296 103.861L82.1025 103.734C82.1015 103.496 82.0316 103.264 81.9019 103.067L81.8203 103.062L81.4072 103.035C81.1399 102.836 80.7409 102.527 80.5193 102.346L80.3021 102.218C80.0562 102.072 79.7113 102.002 79.9469 101.632C79.9546 101.619 79.7678 101.405 79.7051 101.41L79.4273 101.432C79.1438 101.496 78.8952 101.475 78.8691 101.389C78.843 101.304 78.8547 101.115 78.9396 101.148C79.0246 101.182 79.0778 101.165 78.7417 101.006C78.4056 100.848 77.5482 100.734 77.6187 100.61C77.6891 100.485 77.6675 100.194 77.4432 100.192C77.1036 100.203 76.7637 100.195 76.4254 100.167C76.2934 100.127 75.9323 99.9582 75.9026 100.044C75.8728 100.13 75.2652 100.089 74.9367 100.063L74.6735 100.184C74.5261 100.251 74.3238 100.371 74.2044 100.309C74.1249 100.25 74.0268 100.224 73.9289 100.235C73.8309 100.246 73.74 100.294 73.6738 100.369C73.4962 100.509 73.1412 100.454 72.982 100.605L72.7215 100.857Z" fill="#6FB2A5"/>
<path d="M29.9336 64.0418L29.9538 63.8211L29.993 63.3822L29.1476 62.7473C29.0135 62.6473 28.6132 62.3137 28.6614 62.2303C28.6858 62.1162 28.682 61.9978 28.6502 61.886C28.6185 61.7741 28.56 61.6722 28.4799 61.5897C28.372 61.4435 28.3147 61.2646 28.317 61.0809C28.3087 60.914 28.3323 60.7933 28.3722 60.8786C28.4656 61.088 28.5942 61.2789 28.7523 61.4426C28.8121 61.4412 29.0607 61.3246 29.0308 61.1874L28.9498 61.1033C28.6696 60.8179 28.8626 60.6911 28.9875 60.5059C29.0932 60.3526 29.4184 60.4535 29.3715 60.0986L29.3457 59.9034C29.5479 59.6535 29.7681 59.4193 30.0044 59.2029C30.2001 59.0323 30.8317 59.5288 30.9496 59.612C31.0674 59.6951 31.5139 60.0877 31.727 60.2551C31.9402 60.4225 32.5182 61.1697 32.724 61.3129C32.9299 61.4561 33.425 62.208 33.6097 62.3531C33.8285 62.587 34.0696 62.7979 34.3294 62.9828C34.5003 63.1239 34.6388 63.3017 34.735 63.5037C34.8653 63.7263 35.0157 63.936 35.1841 64.13C35.5169 64.4782 36.6788 65.6716 37.009 66.0283C37.4611 66.5592 37.8837 67.1157 38.275 67.6951L38.3953 67.7803L39.2607 68.4008C40.0118 69.2844 40.8255 70.2521 41.0715 70.5583L41.3139 70.8215C41.5673 71.0314 41.7785 71.2894 41.9361 71.5815L42.0236 71.793C42.3038 71.9833 42.6775 72.2401 42.856 72.3613C43.0345 72.4824 43.479 73.1321 43.6641 73.256C43.8492 73.38 44.2892 74.0975 44.5037 74.3267C44.9088 74.7029 45.3375 75.0516 45.7872 75.3707L45.7984 75.4928C45.8038 75.5553 45.8269 75.6148 45.8651 75.6638C45.9032 75.7128 45.9546 75.7492 46.0129 75.7685C46.0762 75.7939 46.1318 75.8356 46.1745 75.8895C46.2802 76.0524 46.4002 76.205 46.5329 76.3456C46.702 76.5182 46.9103 76.6567 47.0696 76.8355C47.1235 76.9045 47.1682 76.9806 47.2026 77.0617C47.2564 77.174 47.3037 77.2796 47.3663 77.3C47.8081 77.4278 47.9069 77.8879 48.2446 78.1061C48.4438 78.2434 48.6267 78.4039 48.7898 78.5842L48.934 78.7329C49.0787 78.9265 49.2105 79.1298 49.3282 79.3418L49.4945 79.448C49.6028 79.4946 49.6987 79.5668 49.774 79.6589C49.8493 79.7509 49.9018 79.8602 49.9276 79.9775L49.9367 80.0479C50.2907 80.2127 50.6255 80.4174 50.9346 80.6584C51.1827 80.9161 51.3905 81.2113 51.551 81.5337C51.6493 81.7108 51.718 81.8446 51.7284 81.8543C51.7562 81.8798 52.142 82.2563 52.5273 82.6321C52.9126 83.0079 54.0541 84.2028 54.2369 84.4226C54.4197 84.6423 55.0087 85.3644 55.1399 85.5349L55.2737 85.6769C55.4951 85.9134 55.8287 85.9911 56.0119 86.316C56.0901 86.4328 56.1903 86.5323 56.3067 86.6089C56.4752 86.7098 56.6034 86.8682 56.6692 87.0564L56.7609 87.4168C57.0929 87.6926 57.4081 87.9889 57.7044 88.3042C57.9078 88.5309 58.8472 89.3651 59.2147 89.7462C59.5822 90.1273 60.6451 91.2145 60.7741 91.2963C60.9623 91.4635 61.1265 91.6569 61.2622 91.8707C61.3332 91.9944 61.9775 92.3106 62.3251 92.5759C62.7619 93.0641 63.1668 93.5811 63.5374 94.1237L63.6899 94.2588L65.0404 95.453C66.5268 96.7622 67.9204 98.0537 68.1366 98.3206L68.4912 98.2928C68.572 98.2868 68.7312 98.4409 68.7944 98.5492C68.8836 98.7035 68.8211 98.97 69.1094 98.9587L69.4321 98.9473C69.7577 98.9033 70.0562 98.7367 70.2691 98.4802L70.5316 98.4543C70.5831 98.4504 70.5824 98.2931 70.6258 98.2219L70.7326 98.0441C70.8088 98.1724 70.9302 98.266 71.072 98.3057L71.1012 98.2666L71.1639 98.1757C71.2945 97.9872 71.4801 97.8456 71.6939 97.7715C71.943 97.6678 72.8117 97.6654 73.0255 97.8922L73.2178 97.687C73.3014 97.6054 73.4019 97.5442 73.5117 97.5079C73.6216 97.4717 73.7378 97.4613 73.8518 97.4776L73.93 97.4772C74.061 97.3282 74.1767 97.1658 74.275 96.9926L74.5816 97.0964L74.6658 97.125C74.7648 97.0991 75.0472 97.0522 75.2954 97.0205C75.6756 97.0811 76.0425 97.2074 76.3805 97.3941L76.4664 97.4129L76.5584 97.4339C76.7217 97.4104 76.8827 97.3719 77.0394 97.3187C77.2059 97.2633 77.6355 97.2688 77.6925 97.546L77.9981 97.2609L78.1242 97.1414C78.2053 97.1243 78.2889 97.1254 78.3693 97.1447C78.4497 97.164 78.5249 97.2011 78.5896 97.2533C78.8854 97.4581 79.2053 97.6241 79.5419 97.7474C79.9261 97.8988 81.1323 98.3438 81.3721 98.4616C81.8681 98.7519 82.3493 99.0676 82.814 99.4074C83.1613 99.6653 84.5015 100.429 84.9203 100.722L85.2011 101.107L85.3746 101.346C85.6355 101.531 86.083 101.889 86.3683 102.141L86.6277 102.37C86.8879 102.599 87.1475 102.829 87.4066 103.058C87.4625 103.095 87.5097 103.144 87.5446 103.202C87.6132 103.437 87.5171 103.715 87.9581 103.803C88.0369 103.819 88.0986 103.94 88.172 104.08C88.2286 104.201 88.3027 104.313 88.3919 104.411C88.5415 104.575 88.6644 104.761 88.7563 104.965C88.872 105.237 89.0522 105.475 89.2807 105.658C89.2972 105.67 89.2664 105.764 89.257 105.818C89.2484 105.956 89.2202 106.093 89.1736 106.224L89.0347 106.481C89.248 106.588 89.3283 106.704 89.2133 106.741L89.1975 106.854C89.1733 107.023 89.1772 107.199 89.1692 107.372L88.9986 107.951L88.8799 108.05C88.8198 108.208 88.6988 108.57 88.6115 108.853L88.5251 109.113C88.468 109.352 88.3919 109.586 88.2976 109.813C88.0935 110.204 87.863 110.582 87.6079 110.941L87.4643 111.14C87.2844 111.29 87.0802 111.407 86.861 111.485C86.6309 111.475 86.4025 111.442 86.1792 111.386C85.9228 111.351 85.6615 111.387 85.4231 111.492L85.2512 111.532C85.0521 111.58 84.8069 111.273 84.596 111.509L84.4912 111.629C84.4009 111.465 84.276 111.324 84.1255 111.216C83.8851 111.132 83.6392 111.065 83.3896 111.015L83.2174 110.944L83.0445 110.872C82.8461 110.749 82.6288 110.712 82.561 110.792C82.4932 110.871 82.1818 111.047 82.068 110.947C81.9542 110.847 81.6082 110.597 81.6147 110.671C81.6212 110.744 81.5812 110.893 81.5246 110.898L81.4778 110.875C81.417 110.842 81.3639 110.796 81.3224 110.74C80.9688 110.257 80.5457 110.425 80.1532 110.416C79.8635 110.411 79.8256 110.418 79.8749 110.111L79.9324 109.759C79.7598 109.844 79.5916 109.852 79.5614 109.777C79.5313 109.702 79.3185 109.551 79.3056 109.62L79.3104 109.684L79.3389 110.037C79.0963 109.964 78.4749 109.775 77.9567 109.615L77.4874 109.462C77.3342 109.43 77.191 109.361 77.0693 109.261C76.8308 109.037 76.5433 108.874 76.2304 108.787L76.0203 108.697C75.9195 108.568 75.7898 108.466 75.6422 108.4L75.5796 108.404C75.5001 108.409 75.39 108.468 75.3531 108.434C74.9634 108.155 74.5436 107.923 74.1019 107.74L73.7189 107.525C73.301 107.234 72.7042 106.839 72.3912 106.648L72.1145 106.542C71.8806 106.45 71.7336 106.457 71.6555 106.156L71.604 105.954C71.4936 105.935 71.3888 105.891 71.2969 105.826C71.2049 105.761 71.1281 105.677 71.0718 105.578C71.0445 105.442 70.6686 105.489 70.5729 105.518C70.4771 105.547 70.209 105.183 70.045 105.022L69.839 105.12L69.7906 105.143C69.6889 105.131 69.747 105.27 69.9117 105.455C70.1337 105.763 70.4132 106.022 70.7344 106.218L70.8061 106.486C70.866 106.73 70.9583 106.963 71.0806 107.181L71.1942 107.37C71.3908 107.561 71.6226 107.71 71.8764 107.809C72.0677 107.868 72.7238 108.859 73.3917 109.449C74.0597 110.039 75.9266 111.689 76.0099 111.874C76.0932 112.059 76.7054 112.152 76.8427 112.203C76.9799 112.253 77.4156 112.881 77.6922 113.118L77.9891 113.278L78.3175 113.458C78.6926 113.737 79.0843 113.991 79.4902 114.22L79.6344 114.524L79.7018 114.665C79.6882 114.848 79.8203 114.865 79.9962 114.701L80.2152 115.027L80.4266 115.335C80.8457 115.598 81.2424 115.896 81.6127 116.227L82.037 116.283L82.1827 116.303C82.4735 116.692 82.8132 117.04 83.1934 117.338C83.5722 117.635 84.6949 118.155 84.676 118.217C84.673 118.272 84.6898 118.325 84.7231 118.368C84.7564 118.41 84.8038 118.438 84.8564 118.447C84.9885 118.467 85.3881 118.627 85.6641 118.671L85.6843 118.76C85.7747 119.164 86.1009 119.243 86.3747 119.41L86.4083 119.43C86.5498 119.622 86.7383 119.771 86.9548 119.864C87.2508 120.023 88.2379 120.644 88.5254 120.808C88.9771 121.066 89.3776 121.408 89.7065 121.816L90.0311 121.699C90.1628 121.651 90.4367 121.818 90.6202 121.939C90.8116 122.086 90.9956 122.244 91.1714 122.411C91.2431 122.472 91.3332 122.508 91.4273 122.511C91.5751 122.494 91.7245 122.517 91.8595 122.58C91.9945 122.643 92.1101 122.742 92.1936 122.868L92.4272 123.151C93.0039 123.39 93.5615 123.675 94.0952 124.003C94.6828 124.356 96.8041 125.482 97.4469 125.838L98.0247 126.181C98.3994 126.478 98.8441 126.669 99.3147 126.736C99.4052 126.75 99.4896 126.79 99.5581 126.851C99.5393 127.181 99.8314 127.148 99.9869 127.213C100.443 127.359 100.873 127.576 101.262 127.858L101.562 128.104C102 128.182 102.423 128.324 102.819 128.528C103.273 128.749 103.744 128.934 104.226 129.08C104.492 129.156 105.288 129.567 105.498 129.659C105.707 129.752 107.098 130.31 108.139 130.743L109.088 131.133C109.195 131.195 109.313 131.237 109.434 131.258L109.779 131.246C110.081 131.383 110.392 131.495 110.712 131.582C110.875 131.614 111.413 131.941 111.577 131.985L111.726 131.988C111.854 131.973 111.985 131.988 112.107 132.031C112.229 132.075 112.34 132.146 112.431 132.24C112.556 132.333 112.702 132.394 112.855 132.419C113.064 132.481 113.298 132.471 113.48 132.58L114.222 133.024C114.962 133.153 115.693 133.332 116.411 133.558C116.936 133.729 117.47 133.871 118.01 133.983C118.303 134.093 118.589 134.218 118.869 134.358C119.254 134.5 119.648 134.616 120.048 134.705L120.351 134.757C120.446 134.775 120.532 134.823 120.597 134.895L120.781 135.138C121.052 135.202 121.904 135.472 122.675 135.74L123.331 136.152C123.356 136.167 123.393 136.158 123.422 136.169L123.889 136.329C124.346 136.522 124.816 136.684 125.295 136.812C125.556 136.867 126.542 137.469 126.981 137.678C127.419 137.887 128.91 138.295 129.256 138.447C129.602 138.598 130.97 139.266 131.531 139.571L132.043 139.69L132.477 139.791C132.803 140.026 133.154 140.221 133.523 140.374C133.729 140.436 134.674 140.947 135.17 141.206L135.62 141.388C136.021 141.55 136.221 141.991 136.705 142.038C137.015 142.07 137.354 142.439 137.685 142.64C138.345 143.034 139.012 143.415 139.677 143.8L139.73 143.83C139.796 143.852 140.328 144.229 140.915 144.667L141.455 145.054C141.801 145.302 142.163 145.524 142.513 145.764C142.863 146.004 143.1 146.445 143.574 146.475C143.621 146.478 143.674 146.587 143.729 146.603C143.795 146.631 143.855 146.674 143.901 146.729C143.948 146.785 143.981 146.851 143.997 146.923C144.021 147.03 144.079 147.125 144.163 147.194C144.247 147.263 144.351 147.3 144.458 147.3L144.683 147.305C145.007 147.672 145.279 148.084 145.49 148.529L145.854 148.636L146.182 148.733C146.397 149.095 146.671 149.416 146.994 149.681L147.112 150.032C147.173 150.211 147.448 150.36 147.638 150.515L147.821 150.662C147.81 150.77 147.823 150.878 147.861 150.978C147.899 151.079 147.96 151.169 148.038 151.24L148.183 151.348C148.298 151.432 148.511 151.417 148.513 151.618C148.512 151.982 148.793 152.17 149.005 152.435C149.296 152.845 149.561 153.276 149.796 153.723L149.861 153.831C149.924 153.943 149.917 154.061 149.844 154.094C149.771 154.126 149.587 154.23 149.597 154.253C149.662 154.307 149.742 154.339 149.826 154.345C149.949 154.379 150.063 154.441 150.16 154.524C150.257 154.608 150.336 154.712 150.39 154.83L150.407 155.038L150.417 155.148C150.371 155.265 150.384 155.373 150.453 155.387C150.522 155.401 150.59 155.587 150.557 155.721C150.524 155.855 150.499 156.271 150.562 156.233C150.625 156.196 150.816 156.159 150.819 156.257C150.872 156.487 150.955 156.707 151.065 156.914L151.167 157.074C151.423 157.478 151.424 157.609 151.205 158.179L151.165 158.279C151.174 158.44 151.319 158.515 151.488 158.446L151.551 158.674L151.575 158.757C151.838 158.966 152.124 159.142 152.427 159.283L152.801 159.431L153.552 159.726C154.372 160.071 155.313 160.475 155.641 160.626C155.969 160.776 157.139 161.332 157.51 161.532C157.881 161.733 159.111 162.4 159.456 162.536C159.8 162.671 160.728 163.343 160.905 163.39L161.007 163.49L161.374 163.847C161.84 164.118 162.587 164.564 163.028 164.84C163.469 165.116 164.805 166.029 165.079 166.145L165.236 166.316L165.418 166.515C165.658 166.675 165.969 166.862 166.108 166.93C166.248 166.999 167.332 167.74 168.272 168.339L168.951 169.121L169.146 169.344C169.455 169.57 169.781 169.771 170.12 169.947L170.348 170.128C170.617 170.344 170.869 170.583 171.129 170.812L171.364 171.018C171.722 171.346 172.053 171.702 172.354 172.085L172.782 172.311L173.116 172.487C173.407 172.902 173.74 173.383 173.852 173.559C173.961 173.687 174.08 173.806 174.208 173.915C174.384 174.065 174.538 174.238 174.668 174.43L175.03 174.377L175.069 174.37C175.237 174.507 175.394 174.655 175.541 174.815C175.693 175.03 175.816 175.266 175.908 175.515C175.981 175.704 176.067 175.888 176.163 176.065L176.269 176.238L176.429 176.502C176.59 176.367 176.773 176.334 176.837 176.431C176.901 176.529 177.127 177.036 177.259 177.342L177.207 177.55L177.093 177.999C177.477 178.025 177.839 178.187 178.117 178.458L178.035 178.819C178.035 178.866 178.044 178.912 178.064 178.954C178.083 178.997 178.112 179.034 178.147 179.063C178.628 179.306 178.44 179.743 178.624 180.07C178.662 180.137 178.619 180.321 178.573 180.328C178.421 180.349 178.343 180.368 178.5 180.527C178.582 180.59 178.659 180.66 178.728 180.738C178.795 180.844 178.797 180.988 178.871 181.082C179.041 181.285 178.948 181.414 178.797 181.406L178.435 181.381C178.553 181.599 178.653 181.827 178.732 182.062C178.78 182.224 179.118 182.69 179.059 182.926L179.005 183.138C178.937 183.404 178.667 183.402 178.456 183.463L178.423 183.472C178.297 183.148 178.278 182.791 178.37 182.455L178.425 182.085L178.43 182.056C178.308 181.954 178.193 181.954 178.166 182.048C178.14 182.142 178.008 182.302 177.952 182.089C177.896 181.875 177.999 181.242 177.897 181.315C177.796 181.388 177.465 181.564 177.533 181.44C177.575 181.345 177.586 181.239 177.565 181.138C177.543 181.036 177.491 180.945 177.415 180.876C177.072 180.594 176.771 180.261 176.522 179.89L176.262 179.691C176.181 179.62 176.113 179.534 176.061 179.438C176.032 179.396 176.006 179.35 175.974 179.311C175.86 179.157 175.646 178.978 175.65 178.851C175.657 178.677 175.565 178.667 175.468 178.652C175.432 178.651 175.396 178.642 175.365 178.623C175.334 178.604 175.308 178.578 175.29 178.546L175.213 178.378C174.92 178.206 174.668 177.969 174.473 177.686L174.289 177.518C174.036 177.287 173.632 177.161 173.473 176.905L173.254 176.551C172.77 176.314 172.311 176.027 171.883 175.695L171.533 175.322C171.225 174.918 170.808 174.615 170.333 174.448C170.107 174.36 169.919 174.193 169.803 173.975C169.773 173.898 169.725 173.829 169.665 173.774C169.604 173.719 169.531 173.679 169.453 173.658C169.22 173.564 168.779 173.573 168.789 173.108C168.752 173.056 168.697 173.021 168.636 173.01C168.478 173.064 168.436 172.964 168.399 172.871C168.373 172.808 168.348 172.745 168.288 172.728C168.106 172.701 167.928 172.647 167.761 172.569L167.629 172.48C167.396 172.181 167.117 171.923 166.803 171.717C166.318 171.406 165.807 171.139 165.277 170.917L165.23 170.737C165.193 170.628 165.126 170.533 165.036 170.463C164.947 170.394 164.839 170.353 164.726 170.346C164.457 170.259 164.201 170.137 163.964 169.983C163.696 169.881 163.448 169.731 163.232 169.541C163.035 169.302 162.7 169.367 162.573 169.078C162.56 169.047 162.568 168.992 162.556 168.986C162.262 168.861 161.896 168.957 161.689 168.566L160.877 167.991L160.553 167.894C160.041 167.705 159.547 167.468 159.079 167.185L158.676 166.912C158.507 166.802 158.373 166.6 158.213 166.834C158.197 166.857 157.992 166.792 157.978 166.752L157.789 166.192C157.388 166.188 156.988 166.14 156.598 166.049C156.266 165.942 155.926 165.867 155.581 165.824C155.397 165.828 154.84 165.211 154.508 165.011C153.82 164.839 153.12 164.722 152.414 164.66L152.041 164.297L151.837 164.098C151.43 163.996 151.105 164.326 151.113 164.832L151.005 165.207C150.903 165.632 150.768 166.047 150.6 166.45C150.288 167.349 149.786 168.167 149.13 168.847L148.673 169.226C148.214 169.686 147.635 170.226 147.387 170.428L147.236 170.717C147.038 170.981 146.777 171.188 146.478 171.318L146.204 171.481C145.868 171.614 145.477 171.761 145.333 171.809C145.082 171.903 144.84 172.019 144.609 172.157C144.491 172.242 143.984 172.133 143.902 172.159L143.832 172.192L143.344 172.434C142.587 172.521 141.826 172.558 141.065 172.545L140.701 172.713C140.431 172.84 140.15 172.565 139.897 172.766C139.762 172.872 139.375 172.685 139.105 172.642C138.979 172.619 138.851 172.616 138.724 172.631C138.586 172.653 138.464 172.747 138.329 172.736C138.294 172.732 138.287 172.683 138.277 172.628C138.261 172.544 138.235 172.443 138.079 172.475C137.922 172.507 137.733 172.155 137.607 172.435L136.445 172.302L135.967 172.216C135.454 172.039 134.628 171.781 134.128 171.642L133.682 171.576C133.432 171.533 133.194 171.435 132.983 171.291C132.621 171.115 132.247 170.965 131.864 170.842C131.547 170.709 131.184 170.632 131.029 170.231C131.009 170.179 130.929 170.139 130.879 170.092L130.554 169.806C130.075 169.516 129.644 169.151 129.275 168.726L128.977 168.42L128.678 168.111C128.406 167.789 128.117 167.482 127.814 167.19C127.597 166.795 127.403 166.387 127.235 165.967C126.907 165.16 126.667 164.319 126.517 163.458L126.724 163.132L126.895 162.866C126.858 162.496 126.873 162.123 126.938 161.757L127.002 161.488C127.071 161.193 127.16 160.903 127.242 160.614C127.266 160.535 127.348 160.46 127.329 160.389C127.253 160.219 127.186 160.046 127.128 159.869C127.105 159.709 127.445 159.771 127.353 159.484C127.308 159.346 127.441 159.174 127.509 159.032C127.656 158.667 127.846 158.322 128.075 158.003L128.359 157.676C128.746 157.379 129.585 156.827 130.225 156.45L130.804 156.107L131.229 155.855C131.824 155.821 132.416 155.751 133.003 155.644L133.394 155.757L133.731 155.855C134.161 155.76 134.602 155.73 135.04 155.766C135.569 155.81 136.101 155.825 136.632 155.814C136.869 155.799 137.499 155.881 137.518 155.728C137.537 155.575 138.153 155.96 138.47 156.04C138.787 156.12 140.566 155.943 141.871 156.113L143.059 156.346C144.527 156.635 145.996 157.005 147.463 157.35L147.726 157.413C148.013 157.532 148.05 157.179 147.807 156.624C147.221 155.542 146.572 154.496 145.863 153.494L145.405 152.912L145.14 152.573C144.801 152.329 144.493 152.042 144.226 151.719C144.104 151.533 143.477 151.096 143.354 150.946L143.278 150.792C143.235 150.706 143.156 150.701 143.076 150.699C142.974 150.694 142.874 150.692 142.857 150.525C142.85 150.501 142.838 150.479 142.822 150.46C142.806 150.442 142.787 150.426 142.765 150.415C142.651 150.368 141.759 149.789 141.659 149.711C141.58 149.649 141.457 149.638 141.391 149.571C141.039 149.217 140.354 149.274 140.256 148.599L140.25 148.561C140.122 148.51 139.659 148.277 139.227 148.035C138.796 147.793 137.584 147.275 137.47 147.555L137.364 147.024L137.3 146.705C137.044 146.604 136.558 146.385 136.216 146.223C135.874 146.061 134.665 145.537 134.326 145.318L134.02 145.268C133.937 145.252 133.861 145.212 133.799 145.155C133.737 145.097 133.691 145.023 133.667 144.941C133.646 144.885 133.636 144.847 133.628 144.853L133.005 145.229C132.413 144.76 131.89 144.342 131.843 144.3C131.748 144.192 131.66 144.078 131.58 143.959C131.517 143.866 130.948 143.969 130.742 143.767C130.198 143.444 129.618 143.189 129.015 143.007L128.618 142.826C128.307 142.747 128.017 142.599 127.767 142.394C127.665 142.284 127.413 142.328 127.241 142.256L127.145 142.216C127.06 142.092 126.799 142.085 126.568 142.192L126.484 141.761C126.475 141.72 126.092 141.719 125.906 141.63L125.756 141.556C125.556 141.378 125.331 141.231 125.089 141.119L124.887 141.191C124.837 141.207 124.784 141.213 124.731 141.207C124.679 141.201 124.628 141.184 124.583 141.156C124.321 140.896 123.899 140.542 123.654 140.591L123.14 140.693C122.753 140.508 122.357 140.344 121.953 140.201L121.857 140.128C121.654 139.968 121.475 139.718 121.235 139.967C121.216 139.981 121.064 139.894 120.996 139.83C120.726 139.573 120.483 139.449 120.178 139.66C120.069 139.733 120.041 139.631 120.028 139.549C120.02 139.504 120.015 139.463 120.008 139.468L119.687 139.448C119.335 139.344 118.623 139.116 118.098 138.945L117.675 138.701L117.295 138.482C116.871 138.373 116.185 138.173 115.773 138.034L115.386 137.969C115.32 137.942 115.267 137.89 115.237 137.823C115.154 137.703 115.071 137.582 114.908 137.795C114.862 137.854 114.522 137.671 114.319 137.599L114.081 137.516C113.74 137.344 113.385 137.203 113.02 137.094C112.673 136.997 111.381 136.55 110.868 136.433C110.152 136.138 109.453 135.801 108.775 135.426C108.424 135.337 108.078 135.23 107.739 135.102C107.559 135.001 106.87 134.836 106.703 134.746C106.482 134.55 106.285 134.327 106.115 134.084C106.051 134.005 105.938 133.954 106.1 134.249L105.838 134.425C105.673 134.534 105.573 134.504 105.465 134.342C105.394 134.239 105.338 134.014 105.316 134.015L104.463 134.055C104.128 133.657 103.77 133.281 103.39 132.929C103.439 133.016 103.38 133.157 103.162 133.078C102.717 132.896 102.285 132.682 101.869 132.439L101.628 132.417L101.358 132.393C100.934 132.116 100.467 131.913 99.9761 131.793L99.5593 131.423L99.2657 131.164C99.1211 131.165 98.9782 131.132 98.8485 131.067C98.7188 131.003 98.6055 130.908 98.5175 130.791C98.4339 130.605 98.0171 130.367 97.9051 130.61L97.5195 130.346C97.3488 130.234 97.1597 130.199 97.1051 129.965L97.097 129.93C97.0127 129.896 96.4467 129.734 95.8376 129.568L95.5098 129.227C95.4367 129.145 95.3721 129.055 95.3171 128.96C95.251 128.832 95.1585 128.721 95.0462 128.634C94.8472 128.504 94.5726 128.522 94.3328 128.461C94.0922 128.409 93.856 128.338 93.6263 128.249L93.4654 128.181C93.3131 127.986 93.1992 127.762 93.1299 127.523L92.921 127.739C92.8944 127.767 92.6536 127.607 92.527 127.511L92.1314 127.217C91.806 126.992 91.5119 126.723 91.257 126.417C91.253 126.309 91.2345 126.201 91.2019 126.098C91.1717 126.1 91.1426 126.111 91.1178 126.129C91.0929 126.147 91.0732 126.171 91.0608 126.2C91.0291 126.272 90.8818 126.483 90.8275 126.455C90.702 126.257 90.6091 126.039 90.5527 125.81L90.2408 126.078C90.1349 126.042 90.0423 125.975 89.9754 125.884C89.962 125.617 89.7723 125.725 89.6662 125.656C89.6216 125.611 89.593 125.552 89.5848 125.488C89.5727 125.43 89.5487 125.375 89.5145 125.326L89.4371 125.236C89.3066 125.182 89.0387 125.091 88.8415 125.033C88.3882 124.87 87.9612 124.64 87.5745 124.349L87.2324 124.283C87.0705 124.263 86.9182 124.195 86.7943 124.087C86.6705 123.979 86.5804 123.836 86.535 123.676C86.5233 123.655 86.5073 123.636 86.4882 123.621C86.4691 123.606 86.4473 123.595 86.4239 123.589L85.805 123.667C85.4725 123.147 85.2753 122.77 85.3639 122.827C85.4524 122.884 85.7116 122.968 85.5868 122.789L85.5869 122.694C85.5835 122.403 85.3671 122.549 85.2758 122.473C85.1123 122.341 85.0015 122.445 84.8941 122.428L84.5922 122.378C84.1457 122.154 83.9642 121.962 84.1884 121.951L84.2558 121.903L84.3115 121.862C84.3075 121.792 84.286 121.724 84.2489 121.664C84.2118 121.605 84.1604 121.556 84.0996 121.523L84.0344 121.549L83.5401 121.74C83.1467 121.44 82.6914 121.102 82.5214 120.992L82.4714 120.902L82.2904 120.577C82.0096 120.425 81.7198 120.29 81.4229 120.174C81.2622 120.12 80.9879 119.655 80.8827 119.597C80.7342 119.471 80.5786 119.353 80.4167 119.245C80.3364 119.236 80.0474 119.125 80.0061 119.019C79.9071 118.806 79.7668 118.616 79.5938 118.461C79.1956 118.269 78.7845 118.107 78.3637 117.974L78.1743 117.742L77.7682 117.246C77.2015 116.989 76.6869 116.626 76.2497 116.177L75.9839 115.894L75.8329 115.734C75.5662 115.596 75.3246 115.412 75.1184 115.191C74.7363 114.888 74.319 114.635 73.8757 114.436L73.8028 114.169L73.7257 113.884C73.5549 113.768 73.3699 113.675 73.1752 113.608L73.1675 113.585C73.014 113.248 72.7676 112.963 72.4582 112.767C72.2335 112.611 72.0355 112.418 71.8721 112.197L71.7527 112.012C71.6742 111.777 71.5312 111.58 71.4363 111.575C71.132 111.452 70.8762 111.23 70.7079 110.943C70.5433 110.608 69.5031 109.295 68.9648 108.543L68.5063 107.854C68.3198 107.573 68.1862 107.252 67.9878 106.955L67.7704 106.623C67.6884 106.177 67.5912 105.642 67.5564 105.432C67.5052 105.144 67.4713 104.853 67.4552 104.561C67.4715 104.498 67.6688 104.312 67.7097 104.23C67.7506 104.148 67.4569 103.726 67.3726 103.613L67.3932 103.589L67.5912 103.351C67.5147 103.201 67.4077 103.07 67.2775 102.966C67.1473 102.862 66.9967 102.788 66.8358 102.748C66.6193 102.705 66.2982 102.238 66.1017 101.939C66.052 101.86 65.9977 101.784 65.9391 101.711C65.6635 101.52 65.4243 101.279 65.2333 101.001L64.8792 100.982L64.8284 100.978C64.7673 100.927 64.5666 100.793 64.3806 100.677C64.1311 100.458 63.9044 100.213 63.7042 99.9458C63.6587 99.8779 63.6173 99.8072 63.5802 99.7341C63.5428 99.6569 63.4989 99.5834 63.4487 99.5143C63.3917 99.4557 62.7559 98.9289 62.1973 98.4681L61.7302 98.0059C61.6209 97.8481 61.4773 97.7185 61.3104 97.6273C61.0638 97.5186 60.8635 97.3236 60.7453 97.0771L60.6585 96.8148C60.4688 96.6665 60.1719 96.4208 60.0022 96.2676L59.851 96.1249C59.7061 95.9861 59.4484 95.8109 59.4519 95.6991L59.4638 95.3931C59.2528 95.3877 59.0425 95.3667 58.8347 95.33C58.7423 95.3111 58.6266 95.0639 58.5133 94.8216C58.4543 94.6839 58.3856 94.5508 58.3078 94.4234L58.1195 94.2485L57.9461 94.0885C57.7446 93.9685 57.5533 93.8316 57.3742 93.6791C57.2729 93.582 56.8782 93.1341 56.6858 92.9166L56.5119 92.718L56.297 92.472C56.0702 92.1937 55.7928 91.8579 55.6804 91.7242C55.4217 91.491 55.1454 91.2792 54.8538 91.0908C54.6712 90.9746 54.1971 90.4413 53.9146 90.2232C53.6321 90.0051 52.858 88.7998 52.3446 88.3463L52.0337 87.8303C51.9975 87.777 51.9513 87.7318 51.8977 87.6972C51.8441 87.6626 51.7842 87.6393 51.7215 87.6288C51.6449 87.6216 51.572 87.592 51.5117 87.5435C51.4514 87.495 51.4062 87.4296 51.3814 87.3553L51.3132 87.1327C51.1676 86.9284 50.9767 86.7623 50.756 86.6481L50.6514 86.5829C50.4393 86.4508 50.1183 86.3384 50.3646 86.0295C50.3771 86.0205 50.1987 85.7881 50.1393 85.7873L49.7869 85.7925C49.5923 85.5295 49.418 85.2515 49.2657 84.9607C49.1684 84.8376 49.0454 84.7384 48.9055 84.6703C48.7808 84.6103 48.6683 84.5266 48.5743 84.4236C48.5213 84.2975 48.2642 83.8786 48.1602 83.8671C48.0561 83.8557 47.8176 83.7532 47.9424 83.6698C48.0672 83.5864 47.5035 83.3032 47.3565 83.1612L47.2187 83.0259L46.8036 82.6202C46.3784 82.2507 46.0606 81.769 45.8843 81.227L45.51 81.2547C45.4675 81.2635 45.4237 81.2629 45.3815 81.253C45.3392 81.2432 45.2996 81.2242 45.2652 81.1973C45.2308 81.1705 45.2025 81.1364 45.1821 81.0974C45.1618 81.0584 45.1498 81.0153 45.1471 80.9711C45.1318 80.8855 45.0907 80.8071 45.0295 80.747C44.9153 80.6816 44.8159 80.5925 44.7376 80.4854C44.6593 80.3782 44.6038 80.2554 44.5748 80.1248L44.5728 80.0825C44.4512 80.0188 44.3157 79.9875 44.1787 79.9914C44.042 79.995 43.68 79.4085 43.4933 79.1926L43.3093 79.0012C43.1285 78.8114 42.8445 78.6904 42.8527 78.3803C42.8243 78.3192 42.7737 78.2719 42.7116 78.2483L42.1973 78.4103C42.0119 78.0604 41.8547 77.6955 41.7273 77.3192C41.4143 76.9829 41.0759 76.6723 40.7153 76.3901L40.668 76.1676C40.6615 76.0982 40.6311 76.0336 40.5822 75.9851C40.5334 75.9367 40.4692 75.9076 40.4011 75.9031C40.3634 75.9021 40.3264 75.8927 40.2925 75.8758C40.2587 75.859 40.2288 75.8349 40.2049 75.8051C40.0888 75.6171 39.9368 75.2791 39.8421 75.2772C39.7641 75.2746 39.6889 75.2477 39.6267 75.1999C39.5645 75.1522 39.5182 75.086 39.4942 75.0102C39.463 74.9309 39.4116 74.8617 39.3453 74.8098C39.1685 74.6681 39.0312 74.4815 38.947 74.2684L38.8513 74.0923C38.4787 73.8101 38.1275 73.4997 37.8008 73.1634C37.4799 72.8323 36.565 71.8436 36.4828 71.7062C36.4238 71.6214 36.3586 71.5414 36.2875 71.4669C36.2038 71.3819 36.13 71.2871 36.068 71.1843C35.8963 71.0121 35.7029 70.8641 35.4927 70.7441C35.2584 70.4627 35.0875 70.1319 34.9919 69.775L34.5439 69.8635L34.5246 69.867C34.3027 69.4873 34.0523 69.1259 33.7754 68.7862C33.4705 68.4065 32.5034 67.3186 32.4004 67.143C32.2503 66.9579 32.0801 66.7909 31.893 66.6452C31.8001 66.5535 31.4306 66.1397 31.2558 65.9085L31.1952 65.6843C31.1073 65.3675 31.1076 65.0964 30.6405 65.0391L30.4665 65.0182C30.4212 64.9645 30.375 64.9027 30.3275 64.8335C30.1578 64.5917 30.0249 64.3248 29.9336 64.0418V64.0418ZM77.4492 100.155C77.1099 100.166 76.7704 100.157 76.4324 100.129C76.3009 100.09 75.9395 99.9199 75.9103 100.007C75.8812 100.093 75.2744 100.05 74.9456 100.024L74.6826 100.144C74.5355 100.212 74.3341 100.33 74.2146 100.269C74.1351 100.211 74.0371 100.184 73.9393 100.195C73.8414 100.206 73.7508 100.253 73.6848 100.328C73.5086 100.469 73.1526 100.413 72.9938 100.564L72.7254 100.817C72.4097 100.665 72.2426 100.673 72.347 100.828C72.4514 100.983 72.7017 101.457 72.8204 101.484C72.9392 101.512 73.3003 101.746 73.4346 101.769C73.5689 101.792 73.8772 102.266 74.1071 102.416C74.3369 102.565 75.1274 102.949 75.345 103.138C75.5627 103.327 76.3415 103.427 76.4396 103.584L76.5694 103.674C76.6609 103.736 76.8206 103.661 76.9375 103.706C76.9697 103.719 76.9953 103.777 77.0205 103.837C77.0457 103.896 77.0676 103.95 77.0967 103.958L77.3666 104.035C77.6445 104.077 77.9101 104.178 78.1461 104.333C78.6305 104.555 79.1319 104.736 79.6455 104.874L80.0419 105.076L80.424 105.271C80.6949 105.208 80.9619 105.285 81.0157 105.442L81.1006 105.486L81.2921 105.585C81.5228 105.638 82.0085 105.721 82.3712 105.769C82.7339 105.817 83.8784 106.171 84.1111 106.212L84.3167 106.284L84.5164 106.355C84.6547 106.33 84.7948 106.317 84.9351 106.317L84.955 106.303C85.0033 106.276 85.0784 106.243 85.0742 106.204L85.0726 106.129C84.9878 105.985 84.8889 105.85 84.7776 105.726C84.5262 105.451 84.2419 105.209 83.9315 105.007L83.7366 104.905L83.4964 104.78C83.1814 104.551 82.8907 104.289 82.6292 103.999L82.3327 103.833L82.1057 103.705C82.1043 103.467 82.0342 103.235 81.9045 103.038L81.8223 103.033L81.4096 103.006C81.1429 102.807 80.7429 102.497 80.5223 102.315L80.3058 102.187C80.0599 102.041 79.7153 101.97 79.9501 101.601C79.9585 101.588 79.771 101.373 79.7085 101.377L79.431 101.399C79.1479 101.462 78.8993 101.44 78.8735 101.355C78.8478 101.27 78.8586 101.081 78.9435 101.115C79.0284 101.149 79.0816 101.131 78.7456 100.973C78.4096 100.814 77.5529 100.699 77.6237 100.574C77.6493 100.522 77.6615 100.464 77.6592 100.405C77.6568 100.347 77.64 100.29 77.6103 100.241C77.5921 100.214 77.5677 100.192 77.5391 100.177C77.5106 100.163 77.4789 100.155 77.4469 100.156L77.4492 100.155ZM147.121 162.875L146.648 162.679C146.448 162.595 146.254 162.488 146.05 162.414L145.766 162.314C145.826 162.505 145.78 162.599 145.664 162.523C145.355 162.347 145.031 162.199 144.696 162.081L144.51 162.234C144.244 162.453 143.944 162.18 143.667 162.19C143.391 162.172 143.119 162.125 142.853 162.049C142.583 162.015 142.316 161.962 142.054 161.888C141.612 161.695 141.111 161.688 140.661 161.868C140.49 161.95 140.385 162.046 140.201 161.83C140.055 161.658 139.944 161.689 139.818 161.815C139.784 161.849 139.583 161.689 139.498 161.71C139.414 161.731 139.358 161.956 139.335 161.946L138.892 161.739C138.465 161.838 137.978 161.937 137.811 161.96C137.644 161.982 136.659 161.823 136.002 161.732L135.41 161.833L134.963 161.909C134.429 161.8 133.963 161.813 133.926 161.939L133.875 161.937L133.768 161.936C133.495 161.874 133.211 161.886 132.944 161.971C132.618 162.054 131.608 162.384 131.4 162.468C131.011 162.656 130.642 162.885 130.301 163.154C130.102 163.346 130.431 164.266 130.477 164.378C130.582 164.576 130.746 164.735 130.946 164.831C131.125 164.878 131.771 165.282 132.164 165.474C132.557 165.665 133.871 166.269 134.23 166.368C135.077 166.549 135.933 166.687 136.794 166.78L137.408 167.117C137.443 167.136 137.505 167.063 137.559 167.065C137.813 167.079 138.173 167.217 138.3 167.101C138.594 166.841 138.813 167.311 139.056 167.233C139.095 167.22 139.192 167.309 139.221 167.293C139.648 167.048 140.194 167.276 140.654 167.193C141.128 167.107 141.569 166.94 142.06 166.886C142.478 166.84 142.889 166.741 143.283 166.591C143.641 166.455 144.041 166.424 144.4 166.27L144.723 166.132C145.048 166.085 145.365 165.997 145.668 165.869L145.659 165.805C145.602 165.422 145.721 165.372 146.07 165.588C146.119 165.619 146.302 165.455 146.372 165.347L146.428 165.262C146.56 165.059 146.711 164.869 146.878 164.694L147.219 164.638L147.473 164.6C147.675 164.373 147.912 164.181 148.175 164.033C148.324 163.977 148.282 163.434 148.368 163.323C148.377 163.311 148.376 163.297 148.365 163.282C147.984 163.056 147.559 162.918 147.119 162.876L147.121 162.875Z" fill="#FE6711"/>
</svg>
