<svg width="103" height="104" viewBox="0 0 103 104" fill="none" xmlns="http://www.w3.org/2000/svg">
<g clip-path="url(#clip0_324:186)">
<path fill-rule="evenodd" clip-rule="evenodd" d="M14.564 50.4204C38.7785 32.2827 69.5342 34.5752 87.686 59.4789C88.2902 60.308 89.4494 60.5001 90.2708 59.9176C91.0986 59.3208 91.2792 58.1672 90.675 57.338C71.2248 30.6313 38.2689 28.0263 12.3182 47.4577C11.5075 48.0624 11.3482 49.2261 11.9676 50.0451C12.5933 50.8499 13.7533 51.025 14.564 50.4204Z" fill="black"/>
<path d="M62.409 60.3955C59.694 59.1404 56.4961 60.3035 55.2662 62.9933C54.0363 65.6832 55.2402 68.8811 57.9551 70.1361C60.67 71.3911 63.8679 70.228 65.0978 67.5381C66.3277 64.8483 65.1239 61.6505 62.409 60.3955Z" fill="black"/>
<path d="M39.6892 56.1689C37.0274 54.9384 33.8919 56.0788 32.686 58.716C31.4802 61.3533 32.6605 64.4887 35.3224 65.7192C37.9843 66.9497 41.1196 65.8093 42.3255 63.172C43.5314 60.5348 42.3511 57.3994 39.6892 56.1689Z" fill="black"/>
</g>
<defs>
<clipPath id="clip0_324:186">
<rect width="77.1551" height="76.2963" fill="white" transform="matrix(-0.907606 -0.419554 0.415792 -0.909337 70.8735 102.92)"/>
</clipPath>
</defs>
</svg>
