<svg width="1983" height="949" viewBox="0 0 1983 949" fill="none" xmlns="http://www.w3.org/2000/svg">
<path opacity="0.21" d="M372.802 721.976C372.802 824.923 289.348 908.378 186.401 908.378C83.4547 908.378 0 824.923 0 721.976C0 619.03 83.4547 535.575 186.401 535.575C289.348 535.575 372.802 619.03 372.802 721.976Z" fill="white"/>
<path d="M273.014 331.452C276.263 331.924 278.861 333.591 281.598 334.959C285.287 336.742 289.118 338.212 293.053 339.353C294.196 339.647 295.265 340.178 296.189 340.912C297.113 341.646 297.873 342.566 298.418 343.613C298.718 344.189 298.908 344.813 298.124 345.246C297.465 345.613 296.95 345.273 296.38 344.959C289.283 341.037 281.364 338.307 273.652 335.277C272.881 334.973 272.127 334.625 271.395 334.237C271.205 334.154 271.035 334.032 270.895 333.878C270.756 333.725 270.65 333.544 270.585 333.348C270.52 333.151 270.497 332.942 270.518 332.736C270.539 332.53 270.603 332.331 270.706 332.151C271.057 331.266 272.07 331.479 273.014 331.452Z" fill="#FFA85A"/>
<path d="M305.448 390.617C305.239 390.972 304.987 391.299 304.697 391.592C299.747 395.821 296.263 400.807 292.778 405.798C292.142 406.707 291.593 408.227 289.744 407.433C288.188 406.766 289.254 405.595 289.708 404.676C292.333 399.402 296.724 394.983 300.885 390.459C301.268 389.956 301.794 389.581 302.393 389.38C302.993 389.179 303.639 389.163 304.247 389.334C304.561 389.385 304.85 389.538 305.067 389.77C305.284 390.003 305.418 390.301 305.448 390.617Z" fill="#FFA85A"/>
<path d="M370.936 400.959C371.212 401.888 371.006 402.453 370.093 402.625C369.698 402.757 369.267 402.735 368.887 402.564C368.507 402.393 368.205 402.085 368.041 401.702C366.419 396.658 361.59 393.231 357.989 389.181C357.101 388.182 356.06 387.081 357.848 386.063C359.691 385.013 360.518 386.213 361.438 387.222C363.659 389.664 365.897 392.097 368.203 394.49C369.085 395.317 369.784 396.321 370.255 397.435C370.725 398.549 370.957 399.75 370.936 400.959Z" fill="#FFA85A"/>
<path d="M385.646 314.634C385.554 315.834 384.406 316.884 383.456 317.847C379.374 321.98 374.713 325.76 372.013 330.678C371.449 331.705 370.081 333.246 368.438 332.403C366.964 331.647 367.913 330.281 368.802 329.103C372.764 323.852 378.398 319.594 382.63 314.506C382.878 314.221 383.189 313.997 383.538 313.853C383.888 313.709 384.266 313.648 384.643 313.675C384.903 313.67 385.154 313.768 385.342 313.947C385.53 314.127 385.64 314.374 385.646 314.634Z" fill="#FFA85A"/>
<path d="M292.839 364.048C292.74 365.03 291.819 365.376 290.929 365.698C285.968 367.51 281.028 369.363 276.007 371.063C274.63 371.517 273.299 372.099 272.031 372.802C271.547 373.127 270.957 373.254 270.382 373.159C269.807 373.063 269.29 372.75 268.938 372.286C268.199 371.376 268.488 370.454 269.774 370.204C276.911 368.809 282.765 365.284 289.356 362.99C291.123 362.38 292.284 362.519 292.839 364.048Z" fill="#FFA85A"/>
<path d="M310.211 308.621C311.713 308.865 313.101 309.572 314.183 310.642C316.778 313.336 318.363 316.44 319.843 319.555C320.379 320.68 320.996 321.759 321.61 322.851C321.994 323.533 322.569 324.34 321.286 324.846C320.85 325.039 320.363 325.087 319.897 324.983C319.432 324.879 319.011 324.628 318.698 324.268C317.917 323.477 317.226 322.602 316.636 321.659C314.626 318.058 313.143 314.255 309.84 311.167C309.212 310.58 308.825 309.793 309.361 309.012C309.52 308.781 310.027 308.7 310.211 308.621Z" fill="#FFA85A"/>
<path d="M353.544 308.265C353.452 312.854 351.71 317.244 350.902 321.746C350.725 322.721 349.786 323.283 348.542 323.14C347.192 322.985 347.444 322.064 347.424 321.298C347.322 318.959 347.687 316.623 348.498 314.427C349.647 311.79 350.217 308.938 350.169 306.062C350.119 305.132 350.056 303.715 351.956 303.796C353.742 303.871 353.574 305.201 353.655 306.204C353.667 306.893 353.63 307.581 353.544 308.265Z" fill="#FFA85A"/>
<path d="M336.02 401.198C336.265 403.924 336.492 406.651 336.762 409.374C336.858 410.34 337.726 411.677 335.69 411.801C333.844 411.913 333.163 410.653 333.001 409.366C332.646 406.559 332.277 403.749 332.074 400.934C332.005 399.3 331.794 397.676 331.445 396.08C331.158 394.924 331.464 393.735 333.334 393.558C335.12 393.391 335.473 394.453 335.599 395.554C335.812 397.429 335.999 399.309 336.199 401.186L336.02 401.198Z" fill="#FFA85A"/>
<path d="M393.22 377.361C393.136 378.38 392.254 378.847 391.019 378.589C389.46 378.273 387.931 377.821 386.45 377.239C383.057 375.875 379.737 374.401 376.384 372.976C375.166 372.459 373.861 371.808 374.907 370.626C375.377 370.123 375.997 369.787 376.674 369.668C377.352 369.548 378.049 369.653 378.662 369.965C383.228 371.915 387.181 374.709 392.181 376.062C392.478 376.124 392.745 376.288 392.934 376.525C393.124 376.762 393.225 377.058 393.22 377.361Z" fill="#FFA85A"/>
<path d="M380.562 356.607C379.333 356.715 378.845 356.542 378.527 356.157C378.1 355.643 378.349 355.142 378.77 354.727C379.653 353.855 380.77 353.256 381.985 353.002C387.376 351.883 392.798 350.859 398.194 349.759C399.178 349.558 399.929 349.582 400.39 350.364C400.895 351.216 400.195 351.738 399.389 352.014C393.122 354.122 386.126 354.352 380.562 356.607Z" fill="#FFA85A"/>
<path d="M333 409.366C332.646 406.559 332.277 403.748 332.073 400.932C332.004 399.299 331.794 397.676 331.444 396.079C331.158 394.924 331.463 393.734 333.333 393.557C335.119 393.39 335.472 394.452 335.598 395.554C335.811 397.429 335.997 399.304 336.198 401.185L336.02 401.198C336.265 403.924 336.492 406.649 336.761 409.374C336.858 410.34 337.726 411.676 335.69 411.8C335.615 411.804 335.54 411.806 335.465 411.806C333.788 411.807 333.157 410.6 333 409.366ZM289.743 407.43C288.188 406.761 289.252 405.59 289.707 404.672C292.333 399.398 296.724 394.979 300.888 390.456C301.272 389.953 301.797 389.577 302.397 389.376C302.996 389.176 303.642 389.16 304.251 389.33C304.565 389.382 304.852 389.536 305.069 389.769C305.285 390.002 305.419 390.3 305.448 390.617C305.239 390.971 304.987 391.299 304.697 391.592C299.747 395.821 296.263 400.806 292.778 405.797C292.266 406.528 291.811 407.655 290.691 407.655C290.363 407.645 290.041 407.569 289.744 407.43L289.743 407.43ZM368.04 401.702C366.418 396.657 361.589 393.23 357.989 389.181C357.1 388.182 356.059 387.08 357.847 386.061C359.69 385.011 360.517 386.211 361.437 387.22C363.657 389.663 365.896 392.096 368.201 394.488C369.084 395.315 369.784 396.318 370.255 397.433C370.726 398.547 370.958 399.748 370.936 400.958C371.212 401.886 371.007 402.452 370.093 402.623C369.928 402.656 369.76 402.672 369.591 402.672C369.262 402.702 368.933 402.624 368.653 402.448C368.372 402.273 368.158 402.011 368.041 401.702H368.04ZM391.018 378.589C389.459 378.272 387.93 377.821 386.449 377.239C383.056 375.876 379.736 374.402 376.383 372.977C375.166 372.46 373.861 371.809 374.906 370.626C375.375 370.124 375.996 369.788 376.673 369.669C377.35 369.549 378.048 369.654 378.661 369.966C383.226 371.916 387.179 374.71 392.18 376.064C392.477 376.126 392.744 376.289 392.934 376.527C393.123 376.764 393.224 377.06 393.218 377.364C393.206 377.554 393.155 377.739 393.069 377.909C392.983 378.078 392.863 378.229 392.716 378.35C392.57 378.472 392.4 378.562 392.217 378.615C392.035 378.669 391.843 378.685 391.654 378.662C391.44 378.659 391.228 378.635 391.019 378.589H391.018ZM268.94 372.289C268.202 371.379 268.494 370.458 269.776 370.207C276.914 368.812 282.767 365.286 289.359 362.992C291.123 362.379 292.285 362.518 292.839 364.047C292.741 365.028 291.818 365.375 290.93 365.697C285.969 367.51 281.029 369.364 276.007 371.063C274.631 371.517 273.3 372.099 272.032 372.802C271.628 373.041 271.17 373.171 270.7 373.181C270.358 373.176 270.022 373.094 269.717 372.939C269.411 372.784 269.146 372.561 268.94 372.288V372.289ZM378.526 356.158C378.099 355.644 378.348 355.143 378.769 354.728C379.652 353.855 380.768 353.256 381.984 353.003C387.375 351.883 392.797 350.86 398.194 349.762C399.176 349.559 399.928 349.584 400.389 350.362C400.894 351.214 400.195 351.737 399.388 352.012C393.121 354.125 386.125 354.356 380.56 356.611C380.319 356.632 380.105 356.643 379.917 356.643C379.663 356.679 379.404 356.653 379.162 356.569C378.921 356.484 378.703 356.343 378.527 356.157L378.526 356.158ZM296.381 344.963C289.284 341.041 281.365 338.311 273.653 335.281C272.881 334.977 272.128 334.63 271.396 334.24C271.206 334.157 271.036 334.035 270.896 333.882C270.757 333.729 270.651 333.548 270.586 333.351C270.521 333.154 270.498 332.946 270.519 332.74C270.54 332.533 270.605 332.334 270.708 332.154C270.997 331.421 271.736 331.437 272.515 331.452C272.681 331.456 272.85 331.459 273.017 331.452C276.265 331.925 278.863 333.592 281.6 334.96C285.289 336.743 289.12 338.213 293.054 339.355C294.198 339.648 295.266 340.179 296.191 340.913C297.115 341.647 297.875 342.567 298.42 343.614C298.72 344.191 298.91 344.815 298.125 345.247C297.95 345.35 297.752 345.404 297.55 345.406C297.129 345.358 296.728 345.205 296.381 344.962V344.963ZM368.438 332.404C366.964 331.648 367.913 330.283 368.802 329.107C372.764 323.857 378.397 319.597 382.63 314.51C382.878 314.225 383.189 314.002 383.538 313.858C383.887 313.714 384.265 313.653 384.642 313.681C384.901 313.675 385.152 313.771 385.341 313.95C385.529 314.128 385.639 314.374 385.647 314.633C385.556 315.833 384.407 316.883 383.456 317.847C379.375 321.979 374.713 325.76 372.013 330.679C371.563 331.498 370.599 332.647 369.393 332.647C369.059 332.644 368.732 332.561 368.438 332.404ZM318.698 324.268C317.918 323.476 317.226 322.601 316.636 321.659C314.625 318.058 313.143 314.254 309.839 311.166C309.212 310.578 308.825 309.791 309.361 309.01C309.52 308.78 310.027 308.699 310.211 308.62C311.714 308.863 313.104 309.569 314.186 310.64C316.782 313.335 318.367 316.439 319.847 319.554C320.383 320.679 321 321.758 321.614 322.849C321.998 323.532 322.573 324.338 321.291 324.844C320.995 324.964 320.679 325.027 320.36 325.03C320.045 325.029 319.734 324.96 319.447 324.829C319.16 324.698 318.905 324.507 318.697 324.27L318.698 324.268ZM348.543 323.143C347.192 322.988 347.444 322.066 347.425 321.3C347.321 318.961 347.687 316.625 348.499 314.429C349.647 311.792 350.217 308.94 350.169 306.064C350.118 305.133 350.056 303.716 351.955 303.798C353.742 303.873 353.573 305.202 353.655 306.205C353.667 306.894 353.63 307.583 353.544 308.267C353.453 312.856 351.711 317.245 350.902 321.748C350.803 322.186 350.546 322.573 350.181 322.834C349.815 323.096 349.366 323.213 348.919 323.165C348.793 323.164 348.667 323.155 348.542 323.14L348.543 323.143Z" fill="white"/>
<path opacity="0.21" d="M1982.53 216.781C1982.53 336.505 1885.47 433.561 1765.75 433.561C1646.02 433.561 1548.97 336.505 1548.97 216.781C1548.97 97.0559 1646.02 0 1765.75 0C1885.47 0 1982.53 97.0559 1982.53 216.781Z" fill="white"/>
<path d="M307.543 557.328C307.543 602.07 271.273 638.34 226.532 638.34C181.791 638.34 145.521 602.07 145.521 557.328C145.521 512.587 181.791 476.317 226.532 476.317C271.273 476.317 307.543 512.587 307.543 557.328Z" fill="#DF3E3F"/>
<path d="M1301.44 674.585C1307.34 686.763 1314.64 697.81 1324.78 706.886C1333.7 714.876 1344.14 720.868 1354.94 725.932C1368.09 732.102 1381.74 737.129 1395.01 743.032C1396.31 743.608 1397.96 742.742 1398.96 741.919C1399.49 741.478 1401.12 739.648 1399.83 739.071C1377.21 729.009 1352.43 721.608 1332.95 705.779C1322.71 697.472 1314.85 686.964 1308.9 675.264C1306.74 671.037 1304.77 666.72 1302.71 662.451C1301.04 664.116 1299.55 665.952 1298.27 667.929C1299.32 670.151 1300.37 672.375 1301.44 674.585Z" fill="#554140"/>
<path d="M1291.23 654.538C1293.64 658.502 1295.72 662.643 1297.73 666.82C1299.06 664.911 1300.58 663.145 1302.27 661.552C1301.14 659.255 1299.99 656.977 1298.75 654.739C1295.03 648.04 1290.45 641.853 1285.13 636.333C1281.11 632.156 1276.82 628.243 1272.29 624.618L1266.79 628.002C1270.17 630.702 1273.44 633.532 1276.55 636.541C1282.19 641.89 1287.13 647.938 1291.23 654.538Z" fill="#554140"/>
<path d="M1266.06 653.789C1270.38 659.038 1274.11 664.751 1277.18 670.823C1282.29 680.526 1285.82 691.041 1290.71 700.852C1290.89 696.186 1290.94 691.482 1291.36 686.865C1288.87 680.973 1286.48 675.028 1283.6 669.349C1280.62 663.252 1277.02 657.47 1272.87 652.092C1269.05 647.389 1264.41 643.405 1259.19 640.326C1257.08 639.029 1254.91 637.814 1252.69 636.68L1246.98 640.194C1248.51 640.964 1250.03 641.769 1251.52 642.608C1256.89 645.631 1262.03 649.083 1266.06 653.789Z" fill="#554140"/>
<path d="M1291.57 702.544C1293.03 705.383 1294.65 708.136 1296.43 710.787C1300.72 717.261 1306.43 722.677 1313.12 726.629C1320 730.614 1327.54 733.348 1335.08 735.813C1343.73 738.643 1352.22 741.735 1360.67 745.107C1369.2 748.512 1377.73 751.933 1386.47 754.755C1388.39 755.372 1393.16 751.394 1390.34 750.482C1374.69 745.433 1359.8 738.314 1344.17 733.219C1336.55 730.736 1328.91 728.3 1321.72 724.704C1314.63 721.264 1308.44 716.202 1303.67 709.927C1298.78 703.415 1295.33 696.109 1292.14 688.667C1291.8 693.136 1291.78 697.638 1291.59 702.107C1291.58 702.254 1291.58 702.398 1291.57 702.544Z" fill="#554140"/>
<path d="M1286.47 726.776C1287.27 727.667 1288.08 728.551 1288.9 729.42C1299.22 740.315 1311.59 748.661 1325.89 753.374C1342.32 758.792 1359.66 760.53 1376.29 765.15C1378.23 765.688 1382.99 761.663 1380.16 760.876C1365.35 756.766 1350.02 754.931 1335.22 750.771C1320.74 746.791 1307.52 739.157 1296.83 728.602C1294.07 725.857 1291.44 722.981 1288.91 720.013C1288.6 721.086 1288.26 722.154 1287.88 723.217C1287.45 724.425 1286.98 725.611 1286.47 726.776Z" fill="#554140"/>
<path d="M1245.3 673.588C1250.97 679.342 1255.83 685.854 1260.52 692.415C1268.62 703.767 1276.44 715.457 1285.71 725.917C1286.66 723.695 1287.47 721.418 1288.15 719.097C1281.01 710.596 1274.67 701.38 1268.3 692.344C1263.67 685.76 1258.96 679.187 1253.55 673.201C1249.04 668.034 1243.58 663.77 1237.47 660.637C1232.83 658.418 1228.06 656.483 1223.18 654.841L1217.36 658.422C1221.12 659.77 1224.88 661.106 1228.5 662.67C1234.71 665.351 1240.52 668.751 1245.3 673.588Z" fill="#554140"/>
<path d="M1243 712.354C1253.63 722.596 1263.64 733.607 1275.01 743.05C1276.35 741.479 1277.61 739.859 1278.8 738.19C1268.98 729.842 1260.16 720.391 1250.93 711.398C1239.83 700.576 1228.31 690.037 1215.34 681.461C1209.4 677.516 1203.13 674.082 1196.61 671.194L1190.85 674.737C1196.4 677.116 1201.76 679.909 1206.89 683.091C1220.1 691.271 1231.84 701.602 1243 712.354Z" fill="#554140"/>
<path d="M1277.33 744.933C1289.21 754.466 1302.47 762.157 1316.64 767.747C1332.98 774.088 1350.33 777.426 1367.86 777.601C1368.64 777.526 1369.39 777.273 1370.06 776.861C1370.73 776.45 1371.29 775.891 1371.71 775.227C1372.41 774.02 1371.81 773.316 1370.53 773.3C1339.59 772.917 1309.78 761.995 1285.21 743.361C1283.28 741.898 1281.4 740.38 1279.55 738.825C1278.35 740.484 1277.08 742.093 1275.74 743.651C1276.27 744.079 1276.8 744.51 1277.33 744.933Z" fill="#554140"/>
<path d="M1177.2 700.732C1185.9 703.969 1194.31 707.472 1202.1 712.578C1209.15 717.202 1215.59 722.668 1222.06 728.05C1234.15 738.096 1246.31 748.207 1258.89 757.655C1260.58 756.427 1262.24 755.154 1263.87 753.834C1252.67 745.436 1241.92 736.406 1231.09 727.565C1224.47 722.164 1218.05 716.508 1211.11 711.511C1203.92 706.365 1196.09 702.156 1187.83 698.985C1182.59 696.94 1177.31 695.003 1171.99 693.174C1169.64 692.355 1167.27 691.517 1164.9 690.705L1158.99 694.343C1160.34 694.798 1161.69 695.262 1163.03 695.717C1167.78 697.32 1172.5 698.992 1177.2 700.732Z" fill="#554140"/>
<path d="M1259.68 758.254C1260.51 758.874 1261.35 759.491 1262.18 760.106C1275.93 770.239 1290.67 779.228 1307.03 784.464C1315.9 787.304 1324.88 787.63 1334.13 787.454C1343.05 787.284 1352.07 786.925 1360.76 789.376C1362.69 789.923 1367.45 785.902 1364.62 785.102C1348.98 780.688 1332.54 785.268 1316.77 781.825C1308.56 780.033 1300.58 776.546 1293.14 772.715C1285.54 768.741 1278.23 764.238 1271.27 759.237C1269.05 757.662 1266.84 756.056 1264.66 754.421C1264.26 754.75 1263.85 755.076 1263.45 755.398C1262.22 756.379 1260.96 757.327 1259.68 758.254Z" fill="#554140"/>
<path d="M1360.49 789.164C1351.8 786.712 1342.78 787.069 1333.86 787.236C1324.61 787.409 1315.63 787.082 1306.76 784.237C1290.4 779.001 1275.67 770.008 1261.92 759.875C1261.09 759.261 1260.25 758.644 1259.43 758.023C1260.7 757.096 1261.96 756.149 1263.19 755.17C1263.6 754.845 1264 754.519 1264.4 754.194C1266.59 755.826 1268.79 757.432 1271.01 759.011C1277.97 764.012 1285.28 768.515 1292.87 772.488C1300.31 776.32 1308.29 779.81 1316.51 781.603C1332.27 785.047 1348.71 780.473 1364.35 784.89C1366.95 785.626 1363.15 789.077 1361.01 789.209C1360.83 789.223 1360.66 789.208 1360.49 789.164ZM1367.59 777.394C1350.07 777.214 1332.72 773.873 1316.38 767.53C1302.21 761.939 1288.96 754.247 1277.08 744.713C1276.55 744.294 1276.02 743.86 1275.5 743.43C1276.84 741.874 1278.11 740.266 1279.31 738.608C1281.16 740.161 1283.03 741.679 1284.96 743.142C1309.52 761.779 1339.33 772.703 1370.27 773.094C1371.55 773.111 1372.15 773.814 1371.45 775.021C1371.05 775.656 1370.51 776.196 1369.88 776.604C1369.24 777.012 1368.53 777.28 1367.78 777.387C1367.72 777.392 1367.66 777.394 1367.59 777.394ZM1376.04 764.951C1359.41 760.329 1342.07 758.586 1325.64 753.166C1311.34 748.45 1298.97 740.105 1288.66 729.21C1287.84 728.339 1287.03 727.455 1286.23 726.564C1286.74 725.399 1287.21 724.214 1287.64 723.009C1288.03 721.948 1288.37 720.879 1288.68 719.806C1291.21 722.773 1293.83 725.653 1296.6 728.394C1307.28 738.95 1320.49 746.584 1334.97 750.565C1349.77 754.728 1365.1 756.566 1379.91 760.68C1382.51 761.404 1378.7 764.865 1376.56 764.996C1376.38 765.01 1376.21 764.995 1376.04 764.951ZM1386.23 754.558C1377.48 751.735 1368.96 748.313 1360.42 744.907C1351.98 741.533 1343.48 738.44 1334.84 735.609C1327.3 733.14 1319.77 730.407 1312.88 726.42C1306.2 722.469 1300.5 717.053 1296.21 710.579C1295.63 709.726 1295.08 708.863 1294.54 707.991C1293.4 706.145 1292.35 704.256 1291.35 702.337C1291.36 702.192 1291.36 702.048 1291.37 701.903C1291.56 697.436 1291.58 692.934 1291.92 688.468C1295.11 695.909 1298.55 703.213 1303.44 709.723C1308.21 715.998 1314.39 721.061 1321.48 724.501C1328.67 728.098 1336.31 730.535 1343.92 733.019C1359.56 738.115 1374.44 745.236 1390.08 750.287C1392.66 751.118 1388.93 754.492 1386.79 754.622C1386.6 754.637 1386.41 754.617 1386.22 754.562L1386.23 754.558ZM1221.82 727.819C1215.35 722.437 1208.91 716.971 1201.86 712.347C1194.08 707.241 1185.67 703.735 1176.97 700.494C1172.28 698.746 1167.56 697.074 1162.81 695.477C1161.46 695.022 1160.11 694.559 1158.76 694.104L1164.67 690.469C1167.05 691.28 1169.41 692.12 1171.77 692.938C1177.08 694.78 1182.36 696.718 1187.61 698.752C1195.86 701.923 1203.69 706.132 1210.88 711.279C1217.81 716.276 1224.23 721.933 1230.85 727.333C1241.68 736.174 1252.42 745.205 1263.62 753.602C1261.99 754.922 1260.33 756.195 1258.63 757.421C1246.05 747.979 1233.91 737.869 1221.82 727.823L1221.82 727.819ZM1394.77 742.842C1381.51 736.937 1367.85 731.908 1354.7 725.737C1343.91 720.67 1333.47 714.675 1324.56 706.691C1317.95 700.69 1312.24 693.759 1307.62 686.116C1305.3 682.32 1303.17 678.407 1301.24 674.394C1300.17 672.184 1299.12 669.961 1298.07 667.743C1299.35 665.768 1300.84 663.933 1302.51 662.268C1304.57 666.535 1306.54 670.852 1308.69 675.078C1314.64 686.777 1322.5 697.282 1332.73 705.591C1352.21 721.417 1376.98 728.822 1399.59 738.887C1400.89 739.464 1399.25 741.293 1398.72 741.735C1397.92 742.438 1396.92 742.888 1395.87 743.027C1395.49 743.057 1395.12 742.994 1394.77 742.846L1394.77 742.842ZM1242.77 712.134C1231.61 701.381 1219.89 691.052 1206.67 682.87C1201.54 679.688 1196.18 676.895 1190.64 674.515L1196.4 670.974C1202.92 673.862 1209.18 677.296 1215.13 681.241C1228.09 689.818 1239.6 700.357 1250.7 711.178C1259.92 720.172 1268.75 729.619 1278.56 737.969C1277.37 739.637 1276.1 741.256 1274.76 742.826C1263.39 733.39 1253.39 722.38 1242.76 712.137L1242.77 712.134ZM1260.3 692.206C1255.62 685.644 1250.76 679.133 1245.09 673.379C1240.32 668.539 1234.5 665.142 1228.29 662.459C1224.68 660.897 1220.92 659.559 1217.16 658.21L1222.98 654.632C1227.86 656.276 1232.63 658.214 1237.27 660.434C1243.38 663.567 1248.83 667.831 1253.34 672.998C1258.75 678.984 1263.45 685.555 1268.08 692.138C1274.44 701.174 1280.78 710.386 1287.91 718.888C1287.24 721.207 1286.42 723.483 1285.47 725.705C1276.21 715.249 1268.4 703.56 1260.3 692.21L1260.3 692.206ZM1276.97 670.622C1273.91 664.55 1270.18 658.839 1265.86 653.592C1261.83 648.884 1256.7 645.436 1251.33 642.411C1249.84 641.57 1248.33 640.765 1246.79 639.996L1252.5 636.485C1254.72 637.619 1256.88 638.834 1259.01 640.131C1264.23 643.21 1268.86 647.194 1272.68 651.897C1276.83 657.273 1280.42 663.054 1283.4 669.152C1286.27 674.827 1288.66 680.77 1291.15 686.661C1290.72 691.277 1290.67 695.98 1290.49 700.644C1285.6 690.838 1282.07 680.327 1276.97 670.626L1276.97 670.622ZM1291.04 654.346C1286.94 647.746 1282 641.699 1276.36 636.352C1273.26 633.341 1269.99 630.512 1266.61 627.812L1272.12 624.431C1276.64 628.054 1280.93 631.966 1284.95 636.141C1290.26 641.661 1294.84 647.848 1298.55 654.547C1299.79 656.783 1300.95 659.06 1302.07 661.358C1300.38 662.95 1298.86 664.715 1297.53 666.623C1295.52 662.453 1293.45 658.313 1291.04 654.35L1291.04 654.346Z" fill="white"/>
<path opacity="0.21" d="M1740.25 732.103C1740.25 851.827 1643.19 948.883 1523.46 948.883C1403.74 948.883 1306.68 851.827 1306.68 732.103C1306.68 612.378 1403.74 515.322 1523.46 515.322C1643.19 515.322 1740.25 612.378 1740.25 732.103Z" fill="white"/>
</svg>
