<svg width="88" height="74" viewBox="0 0 88 74" fill="none" xmlns="http://www.w3.org/2000/svg">
<path d="M3.52223 19.6318C5.66308 19.9506 7.37487 21.075 9.1786 21.998C11.6093 23.2006 14.1344 24.1922 16.7272 24.9623C17.4805 25.1605 18.1847 25.5188 18.7939 26.0139C19.4031 26.509 19.9036 27.1299 20.263 27.8361C20.4607 28.2247 20.5857 28.6457 20.0687 28.9377C19.6347 29.1851 19.2951 28.9559 18.9199 28.7439C14.2428 26.0979 9.02438 24.2564 3.94239 22.2126C3.43422 22.0072 2.93766 21.7728 2.45502 21.5107C2.32989 21.4547 2.21769 21.3723 2.12574 21.2689C2.03378 21.1656 1.96413 21.0435 1.92132 20.9108C1.87851 20.778 1.8635 20.6375 1.87727 20.4984C1.89104 20.3593 1.93328 20.2247 2.00125 20.1035C2.23258 19.5063 2.8999 19.6501 3.52223 19.6318Z" fill="#FFA85A"/>
<path d="M24.8735 59.5456C24.7358 59.7849 24.5698 60.0058 24.3792 60.2034C21.1168 63.0564 18.8213 66.42 16.5242 69.7866C16.1056 70.3999 15.7437 71.4251 14.5253 70.8898C13.5001 70.4394 14.202 69.6495 14.5015 69.0301C16.2316 65.4722 19.1248 62.4907 21.8667 59.4388C22.1194 59.0998 22.4657 58.8463 22.8608 58.7109C23.2559 58.5756 23.6815 58.5648 24.0826 58.6798C24.2896 58.714 24.4795 58.8176 24.6227 58.9743C24.7658 59.131 24.8541 59.332 24.8735 59.5456Z" fill="#FFA85A"/>
<path d="M68.0291 66.5223C68.211 67.1487 68.0756 67.5303 67.474 67.6462C67.2133 67.7348 66.9296 67.72 66.6791 67.6046C66.4286 67.4893 66.2296 67.2818 66.1215 67.0232C65.0528 63.6207 61.8703 61.3087 59.4975 58.5766C58.9122 57.9026 58.2261 57.1597 59.4041 56.473C60.6186 55.7646 61.1639 56.5742 61.7704 57.2549C63.2336 58.9025 64.7087 60.544 66.2283 62.1578C66.8096 62.7161 67.2702 63.393 67.5804 64.1447C67.8906 64.8964 68.0434 65.7064 68.0291 66.5223V66.5223Z" fill="#FFA85A"/>
<path d="M77.7225 8.28674C77.6622 9.09639 76.9054 9.80483 76.2792 10.4546C73.5896 13.2423 70.518 15.7922 68.7385 19.1102C68.3673 19.8029 67.4657 20.8423 66.3831 20.2741C65.4118 19.764 66.0371 18.8425 66.6229 18.0475C69.2338 14.5053 72.946 11.6326 75.7349 8.20021C75.8984 8.00785 76.1035 7.85709 76.3337 7.75987C76.564 7.66264 76.8132 7.62161 77.0616 7.64004C77.233 7.63637 77.3987 7.70238 77.5226 7.8236C77.6465 7.94482 77.7184 8.11136 77.7225 8.28674V8.28674Z" fill="#FFA85A"/>
<path d="M16.5647 41.6218C16.4995 42.2842 15.8925 42.5175 15.3062 42.7351C12.037 43.9572 8.78153 45.2076 5.47273 46.3543C4.56562 46.6608 3.68854 47.0535 2.85296 47.5274C2.53398 47.7467 2.14514 47.8328 1.76614 47.7681C1.38713 47.7033 1.04666 47.4926 0.814494 47.1792C0.327614 46.5654 0.517916 45.9434 1.36563 45.7749C6.06835 44.8337 9.92632 42.4558 14.2697 40.9078C15.4338 40.4964 16.1989 40.59 16.5647 41.6218Z" fill="#FFA85A"/>
<path d="M28.0118 4.23047C29.0017 4.39512 29.9167 4.87167 30.6295 5.59373C32.3401 7.41141 33.3847 9.50539 34.3601 11.6065C34.713 12.3655 35.1199 13.0937 35.5248 13.83C35.7774 14.2905 36.1566 14.8345 35.3112 15.176C35.0236 15.3061 34.7028 15.3384 34.3958 15.2683C34.0889 15.1981 33.812 15.0293 33.6056 14.7864C33.0908 14.2525 32.6351 13.6621 32.2466 13.0259C30.9217 10.5969 29.9443 8.03131 27.7671 5.94796C27.3533 5.55173 27.0982 5.0209 27.4517 4.49411C27.5565 4.33825 27.8907 4.2836 28.0118 4.23047Z" fill="#FFA85A"/>
<path d="M56.5685 3.99003C56.5082 7.08589 55.3603 10.0471 54.8274 13.0843C54.7112 13.7421 54.0923 14.1211 53.2722 14.025C52.3823 13.9202 52.5484 13.2988 52.5356 12.7822C52.4679 11.2043 52.7086 9.62848 53.2435 8.14702C54.0004 6.36817 54.3758 4.44384 54.3444 2.50384C54.3113 1.87637 54.2703 0.920494 55.5225 0.975144C56.6995 1.02575 56.5883 1.92293 56.6417 2.59948C56.6496 3.06419 56.6252 3.52889 56.5685 3.99003Z" fill="#FFA85A"/>
<path d="M45.0205 66.6836C45.1816 68.5225 45.3309 70.362 45.5089 72.1994C45.5721 72.8506 46.1445 73.7524 44.8025 73.8364C43.5865 73.9118 43.1377 73.0622 43.0305 72.1938C42.7971 70.3002 42.554 68.4041 42.42 66.505C42.3743 65.4032 42.2356 64.3076 42.0053 63.2304C41.8165 62.4511 42.0176 61.6485 43.2504 61.5296C44.4273 61.4168 44.6597 62.1328 44.7427 62.8757C44.8831 64.1407 45.0062 65.4089 45.1381 66.675L45.0205 66.6836Z" fill="#FFA85A"/>
<path d="M82.7136 50.603C82.6583 51.2902 82.0769 51.6049 81.2633 51.4313C80.2358 51.2177 79.2284 50.9129 78.2524 50.5205C76.0162 49.6006 73.8283 48.6063 71.6187 47.6449C70.8165 47.2958 69.9564 46.8571 70.6459 46.0596C70.9553 45.7205 71.3639 45.4936 71.8103 45.4131C72.2567 45.3325 72.7165 45.4028 73.1205 45.6133C76.1289 46.9289 78.7339 48.8138 82.029 49.7266C82.2249 49.7683 82.4005 49.8786 82.5255 50.0386C82.6505 50.1986 82.717 50.3982 82.7136 50.603Z" fill="#FFA85A"/>
<path d="M74.3715 36.6022C73.5618 36.6751 73.24 36.5582 73.0304 36.2986C72.7491 35.9519 72.9133 35.6139 73.1906 35.334C73.7728 34.7453 74.5086 34.3412 75.3097 34.1701C78.8619 33.4151 82.4353 32.7243 85.9914 31.9824C86.6394 31.8468 87.1343 31.863 87.4383 32.3903C87.7709 32.9652 87.3097 33.3174 86.7783 33.5036C82.6488 34.9256 78.0383 35.081 74.3715 36.6022Z" fill="#FFA85A"/>
<path d="M43.0305 72.1947C42.7967 70.3012 42.554 68.405 42.4195 66.5054C42.3741 65.4038 42.2353 64.3085 42.0048 63.2315C41.8165 62.4523 42.0171 61.6496 43.2499 61.5301C44.4264 61.4173 44.6592 62.1339 44.7423 62.8772C44.8826 64.1423 45.0052 65.4073 45.1377 66.6759L45.0205 66.6845C45.1817 68.5234 45.3315 70.3623 45.5089 72.2002C45.5727 72.8519 46.1446 73.7534 44.8031 73.8369C44.7536 73.8399 44.7042 73.8413 44.6548 73.8413C43.5495 73.8418 43.1338 73.0272 43.0305 72.1947ZM14.5249 70.8887C13.4997 70.4378 14.2012 69.6477 14.5012 69.0284C16.2313 65.4705 19.1249 62.4897 21.8693 59.4378C22.122 59.0987 22.4683 58.845 22.8634 58.7097C23.2584 58.5743 23.6841 58.5636 24.0852 58.6788C24.2919 58.7137 24.4815 58.8177 24.6242 58.9748C24.7669 59.1318 24.8546 59.333 24.8737 59.5465C24.736 59.7858 24.57 60.0066 24.3794 60.2043C21.117 63.0573 18.8214 66.4203 16.5244 69.7874C16.1873 70.2803 15.8877 71.0409 15.1492 71.0409C14.9333 71.0342 14.7211 70.9826 14.5254 70.8892L14.5249 70.8887ZM66.1209 67.0245C65.0518 63.6215 61.8699 61.3095 59.4972 58.578C58.9115 57.9039 58.2254 57.161 59.4038 56.4733C60.6183 55.7649 61.1636 56.5747 61.7696 57.2553C63.2322 58.903 64.7077 60.5445 66.2272 62.1582C66.8089 62.7164 67.2698 63.393 67.5803 64.1448C67.8907 64.8965 68.0437 65.7067 68.0294 66.5227C68.2113 67.1492 68.0759 67.5306 67.4739 67.6464C67.3649 67.6681 67.2542 67.6791 67.1432 67.6793C66.9263 67.6995 66.709 67.6466 66.5245 67.5283C66.34 67.4101 66.1984 67.233 66.1214 67.0245H66.1209ZM81.263 51.4328C80.2355 51.219 79.2281 50.9143 78.2522 50.5221C76.0164 49.6026 73.8281 48.6082 71.6186 47.6468C70.8168 47.2976 69.9567 46.859 70.6453 46.061C70.9548 45.7221 71.3635 45.4953 71.8098 45.4148C72.2561 45.3344 72.7159 45.4048 73.1198 45.6152C76.1282 46.9309 78.7331 48.8158 82.0287 49.7292C82.2247 49.7708 82.4003 49.8811 82.5253 50.0412C82.6502 50.2014 82.7165 50.4012 82.7128 50.6061C82.7048 50.7342 82.6714 50.8593 82.6145 50.9737C82.5576 51.0881 82.4785 51.1895 82.382 51.2715C82.2854 51.3534 82.1736 51.4142 82.0532 51.4504C81.9329 51.4865 81.8066 51.4971 81.6821 51.4815C81.5413 51.4797 81.4011 51.4633 81.2635 51.4328H81.263ZM0.815861 47.1822C0.329465 46.5689 0.521745 45.9471 1.36701 45.7781C6.07032 44.8369 9.9279 42.4584 14.2719 40.911C15.434 40.4971 16.1996 40.5908 16.5649 41.6226C16.5001 42.2845 15.8922 42.5186 15.3069 42.7357C12.0376 43.9588 8.78208 45.2093 5.4732 46.3555C4.56606 46.6619 3.68893 47.0545 2.85336 47.5284C2.58726 47.6895 2.28512 47.7777 1.97602 47.7844C1.75053 47.7813 1.5287 47.7253 1.3276 47.6208C1.12651 47.5163 0.951462 47.3662 0.815861 47.1817V47.1822ZM73.0308 36.3002C72.7496 35.9536 72.9137 35.6154 73.191 35.3356C73.773 34.747 74.5087 34.343 75.3096 34.1718C78.8621 33.4168 82.435 32.7267 85.9915 31.9854C86.639 31.8487 87.1343 31.8653 87.4383 32.3901C87.771 32.9654 87.3103 33.3177 86.7784 33.5034C82.649 34.9289 78.0386 35.0847 74.3714 36.6063C74.2122 36.62 74.0713 36.6276 73.9473 36.6276C73.7801 36.6518 73.6097 36.6347 73.4503 36.5777C73.2909 36.5206 73.1473 36.4253 73.0313 36.2997L73.0308 36.3002ZM18.899 28.7483C14.2219 26.1023 9.00351 24.2608 3.92156 22.2169C3.41318 22.0118 2.91663 21.7772 2.43424 21.5145C2.3091 21.4585 2.19685 21.3762 2.1049 21.2728C2.01296 21.1694 1.94336 21.0473 1.90059 20.9145C1.85782 20.7818 1.84288 20.6413 1.85673 20.5022C1.87057 20.3631 1.91285 20.2285 1.9809 20.1073C2.17121 19.6129 2.65813 19.6235 3.17171 19.6337C3.28096 19.6362 3.39264 19.6382 3.50238 19.6337C5.64321 19.9525 7.35505 21.0772 9.15876 22.0002C11.5894 23.2026 14.1142 24.1944 16.7067 24.9647C17.4601 25.1629 18.1643 25.521 18.7735 26.0161C19.3827 26.5112 19.8832 27.1321 20.2425 27.8383C20.4403 28.2275 20.5658 28.6481 20.0483 28.9401C19.9331 29.009 19.8025 29.0459 19.6691 29.0473C19.3921 29.0144 19.1275 28.9116 18.899 28.7478V28.7483ZM66.3829 20.2758C65.4116 19.7658 66.0369 18.8448 66.6231 18.0518C69.2341 14.5096 72.9458 11.6364 75.7351 8.20457C75.8985 8.01219 76.1034 7.86142 76.3337 7.76427C76.5639 7.66712 76.8131 7.62628 77.0614 7.64492C77.2322 7.64097 77.3976 7.70615 77.5216 7.82653C77.6456 7.94691 77.7181 8.11274 77.7233 8.28759C77.6635 9.09723 76.9067 9.8055 76.2799 10.4557C73.5904 13.2429 70.5183 15.7935 68.7388 19.1121C68.4422 19.6647 67.8075 20.4396 67.0122 20.4396C66.7926 20.4377 66.5767 20.3816 66.3829 20.2758V20.2758ZM33.6056 14.7874C33.0912 14.2531 32.6355 13.6628 32.2467 13.0269C30.9215 10.598 29.9448 8.03201 27.7678 5.9487C27.3541 5.55197 27.099 5.02114 27.4524 4.49436C27.5572 4.33901 27.8914 4.28435 28.0125 4.23122C29.0032 4.39487 29.9191 4.87125 30.6323 5.59388C32.3431 7.41204 33.3871 9.50563 34.3628 11.6072C34.7158 12.3662 35.1221 13.0936 35.527 13.8299C35.78 14.2904 36.1592 14.8345 35.3139 15.176C35.1191 15.2569 34.9111 15.2993 34.701 15.3011C34.4932 15.3003 34.2879 15.2543 34.099 15.1659C33.91 15.0775 33.7416 14.9487 33.6051 14.7884L33.6056 14.7874ZM53.2725 14.0283C52.3827 13.9236 52.5488 13.3017 52.5359 12.785C52.4676 11.2071 52.7083 9.63126 53.2438 8.14996C54.0003 6.37101 54.3756 4.44653 54.3441 2.50658C54.3105 1.8786 54.27 0.922714 55.5211 0.977871C56.699 1.02847 56.5873 1.92515 56.6412 2.6017C56.6491 3.06658 56.6247 3.53147 56.568 3.99278C56.5082 7.08866 55.3604 10.0495 54.8271 13.0872C54.7619 13.3829 54.5927 13.6438 54.3518 13.82C54.1109 13.9963 53.815 14.0758 53.5206 14.0432C53.4375 14.0424 53.3545 14.0367 53.272 14.0263L53.2725 14.0283Z" fill="white"/>
</svg>
