<svg width="18" height="18" viewBox="0 0 18 18" fill="none" xmlns="http://www.w3.org/2000/svg">
<path d="M10.2469 8.59109L1.66103 16.8587C1.25896 16.5839 1.02025 16.1269 1.02447 15.6399V1.54227C1.02025 1.05531 1.25896 0.598261 1.66103 0.323486L10.2469 8.59109Z" fill="#2196F3"/>
<path d="M13.2515 5.70359L10.2472 8.59143L1.66138 0.32382C1.69373 0.298748 1.72742 0.275423 1.76228 0.253953C2.21606 -0.0210756 2.78285 -0.0299546 3.24503 0.230664L13.2515 5.70359Z" fill="#4CAF50"/>
<path d="M16.8922 8.59145C16.8978 9.14119 16.5991 9.64896 16.1159 9.91118L13.2514 11.4793L10.2471 8.59145L13.2514 5.70361L16.1159 7.27173C16.5991 7.53395 16.8978 8.04172 16.8922 8.59145Z" fill="#F0BB1F"/>
<path d="M13.2515 11.4794L3.24503 16.9523C2.78183 17.2089 2.21718 17.2 1.76228 16.929C1.72742 16.9076 1.69373 16.8842 1.66138 16.8592L10.2473 8.59155L13.2515 11.4794Z" fill="#F15A2B"/>
</svg>
