<svg width="24" height="24" viewBox="0 0 24 24" fill="none" xmlns="http://www.w3.org/2000/svg">
<path d="M13.7641 12.0558L2.57269 22.8323C2.04861 22.4742 1.73746 21.8784 1.74296 21.2437V2.86793C1.73746 2.2332 2.04861 1.63745 2.57269 1.2793L13.7641 12.0558Z" fill="#2196F3"/>
<path d="M17.68 8.29176L13.7641 12.056L2.57269 1.27944C2.61486 1.24676 2.65878 1.21636 2.70422 1.18837C3.2957 0.829881 4.0345 0.818308 4.63693 1.15801L17.68 8.29176Z" fill="#4CAF50"/>
<path d="M22.4257 12.0562C22.433 12.7727 22.0437 13.4346 21.4139 13.7764L17.68 15.8204L13.7641 12.0562L17.68 8.29199L21.4139 10.336C22.0437 10.6778 22.433 11.3396 22.4257 12.0562Z" fill="#F0BB1F"/>
<path d="M17.68 15.8203L4.63693 22.9541C4.03317 23.2885 3.29717 23.277 2.70422 22.9237C2.65878 22.8958 2.61486 22.8654 2.57269 22.8327L13.7641 12.0562L17.68 15.8203Z" fill="#F15A2B"/>
</svg>
