<svg width="6" height="5" viewBox="0 0 6 5" fill="none" xmlns="http://www.w3.org/2000/svg">
<path d="M3.23299 2.68264L1.07459 4.76102C0.973513 4.69195 0.913503 4.57705 0.914565 4.45463V0.910636C0.913503 0.78822 0.973513 0.673323 1.07459 0.604248L3.23299 2.68264Z" fill="#2196F3"/>
<path d="M3.98786 1.95641L3.23261 2.68238L1.07422 0.603992C1.08235 0.597689 1.09082 0.591825 1.09959 0.586428C1.21366 0.517289 1.35615 0.515056 1.47233 0.580573L3.98786 1.95641Z" fill="#4CAF50"/>
<path d="M4.90318 2.68251C4.90459 2.82071 4.82949 2.94836 4.70803 3.01428L3.98791 3.40849L3.23267 2.68251L3.98791 1.95654L4.70803 2.35075C4.82949 2.41667 4.90459 2.54432 4.90318 2.68251Z" fill="#F0BB1F"/>
<path d="M3.98786 3.40835L1.47233 4.78418C1.35589 4.84868 1.21394 4.84645 1.09959 4.77832C1.09082 4.77293 1.08235 4.76706 1.07422 4.76076L3.23262 2.68237L3.98786 3.40835Z" fill="#F15A2B"/>
</svg>
