<svg width="18" height="18" viewBox="0 0 18 18" fill="none" xmlns="http://www.w3.org/2000/svg">
<path d="M10.0486 9.10733L1.45596 17.3814C1.05358 17.1064 0.814678 16.649 0.818903 16.1617V2.05299C0.814678 1.56565 1.05358 1.10824 1.45596 0.833252L10.0486 9.10733Z" fill="#2196F3"/>
<path d="M13.0548 6.2173L10.0482 9.1074L1.45557 0.833319C1.48794 0.808227 1.52166 0.784884 1.55655 0.763397C2.01068 0.488153 2.57792 0.479267 3.04046 0.74009L13.0548 6.2173Z" fill="#4CAF50"/>
<path d="M16.6987 9.10763C16.7043 9.65779 16.4053 10.166 15.9218 10.4284L13.055 11.9977L10.0483 9.10763L13.055 6.21753L15.9218 7.78687C16.4053 8.0493 16.7043 8.55747 16.6987 9.10763Z" fill="#F0BB1F"/>
<path d="M13.0553 11.9978L3.04095 17.475C2.57739 17.7318 2.0123 17.7229 1.55704 17.4517C1.52215 17.4302 1.48843 17.4068 1.45605 17.3818L10.0487 9.10767L13.0553 11.9978Z" fill="#F15A2B"/>
</svg>
