<svg width="21" height="21" viewBox="0 0 21 21" fill="none" xmlns="http://www.w3.org/2000/svg">
<path d="M12.1671 10.4825L2.17223 20.1069C1.70419 19.787 1.4263 19.255 1.43122 18.6881V2.27694C1.4263 1.71007 1.70419 1.17802 2.17223 0.858154L12.1671 10.4825Z" fill="#2196F3"/>
<path d="M15.6638 7.12084L12.1665 10.4826L2.17163 0.858227C2.20929 0.829041 2.24852 0.801887 2.2891 0.776895C2.81734 0.456732 3.47715 0.446396 4.01517 0.749784L15.6638 7.12084Z" fill="#4CAF50"/>
<path d="M19.9024 10.4828C19.9089 11.1228 19.5612 11.7139 18.9987 12.0191L15.6641 13.8446L12.1667 10.4828L15.6641 7.12109L18.9987 8.94655C19.5612 9.2518 19.9089 9.8429 19.9024 10.4828Z" fill="#F0BB1F"/>
<path d="M15.6645 13.8447L4.0159 20.2157C3.47669 20.5144 2.81938 20.5041 2.28983 20.1886C2.24925 20.1636 2.21002 20.1365 2.17236 20.1073L12.1673 10.4829L15.6645 13.8447Z" fill="#F15A2B"/>
</svg>
