<svg width="60" height="32" viewBox="0 0 60 32" fill="none" xmlns="http://www.w3.org/2000/svg">
<path fill-rule="evenodd" clip-rule="evenodd" d="M57.138 4.87511C45.9412 26.3808 23.5746 35.1241 2.80094 23.0169C2.10938 22.6137 1.2324 22.8658 0.842102 23.5713C0.451803 24.2894 0.695766 25.1965 1.38733 25.5996C23.6539 38.5887 47.6683 29.3289 59.67 6.28614C60.0457 5.56803 59.7835 4.66081 59.0846 4.27025C58.3857 3.8923 57.5136 4.157 57.138 4.87511Z" fill="#009BA5"/>
<path d="M20.2833 13.7939C22.5964 13.7939 24.4716 11.8571 24.4716 9.46777C24.4716 7.07848 22.5964 5.1416 20.2833 5.1416C17.9702 5.1416 16.0951 7.07848 16.0951 9.46777C16.0951 11.8571 17.9702 13.7939 20.2833 13.7939Z" fill="#009BA5"/>
<path d="M37.62 9.19238C39.8879 9.19238 41.7264 7.29355 41.7264 4.95117C41.7264 2.6088 39.8879 0.709961 37.62 0.709961C35.3521 0.709961 33.5137 2.6088 33.5137 4.95117C33.5137 7.29355 35.3521 9.19238 37.62 9.19238Z" fill="#009BA5"/>
</svg>
