<svg width="51" height="51" viewBox="0 0 51 51" fill="none" xmlns="http://www.w3.org/2000/svg">
<path fill-rule="evenodd" clip-rule="evenodd" d="M9.11029 30.3853C9.08928 24.9097 7.76701 19.9621 6.61331 14.6911C6.38786 13.6617 5.37492 13.0122 4.35065 13.2355C3.32577 13.4589 2.67804 14.4776 2.90288 15.5071C3.99699 20.5053 5.29103 25.1983 5.31203 30.3992C5.31605 31.4512 6.17144 32.3035 7.21905 32.2968C8.26758 32.2964 9.11492 31.4371 9.11029 30.3853Z" fill="black"/>
<path fill-rule="evenodd" clip-rule="evenodd" d="M22.3534 37.6977C28.9778 27.684 34.5441 15.5413 37.65 3.90875C37.9205 2.89285 37.3183 1.84651 36.3062 1.57628C35.294 1.30604 34.2513 1.90677 33.9808 2.92266C30.977 14.17 25.5938 25.9139 19.1871 35.5919C18.6086 36.469 18.8481 37.6517 19.7215 38.2313C20.5948 38.8109 21.7749 38.5748 22.3534 37.6977Z" fill="black"/>
<path fill-rule="evenodd" clip-rule="evenodd" d="M26.6754 45.7492C34.8523 45.0854 42.3938 40.8467 48.7528 35.9292C49.5815 35.284 49.7347 34.0884 49.0957 33.2607C48.4546 32.427 47.261 32.274 46.4308 32.9131C40.6401 37.3943 33.8134 41.3498 26.3663 41.9554C25.3215 42.04 24.5431 42.9603 24.6282 44.0049C24.7127 45.0496 25.6311 45.8336 26.6754 45.7492Z" fill="black"/>
</svg>
