<svg width="43" height="42" viewBox="0 0 43 42" fill="none" xmlns="http://www.w3.org/2000/svg">
<path fill-rule="evenodd" clip-rule="evenodd" d="M39.1526 20.354C37.8481 25.6717 37.9335 30.7928 37.7772 36.1867C37.7468 37.2401 38.5722 38.1158 39.6197 38.1476C40.6679 38.1793 41.5427 37.348 41.5737 36.2946C41.7218 31.1799 41.6022 26.3127 42.8402 21.2615C43.0909 20.2398 42.4674 19.2054 41.4496 18.9579C40.4324 18.7041 39.4026 19.3323 39.1526 20.354Z" fill="black"/>
<path fill-rule="evenodd" clip-rule="evenodd" d="M28.0709 10.0481C19.2216 18.158 10.8836 28.5904 5.05579 39.1244C4.54756 40.0445 4.87859 41.2059 5.79504 41.7135C6.7115 42.2212 7.86844 41.8912 8.37667 40.971C14.0121 30.7861 22.076 20.6963 30.6329 12.8593C31.4064 12.1485 31.4602 10.9428 30.7532 10.1687C30.0462 9.39447 28.8444 9.3374 28.0709 10.0481Z" fill="black"/>
<path fill-rule="evenodd" clip-rule="evenodd" d="M25.8288 1.18956C17.7351 -0.149427 9.39276 2.13507 2.03329 5.36514C1.07316 5.79032 0.635179 6.91352 1.0548 7.87175C1.47505 8.83633 2.59595 9.27423 3.55607 8.8554C10.2586 5.91089 17.8389 3.72788 25.2104 4.94629C26.2446 5.11763 27.2224 4.41325 27.3927 3.37887C27.5636 2.34449 26.8623 1.3609 25.8288 1.18956Z" fill="black"/>
</svg>
