<svg width="52" height="51" viewBox="0 0 52 51" fill="none" xmlns="http://www.w3.org/2000/svg">
<path fill-rule="evenodd" clip-rule="evenodd" d="M9.75628 30.3853C9.73527 24.9097 8.413 19.9621 7.25931 14.6911C7.03385 13.6617 6.02091 13.0122 4.99664 13.2355C3.97176 13.4589 3.32404 14.4776 3.54888 15.5071C4.64298 20.5053 5.93703 25.1983 5.95803 30.3992C5.96205 31.4512 6.81743 32.3035 7.86504 32.2968C8.91358 32.2964 9.76091 31.4371 9.75628 30.3853Z" fill="black"/>
<path fill-rule="evenodd" clip-rule="evenodd" d="M22.9998 37.6977C29.6243 27.684 35.1906 15.5413 38.2965 3.90875C38.567 2.89285 37.9648 1.84651 36.9527 1.57628C35.9405 1.30604 34.8977 1.90677 34.6272 2.92266C31.6235 14.17 26.2403 25.9139 19.8335 35.5919C19.255 36.469 19.4946 37.6517 20.3679 38.2313C21.2413 38.8109 22.4213 38.5748 22.9998 37.6977Z" fill="black"/>
<path fill-rule="evenodd" clip-rule="evenodd" d="M27.3214 45.7492C35.4983 45.0854 43.0398 40.8468 49.3988 35.9293C50.2275 35.2841 50.3807 34.0884 49.7417 33.2607C49.1006 32.427 47.907 32.2741 47.0768 32.9132C41.2861 37.3944 34.4594 41.3499 27.0123 41.9555C25.9675 42.0401 25.1891 42.9604 25.2742 44.005C25.3587 45.0497 26.2771 45.8337 27.3214 45.7492Z" fill="black"/>
</svg>
