<svg width="58" height="59" viewBox="0 0 58 59" fill="none" xmlns="http://www.w3.org/2000/svg">
<path fill-rule="evenodd" clip-rule="evenodd" d="M10.1476 35.4101C10.1227 29.1564 8.61115 23.5056 7.29216 17.4854C7.0344 16.3097 5.87698 15.5678 4.70675 15.8227C3.53582 16.0777 2.79594 17.241 3.053 18.4168C4.30386 24.1253 5.78312 29.4854 5.80796 35.4254C5.81272 36.6268 6.79017 37.6004 7.9871 37.5929C9.18509 37.5926 10.1531 36.6114 10.1476 35.4101Z" fill="black"/>
<path fill-rule="evenodd" clip-rule="evenodd" d="M25.287 43.7614C32.8555 32.3249 39.2145 18.4566 42.762 5.17061C43.071 4.01032 42.3826 2.81513 41.226 2.50632C40.0694 2.19751 38.8778 2.88349 38.5689 4.04378C35.1381 16.8897 28.9883 30.3026 21.6685 41.3557C21.0075 42.3574 21.2815 43.7082 22.2795 44.3704C23.2776 45.0325 24.6261 44.763 25.287 43.7614Z" fill="black"/>
<path fill-rule="evenodd" clip-rule="evenodd" d="M30.2236 52.9568C39.5685 52.1997 48.1866 47.3588 55.4532 41.7422C56.4002 41.0052 56.5751 39.6394 55.8447 38.6938C55.1119 37.7413 53.7479 37.5664 52.7991 38.2963C46.1819 43.4146 38.3806 47.9322 29.8699 48.6229C28.6758 48.7194 27.7864 49.7706 27.8838 50.9639C27.9805 52.1574 29.0302 53.0531 30.2236 52.9568Z" fill="black"/>
</svg>
