<svg width="45" height="45" viewBox="0 0 45 45" fill="none" xmlns="http://www.w3.org/2000/svg">
<path fill-rule="evenodd" clip-rule="evenodd" d="M8.35271 26.6932C8.35604 21.8959 7.23271 17.5664 6.25634 12.9529C6.06554 12.0519 5.19267 11.487 4.30659 11.6867C3.41997 11.8866 2.85619 12.7817 3.04646 13.6828C3.9724 18.0575 5.07234 22.164 5.07007 26.7207C5.06941 27.6424 5.80532 28.3857 6.71073 28.3756C7.61691 28.371 8.35258 27.6148 8.35271 26.6932Z" fill="black"/>
<path fill-rule="evenodd" clip-rule="evenodd" d="M19.6263 33.104C25.3631 24.3222 30.198 13.6831 32.915 3.50001C33.1516 2.6107 32.6377 1.69828 31.7683 1.46607C30.8989 1.23387 29.9996 1.76328 29.763 2.65259C27.1355 12.4984 22.4595 22.7881 16.9113 31.2755C16.4103 32.0447 16.6117 33.0778 17.3606 33.581C18.1095 34.0843 19.1253 33.8731 19.6263 33.104Z" fill="black"/>
<path fill-rule="evenodd" clip-rule="evenodd" d="M23.3896 40.1674C30.4027 39.5575 36.885 35.8412 42.3562 31.5394C43.0692 30.975 43.2052 29.9346 42.6606 29.2174C42.1141 28.495 41.0915 28.3667 40.3772 28.9258C35.395 32.846 29.5266 36.3131 23.1394 36.8695C22.2433 36.9473 21.5724 37.7507 21.6413 38.6587C21.7096 39.5669 22.4939 40.245 23.3896 40.1674Z" fill="black"/>
</svg>
