<svg width="75" height="46" viewBox="0 0 75 46" fill="none" xmlns="http://www.w3.org/2000/svg">
<path fill-rule="evenodd" clip-rule="evenodd" d="M53.5356 43.31C60.1649 43.4738 66.9396 43.1462 73.2783 45.4693C73.6561 45.6063 74.0717 45.4067 74.2083 45.0196C74.342 44.6324 74.1473 44.2065 73.7694 44.0665C67.2825 41.6898 60.3538 41.9877 53.5705 41.8209C53.1694 41.809 52.8352 42.1366 52.8265 42.5476C52.8149 42.9586 53.1345 43.2981 53.5356 43.31Z" fill="black"/>
<path fill-rule="evenodd" clip-rule="evenodd" d="M52.9392 33.4468C55.0057 31.4983 57.261 30.0386 59.9873 29.3151C60.3767 29.2121 60.6092 28.8055 60.5104 28.4076C60.4087 28.0097 60.0105 27.7705 59.624 27.8736C56.6594 28.6599 54.2035 30.2331 51.9568 32.3504C51.6603 32.6286 51.64 33.1001 51.9132 33.4027C52.1835 33.705 52.6456 33.7249 52.9392 33.4468Z" fill="black"/>
<path fill-rule="evenodd" clip-rule="evenodd" d="M47.1909 12.1746C48.1384 8.8463 50.0043 6.24261 52.8642 4.36236C53.2013 4.14047 53.3001 3.67942 53.0822 3.33363C52.8671 2.98784 52.4166 2.88716 52.0794 3.10905C48.9144 5.19094 46.845 8.07222 45.7958 11.7574C45.6825 12.1517 45.9063 12.5657 46.2899 12.6807C46.6765 12.7959 47.0805 12.569 47.1909 12.1746Z" fill="black"/>
<path fill-rule="evenodd" clip-rule="evenodd" d="M14.5385 7.65762C13.9747 8.33757 13.469 9.07024 13.0388 9.85027C12.847 10.1975 12.5099 10.9356 12.4576 11.5685C12.3995 12.2428 12.6232 12.8116 13.1987 13.1113C13.963 13.5086 14.5734 13.4672 15.0442 13.2268C15.4976 12.996 15.8521 12.5424 16.0759 11.9342C16.5031 10.7718 16.4392 8.9952 16.2154 7.98137C16.817 7.3452 17.4768 6.76828 18.183 6.25541C23.4434 2.4357 31.1596 3.84416 37.0972 9.55542C39.1752 11.5551 40.175 15.7545 40.6952 20.2855C41.5061 27.3403 41.044 35.2198 40.98 37.5283C40.9655 38.0983 41.0178 38.4367 41.0469 38.5043C41.1835 38.8367 41.4247 38.923 41.5933 38.9558C41.8374 39.0005 42.0321 38.9528 42.189 38.8694C42.4012 38.755 42.5756 38.5537 42.657 38.2431C42.7006 38.0715 42.7122 37.8327 42.7064 37.578C42.7006 37.4014 42.6657 37.2084 42.7005 37.0818C42.9272 36.2711 43.2004 35.4795 43.4678 34.6822C44.36 32.002 45.5139 29.4903 46.7956 26.9817C50.8673 19.0105 54.8053 10.588 61.4811 4.51488C61.7804 4.24236 61.8095 3.77119 61.5421 3.46382C61.2777 3.15646 60.8184 3.12846 60.5162 3.40127C53.7067 9.59443 49.6611 18.1619 45.508 26.291C44.4182 28.425 43.4184 30.5619 42.5872 32.7972C42.6715 28.8431 42.6395 23.3698 41.9333 18.5271C41.3055 14.2201 40.111 10.4138 38.0912 8.46981C31.5868 2.21321 23.1033 0.855992 17.3431 5.04056C16.7269 5.4885 16.1399 5.98112 15.5935 6.51544C12.5797 0.938499 6.12765 -1.29676 0.425481 1.37064C0.0592874 1.5413 -0.100556 1.98329 0.0651028 2.35707C0.233668 2.73085 0.663786 2.89586 1.02998 2.7252C6.16832 0.321682 11.9955 2.46667 14.5385 7.65762ZM14.9599 9.52473C14.7245 9.86545 14.5065 10.2187 14.3031 10.5838C14.1955 10.7798 14.0095 11.1566 13.9311 11.5253C13.9136 11.6117 13.9107 11.7469 13.9107 11.8094C14.1113 11.9107 14.2682 11.9595 14.3961 11.8937C14.5559 11.8127 14.6373 11.6221 14.7158 11.4091C14.9134 10.8748 14.9773 10.1666 14.9599 9.52473Z" fill="black"/>
</svg>
