<svg width="45" height="44" viewBox="0 0 45 44" fill="none" xmlns="http://www.w3.org/2000/svg">
<path fill-rule="evenodd" clip-rule="evenodd" d="M8.35251 26.4905C8.35662 21.6894 7.23362 17.3568 6.25768 12.7398C6.06695 11.8382 5.19389 11.2729 4.30749 11.473C3.42056 11.6731 2.85644 12.5691 3.04664 13.4708C3.97217 17.8488 5.0718 21.9583 5.06881 26.5185C5.068 27.4409 5.80403 28.1847 6.70973 28.1744C7.61621 28.1697 8.35223 27.4128 8.35251 26.4905Z" fill="black"/>
<path fill-rule="evenodd" clip-rule="evenodd" d="M19.6227 32.9065C25.3614 24.1178 30.1984 13.4706 32.9172 3.27999C33.154 2.39003 32.6402 1.47705 31.7707 1.24482C30.9012 1.01258 30.0018 1.5425 29.765 2.43246C27.1357 12.2855 22.4577 22.583 16.9076 31.0772C16.4065 31.847 16.6078 32.8808 17.3566 33.3843C18.1055 33.8878 19.1215 33.6763 19.6227 32.9065Z" fill="black"/>
<path fill-rule="evenodd" clip-rule="evenodd" d="M23.3894 39.976C30.4027 39.3647 36.8857 35.6455 42.3575 31.3405C43.0706 30.7757 43.2068 29.7348 42.6623 29.0173C42.1159 28.2945 41.0933 28.1664 40.3789 28.7259C35.396 32.6488 29.5271 36.1187 23.1398 36.6764C22.2436 36.7543 21.5726 37.5583 21.6413 38.4668C21.7095 39.3755 22.4938 40.0538 23.3894 39.976Z" fill="black"/>
</svg>
