<svg width="77" height="47" viewBox="0 0 77 47" fill="none" xmlns="http://www.w3.org/2000/svg">
<path fill-rule="evenodd" clip-rule="evenodd" d="M55.1925 44.4149C61.9098 44.581 68.7743 44.2488 75.1971 46.6044C75.58 46.7433 76.0011 46.541 76.1395 46.1484C76.275 45.7558 76.0777 45.3239 75.6948 45.182C69.1218 42.772 62.1012 43.074 55.2278 42.9049C54.8214 42.8928 54.4828 43.225 54.4739 43.6418C54.4622 44.0585 54.7861 44.4028 55.1925 44.4149Z" fill="black"/>
<path fill-rule="evenodd" clip-rule="evenodd" d="M54.5885 34.4132C56.6826 32.4373 58.9681 30.9571 61.7308 30.2234C62.1255 30.1189 62.3611 29.7066 62.2609 29.3031C62.1578 28.8996 61.7543 28.6571 61.3626 28.7616C58.3585 29.559 55.8697 31.1543 53.593 33.3015C53.2926 33.5836 53.272 34.0617 53.5488 34.3685C53.8227 34.6751 54.291 34.6953 54.5885 34.4132Z" fill="black"/>
<path fill-rule="evenodd" clip-rule="evenodd" d="M48.7641 12.8419C49.7243 9.46675 51.6151 6.82643 54.5132 4.91973C54.8548 4.69472 54.9549 4.22719 54.734 3.87653C54.5161 3.52588 54.0596 3.42378 53.7179 3.64879C50.5106 5.75997 48.4136 8.68178 47.3504 12.4188C47.2356 12.8187 47.4624 13.2385 47.8511 13.3551C48.2428 13.472 48.6522 13.2418 48.7641 12.8419Z" fill="black"/>
<path fill-rule="evenodd" clip-rule="evenodd" d="M15.6782 8.2613C15.1068 8.95081 14.5944 9.69378 14.1586 10.4848C13.9642 10.8369 13.6226 11.5853 13.5696 12.2271C13.5107 12.9109 13.7375 13.4878 14.3205 13.7916C15.095 14.1945 15.7135 14.1525 16.1906 13.9088C16.65 13.6747 17.0092 13.2147 17.236 12.598C17.6688 11.4192 17.6041 9.61768 17.3773 8.5896C17.9869 7.94449 18.6554 7.35946 19.371 6.83938C24.7012 2.96596 32.5198 4.39422 38.5361 10.1858C40.6417 12.2135 41.6547 16.472 42.1819 21.0667C43.0035 28.2207 42.5352 36.2109 42.4705 38.5519C42.4557 39.13 42.5087 39.4731 42.5382 39.5416C42.6766 39.8787 42.921 39.9663 43.0918 39.9995C43.3392 40.0448 43.5365 39.9965 43.6955 39.9119C43.9105 39.7959 44.0872 39.5918 44.1696 39.2767C44.2138 39.1028 44.2256 38.8606 44.2197 38.6023C44.2138 38.4232 44.1784 38.2275 44.2138 38.0992C44.4435 37.2771 44.7203 36.4743 44.9912 35.6658C45.8953 32.9479 47.0644 30.401 48.3631 27.857C52.4889 19.7737 56.4791 11.2329 63.2435 5.07437C63.5468 4.79802 63.5762 4.32022 63.3053 4.00854C63.0373 3.69685 62.572 3.66846 62.2658 3.94511C55.366 10.2253 51.2667 18.9133 47.0585 27.1566C45.9542 29.3206 44.9412 31.4876 44.0989 33.7543C44.1843 29.7447 44.1519 24.1944 43.4363 19.2836C42.8002 14.916 41.5899 11.0562 39.5432 9.0849C32.9527 2.74035 24.3566 1.36404 18.5199 5.60744C17.8956 6.06168 17.3008 6.56123 16.7471 7.10306C13.6933 1.44771 7.15572 -0.818971 1.37791 1.88593C1.00685 2.05899 0.84489 2.50719 1.01275 2.88623C1.18355 3.26526 1.61937 3.43259 1.99042 3.25953C7.19693 0.822222 13.1014 2.99737 15.6782 8.2613ZM16.1051 10.1547C15.8666 10.5002 15.6457 10.8584 15.4396 11.2287C15.3306 11.4274 15.1422 11.8094 15.0626 12.1833C15.045 12.2709 15.0421 12.408 15.0421 12.4715C15.2452 12.5742 15.4042 12.6237 15.5338 12.5569C15.6958 12.4748 15.7783 12.2815 15.8578 12.0656C16.058 11.5237 16.1228 10.8055 16.1051 10.1547Z" fill="black"/>
</svg>
