<svg width="45" height="44" viewBox="0 0 45 44" fill="none" xmlns="http://www.w3.org/2000/svg">
<path fill-rule="evenodd" clip-rule="evenodd" d="M8.24993 26.8962C8.23266 22.1993 7.09961 17.9555 6.11114 13.4343C5.91798 12.5513 5.04956 11.9943 4.17133 12.186C3.29256 12.3778 2.73706 13.2517 2.9297 14.1348C3.86711 18.422 4.97599 22.4474 4.9933 26.9087C4.9966 27.8111 5.7299 28.5421 6.62812 28.5361C7.52714 28.5356 8.25376 27.7985 8.24993 26.8962Z" fill="black"/>
<path fill-rule="evenodd" clip-rule="evenodd" d="M19.5982 33.1691C25.2785 24.5792 30.0519 14.1633 32.7161 4.18531C32.9481 3.31392 32.432 2.41652 31.5643 2.18487C30.6967 1.95321 29.8027 2.46861 29.5706 3.34C26.9942 12.9875 22.3777 23.0613 16.8841 31.3633C16.388 32.1156 16.5933 33.13 17.3419 33.6271C18.0905 34.1241 19.1022 33.9214 19.5982 33.1691Z" fill="black"/>
<path fill-rule="evenodd" clip-rule="evenodd" d="M23.3046 40.0758C30.3138 39.5055 36.7789 35.8695 42.2304 31.6515C42.9408 31.0981 43.0723 30.0727 42.5247 29.363C41.9752 28.6482 40.9522 28.5172 40.2404 29.0653C35.2761 32.9091 29.4238 36.3021 23.0402 36.8225C22.1446 36.8951 21.4773 37.6845 21.5501 38.5803C21.6223 39.4762 22.4095 40.1484 23.3046 40.0758Z" fill="black"/>
</svg>
