<svg width="89" height="55" viewBox="0 0 89 55" fill="none" xmlns="http://www.w3.org/2000/svg">
<path fill-rule="evenodd" clip-rule="evenodd" d="M64.2254 51.9079C72.0623 52.1036 80.071 51.7123 87.5643 54.487C88.0109 54.6506 88.5022 54.4123 88.6637 53.9498C88.8217 53.4874 88.5915 52.9787 88.1449 52.8115C80.4764 49.9728 72.2856 50.3285 64.2666 50.1293C63.7925 50.1151 63.3974 50.5064 63.3871 50.9973C63.3733 51.4882 63.7512 51.8937 64.2254 51.9079Z" fill="black"/>
<path fill-rule="evenodd" clip-rule="evenodd" d="M63.5206 40.1268C65.9637 37.7995 68.6302 36.056 71.8533 35.1919C72.3138 35.0688 72.5886 34.5831 72.4718 34.1079C72.3515 33.6326 71.8808 33.3469 71.4238 33.47C67.9189 34.4092 65.0154 36.2883 62.3592 38.8173C62.0087 39.1496 61.9847 39.7128 62.3077 40.0742C62.6272 40.4353 63.1736 40.4591 63.5206 40.1268Z" fill="black"/>
<path fill-rule="evenodd" clip-rule="evenodd" d="M56.7252 14.7176C57.8453 10.7421 60.0513 7.63215 63.4323 5.38629C63.8309 5.12126 63.9477 4.57056 63.69 4.15754C63.4357 3.74451 62.9031 3.62425 62.5045 3.88929C58.7627 6.37599 56.3163 9.81752 55.0759 14.2192C54.9419 14.6902 55.2065 15.1847 55.66 15.3221C56.117 15.4597 56.5946 15.1886 56.7252 14.7176Z" fill="black"/>
<path fill-rule="evenodd" clip-rule="evenodd" d="M18.1254 9.32206C17.4588 10.1342 16.861 11.0094 16.3525 11.9411C16.1258 12.3559 15.7273 13.2375 15.6654 13.9934C15.5967 14.7989 15.8612 15.4784 16.5415 15.8362C17.4451 16.3108 18.1666 16.2614 18.7232 15.9743C19.2591 15.6986 19.6783 15.1567 19.9428 14.4303C20.4478 13.0418 20.3722 10.9198 20.1077 9.70877C20.8189 8.94888 21.5988 8.25978 22.4337 7.64717C28.6522 3.08465 37.7739 4.76701 44.793 11.5889C47.2495 13.9774 48.4314 18.9935 49.0464 24.4056C50.0049 32.8323 49.4586 42.2441 49.383 45.0015C49.3659 45.6824 49.4277 46.0865 49.4621 46.1673C49.6235 46.5643 49.9087 46.6675 50.108 46.7066C50.3966 46.76 50.6267 46.7031 50.8122 46.6034C51.063 46.4668 51.2692 46.2263 51.3654 45.8553C51.417 45.6504 51.4307 45.3651 51.4238 45.0609C51.4169 44.8499 51.3757 44.6194 51.4169 44.4682C51.6849 43.4999 52.0079 42.5543 52.3239 41.6019C53.3787 38.4005 54.7427 35.4005 56.2578 32.404C61.0712 22.8826 65.7265 12.8223 73.6182 5.56816C73.9721 5.24265 74.0065 4.67985 73.6904 4.31272C73.3777 3.94558 72.8349 3.91213 72.4776 4.238C64.4278 11.6355 59.6454 21.8691 54.7358 31.579C53.4474 34.1279 52.2655 36.6805 51.2829 39.3504C51.3826 34.6274 51.3448 28.0897 50.5099 22.3052C49.7678 17.1607 48.3558 12.6142 45.968 10.2922C38.2789 2.81891 28.2502 1.19775 21.4407 6.19607C20.7124 6.73112 20.0184 7.31954 19.3725 7.95776C15.8097 1.29631 8.18252 -1.37363 1.44175 1.81249C1.00885 2.01633 0.819893 2.54427 1.01573 2.99074C1.21499 3.43721 1.72345 3.6343 2.15635 3.43046C8.23061 0.559539 15.1192 3.12165 18.1254 9.32206ZM18.6235 11.5523C18.3452 11.9592 18.0875 12.3812 17.8471 12.8173C17.7199 13.0514 17.5 13.5014 17.4073 13.9419C17.3867 14.045 17.3832 14.2065 17.3832 14.2812C17.6203 14.4022 17.8058 14.4605 17.957 14.3819C18.1459 14.2852 18.2422 14.0575 18.3349 13.8031C18.5686 13.1649 18.6441 12.3189 18.6235 11.5523Z" fill="black"/>
</svg>
