<svg width="52" height="52" viewBox="0 0 52 52" fill="none" xmlns="http://www.w3.org/2000/svg">
<path fill-rule="evenodd" clip-rule="evenodd" d="M9.80483 31.3431C9.80873 25.7429 8.49739 20.6889 7.35762 15.3032C7.13488 14.2515 6.11592 13.592 5.08154 13.8251C4.04655 14.0585 3.3884 15.1034 3.61052 16.1553C4.69143 21.2621 5.97545 26.056 5.97281 31.3752C5.97204 32.4511 6.83111 33.3188 7.88805 33.307C8.94589 33.3017 9.80468 32.4189 9.80483 31.3431Z" fill="black"/>
<path fill-rule="evenodd" clip-rule="evenodd" d="M22.9651 38.8268C29.6619 28.5752 35.3061 16.1556 38.4777 4.26825C38.754 3.23011 38.1541 2.16498 37.1392 1.89391C36.1242 1.62284 35.0745 2.24087 34.7983 3.27901C31.731 14.7727 26.2725 26.7844 19.7957 36.6923C19.2109 37.5902 19.446 38.7962 20.3202 39.3837C21.1944 39.9712 22.3802 39.7246 22.9651 38.8268Z" fill="black"/>
<path fill-rule="evenodd" clip-rule="evenodd" d="M27.3585 47.0728C35.5453 46.3608 43.1125 42.0226 49.4994 37.0008C50.3317 36.3419 50.4905 35.1274 49.8547 34.2902C49.2168 33.4468 48.023 33.2971 47.1892 33.9498C41.3731 38.526 34.5226 42.5734 27.0665 43.223C26.0204 43.3137 25.2372 44.2516 25.3176 45.3116C25.3974 46.3718 26.313 47.1634 27.3585 47.0728Z" fill="black"/>
</svg>
