<svg width="37" height="37" viewBox="0 0 37 37" fill="none" xmlns="http://www.w3.org/2000/svg">
<path fill-rule="evenodd" clip-rule="evenodd" d="M33.5419 17.2081C32.4238 21.8676 32.497 26.3547 32.363 31.0809C32.337 32.0039 33.0444 32.7712 33.9422 32.799C34.8406 32.8268 35.5904 32.0984 35.617 31.1754C35.7439 26.6939 35.6414 22.4292 36.7025 18.0033C36.9173 17.1081 36.383 16.2018 35.5106 15.9849C34.6388 15.7625 33.7562 16.3129 33.5419 17.2081Z" fill="black"/>
<path fill-rule="evenodd" clip-rule="evenodd" d="M24.0439 8.17855C16.4589 15.2845 9.31228 24.4255 4.31713 33.6555C3.88152 34.4618 4.16526 35.4793 4.95077 35.9241C5.73628 36.369 6.72792 36.0798 7.16353 35.2736C11.9938 26.3494 18.9055 17.5086 26.2398 10.6417C26.9027 10.0189 26.9488 8.96251 26.3429 8.28416C25.7369 7.60581 24.7068 7.5558 24.0439 8.17855Z" fill="black"/>
<path fill-rule="evenodd" clip-rule="evenodd" d="M22.1205 0.416431C15.1834 -0.75681 8.03305 1.2449 1.7252 4.07514C0.902271 4.44769 0.52687 5.43185 0.886528 6.27146C1.24673 7.11664 2.20746 7.50034 3.03039 7.13335C8.77516 4.55333 15.2723 2.64054 21.5905 3.70813C22.4769 3.85827 23.315 3.24108 23.4609 2.33474C23.6074 1.42839 23.0063 0.566561 22.1205 0.416431Z" fill="black"/>
</svg>
