<svg width="48" height="47" viewBox="0 0 48 47" fill="none" xmlns="http://www.w3.org/2000/svg">
<path fill-rule="evenodd" clip-rule="evenodd" d="M43.7226 22.3328C42.2319 28.4062 42.3295 34.2549 42.1508 40.4153C42.1161 41.6184 43.0593 42.6186 44.2564 42.6549C45.4543 42.6911 46.4539 41.7416 46.4894 40.5386C46.6586 34.6971 46.5219 29.1383 47.9367 23.3693C48.2232 22.2024 47.5107 21.0211 46.3476 20.7384C45.1852 20.4485 44.0084 21.166 43.7226 22.3328Z" fill="black"/>
<path fill-rule="evenodd" clip-rule="evenodd" d="M31.0572 10.5628C20.9436 19.8251 11.4145 31.74 4.75415 43.7708C4.17332 44.8217 4.55164 46.1481 5.59902 46.7279C6.64639 47.3077 7.96862 46.9308 8.54945 45.8799C14.9899 34.2477 24.2058 22.7241 33.9852 13.7734C34.8691 12.9617 34.9306 11.5847 34.1226 10.7005C33.3146 9.81628 31.9411 9.7511 31.0572 10.5628Z" fill="black"/>
<path fill-rule="evenodd" clip-rule="evenodd" d="M28.4952 0.445409C19.2453 -1.08381 9.71115 1.52525 1.30032 5.21423C0.203037 5.69982 -0.297519 6.98259 0.182045 8.07696C0.662333 9.17858 1.94336 9.6787 3.04065 9.20036C10.7007 5.83752 19.3639 3.34435 27.7885 4.73587C28.9704 4.93156 30.0879 4.12711 30.2825 2.94576C30.4778 1.76442 29.6764 0.641091 28.4952 0.445409Z" fill="black"/>
</svg>
