<svg width="51" height="52" viewBox="0 0 51 52" fill="none" xmlns="http://www.w3.org/2000/svg">
<path fill-rule="evenodd" clip-rule="evenodd" d="M9.54108 31.5465C9.55595 25.9622 8.26613 20.9252 7.14701 15.5572C6.92831 14.5089 5.91965 13.8534 4.89395 14.0881C3.86763 14.3229 3.21325 15.3662 3.43134 16.4147C4.49266 21.5047 5.75592 26.2823 5.74285 31.5864C5.73997 32.6593 6.58975 33.5228 7.63737 33.5088C8.68588 33.5012 9.53882 32.6192 9.54108 31.5465Z" fill="black"/>
<path fill-rule="evenodd" clip-rule="evenodd" d="M22.4965 39.0114C29.1396 28.7847 34.7457 16.4002 37.9056 4.55117C38.1808 3.51637 37.5896 2.45649 36.5864 2.18853C35.5831 1.92057 34.5438 2.53842 34.2686 3.57322C31.2127 15.0299 25.7909 27.0076 19.3662 36.8915C18.7861 37.7872 19.0162 38.9882 19.8796 39.5716C20.7431 40.1551 21.9164 39.9071 22.4965 39.0114Z" fill="black"/>
<path fill-rule="evenodd" clip-rule="evenodd" d="M26.8659 47.2388C34.9527 46.5142 42.4346 42.1871 48.7521 37.1829C49.5754 36.5264 49.7346 35.319 49.1083 34.4882C48.48 33.6513 47.3012 33.505 46.4765 34.1553C40.7236 38.7155 33.9501 42.7521 26.585 43.4131C25.5517 43.5054 24.7764 44.4392 24.8537 45.4926C24.9304 46.5461 25.8332 47.3309 26.8659 47.2388Z" fill="black"/>
</svg>
