<svg width="99" height="59" viewBox="0 0 99 59" fill="none" xmlns="http://www.w3.org/2000/svg">
<path fill-rule="evenodd" clip-rule="evenodd" d="M71.3804 56.1291C80.2194 56.3426 89.2522 55.9156 97.7037 58.9437C98.2075 59.1222 98.7616 58.8621 98.9437 58.3575C99.122 57.8528 98.8624 57.2977 98.3586 57.1152C89.7095 54.0172 80.4713 54.4054 71.4269 54.188C70.8922 54.1725 70.4465 54.5995 70.4349 55.1353C70.4194 55.671 70.8457 56.1136 71.3804 56.1291Z" fill="black"/>
<path fill-rule="evenodd" clip-rule="evenodd" d="M70.586 43.2726C73.3412 40.7329 76.3483 38.8303 79.9831 37.8873C80.5023 37.753 80.8123 37.223 80.6806 36.7044C80.5449 36.1857 80.0141 35.874 79.4987 36.0083C75.5461 37.0332 72.2717 39.0838 69.2763 41.8436C68.881 42.2062 68.8539 42.8207 69.2181 43.2152C69.5785 43.6092 70.1947 43.6352 70.586 43.2726Z" fill="black"/>
<path fill-rule="evenodd" clip-rule="evenodd" d="M62.9214 15.5451C64.1846 11.2068 66.6724 7.81306 70.4855 5.36225C70.935 5.07303 71.0667 4.47208 70.7761 4.02137C70.4894 3.57065 69.8887 3.43942 69.4392 3.72864C65.2192 6.44226 62.4602 10.1979 61.0613 15.0012C60.9102 15.5152 61.2086 16.0549 61.7201 16.2047C62.2355 16.355 62.7741 16.0591 62.9214 15.5451Z" fill="black"/>
<path fill-rule="evenodd" clip-rule="evenodd" d="M19.3848 9.65746C18.6331 10.5438 17.9588 11.4988 17.3853 12.5155C17.1295 12.9682 16.68 13.9302 16.6103 14.7551C16.5328 15.634 16.8311 16.3755 17.5984 16.7661C18.6175 17.284 19.4313 17.23 20.0591 16.9167C20.6636 16.6158 21.1363 16.0246 21.4347 15.2318C22.0043 13.7166 21.9191 11.401 21.6207 10.0795C22.4228 9.25024 23.3025 8.49825 24.2441 7.82974C31.258 2.85088 41.5463 4.68676 49.4631 12.1312C52.2337 14.7377 53.5668 20.2115 54.2604 26.1174C55.3415 35.313 54.7254 45.5837 54.6401 48.5927C54.6208 49.3358 54.6905 49.7768 54.7293 49.8649C54.9114 50.2982 55.233 50.4107 55.4578 50.4534C55.7833 50.5117 56.0429 50.4496 56.2521 50.3409C56.535 50.1918 56.7676 49.9294 56.8761 49.5244C56.9342 49.3008 56.9497 48.9895 56.9419 48.6576C56.9342 48.4274 56.8877 48.1758 56.9342 48.0108C57.2364 46.9541 57.6007 45.9222 57.9572 44.8829C59.1468 41.3894 60.6852 38.1156 62.3941 34.8457C67.8231 24.4555 73.0738 13.4771 81.9748 5.56102C82.3739 5.2058 82.4127 4.59164 82.0562 4.19101C81.7036 3.79037 81.0913 3.75387 80.6883 4.10947C71.609 12.182 66.2149 23.3494 60.6775 33.9454C59.2243 36.7269 57.8913 39.5124 56.783 42.4259C56.8954 37.272 56.8528 30.1378 55.9111 23.8254C55.0741 18.2114 53.4815 13.25 50.7883 10.7161C42.1159 2.56088 30.8046 0.791797 23.1242 6.24622C22.3027 6.8301 21.52 7.47221 20.7915 8.16867C16.773 0.899343 8.17038 -2.01423 0.567511 1.46262C0.0792531 1.68507 -0.133872 2.26119 0.087007 2.7484C0.311761 3.23561 0.885249 3.45069 1.37351 3.22824C8.22462 0.0953441 15.9942 2.89126 19.3848 9.65746ZM19.9467 12.0912C19.6328 12.5353 19.3422 12.9957 19.0709 13.4717C18.9276 13.7271 18.6795 14.2182 18.5749 14.6988C18.5517 14.8114 18.5478 14.9877 18.5478 15.0692C18.8152 15.2012 19.0244 15.2649 19.1949 15.1791C19.408 15.0735 19.5166 14.825 19.6212 14.5474C19.8847 13.851 19.97 12.9278 19.9467 12.0912Z" fill="black"/>
</svg>
