<svg width="48" height="47" viewBox="0 0 48 47" fill="none" xmlns="http://www.w3.org/2000/svg">
<path fill-rule="evenodd" clip-rule="evenodd" d="M43.7226 22.3329C42.2318 28.4063 42.3294 34.255 42.1508 40.4154C42.1161 41.6185 43.0593 42.6187 44.2564 42.6549C45.4542 42.6912 46.4539 41.7417 46.4893 40.5386C46.6586 34.6971 46.5218 29.1383 47.9367 23.3693C48.2231 22.2025 47.5106 21.0211 46.3475 20.7385C45.1851 20.4486 44.0083 21.166 43.7226 22.3329Z" fill="black"/>
<path fill-rule="evenodd" clip-rule="evenodd" d="M31.0572 10.5629C20.9436 19.8253 11.4145 31.7401 4.75415 43.771C4.17332 44.8219 4.55164 46.1482 5.59902 46.728C6.64639 47.3078 7.96862 46.9309 8.54945 45.88C14.9899 34.2478 24.2058 22.7242 33.9852 13.7735C34.8691 12.9618 34.9306 11.5848 34.1226 10.7006C33.3146 9.81641 31.9411 9.75122 31.0572 10.5629Z" fill="black"/>
<path fill-rule="evenodd" clip-rule="evenodd" d="M28.4952 0.445409C19.2453 -1.08381 9.71115 1.52525 1.30032 5.21423C0.203037 5.69982 -0.297519 6.98259 0.182045 8.07696C0.662333 9.17858 1.94336 9.6787 3.04065 9.20036C10.7007 5.83752 19.3639 3.34435 27.7885 4.73587C28.9704 4.93156 30.0879 4.12711 30.2825 2.94576C30.4778 1.76442 29.6764 0.641091 28.4952 0.445409Z" fill="black"/>
</svg>
