<svg width="89" height="55" viewBox="0 0 89 55" fill="none" xmlns="http://www.w3.org/2000/svg">
<path fill-rule="evenodd" clip-rule="evenodd" d="M63.8706 51.5461C71.7121 51.7399 79.7255 51.3523 87.2232 54.1002C87.6701 54.2622 88.1616 54.0262 88.3232 53.5682C88.4814 53.1102 88.251 52.6065 87.8041 52.4409C80.1311 49.6297 71.9356 49.982 63.9119 49.7847C63.4375 49.7706 63.0422 50.1581 63.0319 50.6443C63.0181 51.1304 63.3962 51.532 63.8706 51.5461Z" fill="black"/>
<path fill-rule="evenodd" clip-rule="evenodd" d="M63.1654 39.8794C65.6097 37.5747 68.2775 35.848 71.5022 34.9923C71.9629 34.8704 72.2379 34.3895 72.121 33.9188C72.0007 33.4482 71.5297 33.1653 71.0725 33.2872C67.5658 34.2172 64.6609 36.0781 62.0034 38.5826C61.6527 38.9116 61.6287 39.4693 61.9518 39.8273C62.2715 40.1849 62.8182 40.2084 63.1654 39.8794Z" fill="black"/>
<path fill-rule="evenodd" clip-rule="evenodd" d="M56.3659 14.7178C57.4867 10.7809 59.6937 7.70112 63.0765 5.47708C63.4753 5.21462 63.5922 4.66927 63.3344 4.26025C63.08 3.85124 62.5471 3.73215 62.1483 3.99461C58.4045 6.45716 55.9568 9.86527 54.7158 14.2242C54.5817 14.6907 54.8464 15.1804 55.3002 15.3164C55.7575 15.4527 56.2353 15.1842 56.3659 14.7178Z" fill="black"/>
<path fill-rule="evenodd" clip-rule="evenodd" d="M17.743 9.37482C17.0761 10.1791 16.4779 11.0457 15.9691 11.9684C15.7422 12.3792 15.3434 13.2521 15.2816 14.0007C15.2128 14.7983 15.4775 15.4712 16.1582 15.8256C17.0623 16.2956 17.7842 16.2466 18.3411 15.9623C18.8774 15.6893 19.2968 15.1527 19.5615 14.4334C20.0668 13.0584 19.9912 10.957 19.7265 9.75777C20.4381 9.00527 21.2185 8.32287 22.0538 7.71623C28.2761 3.19809 37.4032 4.86408 44.4264 11.6196C46.8844 13.9849 48.067 18.9522 48.6823 24.3116C49.6414 32.6563 49.0948 41.9765 49.0192 44.7071C49.002 45.3814 49.0639 45.7816 49.0983 45.8616C49.2598 46.2548 49.5452 46.3569 49.7445 46.3957C50.0333 46.4485 50.2636 46.3922 50.4493 46.2935C50.7002 46.1582 50.9065 45.9201 51.0028 45.5526C51.0543 45.3497 51.068 45.0672 51.0612 44.766C51.0543 44.5571 51.013 44.3288 51.0543 44.1791C51.3224 43.2201 51.6456 42.2837 51.9618 41.3406C53.0172 38.1704 54.382 35.1995 55.898 32.2322C60.7143 22.8035 65.3723 12.841 73.2687 5.65744C73.6228 5.33509 73.6572 4.77777 73.341 4.41421C73.0281 4.05064 72.485 4.01752 72.1274 4.34022C64.0729 11.6658 59.2876 21.7998 54.3751 31.4152C53.086 33.9394 51.9034 36.4671 50.9202 39.111C51.0199 34.434 50.9821 27.9599 50.1467 22.2317C49.4042 17.1372 47.9913 12.6349 45.6021 10.3355C37.9085 2.93493 27.8739 1.32955 21.0603 6.27924C20.3315 6.80908 19.6372 7.39178 18.9909 8.02379C15.426 1.42714 7.79424 -1.21682 1.04947 1.9383C0.616315 2.14016 0.427245 2.66297 0.623194 3.10509C0.822581 3.54722 1.33134 3.7424 1.76449 3.54053C7.84235 0.697544 14.735 3.23473 17.743 9.37482ZM18.2414 11.5833C17.963 11.9863 17.7051 12.4042 17.4645 12.8361C17.3373 13.0679 17.1173 13.5135 17.0245 13.9497C17.0038 14.0518 17.0004 14.2118 17.0004 14.2858C17.2376 14.4055 17.4232 14.4633 17.5745 14.3855C17.7636 14.2896 17.8599 14.0642 17.9527 13.8123C18.1864 13.1803 18.2621 12.3425 18.2414 11.5833Z" fill="black"/>
</svg>
