<svg width="50" height="45" viewBox="0 0 50 45" fill="none" xmlns="http://www.w3.org/2000/svg">
<path d="M48.1854 29.3059C46.3172 29.3059 34.2425 29.3059 32.7908 29.3059C31.2833 29.3059 30.0612 30.5297 30.0612 32.0393C30.0612 33.5488 31.2832 34.7726 32.7908 34.7726H34.0732L29.465 37.6808L22.2306 33.1152C20.9554 32.3106 19.27 32.6932 18.466 33.9704C17.6624 35.2475 18.0447 36.9353 19.32 37.7402L28.0098 43.2243C28.8989 43.7854 30.0312 43.7856 30.9204 43.2243L44.3123 34.7728H48.1855L48.1854 29.3059Z" fill="#FFDB77"/>
<path d="M27.812 17.8545C26.1902 17.8498 24.874 19.1649 24.874 20.7878C24.874 19.165 23.5578 17.85 21.9359 17.8545C19.3853 17.8619 18.0459 20.9483 19.8273 22.8139L19.8265 22.8142L23.8414 26.9929C24.4051 27.5794 25.3428 27.5794 25.9063 26.9929L29.9214 22.8142L29.9205 22.8139C31.7045 20.9457 30.3591 17.8617 27.812 17.8545Z" fill="#FF7876"/>
<path d="M1.5625 15.9812C3.4307 15.9812 15.5053 15.9812 16.9571 15.9812C18.4646 15.9812 19.6867 14.7574 19.6867 13.2478C19.6867 11.7382 18.4647 10.5144 16.9571 10.5144H15.6748L20.2829 7.60625L27.5174 12.1719C28.7926 12.9765 30.478 12.5938 31.2818 11.3167C32.0855 10.0395 31.7032 8.35175 30.4278 7.5468L21.7381 2.06273C20.8489 1.50155 19.7167 1.50155 18.8274 2.06273L5.43577 10.5144H1.5625V15.9812Z" fill="#FFDB77"/>
<path d="M48.1863 28.2417H32.7915C30.7004 28.2417 28.9993 29.9452 28.9993 32.0393C28.9993 33.5087 29.8371 34.786 31.0594 35.4171L29.4657 36.423L22.7977 32.2149C21.029 31.0984 18.6824 31.6318 17.5677 33.4028C16.4502 35.1782 16.9804 37.5212 18.754 38.6405L27.4436 44.1244C28.6786 44.904 30.2515 44.9047 31.4875 44.1244L44.6198 35.8367H48.1861C48.7732 35.8367 49.2488 35.3602 49.2488 34.7725V29.3057C49.249 28.7182 48.7732 28.2417 48.1863 28.2417ZM47.1236 33.7085H44.313C44.1125 33.7085 43.916 33.7652 43.7464 33.8724L30.3542 42.3241C29.8218 42.6604 29.1099 42.6605 28.5772 42.324L19.8873 36.84C19.1079 36.3482 18.8745 35.3187 19.3658 34.5378C19.8562 33.7587 20.8877 33.5253 21.6647 34.0157L28.8992 38.5813C29.2454 38.7998 29.6863 38.7998 30.0325 38.5813L34.381 35.8368H35.7944C36.3814 35.8368 36.857 35.3604 36.857 34.7727C36.857 34.1849 36.3814 33.7085 35.7944 33.7085C34.102 33.7085 34.4661 33.7085 32.7916 33.7085C31.8726 33.7085 31.1248 32.9597 31.1248 32.0393C31.1248 31.1188 31.8725 30.3701 32.7916 30.3701H47.1236V33.7085Z" fill="#414042"/>
<path d="M27.8147 16.7903C27.8108 16.7903 27.8067 16.7903 27.8029 16.7903C26.6845 16.7903 25.6382 17.2475 24.8738 18.0718C24.108 17.246 23.0612 16.7903 21.9446 16.7903C21.9408 16.7903 21.9367 16.7903 21.9328 16.7903C18.4536 16.8002 16.6573 20.9735 19.0272 23.5152C19.0381 23.5277 19.0493 23.5399 19.0608 23.552L23.0755 27.7306C24.0566 28.7518 25.6872 28.7554 26.672 27.7306L30.6866 23.552C30.6981 23.5399 30.7093 23.5277 30.7202 23.5152C33.0806 20.9834 31.3139 16.8002 27.8147 16.7903ZM29.1519 22.0784C29.1435 22.0872 29.1354 22.096 29.1274 22.1051L25.1404 26.255C24.9949 26.4062 24.7529 26.4067 24.6072 26.255L20.6202 22.1051C20.6121 22.096 20.604 22.0872 20.5956 22.0784C19.472 20.9016 20.2933 18.9232 21.9388 18.9185C21.9406 18.9185 21.9423 18.9185 21.9443 18.9185C22.9759 18.9185 23.8109 19.7544 23.8109 20.7876C23.8109 21.3753 24.2866 21.8518 24.8736 21.8518C25.4607 21.8518 25.9363 21.3753 25.9363 20.7876C25.9363 19.7545 26.7712 18.9185 27.8031 18.9185C27.8049 18.9185 27.8066 18.9185 27.8084 18.9185C29.451 18.9232 30.2786 20.8985 29.1519 22.0784Z" fill="#414042"/>
<path d="M20.7485 13.2479C20.7485 11.7785 19.9107 10.5012 18.6883 9.87006L20.2821 8.8642L26.95 13.0722C28.7188 14.1886 31.0653 13.6556 32.18 11.8843C33.2975 10.109 32.7673 7.76597 30.9937 6.64674L22.3041 1.16281C21.0691 0.38326 19.4962 0.382551 18.2603 1.16281L5.12807 9.45035H1.56171C0.97468 9.45035 0.499023 9.92682 0.499023 10.5145V15.9813C0.499023 16.569 0.97468 17.0455 1.56171 17.0455H16.9563C19.0474 17.0455 20.7485 15.3418 20.7485 13.2479ZM16.9563 14.9171H2.62439V11.5787H5.43497C5.63546 11.5787 5.83199 11.522 6.00159 11.4148L19.3936 2.96311C19.9261 2.62683 20.638 2.62669 21.1707 2.96326L29.8605 8.44718C30.6399 8.93898 30.8733 9.96854 30.3821 10.7494C29.892 11.5279 28.8606 11.7622 28.0831 11.2715L20.8487 6.7059C20.5025 6.48739 20.0616 6.48739 19.7154 6.7059L15.3669 9.45035H13.9536C13.3665 9.45035 12.8909 9.92682 12.8909 10.5145C12.8909 11.1022 13.3665 11.5787 13.9536 11.5787C15.6459 11.5787 15.2818 11.5787 16.9563 11.5787C17.8753 11.5787 18.6231 12.3275 18.6231 13.2479C18.6231 14.1682 17.8754 14.9171 16.9563 14.9171Z" fill="#414042"/>
</svg>
