<svg width="43" height="42" viewBox="0 0 43 42" fill="none" xmlns="http://www.w3.org/2000/svg">
<path fill-rule="evenodd" clip-rule="evenodd" d="M38.5075 20.354C37.203 25.6717 37.2884 30.7928 37.132 36.1867C37.1017 37.2401 37.927 38.1158 38.9746 38.1476C40.0228 38.1793 40.8975 37.348 40.9285 36.2946C41.0767 31.1799 40.957 26.3127 42.1951 21.2615C42.4457 20.2398 41.8223 19.2054 40.8045 18.9579C39.7873 18.7041 38.7575 19.3323 38.5075 20.354Z" fill="black"/>
<path fill-rule="evenodd" clip-rule="evenodd" d="M27.4258 10.0481C18.5764 18.158 10.2385 28.5904 4.41064 39.1244C3.90242 40.0445 4.23345 41.2059 5.1499 41.7135C6.06636 42.2212 7.2233 41.8912 7.73153 40.971C13.367 30.7861 21.4309 20.6963 29.9878 12.8593C30.7612 12.1485 30.815 10.9428 30.1081 10.1687C29.4011 9.39447 28.1992 9.3374 27.4258 10.0481Z" fill="black"/>
<path fill-rule="evenodd" clip-rule="evenodd" d="M25.1835 1.18956C17.0899 -0.149427 8.74749 2.13507 1.38802 5.36514C0.427901 5.79032 -0.0100851 6.91352 0.409534 7.87175C0.829785 8.83633 1.95068 9.27423 2.91081 8.8554C9.61332 5.91089 17.1937 3.72788 24.5652 4.94629C25.5993 5.11763 26.5772 4.41325 26.7474 3.37887C26.9183 2.34449 26.217 1.3609 25.1835 1.18956Z" fill="black"/>
</svg>
