<svg width="43" height="43" viewBox="0 0 43 43" fill="none" xmlns="http://www.w3.org/2000/svg">
<path fill-rule="evenodd" clip-rule="evenodd" d="M39.0262 20.2637C37.7209 25.703 37.8064 30.9411 37.65 36.4582C37.6196 37.5357 38.4454 38.4315 39.4935 38.4639C40.5423 38.4964 41.4175 37.6461 41.4485 36.5686C41.5967 31.337 41.477 26.3586 42.7158 21.192C42.9665 20.1469 42.3427 19.0889 41.3244 18.8358C40.3067 18.5762 39.2763 19.2187 39.0262 20.2637Z" fill="black"/>
<path fill-rule="evenodd" clip-rule="evenodd" d="M27.9381 9.72294C19.0838 18.0182 10.7411 28.689 4.90993 39.4638C4.40141 40.4049 4.73263 41.5928 5.6496 42.1121C6.56658 42.6313 7.72418 42.2938 8.2327 41.3526C13.8713 30.9349 21.9398 20.6145 30.5016 12.5983C31.2754 11.8714 31.3293 10.6381 30.6219 9.84623C29.9146 9.05435 28.712 8.99597 27.9381 9.72294Z" fill="black"/>
<path fill-rule="evenodd" clip-rule="evenodd" d="M25.6932 0.661733C17.595 -0.707864 9.24805 1.62886 1.8845 4.93277C0.923849 5.36766 0.48562 6.51653 0.905472 7.49667C1.32596 8.4833 2.44748 8.93121 3.40813 8.5028C10.1144 5.49099 17.6989 3.25807 25.0745 4.50434C26.1092 4.6796 27.0876 3.95912 27.258 2.90109C27.4289 1.84306 26.7273 0.836989 25.6932 0.661733Z" fill="black"/>
</svg>
