<svg width="75" height="46" viewBox="0 0 75 46" fill="none" xmlns="http://www.w3.org/2000/svg">
<path fill-rule="evenodd" clip-rule="evenodd" d="M53.5351 43.31C60.1644 43.4738 66.9391 43.1462 73.2778 45.4693C73.6556 45.6063 74.0712 45.4067 74.2078 45.0196C74.3415 44.6324 74.1468 44.2065 73.7689 44.0665C67.282 41.6898 60.3534 41.9877 53.57 41.8209C53.1689 41.809 52.8347 42.1366 52.826 42.5476C52.8144 42.9586 53.134 43.2981 53.5351 43.31Z" fill="black"/>
<path fill-rule="evenodd" clip-rule="evenodd" d="M52.9392 33.4468C55.0057 31.4983 57.261 30.0386 59.9873 29.3151C60.3767 29.2121 60.6092 28.8055 60.5104 28.4076C60.4087 28.0097 60.0105 27.7705 59.624 27.8736C56.6594 28.6599 54.2035 30.2331 51.9568 32.3504C51.6603 32.6286 51.64 33.1001 51.9132 33.4027C52.1835 33.705 52.6456 33.7249 52.9392 33.4468Z" fill="black"/>
<path fill-rule="evenodd" clip-rule="evenodd" d="M47.1907 12.1746C48.1382 8.8463 50.0041 6.24261 52.8639 4.36236C53.2011 4.14047 53.2999 3.67942 53.0819 3.33363C52.8668 2.98784 52.4163 2.88716 52.0792 3.10905C48.9141 5.19094 46.8448 8.07222 45.7956 11.7574C45.6822 12.1517 45.9061 12.5657 46.2897 12.6807C46.6763 12.7959 47.0802 12.569 47.1907 12.1746Z" fill="black"/>
<path fill-rule="evenodd" clip-rule="evenodd" d="M14.5383 7.65762C13.9744 8.33757 13.4687 9.07024 13.0386 9.85027C12.8468 10.1975 12.5097 10.9356 12.4573 11.5685C12.3992 12.2428 12.623 12.8116 13.1984 13.1113C13.9628 13.5086 14.5731 13.4672 15.044 13.2268C15.4973 12.996 15.8519 12.5424 16.0757 11.9342C16.5029 10.7718 16.439 8.9952 16.2152 7.98137C16.8168 7.3452 17.4765 6.76828 18.1827 6.25541C23.4431 2.4357 31.1594 3.84416 37.097 9.55542C39.175 11.5551 40.1748 15.7545 40.695 20.2855C41.5058 27.3403 41.0437 35.2198 40.9798 37.5283C40.9653 38.0983 41.0176 38.4367 41.0466 38.5043C41.1832 38.8367 41.4245 38.923 41.593 38.9558C41.8371 39.0005 42.0318 38.9528 42.1888 38.8694C42.4009 38.755 42.5754 38.5537 42.6567 38.2431C42.7003 38.0715 42.7119 37.8327 42.7061 37.578C42.7003 37.4014 42.6654 37.2084 42.7003 37.0818C42.927 36.2711 43.2002 35.4795 43.4676 34.6822C44.3598 32.002 45.5136 29.4903 46.7953 26.9817C50.867 19.0105 54.805 10.588 61.4808 4.51488C61.7802 4.24236 61.8093 3.77119 61.5419 3.46382C61.2774 3.15646 60.8182 3.12846 60.5159 3.40127C53.7065 9.59443 49.6609 18.1619 45.5078 26.291C44.4179 28.425 43.4182 30.5619 42.587 32.7972C42.6712 28.8431 42.6393 23.3698 41.933 18.5271C41.3053 14.2201 40.1108 10.4138 38.0909 8.46981C31.5866 2.21321 23.1031 0.855992 17.3428 5.04056C16.7267 5.4885 16.1396 5.98112 15.5932 6.51544C12.5794 0.938499 6.1274 -1.29676 0.425237 1.37064C0.0590432 1.5413 -0.100801 1.98329 0.0648587 2.35707C0.233424 2.73085 0.663541 2.89586 1.02974 2.7252C6.16808 0.321682 11.9952 2.46667 14.5383 7.65762ZM14.9597 9.52473C14.7242 9.86546 14.5063 10.2187 14.3028 10.5838C14.1953 10.7798 14.0093 11.1566 13.9308 11.5253C13.9134 11.6117 13.9105 11.7469 13.9105 11.8094C14.111 11.9107 14.2679 11.9595 14.3958 11.8937C14.5557 11.8127 14.6371 11.6221 14.7155 11.4091C14.9132 10.8748 14.9771 10.1666 14.9597 9.52473Z" fill="black"/>
</svg>
