<svg width="53" height="28" viewBox="0 0 53 28" fill="none" xmlns="http://www.w3.org/2000/svg">
<path fill-rule="evenodd" clip-rule="evenodd" d="M49.7464 4.42188C40.0336 22.8963 20.6312 30.4072 2.61068 20.0065C2.01077 19.6602 1.25002 19.8767 0.911449 20.4828C0.572876 21.0997 0.784507 21.8789 1.38442 22.2253C20.7 33.3835 41.5318 25.4288 51.9429 5.63403C52.2688 5.01713 52.0413 4.23779 51.4351 3.90228C50.8288 3.5776 50.0723 3.80499 49.7464 4.42188Z" fill="#009BA5"/>
<path d="M17.7757 12.0835C19.782 12.0835 21.4086 10.4198 21.4086 8.36743C21.4086 6.31509 19.782 4.65137 17.7757 4.65137C15.7693 4.65137 14.1428 6.31509 14.1428 8.36743C14.1428 10.4198 15.7693 12.0835 17.7757 12.0835Z" fill="#009BA5"/>
<path d="M32.8148 8.13037C34.782 8.13037 36.3767 6.49922 36.3767 4.48706C36.3767 2.4749 34.782 0.84375 32.8148 0.84375C30.8477 0.84375 29.2531 2.4749 29.2531 4.48706C29.2531 6.49922 30.8477 8.13037 32.8148 8.13037Z" fill="#009BA5"/>
</svg>
