<svg width="43" height="44" viewBox="0 0 43 44" fill="none" xmlns="http://www.w3.org/2000/svg">
<path fill-rule="evenodd" clip-rule="evenodd" d="M39.1331 21.1638C37.8286 26.6566 37.914 31.9461 37.7576 37.5176C37.7273 38.6057 38.5526 39.5103 39.6002 39.543C40.6483 39.5758 41.5231 38.7171 41.5541 37.629C41.7022 32.346 41.5825 27.3186 42.8206 22.1011C43.0712 21.0458 42.4478 19.9774 41.43 19.7218C40.4128 19.4596 39.3831 20.1085 39.1331 21.1638Z" fill="black"/>
<path fill-rule="evenodd" clip-rule="evenodd" d="M28.0521 10.5194C19.2028 18.896 10.865 29.6715 5.03723 40.5519C4.52901 41.5023 4.86004 42.7018 5.77648 43.2262C6.69292 43.7505 7.84985 43.4097 8.35807 42.4593C13.9934 31.9394 22.0572 21.5177 30.614 13.4229C31.3874 12.6888 31.4412 11.4435 30.7343 10.6439C30.0273 9.84421 28.8255 9.78526 28.0521 10.5194Z" fill="black"/>
<path fill-rule="evenodd" clip-rule="evenodd" d="M25.8075 1.36916C17.7141 -0.0139578 9.37198 2.34584 2.01274 5.68237C1.05265 6.12156 0.614679 7.28178 1.03428 8.2716C1.45452 9.26797 2.57539 9.7203 3.53548 9.28766C10.2378 6.24611 17.8179 3.99114 25.1891 5.24972C26.2233 5.4267 27.2011 4.69911 27.3713 3.63063C27.5422 2.56215 26.841 1.54615 25.8075 1.36916Z" fill="black"/>
</svg>
