<svg width="58" height="52" viewBox="0 0 58 52" fill="none" xmlns="http://www.w3.org/2000/svg">
<path d="M55.8859 33.8462C53.7064 33.8462 39.6193 33.8462 37.9256 33.8462C36.1669 33.8462 34.7411 35.2729 34.7411 37.0327C34.7411 38.7926 36.1667 40.2193 37.9256 40.2193H39.4217L34.0455 43.6097L25.6054 38.2871C24.1177 37.349 22.1513 37.7951 21.2134 39.284C20.2758 40.773 20.7218 42.7406 22.2097 43.679L32.3478 50.0723C33.3851 50.7265 34.706 50.7266 35.7435 50.0723L51.3673 40.2195H55.8861L55.8859 33.8462Z" fill="#FFDB77"/>
<path d="M32.1163 20.4961C30.2243 20.4906 28.6888 22.0237 28.6888 23.9158C28.6888 22.0239 27.1533 20.4908 25.2613 20.4961C22.2857 20.5047 20.7231 24.1029 22.8013 26.2778L22.8003 26.2781L27.4841 31.1496C28.1418 31.8334 29.2357 31.8334 29.8931 31.1496L34.5771 26.2781L34.5761 26.2778C36.6573 24.0999 35.0877 20.5045 32.1163 20.4961Z" fill="#FF7876"/>
<path d="M1.49121 18.3123C3.67078 18.3123 17.7579 18.3123 19.4516 18.3123C21.2103 18.3123 22.6361 16.8855 22.6361 15.1257C22.6361 13.3658 21.2105 11.9391 19.4516 11.9391H17.9556L23.3317 8.54875L31.7719 13.8713C33.2597 14.8094 35.226 14.3633 36.1638 12.8744C37.1014 11.3855 36.6554 9.41785 35.1675 8.47945L25.0294 2.08612C23.9921 1.4319 22.6711 1.4319 21.6337 2.08612L6.01004 11.9391H1.49121V18.3123Z" fill="#FFDB77"/>
<path d="M55.8865 32.6055H37.9259C35.4862 32.6055 33.5016 34.5915 33.5016 37.0327C33.5016 38.7457 34.479 40.2348 35.9051 40.9706L34.0458 42.1432L26.2664 37.2375C24.2029 35.9358 21.4652 36.5576 20.1648 38.6223C18.861 40.692 19.4796 43.4236 21.5487 44.7284L31.6867 51.1216C33.1275 52.0304 34.9626 52.0312 36.4045 51.1216L51.7255 41.4597H55.8863C56.5712 41.4597 57.1261 40.9043 57.1261 40.2191V33.8459C57.1263 33.1609 56.5712 32.6055 55.8865 32.6055ZM54.6467 38.9786H51.3676C51.1337 38.9786 50.9044 39.0448 50.7066 39.1697L35.0824 49.0227C34.4612 49.4148 33.6307 49.415 33.0091 49.0226L22.871 42.6294C21.9617 42.0561 21.6894 40.8558 22.2625 39.9455C22.8346 39.0372 24.0381 38.7651 24.9446 39.3368L33.3849 44.6594C33.7887 44.9141 34.3031 44.9141 34.707 44.6594L39.7803 41.4599H41.4292C42.1141 41.4599 42.669 40.9044 42.669 40.2193C42.669 39.5341 42.1141 38.9786 41.4292 38.9786C39.4548 38.9786 39.8796 38.9786 37.926 38.9786C36.8538 38.9786 35.9813 38.1057 35.9813 37.0327C35.9813 35.9596 36.8537 35.0867 37.926 35.0867H54.6467V38.9786Z" fill="#414042"/>
<path d="M32.1189 19.2554C32.1144 19.2554 32.1096 19.2554 32.1052 19.2554C30.8004 19.2554 29.5798 19.7883 28.688 20.7494C27.7946 19.7867 26.5734 19.2554 25.2708 19.2554C25.2663 19.2554 25.2615 19.2554 25.257 19.2554C21.1981 19.267 19.1026 24.1322 21.8673 27.0953C21.88 27.1098 21.8931 27.1241 21.9065 27.1381L26.5901 32.0096C27.7346 33.2001 29.637 33.2043 30.7858 32.0096L35.4693 27.1381C35.4827 27.1241 35.4957 27.1098 35.5085 27.0953C38.2621 24.1438 36.2011 19.267 32.1189 19.2554ZM33.6789 25.4203C33.6691 25.4305 33.6597 25.4408 33.6503 25.4514L28.9991 30.2893C28.8293 30.4656 28.5469 30.4661 28.377 30.2893L23.7256 25.4514C23.7162 25.4408 23.7068 25.4305 23.6971 25.4203C22.3862 24.0483 23.3443 21.7419 25.264 21.7365C25.2661 21.7365 25.2681 21.7365 25.2704 21.7365C26.4739 21.7365 27.448 22.7109 27.448 23.9155C27.448 24.6006 28.0029 25.1561 28.6878 25.1561C29.3727 25.1561 29.9276 24.6006 29.9276 23.9155C29.9276 22.7111 30.9016 21.7365 32.1053 21.7365C32.1075 21.7365 32.1094 21.7365 32.1116 21.7365C34.0278 21.7419 34.9934 24.0447 33.6789 25.4203Z" fill="#414042"/>
<path d="M23.8754 15.1257C23.8754 13.4126 22.898 11.9236 21.4719 11.1878L23.3312 10.0152L31.1106 14.9209C33.1741 16.2224 35.9117 15.6009 37.2122 13.536C38.516 11.4663 37.8974 8.73484 35.8282 7.43004L25.6903 1.03689C24.2495 0.128092 22.4144 0.127265 20.9725 1.03689L5.65154 10.6985H1.49078C0.80591 10.6985 0.250977 11.254 0.250977 11.9391V18.3122C0.250977 18.9974 0.80591 19.5529 1.49078 19.5529H19.4512C21.8908 19.5529 23.8754 17.5667 23.8754 15.1257ZM19.4512 17.0716H2.73057V13.1797H6.00959C6.2435 13.1797 6.47278 13.1136 6.67065 12.9887L22.2948 3.13568C22.916 2.74364 23.7465 2.74348 24.368 3.13585L34.5061 9.529C35.4155 10.1023 35.6877 11.3026 35.1146 12.2129C34.5428 13.1205 33.3395 13.3936 32.4325 12.8216L23.9923 7.49902C23.5885 7.24427 23.074 7.24427 22.6702 7.49902L17.5969 10.6985H15.948C15.2631 10.6985 14.7082 11.254 14.7082 11.9391C14.7082 12.6243 15.2631 13.1797 15.948 13.1797C17.9224 13.1797 17.4976 13.1797 19.4512 13.1797C20.5233 13.1797 21.3958 14.0526 21.3958 15.1257C21.3958 16.1986 20.5235 17.0716 19.4512 17.0716Z" fill="#414042"/>
</svg>
