<svg width="58" height="52" viewBox="0 0 58 52" fill="none" xmlns="http://www.w3.org/2000/svg">
<path d="M55.8853 33.8462C53.7058 33.8462 39.6187 33.8462 37.9249 33.8462C36.1662 33.8462 34.7405 35.2729 34.7405 37.0327C34.7405 38.7926 36.1661 40.2193 37.9249 40.2193H39.4211L34.0449 43.6097L25.6048 38.2871C24.1171 37.349 22.1507 37.7951 21.2128 39.284C20.2752 40.773 20.7212 42.7406 22.2091 43.679L32.3472 50.0723C33.3845 50.7265 34.7054 50.7266 35.7429 50.0723L51.3667 40.2195H55.8855L55.8853 33.8462Z" fill="#FFDB77"/>
<path d="M32.1156 20.4961C30.2235 20.4906 28.6881 22.0237 28.6881 23.9158C28.6881 22.0239 27.1526 20.4908 25.2605 20.4961C22.285 20.5047 20.7224 24.1029 22.8006 26.2778L22.7996 26.2781L27.4834 31.1496C28.141 31.8334 29.2349 31.8334 29.8924 31.1496L34.5763 26.2781L34.5753 26.2778C36.6565 24.0999 35.087 20.5045 32.1156 20.4961Z" fill="#FF7876"/>
<path d="M1.49084 18.3123C3.67041 18.3123 17.7575 18.3123 19.4513 18.3123C21.21 18.3123 22.6357 16.8855 22.6357 15.1257C22.6357 13.3658 21.2101 11.9391 19.4513 11.9391H17.9552L23.3313 8.54875L31.7716 13.8713C33.2593 14.8094 35.2256 14.3633 36.1634 12.8744C37.1011 11.3855 36.6551 9.41785 35.1671 8.47945L25.029 2.08612C23.9917 1.4319 22.6708 1.4319 21.6333 2.08612L6.00967 11.9391H1.49084V18.3123Z" fill="#FFDB77"/>
<path d="M55.8858 32.6055H37.9252C35.4856 32.6055 33.501 34.5915 33.501 37.0327C33.501 38.7457 34.4784 40.2348 35.9045 40.9706L34.0452 42.1432L26.2658 37.2375C24.2023 35.9358 21.4646 36.5576 20.1642 38.6223C18.8604 40.692 19.479 43.4236 21.5481 44.7284L31.6861 51.1216C33.1269 52.0304 34.9619 52.0312 36.4039 51.1216L51.7249 41.4597H55.8857C56.5706 41.4597 57.1255 40.9043 57.1255 40.2191V33.8459C57.1257 33.1609 56.5705 32.6055 55.8858 32.6055ZM54.646 38.9786H51.367C51.1331 38.9786 50.9038 39.0448 50.706 39.1697L35.0818 49.0227C34.4606 49.4148 33.6301 49.415 33.0085 49.0226L22.8704 42.6294C21.961 42.0561 21.6888 40.8558 22.2619 39.9455C22.834 39.0372 24.0375 38.7651 24.944 39.3368L33.3843 44.6594C33.7881 44.9141 34.3025 44.9141 34.7064 44.6594L39.7797 41.4599H41.4286C42.1135 41.4599 42.6684 40.9044 42.6684 40.2193C42.6684 39.5341 42.1135 38.9786 41.4286 38.9786C39.4542 38.9786 39.879 38.9786 37.9254 38.9786C36.8532 38.9786 35.9807 38.1057 35.9807 37.0327C35.9807 35.9596 36.8531 35.0867 37.9254 35.0867H54.646V38.9786Z" fill="#414042"/>
<path d="M32.1183 19.2554C32.1138 19.2554 32.109 19.2554 32.1045 19.2554C30.7998 19.2554 29.5792 19.7883 28.6873 20.7494C27.794 19.7867 26.5728 19.2554 25.2701 19.2554C25.2657 19.2554 25.2609 19.2554 25.2564 19.2554C21.1975 19.267 19.1019 24.1322 21.8667 27.0953C21.8794 27.1098 21.8925 27.1241 21.9059 27.1381L26.5895 32.0096C27.734 33.2001 29.6364 33.2043 30.7852 32.0096L35.4687 27.1381C35.4821 27.1241 35.4951 27.1098 35.5078 27.0953C38.2615 24.1438 36.2005 19.267 32.1183 19.2554ZM33.6782 25.4203C33.6685 25.4305 33.6591 25.4408 33.6497 25.4514L28.9984 30.2893C28.8287 30.4656 28.5463 30.4661 28.3764 30.2893L23.725 25.4514C23.7156 25.4408 23.7062 25.4305 23.6964 25.4203C22.3856 24.0483 23.3437 21.7419 25.2634 21.7365C25.2655 21.7365 25.2675 21.7365 25.2698 21.7365C26.4732 21.7365 27.4474 22.7109 27.4474 23.9155C27.4474 24.6006 28.0023 25.1561 28.6872 25.1561C29.372 25.1561 29.927 24.6006 29.927 23.9155C29.927 22.7111 30.901 21.7365 32.1047 21.7365C32.1069 21.7365 32.1088 21.7365 32.111 21.7365C34.0272 21.7419 34.9928 24.0447 33.6782 25.4203Z" fill="#414042"/>
<path d="M23.8749 15.1257C23.8749 13.4126 22.8975 11.9236 21.4714 11.1878L23.3307 10.0152L31.1101 14.9209C33.1736 16.2224 35.9112 15.6009 37.2117 13.536C38.5155 11.4663 37.8969 8.73484 35.8278 7.43004L25.6898 1.03689C24.249 0.128092 22.414 0.127265 20.972 1.03689L5.65105 10.6985H1.49029C0.805422 10.6985 0.250488 11.254 0.250488 11.9391V18.3122C0.250488 18.9974 0.805422 19.5529 1.49029 19.5529H19.4507C21.8903 19.5529 23.8749 17.5667 23.8749 15.1257ZM19.4507 17.0716H2.73009V13.1797H6.00911C6.24301 13.1797 6.47229 13.1136 6.67017 12.9887L22.2943 3.13568C22.9155 2.74364 23.746 2.74348 24.3675 3.13585L34.5056 9.529C35.415 10.1023 35.6872 11.3026 35.1141 12.2129C34.5423 13.1205 33.3391 13.3936 32.432 12.8216L23.9918 7.49902C23.588 7.24427 23.0735 7.24427 22.6697 7.49902L17.5964 10.6985H15.9475C15.2626 10.6985 14.7077 11.254 14.7077 11.9391C14.7077 12.6243 15.2626 13.1797 15.9475 13.1797C17.9219 13.1797 17.4971 13.1797 19.4507 13.1797C20.5229 13.1797 21.3953 14.0526 21.3953 15.1257C21.3953 16.1986 20.523 17.0716 19.4507 17.0716Z" fill="#414042"/>
</svg>
