<svg width="53" height="28" viewBox="0 0 53 28" fill="none" xmlns="http://www.w3.org/2000/svg">
<path fill-rule="evenodd" clip-rule="evenodd" d="M49.7463 4.42188C40.0335 22.8963 20.6311 30.4072 2.61056 20.0065C2.01065 19.6602 1.2499 19.8767 0.911327 20.4828C0.572754 21.0997 0.784385 21.8789 1.38429 22.2253C20.6999 33.3835 41.5316 25.4288 51.9428 5.63403C52.2687 5.01713 52.0412 4.23779 51.4349 3.90228C50.8287 3.5776 50.0722 3.80499 49.7463 4.42188Z" fill="#009BA5"/>
<path d="M17.7754 12.0835C19.7818 12.0835 21.4083 10.4198 21.4083 8.36743C21.4083 6.31509 19.7818 4.65137 17.7754 4.65137C15.769 4.65137 14.1426 6.31509 14.1426 8.36743C14.1426 10.4198 15.769 12.0835 17.7754 12.0835Z" fill="#009BA5"/>
<path d="M32.8147 8.13037C34.7818 8.13037 36.3765 6.49922 36.3765 4.48706C36.3765 2.4749 34.7818 0.84375 32.8147 0.84375C30.8476 0.84375 29.2529 2.4749 29.2529 4.48706C29.2529 6.49922 30.8476 8.13037 32.8147 8.13037Z" fill="#009BA5"/>
</svg>
