<svg width="69" height="35" viewBox="0 0 69 35" fill="none" xmlns="http://www.w3.org/2000/svg">
<path fill-rule="evenodd" clip-rule="evenodd" d="M65.3282 4.66417C52.3778 28.7451 26.5081 38.5354 2.48074 24.9784C1.68086 24.5269 0.666532 24.8092 0.215102 25.5992C-0.236327 26.4033 0.0458467 27.419 0.845723 27.8704C26.5998 42.4149 54.3754 32.0462 68.2568 6.24417C68.6913 5.44006 68.388 4.4242 67.5797 3.98688C66.7714 3.56367 65.7627 3.86006 65.3282 4.66417Z" fill="#009BA5"/>
<path d="M22.7004 14.6508C25.3755 14.6508 27.5442 12.4822 27.5442 9.80708C27.5442 7.13196 25.3755 4.96338 22.7004 4.96338C20.0253 4.96338 17.8567 7.13196 17.8567 9.80708C17.8567 12.4822 20.0253 14.6508 22.7004 14.6508Z" fill="#009BA5"/>
<path d="M42.7527 9.49807C45.3755 9.49807 47.5018 7.37188 47.5018 4.74904C47.5018 2.1262 45.3755 0 42.7527 0C40.1299 0 38.0037 2.1262 38.0037 4.74904C38.0037 7.37188 40.1299 9.49807 42.7527 9.49807Z" fill="#009BA5"/>
</svg>
