<svg width="61" height="32" viewBox="0 0 61 32" fill="none" xmlns="http://www.w3.org/2000/svg">
<path fill-rule="evenodd" clip-rule="evenodd" d="M57.6574 5.11607C46.3191 26.6824 23.6695 35.4503 2.63301 23.309C1.93269 22.9047 1.04462 23.1575 0.649387 23.865C0.25415 24.5851 0.501199 25.4947 1.20151 25.899C23.7498 38.9247 48.068 29.6388 60.2215 6.53108C60.6019 5.81094 60.3364 4.90116 59.6287 4.50951C58.921 4.13049 58.0378 4.39593 57.6574 5.11607Z" fill="#009BA5"/>
<path d="M20.3361 14.06C22.6782 14.06 24.577 12.1178 24.577 9.72202C24.577 7.3262 22.6782 5.38403 20.3361 5.38403C17.9939 5.38403 16.0952 7.3262 16.0952 9.72202C16.0952 12.1178 17.9939 14.06 20.3361 14.06Z" fill="#009BA5"/>
<path d="M37.8921 9.44533C40.1885 9.44533 42.0501 7.54119 42.0501 5.19227C42.0501 2.84335 40.1885 0.939209 37.8921 0.939209C35.5958 0.939209 33.7343 2.84335 33.7343 5.19227C33.7343 7.54119 35.5958 9.44533 37.8921 9.44533Z" fill="#009BA5"/>
</svg>
