<svg width="77" height="47" viewBox="0 0 77 47" fill="none" xmlns="http://www.w3.org/2000/svg">
<path fill-rule="evenodd" clip-rule="evenodd" d="M55.1925 44.4149C61.9098 44.581 68.7743 44.2488 75.1971 46.6044C75.58 46.7433 76.0011 46.541 76.1395 46.1484C76.275 45.7558 76.0777 45.3239 75.6948 45.182C69.1218 42.772 62.1012 43.074 55.2278 42.9049C54.8214 42.8928 54.4828 43.225 54.4739 43.6418C54.4622 44.0585 54.7861 44.4028 55.1925 44.4149Z" fill="black"/>
<path fill-rule="evenodd" clip-rule="evenodd" d="M54.5883 34.4132C56.6824 32.4373 58.9679 30.9571 61.7305 30.2234C62.1252 30.1189 62.3608 29.7066 62.2607 29.3031C62.1576 28.8996 61.7541 28.6571 61.3624 28.7616C58.3582 29.559 55.8695 31.1543 53.5928 33.3015C53.2924 33.5836 53.2717 34.0617 53.5486 34.3685C53.8225 34.6751 54.2908 34.6953 54.5883 34.4132Z" fill="black"/>
<path fill-rule="evenodd" clip-rule="evenodd" d="M48.7639 12.8419C49.724 9.46675 51.6148 6.82643 54.5129 4.91973C54.8546 4.69472 54.9547 4.22719 54.7338 3.87653C54.5159 3.52588 54.0593 3.42378 53.7177 3.64879C50.5104 5.75997 48.4134 8.68178 47.3502 12.4188C47.2353 12.8187 47.4621 13.2385 47.8509 13.3551C48.2426 13.472 48.652 13.2418 48.7639 12.8419Z" fill="black"/>
<path fill-rule="evenodd" clip-rule="evenodd" d="M15.6779 8.2613C15.1066 8.95081 14.5942 9.69378 14.1583 10.4848C13.964 10.8369 13.6224 11.5853 13.5694 12.2271C13.5105 12.9109 13.7372 13.4878 14.3203 13.7916C15.0948 14.1945 15.7132 14.1525 16.1903 13.9088C16.6497 13.6747 17.009 13.2147 17.2357 12.598C17.6686 11.4192 17.6038 9.61768 17.3771 8.5896C17.9866 7.94449 18.6551 7.35946 19.3707 6.83938C24.7009 2.96596 32.5195 4.39422 38.5359 10.1858C40.6415 12.2135 41.6545 16.472 42.1816 21.0667C43.0032 28.2207 42.535 36.2109 42.4702 38.5519C42.4555 39.13 42.5085 39.4731 42.5379 39.5416C42.6763 39.8787 42.9208 39.9663 43.0916 39.9995C43.3389 40.0448 43.5362 39.9965 43.6952 39.9119C43.9102 39.7959 44.0869 39.5918 44.1694 39.2767C44.2136 39.1028 44.2253 38.8606 44.2194 38.6023C44.2135 38.4232 44.1782 38.2275 44.2135 38.0992C44.4432 37.2771 44.7201 36.4743 44.991 35.6658C45.8951 32.9479 47.0642 30.401 48.3629 27.857C52.4886 19.7737 56.4789 11.2329 63.2432 5.07437C63.5465 4.79802 63.576 4.32022 63.3051 4.00854C63.0371 3.69685 62.5718 3.66846 62.2655 3.94511C55.3657 10.2253 51.2665 18.9133 47.0583 27.1566C45.954 29.3206 44.9409 31.4876 44.0987 33.7543C44.1841 29.7447 44.1517 24.1944 43.4361 19.2836C42.8 14.916 41.5897 11.0562 39.543 9.0849C32.9524 2.74035 24.3564 1.36404 18.5197 5.60744C17.8954 6.06168 17.3005 6.56123 16.7469 7.10306C13.6931 1.44771 7.15547 -0.818971 1.37766 1.88593C1.00661 2.05899 0.844646 2.50719 1.0125 2.88623C1.1833 3.26526 1.61913 3.43259 1.99018 3.25953C7.19669 0.822222 13.1012 2.99737 15.6779 8.2613ZM16.1049 10.1547C15.8664 10.5002 15.6455 10.8584 15.4394 11.2287C15.3304 11.4274 15.1419 11.8094 15.0624 12.1833C15.0447 12.2709 15.0418 12.408 15.0418 12.4715C15.245 12.5742 15.404 12.6237 15.5336 12.5569C15.6955 12.4748 15.778 12.2815 15.8575 12.0656C16.0578 11.5237 16.1226 10.8055 16.1049 10.1547Z" fill="black"/>
</svg>
