<svg width="88" height="54" viewBox="0 0 88 54" fill="none" xmlns="http://www.w3.org/2000/svg">
<path fill-rule="evenodd" clip-rule="evenodd" d="M63.3052 51.0901C71.0488 51.2833 78.9622 50.8969 86.3663 53.6371C86.8076 53.7987 87.2931 53.5633 87.4526 53.1066C87.6088 52.6499 87.3813 52.1476 86.94 51.9824C79.3628 49.1791 71.2695 49.5304 63.346 49.3336C62.8775 49.3196 62.4871 49.706 62.4769 50.1908C62.4633 50.6756 62.8368 51.0761 63.3052 51.0901Z" fill="black"/>
<path fill-rule="evenodd" clip-rule="evenodd" d="M62.6089 39.4562C65.023 37.1578 67.6577 35.436 70.8424 34.5827C71.2974 34.4611 71.569 33.9815 71.4536 33.5122C71.3347 33.0428 70.8696 32.7607 70.418 32.8822C66.9549 33.8097 64.0859 35.6654 61.4614 38.163C61.115 38.4911 61.0913 39.0473 61.4104 39.4042C61.7262 39.7608 62.266 39.7843 62.6089 39.4562Z" fill="black"/>
<path fill-rule="evenodd" clip-rule="evenodd" d="M55.8946 14.3645C57.0014 10.4386 59.181 7.36741 62.5218 5.14956C62.9157 4.88783 63.0311 4.344 62.7765 3.93613C62.5252 3.52825 61.999 3.4095 61.6051 3.67123C57.9079 6.12691 55.4905 9.52553 54.2649 13.8723C54.1325 14.3375 54.3939 14.8258 54.8421 14.9614C55.2937 15.0974 55.7656 14.8297 55.8946 14.3645Z" fill="black"/>
<path fill-rule="evenodd" clip-rule="evenodd" d="M17.754 9.03624C17.0954 9.83828 16.5047 10.7025 16.0023 11.6226C15.7782 12.0322 15.3844 12.9027 15.3233 13.6493C15.2554 14.4446 15.5168 15.1157 16.189 15.4691C17.0818 15.9377 17.7947 15.8889 18.3447 15.6054C18.8742 15.3331 19.2884 14.7981 19.5498 14.0807C20.0488 12.7095 19.9741 10.614 19.7127 9.41813C20.4154 8.66773 21.1861 7.98723 22.011 7.38228C28.1555 2.87674 37.1686 4.53808 44.1041 11.2748C46.5314 13.6335 47.6992 18.5869 48.3068 23.9314C49.254 32.2529 48.7142 41.5471 48.6395 44.2701C48.6225 44.9425 48.6836 45.3416 48.7176 45.4213C48.8771 45.8134 49.1589 45.9153 49.3558 45.9539C49.6409 46.0066 49.8684 45.9504 50.0517 45.8521C50.2995 45.7172 50.5032 45.4797 50.5983 45.1132C50.6492 44.9109 50.6628 44.6291 50.656 44.3288C50.6492 44.1205 50.6084 43.8928 50.6492 43.7435C50.914 42.7872 51.2331 41.8534 51.5454 40.913C52.5876 37.7516 53.9353 34.789 55.4324 31.8299C60.1885 22.4275 64.7883 12.4928 72.5861 5.32923C72.9358 5.00778 72.9697 4.45201 72.6574 4.08946C72.3485 3.72691 71.8121 3.69388 71.4591 4.01568C63.5051 11.3208 58.7796 21.4266 53.9285 31.0152C52.6555 33.5323 51.4877 36.053 50.5168 38.6896C50.6152 34.0256 50.5779 27.5696 49.7529 21.8573C49.0197 16.777 47.6244 12.2873 45.2651 9.99426C37.6676 2.61431 27.7583 1.0134 21.0299 5.94929C20.3102 6.47766 19.6245 7.05874 18.9863 7.68899C15.4659 1.11072 7.92952 -1.52587 1.26901 1.62045C0.841265 1.82175 0.654557 2.3431 0.848058 2.78399C1.04495 3.22489 1.54736 3.41952 1.9751 3.21822C7.97704 0.383155 14.7836 2.91327 17.754 9.03624ZM18.2462 11.2386C17.9712 11.6405 17.7166 12.0572 17.479 12.4879C17.3534 12.719 17.1361 13.1634 17.0444 13.5984C17.0241 13.7002 17.0207 13.8597 17.0207 13.9335C17.2549 14.0529 17.4382 14.1106 17.5876 14.0329C17.7743 13.9374 17.8694 13.7125 17.9611 13.4613C18.1919 12.8311 18.2666 11.9957 18.2462 11.2386Z" fill="black"/>
</svg>
