<svg width="48" height="47" viewBox="0 0 48 47" fill="none" xmlns="http://www.w3.org/2000/svg">
<path fill-rule="evenodd" clip-rule="evenodd" d="M43.7226 22.3326C42.2318 28.406 42.3294 34.2547 42.1508 40.4151C42.1161 41.6182 43.0593 42.6184 44.2564 42.6546C45.4542 42.6908 46.4539 41.7414 46.4893 40.5383C46.6586 34.6968 46.5218 29.138 47.9367 23.369C48.2231 22.2022 47.5106 21.0208 46.3475 20.7382C45.1851 20.4483 44.0083 21.1657 43.7226 22.3326Z" fill="black"/>
<path fill-rule="evenodd" clip-rule="evenodd" d="M31.0572 10.5626C20.9436 19.8249 11.4145 31.7397 4.75415 43.7706C4.17332 44.8215 4.55164 46.1478 5.59902 46.7276C6.64639 47.3074 7.96862 46.9305 8.54945 45.8796C14.9899 34.2474 24.2058 22.7238 33.9852 13.7732C34.8691 12.9614 34.9306 11.5844 34.1226 10.7002C33.3146 9.81604 31.9411 9.75086 31.0572 10.5626Z" fill="black"/>
<path fill-rule="evenodd" clip-rule="evenodd" d="M28.4952 0.445409C19.2453 -1.08381 9.71115 1.52525 1.30032 5.21423C0.203037 5.69982 -0.297519 6.98259 0.182045 8.07696C0.662333 9.17858 1.94336 9.6787 3.04065 9.20036C10.7007 5.83752 19.3639 3.34435 27.7885 4.73587C28.9704 4.93156 30.0879 4.12711 30.2825 2.94576C30.4778 1.76442 29.6764 0.641091 28.4952 0.445409Z" fill="black"/>
</svg>
