<svg width="58" height="58" viewBox="0 0 58 58" fill="none" xmlns="http://www.w3.org/2000/svg">
<path fill-rule="evenodd" clip-rule="evenodd" d="M10.1255 34.5241C10.1006 28.2704 8.58906 22.6196 7.27007 16.5994C7.01231 15.4238 5.85488 14.6818 4.68466 14.9367C3.51373 15.1917 2.77385 16.355 3.0309 17.5309C4.28177 23.2394 5.76102 28.5995 5.78586 34.5394C5.79063 35.7409 6.76807 36.7144 7.96501 36.7069C9.16299 36.7066 10.131 35.7254 10.1255 34.5241Z" fill="black"/>
<path fill-rule="evenodd" clip-rule="evenodd" d="M25.2648 42.8754C32.8333 31.439 39.1923 17.5706 42.7398 4.28463C43.0488 3.12434 42.3604 1.92914 41.2038 1.62033C40.0472 1.31152 38.8556 1.99751 38.5467 3.1578C35.1159 16.0038 28.9661 29.4166 21.6462 40.4697C20.9853 41.4714 21.2592 42.8223 22.2573 43.4844C23.2554 44.1465 24.6039 43.877 25.2648 42.8754Z" fill="black"/>
<path fill-rule="evenodd" clip-rule="evenodd" d="M30.2015 52.0708C39.5463 51.3137 48.1644 46.4728 55.4311 40.8562C56.3781 40.1192 56.553 38.7534 55.8226 37.8078C55.0897 36.8553 53.7257 36.6805 52.777 37.4104C46.1598 42.5287 38.3585 47.0462 29.8478 47.737C28.6536 47.8334 27.7643 48.8846 27.8617 50.0779C27.9584 51.2714 29.0081 52.1671 30.2015 52.0708Z" fill="black"/>
</svg>
