<svg width="53" height="27" viewBox="0 0 53 27" fill="none" xmlns="http://www.w3.org/2000/svg">
<path fill-rule="evenodd" clip-rule="evenodd" d="M49.7463 4.01201C40.0335 22.501 20.6311 30.0178 2.61056 19.6089C2.01065 19.2623 1.2499 19.479 0.911327 20.0856C0.572754 20.703 0.784385 21.4828 1.38429 21.8294C20.6999 32.9964 41.5317 25.0355 51.9428 5.22511C52.2687 4.60772 52.0412 3.82777 51.4349 3.492C50.8287 3.16706 50.0722 3.39463 49.7463 4.01201Z" fill="#009BA5"/>
<path d="M17.776 11.6797C19.7825 11.6797 21.4092 10.0147 21.4092 7.96069C21.4092 5.90673 19.7825 4.2417 17.776 4.2417C15.7694 4.2417 14.1428 5.90673 14.1428 7.96069C14.1428 10.0147 15.7694 11.6797 17.776 11.6797Z" fill="#009BA5"/>
<path d="M32.815 7.72363C34.7823 7.72363 36.3772 6.09117 36.3772 4.07739C36.3772 2.06361 34.7823 0.431152 32.815 0.431152C30.8477 0.431152 29.2529 2.06361 29.2529 4.07739C29.2529 6.09117 30.8477 7.72363 32.815 7.72363Z" fill="#009BA5"/>
</svg>
