<svg width="65" height="59" viewBox="0 0 65 59" fill="none" xmlns="http://www.w3.org/2000/svg">
<path d="M63.5831 38.2495C61.0922 38.2495 44.9926 38.2495 43.0569 38.2495C41.047 38.2495 39.4175 39.879 39.4175 41.8889C39.4175 43.8988 41.0468 45.5283 43.0569 45.5283H44.7669L38.6226 49.4004L28.9768 43.3215C27.2765 42.2501 25.0293 42.7596 23.9573 44.4601C22.8858 46.1606 23.3955 48.4078 25.096 49.4796L36.6823 56.7814C37.8678 57.5286 39.3775 57.5288 40.5632 56.7814L58.4189 45.5285H63.5833L63.5831 38.2495Z" fill="#FFDB77"/>
<path d="M36.4169 23.0025C34.2547 22.9962 32.5 24.7472 32.5 26.908C32.5 24.7473 30.7453 22.9964 28.5831 23.0025C25.1827 23.0123 23.397 27.1217 25.7719 29.6057L25.7708 29.606L31.1233 35.1698C31.8748 35.9508 33.1249 35.9508 33.8763 35.1698L39.229 29.606L39.2278 29.6057C41.6062 27.1183 39.8126 23.0121 36.4169 23.0025Z" fill="#FF7876"/>
<path d="M1.41675 20.5083C3.90768 20.5083 20.0072 20.5083 21.9429 20.5083C23.9528 20.5083 25.5823 18.8788 25.5823 16.8689C25.5823 14.859 23.953 13.2295 21.9429 13.2295H20.2332L26.3773 9.35738L36.0232 15.4363C37.7235 16.5077 39.9707 15.9982 41.0425 14.2977C42.114 12.5972 41.6043 10.35 39.9039 9.27822L28.3175 1.9764C27.132 1.22922 25.6223 1.22922 24.4367 1.9764L6.58111 13.2295H1.41675V20.5083Z" fill="#FFDB77"/>
<path d="M63.5833 36.8323H43.057C40.2689 36.8323 38.0007 39.1005 38.0007 41.8886C38.0007 43.845 39.1178 45.5457 40.7476 46.386L38.6226 47.7253L29.7319 42.1225C27.3736 40.6358 24.2449 41.346 22.7587 43.7041C21.2686 46.0679 21.9756 49.1876 24.3403 50.6778L35.9265 57.9794C37.5731 59.0173 39.6704 59.0183 41.3183 57.9794L58.828 46.9447H63.5831C64.3658 46.9447 65 46.3103 65 45.5278V38.249C65.0002 37.4667 64.3658 36.8323 63.5833 36.8323ZM62.1664 44.111H58.4189C58.1516 44.111 57.8896 44.1866 57.6634 44.3293L39.8073 55.5824C39.0974 56.0301 38.1482 56.0303 37.4379 55.5822L25.8515 48.2805C24.8122 47.6257 24.5011 46.2549 25.1561 45.2153C25.8099 44.1779 27.1853 43.8671 28.2213 44.5201L37.8673 50.599C38.3288 50.8899 38.9167 50.8899 39.3783 50.599L45.1763 46.9449H47.0608C47.8435 46.9449 48.4777 46.3105 48.4777 45.528C48.4777 44.7454 47.8435 44.111 47.0608 44.111C44.8043 44.111 45.2898 44.111 43.0572 44.111C41.8318 44.111 40.8347 43.1141 40.8347 41.8886C40.8347 40.663 41.8316 39.6661 43.0572 39.6661H62.1664V44.111Z" fill="#414042"/>
<path d="M36.4209 21.5852C36.4158 21.5852 36.4103 21.5852 36.4052 21.5852C34.9141 21.5852 33.5191 22.1939 32.4998 23.2915C31.4789 22.192 30.0832 21.5852 28.5944 21.5852C28.5893 21.5852 28.5839 21.5852 28.5788 21.5852C23.94 21.5984 21.545 27.155 24.7047 30.5392C24.7193 30.5558 24.7342 30.572 24.7495 30.5881L30.1022 36.1518C31.4103 37.5115 33.5844 37.5162 34.8974 36.1518L40.25 30.5881C40.2653 30.572 40.2802 30.5558 40.2947 30.5392C43.4418 27.1682 41.0863 21.5984 36.4209 21.5852ZM38.2038 28.6261C38.1926 28.6378 38.1818 28.6496 38.1711 28.6616L32.8554 34.187C32.6614 34.3884 32.3387 34.389 32.1445 34.187L26.8286 28.6616C26.8178 28.6496 26.8071 28.6378 26.7959 28.6261C25.2978 27.0592 26.3928 24.4251 28.5867 24.4188C28.5892 24.4188 28.5914 24.4188 28.5941 24.4188C29.9694 24.4188 31.0827 25.5318 31.0827 26.9075C31.0827 27.69 31.7169 28.3244 32.4996 28.3244C33.2823 28.3244 33.9166 27.69 33.9166 26.9075C33.9166 25.532 35.0297 24.4188 36.4054 24.4188C36.4079 24.4188 36.4101 24.4188 36.4126 24.4188C38.6026 24.4251 39.7061 27.0551 38.2038 28.6261Z" fill="#414042"/>
<path d="M26.9994 16.8689C26.9994 14.9124 25.8823 13.2118 24.2524 12.3714L26.3774 11.0322L35.2681 16.635C37.6264 18.1215 40.7551 17.4117 42.2414 15.0534C43.7314 12.6896 43.0244 9.56992 40.6597 8.0797L29.0735 0.778073C27.4269 -0.259862 25.3297 -0.260807 23.6817 0.778073L6.17207 11.8126H1.41691C0.63421 11.8126 0 12.447 0 13.2295V20.5083C0 21.2908 0.63421 21.9252 1.41691 21.9252H21.9431C24.7312 21.9252 26.9994 19.6568 26.9994 16.8689ZM21.9431 19.0914H2.83382V14.6464H6.58127C6.8486 14.6464 7.11063 14.5709 7.33677 14.4282L25.1929 3.17511C25.9029 2.72737 26.852 2.72718 27.5623 3.1753L39.1487 10.4769C40.188 11.1317 40.4991 12.5025 39.8441 13.5422C39.1907 14.5788 37.8155 14.8907 36.7789 14.2374L27.1329 8.15848C26.6714 7.86755 26.0835 7.86755 25.6219 8.15848L19.8239 11.8126H17.9394C17.1567 11.8126 16.5225 12.447 16.5225 13.2295C16.5225 14.012 17.1567 14.6464 17.9394 14.6464C20.1959 14.6464 19.7104 14.6464 21.9431 14.6464C23.1684 14.6464 24.1655 15.6434 24.1655 16.8689C24.1655 18.0942 23.1686 19.0914 21.9431 19.0914Z" fill="#414042"/>
</svg>
