<svg width="37" height="36" viewBox="0 0 37 36" fill="none" xmlns="http://www.w3.org/2000/svg">
<path fill-rule="evenodd" clip-rule="evenodd" d="M33.292 17.0905C32.1738 21.652 32.247 26.0447 32.113 30.6715C32.087 31.5751 32.7944 32.3263 33.6924 32.3535C34.5908 32.3807 35.3407 31.6676 35.3672 30.764C35.4942 26.3768 35.3916 22.2018 36.4529 17.869C36.6677 16.9926 36.1333 16.1053 35.2609 15.8931C34.389 15.6753 33.5063 16.2142 33.292 17.0905Z" fill="black"/>
<path fill-rule="evenodd" clip-rule="evenodd" d="M23.7933 8.2509C16.2082 15.2074 9.06142 24.1561 4.06616 33.1919C3.63054 33.9812 3.91428 34.9773 4.69981 35.4128C5.48533 35.8483 6.477 35.5652 6.91262 34.7759C11.743 26.0395 18.6548 17.3847 25.9893 10.6622C26.6522 10.0526 26.6983 9.01837 26.0924 8.35429C25.4864 7.69021 24.4562 7.64126 23.7933 8.2509Z" fill="black"/>
<path fill-rule="evenodd" clip-rule="evenodd" d="M21.8719 0.651914C14.9341 -0.496634 7.78315 1.46295 1.47468 4.23362C0.651675 4.59832 0.276238 5.56177 0.635931 6.38372C0.996167 7.21111 1.95699 7.58673 2.78 7.22747C8.52532 4.70175 15.0231 2.82921 21.3419 3.87434C22.2284 4.02131 23.0666 3.41711 23.2125 2.52985C23.359 1.64258 22.7579 0.798885 21.8719 0.651914Z" fill="black"/>
</svg>
