<svg width="42" height="43" viewBox="0 0 42 43" fill="none" xmlns="http://www.w3.org/2000/svg">
<path fill-rule="evenodd" clip-rule="evenodd" d="M38.2497 20.1001C36.9608 25.5242 37.0452 30.7477 36.8907 36.2495C36.8607 37.3239 37.6762 38.2172 38.7113 38.2496C39.747 38.282 40.6113 37.434 40.6419 36.3595C40.7883 31.1425 40.6701 26.178 41.8934 21.0257C42.141 19.9836 41.525 18.9286 40.5193 18.6761C39.5143 18.4172 38.4968 19.058 38.2497 20.1001Z" fill="black"/>
<path fill-rule="evenodd" clip-rule="evenodd" d="M27.301 9.58861C18.557 17.8606 10.3184 28.5016 4.56003 39.2461C4.05785 40.1846 4.38494 41.3692 5.29048 41.887C6.19601 42.4048 7.33917 42.0682 7.84134 41.1297C13.4096 30.7411 21.3774 20.4496 29.8324 12.4559C30.5966 11.731 30.6498 10.5012 29.9512 9.71155C29.2527 8.92189 28.0652 8.86368 27.301 9.58861Z" fill="black"/>
<path fill-rule="evenodd" clip-rule="evenodd" d="M25.0831 0.552609C17.0861 -0.813241 8.84331 1.51709 1.57171 4.81196C0.623046 5.24567 0.190289 6.3914 0.604898 7.36885C1.02013 8.35278 2.12765 8.79947 3.07631 8.37223C9.6988 5.36866 17.1886 3.14185 24.4721 4.38471C25.494 4.55948 26.4601 3.84097 26.6284 2.78584C26.7972 1.7307 26.1043 0.727386 25.0831 0.552609Z" fill="black"/>
</svg>
