<svg width="52" height="53" viewBox="0 0 52 53" fill="none" xmlns="http://www.w3.org/2000/svg">
<path fill-rule="evenodd" clip-rule="evenodd" d="M9.74094 31.9656C9.75665 26.3107 8.45161 21.2102 7.31939 15.7745C7.09813 14.713 6.07717 14.0493 5.03886 14.2871C3.99992 14.525 3.33739 15.5816 3.55803 16.6433C4.63177 21.7975 5.90996 26.6353 5.89609 32.0065C5.89305 33.093 6.75315 33.9672 7.81364 33.9529C8.87501 33.9452 9.73852 33.0519 9.74094 31.9656Z" fill="black"/>
<path fill-rule="evenodd" clip-rule="evenodd" d="M22.8504 39.5249C29.5754 29.1686 35.2511 16.6275 38.4507 4.62883C38.7294 3.58096 38.1311 2.50782 37.1158 2.23661C36.1004 1.9654 35.0483 2.59116 34.7696 3.63903C31.6753 15.2403 26.1863 27.3695 19.6824 37.3787C19.0951 38.2857 19.3279 39.5018 20.2017 40.0925C21.0756 40.6832 22.2631 40.4319 22.8504 39.5249Z" fill="black"/>
<path fill-rule="evenodd" clip-rule="evenodd" d="M27.2735 47.8567C35.4579 47.1222 43.0305 42.7401 49.4247 37.6728C50.258 37.0079 50.4193 35.7855 49.7856 34.9444C49.1497 34.0972 47.9568 33.9492 47.122 34.6078C41.2992 39.2255 34.4436 43.3133 26.9897 43.9834C25.9439 44.077 25.1591 45.0225 25.2373 46.089C25.3148 47.1557 26.2283 47.9502 27.2735 47.8567Z" fill="black"/>
</svg>
