<svg width="37" height="37" viewBox="0 0 37 37" fill="none" xmlns="http://www.w3.org/2000/svg">
<path fill-rule="evenodd" clip-rule="evenodd" d="M33.542 17.6149C32.4238 22.278 32.497 26.7686 32.363 31.4985C32.337 32.4222 33.0444 33.1902 33.9424 33.218C34.8408 33.2458 35.5907 32.5168 35.6172 31.5931C35.7442 27.1081 35.6416 22.8401 36.7029 18.4107C36.9177 17.5148 36.3833 16.6077 35.5109 16.3907C34.639 16.1681 33.7563 16.719 33.542 17.6149Z" fill="black"/>
<path fill-rule="evenodd" clip-rule="evenodd" d="M24.0439 8.57781C16.4589 15.6893 9.31228 24.8374 4.31713 34.0745C3.88152 34.8814 4.16526 35.8997 4.95077 36.3449C5.73628 36.7901 6.72792 36.5007 7.16353 35.6938C11.9938 26.7627 18.9055 17.9151 26.2398 11.0429C26.9027 10.4196 26.9488 9.36238 26.3429 8.68351C25.7369 8.00463 24.7068 7.95458 24.0439 8.57781Z" fill="black"/>
<path fill-rule="evenodd" clip-rule="evenodd" d="M22.1205 0.809775C15.1834 -0.364421 8.03305 1.63892 1.7252 4.47146C0.902271 4.84431 0.52687 5.82927 0.886528 6.66958C1.24673 7.51544 2.20746 7.89945 3.03039 7.53216C8.77516 4.95005 15.2723 3.0357 21.5905 4.10416C22.4769 4.25441 23.315 3.63672 23.4609 2.72964C23.6074 1.82256 23.0063 0.960028 22.1205 0.809775Z" fill="black"/>
</svg>
