<svg width="8" height="9" viewBox="0 0 8 9" fill="none" xmlns="http://www.w3.org/2000/svg">
<path fill-rule="evenodd" clip-rule="evenodd" d="M2.76592 7.54646C2.10296 7.3625 1.40886 7.2697 0.735541 7.18468C0.590519 7.16686 0.455875 7.26632 0.445516 7.40644C0.424799 7.54666 0.528447 7.6749 0.663111 7.69273C1.31571 7.77457 1.98897 7.86214 2.62086 8.03924C2.75552 8.07765 2.90061 7.99858 2.94204 7.86255C2.98348 7.72663 2.90058 7.58497 2.76592 7.54646Z" fill="white"/>
<path fill-rule="evenodd" clip-rule="evenodd" d="M4.77579 4.93843C3.70883 3.86181 2.50722 2.92378 1.46098 1.81827C1.36775 1.71502 1.20201 1.70949 1.09842 1.80588C0.994835 1.90236 0.984517 2.06461 1.0881 2.16786C2.13434 3.27654 3.33596 4.21765 4.40291 5.29744C4.5065 5.39823 4.6722 5.39966 4.77579 5.30051C4.86901 5.20147 4.87937 5.03922 4.77579 4.93843Z" fill="white"/>
<path fill-rule="evenodd" clip-rule="evenodd" d="M6.77507 0.797319C6.80615 1.41353 6.83716 2.02973 6.86824 2.64604C6.86824 2.78719 6.9926 2.89617 7.13763 2.88931C7.28265 2.88234 7.38618 2.7622 7.38618 2.62095C7.3551 2.00372 7.32408 1.38659 7.29301 0.769459C7.28265 0.628313 7.15832 0.520046 7.0133 0.527729C6.87864 0.535411 6.76471 0.656276 6.77507 0.797319Z" fill="white"/>
</svg>
