<svg width="81" height="69" viewBox="0 0 81 69" fill="none" xmlns="http://www.w3.org/2000/svg">
<path fill-rule="evenodd" clip-rule="evenodd" d="M58.1539 8.5175C62.0244 8.71655 65.1009 10.681 68.1775 12.8868C78.2674 20.1304 81.642 31.3693 74.7279 42.4135C63.9764 59.5403 38.9336 70.7495 19.5147 65.5764C15.2141 64.4363 9.39176 63.4315 5.12424 57.8639C1.15446 52.6872 1.31987 46.5331 3.13935 40.8356C4.99192 34.9939 8.56472 29.6175 11.4097 26.1615C23.8484 11.083 48.7588 -2.62123 71.2873 4.60355C71.7504 4.74276 72.2137 4.50337 72.346 4.06889C72.4783 3.63441 72.2465 3.16852 71.8165 3.02931C48.6263 -4.40609 22.922 9.59245 10.1194 25.1104C6.5797 29.4198 1.94855 36.6135 0.625285 44.0565C-0.267917 49.1436 0.360503 54.3438 3.80098 58.8674C8.33315 64.798 14.5195 65.9596 19.0847 67.1738C39.1321 72.5168 65.0348 60.98 76.1171 43.2913C83.5604 31.4209 79.9877 19.3295 69.137 11.5436C65.8289 9.15037 62.4544 7.08213 58.2531 6.86655C57.7899 6.84307 57.3931 7.19389 57.3931 7.64954C57.36 8.10518 57.7238 8.49402 58.1539 8.5175Z" fill="#FE6711"/>
</svg>
