<svg width="105" height="89" viewBox="0 0 105 89" fill="none" xmlns="http://www.w3.org/2000/svg">
<path fill-rule="evenodd" clip-rule="evenodd" d="M76.4614 10.8274C81.5065 11.0868 85.5167 13.6473 89.5269 16.5225C102.679 25.9643 107.077 40.6138 98.0651 55.0095C84.0509 77.3337 51.4085 91.9444 26.0968 85.2015C20.4911 83.7154 12.9019 82.4056 7.33932 75.1485C2.16486 68.4009 2.38046 60.3792 4.75209 52.9528C7.16684 45.3384 11.8239 38.3304 15.5322 33.8257C31.7455 14.1714 64.2153 -3.69156 93.5804 5.72567C94.1841 5.90712 94.7878 5.59508 94.9603 5.02875C95.1328 4.46243 94.8307 3.85516 94.2701 3.67371C64.0427 -6.01807 30.538 12.2285 13.8504 32.4555C9.23646 38.0727 3.19992 47.4494 1.4751 57.1511C0.310843 63.7819 1.12996 70.5602 5.6145 76.4566C11.522 84.1869 19.5856 85.701 25.5363 87.2836C51.6673 94.2481 85.4304 79.2102 99.8758 56.1538C109.578 40.681 104.921 24.9204 90.7775 14.7718C86.4655 11.6523 82.067 8.95641 76.5907 8.6754C75.987 8.6448 75.4698 9.10208 75.4698 9.69599C75.4266 10.2899 75.9009 10.7968 76.4614 10.8274Z" fill="#FE6711"/>
</svg>
