<svg width="94" height="80" viewBox="0 0 94 80" fill="none" xmlns="http://www.w3.org/2000/svg">
<path fill-rule="evenodd" clip-rule="evenodd" d="M68.3016 9.26186C72.8199 9.49423 76.4113 11.7874 80.0028 14.3624C91.7813 22.8183 95.7207 35.9382 87.6495 48.8307C75.0986 68.8239 45.8646 81.909 23.1957 75.8702C18.1754 74.5393 11.3786 73.3663 6.39686 66.8669C1.76269 60.8238 1.95578 53.6398 4.07978 46.9887C6.24239 40.1694 10.4131 33.8932 13.7343 29.8588C28.2547 12.2568 57.3341 -3.74106 83.6331 4.69287C84.1737 4.85537 84.7144 4.57591 84.8689 4.06872C85.0234 3.56153 84.7528 3.01767 84.2508 2.85516C57.1795 -5.82464 27.1732 10.5167 12.228 28.6317C8.09591 33.6624 2.68968 42.06 1.14495 50.7487C0.102266 56.6872 0.835859 62.7577 4.85214 68.0384C10.1428 74.9616 17.3645 76.3176 22.6938 77.7349C46.0963 83.9722 76.3341 70.5045 89.2711 49.8555C97.9602 35.9984 93.7896 21.8834 81.1229 12.7945C77.2611 10.0006 73.3219 7.58627 68.4174 7.3346C67.8767 7.30719 67.4135 7.71673 67.4135 8.24863C67.3748 8.78053 67.7996 9.23445 68.3016 9.26186Z" fill="#FE6711"/>
</svg>
