<svg width="81" height="68" viewBox="0 0 81 68" fill="none" xmlns="http://www.w3.org/2000/svg">
<path fill-rule="evenodd" clip-rule="evenodd" d="M58.2314 7.95847C62.105 8.15767 65.1839 10.1236 68.2629 12.3311C78.3607 19.5804 81.7379 30.8282 74.8185 41.881C64.0585 59.0212 38.9961 70.2392 19.562 65.0621C15.258 63.9211 9.43114 62.9154 5.16028 57.3435C1.18739 52.1628 1.35292 46.0038 3.17383 40.3019C5.02785 34.4556 8.60345 29.075 11.4507 25.6163C23.8991 10.526 48.829 -3.18898 71.3752 4.04145C71.8387 4.18077 72.3022 3.94119 72.4347 3.50637C72.5671 3.07155 72.3351 2.60529 71.9047 2.46598C48.6964 -4.97525 22.972 9.03426 10.1594 24.5643C6.61688 28.8771 1.98209 36.0764 0.657797 43.5253C-0.236103 48.6164 0.392809 53.8206 3.83598 58.3478C8.3717 64.2831 14.5629 65.4456 19.1317 66.6607C39.1948 72.0079 65.1177 60.462 76.2087 42.7595C83.6579 30.8798 80.0824 18.779 69.2232 10.987C65.9124 8.59183 62.5353 6.52197 58.3307 6.30622C57.8672 6.28272 57.47 6.63382 57.47 7.08982C57.4369 7.54582 57.801 7.93497 58.2314 7.95847Z" fill="#FE6711"/>
</svg>
