<svg width="29" height="31" viewBox="0 0 29 31" fill="none" xmlns="http://www.w3.org/2000/svg">
<path fill-rule="evenodd" clip-rule="evenodd" d="M9.63383 28.383C6.99457 27.6507 4.23136 27.2812 1.55087 26.9428C0.973529 26.8718 0.437511 27.2678 0.396272 27.8256C0.313795 28.3838 0.726421 28.8944 1.26252 28.9653C3.86054 29.2911 6.54079 29.6398 9.05633 30.3448C9.59243 30.4977 10.17 30.1829 10.335 29.6414C10.4999 29.1003 10.1699 28.5363 9.63383 28.383Z" fill="white"/>
<path fill-rule="evenodd" clip-rule="evenodd" d="M17.6338 17.9996C13.3862 13.7135 8.60259 9.97921 4.43751 5.57818C4.06636 5.16715 3.40655 5.14513 2.99417 5.52884C2.58178 5.91296 2.54071 6.55886 2.95309 6.96989C7.11817 11.3836 11.9018 15.1301 16.1494 19.4288C16.5618 19.83 17.2214 19.8358 17.6338 19.441C18.0049 19.0467 18.0462 18.4008 17.6338 17.9996Z" fill="white"/>
<path fill-rule="evenodd" clip-rule="evenodd" d="M25.5934 1.51423C25.7171 3.96736 25.8406 6.42048 25.9643 8.87401C25.9643 9.43592 26.4594 9.86978 27.0368 9.84246C27.6141 9.81473 28.0263 9.33642 28.0263 8.77411C27.9025 6.31691 27.7791 3.86011 27.6553 1.40332C27.6141 0.841412 27.1192 0.410403 26.5418 0.440985C26.0057 0.471568 25.5522 0.952734 25.5934 1.51423Z" fill="white"/>
</svg>
