<svg width="21" height="18" viewBox="0 0 21 18" fill="none" xmlns="http://www.w3.org/2000/svg">
<path fill-rule="evenodd" clip-rule="evenodd" d="M14.6982 2.53066C15.6712 2.5807 16.4446 3.07453 17.2181 3.62904C19.7546 5.45001 20.6029 8.27535 18.8648 11.0517C16.162 15.3572 9.86646 18.1751 4.98477 16.8746C3.90365 16.588 2.43997 16.3354 1.36716 14.9358C0.369203 13.6344 0.410785 12.0874 0.868184 10.6551C1.3339 9.18654 2.23206 7.83497 2.94727 6.96617C6.07421 3.17561 12.3364 -0.269495 17.9998 1.54674C18.1163 1.58173 18.2327 1.52155 18.266 1.41233C18.2992 1.3031 18.241 1.18598 18.1329 1.15099C12.3031 -0.718192 5.84132 2.80089 2.6229 6.70192C1.73305 7.78526 0.568828 9.59368 0.236175 11.4648C0.0116335 12.7436 0.169611 14.0509 1.03451 15.1881C2.17385 16.679 3.72902 16.971 4.87667 17.2762C9.91637 18.6194 16.428 15.7192 19.214 11.2724C21.0852 8.28832 20.187 5.24869 17.4593 3.2914C16.6276 2.68976 15.7793 2.16982 14.7232 2.11563C14.6067 2.10973 14.507 2.19792 14.507 2.31246C14.4987 2.42701 14.5901 2.52476 14.6982 2.53066Z" fill="#FE6711"/>
</svg>
