<svg width="33" height="36" viewBox="0 0 33 36" fill="none" xmlns="http://www.w3.org/2000/svg">
<path fill-rule="evenodd" clip-rule="evenodd" d="M11.4247 32.7337C8.35472 31.8818 5.14056 31.4521 2.02262 31.0584C1.35107 30.9759 0.727575 31.4364 0.679607 32.0853C0.58367 32.7346 1.06363 33.3285 1.68722 33.411C4.70922 33.79 7.82688 34.1955 10.7529 35.0156C11.3765 35.1934 12.0484 34.8273 12.2402 34.1974C12.4321 33.568 12.0483 32.912 11.4247 32.7337Z" fill="white"/>
<path fill-rule="evenodd" clip-rule="evenodd" d="M20.7302 20.6556C15.7894 15.6701 10.2251 11.3264 5.38033 6.20711C4.94861 5.72901 4.18112 5.70339 3.70144 6.14972C3.22176 6.59652 3.17397 7.34783 3.65366 7.82594C8.49845 12.9599 14.0628 17.3179 19.0035 22.3181C19.4832 22.7848 20.2505 22.7914 20.7302 22.3323C21.1619 21.8736 21.2099 21.1223 20.7302 20.6556Z" fill="white"/>
<path fill-rule="evenodd" clip-rule="evenodd" d="M29.9888 1.47991C30.1327 4.33337 30.2763 7.18683 30.4202 10.0408C30.4202 10.6944 30.9961 11.199 31.6676 11.1673C32.3392 11.135 32.8186 10.5786 32.8186 9.92457C32.6747 7.06636 32.5311 4.20863 32.3872 1.3509C32.3392 0.697293 31.7635 0.195945 31.0919 0.231518C30.4683 0.267092 29.9408 0.826782 29.9888 1.47991Z" fill="white"/>
</svg>
