<svg width="81" height="69" viewBox="0 0 81 69" fill="none" xmlns="http://www.w3.org/2000/svg">
<path fill-rule="evenodd" clip-rule="evenodd" d="M58.1544 8.5175C62.0249 8.71655 65.1014 10.681 68.178 12.8868C78.2679 20.1304 81.6424 31.3693 74.7284 42.4135C63.9769 59.5403 38.9341 70.7495 19.5152 65.5764C15.2146 64.4363 9.39225 63.4314 5.12473 57.8639C1.15495 52.6872 1.32036 46.5331 3.13984 40.8356C4.99241 34.9939 8.56521 29.6175 11.4102 26.1615C23.8489 11.083 48.7593 -2.62123 71.2878 4.60355C71.7509 4.74276 72.2141 4.50337 72.3465 4.06889C72.4788 3.63441 72.247 3.16852 71.817 3.02931C48.6268 -4.40609 22.9225 9.59245 10.1199 25.1104C6.58019 29.4198 1.94903 36.6135 0.625773 44.0565C-0.267428 49.1436 0.360991 54.3438 3.80147 58.8674C8.33364 64.798 14.52 65.9596 19.0852 67.1738C39.1326 72.5168 65.0353 60.98 76.1176 43.2913C83.5609 31.4209 79.9882 19.3295 69.1375 11.5436C65.8293 9.15037 62.4549 7.08213 58.2535 6.86655C57.7904 6.84307 57.3936 7.19389 57.3936 7.64954C57.3605 8.10518 57.7243 8.49402 58.1544 8.5175Z" fill="#FE6711"/>
</svg>
