<svg width="28" height="30" viewBox="0 0 28 30" fill="none" xmlns="http://www.w3.org/2000/svg">
<path fill-rule="evenodd" clip-rule="evenodd" d="M9.56287 28.0013C6.92568 27.2695 4.16463 26.9004 1.48623 26.5622C0.909348 26.4913 0.373749 26.8869 0.332543 27.4443C0.250131 28.0021 0.662434 28.5122 1.19811 28.5831C3.7941 28.9087 6.47225 29.257 8.98583 29.9615C9.52151 30.1143 10.0986 29.7998 10.2635 29.2587C10.4283 28.718 10.0986 28.1545 9.56287 28.0013Z" fill="white"/>
<path fill-rule="evenodd" clip-rule="evenodd" d="M17.5566 17.6261C13.3124 13.3434 8.53251 9.61199 4.37069 5.2144C3.99984 4.80369 3.34054 4.78169 2.92848 5.1651C2.51642 5.54892 2.47537 6.19431 2.88743 6.60502C7.04925 11.0152 11.8292 14.7589 16.0734 19.0542C16.4855 19.4551 17.1446 19.4608 17.5566 19.0664C17.9275 18.6724 17.9687 18.027 17.5566 17.6261Z" fill="white"/>
<path fill-rule="evenodd" clip-rule="evenodd" d="M25.5099 1.15352C25.6335 3.60473 25.7569 6.05594 25.8805 8.50755C25.8805 9.06901 26.3753 9.50254 26.9521 9.47524C27.529 9.44753 27.9408 8.9696 27.9408 8.40773C27.8172 5.95245 27.6939 3.49757 27.5702 1.0427C27.529 0.481235 27.0345 0.050562 26.4576 0.0811206C25.9219 0.111679 25.4687 0.592469 25.5099 1.15352Z" fill="white"/>
</svg>
