<svg width="36" height="39" viewBox="0 0 36 39" fill="none" xmlns="http://www.w3.org/2000/svg">
<path fill-rule="evenodd" clip-rule="evenodd" d="M12.0451 36.3948C8.60762 35.441 5.0087 34.9598 1.51751 34.519C0.765559 34.4266 0.0674254 34.9423 0.0137148 35.6688C-0.0937064 36.3959 0.443714 37.0608 1.14195 37.1532C4.52572 37.5776 8.0166 38.0317 11.2929 38.9499C11.9912 39.1491 12.7434 38.7391 12.9583 38.0338C13.1731 37.329 12.7433 36.5945 12.0451 36.3948Z" fill="white"/>
<path fill-rule="evenodd" clip-rule="evenodd" d="M22.4645 22.8712C16.9323 17.2889 10.7019 12.4251 5.27712 6.69305C4.79373 6.15771 3.93436 6.12903 3.39725 6.62879C2.86015 7.12908 2.80665 7.97032 3.34375 8.50567C8.76852 14.2542 14.999 19.1339 20.5311 24.7327C21.0683 25.2553 21.9274 25.2627 22.4645 24.7486C22.9479 24.2351 23.0016 23.3938 22.4645 22.8712Z" fill="white"/>
<path fill-rule="evenodd" clip-rule="evenodd" d="M32.8314 1.39983C32.9925 4.59489 33.1533 7.78994 33.3145 10.9855C33.3145 11.7174 33.9593 12.2825 34.7113 12.2469C35.4632 12.2108 36 11.5878 36 10.8554C35.8389 7.65505 35.6781 4.45521 35.5169 1.25537C35.4632 0.523529 34.8186 -0.0378368 34.0666 0.00199523C33.3684 0.0418272 32.7777 0.668519 32.8314 1.39983Z" fill="white"/>
</svg>
