<svg width="94" height="80" viewBox="0 0 94 80" fill="none" xmlns="http://www.w3.org/2000/svg">
<path fill-rule="evenodd" clip-rule="evenodd" d="M67.8245 9.64258C72.3302 9.8743 75.9116 12.1611 79.4931 14.7289C91.2388 23.1612 95.1671 36.2445 87.1185 49.101C74.6026 69.0385 45.4501 82.0872 22.8445 76.0652C17.8381 74.738 11.0603 73.5682 6.09245 67.087C1.47121 61.0608 1.66376 53.8967 3.78183 47.2642C5.93841 40.4639 10.0975 34.2052 13.4094 30.1821C27.8893 12.6291 56.8877 -3.32407 83.1132 5.08633C83.6524 5.24838 84.1916 4.9697 84.3456 4.46392C84.4997 3.95815 84.2299 3.4158 83.7292 3.25375C56.7335 -5.40185 26.8109 10.8939 11.9074 28.9584C7.78676 33.975 2.39561 42.3492 0.85519 51.0137C-0.18459 56.9356 0.546957 62.9892 4.55204 68.2552C9.82796 75.1591 17.0295 76.5113 22.3439 77.9247C45.6812 84.1445 75.8346 70.7144 88.7356 50.123C97.4004 36.3045 93.2415 22.2289 80.6101 13.1653C76.759 10.3793 72.8308 7.97166 67.94 7.7207C67.4008 7.69337 66.9389 8.10176 66.9389 8.63218C66.9004 9.16259 67.3239 9.61525 67.8245 9.64258Z" fill="#FE6711"/>
</svg>
