<svg width="34" height="36" viewBox="0 0 34 36" fill="none" xmlns="http://www.w3.org/2000/svg">
<path fill-rule="evenodd" clip-rule="evenodd" d="M11.7195 33.107C8.64099 32.2528 5.41784 31.8219 2.29119 31.4271C1.61775 31.3443 0.992514 31.8062 0.944412 32.4568C0.848207 33.108 1.32951 33.7035 1.95484 33.7862C4.9853 34.1663 8.11167 34.5729 11.0459 35.3953C11.6713 35.5737 12.345 35.2065 12.5374 34.5749C12.7298 33.9437 12.3449 33.2859 11.7195 33.107Z" fill="white"/>
<path fill-rule="evenodd" clip-rule="evenodd" d="M21.0512 20.9954C16.0967 15.996 10.5168 11.6401 5.65844 6.5065C5.22551 6.02706 4.45588 6.00137 3.97485 6.44895C3.49383 6.897 3.44591 7.65041 3.92694 8.12986C8.78528 13.2782 14.3652 17.6483 19.3197 22.6625C19.8007 23.1306 20.5702 23.1372 21.0512 22.6768C21.4841 22.2169 21.5322 21.4634 21.0512 20.9954Z" fill="white"/>
<path fill-rule="evenodd" clip-rule="evenodd" d="M30.3356 1.76612C30.4799 4.62756 30.6239 7.48901 30.7682 10.3509C30.7682 11.0064 31.3457 11.5124 32.0191 11.4806C32.6926 11.4482 33.1733 10.8903 33.1733 10.2344C33.029 7.3682 32.885 4.50247 32.7407 1.63675C32.6926 0.981316 32.1153 0.478565 31.4418 0.514238C30.8165 0.549911 30.2875 1.11117 30.3356 1.76612Z" fill="white"/>
</svg>
