<svg width="290" height="2054" viewBox="0 0 290 2054" fill="none" xmlns="http://www.w3.org/2000/svg">
<path d="M235.197 858L237.68 856.316L235.197 858ZM82 1412L79.1768 1410.99L82 1412ZM235.197 1835.02L238.197 1835.02L235.197 1835.02ZM141.672 2046.73C142.485 2045.29 141.974 2043.46 140.53 2042.64C139.087 2041.83 137.257 2042.34 136.444 2043.79L141.672 2046.73ZM144.555 2030.57C143.64 2031.95 144.018 2033.81 145.399 2034.73C146.78 2035.64 148.642 2035.26 149.557 2033.88L144.555 2030.57ZM158.267 2021.51C159.254 2020.18 158.975 2018.3 157.645 2017.32C156.314 2016.33 154.435 2016.61 153.448 2017.94L158.267 2021.51ZM162.822 2005.74C161.795 2007.04 162.017 2008.93 163.317 2009.96C164.617 2010.98 166.503 2010.76 167.53 2009.46L162.822 2005.74ZM177.061 1997.53C178.097 1996.24 177.888 1994.35 176.595 1993.31C175.302 1992.28 173.414 1992.49 172.378 1993.78L177.061 1997.53ZM181.833 1981.83C180.818 1983.14 181.057 1985.02 182.367 1986.03C183.677 1987.05 185.561 1986.81 186.576 1985.5L181.833 1981.83ZM195.802 1973.16C196.767 1971.82 196.457 1969.94 195.111 1968.98C193.764 1968.01 191.89 1968.32 190.925 1969.67L195.802 1973.16ZM199.411 1957.14C198.521 1958.54 198.934 1960.4 200.331 1961.29C201.729 1962.18 203.584 1961.76 204.473 1960.37L199.411 1957.14ZM212.347 1947.03C213.139 1945.57 212.602 1943.75 211.146 1942.96C209.691 1942.17 207.869 1942.71 207.077 1944.16L212.347 1947.03ZM213.772 1930.68C213.093 1932.19 213.767 1933.96 215.278 1934.64C216.79 1935.32 218.565 1934.65 219.245 1933.14L213.772 1930.68ZM225.048 1918.74C225.606 1917.18 224.795 1915.46 223.235 1914.9C221.675 1914.34 219.958 1915.16 219.399 1916.72L225.048 1918.74ZM223.932 1902.34C223.494 1903.94 224.434 1905.59 226.032 1906.02C227.63 1906.46 229.28 1905.52 229.718 1903.92L223.932 1902.34ZM233.268 1888.86C233.592 1887.23 232.536 1885.65 230.911 1885.33C229.286 1885.01 227.707 1886.06 227.384 1887.69L233.268 1888.86ZM229.837 1872.81C229.62 1874.45 230.775 1875.96 232.417 1876.18C234.06 1876.4 235.568 1875.24 235.785 1873.6L229.837 1872.81ZM237.367 1858.18C237.49 1856.53 236.25 1855.09 234.597 1854.97C232.945 1854.85 231.506 1856.09 231.384 1857.74L237.367 1858.18ZM232.11 1842.66C232.071 1844.31 233.383 1845.69 235.039 1845.73C236.695 1845.76 238.069 1844.45 238.108 1842.8L232.11 1842.66ZM237.934 1827.5C237.819 1825.85 236.385 1824.6 234.733 1824.72C233.08 1824.83 231.833 1826.26 231.948 1827.92L237.934 1827.5ZM230.036 1813.8C230.36 1815.42 231.939 1816.48 233.564 1816.15C235.189 1815.83 236.244 1814.25 235.92 1812.63L230.036 1813.8ZM232.194 1798.15C231.698 1796.57 230.014 1795.69 228.433 1796.19C226.852 1796.68 225.973 1798.37 226.469 1799.95L232.194 1798.15ZM221.557 1786.46C222.188 1787.99 223.942 1788.72 225.474 1788.09C227.006 1787.46 227.735 1785.7 227.103 1784.17L221.557 1786.46ZM220.954 1770.67C220.218 1769.19 218.418 1768.58 216.933 1769.32C215.449 1770.05 214.843 1771.85 215.579 1773.34L220.954 1770.67ZM208.782 1760.55C209.597 1762 211.428 1762.5 212.87 1761.69C214.312 1760.87 214.82 1759.04 214.005 1757.6L208.782 1760.55ZM206.46 1744.91C205.586 1743.5 203.736 1743.07 202.329 1743.94C200.921 1744.81 200.489 1746.66 201.364 1748.07L206.46 1744.91ZM193.484 1735.84C194.401 1737.22 196.263 1737.59 197.643 1736.67C199.023 1735.76 199.397 1733.89 198.48 1732.52L193.484 1735.84ZM190.19 1720.36C189.242 1719 187.372 1718.67 186.013 1719.62C184.654 1720.57 184.321 1722.44 185.269 1723.8L190.19 1720.36ZM176.821 1711.89C177.789 1713.24 179.664 1713.54 181.009 1712.57C182.353 1711.61 182.659 1709.73 181.69 1708.39L176.821 1711.89ZM173.065 1696.53C172.086 1695.19 170.208 1694.9 168.872 1695.88C167.536 1696.86 167.246 1698.74 168.226 1700.07L173.065 1696.53ZM159.555 1688.29C160.538 1689.62 162.416 1689.91 163.75 1688.92C165.084 1687.94 165.368 1686.06 164.385 1684.73L159.555 1688.29ZM155.714 1672.94C154.735 1671.61 152.858 1671.32 151.521 1672.3C150.185 1673.28 149.896 1675.15 150.875 1676.49L155.714 1672.94ZM142.247 1664.63C143.217 1665.98 145.092 1666.28 146.435 1665.31C147.779 1664.34 148.083 1662.47 147.114 1661.12L142.247 1664.63ZM138.641 1649.23C137.689 1647.87 135.818 1647.55 134.462 1648.5C133.106 1649.45 132.779 1651.32 133.731 1652.68L138.641 1649.23ZM125.387 1640.58C126.316 1641.96 128.181 1642.32 129.553 1641.39C130.925 1640.46 131.285 1638.59 130.357 1637.22L125.387 1640.58ZM122.322 1625.06C121.425 1623.67 119.569 1623.27 118.176 1624.17C116.783 1625.06 116.381 1626.92 117.278 1628.31L122.322 1625.06ZM109.471 1615.83C110.33 1617.25 112.175 1617.7 113.592 1616.84C115.009 1615.98 115.462 1614.14 114.603 1612.72L109.471 1615.83ZM107.27 1600.17C106.459 1598.72 104.63 1598.21 103.186 1599.02C101.741 1599.83 101.227 1601.66 102.039 1603.1L107.27 1600.17ZM95.0588 1590.1C95.8136 1591.58 97.6212 1592.16 99.0961 1591.41C100.571 1590.65 101.155 1588.85 100.4 1587.37L95.0588 1590.1ZM94.0752 1574.32C93.3867 1572.81 91.6069 1572.15 90.0999 1572.84C88.5928 1573.53 87.9293 1575.31 88.6177 1576.81L94.0752 1574.32ZM82.8079 1563.22C83.4195 1564.76 85.1636 1565.51 86.7034 1564.9C88.2433 1564.28 88.9957 1562.54 88.3841 1561L82.8079 1563.22ZM83.4191 1547.42C82.8952 1545.84 81.1963 1544.99 79.6245 1545.52C78.0526 1546.04 77.203 1547.74 77.7269 1549.31L83.4191 1547.42ZM73.4741 1535.12C73.8994 1536.72 75.5423 1537.67 77.1436 1537.25C78.745 1536.82 79.6983 1535.18 79.273 1533.58L73.4741 1535.12ZM76.0344 1519.52C75.7176 1517.89 74.1424 1516.83 72.5161 1517.15C70.8898 1517.46 69.8283 1519.04 70.145 1520.66L76.0344 1519.52ZM67.8243 1506C68.0243 1507.65 69.5197 1508.82 71.1645 1508.62C72.8092 1508.42 73.9804 1506.92 73.7805 1505.28L67.8243 1506ZM72.5709 1490.92C72.4935 1489.26 71.0891 1487.99 69.4341 1488.06C67.779 1488.14 66.5001 1489.54 66.5775 1491.2L72.5709 1490.92ZM66.4442 1476.34C66.3963 1477.99 67.7002 1479.37 69.3563 1479.42C71.0125 1479.47 72.3938 1478.16 72.4417 1476.51L66.4442 1476.34ZM73.4019 1462.11C73.5742 1460.47 72.378 1458.99 70.7301 1458.82C69.0823 1458.65 67.6067 1459.84 67.4345 1461.49L73.4019 1462.11ZM69.5213 1446.79C69.2289 1448.42 70.3139 1449.98 71.9447 1450.27C73.5755 1450.57 75.1347 1449.48 75.4271 1447.85L69.5213 1446.79ZM78.464 1433.79C78.8697 1432.18 77.8963 1430.55 76.2899 1430.15C74.6835 1429.74 73.0524 1430.71 72.6467 1432.32L78.464 1433.79ZM76.7445 1418.1C76.234 1419.68 77.0979 1421.37 78.6741 1421.88C80.2504 1422.39 81.942 1421.53 82.4526 1419.95L76.7445 1418.1ZM87.3657 1406.18C87.9604 1404.63 87.1888 1402.9 85.6424 1402.3C84.0959 1401.71 82.3602 1402.48 81.7655 1404.03L87.3657 1406.18ZM87.3911 1390.26C86.7333 1391.78 87.4328 1393.55 88.9535 1394.21C90.4742 1394.87 92.2402 1394.17 92.898 1392.65L87.3911 1390.26ZM98.9624 1379.32C99.676 1377.83 99.0422 1376.03 97.5469 1375.32C96.0516 1374.61 94.2609 1375.24 93.5474 1376.74L98.9624 1379.32ZM100.156 1363.46C99.3942 1364.93 99.9688 1366.75 101.44 1367.51C102.911 1368.27 104.722 1367.69 105.484 1366.22L100.156 1363.46ZM112.415 1353.32C113.219 1351.87 112.697 1350.04 111.249 1349.24C109.8 1348.43 107.974 1348.96 107.169 1350.4L112.415 1353.32ZM114.531 1337.54C113.69 1338.97 114.167 1340.81 115.594 1341.65C117.022 1342.49 118.861 1342.01 119.702 1340.58L114.531 1337.54ZM127.292 1328.01C128.163 1326.6 127.727 1324.75 126.317 1323.88C124.908 1323.01 123.059 1323.45 122.188 1324.86L127.292 1328.01ZM130.082 1312.35C129.185 1313.74 129.588 1315.59 130.982 1316.49C132.375 1317.39 134.232 1316.98 135.128 1315.59L130.082 1312.35ZM143.172 1303.29C144.088 1301.91 143.713 1300.05 142.333 1299.14C140.953 1298.22 139.091 1298.59 138.174 1299.97L143.172 1303.29ZM146.428 1287.71C145.495 1289.08 145.849 1290.95 147.218 1291.88C148.587 1292.81 150.453 1292.46 151.386 1291.09L146.428 1287.71ZM159.73 1278.96C160.675 1277.6 160.337 1275.73 158.976 1274.79C157.615 1273.84 155.746 1274.18 154.801 1275.54L159.73 1278.96ZM163.253 1263.44C162.3 1264.8 162.627 1266.67 163.983 1267.62C165.339 1268.57 167.21 1268.25 168.162 1266.89L163.253 1263.44ZM176.651 1254.85C177.607 1253.49 177.285 1251.62 175.932 1250.66C174.579 1249.71 172.707 1250.03 171.751 1251.38L176.651 1254.85ZM180.26 1239.34C179.305 1240.69 179.627 1242.57 180.98 1243.52C182.334 1244.48 184.206 1244.16 185.161 1242.8L180.26 1239.34ZM193.654 1230.74C194.605 1229.39 194.277 1227.51 192.92 1226.56C191.564 1225.61 189.693 1225.94 188.742 1227.3L193.654 1230.74ZM197.162 1215.22C196.219 1216.58 196.559 1218.45 197.921 1219.39C199.283 1220.34 201.152 1220 202.095 1218.64L197.162 1215.22ZM210.455 1206.45C211.386 1205.08 211.029 1203.21 209.658 1202.28C208.287 1201.35 206.422 1201.71 205.491 1203.08L210.455 1206.45ZM213.68 1190.86C212.767 1192.24 213.147 1194.1 214.529 1195.02C215.911 1195.93 217.773 1195.55 218.686 1194.17L213.68 1190.86ZM226.743 1181.77C227.634 1180.37 227.225 1178.52 225.828 1177.63C224.432 1176.74 222.577 1177.15 221.685 1178.54L226.743 1181.77ZM229.463 1166.1C228.599 1167.52 229.044 1169.36 230.458 1170.23C231.871 1171.09 233.718 1170.65 234.582 1169.23L229.463 1166.1ZM242.174 1156.5C243.006 1155.06 242.518 1153.23 241.084 1152.4C239.651 1151.56 237.815 1152.05 236.984 1153.49L242.174 1156.5ZM244.174 1140.7C243.382 1142.16 243.92 1143.98 245.375 1144.77C246.831 1145.56 248.652 1145.02 249.444 1143.57L244.174 1140.7ZM256.332 1130.43C257.078 1128.95 256.483 1127.15 255.003 1126.4C253.523 1125.66 251.72 1126.25 250.974 1127.73L256.332 1130.43ZM257.322 1114.56C256.63 1116.06 257.29 1117.85 258.796 1118.54C260.301 1119.23 262.082 1118.57 262.774 1117.06L257.322 1114.56ZM268.703 1103.44C269.332 1101.91 268.6 1100.16 267.067 1099.53C265.534 1098.9 263.782 1099.63 263.152 1101.16L268.703 1103.44ZM268.397 1087.52C267.839 1089.08 268.651 1090.8 270.211 1091.36C271.771 1091.92 273.488 1091.1 274.046 1089.54L268.397 1087.52ZM278.712 1075.4C279.19 1073.81 278.291 1072.14 276.705 1071.66C275.119 1071.18 273.445 1072.08 272.967 1073.67L278.712 1075.4ZM276.786 1059.61C276.397 1061.22 277.387 1062.84 278.998 1063.23C280.608 1063.62 282.229 1062.63 282.618 1061.02L276.786 1059.61ZM285.689 1046.43C285.981 1044.8 284.895 1043.24 283.264 1042.94C281.633 1042.65 280.074 1043.74 279.783 1045.37L285.689 1046.43ZM281.89 1030.97C281.703 1032.62 282.886 1034.1 284.532 1034.29C286.179 1034.48 287.665 1033.3 287.852 1031.65L281.89 1030.97ZM289.047 1016.76C289.124 1015.1 287.845 1013.7 286.19 1013.62C284.535 1013.54 283.131 1014.82 283.054 1016.48L289.047 1016.76ZM283.238 1001.97C283.273 1003.62 284.645 1004.94 286.301 1004.9C287.958 1004.87 289.272 1003.5 289.236 1001.84L283.238 1001.97ZM288.407 986.941C288.259 985.291 286.801 984.074 285.15 984.222C283.5 984.371 282.283 985.829 282.431 987.479L288.407 986.941ZM280.64 973.055C280.899 974.692 282.436 975.808 284.072 975.549C285.709 975.289 286.825 973.753 286.566 972.116L280.64 973.055ZM283.733 957.4C283.367 955.784 281.76 954.771 280.144 955.137C278.528 955.503 277.515 957.109 277.881 958.725L283.733 957.4ZM274.234 944.683C274.7 946.273 276.366 947.185 277.957 946.719C279.547 946.253 280.458 944.587 279.992 942.997L274.234 944.683ZM275.397 928.867C274.839 927.307 273.122 926.495 271.562 927.053C270.002 927.61 269.189 929.327 269.747 930.887L275.397 928.867ZM264.447 917.269C265.089 918.796 266.848 919.513 268.375 918.871C269.903 918.228 270.62 916.469 269.977 914.942L264.447 917.269ZM263.839 901.344C263.12 899.851 261.327 899.224 259.834 899.944C258.342 900.663 257.715 902.456 258.434 903.949L263.839 901.344ZM251.835 891.039C252.623 892.497 254.443 893.04 255.901 892.253C257.358 891.465 257.902 889.645 257.114 888.187L251.835 891.039ZM249.712 875.175C248.862 873.753 247.02 873.288 245.598 874.138C244.176 874.987 243.711 876.829 244.561 878.252L249.712 875.175ZM236.861 865.92C237.765 867.308 239.623 867.7 241.012 866.796C242.4 865.892 242.792 864.033 241.888 862.645L236.861 865.92ZM233.488 850.177C232.549 848.812 230.681 848.466 229.316 849.405C227.951 850.344 227.605 852.212 228.543 853.577L233.488 850.177ZM220.228 841.639C221.183 842.993 223.055 843.316 224.409 842.361C225.763 841.405 226.086 839.534 225.131 838.18L220.228 841.639ZM216.567 826.195C215.596 824.852 213.721 824.551 212.378 825.523C211.036 826.494 210.735 828.369 211.706 829.712L216.567 826.195ZM203.056 817.897C204.042 819.229 205.921 819.508 207.253 818.522C208.584 817.536 208.864 815.657 207.878 814.326L203.056 817.897ZM199.084 802.587C198.084 801.266 196.203 801.006 194.882 802.006C193.561 803.007 193.301 804.888 194.301 806.209L199.084 802.587ZM185.442 794.628C186.455 795.939 188.339 796.181 189.65 795.168C190.961 794.155 191.203 792.271 190.19 790.96L185.442 794.628ZM181.161 779.376C180.137 778.073 178.251 777.848 176.949 778.871C175.646 779.895 175.42 781.781 176.444 783.084L181.161 779.376ZM167.344 771.595C168.377 772.89 170.265 773.102 171.56 772.069C172.855 771.036 173.068 769.149 172.035 767.853L167.344 771.595ZM162.851 756.407C161.811 755.117 159.923 754.915 158.633 755.955C157.343 756.995 157.141 758.883 158.181 760.173L162.851 756.407ZM148.971 748.796C150.015 750.082 151.905 750.278 153.191 749.234C154.477 748.189 154.673 746.3 153.629 745.014L148.971 748.796ZM144.39 733.651C143.344 732.365 141.455 732.171 140.17 733.217C138.884 734.262 138.69 736.152 139.736 737.437L144.39 733.651ZM130.5 726.07C131.543 727.357 133.433 727.554 134.72 726.511C136.007 725.468 136.204 723.578 135.161 722.291L130.5 726.07ZM125.974 710.908C124.937 709.616 123.049 709.409 121.757 710.447C120.465 711.484 120.258 713.372 121.295 714.664L125.974 710.908ZM112.156 703.189C113.183 704.49 115.069 704.712 116.37 703.685C117.671 702.659 117.893 700.772 116.866 699.472L112.156 703.189ZM107.878 687.951C106.867 686.638 104.984 686.394 103.671 687.404C102.358 688.415 102.114 690.299 103.125 691.612L107.878 687.951ZM94.245 679.9C95.2351 681.228 97.1147 681.502 98.4432 680.512C99.7717 679.522 100.046 677.643 99.0559 676.314L94.245 679.9ZM90.4471 664.529C89.4835 663.182 87.6097 662.87 86.2619 663.834C84.9141 664.797 84.6026 666.671 85.5662 668.019L90.4471 664.529ZM77.1415 655.942C78.0728 657.312 79.9386 657.668 81.309 656.737C82.6794 655.806 83.0353 653.94 82.1041 652.57L77.1415 655.942ZM74.0779 640.409C73.1848 639.014 71.3295 638.606 69.934 639.499C68.5384 640.393 68.1311 642.248 69.0242 643.643L74.0779 640.409ZM61.2661 631.103C62.1154 632.526 63.9572 632.991 65.3798 632.141C66.8024 631.292 67.2671 629.45 66.4178 628.027L61.2661 631.103ZM59.1693 615.411C58.3688 613.96 56.5439 613.433 55.0932 614.234C53.6426 615.034 53.1156 616.859 53.9161 618.31L59.1693 615.411ZM47.0176 605.261C47.7651 606.739 49.5698 607.332 51.0484 606.585C52.5271 605.837 53.1198 604.033 52.3723 602.554L47.0176 605.261ZM46.0586 589.46C45.3674 587.954 43.5863 587.294 42.0806 587.985C40.5748 588.677 39.9145 590.458 40.6058 591.963L46.0586 589.46ZM34.7055 578.433C35.3385 579.964 37.0929 580.693 38.6241 580.06C40.1552 579.427 40.8833 577.672 40.2503 576.141L34.7055 578.433ZM34.9589 562.613C34.3849 561.059 32.6596 560.264 31.1054 560.838C29.5511 561.412 28.7564 563.137 29.3304 564.692L34.9589 562.613ZM24.4826 550.763C24.998 552.338 26.6922 553.196 28.2669 552.681C29.8416 552.166 30.7004 550.471 30.1851 548.897L24.4826 550.763ZM25.92 535.012C25.462 533.42 23.7999 532.5 22.2076 532.958C20.6153 533.416 19.6957 535.078 20.1537 536.671L25.92 535.012ZM16.3265 522.435C16.7292 524.042 18.3585 525.018 19.9657 524.615C21.5729 524.213 22.5493 522.583 22.1466 520.976L16.3265 522.435ZM18.8421 506.801C18.4921 505.182 16.8955 504.153 15.276 504.503C13.6566 504.853 12.6275 506.449 12.9776 508.069L18.8421 506.801ZM10.0796 493.579C10.3799 495.209 11.9443 496.286 13.5737 495.986C15.2031 495.686 16.2805 494.121 15.9802 492.492L10.0796 493.579ZM13.5422 478.104C13.2884 476.467 11.7554 475.345 10.1181 475.599C8.48077 475.853 7.35924 477.386 7.61306 479.023L13.5422 478.104ZM5.55977 464.509C5.77062 466.152 7.27377 467.314 8.91716 467.103C10.5605 466.892 11.7218 465.389 11.511 463.745L5.55977 464.509ZM9.83593 449.282C9.66505 447.634 8.19053 446.437 6.54251 446.608C4.8945 446.778 3.69705 448.253 3.86793 449.901L9.83593 449.282ZM2.5106 435.175C2.64435 436.827 4.09154 438.057 5.74299 437.923C7.39443 437.789 8.62477 436.342 8.49102 434.691L2.5106 435.175ZM7.46739 420.171C7.36765 418.517 5.94608 417.257 4.29223 417.357C2.63838 417.457 1.37853 418.878 1.47827 420.532L7.46739 420.171ZM0.736328 405.895C0.804766 407.551 2.20224 408.837 3.85769 408.769C5.51313 408.701 6.79965 407.303 6.73121 405.648L0.736328 405.895ZM6.2551 390.957C6.2158 389.3 4.84117 387.989 3.18479 388.029C1.5284 388.068 0.217488 389.442 0.256785 391.099L6.2551 390.957ZM0.0286709 376.486C0.0414501 378.142 1.39492 379.475 3.05172 379.462C4.70853 379.45 6.04127 378.096 6.02849 376.439L0.0286709 376.486ZM6.04519 361.498C6.0652 359.841 4.73838 358.482 3.08165 358.462C1.42491 358.442 0.0656416 359.769 0.045629 361.425L6.04519 361.498ZM0.405398 346.54C0.345145 348.196 1.63856 349.587 3.29432 349.648C4.95007 349.708 6.34118 348.414 6.40143 346.759L0.405398 346.54ZM7.12951 331.896C7.23159 330.242 5.97374 328.819 4.32004 328.717C2.66633 328.615 1.24298 329.873 1.1409 331.526L7.12951 331.896ZM2.25145 316.648C2.10669 318.298 3.32735 319.754 4.97787 319.898C6.62839 320.043 8.08374 318.823 8.2285 317.172L2.25145 316.648ZM9.71484 302.466C9.90346 300.819 8.72196 299.332 7.07588 299.143C5.4298 298.955 3.94247 300.136 3.75385 301.782L9.71484 302.466ZM5.66709 286.891C5.43329 288.531 6.57346 290.05 8.21374 290.284C9.85402 290.518 11.3733 289.378 11.6071 287.737L5.66709 286.891ZM13.8955 273.146C14.1753 271.512 13.0782 269.962 11.4451 269.682C9.81207 269.402 8.26141 270.499 7.98164 272.132L13.8955 273.146ZM10.7099 257.472C10.3833 259.096 11.4353 260.678 13.0596 261.004C14.684 261.331 16.2655 260.279 16.5921 258.654L10.7099 257.472ZM19.7352 244.137C20.1099 242.523 19.1053 240.911 17.4913 240.536C15.8774 240.162 14.2653 241.166 13.8906 242.78L19.7352 244.137ZM17.4986 228.239C17.0752 229.841 18.0305 231.482 19.6323 231.906C21.2342 232.329 22.876 231.374 23.2994 229.772L17.4986 228.239ZM27.2906 215.56C27.7632 213.972 26.8591 212.302 25.271 211.829C23.683 211.356 22.0125 212.261 21.5399 213.849L27.2906 215.56ZM26.0208 199.614C25.4984 201.186 26.3496 202.884 27.9219 203.407C29.4943 203.929 31.1924 203.078 31.7148 201.506L26.0208 199.614ZM36.6134 187.516C37.1862 185.962 36.3902 184.237 34.8356 183.664C33.2809 183.091 31.5562 183.887 30.9834 185.442L36.6134 187.516ZM36.4006 171.45C35.777 172.985 36.516 174.735 38.051 175.358C39.5861 175.982 41.3359 175.243 41.9595 173.708L36.4006 171.45ZM47.7526 160.099C48.4269 158.586 47.7468 156.813 46.2334 156.138C44.72 155.464 42.9464 156.144 42.2721 157.657L47.7526 160.099ZM48.6005 144.077C47.8753 145.567 48.495 147.362 49.9847 148.087C51.4744 148.813 53.27 148.193 53.9952 146.703L48.6005 144.077ZM60.6889 133.532C61.4649 132.068 60.9072 130.252 59.4433 129.476C57.9794 128.7 56.1636 129.258 55.3876 130.722L60.6889 133.532ZM62.6341 117.607C61.8076 119.043 62.3017 120.877 63.7376 121.704C65.1736 122.53 67.0077 122.036 67.8342 120.6L62.6341 117.607ZM75.4301 107.926C76.3069 106.52 75.878 104.67 74.4722 103.793C73.0664 102.916 71.2159 103.345 70.3391 104.751L75.4301 107.926ZM78.5 92.1731C77.5733 93.5466 77.9354 95.4112 79.3089 96.338C80.6823 97.2647 82.547 96.9025 83.4737 95.5291L78.5 92.1731ZM91.9588 83.4342C92.935 82.0955 92.6411 80.2188 91.3024 79.2426C89.9637 78.2664 88.0871 78.5603 87.1109 79.899L91.9588 83.4342ZM96.1607 67.9595C95.1354 69.261 95.3593 71.1473 96.6609 72.1726C97.9624 73.1979 99.8486 72.9739 100.874 71.6724L96.1607 67.9595ZM110.198 60.286C111.271 59.0243 111.119 57.1309 109.858 56.057C108.596 54.983 106.702 55.1353 105.629 56.397L110.198 60.286ZM115.609 45.1263C114.486 46.3447 114.564 48.2426 115.782 49.3654C117.001 50.4882 118.898 50.4107 120.021 49.1923L115.609 45.1263ZM130.234 38.5517C131.406 37.3803 131.406 35.4808 130.235 34.3091C129.064 33.1373 127.164 33.137 125.992 34.3084L130.234 38.5517ZM136.861 23.9037C135.639 25.0225 135.556 26.9201 136.674 28.1422C137.793 29.3642 139.691 29.4479 140.913 28.329L136.861 23.9037ZM152.021 18.6365C153.296 17.5788 153.473 15.6875 152.415 14.4122C151.357 13.1368 149.466 12.9603 148.191 14.018L152.021 18.6365ZM160.065 4.74476C158.726 5.7205 158.431 7.59702 159.407 8.93608C160.383 10.2751 162.259 10.5697 163.598 9.59394L160.065 4.74476ZM138.115 2053.36C139.263 2051.11 140.45 2048.9 141.672 2046.73L136.444 2043.79C135.183 2046.03 133.956 2048.31 132.769 2050.64L138.115 2053.36ZM149.557 2033.88C152.353 2029.66 155.268 2025.56 158.267 2021.51L153.448 2017.94C150.399 2022.05 147.422 2026.24 144.555 2030.57L149.557 2033.88ZM167.53 2009.46C170.674 2005.48 173.857 2001.53 177.061 1997.53L172.378 1993.78C169.187 1997.76 165.983 2001.74 162.822 2005.74L167.53 2009.46ZM186.576 1985.5C189.688 1981.48 192.776 1977.39 195.802 1973.16L190.925 1969.67C187.953 1973.81 184.912 1977.85 181.833 1981.83L186.576 1985.5ZM204.473 1960.37C207.195 1956.09 209.83 1951.65 212.347 1947.03L207.077 1944.16C204.632 1948.66 202.067 1952.97 199.411 1957.14L204.473 1960.37ZM219.245 1933.14C221.311 1928.54 223.253 1923.75 225.048 1918.74L219.399 1916.72C217.659 1921.57 215.776 1926.22 213.772 1930.68L219.245 1933.14ZM229.718 1903.92C231.04 1899.1 232.228 1894.09 233.268 1888.86L227.384 1887.69C226.371 1892.78 225.215 1897.65 223.932 1902.34L229.718 1903.92ZM235.785 1873.6C236.442 1868.64 236.973 1863.51 237.367 1858.18L231.384 1857.74C230.997 1862.95 230.478 1867.97 229.837 1872.81L235.785 1873.6ZM238.108 1842.8C238.167 1840.25 238.197 1837.66 238.197 1835.02L232.197 1835.02C232.197 1837.61 232.168 1840.15 232.11 1842.66L238.108 1842.8ZM238.197 1835.02C238.197 1832.51 238.108 1830 237.934 1827.5L231.948 1827.92C232.113 1830.28 232.197 1832.65 232.197 1835.02L238.197 1835.02ZM235.92 1812.63C234.956 1807.79 233.703 1802.96 232.194 1798.15L226.469 1799.95C227.92 1804.57 229.117 1809.19 230.036 1813.8L235.92 1812.63ZM227.103 1784.17C225.245 1779.67 223.186 1775.17 220.954 1770.67L215.579 1773.34C217.757 1777.72 219.756 1782.1 221.557 1786.46L227.103 1784.17ZM214.005 1757.6C211.615 1753.37 209.093 1749.14 206.46 1744.91L201.364 1748.07C203.959 1752.25 206.438 1756.41 208.782 1760.55L214.005 1757.6ZM198.48 1732.52C195.794 1728.48 193.024 1724.43 190.19 1720.36L185.269 1723.8C188.083 1727.83 190.826 1731.84 193.484 1735.84L198.48 1732.52ZM181.69 1708.39C178.856 1704.45 175.975 1700.5 173.065 1696.53L168.226 1700.07C171.13 1704.04 174 1707.97 176.821 1711.89L181.69 1708.39ZM164.385 1684.73C161.504 1680.82 158.61 1676.89 155.714 1672.94L150.875 1676.49C153.776 1680.45 156.675 1684.38 159.555 1688.29L164.385 1684.73ZM147.114 1661.12C144.271 1657.18 141.443 1653.22 138.641 1649.23L133.731 1652.68C136.55 1656.69 139.393 1660.68 142.247 1664.63L147.114 1661.12ZM130.357 1637.22C127.634 1633.2 124.952 1629.14 122.322 1625.06L117.278 1628.31C119.935 1632.44 122.642 1636.53 125.387 1640.58L130.357 1637.22ZM114.603 1612.72C112.087 1608.57 109.639 1604.38 107.27 1600.17L102.039 1603.1C104.442 1607.38 106.924 1611.62 109.471 1615.83L114.603 1612.72ZM100.4 1587.37C98.1924 1583.06 96.0797 1578.71 94.0752 1574.32L88.6177 1576.81C90.6615 1581.29 92.8133 1585.72 95.0588 1590.1L100.4 1587.37ZM88.3841 1561C86.6017 1556.51 84.9422 1551.99 83.4191 1547.42L77.7269 1549.31C79.2875 1554 80.986 1558.63 82.8079 1563.22L88.3841 1561ZM79.273 1533.58C78.0403 1528.94 76.9563 1524.25 76.0344 1519.52L70.145 1520.66C71.0937 1525.53 72.2081 1530.35 73.4741 1535.12L79.273 1533.58ZM73.7805 1505.28C73.2045 1500.54 72.7971 1495.76 72.5709 1490.92L66.5775 1491.2C66.8107 1496.19 67.2308 1501.12 67.8243 1506L73.7805 1505.28ZM72.4417 1476.51C72.5787 1471.76 72.895 1466.96 73.4019 1462.11L67.4345 1461.49C66.9118 1466.49 66.5856 1471.44 66.4442 1476.34L72.4417 1476.51ZM75.4271 1447.85C76.2589 1443.21 77.2679 1438.52 78.464 1433.79L72.6467 1432.32C71.4166 1437.19 70.378 1442.01 69.5213 1446.79L75.4271 1447.85ZM82.4526 1419.95C83.1979 1417.65 83.9878 1415.34 84.8232 1413.01L79.1768 1410.99C78.32 1413.37 77.5096 1415.74 76.7445 1418.1L82.4526 1419.95ZM84.8232 1413.01C85.6443 1410.73 86.4921 1408.45 87.3657 1406.18L81.7655 1404.03C80.8764 1406.34 80.0131 1408.66 79.1768 1410.99L84.8232 1413.01ZM92.898 1392.65C94.8291 1388.18 96.8533 1383.74 98.9624 1379.32L93.5474 1376.74C91.4081 1381.22 89.3531 1385.73 87.3911 1390.26L92.898 1392.65ZM105.484 1366.22C107.722 1361.9 110.035 1357.6 112.415 1353.32L107.169 1350.4C104.764 1354.74 102.423 1359.09 100.156 1363.46L105.484 1366.22ZM119.702 1340.58C122.177 1336.38 124.71 1332.19 127.292 1328.01L122.188 1324.86C119.585 1329.07 117.03 1333.29 114.531 1337.54L119.702 1340.58ZM135.128 1315.59C137.771 1311.48 140.455 1307.38 143.172 1303.29L138.174 1299.97C135.443 1304.09 132.743 1308.21 130.082 1312.35L135.128 1315.59ZM151.386 1291.09C154.145 1287.04 156.929 1283 159.73 1278.96L154.801 1275.54C151.992 1279.59 149.198 1283.65 146.428 1287.71L151.386 1291.09ZM168.162 1266.89C170.985 1262.87 173.817 1258.86 176.651 1254.85L171.751 1251.38C168.915 1255.4 166.079 1259.42 163.253 1263.44L168.162 1266.89ZM185.161 1242.8C188 1238.78 190.833 1234.76 193.654 1230.74L188.742 1227.3C185.926 1231.31 183.097 1235.32 180.26 1239.34L185.161 1242.8ZM202.095 1218.64C204.905 1214.58 207.695 1210.52 210.455 1206.45L205.491 1203.08C202.742 1207.13 199.963 1211.17 197.162 1215.22L202.095 1218.64ZM218.686 1194.17C221.411 1190.04 224.099 1185.91 226.743 1181.77L221.685 1178.54C219.061 1182.65 216.39 1186.76 213.68 1190.86L218.686 1194.17ZM234.582 1169.23C237.171 1165 239.704 1160.75 242.174 1156.5L236.984 1153.49C234.539 1157.7 232.03 1161.91 229.463 1166.1L234.582 1169.23ZM249.444 1143.57C251.818 1139.21 254.117 1134.83 256.332 1130.43L250.974 1127.73C248.789 1132.07 246.519 1136.39 244.174 1140.7L249.444 1143.57ZM262.774 1117.06C264.849 1112.55 266.829 1108.01 268.703 1103.44L263.152 1101.16C261.311 1105.65 259.365 1110.11 257.322 1114.56L262.774 1117.06ZM274.046 1089.54C275.723 1084.86 277.282 1080.14 278.712 1075.4L272.967 1073.67C271.568 1078.31 270.041 1082.93 268.397 1087.52L274.046 1089.54ZM282.618 1061.02C283.786 1056.19 284.813 1051.32 285.689 1046.43L279.783 1045.37C278.928 1050.15 277.926 1054.89 276.786 1059.61L282.618 1061.02ZM287.852 1031.65C288.412 1026.72 288.814 1021.76 289.047 1016.76L283.054 1016.48C282.827 1021.34 282.436 1026.17 281.89 1030.97L287.852 1031.65ZM289.236 1001.84C289.131 996.91 288.857 991.945 288.407 986.941L282.431 987.479C282.869 992.346 283.135 997.174 283.238 1001.97L289.236 1001.84ZM286.566 972.116C285.794 967.248 284.852 962.343 283.733 957.4L277.881 958.725C278.972 963.541 279.889 968.317 280.64 973.055L286.566 972.116ZM279.992 942.997C278.623 938.322 277.094 933.612 275.397 928.867L269.747 930.887C271.405 935.524 272.899 940.122 274.234 944.683L279.992 942.997ZM269.977 914.942C268.083 910.442 266.039 905.91 263.839 901.344L258.434 903.949C260.591 908.425 262.593 912.864 264.447 917.269L269.977 914.942ZM257.114 888.187C254.787 883.88 252.321 879.543 249.712 875.175L244.561 878.252C247.127 882.547 249.55 886.81 251.835 891.039L257.114 888.187ZM241.888 862.645C240.519 860.542 239.116 858.433 237.68 856.316L232.715 859.684C234.13 861.77 235.512 863.849 236.861 865.92L241.888 862.645ZM237.68 856.316C236.28 854.252 234.882 852.206 233.488 850.177L228.543 853.577C229.931 855.595 231.322 857.631 232.715 859.684L237.68 856.316ZM225.131 838.18C222.263 834.115 219.408 830.122 216.567 826.195L211.706 829.712C214.533 833.62 217.374 837.594 220.228 841.639L225.131 838.18ZM207.878 814.326C204.929 810.346 201.998 806.435 199.084 802.587L194.301 806.209C197.203 810.041 200.121 813.935 203.056 817.897L207.878 814.326ZM190.19 790.96C187.159 787.036 184.149 783.176 181.161 779.376L176.444 783.084C179.422 786.872 182.422 790.718 185.442 794.628L190.19 790.96ZM172.035 767.853C168.947 763.982 165.885 760.168 162.851 756.407L158.181 760.173C161.209 763.928 164.264 767.733 167.344 771.595L172.035 767.853ZM153.629 745.014C150.517 741.18 147.436 737.395 144.39 733.651L139.736 737.437C142.782 741.182 145.861 744.965 148.971 748.796L153.629 745.014ZM135.161 722.291C132.059 718.464 128.996 714.673 125.974 710.908L121.295 714.664C124.325 718.438 127.394 722.237 130.5 726.07L135.161 722.291ZM116.866 699.472C113.823 695.616 110.826 691.779 107.878 687.951L103.125 691.612C106.089 695.461 109.101 699.317 112.156 703.189L116.866 699.472ZM99.0559 676.314C96.1317 672.39 93.2614 668.466 90.4471 664.529L85.5662 668.019C88.4057 671.991 91.2995 675.947 94.245 679.9L99.0559 676.314ZM82.1041 652.57C79.3679 648.543 76.6918 644.494 74.0779 640.409L69.0242 643.643C71.6697 647.777 74.3764 651.873 77.1415 655.942L82.1041 652.57ZM66.4178 628.027C63.9366 623.872 61.5197 619.67 59.1693 615.411L53.9161 618.31C56.3007 622.631 58.7516 626.891 61.2661 631.103L66.4178 628.027ZM52.3723 602.554C50.2011 598.259 48.0958 593.898 46.0586 589.46L40.6058 591.963C42.675 596.471 44.8132 600.9 47.0176 605.261L52.3723 602.554ZM40.2503 576.141C38.4209 571.716 36.6564 567.21 34.9589 562.613L29.3304 564.692C31.0546 569.36 32.847 573.938 34.7055 578.433L40.2503 576.141ZM30.1851 548.897C28.7008 544.361 27.2785 539.736 25.92 535.012L20.1537 536.671C21.5322 541.463 22.9757 546.158 24.4826 550.763L30.1851 548.897ZM22.1466 520.976C20.9867 516.347 19.8847 511.625 18.8421 506.801L12.9776 508.069C14.0338 512.955 15.1505 517.742 16.3265 522.435L22.1466 520.976ZM15.9802 492.492C15.1139 487.792 14.3008 482.998 13.5422 478.104L7.61306 479.023C8.3802 483.972 9.20277 488.822 10.0796 493.579L15.9802 492.492ZM11.511 463.745C10.9042 459.016 10.3455 454.197 9.83593 449.282L3.86793 449.901C4.38242 454.863 4.94667 459.73 5.55977 464.509L11.511 463.745ZM8.49102 434.691C8.10609 429.938 7.76461 425.099 7.46739 420.171L1.47827 420.532C1.77791 425.501 2.12227 430.38 2.5106 435.175L8.49102 434.691ZM6.73121 405.648C6.53222 400.834 6.37329 395.938 6.2551 390.957L0.256785 391.099C0.375788 396.115 0.535847 401.046 0.736328 405.895L6.73121 405.648ZM6.02849 376.439C6.00952 373.98 6 371.5 6 369L0 369C-3.13915e-07 371.515 0.00957987 374.011 0.0286709 376.486L6.02849 376.439ZM6 369C6 366.484 6.01516 363.984 6.04519 361.498L0.045629 361.425C0.0153073 363.936 3.17077e-07 366.46 0 369L6 369ZM6.40143 346.759C6.58398 341.742 6.82754 336.788 7.12951 331.896L1.1409 331.526C0.835813 336.469 0.589784 341.473 0.405398 346.54L6.40143 346.759ZM8.2285 317.172C8.6643 312.203 9.16072 307.301 9.71484 302.466L3.75385 301.782C3.19366 306.671 2.69189 311.626 2.25145 316.648L8.2285 317.172ZM11.6071 287.737C12.3107 282.801 13.0746 277.937 13.8955 273.146L7.98164 272.132C7.15127 276.979 6.37862 281.899 5.66709 286.891L11.6071 287.737ZM16.5921 258.654C17.5812 253.735 18.6302 248.896 19.7352 244.137L13.8906 242.78C12.7722 247.597 11.7106 252.494 10.7099 257.472L16.5921 258.654ZM23.2994 229.772C24.5743 224.949 25.9062 220.212 27.2906 215.56L21.5399 213.849C20.138 218.559 18.7893 223.355 17.4986 228.239L23.2994 229.772ZM31.7148 201.506C33.2956 196.747 34.9304 192.084 36.6134 187.516L30.9834 185.442C29.2782 190.07 27.6221 194.794 26.0208 199.614L31.7148 201.506ZM41.9595 173.708C43.8448 169.066 45.778 164.531 47.7526 160.099L42.2721 157.657C40.2706 162.149 38.3112 166.746 36.4006 171.45L41.9595 173.708ZM53.9952 146.703C56.1898 142.195 58.4238 137.805 60.6889 133.532L55.3876 130.722C53.0906 135.055 50.8255 139.506 48.6005 144.077L53.9952 146.703ZM67.8342 120.6C70.343 116.242 72.8783 112.017 75.4301 107.926L70.3391 104.751C67.7504 108.901 65.1786 113.186 62.6341 117.607L67.8342 120.6ZM83.4737 95.5291C86.2997 91.3407 89.1326 87.3098 91.9588 83.4342L87.1109 79.899C84.2424 83.8326 81.3675 87.9232 78.5 92.1731L83.4737 95.5291ZM100.874 71.6724C104.015 67.6854 107.129 63.8911 110.198 60.286L105.629 56.397C102.512 60.0586 99.3494 63.9117 96.1607 67.9595L100.874 71.6724ZM120.021 49.1923C123.531 45.3838 126.946 41.8388 130.234 38.5517L125.992 34.3084C122.648 37.6517 119.176 41.2558 115.609 45.1263L120.021 49.1923ZM140.913 28.329C144.949 24.634 148.679 21.4078 152.021 18.6365L148.191 14.018C144.776 16.8494 140.972 20.1398 136.861 23.9037L140.913 28.329ZM163.598 9.59394C165.494 8.21227 166.972 7.19104 167.969 6.51955C168.467 6.18381 168.845 5.93552 169.095 5.77334C169.22 5.69226 169.313 5.6327 169.373 5.5945C169.403 5.57541 169.425 5.56165 169.438 5.55321C169.445 5.54899 169.449 5.54611 169.452 5.54455C169.453 5.54377 169.454 5.54332 169.454 5.5432C169.454 5.54314 169.454 5.54317 169.454 5.54327C169.454 5.54333 169.454 5.5434 169.453 5.5435C169.453 5.54354 169.453 5.54363 169.453 5.54365C169.453 5.54375 169.453 5.54384 167.863 3C166.272 0.456157 166.272 0.456265 166.272 0.456377C166.272 0.456422 166.272 0.45654 166.272 0.456629C166.271 0.456807 166.271 0.457006 166.271 0.457226C166.27 0.457665 166.269 0.458188 166.268 0.458795C166.266 0.460008 166.264 0.461554 166.261 0.463435C166.255 0.467196 166.247 0.472293 166.236 0.478729C166.216 0.491601 166.187 0.509828 166.15 0.533432C166.076 0.580639 165.969 0.649352 165.829 0.739742C165.551 0.920519 165.144 1.18801 164.616 1.54357C163.561 2.25467 162.023 3.31812 160.065 4.74476L163.598 9.59394Z" fill="#6CBEDC"/>
</svg>
