<svg width="51" height="51" viewBox="0 0 51 51" fill="none" xmlns="http://www.w3.org/2000/svg">
<path d="M40.7402 6.74165C36.7561 2.75475 31.4587 0.559082 25.8241 0.559082C20.1896 0.559082 14.8921 2.75475 10.908 6.74165C6.92371 10.7287 4.72949 16.0294 4.72949 21.6676C4.72949 33.0736 15.507 42.5605 21.2971 47.6572C22.1017 48.3655 22.7966 48.9771 23.3502 49.4945C24.0437 50.1429 24.934 50.4671 25.824 50.4671C26.7143 50.4671 27.6044 50.1429 28.298 49.4945C28.8516 48.977 29.5465 48.3655 30.3511 47.6572C36.1412 42.5604 46.9187 33.0736 46.9187 21.6676C46.9186 16.0294 44.7245 10.7287 40.7402 6.74165ZM28.4214 45.4622C27.5991 46.186 26.8891 46.8111 26.3036 47.3582C26.0347 47.6094 25.6134 47.6095 25.3444 47.3582C24.759 46.8109 24.0489 46.1859 23.2266 45.4621C17.7832 40.6706 7.65089 31.7516 7.65089 21.6677C7.65089 11.6405 15.8032 3.48271 25.824 3.48271C35.8446 3.48271 43.9969 11.6405 43.9969 21.6677C43.997 31.7516 33.8648 40.6706 28.4214 45.4622Z" fill="#010F98"/>
<path d="M25.8235 11.5679C20.6976 11.5679 16.5273 15.7408 16.5273 20.8701C16.5273 25.9994 20.6976 30.1723 25.8235 30.1723C30.9495 30.1723 35.1196 25.9994 35.1196 20.8701C35.1196 15.7408 30.9495 11.5679 25.8235 11.5679ZM25.8235 27.2487C22.3086 27.2487 19.4489 24.3872 19.4489 20.87C19.4489 17.3528 22.3086 14.4913 25.8235 14.4913C29.3384 14.4913 32.198 17.3528 32.198 20.87C32.198 24.3872 29.3384 27.2487 25.8235 27.2487Z" fill="#FFB546"/>
</svg>
