<svg width="57" height="57" viewBox="0 0 57 57" fill="none" xmlns="http://www.w3.org/2000/svg">
<path d="M45.5476 7.06111C40.9943 2.50767 34.9401 0 28.5007 0C22.0612 0 16.007 2.50767 11.4536 7.06111C6.90019 11.6147 4.39252 17.6687 4.39252 24.108C4.39252 37.1348 16.7097 47.9698 23.3269 53.7907C24.2465 54.5997 25.0406 55.2982 25.6733 55.8892C26.4659 56.6296 27.4833 56.9999 28.5006 56.9999C29.518 56.9999 30.5352 56.6296 31.328 55.8892C31.9606 55.2981 32.7547 54.5997 33.6743 53.7907C40.2916 47.9697 52.6087 37.1348 52.6087 24.108C52.6086 17.6687 50.101 11.6147 45.5476 7.06111ZM31.4689 51.2838C30.5292 52.1105 29.7177 52.8244 29.0486 53.4493C28.7412 53.7362 28.2599 53.7363 27.9524 53.4493C27.2834 52.8242 26.4718 52.1104 25.5321 51.2837C19.3111 45.8114 7.73125 35.625 7.73125 24.1082C7.73125 12.656 17.0482 3.33907 28.5004 3.33907C39.9526 3.33907 49.2695 12.656 49.2695 24.1082C49.2696 35.625 37.6899 45.8114 31.4689 51.2838Z" fill="#010F98"/>
<path d="M28.5005 12.5732C22.6423 12.5732 17.8763 17.3391 17.8763 23.1973C17.8763 29.0555 22.6423 33.8214 28.5005 33.8214C34.3587 33.8214 39.1246 29.0555 39.1246 23.1973C39.1246 17.3391 34.3587 12.5732 28.5005 12.5732ZM28.5005 30.4823C24.4835 30.4823 21.2153 27.2141 21.2153 23.1972C21.2153 19.1802 24.4835 15.9121 28.5005 15.9121C32.5176 15.9121 35.7856 19.1802 35.7856 23.1972C35.7856 27.2141 32.5176 30.4823 28.5005 30.4823Z" fill="#FFB546"/>
</svg>
