<svg width="57" height="57" viewBox="0 0 57 57" fill="none" xmlns="http://www.w3.org/2000/svg">
<path d="M45.5477 7.06111C40.9943 2.50767 34.9402 0 28.5007 0C22.0613 0 16.007 2.50767 11.4537 7.06111C6.90025 11.6147 4.39258 17.6687 4.39258 24.108C4.39258 37.1348 16.7097 47.9698 23.327 53.7907C24.2465 54.5997 25.0406 55.2982 25.6733 55.8892C26.466 56.6296 27.4834 56.9999 28.5006 56.9999C29.518 56.9999 30.5353 56.6296 31.328 55.8892C31.9607 55.2981 32.7548 54.5997 33.6744 53.7907C40.2916 47.9697 52.6088 37.1348 52.6088 24.108C52.6087 17.6687 50.1011 11.6147 45.5477 7.06111ZM31.469 51.2838C30.5292 52.1105 29.7178 52.8244 29.0487 53.4493C28.7413 53.7362 28.2599 53.7363 27.9524 53.4493C27.2835 52.8242 26.4719 52.1104 25.5322 51.2837C19.3111 45.8114 7.73131 35.625 7.73131 24.1082C7.73131 12.656 17.0483 3.33907 28.5005 3.33907C39.9526 3.33907 49.2696 12.656 49.2696 24.1082C49.2697 35.625 37.69 45.8114 31.469 51.2838Z" fill="#010F98"/>
<path d="M28.5002 12.5732C22.6419 12.5732 17.876 17.3391 17.876 23.1973C17.876 29.0555 22.6419 33.8214 28.5002 33.8214C34.3584 33.8214 39.1242 29.0555 39.1242 23.1973C39.1242 17.3391 34.3584 12.5732 28.5002 12.5732ZM28.5002 30.4823C24.4831 30.4823 21.2149 27.2141 21.2149 23.1972C21.2149 19.1802 24.4831 15.9121 28.5002 15.9121C32.5172 15.9121 35.7853 19.1802 35.7853 23.1972C35.7853 27.2141 32.5172 30.4823 28.5002 30.4823Z" fill="#FFB546"/>
</svg>
