<svg width="44" height="44" viewBox="0 0 44 44" fill="none" xmlns="http://www.w3.org/2000/svg">
<path d="M34.5713 6.27436C31.1564 2.85447 26.6157 0.971069 21.7862 0.971069C16.9566 0.971069 12.4159 2.85447 9.0009 6.27436C5.58583 9.69433 3.70508 14.2412 3.70508 19.0776C3.70508 28.8614 12.9429 36.9991 17.9058 41.3709C18.5955 41.9785 19.1911 42.5031 19.6656 42.947C20.2601 43.5031 21.0232 43.7812 21.7861 43.7812C22.5492 43.7812 23.3121 43.5031 23.9066 42.947C24.3811 42.503 24.9767 41.9785 25.6664 41.3709C30.6293 36.999 39.8672 28.8614 39.8672 19.0776C39.8671 14.2412 37.9864 9.69433 34.5713 6.27436ZM24.0123 39.4881C23.3075 40.1089 22.6989 40.6451 22.1971 41.1145C21.9666 41.3299 21.6056 41.33 21.3749 41.1145C20.8732 40.645 20.2645 40.1088 19.5597 39.488C14.894 35.378 6.20913 27.7274 6.20913 19.0776C6.20913 10.4765 13.1968 3.4789 21.786 3.4789C30.3751 3.4789 37.3628 10.4765 37.3628 19.0776C37.3629 27.7274 28.6781 35.378 24.0123 39.4881Z" fill="#010F98"/>
<path d="M21.7869 10.4142C17.393 10.4142 13.8184 13.9936 13.8184 18.3934C13.8184 22.7933 17.393 26.3727 21.7869 26.3727C26.1808 26.3727 29.7553 22.7933 29.7553 18.3934C29.7553 13.9936 26.1808 10.4142 21.7869 10.4142ZM21.7869 23.8649C18.7739 23.8649 16.3227 21.4103 16.3227 18.3934C16.3227 15.3764 18.7739 12.9218 21.7869 12.9218C24.7998 12.9218 27.251 15.3764 27.251 18.3934C27.251 21.4103 24.7998 23.8649 21.7869 23.8649Z" fill="#FFB546"/>
</svg>
