<svg width="58" height="58" viewBox="0 0 58 58" fill="none" xmlns="http://www.w3.org/2000/svg">
<path fill-rule="evenodd" clip-rule="evenodd" d="M52.5111 17.525C43.5775 37.05 23.7982 46.0278 4.28459 36.6161C3.63497 36.3027 2.85432 36.5751 2.54041 37.217C2.22722 37.8699 2.49961 38.6517 3.14923 38.9651C24.0659 49.0635 45.3095 39.5362 54.8859 18.6154C55.1858 17.9633 54.8969 17.1825 54.2414 16.8806C53.5865 16.5897 52.811 16.8729 52.5111 17.525Z" fill="black"/>
<path d="M19.609 27.502C21.7054 27.367 23.2954 25.5581 23.1604 23.4617C23.0254 21.3652 21.2165 19.7752 19.1201 19.9102C17.0237 20.0452 15.4337 21.8541 15.5687 23.9505C15.7037 26.0469 17.5125 27.637 19.609 27.502Z" fill="black"/>
<path d="M35.0633 22.4522C37.1187 22.3199 38.6777 20.5463 38.5454 18.4909C38.413 16.4355 36.6394 14.8765 34.584 15.0089C32.5285 15.1412 30.9696 16.9148 31.102 18.9702C31.2343 21.0257 33.0079 22.5846 35.0633 22.4522Z" fill="black"/>
</svg>
