<svg width="58" height="58" viewBox="0 0 58 58" fill="none" xmlns="http://www.w3.org/2000/svg">
<path fill-rule="evenodd" clip-rule="evenodd" d="M52.2446 17.3663C43.4226 36.6474 23.8905 45.513 4.62061 36.2189C3.97911 35.9094 3.2082 36.1784 2.89822 36.8123C2.58894 37.457 2.85792 38.229 3.49943 38.5385C24.1548 48.5108 45.133 39.1025 54.5898 18.443C54.886 17.7991 54.6006 17.0281 53.9533 16.7299C53.3066 16.4427 52.5408 16.7223 52.2446 17.3663Z" fill="black"/>
<path d="M19.7532 27.2186C21.8234 27.0853 23.3936 25.299 23.2603 23.2288C23.127 21.1586 21.3406 19.5884 19.2704 19.7218C17.2002 19.8551 15.63 21.6414 15.7634 23.7116C15.8967 25.7818 17.683 27.352 19.7532 27.2186Z" fill="black"/>
<path d="M35.0147 22.232C37.0445 22.1013 38.584 20.3499 38.4533 18.3201C38.3226 16.2904 36.5712 14.7509 34.5414 14.8816C32.5116 15.0123 30.9722 16.7637 31.1029 18.7935C31.2336 20.8232 32.985 22.3627 35.0147 22.232Z" fill="black"/>
</svg>
