<svg width="65" height="65" viewBox="0 0 65 65" fill="none" xmlns="http://www.w3.org/2000/svg">
<path fill-rule="evenodd" clip-rule="evenodd" d="M58.7029 19.9035C48.8248 41.4928 26.9544 51.4198 5.37775 41.0131C4.65945 40.6665 3.79626 40.9677 3.44916 41.6774C3.10286 42.3994 3.40404 43.2638 4.12235 43.6103C27.2504 54.7764 50.74 44.2418 61.3288 21.1092C61.6604 20.3882 61.341 19.5249 60.6161 19.191C59.8921 18.8694 59.0346 19.1825 58.7029 19.9035Z" fill="black"/>
<path d="M22.3222 30.9354C24.6403 30.7861 26.3984 28.786 26.2492 26.4679C26.0999 24.1498 24.0997 22.3917 21.7817 22.541C19.4636 22.6903 17.7055 24.6904 17.8547 27.0085C18.004 29.3265 20.0041 31.0846 22.3222 30.9354Z" fill="black"/>
<path d="M39.4105 25.3518C41.6833 25.2054 43.4071 23.2444 43.2607 20.9716C43.1144 18.6989 41.1533 16.9751 38.8805 17.1215C36.6078 17.2678 34.884 19.2289 35.0304 21.5016C35.1767 23.7744 37.1378 25.4981 39.4105 25.3518Z" fill="black"/>
</svg>
