<svg width="50" height="50" viewBox="0 0 50 50" fill="none" xmlns="http://www.w3.org/2000/svg">
<path fill-rule="evenodd" clip-rule="evenodd" d="M45.0971 15.3837C37.5129 31.9597 20.721 39.5815 4.15469 31.5914C3.60319 31.3253 2.94044 31.5565 2.67395 32.1015C2.40806 32.6558 2.63931 33.3195 3.19081 33.5855C20.9482 42.1587 38.9833 34.0704 47.1133 16.3094C47.3679 15.7558 47.1226 15.093 46.5661 14.8367C46.0101 14.5897 45.3518 14.8301 45.0971 15.3837Z" fill="black"/>
<path d="M17.1642 23.8538C18.944 23.7392 20.2939 22.2036 20.1793 20.4238C20.0647 18.644 18.5289 17.2941 16.7492 17.4088C14.9694 17.5234 13.6195 19.059 13.7341 20.8388C13.8487 22.6186 15.3844 23.9684 17.1642 23.8538Z" fill="black"/>
<path d="M30.2845 19.5668C32.0295 19.4544 33.353 17.9487 33.2407 16.2037C33.1283 14.4588 31.6226 13.1353 29.8776 13.2477C28.1326 13.36 26.8091 14.8657 26.9215 16.6107C27.0338 18.3557 28.5395 19.6791 30.2845 19.5668Z" fill="black"/>
</svg>
