<svg width="50" height="50" viewBox="0 0 50 50" fill="none" xmlns="http://www.w3.org/2000/svg">
<path fill-rule="evenodd" clip-rule="evenodd" d="M44.9772 15.1215C37.3988 31.6846 20.6201 39.3004 4.06676 31.3165C3.51568 31.0507 2.85345 31.2817 2.58717 31.8262C2.32149 32.3801 2.55255 33.0432 3.10363 33.3091C20.8472 41.8756 38.8681 33.7936 46.9917 16.0465C47.2461 15.4934 47.001 14.831 46.4449 14.5749C45.8894 14.3282 45.2316 14.5684 44.9772 15.1215Z" fill="black"/>
<path d="M17.0659 23.585C18.8443 23.4705 20.1931 21.936 20.0786 20.1576C19.9641 18.3792 18.4296 17.0304 16.6512 17.1449C14.8728 17.2595 13.524 18.7939 13.6385 20.5723C13.753 22.3507 15.2875 23.6995 17.0659 23.585Z" fill="black"/>
<path d="M30.176 19.3013C31.9196 19.189 33.2421 17.6845 33.1298 15.9409C33.0176 14.1973 31.513 12.8748 29.7694 12.9871C28.0258 13.0994 26.7033 14.6039 26.8156 16.3475C26.9279 18.0911 28.4324 19.4136 30.176 19.3013Z" fill="black"/>
</svg>
