<svg width="50" height="50" viewBox="0 0 50 50" fill="none" xmlns="http://www.w3.org/2000/svg">
<path fill-rule="evenodd" clip-rule="evenodd" d="M45.0973 15.3837C37.513 31.9597 20.7211 39.5815 4.15482 31.5914C3.60331 31.3253 2.94057 31.5565 2.67407 32.1015C2.40818 32.6558 2.63943 33.3195 3.19093 33.5855C20.9484 42.1587 38.9834 34.0704 47.1134 16.3094C47.368 15.7558 47.1227 15.093 46.5662 14.8367C46.0103 14.5897 45.3519 14.8301 45.0973 15.3837Z" fill="black"/>
<path d="M17.1642 23.8538C18.944 23.7392 20.2939 22.2036 20.1793 20.4238C20.0647 18.644 18.5289 17.2941 16.7492 17.4088C14.9694 17.5234 13.6195 19.059 13.7341 20.8388C13.8487 22.6186 15.3844 23.9684 17.1642 23.8538Z" fill="black"/>
<path d="M30.2847 19.5668C32.0297 19.4544 33.3533 17.9487 33.2409 16.2037C33.1285 14.4588 31.6228 13.1353 29.8778 13.2477C28.1328 13.36 26.8094 14.8657 26.9217 16.6107C27.0341 18.3557 28.5398 19.6791 30.2847 19.5668Z" fill="black"/>
</svg>
