<svg width="50" height="50" viewBox="0 0 50 50" fill="none" xmlns="http://www.w3.org/2000/svg">
<path fill-rule="evenodd" clip-rule="evenodd" d="M45.0962 15.3837C37.5119 31.9597 20.72 39.5815 4.15372 31.5914C3.60222 31.3253 2.93947 31.5565 2.67297 32.1015C2.40708 32.6558 2.63833 33.3195 3.18983 33.5855C20.9473 42.1587 38.9823 34.0704 47.1123 16.3094C47.3669 15.7558 47.1216 15.093 46.5651 14.8367C46.0092 14.5897 45.3508 14.8301 45.0962 15.3837Z" fill="black"/>
<path d="M17.1639 23.8538C18.9437 23.7392 20.2936 22.2035 20.179 20.4237C20.0644 18.6439 18.5287 17.2941 16.7489 17.4087C14.9691 17.5233 13.6193 19.059 13.7339 20.8388C13.8485 22.6185 15.3842 23.9684 17.1639 23.8538Z" fill="black"/>
<path d="M30.2843 19.5668C32.0292 19.4545 33.3528 17.9488 33.2404 16.2038C33.128 14.4588 31.6223 13.1353 29.8773 13.2477C28.1323 13.3601 26.8089 14.8657 26.9212 16.6107C27.0336 18.3557 28.5393 19.6792 30.2843 19.5668Z" fill="black"/>
</svg>
