<svg width="58" height="58" viewBox="0 0 58 58" fill="none" xmlns="http://www.w3.org/2000/svg">
<path fill-rule="evenodd" clip-rule="evenodd" d="M52.7464 17.0882C43.8997 36.4232 24.3129 45.3137 4.98916 35.9935C4.34586 35.6832 3.5728 35.9529 3.26195 36.5885C2.95181 37.2351 3.22154 38.0092 3.86484 38.3196C24.578 48.3198 45.6149 38.8852 55.0981 18.1679C55.3951 17.5222 55.109 16.749 54.4598 16.45C53.8113 16.162 53.0434 16.4424 52.7464 17.0882Z" fill="black"/>
<path d="M20.1639 26.9681C22.24 26.8344 23.8146 25.0431 23.6809 22.9671C23.5472 20.8911 21.7558 19.3165 19.6798 19.4502C17.6038 19.5839 16.0293 21.3752 16.163 23.4512C16.2966 25.5272 18.0879 27.1017 20.1639 26.9681Z" fill="black"/>
<path d="M35.4683 21.9675C37.5038 21.8364 39.0476 20.0801 38.9165 18.0447C38.7855 16.0092 37.0291 14.4655 34.9937 14.5965C32.9583 14.7276 31.4145 16.4839 31.5456 18.5193C31.6766 20.5548 33.4329 22.0985 35.4683 21.9675Z" fill="black"/>
</svg>
