<svg width="50" height="50" viewBox="0 0 50 50" fill="none" xmlns="http://www.w3.org/2000/svg">
<path fill-rule="evenodd" clip-rule="evenodd" d="M44.9767 15.1214C37.3983 31.6845 20.6196 39.3003 4.06627 31.3164C3.5152 31.0505 2.85297 31.2816 2.58668 31.8261C2.321 32.38 2.55207 33.0431 3.10314 33.309C20.8467 41.8754 38.8676 33.7934 46.9912 16.0464C47.2456 15.4932 47.0005 14.8309 46.4444 14.5748C45.889 14.328 45.2311 14.5683 44.9767 15.1214Z" fill="black"/>
<path d="M17.0655 23.5849C18.8439 23.4704 20.1928 21.9359 20.0782 20.1575C19.9637 18.3792 18.4292 17.0304 16.6508 17.1449C14.8724 17.2594 13.5236 18.7939 13.6381 20.5723C13.7527 22.3506 15.2871 23.6994 17.0655 23.5849Z" fill="black"/>
<path d="M30.1758 19.3012C31.9194 19.189 33.2419 17.6845 33.1296 15.9409C33.0173 14.1972 31.5128 12.8748 29.7692 12.9871C28.0255 13.0993 26.7031 14.6038 26.8154 16.3475C26.9276 18.0911 28.4321 19.4135 30.1758 19.3012Z" fill="black"/>
</svg>
