<svg width="380" height="113" viewBox="0 0 380 113" fill="none" xmlns="http://www.w3.org/2000/svg">
<path d="M0.473282 1.64999V0.64999H-0.526718V1.64999H0.473282ZM20.3183 62.4V61.4H19.3183V62.4H20.3183ZM20.3183 111V112H21.3183V111H20.3183ZM0.473282 111H-0.526718V112H0.473282V111ZM38.9483 44.985L39.714 45.6282L39.7202 45.6208L39.7262 45.6133L38.9483 44.985ZM40.8383 22.71L39.8726 22.97L39.8753 22.9796L40.8383 22.71ZM36.9233 17.445L36.3969 18.2953L36.4057 18.3007L36.4146 18.3059L36.9233 17.445ZM20.3183 15.69V14.69H19.3183V15.69H20.3183ZM20.3183 48.36H19.3183V49.36H20.3183V48.36ZM0.473282 2.64999H32.6033V0.64999H0.473282V2.64999ZM32.6033 2.64999C41.7353 2.64999 48.4091 5.18184 52.8187 10.0815C57.2464 15.0011 59.5483 22.4796 59.5483 32.7H61.5483C61.5483 22.2203 59.1926 14.1739 54.3053 8.74353C49.4 3.29315 42.1012 0.64999 32.6033 0.64999V2.64999ZM59.5483 32.7C59.5483 42.4493 57.1444 49.5769 52.5126 54.2728C47.8833 58.9661 40.8606 61.4 31.2533 61.4V63.4C41.1759 63.4 48.8008 60.8839 53.9365 55.6772C59.0696 50.4731 61.5483 42.7507 61.5483 32.7H59.5483ZM31.2533 61.4H20.3183V63.4H31.2533V61.4ZM19.3183 62.4V111H21.3183V62.4H19.3183ZM20.3183 110H0.473282V112H20.3183V110ZM1.47328 111V1.64999H-0.526718V111H1.47328ZM28.0133 49.36C33.4788 49.36 37.524 48.2353 39.714 45.6282L38.1826 44.3418C36.5926 46.2347 33.3478 47.36 28.0133 47.36V49.36ZM39.7262 45.6133C41.8454 42.9895 42.7833 38.5444 42.7833 32.565H40.7833C40.7833 38.4656 39.8311 42.3004 38.1703 44.3567L39.7262 45.6133ZM42.7833 32.565C42.7833 28.2171 42.4685 24.8232 41.8012 22.4404L39.8753 22.9796C40.4681 25.0967 40.7833 28.2729 40.7833 32.565H42.7833ZM41.8039 22.45C41.11 19.8727 39.65 17.8947 37.432 16.5841L36.4146 18.3059C38.1566 19.3353 39.3066 20.8673 39.8727 22.97L41.8039 22.45ZM37.4496 16.5947C35.3183 15.2754 32.1181 14.69 28.0133 14.69V16.69C32.0084 16.69 34.7482 17.2746 36.3969 18.2953L37.4496 16.5947ZM28.0133 14.69H20.3183V16.69H28.0133V14.69ZM19.3183 15.69V48.36H21.3183V15.69H19.3183ZM20.3183 49.36H28.0133V47.36H20.3183V49.36ZM71.6647 1.64999V0.64999H70.6647V1.64999H71.6647ZM117.565 1.64999H118.565V0.64999H117.565V1.64999ZM117.565 15.69V16.69H118.565V15.69H117.565ZM91.5097 15.69V14.69H90.5097V15.69H91.5097ZM91.5097 47.145H90.5097V48.145H91.5097V47.145ZM112.03 47.145H113.03V46.145H112.03V47.145ZM112.03 61.05V62.05H113.03V61.05H112.03ZM91.5097 61.05V60.05H90.5097V61.05H91.5097ZM91.5097 97.365H90.5097V98.365H91.5097V97.365ZM117.835 97.365H118.835V96.365H117.835V97.365ZM117.835 111V112H118.835V111H117.835ZM71.6647 111H70.6647V112H71.6647V111ZM71.6647 2.64999H117.565V0.64999H71.6647V2.64999ZM116.565 1.64999V15.69H118.565V1.64999H116.565ZM117.565 14.69H91.5097V16.69H117.565V14.69ZM90.5097 15.69V47.145H92.5097V15.69H90.5097ZM91.5097 48.145H112.03V46.145H91.5097V48.145ZM111.03 47.145V61.05H113.03V47.145H111.03ZM112.03 60.05H91.5097V62.05H112.03V60.05ZM90.5097 61.05V97.365H92.5097V61.05H90.5097ZM91.5097 98.365H117.835V96.365H91.5097V98.365ZM116.835 97.365V111H118.835V97.365H116.835ZM117.835 110H71.6647V112H117.835V110ZM72.6647 111V1.64999H70.6647V111H72.6647ZM134.944 103.44L134.161 104.062L134.165 104.068L134.944 103.44ZM134.944 9.345L135.718 9.97823L134.944 9.345ZM183.409 9.345L182.635 9.97823L183.409 9.345ZM183.274 103.305L182.496 102.676L182.491 102.683L183.274 103.305ZM168.154 19.065L167.271 19.5356L167.277 19.5469L167.284 19.558L168.154 19.065ZM150.199 19.2L151.069 19.6931L151.076 19.6808L150.199 19.2ZM150.199 93.585L149.322 94.0658L150.199 93.585ZM159.244 111.485C148.061 111.485 140.317 108.513 135.722 102.812L134.165 104.068C139.29 110.427 147.746 113.485 159.244 113.485V111.485ZM135.727 102.818C131.062 96.944 128.654 88.2917 128.654 76.71H126.654C126.654 88.5283 129.105 97.696 134.161 104.062L135.727 102.818ZM128.654 76.71V35.67H126.654V76.71H128.654ZM128.654 35.67C128.654 24.1775 131.062 15.6681 135.718 9.97823L134.17 8.71176C129.105 14.9019 126.654 23.9425 126.654 35.67H128.654ZM135.718 9.97823C140.311 4.36425 148.057 1.43499 159.244 1.43499V-0.56501C147.751 -0.56501 139.297 2.44574 134.17 8.71176L135.718 9.97823ZM159.244 1.43499C170.338 1.43499 178.04 4.36259 182.635 9.97823L184.183 8.71176C179.057 2.4474 170.65 -0.56501 159.244 -0.56501V1.43499ZM182.635 9.97823C187.29 15.6681 189.699 24.1775 189.699 35.67H191.699C191.699 23.9425 189.247 14.9019 184.183 8.71176L182.635 9.97823ZM189.699 35.67V76.71H191.699V35.67H189.699ZM189.699 76.71C189.699 88.1961 187.248 96.8015 182.496 102.676L184.051 103.934C189.2 97.5685 191.699 88.4439 191.699 76.71H189.699ZM182.491 102.683C177.892 108.475 170.235 111.485 159.244 111.485V113.485C170.572 113.485 178.936 110.375 184.057 103.927L182.491 102.683ZM159.244 98.77C163.859 98.77 167.26 97.2951 169.031 94.0658L167.277 93.1042C165.988 95.4549 163.448 96.77 159.244 96.77V98.77ZM169.031 94.0658C170.679 91.0608 171.449 86.8139 171.449 81.435H169.449C169.449 86.6761 168.689 90.5292 167.277 93.1042L169.031 94.0658ZM171.449 81.435V31.08H169.449V81.435H171.449ZM171.449 31.08C171.449 25.7048 170.68 21.4942 169.024 18.572L167.284 19.558C168.688 22.0357 169.449 25.8352 169.449 31.08H171.449ZM169.036 18.5944C167.347 15.4275 163.92 14.015 159.244 14.015V16.015C163.568 16.015 166.08 17.3024 167.271 19.5356L169.036 18.5944ZM159.244 14.015C154.549 14.015 151.096 15.4834 149.322 18.7192L151.076 19.6808C152.361 17.3366 154.939 16.015 159.244 16.015V14.015ZM149.329 18.707C147.674 21.6274 146.904 25.7911 146.904 31.08H148.904C148.904 25.9288 149.664 22.1726 151.069 19.693L149.329 18.707ZM146.904 31.08V81.435H148.904V31.08H146.904ZM146.904 81.435C146.904 86.8139 147.674 91.0608 149.322 94.0658L151.076 93.1042C149.664 90.5292 148.904 86.6761 148.904 81.435H146.904ZM149.322 94.0658C151.096 97.3016 154.549 98.77 159.244 98.77V96.77C154.939 96.77 152.361 95.4484 151.076 93.1042L149.322 94.0658ZM205.478 1.64999V0.64999H204.478V1.64999H205.478ZM225.323 62.4V61.4H224.323V62.4H225.323ZM225.323 111V112H226.323V111H225.323ZM205.478 111H204.478V112H205.478V111ZM243.953 44.985L244.719 45.6282L244.725 45.6208L244.731 45.6133L243.953 44.985ZM245.843 22.71L244.878 22.97L244.88 22.9796L245.843 22.71ZM241.928 17.445L241.402 18.2953L241.411 18.3007L241.419 18.3059L241.928 17.445ZM225.323 15.69V14.69H224.323V15.69H225.323ZM225.323 48.36H224.323V49.36H225.323V48.36ZM205.478 2.64999H237.608V0.64999H205.478V2.64999ZM237.608 2.64999C246.74 2.64999 253.414 5.18184 257.824 10.0815C262.251 15.0011 264.553 22.4796 264.553 32.7H266.553C266.553 22.2203 264.198 14.1739 259.31 8.74353C254.405 3.29315 247.106 0.64999 237.608 0.64999V2.64999ZM264.553 32.7C264.553 42.4493 262.149 49.5769 257.517 54.2728C252.888 58.9661 245.866 61.4 236.258 61.4V63.4C246.181 63.4 253.806 60.8839 258.941 55.6772C264.075 50.4731 266.553 42.7507 266.553 32.7H264.553ZM236.258 61.4H225.323V63.4H236.258V61.4ZM224.323 62.4V111H226.323V62.4H224.323ZM225.323 110H205.478V112H225.323V110ZM206.478 111V1.64999H204.478V111H206.478ZM233.018 49.36C238.484 49.36 242.529 48.2353 244.719 45.6282L243.187 44.3418C241.597 46.2347 238.353 47.36 233.018 47.36V49.36ZM244.731 45.6133C246.85 42.9895 247.788 38.5444 247.788 32.565H245.788C245.788 38.4656 244.836 42.3004 243.175 44.3567L244.731 45.6133ZM247.788 32.565C247.788 28.2171 247.473 24.8232 246.806 22.4404L244.88 22.9796C245.473 25.0967 245.788 28.2729 245.788 32.565H247.788ZM246.809 22.45C246.115 19.8727 244.655 17.8947 242.437 16.5841L241.419 18.3059C243.161 19.3353 244.311 20.8673 244.878 22.97L246.809 22.45ZM242.455 16.5947C240.323 15.2754 237.123 14.69 233.018 14.69V16.69C237.013 16.69 239.753 17.2746 241.402 18.2953L242.455 16.5947ZM233.018 14.69H225.323V16.69H233.018V14.69ZM224.323 15.69V48.36H226.323V15.69H224.323ZM225.323 49.36H233.018V47.36H225.323V49.36ZM276.67 1.64999V0.64999H275.67V1.64999H276.67ZM296.515 1.64999H297.515V0.64999H296.515V1.64999ZM296.515 97.365H295.515V98.365H296.515V97.365ZM323.11 97.365H324.11V96.365H323.11V97.365ZM323.11 111V112H324.11V111H323.11ZM276.67 111H275.67V112H276.67V111ZM276.67 2.64999H296.515V0.64999H276.67V2.64999ZM295.515 1.64999V97.365H297.515V1.64999H295.515ZM296.515 98.365H323.11V96.365H296.515V98.365ZM322.11 97.365V111H324.11V97.365H322.11ZM323.11 110H276.67V112H323.11V110ZM277.67 111V1.64999H275.67V111H277.67ZM333.491 1.64999V0.64999H332.491V1.64999H333.491ZM379.391 1.64999H380.391V0.64999H379.391V1.64999ZM379.391 15.69V16.69H380.391V15.69H379.391ZM353.336 15.69V14.69H352.336V15.69H353.336ZM353.336 47.145H352.336V48.145H353.336V47.145ZM373.856 47.145H374.856V46.145H373.856V47.145ZM373.856 61.05V62.05H374.856V61.05H373.856ZM353.336 61.05V60.05H352.336V61.05H353.336ZM353.336 97.365H352.336V98.365H353.336V97.365ZM379.661 97.365H380.661V96.365H379.661V97.365ZM379.661 111V112H380.661V111H379.661ZM333.491 111H332.491V112H333.491V111ZM333.491 2.64999H379.391V0.64999H333.491V2.64999ZM378.391 1.64999V15.69H380.391V1.64999H378.391ZM379.391 14.69H353.336V16.69H379.391V14.69ZM352.336 15.69V47.145H354.336V15.69H352.336ZM353.336 48.145H373.856V46.145H353.336V48.145ZM372.856 47.145V61.05H374.856V47.145H372.856ZM373.856 60.05H353.336V62.05H373.856V60.05ZM352.336 61.05V97.365H354.336V61.05H352.336ZM353.336 98.365H379.661V96.365H353.336V98.365ZM378.661 97.365V111H380.661V97.365H378.661ZM379.661 110H333.491V112H379.661V110ZM334.491 111V1.64999H332.491V111H334.491Z" fill="white"/>
</svg>
