<svg width="369" height="113" viewBox="0 0 369 113" fill="none" xmlns="http://www.w3.org/2000/svg">
<path d="M0.0201569 1.64999V0.64999H-0.979843V1.64999H0.0201569ZM19.8652 62.4V61.4H18.8652V62.4H19.8652ZM19.8652 111V112H20.8652V111H19.8652ZM0.0201569 111H-0.979843V112H0.0201569V111ZM38.4952 44.985L39.2609 45.6282L39.2671 45.6208L39.2731 45.6133L38.4952 44.985ZM40.3852 22.71L39.4195 22.97L39.4222 22.9796L40.3852 22.71ZM36.4702 17.445L35.9438 18.2953L35.9526 18.3007L35.9614 18.3059L36.4702 17.445ZM19.8652 15.69V14.69H18.8652V15.69H19.8652ZM19.8652 48.36H18.8652V49.36H19.8652V48.36ZM0.0201569 2.64999H32.1502V0.64999H0.0201569V2.64999ZM32.1502 2.64999C41.2822 2.64999 47.956 5.18184 52.3656 10.0815C56.7933 15.0011 59.0952 22.4796 59.0952 32.7H61.0952C61.0952 22.2203 58.7395 14.1739 53.8522 8.74353C48.9469 3.29315 41.6481 0.64999 32.1502 0.64999V2.64999ZM59.0952 32.7C59.0952 42.4493 56.6913 49.5769 52.0595 54.2728C47.4301 58.9661 40.4075 61.4 30.8002 61.4V63.4C40.7228 63.4 48.3477 60.8839 53.4834 55.6772C58.6165 50.4731 61.0952 42.7507 61.0952 32.7H59.0952ZM30.8002 61.4H19.8652V63.4H30.8002V61.4ZM18.8652 62.4V111H20.8652V62.4H18.8652ZM19.8652 110H0.0201569V112H19.8652V110ZM1.02016 111V1.64999H-0.979843V111H1.02016ZM27.5602 49.36C33.0257 49.36 37.0709 48.2353 39.2609 45.6282L37.7295 44.3418C36.1395 46.2347 32.8947 47.36 27.5602 47.36V49.36ZM39.2731 45.6133C41.3923 42.9895 42.3302 38.5444 42.3302 32.565H40.3302C40.3302 38.4656 39.378 42.3004 37.7172 44.3567L39.2731 45.6133ZM42.3302 32.565C42.3302 28.2171 42.0153 24.8232 41.3481 22.4404L39.4222 22.9796C40.015 25.0967 40.3302 28.2729 40.3302 32.565H42.3302ZM41.3508 22.45C40.6569 19.8727 39.1969 17.8947 36.9789 16.5841L35.9614 18.3059C37.7034 19.3353 38.8534 20.8673 39.4195 22.97L41.3508 22.45ZM36.9965 16.5947C34.8652 15.2754 31.665 14.69 27.5602 14.69V16.69C31.5553 16.69 34.2951 17.2746 35.9438 18.2953L36.9965 16.5947ZM27.5602 14.69H19.8652V16.69H27.5602V14.69ZM18.8652 15.69V48.36H20.8652V15.69H18.8652ZM19.8652 49.36H27.5602V47.36H19.8652V49.36ZM71.2116 1.64999V0.64999H70.2116V1.64999H71.2116ZM91.0566 1.64999H92.0566V0.64999H91.0566V1.64999ZM91.0566 97.365H90.0566V98.365H91.0566V97.365ZM117.652 97.365H118.652V96.365H117.652V97.365ZM117.652 111V112H118.652V111H117.652ZM71.2116 111H70.2116V112H71.2116V111ZM71.2116 2.64999H91.0566V0.64999H71.2116V2.64999ZM90.0566 1.64999V97.365H92.0566V1.64999H90.0566ZM91.0566 98.365H117.652V96.365H91.0566V98.365ZM116.652 97.365V111H118.652V97.365H116.652ZM117.652 110H71.2116V112H117.652V110ZM72.2116 111V1.64999H70.2116V111H72.2116ZM128.033 1.64999V0.64999H127.033V1.64999H128.033ZM173.933 1.64999H174.933V0.64999H173.933V1.64999ZM173.933 15.69V16.69H174.933V15.69H173.933ZM147.878 15.69V14.69H146.878V15.69H147.878ZM147.878 47.145H146.878V48.145H147.878V47.145ZM168.398 47.145H169.398V46.145H168.398V47.145ZM168.398 61.05V62.05H169.398V61.05H168.398ZM147.878 61.05V60.05H146.878V61.05H147.878ZM147.878 97.365H146.878V98.365H147.878V97.365ZM174.203 97.365H175.203V96.365H174.203V97.365ZM174.203 111V112H175.203V111H174.203ZM128.033 111H127.033V112H128.033V111ZM128.033 2.64999H173.933V0.64999H128.033V2.64999ZM172.933 1.64999V15.69H174.933V1.64999H172.933ZM173.933 14.69H147.878V16.69H173.933V14.69ZM146.878 15.69V47.145H148.878V15.69H146.878ZM147.878 48.145H168.398V46.145H147.878V48.145ZM167.398 47.145V61.05H169.398V47.145H167.398ZM168.398 60.05H147.878V62.05H168.398V60.05ZM146.878 61.05V97.365H148.878V61.05H146.878ZM147.878 98.365H174.203V96.365H147.878V98.365ZM173.203 97.365V111H175.203V97.365H173.203ZM174.203 110H128.033V112H174.203V110ZM129.033 111V1.64999H127.033V111H129.033ZM202.112 1.64999V0.64999H201.292L201.131 1.45388L202.112 1.64999ZM223.442 1.64999L224.423 1.45388L224.262 0.64999H223.442V1.64999ZM245.312 111V112H246.532L246.293 110.804L245.312 111ZM226.817 111L225.831 111.169L225.974 112H226.817V111ZM222.497 85.755L223.483 85.5863L223.34 84.755H222.497V85.755ZM203.462 85.755V84.755H202.623L202.477 85.5812L203.462 85.755ZM199.007 111V112H199.846L199.992 111.174L199.007 111ZM180.242 111L179.261 110.804L179.022 112H180.242V111ZM220.337 73.065V74.065H221.512L221.324 72.9053L220.337 73.065ZM212.912 27.165L213.899 27.0053H211.925L212.912 27.165ZM205.487 73.065L204.5 72.9053L204.312 74.065H205.487V73.065ZM202.112 2.64999H223.442V0.64999H202.112V2.64999ZM222.461 1.84611L244.331 111.196L246.293 110.804L224.423 1.45388L222.461 1.84611ZM245.312 110H226.817V112H245.312V110ZM227.803 110.831L223.483 85.5863L221.511 85.9237L225.831 111.169L227.803 110.831ZM222.497 84.755H203.462V86.755H222.497V84.755ZM202.477 85.5812L198.022 110.826L199.992 111.174L204.447 85.9288L202.477 85.5812ZM199.007 110H180.242V112H199.007V110ZM181.223 111.196L203.093 1.84611L201.131 1.45388L179.261 110.804L181.223 111.196ZM221.324 72.9053L213.899 27.0053L211.925 27.3247L219.35 73.2247L221.324 72.9053ZM211.925 27.0053L204.5 72.9053L206.474 73.2247L213.899 27.3247L211.925 27.0053ZM205.487 74.065H220.337V72.065H205.487V74.065ZM261.047 104.115L260.293 104.772L260.299 104.779L261.047 104.115ZM253.082 79.14L252.889 78.1588L252.048 78.3243L252.083 79.1806L253.082 79.14ZM270.227 75.765L271.226 75.7261L271.181 74.5581L270.034 74.7838L270.227 75.765ZM273.467 91.695L272.577 92.1509L272.584 92.164L272.591 92.1769L273.467 91.695ZM289.397 94.395L288.62 93.7658L288.616 93.7703L289.397 94.395ZM288.722 75.9L287.871 76.4255L287.88 76.4403L287.89 76.4547L288.722 75.9ZM279.677 65.91L279.019 66.6635L279.021 66.6646L279.677 65.91ZM265.907 53.895L266.564 53.1414L266.555 53.1335L265.907 53.895ZM256.322 42.285L255.427 42.7322L255.431 42.7399L255.435 42.7476L256.322 42.285ZM260.642 7.59L261.329 8.31664L261.329 8.31629L260.642 7.59ZM301.682 8.53499L300.882 9.13499L300.887 9.14248L300.893 9.14986L301.682 8.53499ZM308.837 30.135L309.008 31.1203L309.897 30.9663L309.834 30.0659L308.837 30.135ZM291.692 33.105L290.693 33.1504L290.744 34.284L291.863 34.0903L291.692 33.105ZM289.127 19.74L288.212 20.1436L288.219 20.1601L288.227 20.1763L289.127 19.74ZM274.277 18.12L275.036 18.7708L275.044 18.7621L275.051 18.7532L274.277 18.12ZM273.872 34.32L272.998 34.8056L273.009 34.8251L273.02 34.8441L273.872 34.32ZM280.757 41.88L281.418 41.1297L281.408 41.1207L280.757 41.88ZM294.392 53.895L293.731 54.6453L293.74 54.6533L294.392 53.895ZM307.217 99.525L306.351 99.0247L306.347 99.032L306.343 99.0394L307.217 99.525ZM297.632 109.11L298.109 109.989L298.117 109.985L298.124 109.981L297.632 109.11ZM283.322 111.485C273.609 111.485 266.498 108.753 261.795 103.451L260.299 104.779C265.496 110.637 273.235 113.485 283.322 113.485V111.485ZM261.801 103.458C257.149 98.1167 254.526 90.0505 254.081 79.0994L252.083 79.1806C252.538 90.3695 255.225 98.9532 260.293 104.772L261.801 103.458ZM253.275 80.1212L270.42 76.7462L270.034 74.7838L252.889 78.1588L253.275 80.1212ZM269.228 75.8039C269.5 82.794 270.59 88.2726 272.577 92.1509L274.357 91.2391C272.563 87.7374 271.494 82.596 271.226 75.7261L269.228 75.8039ZM272.591 92.1769C273.653 94.1093 275.032 95.6022 276.74 96.6069C278.447 97.6114 280.429 98.095 282.647 98.095V96.095C280.725 96.095 279.106 95.6786 277.754 94.8831C276.402 94.0878 275.26 92.8807 274.343 91.2131L272.591 92.1769ZM282.647 98.095C285.904 98.095 288.49 97.1294 290.178 95.0197L288.616 93.7703C287.424 95.2606 285.51 96.095 282.647 96.095V98.095ZM290.174 95.0242C291.886 92.9093 292.692 90.1455 292.692 86.835H290.692C290.692 89.8245 289.968 92.1006 288.62 93.7658L290.174 95.0242ZM292.692 86.835C292.692 82.3596 291.665 78.5114 289.554 75.3453L287.89 76.4547C289.739 79.2287 290.692 82.6704 290.692 86.835H292.692ZM289.573 75.3745C287.61 72.1963 284.514 68.7906 280.333 65.1554L279.021 66.6646C283.12 70.2294 286.054 73.4837 287.871 76.4255L289.573 75.3745ZM280.334 65.1565L266.564 53.1415L265.249 54.6485L279.019 66.6635L280.334 65.1565ZM266.555 53.1335C262.405 49.6014 259.299 45.8289 257.208 41.8224L255.435 42.7476C257.665 47.0211 260.949 50.9886 265.259 54.6565L266.555 53.1335ZM257.216 41.8378C255.231 37.8664 254.217 33.0769 254.217 27.435H252.217C252.217 33.3131 253.273 38.4236 255.427 42.7322L257.216 41.8378ZM254.217 27.435C254.217 19.0853 256.627 12.762 261.329 8.31664L259.955 6.86335C254.757 11.778 252.217 18.6847 252.217 27.435H254.217ZM261.329 8.31629C266.137 3.76608 272.795 1.43499 281.432 1.43499V-0.56501C272.428 -0.56501 265.227 1.87391 259.954 6.8637L261.329 8.31629ZM281.432 1.43499C290.701 1.43499 297.089 4.07759 300.882 9.13499L302.482 7.93499C298.175 2.19239 291.063 -0.56501 281.432 -0.56501V1.43499ZM300.893 9.14986C304.874 14.2562 307.218 21.2443 307.839 30.2041L309.834 30.0659C309.195 20.8457 306.769 13.4338 302.471 7.92013L300.893 9.14986ZM308.666 29.1497L291.521 32.1197L291.863 34.0903L309.008 31.1203L308.666 29.1497ZM292.691 33.0596C292.419 27.0753 291.556 22.4576 290.027 19.3037L288.227 20.1763C289.578 22.9623 290.425 27.2547 290.693 33.1504L292.691 33.0596ZM290.042 19.3363C289.287 17.6258 288.134 16.3069 286.582 15.4275C285.043 14.5551 283.173 14.15 281.027 14.15V16.15C282.93 16.15 284.436 16.5098 285.596 17.1675C286.744 17.8181 287.617 18.7942 288.212 20.1436L290.042 19.3363ZM281.027 14.15C277.89 14.15 275.338 15.2436 273.503 17.4868L275.051 18.7532C276.456 17.0364 278.404 16.15 281.027 16.15V14.15ZM273.518 17.4692C271.713 19.574 270.847 22.2496 270.847 25.41H272.847C272.847 22.6304 273.6 20.4459 275.036 18.7708L273.518 17.4692ZM270.847 25.41C270.847 29.0461 271.546 32.193 272.998 34.8056L274.746 33.8344C273.497 31.587 272.847 28.7939 272.847 25.41H270.847ZM273.02 34.8441C274.535 37.3052 276.913 39.9025 280.106 42.6393L281.408 41.1207C278.301 38.4575 276.089 36.0147 274.724 33.7959L273.02 34.8441ZM280.096 42.6303L293.731 54.6453L295.053 53.1447L281.418 41.1297L280.096 42.6303ZM293.74 54.6533C298.797 59.001 302.724 63.6401 305.539 68.5661L307.275 67.5739C304.33 62.4199 300.246 57.609 295.044 53.1367L293.74 54.6533ZM305.539 68.5661C308.32 73.434 309.727 79.108 309.727 85.62H311.727C311.727 78.812 310.254 72.786 307.275 67.5739L305.539 68.5661ZM309.727 85.62C309.727 90.6852 308.593 95.1439 306.351 99.0247L308.083 100.025C310.52 95.8061 311.727 90.9948 311.727 85.62H309.727ZM306.343 99.0394C304.185 102.924 301.124 105.988 297.14 108.239L298.124 109.981C302.42 107.552 305.749 104.226 308.091 100.011L306.343 99.0394ZM297.154 108.231C293.181 110.391 288.58 111.485 283.322 111.485V113.485C288.864 113.485 293.803 112.329 298.109 109.989L297.154 108.231ZM322.491 1.64999V0.64999H321.491V1.64999H322.491ZM368.391 1.64999H369.391V0.64999H368.391V1.64999ZM368.391 15.69V16.69H369.391V15.69H368.391ZM342.336 15.69V14.69H341.336V15.69H342.336ZM342.336 47.145H341.336V48.145H342.336V47.145ZM362.856 47.145H363.856V46.145H362.856V47.145ZM362.856 61.05V62.05H363.856V61.05H362.856ZM342.336 61.05V60.05H341.336V61.05H342.336ZM342.336 97.365H341.336V98.365H342.336V97.365ZM368.661 97.365H369.661V96.365H368.661V97.365ZM368.661 111V112H369.661V111H368.661ZM322.491 111H321.491V112H322.491V111ZM322.491 2.64999H368.391V0.64999H322.491V2.64999ZM367.391 1.64999V15.69H369.391V1.64999H367.391ZM368.391 14.69H342.336V16.69H368.391V14.69ZM341.336 15.69V47.145H343.336V15.69H341.336ZM342.336 48.145H362.856V46.145H342.336V48.145ZM361.856 47.145V61.05H363.856V47.145H361.856ZM362.856 60.05H342.336V62.05H362.856V60.05ZM341.336 61.05V97.365H343.336V61.05H341.336ZM342.336 98.365H368.661V96.365H342.336V98.365ZM367.661 97.365V111H369.661V97.365H367.661ZM368.661 110H322.491V112H368.661V110ZM323.491 111V1.64999H321.491V111H323.491Z" fill="white"/>
</svg>
