<svg width="549" height="113" viewBox="0 0 549 113" fill="none" xmlns="http://www.w3.org/2000/svg">
<path d="M0.909805 1.64999V0.649992H-0.0901947V1.64999H0.909805ZM20.7548 62.4V61.4H19.7548V62.4H20.7548ZM20.7548 111V112H21.7548V111H20.7548ZM0.909805 111H-0.0901947V112H0.909805V111ZM39.3848 44.985L40.1505 45.6282L40.1567 45.6208L40.1627 45.6133L39.3848 44.985ZM41.2748 22.71L40.3091 22.97L40.3118 22.9796L41.2748 22.71ZM37.3598 17.445L36.8335 18.2953L36.8422 18.3007L36.8511 18.3059L37.3598 17.445ZM20.7548 15.69V14.69H19.7548V15.69H20.7548ZM20.7548 48.36H19.7548V49.36H20.7548V48.36ZM0.909805 2.64999H33.0398V0.649992H0.909805V2.64999ZM33.0398 2.64999C42.1719 2.64999 48.8456 5.18183 53.2553 10.0815C57.683 15.0011 59.9848 22.4796 59.9848 32.7H61.9848C61.9848 22.2203 59.6292 14.1739 54.7419 8.74353C49.8365 3.29315 42.5378 0.649992 33.0398 0.649992V2.64999ZM59.9848 32.7C59.9848 42.4493 57.581 49.5769 52.9491 54.2728C48.3198 58.9661 41.2972 61.4 31.6898 61.4V63.4C41.6125 63.4 49.2373 60.8839 54.373 55.6772C59.5062 50.4731 61.9848 42.7507 61.9848 32.7H59.9848ZM31.6898 61.4H20.7548V63.4H31.6898V61.4ZM19.7548 62.4V111H21.7548V62.4H19.7548ZM20.7548 110H0.909805V112H20.7548V110ZM1.90981 111V1.64999H-0.0901947V111H1.90981ZM28.4498 49.36C33.9153 49.36 37.9605 48.2353 40.1505 45.6282L38.6191 44.3418C37.0291 46.2347 33.7843 47.36 28.4498 47.36V49.36ZM40.1627 45.6133C42.282 42.9895 43.2198 38.5444 43.2198 32.565H41.2198C41.2198 38.4656 40.2677 42.3004 38.6069 44.3567L40.1627 45.6133ZM43.2198 32.565C43.2198 28.2171 42.905 24.8232 42.2378 22.4404L40.3118 22.9796C40.9046 25.0968 41.2198 28.2729 41.2198 32.565H43.2198ZM42.2404 22.45C41.5465 19.8727 40.0865 17.8947 37.8685 16.5841L36.8511 18.3059C38.5931 19.3353 39.7431 20.8673 40.3092 22.97L42.2404 22.45ZM37.8862 16.5947C35.7549 15.2754 32.5546 14.69 28.4498 14.69V16.69C32.445 16.69 35.1847 17.2746 36.8335 18.2953L37.8862 16.5947ZM28.4498 14.69H20.7548V16.69H28.4498V14.69ZM19.7548 15.69V48.36H21.7548V15.69H19.7548ZM20.7548 49.36H28.4498V47.36H20.7548V49.36ZM77.6362 103.44L76.8531 104.062L76.8576 104.068L77.6362 103.44ZM77.6362 9.345L78.4102 9.97824L78.4102 9.97823L77.6362 9.345ZM126.101 9.345L125.327 9.97823L125.327 9.97824L126.101 9.345ZM125.966 103.305L125.189 102.676L125.183 102.683L125.966 103.305ZM110.846 19.065L109.964 19.5356L109.97 19.5469L109.976 19.558L110.846 19.065ZM92.8912 19.2L93.7613 19.6931L93.768 19.6808L92.8912 19.2ZM92.8912 93.585L92.0144 94.0658L92.0144 94.0658L92.8912 93.585ZM101.936 111.485C90.7536 111.485 83.0095 108.513 78.4148 102.812L76.8576 104.068C81.9829 110.427 90.4388 113.485 101.936 113.485V111.485ZM78.4193 102.818C73.7545 96.944 71.3462 88.2917 71.3462 76.71H69.3462C69.3462 88.5283 71.7979 97.696 76.8531 104.062L78.4193 102.818ZM71.3462 76.71V35.67H69.3462V76.71H71.3462ZM71.3462 35.67C71.3462 24.1775 73.7548 15.6681 78.4102 9.97824L76.8623 8.71176C71.7976 14.9019 69.3462 23.9425 69.3462 35.67H71.3462ZM78.4102 9.97823C83.0034 4.36425 90.749 1.43499 101.936 1.43499V-0.565009C90.4434 -0.565009 81.989 2.44574 76.8623 8.71176L78.4102 9.97823ZM101.936 1.43499C113.03 1.43499 120.733 4.36259 125.327 9.97823L126.875 8.71176C121.75 2.4474 113.342 -0.565009 101.936 -0.565009V1.43499ZM125.327 9.97824C129.983 15.6681 132.391 24.1775 132.391 35.67H134.391C134.391 23.9425 131.94 14.9019 126.875 8.71176L125.327 9.97824ZM132.391 35.67V76.71H134.391V35.67H132.391ZM132.391 76.71C132.391 88.1961 129.94 96.8015 125.189 102.676L126.744 103.934C131.892 97.5685 134.391 88.4439 134.391 76.71H132.391ZM125.183 102.683C120.584 108.475 112.928 111.485 101.936 111.485V113.485C113.265 113.485 121.628 110.375 126.749 103.927L125.183 102.683ZM101.936 98.77C106.552 98.77 109.952 97.2951 111.723 94.0658L109.969 93.1042C108.68 95.4549 106.141 96.77 101.936 96.77V98.77ZM111.723 94.0658C113.371 91.0608 114.141 86.8139 114.141 81.435H112.141C112.141 86.6761 111.381 90.5292 109.969 93.1042L111.723 94.0658ZM114.141 81.435V31.08H112.141V81.435H114.141ZM114.141 31.08C114.141 25.7048 113.372 21.4942 111.716 18.572L109.976 19.558C111.38 22.0357 112.141 25.8352 112.141 31.08H114.141ZM111.729 18.5944C110.04 15.4275 106.612 14.015 101.936 14.015V16.015C106.26 16.015 108.773 17.3024 109.964 19.5356L111.729 18.5944ZM101.936 14.015C97.2411 14.015 93.7888 15.4834 92.0144 18.7192L93.768 19.6808C95.0536 17.3366 97.6313 16.015 101.936 16.015V14.015ZM92.0212 18.707C90.3663 21.6274 89.5962 25.7911 89.5962 31.08H91.5962C91.5962 25.9288 92.3561 22.1726 93.7612 19.693L92.0212 18.707ZM89.5962 31.08V81.435H91.5962V31.08H89.5962ZM89.5962 81.435C89.5962 86.8139 90.3665 91.0608 92.0144 94.0658L93.768 93.1042C92.3559 90.5292 91.5962 86.6761 91.5962 81.435H89.5962ZM92.0144 94.0658C93.7888 97.3016 97.2411 98.77 101.936 98.77V96.77C97.6313 96.77 95.0536 95.4484 93.768 93.1042L92.0144 94.0658ZM158.578 16.365H159.578V15.365H158.578V16.365ZM141.163 16.365H140.163V17.365H141.163V16.365ZM141.163 1.64999V0.649992H140.163V1.64999H141.163ZM195.568 1.64999H196.568V0.649992H195.568V1.64999ZM195.568 16.365V17.365H196.568V16.365H195.568ZM178.558 16.365V15.365H177.558V16.365H178.558ZM178.558 111V112H179.558V111H178.558ZM158.578 111H157.578V112H158.578V111ZM158.578 15.365H141.163V17.365H158.578V15.365ZM142.163 16.365V1.64999H140.163V16.365H142.163ZM141.163 2.64999H195.568V0.649992H141.163V2.64999ZM194.568 1.64999V16.365H196.568V1.64999H194.568ZM195.568 15.365H178.558V17.365H195.568V15.365ZM177.558 16.365V111H179.558V16.365H177.558ZM178.558 110H158.578V112H178.558V110ZM159.578 111V16.365H157.578V111H159.578ZM205.519 1.64999V0.649992H204.519V1.64999H205.519ZM251.419 1.64999H252.419V0.649992H251.419V1.64999ZM251.419 15.69V16.69H252.419V15.69H251.419ZM225.364 15.69V14.69H224.364V15.69H225.364ZM225.364 47.145H224.364V48.145H225.364V47.145ZM245.884 47.145H246.884V46.145H245.884V47.145ZM245.884 61.05V62.05H246.884V61.05H245.884ZM225.364 61.05V60.05H224.364V61.05H225.364ZM225.364 97.365H224.364V98.365H225.364V97.365ZM251.689 97.365H252.689V96.365H251.689V97.365ZM251.689 111V112H252.689V111H251.689ZM205.519 111H204.519V112H205.519V111ZM205.519 2.64999H251.419V0.649992H205.519V2.64999ZM250.419 1.64999V15.69H252.419V1.64999H250.419ZM251.419 14.69H225.364V16.69H251.419V14.69ZM224.364 15.69V47.145H226.364V15.69H224.364ZM225.364 48.145H245.884V46.145H225.364V48.145ZM244.884 47.145V61.05H246.884V47.145H244.884ZM245.884 60.05H225.364V62.05H245.884V60.05ZM224.364 61.05V97.365H226.364V61.05H224.364ZM225.364 98.365H251.689V96.365H225.364V98.365ZM250.689 97.365V111H252.689V97.365H250.689ZM251.689 110H205.519V112H251.689V110ZM206.519 111V1.64999H204.519V111H206.519ZM263.263 1.64999V0.649992H262.263V1.64999H263.263ZM277.168 1.64999L278.088 1.25776L277.829 0.649992H277.168V1.64999ZM303.763 64.02L302.843 64.4122L304.763 64.02H303.763ZM303.763 1.64999V0.649992H302.763V1.64999H303.763ZM320.233 1.64999H321.233V0.649992H320.233V1.64999ZM320.233 111V112H321.233V111H320.233ZM307.003 111L306.078 111.379L306.332 112H307.003V111ZM280.273 45.66L281.199 45.2814L279.273 45.66H280.273ZM280.273 111V112H281.273V111H280.273ZM263.263 111H262.263V112H263.263V111ZM263.263 2.64999H277.168V0.649992H263.263V2.64999ZM276.248 2.04223L302.843 64.4122L304.683 63.6278L278.088 1.25776L276.248 2.04223ZM304.763 64.02V1.64999H302.763V64.02H304.763ZM303.763 2.64999H320.233V0.649992H303.763V2.64999ZM319.233 1.64999V111H321.233V1.64999H319.233ZM320.233 110H307.003V112H320.233V110ZM307.929 110.621L281.199 45.2814L279.348 46.0386L306.078 111.379L307.929 110.621ZM279.273 45.66V111H281.273V45.66H279.273ZM280.273 110H263.263V112H280.273V110ZM264.263 111V1.64999H262.263V111H264.263ZM347.763 16.365H348.763V15.365H347.763V16.365ZM330.348 16.365H329.348V17.365H330.348V16.365ZM330.348 1.64999V0.649992H329.348V1.64999H330.348ZM384.753 1.64999H385.753V0.649992H384.753V1.64999ZM384.753 16.365V17.365H385.753V16.365H384.753ZM367.743 16.365V15.365H366.743V16.365H367.743ZM367.743 111V112H368.743V111H367.743ZM347.763 111H346.763V112H347.763V111ZM347.763 15.365H330.348V17.365H347.763V15.365ZM331.348 16.365V1.64999H329.348V16.365H331.348ZM330.348 2.64999H384.753V0.649992H330.348V2.64999ZM383.753 1.64999V16.365H385.753V1.64999H383.753ZM384.753 15.365H367.743V17.365H384.753V15.365ZM366.743 16.365V111H368.743V16.365H366.743ZM367.743 110H347.763V112H367.743V110ZM348.763 111V16.365H346.763V111H348.763ZM395.244 1.64999V0.649992H394.244V1.64999H395.244ZM414.954 1.64999H415.954V0.649992H414.954V1.64999ZM414.954 111V112H415.954V111H414.954ZM395.244 111H394.244V112H395.244V111ZM395.244 2.64999H414.954V0.649992H395.244V2.64999ZM413.954 1.64999V111H415.954V1.64999H413.954ZM414.954 110H395.244V112H414.954V110ZM396.244 111V1.64999H394.244V111H396.244ZM448.216 1.64999V0.649992H447.397L447.236 1.45388L448.216 1.64999ZM469.546 1.64999L470.527 1.45388L470.366 0.649992H469.546V1.64999ZM491.416 111V112H492.636L492.397 110.804L491.416 111ZM472.921 111L471.936 111.169L472.078 112H472.921V111ZM468.601 85.755L469.587 85.5863L469.445 84.755H468.601V85.755ZM449.566 85.755V84.755H448.728L448.582 85.5812L449.566 85.755ZM445.111 111V112H445.95L446.096 111.174L445.111 111ZM426.346 111L425.366 110.804L425.127 112H426.346V111ZM466.441 73.065V74.065H467.616L467.429 72.9053L466.441 73.065ZM459.016 27.165L460.004 27.0053L458.029 27.0053L459.016 27.165ZM451.591 73.065L450.604 72.9053L450.417 74.065H451.591V73.065ZM448.216 2.64999H469.546V0.649992H448.216V2.64999ZM468.566 1.84611L490.436 111.196L492.397 110.804L470.527 1.45388L468.566 1.84611ZM491.416 110H472.921V112H491.416V110ZM473.907 110.831L469.587 85.5863L467.616 85.9237L471.936 111.169L473.907 110.831ZM468.601 84.755H449.566V86.755H468.601V84.755ZM448.582 85.5812L444.127 110.826L446.096 111.174L450.551 85.9288L448.582 85.5812ZM445.111 110H426.346V112H445.111V110ZM427.327 111.196L449.197 1.84611L447.236 1.45388L425.366 110.804L427.327 111.196ZM467.429 72.9053L460.004 27.0053L458.029 27.3247L465.454 73.2247L467.429 72.9053ZM458.029 27.0053L450.604 72.9053L452.579 73.2247L460.004 27.3247L458.029 27.0053ZM451.591 74.065H466.441V72.065H451.591V74.065ZM502.414 1.64999V0.649992H501.414V1.64999H502.414ZM522.259 1.64999H523.259V0.649992H522.259V1.64999ZM522.259 97.365H521.259V98.365H522.259V97.365ZM548.854 97.365H549.854V96.365H548.854V97.365ZM548.854 111V112H549.854V111H548.854ZM502.414 111H501.414V112H502.414V111ZM502.414 2.64999H522.259V0.649992H502.414V2.64999ZM521.259 1.64999V97.365H523.259V1.64999H521.259ZM522.259 98.365H548.854V96.365H522.259V98.365ZM547.854 97.365V111H549.854V97.365H547.854ZM548.854 110H502.414V112H548.854V110ZM503.414 111V1.64999H501.414V111H503.414Z" fill="white"/>
</svg>
