<svg width="479" height="112" viewBox="0 0 479 112" fill="none" xmlns="http://www.w3.org/2000/svg">
<path d="M0.969376 0.64999V-0.35001H-0.0306244V0.64999H0.969376ZM20.8144 61.4V60.4H19.8144V61.4H20.8144ZM20.8144 110V111H21.8144V110H20.8144ZM0.969376 110H-0.0306244V111H0.969376V110ZM39.4444 43.985L40.2101 44.6282L40.2163 44.6208L40.2223 44.6133L39.4444 43.985ZM41.3344 21.71L40.3687 21.97L40.3714 21.9796L41.3344 21.71ZM37.4194 16.445L36.893 17.2953L36.9018 17.3007L36.9106 17.3059L37.4194 16.445ZM20.8144 14.69V13.69H19.8144V14.69H20.8144ZM20.8144 47.36H19.8144V48.36H20.8144V47.36ZM0.969376 1.64999H33.0994V-0.35001H0.969376V1.64999ZM33.0994 1.64999C42.2314 1.64999 48.9052 4.18184 53.3148 9.08146C57.7425 14.0011 60.0444 21.4796 60.0444 31.7H62.0444C62.0444 21.2203 59.6887 13.1739 54.8014 7.74353C49.8961 2.29315 42.5973 -0.35001 33.0994 -0.35001V1.64999ZM60.0444 31.7C60.0444 41.4493 57.6405 48.5769 53.0087 53.2728C48.3793 57.9661 41.3567 60.4 31.7494 60.4V62.4C41.672 62.4 49.2969 59.8839 54.4326 54.6772C59.5657 49.4731 62.0444 41.7507 62.0444 31.7H60.0444ZM31.7494 60.4H20.8144V62.4H31.7494V60.4ZM19.8144 61.4V110H21.8144V61.4H19.8144ZM20.8144 109H0.969376V111H20.8144V109ZM1.96938 110V0.64999H-0.0306244V110H1.96938ZM28.5094 48.36C33.9749 48.36 38.0201 47.2353 40.2101 44.6282L38.6787 43.3418C37.0887 45.2347 33.8439 46.36 28.5094 46.36V48.36ZM40.2223 44.6133C42.3415 41.9895 43.2794 37.5444 43.2794 31.565H41.2794C41.2794 37.4656 40.3272 41.3004 38.6664 43.3567L40.2223 44.6133ZM43.2794 31.565C43.2794 27.2171 42.9645 23.8232 42.2973 21.4404L40.3714 21.9796C40.9642 24.0967 41.2794 27.2729 41.2794 31.565H43.2794ZM42.3 21.45C41.6061 18.8727 40.1461 16.8947 37.9281 15.5841L36.9106 17.3059C38.6527 18.3353 39.8027 19.8673 40.3688 21.97L42.3 21.45ZM37.9457 15.5947C35.8144 14.2754 32.6142 13.69 28.5094 13.69V15.69C32.5045 15.69 35.2443 16.2746 36.893 17.2953L37.9457 15.5947ZM28.5094 13.69H20.8144V15.69H28.5094V13.69ZM19.8144 14.69V47.36H21.8144V14.69H19.8144ZM20.8144 48.36H28.5094V46.36H20.8144V48.36ZM72.1608 0.64999V-0.35001H71.1608V0.64999H72.1608ZM124.271 7.265L123.657 8.05439L123.665 8.06043L124.271 7.265ZM129.671 46.685L128.766 46.2601L128.762 46.2683L129.671 46.685ZM119.276 56.135L118.904 55.2065L118.068 55.541L118.314 56.4075L119.276 56.135ZM134.531 110V111H135.853L135.493 109.728L134.531 110ZM114.551 110L113.583 110.253L113.779 111H114.551V110ZM101.456 59.915L102.423 59.662L102.228 58.915H101.456V59.915ZM92.0058 59.915V58.915H91.0058V59.915H92.0058ZM92.0058 110V111H93.0058V110H92.0058ZM72.1608 110H71.1608V111H72.1608V110ZM110.366 43.58L109.634 42.8986L109.627 42.9055L109.621 42.9125L110.366 43.58ZM110.771 18.2L109.987 18.8214L109.994 18.8296L110 18.8376L110.771 18.2ZM92.0058 14.285V13.285H91.0058V14.285H92.0058ZM92.0058 47.495H91.0058V48.495H92.0058V47.495ZM72.1608 1.64999H98.4858V-0.35001H72.1608V1.64999ZM98.4858 1.64999C109.908 1.64999 118.24 3.84156 123.657 8.05435L124.885 6.47564C118.961 1.86842 110.103 -0.35001 98.4858 -0.35001V1.64999ZM123.665 8.06043C128.983 12.1124 131.776 19.2086 131.776 29.675H133.776C133.776 18.9014 130.899 11.0576 124.877 6.46956L123.665 8.06043ZM131.776 29.675C131.776 36.5158 130.753 42.0269 128.766 46.2601L130.576 47.1099C132.729 42.5231 133.776 36.6941 133.776 29.675H131.776ZM128.762 46.2683C126.902 50.326 123.648 53.3092 118.904 55.2065L119.647 57.0635C124.804 55.0008 128.48 51.684 130.58 47.1017L128.762 46.2683ZM118.314 56.4075L133.569 110.272L135.493 109.728L120.238 55.8625L118.314 56.4075ZM134.531 109H114.551V111H134.531V109ZM115.518 109.747L102.423 59.662L100.488 60.168L113.583 110.253L115.518 109.747ZM101.456 58.915H92.0058V60.915H101.456V58.915ZM91.0058 59.915V110H93.0058V59.915H91.0058ZM92.0058 109H72.1608V111H92.0058V109ZM73.1608 110V0.64999H71.1608V110H73.1608ZM98.3508 48.495C104.134 48.495 108.491 47.1696 111.11 44.2475L109.621 42.9125C107.561 45.2104 103.908 46.495 98.3508 46.495V48.495ZM111.098 44.2614C113.784 41.3766 115.011 36.7903 115.011 30.755H113.011C113.011 36.5997 111.808 40.5634 109.634 42.8986L111.098 44.2614ZM115.011 30.755C115.011 24.911 113.923 20.4401 111.541 17.5624L110 18.8376C111.939 21.1799 113.011 25.0789 113.011 30.755H115.011ZM111.554 17.5786C109.2 14.6098 105.031 13.285 99.4308 13.285V15.285C104.811 15.285 108.202 16.5702 109.987 18.8214L111.554 17.5786ZM99.4308 13.285H92.0058V15.285H99.4308V13.285ZM91.0058 14.285V47.495H93.0058V14.285H91.0058ZM92.0058 48.495H98.3508V46.495H92.0058V48.495ZM158.779 107.165L159.318 106.323L158.779 107.165ZM149.329 94.88L148.382 95.201L149.329 94.88ZM146.629 0.64999V-0.35001H145.629V0.64999H146.629ZM166.069 0.64999H167.069V-0.35001H166.069V0.64999ZM168.229 91.505L167.307 91.8931L167.312 91.9033L167.316 91.9134L168.229 91.505ZM186.589 91.505L185.676 91.0966L185.672 91.1067L185.667 91.1169L186.589 91.505ZM188.884 0.64999V-0.35001H187.884V0.64999H188.884ZM208.189 0.64999H209.189V-0.35001H208.189V0.64999ZM205.489 94.88L206.436 95.201L206.438 95.1962L205.489 94.88ZM196.039 107.165L196.578 108.007L196.039 107.165ZM177.409 110.485C169.594 110.485 163.597 109.061 159.318 106.323L158.24 108.007C162.961 111.029 169.385 112.485 177.409 112.485V110.485ZM159.318 106.323C155.019 103.571 152.007 99.6654 150.276 94.559L148.382 95.201C150.251 100.715 153.539 104.999 158.24 108.007L159.318 106.323ZM150.276 94.559C148.523 89.3882 147.629 82.7564 147.629 74.63H145.629C145.629 82.8836 146.535 89.7518 148.382 95.201L150.276 94.559ZM147.629 74.63V0.64999H145.629V74.63H147.629ZM146.629 1.64999H166.069V-0.35001H146.629V1.64999ZM165.069 0.64999V76.925H167.069V0.64999H165.069ZM165.069 76.925C165.069 83.2782 165.792 88.2933 167.307 91.8931L169.151 91.1169C167.786 87.8767 167.069 83.1718 167.069 76.925H165.069ZM167.316 91.9134C168.163 93.8056 169.452 95.2579 171.184 96.2254C172.902 97.1856 174.995 97.635 177.409 97.635V95.635C175.234 95.635 173.501 95.2294 172.159 94.4796C170.831 93.737 169.825 92.6244 169.142 91.0966L167.316 91.9134ZM177.409 97.635C179.865 97.635 181.981 97.1871 183.702 96.2254C185.438 95.2551 186.71 93.7956 187.511 91.8931L185.667 91.1169C185.029 92.6344 184.05 93.7399 182.726 94.4796C181.387 95.2279 179.633 95.635 177.409 95.635V97.635ZM187.502 91.9134C189.116 88.306 189.884 83.2825 189.884 76.925H187.884C187.884 83.1675 187.122 87.864 185.676 91.0966L187.502 91.9134ZM189.884 76.925V0.64999H187.884V76.925H189.884ZM188.884 1.64999H208.189V-0.35001H188.884V1.64999ZM207.189 0.64999V74.63H209.189V0.64999H207.189ZM207.189 74.63C207.189 82.6641 206.295 89.2989 204.54 94.5638L206.438 95.1962C208.283 89.6611 209.189 82.7959 209.189 74.63H207.189ZM204.542 94.559C202.811 99.6654 199.799 103.571 195.5 106.323L196.578 108.007C201.279 104.999 204.567 100.715 206.436 95.201L204.542 94.559ZM195.5 106.323C191.221 109.061 185.225 110.485 177.409 110.485V112.485C185.434 112.485 191.857 111.029 196.578 108.007L195.5 106.323ZM223.904 0.64999V-0.35001H222.904V0.64999H223.904ZM270.479 4.29499L270.045 5.19576L270.051 5.19893L270.058 5.202L270.479 4.29499ZM281.144 15.23L280.221 15.6158L280.226 15.626L280.23 15.6361L281.144 15.23ZM281.144 94.61L280.222 94.2219L280.219 94.2289L280.217 94.2358L281.144 94.61ZM270.614 106.22L271.068 107.111L271.074 107.108L271.08 107.105L270.614 106.22ZM223.904 110H222.904V111H223.904V110ZM259.544 93.8L260.155 94.5913L259.544 93.8ZM263.324 87.455L264.305 87.6511L264.306 87.645L263.324 87.455ZM259.139 16.715L258.602 17.5587L258.624 17.5727L258.647 17.5856L259.139 16.715ZM243.749 14.825V13.825H242.749V14.825H243.749ZM243.749 96.095H242.749V97.095H243.749V96.095ZM223.904 1.64999H249.689V-0.35001H223.904V1.64999ZM249.689 1.64999C258.436 1.64999 265.196 2.85801 270.045 5.19576L270.913 3.39423C265.682 0.871979 258.582 -0.35001 249.689 -0.35001V1.64999ZM270.058 5.202C274.88 7.44105 278.251 10.9049 280.221 15.6158L282.067 14.8442C279.897 9.65509 276.158 5.82894 270.9 3.38799L270.058 5.202ZM280.23 15.6361C282.311 20.3192 283.384 26.6438 283.384 34.67H285.384C285.384 26.4962 284.296 19.8608 282.058 14.8239L280.23 15.6361ZM283.384 34.67V74.495H285.384V34.67H283.384ZM283.384 74.495C283.384 82.7008 282.312 89.2595 280.222 94.2219L282.066 94.9981C284.296 89.7005 285.384 82.8492 285.384 74.495H283.384ZM280.217 94.2358C278.236 99.1438 274.891 102.834 270.148 105.335L271.08 107.105C276.237 104.386 279.912 100.336 282.071 94.9842L280.217 94.2358ZM270.16 105.329C265.405 107.75 258.876 109 250.499 109V111C259.041 111 265.923 109.73 271.068 107.111L270.16 105.329ZM250.499 109H223.904V111H250.499V109ZM224.904 110V0.64999H222.904V110H224.904ZM249.959 97.095C254.44 97.095 257.91 96.3263 260.155 94.5913L258.932 93.0087C257.218 94.3337 254.298 95.095 249.959 95.095V97.095ZM260.155 94.5913C262.346 92.8987 263.722 90.562 264.305 87.6511L262.343 87.2589C261.846 89.748 260.702 91.6413 258.932 93.0087L260.155 94.5913ZM264.306 87.645C264.864 84.7594 265.134 80.5877 265.134 75.17H263.134C263.134 80.5522 262.864 84.5706 262.342 87.265L264.306 87.645ZM265.134 75.17V33.32H263.134V75.17H265.134ZM265.134 33.32C265.134 28.436 264.819 24.648 264.159 22.0075L262.219 22.4925C262.819 24.8919 263.134 28.484 263.134 33.32H265.134ZM264.159 22.0075C263.469 19.2487 261.963 17.1626 259.631 15.8444L258.647 17.5856C260.455 18.6074 261.648 20.2113 262.219 22.4925L264.159 22.0075ZM259.676 15.8713C257.45 14.4547 254.062 13.825 249.689 13.825V15.825C253.956 15.825 256.868 16.4553 258.602 17.5587L259.676 15.8713ZM249.689 13.825H243.749V15.825H249.689V13.825ZM242.749 14.825V96.095H244.749V14.825H242.749ZM243.749 97.095H249.959V95.095H243.749V97.095ZM299.05 0.64999V-0.35001H298.05V0.64999H299.05ZM344.95 0.64999H345.95V-0.35001H344.95V0.64999ZM344.95 14.69V15.69H345.95V14.69H344.95ZM318.895 14.69V13.69H317.895V14.69H318.895ZM318.895 46.145H317.895V47.145H318.895V46.145ZM339.415 46.145H340.415V45.145H339.415V46.145ZM339.415 60.05V61.05H340.415V60.05H339.415ZM318.895 60.05V59.05H317.895V60.05H318.895ZM318.895 96.365H317.895V97.365H318.895V96.365ZM345.22 96.365H346.22V95.365H345.22V96.365ZM345.22 110V111H346.22V110H345.22ZM299.05 110H298.05V111H299.05V110ZM299.05 1.64999H344.95V-0.35001H299.05V1.64999ZM343.95 0.64999V14.69H345.95V0.64999H343.95ZM344.95 13.69H318.895V15.69H344.95V13.69ZM317.895 14.69V46.145H319.895V14.69H317.895ZM318.895 47.145H339.415V45.145H318.895V47.145ZM338.415 46.145V60.05H340.415V46.145H338.415ZM339.415 59.05H318.895V61.05H339.415V59.05ZM317.895 60.05V96.365H319.895V60.05H317.895ZM318.895 97.365H345.22V95.365H318.895V97.365ZM344.22 96.365V110H346.22V96.365H344.22ZM345.22 109H299.05V111H345.22V109ZM300.05 110V0.64999H298.05V110H300.05ZM356.795 0.64999V-0.35001H355.795V0.64999H356.795ZM370.7 0.64999L371.619 0.257755L371.36 -0.35001H370.7V0.64999ZM397.295 63.02L396.375 63.4122L398.295 63.02H397.295ZM397.295 0.64999V-0.35001H396.295V0.64999H397.295ZM413.765 0.64999H414.765V-0.35001H413.765V0.64999ZM413.765 110V111H414.765V110H413.765ZM400.535 110L399.609 110.379L399.863 111H400.535V110ZM373.805 44.66L374.73 44.2814L372.805 44.66H373.805ZM373.805 110V111H374.805V110H373.805ZM356.795 110H355.795V111H356.795V110ZM356.795 1.64999H370.7V-0.35001H356.795V1.64999ZM369.78 1.04223L396.375 63.4122L398.214 62.6278L371.619 0.257755L369.78 1.04223ZM398.295 63.02V0.64999H396.295V63.02H398.295ZM397.295 1.64999H413.765V-0.35001H397.295V1.64999ZM412.765 0.64999V110H414.765V0.64999H412.765ZM413.765 109H400.535V111H413.765V109ZM401.46 109.621L374.73 44.2814L372.879 45.0386L399.609 110.379L401.46 109.621ZM372.805 44.66V110H374.805V44.66H372.805ZM373.805 109H356.795V111H373.805V109ZM357.795 110V0.64999H355.795V110H357.795ZM441.294 15.365H442.294V14.365H441.294V15.365ZM423.879 15.365H422.879V16.365H423.879V15.365ZM423.879 0.64999V-0.35001H422.879V0.64999H423.879ZM478.284 0.64999H479.284V-0.35001H478.284V0.64999ZM478.284 15.365V16.365H479.284V15.365H478.284ZM461.274 15.365V14.365H460.274V15.365H461.274ZM461.274 110V111H462.274V110H461.274ZM441.294 110H440.294V111H441.294V110ZM441.294 14.365H423.879V16.365H441.294V14.365ZM424.879 15.365V0.64999H422.879V15.365H424.879ZM423.879 1.64999H478.284V-0.35001H423.879V1.64999ZM477.284 0.64999V15.365H479.284V0.64999H477.284ZM478.284 14.365H461.274V16.365H478.284V14.365ZM460.274 15.365V110H462.274V15.365H460.274ZM461.274 109H441.294V111H461.274V109ZM442.294 110V15.365H440.294V110H442.294Z" fill="white"/>
</svg>
