<svg width="57" height="57" viewBox="0 0 57 57" fill="none" xmlns="http://www.w3.org/2000/svg">
<path d="M28.5 57C44.2142 57 57 44.2142 57 28.5C57 12.7858 44.2142 0 28.5 0C12.7858 0 0 12.7858 0 28.5C0 44.2142 12.7858 57 28.5 57ZM28.5 1.78125C43.2327 1.78125 55.2188 13.7673 55.2188 28.5C55.2188 43.2327 43.2327 55.2188 28.5 55.2188C13.7673 55.2188 1.78125 43.2327 1.78125 28.5C1.78125 13.7673 13.7673 1.78125 28.5 1.78125Z" fill="#009B83"/>
<path d="M19.1196 24.3069C20.0227 24.6008 20.9615 24.4654 21.8467 23.9114C22.2618 23.6514 22.39 23.101 22.1282 22.6841C21.8681 22.2691 21.3195 22.1409 20.9009 22.4027C20.4716 22.6699 20.0584 22.7376 19.6754 22.6147C19.2675 22.4811 18.8827 22.1373 18.5603 21.6207C18.2718 21.1612 18.1791 20.6161 18.3003 20.0871C18.4232 19.5563 18.7438 19.1074 19.2051 18.8188C20.306 18.1241 21.7381 18.5214 22.6661 19.2178C24.2354 20.3917 24.9372 22.433 24.9372 25.828C24.9372 30.8405 22.6572 37.0731 18.2985 39.2836C17.8603 39.5063 17.684 40.0424 17.9066 40.4824C18.0669 40.7905 18.3786 40.9687 18.7028 40.9687C18.8382 40.9687 18.9754 40.9366 19.1072 40.8725C24.3351 38.2202 26.7184 31.2128 26.7184 25.828C26.7184 21.8701 25.7708 19.3176 23.7349 17.791C22.0391 16.5139 19.8375 16.3233 18.2611 17.3083C17.3972 17.848 16.7951 18.6924 16.5671 19.6863C16.3373 20.6802 16.5101 21.7027 17.0498 22.5648C17.5967 23.4376 18.311 24.0397 19.1196 24.3069Z" fill="#009B83"/>
<path d="M33.3696 24.3069C34.271 24.6008 35.2115 24.4654 36.0967 23.9114C36.5118 23.6514 36.64 23.101 36.3782 22.6841C36.1181 22.2691 35.5695 22.1409 35.1509 22.4027C34.7234 22.6699 34.3084 22.7376 33.9254 22.6147C33.5175 22.4811 33.1327 22.1373 32.8103 21.6207C32.5218 21.1612 32.4291 20.6161 32.5503 20.0871C32.6732 19.5563 32.9938 19.1074 33.4551 18.8188C34.5577 18.1241 35.9899 18.5214 36.9161 19.2178C38.4854 20.3917 39.1872 22.433 39.1872 25.828C39.1872 30.8405 36.9072 37.0731 32.5485 39.2836C32.1103 39.5063 31.934 40.0424 32.1566 40.4824C32.3169 40.7905 32.6286 40.9687 32.9528 40.9687C33.0882 40.9687 33.2254 40.9366 33.3572 40.8725C38.5851 38.2202 40.9685 31.2128 40.9685 25.828C40.9685 21.8701 40.0208 19.3176 37.9849 17.791C36.2891 16.5139 34.0875 16.3233 32.5111 17.3083C31.6472 17.848 31.0451 18.6924 30.8171 19.6863C30.5873 20.6802 30.7601 21.7027 31.2998 22.5648C31.8467 23.4376 32.561 24.0397 33.3696 24.3069Z" fill="#009B83"/>
</svg>
