<svg width="51" height="51" viewBox="0 0 51 51" fill="none" xmlns="http://www.w3.org/2000/svg">
<g clip-path="url(#clip0_461_2527)">
<path d="M25.3388 50.7218C39.0978 50.7218 50.2929 39.5268 50.2929 25.7678C50.2929 12.0087 39.0978 0.813721 25.3388 0.813721C11.5798 0.813721 0.384766 12.0087 0.384766 25.7678C0.384766 39.5268 11.5798 50.7218 25.3388 50.7218ZM25.3388 2.37335C38.2385 2.37335 48.7332 12.8681 48.7332 25.7678C48.7332 38.6674 38.2385 49.1622 25.3388 49.1622C12.4391 49.1622 1.94439 38.6674 1.94439 25.7678C1.94439 12.8681 12.4391 2.37335 25.3388 2.37335Z" fill="#009B83"/>
<path d="M17.1255 22.0963C17.9163 22.3536 18.7382 22.2351 19.5133 21.7501C19.8767 21.5223 19.989 21.0404 19.7597 20.6755C19.532 20.3121 19.0517 20.1998 18.6852 20.429C18.3093 20.663 17.9474 20.7223 17.6121 20.6146C17.255 20.4977 16.9181 20.1967 16.6358 19.7444C16.3831 19.342 16.302 18.8647 16.4081 18.4015C16.5157 17.9368 16.7964 17.5437 17.2004 17.2911C18.1642 16.6828 19.4182 17.0306 20.2307 17.6404C21.6048 18.6682 22.2193 20.4556 22.2193 23.4282C22.2193 27.817 20.2229 33.2741 16.4065 35.2096C16.0229 35.4046 15.8685 35.874 16.0634 36.2593C16.2038 36.5291 16.4767 36.685 16.7606 36.685C16.8791 36.685 16.9992 36.657 17.1146 36.6008C21.6921 34.2785 23.7789 28.143 23.7789 23.4282C23.7789 19.9627 22.9492 17.7278 21.1665 16.3912C19.6818 15.2729 17.7541 15.106 16.3738 15.9685C15.6174 16.4411 15.0902 17.1803 14.8906 18.0506C14.6894 18.9209 14.8407 19.8161 15.3132 20.571C15.792 21.3352 16.4175 21.8623 17.1255 22.0963Z" fill="#009B83"/>
<path d="M29.6026 22.0963C30.3917 22.3536 31.2152 22.2351 31.9904 21.7501C32.3538 21.5223 32.4661 21.0404 32.2368 20.6755C32.0091 20.3121 31.5287 20.1998 31.1622 20.429C30.7879 20.663 30.4245 20.7223 30.0892 20.6146C29.732 20.4977 29.3951 20.1967 29.1129 19.7444C28.8602 19.342 28.7791 18.8647 28.8851 18.4015C28.9928 17.9368 29.2735 17.5437 29.6774 17.2911C30.6428 16.6828 31.8968 17.0306 32.7078 17.6404C34.0818 18.6682 34.6963 20.4556 34.6963 23.4282C34.6963 27.817 32.7 33.2741 28.8836 35.2096C28.4999 35.4046 28.3455 35.874 28.5405 36.2593C28.6808 36.5291 28.9538 36.685 29.2376 36.685C29.3562 36.685 29.4762 36.657 29.5917 36.6008C34.1692 34.2785 36.2559 28.143 36.2559 23.4282C36.2559 19.9627 35.4262 17.7278 33.6436 16.3912C32.1588 15.2729 30.2311 15.106 28.8508 15.9685C28.0944 16.4411 27.5673 17.1803 27.3676 18.0506C27.1664 18.9209 27.3177 19.8161 27.7903 20.571C28.2691 21.3352 28.8945 21.8623 29.6026 22.0963Z" fill="#009B83"/>
</g>
<defs>
<clipPath id="clip0_461_2527">
<rect width="49.9081" height="49.9081" fill="white" transform="translate(0.384766 0.813721)"/>
</clipPath>
</defs>
</svg>
