<svg width="44" height="44" viewBox="0 0 44 44" fill="none" xmlns="http://www.w3.org/2000/svg">
<g clip-path="url(#clip0_461:4160)">
<path d="M21.7645 43.4444C33.5667 43.4444 43.1695 33.8416 43.1695 22.0394C43.1695 10.2371 33.5667 0.634277 21.7645 0.634277C9.96223 0.634277 0.359375 10.2371 0.359375 22.0394C0.359375 33.8416 9.96223 43.4444 21.7645 43.4444ZM21.7645 1.97209C32.8295 1.97209 41.8317 10.9743 41.8317 22.0394C41.8317 33.1044 32.8295 42.1066 21.7645 42.1066C10.6994 42.1066 1.69719 33.1044 1.69719 22.0394C1.69719 10.9743 10.6994 1.97209 21.7645 1.97209Z" fill="#009B83"/>
<path d="M14.7201 18.8901C15.3984 19.1108 16.1034 19.0092 16.7683 18.5931C17.08 18.3978 17.1764 17.9844 16.9797 17.6713C16.7844 17.3596 16.3723 17.2633 16.0579 17.46C15.7355 17.6606 15.4252 17.7115 15.1375 17.6192C14.8312 17.5188 14.5422 17.2606 14.3 16.8727C14.0833 16.5275 14.0138 16.1181 14.1047 15.7208C14.197 15.3221 14.4378 14.985 14.7843 14.7683C15.6111 14.2465 16.6867 14.5449 17.3837 15.0679C18.5623 15.9496 19.0894 17.4827 19.0894 20.0326C19.0894 23.7972 17.377 28.4782 14.1034 30.1385C13.7743 30.3057 13.6418 30.7084 13.8091 31.0388C13.9295 31.2703 14.1636 31.404 14.4071 31.404C14.5087 31.404 14.6118 31.38 14.7108 31.3318C18.6372 29.3398 20.4272 24.0768 20.4272 20.0326C20.4272 17.06 19.7155 15.1429 18.1864 13.9964C16.9128 13.0371 15.2593 12.894 14.0753 13.6338C13.4265 14.0392 12.9743 14.6733 12.803 15.4198C12.6305 16.1663 12.7602 16.9342 13.1656 17.5817C13.5763 18.2372 14.1128 18.6894 14.7201 18.8901Z" fill="#009B83"/>
<path d="M25.4232 18.8901C26.1002 19.1108 26.8065 19.0092 27.4714 18.5931C27.7832 18.3978 27.8795 17.9844 27.6828 17.6713C27.4875 17.3596 27.0755 17.2633 26.7611 17.46C26.44 17.6606 26.1283 17.7115 25.8406 17.6192C25.5343 17.5188 25.2453 17.2606 25.0032 16.8727C24.7864 16.5275 24.7169 16.1181 24.8079 15.7208C24.9002 15.3221 25.141 14.985 25.4875 14.7683C26.3156 14.2465 27.3912 14.5449 28.0868 15.0679C29.2655 15.9496 29.7926 17.4827 29.7926 20.0326C29.7926 23.7972 28.0802 28.4782 24.8065 30.1385C24.4774 30.3057 24.345 30.7084 24.5122 31.0388C24.6326 31.2703 24.8667 31.404 25.1102 31.404C25.2119 31.404 25.3149 31.38 25.4139 31.3318C29.3404 29.3398 31.1304 24.0768 31.1304 20.0326C31.1304 17.06 30.4187 15.1429 28.8895 13.9964C27.6159 13.0371 25.9624 12.894 24.7784 13.6338C24.1296 14.0392 23.6774 14.6733 23.5062 15.4198C23.3336 16.1663 23.4633 16.9342 23.8687 17.5817C24.2794 18.2372 24.8159 18.6894 25.4232 18.8901Z" fill="#009B83"/>
</g>
<defs>
<clipPath id="clip0_461:4160">
<rect width="42.8102" height="42.8102" fill="white" transform="translate(0.359375 0.634277)"/>
</clipPath>
</defs>
</svg>
