<svg width="51" height="51" viewBox="0 0 51 51" fill="none" xmlns="http://www.w3.org/2000/svg">
<g clip-path="url(#clip0_461:2548)">
<path d="M25.7509 50.8944C39.51 50.8944 50.705 39.6994 50.705 25.9404C50.705 12.1813 39.51 0.986328 25.7509 0.986328C11.9919 0.986328 0.796875 12.1813 0.796875 25.9404C0.796875 39.6994 11.9919 50.8944 25.7509 50.8944ZM25.7509 2.54596C38.6506 2.54596 49.1453 13.0407 49.1453 25.9404C49.1453 38.8401 38.6506 49.3348 25.7509 49.3348C12.8512 49.3348 2.3565 38.8401 2.3565 25.9404C2.3565 13.0407 12.8512 2.54596 25.7509 2.54596Z" fill="#009B83"/>
<path d="M17.5376 22.269C18.3284 22.5263 19.1503 22.4078 19.9254 21.9227C20.2888 21.695 20.4011 21.2131 20.1718 20.8481C19.9441 20.4847 19.4638 20.3725 19.0973 20.6017C18.7214 20.8357 18.3596 20.8949 18.0242 20.7873C17.6671 20.6703 17.3302 20.3693 17.0479 19.917C16.7953 19.5147 16.7142 19.0374 16.8202 18.5742C16.9278 18.1094 17.2086 17.7164 17.6125 17.4637C18.5763 16.8555 19.8303 17.2033 20.6429 17.8131C22.0169 18.8409 22.6314 20.6282 22.6314 23.6009C22.6314 27.9897 20.6351 33.4468 16.8186 35.3823C16.435 35.5773 16.2806 36.0467 16.4755 36.4319C16.6159 36.7018 16.8888 36.8577 17.1727 36.8577C17.2912 36.8577 17.4113 36.8296 17.5267 36.7735C22.1042 34.4512 24.191 28.3156 24.191 23.6009C24.191 20.1354 23.3613 17.9004 21.5786 16.5638C20.0939 15.4456 18.1662 15.2787 16.7859 16.1412C16.0295 16.6138 15.5023 17.353 15.3027 18.2233C15.1015 19.0936 15.2528 19.9888 15.7253 20.7436C16.2042 21.5079 16.8296 22.035 17.5376 22.269Z" fill="#009B83"/>
<path d="M30.0152 22.269C30.8043 22.5263 31.6278 22.4078 32.403 21.9227C32.7664 21.695 32.8787 21.2131 32.6494 20.8481C32.4217 20.4847 31.9413 20.3725 31.5748 20.6017C31.2005 20.8357 30.8371 20.8949 30.5018 20.7873C30.1446 20.6703 29.8077 20.3693 29.5255 19.917C29.2728 19.5147 29.1917 19.0374 29.2977 18.5742C29.4054 18.1094 29.6861 17.7164 30.09 17.4637C31.0554 16.8555 32.3094 17.2033 33.1204 17.8131C34.4944 18.8409 35.1089 20.6282 35.1089 23.6009C35.1089 27.9897 33.1126 33.4468 29.2962 35.3823C28.9125 35.5773 28.7581 36.0467 28.9531 36.4319C29.0934 36.7018 29.3664 36.8577 29.6502 36.8577C29.7688 36.8577 29.8888 36.8296 30.0043 36.7735C34.5818 34.4512 36.6685 28.3156 36.6685 23.6009C36.6685 20.1354 35.8388 17.9004 34.0562 16.5638C32.5714 15.4456 30.6437 15.2787 29.2634 16.1412C28.507 16.6138 27.9799 17.353 27.7802 18.2233C27.579 19.0936 27.7303 19.9888 28.2029 20.7436C28.6817 21.5079 29.3071 22.035 30.0152 22.269Z" fill="#009B83"/>
</g>
<defs>
<clipPath id="clip0_461:2548">
<rect width="49.9081" height="49.9081" fill="white" transform="translate(0.796875 0.986328)"/>
</clipPath>
</defs>
</svg>
