<svg width="44" height="44" viewBox="0 0 44 44" fill="none" xmlns="http://www.w3.org/2000/svg">
<g clip-path="url(#clip0_461:4139)">
<path d="M22.1922 43.1532C33.9944 43.1532 43.5973 33.5503 43.5973 21.7481C43.5973 9.94587 33.9944 0.343018 22.1922 0.343018C10.39 0.343018 0.787109 9.94587 0.787109 21.7481C0.787109 33.5503 10.39 43.1532 22.1922 43.1532ZM22.1922 1.68083C33.2573 1.68083 42.2594 10.683 42.2594 21.7481C42.2594 32.8132 33.2573 41.8154 22.1922 41.8154C11.1271 41.8154 2.12493 32.8132 2.12493 21.7481C2.12493 10.683 11.1271 1.68083 22.1922 1.68083Z" fill="#009B83"/>
<path d="M15.1479 18.5989C15.8261 18.8196 16.5312 18.7179 17.1961 18.3019C17.5078 18.1066 17.6041 17.6932 17.4074 17.3801C17.2121 17.0684 16.8001 16.9721 16.4857 17.1688C16.1633 17.3694 15.8529 17.4203 15.5653 17.328C15.2589 17.2276 14.9699 16.9694 14.7278 16.5814C14.5111 16.2363 14.4415 15.8269 14.5325 15.4296C14.6248 15.0309 14.8656 14.6938 15.2121 14.4771C16.0388 13.9553 17.1144 14.2536 17.8114 14.7767C18.9901 15.6584 19.5172 17.1915 19.5172 19.7414C19.5172 23.506 17.8048 28.187 14.5311 29.8472C14.202 30.0145 14.0696 30.4172 14.2368 30.7476C14.3572 30.979 14.5913 31.1128 14.8348 31.1128C14.9365 31.1128 15.0395 31.0887 15.1385 31.0406C19.065 29.0486 20.855 23.7856 20.855 19.7414C20.855 16.7687 20.1433 14.8517 18.6141 13.7051C17.3405 12.7459 15.687 12.6028 14.503 13.3426C13.8542 13.748 13.402 14.3821 13.2308 15.1286C13.0582 15.8751 13.188 16.643 13.5933 17.2905C14.004 17.946 14.5405 18.3982 15.1479 18.5989Z" fill="#009B83"/>
<path d="M25.851 18.5989C26.5279 18.8196 27.2343 18.7179 27.8992 18.3019C28.2109 18.1066 28.3072 17.6932 28.1106 17.3801C27.9152 17.0684 27.5032 16.9721 27.1888 17.1688C26.8677 17.3694 26.556 17.4203 26.2684 17.328C25.962 17.2276 25.6731 16.9694 25.4309 16.5814C25.2142 16.2363 25.1446 15.8269 25.2356 15.4296C25.3279 15.0309 25.5687 14.6938 25.9152 14.4771C26.7433 13.9553 27.8189 14.2536 28.5146 14.7767C29.6932 15.6584 30.2203 17.1915 30.2203 19.7414C30.2203 23.506 28.5079 28.187 25.2342 29.8472C24.9051 30.0145 24.7727 30.4172 24.9399 30.7476C25.0603 30.979 25.2944 31.1128 25.5379 31.1128C25.6396 31.1128 25.7426 31.0887 25.8416 31.0406C29.7681 29.0486 31.5581 23.7856 31.5581 19.7414C31.5581 16.7687 30.8464 14.8517 29.3173 13.7051C28.0437 12.7459 26.3901 12.6028 25.2062 13.3426C24.5573 13.748 24.1051 14.3821 23.9339 15.1286C23.7613 15.8751 23.8911 16.643 24.2964 17.2905C24.7071 17.946 25.2436 18.3982 25.851 18.5989Z" fill="#009B83"/>
</g>
<defs>
<clipPath id="clip0_461:4139">
<rect width="42.8102" height="42.8102" fill="white" transform="translate(0.787109 0.343018)"/>
</clipPath>
</defs>
</svg>
