<svg width="44" height="44" viewBox="0 0 44 44" fill="none" xmlns="http://www.w3.org/2000/svg">
<g clip-path="url(#clip0_461:4118)">
<path d="M21.6116 43.1529C33.4138 43.1529 43.0167 33.5501 43.0167 21.7479C43.0167 9.94563 33.4138 0.342773 21.6116 0.342773C9.8094 0.342773 0.206543 9.94563 0.206543 21.7479C0.206543 33.5501 9.8094 43.1529 21.6116 43.1529ZM21.6116 1.68059C32.6767 1.68059 41.6789 10.6828 41.6789 21.7479C41.6789 32.8129 32.6767 41.8151 21.6116 41.8151C10.5465 41.8151 1.54436 32.8129 1.54436 21.7479C1.54436 10.6828 10.5465 1.68059 21.6116 1.68059Z" fill="#009B83"/>
<path d="M14.5668 18.5985C15.2451 18.8193 15.9501 18.7176 16.615 18.3015C16.9267 18.1062 17.023 17.6928 16.8264 17.3798C16.6311 17.0681 16.219 16.9718 15.9046 17.1684C15.5822 17.3691 15.2718 17.4199 14.9842 17.3276C14.6778 17.2273 14.3889 16.9691 14.1467 16.5811C13.93 16.236 13.8604 15.8266 13.9514 15.4293C14.0437 15.0306 14.2845 14.6935 14.631 14.4767C15.4578 13.955 16.5334 14.2533 17.2304 14.7764C18.409 15.658 18.9361 17.1912 18.9361 19.741C18.9361 23.5057 17.2237 28.1867 13.9501 29.8469C13.621 30.0141 13.4885 30.4168 13.6557 30.7473C13.7762 30.9787 14.0103 31.1125 14.2538 31.1125C14.3554 31.1125 14.4584 31.0884 14.5574 31.0402C18.4839 29.0482 20.2739 23.7853 20.2739 19.741C20.2739 16.7684 19.5622 14.8513 18.0331 13.7048C16.7595 12.7456 15.1059 12.6024 13.922 13.3423C13.2731 13.7476 12.821 14.3817 12.6497 15.1282C12.4771 15.8747 12.6069 16.6427 13.0123 17.2902C13.423 17.9457 13.9594 18.3979 14.5668 18.5985Z" fill="#009B83"/>
<path d="M25.2699 18.5985C25.9469 18.8193 26.6532 18.7176 27.3181 18.3015C27.6298 18.1062 27.7262 17.6928 27.5295 17.3798C27.3342 17.0681 26.9221 16.9718 26.6077 17.1684C26.2867 17.3691 25.975 17.4199 25.6873 17.3276C25.381 17.2273 25.092 16.9691 24.8499 16.5811C24.6331 16.236 24.5636 15.8266 24.6545 15.4293C24.7468 15.0306 24.9876 14.6935 25.3341 14.4767C26.1623 13.955 27.2379 14.2533 27.9335 14.7764C29.1121 15.658 29.6392 17.1912 29.6392 19.741C29.6392 23.5057 27.9268 28.1867 24.6532 29.8469C24.3241 30.0141 24.1916 30.4168 24.3589 30.7473C24.4793 30.9787 24.7134 31.1125 24.9569 31.1125C25.0586 31.1125 25.1616 31.0884 25.2606 31.0402C29.1871 29.0482 30.9771 23.7853 30.9771 19.741C30.9771 16.7684 30.2653 14.8513 28.7362 13.7048C27.4626 12.7456 25.8091 12.6024 24.6251 13.3423C23.9763 13.7476 23.5241 14.3817 23.3528 15.1282C23.1803 15.8747 23.31 16.6427 23.7154 17.2902C24.1261 17.9457 24.6626 18.3979 25.2699 18.5985Z" fill="#009B83"/>
</g>
<defs>
<clipPath id="clip0_461:4118">
<rect width="42.8102" height="42.8102" fill="white" transform="translate(0.206543 0.342773)"/>
</clipPath>
</defs>
</svg>
