<svg width="44" height="44" viewBox="0 0 44 44" fill="none" xmlns="http://www.w3.org/2000/svg">
<g clip-path="url(#clip0_461_4139)">
<path d="M22.0356 43.1529C33.8378 43.1529 43.4406 33.5501 43.4406 21.7479C43.4406 9.94563 33.8378 0.342773 22.0356 0.342773C10.2333 0.342773 0.630493 9.94563 0.630493 21.7479C0.630493 33.5501 10.2333 43.1529 22.0356 43.1529ZM22.0356 1.68059C33.1007 1.68059 42.1028 10.6828 42.1028 21.7479C42.1028 32.8129 33.1007 41.8151 22.0356 41.8151C10.9705 41.8151 1.96831 32.8129 1.96831 21.7479C1.96831 10.6828 10.9705 1.68059 22.0356 1.68059Z" fill="#009B83"/>
<path d="M14.992 18.5988C15.6702 18.8195 16.3753 18.7179 17.0402 18.3018C17.3519 18.1065 17.4482 17.6931 17.2515 17.38C17.0562 17.0683 16.6442 16.972 16.3298 17.1687C16.0074 17.3693 15.697 17.4202 15.4094 17.3279C15.103 17.2275 14.814 16.9693 14.5719 16.5814C14.3552 16.2362 14.2856 15.8268 14.3766 15.4295C14.4689 15.0308 14.7097 14.6937 15.0562 14.477C15.883 13.9552 16.9586 14.2536 17.6556 14.7766C18.8342 15.6583 19.3613 17.1914 19.3613 19.7413C19.3613 23.5059 17.6489 28.1869 14.3752 29.8472C14.0461 30.0144 13.9137 30.4171 14.0809 30.7475C14.2013 30.9789 14.4354 31.1127 14.6789 31.1127C14.7806 31.1127 14.8836 31.0886 14.9826 31.0405C18.9091 29.0485 20.6991 23.7855 20.6991 19.7413C20.6991 16.7687 19.9874 14.8516 18.4583 13.7051C17.1847 12.7458 15.5311 12.6027 14.3471 13.3425C13.6983 13.7479 13.2461 14.382 13.0749 15.1285C12.9023 15.875 13.0321 16.6429 13.4374 17.2904C13.8481 17.9459 14.3846 18.3981 14.992 18.5988Z" fill="#009B83"/>
<path d="M25.6941 18.5988C26.3711 18.8195 27.0774 18.7179 27.7423 18.3018C28.054 18.1065 28.1504 17.6931 27.9537 17.38C27.7584 17.0683 27.3463 16.972 27.0319 17.1687C26.7109 17.3693 26.3992 17.4202 26.1115 17.3279C25.8052 17.2275 25.5162 16.9693 25.274 16.5814C25.0573 16.2362 24.9878 15.8268 25.0787 15.4295C25.171 15.0308 25.4118 14.6937 25.7583 14.477C26.5864 13.9552 27.6621 14.2536 28.3577 14.7766C29.5363 15.6583 30.0634 17.1914 30.0634 19.7413C30.0634 23.5059 28.351 28.1869 25.0774 29.8472C24.7483 30.0144 24.6158 30.4171 24.7831 30.7475C24.9035 30.9789 25.1376 31.1127 25.3811 31.1127C25.4827 31.1127 25.5858 31.0886 25.6848 31.0405C29.6113 29.0485 31.4013 23.7855 31.4013 19.7413C31.4013 16.7687 30.6895 14.8516 29.1604 13.7051C27.8868 12.7458 26.2333 12.6027 25.0493 13.3425C24.4005 13.7479 23.9483 14.382 23.777 15.1285C23.6045 15.875 23.7342 16.6429 24.1396 17.2904C24.5503 17.9459 25.0868 18.3981 25.6941 18.5988Z" fill="#009B83"/>
</g>
<defs>
<clipPath id="clip0_461_4139">
<rect width="42.8102" height="42.8102" fill="white" transform="translate(0.630493 0.342773)"/>
</clipPath>
</defs>
</svg>
