<svg width="51" height="51" viewBox="0 0 51 51" fill="none" xmlns="http://www.w3.org/2000/svg">
<g clip-path="url(#clip0_461_2506)">
<path d="M25.1059 50.7216C38.8649 50.7216 50.0599 39.5266 50.0599 25.7675C50.0599 12.0085 38.8649 0.813477 25.1059 0.813477C11.3469 0.813477 0.151855 12.0085 0.151855 25.7675C0.151855 39.5266 11.3469 50.7216 25.1059 50.7216ZM25.1059 2.3731C38.0056 2.3731 48.5003 12.8678 48.5003 25.7675C48.5003 38.6672 38.0056 49.1619 25.1059 49.1619C12.2062 49.1619 1.71148 38.6672 1.71148 25.7675C1.71148 12.8678 12.2062 2.3731 25.1059 2.3731Z" fill="#009B83"/>
<path d="M16.8931 22.096C17.6838 22.3534 18.5058 22.2349 19.2809 21.7498C19.6443 21.5221 19.7566 21.0402 19.5273 20.6752C19.2996 20.3118 18.8192 20.1995 18.4527 20.4288C18.0769 20.6627 17.715 20.722 17.3797 20.6144C17.0226 20.4974 16.6857 20.1964 16.4034 19.7441C16.1507 19.3417 16.0696 18.8645 16.1757 18.4013C16.2833 17.9365 16.564 17.5435 16.968 17.2908C17.9318 16.6826 19.1858 17.0304 19.9983 17.6402C21.3724 18.668 21.9868 20.4553 21.9868 23.428C21.9868 27.8168 19.9905 33.2739 16.1741 35.2094C15.7904 35.4044 15.636 35.8738 15.831 36.259C15.9714 36.5288 16.2443 36.6848 16.5282 36.6848C16.6467 36.6848 16.7668 36.6567 16.8822 36.6006C21.4597 34.2783 23.5465 28.1427 23.5465 23.428C23.5465 19.9625 22.7168 17.7275 20.9341 16.3909C19.4493 15.2727 17.5216 15.1058 16.1414 15.9683C15.3849 16.4408 14.8578 17.1801 14.6582 18.0504C14.457 18.9206 14.6082 19.8159 15.0808 20.5707C15.5596 21.3349 16.185 21.8621 16.8931 22.096Z" fill="#009B83"/>
<path d="M29.3702 22.096C30.1593 22.3534 30.9828 22.2349 31.7579 21.7498C32.1213 21.5221 32.2336 21.0402 32.0044 20.6752C31.7767 20.3118 31.2963 20.1995 30.9298 20.4288C30.5555 20.6627 30.1921 20.722 29.8568 20.6144C29.4996 20.4974 29.1627 20.1964 28.8804 19.7441C28.6278 19.3417 28.5467 18.8645 28.6527 18.4013C28.7603 17.9365 29.0411 17.5435 29.445 17.2908C30.4104 16.6826 31.6644 17.0304 32.4754 17.6402C33.8494 18.668 34.4639 20.4553 34.4639 23.428C34.4639 27.8168 32.4676 33.2739 28.6512 35.2094C28.2675 35.4044 28.1131 35.8738 28.308 36.259C28.4484 36.5288 28.7213 36.6848 29.0052 36.6848C29.1237 36.6848 29.2438 36.6567 29.3592 36.6006C33.9367 34.2783 36.0235 28.1427 36.0235 23.428C36.0235 19.9625 35.1938 17.7275 33.4112 16.3909C31.9264 15.2727 29.9987 15.1058 28.6184 15.9683C27.862 16.4408 27.3348 17.1801 27.1352 18.0504C26.934 18.9206 27.0853 19.8159 27.5579 20.5707C28.0367 21.3349 28.6621 21.8621 29.3702 22.096Z" fill="#009B83"/>
</g>
<defs>
<clipPath id="clip0_461_2506">
<rect width="49.9081" height="49.9081" fill="white" transform="translate(0.151855 0.813477)"/>
</clipPath>
</defs>
</svg>
