<svg width="50" height="51" viewBox="0 0 50 51" fill="none" xmlns="http://www.w3.org/2000/svg">
<g clip-path="url(#clip0_461:2527)">
<path d="M24.9843 50.7218C38.7434 50.7218 49.9384 39.5268 49.9384 25.7678C49.9384 12.0087 38.7434 0.813721 24.9843 0.813721C11.2253 0.813721 0.0302734 12.0087 0.0302734 25.7678C0.0302734 39.5268 11.2253 50.7218 24.9843 50.7218ZM24.9843 2.37335C37.884 2.37335 48.3787 12.8681 48.3787 25.7678C48.3787 38.6674 37.884 49.1622 24.9843 49.1622C12.0846 49.1622 1.5899 38.6674 1.5899 25.7678C1.5899 12.8681 12.0846 2.37335 24.9843 2.37335Z" fill="#009B83"/>
<path d="M16.771 22.0964C17.5618 22.3538 18.3837 22.2352 19.1588 21.7502C19.5222 21.5225 19.6345 21.0405 19.4052 20.6756C19.1775 20.3122 18.6972 20.1999 18.3307 20.4292C17.9548 20.6631 17.593 20.7224 17.2576 20.6148C16.9005 20.4978 16.5636 20.1968 16.2813 19.7445C16.0287 19.3421 15.9476 18.8649 16.0536 18.4017C16.1612 17.9369 16.442 17.5439 16.8459 17.2912C17.8097 16.6829 19.0637 17.0307 19.8763 17.6406C21.2503 18.6684 21.8648 20.4557 21.8648 23.4283C21.8648 27.8171 19.8685 33.2743 16.052 35.2098C15.6684 35.4047 15.514 35.8742 15.7089 36.2594C15.8493 36.5292 16.1222 36.6852 16.4061 36.6852C16.5246 36.6852 16.6447 36.6571 16.7601 36.6009C21.3376 34.2787 23.4244 28.1431 23.4244 23.4283C23.4244 19.9628 22.5947 17.7279 20.812 16.3913C19.3273 15.273 17.3996 15.1062 16.0193 15.9686C15.2629 16.4412 14.7357 17.1805 14.5361 18.0507C14.3349 18.921 14.4862 19.8162 14.9587 20.5711C15.4376 21.3353 16.063 21.8625 16.771 22.0964Z" fill="#009B83"/>
<path d="M29.2486 22.0964C30.0377 22.3538 30.8612 22.2352 31.6364 21.7502C31.9998 21.5225 32.1121 21.0405 31.8828 20.6756C31.6551 20.3122 31.1747 20.1999 30.8082 20.4292C30.4339 20.6631 30.0705 20.7224 29.7352 20.6148C29.378 20.4978 29.0411 20.1968 28.7588 19.7445C28.5062 19.3421 28.4251 18.8649 28.5311 18.4017C28.6388 17.9369 28.9195 17.5439 29.3234 17.2912C30.2888 16.6829 31.5428 17.0307 32.3538 17.6406C33.7278 18.6684 34.3423 20.4557 34.3423 23.4283C34.3423 27.8171 32.346 33.2743 28.5296 35.2098C28.1459 35.4047 27.9915 35.8742 28.1865 36.2594C28.3268 36.5292 28.5998 36.6852 28.8836 36.6852C29.0022 36.6852 29.1222 36.6571 29.2377 36.6009C33.8152 34.2787 35.9019 28.1431 35.9019 23.4283C35.9019 19.9628 35.0722 17.7279 33.2896 16.3913C31.8048 15.273 29.8771 15.1062 28.4968 15.9686C27.7404 16.4412 27.2133 17.1805 27.0136 18.0507C26.8124 18.921 26.9637 19.8162 27.4363 20.5711C27.9151 21.3353 28.5405 21.8625 29.2486 22.0964Z" fill="#009B83"/>
</g>
<defs>
<clipPath id="clip0_461:2527">
<rect width="49.9081" height="49.9081" fill="white" transform="translate(0.0302734 0.813721)"/>
</clipPath>
</defs>
</svg>
