<svg width="51" height="51" viewBox="0 0 51 51" fill="none" xmlns="http://www.w3.org/2000/svg">
<g clip-path="url(#clip0_461_2548)">
<path d="M25.1054 50.8944C38.8644 50.8944 50.0595 39.6994 50.0595 25.9404C50.0595 12.1813 38.8644 0.986328 25.1054 0.986328C11.3464 0.986328 0.151367 12.1813 0.151367 25.9404C0.151367 39.6994 11.3464 50.8944 25.1054 50.8944ZM25.1054 2.54596C38.0051 2.54596 48.4998 13.0407 48.4998 25.9404C48.4998 38.8401 38.0051 49.3348 25.1054 49.3348C12.2057 49.3348 1.71099 38.8401 1.71099 25.9404C1.71099 13.0407 12.2057 2.54596 25.1054 2.54596Z" fill="#009B83"/>
<path d="M16.8926 22.2689C17.6833 22.5262 18.5053 22.4077 19.2804 21.9227C19.6438 21.695 19.7561 21.213 19.5268 20.8481C19.2991 20.4847 18.8188 20.3724 18.4522 20.6017C18.0764 20.8356 17.7145 20.8949 17.3792 20.7873C17.0221 20.6703 16.6852 20.3693 16.4029 19.917C16.1502 19.5146 16.0691 19.0374 16.1752 18.5741C16.2828 18.1094 16.5635 17.7163 16.9675 17.4637C17.9313 16.8554 19.1853 17.2032 19.9978 17.813C21.3719 18.8408 21.9864 20.6282 21.9864 23.6008C21.9864 27.9896 19.99 33.4468 16.1736 35.3822C15.79 35.5772 15.6356 36.0466 15.8305 36.4319C15.9709 36.7017 16.2438 36.8577 16.5277 36.8577C16.6462 36.8577 16.7663 36.8296 16.8817 36.7734C21.4592 34.4511 23.546 28.3156 23.546 23.6008C23.546 20.1353 22.7163 17.9004 20.9336 16.5638C19.4488 15.4455 17.5211 15.2786 16.1409 16.1411C15.3845 16.6137 14.8573 17.353 14.6577 18.2232C14.4565 19.0935 14.6078 19.9887 15.0803 20.7436C15.5591 21.5078 16.1845 22.035 16.8926 22.2689Z" fill="#009B83"/>
<path d="M29.3697 22.2689C30.1588 22.5262 30.9823 22.4077 31.7575 21.9227C32.1208 21.695 32.2331 21.213 32.0039 20.8481C31.7762 20.4847 31.2958 20.3724 30.9293 20.6017C30.555 20.8356 30.1916 20.8949 29.8563 20.7873C29.4991 20.6703 29.1622 20.3693 28.8799 19.917C28.6273 19.5146 28.5462 19.0374 28.6522 18.5741C28.7599 18.1094 29.0406 17.7163 29.4445 17.4637C30.4099 16.8554 31.6639 17.2032 32.4749 17.813C33.8489 18.8408 34.4634 20.6282 34.4634 23.6008C34.4634 27.9896 32.4671 33.4468 28.6507 35.3822C28.267 35.5772 28.1126 36.0466 28.3076 36.4319C28.4479 36.7017 28.7209 36.8577 29.0047 36.8577C29.1232 36.8577 29.2433 36.8296 29.3587 36.7734C33.9363 34.4511 36.023 28.3156 36.023 23.6008C36.023 20.1353 35.1933 17.9004 33.4107 16.5638C31.9259 15.4455 29.9982 15.2786 28.6179 16.1411C27.8615 16.6137 27.3344 17.353 27.1347 18.2232C26.9335 19.0935 27.0848 19.9887 27.5574 20.7436C28.0362 21.5078 28.6616 22.035 29.3697 22.2689Z" fill="#009B83"/>
</g>
<defs>
<clipPath id="clip0_461_2548">
<rect width="49.9081" height="49.9081" fill="white" transform="translate(0.151367 0.986328)"/>
</clipPath>
</defs>
</svg>
