<svg width="58" height="57" viewBox="0 0 58 57" fill="none" xmlns="http://www.w3.org/2000/svg">
<g clip-path="url(#clip0_449_936)">
<path d="M28.5024 57C44.2166 57 57.0024 44.2142 57.0024 28.5C57.0024 12.7858 44.2166 0 28.5024 0C12.7883 0 0.00244141 12.7858 0.00244141 28.5C0.00244141 44.2142 12.7883 57 28.5024 57ZM28.5024 1.78125C43.2352 1.78125 55.2212 13.7673 55.2212 28.5C55.2212 43.2327 43.2352 55.2188 28.5024 55.2188C13.7697 55.2188 1.78369 43.2327 1.78369 28.5C1.78369 13.7673 13.7697 1.78125 28.5024 1.78125Z" fill="#E93535"/>
<path d="M19.1222 24.3069C20.0253 24.6008 20.964 24.4654 21.8493 23.9114C22.2643 23.6514 22.3926 23.101 22.1307 22.6841C21.8707 22.2691 21.322 22.1409 20.9035 22.4027C20.4742 22.6699 20.0609 22.7376 19.678 22.6147C19.27 22.4811 18.8853 22.1373 18.5629 21.6207C18.2743 21.1612 18.1817 20.6161 18.3028 20.0871C18.4257 19.5563 18.7464 19.1074 19.2077 18.8188C20.3085 18.1241 21.7406 18.5214 22.6687 19.2178C24.238 20.3917 24.9398 22.433 24.9398 25.828C24.9398 30.8405 22.6598 37.0731 18.301 39.2836C17.8629 39.5063 17.6865 40.0424 17.9092 40.4824C18.0695 40.7905 18.3812 40.9687 18.7054 40.9687C18.8408 40.9687 18.9779 40.9366 19.1097 40.8725C24.3377 38.2202 26.721 31.2128 26.721 25.828C26.721 21.8701 25.7734 19.3176 23.7374 17.791C22.0417 16.5139 19.84 16.3233 18.2636 17.3083C17.3997 17.848 16.7977 18.6924 16.5697 19.6863C16.3399 20.6802 16.5127 21.7027 17.0524 22.5648C17.5992 23.4376 18.3135 24.0397 19.1222 24.3069Z" fill="#E93535"/>
<path d="M33.3722 24.3069C34.2735 24.6008 35.214 24.4654 36.0993 23.9114C36.5143 23.6514 36.6426 23.101 36.3807 22.6841C36.1207 22.2691 35.572 22.1409 35.1535 22.4027C34.726 22.6699 34.3109 22.7376 33.928 22.6147C33.52 22.4811 33.1353 22.1373 32.8129 21.6207C32.5243 21.1612 32.4317 20.6161 32.5528 20.0871C32.6757 19.5563 32.9964 19.1074 33.4577 18.8188C34.5603 18.1241 35.9924 18.5214 36.9187 19.2178C38.488 20.3917 39.1898 22.433 39.1898 25.828C39.1898 30.8405 36.9098 37.0731 32.551 39.2836C32.1129 39.5063 31.9365 40.0424 32.1592 40.4824C32.3195 40.7905 32.6312 40.9687 32.9554 40.9687C33.0908 40.9687 33.2279 40.9366 33.3597 40.8725C38.5877 38.2202 40.971 31.2128 40.971 25.828C40.971 21.8701 40.0234 19.3176 37.9874 17.791C36.2917 16.5139 34.09 16.3233 32.5136 17.3083C31.6497 17.848 31.0477 18.6924 30.8197 19.6863C30.5899 20.6802 30.7627 21.7027 31.3024 22.5648C31.8492 23.4376 32.5635 24.0397 33.3722 24.3069Z" fill="#E93535"/>
</g>
<defs>
<clipPath id="clip0_449_936">
<rect width="57" height="57" fill="white" transform="translate(0.00244141)"/>
</clipPath>
</defs>
</svg>
