<svg width="51" height="51" viewBox="0 0 51 51" fill="none" xmlns="http://www.w3.org/2000/svg">
<g clip-path="url(#clip0_461:2506)">
<path d="M25.7509 50.7216C39.51 50.7216 50.705 39.5266 50.705 25.7675C50.705 12.0085 39.51 0.813477 25.7509 0.813477C11.9919 0.813477 0.796875 12.0085 0.796875 25.7675C0.796875 39.5266 11.9919 50.7216 25.7509 50.7216ZM25.7509 2.3731C38.6506 2.3731 49.1453 12.8678 49.1453 25.7675C49.1453 38.6672 38.6506 49.1619 25.7509 49.1619C12.8512 49.1619 2.3565 38.6672 2.3565 25.7675C2.3565 12.8678 12.8512 2.3731 25.7509 2.3731Z" fill="#009B83"/>
<path d="M17.5376 22.0962C18.3284 22.3535 19.1503 22.235 19.9254 21.7499C20.2888 21.5222 20.4011 21.0403 20.1718 20.6753C19.9441 20.312 19.4638 20.1997 19.0973 20.4289C18.7214 20.6629 18.3596 20.7221 18.0242 20.6145C17.6671 20.4976 17.3302 20.1965 17.0479 19.7443C16.7953 19.3419 16.7142 18.8646 16.8202 18.4014C16.9278 17.9366 17.2086 17.5436 17.6125 17.291C18.5763 16.6827 19.8303 17.0305 20.6429 17.6403C22.0169 18.6681 22.6314 20.4554 22.6314 23.4281C22.6314 27.8169 20.6351 33.274 16.8186 35.2095C16.435 35.4045 16.2806 35.8739 16.4755 36.2591C16.6159 36.529 16.8888 36.6849 17.1727 36.6849C17.2912 36.6849 17.4113 36.6569 17.5267 36.6007C22.1042 34.2784 24.191 28.1428 24.191 23.4281C24.191 19.9626 23.3613 17.7277 21.5786 16.3911C20.0939 15.2728 18.1662 15.1059 16.7859 15.9684C16.0295 16.441 15.5023 17.1802 15.3027 18.0505C15.1015 18.9208 15.2528 19.816 15.7253 20.5709C16.2042 21.3351 16.8296 21.8622 17.5376 22.0962Z" fill="#009B83"/>
<path d="M30.0152 22.0962C30.8043 22.3535 31.6278 22.235 32.403 21.7499C32.7664 21.5222 32.8787 21.0403 32.6494 20.6753C32.4217 20.312 31.9413 20.1997 31.5748 20.4289C31.2005 20.6629 30.8371 20.7221 30.5018 20.6145C30.1446 20.4976 29.8077 20.1965 29.5255 19.7443C29.2728 19.3419 29.1917 18.8646 29.2977 18.4014C29.4054 17.9366 29.6861 17.5436 30.09 17.291C31.0554 16.6827 32.3094 17.0305 33.1204 17.6403C34.4944 18.6681 35.1089 20.4554 35.1089 23.4281C35.1089 27.8169 33.1126 33.274 29.2962 35.2095C28.9125 35.4045 28.7581 35.8739 28.9531 36.2591C29.0934 36.529 29.3664 36.6849 29.6502 36.6849C29.7688 36.6849 29.8888 36.6569 30.0043 36.6007C34.5818 34.2784 36.6685 28.1428 36.6685 23.4281C36.6685 19.9626 35.8388 17.7277 34.0562 16.3911C32.5714 15.2728 30.6437 15.1059 29.2634 15.9684C28.507 16.441 27.9799 17.1802 27.7802 18.0505C27.579 18.9208 27.7303 19.816 28.2029 20.5709C28.6817 21.3351 29.3071 21.8622 30.0152 22.0962Z" fill="#009B83"/>
</g>
<defs>
<clipPath id="clip0_461:2506">
<rect width="49.9081" height="49.9081" fill="white" transform="translate(0.796875 0.813477)"/>
</clipPath>
</defs>
</svg>
