<svg width="44" height="44" viewBox="0 0 44 44" fill="none" xmlns="http://www.w3.org/2000/svg">
<g clip-path="url(#clip0_461:4181)">
<path d="M22.0359 43.4444C33.8382 43.4444 43.441 33.8416 43.441 22.0394C43.441 10.2371 33.8382 0.634277 22.0359 0.634277C10.2337 0.634277 0.630859 10.2371 0.630859 22.0394C0.630859 33.8416 10.2337 43.4444 22.0359 43.4444ZM22.0359 1.97209C33.101 1.97209 42.1032 10.9743 42.1032 22.0394C42.1032 33.1044 33.101 42.1066 22.0359 42.1066C10.9708 42.1066 1.96868 33.1044 1.96868 22.0394C1.96868 10.9743 10.9708 1.97209 22.0359 1.97209Z" fill="#009B83"/>
<path d="M14.9926 18.89C15.6709 19.1108 16.3759 19.0091 17.0408 18.5931C17.3525 18.3977 17.4488 17.9843 17.2522 17.6713C17.0568 17.3596 16.6448 17.2633 16.3304 17.4599C16.008 17.6606 15.6976 17.7114 15.41 17.6191C15.1036 17.5188 14.8147 17.2606 14.5725 16.8726C14.3558 16.5275 14.2862 16.1181 14.3772 15.7208C14.4695 15.3221 14.7103 14.985 15.0568 14.7682C15.8836 14.2465 16.9592 14.5448 17.6562 15.0679C18.8348 15.9495 19.3619 17.4827 19.3619 20.0325C19.3619 23.7972 17.6495 28.4782 14.3758 30.1384C14.0467 30.3056 13.9143 30.7083 14.0815 31.0388C14.2019 31.2702 14.4361 31.404 14.6795 31.404C14.7812 31.404 14.8842 31.3799 14.9832 31.3317C18.9097 29.3397 20.6997 24.0768 20.6997 20.0325C20.6997 17.0599 19.988 15.1428 18.4589 13.9963C17.1853 13.0371 15.5317 12.8939 14.3478 13.6338C13.6989 14.0391 13.2467 14.6732 13.0755 15.4197C12.9029 16.1663 13.0327 16.9342 13.438 17.5817C13.8487 18.2372 14.3852 18.6894 14.9926 18.89Z" fill="#009B83"/>
<path d="M25.6947 18.89C26.3717 19.1108 27.078 19.0091 27.7429 18.5931C28.0546 18.3977 28.151 17.9843 27.9543 17.6713C27.759 17.3596 27.3469 17.2633 27.0325 17.4599C26.7115 17.6606 26.3998 17.7114 26.1121 17.6191C25.8058 17.5188 25.5168 17.2606 25.2747 16.8726C25.0579 16.5275 24.9884 16.1181 25.0793 15.7208C25.1716 15.3221 25.4125 14.985 25.7589 14.7682C26.5871 14.2465 27.6627 14.5448 28.3583 15.0679C29.5369 15.9495 30.064 17.4827 30.064 20.0325C30.064 23.7972 28.3516 28.4782 25.078 30.1384C24.7489 30.3056 24.6164 30.7083 24.7837 31.0388C24.9041 31.2702 25.1382 31.404 25.3817 31.404C25.4834 31.404 25.5864 31.3799 25.6854 31.3317C29.6119 29.3397 31.4019 24.0768 31.4019 20.0325C31.4019 17.0599 30.6901 15.1428 29.161 13.9963C27.8874 13.0371 26.2339 12.8939 25.0499 13.6338C24.4011 14.0391 23.9489 14.6732 23.7776 15.4197C23.6051 16.1663 23.7348 16.9342 24.1402 17.5817C24.5509 18.2372 25.0874 18.6894 25.6947 18.89Z" fill="#009B83"/>
</g>
<defs>
<clipPath id="clip0_461:4181">
<rect width="42.8102" height="42.8102" fill="white" transform="translate(0.630859 0.634277)"/>
</clipPath>
</defs>
</svg>
