<svg width="57" height="57" viewBox="0 0 57 57" fill="none" xmlns="http://www.w3.org/2000/svg">
<path d="M28.5 57C44.2142 57 57 44.2142 57 28.5C57 12.7858 44.2142 0 28.5 0C12.7858 0 0 12.7858 0 28.5C0 44.2142 12.7858 57 28.5 57ZM28.5 1.78125C43.2327 1.78125 55.2188 13.7673 55.2188 28.5C55.2188 43.2327 43.2327 55.2188 28.5 55.2188C13.7673 55.2188 1.78125 43.2327 1.78125 28.5C1.78125 13.7673 13.7673 1.78125 28.5 1.78125Z" fill="#009B83"/>
<path d="M19.1198 24.3069C20.0229 24.6008 20.9616 24.4654 21.8469 23.9114C22.2619 23.6514 22.3901 23.101 22.1283 22.6841C21.8682 22.2691 21.3196 22.1409 20.901 22.4027C20.4717 22.6699 20.0585 22.7376 19.6755 22.6147C19.2676 22.4811 18.8829 22.1373 18.5604 21.6207C18.2719 21.1612 18.1793 20.6161 18.3004 20.0871C18.4233 19.5563 18.7439 19.1074 19.2053 18.8188C20.3061 18.1241 21.7382 18.5214 22.6662 19.2178C24.2355 20.3917 24.9373 22.433 24.9373 25.828C24.9373 30.8405 22.6573 37.0731 18.2986 39.2836C17.8604 39.5063 17.6841 40.0424 17.9067 40.4824C18.067 40.7905 18.3788 40.9687 18.7029 40.9687C18.8383 40.9687 18.9755 40.9366 19.1073 40.8725C24.3353 38.2202 26.7186 31.2128 26.7186 25.828C26.7186 21.8701 25.7709 19.3176 23.735 17.791C22.0392 16.5139 19.8376 16.3233 18.2612 17.3083C17.3973 17.848 16.7952 18.6924 16.5672 19.6863C16.3374 20.6802 16.5102 21.7027 17.0499 22.5648C17.5968 23.4376 18.3111 24.0397 19.1198 24.3069Z" fill="#009B83"/>
<path d="M33.3698 24.3069C34.2711 24.6008 35.2116 24.4654 36.0969 23.9114C36.5119 23.6514 36.6401 23.101 36.3783 22.6841C36.1182 22.2691 35.5696 22.1409 35.151 22.4027C34.7235 22.6699 34.3085 22.7376 33.9255 22.6147C33.5176 22.4811 33.1329 22.1373 32.8104 21.6207C32.5219 21.1612 32.4293 20.6161 32.5504 20.0871C32.6733 19.5563 32.9939 19.1074 33.4553 18.8188C34.5579 18.1241 35.99 18.5214 36.9162 19.2178C38.4855 20.3917 39.1873 22.433 39.1873 25.828C39.1873 30.8405 36.9073 37.0731 32.5486 39.2836C32.1104 39.5063 31.9341 40.0424 32.1567 40.4824C32.317 40.7905 32.6288 40.9687 32.9529 40.9687C33.0883 40.9687 33.2255 40.9366 33.3573 40.8725C38.5853 38.2202 40.9686 31.2128 40.9686 25.828C40.9686 21.8701 40.021 19.3176 37.985 17.791C36.2892 16.5139 34.0876 16.3233 32.5112 17.3083C31.6473 17.848 31.0452 18.6924 30.8172 19.6863C30.5874 20.6802 30.7602 21.7027 31.2999 22.5648C31.8468 23.4376 32.5611 24.0397 33.3698 24.3069Z" fill="#009B83"/>
</svg>
