<svg width="51" height="51" viewBox="0 0 51 51" fill="none" xmlns="http://www.w3.org/2000/svg">
<g clip-path="url(#clip0_461:2569)">
<path d="M25.3388 50.8944C39.0978 50.8944 50.2929 39.6994 50.2929 25.9404C50.2929 12.1813 39.0978 0.986328 25.3388 0.986328C11.5798 0.986328 0.384766 12.1813 0.384766 25.9404C0.384766 39.6994 11.5798 50.8944 25.3388 50.8944ZM25.3388 2.54596C38.2385 2.54596 48.7332 13.0407 48.7332 25.9404C48.7332 38.8401 38.2385 49.3348 25.3388 49.3348C12.4391 49.3348 1.94439 38.8401 1.94439 25.9404C1.94439 13.0407 12.4391 2.54596 25.3388 2.54596Z" fill="#009B83"/>
<path d="M17.1255 22.2689C17.9163 22.5262 18.7382 22.4077 19.5133 21.9227C19.8767 21.695 19.989 21.213 19.7597 20.8481C19.532 20.4847 19.0517 20.3724 18.6852 20.6017C18.3093 20.8356 17.9474 20.8949 17.6121 20.7873C17.255 20.6703 16.9181 20.3693 16.6358 19.917C16.3831 19.5146 16.302 19.0374 16.4081 18.5741C16.5157 18.1094 16.7964 17.7163 17.2004 17.4637C18.1642 16.8554 19.4182 17.2032 20.2307 17.813C21.6048 18.8408 22.2193 20.6282 22.2193 23.6008C22.2193 27.9896 20.2229 33.4468 16.4065 35.3822C16.0229 35.5772 15.8685 36.0466 16.0634 36.4319C16.2038 36.7017 16.4767 36.8577 16.7606 36.8577C16.8791 36.8577 16.9992 36.8296 17.1146 36.7734C21.6921 34.4511 23.7789 28.3156 23.7789 23.6008C23.7789 20.1353 22.9492 17.9004 21.1665 16.5638C19.6818 15.4455 17.7541 15.2786 16.3738 16.1411C15.6174 16.6137 15.0902 17.353 14.8906 18.2232C14.6894 19.0935 14.8407 19.9887 15.3132 20.7436C15.792 21.5078 16.4175 22.035 17.1255 22.2689Z" fill="#009B83"/>
<path d="M29.6026 22.2689C30.3917 22.5262 31.2152 22.4077 31.9904 21.9227C32.3538 21.695 32.4661 21.213 32.2368 20.8481C32.0091 20.4847 31.5287 20.3724 31.1622 20.6017C30.7879 20.8356 30.4245 20.8949 30.0892 20.7873C29.732 20.6703 29.3951 20.3693 29.1129 19.917C28.8602 19.5146 28.7791 19.0374 28.8851 18.5741C28.9928 18.1094 29.2735 17.7163 29.6774 17.4637C30.6428 16.8554 31.8968 17.2032 32.7078 17.813C34.0818 18.8408 34.6963 20.6282 34.6963 23.6008C34.6963 27.9896 32.7 33.4468 28.8836 35.3822C28.4999 35.5772 28.3455 36.0466 28.5405 36.4319C28.6808 36.7017 28.9538 36.8577 29.2376 36.8577C29.3562 36.8577 29.4762 36.8296 29.5917 36.7734C34.1692 34.4511 36.256 28.3156 36.256 23.6008C36.256 20.1353 35.4262 17.9004 33.6436 16.5638C32.1588 15.4455 30.2311 15.2786 28.8508 16.1411C28.0944 16.6137 27.5673 17.353 27.3676 18.2232C27.1664 19.0935 27.3177 19.9887 27.7903 20.7436C28.2691 21.5078 28.8945 22.035 29.6026 22.2689Z" fill="#009B83"/>
</g>
<defs>
<clipPath id="clip0_461:2569">
<rect width="49.9081" height="49.9081" fill="white" transform="translate(0.384766 0.986328)"/>
</clipPath>
</defs>
</svg>
