<svg width="44" height="44" viewBox="0 0 44 44" fill="none" xmlns="http://www.w3.org/2000/svg">
<g clip-path="url(#clip0_461_4160)">
<path d="M21.6104 43.4444C33.4126 43.4444 43.0155 33.8416 43.0155 22.0394C43.0155 10.2371 33.4126 0.634277 21.6104 0.634277C9.80818 0.634277 0.205322 10.2371 0.205322 22.0394C0.205322 33.8416 9.80818 43.4444 21.6104 43.4444ZM21.6104 1.97209C32.6755 1.97209 41.6777 10.9743 41.6777 22.0394C41.6777 33.1044 32.6755 42.1066 21.6104 42.1066C10.5453 42.1066 1.54314 33.1044 1.54314 22.0394C1.54314 10.9743 10.5453 1.97209 21.6104 1.97209Z" fill="#009B83"/>
<path d="M14.5658 18.8903C15.2441 19.111 15.9491 19.0094 16.614 18.5933C16.9257 18.398 17.0221 17.9846 16.8254 17.6715C16.6301 17.3598 16.218 17.2635 15.9036 17.4602C15.5812 17.6608 15.2709 17.7117 14.9832 17.6194C14.6769 17.519 14.3879 17.2608 14.1458 16.8729C13.929 16.5277 13.8595 16.1183 13.9504 15.721C14.0427 15.3223 14.2835 14.9852 14.63 14.7685C15.4568 14.2467 16.5324 14.5451 17.2294 15.0681C18.408 15.9498 18.9351 17.4829 18.9351 20.0328C18.9351 23.7974 17.2227 28.4784 13.9491 30.1387C13.62 30.3059 13.4875 30.7086 13.6548 31.039C13.7752 31.2704 14.0093 31.4042 14.2528 31.4042C14.3544 31.4042 14.4575 31.3801 14.5565 31.332C18.483 29.34 20.273 24.077 20.273 20.0328C20.273 17.0602 19.5612 15.1431 18.0321 13.9966C16.7585 13.0373 15.105 12.8942 13.921 13.634C13.2722 14.0394 12.82 14.6735 12.6487 15.42C12.4762 16.1665 12.6059 16.9344 13.0113 17.5819C13.422 18.2374 13.9585 18.6896 14.5658 18.8903Z" fill="#009B83"/>
<path d="M25.2687 18.8903C25.9456 19.111 26.652 19.0094 27.3169 18.5933C27.6286 18.398 27.7249 17.9846 27.5283 17.6715C27.333 17.3598 26.9209 17.2635 26.6065 17.4602C26.2854 17.6608 25.9737 17.7117 25.6861 17.6194C25.3797 17.519 25.0908 17.2608 24.8486 16.8729C24.6319 16.5277 24.5623 16.1183 24.6533 15.721C24.7456 15.3223 24.9864 14.9852 25.3329 14.7685C26.161 14.2467 27.2366 14.5451 27.9323 15.0681C29.1109 15.9498 29.638 17.4829 29.638 20.0328C29.638 23.7974 27.9256 28.4784 24.652 30.1387C24.3229 30.3059 24.1904 30.7086 24.3577 31.039C24.4781 31.2704 24.7122 31.4042 24.9557 31.4042C25.0573 31.4042 25.1603 31.3801 25.2593 31.332C29.1858 29.34 30.9758 24.077 30.9758 20.0328C30.9758 17.0602 30.2641 15.1431 28.735 13.9966C27.4614 13.0373 25.8078 12.8942 24.6239 13.634C23.975 14.0394 23.5229 14.6735 23.3516 15.42C23.179 16.1665 23.3088 16.9344 23.7142 17.5819C24.1249 18.2374 24.6613 18.6896 25.2687 18.8903Z" fill="#009B83"/>
</g>
<defs>
<clipPath id="clip0_461_4160">
<rect width="42.8102" height="42.8102" fill="white" transform="translate(0.205322 0.634277)"/>
</clipPath>
</defs>
</svg>
