<svg width="51" height="51" viewBox="0 0 51 51" fill="none" xmlns="http://www.w3.org/2000/svg">
<g clip-path="url(#clip0_461_2569)">
<path d="M25.3389 50.8944C39.098 50.8944 50.293 39.6994 50.293 25.9404C50.293 12.1813 39.098 0.986328 25.3389 0.986328C11.5799 0.986328 0.384888 12.1813 0.384888 25.9404C0.384888 39.6994 11.5799 50.8944 25.3389 50.8944ZM25.3389 2.54596C38.2386 2.54596 48.7333 13.0407 48.7333 25.9404C48.7333 38.8401 38.2386 49.3348 25.3389 49.3348C12.4392 49.3348 1.94452 38.8401 1.94452 25.9404C1.94452 13.0407 12.4392 2.54596 25.3389 2.54596Z" fill="#009B83"/>
<path d="M17.1256 22.2689C17.9164 22.5262 18.7383 22.4077 19.5134 21.9227C19.8768 21.695 19.9891 21.213 19.7599 20.8481C19.5322 20.4847 19.0518 20.3724 18.6853 20.6017C18.3094 20.8356 17.9476 20.8949 17.6123 20.7873C17.2551 20.6703 16.9182 20.3693 16.6359 19.917C16.3833 19.5146 16.3022 19.0374 16.4082 18.5741C16.5158 18.1094 16.7966 17.7163 17.2005 17.4637C18.1644 16.8554 19.4183 17.2032 20.2309 17.813C21.6049 18.8408 22.2194 20.6282 22.2194 23.6008C22.2194 27.9896 20.2231 33.4468 16.4067 35.3822C16.023 35.5772 15.8686 36.0466 16.0635 36.4319C16.2039 36.7017 16.4768 36.8577 16.7607 36.8577C16.8792 36.8577 16.9993 36.8296 17.1147 36.7734C21.6922 34.4511 23.779 28.3156 23.779 23.6008C23.779 20.1353 22.9493 17.9004 21.1666 16.5638C19.6819 15.4455 17.7542 15.2786 16.3739 16.1411C15.6175 16.6137 15.0903 17.353 14.8907 18.2232C14.6895 19.0935 14.8408 19.9887 15.3134 20.7436C15.7922 21.5078 16.4176 22.035 17.1256 22.2689Z" fill="#009B83"/>
<path d="M29.6027 22.2689C30.3919 22.5262 31.2154 22.4077 31.9905 21.9227C32.3539 21.695 32.4662 21.213 32.2369 20.8481C32.0092 20.4847 31.5288 20.3724 31.1623 20.6017C30.788 20.8356 30.4246 20.8949 30.0893 20.7873C29.7321 20.6703 29.3953 20.3693 29.113 19.917C28.8603 19.5146 28.7792 19.0374 28.8853 18.5741C28.9929 18.1094 29.2736 17.7163 29.6776 17.4637C30.643 16.8554 31.8969 17.2032 32.7079 17.813C34.082 18.8408 34.6964 20.6282 34.6964 23.6008C34.6964 27.9896 32.7001 33.4468 28.8837 35.3822C28.5 35.5772 28.3456 36.0466 28.5406 36.4319C28.681 36.7017 28.9539 36.8577 29.2377 36.8577C29.3563 36.8577 29.4764 36.8296 29.5918 36.7734C34.1693 34.4511 36.2561 28.3156 36.2561 23.6008C36.2561 20.1353 35.4264 17.9004 33.6437 16.5638C32.1589 15.4455 30.2312 15.2786 28.851 16.1411C28.0945 16.6137 27.5674 17.353 27.3678 18.2232C27.1666 19.0935 27.3178 19.9887 27.7904 20.7436C28.2692 21.5078 28.8946 22.035 29.6027 22.2689Z" fill="#009B83"/>
</g>
<defs>
<clipPath id="clip0_461_2569">
<rect width="49.9081" height="49.9081" fill="white" transform="translate(0.384888 0.986328)"/>
</clipPath>
</defs>
</svg>
