<svg width="16" height="15" viewBox="0 0 16 15" fill="none" xmlns="http://www.w3.org/2000/svg">
<path d="M15.2211 14.0543L10.035 8.86826C11.8566 6.64045 11.5272 3.35782 9.29941 1.53627C7.07163 -0.285284 3.78897 0.0440705 1.96742 2.27185C0.145869 4.49963 0.475223 7.78229 2.703 9.60385C4.62192 11.1728 7.3805 11.1728 9.29941 9.60385L14.4855 14.7899C14.6922 14.9895 15.0215 14.9838 15.2211 14.7771C15.4158 14.5755 15.4158 14.2559 15.2211 14.0543ZM6.00953 9.74013C3.71213 9.73754 1.85034 7.87578 1.84778 5.57838C1.84778 3.27991 3.71106 1.41663 6.00953 1.41663C8.308 1.41663 10.1713 3.27991 10.1713 5.57838C10.1713 7.87685 8.308 9.74013 6.00953 9.74013Z" fill="black"/>
</svg>
