<svg width="188" height="66" viewBox="0 0 188 66" fill="none" xmlns="http://www.w3.org/2000/svg">
<path fill-rule="evenodd" clip-rule="evenodd" d="M167.499 51.9971C178.82 51.9971 187.999 42.8189 187.999 31.4971C187.999 20.1752 178.82 10.9971 167.499 10.9971C156.177 10.9971 146.999 20.1752 146.999 31.4971C146.999 42.8189 156.177 51.9971 167.499 51.9971Z" fill="#141414"/>
<path d="M174.999 26.5361C174.404 26.7971 173.77 26.9701 173.109 27.0541C173.789 26.6481 174.308 26.0101 174.552 25.2411C173.918 25.6191 173.218 25.8861 172.472 26.0351C171.87 25.3941 171.012 24.9971 170.076 24.9971C168.26 24.9971 166.798 26.4711 166.798 28.2781C166.798 28.5381 166.82 28.7881 166.874 29.0261C164.147 28.8931 161.734 27.5861 160.113 25.5951C159.83 26.0861 159.664 26.6481 159.664 27.2531C159.664 28.3891 160.249 29.3961 161.121 29.9791C160.594 29.9691 160.077 29.8161 159.639 29.5751C159.639 29.5851 159.639 29.5981 159.639 29.6111C159.639 31.2051 160.776 32.5291 162.267 32.8341C162 32.9071 161.709 32.9421 161.407 32.9421C161.197 32.9421 160.985 32.9301 160.786 32.8861C161.211 34.1851 162.417 35.1401 163.851 35.1711C162.735 36.0441 161.318 36.5701 159.784 36.5701C159.515 36.5701 159.257 36.5581 158.999 36.5251C160.452 37.4621 162.174 37.9971 164.031 37.9971C170.067 37.9971 173.367 32.9971 173.367 28.6631C173.367 28.5181 173.362 28.3781 173.355 28.2391C174.006 27.7771 174.553 27.2001 174.999 26.5361Z" fill="#F1F1F1"/>
<g filter="url(#filter0_d_310:625)">
<path fill-rule="evenodd" clip-rule="evenodd" d="M31.4987 49.9971C42.8205 49.9971 51.9987 40.8189 51.9987 29.4971C51.9987 18.1752 42.8205 8.99707 31.4987 8.99707C20.1768 8.99707 10.9987 18.1752 10.9987 29.4971C10.9987 40.8189 20.1768 49.9971 31.4987 49.9971Z" fill="white"/>
</g>
<path fill-rule="evenodd" clip-rule="evenodd" d="M34.107 27.2415C33.787 27.1403 33.4189 27.0728 33.0828 27.0728C32.6667 27.0728 31.7706 27.3597 31.7706 27.9166V29.2497H33.899V31.4942H31.7706V37.6875H29.6262V31.4942H28.5699V29.2497H29.6262V28.1191C29.6262 26.4146 30.3623 24.9971 32.1386 24.9971C32.7468 24.9971 33.835 25.0308 34.4271 25.2502L34.107 27.2415Z" fill="#080809"/>
<g filter="url(#filter1_d_310:625)">
<path fill-rule="evenodd" clip-rule="evenodd" d="M99.4987 53.9971C111.925 53.9971 121.999 43.9235 121.999 31.4971C121.999 19.0707 111.925 8.99707 99.4987 8.99707C87.0723 8.99707 76.9987 19.0707 76.9987 31.4971C76.9987 43.9235 87.0723 53.9971 99.4987 53.9971Z" fill="#141414"/>
</g>
<g clip-path="url(#clip0_310:625)">
<path d="M105.655 22.9971H94.3424C93.0502 22.9971 91.9987 24.0486 91.9987 25.3408V36.6533C91.9987 37.9458 93.0502 38.9971 94.3424 38.9971H105.655C106.947 38.9971 107.999 37.9458 107.999 36.6533V25.3408C107.999 24.0486 106.947 22.9971 105.655 22.9971ZM107.061 36.6533C107.061 37.4286 106.43 38.0596 105.655 38.0596H94.3424C93.5671 38.0596 92.9362 37.4286 92.9362 36.6533V25.3408C92.9362 24.5655 93.5671 23.9346 94.3424 23.9346H105.655C106.43 23.9346 107.061 24.5655 107.061 25.3408V36.6533Z" fill="white"/>
<path d="M105.155 24.9033C104.638 24.9033 104.217 25.3239 104.217 25.8408C104.217 26.3577 104.638 26.7783 105.155 26.7783C105.672 26.7783 106.092 26.3577 106.092 25.8408C106.092 25.3239 105.672 24.9033 105.155 24.9033Z" fill="white"/>
<path d="M99.9987 26.7783C97.6724 26.7783 95.7799 28.6708 95.7799 30.9971C95.7799 33.3233 97.6724 35.2158 99.9987 35.2158C102.325 35.2158 104.217 33.3233 104.217 30.9971C104.217 28.6708 102.325 26.7783 99.9987 26.7783ZM99.9987 34.2783C98.1893 34.2783 96.7174 32.8064 96.7174 30.9971C96.7174 29.1877 98.1893 27.7158 99.9987 27.7158C101.808 27.7158 103.28 29.1877 103.28 30.9971C103.28 32.8064 101.808 34.2783 99.9987 34.2783Z" fill="white"/>
</g>
<defs>
<filter id="filter0_d_310:625" x="0.998657" y="0.99707" width="61" height="61" filterUnits="userSpaceOnUse" color-interpolation-filters="sRGB">
<feFlood flood-opacity="0" result="BackgroundImageFix"/>
<feColorMatrix in="SourceAlpha" type="matrix" values="0 0 0 0 0 0 0 0 0 0 0 0 0 0 0 0 0 0 127 0" result="hardAlpha"/>
<feOffset dy="2"/>
<feGaussianBlur stdDeviation="5"/>
<feColorMatrix type="matrix" values="0 0 0 0 0 0 0 0 0 0 0 0 0 0 0 0 0 0 0.1 0"/>
<feBlend mode="normal" in2="BackgroundImageFix" result="effect1_dropShadow_310:625"/>
<feBlend mode="normal" in="SourceGraphic" in2="effect1_dropShadow_310:625" result="shape"/>
</filter>
<filter id="filter1_d_310:625" x="66.9987" y="0.99707" width="65" height="65" filterUnits="userSpaceOnUse" color-interpolation-filters="sRGB">
<feFlood flood-opacity="0" result="BackgroundImageFix"/>
<feColorMatrix in="SourceAlpha" type="matrix" values="0 0 0 0 0 0 0 0 0 0 0 0 0 0 0 0 0 0 127 0" result="hardAlpha"/>
<feOffset dy="2"/>
<feGaussianBlur stdDeviation="5"/>
<feColorMatrix type="matrix" values="0 0 0 0 0 0 0 0 0 0 0 0 0 0 0 0 0 0 0.1 0"/>
<feBlend mode="normal" in2="BackgroundImageFix" result="effect1_dropShadow_310:625"/>
<feBlend mode="normal" in="SourceGraphic" in2="effect1_dropShadow_310:625" result="shape"/>
</filter>
<clipPath id="clip0_310:625">
<rect width="16" height="16" fill="white" transform="translate(91.9987 22.9971)"/>
</clipPath>
</defs>
</svg>
