<svg width="163" height="51" viewBox="0 0 163 51" fill="none" xmlns="http://www.w3.org/2000/svg">
<path fill-rule="evenodd" clip-rule="evenodd" d="M146.619 41.9202C155.312 41.9202 162.359 34.8734 162.359 26.1806C162.359 17.4878 155.312 10.4409 146.619 10.4409C137.926 10.4409 130.879 17.4878 130.879 26.1806C130.879 34.8734 137.926 41.9202 146.619 41.9202Z" fill="#141414"/>
<path d="M145.999 20.6299C145.553 20.8303 145.077 20.9631 144.582 21.0276C145.092 20.7159 145.481 20.226 145.664 19.6356C145.188 19.9258 144.663 20.1308 144.104 20.2452C143.653 19.7531 143.009 19.4482 142.307 19.4482C140.945 19.4482 139.849 20.58 139.849 21.9674C139.849 22.167 139.866 22.359 139.906 22.5417C137.861 22.4396 136.051 21.4361 134.836 19.9074C134.624 20.2844 134.499 20.7159 134.499 21.1804C134.499 22.0526 134.938 22.8258 135.592 23.2734C135.197 23.2658 134.809 23.1483 134.48 22.9632C134.48 22.9709 134.48 22.9809 134.48 22.9909C134.48 24.2148 135.333 25.2313 136.451 25.4655C136.251 25.5216 136.033 25.5484 135.806 25.5484C135.649 25.5484 135.49 25.5392 135.341 25.5054C135.659 26.5028 136.564 27.2361 137.639 27.2599C136.802 27.9302 135.74 28.334 134.589 28.334C134.387 28.334 134.194 28.3248 134 28.2995C135.09 29.0189 136.381 29.4297 137.774 29.4297C142.3 29.4297 144.775 25.5907 144.775 22.263C144.775 22.1517 144.771 22.0442 144.766 21.9375C145.254 21.5827 145.665 21.1397 145.999 20.6299Z" fill="#F1F1F1"/>
<g filter="url(#filter0_d_395:106)">
<path fill-rule="evenodd" clip-rule="evenodd" d="M23.9338 38.4969C32.6265 38.4969 39.6734 31.45 39.6734 22.7572C39.6734 14.0645 32.6265 7.01758 23.9338 7.01758C15.241 7.01758 8.19409 14.0645 8.19409 22.7572C8.19409 31.45 15.241 38.4969 23.9338 38.4969Z" fill="white"/>
</g>
<path fill-rule="evenodd" clip-rule="evenodd" d="M25.9373 21.0255C25.6916 20.9478 25.409 20.8959 25.151 20.8959C24.8315 20.8959 24.1434 21.1162 24.1434 21.5438V22.5674H25.7776V24.2907H24.1434V29.0458H22.497V24.2907H21.686V22.5674H22.497V21.6993C22.497 20.3906 23.0622 19.3022 24.426 19.3022C24.8929 19.3022 25.7285 19.3282 26.1831 19.4966L25.9373 21.0255Z" fill="#080809"/>
<g filter="url(#filter1_d_395:106)">
<path fill-rule="evenodd" clip-rule="evenodd" d="M76.1444 41.5681C85.6852 41.5681 93.4196 33.8337 93.4196 24.2928C93.4196 14.752 85.6852 7.01758 76.1444 7.01758C66.6035 7.01758 58.8691 14.752 58.8691 24.2928C58.8691 33.8337 66.6035 41.5681 76.1444 41.5681Z" fill="#141414"/>
</g>
<g clip-path="url(#clip0_395:106)">
<path d="M80.8709 17.7666H72.1852C71.1931 17.7666 70.3857 18.574 70.3857 19.5661V28.2517C70.3857 29.2441 71.1931 30.0512 72.1852 30.0512H80.8709C81.8632 30.0512 82.6704 29.2441 82.6704 28.2517V19.5661C82.6704 18.574 81.8632 17.7666 80.8709 17.7666ZM81.9506 28.2517C81.9506 28.847 81.4661 29.3314 80.8709 29.3314H72.1852C71.59 29.3314 71.1055 28.847 71.1055 28.2517V19.5661C71.1055 18.9708 71.59 18.4864 72.1852 18.4864H80.8709C81.4661 18.4864 81.9506 18.9708 81.9506 19.5661V28.2517Z" fill="white"/>
<path d="M80.4865 19.2305C80.0899 19.2305 79.7671 19.5532 79.7671 19.9499C79.7671 20.3465 80.0899 20.6693 80.4865 20.6693C80.8831 20.6693 81.2059 20.3465 81.2059 19.9499C81.2059 19.5532 80.8831 19.2305 80.4865 19.2305Z" fill="white"/>
<path d="M76.5282 20.6699C74.7421 20.6699 73.2891 22.123 73.2891 23.909C73.2891 25.6951 74.7421 27.1481 76.5282 27.1481C78.3142 27.1481 79.7673 25.6951 79.7673 23.909C79.7673 22.123 78.3142 20.6699 76.5282 20.6699ZM76.5282 26.4283C75.139 26.4283 74.0089 25.2982 74.0089 23.909C74.0089 22.5198 75.139 21.3897 76.5282 21.3897C77.9174 21.3897 79.0475 22.5198 79.0475 23.909C79.0475 25.2982 77.9174 26.4283 76.5282 26.4283Z" fill="white"/>
</g>
<defs>
<filter id="filter0_d_395:106" x="0.516208" y="0.875271" width="46.835" height="46.835" filterUnits="userSpaceOnUse" color-interpolation-filters="sRGB">
<feFlood flood-opacity="0" result="BackgroundImageFix"/>
<feColorMatrix in="SourceAlpha" type="matrix" values="0 0 0 0 0 0 0 0 0 0 0 0 0 0 0 0 0 0 127 0" result="hardAlpha"/>
<feOffset dy="1.53558"/>
<feGaussianBlur stdDeviation="3.83894"/>
<feColorMatrix type="matrix" values="0 0 0 0 0 0 0 0 0 0 0 0 0 0 0 0 0 0 0.1 0"/>
<feBlend mode="normal" in2="BackgroundImageFix" result="effect1_dropShadow_395:106"/>
<feBlend mode="normal" in="SourceGraphic" in2="effect1_dropShadow_395:106" result="shape"/>
</filter>
<filter id="filter1_d_395:106" x="51.1913" y="0.875271" width="49.9061" height="49.9063" filterUnits="userSpaceOnUse" color-interpolation-filters="sRGB">
<feFlood flood-opacity="0" result="BackgroundImageFix"/>
<feColorMatrix in="SourceAlpha" type="matrix" values="0 0 0 0 0 0 0 0 0 0 0 0 0 0 0 0 0 0 127 0" result="hardAlpha"/>
<feOffset dy="1.53558"/>
<feGaussianBlur stdDeviation="3.83894"/>
<feColorMatrix type="matrix" values="0 0 0 0 0 0 0 0 0 0 0 0 0 0 0 0 0 0 0.1 0"/>
<feBlend mode="normal" in2="BackgroundImageFix" result="effect1_dropShadow_395:106"/>
<feBlend mode="normal" in="SourceGraphic" in2="effect1_dropShadow_395:106" result="shape"/>
</filter>
<clipPath id="clip0_395:106">
<rect width="12.2846" height="12.2846" fill="white" transform="translate(70.3857 17.7666)"/>
</clipPath>
</defs>
</svg>
