<svg width="178" height="39" viewBox="0 0 178 39" fill="none" xmlns="http://www.w3.org/2000/svg">
<g clip-path="url(#clip0_498_1073)">
<path d="M19.4999 -0.0410156C8.72496 -0.0410156 -0.0427246 8.72423 -0.0427246 19.5004C-0.0427246 30.2766 8.72496 39.0419 19.4999 39.0419C30.2749 39.0419 39.0426 30.2766 39.0426 19.5004C39.0426 8.72423 30.2749 -0.0410156 19.4999 -0.0410156ZM19.4999 37.7402C9.44281 37.7402 1.26134 29.5575 1.26134 19.5004C1.26134 9.4433 9.44281 1.26061 19.4999 1.26061C29.5571 1.26061 37.7385 9.4433 37.7385 19.5004C37.7385 29.5575 29.5571 37.7402 19.4999 37.7402Z" fill="#009BA5"/>
<path d="M23.7655 8.53215H20.5139C16.3726 8.49072 15.8436 11.0537 15.8436 13.8276V15.8447H14.0155C13.9329 15.8336 13.8488 15.8418 13.7699 15.8685C13.6909 15.8952 13.6192 15.9398 13.5602 15.9987C13.5013 16.0577 13.4567 16.1294 13.43 16.2084C13.4033 16.2873 13.3951 16.3714 13.4061 16.454V20.1103C13.3951 20.1929 13.4033 20.277 13.43 20.3559C13.4567 20.4349 13.5013 20.5066 13.5602 20.5656C13.6192 20.6245 13.6909 20.6691 13.7699 20.6958C13.8488 20.7225 13.9329 20.7307 14.0155 20.7197H15.8436V29.8603C15.8335 29.9431 15.8424 30.0271 15.8697 30.1059C15.8969 30.1847 15.9419 30.2562 16.001 30.315C16.0602 30.3738 16.132 30.4183 16.2109 30.4451C16.2899 30.4719 16.374 30.4803 16.4567 30.4697H20.18C20.5395 30.5111 20.8308 30.2198 20.7162 29.8603L20.7186 20.7197H23.7655C23.8481 20.7307 23.9322 20.7225 24.0112 20.6958C24.0901 20.6691 24.1619 20.6245 24.2208 20.5656C24.2798 20.5066 24.3243 20.4349 24.351 20.3559C24.3778 20.277 24.3859 20.1929 24.3749 20.1103V16.454C24.3859 16.3714 24.3778 16.2873 24.351 16.2084C24.3243 16.1294 24.2798 16.0577 24.2208 15.9987C24.1619 15.9398 24.0901 15.8952 24.0112 15.8685C23.9322 15.8418 23.8481 15.8336 23.7655 15.8447H20.715L20.7186 14.0165C20.8369 13.2377 20.8369 13.3645 21.5596 13.4072H23.7399C23.9093 13.3694 24.0897 13.3901 24.2165 13.267C24.3432 13.1439 24.4163 12.9757 24.3737 12.7978V9.14153C24.3849 9.05897 24.377 8.97492 24.3504 8.89595C24.3238 8.81697 24.2794 8.7452 24.2205 8.68622C24.1617 8.62724 24.09 8.58265 24.0111 8.55593C23.9321 8.52921 23.8481 8.52107 23.7655 8.53215V8.53215ZM23.1135 12.1202L21.5852 12.0617C19.6925 12.0617 19.534 13.0891 19.534 14.1408L19.5291 16.4516C19.529 16.5372 19.5457 16.6219 19.5783 16.701C19.611 16.7801 19.6589 16.852 19.7193 16.9126C19.7798 16.9731 19.8516 17.0212 19.9306 17.054C20.0097 17.0867 20.0944 17.1036 20.18 17.1036H23.1561V19.4582H20.1824C20.0097 19.4582 19.844 19.5268 19.7218 19.6488C19.5995 19.7708 19.5307 19.9363 19.5304 20.1091L19.5291 29.2509H17.0624V20.1103C17.0624 19.7507 16.8174 19.4595 16.4567 19.4595H14.6249V17.1048H16.4567C16.5422 17.105 16.6269 17.0882 16.7059 17.0556C16.785 17.023 16.8568 16.9751 16.9174 16.9147C17.0392 16.7916 17.0612 16.6259 17.0612 16.4528V13.8264C17.0612 11.094 17.6133 9.79234 20.5127 9.79234H23.1123V12.1202H23.1135Z" fill="#009BA5"/>
</g>
<g clip-path="url(#clip1_498_1073)">
<path d="M88.9687 -0.0410156C78.1937 -0.0410156 69.426 8.72423 69.426 19.5004C69.426 30.2766 78.1937 39.0419 88.9687 39.0419C99.7437 39.0419 108.511 30.2766 108.511 19.5004C108.511 8.72423 99.7437 -0.0410156 88.9687 -0.0410156ZM88.9687 37.7402C78.9116 37.7402 70.7301 29.5575 70.7301 19.5004C70.7301 9.4433 78.9116 1.26061 88.9687 1.26061C99.0258 1.26061 107.207 9.4433 107.207 19.5004C107.207 29.5575 99.0258 37.7402 88.9687 37.7402Z" fill="black"/>
<path d="M99.6865 13.4627C99.8216 13.2125 99.933 12.9501 100.019 12.6791C100.059 12.5533 100.06 12.4185 100.021 12.2923C99.9831 12.1661 99.9074 12.0545 99.8043 11.9722C99.7012 11.89 99.5755 11.8409 99.444 11.8316C99.3124 11.8222 99.1811 11.853 99.0673 11.9198C98.4428 12.2908 97.7668 12.5672 97.0613 12.74C96.2048 11.9671 95.0925 11.5385 93.9388 11.5371C93.3121 11.5376 92.6918 11.6646 92.1153 11.9106C91.5388 12.1566 91.0179 12.5164 90.5839 12.9686C90.1498 13.4208 89.8115 13.9559 89.5893 14.542C89.367 15.128 89.2654 15.7529 89.2905 16.3792C86.5496 16.0341 84.0467 14.6472 82.301 12.506C82.2341 12.4249 82.1486 12.3611 82.0518 12.3201C81.955 12.2791 81.8498 12.262 81.745 12.2704C81.6402 12.2788 81.5389 12.3123 81.4499 12.3682C81.3608 12.4241 81.2865 12.5006 81.2334 12.5913C80.8337 13.2774 80.6164 14.0544 80.6023 14.8483C80.5882 15.6422 80.7778 16.4265 81.1529 17.1263C81.0609 17.1418 80.9725 17.174 80.8921 17.2214C80.7936 17.2842 80.7125 17.3708 80.6562 17.4733C80.6 17.5757 80.5705 17.6907 80.5704 17.8076C80.5704 19.1909 81.1858 20.4608 82.1779 21.3237L82.1353 21.3663C82.0604 21.4511 82.0088 21.5538 81.9857 21.6645C81.9627 21.7752 81.9688 21.89 82.0036 21.9976C82.2105 22.643 82.5559 23.2354 83.0157 23.7332C83.4755 24.2311 84.0385 24.6225 84.6654 24.88C83.3779 25.5081 81.937 25.753 80.5143 25.5856C80.3681 25.5707 80.221 25.6048 80.0962 25.6824C79.9714 25.76 79.8758 25.8769 79.8245 26.0146C79.7752 26.1534 79.7743 26.3048 79.8219 26.4442C79.8694 26.5835 79.9627 26.7027 80.0865 26.7825C82.0207 28.0238 84.2708 28.6833 86.5691 28.6825C94.1009 28.6825 98.603 22.5644 98.603 16.6498L98.6018 16.4499C99.3317 15.88 99.9658 15.197 100.48 14.4268C100.558 14.3103 100.596 14.1719 100.589 14.032C100.582 13.8921 100.53 13.7582 100.441 13.65C100.352 13.5419 100.231 13.4653 100.095 13.4315C99.9589 13.3978 99.8157 13.4087 99.6865 13.4627V13.4627ZM97.5598 15.6016C97.4713 15.6652 97.4002 15.75 97.3529 15.8481C97.3057 15.9463 97.2838 16.0547 97.2892 16.1635C97.2965 16.3244 97.3002 16.4877 97.3002 16.6485C97.3002 21.9233 93.2868 27.3796 86.5703 27.3796C85.3724 27.3802 84.1829 27.1791 83.0518 26.7849C84.4065 26.5253 85.6792 25.9443 86.7628 25.0908C86.8683 25.0077 86.9456 24.8939 86.984 24.7652C87.0224 24.6365 87.0201 24.499 86.9774 24.3716C86.9347 24.2443 86.8537 24.1332 86.7455 24.0536C86.6373 23.974 86.5071 23.9297 86.3728 23.9269C85.8474 23.9169 85.3316 23.7835 84.8671 23.5375C84.4026 23.2915 84.0025 22.9398 83.6989 22.5107C84.0073 22.49 84.3095 22.4388 84.6032 22.3596C84.7454 22.3216 84.8704 22.2365 84.958 22.1182C85.0456 21.9999 85.0905 21.8555 85.0854 21.7084C85.0803 21.5613 85.0255 21.4203 84.93 21.3084C84.8344 21.1965 84.7038 21.1202 84.5593 21.0921C83.9658 20.9714 83.4163 20.6916 82.9696 20.2826C82.5228 19.8737 82.1957 19.3509 82.0231 18.7704C82.3473 18.852 82.68 18.8996 83.0128 18.9105C83.2992 18.9093 83.5648 18.7338 83.6538 18.4584C83.7428 18.183 83.638 17.8795 83.3954 17.7186C82.822 17.3365 82.3804 16.7868 82.1311 16.1444C81.8818 15.502 81.8368 14.7983 82.0024 14.1294C84.1194 16.3016 86.978 17.5951 90.0072 17.7515C90.2217 17.7527 90.4093 17.676 90.5397 17.5187C90.6702 17.3615 90.7201 17.1531 90.6738 16.9532C90.5071 16.2354 90.5817 15.4826 90.8859 14.8114C91.1902 14.1402 91.7072 13.588 92.3569 13.2402C93.0067 12.8925 93.7529 12.7686 94.4801 12.8877C95.2074 13.0067 95.8751 13.3622 96.38 13.899C96.4557 13.9798 96.5506 14.0399 96.656 14.0738C96.7613 14.1077 96.8735 14.1143 96.9821 14.0928C97.1832 14.0526 97.3818 14.0063 97.578 13.9527C97.4896 14.0189 97.3976 14.0803 97.3026 14.1367C97.1762 14.2141 97.08 14.3323 97.0297 14.4717C96.9795 14.6112 96.9783 14.7635 97.0262 14.9038C97.0742 15.044 97.1685 15.1637 97.2937 15.2431C97.4188 15.3226 97.5672 15.357 97.7145 15.3408L97.9363 15.3128C97.8142 15.4134 97.6886 15.5098 97.5598 15.6016V15.6016Z" fill="black"/>
</g>
<g clip-path="url(#clip2_498_1073)">
<path d="M162.721 14.5664C161.895 14.5664 161.283 14.7748 160.804 15.0381C160.728 14.7651 160.475 14.5652 160.178 14.6249H156.541C156.182 14.5652 155.89 14.8565 156.001 15.2343V28.6405C155.89 28.9818 156.182 29.2743 156.541 29.2499H160.178C160.537 29.2743 160.829 28.9818 160.829 28.6223L160.827 20.52C160.826 20.5163 160.813 20.1288 161.058 19.8619C161.254 19.6498 161.592 19.5413 162.058 19.5413C162.836 19.5413 163.182 19.8594 163.311 20.5712V28.6223C163.183 28.9818 163.475 29.2743 163.834 29.2499H167.667C168.027 29.2743 168.318 28.9818 168.189 28.6223V20.3006C168.317 16.0691 165.303 14.5664 162.721 14.5664V14.5664ZM167.015 28.0312H164.485V20.5712C164.485 19.1318 163.555 18.2397 162.06 18.2397C161.214 18.2397 160.556 18.4883 160.102 18.9783C159.472 19.6608 159.521 20.5261 159.656 20.7187V28.0312H157.192V15.868H159.527V16.2775C159.526 16.3995 159.56 16.5193 159.624 16.6231C159.688 16.7269 159.78 16.8106 159.889 16.8644C159.999 16.9182 160.121 16.9401 160.242 16.9275C160.364 16.9149 160.479 16.8683 160.575 16.7931L160.746 16.6614C161.239 16.2727 161.75 15.8693 162.723 15.8693C163.729 15.8693 167.016 16.1898 167.016 20.3018V28.0312H167.015Z" fill="black"/>
<path d="M152.344 8.49023C150.976 8.49023 149.865 9.60173 149.865 10.9692C149.865 12.3366 150.976 13.4481 152.344 13.4481C153.711 13.4481 154.823 12.3366 154.823 10.9692C154.823 9.60173 153.711 8.49023 152.344 8.49023ZM152.344 12.1465C151.695 12.1465 151.166 11.6175 151.166 10.9692C151.166 10.3208 151.695 9.79186 152.344 9.79186C152.992 9.79186 153.521 10.3208 153.521 10.9692C153.521 11.6175 152.992 12.1465 152.344 12.1465Z" fill="black"/>
<path d="M154.084 14.5654H150.467C150.107 14.5654 149.816 14.8567 149.906 15.2345V28.6408C149.816 28.982 150.107 29.2745 150.467 29.2501H154.084C154.444 29.2745 154.735 28.982 154.735 28.6225V15.2162C154.735 15.0436 154.666 14.8781 154.544 14.756C154.422 14.634 154.257 14.5654 154.084 14.5654ZM153.562 28.0314H151.118V15.8683H153.562V28.0314Z" fill="black"/>
<path d="M158.437 -0.0410156C147.661 -0.0410156 138.896 8.72423 138.896 19.5004C138.896 30.2766 147.661 39.0419 158.437 39.0419C169.214 39.0419 177.979 30.2766 177.979 19.5004C177.979 8.72423 169.214 -0.0410156 158.437 -0.0410156ZM158.437 37.7402C148.38 37.7402 140.198 29.5575 140.198 19.5004C140.198 9.4433 148.38 1.26061 158.437 1.26061C168.495 1.26061 176.677 9.4433 176.677 19.5004C176.677 29.5575 168.495 37.7402 158.437 37.7402Z" fill="black"/>
</g>
<defs>
<clipPath id="clip0_498_1073">
<rect width="39" height="39" fill="white"/>
</clipPath>
<clipPath id="clip1_498_1073">
<rect width="39" height="39" fill="white" transform="translate(69.4688)"/>
</clipPath>
<clipPath id="clip2_498_1073">
<rect width="39" height="39" fill="white" transform="translate(138.938)"/>
</clipPath>
</defs>
</svg>
