<svg width="189" height="59" viewBox="0 0 189 59" fill="none" xmlns="http://www.w3.org/2000/svg">
<path fill-rule="evenodd" clip-rule="evenodd" d="M170.598 47.8202C180.71 47.8202 188.907 39.6233 188.907 29.5119C188.907 19.4005 180.71 11.2036 170.598 11.2036C160.487 11.2036 152.29 19.4005 152.29 29.5119C152.29 39.6233 160.487 47.8202 170.598 47.8202Z" fill="#141414"/>
<path d="M158.013 23.0556C157.499 23.2887 156.951 23.4432 156.379 23.5183C156.967 23.1557 157.416 22.5859 157.627 21.8991C157.079 22.2367 156.473 22.4751 155.828 22.6082C155.308 22.0357 154.566 21.6812 153.757 21.6812C152.187 21.6812 150.923 22.9976 150.923 24.6114C150.923 24.8436 150.942 25.0669 150.989 25.2795C148.632 25.1607 146.546 23.9934 145.144 22.2152C144.9 22.6537 144.756 23.1557 144.756 23.696C144.756 24.7106 145.262 25.6099 146.016 26.1306C145.56 26.1217 145.113 25.985 144.734 25.7698C144.734 25.7787 144.734 25.7903 144.734 25.8019C144.734 27.2255 145.717 28.408 147.006 28.6804C146.775 28.7456 146.524 28.7769 146.263 28.7769C146.081 28.7769 145.898 28.7661 145.726 28.7268C146.093 29.887 147.136 30.7399 148.376 30.7676C147.411 31.5473 146.186 32.017 144.86 32.017C144.627 32.017 144.404 32.0063 144.181 31.9769C145.437 32.8137 146.926 33.2915 148.531 33.2915C153.749 33.2915 156.602 28.826 156.602 24.9553C156.602 24.8258 156.598 24.7007 156.592 24.5766C157.155 24.164 157.627 23.6487 158.013 23.0556Z" fill="#F1F1F1"/>
<g filter="url(#filter0_d_324:56)">
<path fill-rule="evenodd" clip-rule="evenodd" d="M27.891 43.8382C38.0024 43.8382 46.1993 35.6414 46.1993 25.53C46.1993 15.4186 38.0024 7.22168 27.891 7.22168C17.7797 7.22168 9.58276 15.4186 9.58276 25.53C9.58276 35.6414 17.7797 43.8382 27.891 43.8382Z" fill="white"/>
</g>
<path fill-rule="evenodd" clip-rule="evenodd" d="M30.2215 23.5157C29.9356 23.4253 29.6069 23.365 29.3068 23.365C28.9352 23.365 28.1348 23.6212 28.1348 24.1186V25.3092H30.0357V27.3137H28.1348V32.8449H26.2197V27.3137H25.2764V25.3092H26.2197V24.2994C26.2197 22.7772 26.8771 21.5112 28.4635 21.5112C29.0066 21.5112 29.9785 21.5414 30.5073 21.7373L30.2215 23.5157Z" fill="#080809"/>
<g filter="url(#filter1_d_324:56)">
<path fill-rule="evenodd" clip-rule="evenodd" d="M88.622 47.4106C99.7199 47.4106 108.717 38.414 108.717 27.3161C108.717 16.2183 99.7199 7.22168 88.622 7.22168C77.5242 7.22168 68.5276 16.2183 68.5276 27.3161C68.5276 38.414 77.5242 47.4106 88.622 47.4106Z" fill="#141414"/>
</g>
<g clip-path="url(#clip0_324:56)">
<path d="M94.1196 19.7249H84.0165C82.8625 19.7249 81.9233 20.664 81.9233 21.818V31.9211C81.9233 33.0754 82.8625 34.0142 84.0165 34.0142H94.1196C95.2739 34.0142 96.2127 33.0754 96.2127 31.9211V21.818C96.2127 20.664 95.2739 19.7249 94.1196 19.7249ZM95.3755 31.9211C95.3755 32.6135 94.812 33.177 94.1196 33.177H84.0165C83.3241 33.177 82.7606 32.6135 82.7606 31.9211V21.818C82.7606 21.1256 83.3241 20.5621 84.0165 20.5621H94.1196C94.812 20.5621 95.3755 21.1256 95.3755 21.818V31.9211Z" fill="white"/>
<path d="M93.6725 21.4277C93.2111 21.4277 92.8357 21.8032 92.8357 22.2645C92.8357 22.7259 93.2111 23.1014 93.6725 23.1014C94.1339 23.1014 94.5093 22.7259 94.5093 22.2645C94.5093 21.8032 94.1339 21.4277 93.6725 21.4277Z" fill="white"/>
<path d="M89.0682 23.1021C86.9907 23.1021 85.3005 24.7922 85.3005 26.8698C85.3005 28.9473 86.9907 30.6375 89.0682 30.6375C91.1458 30.6375 92.836 28.9473 92.836 26.8698C92.836 24.7922 91.1458 23.1021 89.0682 23.1021ZM89.0682 29.8002C87.4523 29.8002 86.1378 28.4857 86.1378 26.8698C86.1378 25.2538 87.4523 23.9393 89.0682 23.9393C90.6842 23.9393 91.9987 25.2538 91.9987 26.8698C91.9987 28.4857 90.6842 29.8002 89.0682 29.8002Z" fill="white"/>
</g>
<defs>
<filter id="filter0_d_324:56" x="0.651892" y="0.076982" width="54.4782" height="54.4782" filterUnits="userSpaceOnUse" color-interpolation-filters="sRGB">
<feFlood flood-opacity="0" result="BackgroundImageFix"/>
<feColorMatrix in="SourceAlpha" type="matrix" values="0 0 0 0 0 0 0 0 0 0 0 0 0 0 0 0 0 0 127 0" result="hardAlpha"/>
<feOffset dy="1.78617"/>
<feGaussianBlur stdDeviation="4.46544"/>
<feColorMatrix type="matrix" values="0 0 0 0 0 0 0 0 0 0 0 0 0 0 0 0 0 0 0.1 0"/>
<feBlend mode="normal" in2="BackgroundImageFix" result="effect1_dropShadow_324:56"/>
<feBlend mode="normal" in="SourceGraphic" in2="effect1_dropShadow_324:56" result="shape"/>
</filter>
<filter id="filter1_d_324:56" x="59.5967" y="0.076982" width="58.0507" height="58.0507" filterUnits="userSpaceOnUse" color-interpolation-filters="sRGB">
<feFlood flood-opacity="0" result="BackgroundImageFix"/>
<feColorMatrix in="SourceAlpha" type="matrix" values="0 0 0 0 0 0 0 0 0 0 0 0 0 0 0 0 0 0 127 0" result="hardAlpha"/>
<feOffset dy="1.78617"/>
<feGaussianBlur stdDeviation="4.46544"/>
<feColorMatrix type="matrix" values="0 0 0 0 0 0 0 0 0 0 0 0 0 0 0 0 0 0 0.1 0"/>
<feBlend mode="normal" in2="BackgroundImageFix" result="effect1_dropShadow_324:56"/>
<feBlend mode="normal" in="SourceGraphic" in2="effect1_dropShadow_324:56" result="shape"/>
</filter>
<clipPath id="clip0_324:56">
<rect width="14.2894" height="14.2894" fill="white" transform="translate(81.9236 19.7249)"/>
</clipPath>
</defs>
</svg>
