<svg width="145" height="51" viewBox="0 0 145 51" fill="none" xmlns="http://www.w3.org/2000/svg">
<path fill-rule="evenodd" clip-rule="evenodd" d="M128.476 39.568C137.162 39.568 144.204 32.5266 144.204 23.8406C144.204 15.1547 137.162 8.11328 128.476 8.11328C119.79 8.11328 112.749 15.1547 112.749 23.8406C112.749 32.5266 119.79 39.568 128.476 39.568Z" fill="#141414"/>
<path d="M108.999 20.0347C108.552 20.235 108.077 20.3677 107.581 20.4321C108.091 20.1207 108.48 19.6312 108.663 19.0412C108.188 19.3312 107.663 19.536 107.103 19.6504C106.652 19.1586 106.008 18.854 105.307 18.854C103.945 18.854 102.848 19.9849 102.848 21.3712C102.848 21.5707 102.865 21.7625 102.905 21.9451C100.86 21.843 99.0504 20.8403 97.8347 19.3128C97.6225 19.6895 97.498 20.1207 97.498 20.5848C97.498 21.4564 97.9367 22.2289 98.5907 22.6762C98.1954 22.6685 97.8077 22.5512 97.4792 22.3663C97.4792 22.3739 97.4792 22.3839 97.4792 22.3939C97.4792 23.6168 98.3319 24.6326 99.4501 24.8666C99.2499 24.9226 99.0316 24.9494 98.8052 24.9494C98.6477 24.9494 98.4887 24.9402 98.3394 24.9065C98.6582 25.9031 99.5626 26.6357 100.638 26.6595C99.8011 27.3293 98.7384 27.7328 97.588 27.7328C97.3862 27.7328 97.1928 27.7236 96.9993 27.6983C98.089 28.4172 99.3804 28.8276 100.773 28.8276C105.3 28.8276 107.775 24.9916 107.775 21.6666C107.775 21.5553 107.771 21.4479 107.766 21.3413C108.254 20.9868 108.664 20.5442 108.999 20.0347Z" fill="#F1F1F1"/>
<g filter="url(#filter0_d_324:56)">
<path fill-rule="evenodd" clip-rule="evenodd" d="M24.1387 38.0338C32.8247 38.0338 39.8661 30.9924 39.8661 22.3064C39.8661 13.6205 32.8247 6.5791 24.1387 6.5791C15.4527 6.5791 8.41138 13.6205 8.41138 22.3064C8.41138 30.9924 15.4527 38.0338 24.1387 38.0338Z" fill="white"/>
</g>
<path fill-rule="evenodd" clip-rule="evenodd" d="M26.1401 20.5762C25.8945 20.4985 25.6121 20.4467 25.3543 20.4467C25.0351 20.4467 24.3476 20.6668 24.3476 21.094V22.1168H25.9805V23.8388H24.3476V28.5902H22.7024V23.8388H21.8921V22.1168H22.7024V21.2494C22.7024 19.9418 23.2672 18.8542 24.6299 18.8542C25.0965 18.8542 25.9314 18.8801 26.3856 19.0484L26.1401 20.5762Z" fill="#080809"/>
<g filter="url(#filter1_d_324:56)">
<path fill-rule="evenodd" clip-rule="evenodd" d="M76.3076 41.1025C85.841 41.1025 93.5693 33.3742 93.5693 23.8408C93.5693 14.3074 85.841 6.5791 76.3076 6.5791C66.7742 6.5791 59.0459 14.3074 59.0459 23.8408C59.0459 33.3742 66.7742 41.1025 76.3076 41.1025Z" fill="#141414"/>
</g>
<g clip-path="url(#clip0_324:56)">
<path d="M81.0301 17.3198H72.3513C71.36 17.3198 70.5532 18.1266 70.5532 19.1179V27.7967C70.5532 28.7883 71.36 29.5948 72.3513 29.5948H81.0301C82.0217 29.5948 82.8282 28.7883 82.8282 27.7967V19.1179C82.8282 18.1266 82.0217 17.3198 81.0301 17.3198ZM82.109 27.7967C82.109 28.3915 81.6249 28.8756 81.0301 28.8756H72.3513C71.7565 28.8756 71.2725 28.3915 71.2725 27.7967V19.1179C71.2725 18.5231 71.7565 18.0391 72.3513 18.0391H81.0301C81.6249 18.0391 82.109 18.5231 82.109 19.1179V27.7967Z" fill="white"/>
<path d="M80.6465 18.7822C80.2499 18.7822 79.9272 19.1049 79.9272 19.5015C79.9272 19.898 80.2499 20.2207 80.6465 20.2207C81.043 20.2207 81.3657 19.898 81.3657 19.5015C81.3657 19.1049 81.043 18.7822 80.6465 18.7822Z" fill="white"/>
<path d="M76.6907 20.2207C74.906 20.2207 73.4541 21.6726 73.4541 23.4573C73.4541 25.2419 74.906 26.6938 76.6907 26.6938C78.4753 26.6938 79.9272 25.2419 79.9272 23.4573C79.9272 21.6726 78.4753 20.2207 76.6907 20.2207ZM76.6907 25.9746C75.3025 25.9746 74.1733 24.8454 74.1733 23.4573C74.1733 22.0691 75.3025 20.9399 76.6907 20.9399C78.0788 20.9399 79.208 22.0691 79.208 23.4573C79.208 24.8454 78.0788 25.9746 76.6907 25.9746Z" fill="white"/>
</g>
<defs>
<filter id="filter0_d_324:56" x="0.739501" y="0.441601" width="46.7983" height="46.7983" filterUnits="userSpaceOnUse" color-interpolation-filters="sRGB">
<feFlood flood-opacity="0" result="BackgroundImageFix"/>
<feColorMatrix in="SourceAlpha" type="matrix" values="0 0 0 0 0 0 0 0 0 0 0 0 0 0 0 0 0 0 127 0" result="hardAlpha"/>
<feOffset dy="1.53438"/>
<feGaussianBlur stdDeviation="3.83594"/>
<feColorMatrix type="matrix" values="0 0 0 0 0 0 0 0 0 0 0 0 0 0 0 0 0 0 0.1 0"/>
<feBlend mode="normal" in2="BackgroundImageFix" result="effect1_dropShadow_324:56"/>
<feBlend mode="normal" in="SourceGraphic" in2="effect1_dropShadow_324:56" result="shape"/>
</filter>
<filter id="filter1_d_324:56" x="51.374" y="0.441601" width="49.8672" height="49.8672" filterUnits="userSpaceOnUse" color-interpolation-filters="sRGB">
<feFlood flood-opacity="0" result="BackgroundImageFix"/>
<feColorMatrix in="SourceAlpha" type="matrix" values="0 0 0 0 0 0 0 0 0 0 0 0 0 0 0 0 0 0 127 0" result="hardAlpha"/>
<feOffset dy="1.53438"/>
<feGaussianBlur stdDeviation="3.83594"/>
<feColorMatrix type="matrix" values="0 0 0 0 0 0 0 0 0 0 0 0 0 0 0 0 0 0 0.1 0"/>
<feBlend mode="normal" in2="BackgroundImageFix" result="effect1_dropShadow_324:56"/>
<feBlend mode="normal" in="SourceGraphic" in2="effect1_dropShadow_324:56" result="shape"/>
</filter>
<clipPath id="clip0_324:56">
<rect width="12.275" height="12.275" fill="white" transform="translate(70.5535 17.3198)"/>
</clipPath>
</defs>
</svg>
