<svg width="145" height="51" viewBox="0 0 145 51" fill="none" xmlns="http://www.w3.org/2000/svg">
<path fill-rule="evenodd" clip-rule="evenodd" d="M128.476 39.568C137.162 39.568 144.204 32.5266 144.204 23.8406C144.204 15.1547 137.162 8.11328 128.476 8.11328C119.79 8.11328 112.749 15.1547 112.749 23.8406C112.749 32.5266 119.79 39.568 128.476 39.568Z" fill="#141414"/>
<path d="M108.998 20.0347C108.552 20.235 108.077 20.3677 107.581 20.4321C108.091 20.1207 108.48 19.6312 108.663 19.0412C108.188 19.3312 107.663 19.536 107.103 19.6504C106.652 19.1586 106.008 18.854 105.306 18.854C103.944 18.854 102.848 19.9849 102.848 21.3712C102.848 21.5707 102.864 21.7625 102.905 21.9451C100.86 21.843 99.0501 20.8403 97.8345 19.3128C97.6222 19.6895 97.4977 20.1207 97.4977 20.5848C97.4977 21.4564 97.9365 22.2289 98.5904 22.6762C98.1952 22.6685 97.8075 22.5512 97.479 22.3663C97.479 22.3739 97.479 22.3839 97.479 22.3939C97.479 23.6168 98.3317 24.6326 99.4499 24.8666C99.2496 24.9226 99.0314 24.9494 98.8049 24.9494C98.6474 24.9494 98.4884 24.9402 98.3392 24.9065C98.6579 25.9031 99.5624 26.6357 100.638 26.6595C99.8009 27.3293 98.7382 27.7328 97.5877 27.7328C97.386 27.7328 97.1925 27.7236 96.999 27.6983C98.0887 28.4172 99.3801 28.8276 100.773 28.8276C105.3 28.8276 107.774 24.9916 107.774 21.6666C107.774 21.5553 107.771 21.4479 107.765 21.3413C108.254 20.9868 108.664 20.5442 108.998 20.0347Z" fill="#F1F1F1"/>
<g filter="url(#filter0_d_324:56)">
<path fill-rule="evenodd" clip-rule="evenodd" d="M24.1385 38.0338C32.8244 38.0338 39.8658 30.9924 39.8658 22.3064C39.8658 13.6205 32.8244 6.5791 24.1385 6.5791C15.4525 6.5791 8.41113 13.6205 8.41113 22.3064C8.41113 30.9924 15.4525 38.0338 24.1385 38.0338Z" fill="white"/>
</g>
<path fill-rule="evenodd" clip-rule="evenodd" d="M26.1401 20.5762C25.8945 20.4985 25.6121 20.4467 25.3543 20.4467C25.0351 20.4467 24.3476 20.6668 24.3476 21.094V22.1168H25.9805V23.8388H24.3476V28.5902H22.7024V23.8388H21.8921V22.1168H22.7024V21.2494C22.7024 19.9418 23.2672 18.8542 24.6299 18.8542C25.0965 18.8542 25.9314 18.8801 26.3856 19.0484L26.1401 20.5762Z" fill="#080809"/>
<g filter="url(#filter1_d_324:56)">
<path fill-rule="evenodd" clip-rule="evenodd" d="M76.3076 41.1025C85.841 41.1025 93.5693 33.3742 93.5693 23.8408C93.5693 14.3074 85.841 6.5791 76.3076 6.5791C66.7742 6.5791 59.0459 14.3074 59.0459 23.8408C59.0459 33.3742 66.7742 41.1025 76.3076 41.1025Z" fill="#141414"/>
</g>
<g clip-path="url(#clip0_324:56)">
<path d="M81.0306 17.3198H72.3518C71.3605 17.3198 70.5537 18.1266 70.5537 19.1179V27.7967C70.5537 28.7883 71.3605 29.5948 72.3518 29.5948H81.0306C82.0222 29.5948 82.8287 28.7883 82.8287 27.7967V19.1179C82.8287 18.1266 82.0222 17.3198 81.0306 17.3198ZM82.1095 27.7967C82.1095 28.3915 81.6254 28.8756 81.0306 28.8756H72.3518C71.757 28.8756 71.2729 28.3915 71.2729 27.7967V19.1179C71.2729 18.5231 71.757 18.0391 72.3518 18.0391H81.0306C81.6254 18.0391 82.1095 18.5231 82.1095 19.1179V27.7967Z" fill="white"/>
<path d="M80.647 18.7822C80.2504 18.7822 79.9277 19.1049 79.9277 19.5015C79.9277 19.898 80.2504 20.2207 80.647 20.2207C81.0435 20.2207 81.3662 19.898 81.3662 19.5015C81.3662 19.1049 81.0435 18.7822 80.647 18.7822Z" fill="white"/>
<path d="M76.6912 20.2207C74.9065 20.2207 73.4546 21.6726 73.4546 23.4573C73.4546 25.2419 74.9065 26.6938 76.6912 26.6938C78.4758 26.6938 79.9277 25.2419 79.9277 23.4573C79.9277 21.6726 78.4758 20.2207 76.6912 20.2207ZM76.6912 25.9746C75.303 25.9746 74.1738 24.8454 74.1738 23.4573C74.1738 22.0691 75.303 20.9399 76.6912 20.9399C78.0793 20.9399 79.2085 22.0691 79.2085 23.4573C79.2085 24.8454 78.0793 25.9746 76.6912 25.9746Z" fill="white"/>
</g>
<defs>
<filter id="filter0_d_324:56" x="0.739257" y="0.441601" width="46.7983" height="46.7983" filterUnits="userSpaceOnUse" color-interpolation-filters="sRGB">
<feFlood flood-opacity="0" result="BackgroundImageFix"/>
<feColorMatrix in="SourceAlpha" type="matrix" values="0 0 0 0 0 0 0 0 0 0 0 0 0 0 0 0 0 0 127 0" result="hardAlpha"/>
<feOffset dy="1.53438"/>
<feGaussianBlur stdDeviation="3.83594"/>
<feColorMatrix type="matrix" values="0 0 0 0 0 0 0 0 0 0 0 0 0 0 0 0 0 0 0.1 0"/>
<feBlend mode="normal" in2="BackgroundImageFix" result="effect1_dropShadow_324:56"/>
<feBlend mode="normal" in="SourceGraphic" in2="effect1_dropShadow_324:56" result="shape"/>
</filter>
<filter id="filter1_d_324:56" x="51.374" y="0.441601" width="49.8672" height="49.8672" filterUnits="userSpaceOnUse" color-interpolation-filters="sRGB">
<feFlood flood-opacity="0" result="BackgroundImageFix"/>
<feColorMatrix in="SourceAlpha" type="matrix" values="0 0 0 0 0 0 0 0 0 0 0 0 0 0 0 0 0 0 127 0" result="hardAlpha"/>
<feOffset dy="1.53438"/>
<feGaussianBlur stdDeviation="3.83594"/>
<feColorMatrix type="matrix" values="0 0 0 0 0 0 0 0 0 0 0 0 0 0 0 0 0 0 0.1 0"/>
<feBlend mode="normal" in2="BackgroundImageFix" result="effect1_dropShadow_324:56"/>
<feBlend mode="normal" in="SourceGraphic" in2="effect1_dropShadow_324:56" result="shape"/>
</filter>
<clipPath id="clip0_324:56">
<rect width="12.275" height="12.275" fill="white" transform="translate(70.5537 17.3198)"/>
</clipPath>
</defs>
</svg>
