<svg width="179" height="39" viewBox="0 0 179 39" fill="none" xmlns="http://www.w3.org/2000/svg">
<g clip-path="url(#clip0_498_1131)">
<path d="M20.2336 -0.0410156C9.45861 -0.0410156 0.690918 8.72423 0.690918 19.5004C0.690918 30.2766 9.45861 39.0419 20.2336 39.0419C31.0085 39.0419 39.7762 30.2766 39.7762 19.5004C39.7762 8.72423 31.0085 -0.0410156 20.2336 -0.0410156ZM20.2336 37.7402C10.1764 37.7402 1.99498 29.5575 1.99498 19.5004C1.99498 9.4433 10.1764 1.26061 20.2336 1.26061C30.2907 1.26061 38.4722 9.4433 38.4722 19.5004C38.4722 29.5575 30.2907 37.7402 20.2336 37.7402Z" fill="black"/>
<path d="M24.4992 8.53215H21.2475C17.1062 8.49072 16.5773 11.0537 16.5773 13.8276V15.8447H14.7492C14.6665 15.8336 14.5825 15.8418 14.5035 15.8685C14.4245 15.8952 14.3528 15.9398 14.2939 15.9987C14.2349 16.0577 14.1903 16.1294 14.1636 16.2084C14.1369 16.2873 14.1287 16.3714 14.1398 16.454V20.1103C14.1287 20.1929 14.1369 20.277 14.1636 20.3559C14.1903 20.4349 14.2349 20.5066 14.2939 20.5656C14.3528 20.6245 14.4245 20.6691 14.5035 20.6958C14.5825 20.7225 14.6665 20.7307 14.7492 20.7197H16.5773V29.8603C16.5671 29.9431 16.576 30.0271 16.6033 30.1059C16.6306 30.1847 16.6755 30.2562 16.7346 30.315C16.7938 30.3738 16.8656 30.4183 16.9446 30.4451C17.0235 30.4719 17.1076 30.4803 17.1903 30.4697H20.9136C21.2731 30.5111 21.5644 30.2198 21.4498 29.8603L21.4523 20.7197H24.4992C24.5818 20.7307 24.6658 20.7225 24.7448 20.6958C24.8238 20.6691 24.8955 20.6245 24.9545 20.5656C25.0134 20.5066 25.058 20.4349 25.0847 20.3559C25.1114 20.277 25.1196 20.1929 25.1085 20.1103V16.454C25.1196 16.3714 25.1114 16.2873 25.0847 16.2084C25.058 16.1294 25.0134 16.0577 24.9545 15.9987C24.8955 15.9398 24.8238 15.8952 24.7448 15.8685C24.6658 15.8418 24.5818 15.8336 24.4992 15.8447H21.4486L21.4523 14.0165C21.5705 13.2377 21.5705 13.3645 22.2932 13.4072H24.4736C24.643 13.3694 24.8233 13.3901 24.9501 13.267C25.0768 13.1439 25.15 12.9757 25.1073 12.7978V9.14153C25.1186 9.05897 25.1106 8.97492 25.084 8.89595C25.0575 8.81697 25.013 8.7452 24.9542 8.68622C24.8953 8.62724 24.8236 8.58265 24.7447 8.55593C24.6658 8.52921 24.5817 8.52107 24.4992 8.53215V8.53215ZM23.8471 12.1202L22.3188 12.0617C20.4261 12.0617 20.2677 13.0891 20.2677 14.1408L20.2628 16.4516C20.2626 16.5372 20.2793 16.6219 20.312 16.701C20.3446 16.7801 20.3925 16.852 20.453 16.9126C20.5134 16.9731 20.5852 17.0212 20.6643 17.054C20.7433 17.0867 20.828 17.1036 20.9136 17.1036H23.8898V19.4582H20.916C20.7433 19.4582 20.5777 19.5268 20.4554 19.6488C20.3332 19.7708 20.2643 19.9363 20.264 20.1091L20.2628 29.2509H17.796V20.1103C17.796 19.7507 17.5511 19.4595 17.1903 19.4595H15.3585V17.1048H17.1903C17.2758 17.105 17.3605 17.0882 17.4396 17.0556C17.5186 17.023 17.5905 16.9751 17.651 16.9147C17.7729 16.7916 17.7948 16.6259 17.7948 16.4528V13.8264C17.7948 11.094 18.3469 9.79234 21.2463 9.79234H23.8459V12.1202H23.8471Z" fill="black"/>
</g>
<g clip-path="url(#clip1_498_1131)">
<path d="M89.7023 -0.0410156C78.9274 -0.0410156 70.1597 8.72423 70.1597 19.5004C70.1597 30.2766 78.9274 39.0419 89.7023 39.0419C100.477 39.0419 109.245 30.2766 109.245 19.5004C109.245 8.72423 100.477 -0.0410156 89.7023 -0.0410156ZM89.7023 37.7402C79.6452 37.7402 71.4637 29.5575 71.4637 19.5004C71.4637 9.4433 79.6452 1.26061 89.7023 1.26061C99.7594 1.26061 107.941 9.4433 107.941 19.5004C107.941 29.5575 99.7594 37.7402 89.7023 37.7402Z" fill="black"/>
<path d="M100.42 13.4627C100.555 13.2125 100.667 12.9501 100.753 12.6791C100.793 12.5533 100.794 12.4185 100.755 12.2923C100.717 12.1661 100.641 12.0545 100.538 11.9722C100.435 11.89 100.309 11.8409 100.178 11.8316C100.046 11.8222 99.9147 11.853 99.801 11.9198C99.1765 12.2908 98.5005 12.5672 97.7949 12.74C96.9385 11.9671 95.8262 11.5385 94.6725 11.5371C94.0457 11.5376 93.4255 11.6646 92.849 11.9106C92.2725 12.1566 91.7516 12.5164 91.3175 12.9686C90.8835 13.4208 90.5452 13.9559 90.3229 14.542C90.1007 15.128 89.9991 15.7529 90.0242 16.3792C87.2832 16.0341 84.7803 14.6472 83.0346 12.506C82.9678 12.4249 82.8823 12.3611 82.7855 12.3201C82.6887 12.2791 82.5834 12.262 82.4786 12.2704C82.3738 12.2788 82.2726 12.3123 82.1835 12.3682C82.0944 12.4241 82.0202 12.5006 81.967 12.5913C81.5673 13.2774 81.35 14.0544 81.336 14.8483C81.3219 15.6422 81.5114 16.4265 81.8866 17.1263C81.7946 17.1418 81.7062 17.174 81.6258 17.2214C81.5272 17.2842 81.4461 17.3708 81.3899 17.4733C81.3336 17.5757 81.3041 17.6907 81.304 17.8076C81.304 19.1909 81.9195 20.4608 82.9116 21.3237L82.8689 21.3663C82.794 21.4511 82.7425 21.5538 82.7194 21.6645C82.6963 21.7752 82.7025 21.89 82.7373 21.9976C82.9441 22.643 83.2895 23.2354 83.7493 23.7332C84.2091 24.2311 84.7721 24.6225 85.399 24.88C84.1115 25.5081 82.6707 25.753 81.248 25.5856C81.1017 25.5707 80.9547 25.6048 80.8298 25.6824C80.705 25.76 80.6094 25.8769 80.5581 26.0146C80.5089 26.1534 80.508 26.3048 80.5555 26.4442C80.6031 26.5835 80.6963 26.7027 80.8202 26.7825C82.7543 28.0238 85.0044 28.6833 87.3027 28.6825C94.8346 28.6825 99.3366 22.5644 99.3366 16.6498L99.3354 16.4499C100.065 15.88 100.699 15.197 101.214 14.4268C101.291 14.3103 101.33 14.1719 101.323 14.032C101.316 13.8921 101.264 13.7582 101.175 13.65C101.086 13.5419 100.964 13.4653 100.828 13.4315C100.693 13.3978 100.549 13.4087 100.42 13.4627V13.4627ZM98.2934 15.6016C98.205 15.6652 98.1339 15.75 98.0866 15.8481C98.0393 15.9463 98.0174 16.0547 98.0228 16.1635C98.0301 16.3244 98.0338 16.4877 98.0338 16.6485C98.0338 21.9233 94.0205 27.3796 87.3039 27.3796C86.106 27.3802 84.9166 27.1791 83.7854 26.7849C85.1401 26.5253 86.4128 25.9443 87.4965 25.0908C87.602 25.0077 87.6792 24.8939 87.7176 24.7652C87.756 24.6365 87.7537 24.499 87.711 24.3716C87.6683 24.2443 87.5874 24.1332 87.4792 24.0536C87.3709 23.974 87.2408 23.9297 87.1065 23.9269C86.581 23.9169 86.0652 23.7835 85.6007 23.5375C85.1363 23.2915 84.7361 22.9398 84.4325 22.5107C84.7409 22.49 85.0431 22.4388 85.3369 22.3596C85.479 22.3216 85.6041 22.2365 85.6916 22.1182C85.7792 21.9999 85.8241 21.8555 85.819 21.7084C85.8139 21.5613 85.7591 21.4203 85.6636 21.3084C85.5681 21.1965 85.4374 21.1202 85.293 21.0921C84.6995 20.9714 84.15 20.6916 83.7032 20.2826C83.2565 19.8737 82.9293 19.3509 82.7568 18.7704C83.081 18.852 83.4137 18.8996 83.7464 18.9105C84.0328 18.9093 84.2985 18.7338 84.3875 18.4584C84.4764 18.183 84.3716 17.8795 84.1291 17.7186C83.5556 17.3365 83.1141 16.7868 82.8648 16.1444C82.6154 15.502 82.5705 14.7983 82.736 14.1294C84.8531 16.3016 87.7117 17.5951 90.7408 17.7515C90.9553 17.7527 91.143 17.676 91.2734 17.5187C91.4038 17.3615 91.4538 17.1531 91.4075 16.9532C91.2408 16.2354 91.3153 15.4826 91.6196 14.8114C91.9238 14.1402 92.4408 13.588 93.0906 13.2402C93.7403 12.8925 94.4865 12.7686 95.2138 12.8877C95.941 13.0067 96.6088 13.3622 97.1136 13.899C97.1893 13.9798 97.2843 14.0399 97.3896 14.0738C97.4949 14.1077 97.6072 14.1143 97.7157 14.0928C97.9168 14.0526 98.1155 14.0063 98.3117 13.9527C98.2232 14.0189 98.1313 14.0803 98.0362 14.1367C97.9099 14.2141 97.8136 14.3323 97.7634 14.4717C97.7132 14.6112 97.7119 14.7635 97.7599 14.9038C97.8079 15.044 97.9022 15.1637 98.0273 15.2431C98.1524 15.3226 98.3009 15.357 98.4482 15.3408L98.67 15.3128C98.5478 15.4134 98.4222 15.5098 98.2934 15.6016V15.6016Z" fill="black"/>
</g>
<g clip-path="url(#clip2_498_1131)">
<path d="M163.455 14.5664C162.629 14.5664 162.017 14.7748 161.538 15.0381C161.461 14.7651 161.209 14.5652 160.911 14.6249H157.275C156.915 14.5652 156.624 14.8565 156.735 15.2343V28.6405C156.624 28.9818 156.915 29.2743 157.275 29.2499H160.911C161.271 29.2743 161.562 28.9818 161.562 28.6223L161.561 20.52C161.56 20.5163 161.546 20.1288 161.791 19.8619C161.988 19.6498 162.325 19.5413 162.792 19.5413C163.57 19.5413 163.916 19.8594 164.045 20.5712V28.6223C163.917 28.9818 164.208 29.2743 164.568 29.2499H168.401C168.76 29.2743 169.052 28.9818 168.922 28.6223V20.3006C169.05 16.0691 166.036 14.5664 163.455 14.5664V14.5664ZM167.749 28.0312H165.219V20.5712C165.219 19.1318 164.289 18.2397 162.793 18.2397C161.947 18.2397 161.289 18.4883 160.836 18.9783C160.206 19.6608 160.255 20.5261 160.39 20.7187V28.0312H157.926V15.868H160.261V16.2775C160.26 16.3995 160.293 16.5193 160.357 16.6231C160.421 16.7269 160.513 16.8106 160.623 16.8644C160.732 16.9182 160.855 16.9401 160.976 16.9275C161.097 16.9149 161.213 16.8683 161.309 16.7931L161.479 16.6614C161.973 16.2727 162.484 15.8693 163.456 15.8693C164.463 15.8693 167.75 16.1898 167.75 20.3018V28.0312H167.749Z" fill="black"/>
<path d="M153.077 8.49023C151.71 8.49023 150.598 9.60173 150.598 10.9692C150.598 12.3366 151.71 13.4481 153.077 13.4481C154.445 13.4481 155.556 12.3366 155.556 10.9692C155.556 9.60173 154.445 8.49023 153.077 8.49023ZM153.077 12.1465C152.429 12.1465 151.9 11.6175 151.9 10.9692C151.9 10.3208 152.429 9.79186 153.077 9.79186C153.726 9.79186 154.255 10.3208 154.255 10.9692C154.255 11.6175 153.726 12.1465 153.077 12.1465Z" fill="black"/>
<path d="M154.818 14.5654H151.2C150.841 14.5654 150.55 14.8567 150.64 15.2345V28.6408C150.55 28.982 150.841 29.2745 151.2 29.2501H154.818C155.177 29.2745 155.469 28.982 155.469 28.6225V15.2162C155.469 15.0436 155.4 14.8781 155.278 14.756C155.156 14.634 154.99 14.5654 154.818 14.5654ZM154.296 28.0314H151.851V15.8683H154.296V28.0314Z" fill="black"/>
<path d="M159.171 -0.0410156C148.395 -0.0410156 139.63 8.72423 139.63 19.5004C139.63 30.2766 148.395 39.0419 159.171 39.0419C169.947 39.0419 178.713 30.2766 178.713 19.5004C178.713 8.72423 169.947 -0.0410156 159.171 -0.0410156ZM159.171 37.7402C149.114 37.7402 140.931 29.5575 140.931 19.5004C140.931 9.4433 149.114 1.26061 159.171 1.26061C169.228 1.26061 177.411 9.4433 177.411 19.5004C177.411 29.5575 169.228 37.7402 159.171 37.7402Z" fill="black"/>
</g>
<defs>
<clipPath id="clip0_498_1131">
<rect width="39" height="39" fill="white" transform="translate(0.733643)"/>
</clipPath>
<clipPath id="clip1_498_1131">
<rect width="39" height="39" fill="white" transform="translate(70.2024)"/>
</clipPath>
<clipPath id="clip2_498_1131">
<rect width="39" height="39" fill="white" transform="translate(139.671)"/>
</clipPath>
</defs>
</svg>
