<svg width="433" height="32" viewBox="0 0 433 32" fill="none" xmlns="http://www.w3.org/2000/svg">
<path fill-rule="evenodd" clip-rule="evenodd" d="M183.683 3.33014C163.365 4.34887 143.285 5.60149 123.704 6.97092C95.9842 8.90817 68.2754 10.9122 40.7337 14.0853C32.0642 15.0873 23.2602 15.7219 14.6449 16.9745C9.23671 17.7594 2.06562 18.8781 1.12451 19.112C0.632266 19.2456 0.417518 19.4461 0.348127 19.513C-0.139779 19.9806 -0.0507538 20.4313 0.224642 20.782C0.335233 20.9323 0.614887 21.2999 1.3912 21.35C53.3087 24.7735 106.397 18.0934 158.377 17.392C248.521 16.1895 341.396 20.9659 430.824 31.3869C431.604 31.4704 432.363 31.0528 432.472 30.4349C432.602 29.8337 432.038 29.2491 431.258 29.1656C341.678 18.7279 248.651 13.9348 158.334 15.154C109.89 15.8053 60.4906 21.6672 11.9798 19.6632C13.0944 19.4962 14.1874 19.3291 15.1849 19.1788C23.7655 17.9263 32.5326 17.3084 41.1674 16.3064C68.6506 13.1333 96.3029 11.1293 123.986 9.20872C158.334 6.80386 194.179 4.733 230.305 3.76437C243.23 3.91468 256.11 4.06504 268.991 4.24875C296.856 4.64956 324.851 5.8186 352.651 7.38843C361.021 7.87275 369.391 8.37372 377.761 8.80793C380.537 8.95823 387.693 9.39237 388.69 9.35897C389.926 9.32557 390.165 8.52402 390.187 8.39042C390.252 8.08981 390.208 7.67228 389.601 7.32157C389.536 7.27147 389.146 7.10436 388.278 7.00415C337.731 1.09221 283.758 0.107038 230.349 1.52657C174.012 0.908658 117.458 0.641329 61.2648 0.357422C60.4603 0.357422 59.8033 0.858508 59.7968 1.47642C59.7924 2.09434 60.4407 2.59544 61.2452 2.61214C101.934 2.81255 142.83 3.01284 183.683 3.33014Z" fill="#FFB546"/>
</svg>
