<svg width="325" height="24" viewBox="0 0 325 24" fill="none" xmlns="http://www.w3.org/2000/svg">
<path fill-rule="evenodd" clip-rule="evenodd" d="M137.923 2.438C122.684 3.20312 107.624 4.14391 92.9379 5.17243C72.1483 6.62741 51.3667 8.13257 30.7104 10.5157C24.2083 11.2683 17.6053 11.7449 11.1438 12.6856C7.08769 13.2751 1.70937 14.1154 1.00354 14.291C0.634356 14.3914 0.473294 14.542 0.421251 14.5922C0.0553224 14.9434 0.122091 15.2819 0.328637 15.5453C0.411581 15.6582 0.621322 15.9342 1.20356 15.9719C40.1416 18.5432 79.958 13.526 118.943 12.9992C186.551 12.0961 256.207 15.6834 323.278 23.5102C323.863 23.5729 324.433 23.2592 324.514 22.7952C324.611 22.3436 324.189 21.9046 323.603 21.8419C256.419 14.0025 186.648 10.4027 118.911 11.3183C82.578 11.8075 45.5281 16.2102 9.14502 14.705C9.98096 14.5796 10.8007 14.4541 11.5488 14.3412C17.9843 13.4005 24.5596 12.9365 31.0357 12.1839C51.6481 9.80072 72.3873 8.29557 93.1493 6.85314C118.911 5.04695 145.794 3.49162 172.889 2.76413C182.582 2.87702 192.243 2.98995 201.903 3.12792C222.802 3.42895 243.798 4.30696 264.648 5.486C270.926 5.84974 277.203 6.226 283.481 6.55212C285.563 6.665 290.93 6.99107 291.678 6.96598C292.605 6.94089 292.784 6.33889 292.8 6.23854C292.849 6.01277 292.816 5.69918 292.361 5.43578C292.312 5.39815 292.019 5.27264 291.369 5.19738C253.459 0.757187 212.979 0.0172702 172.922 1.08342C130.669 0.619331 88.254 0.418552 46.1088 0.205322C45.5054 0.205322 45.0126 0.581665 45.0077 1.04575C45.0045 1.50984 45.4907 1.8862 46.0941 1.89874C76.6109 2.04926 107.282 2.19968 137.923 2.438Z" fill="#FFB546"/>
</svg>
