<svg width="379" height="28" viewBox="0 0 379 28" fill="none" xmlns="http://www.w3.org/2000/svg">
<path fill-rule="evenodd" clip-rule="evenodd" d="M161.098 3.25422C143.319 4.1462 125.749 5.24297 108.616 6.44202C84.3611 8.13823 60.116 9.89295 36.017 12.6712C28.4312 13.5486 20.7277 14.1042 13.1893 15.2009C8.45712 15.8882 2.18242 16.8677 1.35894 17.0725C0.928233 17.1894 0.740328 17.3651 0.679611 17.4236C0.252694 17.833 0.33059 18.2276 0.571561 18.5347C0.668329 18.6663 0.913026 18.9881 1.5923 19.032C47.0201 22.0296 93.4725 16.1806 138.955 15.5665C217.831 14.5136 299.096 18.6957 377.346 27.8202C378.029 27.8933 378.693 27.5276 378.788 26.9866C378.902 26.4602 378.408 25.9484 377.725 25.8753C299.343 16.7362 217.944 12.5395 138.917 13.6069C96.5292 14.1772 53.3043 19.3098 10.8573 17.5551C11.8326 17.4089 12.789 17.2626 13.6618 17.131C21.1698 16.0343 28.841 15.4933 36.3965 14.616C60.4443 11.8377 84.6401 10.083 108.862 8.40139C138.917 6.29574 170.281 4.48253 201.892 3.63442C213.201 3.76603 224.471 3.89769 235.742 4.05853C260.124 4.40948 284.619 5.43306 308.944 6.80758C316.268 7.23163 323.592 7.67028 330.916 8.05046C333.345 8.18206 339.606 8.56219 340.479 8.53294C341.561 8.5037 341.769 7.80188 341.788 7.6849C341.845 7.42169 341.807 7.05611 341.276 6.74903C341.219 6.70517 340.877 6.55885 340.118 6.47111C295.89 1.29473 248.663 0.432136 201.93 1.67505C152.636 1.13402 103.151 0.89995 53.9817 0.651367C53.2778 0.651367 52.7028 1.09011 52.6972 1.63114C52.6934 2.17218 53.2606 2.61093 53.9646 2.62555C89.5675 2.80102 125.351 2.97639 161.098 3.25422Z" fill="#FFB546"/>
</svg>
