<svg width="196" height="198" viewBox="0 0 196 198" fill="none" xmlns="http://www.w3.org/2000/svg">
<path d="M113.457 59.4001C117.486 69.2142 122.67 78.211 130.163 85.7999C136.759 92.4808 144.636 97.6698 152.84 102.152C162.832 107.611 173.272 112.199 183.37 117.454C184.355 117.966 185.69 117.368 186.507 116.772C186.945 116.452 188.313 115.098 187.325 114.584C170.114 105.626 151.089 98.6483 136.605 85.3308C129.128 78.2959 123.217 69.765 119.257 60.2943C117.774 56.8845 116.444 53.4066 115.029 49.9668C113.645 51.191 112.392 52.5569 111.293 54.0423C112.013 55.8287 112.727 57.6189 113.457 59.4001Z" fill="#554140"/>
<path d="M106.435 43.2132C108.131 46.4313 109.558 49.7726 110.929 53.1386C112.057 51.7063 113.332 50.396 114.733 49.2289C113.969 47.376 113.169 45.5388 112.308 43.7275C109.717 38.3076 106.433 33.2471 102.538 28.6733C99.5901 25.2104 96.4223 21.9411 93.054 18.8858L88.5893 21.2718C91.1016 23.5468 93.5248 25.9181 95.8139 28.4223C99.9703 32.8798 103.54 37.8504 106.435 43.2132V43.2132Z" fill="#554140"/>
<path d="M86.7781 41.4213C89.9115 45.7362 92.5552 50.3861 94.6602 55.2853C98.1905 63.1251 100.453 71.5247 103.805 79.4382C104.169 75.7936 104.434 72.1151 104.989 68.5208C103.322 63.7895 101.737 59.0219 99.7609 54.4407C97.7175 49.5247 95.1833 44.8271 92.1971 40.4193C89.4298 36.5547 85.9961 33.214 82.0572 30.5538C80.4616 29.4356 78.8235 28.3806 77.1429 27.3887L72.5072 29.866C73.6706 30.5408 74.8162 31.2429 75.9439 31.9724C80.0819 34.4615 83.7494 37.66 86.7781 41.4213V41.4213Z" fill="#554140"/>
<path d="M104.398 80.8109C105.404 83.1027 106.542 85.3342 107.807 87.4941C110.851 92.7666 115.052 97.2795 120.094 100.692C125.373 104.013 130.983 106.775 136.833 108.933C143.461 111.561 149.955 114.394 156.404 117.431C162.915 120.505 169.42 123.59 176.127 126.217C177.594 126.794 181.519 123.902 179.353 123.056C167.354 118.356 156.053 112.072 144.068 107.336C138.168 105.188 132.437 102.601 126.922 99.598C121.537 96.5664 116.943 92.3077 113.512 87.1678C109.993 81.8372 107.647 75.9542 105.508 69.9761C105.032 73.4576 104.8 76.9812 104.439 80.4707L104.398 80.8109Z" fill="#554140"/>
<path d="M99.2464 99.533C99.8303 100.269 100.42 100.999 101.023 101.72C108.426 110.771 117.977 117.825 128.805 122.238C141.398 127.265 154.88 129.454 167.668 133.868C169.159 134.383 173.073 131.459 170.894 130.708C159.509 126.782 147.602 124.613 136.228 120.649C125.09 116.841 115.116 110.233 107.265 101.461C105.233 99.18 103.315 96.8019 101.481 94.3589C101.185 95.1843 100.864 96.0037 100.518 96.817C100.123 97.7393 99.6993 98.6447 99.2464 99.533Z" fill="#554140"/>
<path d="M69.5902 55.9195C73.6607 60.7766 77.3399 65.9485 80.5933 71.3868C86.3884 80.6594 91.94 90.1847 98.6889 98.816C99.538 97.1217 100.285 95.378 100.925 93.5942C95.7496 86.5975 91.2277 79.0825 86.6845 71.7036C83.4634 66.2652 79.9174 61.0258 76.0658 56.0139C72.7809 51.7533 68.7168 48.1552 64.0898 45.4109C60.5647 43.4522 56.9243 41.7088 53.1886 40.1904L48.464 42.7153C51.3438 43.95 54.2198 45.1777 56.9721 46.5725C61.7427 48.8427 66.028 52.0171 69.5902 55.9195V55.9195Z" fill="#554140"/>
<path d="M65.934 86.1558C73.7588 94.6814 81.0572 103.779 89.5026 111.712C90.6218 110.546 91.6873 109.339 92.6993 108.089C85.4223 101.084 78.9692 93.2667 72.1824 85.7853C64.0174 76.7826 55.5061 67.982 45.781 60.6488C41.3208 57.2773 36.5834 54.2896 31.6194 51.7176L26.9469 54.2146C31.1725 56.3425 35.2325 58.7848 39.0925 61.5209C49.0389 68.5578 57.7173 77.2045 65.934 86.1558Z" fill="#554140"/>
<path d="M91.2247 113.307C100.065 121.337 110.063 127.991 120.883 133.044C133.361 138.789 146.774 142.232 160.474 143.207C161.089 143.185 161.691 143.023 162.233 142.733C162.776 142.443 163.245 142.033 163.605 141.534C164.206 140.621 163.774 140.043 162.768 139.968C138.589 138.189 115.791 128.213 97.4682 112.454C96.0301 111.216 94.6325 109.938 93.2619 108.634C92.2445 109.875 91.175 111.073 90.0535 112.228C90.4418 112.589 90.8302 112.951 91.2247 113.307Z" fill="#554140"/>
<path d="M15.0276 73.9075C21.6746 76.8562 28.0864 80.0032 33.9311 84.3706C39.1327 88.4417 44.0997 92.804 48.8084 97.4366C57.7828 105.878 66.8052 114.374 76.1959 122.369C77.5809 121.489 78.9422 120.573 80.2798 119.619C71.924 112.51 63.9483 104.927 55.9029 97.4938C50.9864 92.9501 46.2314 88.2147 41.0449 83.9718C35.6587 79.5972 29.737 75.9272 23.4232 73.0505C19.4232 71.1989 15.3863 69.4302 11.3125 67.7443C9.51065 66.9905 7.70207 66.2198 5.88204 65.4722L1.08274 68.0371C2.11817 68.4578 3.15107 68.8844 4.18339 69.3057C7.8201 70.7874 11.4348 72.3214 15.0276 73.9075Z" fill="#554140"/>
<path d="M76.7881 122.889C77.4073 123.414 78.0272 123.937 78.6477 124.459C88.9179 133.048 100.018 140.79 112.562 145.67C119.368 148.317 126.374 149.001 133.617 149.306C140.607 149.6 147.682 149.748 154.354 152.084C155.843 152.605 159.759 149.686 157.58 148.924C145.557 144.72 132.476 147.518 120.311 144.071C113.963 142.105 107.895 139.329 102.258 135.81C96.5074 132.337 91.009 128.463 85.8035 124.216C84.1379 122.876 82.4899 121.514 80.8595 120.129C80.5327 120.366 80.2016 120.602 79.8664 120.837C78.8567 121.543 77.8245 122.227 76.7881 122.889Z" fill="#554140"/>
<path d="M154.154 151.911C147.48 149.575 140.408 149.421 133.418 149.125C126.175 148.816 119.169 148.131 112.365 145.48C99.8226 140.596 88.7249 132.853 78.4588 124.262C77.8352 123.74 77.2143 123.217 76.596 122.693C77.6366 122.026 78.664 121.342 79.678 120.64C80.0097 120.408 80.3415 120.171 80.6713 119.933C82.3029 121.315 83.9504 122.677 85.614 124.02C90.8183 128.268 96.3153 132.144 102.064 135.62C107.701 139.14 113.767 141.918 120.114 143.887C132.279 147.338 145.361 144.546 157.382 148.753C159.381 149.453 156.239 151.975 154.56 151.975C154.422 151.976 154.285 151.955 154.154 151.911V151.911ZM160.278 143.038C146.578 142.057 133.168 138.61 120.692 132.862C109.874 127.806 99.8788 121.15 91.0404 113.118C90.6467 112.762 90.2579 112.4 89.8682 112.039C90.9881 110.884 92.0584 109.687 93.079 108.447C94.4491 109.747 95.8452 111.03 97.2843 112.269C115.6 128.031 138.397 138.012 162.575 139.803C163.582 139.877 164.013 140.456 163.41 141.367C163.062 141.845 162.616 142.242 162.101 142.531C161.586 142.821 161.015 142.996 160.426 143.044C160.376 143.042 160.327 143.041 160.278 143.041V143.038ZM167.482 133.704C154.69 129.289 141.211 127.093 128.619 122.063C117.795 117.648 108.247 110.592 100.846 101.539C100.246 100.817 99.6544 100.087 99.0701 99.3506C99.5224 98.4633 99.9475 97.5582 100.345 96.6355C100.694 95.8225 101.014 95.0035 101.31 94.1775C103.143 96.6215 105.06 98.9986 107.091 101.278C114.94 110.052 124.911 116.661 136.047 120.47C147.419 124.438 159.326 126.613 170.708 130.542C172.713 131.233 169.562 133.76 167.882 133.761C167.748 133.763 167.614 133.744 167.486 133.704H167.482ZM175.943 126.06C169.237 123.43 162.734 120.343 156.224 117.268C149.777 114.223 143.282 111.395 136.656 108.768C130.807 106.608 125.198 103.845 119.921 100.522C114.882 97.1094 110.682 92.596 107.639 87.3225C107.229 86.6279 106.835 85.9278 106.456 85.2224C105.657 83.7224 104.92 82.1936 104.232 80.6446C104.245 80.5306 104.258 80.4165 104.27 80.3045C104.631 76.8155 104.869 73.2945 105.343 69.8145C107.479 75.7915 109.824 81.6724 113.338 87.0034C116.768 92.1443 121.361 96.4036 126.744 99.4356C132.258 102.441 137.99 105.029 143.89 107.179C155.874 111.918 167.175 118.205 179.167 122.909C181.142 123.682 178.059 126.143 176.385 126.143C176.234 126.143 176.085 126.115 175.944 126.061L175.943 126.06ZM48.6276 97.2466C43.9204 92.6138 38.9551 88.251 33.7555 84.1795C27.9133 79.8115 21.5006 76.6615 14.855 73.7105C11.2674 72.1171 7.65379 70.5839 4.0142 69.1106C2.98289 68.6896 1.95057 68.2616 0.91626 67.8406L5.71307 65.2786C7.53186 66.0276 9.34066 66.7985 11.1435 67.5515C15.2121 69.2482 19.2484 71.0179 23.2524 72.8606C29.5605 75.7387 35.4768 79.4084 40.8587 83.7815C46.0433 88.0255 50.7961 92.7614 55.7109 97.3054C63.7565 104.743 71.7282 112.328 80.0807 119.438C78.7482 120.392 77.3881 121.309 76.0004 122.188C66.6176 114.188 57.5996 105.691 48.6286 97.2476L48.6276 97.2466ZM183.191 117.298C173.098 112.04 162.659 107.449 152.668 101.988C144.467 97.5036 136.592 92.3106 130 85.6316C125.116 80.6172 120.985 74.9193 117.739 68.7166C116.102 65.6325 114.622 62.4675 113.306 59.2337C112.575 57.4527 111.865 55.6615 111.143 53.8755C112.244 52.3911 113.497 51.026 114.882 49.8025C116.294 53.2425 117.626 56.7155 119.105 60.1265C123.062 69.5975 128.969 78.1279 136.441 85.1616C150.919 98.4826 169.94 105.461 187.149 114.429C188.135 114.943 186.767 116.295 186.329 116.615C185.669 117.127 184.871 117.432 184.038 117.491C183.744 117.496 183.454 117.43 183.192 117.299L183.191 117.298ZM65.7602 85.9737C57.5497 77.0217 48.8714 68.3737 38.929 61.3377C35.07 58.6004 31.011 56.1571 26.7861 54.0286L31.46 51.5335C36.4228 54.1062 41.1593 57.0946 45.6186 60.4666C55.3461 67.8026 63.8475 76.6025 72.009 85.6055C78.7915 93.0875 85.2433 100.906 92.5164 107.906C91.5058 109.155 90.4398 110.362 89.3185 111.526C80.8771 103.598 73.584 94.5006 65.7612 85.9746L65.7602 85.9737ZM80.4315 71.2175C77.1811 65.7792 73.5054 60.607 69.4388 55.7495C65.8774 51.8454 61.5935 48.6692 56.8241 46.3965C54.072 44.9965 51.1969 43.7736 48.3178 42.5386L53.0436 40.0166C56.7788 41.5364 60.4185 43.2815 63.9424 45.2424C68.5672 47.9858 72.6294 51.583 75.9135 55.8425C79.763 60.8538 83.3067 66.093 86.5254 71.5315C91.0654 78.9085 95.5854 86.4225 100.757 93.4195C100.116 95.2021 99.3685 96.9446 98.5184 98.6375C91.7699 90.0135 86.2226 80.4905 80.4324 71.2185L80.4315 71.2175ZM94.5061 55.1174C92.4038 50.2185 89.7626 45.5693 86.6313 41.2556C83.6037 37.4938 79.9374 34.2953 75.8005 31.8066C74.6746 31.0766 73.5297 30.3738 72.3658 29.6985L77.0027 27.2236C78.681 28.2183 80.3182 29.2737 81.9145 30.3897C85.8513 33.0503 89.2832 36.3911 92.0497 40.2556C95.0336 44.6624 97.5654 49.359 99.6067 54.2744C101.581 58.8544 103.164 63.6206 104.829 68.3516C104.274 71.9446 104.007 75.6227 103.64 79.2647C100.292 71.3577 98.0318 62.9606 94.5071 55.1226L94.5061 55.1174ZM106.29 43.0525C103.395 37.6904 99.8272 32.7209 95.6723 28.2647C93.3848 25.7587 90.9645 23.3876 88.4531 21.1125L92.9182 18.7305C96.2853 21.7837 99.4521 25.0512 102.399 28.5125C106.291 33.0876 109.572 38.1501 112.159 43.5725C113.019 45.3835 113.814 47.2215 114.582 49.0725C113.184 50.237 111.911 51.544 110.784 52.9724C109.411 49.6154 107.985 46.2746 106.291 43.0576L106.29 43.0525Z" fill="#3B3430"/>
</svg>
