<svg width="147" height="151" viewBox="0 0 147 151" fill="none" xmlns="http://www.w3.org/2000/svg">
<path d="M84.4581 45.0509C87.4561 52.5677 91.328 59.4527 96.946 65.2481C101.891 70.3502 107.806 74.302 113.971 77.7102C121.48 81.8609 129.33 85.3414 136.918 89.3354C137.659 89.7249 138.667 89.2607 139.285 88.7998C139.616 88.5524 140.652 87.5079 139.91 87.1172C126.974 80.3089 112.665 75.0279 101.802 64.8629C96.1947 59.4927 91.7732 52.9681 88.8253 45.7146C87.7206 43.1033 86.7313 40.4391 85.6787 37.8044C84.6308 38.7494 83.6818 39.8027 82.8474 40.947C83.3836 42.3154 83.9145 43.6866 84.4581 45.0509Z" fill="#554140"/>
<path d="M79.1888 32.4934C80.4562 34.9585 81.5204 37.5193 82.5415 40.0993C83.3984 38.9948 84.3654 37.9834 85.4268 37.0815C84.8574 35.6613 84.2608 34.2533 83.6181 32.8654C81.684 28.7126 79.2253 24.8387 76.3038 21.3409C74.0929 18.6926 71.7151 16.1939 69.1852 13.8603L65.8073 15.7104C67.6942 17.4479 69.5136 19.2598 71.2312 21.1743C74.3504 24.5818 77.0246 28.3857 79.1888 32.4934Z" fill="#554140"/>
<path d="M64.4667 31.1366C66.8158 34.4394 68.7938 38.0016 70.3643 41.7574C72.9996 47.7668 74.6752 54.2113 77.1756 60.2781C77.4649 57.4766 77.679 54.6493 78.1117 51.8857C76.8709 48.2572 75.6927 44.6005 74.2184 41.0886C72.6945 37.3196 70.7993 33.7204 68.5616 30.3456C66.4872 27.3873 63.9077 24.8341 60.9441 22.8057C59.7438 21.9528 58.5112 21.1486 57.2461 20.3931L53.7369 22.3146C54.6127 22.8285 55.4748 23.3634 56.3234 23.9194C59.4379 25.8156 62.1945 28.2587 64.4667 31.1366Z" fill="#554140"/>
<path d="M77.6511 61.4887C78.3997 63.2428 79.248 64.9502 80.1919 66.6022C82.464 70.6349 85.6103 74.0804 89.3935 76.6787C93.3553 79.2057 97.5689 81.3024 101.966 82.9349C106.946 84.925 111.825 87.0729 116.67 89.3776C121.56 91.71 126.446 94.0512 131.487 96.0404C132.589 96.4772 135.555 94.2437 133.928 93.6032C124.911 90.0442 116.425 85.2678 107.42 81.682C102.985 80.0566 98.6799 78.0947 94.5389 75.8127C90.496 73.5081 87.0527 70.2591 84.4888 66.3296C81.8601 62.2541 80.1156 57.7504 78.5278 53.1728C78.1563 55.8454 77.9682 58.5493 77.6828 61.2276L77.6511 61.4887Z" fill="#554140"/>
<path d="M73.7963 75.8579C74.2328 76.4196 74.6738 76.9771 75.1248 77.5274C80.6598 84.4377 87.8184 89.8084 95.9472 93.149C105.402 96.9534 115.537 98.5796 125.141 101.914C126.261 102.303 129.217 100.046 127.58 99.4782C119.03 96.5127 110.08 94.8969 101.538 91.9016C93.173 89.0259 85.6947 83.9992 79.8216 77.3043C78.3014 75.5638 76.8677 73.7482 75.4969 71.8825C75.2715 72.5164 75.0269 73.1458 74.7632 73.7707C74.4627 74.4793 74.1404 75.175 73.7963 75.8579Z" fill="#554140"/>
<path d="M51.5772 42.2641C54.6291 45.9783 57.3846 49.9358 59.8178 54.0994C64.1537 61.1978 68.3049 68.4912 73.3627 75.0933C74.0096 73.7889 74.5795 72.4468 75.0694 71.0744C71.1923 65.7214 67.8101 59.9679 64.4113 54.319C62.0024 50.155 59.3476 46.1452 56.4615 42.3113C53.9999 39.0522 50.9481 36.3048 47.4684 34.2154C44.8168 32.725 42.0775 31.4004 39.2654 30.2488L35.6919 32.2063C37.8595 33.1433 40.0242 34.0749 42.095 35.1353C45.6848 36.8601 48.9051 39.2811 51.5772 42.2641Z" fill="#554140"/>
<path d="M48.8059 65.4278C54.6706 71.9416 60.1365 78.8962 66.4712 84.9527C67.3192 84.0534 68.1269 83.1224 68.8943 82.1596C63.4367 76.8108 58.603 70.8353 53.5165 65.1191C47.3972 58.2404 41.0161 51.5183 33.7146 45.9273C30.366 43.3568 26.8069 41.0819 23.0755 39.127L19.5444 41.062C22.721 42.6788 25.7716 44.5377 28.6703 46.6229C36.1397 51.9856 42.6474 58.5889 48.8059 65.4278Z" fill="#554140"/>
<path d="M67.7779 86.4276C74.3958 92.5473 81.8897 97.6076 90.0076 101.438C99.3701 105.792 109.444 108.379 119.743 109.073C120.206 109.054 120.659 108.928 121.069 108.703C121.478 108.479 121.832 108.162 122.105 107.778C122.56 107.077 122.238 106.635 121.481 106.582C103.304 105.312 86.1962 97.7561 72.4767 85.7492C71.3999 84.8065 70.3537 83.8322 69.3279 82.8382C68.558 83.7936 67.7491 84.7158 66.9012 85.6048C67.1919 85.8805 67.4826 86.1561 67.7779 86.4276Z" fill="#554140"/>
<path d="M10.6113 56.1529C15.6052 58.389 20.4212 60.7782 24.8056 64.1059C28.7068 67.2088 32.4303 70.536 35.9582 74.0715C42.6837 80.5125 49.4451 86.9946 56.4857 93.0912C57.532 92.4113 58.5605 91.7028 59.5714 90.966C53.3067 85.545 47.3299 79.7589 41.3002 74.0877C37.6154 70.6212 34.053 67.0069 30.1638 63.7722C26.1247 60.4373 21.6797 57.6449 16.9364 55.4627C13.9315 54.0578 10.8985 52.7167 7.83737 51.4392C6.48345 50.868 5.12453 50.2838 3.75691 49.7174L0.133265 51.7038C0.911335 52.0225 1.68748 52.3457 2.4632 52.6648C5.19597 53.7874 7.912 54.9501 10.6113 56.1529Z" fill="#554140"/>
<path d="M56.9488 93.8028C57.4123 94.2025 57.8763 94.601 58.3409 94.9984C66.0292 101.539 74.3448 107.427 83.7568 111.117C88.8628 113.118 94.1275 113.615 99.5715 113.821C104.825 114.019 110.144 114.105 115.151 115.868C116.269 116.262 119.224 114.01 117.588 113.434C108.566 110.26 98.7208 112.455 89.5879 109.862C84.8235 108.38 80.2724 106.277 76.0473 103.603C71.7376 100.964 67.6187 98.0174 63.7214 94.7841C62.4744 93.764 61.2406 92.7268 60.0202 91.6725C59.7736 91.8551 59.5238 92.0371 59.2709 92.2185C58.5091 92.7636 57.7305 93.291 56.9488 93.8028Z" fill="#554140"/>
<path d="M115.013 115.895C110.004 114.103 104.696 113.985 99.4508 113.758C94.0148 113.521 88.7565 112.995 83.6505 110.961C74.2372 107.214 65.9085 101.274 58.2037 94.683C57.7357 94.283 57.2697 93.8819 56.8057 93.4794C57.5867 92.9679 58.3577 92.4429 59.1187 91.9044C59.3677 91.7264 59.6167 91.5445 59.8642 91.3619C61.0887 92.4222 62.3252 93.4673 63.5737 94.4974C67.4795 97.7567 71.605 100.731 75.9195 103.397C80.1498 106.098 84.7028 108.229 89.466 109.739C98.5958 112.387 108.414 110.245 117.436 113.473C118.936 114.01 116.578 115.944 115.318 115.944C115.214 115.945 115.111 115.929 115.013 115.895ZM119.609 109.088C109.327 108.335 99.2629 105.691 89.8995 101.281C81.7811 97.4022 74.2794 92.2961 67.6462 86.1342C67.3507 85.8611 67.059 85.5827 66.7665 85.3057C67.607 84.4199 68.4102 83.5013 69.1762 82.55C70.2045 83.5473 71.2522 84.5316 72.3322 85.4822C86.0783 97.5746 103.187 105.232 121.333 106.606C122.089 106.663 122.412 107.108 121.96 107.806C121.699 108.173 121.363 108.477 120.977 108.699C120.591 108.921 120.162 109.056 119.72 109.093C119.683 109.091 119.646 109.09 119.609 109.09V109.088ZM125.015 101.927C115.415 98.5397 105.299 96.8549 95.8493 92.996C87.7255 89.6091 80.5597 84.196 75.0052 77.2503C74.5552 76.6964 74.111 76.1368 73.6725 75.5717C74.012 74.8909 74.331 74.1965 74.6295 73.4887C74.8912 72.865 75.1312 72.2366 75.3532 71.6029C76.7295 73.4779 78.168 75.3016 79.692 77.05C85.583 83.7815 93.066 88.8517 101.423 91.7746C109.958 94.8188 118.895 96.4867 127.437 99.5009C128.942 100.031 126.577 101.97 125.316 101.971C125.215 101.973 125.115 101.958 125.018 101.927H125.015ZM131.366 96.0625C126.333 94.0448 121.452 91.6765 116.567 89.3174C111.728 86.9813 106.853 84.8117 101.881 82.7963C97.491 81.1394 93.2818 79.0194 89.3213 76.4707C85.539 73.8522 82.3873 70.3896 80.1037 66.3439C79.7957 65.8109 79.4997 65.2738 79.2157 64.7327C78.6157 63.5819 78.063 62.409 77.5462 61.2206C77.556 61.1332 77.5657 61.0456 77.5747 60.9597C77.8462 58.283 78.0247 55.5817 78.3802 52.9119C79.9837 57.4974 81.7432 62.0092 84.3802 66.0991C86.9545 70.0431 90.4015 73.3108 94.4415 75.6369C98.5803 77.9424 102.882 79.9282 107.31 81.5779C116.304 85.2136 124.785 90.0369 133.785 93.6457C135.267 94.2387 132.953 96.1261 131.697 96.1261C131.584 96.1262 131.472 96.1048 131.366 96.0632L131.366 96.0625ZM35.8154 73.9575C32.2827 70.4033 28.5562 67.0562 24.6539 63.9326C20.2694 60.5815 15.4566 58.1649 10.4691 55.9009C7.77658 54.6785 5.06457 53.5023 2.33306 52.3719C1.55906 52.049 0.784308 51.7206 0.00805664 51.3976L3.60806 49.4321C4.97307 50.0067 6.33057 50.5981 7.68357 51.1758C10.7371 52.4775 13.7663 53.8352 16.7713 55.2489C21.5055 57.4569 25.9457 60.2723 29.9849 63.6273C33.8759 66.8832 37.4429 70.5165 41.1314 74.0026C47.1697 79.709 53.1524 85.5274 59.4209 90.9821C58.4209 91.7145 57.4002 92.4178 56.3587 93.0919C49.3169 86.9544 42.5489 80.4356 35.8161 73.9583L35.8154 73.9575ZM136.805 89.3404C129.23 85.3065 121.396 81.7843 113.898 77.5947C107.743 74.1546 101.833 70.1707 96.885 65.0466C93.2196 61.1996 90.12 56.8283 87.6833 52.0696C86.4549 49.7036 85.3444 47.2755 84.3562 44.7945C83.808 43.4281 83.2747 42.054 82.7332 40.6838C83.5594 39.545 84.4998 38.4977 85.539 37.559C86.5987 40.1981 87.5985 42.8626 88.7085 45.4794C91.6784 52.7454 96.1117 59.2899 101.72 64.6861C112.585 74.9058 126.86 80.2599 139.775 87.1392C140.516 87.5336 139.489 88.5708 139.16 88.8163C138.665 89.2094 138.066 89.4432 137.441 89.4884C137.221 89.4926 137.003 89.4421 136.806 89.3411L136.805 89.3404ZM48.6734 65.309C42.5114 58.4412 35.9984 51.8066 28.5366 46.4086C25.6404 44.3087 22.5941 42.4342 19.4234 40.8012L22.9311 38.887C26.6557 40.8608 30.2104 43.1534 33.5571 45.7403C40.8576 51.3684 47.2379 58.1196 53.3632 65.0266C58.4534 70.7667 63.2955 76.7646 68.754 82.1349C67.9955 83.0934 67.1955 84.0192 66.354 84.9122C60.0187 78.83 54.5452 71.8508 48.6742 65.3098L48.6734 65.309ZM59.6842 53.9883C57.2448 49.8161 54.4862 45.8481 51.4342 42.1215C48.7614 39.1263 45.5463 36.6895 41.9669 34.946C39.9014 33.8719 37.7436 32.9337 35.5829 31.9862L39.1296 30.0514C41.9329 31.2174 44.6644 32.5562 47.3092 34.0606C50.7801 36.1653 53.8288 38.9249 56.2934 42.1928C59.1825 46.0374 61.8421 50.0569 64.2577 54.2292C67.665 59.8888 71.0572 65.6534 74.9385 71.0214C74.4575 72.389 73.8965 73.7258 73.2585 75.0246C68.1937 68.4083 64.0304 61.1025 59.6849 53.9891L59.6842 53.9883ZM70.2472 41.6366C68.6694 37.8781 66.6872 34.3114 64.3372 31.002C62.065 28.1159 59.3134 25.6621 56.2087 23.7528C55.3637 23.1928 54.5044 22.6536 53.6309 22.1355L57.1109 20.2368C58.3704 20.9999 59.5992 21.8095 60.7972 22.6657C63.7518 24.707 66.3275 27.2699 68.4037 30.2348C70.6431 33.6156 72.5432 37.2187 74.0752 40.9898C75.5572 44.5035 76.7452 48.1601 77.9947 51.7896C77.5777 54.5461 77.3775 57.3679 77.1022 60.162C74.5897 54.0958 72.8932 47.6537 70.248 41.6405L70.2472 41.6366ZM79.0912 32.3805C76.9187 28.2667 74.2407 24.4542 71.1225 21.0354C69.4057 19.1129 67.5892 17.2938 65.7045 15.5484L69.0555 13.7209C71.5825 16.0634 73.9592 18.5701 76.1707 21.2256C79.0921 24.7355 81.5545 28.6195 83.496 32.7794C84.141 34.1688 84.738 35.5789 85.314 36.999C84.265 37.8924 83.3098 38.895 82.464 39.9909C81.4335 37.4155 80.3632 34.8525 79.092 32.3844L79.0912 32.3805Z" fill="#3B3430"/>
</svg>
