<svg width="47" height="16" viewBox="0 0 47 16" fill="none" xmlns="http://www.w3.org/2000/svg">
<path d="M2.9877 4.17083H3.88531L2.66457 0.580389H1.61821L0.397461 4.17083H1.29507L1.47459 3.60662H2.80818L2.9877 4.17083ZM1.72079 2.83724L2.14139 1.51903L2.56198 2.83724H1.72079Z" fill="white"/>
<path d="M5.70185 1.60623L5.16841 3.23218L4.63498 1.60623H3.78353L4.73243 4.17083H5.6044L6.5533 1.60623H5.70185Z" fill="white"/>
<path d="M8.59732 1.60623V1.8473C8.42806 1.65239 8.17673 1.53442 7.83307 1.53442C7.16115 1.53442 6.60719 2.12428 6.60719 2.88853C6.60719 3.65278 7.16115 4.24264 7.83307 4.24264C8.17673 4.24264 8.42806 4.12466 8.59732 3.92975V4.17083H9.3667V1.60623H8.59732ZM7.98695 3.51429C7.63303 3.51429 7.37657 3.27322 7.37657 2.88853C7.37657 2.50384 7.63303 2.26277 7.98695 2.26277C8.34086 2.26277 8.59732 2.50384 8.59732 2.88853C8.59732 3.27322 8.34086 3.51429 7.98695 3.51429Z" fill="white"/>
<path d="M9.93115 4.17083H10.7005V0.426514H9.93115V4.17083Z" fill="white"/>
<path d="M11.6482 1.38054C11.8996 1.38054 12.1099 1.17025 12.1099 0.918917C12.1099 0.667586 11.8996 0.457289 11.6482 0.457289C11.3969 0.457289 11.1866 0.667586 11.1866 0.918917C11.1866 1.17025 11.3969 1.38054 11.6482 1.38054ZM11.2635 4.17083H12.0329V1.60623H11.2635V4.17083Z" fill="white"/>
<path d="M14.1296 1.53442C13.7859 1.53442 13.5346 1.65239 13.3653 1.8473V0.580389H12.5959V4.17083H13.3653V3.92975C13.5346 4.12466 13.7859 4.24264 14.1296 4.24264C14.8015 4.24264 15.3554 3.65278 15.3554 2.88853C15.3554 2.12428 14.8015 1.53442 14.1296 1.53442ZM13.9757 3.51429C13.6218 3.51429 13.3653 3.27322 13.3653 2.88853C13.3653 2.50384 13.6218 2.26277 13.9757 2.26277C14.3296 2.26277 14.5861 2.50384 14.5861 2.88853C14.5861 3.27322 14.3296 3.51429 13.9757 3.51429Z" fill="white"/>
<path d="M15.7917 4.17083H16.561V0.426514H15.7917V4.17083Z" fill="white"/>
<path d="M17.8114 3.19628H19.6322C19.6527 3.09883 19.663 2.99624 19.663 2.88853C19.663 2.11402 19.1091 1.53442 18.3602 1.53442C17.5498 1.53442 16.9958 2.12428 16.9958 2.88853C16.9958 3.65278 17.5395 4.24264 18.4166 4.24264C18.9039 4.24264 19.2834 4.06311 19.5348 3.71433L18.9193 3.36041C18.8167 3.47326 18.6372 3.55532 18.4269 3.55532C18.1448 3.55532 17.9088 3.463 17.8114 3.19628ZM17.796 2.62181C17.8678 2.36022 18.0627 2.2166 18.3551 2.2166C18.5859 2.2166 18.8167 2.32432 18.8988 2.62181H17.796Z" fill="white"/>
<path d="M22.6127 4.24264C23.3667 4.24264 23.9719 3.65278 23.9719 2.88853C23.9719 2.12428 23.3667 1.53442 22.6127 1.53442C21.8587 1.53442 21.2535 2.12428 21.2535 2.88853C21.2535 3.65278 21.8587 4.24264 22.6127 4.24264ZM22.6127 3.49377C22.2793 3.49377 22.0228 3.2527 22.0228 2.88853C22.0228 2.52436 22.2793 2.28328 22.6127 2.28328C22.9461 2.28328 23.2025 2.52436 23.2025 2.88853C23.2025 3.2527 22.9461 3.49377 22.6127 3.49377Z" fill="white"/>
<path d="M25.91 1.53442C25.5714 1.53442 25.315 1.65752 25.1765 1.8473V1.60623H24.4071V4.17083H25.1765V2.77056C25.1765 2.40638 25.3714 2.24225 25.6535 2.24225C25.8997 2.24225 26.0997 2.391 26.0997 2.70901V4.17083H26.8691V2.59616C26.8691 1.90372 26.428 1.53442 25.91 1.53442Z" fill="white"/>
<path d="M30.1826 2.34483V1.60623H29.6543V0.888141L28.8849 1.11896V1.60623H28.4746V2.34483H28.8849V3.2527C28.8849 3.97079 29.1773 4.27341 30.1826 4.17083V3.47326C29.8441 3.49377 29.6543 3.47326 29.6543 3.2527V2.34483H30.1826Z" fill="white"/>
<path d="M32.1211 1.53442C31.7826 1.53442 31.5261 1.65752 31.3876 1.8473V0.580389H30.6182V4.17083H31.3876V2.77056C31.3876 2.40638 31.5825 2.24225 31.8646 2.24225C32.1108 2.24225 32.3109 2.391 32.3109 2.70901V4.17083H33.0803V2.59616C33.0803 1.90372 32.6391 1.53442 32.1211 1.53442Z" fill="white"/>
<path d="M34.2959 3.19628H36.1168C36.1373 3.09883 36.1476 2.99624 36.1476 2.88853C36.1476 2.11402 35.5936 1.53442 34.8447 1.53442C34.0343 1.53442 33.4804 2.12428 33.4804 2.88853C33.4804 3.65278 34.0241 4.24264 34.9012 4.24264C35.3884 4.24264 35.768 4.06311 36.0193 3.71433L35.4038 3.36041C35.3012 3.47326 35.1217 3.55532 34.9114 3.55532C34.6293 3.55532 34.3934 3.463 34.2959 3.19628ZM34.2805 2.62181C34.3523 2.36022 34.5472 2.2166 34.8396 2.2166C35.0704 2.2166 35.3012 2.32432 35.3833 2.62181H34.2805Z" fill="white"/>
<path d="M4.71453 13.5744H6.21055L4.17597 7.59029H2.43204L0.397461 13.5744H1.89348L2.19268 12.634H4.41533L4.71453 13.5744ZM2.60302 11.3517L3.30401 9.1547L4.005 11.3517H2.60302Z" fill="white"/>
<path d="M9.2341 9.18034C8.66134 9.18034 8.24246 9.37696 7.96035 9.70181V9.30002H6.67805V15.2841H7.96035V13.1726C8.24246 13.4974 8.66134 13.694 9.2341 13.694C10.354 13.694 11.2772 12.7109 11.2772 11.4372C11.2772 10.1634 10.354 9.18034 9.2341 9.18034ZM8.97764 12.4801C8.38779 12.4801 7.96035 12.0783 7.96035 11.4372C7.96035 10.796 8.38779 10.3943 8.97764 10.3943C9.5675 10.3943 9.99494 10.796 9.99494 11.4372C9.99494 12.0783 9.5675 12.4801 8.97764 12.4801Z" fill="white"/>
<path d="M14.5603 9.18034C13.9876 9.18034 13.5687 9.37696 13.2866 9.70181V9.30002H12.0043V15.2841H13.2866V13.1726C13.5687 13.4974 13.9876 13.694 14.5603 13.694C15.6802 13.694 16.6035 12.7109 16.6035 11.4372C16.6035 10.1634 15.6802 9.18034 14.5603 9.18034ZM14.3039 12.4801C13.714 12.4801 13.2866 12.0783 13.2866 11.4372C13.2866 10.796 13.714 10.3943 14.3039 10.3943C14.8937 10.3943 15.3212 10.796 15.3212 11.4372C15.3212 12.0783 14.8937 12.4801 14.3039 12.4801Z" fill="white"/>
<path d="M17.3305 13.5744H18.6128V7.33383H17.3305V13.5744Z" fill="white"/>
<path d="M20.6967 11.9501H23.7314C23.7656 11.7877 23.7827 11.6167 23.7827 11.4372C23.7827 10.1463 22.8595 9.18034 21.6114 9.18034C20.2607 9.18034 19.3374 10.1634 19.3374 11.4372C19.3374 12.7109 20.2436 13.694 21.7054 13.694C22.5175 13.694 23.1501 13.3948 23.569 12.8135L22.5432 12.2237C22.3722 12.4117 22.073 12.5485 21.7225 12.5485C21.2523 12.5485 20.8591 12.3946 20.6967 11.9501ZM20.671 10.9927C20.7907 10.5567 21.1155 10.3173 21.6028 10.3173C21.9875 10.3173 22.3722 10.4968 22.509 10.9927H20.671Z" fill="white"/>
<path d="M28.7844 13.694C30.0838 13.694 31.007 13.0101 31.007 11.8561C31.007 10.5909 29.9897 10.2746 29.0836 10.001C28.1518 9.71891 28.0064 9.53084 28.0064 9.25728C28.0064 9.01792 28.2201 8.8042 28.6476 8.8042C29.1947 8.8042 29.4768 9.06921 29.682 9.49664L30.836 8.8213C30.4001 7.94079 29.6307 7.47061 28.6476 7.47061C27.6132 7.47061 26.6386 8.13741 26.6386 9.29148C26.6386 10.437 27.5106 10.8644 28.3997 11.1123C29.2973 11.3603 29.6392 11.5056 29.6392 11.8732C29.6392 12.104 29.4768 12.3604 28.8271 12.3604C28.1518 12.3604 27.7842 12.027 27.5704 11.5312L26.3907 12.2151C26.7241 13.0956 27.5277 13.694 28.7844 13.694Z" fill="white"/>
<path d="M34.0274 10.531V9.30002H33.1468V8.10321L31.8645 8.4879V9.30002H31.1807V10.531H31.8645V12.0441C31.8645 13.241 32.3518 13.7453 34.0274 13.5744V12.4117C33.4631 12.4459 33.1468 12.4117 33.1468 12.0441V10.531H34.0274Z" fill="white"/>
<path d="M36.7216 13.694C37.9782 13.694 38.987 12.7109 38.987 11.4372C38.987 10.1634 37.9782 9.18034 36.7216 9.18034C35.4649 9.18034 34.4562 10.1634 34.4562 11.4372C34.4562 12.7109 35.4649 13.694 36.7216 13.694ZM36.7216 12.4459C36.1659 12.4459 35.7385 12.0441 35.7385 11.4372C35.7385 10.8302 36.1659 10.4284 36.7216 10.4284C37.2772 10.4284 37.7047 10.8302 37.7047 11.4372C37.7047 12.0441 37.2772 12.4459 36.7216 12.4459Z" fill="white"/>
<path d="M40.9946 10.0609V9.30002H39.7123V13.5744H40.9946V11.6424C40.9946 10.796 41.7469 10.5823 42.2769 10.6678V9.21454C41.7383 9.21454 41.1656 9.48809 40.9946 10.0609Z" fill="white"/>
<path d="M43.8966 11.9501H46.9314C46.9656 11.7877 46.9827 11.6167 46.9827 11.4372C46.9827 10.1463 46.0594 9.18034 44.8113 9.18034C43.4606 9.18034 42.5373 10.1634 42.5373 11.4372C42.5373 12.7109 43.4435 13.694 44.9053 13.694C45.7174 13.694 46.35 13.3948 46.7689 12.8135L45.7431 12.2237C45.5721 12.4117 45.2729 12.5485 44.9224 12.5485C44.4522 12.5485 44.059 12.3946 43.8966 11.9501ZM43.8709 10.9927C43.9906 10.5567 44.3155 10.3173 44.8027 10.3173C45.1874 10.3173 45.5721 10.4968 45.7089 10.9927H43.8709Z" fill="white"/>
</svg>
