<svg width="60" height="17" viewBox="0 0 60 17" fill="none" xmlns="http://www.w3.org/2000/svg">
<path d="M6.51113 3.34917H3.38222V4.59717H5.04919C4.82633 5.19442 4.28256 5.55991 3.45353 5.55991C2.24119 5.55991 1.49239 4.78437 1.49239 3.72357C1.49239 2.62711 2.27684 1.85157 3.32873 1.85157C4.03296 1.85157 4.59456 2.17248 4.85307 2.58254L6.06542 1.88722C5.53947 1.04928 4.53216 0.460938 3.33764 0.460938C1.5013 0.460938 0.0661011 1.90505 0.0661011 3.71465C0.0661011 5.50642 1.47456 6.95054 3.4357 6.95054C5.1829 6.95054 6.51113 5.79168 6.51113 3.88402V3.34917Z" fill="white"/>
<path d="M8.2958 5.45294V4.34757H10.5244V2.99259H8.2958V1.95854H10.7472V0.585737H6.86951V6.82574H10.7918V5.45294H8.2958Z" fill="white"/>
<path d="M15.3405 0.585737H10.7051V1.95854H12.3097V6.82574H13.7359V1.95854H15.3405V0.585737Z" fill="white"/>
<path d="M17.302 0.585737V6.82574H18.7283V0.585737H17.302Z" fill="white"/>
<path d="M23.5444 0.585737H18.909V1.95854H20.5136V6.82574H21.9399V1.95854H23.5444V0.585737Z" fill="white"/>
<path d="M28.4833 6.95054C30.2751 6.95054 31.7281 5.54208 31.7281 3.70574C31.7281 1.86939 30.2751 0.460938 28.4833 0.460938C26.6915 0.460938 25.2385 1.86939 25.2385 3.70574C25.2385 5.54208 26.6915 6.95054 28.4833 6.95054ZM28.4833 5.55991C27.4671 5.55991 26.6648 4.82002 26.6648 3.70574C26.6648 2.59145 27.4671 1.85157 28.4833 1.85157C29.4995 1.85157 30.3018 2.59145 30.3018 3.70574C30.3018 4.82002 29.4995 5.55991 28.4833 5.55991Z" fill="white"/>
<path d="M35.562 0.585737V3.97317L33.1552 0.585737H32.0854V6.82574H33.5117V3.43831L35.9186 6.82574H36.9883V0.585737H35.562Z" fill="white"/>
<path d="M6.51113 13.9483V14.1889C6.51113 14.9675 6.23479 15.6241 5.6821 16.159C5.12942 16.6879 4.40142 16.9524 3.4981 16.9524C2.54724 16.9524 1.76279 16.6433 1.14473 16.0253C0.526673 15.4013 0.217644 14.6376 0.217644 13.7343C0.217644 12.831 0.523701 12.0703 1.13582 11.4523C1.74793 10.8283 2.52347 10.5163 3.46244 10.5163C4.03296 10.5163 4.55593 10.6529 5.03136 10.9263C5.51273 11.1997 5.88416 11.5652 6.14564 12.0228L5.72667 12.2724C5.51867 11.8801 5.20964 11.5652 4.79959 11.3275C4.39547 11.0897 3.94976 10.9709 3.46244 10.9709C2.65422 10.9709 1.98862 11.2383 1.46564 11.7732C0.948615 12.3021 0.690101 12.9558 0.690101 13.7343C0.690101 14.5128 0.951587 15.1695 1.47456 15.7044C1.99753 16.2333 2.67204 16.4977 3.4981 16.4977C4.22907 16.4977 4.82039 16.2987 5.27204 15.9005C5.7237 15.5023 5.97627 15.0001 6.02976 14.394H3.38222V13.9483H6.51113Z" fill="white"/>
<path d="M12.8387 16.0164C12.2147 16.6404 11.4541 16.9524 10.5567 16.9524C9.65931 16.9524 8.89863 16.6404 8.27463 16.0164C7.65063 15.3864 7.33863 14.6257 7.33863 13.7343C7.33863 12.8429 7.65063 12.0852 8.27463 11.4612C8.89863 10.8312 9.65931 10.5163 10.5567 10.5163C11.4541 10.5163 12.2147 10.8312 12.8387 11.4612C13.4627 12.0852 13.7747 12.8429 13.7747 13.7343C13.7747 14.6257 13.4627 15.3864 12.8387 16.0164ZM8.60445 15.6955C9.13931 16.2303 9.79005 16.4977 10.5567 16.4977C11.3233 16.4977 11.9711 16.2303 12.5 15.6955C13.0349 15.1547 13.3023 14.5009 13.3023 13.7343C13.3023 12.9677 13.0349 12.3169 12.5 11.7821C11.9711 11.2413 11.3233 10.9709 10.5567 10.9709C9.79005 10.9709 9.13931 11.2413 8.60445 11.7821C8.07554 12.3169 7.81108 12.9677 7.81108 13.7343C7.81108 14.5009 8.07554 15.1547 8.60445 15.6955Z" fill="white"/>
<path d="M20.1164 16.0164C19.4924 16.6404 18.7317 16.9524 17.8344 16.9524C16.937 16.9524 16.1763 16.6404 15.5523 16.0164C14.9283 15.3864 14.6163 14.6257 14.6163 13.7343C14.6163 12.8429 14.9283 12.0852 15.5523 11.4612C16.1763 10.8312 16.937 10.5163 17.8344 10.5163C18.7317 10.5163 19.4924 10.8312 20.1164 11.4612C20.7404 12.0852 21.0524 12.8429 21.0524 13.7343C21.0524 14.6257 20.7404 15.3864 20.1164 16.0164ZM15.8821 15.6955C16.417 16.2303 17.0677 16.4977 17.8344 16.4977C18.601 16.4977 19.2488 16.2303 19.7777 15.6955C20.3125 15.1547 20.58 14.5009 20.58 13.7343C20.58 12.9677 20.3125 12.3169 19.7777 11.7821C19.2488 11.2413 18.601 10.9709 17.8344 10.9709C17.0677 10.9709 16.417 11.2413 15.8821 11.7821C15.3532 12.3169 15.0888 12.9677 15.0888 13.7343C15.0888 14.5009 15.3532 15.1547 15.8821 15.6955Z" fill="white"/>
<path d="M28.1875 13.9483V14.1889C28.1875 14.9675 27.9111 15.6241 27.3584 16.159C26.8058 16.6879 26.0778 16.9524 25.1744 16.9524C24.2236 16.9524 23.4391 16.6433 22.8211 16.0253C22.203 15.4013 21.894 14.6376 21.894 13.7343C21.894 12.831 22.2 12.0703 22.8122 11.4523C23.4243 10.8283 24.1998 10.5163 25.1388 10.5163C25.7093 10.5163 26.2323 10.6529 26.7077 10.9263C27.1891 11.1997 27.5605 11.5652 27.822 12.0228L27.403 12.2724C27.195 11.8801 26.886 11.5652 26.4759 11.3275C26.0718 11.0897 25.6261 10.9709 25.1388 10.9709C24.3306 10.9709 23.665 11.2383 23.142 11.7732C22.625 12.3021 22.3664 12.9558 22.3664 13.7343C22.3664 14.5128 22.6279 15.1695 23.1509 15.7044C23.6739 16.2333 24.3484 16.4977 25.1744 16.4977C25.9054 16.4977 26.4967 16.2987 26.9484 15.9005C27.4 15.5023 27.6526 15.0001 27.7061 14.394H25.0586V13.9483H28.1875Z" fill="white"/>
<path d="M29.844 16.4086H32.7857V16.8543H29.3715V10.6143H29.844V16.4086Z" fill="white"/>
<path d="M34.2402 16.4086H37.3602V16.8543H33.7677V10.6143H37.3156V11.06H34.2402V13.4847H37.0928V13.9304H34.2402V16.4086Z" fill="white"/>
<path d="M43.019 10.6143C43.5777 10.6143 44.0412 10.7985 44.4097 11.167C44.7781 11.5355 44.9623 11.996 44.9623 12.5487C44.9623 13.1014 44.7781 13.562 44.4097 13.9304C44.0412 14.2929 43.5777 14.4742 43.019 14.4742H41.3699V16.8543H40.8974V10.6143H43.019ZM43.019 14.0285C43.4469 14.0285 43.7975 13.8888 44.0709 13.6095C44.3502 13.3302 44.4899 12.9766 44.4899 12.5487C44.4899 12.1149 44.3502 11.7583 44.0709 11.479C43.7975 11.1997 43.4469 11.06 43.019 11.06H41.3699V14.0285H43.019Z" fill="white"/>
<path d="M46.6018 16.4086H49.5435V16.8543H46.1294V10.6143H46.6018V16.4086Z" fill="white"/>
<path d="M54.8983 16.8543L54.2921 15.2676H51.1632L50.557 16.8543H50.0578L52.4825 10.6143H52.9817L55.3975 16.8543H54.8983ZM51.3415 14.8219H54.1227L52.7321 11.1937L51.3415 14.8219Z" fill="white"/>
<path d="M59.8374 10.6143L57.5642 14.287V16.8543H57.0918V14.287L54.8186 10.6143H55.3535L57.3324 13.8324L59.3025 10.6143H59.8374Z" fill="white"/>
</svg>
