<svg width="196" height="197" viewBox="0 0 196 197" fill="none" xmlns="http://www.w3.org/2000/svg">
<path d="M112.62 58.6801C116.652 68.4947 121.84 77.4922 129.339 85.0822C135.939 91.764 143.821 96.9541 152.03 101.438C162.028 106.898 172.475 111.487 182.579 116.744C183.564 117.256 184.9 116.659 185.717 116.062C186.155 115.742 187.524 114.389 186.536 113.874C169.313 104.914 150.277 97.9336 135.784 84.614C128.302 77.5781 122.387 69.0464 118.423 59.5752C116.938 56.1652 115.607 52.6871 114.191 49.2471C112.806 50.4711 111.553 51.8368 110.453 53.322C111.174 55.1085 111.889 56.8988 112.62 58.6801Z" fill="#554140"/>
<path d="M105.592 42.4979C107.289 45.7161 108.718 49.0574 110.089 52.4234C111.218 50.9914 112.493 49.6813 113.894 48.5145C113.13 46.6616 112.329 44.8244 111.467 43.013C108.875 37.593 105.588 32.5324 101.691 27.9583C98.7409 24.4951 95.5711 21.2255 92.2007 18.1699L87.7343 20.555C90.2481 22.8302 92.6728 25.2018 94.9634 27.7062C99.1224 32.1641 102.694 37.135 105.592 42.4979V42.4979Z" fill="#554140"/>
<path d="M85.921 40.7067C89.0566 45.0218 91.7022 49.672 93.8089 54.5713C97.3422 62.4112 99.6066 70.8109 102.962 78.7245C103.326 75.0802 103.59 71.4018 104.145 67.8078C102.476 63.0764 100.89 58.3088 98.912 53.7275C96.8668 48.8114 94.3308 44.1136 91.3424 39.7055C88.5732 35.8407 85.1374 32.4996 81.1961 29.8389C79.5996 28.7205 77.9606 27.6652 76.279 26.6731L71.6414 29.1497C72.8055 29.8246 73.9517 30.5269 75.0801 31.2565C79.2204 33.7461 82.8902 36.9451 85.921 40.7067V40.7067Z" fill="#554140"/>
<path d="M103.554 80.0905C104.561 82.3825 105.7 84.6141 106.966 86.7742C110.012 92.0472 114.217 96.5608 119.262 99.9743C124.544 103.296 130.158 106.059 136.012 108.217C142.643 110.846 149.142 113.68 155.595 116.719C162.11 119.793 168.619 122.879 175.331 125.507C176.798 126.085 180.725 123.194 178.558 122.347C166.552 117.645 155.243 111.359 143.251 106.622C137.347 104.472 131.612 101.885 126.094 98.8811C120.705 95.8486 116.108 91.5892 112.674 86.4488C109.153 81.1176 106.804 75.2343 104.663 69.2559C104.187 72.7372 103.956 76.2608 103.595 79.7503L103.554 80.0905Z" fill="#554140"/>
<path d="M98.3984 98.8124C98.9827 99.5483 99.5731 100.279 100.177 101C107.585 110.052 117.143 117.108 127.978 121.522C140.579 126.551 154.069 128.743 166.866 133.159C168.358 133.674 172.273 130.751 170.093 129.999C158.701 126.071 146.786 123.901 135.405 119.934C124.26 116.125 114.279 109.515 106.422 100.741C104.388 98.4602 102.469 96.0818 100.633 93.6386C100.338 94.4639 100.017 95.2832 99.6701 96.0965C99.2753 97.0188 98.8514 97.9241 98.3984 98.8124Z" fill="#554140"/>
<path d="M68.7213 55.2039C72.7946 60.0615 76.4765 65.2338 79.7323 70.6724C85.5318 79.9457 91.0877 89.4715 97.8414 98.1036C98.6906 96.4095 99.4375 94.6659 100.078 92.8823C94.8987 85.885 90.3734 78.3695 85.8267 70.9902C82.6031 65.5514 79.0545 60.3116 75.2002 55.2993C71.9129 51.0384 67.8462 47.4397 63.2165 44.6948C59.6892 42.7356 56.0467 40.9918 52.3089 39.4728L47.5822 41.9969C50.4637 43.232 53.3414 44.4601 56.0953 45.8552C60.8687 48.1262 65.1567 51.3011 68.7213 55.2039V55.2039Z" fill="#554140"/>
<path d="M65.0635 85.4415C72.8938 93.9683 80.1975 103.066 88.6486 111.001C89.7683 109.835 90.8342 108.628 91.8465 107.379C84.5645 100.373 78.1068 92.5544 71.3151 85.072C63.1445 76.0682 54.6272 67.2664 44.8958 59.9318C40.4327 56.5597 35.6923 53.5713 30.7252 50.9986L26.0506 53.4949C30.2789 55.6233 34.3414 58.0662 38.2038 60.803C48.1566 67.8413 56.841 76.4891 65.0635 85.4415Z" fill="#554140"/>
<path d="M90.3715 112.586C99.2183 120.618 109.224 127.273 120.051 132.328C132.537 138.075 145.958 141.52 159.667 142.498C160.282 142.476 160.884 142.314 161.427 142.024C161.97 141.735 162.44 141.324 162.799 140.825C163.401 139.913 162.969 139.334 161.962 139.259C137.768 137.476 114.955 127.497 96.6186 111.734C95.1795 110.496 93.7808 109.218 92.4092 107.913C91.3914 109.155 90.3214 110.353 89.1994 111.507C89.588 111.868 89.9767 112.23 90.3715 112.586Z" fill="#554140"/>
<path d="M14.1233 73.1887C20.7745 76.1384 27.1903 79.2864 33.039 83.6546C38.2442 87.7266 43.2147 92.0897 47.9267 96.723C56.9075 105.166 65.9363 113.663 75.3335 121.659C76.7191 120.78 78.0811 119.864 79.4193 118.91C71.0577 111.8 63.0763 104.216 55.0253 96.7812C50.1052 92.2369 45.3468 87.5007 40.1568 83.257C34.7669 78.8816 28.8413 75.2106 22.5235 72.333C18.521 70.4808 14.4815 68.7114 10.4052 67.0249C8.60217 66.2708 6.79245 65.4998 4.97128 64.752L0.16967 67.3161C1.20575 67.737 2.2393 68.1638 3.27226 68.5852C6.91124 70.0675 10.5283 71.602 14.1233 73.1887Z" fill="#554140"/>
<path d="M75.9249 122.167C76.5446 122.692 77.1649 123.216 77.7859 123.738C88.0637 132.328 99.172 140.072 111.725 144.954C118.534 147.603 125.545 148.287 132.793 148.594C139.787 148.889 146.866 149.038 153.543 151.376C155.033 151.896 158.951 148.978 156.77 148.215C144.739 144.009 131.651 146.806 119.477 143.357C113.126 141.39 107.054 138.612 101.412 135.093C95.6577 131.618 90.1554 127.743 84.946 123.495C83.2792 122.155 81.63 120.793 79.9984 119.408C79.6714 119.645 79.3402 119.881 79.0048 120.116C77.9946 120.822 76.9618 121.505 75.9249 122.167Z" fill="#554140"/>
<path d="M153.343 151.196C146.664 148.86 139.587 148.706 132.593 148.41C125.345 148.101 118.334 147.416 111.526 144.765C98.9749 139.881 87.8699 132.138 77.5969 123.547C76.9729 123.025 76.3516 122.502 75.7329 121.978C76.7743 121.311 77.8023 120.627 78.8169 119.925C79.1489 119.693 79.4809 119.456 79.8109 119.218C81.4436 120.6 83.0923 121.962 84.7569 123.305C89.9647 127.553 95.4653 131.429 101.218 134.905C106.858 138.425 112.929 141.204 119.28 143.172C131.453 146.623 144.544 143.832 156.573 148.039C158.573 148.739 155.429 151.26 153.749 151.26C153.611 151.261 153.474 151.24 153.343 151.196V151.196ZM159.471 142.323C145.762 141.342 132.342 137.895 119.858 132.147C109.033 127.091 99.0312 120.435 90.1869 112.404C89.7929 112.048 89.4039 111.685 89.0139 111.324C90.1346 110.169 91.2056 108.972 92.2269 107.732C93.5979 109.032 94.9949 110.315 96.4349 111.554C114.763 127.316 137.575 137.297 161.769 139.088C162.777 139.162 163.208 139.742 162.605 140.653C162.257 141.13 161.81 141.527 161.295 141.816C160.779 142.106 160.208 142.281 159.619 142.33C159.569 142.327 159.52 142.326 159.471 142.326V142.323ZM166.679 132.989C153.879 128.574 140.391 126.378 127.791 121.348C116.959 116.933 107.405 109.877 99.9989 100.824C99.3989 100.102 98.8066 99.3724 98.2219 98.6357C98.6746 97.7484 99.0999 96.8433 99.4979 95.9207C99.8469 95.1077 100.167 94.2886 100.463 93.4626C102.298 95.9066 104.216 98.2837 106.248 100.563C114.103 109.337 124.08 115.946 135.223 119.756C146.603 123.724 158.518 125.898 169.908 129.827C171.914 130.518 168.761 133.045 167.08 133.046C166.945 133.048 166.811 133.029 166.683 132.989H166.679ZM175.146 125.345C168.436 122.715 161.928 119.628 155.414 116.553C148.963 113.508 142.463 110.68 135.833 108.053C129.98 105.893 124.368 103.13 119.087 99.8076C114.044 96.3945 109.842 91.8812 106.797 86.6077C106.386 85.913 105.992 85.2129 105.613 84.5076C104.813 83.0076 104.076 81.4787 103.387 79.9297C103.4 79.8157 103.413 79.7016 103.425 79.5896C103.787 76.1006 104.025 72.5796 104.499 69.0996C106.637 75.0766 108.983 80.9576 112.499 86.2886C115.931 91.4294 120.527 95.6887 125.914 98.7207C131.432 101.726 137.168 104.314 143.072 106.465C155.064 111.204 166.372 117.491 178.372 122.195C180.348 122.968 177.263 125.428 175.588 125.428C175.437 125.428 175.288 125.4 175.147 125.346L175.146 125.345ZM47.7459 96.5317C43.0356 91.8989 38.067 87.5361 32.8639 83.4646C27.0179 79.0966 20.6009 75.9466 13.9509 72.9956C10.3609 71.4023 6.74493 69.8691 3.10293 68.3958C2.07093 67.9748 1.03793 67.5467 0.00292969 67.1257L4.80293 64.5637C6.62293 65.3127 8.43293 66.0837 10.2369 66.8367C14.3083 68.5333 18.3473 70.3031 22.3539 72.1458C28.6662 75.0238 34.5864 78.6935 39.9719 83.0667C45.1599 87.3107 49.9159 92.0466 54.8339 96.5906C62.8849 104.029 70.8619 111.613 79.2199 118.723C77.8866 119.677 76.5256 120.594 75.1369 121.473C65.7479 113.473 56.7239 104.976 47.7469 96.5327L47.7459 96.5317ZM182.399 116.583C172.299 111.325 161.853 106.734 151.856 101.273C143.649 96.7887 135.769 91.5957 129.172 84.9167C124.285 79.9023 120.152 74.2045 116.903 68.0017C115.265 64.9176 113.785 61.7527 112.467 58.5188C111.736 56.7378 111.025 54.9466 110.303 53.1606C111.405 51.6763 112.658 50.3112 114.044 49.0876C115.457 52.5276 116.79 56.0006 118.27 59.4116C122.23 68.8826 128.141 77.4131 135.618 84.4468C150.105 97.7678 169.139 104.747 186.359 113.714C187.346 114.228 185.977 115.58 185.539 115.9C184.878 116.412 184.08 116.717 183.246 116.776C182.953 116.781 182.662 116.715 182.4 116.584L182.399 116.583ZM64.8899 85.2588C56.6739 76.3068 47.9899 67.6588 38.0409 60.6228C34.1794 57.8856 30.1176 55.4423 25.8899 53.3137L30.5669 50.8186C35.5331 53.3914 40.2727 56.3798 44.7349 59.7517C54.4689 67.0877 62.9759 75.8876 71.1429 84.8906C77.9299 92.3726 84.3859 100.191 91.6639 107.191C90.6526 108.44 89.5859 109.647 88.4639 110.811C80.0169 102.883 72.7189 93.7858 64.8909 85.2598L64.8899 85.2588ZM79.5709 70.5027C76.3185 65.0643 72.6403 59.8921 68.5709 55.0347C65.0072 51.1306 60.7205 47.9543 55.9479 45.6816C53.1939 44.2816 50.3169 43.0587 47.4359 41.8237L52.1649 39.3018C55.9026 40.8216 59.5446 42.5666 63.0709 44.5276C67.6988 47.271 71.7637 50.8681 75.0499 55.1277C78.902 60.139 82.4481 65.3781 85.6689 70.8167C90.2119 78.1937 94.7349 85.7076 99.9099 92.7046C99.2686 94.4873 98.5206 96.2298 97.6699 97.9226C90.9169 89.2986 85.3659 79.7757 79.5719 70.5037L79.5709 70.5027ZM93.6549 54.4026C91.5512 49.5036 88.9082 44.8545 85.7749 40.5408C82.7453 36.779 79.0766 33.5804 74.9369 31.0918C73.8103 30.3618 72.6646 29.659 71.4999 28.9836L76.1399 26.5088C77.8193 27.5035 79.4576 28.5588 81.0549 29.6748C84.9944 32.3355 88.4286 35.6762 91.1969 39.5408C94.1827 43.9475 96.7163 48.6441 98.7589 53.5596C100.735 58.1396 102.319 62.9057 103.985 67.6367C103.429 71.2297 103.162 74.9078 102.795 78.5498C99.4449 70.6428 97.1829 62.2457 93.6559 54.4077L93.6549 54.4026ZM105.447 42.3376C102.55 36.9755 98.9796 32.006 94.8219 27.5498C92.5329 25.0438 90.1109 22.6727 87.5979 20.3977L92.0659 18.0156C95.4353 21.0689 98.6043 24.3363 101.553 27.7976C105.448 32.3727 108.731 37.4353 111.32 42.8577C112.18 44.6687 112.976 46.5067 113.744 48.3577C112.345 49.5222 111.072 50.8291 109.944 52.2576C108.57 48.9006 107.143 45.5598 105.448 42.3428L105.447 42.3376Z" fill="#3B3430"/>
</svg>
