<svg width="170" height="176" viewBox="0 0 170 176" fill="none" xmlns="http://www.w3.org/2000/svg">
<path d="M98.0742 52.5627C101.517 61.3065 105.971 69.3125 112.445 76.045C118.142 81.9721 124.964 86.5574 132.074 90.5091C140.735 95.3217 149.792 99.353 158.546 103.983C159.399 104.434 160.565 103.891 161.28 103.353C161.663 103.064 162.862 101.845 162.006 101.392C147.085 93.4999 130.573 87.3895 118.053 75.5835C111.592 69.3459 106.502 61.7611 103.116 53.3237C101.847 50.2862 100.711 47.187 99.5023 44.1223C98.2897 45.2254 97.1911 46.4543 96.2246 47.7888C96.8403 49.3805 97.45 50.9757 98.0742 52.5627Z" fill="#554140"/>
<path d="M92.0005 37.8725C93.4587 40.7404 94.682 43.7201 95.8554 46.7225C96.8484 45.4337 97.9684 44.253 99.1973 43.1997C98.5428 41.5471 97.857 39.9088 97.1179 38.294C94.8935 33.4622 92.0622 28.9566 88.6952 24.8905C86.1471 21.8119 83.4057 18.9079 80.4883 16.1967L76.5801 18.3607C78.7561 20.3794 80.8539 22.4849 82.8339 24.7101C86.4296 28.6706 89.5101 33.0939 92.0005 37.8725V37.8725Z" fill="#554140"/>
<path d="M75.0461 36.3017C77.7528 40.1426 80.03 44.2867 81.8356 48.6573C84.8662 55.6502 86.7864 63.1525 89.661 70.2126C90.0025 66.9485 90.2572 63.6547 90.7643 60.4344C89.3395 56.2111 87.987 51.9548 86.292 47.8679C84.5402 43.4817 82.3588 39.2943 79.7811 35.3692C77.391 31.9289 74.4161 28.9617 70.9959 26.607C69.6107 25.6167 68.188 24.6833 66.7278 23.8067L62.6668 26.0543C63.6778 26.6505 64.6729 27.2714 65.6523 27.9168C69.2473 30.1171 72.4272 32.9555 75.0461 36.3017V36.3017Z" fill="#554140"/>
<path d="M90.2242 71.7039C91.0839 73.7438 92.0589 75.7289 93.1443 77.6494C95.7571 82.3376 99.3805 86.3398 103.741 89.3542C108.309 92.2851 113.168 94.7144 118.239 96.6028C123.984 98.9061 129.611 101.393 135.198 104.063C140.838 106.765 146.472 109.477 152.286 111.779C153.557 112.284 156.988 109.677 155.11 108.935C144.71 104.817 134.926 99.2796 124.539 95.1298C119.424 93.2497 114.458 90.9775 109.684 88.3323C105.022 85.6605 101.055 81.8877 98.1055 77.3206C95.0813 72.5836 93.0788 67.3457 91.2574 62.0215C90.8218 65.1335 90.5977 68.2814 90.2614 71.3998L90.2242 71.7039Z" fill="#554140"/>
<path d="M85.7858 88.4337C86.288 89.0863 86.7956 89.7339 87.3146 90.3731C93.6844 98.3998 101.932 104.631 111.304 108.496C122.206 112.898 133.896 114.763 144.971 118.618C146.263 119.067 149.679 116.433 147.792 115.777C137.933 112.349 127.609 110.492 117.759 107.03C108.113 103.706 99.4959 97.876 92.7353 90.1008C90.9854 88.0795 89.3356 85.9704 87.7584 83.803C87.4967 84.5413 87.2128 85.2744 86.9069 86.0023C86.5584 86.8277 86.1847 87.6382 85.7858 88.4337Z" fill="#554140"/>
<path d="M60.1921 49.2577C63.7086 53.5751 66.8822 58.1767 69.6829 63.0192C74.6743 71.2744 79.4519 79.7572 85.2787 87.4326C86.0295 85.9117 86.6914 84.3472 87.2609 82.7476C82.795 76.5238 78.9019 69.8322 74.9895 63.2625C72.2169 58.4196 69.1599 53.7569 65.8351 49.2996C62.9994 45.5106 59.4804 42.3192 55.4654 39.8952C52.4056 38.1665 49.2441 36.6312 45.998 35.2977L41.8643 37.587C44.3662 38.6724 46.8649 39.7515 49.2547 40.9809C53.3979 42.98 57.1124 45.7909 60.1921 49.2577V49.2577Z" fill="#554140"/>
<path d="M56.9833 76.2055C63.7401 83.7742 70.0351 91.8572 77.3359 98.8923C78.3175 97.8429 79.2527 96.7567 80.1415 95.6335C73.8519 89.4202 68.2846 82.4755 62.4245 75.8334C55.3747 67.8405 48.022 60.0306 39.6035 53.5403C35.7426 50.5562 31.6379 47.917 27.3333 45.6508L23.2503 47.9133C26.915 49.7873 30.4334 51.9436 33.7759 54.3637C42.389 60.5879 49.888 68.2591 56.9833 76.2055Z" fill="#554140"/>
<path d="M78.849 100.739C86.4692 107.842 95.103 113.71 104.46 118.145C115.251 123.187 126.868 126.169 138.75 126.949C139.284 126.926 139.807 126.777 140.28 126.515C140.753 126.253 141.163 125.884 141.478 125.436C142.006 124.619 141.634 124.106 140.761 124.046C119.792 122.617 100.072 113.871 84.2723 99.9373C83.0322 98.8433 81.8276 97.7125 80.6465 96.5586C79.7557 97.6724 78.8201 98.7476 77.8395 99.7843C78.1743 100.104 78.509 100.424 78.849 100.739Z" fill="#554140"/>
<path d="M12.959 65.4714C18.7186 68.061 24.2724 70.8292 29.3256 74.6911C33.8215 78.2926 38.1117 82.1557 42.1756 86.2618C49.9235 93.7416 57.7128 101.269 65.8254 108.347C67.035 107.553 68.2243 106.725 69.3932 105.865C62.1745 99.5712 55.2894 92.8518 48.3426 86.2663C44.0975 82.2409 39.994 78.0433 35.5123 74.2883C30.8578 70.417 25.7333 67.1784 20.2629 64.6509C16.7974 63.0237 13.2993 61.4706 9.7686 59.9918C8.207 59.3304 6.63966 58.6541 5.06223 57.9984L0.873786 60.3204C1.77123 60.6893 2.66644 61.0635 3.56117 61.4329C6.7132 62.7323 9.84581 64.0785 12.959 65.4714Z" fill="#554140"/>
<path d="M66.368 109.337C66.9017 109.801 67.436 110.263 67.9709 110.724C76.8239 118.312 86.4022 125.14 97.251 129.408C103.136 131.723 109.209 132.286 115.489 132.511C121.549 132.728 127.685 132.813 133.457 134.852C134.745 135.306 138.16 132.678 136.275 132.013C125.874 128.345 114.511 130.925 103.981 127.932C98.4885 126.221 93.2435 123.786 88.3761 120.687C83.4109 117.629 78.6667 114.211 74.1788 110.46C72.7427 109.277 71.322 108.074 69.9167 106.85C69.6317 107.063 69.3431 107.276 69.0509 107.488C68.1707 108.124 67.2711 108.739 66.368 109.337Z" fill="#554140"/>
<path d="M133.305 134.966C127.53 132.879 121.412 132.742 115.365 132.477C109.098 132.201 103.037 131.59 97.1507 129.222C86.2993 124.86 76.6981 117.945 67.8162 110.272C67.2767 109.807 66.7395 109.34 66.2046 108.871C67.105 108.276 67.9937 107.665 68.871 107.038C69.1581 106.831 69.4451 106.619 69.7304 106.406C71.142 107.641 72.5674 108.857 74.0066 110.056C78.5092 113.851 83.2649 117.312 88.2385 120.416C93.1151 123.56 98.3638 126.042 103.855 127.799C114.379 130.881 125.697 128.389 136.098 132.146C137.827 132.771 135.108 135.023 133.656 135.023C133.537 135.024 133.418 135.005 133.305 134.966V134.966ZM138.603 127.041C126.75 126.165 115.148 123.086 104.354 117.953C94.9957 113.438 86.3479 107.494 78.7013 100.321C78.3607 100.003 78.0243 99.6787 77.6872 99.3563C78.6561 98.325 79.582 97.2557 80.4651 96.1482C81.6504 97.3093 82.8582 98.4551 84.1032 99.5616C99.9493 113.638 119.672 122.552 140.59 124.152C141.461 124.218 141.834 124.736 141.313 125.549C141.012 125.976 140.625 126.33 140.18 126.589C139.734 126.847 139.24 127.004 138.731 127.047C138.688 127.045 138.645 127.044 138.603 127.044V127.041ZM144.835 118.705C133.768 114.762 122.107 112.801 111.213 108.308C101.848 104.366 93.5877 98.0644 87.1846 89.9788C86.6659 89.334 86.1537 88.6827 85.6482 88.0248C86.0396 87.2323 86.4074 86.424 86.7515 85.6C87.0532 84.8739 87.3299 84.1424 87.5858 83.4047C89.1723 85.5874 90.8306 87.7104 92.5874 89.7457C99.3784 97.5818 108.005 103.484 117.639 106.887C127.478 110.43 137.779 112.372 147.627 115.881C149.361 116.498 146.635 118.755 145.182 118.756C145.065 118.758 144.949 118.741 144.838 118.705H144.835ZM152.155 111.878C146.354 109.529 140.727 106.772 135.095 104.026C129.518 101.307 123.898 98.7811 118.166 96.435C113.106 94.5062 108.253 92.0383 103.688 89.0714C99.3277 86.0232 95.6945 81.9923 93.062 77.2826C92.707 76.6622 92.3658 76.037 92.0384 75.4071C91.3467 74.0674 90.7095 72.702 90.1138 71.3186C90.1251 71.2168 90.1363 71.1149 90.1467 71.0149C90.4597 67.8989 90.6654 64.7544 91.0752 61.6464C92.9237 66.9844 94.952 72.2366 97.9919 76.9977C100.959 81.5889 104.933 85.3928 109.59 88.1006C114.361 90.7846 119.32 93.0963 124.425 95.0166C134.793 99.249 144.57 104.864 154.945 109.065C156.653 109.755 153.986 111.952 152.538 111.952C152.407 111.952 152.278 111.928 152.156 111.879L152.155 111.878ZM42.0075 86.1457C37.9351 82.0082 33.6393 78.1118 29.1408 74.4756C24.0865 70.5746 18.5384 67.7614 12.7889 65.1259C9.68509 63.7029 6.55876 62.3336 3.40995 61.0178C2.5177 60.6418 1.62458 60.2596 0.729736 59.8836L4.87974 57.5955C6.45328 58.2644 8.01817 58.9529 9.57788 59.6254C13.0979 61.1407 16.5899 62.7212 20.054 64.3669C25.5115 66.9372 30.63 70.2146 35.2863 74.1202C39.7717 77.9105 43.8837 82.1401 48.1357 86.1983C55.0965 92.841 61.9933 99.6143 69.2194 105.964C68.0667 106.817 66.89 107.635 65.6893 108.42C57.5718 101.275 49.7698 93.6869 42.0084 86.1466L42.0075 86.1457ZM158.426 104.053C149.694 99.3572 140.663 95.257 132.019 90.3798C124.924 86.3752 118.111 81.7374 112.407 75.7725C108.182 71.2942 104.608 66.2055 101.8 60.6659C100.383 57.9115 99.1034 55.085 97.9642 52.1968C97.3322 50.6062 96.7175 49.0066 96.0933 47.4115C97.0457 46.0858 98.1297 44.8667 99.3277 43.774C100.549 46.8462 101.702 49.9479 102.981 52.9942C106.405 61.4526 111.516 69.0711 117.98 75.3528C130.505 87.2496 146.962 93.4823 161.85 101.491C162.703 101.95 161.52 103.157 161.141 103.443C160.57 103.901 159.88 104.173 159.159 104.225C158.905 104.23 158.654 104.171 158.427 104.054L158.426 104.053ZM56.83 76.078C49.7265 68.0831 42.2185 60.3596 33.6168 54.0759C30.2781 51.6313 26.7664 49.4492 23.1112 47.5482L27.1549 45.3199C31.4485 47.6176 35.5463 50.2865 39.4043 53.2979C47.8201 59.8496 55.1751 67.7087 62.2362 75.7492C68.1041 82.4313 73.6859 89.4135 79.9783 95.6651C79.1039 96.7808 78.1817 97.8586 77.2116 98.8982C69.9085 91.8178 63.5988 83.6933 56.8308 76.0788L56.83 76.078ZM69.5229 62.8995C66.7109 58.0425 63.5308 53.4233 60.0125 49.0852C56.9313 45.5985 53.2251 42.7618 49.0988 40.7321C46.7178 39.4818 44.2304 38.3896 41.7395 37.2867L45.8281 35.0343C49.0597 36.3916 52.2085 37.9501 55.2573 39.7014C59.2584 42.1515 62.7729 45.3641 65.6141 49.1683C68.9445 53.6438 72.0104 58.3228 74.7951 63.1799C78.7229 69.7682 82.6334 76.4788 87.1077 82.7277C86.5532 84.3198 85.9064 85.876 85.171 87.3879C79.3325 79.6859 74.5332 71.1811 69.5238 62.9003L69.5229 62.8995ZM81.6997 48.5207C79.8808 44.1455 77.5958 39.9934 74.8868 36.1409C72.2674 32.7812 69.0955 29.9247 65.5164 27.7021C64.5423 27.0501 63.5518 26.4225 62.5449 25.8193L66.5565 23.6091C68.0084 24.4974 69.4249 25.4399 70.8059 26.4366C74.2119 28.8128 77.1811 31.7964 79.5745 35.2478C82.156 39.1834 84.3465 43.3778 86.1125 47.7678C87.8209 51.8581 89.1904 56.1147 90.6308 60.3399C90.1501 63.5488 89.9193 66.8336 89.602 70.0863C86.7056 63.0246 84.7499 55.5253 81.7006 48.5253L81.6997 48.5207ZM91.8949 37.7456C89.3904 32.9568 86.3033 28.5186 82.7087 24.5388C80.7296 22.3007 78.6356 20.1831 76.4629 18.1513L80.3259 16.0239C83.239 18.7507 85.9788 21.6689 88.5282 24.7601C91.8958 28.8461 94.7344 33.3674 96.9726 38.21C97.7161 39.8274 98.4043 41.4689 99.0683 43.122C97.859 44.162 96.7579 45.3292 95.7829 46.605C94.595 43.6069 93.3612 40.6233 91.8957 37.7502L91.8949 37.7456Z" fill="#3B3430"/>
</svg>
