<svg width="148" height="152" viewBox="0 0 148 152" fill="none" xmlns="http://www.w3.org/2000/svg">
<path d="M85.31 45.2844C88.3072 52.8066 92.1785 59.6964 97.7963 65.4954C102.741 70.6006 108.657 74.5545 114.822 77.9642C122.331 82.1169 130.181 85.5987 137.771 89.5945C138.511 89.9841 139.519 89.5194 140.137 89.058C140.469 88.8104 141.505 87.7649 140.763 87.374C127.827 80.5627 113.516 75.28 102.653 65.109C97.0459 59.7355 92.6248 53.2066 89.6778 45.9478C88.5734 43.3347 87.5844 40.6686 86.5321 38.032C85.4838 38.978 84.5345 40.0323 83.6998 41.1776C84.2359 42.5469 84.7666 43.9192 85.31 45.2844Z" fill="#554140"/>
<path d="M80.041 32.7124C81.3083 35.1794 82.3723 37.7422 83.3932 40.3242C84.2504 39.2186 85.2178 38.2061 86.2797 37.3033C85.7103 35.882 85.1139 34.4729 84.4713 33.0839C82.5375 28.928 80.0789 25.0511 77.1574 21.5509C74.9465 18.9008 72.5686 16.4004 70.0386 14.0653L66.6595 15.9176C68.5466 17.6562 70.366 19.4693 72.0837 21.3852C75.203 24.7949 77.8771 28.6016 80.041 32.7124V32.7124Z" fill="#554140"/>
<path d="M65.3205 31.3548C67.6695 34.6599 69.6473 38.2247 71.2175 41.9832C73.8523 47.9972 75.5271 54.4468 78.027 60.5181C78.3168 57.7142 78.5315 54.8846 78.9647 52.1186C77.7243 48.4873 76.5465 44.8278 75.0725 41.3132C73.549 37.5413 71.654 33.9395 69.4164 30.5623C67.3421 27.6019 64.7625 25.047 61.7987 23.0175C60.5982 22.1641 59.3654 21.3595 58.1003 20.6036L54.5899 22.5273C55.4658 23.0415 56.3281 23.5767 57.1767 24.1331C60.2916 26.0302 63.0483 28.4749 65.3205 31.3548V31.3548Z" fill="#554140"/>
<path d="M78.5032 61.7354C79.2515 63.4908 80.0996 65.1993 81.0434 66.8524C83.315 70.8879 86.4611 74.3355 90.2443 76.9351C94.2061 79.4633 98.4198 81.5609 102.817 83.1938C107.797 85.1845 112.677 87.3332 117.521 89.6388C122.412 91.9721 127.298 94.3142 132.339 96.304C133.441 96.7409 136.408 94.5052 134.78 93.8645C125.764 90.3044 117.278 85.5258 108.272 81.9389C103.837 80.3131 99.5315 78.3505 95.3904 76.0674C91.3474 73.7618 87.9043 70.5109 85.3408 66.5788C82.7126 62.5006 80.9686 57.9937 79.3814 53.4129C79.0094 56.0876 78.8208 58.7936 78.5349 61.4741L78.5032 61.7354Z" fill="#554140"/>
<path d="M74.6485 76.1157C75.0849 76.6778 75.5259 77.2357 75.9768 77.7863C81.5111 84.7008 88.6694 90.0742 96.7982 93.4159C106.254 97.2214 116.388 98.847 125.993 102.182C127.113 102.571 130.069 100.312 128.432 99.744C119.882 96.7779 110.932 95.1625 102.39 92.1666C94.0245 89.2902 86.5465 84.261 80.6741 77.5621C79.154 75.8206 77.7206 74.0039 76.3499 72.1371C76.1244 72.7715 75.8797 73.4014 75.6159 74.0268C75.3152 74.736 74.9928 75.4323 74.6485 76.1157Z" fill="#554140"/>
<path d="M52.4311 42.4912C55.4829 46.2078 58.2381 50.1681 60.6711 54.3347C65.0065 61.4381 69.1571 68.7366 74.2147 75.3433C74.862 74.0376 75.4322 72.6943 75.9224 71.3208C72.0455 65.9641 68.6638 60.2065 65.2654 54.5535C62.8568 50.3866 60.2022 46.374 57.3163 42.5376C54.8548 39.2762 51.8029 36.5272 48.323 34.4367C45.6712 32.9455 42.9316 31.6203 40.1192 30.4684L36.5448 32.4281C38.7125 33.3655 40.8775 34.2974 42.9484 35.3583C46.5386 37.0839 49.7591 39.5063 52.4311 42.4912V42.4912Z" fill="#554140"/>
<path d="M49.659 65.6718C55.5235 72.1897 60.9889 79.1489 67.3235 85.2091C68.1718 84.3089 68.9798 83.377 69.7475 82.4133C64.2899 77.0612 59.4566 71.0818 54.3704 65.3619C48.2514 58.4789 41.8705 51.7526 34.5689 46.1585C31.2202 43.5865 27.661 41.3105 23.9294 39.3547L20.3975 41.2919C23.5743 42.9094 26.625 44.7692 29.5237 46.8556C36.9933 52.2212 43.5008 58.8286 49.659 65.6718Z" fill="#554140"/>
<path d="M68.6304 86.694C75.2476 92.8171 82.7411 97.8798 90.859 101.712C100.221 106.068 110.295 108.654 120.595 109.347C121.058 109.328 121.511 109.201 121.921 108.976C122.33 108.752 122.685 108.435 122.957 108.051C123.413 107.349 123.09 106.906 122.334 106.853C104.156 105.586 87.0479 98.0276 73.3296 86.0143C72.2529 85.0711 71.2068 84.0963 70.1811 83.1017C69.4109 84.058 68.6018 84.981 67.7538 85.8708C68.0444 86.1467 68.3351 86.4225 68.6304 86.694Z" fill="#554140"/>
<path d="M11.4647 56.3937C16.4587 58.6307 21.2749 61.0209 25.6592 64.3503C29.5603 67.4549 33.2837 70.784 36.8113 74.3216C43.5364 80.7665 50.2975 87.2524 57.3378 93.3524C58.3843 92.6718 59.4131 91.9626 60.4242 91.225C54.1597 85.8009 48.1833 80.0114 42.1539 74.3368C38.4693 70.8683 34.9071 67.2519 31.018 64.0154C26.9791 60.6786 22.5341 57.8848 17.7906 55.7018C14.7857 54.2964 11.7525 52.9548 8.69129 51.6769C7.33732 51.1054 5.97836 50.521 4.61068 49.9545L0.98627 51.9431C1.76437 52.2619 2.54054 52.5852 3.3163 52.9045C6.04918 54.0274 8.76531 55.1905 11.4647 56.3937Z" fill="#554140"/>
<path d="M57.8012 94.0757C58.2647 94.4756 58.7286 94.8743 59.1931 95.2719C66.8808 101.816 75.1958 107.706 84.6078 111.397C89.7137 113.4 94.9787 113.895 100.423 114.1C105.677 114.298 110.996 114.383 116.003 116.147C117.121 116.54 120.076 114.286 118.441 113.71C109.418 110.536 99.5724 112.734 90.4394 110.14C85.675 108.659 81.124 106.554 76.8992 103.879C72.5896 101.24 68.471 98.2914 64.5741 95.0564C63.3271 94.0358 62.0935 92.9981 60.8731 91.9433C60.6265 92.126 60.3766 92.3082 60.1237 92.4898C59.3618 93.0354 58.583 93.5634 57.8012 94.0757Z" fill="#554140"/>
<path d="M115.866 116.179C110.857 114.386 105.549 114.268 100.303 114.04C94.8674 113.803 89.6091 113.277 84.5031 111.242C75.0899 107.492 66.7611 101.547 59.0564 94.9508C58.5884 94.5505 58.1224 94.149 57.6584 93.7462C58.4394 93.2344 59.2104 92.7089 59.9714 92.17C60.2204 91.9918 60.4694 91.8098 60.7169 91.6271C61.9414 92.6882 63.1779 93.7341 64.4264 94.765C68.3322 98.0269 72.4577 101.003 76.7721 103.671C81.0024 106.374 85.5555 108.508 90.3186 110.019C99.4484 112.668 109.267 110.525 118.288 113.755C119.788 114.293 117.43 116.229 116.17 116.229C116.067 116.23 115.964 116.213 115.866 116.179V116.179ZM120.462 109.367C110.18 108.614 100.115 105.967 90.7521 101.554C82.6338 97.6721 75.1321 92.562 68.4989 86.3952C68.2034 86.1219 67.9116 85.8433 67.6191 85.5662C68.4596 84.6796 69.2629 83.7603 70.0289 82.8082C71.0571 83.8064 72.1049 84.7914 73.1849 85.7427C86.9309 97.8446 104.04 105.508 122.185 106.883C122.941 106.94 123.265 107.385 122.812 108.085C122.551 108.451 122.216 108.756 121.83 108.978C121.443 109.2 121.015 109.335 120.573 109.372C120.535 109.37 120.498 109.369 120.462 109.369V109.367ZM125.868 102.2C116.268 98.8105 106.152 97.1244 96.7019 93.2624C88.5781 89.8729 81.4123 84.4556 75.8579 77.5044C75.4079 76.95 74.9636 76.3901 74.5251 75.8245C74.8646 75.1432 75.1836 74.4483 75.4821 73.7399C75.7439 73.1156 75.9839 72.4868 76.2059 71.8526C77.5821 73.7291 79.0206 75.5542 80.5446 77.304C86.4357 84.0407 93.9186 89.1149 102.276 92.0401C110.811 95.0866 119.747 96.7559 128.29 99.7725C129.794 100.303 127.429 102.243 126.169 102.244C126.068 102.246 125.967 102.231 125.871 102.2H125.868ZM132.218 96.3313C127.186 94.312 122.305 91.9419 117.419 89.5809C112.581 87.243 107.706 85.0717 102.733 83.0547C98.3436 81.3966 94.1344 79.2749 90.1739 76.7242C86.3917 74.1037 83.24 70.6384 80.9564 66.5895C80.6484 66.0561 80.3524 65.5186 80.0684 64.977C79.4684 63.8253 78.9156 62.6515 78.3989 61.4622C78.4086 61.3747 78.4184 61.2871 78.4274 61.2011C78.6989 58.5223 78.8774 55.8189 79.2329 53.147C80.8364 57.736 82.5959 62.2514 85.2329 66.3445C87.8071 70.2915 91.2541 73.5618 95.2941 75.8897C99.4329 78.1971 103.734 80.1845 108.163 81.8354C117.157 85.4739 125.638 90.301 134.638 93.9127C136.12 94.5062 133.806 96.395 132.55 96.395C132.437 96.3951 132.324 96.3737 132.219 96.3321L132.218 96.3313ZM36.6681 74.209C33.1354 70.652 29.4089 67.3023 25.5066 64.1762C21.1221 60.8225 16.3093 58.404 11.3218 56.1383C8.62935 54.9149 5.91734 53.7378 3.18584 52.6066C2.41184 52.2833 1.63709 51.9547 0.86084 51.6315L4.46084 49.6644C5.82584 50.2394 7.18334 50.8314 8.53634 51.4095C11.5898 52.7122 14.6191 54.071 17.6241 55.4858C22.3583 57.6955 26.7985 60.5131 30.8376 63.8707C34.7286 67.1292 38.2956 70.7654 41.9841 74.2542C48.0224 79.965 54.0051 85.788 60.2736 91.247C59.2736 91.9799 58.2529 92.6838 57.2114 93.3584C50.1696 87.2161 43.4016 80.6922 36.6689 74.2098L36.6681 74.209ZM137.658 89.604C130.083 85.567 122.248 82.042 114.751 77.8491C108.595 74.4063 102.685 70.4192 97.7376 65.2912C94.0722 61.4412 90.9726 57.0664 88.5359 52.304C87.3075 49.9361 86.1971 47.5061 85.2089 45.0232C84.6606 43.6557 84.1274 42.2805 83.5859 40.9092C84.4121 39.7695 85.3524 38.7214 86.3916 37.782C87.4514 40.4232 88.4511 43.0897 89.5611 45.7087C92.531 52.9804 96.9643 59.53 102.572 64.9303C113.437 75.1581 127.713 80.5163 140.628 87.4011C141.368 87.7957 140.341 88.8338 140.013 89.0795C139.517 89.4729 138.919 89.7069 138.293 89.7521C138.073 89.7563 137.855 89.7058 137.659 89.6047L137.658 89.604ZM49.5261 65.5538C43.3641 58.6806 36.8511 52.0407 29.3894 46.6386C26.4932 44.537 23.4469 42.661 20.2761 41.0268L23.7839 39.111C27.5085 41.0864 31.0631 43.3808 34.4099 45.9698C41.7104 51.6023 48.0906 58.3587 54.2159 65.2711C59.3061 71.0157 64.1481 77.0183 69.6066 82.3928C68.8481 83.3521 68.0481 84.2786 67.2066 85.1723C60.8714 79.0853 55.3979 72.1007 49.5269 65.5546L49.5261 65.5538ZM60.5369 54.2242C58.0975 50.0487 55.3389 46.0776 52.2869 42.3481C49.6141 39.3506 46.399 36.9119 42.8196 35.1669C40.7541 34.092 38.5964 33.1531 36.4356 32.2049L39.9824 30.2685C42.7856 31.4354 45.5171 32.7753 48.1619 34.2809C51.6327 36.3872 54.6815 39.149 57.1461 42.4195C60.0352 46.2671 62.6947 50.2897 65.1104 54.4653C68.5176 60.1293 71.9099 65.8984 75.7911 71.2706C75.3101 72.6393 74.7491 73.9772 74.1111 75.2769C69.0464 68.6555 64.8831 61.3439 60.5376 54.225L60.5369 54.2242ZM71.0999 41.8628C69.5221 38.1014 67.5399 34.5318 65.1899 31.2198C62.9177 28.3316 60.1661 25.8758 57.0614 23.965C56.2164 23.4045 55.3571 22.8649 54.4836 22.3464L57.9636 20.4462C59.2231 21.2099 60.4519 22.0202 61.6499 22.8771C64.6044 24.9199 67.1801 27.4849 69.2564 30.452C71.4957 33.8355 73.3959 37.4415 74.9279 41.2155C76.4099 44.732 77.5979 48.3914 78.8474 52.0238C78.4304 54.7824 78.2301 57.6064 77.9549 60.4027C75.4424 54.3318 73.7459 47.8846 71.1006 41.8667L71.0999 41.8628ZM79.9439 32.5995C77.7713 28.4825 75.0933 24.667 71.9751 21.2455C70.2584 19.3214 68.4419 17.5009 66.5571 15.7542L69.9081 13.9253C72.4352 16.2695 74.8119 18.7782 77.0234 21.4358C79.9447 24.9485 82.4071 28.8355 84.3486 32.9987C84.9936 34.3892 85.5906 35.8004 86.1666 37.2216C85.1176 38.1156 84.1625 39.1191 83.3166 40.2159C82.2861 37.6384 81.2159 35.0734 79.9446 32.6034L79.9439 32.5995Z" fill="#3B3430"/>
</svg>
