<svg width="55" height="18" viewBox="0 0 55 18" fill="none" xmlns="http://www.w3.org/2000/svg">
<path d="M3.09588 4.50087H4.1408L2.71972 0.321217H1.50165L0.0805664 4.50087H1.12548L1.33446 3.84406H2.8869L3.09588 4.50087ZM1.62107 2.94842L2.11068 1.4139L2.6003 2.94842H1.62107Z" fill="white"/>
<path d="M6.25544 1.5154L5.63446 3.40819L5.01348 1.5154H4.02231L5.12693 4.50087H6.14199L7.24661 1.5154H6.25544Z" fill="white"/>
<path d="M9.62607 1.5154V1.79604C9.42903 1.56914 9.13645 1.43181 8.7364 1.43181C7.95421 1.43181 7.30935 2.11847 7.30935 3.00813C7.30935 3.8978 7.95421 4.58446 8.7364 4.58446C9.13645 4.58446 9.42903 4.44713 9.62607 4.22023V4.50087H10.5217V1.5154H9.62607ZM8.91553 3.73659C8.50354 3.73659 8.20499 3.45595 8.20499 3.00813C8.20499 2.56031 8.50354 2.27968 8.91553 2.27968C9.32752 2.27968 9.62607 2.56031 9.62607 3.00813C9.62607 3.45595 9.32752 3.73659 8.91553 3.73659Z" fill="white"/>
<path d="M11.1788 4.50087H12.0744V0.14209H11.1788V4.50087Z" fill="white"/>
<path d="M13.1777 1.25268C13.4702 1.25268 13.715 1.00787 13.715 0.715299C13.715 0.422723 13.4702 0.177915 13.1777 0.177915C12.8851 0.177915 12.6403 0.422723 12.6403 0.715299C12.6403 1.00787 12.8851 1.25268 13.1777 1.25268ZM12.7298 4.50087H13.6255V1.5154H12.7298V4.50087Z" fill="white"/>
<path d="M16.0662 1.43181C15.6661 1.43181 15.3736 1.56914 15.1765 1.79604V0.321217H14.2809V4.50087H15.1765V4.22023C15.3736 4.44713 15.6661 4.58446 16.0662 4.58446C16.8484 4.58446 17.4932 3.8978 17.4932 3.00813C17.4932 2.11847 16.8484 1.43181 16.0662 1.43181ZM15.8871 3.73659C15.4751 3.73659 15.1765 3.45595 15.1765 3.00813C15.1765 2.56031 15.4751 2.27968 15.8871 2.27968C16.299 2.27968 16.5976 2.56031 16.5976 3.00813C16.5976 3.45595 16.299 3.73659 15.8871 3.73659Z" fill="white"/>
<path d="M18.001 4.50087H18.8967V0.14209H18.001V4.50087Z" fill="white"/>
<path d="M20.3522 3.36639H22.4719C22.4957 3.25294 22.5077 3.13352 22.5077 3.00813C22.5077 2.10652 21.8628 1.43181 20.9911 1.43181C20.0477 1.43181 19.4028 2.11847 19.4028 3.00813C19.4028 3.8978 20.0357 4.58446 21.0568 4.58446C21.624 4.58446 22.0658 4.37548 22.3584 3.96945L21.6419 3.55746C21.5225 3.68882 21.3135 3.78435 21.0687 3.78435C20.7403 3.78435 20.4656 3.67688 20.3522 3.36639ZM20.3343 2.69765C20.4179 2.39313 20.6448 2.22594 20.9851 2.22594C21.2538 2.22594 21.5225 2.35133 21.618 2.69765H20.3343Z" fill="white"/>
<path d="M25.9414 4.58446C26.8192 4.58446 27.5237 3.8978 27.5237 3.00813C27.5237 2.11847 26.8192 1.43181 25.9414 1.43181C25.0637 1.43181 24.3591 2.11847 24.3591 3.00813C24.3591 3.8978 25.0637 4.58446 25.9414 4.58446ZM25.9414 3.7127C25.5533 3.7127 25.2548 3.43207 25.2548 3.00813C25.2548 2.5842 25.5533 2.30356 25.9414 2.30356C26.3295 2.30356 26.6281 2.5842 26.6281 3.00813C26.6281 3.43207 26.3295 3.7127 25.9414 3.7127Z" fill="white"/>
<path d="M29.7798 1.43181C29.3857 1.43181 29.0872 1.57511 28.926 1.79604V1.5154H28.0303V4.50087H28.926V2.8708C28.926 2.44687 29.1529 2.2558 29.4813 2.2558C29.7679 2.2558 30.0007 2.42895 30.0007 2.79915V4.50087H30.8964V2.66779C30.8964 1.86172 30.3829 1.43181 29.7798 1.43181Z" fill="white"/>
<path d="M34.7536 2.37522V1.5154H34.1386V0.679473L33.243 0.948165V1.5154H32.7653V2.37522H33.243V3.43207C33.243 4.268 33.5833 4.62028 34.7536 4.50087V3.68882C34.3596 3.7127 34.1386 3.68882 34.1386 3.43207V2.37522H34.7536Z" fill="white"/>
<path d="M37.0102 1.43181C36.6161 1.43181 36.3176 1.57511 36.1564 1.79604V0.321217H35.2607V4.50087H36.1564V2.8708C36.1564 2.44687 36.3833 2.2558 36.7117 2.2558C36.9983 2.2558 37.2312 2.42895 37.2312 2.79915V4.50087H38.1268V2.66779C38.1268 1.86172 37.6133 1.43181 37.0102 1.43181Z" fill="white"/>
<path d="M39.5419 3.36639H41.6616C41.6855 3.25294 41.6974 3.13352 41.6974 3.00813C41.6974 2.10652 41.0526 1.43181 40.1808 1.43181C39.2374 1.43181 38.5926 2.11847 38.5926 3.00813C38.5926 3.8978 39.2255 4.58446 40.2465 4.58446C40.8138 4.58446 41.2556 4.37548 41.5482 3.96945L40.8317 3.55746C40.7122 3.68882 40.5033 3.78435 40.2585 3.78435C39.9301 3.78435 39.6554 3.67688 39.5419 3.36639ZM39.524 2.69765C39.6076 2.39313 39.8345 2.22594 40.1749 2.22594C40.4436 2.22594 40.7122 2.35133 40.8078 2.69765H39.524Z" fill="white"/>
<path d="M5.1061 15.4476H6.84762L4.47915 8.48148H2.44903L0.0805664 15.4476H1.82209L2.17039 14.3529H4.75779L5.1061 15.4476ZM2.64806 12.8602L3.46409 10.3026L4.28012 12.8602H2.64806Z" fill="white"/>
<path d="M10.3674 10.3325C9.7006 10.3325 9.21297 10.5614 8.88457 10.9395V10.4718H7.39184V17.4379H8.88457V14.9798C9.21297 15.358 9.7006 15.5869 10.3674 15.5869C11.671 15.5869 12.7458 14.4425 12.7458 12.9597C12.7458 11.4769 11.671 10.3325 10.3674 10.3325ZM10.0688 14.1738C9.38215 14.1738 8.88457 13.706 8.88457 12.9597C8.88457 12.2133 9.38215 11.7456 10.0688 11.7456C10.7555 11.7456 11.253 12.2133 11.253 12.9597C11.253 13.706 10.7555 14.1738 10.0688 14.1738Z" fill="white"/>
<path d="M16.5676 10.3325C15.9009 10.3325 15.4132 10.5614 15.0848 10.9395V10.4718H13.5921V17.4379H15.0848V14.9798C15.4132 15.358 15.9009 15.5869 16.5676 15.5869C17.8713 15.5869 18.946 14.4425 18.946 12.9597C18.946 11.4769 17.8713 10.3325 16.5676 10.3325ZM16.2691 14.1738C15.5824 14.1738 15.0848 13.706 15.0848 12.9597C15.0848 12.2133 15.5824 11.7456 16.2691 11.7456C16.9557 11.7456 17.4533 12.2133 17.4533 12.9597C17.4533 13.706 16.9557 14.1738 16.2691 14.1738Z" fill="white"/>
<path d="M19.7924 15.4476H21.2851V8.18294H19.7924V15.4476Z" fill="white"/>
<path d="M23.711 13.5568H27.2438C27.2836 13.3677 27.3035 13.1687 27.3035 12.9597C27.3035 11.457 26.2287 10.3325 24.7758 10.3325C23.2034 10.3325 22.1287 11.4769 22.1287 12.9597C22.1287 14.4425 23.1835 15.5869 24.8853 15.5869C25.8306 15.5869 26.5671 15.2386 27.0547 14.5619L25.8605 13.8752C25.6615 14.0942 25.3132 14.2534 24.9052 14.2534C24.3578 14.2534 23.9 14.0742 23.711 13.5568ZM23.6811 12.4422C23.8204 11.9347 24.1986 11.656 24.7658 11.656C25.2137 11.656 25.6615 11.865 25.8207 12.4422H23.6811Z" fill="white"/>
<path d="M33.1259 15.5869C34.6385 15.5869 35.7133 14.7908 35.7133 13.4473C35.7133 11.9745 34.5291 11.6063 33.4742 11.2878C32.3895 10.9594 32.2203 10.7405 32.2203 10.422C32.2203 10.1434 32.4691 9.8946 32.9667 9.8946C33.6036 9.8946 33.932 10.2031 34.1708 10.7007L35.5143 9.9145C35.0067 8.8895 34.1111 8.34216 32.9667 8.34216C31.7625 8.34216 30.6281 9.11838 30.6281 10.4618C30.6281 11.7953 31.6431 12.2929 32.6781 12.5815C33.723 12.8701 34.1211 13.0393 34.1211 13.4672C34.1211 13.7359 33.932 14.0344 33.1757 14.0344C32.3895 14.0344 31.9616 13.6463 31.7128 13.0691L30.3395 13.8653C30.7276 14.8903 31.663 15.5869 33.1259 15.5869Z" fill="white"/>
<path d="M39.2293 11.9048V10.4718H38.2043V9.07857L36.7116 9.52639V10.4718H35.9154V11.9048H36.7116V13.6662C36.7116 15.0595 37.2788 15.6466 39.2293 15.4476V14.0942C38.5725 14.134 38.2043 14.0942 38.2043 13.6662V11.9048H39.2293Z" fill="white"/>
<path d="M42.3657 15.5869C43.8286 15.5869 45.0028 14.4425 45.0028 12.9597C45.0028 11.4769 43.8286 10.3325 42.3657 10.3325C40.9028 10.3325 39.7285 11.4769 39.7285 12.9597C39.7285 14.4425 40.9028 15.5869 42.3657 15.5869ZM42.3657 14.134C41.7188 14.134 41.2213 13.6662 41.2213 12.9597C41.2213 12.2531 41.7188 11.7854 42.3657 11.7854C43.0125 11.7854 43.5101 12.2531 43.5101 12.9597C43.5101 13.6662 43.0125 14.134 42.3657 14.134Z" fill="white"/>
<path d="M47.3399 11.3575V10.4718H45.8472V15.4476H47.3399V13.1985C47.3399 12.2133 48.2156 11.9645 48.8326 12.064V10.3723C48.2057 10.3723 47.5389 10.6907 47.3399 11.3575Z" fill="white"/>
<path d="M50.7181 13.5568H54.2509C54.2907 13.3677 54.3106 13.1687 54.3106 12.9597C54.3106 11.457 53.2359 10.3325 51.7829 10.3325C50.2106 10.3325 49.1358 11.4769 49.1358 12.9597C49.1358 14.4425 50.1907 15.5869 51.8924 15.5869C52.8378 15.5869 53.5742 15.2386 54.0619 14.5619L52.8677 13.8752C52.6686 14.0942 52.3203 14.2534 51.9123 14.2534C51.365 14.2534 50.9072 14.0742 50.7181 13.5568ZM50.6883 12.4422C50.8276 11.9347 51.2058 11.656 51.773 11.656C52.2208 11.656 52.6686 11.865 52.8279 12.4422H50.6883Z" fill="white"/>
</svg>
