<svg width="191" height="260" viewBox="0 0 191 260" fill="none" xmlns="http://www.w3.org/2000/svg">
<path d="M182.553 201.325C182.412 201.204 182.276 201.204 182.247 201.316C182.218 201.428 182.06 201.617 181.996 201.365C181.932 201.113 182.054 200.367 181.936 200.453C181.818 200.539 181.43 200.747 181.509 200.602C181.558 200.49 181.571 200.365 181.547 200.245C181.522 200.126 181.462 200.018 181.374 199.937C180.973 199.606 180.623 199.215 180.333 198.778L180.031 198.545C179.9 198.411 179.788 198.26 179.697 198.095C179.565 197.912 179.315 197.703 179.321 197.553C179.336 197.199 179.005 197.422 178.899 197.191L178.808 196.994C178.467 196.791 178.173 196.514 177.947 196.181L177.731 195.984C177.437 195.713 176.965 195.566 176.78 195.266L176.527 194.849C175.962 194.57 175.426 194.234 174.927 193.844L174.52 193.407C174.161 192.931 173.675 192.575 173.12 192.381C172.856 192.278 172.637 192.081 172.502 191.826C172.468 191.735 172.413 191.653 172.342 191.589C172.271 191.524 172.186 191.477 172.094 191.453C171.822 191.342 171.308 191.355 171.321 190.806C171.278 190.745 171.214 190.704 171.142 190.691C170.836 190.802 170.912 190.411 170.737 190.36C170.524 190.329 170.316 190.266 170.121 190.174L169.967 190.07C169.696 189.718 169.371 189.415 169.004 189.173C168.438 188.809 167.843 188.496 167.223 188.237L167.169 188.025C167.127 187.896 167.048 187.784 166.943 187.703C166.839 187.621 166.712 187.574 166.581 187.566C166.267 187.465 165.968 187.322 165.692 187.141C165.379 187.022 165.09 186.846 164.839 186.623C164.61 186.342 164.217 186.421 164.07 186.079C164.055 186.044 164.063 185.978 164.049 185.971C163.706 185.825 163.278 185.94 163.037 185.48L162.091 184.805L161.712 184.692C161.114 184.471 160.538 184.194 159.992 183.863L159.521 183.543C159.324 183.414 159.168 183.175 158.982 183.453C158.963 183.481 158.723 183.404 158.707 183.356L158.489 182.696C158.019 182.693 157.552 182.638 157.096 182.532C156.709 182.407 156.312 182.32 155.909 182.271C155.694 182.276 155.044 181.551 154.657 181.316C153.855 181.116 153.037 180.981 152.213 180.911L151.777 180.484L151.538 180.251C151.064 180.132 150.682 180.522 150.689 181.119L150.561 181.562C150.441 182.063 150.281 182.553 150.083 183.028C149.716 184.09 149.126 185.058 148.357 185.862L147.821 186.311C147.283 186.855 146.604 187.494 146.314 187.734L146.135 188.074C145.903 188.387 145.597 188.632 145.248 188.787L144.927 188.982C144.534 189.139 144.076 189.315 143.907 189.372C143.614 189.484 143.33 189.622 143.06 189.785C142.922 189.886 142.33 189.759 142.234 189.789L142.152 189.83L141.581 190.118C140.697 190.222 139.807 190.269 138.918 190.258L138.492 190.457C138.176 190.608 137.848 190.285 137.552 190.522C137.393 190.648 136.942 190.43 136.626 190.379C136.48 190.355 136.331 190.353 136.184 190.373C136.022 190.399 135.879 190.51 135.721 190.497C135.617 190.489 135.73 190.128 135.431 190.19C135.254 190.226 135.03 189.818 134.88 190.145L133.522 189.991L132.964 189.892C132.365 189.685 131.4 189.385 130.816 189.223L130.295 189.147C130.003 189.096 129.725 188.983 129.48 188.813C129.057 188.607 128.62 188.431 128.173 188.288C127.803 188.132 127.379 188.043 127.199 187.572C127.176 187.51 127.083 187.463 127.023 187.409L126.645 187.072C126.086 186.732 125.584 186.305 125.155 185.805L124.807 185.445L124.454 185.086C124.137 184.707 123.801 184.345 123.449 184.001C123.196 183.537 122.97 183.056 122.775 182.562C122.396 181.612 122.118 180.621 121.945 179.607L122.189 179.221L122.389 178.906C122.348 178.471 122.366 178.031 122.444 177.599L122.519 177.281C122.602 176.932 122.707 176.591 122.804 176.25C122.831 176.157 122.927 176.067 122.906 175.984C122.817 175.784 122.739 175.58 122.672 175.371C122.646 175.183 123.044 175.255 122.937 174.917C122.885 174.753 123.04 174.55 123.121 174.383C123.295 173.953 123.518 173.545 123.786 173.168L124.119 172.782C124.573 172.431 125.556 171.776 126.305 171.328L126.983 170.922L127.481 170.623C128.177 170.581 128.87 170.495 129.557 170.367L130.013 170.499L130.407 170.613C130.91 170.499 131.425 170.462 131.936 170.503C132.555 170.552 133.177 170.569 133.798 170.552C134.074 170.534 134.811 170.628 134.833 170.448C134.856 170.267 135.574 170.719 135.945 170.811C136.317 170.904 138.395 170.69 139.921 170.883L141.309 171.153C143.024 171.488 144.739 171.919 146.452 172.32L146.76 172.393C147.094 172.532 147.139 172.116 146.858 171.463C146.177 170.188 145.422 168.958 144.597 167.779L144.064 167.095L143.755 166.697C143.359 166.411 143.002 166.073 142.69 165.692C142.549 165.473 141.818 164.961 141.674 164.785L141.586 164.603C141.474 164.373 141.129 164.643 141.095 164.29C141.078 164.234 141.039 164.187 140.988 164.16C140.855 164.104 139.815 163.426 139.698 163.333C139.606 163.26 139.463 163.25 139.385 163.17C138.976 162.754 138.174 162.824 138.062 162.028L138.055 161.983C137.905 161.923 137.366 161.65 136.862 161.367C136.358 161.085 134.944 160.477 134.81 160.808L134.688 160.182L134.614 159.807C134.315 159.689 133.747 159.433 133.349 159.243C132.95 159.053 131.538 158.44 131.142 158.183L130.784 158.124C130.396 158.061 130.357 157.617 130.327 157.636L129.598 158.083C128.908 157.532 128.298 157.041 128.243 156.992C128.132 156.866 128.03 156.732 127.937 156.59C127.863 156.481 127.198 156.606 126.958 156.368C126.323 155.99 125.647 155.691 124.943 155.478L124.479 155.268C124.115 155.176 123.777 155.003 123.486 154.763C123.368 154.634 123.071 154.686 122.871 154.602L122.759 154.555C122.66 154.41 122.355 154.402 122.085 154.53L121.988 154.022C121.979 153.974 121.531 153.974 121.314 153.87L121.138 153.784C120.905 153.575 120.643 153.402 120.361 153.271L120.125 153.356C120.066 153.377 120.004 153.383 119.942 153.377C119.881 153.37 119.822 153.349 119.77 153.317C119.465 153.012 118.972 152.596 118.685 152.655L118.085 152.777C117.633 152.561 117.171 152.369 116.7 152.202L116.587 152.116C116.351 151.929 116.142 151.635 115.862 151.929C115.842 151.948 115.662 151.843 115.583 151.768C115.268 151.465 114.985 151.321 114.627 151.571C114.43 151.706 114.462 151.344 114.428 151.342L114.051 151.319C113.641 151.198 112.809 150.933 112.196 150.733L111.702 150.446L111.259 150.19C110.764 150.063 109.962 149.829 109.478 149.669L109.026 149.595C108.832 149.563 108.773 148.997 108.469 149.391C108.415 149.461 108.019 149.247 107.78 149.164L107.502 149.067C107.105 148.865 106.691 148.7 106.264 148.574C105.858 148.46 104.351 147.938 103.751 147.802C102.916 147.457 102.1 147.063 101.309 146.623C100.898 146.52 100.494 146.394 100.098 146.245C99.8893 146.127 99.0838 145.935 98.8891 145.829C98.6312 145.599 98.4011 145.337 98.2035 145.05C98.1294 144.959 97.9931 144.902 98.1852 145.246L97.8783 145.454C97.6844 145.584 97.5686 145.549 97.441 145.358C97.3587 145.237 97.2941 144.971 97.2682 144.973L96.2737 145.028C95.8841 144.561 95.4666 144.118 95.0236 143.704C95.0813 143.805 95.011 143.974 94.7579 143.88C94.2383 143.668 93.734 143.418 93.2489 143.133L92.9673 143.108L92.6517 143.08C92.1563 142.756 91.6111 142.519 91.0384 142.378L90.5519 141.944L90.2105 141.639C90.0414 141.641 89.8746 141.603 89.7232 141.527C89.5718 141.451 89.4397 141.341 89.3372 141.203C89.2395 140.984 88.7533 140.705 88.6215 140.992L88.1717 140.683C87.9763 140.548 87.7521 140.512 87.6887 140.235L87.6792 140.195C87.5808 140.155 86.9205 139.966 86.2092 139.772L85.8271 139.371C85.6228 139.159 85.5119 138.819 85.2883 138.673C85.0647 138.528 84.7359 138.543 84.4551 138.473C84.174 138.413 83.8981 138.33 83.6301 138.225L83.4422 138.145C83.2651 137.916 83.1328 137.653 83.0526 137.371L82.8076 137.627C82.7764 137.66 82.4956 137.472 82.3472 137.36L81.8866 137.014C81.507 136.75 81.1643 136.434 80.8676 136.075C80.8633 135.947 80.8419 135.82 80.8039 135.698C80.7687 135.701 80.7349 135.714 80.706 135.735C80.6771 135.756 80.654 135.785 80.6392 135.818C80.6015 135.903 80.4289 136.153 80.365 136.12C80.2194 135.887 80.1121 135.63 80.047 135.36L79.6814 135.677C79.5572 135.637 79.4486 135.557 79.3705 135.45C79.3561 135.134 79.1379 135.261 79.0112 135.182C78.9177 135.125 78.9284 134.9 78.8343 134.795L78.7436 134.689C78.5912 134.626 78.2791 134.519 78.0476 134.452C77.5186 134.261 77.0207 133.991 76.5699 133.65L76.1702 133.574C75.9811 133.55 75.8035 133.47 75.6592 133.344C75.5148 133.217 75.4098 133.049 75.3574 132.861C75.344 132.835 75.3256 132.813 75.3034 132.795C75.2811 132.777 75.2555 132.764 75.2281 132.757L74.5048 132.852C74.1189 132.239 73.8891 131.797 73.9924 131.863C74.0957 131.93 74.3988 132.028 74.2531 131.817L74.2536 131.705C74.2515 131.362 73.9985 131.536 73.8901 131.447C73.6995 131.292 73.5708 131.415 73.4441 131.395L73.0919 131.339C72.5708 131.076 72.3594 130.85 72.6216 130.836L72.7005 130.779L72.7682 130.735C72.764 130.652 72.739 130.571 72.6958 130.501C72.6526 130.431 72.5925 130.374 72.5214 130.335L72.4445 130.365L71.8648 130.593C71.4066 130.24 70.8752 129.843 70.6769 129.714L70.618 129.608L70.4078 129.226C70.0802 129.048 69.742 128.89 69.3953 128.754C69.207 128.691 68.8895 128.144 68.7654 128.076C68.5928 127.927 68.4115 127.789 68.2226 127.663C68.1288 127.652 67.7914 127.523 67.7436 127.398C67.6284 127.148 67.4652 126.924 67.2637 126.742C66.7992 126.518 66.3198 126.328 65.8289 126.173L65.6084 125.9L65.1348 125.318C64.4737 125.016 63.8736 124.59 63.364 124.063L63.0543 123.73L62.8784 123.542C62.5675 123.38 62.286 123.165 62.0459 122.906C61.6005 122.55 61.1133 122.252 60.5955 122.02L60.5114 121.705L60.4229 121.37C60.2235 121.233 60.0074 121.124 59.7799 121.045L59.7711 121.019C59.5024 120.262 58.6658 120.015 58.2636 119.389L58.1253 119.173C58.0339 118.895 57.868 118.664 57.7565 118.659C57.4012 118.515 57.1031 118.254 56.9074 117.917C56.7163 117.523 55.5061 115.978 54.879 115.094L54.3647 114.272C54.1473 113.941 53.9928 113.564 53.762 113.215L53.5092 112.824C53.415 112.299 53.3043 111.668 53.2637 111.421C53.2045 111.081 53.1659 110.738 53.1481 110.393C53.168 110.319 53.3988 110.098 53.4469 110.002C53.495 109.905 53.1533 109.409 53.0578 109.279L53.082 109.251L53.3142 108.969C53.2254 108.793 53.1009 108.639 52.9491 108.517C52.7973 108.394 52.6215 108.307 52.4336 108.261C52.0842 108.193 51.5167 107.176 51.3872 107.044C51.0659 106.82 50.7873 106.537 50.5649 106.209L50.1506 106.187L50.0905 106.184C50.0193 106.124 49.785 105.967 49.568 105.831C49.2774 105.573 49.0135 105.285 48.7804 104.971C48.7006 104.865 48.5497 104.533 48.4829 104.463C48.4161 104.392 47.6745 103.776 47.0245 103.235L46.4803 102.691C46.3528 102.506 46.185 102.354 45.9902 102.247C45.7028 102.12 45.4697 101.891 45.3319 101.601L45.2314 101.292C45.0102 101.118 44.6641 100.829 44.4669 100.65L44.2905 100.482C44.1216 100.319 43.8205 100.113 43.8263 99.9814L43.8414 99.6205C43.5948 99.6154 43.3491 99.5917 43.1062 99.5498C42.9304 99.5148 42.6745 98.7534 42.4922 98.4851L42.2722 98.279L42.0699 98.0911C41.8349 97.9501 41.6118 97.7889 41.4032 97.6093C41.2847 97.4946 40.8255 96.9687 40.6014 96.713L40.3991 96.4794L40.1488 96.1902C39.8853 95.8637 39.5624 95.4676 39.4313 95.3117C39.1301 95.0375 38.8078 94.7888 38.4675 94.5682C38.2539 94.4311 37.7025 93.8048 37.3726 93.548C37.0427 93.2912 36.1428 91.8739 35.5449 91.342L35.1836 90.7346C34.9791 90.3919 34.5509 90.5992 34.4228 90.1773L34.3441 89.9149C34.1742 89.6749 33.9515 89.4801 33.6939 89.3462L33.5718 89.2699C33.325 89.1145 32.9501 88.9845 33.2386 88.6186C33.2532 88.6079 33.0456 88.3346 32.9754 88.3343L32.5638 88.3406C32.3371 88.0319 32.1345 87.705 31.9576 87.3631C31.861 87.1518 31.2132 86.8832 31.1519 86.7334C31.0905 86.5836 30.7909 86.0912 30.6699 86.0789C30.5488 86.0666 30.2692 85.9464 30.4156 85.8463C30.562 85.7461 29.9044 85.4165 29.7326 85.2489L29.5726 85.0906L29.0884 84.6132C28.5929 84.1795 28.2234 83.613 28.0196 82.9748L27.5815 83.0082C27.0821 83.0461 27.237 82.5832 27.0213 82.4107C26.8881 82.3341 26.7721 82.2295 26.681 82.1034C26.5899 81.9774 26.5255 81.8328 26.4921 81.6788L26.483 81.6218C26.3413 81.5471 26.1833 81.5105 26.0233 81.5155C25.8628 81.5208 25.4419 80.8307 25.2245 80.5768L25.0109 80.3513C24.7995 80.1288 24.4687 79.9867 24.4795 79.621C24.4462 79.5493 24.3874 79.4938 24.3151 79.466L23.7133 79.6591C23.498 79.2471 23.3156 78.8175 23.1681 78.3743C22.8033 77.9788 22.4088 77.6136 21.9882 77.282L21.9342 77.0206C21.8442 76.5888 21.5156 76.7961 21.3938 76.5943C21.2588 76.3731 21.0824 75.9751 20.9712 75.9725C20.5637 75.959 20.6094 75.5657 20.3922 75.4233C20.1864 75.2568 20.0266 75.0374 19.9287 74.7866L19.818 74.58C19.3833 74.2487 18.9737 73.8838 18.5932 73.4881C18.2193 73.0991 17.1537 71.9368 17.0573 71.7757C16.961 71.6145 16.6378 71.3114 16.574 71.1612C16.374 70.9588 16.1484 70.785 15.9032 70.6444C15.6306 70.3134 15.4321 69.9241 15.3216 69.5036L14.7975 69.6098L14.7749 69.614C14.5171 69.1671 14.226 68.7418 13.904 68.3421C13.5499 67.895 12.422 66.6172 12.3031 66.4099C12.128 66.1925 11.9294 65.9965 11.7111 65.8255C11.6034 65.7186 11.1733 65.2308 10.9691 64.9594L10.8996 64.6959C10.7988 64.3223 10.7995 64.0031 10.2536 63.9374L10.0516 63.9137C9.77881 63.5753 9.56972 63.187 9.43498 62.7683L9.45961 62.5066L9.50766 61.9897C9.12271 61.697 8.6797 61.3639 8.52183 61.2443C8.36395 61.1248 7.89878 60.7352 7.95553 60.6368C7.98447 60.5021 7.98059 60.3624 7.94395 60.2306C7.9073 60.0988 7.83913 59.979 7.74576 59.882C7.5111 59.672 7.52655 58.8368 7.62399 59.0429C7.7324 59.2895 7.88218 59.5139 8.06631 59.7063C8.13621 59.7045 8.42711 59.566 8.39326 59.4051L8.29834 59.3056C7.97264 58.9697 8.19795 58.8198 8.34466 58.601C8.46934 58.4206 8.84852 58.5375 8.79584 58.1187L8.76587 57.8879C9.00321 57.5924 9.26186 57.3155 9.53929 57.0597C9.76809 56.857 10.5043 57.4412 10.642 57.5376C10.7797 57.6339 11.2998 58.0963 11.549 58.2923C11.7983 58.4884 12.4689 59.3675 12.709 59.5355C12.9491 59.7036 13.5256 60.5888 13.7412 60.7579C13.9958 61.033 14.2767 61.2809 14.5799 61.4977C14.7934 61.5655 15.1841 62.4398 15.5734 62.8467C15.9627 63.2536 17.3149 64.6585 17.6994 65.0778C18.226 65.7019 18.7179 66.3564 19.1729 67.0381L19.313 67.1382L20.323 67.8659C21.1976 68.9048 22.1445 70.0419 22.4314 70.4028L22.7143 70.7129C23.0093 70.9593 23.2551 71.2623 23.4383 71.6056L23.5402 71.8554L24.5103 72.5229C24.717 72.6661 25.2357 73.4291 25.4521 73.5753C25.6686 73.7215 26.1796 74.565 26.4289 74.8336C26.9012 75.2758 27.4012 75.6856 27.9257 76.0603L27.9387 76.2052C27.9672 76.532 28.2609 76.4955 28.3755 76.669C28.4985 76.8609 28.6384 77.0407 28.7932 77.2061C28.9895 77.4095 29.2325 77.571 29.418 77.7811C29.5624 77.9452 29.6372 78.292 29.7653 78.3259C30.2813 78.4749 30.3948 79.0171 30.7887 79.2731C31.0208 79.4345 31.2341 79.6228 31.4244 79.8345L31.5928 80.0101C31.7609 80.238 31.9137 80.4776 32.0505 80.7271L32.2441 80.8508C32.3704 80.9055 32.4818 80.9905 32.5695 81.0987C32.6571 81.207 32.7184 81.3354 32.7483 81.4735L32.7587 81.5564C33.1717 81.7497 33.5622 81.9897 33.9228 82.2723C34.2876 82.6987 34.5978 83.1719 34.846 83.6805C34.8779 83.7098 35.3278 84.1529 35.7763 84.5938C36.2248 85.0346 37.5546 86.439 37.7679 86.6982C37.9812 86.9573 38.6655 87.8064 38.8189 88.0064L38.9755 88.1738C39.2334 88.4519 39.6236 88.5429 39.836 88.9245C40.0157 89.2485 40.4934 89.3639 40.6021 89.7944L40.7088 90.2185C41.0956 90.5426 41.4627 90.8908 41.808 91.2612C42.0437 91.5275 43.14 92.5075 43.5683 92.9542C43.9966 93.4008 45.2347 94.6798 45.3853 94.7757C45.6048 94.9722 45.7962 95.1999 45.9541 95.4518C46.0373 95.5968 46.7888 95.9665 47.1938 96.2791C47.7025 96.853 48.1738 97.4611 48.6049 98.0993L48.7833 98.2588L50.356 99.6615C52.0888 101.2 53.7126 102.716 53.965 103.03L54.3796 102.996C54.4729 102.988 54.6603 103.169 54.7331 103.297C54.8375 103.478 54.7621 103.792 55.0997 103.778L55.477 103.764C55.8578 103.711 56.2076 103.513 56.4577 103.21L56.7646 103.179C56.8235 103.174 56.8238 102.989 56.8744 102.904L56.9997 102.694C57.0882 102.845 57.2299 102.955 57.3956 103.001L57.4285 102.955L57.5029 102.847C57.6563 102.623 57.8742 102.455 58.1248 102.367C58.4164 102.244 59.4306 102.237 59.6809 102.504L59.9057 102.262C60.0038 102.165 60.1215 102.093 60.25 102.05C60.3785 102.006 60.5145 101.994 60.6476 102.012L60.7388 102.013C60.8924 101.837 61.0281 101.644 61.1435 101.439L61.5022 101.56L61.6 101.593C61.7151 101.562 62.0459 101.507 62.3363 101.467C62.7801 101.537 63.2081 101.684 63.6021 101.903L63.7022 101.925L63.8097 101.949C64.0007 101.921 64.1892 101.875 64.3726 101.811C64.5673 101.745 65.0703 101.75 65.1351 102.077L65.4928 101.739L65.6408 101.597C65.7357 101.577 65.8336 101.577 65.9276 101.6C66.0216 101.622 66.1094 101.666 66.1851 101.727C66.5302 101.967 66.9035 102.161 67.2963 102.306C67.7449 102.483 69.1527 103.002 69.4324 103.14C70.0113 103.48 70.5726 103.85 71.1144 104.249C71.5193 104.552 73.0837 105.446 73.5709 105.79L73.8969 106.244L74.0983 106.524C74.4033 106.741 74.9255 107.161 75.2581 107.458L75.5604 107.727C75.8626 107.996 76.1667 108.265 76.4682 108.535C76.5333 108.578 76.5881 108.636 76.629 108.703C76.7082 108.981 76.5942 109.309 77.11 109.411C77.2772 109.445 77.3754 109.888 77.6153 110.127C78.0387 110.547 78.1114 111.213 78.6494 111.594C78.67 111.608 78.6322 111.718 78.621 111.782C78.6111 111.946 78.5781 112.107 78.5228 112.261L78.3595 112.565C78.6077 112.69 78.7011 112.827 78.5672 112.87L78.5484 113.004C78.5194 113.203 78.5233 113.411 78.5133 113.615L78.3115 114.299L78.1719 114.415C78.1002 114.603 77.9581 115.03 77.855 115.364L77.7523 115.671C77.6847 115.953 77.5952 116.229 77.4845 116.497C77.2442 116.959 76.9734 117.404 76.6742 117.829L76.5055 118.064C76.2946 118.242 76.0557 118.38 75.7995 118.474C75.5306 118.463 75.2638 118.425 75.0029 118.36C74.7036 118.319 74.3982 118.363 74.1194 118.488L73.9183 118.535C73.6853 118.593 73.3992 118.232 73.1518 118.512L73.0284 118.652C72.9231 118.46 72.7777 118.294 72.6024 118.167C72.3215 118.069 72.034 117.991 71.7423 117.934L71.5423 117.85L71.3407 117.766C71.1092 117.622 70.8554 117.58 70.7763 117.675C70.6973 117.769 70.3316 117.977 70.199 117.859C70.0663 117.741 69.6629 117.448 69.6694 117.535C69.6759 117.622 69.6293 117.798 69.5627 117.803L69.5079 117.776C69.4366 117.738 69.3746 117.684 69.3262 117.618C68.9147 117.049 68.4195 117.25 67.9607 117.241C67.6221 117.236 67.5785 117.244 67.6366 116.882L67.7049 116.468C67.5022 116.568 67.3065 116.578 67.2708 116.49C67.2351 116.402 66.9877 116.225 66.9729 116.306L66.9782 116.382L67.0101 116.799C66.7276 116.713 66.0011 116.493 65.3959 116.306L64.8476 116.127C64.6686 116.09 64.5013 116.009 64.3594 115.892C64.0817 115.629 63.7465 115.438 63.3814 115.336L63.1354 115.231C63.0183 115.079 62.867 114.96 62.6945 114.882L62.6216 114.887C62.5293 114.893 62.3988 114.963 62.3565 114.924C61.9021 114.596 61.4125 114.323 60.8968 114.111L60.4497 113.859C59.963 113.516 59.2664 113.053 58.902 112.829L58.5789 112.705C58.3052 112.598 58.1335 112.605 58.044 112.251L57.984 112.013C57.855 111.991 57.7325 111.94 57.6251 111.864C57.5178 111.788 57.4283 111.688 57.3626 111.572C57.3325 111.412 56.8917 111.468 56.7797 111.503C56.6676 111.538 56.3556 111.109 56.1645 110.92L55.9224 111.038L55.8667 111.065C55.7483 111.052 55.815 111.214 56.0068 111.432C56.2649 111.794 56.5909 112.099 56.9656 112.329L57.0482 112.646C57.117 112.932 57.2241 113.208 57.3664 113.463L57.4979 113.687C57.7272 113.911 57.9978 114.086 58.2942 114.202C58.5171 114.27 59.2807 115.437 60.0599 116.13C60.8392 116.822 63.0149 118.761 63.1111 118.978C63.2072 119.196 63.9236 119.305 64.0833 119.362C64.243 119.42 64.7497 120.16 65.0719 120.439L65.418 120.626L65.8012 120.837C66.2402 121.163 66.6983 121.461 67.1732 121.729L67.3406 122.086L67.4188 122.253C67.4022 122.468 67.5573 122.487 67.7635 122.293L68.0181 122.678L68.264 123.039C68.7527 123.348 69.2152 123.697 69.6468 124.085L70.1425 124.15L70.313 124.172C70.651 124.629 71.0466 125.038 71.4897 125.388C71.9321 125.736 73.2425 126.345 73.2194 126.419C73.2158 126.483 73.2354 126.547 73.2743 126.596C73.3132 126.646 73.3686 126.679 73.4301 126.689C73.585 126.713 74.0515 126.9 74.3734 126.95L74.3973 127.055C74.5014 127.53 74.8817 127.622 75.2019 127.818L75.2411 127.842C75.4054 128.067 75.6253 128.243 75.8782 128.351C76.2236 128.537 77.3776 129.269 77.7105 129.458C78.2375 129.76 78.7043 130.161 79.0868 130.641L79.4666 130.501C79.621 130.443 79.9398 130.64 80.1551 130.781C80.3872 130.933 80.5784 131.158 80.7983 131.335C80.8818 131.408 80.9872 131.449 81.0972 131.452C81.2701 131.431 81.4446 131.459 81.6023 131.532C81.76 131.606 81.8947 131.722 81.9921 131.869L82.2641 132.202C82.9372 132.483 83.588 132.817 84.2108 133.2C84.8962 133.614 87.3707 134.934 88.1219 135.352L88.7962 135.754C89.2328 136.103 89.7519 136.327 90.3019 136.403C90.4074 136.419 90.5058 136.466 90.5853 136.538C90.5621 136.928 90.9043 136.887 91.0856 136.964C91.6174 137.134 92.1194 137.389 92.5735 137.718L92.9233 138.008C93.4342 138.097 93.9287 138.264 94.3909 138.502C94.9206 138.761 95.4694 138.977 96.0326 139.147C96.3429 139.235 97.2725 139.717 97.5174 139.824C97.7623 139.932 99.3845 140.586 100.601 141.092L101.709 141.548C101.834 141.621 101.971 141.67 102.113 141.694L102.515 141.678C102.868 141.838 103.233 141.97 103.605 142.072C103.797 142.109 104.425 142.491 104.616 142.542L104.79 142.545C104.94 142.527 105.093 142.543 105.235 142.594C105.378 142.645 105.507 142.728 105.614 142.838C105.759 142.948 105.928 143.02 106.107 143.048C106.357 143.08 106.602 143.143 106.836 143.236L107.702 143.756C108.567 143.905 109.422 144.113 110.259 144.378C110.873 144.577 111.496 144.742 112.128 144.873C112.469 145.002 112.804 145.148 113.131 145.312C113.58 145.478 114.04 145.613 114.507 145.716L114.862 145.778C114.972 145.798 115.072 145.854 115.148 145.938L115.363 146.223C115.678 146.298 116.674 146.614 117.574 146.926L118.34 147.409C118.369 147.426 118.411 147.416 118.445 147.428L118.991 147.615C119.525 147.841 120.073 148.029 120.632 148.179C120.938 148.242 122.088 148.948 122.6 149.193C123.112 149.438 124.852 149.914 125.256 150.091C125.661 150.268 127.256 151.051 127.913 151.409L128.51 151.547L129.017 151.665C129.396 151.94 129.805 152.17 130.236 152.348C130.477 152.42 131.58 153.019 132.158 153.323L132.684 153.536C133.153 153.725 133.384 154.244 133.95 154.299C134.312 154.335 134.707 154.769 135.093 155.004C135.863 155.466 136.641 155.913 137.417 156.363L137.479 156.399C137.555 156.425 138.177 156.867 138.861 157.381L139.49 157.835C139.894 158.126 140.316 158.387 140.724 158.668C141.132 158.95 141.407 159.47 141.962 159.503C142.017 159.506 142.079 159.635 142.143 159.653C142.553 159.773 142.362 160.458 142.994 160.472L143.256 160.478C143.634 160.908 143.95 161.393 144.195 161.917L144.62 162.042L145.003 162.153C145.253 162.58 145.573 162.957 145.949 163.269L146.086 163.681C146.155 163.892 146.476 164.067 146.698 164.25L146.911 164.423C146.898 164.549 146.914 164.677 146.958 164.795C147.001 164.914 147.072 165.019 147.163 165.104L147.332 165.23C147.467 165.329 147.714 165.31 147.717 165.547C147.715 165.976 148.042 166.197 148.288 166.508C148.628 166.991 148.935 167.497 149.208 168.023L149.284 168.15C149.357 168.281 149.348 168.42 149.263 168.46C149.156 168.505 149.058 168.568 148.972 168.648C149.048 168.711 149.142 168.749 149.24 168.755C149.383 168.796 149.516 168.868 149.63 168.966C149.743 169.065 149.834 169.187 149.898 169.325L149.917 169.571L149.927 169.701C149.874 169.838 149.889 169.966 149.968 169.982C150.048 169.997 150.128 170.217 150.089 170.375C150.05 170.533 150.019 171.023 150.092 170.978C150.165 170.933 150.39 170.89 150.394 171.005C150.454 171.275 150.55 171.536 150.678 171.779L150.796 171.968C151.095 172.443 151.094 172.598 150.836 173.271L150.79 173.389C150.8 173.578 150.969 173.666 151.167 173.583L151.241 173.853L151.268 173.951C151.575 174.196 151.908 174.403 152.262 174.568L152.699 174.741L153.574 175.086C154.533 175.489 155.632 175.963 156.015 176.139C156.398 176.314 157.763 176.964 158.195 177.2C158.628 177.435 160.064 178.216 160.466 178.376C160.869 178.535 161.951 179.323 162.158 179.378L162.276 179.495L162.703 179.915C163.246 180.231 164.118 180.755 164.632 181.078C165.146 181.402 166.707 182.477 167.024 182.609L167.21 182.814L167.421 183.048C167.701 183.236 168.064 183.455 168.226 183.535C168.389 183.615 169.654 184.485 170.75 185.187L171.541 186.105L171.768 186.368C172.129 186.633 172.509 186.869 172.905 187.075L173.17 187.288C173.483 187.541 173.778 187.823 174.081 188.092L174.355 188.333C174.772 188.718 175.157 189.137 175.508 189.587L176.007 189.851L176.397 190.058C176.736 190.547 177.123 191.112 177.253 191.319C177.59 191.64 177.907 191.982 178.203 192.343L178.626 192.279L178.672 192.272C178.867 192.432 179.051 192.606 179.221 192.794C179.49 193.269 179.732 193.76 179.945 194.265L180.069 194.469L180.254 194.781C180.443 194.621 180.658 194.58 180.732 194.695C180.807 194.809 181.068 195.408 181.222 195.768L181.16 196.015L181.025 196.545C181.474 196.573 181.897 196.763 182.221 197.081L182.123 197.507C182.122 197.562 182.134 197.617 182.157 197.666C182.179 197.716 182.213 197.759 182.254 197.794C182.814 198.077 182.593 198.594 182.807 198.979C182.852 199.058 182.799 199.275 182.746 199.284C182.569 199.31 182.477 199.331 182.66 199.519C182.756 199.592 182.844 199.675 182.925 199.766C183.003 199.89 183.004 200.06 183.091 200.171C183.289 200.409 183.18 200.563 183.002 200.553L182.58 200.525C182.717 200.782 182.832 201.05 182.924 201.327C182.979 201.518 183.373 202.065 183.302 202.343L183.238 202.595C183.159 202.909 182.842 202.908 182.595 202.98L182.557 202.992C182.41 202.611 182.39 202.19 182.499 201.793L182.565 201.358L182.553 201.325ZM144.454 178.183C144.522 178.408 144.468 178.519 144.333 178.429C143.973 178.223 143.595 178.05 143.204 177.912L142.986 178.093C142.674 178.352 142.324 178.032 141.999 178.045C141.678 178.025 141.36 177.97 141.05 177.881C140.735 177.843 140.423 177.781 140.117 177.695C139.6 177.47 139.015 177.464 138.488 177.678C138.289 177.776 138.165 177.889 137.951 177.635C137.781 177.432 137.651 177.469 137.503 177.619C137.463 177.659 137.228 177.471 137.129 177.496C137.03 177.521 136.964 177.788 136.938 177.775L136.421 177.533C135.921 177.65 135.352 177.768 135.156 177.797C134.959 177.825 133.809 177.641 133.041 177.536L132.349 177.658L131.826 177.748C131.202 177.622 130.657 177.639 130.613 177.788L130.554 177.788L130.429 177.786C130.111 177.715 129.779 177.73 129.465 177.83C129.084 177.93 127.902 178.322 127.659 178.422C127.203 178.645 126.772 178.918 126.372 179.236C126.138 179.463 126.52 180.546 126.572 180.678C126.694 180.912 126.886 181.099 127.119 181.212C127.327 181.266 128.082 181.739 128.54 181.964C128.998 182.189 130.532 182.895 130.951 183.011C131.941 183.221 132.941 183.379 133.948 183.486L134.663 183.88C134.704 183.903 134.777 183.816 134.84 183.819C135.136 183.835 135.556 183.997 135.706 183.858C136.051 183.552 136.304 184.105 136.589 184.011C136.635 183.995 136.749 184.101 136.783 184.081C137.281 183.79 137.919 184.057 138.458 183.957C139.012 183.855 139.528 183.656 140.103 183.591C140.591 183.534 141.072 183.415 141.533 183.237C141.953 183.075 142.421 183.037 142.841 182.853L143.219 182.689C143.597 182.634 143.967 182.529 144.321 182.378L144.31 182.303C144.246 181.852 144.384 181.792 144.792 182.045C144.85 182.081 145.063 181.888 145.145 181.759L145.211 181.659C145.366 181.418 145.543 181.193 145.738 180.986L146.137 180.919L146.434 180.873C146.671 180.604 146.949 180.376 147.257 180.2C147.431 180.134 147.385 179.495 147.485 179.363C147.585 179.232 146.632 178.914 146.02 178.845L145.468 178.614C145.234 178.517 145.008 178.391 144.77 178.305L144.454 178.183ZM59.3136 105.966C58.9458 105.787 58.7494 105.798 58.8714 105.98C58.9934 106.163 59.283 106.72 59.4228 106.753C59.5625 106.786 59.9827 107.06 60.1396 107.087C60.2965 107.113 60.6554 107.672 60.923 107.846C61.1906 108.021 62.1138 108.471 62.3675 108.693C62.6212 108.915 63.5312 109.03 63.6445 109.215L63.7965 109.321C63.9024 109.395 64.0902 109.306 64.2266 109.358C64.303 109.389 64.3411 109.631 64.4104 109.651L64.7243 109.74C65.049 109.788 65.3591 109.907 65.6344 110.088C66.1997 110.348 66.7852 110.56 67.385 110.721L67.8474 110.957L68.2935 111.185C68.6104 111.11 68.9223 111.2 68.985 111.386L69.0832 111.437L69.3073 111.554C69.5763 111.615 70.1437 111.711 70.568 111.767C70.9924 111.823 72.3276 112.234 72.5993 112.283L72.8388 112.366L73.0722 112.449C73.2334 112.419 73.3967 112.403 73.5602 112.402L73.5836 112.385C73.6396 112.353 73.7275 112.315 73.7235 112.269L73.7225 112.179C73.6238 112.01 73.5088 111.851 73.3792 111.706C73.0864 111.382 72.7552 111.098 72.393 110.86L72.1654 110.741L71.8859 110.594C71.5188 110.326 71.1803 110.018 70.8759 109.677L70.5264 109.484L70.2615 109.334C70.2608 109.054 70.1798 108.781 70.0288 108.549L69.9335 108.543L69.4512 108.512C69.1395 108.279 68.6744 107.915 68.4159 107.703L68.1626 107.552C67.8758 107.381 67.4733 107.299 67.7492 106.863C67.7583 106.847 67.5406 106.595 67.4674 106.601L67.1429 106.628C66.8117 106.704 66.5215 106.68 66.4912 106.579C66.461 106.478 66.475 106.255 66.5741 106.295C66.6732 106.334 66.7354 106.314 66.3433 106.128C65.9512 105.942 64.9503 105.81 65.0328 105.663C65.1153 105.516 65.0909 105.173 64.8289 105.171C64.4323 105.185 64.0355 105.176 63.6405 105.144C63.4864 105.098 63.0651 104.9 63.0302 105.001C62.9952 105.103 62.2858 105.056 61.9022 105.026L61.5946 105.169C61.4223 105.248 61.1857 105.39 61.0465 105.317C60.9538 105.248 60.8393 105.217 60.7249 105.231C60.6105 105.244 60.5043 105.3 60.4268 105.389C60.2191 105.555 59.8046 105.491 59.6183 105.669L59.3136 105.966Z" fill="#6FB2A5"/>
<path d="M9.43551 62.6402L9.45944 62.38L9.50599 61.8627L8.52023 61.116C8.36389 60.9984 7.89716 60.6059 7.95366 60.5077C7.98231 60.3731 7.97801 60.2336 7.94119 60.1019C7.90435 59.9701 7.83624 59.8501 7.74283 59.753C7.61716 59.5809 7.55058 59.3702 7.55354 59.1537C7.54414 58.957 7.57187 58.8148 7.61832 58.9152C7.72699 59.1618 7.87679 59.3865 8.06101 59.5791C8.13081 59.5775 8.42122 59.4395 8.38663 59.2779L8.29217 59.179C7.96561 58.8432 8.19106 58.6933 8.33717 58.4749C8.46084 58.2941 8.84021 58.4124 8.78613 57.9942L8.75629 57.7643C8.99275 57.4693 9.25017 57.193 9.52645 56.9375C9.75507 56.7361 10.4915 57.3201 10.6289 57.4179C10.7664 57.5157 11.2868 57.9775 11.5353 58.1745C11.7838 58.3714 12.4572 59.2508 12.6972 59.4193C12.9373 59.5877 13.5139 60.4728 13.7293 60.6435C13.9842 60.9188 14.2653 61.1669 14.5682 61.3844C14.7675 61.5503 14.9288 61.7595 15.0408 61.9974C15.1925 62.2596 15.3677 62.5064 15.564 62.7347C15.9518 63.1445 17.306 64.5488 17.6908 64.9686C18.2177 65.5935 18.71 66.2485 19.1657 66.9306L19.306 67.0308L20.3151 67.7605C21.1903 68.8005 22.1384 69.9394 22.425 70.2999L22.7075 70.6096C23.003 70.8565 23.2491 71.1602 23.4325 71.5041L23.5342 71.7532C23.861 71.977 24.2968 72.279 24.5049 72.4214C24.7131 72.5639 25.2307 73.3287 25.4466 73.4744C25.6625 73.6202 26.1748 74.4649 26.4248 74.7347C26.897 75.1773 27.3968 75.5875 27.9212 75.9627L27.934 76.1066C27.9402 76.1803 27.9671 76.2503 28.0115 76.308C28.056 76.3656 28.1159 76.4084 28.184 76.4311C28.2578 76.4609 28.3226 76.51 28.3724 76.5734C28.4954 76.7652 28.6352 76.9449 28.79 77.1103C28.987 77.3134 29.23 77.4763 29.4156 77.6867C29.4784 77.7679 29.5304 77.8576 29.5704 77.9531C29.633 78.0853 29.688 78.2096 29.7611 78.2335C30.2766 78.3834 30.391 78.9254 30.7848 79.1819C31.0171 79.3434 31.2304 79.5322 31.4204 79.7444L31.5885 79.9194C31.7571 80.1473 31.9106 80.3867 32.0477 80.6362L32.2415 80.7611C32.3679 80.8158 32.4797 80.9008 32.5674 81.0091C32.6551 81.1175 32.7163 81.2462 32.7461 81.3844L32.7567 81.4673C33.1696 81.6609 33.56 81.9016 33.9204 82.185C34.2095 82.4882 34.4516 82.8358 34.6384 83.2154C34.7529 83.4239 34.8329 83.5815 34.8449 83.5929C34.8774 83.6229 35.327 84.0659 35.7761 84.5081C36.2252 84.9503 37.5556 86.3564 37.7686 86.6151C37.9816 86.8737 38.6678 87.7237 38.8207 87.9244L38.9766 88.0914C39.2347 88.3698 39.6239 88.4607 39.8372 88.8433C39.9283 88.9808 40.0451 89.0979 40.1808 89.188C40.3774 89.3066 40.5267 89.493 40.6031 89.7146L40.7097 90.1393C41.0967 90.4636 41.464 90.8122 41.8094 91.1833C42.0465 91.4501 43.1415 92.4315 43.5698 92.88C43.9981 93.3285 45.2369 94.6078 45.3874 94.7039C45.6067 94.9006 45.7981 95.1282 45.9561 95.38C46.0388 95.5256 46.7903 95.8972 47.1956 96.2092C47.7046 96.7837 48.1763 97.3923 48.6079 98.031L48.7858 98.19L50.3601 99.595C52.0928 101.135 53.7173 102.655 53.9692 102.969L54.3831 102.935C54.4775 102.928 54.663 103.11 54.7366 103.237C54.8405 103.419 54.767 103.733 55.1036 103.719L55.4803 103.705C55.8604 103.653 56.2091 103.456 56.4581 103.153L56.7645 103.122C56.8246 103.117 56.8241 102.932 56.8749 102.848L56.9998 102.638C57.0886 102.789 57.2301 102.9 57.3956 102.946L57.4297 102.9L57.5031 102.793C57.6558 102.57 57.8727 102.403 58.1224 102.315C58.4133 102.193 59.4273 102.188 59.6765 102.455L59.9013 102.213C59.999 102.117 60.1165 102.044 60.2447 102.002C60.373 101.959 60.5087 101.946 60.6417 101.965L60.733 101.965C60.8862 101.789 61.0215 101.597 61.1365 101.393L61.4942 101.515L61.5925 101.548C61.7081 101.518 62.0378 101.462 62.3275 101.424C62.7712 101.495 63.1992 101.643 63.5934 101.862L63.6937 101.884L63.801 101.909C63.9917 101.881 64.1796 101.835 64.3627 101.772C64.5571 101.707 65.0586 101.712 65.1246 102.039L65.4818 101.702L65.6292 101.561C65.7239 101.541 65.8215 101.542 65.9153 101.565C66.0091 101.587 66.0968 101.631 66.1722 101.692C66.5171 101.933 66.8903 102.128 67.283 102.273C67.7312 102.451 69.1384 102.973 69.418 103.111C69.9965 103.453 70.5576 103.824 71.0995 104.223C71.5044 104.527 73.0674 105.424 73.5558 105.768L73.8829 106.222L74.085 106.504C74.3892 106.721 74.9109 107.142 75.2436 107.439L75.5459 107.708C75.8493 107.978 76.1519 108.248 76.4539 108.517C76.5191 108.561 76.5741 108.618 76.6148 108.686C76.6944 108.964 76.5818 109.291 77.0964 109.395C77.1883 109.413 77.2601 109.555 77.3456 109.721C77.4115 109.863 77.4977 109.995 77.6017 110.11C77.776 110.303 77.9192 110.523 78.0261 110.762C78.1607 111.083 78.3706 111.363 78.637 111.578C78.6563 111.592 78.6201 111.703 78.6091 111.767C78.5988 111.93 78.5657 112.091 78.511 112.245L78.3485 112.548C78.5972 112.674 78.6908 112.811 78.5565 112.854L78.5379 112.988C78.5093 113.186 78.5136 113.395 78.5039 113.599L78.3039 114.28L78.1651 114.397C78.0946 114.584 77.9528 115.011 77.8505 115.345L77.7491 115.652C77.6821 115.933 77.5929 116.209 77.4824 116.476C77.2435 116.938 76.9738 117.383 76.6755 117.807L76.5075 118.042C76.2972 118.219 76.0586 118.357 75.8027 118.449C75.5341 118.438 75.2676 118.399 75.007 118.334C74.7078 118.293 74.4028 118.337 74.1243 118.46L73.9236 118.507C73.6911 118.565 73.4054 118.203 73.1588 118.482L73.0364 118.623C72.9312 118.43 72.7857 118.264 72.6101 118.137C72.3297 118.038 72.0428 117.96 71.7515 117.902L71.5506 117.818L71.349 117.733C71.1176 117.589 70.864 117.546 70.7848 117.64C70.7055 117.734 70.3417 117.942 70.209 117.824C70.0764 117.706 69.673 117.413 69.6804 117.499C69.6878 117.585 69.6408 117.762 69.5748 117.767L69.5203 117.74C69.4493 117.701 69.3874 117.647 69.3391 117.581C68.9271 117.012 68.433 117.211 67.9748 117.202C67.6367 117.196 67.5924 117.205 67.6505 116.842L67.7182 116.428C67.5167 116.528 67.3203 116.538 67.2852 116.45C67.2501 116.361 67.0021 116.184 66.9869 116.264L66.9924 116.34L67.025 116.757C66.742 116.671 66.017 116.449 65.4124 116.261L64.8649 116.082C64.6861 116.045 64.519 115.964 64.3771 115.846C64.0992 115.582 63.7639 115.391 63.3988 115.289L63.1537 115.183C63.0363 115.032 62.8851 114.912 62.7128 114.833L62.6398 114.838C62.5469 114.845 62.4184 114.914 62.3754 114.875C61.9209 114.547 61.4313 114.273 60.9161 114.059L60.4694 113.807C59.9821 113.464 59.2861 112.999 58.9211 112.775L58.5983 112.65C58.3255 112.543 58.1539 112.551 58.0633 112.196L58.0035 111.959C57.8747 111.936 57.7524 111.885 57.6452 111.809C57.538 111.732 57.4485 111.632 57.3829 111.516C57.3513 111.356 56.9125 111.412 56.8007 111.446C56.6888 111.481 56.3765 111.052 56.1854 110.862L55.9447 110.979L55.8882 111.006C55.7695 110.992 55.837 111.156 56.029 111.374C56.2876 111.736 56.6135 112.041 56.988 112.271L57.0713 112.587C57.1407 112.874 57.2481 113.149 57.3905 113.405L57.5228 113.628C57.7518 113.853 58.0222 114.028 58.3183 114.143C58.5415 114.213 59.3056 115.38 60.0842 116.074C60.8629 116.769 63.0392 118.709 63.1361 118.927C63.233 119.145 63.9475 119.254 64.1076 119.313C64.2677 119.372 64.7752 120.111 65.0977 120.39L65.4439 120.578L65.8269 120.79C66.2643 121.117 66.721 121.416 67.1945 121.686L67.3623 122.043L67.4407 122.21C67.4246 122.425 67.5787 122.445 67.7843 122.251L68.0394 122.636L68.2856 122.998C68.7744 123.307 69.2369 123.658 69.6686 124.047L70.1637 124.112L70.3338 124.136C70.6725 124.594 71.0685 125.003 71.5118 125.353C71.9533 125.702 73.2629 126.314 73.2407 126.387C73.2372 126.451 73.2567 126.514 73.2955 126.564C73.3342 126.614 73.3896 126.647 73.451 126.658C73.6051 126.681 74.0713 126.869 74.3934 126.92L74.4167 127.025C74.5216 127.5 74.9022 127.593 75.2215 127.79L75.2607 127.814C75.4256 128.039 75.6453 128.215 75.8978 128.324C76.2431 128.51 77.3942 129.241 77.7295 129.434C78.2563 129.737 78.7233 130.139 79.1065 130.619L79.4855 130.48C79.6393 130.424 79.9587 130.621 80.1728 130.762C80.396 130.936 80.6104 131.121 80.8154 131.317C80.8989 131.39 81.004 131.432 81.1138 131.435C81.2864 131.414 81.4607 131.442 81.6182 131.516C81.7757 131.59 81.9104 131.707 82.0077 131.854L82.2799 132.187C82.9527 132.469 83.603 132.803 84.2254 133.188C84.9106 133.604 87.3848 134.926 88.1345 135.345L88.8083 135.749C89.2452 136.098 89.764 136.322 90.3132 136.4C90.4187 136.416 90.5172 136.463 90.597 136.536C90.5745 136.924 90.9156 136.885 91.097 136.961C91.6286 137.132 92.1306 137.388 92.5847 137.719L92.9344 138.008C93.4448 138.099 93.9388 138.266 94.4007 138.505C94.9301 138.765 95.4789 138.982 96.0419 139.153C96.3524 139.243 97.2811 139.726 97.5251 139.834C97.7691 139.942 99.3916 140.599 100.607 141.106L101.714 141.565C101.839 141.638 101.975 141.687 102.118 141.711L102.519 141.697C102.872 141.857 103.236 141.989 103.608 142.091C103.798 142.129 104.426 142.512 104.617 142.564L104.791 142.567C104.941 142.549 105.093 142.567 105.236 142.618C105.378 142.669 105.507 142.752 105.614 142.862C105.76 142.972 105.929 143.044 106.108 143.073C106.352 143.145 106.625 143.134 106.837 143.262L107.702 143.784C108.567 143.935 109.42 144.144 110.257 144.409C110.87 144.609 111.493 144.776 112.123 144.908C112.464 145.037 112.798 145.184 113.124 145.348C113.574 145.514 114.033 145.65 114.501 145.754L114.855 145.816C114.965 145.836 115.065 145.892 115.141 145.977L115.355 146.263C115.671 146.338 116.665 146.656 117.565 146.97L118.33 147.453C118.359 147.471 118.402 147.461 118.436 147.473L118.981 147.662C119.515 147.888 120.062 148.078 120.621 148.228C120.926 148.292 122.076 149 122.587 149.246C123.099 149.491 124.838 149.97 125.241 150.147C125.645 150.325 127.241 151.111 127.896 151.469L128.494 151.608L129 151.726C129.379 152.002 129.788 152.232 130.219 152.411C130.459 152.483 131.562 153.084 132.14 153.389L132.665 153.602C133.134 153.792 133.366 154.312 133.93 154.367C134.293 154.404 134.687 154.838 135.074 155.074C135.844 155.537 136.622 155.985 137.397 156.438L137.459 156.473C137.535 156.499 138.156 156.942 138.84 157.457L139.47 157.913C139.874 158.204 140.296 158.465 140.704 158.747C141.111 159.029 141.387 159.549 141.941 159.583C141.995 159.586 142.058 159.715 142.122 159.734C142.199 159.766 142.268 159.817 142.322 159.882C142.377 159.948 142.415 160.026 142.434 160.11C142.461 160.236 142.529 160.349 142.627 160.429C142.725 160.51 142.846 160.554 142.972 160.554L143.233 160.56C143.612 160.991 143.928 161.476 144.173 162L144.598 162.125L144.981 162.239C145.231 162.665 145.551 163.043 145.927 163.356L146.065 163.769C146.135 163.979 146.456 164.155 146.677 164.337L146.891 164.51C146.878 164.637 146.893 164.764 146.937 164.883C146.981 165.001 147.052 165.107 147.143 165.191L147.313 165.318C147.446 165.416 147.695 165.399 147.697 165.635C147.695 166.064 148.023 166.285 148.27 166.597C148.609 167.08 148.917 167.587 149.192 168.113L149.266 168.241C149.341 168.373 149.332 168.512 149.247 168.551C149.162 168.589 148.947 168.711 148.957 168.738C149.034 168.802 149.127 168.839 149.225 168.846C149.368 168.887 149.501 168.959 149.615 169.057C149.728 169.156 149.82 169.278 149.883 169.417L149.902 169.662L149.913 169.792C149.859 169.93 149.875 170.057 149.955 170.074C150.035 170.09 150.115 170.309 150.076 170.467C150.038 170.625 150.007 171.115 150.081 171.071C150.154 171.026 150.377 170.983 150.381 171.099C150.443 171.369 150.539 171.628 150.667 171.872L150.785 172.06C151.084 172.536 151.084 172.691 150.828 173.363L150.781 173.481C150.792 173.67 150.961 173.758 151.158 173.676L151.231 173.945L151.259 174.043C151.565 174.288 151.899 174.496 152.252 174.661L152.688 174.834L153.565 175.181C154.522 175.586 155.62 176.061 156.002 176.238C156.384 176.415 157.749 177.067 158.182 177.303C158.615 177.539 160.05 178.323 160.451 178.482C160.853 178.641 161.935 179.431 162.142 179.487L162.261 179.604L162.689 180.024C163.232 180.342 164.103 180.867 164.617 181.191C165.131 181.516 166.689 182.589 167.009 182.725L167.192 182.927L167.404 183.161C167.684 183.349 168.046 183.569 168.209 183.649C168.372 183.729 169.636 184.601 170.732 185.305L171.523 186.225L171.75 186.488C172.111 186.754 172.491 186.99 172.887 187.197L173.152 187.41C173.466 187.664 173.759 187.945 174.063 188.215L174.337 188.457C174.754 188.843 175.14 189.262 175.491 189.713L175.989 189.978L176.379 190.185C176.719 190.673 177.106 191.24 177.237 191.447C177.364 191.598 177.502 191.738 177.651 191.866C177.856 192.042 178.037 192.246 178.188 192.473L178.61 192.408L178.656 192.401C178.851 192.561 179.035 192.736 179.205 192.924C179.383 193.178 179.527 193.455 179.633 193.748C179.718 193.971 179.818 194.187 179.93 194.396L180.053 194.599L180.24 194.911C180.428 194.751 180.641 194.712 180.716 194.827C180.791 194.941 181.053 195.539 181.207 195.9L181.145 196.145L181.012 196.674C181.46 196.704 181.882 196.894 182.207 197.212L182.11 197.639C182.109 197.694 182.121 197.748 182.144 197.798C182.166 197.848 182.199 197.891 182.241 197.926C182.801 198.211 182.581 198.726 182.795 199.111C182.84 199.19 182.789 199.408 182.735 199.416C182.558 199.441 182.467 199.463 182.65 199.65C182.746 199.724 182.835 199.807 182.915 199.898C182.994 200.023 182.996 200.193 183.082 200.304C183.28 200.542 183.171 200.695 182.995 200.686L182.573 200.657C182.71 200.914 182.826 201.182 182.918 201.459C182.974 201.65 183.367 202.198 183.298 202.476L183.235 202.727C183.156 203.041 182.84 203.038 182.593 203.111L182.554 203.121C182.408 202.74 182.387 202.319 182.495 201.922L182.56 201.487L182.565 201.453C182.423 201.333 182.289 201.332 182.258 201.443C182.227 201.554 182.072 201.743 182.007 201.492C181.942 201.24 182.063 200.494 181.945 200.58C181.827 200.666 181.44 200.875 181.52 200.728C181.569 200.616 181.582 200.491 181.557 200.372C181.533 200.252 181.472 200.144 181.383 200.064C180.983 199.731 180.632 199.34 180.342 198.903L180.039 198.67C179.945 198.585 179.866 198.485 179.805 198.372C179.771 198.322 179.741 198.268 179.703 198.222C179.571 198.04 179.321 197.83 179.326 197.68C179.334 197.476 179.227 197.463 179.114 197.446C179.072 197.445 179.03 197.434 178.994 197.412C178.957 197.39 178.927 197.359 178.906 197.321L178.817 197.124C178.475 196.921 178.181 196.643 177.955 196.31L177.739 196.112C177.445 195.84 176.974 195.693 176.789 195.391L176.534 194.974C175.969 194.695 175.433 194.358 174.935 193.968L174.527 193.529C174.167 193.053 173.681 192.696 173.127 192.501C172.863 192.398 172.644 192.201 172.509 191.945C172.474 191.854 172.419 191.773 172.348 191.708C172.278 191.643 172.193 191.596 172.101 191.571C171.83 191.461 171.315 191.473 171.327 190.924C171.284 190.863 171.22 190.822 171.149 190.809C170.965 190.873 170.915 190.755 170.873 190.646C170.843 190.571 170.813 190.498 170.743 190.478C170.531 190.446 170.324 190.383 170.128 190.291L169.974 190.186C169.704 189.834 169.378 189.531 169.011 189.289C168.446 188.923 167.851 188.609 167.232 188.349L167.177 188.137C167.135 188.009 167.056 187.896 166.952 187.815C166.847 187.733 166.721 187.685 166.59 187.677C166.276 187.575 165.978 187.432 165.7 187.25C165.388 187.131 165.099 186.955 164.847 186.73C164.618 186.45 164.227 186.527 164.079 186.186C164.064 186.15 164.073 186.085 164.059 186.078C163.716 185.931 163.289 186.045 163.048 185.585L162.101 184.908L161.722 184.795C161.125 184.573 160.55 184.294 160.003 183.962L159.533 183.641C159.336 183.512 159.181 183.274 158.994 183.55C158.975 183.577 158.736 183.501 158.72 183.453L158.5 182.793C158.032 182.79 157.565 182.734 157.109 182.627C156.723 182.502 156.326 182.414 155.923 182.365C155.708 182.369 155.059 181.644 154.671 181.408C153.869 181.207 153.053 181.07 152.229 180.998L151.794 180.57L151.556 180.337C151.081 180.217 150.7 180.607 150.709 181.203L150.582 181.645C150.463 182.146 150.304 182.636 150.108 183.11C149.742 184.17 149.155 185.136 148.388 185.938L147.854 186.386C147.317 186.928 146.641 187.566 146.351 187.804L146.174 188.145C145.942 188.456 145.637 188.701 145.288 188.855L144.968 189.048C144.575 189.204 144.119 189.379 143.951 189.435C143.658 189.546 143.375 189.684 143.105 189.847C142.967 189.948 142.376 189.819 142.28 189.85L142.198 189.89L141.629 190.176C140.745 190.279 139.856 190.324 138.968 190.311L138.543 190.509C138.227 190.659 137.9 190.335 137.604 190.572C137.446 190.699 136.994 190.479 136.679 190.428C136.533 190.402 136.383 190.398 136.235 190.416C136.074 190.443 135.931 190.554 135.774 190.54C135.733 190.536 135.725 190.478 135.713 190.413C135.695 190.314 135.665 190.195 135.482 190.233C135.3 190.271 135.079 189.856 134.932 190.187L133.575 190.032L133.017 189.932C132.419 189.724 131.455 189.422 130.872 189.259L130.351 189.182C130.059 189.131 129.782 189.017 129.537 188.848C129.114 188.64 128.677 188.464 128.23 188.32C127.861 188.163 127.437 188.074 127.258 187.602C127.234 187.54 127.141 187.493 127.082 187.438L126.703 187.101C126.145 186.76 125.642 186.331 125.213 185.83L124.866 185.471L124.516 185.108C124.199 184.729 123.863 184.367 123.51 184.023C123.257 183.558 123.031 183.077 122.836 182.583C122.455 181.633 122.176 180.642 122.003 179.627L122.245 179.243L122.445 178.929C122.402 178.494 122.42 178.054 122.497 177.622L122.571 177.305C122.652 176.957 122.757 176.616 122.853 176.275C122.881 176.182 122.977 176.093 122.955 176.009C122.866 175.81 122.788 175.605 122.722 175.396C122.695 175.209 123.092 175.281 122.985 174.943C122.932 174.78 123.088 174.577 123.168 174.41C123.34 173.98 123.562 173.572 123.83 173.197L124.163 172.811C124.614 172.46 125.595 171.808 126.342 171.362L127.019 170.957L127.515 170.659C128.21 170.618 128.901 170.534 129.587 170.407L130.043 170.54L130.436 170.655C130.938 170.542 131.453 170.506 131.963 170.548C132.581 170.598 133.202 170.616 133.822 170.601C134.098 170.583 134.834 170.679 134.856 170.498C134.878 170.318 135.597 170.77 135.967 170.864C136.337 170.958 138.414 170.747 139.937 170.944L141.322 171.217C143.036 171.555 144.75 171.988 146.462 172.392L146.768 172.466C147.103 172.605 147.147 172.19 146.864 171.537C146.183 170.261 145.427 169.031 144.6 167.851L144.067 167.165L143.758 166.767C143.363 166.48 143.004 166.142 142.693 165.761C142.551 165.542 141.82 165.028 141.676 164.852L141.588 164.671C141.538 164.569 141.445 164.564 141.353 164.561C141.234 164.556 141.117 164.554 141.097 164.357C141.089 164.329 141.074 164.304 141.056 164.281C141.037 164.259 141.015 164.241 140.989 164.228C140.857 164.172 139.817 163.492 139.7 163.4C139.608 163.327 139.465 163.315 139.387 163.236C138.978 162.82 138.177 162.888 138.064 162.092L138.057 162.047C137.908 161.988 137.368 161.713 136.865 161.429C136.362 161.145 134.948 160.537 134.815 160.867L134.692 160.241L134.617 159.865C134.319 159.747 133.752 159.489 133.353 159.299C132.954 159.109 131.543 158.493 131.148 158.236L130.791 158.178C130.695 158.159 130.605 158.113 130.533 158.045C130.461 157.977 130.408 157.89 130.38 157.793C130.355 157.727 130.344 157.683 130.334 157.689L129.606 158.134C128.916 157.581 128.306 157.09 128.251 157.04C128.14 156.914 128.038 156.78 127.946 156.639C127.871 156.53 127.208 156.653 126.967 156.414C126.333 156.036 125.657 155.736 124.953 155.522L124.49 155.309C124.127 155.217 123.788 155.044 123.497 154.802C123.379 154.673 123.084 154.724 122.883 154.641L122.771 154.593C122.672 154.448 122.368 154.44 122.098 154.566L122 154.058C121.99 154.01 121.543 154.01 121.327 153.905L121.151 153.818C120.918 153.609 120.656 153.435 120.374 153.304L120.138 153.389C120.079 153.409 120.017 153.415 119.956 153.409C119.895 153.402 119.836 153.381 119.783 153.349C119.478 153.043 118.985 152.626 118.7 152.685L118.1 152.806C117.648 152.588 117.186 152.396 116.715 152.228L116.603 152.142C116.366 151.954 116.157 151.66 115.877 151.954C115.855 151.97 115.677 151.868 115.598 151.793C115.283 151.49 115 151.345 114.643 151.594C114.516 151.68 114.484 151.56 114.468 151.463C114.46 151.41 114.454 151.362 114.446 151.367L114.071 151.345C113.66 151.223 112.83 150.955 112.217 150.755L111.724 150.467L111.281 150.211C110.786 150.082 109.985 149.848 109.504 149.685L109.054 149.61C108.977 149.577 108.914 149.516 108.879 149.438C108.783 149.296 108.686 149.154 108.495 149.405C108.441 149.474 108.045 149.26 107.808 149.175L107.53 149.078C107.133 148.876 106.719 148.71 106.293 148.583C105.888 148.469 104.381 147.944 103.782 147.807C102.947 147.46 102.132 147.065 101.341 146.624C100.931 146.52 100.527 146.394 100.132 146.245C99.9227 146.125 99.1186 145.933 98.924 145.826C98.6661 145.596 98.4358 145.334 98.2378 145.047C98.1632 144.955 98.032 144.895 98.2208 145.242L97.9146 145.449C97.7213 145.579 97.6051 145.543 97.4786 145.352C97.3962 145.231 97.3309 144.966 97.3053 144.967L96.3098 145.016C95.92 144.548 95.5023 144.105 95.0591 143.691C95.1167 143.793 95.047 143.96 94.7934 143.867C94.2742 143.653 93.7703 143.402 93.2854 143.116L93.0034 143.091L92.6888 143.063C92.1936 142.737 91.6488 142.499 91.0765 142.358L90.5907 141.923L90.2484 141.618C90.0796 141.62 89.9129 141.581 89.7616 141.505C89.6103 141.429 89.4783 141.318 89.3757 141.181C89.2785 140.961 88.7924 140.681 88.6613 140.968L88.2116 140.658C88.0125 140.526 87.7918 140.485 87.7285 140.209L87.7191 140.168C87.6208 140.128 86.9604 139.938 86.2497 139.744L85.8677 139.342C85.7825 139.246 85.7073 139.141 85.6432 139.028C85.5662 138.878 85.4585 138.747 85.3275 138.644C85.0954 138.492 84.7749 138.513 84.4951 138.442C84.2144 138.381 83.9388 138.298 83.6708 138.193L83.4831 138.113C83.3057 137.883 83.1731 137.62 83.0927 137.338L82.8485 137.593C82.8173 137.626 82.5366 137.438 82.389 137.325L81.9277 136.979C81.5482 136.715 81.2054 136.398 80.9085 136.039C80.904 135.911 80.8825 135.784 80.8446 135.662C80.8093 135.665 80.7754 135.678 80.7464 135.699C80.7173 135.72 80.6943 135.749 80.6797 135.783C80.6427 135.868 80.4703 136.117 80.407 136.085C80.2608 135.851 80.1528 135.594 80.0873 135.324L79.7228 135.64C79.5993 135.599 79.4914 135.52 79.4134 135.413C79.3982 135.098 79.1766 135.225 79.0528 135.144C79.0008 135.091 78.9676 135.022 78.9582 134.947C78.9441 134.878 78.9162 134.813 78.8763 134.756L78.7862 134.65C78.6339 134.586 78.3214 134.48 78.0913 134.412C77.5624 134.221 77.0645 133.95 76.6135 133.608L76.2143 133.531C76.0254 133.507 75.8478 133.427 75.7034 133.301C75.559 133.174 75.4541 133.006 75.4014 132.817C75.3877 132.792 75.3691 132.77 75.3468 132.752C75.3246 132.735 75.2991 132.722 75.2718 132.715L74.5493 132.808C74.1621 132.195 73.9325 131.752 74.0358 131.818C74.1391 131.885 74.4415 131.983 74.2961 131.773L74.2963 131.661C74.2929 131.319 74.0401 131.491 73.9336 131.402C73.743 131.246 73.6134 131.369 73.4882 131.348L73.1358 131.291C72.615 131.027 72.4035 130.801 72.6653 130.788L72.744 130.731L72.809 130.683C72.8046 130.6 72.7795 130.52 72.7363 130.45C72.6932 130.38 72.6332 130.323 72.5623 130.284L72.4861 130.315L71.9089 130.541C71.4502 130.187 70.9193 129.79 70.7211 129.661L70.6628 129.554L70.4522 129.172C70.1246 128.993 69.7867 128.835 69.4403 128.698C69.2527 128.636 68.9334 128.088 68.8107 128.02C68.6375 127.871 68.4561 127.733 68.2674 127.606C68.1736 127.595 67.8365 127.465 67.7885 127.34C67.6733 127.089 67.5099 126.866 67.3082 126.683C66.8437 126.458 66.3642 126.267 65.8732 126.112L65.6525 125.839L65.1793 125.255C64.5183 124.952 63.9183 124.526 63.4088 123.998L63.0989 123.664L62.9229 123.476C62.6119 123.314 62.3302 123.098 62.0899 122.838C61.6444 122.482 61.1578 122.184 60.6407 121.951L60.556 121.635L60.4665 121.3C60.2674 121.163 60.0515 121.054 59.8244 120.975L59.8155 120.949C59.6369 120.551 59.3498 120.217 58.989 119.986C58.7269 119.802 58.4961 119.576 58.3057 119.315L58.1667 119.097C58.0755 118.82 57.9088 118.588 57.7982 118.583C57.4432 118.438 57.145 118.177 56.949 117.839C56.7575 117.445 55.5455 115.899 54.9184 115.014L54.3845 114.203C54.1673 113.872 54.0119 113.494 53.7808 113.145L53.5276 112.753C53.4326 112.229 53.3202 111.598 53.2799 111.351C53.2206 111.012 53.1815 110.669 53.1631 110.324C53.1824 110.25 53.4129 110.03 53.4608 109.934C53.5087 109.837 53.1666 109.34 53.0684 109.207L53.0925 109.178L53.324 108.898C53.235 108.721 53.1103 108.567 52.9585 108.445C52.8067 108.322 52.6311 108.235 52.4433 108.189C52.1906 108.138 51.8167 107.588 51.5878 107.237C51.5299 107.144 51.4667 107.054 51.3984 106.968C51.077 106.744 50.7982 106.461 50.5758 106.133L50.1625 106.111L50.1032 106.107C50.032 106.047 49.798 105.889 49.581 105.753C49.2902 105.495 49.026 105.206 48.7928 104.892C48.7398 104.812 48.6915 104.729 48.6483 104.643C48.6049 104.552 48.5537 104.465 48.4953 104.384C48.4288 104.315 47.6876 103.695 47.0363 103.153L46.4919 102.609C46.3646 102.424 46.1972 102.271 46.0026 102.164C45.7149 102.036 45.4814 101.807 45.3439 101.517L45.243 101.208C45.0218 101.033 44.6757 100.744 44.4779 100.564L44.3016 100.396C44.1327 100.233 43.8322 100.027 43.8365 99.895L43.851 99.5342C43.6047 99.5283 43.3592 99.5039 43.1167 99.461C43.009 99.4389 42.8743 99.1478 42.7424 98.8624C42.6738 98.7003 42.5939 98.5436 42.5033 98.3935L42.2837 98.1878L42.0816 97.9995C41.8466 97.8585 41.6236 97.6975 41.4148 97.5181C41.2968 97.4039 40.8368 96.8767 40.6125 96.6207L40.4099 96.387L40.1594 96.0975C39.8952 95.7699 39.572 95.3746 39.441 95.2173C39.1395 94.943 38.8173 94.6939 38.4773 94.4724C38.2643 94.3357 37.7119 93.7081 37.3825 93.4516C37.0531 93.1951 36.1516 91.776 35.5531 91.2425L35.1911 90.6349C35.149 90.5722 35.0951 90.519 35.0326 90.4783C34.9701 90.4376 34.9001 90.4104 34.827 90.3981C34.7376 90.3897 34.6526 90.355 34.5823 90.2979C34.5119 90.2409 34.4593 90.1639 34.4305 90.0763L34.3513 89.8141C34.1817 89.5736 33.9592 89.3783 33.7017 89.244L33.5798 89.1673C33.3324 89.0121 32.9579 88.8802 33.2459 88.5158C33.2605 88.5051 33.0527 88.2315 32.9833 88.2307L32.5721 88.2374C32.3454 87.9279 32.1424 87.6005 31.965 87.2581C31.8517 87.1133 31.7083 86.9965 31.5452 86.9165C31.3996 86.8461 31.2685 86.7477 31.159 86.6264C31.0973 86.4779 30.7979 85.9846 30.6765 85.9714C30.5551 85.9581 30.2769 85.8377 30.4227 85.7392C30.5685 85.6407 29.911 85.3079 29.7396 85.1409L29.5791 84.9816L29.0952 84.5043C28.5995 84.0696 28.2294 83.5025 28.0245 82.864L27.5876 82.8974C27.5379 82.9079 27.4868 82.9072 27.4375 82.8957C27.3882 82.8841 27.342 82.8618 27.3019 82.8302C27.2619 82.7987 27.2289 82.7586 27.2051 82.7126C27.1814 82.6666 27.1675 82.6159 27.1644 82.5638C27.1468 82.463 27.099 82.3707 27.0276 82.2999C26.8944 82.2231 26.7785 82.1183 26.6873 81.9922C26.596 81.866 26.5315 81.7214 26.4978 81.5675L26.4956 81.5176C26.3538 81.4428 26.1957 81.4061 26.0358 81.411C25.8762 81.4155 25.4547 80.725 25.2371 80.4708L25.0227 80.2456C24.8119 80.0223 24.4806 79.8801 24.4908 79.5147C24.4577 79.4428 24.3987 79.3871 24.3263 79.3595L23.7257 79.5513C23.5099 79.1392 23.327 78.7095 23.179 78.2662C22.8141 77.8705 22.4197 77.505 21.9993 77.1731L21.9444 76.911C21.937 76.8292 21.9016 76.7531 21.8446 76.6961C21.7877 76.6391 21.7129 76.6049 21.6334 76.5997C21.5893 76.5986 21.5462 76.5877 21.5067 76.5678C21.4672 76.548 21.4324 76.5196 21.4046 76.4846C21.2693 76.2633 21.0925 75.8653 20.9819 75.8631C20.8909 75.8603 20.8032 75.8287 20.7306 75.7725C20.6581 75.7163 20.6043 75.6384 20.5763 75.5492C20.54 75.4558 20.4801 75.3743 20.4028 75.3132C20.1967 75.1466 20.0368 74.9269 19.9389 74.676L19.8274 74.4686C19.393 74.1367 18.9836 73.7714 18.6028 73.3757C18.2288 72.9862 17.1627 71.8225 17.0669 71.6608C16.9982 71.561 16.9222 71.4668 16.8394 71.3792C16.7418 71.2791 16.6559 71.1675 16.5837 71.0466C16.3835 70.8439 16.158 70.6697 15.9129 70.5288C15.6399 70.1976 15.4409 69.8081 15.33 69.3875L14.8069 69.4927L14.7844 69.4968C14.526 69.0497 14.2344 68.6243 13.9117 68.2245C13.5565 67.7776 12.4295 66.4972 12.3096 66.2904C12.1347 66.0726 11.9363 65.8762 11.7182 65.7047C11.6099 65.5969 11.1793 65.1098 10.9756 64.8377L10.9052 64.5735C10.8032 64.2004 10.8041 63.8809 10.2589 63.8142L10.0559 63.7899C10.003 63.7267 9.9493 63.654 9.89386 63.5724C9.6962 63.2878 9.54162 62.9735 9.43551 62.6402ZM64.8361 105.115C64.4401 105.128 64.0438 105.118 63.6493 105.085C63.4959 105.039 63.0744 104.84 63.0402 104.942C63.006 105.044 62.2979 104.994 61.9141 104.964L61.6069 105.106C61.4351 105.186 61.1998 105.326 61.0604 105.254C60.9677 105.185 60.8533 105.154 60.7391 105.167C60.6249 105.181 60.5191 105.237 60.4419 105.325C60.236 105.491 59.8205 105.426 59.6349 105.604L59.3212 105.903C58.9529 105.724 58.7579 105.734 58.8795 105.916C59.0011 106.098 59.2924 106.657 59.431 106.689C59.5696 106.721 59.9906 106.997 60.1474 107.023C60.3041 107.05 60.6631 107.608 60.9312 107.784C61.1993 107.96 62.1213 108.411 62.375 108.633C62.6287 108.856 63.5376 108.973 63.6518 109.157L63.8033 109.262C63.9099 109.335 64.0965 109.247 64.2328 109.3C64.2703 109.315 64.3002 109.383 64.3295 109.453C64.3588 109.524 64.3842 109.587 64.4182 109.597L64.7331 109.686C65.0574 109.735 65.3673 109.855 65.6425 110.037C66.2075 110.297 66.7925 110.509 67.3917 110.672L67.854 110.909L68.2998 111.137C68.6161 111.063 68.9276 111.154 68.9901 111.339L69.0891 111.39L69.3124 111.507C69.5817 111.569 70.1484 111.665 70.5718 111.722C70.9951 111.778 72.3303 112.192 72.6019 112.24L72.8417 112.325L73.0748 112.408C73.2362 112.378 73.3998 112.363 73.5635 112.363L73.5868 112.346C73.6432 112.315 73.7309 112.275 73.726 112.229L73.7244 112.14C73.6255 111.971 73.5104 111.812 73.3807 111.667C73.0878 111.343 72.7563 111.058 72.3943 110.82L72.167 110.7L71.8869 110.553C71.5195 110.285 71.1807 109.977 70.8759 109.635L70.5302 109.439L70.2654 109.289C70.2641 109.009 70.1828 108.736 70.0316 108.504L69.9358 108.498L69.4541 108.466C69.1431 108.232 68.6767 107.868 68.4195 107.655L68.167 107.503C67.8803 107.332 67.4782 107.249 67.7529 106.814C67.7627 106.798 67.5442 106.545 67.4712 106.55L67.1473 106.576C66.8167 106.652 66.5265 106.626 66.4966 106.526C66.4667 106.426 66.4797 106.203 66.5787 106.242C66.6777 106.282 66.7399 106.261 66.348 106.075C65.9561 105.889 64.9563 105.755 65.0392 105.608C65.0691 105.546 65.0834 105.477 65.0808 105.409C65.0782 105.34 65.0586 105.273 65.0241 105.215C65.0029 105.183 64.9744 105.157 64.9411 105.14C64.9078 105.123 64.8709 105.114 64.8335 105.115L64.8361 105.115ZM146.054 178.904L145.502 178.673C145.268 178.575 145.042 178.449 144.803 178.362L144.473 178.245C144.542 178.47 144.488 178.581 144.353 178.492C143.993 178.284 143.615 178.11 143.224 177.972L143.007 178.153C142.696 178.412 142.346 178.09 142.022 178.103C141.701 178.082 141.383 178.027 141.073 177.938C140.758 177.899 140.446 177.836 140.141 177.75C139.624 177.523 139.041 177.515 138.515 177.729C138.315 177.826 138.192 177.939 137.978 177.684C137.808 177.482 137.678 177.518 137.531 177.668C137.491 177.708 137.256 177.519 137.157 177.544C137.059 177.569 136.994 177.835 136.967 177.823L136.45 177.58C135.951 177.697 135.383 177.814 135.188 177.842C134.992 177.869 133.843 177.683 133.076 177.577L132.385 177.697L131.863 177.787C131.24 177.659 130.697 177.675 130.652 177.824L130.593 177.822L130.469 177.822C130.15 177.749 129.819 177.763 129.506 177.863C129.126 177.962 127.947 178.353 127.703 178.452C127.249 178.674 126.819 178.946 126.42 179.262C126.187 179.489 126.57 180.573 126.622 180.705C126.745 180.938 126.937 181.125 127.17 181.238C127.378 181.292 128.131 181.768 128.59 181.993C129.048 182.218 130.581 182.927 131 183.043C131.989 183.255 132.988 183.416 133.993 183.524L134.708 183.92C134.749 183.943 134.821 183.856 134.885 183.859C135.181 183.875 135.601 184.037 135.75 183.9C136.093 183.593 136.348 184.147 136.632 184.054C136.678 184.038 136.791 184.144 136.825 184.125C137.323 183.834 137.96 184.102 138.497 184.004C139.051 183.902 139.565 183.705 140.139 183.64C140.627 183.584 141.106 183.467 141.567 183.29C141.985 183.13 142.452 183.092 142.871 182.91L143.249 182.746C143.628 182.691 143.999 182.586 144.352 182.435L144.342 182.36C144.276 181.908 144.415 181.849 144.822 182.103C144.879 182.139 145.093 181.946 145.174 181.819L145.24 181.718C145.395 181.478 145.571 181.254 145.766 181.048L146.164 180.982L146.461 180.936C146.697 180.668 146.975 180.441 147.282 180.266C147.455 180.2 147.408 179.56 147.508 179.43C147.519 179.415 147.517 179.399 147.505 179.381C147.06 179.116 146.564 178.954 146.051 178.905L146.054 178.904Z" fill="#787878"/>
</svg>
