<svg width="55" height="16" viewBox="0 0 55 16" fill="none" xmlns="http://www.w3.org/2000/svg">
<path d="M6.58971 3.38608H3.79532V4.50065H5.28407C5.08504 5.03406 4.5994 5.36047 3.85901 5.36047C2.77628 5.36047 2.10754 4.66784 2.10754 3.72045C2.10754 2.74122 2.80813 2.04859 3.74755 2.04859C4.37649 2.04859 4.87805 2.3352 5.10892 2.70141L6.19165 2.08044C5.72194 1.33208 4.82232 0.806641 3.75551 0.806641C2.1155 0.806641 0.83374 2.09636 0.83374 3.71249C0.83374 5.3127 2.09162 6.60242 3.84309 6.60242C5.40349 6.60242 6.58971 5.56746 6.58971 3.86375V3.38608Z" fill="white"/>
<path d="M8.18358 5.26493V4.27774H10.1739V3.06763H8.18358V2.14413H10.3729V0.918098H6.90978V6.49096H10.4127V5.26493H8.18358Z" fill="white"/>
<path d="M14.4751 0.918098H10.3353V2.14413H11.7683V6.49096H13.0421V2.14413H14.4751V0.918098Z" fill="white"/>
<path d="M16.2269 0.918098V6.49096H17.5007V0.918098H16.2269Z" fill="white"/>
<path d="M21.802 0.918098H17.6621V2.14413H19.0951V6.49096H20.3689V2.14413H21.802V0.918098Z" fill="white"/>
<path d="M26.2128 6.60242C27.813 6.60242 29.1107 5.34454 29.1107 3.70453C29.1107 2.06452 27.813 0.806641 26.2128 0.806641C24.6126 0.806641 23.3149 2.06452 23.3149 3.70453C23.3149 5.34454 24.6126 6.60242 26.2128 6.60242ZM26.2128 5.36047C25.3052 5.36047 24.5887 4.69968 24.5887 3.70453C24.5887 2.70938 25.3052 2.04859 26.2128 2.04859C27.1204 2.04859 27.8369 2.70938 27.8369 3.70453C27.8369 4.69968 27.1204 5.36047 26.2128 5.36047Z" fill="white"/>
<path d="M32.5347 0.918098V3.94337L30.3852 0.918098H29.4298V6.49096H30.7036V3.46569L32.8531 6.49096H33.8085V0.918098H32.5347Z" fill="white"/>
<path d="M6.58971 12.852V13.0669C6.58971 13.7622 6.34291 14.3487 5.84932 14.8264C5.35572 15.2987 4.70555 15.5349 3.89882 15.5349C3.04962 15.5349 2.34903 15.2589 1.79705 14.707C1.24507 14.1497 0.969081 13.4677 0.969081 12.6609C0.969081 11.8542 1.24242 11.1748 1.78909 10.6228C2.33576 10.0656 3.02839 9.78691 3.86697 9.78691C4.37649 9.78691 4.84355 9.90898 5.26815 10.1531C5.69805 10.3973 6.02977 10.7237 6.2633 11.1324L5.88912 11.3553C5.70336 11.005 5.42737 10.7237 5.06116 10.5114C4.70025 10.2991 4.30218 10.1929 3.86697 10.1929C3.14515 10.1929 2.55071 10.4318 2.08365 10.9094C1.6219 11.3818 1.39103 11.9656 1.39103 12.6609C1.39103 13.3562 1.62456 13.9427 2.09162 14.4203C2.55867 14.8927 3.16107 15.1289 3.89882 15.1289C4.55164 15.1289 5.07973 14.9511 5.4831 14.5955C5.88647 14.2399 6.11204 13.7914 6.15981 13.25H3.79532V12.852H6.58971Z" fill="white"/>
<path d="M12.2408 14.699C11.6835 15.2563 11.0042 15.5349 10.2027 15.5349C9.40131 15.5349 8.72195 15.2563 8.16467 14.699C7.60738 14.1364 7.32874 13.457 7.32874 12.6609C7.32874 11.8648 7.60738 11.1881 8.16467 10.6308C8.72195 10.0682 9.40131 9.78691 10.2027 9.78691C11.0042 9.78691 11.6835 10.0682 12.2408 10.6308C12.7981 11.1881 13.0767 11.8648 13.0767 12.6609C13.0767 13.457 12.7981 14.1364 12.2408 14.699ZM8.45923 14.4124C8.93691 14.8901 9.51808 15.1289 10.2027 15.1289C10.8874 15.1289 11.4659 14.8901 11.9383 14.4124C12.416 13.9294 12.6548 13.3456 12.6548 12.6609C12.6548 11.9763 12.416 11.3951 11.9383 10.9174C11.4659 10.4344 10.8874 10.1929 10.2027 10.1929C9.51808 10.1929 8.93691 10.4344 8.45923 10.9174C7.98687 11.3951 7.75068 11.9763 7.75068 12.6609C7.75068 13.3456 7.98687 13.9294 8.45923 14.4124Z" fill="white"/>
<path d="M18.7404 14.699C18.1831 15.2563 17.5038 15.5349 16.7023 15.5349C15.9009 15.5349 15.2216 15.2563 14.6643 14.699C14.107 14.1364 13.8283 13.457 13.8283 12.6609C13.8283 11.8648 14.107 11.1881 14.6643 10.6308C15.2216 10.0682 15.9009 9.78691 16.7023 9.78691C17.5038 9.78691 18.1831 10.0682 18.7404 10.6308C19.2977 11.1881 19.5764 11.8648 19.5764 12.6609C19.5764 13.457 19.2977 14.1364 18.7404 14.699ZM14.9588 14.4124C15.4365 14.8901 16.0177 15.1289 16.7023 15.1289C17.387 15.1289 17.9655 14.8901 18.4379 14.4124C18.9156 13.9294 19.1544 13.3456 19.1544 12.6609C19.1544 11.9763 18.9156 11.3951 18.4379 10.9174C17.9655 10.4344 17.387 10.1929 16.7023 10.1929C16.0177 10.1929 15.4365 10.4344 14.9588 10.9174C14.4865 11.3951 14.2503 11.9763 14.2503 12.6609C14.2503 13.3456 14.4865 13.9294 14.9588 14.4124Z" fill="white"/>
<path d="M25.9486 12.852V13.0669C25.9486 13.7622 25.7018 14.3487 25.2082 14.8264C24.7146 15.2987 24.0644 15.5349 23.2577 15.5349C22.4085 15.5349 21.7079 15.2589 21.1559 14.707C20.6039 14.1497 20.3279 13.4677 20.3279 12.6609C20.3279 11.8542 20.6013 11.1748 21.1479 10.6228C21.6946 10.0656 22.3872 9.78691 23.2258 9.78691C23.7353 9.78691 24.2024 9.90898 24.627 10.1531C25.0569 10.3973 25.3886 10.7237 25.6222 11.1324L25.248 11.3553C25.0622 11.005 24.7862 10.7237 24.42 10.5114C24.0591 10.2991 23.661 10.1929 23.2258 10.1929C22.504 10.1929 21.9096 10.4318 21.4425 10.9094C20.9808 11.3818 20.7499 11.9656 20.7499 12.6609C20.7499 13.3562 20.9834 13.9427 21.4505 14.4203C21.9175 14.8927 22.5199 15.1289 23.2577 15.1289C23.9105 15.1289 24.4386 14.9511 24.842 14.5955C25.2453 14.2399 25.4709 13.7914 25.5187 13.25H23.1542V12.852H25.9486Z" fill="white"/>
<path d="M27.428 15.0493H30.0552V15.4473H27.006V9.87448H27.428V15.0493Z" fill="white"/>
<path d="M31.3542 15.0493H34.1406V15.4473H30.9322V9.87448H34.1008V10.2725H31.3542V12.438H33.9018V12.8361H31.3542V15.0493Z" fill="white"/>
<path d="M39.1944 9.87448C39.6934 9.87448 40.1073 10.039 40.4364 10.3681C40.7655 10.6971 40.93 11.1085 40.93 11.6021C40.93 12.0957 40.7655 12.507 40.4364 12.8361C40.1073 13.1598 39.6934 13.3217 39.1944 13.3217H37.7216V15.4473H37.2997V9.87448H39.1944ZM39.1944 12.9236C39.5766 12.9236 39.8897 12.7989 40.1339 12.5495C40.3833 12.3 40.5081 11.9842 40.5081 11.6021C40.5081 11.2146 40.3833 10.8962 40.1339 10.6467C39.8897 10.3973 39.5766 10.2725 39.1944 10.2725H37.7216V12.9236H39.1944Z" fill="white"/>
<path d="M42.3942 15.0493H45.0214V15.4473H41.9722V9.87448H42.3942V15.0493Z" fill="white"/>
<path d="M49.8037 15.4473L49.2623 14.0302H46.4679L45.9265 15.4473H45.4807L47.6462 9.87448H48.092L50.2495 15.4473H49.8037ZM46.6271 13.6322H49.111L47.8691 10.392L46.6271 13.6322Z" fill="white"/>
<path d="M54.2147 9.87448L52.1846 13.1545V15.4473H51.7626V13.1545L49.7325 9.87448H50.2102L51.9776 12.7485L53.737 9.87448H54.2147Z" fill="white"/>
</svg>
