<svg width="47" height="16" viewBox="0 0 47 16" fill="none" xmlns="http://www.w3.org/2000/svg">
<path d="M2.87059 4.68426H3.76891L2.5472 1.09101H1.50002L0.27832 4.68426H1.17663L1.3563 4.1196H2.69093L2.87059 4.68426ZM1.60269 3.34962L2.02361 2.03039L2.44454 3.34962H1.60269Z" fill="white"/>
<path d="M5.58686 2.11765L5.05301 3.74488L4.51916 2.11765H3.66704L4.61669 4.68426H5.48933L6.43898 2.11765H5.58686Z" fill="white"/>
<path d="M8.4846 2.11765V2.35891C8.31521 2.16385 8.06368 2.04579 7.71976 2.04579C7.0473 2.04579 6.49292 2.63611 6.49292 3.40095C6.49292 4.1658 7.0473 4.75612 7.71976 4.75612C8.06368 4.75612 8.31521 4.63806 8.4846 4.443V4.68426H9.25459V2.11765H8.4846ZM7.87375 4.02721C7.51956 4.02721 7.2629 3.78595 7.2629 3.40095C7.2629 3.01596 7.51956 2.7747 7.87375 2.7747C8.22794 2.7747 8.4846 3.01596 8.4846 3.40095C8.4846 3.78595 8.22794 4.02721 7.87375 4.02721Z" fill="white"/>
<path d="M9.81948 4.68426H10.5895V0.937012H9.81948V4.68426Z" fill="white"/>
<path d="M11.5379 1.89179C11.7894 1.89179 11.9999 1.68133 11.9999 1.4298C11.9999 1.17827 11.7894 0.967811 11.5379 0.967811C11.2864 0.967811 11.0759 1.17827 11.0759 1.4298C11.0759 1.68133 11.2864 1.89179 11.5379 1.89179ZM11.1529 4.68426H11.9229V2.11765H11.1529V4.68426Z" fill="white"/>
<path d="M14.0212 2.04579C13.6773 2.04579 13.4257 2.16385 13.2563 2.35891V1.09101H12.4863V4.68426H13.2563V4.443C13.4257 4.63806 13.6773 4.75612 14.0212 4.75612C14.6936 4.75612 15.248 4.1658 15.248 3.40095C15.248 2.63611 14.6936 2.04579 14.0212 2.04579ZM13.8672 4.02721C13.513 4.02721 13.2563 3.78595 13.2563 3.40095C13.2563 3.01596 13.513 2.7747 13.8672 2.7747C14.2214 2.7747 14.478 3.01596 14.478 3.40095C14.478 3.78595 14.2214 4.02721 13.8672 4.02721Z" fill="white"/>
<path d="M15.6846 4.68426H16.4546V0.937012H15.6846V4.68426Z" fill="white"/>
<path d="M17.7059 3.70895H19.5281C19.5487 3.61142 19.5589 3.50875 19.5589 3.40095C19.5589 2.62584 19.0046 2.04579 18.2551 2.04579C17.4441 2.04579 16.8897 2.63611 16.8897 3.40095C16.8897 4.1658 17.4338 4.75612 18.3116 4.75612C18.7992 4.75612 19.1791 4.57646 19.4306 4.2274L18.8146 3.87321C18.712 3.98614 18.5323 4.06827 18.3218 4.06827C18.0395 4.06827 17.8034 3.97587 17.7059 3.70895ZM17.6905 3.13403C17.7623 2.87223 17.9574 2.7285 18.25 2.7285C18.481 2.7285 18.712 2.8363 18.7941 3.13403H17.6905Z" fill="white"/>
<path d="M22.5109 4.75612C23.2655 4.75612 23.8712 4.1658 23.8712 3.40095C23.8712 2.63611 23.2655 2.04579 22.5109 2.04579C21.7564 2.04579 21.1506 2.63611 21.1506 3.40095C21.1506 4.1658 21.7564 4.75612 22.5109 4.75612ZM22.5109 4.00667C22.1773 4.00667 21.9206 3.76541 21.9206 3.40095C21.9206 3.0365 22.1773 2.79523 22.5109 2.79523C22.8446 2.79523 23.1013 3.0365 23.1013 3.40095C23.1013 3.76541 22.8446 4.00667 22.5109 4.00667Z" fill="white"/>
<path d="M25.8108 2.04579C25.472 2.04579 25.2153 2.16898 25.0768 2.35891V2.11765H24.3068V4.68426H25.0768V3.28289C25.0768 2.91843 25.2718 2.75417 25.5541 2.75417C25.8005 2.75417 26.0007 2.90303 26.0007 3.22129V4.68426H26.7707V3.10836C26.7707 2.41538 26.3293 2.04579 25.8108 2.04579Z" fill="white"/>
<path d="M30.0868 2.85683V2.11765H29.5581V1.399L28.7881 1.63V2.11765H28.3774V2.85683H28.7881V3.76541C28.7881 4.48406 29.0807 4.78692 30.0868 4.68426V3.98614C29.748 4.00667 29.5581 3.98614 29.5581 3.76541V2.85683H30.0868Z" fill="white"/>
<path d="M32.0268 2.04579C31.688 2.04579 31.4313 2.16898 31.2928 2.35891V1.09101H30.5228V4.68426H31.2928V3.28289C31.2928 2.91843 31.4878 2.75417 31.7701 2.75417C32.0165 2.75417 32.2167 2.90303 32.2167 3.22129V4.68426H32.9867V3.10836C32.9867 2.41538 32.5453 2.04579 32.0268 2.04579Z" fill="white"/>
<path d="M34.2033 3.70895H36.0256C36.0461 3.61142 36.0564 3.50875 36.0564 3.40095C36.0564 2.62584 35.502 2.04579 34.7526 2.04579C33.9415 2.04579 33.3871 2.63611 33.3871 3.40095C33.3871 4.1658 33.9313 4.75612 34.809 4.75612C35.2967 4.75612 35.6766 4.57646 35.9281 4.2274L35.3121 3.87321C35.2094 3.98614 35.0298 4.06827 34.8193 4.06827C34.537 4.06827 34.3009 3.97587 34.2033 3.70895ZM34.1879 3.13403C34.2598 2.87223 34.4549 2.7285 34.7474 2.7285C34.9784 2.7285 35.2094 2.8363 35.2916 3.13403H34.1879Z" fill="white"/>
<path d="M4.59877 14.0951H6.09596L4.05979 8.1064H2.31449L0.27832 14.0951H1.77551L2.07495 13.1541H4.29934L4.59877 14.0951ZM2.4856 11.8708L3.18714 9.67203L3.88868 11.8708H2.4856Z" fill="white"/>
<path d="M9.12188 9.6977C8.54868 9.6977 8.12946 9.89447 7.84714 10.2196V9.81747H6.56383V15.8062H7.84714V13.693C8.12946 14.0182 8.54868 14.2149 9.12188 14.2149C10.2426 14.2149 11.1666 13.2311 11.1666 11.9563C11.1666 10.6816 10.2426 9.6977 9.12188 9.6977ZM8.86522 13.0001C8.2749 13.0001 7.84714 12.598 7.84714 11.9563C7.84714 11.3147 8.2749 10.9126 8.86522 10.9126C9.45554 10.9126 9.88331 11.3147 9.88331 11.9563C9.88331 12.598 9.45554 13.0001 8.86522 13.0001Z" fill="white"/>
<path d="M14.4523 9.6977C13.8791 9.6977 13.4599 9.89447 13.1775 10.2196V9.81747H11.8942V15.8062H13.1775V13.693C13.4599 14.0182 13.8791 14.2149 14.4523 14.2149C15.573 14.2149 16.497 13.2311 16.497 11.9563C16.497 10.6816 15.573 9.6977 14.4523 9.6977ZM14.1956 13.0001C13.6053 13.0001 13.1775 12.598 13.1775 11.9563C13.1775 11.3147 13.6053 10.9126 14.1956 10.9126C14.7859 10.9126 15.2137 11.3147 15.2137 11.9563C15.2137 12.598 14.7859 13.0001 14.1956 13.0001Z" fill="white"/>
<path d="M17.2246 14.0951H18.5079V7.84974H17.2246V14.0951Z" fill="white"/>
<path d="M20.5934 12.4696H23.6306C23.6648 12.3071 23.6819 12.136 23.6819 11.9563C23.6819 10.6645 22.7579 9.6977 21.5088 9.6977C20.1571 9.6977 19.2331 10.6816 19.2331 11.9563C19.2331 13.2311 20.14 14.2149 21.6029 14.2149C22.4157 14.2149 23.0488 13.9155 23.468 13.3337L22.4414 12.7434C22.2703 12.9316 21.9708 13.0685 21.6201 13.0685C21.1495 13.0685 20.756 12.9145 20.5934 12.4696ZM20.5677 11.5114C20.6875 11.0751 21.0126 10.8356 21.5003 10.8356C21.8853 10.8356 22.2703 11.0152 22.4071 11.5114H20.5677Z" fill="white"/>
<path d="M28.6874 14.2149C29.9879 14.2149 30.9118 13.5305 30.9118 12.3755C30.9118 11.1093 29.8938 10.7928 28.9869 10.519C28.0544 10.2367 27.9089 10.0485 27.9089 9.77469C27.9089 9.53514 28.1228 9.32126 28.5506 9.32126C29.0981 9.32126 29.3804 9.58648 29.5858 10.0142L30.7407 9.33837C30.3044 8.45717 29.5344 7.98662 28.5506 7.98662C27.5154 7.98662 26.5401 8.65394 26.5401 9.80892C26.5401 10.9553 27.4127 11.3831 28.3025 11.6312C29.2008 11.8793 29.543 12.0248 29.543 12.3926C29.543 12.6236 29.3804 12.8803 28.7302 12.8803C28.0543 12.8803 27.6865 12.5466 27.4726 12.0504L26.2919 12.7348C26.6256 13.616 27.4298 14.2149 28.6874 14.2149Z" fill="white"/>
<path d="M33.9346 11.0494V9.81747H33.0534V8.61972L31.77 9.00471V9.81747H31.0856V11.0494H31.77V12.5637C31.77 13.7615 32.2577 14.2663 33.9346 14.0951V12.9316C33.3699 12.9658 33.0534 12.9316 33.0534 12.5637V11.0494H33.9346Z" fill="white"/>
<path d="M36.6309 14.2149C37.8885 14.2149 38.8981 13.2311 38.8981 11.9563C38.8981 10.6816 37.8885 9.6977 36.6309 9.6977C35.3733 9.6977 34.3637 10.6816 34.3637 11.9563C34.3637 13.2311 35.3733 14.2149 36.6309 14.2149ZM36.6309 12.9658C36.0748 12.9658 35.647 12.5637 35.647 11.9563C35.647 11.3489 36.0748 10.9468 36.6309 10.9468C37.187 10.9468 37.6148 11.3489 37.6148 11.9563C37.6148 12.5637 37.187 12.9658 36.6309 12.9658Z" fill="white"/>
<path d="M40.9072 10.5789V9.81747H39.6239V14.0951H40.9072V12.1616C40.9072 11.3147 41.6601 11.1008 42.1905 11.1863V9.73192C41.6515 9.73192 41.0783 10.0057 40.9072 10.5789Z" fill="white"/>
<path d="M43.8115 12.4696H46.8487C46.8829 12.3071 46.9 12.136 46.9 11.9563C46.9 10.6645 45.976 9.6977 44.7269 9.6977C43.3752 9.6977 42.4512 10.6816 42.4512 11.9563C42.4512 13.2311 43.3581 14.2149 44.821 14.2149C45.6338 14.2149 46.2669 13.9155 46.6861 13.3337L45.6595 12.7434C45.4884 12.9316 45.1889 13.0685 44.8382 13.0685C44.3676 13.0685 43.9741 12.9145 43.8115 12.4696ZM43.7858 11.5114C43.9056 11.0751 44.2307 10.8356 44.7184 10.8356C45.1034 10.8356 45.4884 11.0152 45.6252 11.5114H43.7858Z" fill="white"/>
</svg>
