<svg width="62" height="21" viewBox="0 0 62 21" fill="none" xmlns="http://www.w3.org/2000/svg">
<path d="M4.28922 5.59737H5.45922L3.86802 0.917368H2.50413L0.912933 5.59737H2.08293L2.31693 4.86194H4.05522L4.28922 5.59737ZM2.63785 3.85908L3.18608 2.14085L3.7343 3.85908H2.63785Z" fill="white"/>
<path d="M7.82701 2.25451L7.13169 4.37388L6.43638 2.25451H5.32655L6.56341 5.59737H7.69998L8.93684 2.25451H7.82701Z" fill="white"/>
<path d="M11.6011 2.25451V2.56874C11.3805 2.31468 11.0529 2.16091 10.605 2.16091C9.72915 2.16091 9.00709 2.92977 9.00709 3.92594C9.00709 4.92211 9.72915 5.69097 10.605 5.69097C11.0529 5.69097 11.3805 5.5372 11.6011 5.28314V5.59737H12.604V2.25451H11.6011ZM10.8055 4.7416C10.3442 4.7416 10.0099 4.42737 10.0099 3.92594C10.0099 3.42451 10.3442 3.11028 10.8055 3.11028C11.2669 3.11028 11.6011 3.42451 11.6011 3.92594C11.6011 4.42737 11.2669 4.7416 10.8055 4.7416Z" fill="white"/>
<path d="M13.3397 5.59737H14.3426V0.716797H13.3397V5.59737Z" fill="white"/>
<path d="M15.5779 1.96034C15.9055 1.96034 16.1796 1.68623 16.1796 1.35863C16.1796 1.03103 15.9055 0.756911 15.5779 0.756911C15.2503 0.756911 14.9762 1.03103 14.9762 1.35863C14.9762 1.68623 15.2503 1.96034 15.5779 1.96034ZM15.0765 5.59737H16.0793V2.25451H15.0765V5.59737Z" fill="white"/>
<path d="M18.8122 2.16091C18.3643 2.16091 18.0367 2.31468 17.816 2.56874V0.917368H16.8132V5.59737H17.816V5.28314C18.0367 5.5372 18.3643 5.69097 18.8122 5.69097C19.688 5.69097 20.4101 4.92211 20.4101 3.92594C20.4101 2.92977 19.688 2.16091 18.8122 2.16091ZM18.6116 4.7416C18.1503 4.7416 17.816 4.42737 17.816 3.92594C17.816 3.42451 18.1503 3.11028 18.6116 3.11028C19.073 3.11028 19.4072 3.42451 19.4072 3.92594C19.4072 4.42737 19.073 4.7416 18.6116 4.7416Z" fill="white"/>
<path d="M20.9787 5.59737H21.9816V0.716797H20.9787V5.59737Z" fill="white"/>
<path d="M23.6113 4.32708H25.9847C26.0115 4.20005 26.0248 4.06634 26.0248 3.92594C26.0248 2.9164 25.3028 2.16091 24.3267 2.16091C23.2703 2.16091 22.5483 2.92977 22.5483 3.92594C22.5483 4.92211 23.257 5.69097 24.4002 5.69097C25.0354 5.69097 25.5301 5.45697 25.8577 5.00234L25.0554 4.54103C24.9217 4.68811 24.6877 4.79508 24.4136 4.79508C24.0459 4.79508 23.7383 4.67474 23.6113 4.32708ZM23.5912 3.57828C23.6848 3.23731 23.9389 3.05011 24.32 3.05011C24.6208 3.05011 24.9217 3.19051 25.0287 3.57828H23.5912Z" fill="white"/>
<path d="M29.8696 5.69097C30.8524 5.69097 31.6414 4.92211 31.6414 3.92594C31.6414 2.92977 30.8524 2.16091 29.8696 2.16091C28.8869 2.16091 28.0979 2.92977 28.0979 3.92594C28.0979 4.92211 28.8869 5.69097 29.8696 5.69097ZM29.8696 4.71485C29.4351 4.71485 29.1008 4.40063 29.1008 3.92594C29.1008 3.45125 29.4351 3.13703 29.8696 3.13703C30.3042 3.13703 30.6385 3.45125 30.6385 3.92594C30.6385 4.40063 30.3042 4.71485 29.8696 4.71485Z" fill="white"/>
<path d="M34.1675 2.16091C33.7263 2.16091 33.392 2.32137 33.2115 2.56874V2.25451H32.2086V5.59737H33.2115V3.77217C33.2115 3.29748 33.4655 3.08354 33.8332 3.08354C34.1541 3.08354 34.4149 3.27743 34.4149 3.69194V5.59737H35.4177V3.54485C35.4177 2.64228 34.8428 2.16091 34.1675 2.16091Z" fill="white"/>
<path d="M39.7368 3.21725V2.25451H39.0481V1.31851L38.0453 1.61937V2.25451H37.5104V3.21725H38.0453V4.40063C38.0453 5.33663 38.4264 5.73108 39.7368 5.59737V4.68811C39.2955 4.71485 39.0481 4.68811 39.0481 4.40063V3.21725H39.7368Z" fill="white"/>
<path d="M42.2635 2.16091C41.8222 2.16091 41.488 2.32137 41.3074 2.56874V0.917368H40.3046V5.59737H41.3074V3.77217C41.3074 3.29748 41.5615 3.08354 41.9292 3.08354C42.2501 3.08354 42.5109 3.27743 42.5109 3.69194V5.59737H43.5137V3.54485C43.5137 2.64228 42.9388 2.16091 42.2635 2.16091Z" fill="white"/>
<path d="M45.0983 4.32708H47.4717C47.4985 4.20005 47.5118 4.06634 47.5118 3.92594C47.5118 2.9164 46.7898 2.16091 45.8137 2.16091C44.7573 2.16091 44.0353 2.92977 44.0353 3.92594C44.0353 4.92211 44.744 5.69097 45.8872 5.69097C46.5224 5.69097 47.0171 5.45697 47.3447 5.00234L46.5424 4.54103C46.4087 4.68811 46.1747 4.79508 45.9006 4.79508C45.5329 4.79508 45.2253 4.67474 45.0983 4.32708ZM45.0782 3.57828C45.1718 3.23731 45.4259 3.05011 45.807 3.05011C46.1078 3.05011 46.4087 3.19051 46.5157 3.57828H45.0782Z" fill="white"/>
<path d="M6.54008 17.8545H8.49008L5.83808 10.0545H3.56493L0.912933 17.8545H2.86293L3.25293 16.6288H6.15008L6.54008 17.8545ZM3.78779 14.9574L4.7015 12.0937L5.61522 14.9574H3.78779Z" fill="white"/>
<path d="M12.4312 12.1271C11.6846 12.1271 11.1386 12.3834 10.7709 12.8068V12.2831H9.09945V20.0831H10.7709V17.3308C11.1386 17.7542 11.6846 18.0105 12.4312 18.0105C13.8909 18.0105 15.0943 16.7291 15.0943 15.0688C15.0943 13.4085 13.8909 12.1271 12.4312 12.1271ZM12.0969 16.4282C11.328 16.4282 10.7709 15.9045 10.7709 15.0688C10.7709 14.2331 11.328 13.7094 12.0969 13.7094C12.8657 13.7094 13.4229 14.2331 13.4229 15.0688C13.4229 15.9045 12.8657 16.4282 12.0969 16.4282Z" fill="white"/>
<path d="M19.3737 12.1271C18.6271 12.1271 18.0811 12.3834 17.7134 12.8068V12.2831H16.042V20.0831H17.7134V17.3308C18.0811 17.7542 18.6271 18.0105 19.3737 18.0105C20.8334 18.0105 22.0368 16.7291 22.0368 15.0688C22.0368 13.4085 20.8334 12.1271 19.3737 12.1271ZM19.0394 16.4282C18.2705 16.4282 17.7134 15.9045 17.7134 15.0688C17.7134 14.2331 18.2705 13.7094 19.0394 13.7094C19.8083 13.7094 20.3654 14.2331 20.3654 15.0688C20.3654 15.9045 19.8083 16.4282 19.0394 16.4282Z" fill="white"/>
<path d="M22.9845 17.8545H24.6559V9.72023H22.9845V17.8545Z" fill="white"/>
<path d="M27.3722 15.7374H31.3279C31.3725 15.5257 31.3947 15.3028 31.3947 15.0688C31.3947 13.3862 30.1913 12.1271 28.5645 12.1271C26.8039 12.1271 25.6005 13.4085 25.6005 15.0688C25.6005 16.7291 26.7816 18.0105 28.687 18.0105C29.7456 18.0105 30.5702 17.6205 31.1162 16.8628L29.779 16.0939C29.5562 16.3391 29.1662 16.5174 28.7093 16.5174C28.0965 16.5174 27.5839 16.3168 27.3722 15.7374ZM27.3387 14.4894C27.4947 13.9211 27.9182 13.6091 28.5533 13.6091C29.0547 13.6091 29.5562 13.8431 29.7345 14.4894H27.3387Z" fill="white"/>
<path d="M37.9142 18.0105C39.6079 18.0105 40.8113 17.1191 40.8113 15.6148C40.8113 13.9657 39.4853 13.5534 38.3042 13.1968C37.0896 12.8291 36.9002 12.5839 36.9002 12.2274C36.9002 11.9154 37.1788 11.6368 37.7359 11.6368C38.449 11.6368 38.8168 11.9822 39.0842 12.5394L40.5885 11.6591C40.0202 10.5114 39.0173 9.89851 37.7359 9.89851C36.3876 9.89851 35.1173 10.7677 35.1173 12.2719C35.1173 13.7651 36.2539 14.3222 37.4128 14.6454C38.5828 14.9685 39.0285 15.1579 39.0285 15.6371C39.0285 15.9379 38.8168 16.2722 37.9699 16.2722C37.0896 16.2722 36.6105 15.8377 36.3319 15.1914L34.7942 16.0828C35.2288 17.2305 36.2762 18.0105 37.9142 18.0105Z" fill="white"/>
<path d="M44.7482 13.8877V12.2831H43.6005V10.7231L41.9291 11.2245V12.2831H41.0377V13.8877H41.9291V15.8599C41.9291 17.4199 42.5642 18.0774 44.7482 17.8545V16.3391C44.0128 16.3837 43.6005 16.3391 43.6005 15.8599V13.8877H44.7482Z" fill="white"/>
<path d="M48.2601 18.0105C49.8981 18.0105 51.2129 16.7291 51.2129 15.0688C51.2129 13.4085 49.8981 12.1271 48.2601 12.1271C46.6221 12.1271 45.3072 13.4085 45.3072 15.0688C45.3072 16.7291 46.6221 18.0105 48.2601 18.0105ZM48.2601 16.3837C47.5358 16.3837 46.9786 15.8599 46.9786 15.0688C46.9786 14.2777 47.5358 13.7539 48.2601 13.7539C48.9844 13.7539 49.5415 14.2777 49.5415 15.0688C49.5415 15.8599 48.9844 16.3837 48.2601 16.3837Z" fill="white"/>
<path d="M53.8298 13.2748V12.2831H52.1583V17.8545H53.8298V15.3362C53.8298 14.2331 54.8103 13.9545 55.5012 14.0659V12.1717C54.7992 12.1717 54.0526 12.5282 53.8298 13.2748Z" fill="white"/>
<path d="M57.6124 15.7374H61.5681C61.6127 15.5257 61.635 15.3028 61.635 15.0688C61.635 13.3862 60.4315 12.1271 58.8047 12.1271C57.0441 12.1271 55.8407 13.4085 55.8407 15.0688C55.8407 16.7291 57.0218 18.0105 58.9273 18.0105C59.9858 18.0105 60.8104 17.6205 61.3564 16.8628L60.0193 16.0939C59.7964 16.3391 59.4064 16.5174 58.9495 16.5174C58.3367 16.5174 57.8241 16.3168 57.6124 15.7374ZM57.579 14.4894C57.735 13.9211 58.1584 13.6091 58.7935 13.6091C59.295 13.6091 59.7964 13.8431 59.9747 14.4894H57.579Z" fill="white"/>
</svg>
