<svg width="148" height="152" viewBox="0 0 148 152" fill="none" xmlns="http://www.w3.org/2000/svg">
<path d="M85.311 45.2844C88.3081 52.8066 92.1795 59.6964 97.7973 65.4954C102.742 70.6006 108.658 74.5545 114.823 77.9642C122.332 82.1169 130.182 85.5987 137.772 89.5945C138.512 89.9841 139.52 89.5194 140.138 89.058C140.469 88.8104 141.506 87.7649 140.764 87.374C127.828 80.5627 113.517 75.28 102.654 65.109C97.0469 59.7355 92.6258 53.2066 89.6787 45.9478C88.5743 43.3347 87.5854 40.6686 86.5331 38.032C85.4848 38.978 84.5355 40.0323 83.7008 41.1776C84.2369 42.5469 84.7676 43.9192 85.311 45.2844Z" fill="#554140"/>
<path d="M80.042 32.7124C81.3092 35.1794 82.3733 37.7422 83.3942 40.3242C84.2514 39.2186 85.2188 38.2061 86.2806 37.3033C85.7113 35.882 85.1148 34.4729 84.4723 33.0839C82.5385 28.928 80.0799 25.0511 77.1584 21.5509C74.9474 18.9008 72.5696 16.4004 70.0396 14.0653L66.6605 15.9176C68.5475 17.6562 70.367 19.4693 72.0847 21.3852C75.2039 24.7949 77.8781 28.6016 80.042 32.7124V32.7124Z" fill="#554140"/>
<path d="M65.3215 31.3548C67.6705 34.6599 69.6483 38.2247 71.2185 41.9832C73.8532 47.9972 75.528 54.4468 78.028 60.5181C78.3178 57.7142 78.5324 54.8846 78.9657 52.1186C77.7253 48.4873 76.5475 44.8278 75.0735 41.3132C73.5499 37.5413 71.655 33.9395 69.4174 30.5623C67.3431 27.6019 64.7635 25.047 61.7996 23.0175C60.5992 22.1641 59.3664 21.3595 58.1013 20.6036L54.5909 22.5273C55.4668 23.0415 56.329 23.5767 57.1777 24.1331C60.2925 26.0302 63.0493 28.4749 65.3215 31.3548V31.3548Z" fill="#554140"/>
<path d="M78.5042 61.7354C79.2525 63.4908 80.1006 65.1993 81.0443 66.8524C83.316 70.8879 86.4621 74.3355 90.2452 76.9351C94.2071 79.4633 98.4207 81.5609 102.818 83.1938C107.798 85.1845 112.678 87.3332 117.522 89.6388C122.413 91.9721 127.299 94.3142 132.34 96.304C133.442 96.7409 136.409 94.5052 134.781 93.8645C125.765 90.3044 117.279 85.5258 108.273 81.9389C103.838 80.3131 99.5325 78.3505 95.3914 76.0674C91.3484 73.7618 87.9053 70.5109 85.3418 66.5788C82.7135 62.5006 80.9696 57.9937 79.3824 53.4129C79.0104 56.0876 78.8218 58.7936 78.5358 61.4741L78.5042 61.7354Z" fill="#554140"/>
<path d="M74.6495 76.1157C75.0859 76.6778 75.5269 77.2357 75.9778 77.7863C81.512 84.7008 88.6703 90.0742 96.7992 93.4159C106.254 97.2214 116.389 98.847 125.994 102.182C127.114 102.571 130.07 100.312 128.433 99.744C119.883 96.7779 110.933 95.1625 102.391 92.1666C94.0255 89.2902 86.5475 84.261 80.675 77.5621C79.155 75.8206 77.7215 74.0039 76.3509 72.1371C76.1254 72.7715 75.8807 73.4014 75.6168 74.0268C75.3162 74.736 74.9938 75.4323 74.6495 76.1157Z" fill="#554140"/>
<path d="M52.4321 42.4912C55.4838 46.2078 58.2391 50.1681 60.6721 54.3347C65.0075 61.4381 69.1581 68.7366 74.2157 75.3433C74.8629 74.0376 75.4332 72.6943 75.9234 71.3208C72.0465 65.9641 68.6647 60.2065 65.2663 54.5535C62.8577 50.3866 60.2032 46.374 57.3172 42.5376C54.8558 39.2762 51.8039 36.5272 48.3239 34.4367C45.6722 32.9455 42.9326 31.6203 40.1202 30.4684L36.5457 32.4281C38.7135 33.3655 40.8785 34.2974 42.9494 35.3583C46.5396 37.0839 49.7601 39.5063 52.4321 42.4912V42.4912Z" fill="#554140"/>
<path d="M49.66 65.6718C55.5244 72.1897 60.9899 79.1489 67.3245 85.2091C68.1728 84.3089 68.9808 83.377 69.7485 82.4133C64.2909 77.0612 59.4576 71.0818 54.3714 65.3619C48.2524 58.4789 41.8715 51.7526 34.5699 46.1585C31.2212 43.5865 27.662 41.3105 23.9304 39.3547L20.3984 41.2919C23.5753 42.9094 26.6259 44.7692 29.5247 46.8556C36.9943 52.2212 43.5018 58.8286 49.66 65.6718Z" fill="#554140"/>
<path d="M68.6318 86.694C75.2491 92.8171 82.7426 97.8798 90.8604 101.712C100.223 106.068 110.297 108.654 120.597 109.347C121.059 109.328 121.513 109.201 121.922 108.976C122.332 108.752 122.686 108.435 122.958 108.051C123.414 107.349 123.092 106.906 122.335 106.853C104.157 105.586 87.0494 98.0276 73.3311 86.0143C72.2543 85.0711 71.2082 84.0963 70.1825 83.1017C69.4124 84.058 68.6033 84.981 67.7552 85.8708C68.0459 86.1467 68.3365 86.4225 68.6318 86.694Z" fill="#554140"/>
<path d="M11.4657 56.3937C16.4597 58.6307 21.2759 61.0209 25.6602 64.3503C29.5613 67.4549 33.2846 70.784 36.8123 74.3216C43.5374 80.7665 50.2985 87.2524 57.3388 93.3524C58.3853 92.6718 59.4141 91.9626 60.4252 91.225C54.1607 85.8009 48.1843 80.0114 42.1549 74.3368C38.4703 70.8683 34.9081 67.2519 31.019 64.0154C26.9801 60.6786 22.5351 57.8848 17.7916 55.7018C14.7866 54.2964 11.7535 52.9548 8.69227 51.6769C7.3383 51.1054 5.97933 50.521 4.61166 49.9545L0.987247 51.9431C1.76535 52.2619 2.54152 52.5852 3.31727 52.9045C6.05015 54.0274 8.76628 55.1905 11.4657 56.3937Z" fill="#554140"/>
<path d="M57.8017 94.0757C58.2652 94.4756 58.7291 94.8743 59.1936 95.2719C66.8813 101.816 75.1963 107.706 84.6083 111.397C89.7142 113.4 94.9792 113.895 100.423 114.1C105.678 114.298 110.996 114.383 116.004 116.147C117.121 116.54 120.077 114.286 118.441 113.71C109.419 110.536 99.5729 112.734 90.4399 110.14C85.6755 108.659 81.1245 106.554 76.8996 103.879C72.5901 101.24 68.4715 98.2914 64.5746 95.0564C63.3276 94.0358 62.094 92.9981 60.8736 91.9433C60.627 92.126 60.3771 92.3082 60.1242 92.4898C59.3623 93.0354 58.5835 93.5634 57.8017 94.0757Z" fill="#554140"/>
<path d="M115.866 116.179C110.857 114.386 105.549 114.268 100.304 114.04C94.8679 113.803 89.6096 113.277 84.5036 111.242C75.0904 107.492 66.7616 101.547 59.0569 94.9508C58.5889 94.5505 58.1229 94.149 57.6589 93.7462C58.4399 93.2344 59.2109 92.7089 59.9719 92.17C60.2209 91.9918 60.4699 91.8098 60.7174 91.6271C61.9419 92.6882 63.1784 93.7341 64.4269 94.765C68.3327 98.0269 72.4582 101.003 76.7726 103.671C81.0029 106.374 85.5559 108.508 90.3191 110.019C99.4489 112.668 109.267 110.525 118.289 113.755C119.789 114.293 117.431 116.229 116.171 116.229C116.067 116.23 115.964 116.213 115.866 116.179V116.179ZM120.462 109.367C110.181 108.614 100.116 105.967 90.7526 101.554C82.6343 97.6721 75.1325 92.562 68.4994 86.3952C68.2039 86.1219 67.9121 85.8433 67.6196 85.5662C68.4601 84.6796 69.2634 83.7603 70.0294 82.8082C71.0576 83.8064 72.1054 84.7914 73.1854 85.7427C86.9314 97.8446 104.04 105.508 122.186 106.883C122.942 106.94 123.265 107.385 122.813 108.085C122.552 108.451 122.217 108.756 121.83 108.978C121.444 109.2 121.015 109.335 120.573 109.372C120.536 109.37 120.499 109.369 120.462 109.369V109.367ZM125.868 102.2C116.268 98.8105 106.152 97.1244 96.7024 93.2624C88.5786 89.8729 81.4128 84.4556 75.8584 77.5044C75.4084 76.95 74.9641 76.3901 74.5256 75.8245C74.8651 75.1432 75.1841 74.4483 75.4826 73.7399C75.7444 73.1156 75.9844 72.4868 76.2064 71.8526C77.5826 73.7291 79.0211 75.5542 80.5451 77.304C86.4361 84.0407 93.9191 89.1149 102.276 92.0401C110.811 95.0866 119.748 96.7559 128.29 99.7725C129.795 100.303 127.43 102.243 126.169 102.244C126.068 102.246 125.968 102.231 125.871 102.2H125.868ZM132.219 96.3313C127.186 94.312 122.305 91.9419 117.42 89.5809C112.581 87.243 107.706 85.0717 102.734 83.0547C98.3441 81.3966 94.1349 79.2749 90.1744 76.7242C86.3922 74.1037 83.2405 70.6384 80.9569 66.5895C80.6489 66.0561 80.3529 65.5186 80.0689 64.977C79.4689 63.8253 78.9161 62.6515 78.3994 61.4622C78.4091 61.3747 78.4189 61.2871 78.4279 61.2011C78.6994 58.5223 78.8779 55.8189 79.2334 53.147C80.8369 57.736 82.5964 62.2514 85.2334 66.3445C87.8076 70.2915 91.2546 73.5618 95.2946 75.8897C99.4334 78.1971 103.735 80.1845 108.163 81.8354C117.157 85.4739 125.638 90.301 134.638 93.9127C136.12 94.5062 133.806 96.395 132.55 96.395C132.437 96.3951 132.325 96.3737 132.219 96.3321L132.219 96.3313ZM36.6686 74.209C33.1359 70.652 29.4094 67.3023 25.5071 64.1762C21.1226 60.8225 16.3098 58.404 11.3223 56.1383C8.62983 54.9149 5.91783 53.7378 3.18633 52.6066C2.41233 52.2833 1.63758 51.9547 0.861328 51.6315L4.46133 49.6644C5.82633 50.2394 7.18383 50.8314 8.53683 51.4095C11.5903 52.7122 14.6196 54.071 17.6246 55.4858C22.3588 57.6955 26.799 60.5131 30.8381 63.8707C34.7291 67.1292 38.2961 70.7654 41.9846 74.2542C48.0228 79.965 54.0056 85.788 60.2741 91.247C59.2741 91.9799 58.2534 92.6838 57.2119 93.3584C50.1701 87.2161 43.4021 80.6922 36.6693 74.2098L36.6686 74.209ZM137.658 89.604C130.083 85.567 122.249 82.042 114.751 77.8491C108.596 74.4063 102.686 70.4192 97.7381 65.2912C94.0727 61.4412 90.9731 57.0664 88.5364 52.304C87.308 49.9361 86.1976 47.5061 85.2094 45.0232C84.6611 43.6557 84.1279 42.2805 83.5864 40.9092C84.4126 39.7695 85.3529 38.7214 86.3921 37.782C87.4519 40.4232 88.4516 43.0897 89.5616 45.7087C92.5315 52.9804 96.9648 59.53 102.573 64.9303C113.438 75.1581 127.713 80.5163 140.628 87.4011C141.369 87.7957 140.342 88.8338 140.013 89.0795C139.518 89.4729 138.919 89.7069 138.294 89.7521C138.074 89.7563 137.856 89.7058 137.659 89.6047L137.658 89.604ZM49.5266 65.5538C43.3646 58.6806 36.8516 52.0407 29.3898 46.6386C26.4937 44.537 23.4474 42.661 20.2766 41.0268L23.7843 39.111C27.509 41.0864 31.0636 43.3808 34.4103 45.9698C41.7108 51.6023 48.0911 58.3587 54.2164 65.2711C59.3066 71.0157 64.1486 77.0183 69.6071 82.3928C68.8486 83.3521 68.0486 84.2786 67.2071 85.1723C60.8719 79.0853 55.3984 72.1007 49.5274 65.5546L49.5266 65.5538ZM60.5374 54.2242C58.098 50.0487 55.3394 46.0776 52.2874 42.3481C49.6146 39.3506 46.3995 36.9119 42.8201 35.1669C40.7546 34.092 38.5968 33.1531 36.4361 32.2049L39.9828 30.2685C42.7861 31.4354 45.5176 32.7753 48.1624 34.2809C51.6332 36.3872 54.682 39.149 57.1466 42.4195C60.0357 46.2671 62.6952 50.2897 65.1109 54.4653C68.5181 60.1293 71.9104 65.8984 75.7916 71.2706C75.3106 72.6393 74.7496 73.9772 74.1116 75.2769C69.0469 68.6555 64.8836 61.3439 60.5381 54.225L60.5374 54.2242ZM71.1004 41.8628C69.5226 38.1014 67.5403 34.5318 65.1904 31.2198C62.9182 28.3316 60.1666 25.8758 57.0619 23.965C56.2169 23.4045 55.3576 22.8649 54.4841 22.3464L57.9641 20.4462C59.2236 21.2099 60.4524 22.0202 61.6504 22.8771C64.6049 24.9199 67.1806 27.4849 69.2569 30.452C71.4962 33.8355 73.3964 37.4415 74.9284 41.2155C76.4104 44.732 77.5984 48.3914 78.8479 52.0238C78.4309 54.7824 78.2306 57.6064 77.9554 60.4027C75.4429 54.3318 73.7464 47.8846 71.1011 41.8667L71.1004 41.8628ZM79.9444 32.5995C77.7718 28.4825 75.0938 24.667 71.9756 21.2455C70.2589 19.3214 68.4424 17.5009 66.5576 15.7542L69.9086 13.9253C72.4357 16.2695 74.8124 18.7782 77.0239 21.4358C79.9452 24.9485 82.4076 28.8355 84.3491 32.9987C84.9941 34.3892 85.5911 35.8004 86.1671 37.2216C85.1181 38.1156 84.163 39.1191 83.3171 40.2159C82.2866 37.6384 81.2164 35.0734 79.9451 32.6034L79.9444 32.5995Z" fill="#3B3430"/>
</svg>
