<svg width="172" height="179" viewBox="0 0 172 179" fill="none" xmlns="http://www.w3.org/2000/svg">
<path d="M98.6888 53.5721C102.173 62.4261 106.68 70.5328 113.231 77.3497C118.996 83.351 125.9 87.9934 133.097 91.9941C141.863 96.8663 151.029 100.947 159.888 105.635C160.752 106.092 161.933 105.542 162.656 104.996C163.043 104.704 164.258 103.469 163.391 103.011C148.289 95.0206 131.578 88.8352 118.908 76.8815C112.368 70.5659 107.218 62.8858 103.792 54.342C102.508 51.2663 101.359 48.1279 100.135 45.0246C98.9079 46.1418 97.7958 47.3865 96.8174 48.7381C97.4404 50.3498 98.0572 51.9651 98.6888 53.5721Z" fill="#554140"/>
<path d="M92.542 38.6917C94.0177 41.5957 95.2555 44.613 96.4428 47.6533C97.448 46.348 98.5819 45.1522 99.8259 44.0854C99.1637 42.4119 98.4697 40.7529 97.7218 39.1177C95.471 34.225 92.6057 29.6627 89.1981 25.5454C86.6194 22.4281 83.845 19.4877 80.8923 16.7426L76.9362 18.9345C79.1385 20.9785 81.2616 23.1104 83.2654 25.3636C86.9044 29.3738 90.0219 33.8528 92.542 38.6917V38.6917Z" fill="#554140"/>
<path d="M75.385 37.1015C78.1242 40.9908 80.4286 45.1871 82.2557 49.6129C85.3224 56.6941 87.265 64.2913 90.1738 71.4406C90.5199 68.135 90.7781 64.7993 91.2919 61.5381C89.8502 57.2614 88.4818 52.9514 86.7666 48.8128C84.994 44.3713 82.7866 40.131 80.1779 36.1565C77.7591 32.6729 74.7483 29.6685 71.2867 27.2844C69.8847 26.2817 68.4448 25.3367 66.9669 24.4491L62.856 26.7258C63.8792 27.3295 64.8864 27.9581 65.8776 28.6115C69.5162 30.8393 72.7346 33.7132 75.385 37.1015V37.1015Z" fill="#554140"/>
<path d="M90.7441 72.9558C91.6139 75.0214 92.6005 77.0315 93.6989 78.9761C96.3427 83.7232 100.01 87.7755 104.423 90.8274C109.045 93.7947 113.963 96.254 119.096 98.1656C124.91 100.497 130.605 103.015 136.259 105.718C141.967 108.453 147.67 111.198 153.554 113.529C154.84 114.04 158.313 111.399 156.412 110.649C145.887 106.48 135.985 100.874 125.472 96.6731C120.295 94.7699 115.27 92.4697 110.437 89.7917C105.72 87.0868 101.705 83.2669 98.7204 78.6424C95.6601 73.8459 93.634 68.5421 91.7912 63.1509C91.3499 66.3022 91.1226 69.49 90.7818 72.6479L90.7441 72.9558Z" fill="#554140"/>
<path d="M86.2532 89.8974C86.7614 90.5582 87.275 91.2139 87.8003 91.8611C94.2462 99.9883 102.593 106.296 112.078 110.21C123.111 114.666 134.943 116.553 146.152 120.454C147.459 120.909 150.917 118.241 149.007 117.577C139.029 114.107 128.58 112.229 118.611 108.724C108.849 105.359 100.128 99.457 93.2867 91.5845C91.5159 89.538 89.8463 87.4025 88.2503 85.2079C87.9853 85.9556 87.698 86.698 87.3882 87.4351C87.0353 88.271 86.657 89.0918 86.2532 89.8974Z" fill="#554140"/>
<path d="M60.3519 50.2215C63.9107 54.5931 67.1223 59.2526 69.9564 64.1561C75.0076 72.5152 79.8423 81.1049 85.7391 88.8768C86.4992 87.3364 87.1694 85.752 87.746 84.132C83.2265 77.83 79.2869 71.0541 75.3277 64.4017C72.522 59.4978 69.4283 54.7764 66.0636 50.2631C63.1939 46.4265 59.6324 43.1951 55.5688 40.7409C52.472 38.9908 49.2721 37.4365 45.9867 36.0865L41.8023 38.4054C44.3346 39.5042 46.8636 40.5967 49.2823 41.8413C53.4758 43.8652 57.2351 46.7112 60.3519 50.2215V50.2215Z" fill="#554140"/>
<path d="M57.1033 77.5091C63.9412 85.1727 70.3117 93.3572 77.7004 100.48C78.6941 99.4174 79.6408 98.3173 80.5406 97.1798C74.1753 90.8887 68.5412 83.8569 62.6108 77.1314C55.4763 69.0384 48.0352 61.1306 39.5151 54.5593C35.6077 51.538 31.4534 48.8659 27.0968 46.5716L22.9637 48.8634C26.6728 50.7606 30.2337 52.9437 33.6165 55.394C42.3335 61.6957 49.9228 69.463 57.1033 77.5091Z" fill="#554140"/>
<path d="M79.2326 102.359C86.9442 109.55 95.6816 115.491 105.151 119.981C116.073 125.084 127.83 128.103 139.855 128.891C140.396 128.867 140.925 128.717 141.404 128.451C141.883 128.186 142.297 127.812 142.616 127.358C143.151 126.531 142.775 126.011 141.891 125.951C120.668 124.507 100.71 115.653 84.7217 101.546C83.4668 100.438 82.2477 99.2934 81.0525 98.125C80.1508 99.253 79.2036 100.342 78.2111 101.392C78.5498 101.716 78.8885 102.04 79.2326 102.359Z" fill="#554140"/>
<path d="M12.5495 66.6431C18.3786 69.2647 23.9995 72.0672 29.1135 75.9771C33.6635 79.6235 38.0052 83.5348 42.1178 87.6923C49.9588 95.2656 57.8417 102.887 66.0518 110.053C67.2762 109.249 68.48 108.411 69.6632 107.539C62.3578 101.167 55.3899 94.3638 48.3598 87.696C44.0636 83.6203 39.9109 79.3702 35.3753 75.5683C30.6649 71.6488 25.4786 68.37 19.9421 65.8113C16.4348 64.1639 12.8945 62.5917 9.3211 61.0947C7.74064 60.4252 6.15437 59.7405 4.55789 59.0768L0.318296 61.4288C1.22658 61.8022 2.1326 62.181 3.03814 62.555C6.22826 63.8703 9.3987 65.2331 12.5495 66.6431Z" fill="#554140"/>
<path d="M66.6017 111.066C67.1417 111.535 67.6824 112.003 68.2238 112.47C77.1828 120.153 86.876 127.065 97.8555 131.385C103.812 133.729 109.958 134.298 116.313 134.525C122.447 134.744 128.657 134.829 134.499 136.893C135.802 137.353 139.259 134.691 137.351 134.018C126.825 130.305 115.324 132.919 104.667 129.89C99.1084 128.159 93.8003 125.693 88.8744 122.556C83.8495 119.46 79.0484 116 74.5067 112.202C73.0534 111.004 71.6157 109.786 70.1936 108.547C69.9052 108.763 69.613 108.978 69.3172 109.193C68.4263 109.837 67.5157 110.461 66.6017 111.066Z" fill="#554140"/>
<path d="M134.345 137.013C128.501 134.901 122.309 134.761 116.189 134.494C109.847 134.214 103.712 133.595 97.7555 131.197C86.7733 126.78 77.0565 119.777 68.0676 112.008C67.5216 111.536 66.9779 111.064 66.4366 110.589C67.3478 109.986 68.2473 109.367 69.1351 108.732C69.4256 108.523 69.7161 108.308 70.0048 108.093C71.4334 109.343 72.876 110.575 74.3326 111.789C78.8894 115.631 83.7024 119.137 88.736 122.28C93.6713 125.464 98.9832 127.977 104.54 129.756C115.192 132.877 126.646 130.353 137.172 134.158C138.922 134.791 136.171 137.071 134.701 137.071C134.58 137.073 134.46 137.053 134.345 137.013V137.013ZM139.707 128.989C127.712 128.102 115.97 124.984 105.046 119.786C95.5745 115.213 86.8225 109.194 79.0838 101.93C78.7391 101.608 78.3987 101.28 78.0575 100.954C79.038 99.9094 79.9752 98.8265 80.8688 97.7051C82.0685 98.8808 83.2908 100.041 84.5508 101.162C100.588 115.417 120.548 124.443 141.718 126.063C142.6 126.13 142.977 126.654 142.45 127.478C142.145 127.91 141.754 128.269 141.303 128.531C140.852 128.792 140.352 128.951 139.837 128.995C139.793 128.992 139.75 128.991 139.707 128.991V128.989ZM146.014 120.547C134.814 116.554 123.012 114.568 111.987 110.019C102.51 106.027 94.1495 99.6455 87.6693 91.4576C87.1443 90.8046 86.626 90.145 86.1145 89.4788C86.5105 88.6763 86.8827 87.8578 87.231 87.0233C87.5363 86.2881 87.8163 85.5474 88.0753 84.8003C89.681 87.0107 91.3592 89.1605 93.1372 91.2216C100.01 99.1568 108.74 105.134 118.49 108.579C128.448 112.168 138.873 114.134 148.84 117.687C150.595 118.312 147.836 120.598 146.365 120.599C146.247 120.601 146.13 120.584 146.018 120.547H146.014ZM153.423 113.634C147.552 111.255 141.857 108.464 136.157 105.683C130.513 102.929 124.825 100.371 119.024 97.9954C113.903 96.0423 108.992 93.5431 104.371 90.5386C99.9588 87.4519 96.2818 83.3701 93.6176 78.6008C93.2582 77.9725 92.9129 77.3394 92.5816 76.7015C91.8816 75.3449 91.2367 73.9622 90.6338 72.5613C90.6452 72.4582 90.6566 72.355 90.6671 72.2538C90.9838 69.0984 91.1921 65.914 91.6068 62.7668C93.4776 68.1723 95.5303 73.4909 98.6068 78.3122C101.61 82.9615 105.632 86.8136 110.345 89.5556C115.174 92.2735 120.192 94.6145 125.358 96.5591C135.851 100.845 145.746 106.531 156.246 110.785C157.975 111.484 155.275 113.709 153.81 113.709C153.678 113.709 153.547 113.684 153.424 113.635L153.423 113.634ZM41.948 87.576C37.8265 83.3861 33.4789 79.4405 28.9262 75.7582C23.811 71.8079 18.1961 68.9591 12.3773 66.2902C9.2361 64.8493 6.0721 63.4627 2.88535 62.1302C1.98235 61.7495 1.07848 61.3624 0.172852 60.9816L4.37285 58.6646C5.96535 59.3419 7.5491 60.0392 9.1276 60.7202C12.69 62.2546 16.2241 63.8552 19.73 65.5216C25.2532 68.1245 30.4334 71.4434 35.1457 75.3983C39.6852 79.2366 43.8467 83.5197 48.15 87.6292C55.1946 94.356 62.1745 101.215 69.4877 107.645C68.3211 108.509 67.1302 109.338 65.9151 110.132C57.6997 102.897 49.8037 95.2126 41.9488 87.5769L41.948 87.576ZM159.769 105.71C150.932 100.955 141.792 96.8025 133.044 91.8636C125.863 87.8084 118.968 83.1119 113.196 77.0715C108.919 72.5366 105.303 67.3835 102.46 61.7738C101.027 58.9846 99.7317 56.1223 98.5788 53.1976C97.9392 51.5869 97.3171 49.967 96.6853 48.3518C97.6492 47.0093 98.7463 45.7748 99.9587 44.6682C101.195 47.7793 102.361 50.9202 103.656 54.0051C107.121 62.5705 112.293 70.2853 118.836 76.6465C131.512 88.6938 148.167 95.0054 163.234 103.115C164.098 103.58 162.9 104.803 162.517 105.092C161.939 105.555 161.24 105.831 160.51 105.884C160.254 105.889 160 105.83 159.77 105.711L159.769 105.71ZM56.949 77.3809C49.76 69.2848 42.1615 61.4637 33.4561 55.1005C30.0772 52.6249 26.5232 50.4153 22.824 48.4902L26.9163 46.2337C31.2617 48.5604 35.4088 51.2631 39.3133 54.3127C47.8306 60.9472 55.2742 68.9057 62.4203 77.0479C68.359 83.8145 74.008 90.8851 80.3762 97.2158C79.4913 98.3456 78.558 99.437 77.5762 100.49C70.1851 93.3198 63.7993 85.0926 56.9498 77.3818L56.949 77.3809ZM69.7948 64.0357C66.9489 59.1173 63.7305 54.4396 60.1698 50.0466C57.0516 46.5158 53.3007 43.6432 49.1247 41.5879C46.715 40.3217 44.1976 39.2158 41.6767 38.0988L45.8146 35.818C49.0851 37.1925 52.2718 38.7707 55.3573 40.5442C59.4067 43.0253 62.9636 46.2784 65.839 50.1308C69.2095 54.6629 72.3124 59.4011 75.1306 64.3196C79.1057 70.9913 83.0633 77.7868 87.5915 84.1148C87.0303 85.727 86.3758 87.3029 85.6315 88.8339C79.7226 81.0344 74.8655 72.422 69.7957 64.0366L69.7948 64.0357ZM82.1183 49.475C80.2776 45.0444 77.965 40.8398 75.2233 36.9386C72.5724 33.5364 69.3623 30.6437 65.7401 28.393C64.7543 27.7328 63.7518 27.0972 62.7327 26.4865L66.7927 24.2482C68.2621 25.1478 69.6957 26.1022 71.0933 27.1115C74.5403 29.5178 77.5453 32.5391 79.9676 36.0342C82.5802 40.0196 84.797 44.2671 86.5843 48.7126C88.3133 52.8547 89.6993 57.1651 91.1571 61.4437C90.6706 64.6932 90.437 68.0196 90.1158 71.3134C87.1846 64.1624 85.2053 56.5682 82.1192 49.4796L82.1183 49.475ZM92.4363 38.5636C89.9017 33.7142 86.7774 29.2198 83.1395 25.1897C81.1366 22.9233 79.0173 20.7789 76.8185 18.7215L80.728 16.5671C83.6762 19.3285 86.449 22.2835 89.0291 25.4138C92.4373 29.5515 95.3101 34.13 97.5752 39.0339C98.3277 40.6718 99.0242 42.334 99.6962 44.008C98.4723 45.0612 97.358 46.2432 96.3712 47.5351C95.169 44.499 93.9203 41.4777 92.4372 38.5683L92.4363 38.5636Z" fill="#3B3430"/>
</svg>
