<svg width="191" height="260" viewBox="0 0 191 260" fill="none" xmlns="http://www.w3.org/2000/svg">
<path d="M182.418 200.895C182.277 200.775 182.142 200.774 182.113 200.886C182.084 200.998 181.925 201.187 181.862 200.935C181.798 200.683 181.92 199.937 181.802 200.023C181.684 200.109 181.296 200.318 181.375 200.173C181.424 200.06 181.437 199.935 181.413 199.816C181.388 199.697 181.328 199.589 181.24 199.508C180.84 199.176 180.49 198.786 180.2 198.349L179.898 198.115C179.768 197.982 179.655 197.831 179.565 197.666C179.433 197.483 179.183 197.274 179.189 197.124C179.204 196.77 178.873 196.992 178.767 196.762L178.677 196.565C178.335 196.362 178.042 196.085 177.816 195.752L177.6 195.556C177.306 195.284 176.835 195.137 176.65 194.837L176.397 194.42C175.832 194.141 175.296 193.805 174.798 193.416L174.392 192.978C174.033 192.503 173.547 192.147 172.993 191.953C172.729 191.85 172.51 191.653 172.375 191.398C172.341 191.307 172.286 191.225 172.215 191.161C172.144 191.096 172.059 191.049 171.968 191.025C171.696 190.914 171.182 190.927 171.195 190.378C171.152 190.318 171.088 190.277 171.016 190.263C170.71 190.374 170.786 189.984 170.611 189.932C170.398 189.901 170.191 189.839 169.996 189.747L169.842 189.642C169.571 189.291 169.247 188.988 168.88 188.746C168.314 188.382 167.719 188.069 167.1 187.81L167.046 187.598C167.004 187.469 166.925 187.357 166.82 187.276C166.716 187.194 166.59 187.147 166.458 187.14C166.145 187.038 165.846 186.895 165.57 186.714C165.257 186.595 164.969 186.42 164.717 186.196C164.488 185.916 164.096 185.995 163.949 185.653C163.934 185.618 163.942 185.551 163.928 185.545C163.585 185.398 163.158 185.514 162.917 185.053L161.971 184.379L161.593 184.266C160.995 184.046 160.42 183.768 159.873 183.437L159.404 183.117C159.207 182.988 159.05 182.75 158.865 183.028C158.845 183.055 158.606 182.978 158.59 182.931L158.372 182.271C157.903 182.268 157.436 182.213 156.979 182.107C156.593 181.982 156.196 181.895 155.794 181.846C155.578 181.851 154.929 181.127 154.543 180.891C153.741 180.692 152.924 180.557 152.1 180.487L151.664 180.06L151.426 179.827C150.951 179.708 150.57 180.099 150.577 180.695L150.449 181.138C150.328 181.639 150.169 182.13 149.971 182.605C149.603 183.667 149.014 184.635 148.245 185.44L147.709 185.889C147.171 186.433 146.493 187.072 146.203 187.312L146.024 187.652C145.792 187.965 145.486 188.21 145.137 188.365L144.816 188.56C144.423 188.717 143.965 188.894 143.797 188.951C143.504 189.062 143.22 189.201 142.95 189.364C142.812 189.465 142.22 189.338 142.124 189.369L142.042 189.409L141.472 189.697C140.588 189.802 139.699 189.849 138.81 189.838L138.384 190.037C138.068 190.188 137.741 189.865 137.445 190.103C137.286 190.228 136.835 190.01 136.52 189.96C136.374 189.935 136.225 189.933 136.078 189.954C135.916 189.98 135.773 190.091 135.615 190.078C135.511 190.07 135.624 189.709 135.326 189.771C135.148 189.807 134.924 189.399 134.775 189.726L133.418 189.572L132.859 189.473C132.261 189.266 131.297 188.966 130.713 188.804L130.193 188.728C129.901 188.678 129.623 188.565 129.378 188.395C128.955 188.189 128.519 188.014 128.072 187.87C127.702 187.714 127.278 187.626 127.099 187.154C127.075 187.092 126.982 187.046 126.922 186.991L126.545 186.654C125.987 186.315 125.484 185.888 125.056 185.387L124.709 185.028L124.355 184.669C124.039 184.29 123.703 183.928 123.351 183.585C123.098 183.12 122.873 182.639 122.678 182.146C122.299 181.195 122.021 180.204 121.85 179.19L122.093 178.804L122.294 178.489C122.252 178.054 122.271 177.614 122.349 177.182L122.424 176.864C122.506 176.515 122.612 176.174 122.708 175.833C122.735 175.739 122.832 175.65 122.81 175.566C122.722 175.367 122.644 175.162 122.577 174.954C122.551 174.765 122.948 174.837 122.842 174.499C122.79 174.336 122.945 174.132 123.026 173.966C123.2 173.535 123.422 173.127 123.69 172.75L124.024 172.364C124.477 172.013 125.46 171.358 126.208 170.91L126.886 170.503L127.384 170.204C128.079 170.162 128.772 170.076 129.459 169.947L129.915 170.079L130.308 170.193C130.811 170.079 131.326 170.042 131.837 170.083C132.455 170.132 133.077 170.148 133.698 170.132C133.973 170.114 134.71 170.208 134.732 170.027C134.755 169.846 135.472 170.298 135.843 170.391C136.215 170.483 138.292 170.268 139.817 170.462L141.204 170.731C142.918 171.066 144.632 171.496 146.344 171.897L146.652 171.97C146.986 172.109 147.031 171.693 146.75 171.04C146.07 169.765 145.315 168.535 144.491 167.356L143.959 166.672L143.65 166.274C143.255 165.988 142.897 165.65 142.586 165.269C142.445 165.05 141.714 164.538 141.571 164.362L141.482 164.181C141.371 163.95 141.026 164.221 140.992 163.868C140.975 163.811 140.936 163.764 140.885 163.737C140.752 163.682 139.713 163.004 139.595 162.911C139.504 162.838 139.361 162.827 139.283 162.748C138.874 162.332 138.073 162.402 137.961 161.606L137.954 161.561C137.804 161.501 137.265 161.228 136.762 160.946C136.259 160.664 134.845 160.056 134.711 160.387L134.589 159.761L134.516 159.385C134.217 159.268 133.649 159.012 133.251 158.822C132.853 158.632 131.442 158.019 131.045 157.763L130.688 157.704C130.301 157.64 130.262 157.197 130.232 157.216L129.502 157.663C128.813 157.112 128.204 156.621 128.149 156.572C128.038 156.446 127.936 156.312 127.843 156.17C127.769 156.061 127.105 156.186 126.864 155.948C126.23 155.571 125.555 155.272 124.851 155.059L124.387 154.848C124.024 154.756 123.685 154.584 123.395 154.344C123.277 154.215 122.98 154.267 122.78 154.183L122.668 154.136C122.57 153.991 122.265 153.983 121.995 154.111L121.898 153.603C121.889 153.555 121.441 153.555 121.224 153.451L121.048 153.366C120.816 153.156 120.554 152.983 120.272 152.853L120.036 152.938C119.977 152.958 119.915 152.965 119.854 152.958C119.792 152.952 119.734 152.931 119.681 152.899C119.376 152.593 118.884 152.177 118.597 152.237L117.998 152.359C117.546 152.143 117.084 151.951 116.613 151.784L116.501 151.698C116.265 151.512 116.056 151.217 115.776 151.511C115.756 151.531 115.576 151.425 115.497 151.35C115.182 151.048 114.899 150.904 114.542 151.153C114.345 151.288 114.377 150.926 114.342 150.925L113.966 150.902C113.556 150.781 112.725 150.516 112.112 150.316L111.619 150.029L111.176 149.773C110.681 149.647 109.88 149.413 109.395 149.253L108.945 149.179C108.75 149.148 108.692 148.581 108.387 148.976C108.333 149.045 107.937 148.831 107.699 148.748L107.421 148.651C107.024 148.449 106.61 148.284 106.184 148.158C105.779 148.044 104.272 147.523 103.673 147.387C102.838 147.042 102.023 146.649 101.232 146.208C100.822 146.106 100.418 145.98 100.022 145.831C99.8135 145.713 99.0085 145.521 98.8139 145.415C98.5562 145.185 98.3263 144.923 98.1289 144.636C98.0549 144.545 97.9186 144.488 98.1106 144.832L97.8037 145.04C97.61 145.171 97.4942 145.136 97.3668 144.945C97.2845 144.824 97.22 144.558 97.1941 144.56L96.2001 144.615C95.8109 144.147 95.3937 143.705 94.9511 143.291C95.0087 143.392 94.9384 143.561 94.6855 143.467C94.1662 143.255 93.6623 143.005 93.1775 142.72L92.896 142.696L92.5806 142.668C92.0855 142.343 91.5408 142.106 90.9684 141.966L90.4823 141.531L90.1411 141.227C89.9721 141.229 89.8054 141.191 89.6541 141.115C89.5028 141.039 89.3708 140.929 89.2685 140.791C89.1709 140.572 88.685 140.293 88.5531 140.58L88.1037 140.271C87.9084 140.137 87.6844 140.1 87.6211 139.823L87.6116 139.783C87.5133 139.743 86.8534 139.554 86.1425 139.361L85.7608 138.96C85.5566 138.748 85.4458 138.408 85.2224 138.262C84.999 138.117 84.6703 138.132 84.3897 138.062C84.1088 138.002 83.833 137.919 83.5652 137.815L83.3775 137.735C83.2005 137.505 83.0683 137.242 82.9882 136.96L82.7434 137.216C82.7121 137.249 82.4315 137.062 82.2832 136.95L81.823 136.604C81.4436 136.34 81.1012 136.024 80.8048 135.665C80.8005 135.536 80.7791 135.409 80.7411 135.288C80.706 135.291 80.6722 135.304 80.6433 135.325C80.6144 135.346 80.5913 135.375 80.5766 135.408C80.5388 135.492 80.3663 135.742 80.3025 135.71C80.157 135.477 80.0497 135.22 79.9848 134.95L79.6193 135.267C79.4952 135.227 79.3867 135.147 79.3087 135.04C79.2943 134.724 79.0762 134.851 78.9496 134.772C78.8562 134.715 78.8669 134.49 78.7729 134.385L78.6823 134.279C78.53 134.216 78.2181 134.109 77.9867 134.042C77.458 133.852 76.9605 133.581 76.51 133.24L76.1106 133.164C75.9216 133.141 75.7441 133.061 75.5999 132.934C75.4556 132.808 75.3507 132.64 75.2984 132.452C75.285 132.426 75.2667 132.404 75.2444 132.386C75.2222 132.368 75.1965 132.355 75.1691 132.348L74.4463 132.443C74.0607 131.83 73.8312 131.388 73.9344 131.454C74.0376 131.521 74.3405 131.619 74.195 131.408L74.1954 131.296C74.1934 130.953 73.9405 131.127 73.8322 131.038C73.6417 130.883 73.5131 131.006 73.3865 130.986L73.0344 130.93C72.5138 130.667 72.3025 130.441 72.5645 130.428L72.6434 130.37L72.7111 130.326C72.7069 130.243 72.682 130.162 72.6388 130.092C72.5956 130.022 72.5356 129.965 72.4645 129.926L72.3877 129.957L71.8083 130.184C71.3504 129.832 70.8194 129.435 70.6212 129.306L70.5624 129.2L70.3523 128.818C70.025 128.639 69.6871 128.482 69.3405 128.346C69.1524 128.283 68.8352 127.736 68.7112 127.668C68.5387 127.519 68.3575 127.381 68.1688 127.255C68.075 127.244 67.7378 127.115 67.6901 126.99C67.575 126.74 67.412 126.517 67.2106 126.334C66.7464 126.111 66.2673 125.921 65.7768 125.766L65.5565 125.493L65.0833 124.91C64.4226 124.608 63.8229 124.183 63.3137 123.656L63.0043 123.323L62.8285 123.135C62.5178 122.973 62.2365 122.759 61.9966 122.499C61.5516 122.143 61.0647 121.845 60.5472 121.614L60.4633 121.298L60.3749 120.964C60.1757 120.827 59.9597 120.718 59.7323 120.639L59.7235 120.613C59.4551 119.855 58.6191 119.608 58.2173 118.983L58.079 118.766C57.9878 118.489 57.822 118.258 57.7105 118.253C57.3556 118.109 57.0576 117.848 56.8621 117.511C56.6712 117.117 55.462 115.572 54.8355 114.688L54.3217 113.867C54.1045 113.536 53.9502 113.159 53.7196 112.81L53.467 112.418C53.373 111.893 53.2624 111.262 53.2219 111.016C53.1629 110.676 53.1244 110.333 53.1066 109.987C53.1265 109.914 53.3572 109.693 53.4054 109.596C53.4535 109.499 53.1121 109.003 53.0166 108.874L53.0408 108.845L53.273 108.564C53.1842 108.387 53.0599 108.233 52.9081 108.111C52.7564 107.989 52.5808 107.902 52.393 107.856C52.0438 107.788 51.4769 106.771 51.3475 106.638C51.0265 106.414 50.748 106.132 50.5259 105.804L50.1118 105.782L50.0517 105.779C49.9805 105.719 49.7464 105.561 49.5296 105.426C49.2391 105.168 48.9755 104.88 48.7426 104.566C48.6629 104.46 48.5121 104.129 48.4454 104.058C48.3786 103.987 47.6376 103.371 46.9881 102.83L46.4444 102.287C46.317 102.102 46.1493 101.95 45.9546 101.843C45.6673 101.715 45.4344 101.486 45.2968 101.196L45.1964 100.887C44.9754 100.713 44.6296 100.425 44.4325 100.246L44.2562 100.078C44.0875 99.9152 43.7866 99.709 43.7924 99.5773L43.8076 99.2163C43.5611 99.2113 43.3156 99.1877 43.0729 99.1458C42.8971 99.1109 42.6416 98.3495 42.4594 98.0812L42.2395 97.8751L42.0375 97.6873C41.8026 97.5463 41.5797 97.3852 41.3712 97.2056C41.2528 97.0909 40.794 96.5651 40.5701 96.3094L40.3679 96.0758L40.1179 95.7867C39.8546 95.4602 39.5319 95.0642 39.4009 94.9083C39.1 94.6341 38.778 94.3855 38.4378 94.165C38.2244 94.0279 37.6735 93.4017 37.3438 93.145C37.0141 92.8883 36.115 91.4711 35.5176 90.9392L35.1567 90.3319C34.9524 89.9892 34.5244 90.1966 34.3964 89.7747L34.3179 89.5124C34.1481 89.2724 33.9256 89.0776 33.6681 88.9438L33.5461 88.8674C33.2995 88.7121 32.9248 88.5822 33.2133 88.2162C33.2279 88.2055 33.0204 87.9322 32.9503 87.9319L32.5388 87.9384C32.3123 87.6297 32.11 87.3028 31.9332 86.9608C31.8368 86.7496 31.1893 86.4811 31.1281 86.3313C31.0668 86.1815 30.7675 85.6891 30.6465 85.6769C30.5255 85.6646 30.2461 85.5445 30.3924 85.4443C30.5388 85.3441 29.8817 85.0146 29.7099 84.8471L29.5501 84.6888L29.0663 84.2115C28.5712 83.7778 28.202 83.2114 27.9985 82.5732L27.5606 82.6067C27.0614 82.6448 27.2164 82.1817 27.0008 82.0093C26.8677 81.9328 26.7519 81.8281 26.6608 81.7021C26.5698 81.5761 26.5055 81.4315 26.4721 81.2775L26.463 81.2205C26.3214 81.1458 26.1635 81.1092 26.0036 81.1143C25.8432 81.1196 25.4227 80.4295 25.2054 80.1756L24.992 79.9503C24.7808 79.7278 24.4502 79.5857 24.4611 79.22C24.4278 79.1483 24.369 79.0929 24.2968 79.065L23.6953 79.2583C23.4803 78.8463 23.298 78.4167 23.1507 77.9735C22.7862 77.5781 22.392 77.2129 21.9717 76.8814L21.9178 76.6201C21.828 76.1882 21.4995 76.3956 21.3778 76.1938C21.2429 75.9726 21.0668 75.5747 20.9556 75.572C20.5483 75.5586 20.594 75.1653 20.3771 75.023C20.1713 74.8565 20.0117 74.6371 19.914 74.3863L19.8034 74.1798C19.3689 73.8485 18.9597 73.4837 18.5794 73.0881C18.2059 72.6991 17.1412 71.5369 17.0449 71.3758C16.9486 71.2147 16.6257 70.9117 16.562 70.7615C16.3621 70.5591 16.1367 70.3853 15.8917 70.2448C15.6193 69.9138 15.421 69.5245 15.3106 69.104L14.7868 69.2104L14.7642 69.2146C14.5067 68.7677 14.2158 68.3424 13.8941 67.9428C13.5402 67.4958 12.4133 66.2181 12.2945 66.0108C12.1195 65.7935 11.9211 65.5975 11.703 65.4266C11.5954 65.3196 11.1656 64.8319 10.9616 64.5605L10.8922 64.2971C10.7915 63.9234 10.7923 63.6042 10.2468 63.5386L10.0449 63.515C9.77228 63.1767 9.56339 62.7883 9.42882 62.3696L9.45349 62.1079L9.50164 61.5909C9.11697 61.2983 8.67429 60.9654 8.51652 60.8458C8.35876 60.7262 7.89395 60.3368 7.95069 60.2383C7.97964 60.1036 7.97579 59.9639 7.9392 59.8321C7.9026 59.7003 7.83449 59.5806 7.7412 59.4835C7.50672 59.2736 7.52234 58.4383 7.61969 58.6444C7.72798 58.891 7.87763 59.1154 8.06161 59.3077C8.13147 59.3059 8.42224 59.1674 8.38844 59.0065L8.2936 58.9069C7.96816 58.5711 8.19338 58.4212 8.34005 58.2023C8.46471 58.0218 8.84364 58.1386 8.79109 57.7198L8.76118 57.489C8.99846 57.1934 9.25702 56.9164 9.53436 56.6606C9.76307 56.4579 10.4987 57.0419 10.6363 57.1382C10.7739 57.2345 11.2936 57.6968 11.5427 57.8928C11.7917 58.0888 12.4618 58.9678 12.7017 59.1359C12.9416 59.3039 13.5176 60.189 13.7331 60.3581C13.9875 60.6331 14.2682 60.881 14.5711 61.0977C14.7845 61.1655 15.1748 62.0398 15.5638 62.4466C15.9527 62.8534 17.3038 64.2581 17.6881 64.6773C18.2143 65.3013 18.7057 65.9557 19.1603 66.6375L19.3003 66.7375L20.3095 67.4651C21.1834 68.5038 22.1295 69.6407 22.4162 70.0016L22.6988 70.3116C22.9936 70.558 23.2393 70.861 23.4223 71.2043L23.5241 71.4541L24.4934 72.1213C24.7 72.2645 25.2182 73.0275 25.4345 73.1736C25.6508 73.3198 26.1614 74.1632 26.4105 74.4318C26.8824 74.8739 27.382 75.2836 27.9062 75.6582L27.9191 75.8031C27.9475 76.13 28.241 76.0934 28.3556 76.2669C28.4785 76.4588 28.6182 76.6385 28.7729 76.8039C28.969 77.0073 29.2119 77.1687 29.3972 77.3788C29.5415 77.5429 29.6162 77.8896 29.7442 77.9236C30.2599 78.0725 30.3732 78.6146 30.7668 78.8705C30.9987 79.0319 31.2119 79.2202 31.402 79.4319L31.5703 79.6074C31.7382 79.8354 31.891 80.0749 32.0276 80.3243L32.2211 80.448C32.3472 80.5027 32.4586 80.5877 32.5462 80.6959C32.6337 80.8041 32.695 80.9325 32.7248 81.0706L32.7352 81.1536C33.1479 81.3468 33.5381 81.5868 33.8985 81.8693C34.263 82.2956 34.5729 82.7687 34.8208 83.2773C34.8527 83.3066 35.3023 83.7496 35.7504 84.1904C36.1985 84.6312 37.5273 86.0354 37.7404 86.2945C37.9536 86.5536 38.6373 87.4026 38.7905 87.6026L38.947 87.77C39.2047 88.048 39.5946 88.1389 39.8068 88.5206C39.9863 88.8445 40.4638 88.9598 40.5724 89.3903L40.6788 89.8144C41.0654 90.1384 41.4322 90.4866 41.7772 90.8569C42.0128 91.1232 43.1082 92.103 43.5361 92.5496C43.9641 92.9962 45.2013 94.275 45.3517 94.3708C45.5711 94.5673 45.7623 94.7949 45.92 95.0469C46.0032 95.1919 46.7541 95.5613 47.1589 95.8739C47.6671 96.4478 48.1381 97.0558 48.5688 97.694L48.747 97.8534L50.3185 99.2558C52.05 100.794 53.6725 102.31 53.9247 102.624L54.3391 102.589C54.4323 102.582 54.6196 102.762 54.6923 102.89C54.7966 103.071 54.7212 103.386 55.0586 103.372L55.4357 103.357C55.8163 103.304 56.166 103.107 56.416 102.803L56.7227 102.772C56.7816 102.767 56.7819 102.582 56.8325 102.497L56.9578 102.287C57.0462 102.438 57.1878 102.548 57.3534 102.594L57.3863 102.548L57.4607 102.44C57.614 102.216 57.8319 102.048 58.0824 101.96C58.3738 101.837 59.3874 101.83 59.6375 102.097L59.8622 101.854C59.9603 101.758 60.078 101.685 60.2064 101.642C60.3349 101.599 60.4707 101.586 60.6038 101.605L60.695 101.605C60.8485 101.429 60.9841 101.236 61.0995 101.031L61.458 101.152L61.5557 101.184C61.6708 101.154 62.0014 101.098 62.2916 101.059C62.7352 101.128 63.163 101.276 63.5566 101.494L63.6567 101.516L63.7641 101.541C63.955 101.512 64.1434 101.466 64.3267 101.403C64.5214 101.336 65.024 101.341 65.0887 101.668L65.4463 101.33L65.5942 101.188C65.6891 101.167 65.787 101.168 65.8809 101.191C65.9748 101.213 66.0626 101.256 66.1382 101.317C66.483 101.557 66.8561 101.752 67.2487 101.896C67.697 102.073 69.1038 102.592 69.3834 102.73C69.9619 103.07 70.5228 103.44 71.0641 103.839C71.4687 104.141 73.0321 105.036 73.5189 105.379L73.8447 105.833L74.0459 106.113C74.3506 106.33 74.8724 106.75 75.2048 107.047L75.5069 107.316C75.8089 107.585 76.1128 107.854 76.414 108.123C76.479 108.167 76.5339 108.224 76.5747 108.292C76.6538 108.57 76.5397 108.898 77.0553 109C77.2224 109.033 77.3204 109.477 77.5601 109.716C77.9831 110.136 78.0557 110.801 78.5933 111.182C78.6138 111.197 78.576 111.307 78.5649 111.371C78.5549 111.534 78.5219 111.696 78.4666 111.85L78.3033 112.153C78.5513 112.278 78.6447 112.416 78.5109 112.459L78.492 112.592C78.463 112.791 78.4669 113 78.4568 113.204L78.255 113.888L78.1154 114.004C78.0437 114.192 77.9016 114.619 77.7985 114.953L77.6958 115.26C77.6281 115.542 77.5386 115.818 77.4279 116.086C77.1877 116.548 76.917 116.994 76.6178 117.418L76.4491 117.653C76.2383 117.831 75.9995 117.97 75.7434 118.064C75.4747 118.053 75.2081 118.014 74.9473 117.95C74.6482 117.909 74.343 117.953 74.0643 118.078L73.8633 118.125C73.6305 118.183 73.3445 117.822 73.0972 118.102L72.9739 118.242C72.8687 118.05 72.7234 117.884 72.5482 117.757C72.2675 117.659 71.9802 117.582 71.6887 117.524L71.4888 117.441L71.2873 117.357C71.056 117.212 70.8023 117.171 70.7233 117.265C70.6443 117.36 70.2787 117.568 70.1462 117.45C70.0137 117.332 69.6105 117.039 69.617 117.126C69.6235 117.213 69.5769 117.389 69.5103 117.394L69.4556 117.367C69.3843 117.329 69.3224 117.275 69.274 117.209C68.8628 116.641 68.3679 116.841 67.9094 116.833C67.5709 116.827 67.5274 116.835 67.5855 116.473L67.6539 116.059C67.4512 116.16 67.2557 116.17 67.22 116.082C67.1843 115.994 66.9371 115.817 66.9223 115.898L66.9276 115.973L66.9594 116.391C66.677 116.305 65.951 116.085 65.3462 115.898L64.7983 115.719C64.6194 115.682 64.4522 115.602 64.3104 115.484C64.0329 115.221 63.6979 115.03 63.3331 114.928L63.0872 114.823C62.9702 114.672 62.8191 114.552 62.6467 114.474L62.5738 114.48C62.4815 114.485 62.3511 114.556 62.3089 114.516C61.8548 114.189 61.3655 113.916 60.8502 113.704L60.4034 113.452C59.917 113.109 59.2209 112.646 58.8567 112.422L58.5339 112.298C58.2603 112.192 58.0887 112.198 57.9993 111.845L57.9394 111.607C57.8105 111.585 57.6881 111.534 57.5808 111.458C57.4736 111.381 57.3841 111.282 57.3185 111.166C57.2884 111.005 56.8479 111.062 56.7359 111.097C56.6239 111.132 56.3121 110.703 56.1212 110.514L55.8792 110.631L55.8235 110.659C55.7052 110.646 55.7718 110.808 55.9635 111.026C56.2214 111.388 56.5471 111.693 56.9215 111.923L57.004 112.239C57.0727 112.526 57.1797 112.801 57.3219 113.057L57.4533 113.281C57.6823 113.505 57.9527 113.68 58.249 113.795C58.4717 113.864 59.2346 115.031 60.0133 115.723C60.792 116.416 62.966 118.354 63.0621 118.571C63.1581 118.788 63.874 118.897 64.0336 118.955C64.1932 119.013 64.6995 119.752 65.0215 120.031L65.3673 120.218L65.7502 120.429C66.1889 120.755 66.6467 121.053 67.1213 121.321L67.2885 121.678L67.3666 121.845C67.35 122.06 67.505 122.079 67.7111 121.885L67.9655 122.269L68.2112 122.631C68.6995 122.939 69.1617 123.289 69.593 123.677L70.0884 123.741L70.2588 123.763C70.5965 124.221 70.9917 124.63 71.4346 124.979C71.8766 125.327 73.1861 125.936 73.163 126.01C73.1594 126.074 73.179 126.137 73.2178 126.187C73.2567 126.237 73.3121 126.27 73.3735 126.28C73.5283 126.303 73.9945 126.491 74.3162 126.541L74.3401 126.645C74.4441 127.12 74.8241 127.213 75.1441 127.409L75.1833 127.432C75.3474 127.658 75.5671 127.833 75.8199 127.941C76.1651 128.127 77.3183 128.859 77.6509 129.048C78.1776 129.35 78.644 129.751 79.0262 130.23L79.4058 130.091C79.5601 130.033 79.8786 130.23 80.0939 130.371C80.3258 130.522 80.5168 130.747 80.7366 130.924C80.82 130.997 80.9253 131.039 81.0352 131.042C81.208 131.02 81.3825 131.048 81.5401 131.121C81.6976 131.195 81.8322 131.311 81.9295 131.459L82.2013 131.791C82.8739 132.072 83.5244 132.405 84.1467 132.789C84.8317 133.203 87.3044 134.522 88.0552 134.94L88.729 135.342C89.1652 135.691 89.6839 135.915 90.2336 135.991C90.3391 136.006 90.4375 136.053 90.5169 136.126C90.4936 136.515 90.8356 136.474 91.0168 136.551C91.5483 136.721 92.0499 136.976 92.5037 137.306L92.8532 137.595C93.3638 137.684 93.858 137.851 94.3199 138.089C94.8492 138.347 95.3977 138.563 95.9605 138.733C96.2706 138.821 97.1996 139.303 97.4443 139.41C97.6891 139.518 99.3102 140.172 100.526 140.677L101.633 141.133C101.758 141.206 101.895 141.255 102.037 141.279L102.439 141.263C102.792 141.423 103.156 141.554 103.528 141.656C103.72 141.693 104.347 142.076 104.538 142.127L104.712 142.129C104.862 142.111 105.015 142.128 105.157 142.179C105.3 142.229 105.429 142.313 105.535 142.422C105.681 142.532 105.85 142.604 106.029 142.632C106.278 142.664 106.523 142.728 106.757 142.82L107.622 143.34C108.487 143.489 109.341 143.696 110.178 143.961C110.791 144.16 111.414 144.325 112.045 144.456C112.386 144.585 112.721 144.731 113.047 144.894C113.496 145.061 113.956 145.196 114.423 145.298L114.778 145.36C114.888 145.38 114.988 145.436 115.064 145.52L115.278 145.805C115.594 145.88 116.589 146.196 117.488 146.508L118.253 146.99C118.283 147.008 118.325 146.997 118.359 147.009L118.904 147.197C119.438 147.422 119.986 147.61 120.544 147.76C120.85 147.823 121.999 148.529 122.51 148.774C123.022 149.018 124.761 149.495 125.165 149.671C125.57 149.848 127.163 150.63 127.82 150.988L128.417 151.127L128.924 151.244C129.303 151.52 129.711 151.749 130.142 151.927C130.382 151.999 131.485 152.598 132.063 152.902L132.588 153.114C133.057 153.304 133.288 153.823 133.853 153.877C134.215 153.913 134.609 154.347 134.995 154.582C135.765 155.044 136.542 155.491 137.317 155.941L137.38 155.977C137.456 156.003 138.077 156.444 138.761 156.959L139.39 157.413C139.793 157.703 140.215 157.964 140.622 158.245C141.03 158.527 141.305 159.047 141.86 159.08C141.914 159.083 141.977 159.212 142.04 159.23C142.45 159.349 142.259 160.035 142.891 160.049L143.153 160.055C143.53 160.485 143.846 160.97 144.091 161.494L144.516 161.618L144.899 161.73C145.148 162.156 145.468 162.534 145.843 162.845L145.98 163.258C146.05 163.468 146.37 163.644 146.592 163.826L146.805 163.999C146.792 164.125 146.807 164.253 146.851 164.371C146.895 164.49 146.965 164.595 147.056 164.68L147.225 164.807C147.36 164.905 147.607 164.885 147.61 165.123C147.608 165.552 147.934 165.773 148.181 166.084C148.52 166.567 148.827 167.073 149.1 167.599L149.175 167.726C149.249 167.857 149.24 167.996 149.154 168.036C149.047 168.08 148.949 168.144 148.864 168.224C148.94 168.287 149.033 168.325 149.131 168.331C149.275 168.372 149.407 168.444 149.521 168.542C149.634 168.64 149.725 168.763 149.788 168.901L149.807 169.147L149.818 169.276C149.765 169.414 149.779 169.542 149.859 169.557C149.938 169.573 150.019 169.793 149.98 169.951C149.941 170.109 149.909 170.599 149.982 170.554C150.055 170.508 150.28 170.466 150.284 170.581C150.344 170.851 150.44 171.112 150.568 171.355L150.686 171.543C150.984 172.019 150.984 172.174 150.725 172.846L150.68 172.965C150.689 173.154 150.859 173.242 151.056 173.159L151.13 173.429L151.157 173.527C151.464 173.771 151.797 173.978 152.15 174.144L152.587 174.316L153.462 174.661C154.42 175.064 155.518 175.538 155.9 175.713C156.283 175.889 157.647 176.538 158.08 176.774C158.512 177.009 159.947 177.79 160.349 177.949C160.751 178.109 161.832 178.897 162.039 178.951L162.158 179.068L162.584 179.488C163.127 179.805 163.998 180.328 164.512 180.652C165.026 180.975 166.586 182.049 166.903 182.181L167.088 182.387L167.299 182.621C167.579 182.809 167.941 183.027 168.104 183.107C168.266 183.188 169.53 184.057 170.625 184.759L171.416 185.677L171.643 185.94C172.003 186.204 172.383 186.441 172.779 186.646L173.044 186.859C173.357 187.113 173.651 187.394 173.954 187.664L174.227 187.905C174.644 188.289 175.029 188.709 175.379 189.158L175.878 189.422L176.268 189.629C176.607 190.117 176.993 190.683 177.124 190.889C177.46 191.21 177.777 191.553 178.072 191.914L178.496 191.85L178.541 191.842C178.736 192.002 178.92 192.177 179.091 192.364C179.359 192.84 179.6 193.331 179.814 193.835L179.937 194.039L180.122 194.351C180.311 194.191 180.525 194.151 180.6 194.265C180.674 194.379 180.935 194.978 181.089 195.338L181.027 195.585L180.893 196.115C181.341 196.144 181.764 196.333 182.088 196.651L181.989 197.077C181.989 197.132 182 197.187 182.023 197.236C182.046 197.286 182.079 197.329 182.12 197.364C182.68 197.647 182.459 198.164 182.672 198.549C182.717 198.628 182.665 198.845 182.612 198.854C182.435 198.88 182.343 198.901 182.525 199.089C182.621 199.163 182.71 199.245 182.79 199.336C182.868 199.46 182.87 199.63 182.956 199.742C183.154 199.979 183.045 200.133 182.867 200.123L182.445 200.096C182.582 200.352 182.697 200.62 182.789 200.898C182.844 201.089 183.237 201.636 183.167 201.913L183.103 202.165C183.023 202.48 182.707 202.478 182.46 202.551L182.422 202.562C182.275 202.182 182.255 201.76 182.364 201.363L182.43 200.928L182.418 200.895ZM144.346 177.761C144.414 177.986 144.36 178.096 144.225 178.007C143.865 177.801 143.487 177.627 143.096 177.49L142.878 177.672C142.566 177.931 142.217 177.61 141.893 177.623C141.571 177.603 141.253 177.548 140.944 177.46C140.629 177.421 140.317 177.359 140.012 177.274C139.495 177.048 138.91 177.043 138.384 177.258C138.184 177.355 138.061 177.468 137.847 177.214C137.677 177.012 137.547 177.048 137.399 177.199C137.359 177.239 137.124 177.05 137.025 177.076C136.927 177.101 136.86 177.367 136.834 177.355L136.318 177.113C135.818 177.23 135.249 177.348 135.053 177.377C134.857 177.405 133.707 177.221 132.94 177.117L132.248 177.238L131.725 177.329C131.101 177.202 130.557 177.22 130.513 177.369L130.454 177.369L130.329 177.367C130.011 177.296 129.679 177.311 129.366 177.411C128.985 177.512 127.803 177.904 127.56 178.004C127.105 178.227 126.673 178.5 126.274 178.818C126.04 179.045 126.421 180.128 126.474 180.26C126.596 180.494 126.787 180.681 127.02 180.794C127.228 180.848 127.982 181.321 128.44 181.546C128.897 181.771 130.431 182.476 130.85 182.592C131.839 182.802 132.838 182.96 133.844 183.066L134.559 183.461C134.6 183.484 134.673 183.397 134.736 183.399C135.032 183.415 135.452 183.577 135.602 183.438C135.946 183.132 136.199 183.685 136.484 183.591C136.53 183.575 136.644 183.681 136.678 183.661C137.176 183.37 137.814 183.637 138.352 183.537C138.905 183.434 139.421 183.235 139.996 183.17C140.484 183.113 140.964 182.994 141.426 182.816C141.845 182.654 142.313 182.615 142.732 182.432L143.111 182.267C143.489 182.212 143.859 182.107 144.212 181.956L144.201 181.881C144.137 181.43 144.275 181.37 144.682 181.623C144.741 181.659 144.954 181.466 145.035 181.337L145.101 181.236C145.257 180.996 145.433 180.771 145.629 180.564L146.027 180.497L146.324 180.451C146.561 180.181 146.839 179.954 147.147 179.778C147.321 179.711 147.275 179.072 147.375 178.94C147.475 178.809 146.523 178.491 145.91 178.422L145.359 178.192C145.126 178.094 144.899 177.969 144.662 177.883L144.346 177.761ZM59.2696 105.559C58.9021 105.38 58.7058 105.39 58.8277 105.573C58.9495 105.756 59.2389 106.312 59.3786 106.346C59.5182 106.379 59.9381 106.653 60.0949 106.679C60.2517 106.705 60.6103 107.264 60.8777 107.439C61.1451 107.614 62.0677 108.063 62.3212 108.285C62.5747 108.507 63.4842 108.622 63.5974 108.807L63.7493 108.913C63.8551 108.986 64.0428 108.897 64.1791 108.95C64.2554 108.98 64.2935 109.223 64.3628 109.243L64.6765 109.331C65.001 109.38 65.3109 109.499 65.586 109.68C66.1509 109.939 66.736 110.151 67.3354 110.312L67.7975 110.548L68.2433 110.776C68.5601 110.701 68.8717 110.791 68.9344 110.977L69.0325 111.028L69.2565 111.145C69.5253 111.206 70.0924 111.302 70.5164 111.357C70.9405 111.413 72.2749 111.824 72.5464 111.873L72.7858 111.956L73.019 112.039C73.1802 112.009 73.3434 111.993 73.5068 111.992L73.5302 111.975C73.5862 111.943 73.674 111.905 73.67 111.858L73.669 111.769C73.5704 111.599 73.4555 111.441 73.326 111.296C73.0335 110.972 72.7025 110.688 72.3406 110.45L72.1132 110.331L71.8338 110.184C71.467 109.916 71.1288 109.608 70.8246 109.267L70.4754 109.075L70.2107 108.925C70.21 108.644 70.1291 108.371 69.9782 108.14L69.883 108.133L69.401 108.103C69.0895 107.87 68.6247 107.506 68.3664 107.293L68.1133 107.143C67.8267 106.972 67.4244 106.89 67.7003 106.454C67.7094 106.438 67.4919 106.186 67.4187 106.192L67.0944 106.219C66.7634 106.295 66.4733 106.271 66.4431 106.17C66.4129 106.069 66.427 105.846 66.526 105.886C66.625 105.925 66.6872 105.904 66.2954 105.719C65.9035 105.533 64.9032 105.402 64.9857 105.254C65.0682 105.107 65.0438 104.765 64.782 104.762C64.3856 104.777 63.989 104.768 63.5943 104.735C63.4403 104.689 63.0193 104.491 62.9844 104.593C62.9494 104.694 62.2404 104.647 61.857 104.618L61.5495 104.761C61.3774 104.841 61.1409 104.982 61.0017 104.909C60.9091 104.84 60.7947 104.809 60.6803 104.823C60.566 104.836 60.4598 104.893 60.3823 104.981C60.1747 105.147 59.7605 105.083 59.5743 105.262L59.2696 105.559Z" fill="#6FB2A5"/>
<path d="M9.42968 62.2384L9.45364 61.9782L9.50026 61.4609L8.51522 60.7143C8.35899 60.5967 7.89262 60.2043 7.9491 60.1061C7.97776 59.9715 7.97349 59.832 7.9367 59.7002C7.89992 59.5684 7.83187 59.4485 7.73854 59.3514C7.61297 59.1793 7.54647 58.9686 7.54946 58.7521C7.54011 58.5553 7.56785 58.4132 7.61424 58.5135C7.72281 58.7602 7.87247 58.9849 8.05655 59.1774C8.12631 59.1758 8.41657 59.0377 8.38203 58.8761L8.28765 58.7772C7.96134 58.4415 8.18668 58.2915 8.33274 58.0731C8.45638 57.8922 8.8355 58.0105 8.78152 57.5923L8.75175 57.3623C8.98811 57.0673 9.24543 56.7909 9.52159 56.5354C9.75011 56.3339 10.486 56.9178 10.6233 57.0156C10.7607 57.1134 11.2807 57.5751 11.529 57.772C11.7773 57.9689 12.4502 58.8483 12.69 59.0167C12.9299 59.1851 13.506 60.0701 13.7213 60.2408C13.976 60.516 14.2568 60.7641 14.5596 60.9815C14.7587 61.1474 14.9199 61.3567 15.0317 61.5946C15.1833 61.8567 15.3583 62.1035 15.5545 62.3318C15.9419 62.7415 17.2952 64.1457 17.6796 64.5654C18.206 65.1902 18.698 65.8452 19.1532 66.5272L19.2934 66.6274L20.3018 67.357C21.1763 68.3968 22.1236 69.5357 22.41 69.8961L22.6923 70.2058C22.9875 70.4526 23.2334 70.7563 23.4166 71.1002L23.5183 71.3493C23.8448 71.573 24.2803 71.875 24.4883 72.0174C24.6963 72.1598 25.2135 72.9245 25.4292 73.0702C25.645 73.216 26.1568 74.0607 26.4066 74.3303C26.8784 74.7729 27.3779 75.1831 27.9018 75.5582L27.9147 75.7021C27.9209 75.7758 27.9477 75.8458 27.9921 75.9035C28.0365 75.9611 28.0964 76.0039 28.1644 76.0266C28.2382 76.0564 28.303 76.1054 28.3527 76.1689C28.4756 76.3606 28.6153 76.5403 28.7699 76.7056C28.9668 76.9087 29.2096 77.0716 29.3951 77.282C29.4578 77.3632 29.5098 77.4528 29.5497 77.5484C29.6123 77.6806 29.6673 77.8049 29.7403 77.8288C30.2554 77.9786 30.3697 78.5206 30.7632 78.7771C30.9954 78.9385 31.2084 79.1273 31.3983 79.3394L31.5663 79.5145C31.7348 79.7423 31.8881 79.9817 32.025 80.2312L32.2188 80.3561C32.345 80.4107 32.4567 80.4957 32.5444 80.604C32.6321 80.7124 32.6932 80.8411 32.7229 80.9793L32.7335 81.0622C33.1462 81.2557 33.5363 81.4963 33.8963 81.7797C34.1853 82.0829 34.4272 82.4304 34.6137 82.8101C34.7281 83.0186 34.8081 83.1762 34.8201 83.1875C34.8525 83.2175 35.3018 83.6605 35.7505 84.1026C36.1993 84.5448 37.5287 85.9507 37.7415 86.2093C37.9543 86.4679 38.64 87.3178 38.7927 87.5185L38.9485 87.6855C39.2064 87.9639 39.5954 88.0547 39.8084 88.4373C39.8995 88.5747 40.0162 88.6918 40.1518 88.7819C40.3482 88.9005 40.4974 89.0868 40.5737 89.3085L40.6801 89.7332C41.0669 90.0575 41.4339 90.406 41.779 90.777C42.0159 91.0438 43.1101 92.0251 43.5381 92.4735C43.966 92.9219 45.2039 94.2011 45.3543 94.2972C45.5734 94.4939 45.7646 94.7214 45.9225 94.9732C46.0051 95.1188 46.7561 95.4903 47.1611 95.8022C47.6697 96.3767 48.141 96.9852 48.5723 97.6239L48.75 97.7828L50.3231 99.1876C52.0545 100.728 53.6777 102.247 53.9294 102.561L54.3431 102.527C54.4374 102.52 54.6228 102.702 54.6964 102.829C54.8001 103.011 54.7266 103.325 55.063 103.311L55.4395 103.297C55.8194 103.244 56.1679 103.048 56.4168 102.745L56.723 102.714C56.7831 102.709 56.7826 102.524 56.8334 102.44L56.9583 102.23C57.047 102.381 57.1884 102.491 57.3538 102.538L57.3879 102.491L57.4612 102.384C57.6139 102.162 57.8307 101.994 58.0803 101.907C58.371 101.784 59.3844 101.779 59.6334 102.046L59.8581 101.804C59.9558 101.708 60.0732 101.635 60.2013 101.592C60.3295 101.549 60.4652 101.537 60.5981 101.556L60.6893 101.555C60.8425 101.379 60.9777 101.188 61.0927 100.983L61.4502 101.105L61.5484 101.139C61.6639 101.108 61.9935 101.052 62.2829 101.014C62.7264 101.085 63.1542 101.233 63.5481 101.452L63.6483 101.474L63.7555 101.499C63.9461 101.471 64.134 101.425 64.3169 101.362C64.5112 101.297 65.0124 101.302 65.0783 101.629L65.4354 101.292L65.5827 101.151C65.6773 101.131 65.7749 101.132 65.8686 101.155C65.9623 101.177 66.05 101.221 66.1254 101.282C66.47 101.523 66.8429 101.718 67.2353 101.863C67.6833 102.04 69.0895 102.562 69.369 102.701C69.947 103.042 70.5077 103.413 71.0493 103.812C71.4538 104.116 73.0158 105.013 73.5038 105.357L73.8306 105.811L74.0325 106.092C74.3365 106.31 74.8578 106.73 75.1903 107.027L75.4924 107.297C75.7955 107.566 76.0979 107.836 76.3997 108.105C76.4648 108.149 76.5197 108.206 76.5604 108.275C76.6399 108.552 76.5274 108.879 77.0416 108.983C77.1335 109.001 77.2052 109.143 77.2906 109.309C77.3564 109.451 77.4426 109.583 77.5465 109.698C77.7206 109.891 77.8637 110.111 77.9705 110.35C78.1049 110.671 78.3147 110.951 78.5809 111.166C78.6002 111.18 78.564 111.29 78.553 111.354C78.5427 111.518 78.5095 111.679 78.4549 111.833L78.2924 112.136C78.541 112.262 78.6345 112.399 78.5002 112.442L78.4816 112.576C78.453 112.774 78.4573 112.983 78.4475 113.187L78.2475 113.869L78.1088 113.985C78.0383 114.172 77.8965 114.599 77.7942 114.933L77.6928 115.24C77.6258 115.522 77.5366 115.797 77.4262 116.064C77.1873 116.527 76.9177 116.972 76.6194 117.396L76.4515 117.63C76.2413 117.808 76.0029 117.946 75.747 118.038C75.4786 118.027 75.2123 117.988 74.9519 117.923C74.6529 117.882 74.348 117.926 74.0697 118.05L73.869 118.096C73.6367 118.154 73.3512 117.792 73.1048 118.071L72.9823 118.212C72.8773 118.019 72.7319 117.853 72.5565 117.726C72.2762 117.628 71.9895 117.549 71.6984 117.491L71.4976 117.407L71.2961 117.323C71.0649 117.178 70.8115 117.136 70.7323 117.23C70.653 117.323 70.2894 117.532 70.1569 117.414C70.0243 117.296 69.6212 117.003 69.6286 117.089C69.636 117.175 69.589 117.352 69.523 117.357L69.4685 117.33C69.3976 117.291 69.3357 117.237 69.2874 117.171C68.8758 116.602 68.382 116.802 67.9241 116.792C67.5861 116.786 67.5419 116.795 67.6 116.433L67.6678 116.018C67.4663 116.118 67.2701 116.129 67.2351 116.04C67.2 115.951 66.9521 115.774 66.9369 115.855L66.9424 115.93L66.9749 116.347C66.6921 116.262 65.9676 116.04 65.3634 115.852L64.8162 115.673C64.6375 115.635 64.4706 115.555 64.3288 115.437C64.0511 115.173 63.716 114.982 63.3512 114.88L63.1062 114.774C62.9889 114.623 62.8378 114.503 62.6657 114.424L62.5927 114.43C62.4999 114.436 62.3714 114.505 62.3284 114.466C61.8743 114.138 61.3851 113.864 60.8702 113.651L60.4238 113.398C59.9368 113.055 59.2414 112.591 58.8766 112.367L58.554 112.242C58.2814 112.135 58.1099 112.142 58.0194 111.788L57.9597 111.551C57.8309 111.528 57.7087 111.477 57.6016 111.401C57.4945 111.324 57.4051 111.224 57.3396 111.108C57.308 110.948 56.8694 111.004 56.7577 111.038C56.6459 111.073 56.3338 110.644 56.1429 110.455L55.9023 110.571L55.8458 110.599C55.7272 110.584 55.7947 110.748 55.9864 110.966C56.2448 111.328 56.5705 111.633 56.9448 111.863L57.0279 112.179C57.0973 112.466 57.2045 112.741 57.3468 112.997L57.4789 113.22C57.7078 113.445 57.978 113.62 58.2739 113.735C58.497 113.805 59.2604 114.972 60.0384 115.666C60.8165 116.36 62.9911 118.3 63.088 118.518C63.1848 118.736 63.8988 118.845 64.0588 118.904C64.2188 118.963 64.7259 119.703 65.0481 119.981L65.3941 120.169L65.7768 120.381C66.2139 120.708 66.6703 121.007 67.1435 121.276L67.3111 121.634L67.3894 121.801C67.3732 122.016 67.5273 122.036 67.7328 121.842L67.9877 122.226L68.2336 122.588C68.7221 122.897 69.1842 123.248 69.6156 123.637L70.1104 123.702L70.2804 123.726C70.6188 124.184 71.0145 124.593 71.4574 124.943C71.8987 125.292 73.2074 125.903 73.1852 125.977C73.1816 126.041 73.2011 126.104 73.2399 126.154C73.2786 126.204 73.3339 126.237 73.3952 126.247C73.5493 126.27 74.0152 126.458 74.337 126.51L74.3604 126.615C74.4651 127.09 74.8454 127.183 75.1645 127.379L75.2037 127.403C75.3684 127.628 75.588 127.804 75.8404 127.913C76.1854 128.1 77.3357 128.83 77.6707 129.023C78.1971 129.326 78.6638 129.728 79.0467 130.208L79.4255 130.069C79.5792 130.013 79.8984 130.209 80.1123 130.351C80.3353 130.525 80.5496 130.71 80.7544 130.906C80.8379 130.979 80.9429 131.02 81.0526 131.024C81.2251 131.003 81.3994 131.031 81.5567 131.105C81.7141 131.178 81.8487 131.295 81.9459 131.443L82.2179 131.775C82.8902 132.057 83.5401 132.392 84.1621 132.776C84.8468 133.192 87.3193 134.514 88.0684 134.933L88.7418 135.336C89.1784 135.685 89.6968 135.91 90.2456 135.987C90.3511 136.003 90.4495 136.05 90.5293 136.123C90.5067 136.512 90.8476 136.472 91.0288 136.548C91.5601 136.719 92.0617 136.974 92.5155 137.305L92.865 137.595C93.3751 137.686 93.8687 137.853 94.3303 138.092C94.8594 138.352 95.4078 138.568 95.9704 138.74C96.2807 138.829 97.2087 139.312 97.4525 139.42C97.6964 139.528 99.3178 140.184 100.532 140.692L101.638 141.15C101.763 141.223 101.9 141.272 102.042 141.296L102.443 141.282C102.796 141.442 103.159 141.574 103.531 141.676C103.722 141.714 104.349 142.097 104.54 142.149L104.713 142.152C104.864 142.134 105.016 142.151 105.158 142.202C105.3 142.253 105.429 142.337 105.536 142.447C105.682 142.557 105.851 142.629 106.03 142.658C106.273 142.73 106.547 142.718 106.758 142.847L107.623 143.368C108.487 143.519 109.339 143.728 110.176 143.993C110.788 144.193 111.411 144.359 112.041 144.491C112.382 144.62 112.716 144.767 113.041 144.931C113.49 145.098 113.95 145.233 114.417 145.337L114.771 145.399C114.881 145.419 114.981 145.475 115.057 145.56L115.271 145.846C115.587 145.921 116.58 146.238 117.479 146.552L118.243 147.036C118.273 147.054 118.316 147.043 118.35 147.056L118.894 147.244C119.428 147.471 119.975 147.66 120.533 147.81C120.838 147.874 121.987 148.582 122.498 148.827C123.01 149.073 124.747 149.551 125.151 149.729C125.554 149.906 127.148 150.692 127.803 151.05L128.4 151.189L128.906 151.307C129.285 151.583 129.694 151.812 130.125 151.992C130.365 152.064 131.467 152.665 132.045 152.969L132.569 153.183C133.037 153.372 133.269 153.892 133.834 153.947C134.196 153.984 134.59 154.418 134.976 154.654C135.745 155.117 136.523 155.564 137.297 156.017L137.359 156.052C137.436 156.078 138.056 156.521 138.74 157.036L139.369 157.492C139.773 157.783 140.194 158.044 140.602 158.326C141.009 158.608 141.285 159.128 141.838 159.162C141.893 159.165 141.955 159.294 142.019 159.312C142.096 159.345 142.165 159.396 142.219 159.461C142.274 159.526 142.312 159.604 142.331 159.689C142.358 159.815 142.426 159.927 142.524 160.008C142.621 160.089 142.743 160.132 142.868 160.132L143.13 160.138C143.508 160.569 143.824 161.054 144.069 161.578L144.493 161.704L144.876 161.817C145.126 162.244 145.446 162.621 145.821 162.934L145.959 163.347C146.029 163.558 146.35 163.733 146.571 163.915L146.784 164.088C146.771 164.215 146.787 164.342 146.831 164.461C146.874 164.579 146.945 164.685 147.037 164.769L147.206 164.896C147.339 164.994 147.588 164.976 147.59 165.213C147.588 165.642 147.915 165.863 148.162 166.175C148.501 166.658 148.809 167.165 149.083 167.691L149.158 167.819C149.232 167.95 149.223 168.09 149.138 168.128C149.053 168.167 148.838 168.289 148.849 168.316C148.925 168.379 149.018 168.417 149.116 168.424C149.259 168.465 149.392 168.537 149.506 168.635C149.619 168.734 149.71 168.856 149.774 168.995L149.793 169.24L149.804 169.37C149.75 169.508 149.766 169.635 149.846 169.651C149.926 169.668 150.006 169.887 149.967 170.045C149.928 170.203 149.898 170.693 149.971 170.648C150.044 170.604 150.267 170.561 150.272 170.676C150.333 170.946 150.429 171.206 150.557 171.449L150.675 171.638C150.974 172.114 150.974 172.268 150.717 172.941L150.671 173.059C150.682 173.248 150.85 173.336 151.047 173.254L151.12 173.523L151.148 173.621C151.454 173.866 151.788 174.073 152.141 174.239L152.577 174.412L153.452 174.759C154.409 175.163 155.506 175.638 155.888 175.815C156.27 175.991 157.633 176.644 158.066 176.88C158.499 177.115 159.933 177.899 160.334 178.058C160.736 178.217 161.817 179.008 162.024 179.063L162.142 179.18L162.57 179.6C163.113 179.918 163.983 180.443 164.497 180.767C165.011 181.091 166.568 182.164 166.887 182.3L167.07 182.502L167.281 182.736C167.562 182.924 167.924 183.144 168.086 183.224C168.249 183.304 169.512 184.176 170.608 184.88L171.398 185.8L171.625 186.063C171.985 186.328 172.365 186.565 172.761 186.771L173.026 186.985C173.339 187.238 173.633 187.52 173.936 187.789L174.209 188.032C174.626 188.417 175.012 188.836 175.362 189.287L175.861 189.552L176.25 189.759C176.589 190.247 176.977 190.814 177.107 191.02C177.234 191.171 177.373 191.312 177.521 191.44C177.726 191.616 177.906 191.82 178.058 192.046L178.48 191.982L178.526 191.974C178.72 192.135 178.904 192.31 179.074 192.498C179.252 192.751 179.395 193.028 179.501 193.322C179.587 193.544 179.686 193.761 179.798 193.97L179.921 194.173L180.108 194.484C180.296 194.325 180.509 194.285 180.584 194.4C180.658 194.514 180.92 195.112 181.074 195.473L181.013 195.718L180.879 196.247C181.327 196.277 181.749 196.468 182.073 196.786L181.976 197.212C181.976 197.267 181.987 197.321 182.01 197.371C182.033 197.421 182.066 197.465 182.107 197.499C182.667 197.784 182.447 198.299 182.661 198.685C182.706 198.764 182.655 198.981 182.601 198.989C182.424 199.014 182.332 199.036 182.516 199.224C182.612 199.297 182.7 199.38 182.781 199.472C182.859 199.596 182.861 199.766 182.948 199.877C183.145 200.115 183.037 200.268 182.86 200.259L182.438 200.231C182.576 200.487 182.691 200.755 182.784 201.033C182.839 201.224 183.232 201.771 183.163 202.049L183.099 202.3C183.02 202.614 182.706 202.611 182.458 202.684L182.42 202.694C182.273 202.314 182.253 201.892 182.361 201.496L182.425 201.06L182.431 201.026C182.289 200.906 182.154 200.906 182.124 201.016C182.093 201.127 181.938 201.316 181.873 201.065C181.808 200.814 181.929 200.068 181.811 200.154C181.693 200.24 181.307 200.448 181.386 200.302C181.435 200.19 181.448 200.065 181.423 199.945C181.399 199.826 181.338 199.718 181.25 199.637C180.85 199.305 180.499 198.914 180.209 198.477L179.907 198.243C179.812 198.159 179.733 198.058 179.673 197.945C179.639 197.895 179.609 197.841 179.571 197.796C179.439 197.614 179.189 197.404 179.194 197.254C179.202 197.049 179.095 197.037 178.983 197.019C178.94 197.019 178.899 197.008 178.862 196.986C178.826 196.964 178.796 196.933 178.775 196.895L178.686 196.698C178.344 196.495 178.05 196.217 177.824 195.884L177.609 195.686C177.315 195.414 176.844 195.267 176.659 194.966L176.404 194.549C175.839 194.269 175.304 193.932 174.806 193.542L174.399 193.103C174.039 192.628 173.554 192.271 173 192.076C172.736 191.972 172.517 191.775 172.382 191.52C172.347 191.429 172.292 191.348 172.222 191.283C172.151 191.218 172.066 191.171 171.975 191.146C171.704 191.036 171.189 191.048 171.201 190.499C171.158 190.438 171.095 190.397 171.023 190.384C170.839 190.448 170.79 190.33 170.747 190.221C170.717 190.146 170.688 190.073 170.618 190.053C170.405 190.021 170.198 189.958 170.003 189.866L169.849 189.762C169.579 189.41 169.254 189.106 168.887 188.864C168.322 188.499 167.727 188.184 167.109 187.924L167.054 187.713C167.012 187.584 166.934 187.472 166.829 187.39C166.725 187.308 166.599 187.261 166.467 187.253C166.154 187.151 165.855 187.007 165.579 186.826C165.266 186.706 164.978 186.53 164.726 186.306C164.497 186.026 164.106 186.103 163.958 185.762C163.943 185.726 163.952 185.661 163.938 185.654C163.596 185.507 163.169 185.622 162.928 185.161L161.981 184.484L161.603 184.371C161.007 184.149 160.431 183.87 159.886 183.538L159.416 183.218C159.219 183.088 159.064 182.85 158.876 183.127C158.858 183.154 158.619 183.078 158.603 183.03L158.383 182.37C157.915 182.367 157.449 182.311 156.993 182.205C156.607 182.079 156.211 181.991 155.808 181.942C155.593 181.947 154.944 181.221 154.557 180.985C153.756 180.784 152.939 180.648 152.116 180.576L151.682 180.149L151.443 179.915C150.97 179.796 150.589 180.185 150.597 180.781L150.471 181.224C150.351 181.724 150.192 182.214 149.996 182.689C149.631 183.749 149.043 184.715 148.277 185.517L147.743 185.965C147.207 186.508 146.531 187.145 146.241 187.384L146.063 187.724C145.832 188.036 145.527 188.28 145.178 188.434L144.858 188.628C144.466 188.784 144.01 188.959 143.842 189.016C143.549 189.126 143.266 189.264 142.996 189.427C142.858 189.528 142.267 189.4 142.172 189.43L142.089 189.47L141.521 189.757C140.637 189.86 139.749 189.905 138.861 189.892L138.437 190.09C138.121 190.241 137.794 189.917 137.498 190.154C137.341 190.28 136.889 190.06 136.574 190.009C136.428 189.983 136.278 189.979 136.13 189.998C135.969 190.024 135.827 190.135 135.669 190.122C135.628 190.118 135.62 190.06 135.609 189.995C135.591 189.896 135.56 189.777 135.378 189.815C135.195 189.853 134.975 189.438 134.828 189.769L133.472 189.614L132.915 189.514C132.316 189.306 131.353 189.005 130.771 188.841L130.25 188.765C129.958 188.714 129.681 188.6 129.436 188.43C129.014 188.223 128.578 188.047 128.131 187.903C127.761 187.746 127.338 187.657 127.159 187.185C127.135 187.123 127.042 187.076 126.983 187.021L126.605 186.684C126.047 186.343 125.545 185.915 125.116 185.414L124.769 185.054L124.419 184.691C124.103 184.312 123.767 183.95 123.414 183.607C123.161 183.142 122.936 182.661 122.74 182.167C122.36 181.217 122.081 180.225 121.908 179.211L122.15 178.826L122.35 178.513C122.308 178.077 122.326 177.637 122.403 177.206L122.477 176.889C122.558 176.541 122.663 176.199 122.759 175.858C122.787 175.765 122.883 175.676 122.861 175.593C122.772 175.393 122.694 175.188 122.628 174.98C122.601 174.792 122.997 174.864 122.891 174.526C122.838 174.363 122.993 174.16 123.074 173.993C123.246 173.563 123.468 173.155 123.735 172.78L124.068 172.394C124.519 172.043 125.5 171.39 126.247 170.944L126.923 170.54L127.419 170.241C128.113 170.2 128.805 170.116 129.489 169.989L129.945 170.122L130.338 170.236C130.84 170.124 131.354 170.087 131.865 170.129C132.482 170.179 133.103 170.197 133.723 170.182C133.999 170.164 134.733 170.26 134.756 170.079C134.778 169.898 135.496 170.351 135.866 170.445C136.236 170.538 138.311 170.327 139.833 170.524L141.218 170.796C142.931 171.134 144.643 171.567 146.354 171.97L146.66 172.044C146.995 172.184 147.039 171.768 146.757 171.115C146.076 169.84 145.32 168.609 144.494 167.43L143.962 166.744L143.653 166.345C143.258 166.059 142.9 165.721 142.588 165.34C142.447 165.121 141.716 164.608 141.573 164.432L141.484 164.25C141.435 164.148 141.342 164.143 141.25 164.14C141.131 164.136 141.014 164.134 140.994 163.936C140.986 163.908 140.971 163.883 140.953 163.86C140.935 163.838 140.912 163.82 140.887 163.807C140.754 163.751 139.715 163.071 139.598 162.979C139.506 162.906 139.363 162.894 139.285 162.815C138.876 162.399 138.076 162.467 137.963 161.672L137.957 161.627C137.807 161.567 137.268 161.293 136.765 161.009C136.262 160.725 134.85 160.117 134.716 160.447L134.593 159.822L134.519 159.445C134.22 159.327 133.654 159.07 133.255 158.879C132.857 158.689 131.447 158.074 131.052 157.817L130.695 157.759C130.599 157.739 130.51 157.693 130.437 157.626C130.365 157.558 130.312 157.471 130.284 157.374C130.259 157.308 130.248 157.264 130.238 157.27L129.511 157.714C128.822 157.162 128.212 156.671 128.157 156.621C128.047 156.495 127.944 156.361 127.852 156.22C127.778 156.111 127.114 156.234 126.874 155.995C126.24 155.617 125.565 155.318 124.862 155.103L124.399 154.891C124.036 154.798 123.697 154.626 123.407 154.384C123.288 154.255 122.994 154.306 122.793 154.223L122.681 154.175C122.582 154.03 122.278 154.022 122.008 154.148L121.911 153.64C121.901 153.592 121.454 153.592 121.237 153.487L121.062 153.401C120.829 153.191 120.567 153.018 120.285 152.887L120.049 152.972C119.991 152.991 119.929 152.998 119.868 152.991C119.806 152.984 119.748 152.964 119.695 152.932C119.39 152.625 118.898 152.209 118.612 152.267L118.013 152.388C117.561 152.171 117.099 151.979 116.629 151.811L116.517 151.725C116.28 151.537 116.072 151.243 115.791 151.537C115.77 151.553 115.591 151.452 115.513 151.376C115.198 151.073 114.915 150.928 114.559 151.177C114.432 151.263 114.399 151.144 114.384 151.046C114.375 150.994 114.369 150.945 114.361 150.951L113.986 150.928C113.576 150.807 112.746 150.539 112.134 150.339L111.641 150.051L111.198 149.795C110.704 149.667 109.903 149.432 109.423 149.269L108.972 149.194C108.895 149.161 108.833 149.1 108.798 149.022C108.702 148.88 108.605 148.738 108.414 148.989C108.36 149.059 107.965 148.844 107.727 148.76L107.45 148.663C107.053 148.461 106.639 148.295 106.214 148.168C105.809 148.054 104.303 147.529 103.705 147.392C102.87 147.046 102.056 146.651 101.265 146.209C100.855 146.106 100.452 145.98 100.056 145.831C99.8476 145.711 99.0441 145.519 98.8496 145.412C98.5919 145.182 98.3617 144.92 98.1639 144.633C98.0894 144.541 97.9582 144.481 98.1469 144.828L97.8409 145.035C97.6477 145.165 97.5315 145.129 97.4051 144.938C97.3228 144.817 97.2576 144.553 97.232 144.554L96.237 144.603C95.8476 144.135 95.4302 143.692 94.9874 143.277C95.0449 143.38 94.9752 143.547 94.7218 143.453C94.2029 143.24 93.6994 142.989 93.2148 142.703L92.933 142.678L92.6186 142.65C92.1238 142.325 91.5793 142.087 91.0074 141.946L90.5219 141.51L90.18 141.206C90.0112 141.207 89.8447 141.168 89.6935 141.093C89.5422 141.017 89.4103 140.906 89.3078 140.768C89.2107 140.548 88.725 140.269 88.5939 140.556L88.1445 140.246C87.9456 140.114 87.725 140.073 87.6618 139.797L87.6524 139.756C87.5542 139.716 86.8942 139.526 86.184 139.332L85.8023 138.93C85.7171 138.834 85.642 138.729 85.578 138.616C85.501 138.466 85.3934 138.335 85.2625 138.232C85.0306 138.08 84.7103 138.102 84.4307 138.031C84.1501 137.969 83.8747 137.886 83.6069 137.782L83.4193 137.701C83.242 137.472 83.1096 137.209 83.0292 136.927L82.7852 137.182C82.754 137.215 82.4735 137.027 82.326 136.914L81.865 136.568C81.4858 136.304 81.1433 135.987 80.8466 135.628C80.8421 135.5 80.8207 135.373 80.7829 135.251C80.7476 135.254 80.7137 135.267 80.6847 135.288C80.6556 135.309 80.6326 135.338 80.618 135.372C80.581 135.457 80.4087 135.706 80.3454 135.674C80.1994 135.44 80.0915 135.183 80.0261 134.913L79.6618 135.229C79.5383 135.188 79.4304 135.109 79.3525 135.002C79.3374 134.688 79.1159 134.814 78.9922 134.734C78.9403 134.681 78.9071 134.611 78.8977 134.536C78.8836 134.467 78.8557 134.402 78.8159 134.345L78.7259 134.239C78.5737 134.175 78.2613 134.069 78.0314 134.002C77.5029 133.81 77.0053 133.54 76.5547 133.198L76.1557 133.121C75.9669 133.097 75.7894 133.017 75.6451 132.89C75.5008 132.763 75.396 132.595 75.3434 132.407C75.3297 132.382 75.3112 132.36 75.2889 132.342C75.2666 132.325 75.2412 132.312 75.2139 132.305L74.4918 132.398C74.105 131.785 73.8756 131.342 73.9788 131.408C74.082 131.475 74.3842 131.573 74.2389 131.363L74.2392 131.251C74.2358 130.909 73.9831 131.081 73.8768 130.992C73.6863 130.836 73.5568 130.959 73.4316 130.938L73.0795 130.881C72.559 130.618 72.3477 130.391 72.6093 130.378L72.688 130.321L72.753 130.274C72.7485 130.19 72.7235 130.11 72.6804 130.04C72.6372 129.97 72.5774 129.913 72.5065 129.874L72.4303 129.905L71.8534 130.131C71.3951 129.778 70.8646 129.381 70.6664 129.251L70.6083 129.145L70.3978 128.763C70.0705 128.584 69.7328 128.426 69.3866 128.289C69.1992 128.227 68.8802 127.679 68.7575 127.611C68.5845 127.462 68.4032 127.324 68.2146 127.197C68.1209 127.186 67.784 127.056 67.7361 126.931C67.6209 126.68 67.4577 126.457 67.2561 126.274C66.792 126.049 66.3128 125.858 65.8221 125.703L65.6016 125.43L65.1288 124.846C64.4683 124.544 63.8686 124.118 63.3595 123.589L63.0499 123.256L62.8741 123.068C62.5633 122.906 62.2818 122.69 62.0417 122.43C61.5966 122.074 61.1102 121.776 60.5935 121.543L60.5089 121.227L60.4196 120.892C60.2206 120.755 60.0048 120.646 59.7778 120.567L59.769 120.541C59.5905 120.143 59.3037 119.809 58.9431 119.578C58.6813 119.394 58.4506 119.168 58.2604 118.907L58.1215 118.689C58.0304 118.413 57.8639 118.181 57.7533 118.175C57.3985 118.03 57.1005 117.769 56.9047 117.432C56.7134 117.038 55.5025 115.492 54.8759 114.607L54.3424 113.796C54.1255 113.465 53.9702 113.087 53.7393 112.738L53.4863 112.346C53.3915 111.821 53.2792 111.191 53.239 110.944C53.1798 110.604 53.1409 110.261 53.1225 109.917C53.1418 109.842 53.3722 109.623 53.4201 109.526C53.468 109.43 53.1261 108.933 53.0281 108.8L53.0522 108.771L53.2835 108.49C53.1946 108.314 53.0701 108.16 52.9183 108.037C52.7666 107.915 52.5912 107.828 52.4035 107.781C52.151 107.731 51.7774 107.181 51.5487 106.83C51.4908 106.736 51.4277 106.647 51.3594 106.561C51.0383 106.337 50.7597 106.054 50.5375 105.725L50.1245 105.704L50.0652 105.7C49.994 105.64 49.7601 105.482 49.5434 105.346C49.2527 105.088 48.9888 104.799 48.7558 104.485C48.7028 104.405 48.6546 104.322 48.6114 104.236C48.5681 104.145 48.5169 104.058 48.4585 103.977C48.3921 103.908 47.6514 103.289 47.0007 102.747L46.4567 102.203C46.3295 102.017 46.1622 101.865 45.9677 101.758C45.6803 101.63 45.4469 101.401 45.3096 101.11L45.2088 100.801C44.9878 100.627 44.6419 100.338 44.4442 100.158L44.2681 99.9898C44.0994 99.8265 43.7991 99.6206 43.8033 99.4888L43.8179 99.1281C43.5717 99.1222 43.3264 99.0978 43.0841 99.055C42.9764 99.0329 42.8419 98.7418 42.7101 98.4564C42.6416 98.2943 42.5617 98.1376 42.4712 97.9876L42.2518 97.7819L42.0499 97.5936C41.815 97.4527 41.5921 97.2917 41.3835 97.1123C41.2656 96.9981 40.806 96.471 40.5819 96.215L40.3794 95.9813L40.1292 95.6918C39.8652 95.3643 39.5422 94.969 39.4113 94.8117C39.1101 94.5375 38.7881 94.2884 38.4483 94.0669C38.2355 93.9303 37.6835 93.3028 37.3543 93.0463C37.0252 92.7898 36.1245 91.3709 35.5264 90.8374L35.1648 90.2299C35.1227 90.1672 35.0689 90.1139 35.0064 90.0733C34.9439 90.0326 34.8741 90.0054 34.801 89.9931C34.7116 89.9848 34.6267 89.95 34.5564 89.893C34.4861 89.836 34.4336 89.759 34.4048 89.6714L34.3257 89.4092C34.1562 89.1687 33.9338 88.9734 33.6766 88.8392L33.5547 88.7625C33.3075 88.6073 32.9333 88.4755 33.2212 88.111C33.2358 88.1003 33.0281 87.8268 32.9588 87.8259L32.5478 87.8328C32.3212 87.5233 32.1184 87.1959 31.9413 86.8535C31.828 86.7086 31.6847 86.5919 31.5217 86.512C31.3763 86.4415 31.2453 86.3431 31.1358 86.2219C31.0742 86.0734 30.7751 85.5802 30.6538 85.5669C30.5324 85.5537 30.2544 85.4333 30.4001 85.3347C30.5459 85.2362 29.8888 84.9036 29.7175 84.7366L29.5571 84.5773L29.0736 84.1001C28.5784 83.6654 28.2085 83.0984 28.0039 82.4599L27.5673 82.4933C27.5176 82.5038 27.4665 82.5032 27.4173 82.4917C27.368 82.4801 27.3218 82.4578 27.2817 82.4262C27.2417 82.3947 27.2087 82.3546 27.1851 82.3086C27.1614 82.2627 27.1475 82.2119 27.1444 82.1598C27.1268 82.059 27.079 81.9667 27.0077 81.896C26.8746 81.8192 26.7588 81.7144 26.6676 81.5882C26.5765 81.4621 26.512 81.3175 26.4784 81.1636L26.4762 81.1137C26.3344 81.0389 26.1764 81.0023 26.0166 81.0072C25.8572 81.0117 25.436 80.3212 25.2186 80.0671L25.0044 79.8419C24.7937 79.6186 24.4627 79.4765 24.4729 79.1111C24.4398 79.0391 24.3809 78.9835 24.3086 78.9558L23.7083 79.1478C23.4927 78.7357 23.31 78.306 23.1621 77.8627C22.7975 77.4671 22.4035 77.1016 21.9833 76.7698L21.9285 76.5077C21.9211 76.4259 21.8857 76.3498 21.8288 76.2928C21.7719 76.2358 21.6971 76.2017 21.6177 76.1965C21.5737 76.1953 21.5306 76.1844 21.4911 76.1646C21.4517 76.1448 21.4169 76.1164 21.3891 76.0814C21.254 75.8601 21.0773 75.4621 20.9668 75.4599C20.8758 75.4571 20.7881 75.4255 20.7157 75.3693C20.6432 75.3132 20.5894 75.2352 20.5615 75.146C20.5252 75.0526 20.4654 74.9712 20.3881 74.9101C20.1822 74.7435 20.0224 74.5239 19.9246 74.2729L19.8132 74.0655C19.3792 73.7337 18.9701 73.3685 18.5896 72.9728C18.2159 72.5833 17.1506 71.4198 17.0549 71.2581C16.9862 71.1583 16.9103 71.0641 16.8276 70.9765C16.73 70.8765 16.6442 70.7649 16.572 70.6439C16.3721 70.4413 16.1467 70.2672 15.9018 70.1262C15.6289 69.7951 15.4302 69.4056 15.3194 68.985L14.7966 69.0903L14.7741 69.0944C14.516 68.6474 14.2246 68.222 13.9022 67.8222C13.5473 67.3753 12.4212 66.0951 12.3014 65.8883C12.1266 65.6705 11.9284 65.4741 11.7104 65.3027C11.6022 65.1948 11.1719 64.7079 10.9685 64.4357L10.8982 64.1716C10.7963 63.7985 10.7972 63.479 10.2523 63.4123L10.0495 63.3881C9.99666 63.3248 9.94298 63.2522 9.88759 63.1706C9.6901 62.886 9.53566 62.5717 9.42968 62.2384V62.2384ZM64.7894 104.705C64.3937 104.718 63.9976 104.708 63.6034 104.675C63.4501 104.629 63.0288 104.43 62.9946 104.532C62.9604 104.634 62.2527 104.585 61.8692 104.555L61.5622 104.697C61.3904 104.777 61.1552 104.917 61.016 104.845C60.9234 104.776 60.809 104.745 60.6949 104.758C60.5808 104.772 60.475 104.828 60.3978 104.916C60.192 105.082 59.7768 105.017 59.5912 105.195L59.2777 105.494C58.9097 105.315 58.7147 105.325 58.8363 105.508C58.9578 105.69 59.2488 106.248 59.3873 106.28C59.5258 106.312 59.9465 106.588 60.1032 106.615C60.2598 106.641 60.6185 107.199 60.8864 107.375C61.1543 107.551 62.0757 108.002 62.3292 108.224C62.5827 108.446 63.491 108.563 63.6052 108.747L63.7565 108.853C63.863 108.926 64.0495 108.838 64.1857 108.891C64.2233 108.906 64.2531 108.974 64.2824 109.044C64.3116 109.114 64.337 109.177 64.371 109.187L64.6857 109.277C65.0098 109.326 65.3195 109.445 65.5945 109.627C66.1591 109.887 66.7437 110.1 67.3425 110.262L67.8045 110.499L68.2499 110.727C68.5661 110.653 68.8774 110.744 68.9398 110.929L69.0388 110.979L69.2619 111.096C69.531 111.158 70.0974 111.255 70.5205 111.311C70.9435 111.367 72.2778 111.781 72.5493 111.829L72.789 111.914L73.0219 111.997C73.1832 111.967 73.3466 111.952 73.5103 111.952L73.5336 111.934C73.5899 111.903 73.6776 111.864 73.6728 111.818L73.6711 111.729C73.5724 111.56 73.4573 111.401 73.3278 111.256C73.035 110.932 72.7038 110.647 72.342 110.409L72.1149 110.289L71.835 110.142C71.4679 109.874 71.1293 109.566 70.8248 109.224L70.4793 109.029L70.2147 108.878C70.2135 108.598 70.1322 108.325 69.9812 108.093L69.8854 108.087L69.404 108.056C69.0933 107.822 68.6272 107.457 68.3702 107.244L68.1179 107.093C67.8314 106.921 67.4295 106.839 67.7042 106.404C67.714 106.387 67.4956 106.135 67.4227 106.14L67.099 106.166C66.7686 106.242 66.4786 106.216 66.4487 106.116C66.4189 106.016 66.4319 105.793 66.5308 105.832C66.6297 105.872 66.6918 105.851 66.3002 105.665C65.9086 105.479 64.9094 105.345 64.9923 105.198C65.0222 105.136 65.0366 105.067 65.0339 104.999C65.0313 104.93 65.0118 104.863 64.9773 104.805C64.9561 104.773 64.9276 104.748 64.8944 104.73C64.8611 104.713 64.8242 104.704 64.7868 104.706L64.7894 104.705ZM145.945 178.483L145.393 178.253C145.16 178.154 144.934 178.028 144.696 177.942L144.365 177.825C144.434 178.05 144.381 178.16 144.246 178.071C143.886 177.864 143.508 177.69 143.117 177.552L142.9 177.733C142.589 177.991 142.24 177.67 141.916 177.683C141.595 177.662 141.277 177.607 140.967 177.518C140.653 177.479 140.341 177.416 140.036 177.33C139.52 177.103 138.936 177.096 138.411 177.309C138.211 177.406 138.089 177.519 137.874 177.265C137.704 177.062 137.574 177.099 137.427 177.249C137.388 177.289 137.153 177.1 137.054 177.125C136.956 177.15 136.891 177.416 136.864 177.404L136.348 177.161C135.849 177.278 135.281 177.395 135.086 177.423C134.891 177.45 133.742 177.264 132.976 177.158L132.285 177.279L131.764 177.368C131.141 177.241 130.597 177.257 130.553 177.406L130.494 177.404L130.369 177.403C130.052 177.331 129.72 177.345 129.408 177.445C129.028 177.545 127.849 177.935 127.606 178.034C127.151 178.256 126.721 178.528 126.323 178.845C126.09 179.072 126.473 180.156 126.525 180.287C126.648 180.521 126.839 180.708 127.072 180.821C127.28 180.875 128.033 181.351 128.491 181.576C128.949 181.8 130.481 182.51 130.9 182.626C131.888 182.837 132.886 182.997 133.89 183.106L134.605 183.501C134.646 183.524 134.718 183.438 134.782 183.44C135.078 183.456 135.498 183.618 135.646 183.481C135.99 183.174 136.244 183.728 136.528 183.635C136.574 183.619 136.687 183.725 136.721 183.706C137.218 183.415 137.855 183.683 138.392 183.584C138.945 183.483 139.46 183.285 140.033 183.22C140.521 183.165 141 183.047 141.461 182.87C141.878 182.71 142.345 182.672 142.764 182.489L143.141 182.326C143.52 182.271 143.89 182.166 144.244 182.014L144.233 181.939C144.168 181.488 144.306 181.429 144.713 181.682C144.771 181.719 144.984 181.526 145.066 181.398L145.131 181.297C145.286 181.058 145.462 180.833 145.658 180.627L146.055 180.561L146.352 180.515C146.588 180.247 146.865 180.02 147.172 179.845C147.346 179.779 147.298 179.139 147.398 179.009C147.409 178.994 147.408 178.977 147.395 178.96C146.951 178.695 146.455 178.533 145.942 178.484L145.945 178.483Z" fill="#787878"/>
</svg>
