<svg width="54" height="16" viewBox="0 0 54 16" fill="none" xmlns="http://www.w3.org/2000/svg">
<path d="M5.9752 3.30369H3.17299V4.42138H4.6659C4.46631 4.95628 3.97932 5.2836 3.23686 5.2836C2.1511 5.2836 1.48049 4.58904 1.48049 3.639C1.48049 2.65703 2.18303 1.96247 3.12509 1.96247C3.75578 1.96247 4.25874 2.24987 4.49026 2.61711L5.57602 1.9944C5.10499 1.24395 4.20286 0.717041 3.13307 0.717041C1.48847 0.717041 0.203125 2.01037 0.203125 3.63102C0.203125 5.2357 1.46452 6.52903 3.22089 6.52903C4.78565 6.52903 5.9752 5.49117 5.9752 3.7827V3.30369Z" fill="white"/>
<path d="M7.57352 5.1878V4.19785H9.56939V2.98436H7.57352V2.05827H9.76898V0.82881H6.29616V6.41726H9.8089V5.1878H7.57352Z" fill="white"/>
<path d="M13.8827 0.82881H9.73124V2.05827H11.1683V6.41726H12.4456V2.05827H13.8827V0.82881Z" fill="white"/>
<path d="M15.6393 0.82881V6.41726H16.9167V0.82881H15.6393Z" fill="white"/>
<path d="M21.23 0.82881H17.0786V2.05827H18.5156V6.41726H19.7929V2.05827H21.23V0.82881Z" fill="white"/>
<path d="M25.6532 6.52903C27.2578 6.52903 28.5591 5.26764 28.5591 3.62303C28.5591 1.97843 27.2578 0.717041 25.6532 0.717041C24.0485 0.717041 22.7472 1.97843 22.7472 3.62303C22.7472 5.26764 24.0485 6.52903 25.6532 6.52903ZM25.6532 5.2836C24.743 5.2836 24.0245 4.62097 24.0245 3.62303C24.0245 2.6251 24.743 1.96247 25.6532 1.96247C26.5633 1.96247 27.2818 2.6251 27.2818 3.62303C27.2818 4.62097 26.5633 5.2836 25.6532 5.2836Z" fill="white"/>
<path d="M31.9927 0.82881V3.86254L29.8372 0.82881H28.8792V6.41726H30.1565V3.38353L32.3121 6.41726H33.2701V0.82881H31.9927Z" fill="white"/>
<path d="M5.9752 12.7961V13.0116C5.9752 13.7089 5.72771 14.297 5.23273 14.776C4.73775 15.2497 4.08577 15.4865 3.27677 15.4865C2.4252 15.4865 1.72265 15.2098 1.16913 14.6562C0.615606 14.0974 0.338844 13.4135 0.338844 12.6045C0.338844 11.7955 0.612945 11.1142 1.16114 10.5607C1.70935 10.0019 2.40391 9.72243 3.24484 9.72243C3.75578 9.72243 4.22415 9.84484 4.64993 10.0897C5.08104 10.3345 5.41369 10.6618 5.64787 11.0716L5.27265 11.2952C5.08637 10.9439 4.8096 10.6618 4.44236 10.4489C4.08044 10.236 3.68127 10.1296 3.24484 10.1296C2.521 10.1296 1.9249 10.3691 1.45653 10.8481C0.993491 11.3218 0.76197 11.9072 0.76197 12.6045C0.76197 13.3017 0.996153 13.8898 1.46452 14.3688C1.93288 14.8425 2.53697 15.0794 3.27677 15.0794C3.93142 15.0794 4.46099 14.9011 4.86549 14.5445C5.26999 14.1879 5.49619 13.7381 5.54409 13.1952H3.17299V12.7961H5.9752Z" fill="white"/>
<path d="M11.6421 14.6482C11.0833 15.2071 10.402 15.4865 9.59833 15.4865C8.79466 15.4865 8.1134 15.2071 7.55456 14.6482C6.99571 14.0841 6.71629 13.4028 6.71629 12.6045C6.71629 11.8061 6.99571 11.1275 7.55456 10.5687C8.1134 10.0045 8.79466 9.72243 9.59833 9.72243C10.402 9.72243 11.0833 10.0045 11.6421 10.5687C12.201 11.1275 12.4804 11.8061 12.4804 12.6045C12.4804 13.4028 12.201 14.0841 11.6421 14.6482ZM7.84995 14.3608C8.32896 14.8399 8.91175 15.0794 9.59833 15.0794C10.2849 15.0794 10.865 14.8399 11.3387 14.3608C11.8177 13.8765 12.0572 13.2911 12.0572 12.6045C12.0572 11.9179 11.8177 11.3351 11.3387 10.8561C10.865 10.3718 10.2849 10.1296 9.59833 10.1296C8.91175 10.1296 8.32896 10.3718 7.84995 10.8561C7.37626 11.3351 7.13941 11.9179 7.13941 12.6045C7.13941 13.2911 7.37626 13.8765 7.84995 14.3608Z" fill="white"/>
<path d="M18.1599 14.6482C17.601 15.2071 16.9198 15.4865 16.1161 15.4865C15.3124 15.4865 14.6312 15.2071 14.0723 14.6482C13.5135 14.0841 13.2341 13.4028 13.2341 12.6045C13.2341 11.8061 13.5135 11.1275 14.0723 10.5687C14.6312 10.0045 15.3124 9.72243 16.1161 9.72243C16.9198 9.72243 17.601 10.0045 18.1599 10.5687C18.7187 11.1275 18.9982 11.8061 18.9982 12.6045C18.9982 13.4028 18.7187 14.0841 18.1599 14.6482ZM14.3677 14.3608C14.8467 14.8399 15.4295 15.0794 16.1161 15.0794C16.8027 15.0794 17.3828 14.8399 17.8565 14.3608C18.3355 13.8765 18.575 13.2911 18.575 12.6045C18.575 11.9179 18.3355 11.3351 17.8565 10.8561C17.3828 10.3718 16.8027 10.1296 16.1161 10.1296C15.4295 10.1296 14.8467 10.3718 14.3677 10.8561C13.894 11.3351 13.6572 11.9179 13.6572 12.6045C13.6572 13.2911 13.894 13.8765 14.3677 14.3608Z" fill="white"/>
<path d="M25.3882 12.7961V13.0116C25.3882 13.7089 25.1407 14.297 24.6457 14.776C24.1508 15.2497 23.4988 15.4865 22.6898 15.4865C21.8382 15.4865 21.1357 15.2098 20.5821 14.6562C20.0286 14.0974 19.7518 13.4135 19.7518 12.6045C19.7518 11.7955 20.0259 11.1142 20.5741 10.5607C21.1223 10.0019 21.8169 9.72243 22.6578 9.72243C23.1688 9.72243 23.6371 9.84484 24.0629 10.0897C24.494 10.3345 24.8267 10.6618 25.0609 11.0716L24.6856 11.2952C24.4994 10.9439 24.2226 10.6618 23.8554 10.4489C23.4934 10.236 23.0943 10.1296 22.6578 10.1296C21.934 10.1296 21.3379 10.3691 20.8695 10.8481C20.4065 11.3218 20.175 11.9072 20.175 12.6045C20.175 13.3017 20.4092 13.8898 20.8775 14.3688C21.3459 14.8425 21.95 15.0794 22.6898 15.0794C23.3444 15.0794 23.874 14.9011 24.2785 14.5445C24.683 14.1879 24.9092 13.7381 24.9571 13.1952H22.586V12.7961H25.3882Z" fill="white"/>
<path d="M26.8718 14.9995H29.5063V15.3987H26.4486V9.81025H26.8718V14.9995Z" fill="white"/>
<path d="M30.8089 14.9995H33.6032V15.3987H30.3858V9.81025H33.5632V10.2094H30.8089V12.3809H33.3636V12.7801H30.8089V14.9995Z" fill="white"/>
<path d="M38.6711 9.81025C39.1714 9.81025 39.5866 9.97524 39.9165 10.3052C40.2465 10.6352 40.4115 11.0477 40.4115 11.5427C40.4115 12.0376 40.2465 12.4501 39.9165 12.7801C39.5866 13.1048 39.1714 13.2671 38.6711 13.2671H37.1942V15.3987H36.771V9.81025H38.6711ZM38.6711 12.8679C39.0543 12.8679 39.3683 12.7429 39.6132 12.4927C39.8633 12.2426 39.9884 11.9259 39.9884 11.5427C39.9884 11.1541 39.8633 10.8348 39.6132 10.5846C39.3683 10.3345 39.0543 10.2094 38.6711 10.2094H37.1942V12.8679H38.6711Z" fill="white"/>
<path d="M41.8798 14.9995H44.5144V15.3987H41.4567V9.81025H41.8798V14.9995Z" fill="white"/>
<path d="M49.31 15.3987L48.7671 13.9776H45.9649L45.422 15.3987H44.975L47.1465 9.81025H47.5936L49.7571 15.3987H49.31ZM46.1246 13.5785H48.6154L47.37 10.3292L46.1246 13.5785Z" fill="white"/>
<path d="M53.7334 9.81025L51.6976 13.0994V15.3987H51.2744V13.0994L49.2387 9.81025H49.7177L51.49 12.6923L53.2544 9.81025H53.7334Z" fill="white"/>
</svg>
