<svg width="196" height="197" viewBox="0 0 196 197" fill="none" xmlns="http://www.w3.org/2000/svg">
<path d="M112.619 58.6799C116.651 68.4944 121.84 77.492 129.339 85.082C135.939 91.7638 143.821 96.9539 152.03 101.437C162.028 106.898 172.475 111.487 182.579 116.743C183.564 117.256 184.9 116.658 185.717 116.062C186.155 115.742 187.524 114.388 186.535 113.874C169.313 104.914 150.277 97.9334 135.784 84.6138C128.302 77.5779 122.386 69.0462 118.423 59.575C116.938 56.165 115.607 52.6869 114.191 49.2469C112.806 50.4708 111.553 51.8366 110.453 53.3217C111.174 55.1083 111.888 56.8985 112.619 58.6799Z" fill="#554140"/>
<path d="M105.592 42.4984C107.289 45.7166 108.718 49.0579 110.089 52.4239C111.218 50.9919 112.493 49.6818 113.894 48.515C113.13 46.6621 112.329 44.8249 111.467 43.0135C108.875 37.5935 105.588 32.5329 101.691 27.9588C98.741 24.4956 95.5711 21.226 92.2008 18.1703L87.7343 20.5555C90.2481 22.8307 92.6729 25.2023 94.9635 27.7067C99.1225 32.1646 102.694 37.1355 105.592 42.4984V42.4984Z" fill="#554140"/>
<path d="M85.921 40.7064C89.0566 45.0216 91.7022 49.6717 93.8089 54.571C97.3422 62.411 99.6066 70.8106 102.962 78.7243C103.326 75.0799 103.59 71.4016 104.145 67.8076C102.476 63.0762 100.89 58.3086 98.912 53.7273C96.8668 48.8111 94.3308 44.1133 91.3424 39.7052C88.5732 35.8404 85.1374 32.4993 81.1961 29.8387C79.5996 28.7203 77.9606 27.665 76.279 26.6729L71.6414 29.1494C72.8055 29.8244 73.9517 30.5266 75.0801 31.2562C79.2204 33.7459 82.8902 36.9448 85.921 40.7064V40.7064Z" fill="#554140"/>
<path d="M103.554 80.0905C104.561 82.3825 105.7 84.6141 106.966 86.7742C110.012 92.0472 114.217 96.5608 119.262 99.9743C124.544 103.296 130.158 106.059 136.012 108.217C142.643 110.846 149.142 113.68 155.595 116.719C162.11 119.793 168.619 122.879 175.331 125.507C176.798 126.085 180.725 123.194 178.558 122.347C166.552 117.645 155.243 111.359 143.251 106.622C137.347 104.472 131.612 101.885 126.094 98.8811C120.705 95.8486 116.108 91.5892 112.674 86.4488C109.153 81.1176 106.804 75.2343 104.663 69.2559C104.187 72.7372 103.956 76.2608 103.595 79.7503L103.554 80.0905Z" fill="#554140"/>
<path d="M98.3985 98.8124C98.9828 99.5483 99.5732 100.279 100.177 101C107.586 110.052 117.143 117.108 127.978 121.522C140.579 126.551 154.069 128.743 166.866 133.159C168.358 133.674 172.274 130.751 170.093 129.999C158.701 126.071 146.786 123.901 135.405 119.934C124.26 116.125 114.279 109.515 106.422 100.741C104.388 98.4602 102.469 96.0818 100.633 93.6386C100.338 94.4639 100.017 95.2832 99.6702 96.0965C99.2754 97.0188 98.8515 97.9241 98.3985 98.8124Z" fill="#554140"/>
<path d="M68.7212 55.2044C72.7945 60.062 76.4764 65.2343 79.7323 70.6729C85.5318 79.9462 91.0876 89.472 97.8414 98.1041C98.6906 96.41 99.4374 94.6664 100.078 92.8828C94.8987 85.8854 90.3733 78.37 85.8266 70.9907C82.6031 65.5519 79.0545 60.3121 75.2001 55.2998C71.9129 51.0388 67.8462 47.4402 63.2164 44.6953C59.6892 42.7361 56.0467 40.9922 52.3088 39.4732L47.5822 41.9973C50.4636 43.2325 53.3413 44.4606 56.0952 45.8557C60.8686 48.1267 65.1566 51.3016 68.7212 55.2044V55.2044Z" fill="#554140"/>
<path d="M65.0637 85.442C72.894 93.9687 80.1977 103.067 88.6488 111.001C89.7684 109.836 90.8344 108.628 91.8467 107.379C84.5647 100.373 78.107 92.5549 71.3153 85.0725C63.1447 76.0686 54.6274 67.2669 44.896 59.9323C40.4329 56.5602 35.6924 53.5718 30.7254 50.9991L26.0508 53.4954C30.2791 55.6238 34.3416 58.0667 38.204 60.8034C48.1568 67.8418 56.8412 76.4896 65.0637 85.442Z" fill="#554140"/>
<path d="M90.3715 112.587C99.2183 120.618 109.224 127.273 120.051 132.329C132.537 138.075 145.958 141.521 159.667 142.498C160.282 142.477 160.884 142.315 161.427 142.025C161.97 141.735 162.44 141.324 162.799 140.825C163.401 139.913 162.969 139.334 161.962 139.26C137.768 137.476 114.955 127.497 96.6186 111.734C95.1795 110.496 93.7808 109.218 92.4092 107.914C91.3914 109.155 90.3214 110.353 89.1994 111.507C89.588 111.869 89.9767 112.23 90.3715 112.587Z" fill="#554140"/>
<path d="M14.123 73.189C20.7742 76.1387 27.19 79.2866 33.0387 83.6549C38.2439 87.7268 43.2144 92.0899 47.9264 96.7232C56.9072 105.166 65.936 113.663 75.3332 121.659C76.7188 120.78 78.0807 119.864 79.419 118.91C71.0574 111.8 63.076 104.216 55.025 96.7815C50.1049 92.2371 45.3465 87.5009 40.1565 83.2572C34.7666 78.8818 28.841 75.2109 22.5232 72.3332C18.5207 70.481 14.4812 68.7117 10.4049 67.0252C8.60187 66.271 6.79214 65.5001 4.97097 64.7522L0.169365 67.3164C1.20544 67.7372 2.23899 68.164 3.27195 68.5854C6.91094 70.0677 10.5279 71.6023 14.123 73.189Z" fill="#554140"/>
<path d="M75.9251 122.168C76.5447 122.693 77.165 123.216 77.786 123.738C88.0639 132.329 99.1721 140.072 111.725 144.955C118.534 147.603 125.545 148.288 132.793 148.594C139.787 148.89 146.866 149.039 153.543 151.376C155.033 151.897 158.951 148.978 156.77 148.216C144.739 144.01 131.651 146.806 119.477 143.357C113.126 141.39 107.054 138.612 101.412 135.093C95.6578 131.619 90.1555 127.743 84.9461 123.496C83.2793 122.155 81.6301 120.793 79.9985 119.408C79.6715 119.645 79.3403 119.881 79.0049 120.116C77.9947 120.822 76.962 121.505 75.9251 122.168Z" fill="#554140"/>
<path d="M153.343 151.196C146.664 148.86 139.587 148.706 132.593 148.41C125.345 148.101 118.334 147.416 111.526 144.765C98.9748 139.881 87.8698 132.138 77.5968 123.547C76.9728 123.026 76.3515 122.503 75.7328 121.978C76.7742 121.311 77.8022 120.627 78.8168 119.925C79.1488 119.693 79.4808 119.456 79.8108 119.218C81.4435 120.6 83.0921 121.962 84.7568 123.305C89.9646 127.553 95.4652 131.43 101.218 134.905C106.858 138.425 112.929 141.204 119.28 143.172C131.453 146.623 144.544 143.832 156.573 148.039C158.573 148.739 155.429 151.26 153.749 151.26C153.611 151.262 153.474 151.24 153.343 151.196V151.196ZM159.471 142.323C145.762 141.342 132.342 137.895 119.858 132.147C109.033 127.091 99.031 120.436 90.1868 112.404C89.7928 112.048 89.4038 111.685 89.0138 111.324C90.1345 110.169 91.2055 108.972 92.2268 107.732C93.5978 109.032 94.9948 110.315 96.4348 111.554C114.763 127.316 137.575 137.297 161.769 139.088C162.777 139.162 163.208 139.742 162.605 140.653C162.257 141.13 161.81 141.527 161.294 141.817C160.779 142.106 160.208 142.281 159.619 142.33C159.569 142.327 159.519 142.326 159.471 142.326V142.323ZM166.679 132.989C153.879 128.574 140.391 126.378 127.791 121.348C116.959 116.933 107.405 109.878 99.9988 100.824C99.3988 100.102 98.8065 99.3727 98.2218 98.636C98.6745 97.7487 99.0998 96.8436 99.4978 95.9209C99.8468 95.1079 100.167 94.2889 100.463 93.4629C102.298 95.9069 104.216 98.284 106.248 100.563C114.103 109.337 124.08 115.946 135.223 119.756C146.603 123.724 158.518 125.898 169.908 129.827C171.914 130.518 168.761 133.045 167.08 133.046C166.945 133.049 166.811 133.03 166.683 132.989H166.679ZM175.146 125.345C168.436 122.715 161.928 119.628 155.414 116.553C148.963 113.508 142.463 110.68 135.833 108.053C129.98 105.893 124.367 103.13 119.087 99.8079C114.044 96.3948 109.842 91.8814 106.797 86.6079C106.386 85.9132 105.991 85.2131 105.613 84.5078C104.813 83.0078 104.076 81.4789 103.387 79.9299C103.4 79.8159 103.413 79.7018 103.425 79.5898C103.787 76.1008 104.025 72.5799 104.499 69.0999C106.637 75.0769 108.983 80.9578 112.499 86.2888C115.931 91.4296 120.527 95.689 125.914 98.7209C131.432 101.726 137.168 104.315 143.072 106.465C155.064 111.204 166.372 117.491 178.372 122.195C180.348 122.968 177.263 125.428 175.588 125.428C175.437 125.428 175.288 125.4 175.147 125.346L175.146 125.345ZM47.7458 96.532C43.0355 91.8992 38.0669 87.5364 32.8638 83.4648C27.0178 79.0968 20.6008 75.9468 13.9508 72.9958C10.3608 71.4025 6.74481 69.8693 3.10281 68.396C2.07081 67.975 1.03781 67.547 0.00280762 67.126L4.80281 64.564C6.62281 65.313 8.4328 66.0839 10.2368 66.8369C14.3081 68.5336 18.3471 70.3033 22.3538 72.146C28.6661 75.0241 34.5863 78.6938 39.9718 83.0669C45.1598 87.3109 49.9158 92.0468 54.8338 96.5908C62.8848 104.029 70.8618 111.613 79.2198 118.723C77.8865 119.678 76.5255 120.594 75.1368 121.473C65.7478 113.473 56.7238 104.976 47.7468 96.533L47.7458 96.532ZM182.399 116.583C172.299 111.325 161.853 106.734 151.856 101.273C143.649 96.7889 135.769 91.596 129.172 84.917C124.285 79.9026 120.152 74.2047 116.903 68.002C115.265 64.9179 113.784 61.7529 112.467 58.519C111.736 56.738 111.025 54.9469 110.303 53.1609C111.404 51.6765 112.658 50.3114 114.044 49.0879C115.457 52.5279 116.79 56.0009 118.27 59.4119C122.23 68.8829 128.141 77.4133 135.618 84.447C150.105 97.768 169.139 104.747 186.359 113.714C187.346 114.228 185.977 115.58 185.539 115.9C184.878 116.412 184.08 116.717 183.246 116.776C182.952 116.781 182.662 116.716 182.4 116.584L182.399 116.583ZM64.8898 85.259C56.6738 76.307 47.9898 67.659 38.0408 60.623C34.1793 57.8858 30.1175 55.4425 25.8898 53.314L30.5668 50.8188C35.533 53.3916 40.2725 56.38 44.7348 59.752C54.4688 67.088 62.9758 75.8879 71.1428 84.8909C77.9298 92.3729 84.3858 100.191 91.6638 107.191C90.6525 108.44 89.5858 109.647 88.4638 110.811C80.0168 102.883 72.7188 93.786 64.8908 85.26L64.8898 85.259ZM79.5708 70.5029C76.3183 65.0646 72.6402 59.8924 68.5708 55.0349C65.0071 51.1308 60.7203 47.9545 55.9478 45.6819C53.1938 44.2819 50.3168 43.059 47.4358 41.824L52.1648 39.302C55.9025 40.8218 59.5445 42.5669 63.0708 44.5278C67.6987 47.2712 71.7636 50.8683 75.0498 55.1279C78.9019 60.1392 82.448 65.3784 85.6688 70.8169C90.2118 78.1939 94.7348 85.7078 99.9098 92.7048C99.2685 94.4875 98.5205 96.23 97.6698 97.9229C90.9168 89.2989 85.3658 79.7759 79.5718 70.5039L79.5708 70.5029ZM93.6548 54.4028C91.5511 49.5039 88.9081 44.8547 85.7748 40.541C82.7452 36.7792 79.0764 33.5807 74.9368 31.092C73.8101 30.362 72.6645 29.6592 71.4998 28.9839L76.1398 26.509C77.8191 27.5037 79.4575 28.559 81.0548 29.675C84.9942 32.3357 88.4285 35.6765 91.1968 39.541C94.1826 43.9478 96.7161 48.6443 98.7588 53.5598C100.735 58.1398 102.319 62.906 103.985 67.637C103.429 71.23 103.162 74.908 102.795 78.55C99.4448 70.643 97.1828 62.246 93.6558 54.408L93.6548 54.4028ZM105.447 42.3379C102.55 36.9758 98.9794 32.0063 94.8218 27.55C92.5328 25.044 90.1108 22.6729 87.5978 20.3979L92.0658 18.0159C95.4352 21.0691 98.6041 24.3366 101.553 27.7979C105.448 32.373 108.731 37.4355 111.32 42.8579C112.18 44.6689 112.976 46.5069 113.744 48.3579C112.345 49.5224 111.072 50.8294 109.944 52.2578C108.57 48.9008 107.143 45.56 105.448 42.343L105.447 42.3379Z" fill="#3B3430"/>
</svg>
