<svg width="47" height="14" viewBox="0 0 47 14" fill="none" xmlns="http://www.w3.org/2000/svg">
<path d="M5.93112 3.21313H3.53065V4.17058H4.80953C4.63856 4.62879 4.22139 4.90918 3.58537 4.90918C2.65527 4.90918 2.0808 4.31419 2.0808 3.50036C2.0808 2.65917 2.68263 2.06419 3.48962 2.06419C4.0299 2.06419 4.46075 2.31039 4.65908 2.62498L5.58917 2.09154C5.18567 1.44868 4.41288 0.997314 3.49646 0.997314C2.08764 0.997314 0.986572 2.10522 0.986572 3.49352C0.986572 4.86815 2.06712 5.97605 3.57169 5.97605C4.91212 5.97605 5.93112 5.08699 5.93112 3.62346V3.21313Z" fill="white"/>
<path d="M7.30029 4.82711V3.97909H9.01003V2.93957H7.30029V2.14625H9.181V1.09306H6.20606V5.88031H9.21519V4.82711H7.30029Z" fill="white"/>
<path d="M12.7049 1.09306H9.14867V2.14625H10.3797V5.88031H11.4739V2.14625H12.7049V1.09306Z" fill="white"/>
<path d="M14.2097 1.09306V5.88031H15.304V1.09306H14.2097Z" fill="white"/>
<path d="M18.9989 1.09306H15.4426V2.14625H16.6736V5.88031H17.7679V2.14625H18.9989V1.09306Z" fill="white"/>
<path d="M22.7879 5.97605C24.1625 5.97605 25.2773 4.8955 25.2773 3.48668C25.2773 2.07787 24.1625 0.997314 22.7879 0.997314C21.4133 0.997314 20.2985 2.07787 20.2985 3.48668C20.2985 4.8955 21.4133 5.97605 22.7879 5.97605ZM22.7879 4.90918C22.0083 4.90918 21.3928 4.34155 21.3928 3.48668C21.3928 2.63182 22.0083 2.06419 22.7879 2.06419C23.5675 2.06419 24.183 2.63182 24.183 3.48668C24.183 4.34155 23.5675 4.90918 22.7879 4.90918Z" fill="white"/>
<path d="M28.2186 1.09306V3.69185L26.3721 1.09306H25.5514V5.88031H26.6456V3.28152L28.4922 5.88031H29.3128V1.09306H28.2186Z" fill="white"/>
<path d="M5.93112 11.3446V11.5293C5.93112 12.1265 5.71911 12.6303 5.2951 13.0407C4.87108 13.4464 4.31257 13.6493 3.61956 13.6493C2.89007 13.6493 2.28825 13.4122 1.81408 12.9381C1.33992 12.4594 1.10283 11.8735 1.10283 11.1805C1.10283 10.4875 1.33764 9.90388 1.80724 9.42971C2.27685 8.95099 2.87184 8.71163 3.5922 8.71163C4.0299 8.71163 4.43111 8.81649 4.79586 9.02622C5.16516 9.23594 5.45011 9.51634 5.65072 9.8674L5.32929 10.0589C5.16972 9.75798 4.93263 9.51634 4.61804 9.33397C4.30801 9.1516 3.96607 9.06041 3.5922 9.06041C2.97214 9.06041 2.4615 9.26558 2.06028 9.67591C1.66363 10.0817 1.4653 10.5832 1.4653 11.1805C1.4653 11.7777 1.66591 12.2815 2.06712 12.6919C2.46834 13.0977 2.98582 13.3005 3.61956 13.3005C4.18035 13.3005 4.634 13.1478 4.98051 12.8423C5.32701 12.5369 5.52078 12.1516 5.56182 11.6866H3.53065V11.3446H5.93112Z" fill="white"/>
<path d="M10.7856 12.9312C10.3069 13.41 9.72327 13.6493 9.03482 13.6493C8.34636 13.6493 7.76277 13.41 7.28405 12.9312C6.80533 12.448 6.56596 11.8644 6.56596 11.1805C6.56596 10.4966 6.80533 9.91528 7.28405 9.43655C7.76277 8.95327 8.34636 8.71163 9.03482 8.71163C9.72327 8.71163 10.3069 8.95327 10.7856 9.43655C11.2643 9.91528 11.5037 10.4966 11.5037 11.1805C11.5037 11.8644 11.2643 12.448 10.7856 12.9312ZM7.53709 12.685C7.94743 13.0954 8.44667 13.3005 9.03482 13.3005C9.62296 13.3005 10.1199 13.0954 10.5257 12.685C10.936 12.2701 11.1412 11.7686 11.1412 11.1805C11.1412 10.5923 10.936 10.0931 10.5257 9.68275C10.1199 9.26786 9.62296 9.06041 9.03482 9.06041C8.44667 9.06041 7.94743 9.26786 7.53709 9.68275C7.13131 10.0931 6.92843 10.5923 6.92843 11.1805C6.92843 11.7686 7.13131 12.2701 7.53709 12.685Z" fill="white"/>
<path d="M16.3689 12.9312C15.8902 13.41 15.3066 13.6493 14.6182 13.6493C13.9297 13.6493 13.3461 13.41 12.8674 12.9312C12.3887 12.448 12.1493 11.8644 12.1493 11.1805C12.1493 10.4966 12.3887 9.91528 12.8674 9.43655C13.3461 8.95327 13.9297 8.71163 14.6182 8.71163C15.3066 8.71163 15.8902 8.95327 16.3689 9.43655C16.8477 9.91528 17.087 10.4966 17.087 11.1805C17.087 11.8644 16.8477 12.448 16.3689 12.9312ZM13.1204 12.685C13.5308 13.0954 14.03 13.3005 14.6182 13.3005C15.2063 13.3005 15.7033 13.0954 16.109 12.685C16.5194 12.2701 16.7246 11.7686 16.7246 11.1805C16.7246 10.5923 16.5194 10.0931 16.109 9.68275C15.7033 9.26786 15.2063 9.06041 14.6182 9.06041C14.03 9.06041 13.5308 9.26786 13.1204 9.68275C12.7147 10.0931 12.5118 10.5923 12.5118 11.1805C12.5118 11.7686 12.7147 12.2701 13.1204 12.685Z" fill="white"/>
<path d="M22.5609 11.3446V11.5293C22.5609 12.1265 22.3489 12.6303 21.9249 13.0407C21.5009 13.4464 20.9424 13.6493 20.2494 13.6493C19.5199 13.6493 18.9181 13.4122 18.4439 12.9381C17.9697 12.4594 17.7327 11.8735 17.7327 11.1805C17.7327 10.4875 17.9675 9.90388 18.4371 9.42971C18.9067 8.95099 19.5017 8.71163 20.222 8.71163C20.6597 8.71163 21.0609 8.81649 21.4257 9.02622C21.795 9.23594 22.0799 9.51634 22.2805 9.8674L21.9591 10.0589C21.7995 9.75798 21.5625 9.51634 21.2479 9.33397C20.9378 9.1516 20.5959 9.06041 20.222 9.06041C19.602 9.06041 19.0913 9.26558 18.6901 9.67591C18.2934 10.0817 18.0951 10.5832 18.0951 11.1805C18.0951 11.7777 18.2957 12.2815 18.6969 12.6919C19.0982 13.0977 19.6156 13.3005 20.2494 13.3005C20.8102 13.3005 21.2638 13.1478 21.6103 12.8423C21.9568 12.5369 22.1506 12.1516 22.1916 11.6866H20.1605V11.3446H22.5609Z" fill="white"/>
<path d="M23.8318 13.2322H26.0886V13.5741H23.4693V8.78685H23.8318V13.2322Z" fill="white"/>
<path d="M27.2045 13.2322H29.5981V13.5741H26.8421V8.78685H29.5639V9.1288H27.2045V10.989H29.393V11.3309H27.2045V13.2322Z" fill="white"/>
<path d="M33.9395 8.78685C34.3681 8.78685 34.7237 8.92819 35.0064 9.21087C35.2891 9.49354 35.4304 9.84689 35.4304 10.2709C35.4304 10.6949 35.2891 11.0483 35.0064 11.3309C34.7237 11.6091 34.3681 11.7481 33.9395 11.7481H32.6743V13.5741H32.3119V8.78685H33.9395ZM33.9395 11.4062C34.2678 11.4062 34.5368 11.299 34.7465 11.0847C34.9608 10.8704 35.0679 10.5992 35.0679 10.2709C35.0679 9.93807 34.9608 9.66452 34.7465 9.45023C34.5368 9.23594 34.2678 9.1288 33.9395 9.1288H32.6743V11.4062H33.9395Z" fill="white"/>
<path d="M36.6882 13.2322H38.945V13.5741H36.3257V8.78685H36.6882V13.2322Z" fill="white"/>
<path d="M43.0531 13.5741L42.5881 12.3568H40.1876L39.7226 13.5741H39.3396L41.1998 8.78685H41.5828L43.4361 13.5741H43.0531ZM40.3244 12.0148H42.4582L41.3913 9.23138L40.3244 12.0148Z" fill="white"/>
<path d="M46.8423 8.78685L45.0984 11.6045V13.5741H44.7359V11.6045L42.992 8.78685H43.4024L44.9206 11.2557L46.432 8.78685H46.8423Z" fill="white"/>
</svg>
