<svg width="196" height="198" viewBox="0 0 196 198" fill="none" xmlns="http://www.w3.org/2000/svg">
<path d="M113.157 58.9914C117.181 68.8049 122.361 77.801 129.849 85.3887C136.439 92.0686 144.311 97.2562 152.509 101.737C162.494 107.194 172.927 111.78 183.018 117.034C184.002 117.546 185.337 116.948 186.153 116.351C186.59 116.031 187.958 114.677 186.971 114.163C169.771 105.208 150.759 98.2337 136.286 84.9184C128.816 77.8848 122.91 69.3548 118.954 59.8846C117.472 56.4751 116.143 52.9973 114.73 49.5577C113.346 50.7821 112.094 52.1483 110.995 53.6338C111.715 55.4202 112.428 57.2103 113.157 58.9914Z" fill="#554140"/>
<path d="M106.14 42.7987C107.835 46.0167 109.261 49.3578 110.63 52.7238C111.758 51.2913 113.032 49.9806 114.432 48.8132C113.669 46.9604 112.87 45.1232 112.01 43.3119C109.421 37.8922 106.14 32.832 102.248 28.2586C99.3023 24.796 96.1368 21.5271 92.7708 18.4722L88.3082 20.8591C90.8187 23.1338 93.2402 25.5048 95.5276 28.0088C99.6809 32.4658 103.247 37.4361 106.14 42.7987V42.7987Z" fill="#554140"/>
<path d="M86.4996 41.0074C89.6306 45.322 92.272 49.9718 94.3751 54.8709C97.9022 62.7106 100.162 71.1104 103.511 79.0238C103.876 75.379 104.141 71.7001 104.696 68.1056C103.031 63.3742 101.447 58.6066 99.4733 54.0254C97.4318 49.1094 94.8998 44.4119 91.9158 40.0043C89.1507 36.14 85.7194 32.7997 81.783 30.14C80.1884 29.022 78.5513 27.9672 76.8718 26.9755L72.238 29.4538C73.4008 30.1285 74.5456 30.8304 75.6726 31.5597C79.808 34.0483 83.473 37.2464 86.4996 41.0074V41.0074Z" fill="#554140"/>
<path d="M104.104 80.4031C105.109 82.6948 106.246 84.9261 107.509 87.0858C110.551 92.3577 114.749 96.8698 119.787 100.282C125.061 103.602 130.667 106.363 136.514 108.519C143.137 111.146 149.626 113.978 156.071 117.014C162.578 120.087 169.077 123.17 175.78 125.797C177.246 126.373 181.169 123.481 179.005 122.635C167.014 117.937 155.721 111.655 143.745 106.922C137.849 104.774 132.122 102.188 126.611 99.1863C121.23 96.1556 116.639 91.8977 113.211 86.7585C109.696 81.4285 107.351 75.5459 105.215 69.5683C104.739 73.0498 104.506 76.5734 104.145 80.063L104.104 80.4031Z" fill="#554140"/>
<path d="M98.9574 99.125C99.5407 99.8606 100.13 100.591 100.733 101.311C108.129 110.361 117.673 117.414 128.492 121.824C141.076 126.849 154.549 129.036 167.328 133.448C168.818 133.962 172.73 131.038 170.552 130.287C159.175 126.363 147.277 124.196 135.911 120.234C124.781 116.428 114.815 109.822 106.97 101.051C104.94 98.7709 103.024 96.3932 101.191 93.9506C100.896 94.776 100.575 95.5954 100.228 96.4088C99.8338 97.3311 99.4101 98.2365 98.9574 99.125Z" fill="#554140"/>
<path d="M69.3249 55.5055C73.3922 60.362 77.0685 65.5335 80.319 70.9714C86.1093 80.2434 91.656 89.768 98.3997 98.3985C99.2485 96.704 99.9951 94.96 100.635 93.1761C95.4642 86.18 90.9461 78.6656 86.4067 71.2872C83.1884 65.8492 79.6453 60.6102 75.7968 55.5988C72.5145 51.3386 68.4533 47.7411 63.8294 44.9975C60.3066 43.0393 56.6686 41.2965 52.9353 39.7787L48.2129 42.3045C51.0909 43.5387 53.9651 44.766 56.7155 46.1603C61.4831 48.4298 65.7654 51.6036 69.3249 55.5055V55.5055Z" fill="#554140"/>
<path d="M65.6701 85.7403C73.4887 94.2648 80.7812 103.361 89.2201 111.293C90.3389 110.127 91.404 108.919 92.4155 107.67C85.1441 100.666 78.6963 92.8492 71.9148 85.3688C63.7563 76.3673 55.2516 67.568 45.5336 60.2363C41.0767 56.8656 36.3426 53.8786 31.3821 51.3074L26.712 53.8053C30.9347 55.9324 34.9918 58.3741 38.849 61.1097C48.7882 68.145 57.4599 76.7903 65.6701 85.7403Z" fill="#554140"/>
<path d="M90.9418 112.899C99.7748 120.927 109.765 127.579 120.577 132.63C133.046 138.373 146.448 141.813 160.139 142.786C160.754 142.764 161.355 142.602 161.898 142.312C162.44 142.022 162.909 141.612 163.268 141.112C163.87 140.2 163.438 139.621 162.432 139.547C138.27 137.772 115.489 127.801 97.1812 112.045C95.7443 110.808 94.3479 109.53 92.9784 108.226C91.9615 109.467 90.8925 110.665 89.7715 111.82C90.1596 112.181 90.5476 112.543 90.9418 112.899Z" fill="#554140"/>
<path d="M14.8019 73.4974C21.4442 76.445 27.8515 79.5909 33.6918 83.9572C38.8894 88.0274 43.8526 92.3889 48.5575 97.0207C57.5249 105.461 66.5402 113.955 75.9236 121.948C77.3079 121.068 78.6685 120.152 80.0055 119.198C71.6561 112.09 63.6867 104.509 55.6476 97.0766C50.7349 92.5338 45.9837 87.7992 40.8012 83.5572C35.4191 79.1836 29.5018 75.5146 23.1924 72.639C19.1952 70.7881 15.1612 69.0201 11.0902 67.3349C9.2896 66.5813 7.48228 65.811 5.66351 65.0637L0.866776 67.6294C1.90149 68.05 2.93367 68.4764 3.96527 68.8974C7.59945 70.3786 11.2117 71.9119 14.8019 73.4974Z" fill="#554140"/>
<path d="M76.5162 122.482C77.1349 123.007 77.7542 123.53 78.3743 124.052C88.636 132.639 99.7272 140.378 112.262 145.256C119.062 147.902 126.064 148.584 133.301 148.888C140.286 149.181 147.356 149.328 154.024 151.663C155.512 152.183 159.426 149.263 157.248 148.502C145.234 144.3 132.162 147.101 120.005 143.656C113.662 141.691 107.599 138.916 101.966 135.398C96.2203 131.926 90.7264 128.053 85.5251 123.807C83.8609 122.468 82.2143 121.106 80.5853 119.722C80.2586 119.959 79.9278 120.195 79.5927 120.43C78.5836 121.136 77.552 121.819 76.5162 122.482Z" fill="#554140"/>
<path d="M153.825 151.496C147.155 149.16 140.088 149.006 133.104 148.71C125.866 148.401 118.865 147.716 112.067 145.065C99.5334 140.181 88.444 132.438 78.1854 123.847C77.5623 123.326 76.9418 122.803 76.324 122.278C77.3639 121.611 78.3905 120.927 79.4037 120.225C79.7352 119.993 80.0668 119.756 80.3963 119.518C82.0267 120.9 83.673 122.262 85.3353 123.605C90.5358 127.853 96.0287 131.73 101.773 135.205C107.406 138.726 113.468 141.504 119.81 143.472C131.966 146.923 145.038 144.132 157.05 148.339C159.048 149.039 155.908 151.56 154.23 151.56C154.093 151.562 153.956 151.54 153.825 151.496V151.496ZM159.944 142.623C146.255 141.642 132.854 138.195 120.387 132.447C109.578 127.391 99.5895 120.736 90.7577 112.704C90.3643 112.348 89.9758 111.985 89.5864 111.624C90.7055 110.469 91.7749 109.272 92.7948 108.032C94.1639 109.332 95.559 110.615 96.9969 111.854C115.299 127.616 138.079 137.597 162.239 139.388C163.246 139.462 163.676 140.042 163.074 140.953C162.726 141.43 162.28 141.827 161.765 142.117C161.251 142.406 160.68 142.581 160.092 142.63C160.042 142.627 159.993 142.626 159.944 142.626V142.623ZM167.142 133.289C154.36 128.874 140.891 126.678 128.309 121.648C117.492 117.233 107.951 110.178 100.556 101.124C99.9568 100.402 99.3653 99.6727 98.7814 98.9361C99.2335 98.0487 99.6582 97.1436 100.056 96.221C100.404 95.408 100.724 94.589 101.019 93.763C102.852 96.207 104.767 98.5841 106.796 100.863C114.64 109.637 124.603 116.246 135.73 120.056C147.094 124.024 158.993 126.198 170.367 130.127C172.37 130.818 169.221 133.345 167.543 133.346C167.408 133.349 167.274 133.33 167.146 133.289H167.142ZM175.597 125.645C168.897 123.015 162.398 119.928 155.893 116.853C149.451 113.808 142.96 110.98 136.34 108.353C130.495 106.193 124.89 103.43 119.617 100.108C114.581 96.6949 110.385 92.1815 107.344 86.908C106.934 86.2133 106.54 85.5132 106.162 84.8079C105.363 83.3079 104.627 81.779 103.939 80.23C103.952 80.116 103.965 80.0019 103.977 79.8899C104.339 76.4009 104.576 72.8799 105.05 69.3999C107.185 75.3769 109.527 81.2579 113.038 86.5889C116.466 91.7297 121.055 95.9891 126.435 99.021C131.945 102.026 137.672 104.615 143.568 106.765C155.544 111.504 166.836 117.791 178.819 122.495C180.792 123.268 177.711 125.728 176.039 125.728C175.888 125.728 175.739 125.7 175.598 125.646L175.597 125.645ZM48.3764 96.8321C43.6727 92.1992 38.7111 87.8365 33.5153 83.7649C27.6775 79.3969 21.2695 76.2469 14.6288 73.2959C11.0439 71.7026 7.43297 70.1694 3.79609 68.6961C2.76554 68.2751 1.73399 67.847 0.700439 67.426L5.49369 64.864C7.31114 65.613 9.11859 66.384 10.9201 67.137C14.9857 68.8336 19.019 70.6034 23.02 72.4461C29.3234 75.3241 35.2353 78.9939 40.6133 83.367C45.794 87.611 50.5433 92.3469 55.4544 96.8909C63.4941 104.329 71.4599 111.913 79.8061 119.023C78.4747 119.978 77.1156 120.894 75.7289 121.773C66.3531 113.773 57.3417 105.276 48.3774 96.833L48.3764 96.8321ZM182.84 116.883C172.754 111.625 162.323 107.034 152.34 101.573C144.145 97.089 136.276 91.8961 129.688 85.2171C124.808 80.2026 120.681 74.5048 117.436 68.302C115.801 65.218 114.322 62.053 113.006 58.8191C112.276 57.0381 111.566 55.247 110.845 53.461C111.945 51.9766 113.198 50.6115 114.581 49.388C115.992 52.828 117.323 56.3009 118.801 59.7119C122.756 69.1829 128.658 77.7134 136.125 84.7471C150.592 98.0681 169.599 105.047 186.795 114.014C187.78 114.528 186.413 115.88 185.976 116.2C185.316 116.712 184.519 117.017 183.686 117.076C183.393 117.081 183.103 117.016 182.841 116.884L182.84 116.883ZM65.4963 85.5591C57.2918 76.6071 48.62 67.9591 38.685 60.9231C34.8289 58.1859 30.7728 55.7426 26.5511 53.614L31.2215 51.1189C36.1807 53.6917 40.9136 56.6801 45.3696 60.052C55.0899 67.388 63.585 76.1879 71.7405 85.1909C78.5179 92.6729 84.9649 100.491 92.2327 107.491C91.2227 108.74 90.1576 109.947 89.0371 111.111C80.602 103.183 73.3143 94.0861 65.4973 85.5601L65.4963 85.5591ZM80.1566 70.803C76.9087 65.3646 73.2357 60.1924 69.1721 55.335C65.6134 51.4309 61.3327 48.2546 56.5668 45.9819C53.8167 44.5819 50.9437 43.359 48.0668 42.124L52.7891 39.6021C56.5216 41.1219 60.1585 42.8669 63.6798 44.8279C68.3012 47.5713 72.3604 51.1684 75.642 55.428C79.4886 60.4393 83.0298 65.6784 86.2461 71.117C90.7827 78.494 95.2993 86.0079 100.467 93.0049C99.8266 94.7876 99.0796 96.5301 98.2302 98.2229C91.4867 89.5989 85.9435 80.076 80.1576 70.804L80.1566 70.803ZM94.2208 54.7029C92.1201 49.8039 89.4808 45.1548 86.3519 40.8411C83.3266 37.0793 79.663 33.8807 75.5291 31.3921C74.4041 30.6621 73.26 29.9593 72.097 29.2839L76.7305 26.8091C78.4074 27.8038 80.0435 28.8591 81.6385 29.9751C85.5724 32.6358 89.0019 35.9765 91.7663 39.8411C94.7479 44.2478 97.2779 48.9444 99.3177 53.8599C101.291 58.4399 102.873 63.206 104.536 67.937C103.981 71.53 103.714 75.2081 103.348 78.8501C100.003 70.9431 97.7439 62.546 94.2218 54.708L94.2208 54.7029ZM105.996 42.6379C103.104 37.2758 99.538 32.3063 95.3862 27.8501C93.1004 25.3441 90.6818 22.973 88.1724 20.698L92.6341 18.3159C95.9988 21.3692 99.1632 24.6366 102.108 28.0979C105.997 32.673 109.276 37.7356 111.861 43.158C112.72 44.969 113.515 46.807 114.282 48.658C112.885 49.8225 111.613 51.1294 110.487 52.5579C109.115 49.2009 107.69 45.8601 105.997 42.6431L105.996 42.6379Z" fill="#3B3430"/>
</svg>
