<svg width="47" height="16" viewBox="0 0 47 16" fill="none" xmlns="http://www.w3.org/2000/svg">
<path d="M2.87084 4.68426H3.76915L2.54744 1.09101H1.50027L0.278564 4.68426H1.17688L1.35654 4.1196H2.69117L2.87084 4.68426ZM1.60293 3.34962L2.02386 2.03039L2.44478 3.34962H1.60293Z" fill="white"/>
<path d="M5.58711 2.11765L5.05325 3.74488L4.5194 2.11765H3.66729L4.61693 4.68426H5.48958L6.43922 2.11765H5.58711Z" fill="white"/>
<path d="M8.48485 2.11765V2.35891C8.31545 2.16385 8.06392 2.04579 7.72 2.04579C7.04755 2.04579 6.49316 2.63611 6.49316 3.40095C6.49316 4.1658 7.04755 4.75612 7.72 4.75612C8.06392 4.75612 8.31545 4.63806 8.48485 4.443V4.68426H9.25483V2.11765H8.48485ZM7.874 4.02721C7.5198 4.02721 7.26314 3.78595 7.26314 3.40095C7.26314 3.01596 7.5198 2.7747 7.874 2.7747C8.22819 2.7747 8.48485 3.01596 8.48485 3.40095C8.48485 3.78595 8.22819 4.02721 7.874 4.02721Z" fill="white"/>
<path d="M9.81972 4.68426H10.5897V0.937012H9.81972V4.68426Z" fill="white"/>
<path d="M11.5381 1.89179C11.7897 1.89179 12.0001 1.68133 12.0001 1.4298C12.0001 1.17827 11.7897 0.967811 11.5381 0.967811C11.2866 0.967811 11.0762 1.17827 11.0762 1.4298C11.0762 1.68133 11.2866 1.89179 11.5381 1.89179ZM11.1532 4.68426H11.9231V2.11765H11.1532V4.68426Z" fill="white"/>
<path d="M14.0214 2.04579C13.6775 2.04579 13.426 2.16385 13.2566 2.35891V1.09101H12.4866V4.68426H13.2566V4.443C13.426 4.63806 13.6775 4.75612 14.0214 4.75612C14.6939 4.75612 15.2483 4.1658 15.2483 3.40095C15.2483 2.63611 14.6939 2.04579 14.0214 2.04579ZM13.8674 4.02721C13.5132 4.02721 13.2566 3.78595 13.2566 3.40095C13.2566 3.01596 13.5132 2.7747 13.8674 2.7747C14.2216 2.7747 14.4783 3.01596 14.4783 3.40095C14.4783 3.78595 14.2216 4.02721 13.8674 4.02721Z" fill="white"/>
<path d="M15.6848 4.68426H16.4548V0.937012H15.6848V4.68426Z" fill="white"/>
<path d="M17.7061 3.70895H19.5284C19.5489 3.61142 19.5592 3.50875 19.5592 3.40095C19.5592 2.62584 19.0048 2.04579 18.2554 2.04579C17.4443 2.04579 16.8899 2.63611 16.8899 3.40095C16.8899 4.1658 17.434 4.75612 18.3118 4.75612C18.7995 4.75612 19.1793 4.57646 19.4309 4.2274L18.8149 3.87321C18.7122 3.98614 18.5326 4.06827 18.3221 4.06827C18.0398 4.06827 17.8036 3.97587 17.7061 3.70895ZM17.6907 3.13403C17.7626 2.87223 17.9576 2.7285 18.2502 2.7285C18.4812 2.7285 18.7122 2.8363 18.7943 3.13403H17.6907Z" fill="white"/>
<path d="M22.5112 4.75612C23.2658 4.75612 23.8715 4.1658 23.8715 3.40095C23.8715 2.63611 23.2658 2.04579 22.5112 2.04579C21.7566 2.04579 21.1509 2.63611 21.1509 3.40095C21.1509 4.1658 21.7566 4.75612 22.5112 4.75612ZM22.5112 4.00667C22.1775 4.00667 21.9209 3.76541 21.9209 3.40095C21.9209 3.0365 22.1775 2.79523 22.5112 2.79523C22.8449 2.79523 23.1015 3.0365 23.1015 3.40095C23.1015 3.76541 22.8449 4.00667 22.5112 4.00667Z" fill="white"/>
<path d="M25.811 2.04579C25.4723 2.04579 25.2156 2.16898 25.077 2.35891V2.11765H24.307V4.68426H25.077V3.28289C25.077 2.91843 25.2721 2.75417 25.5544 2.75417C25.8008 2.75417 26.001 2.90303 26.001 3.22129V4.68426H26.771V3.10836C26.771 2.41538 26.3295 2.04579 25.811 2.04579Z" fill="white"/>
<path d="M30.0871 2.85683V2.11765H29.5583V1.399L28.7883 1.63V2.11765H28.3777V2.85683H28.7883V3.76541C28.7883 4.48406 29.0809 4.78692 30.0871 4.68426V3.98614C29.7483 4.00667 29.5583 3.98614 29.5583 3.76541V2.85683H30.0871Z" fill="white"/>
<path d="M32.027 2.04579C31.6883 2.04579 31.4316 2.16898 31.293 2.35891V1.09101H30.523V4.68426H31.293V3.28289C31.293 2.91843 31.4881 2.75417 31.7704 2.75417C32.0168 2.75417 32.217 2.90303 32.217 3.22129V4.68426H32.987V3.10836C32.987 2.41538 32.5455 2.04579 32.027 2.04579Z" fill="white"/>
<path d="M34.2036 3.70895H36.0259C36.0464 3.61142 36.0567 3.50875 36.0567 3.40095C36.0567 2.62584 35.5023 2.04579 34.7528 2.04579C33.9418 2.04579 33.3874 2.63611 33.3874 3.40095C33.3874 4.1658 33.9315 4.75612 34.8093 4.75612C35.2969 4.75612 35.6768 4.57646 35.9283 4.2274L35.3123 3.87321C35.2097 3.98614 35.03 4.06827 34.8196 4.06827C34.5372 4.06827 34.3011 3.97587 34.2036 3.70895ZM34.1882 3.13403C34.26 2.87223 34.4551 2.7285 34.7477 2.7285C34.9787 2.7285 35.2097 2.8363 35.2918 3.13403H34.1882Z" fill="white"/>
<path d="M4.59902 14.0951H6.09621L4.06003 8.1064H2.31474L0.278564 14.0951H1.77575L2.07519 13.1541H4.29958L4.59902 14.0951ZM2.48585 11.8708L3.18739 9.67203L3.88892 11.8708H2.48585Z" fill="white"/>
<path d="M9.12213 9.6977C8.54892 9.6977 8.12971 9.89447 7.84738 10.2196V9.81747H6.56408V15.8062H7.84738V13.693C8.12971 14.0182 8.54892 14.2149 9.12213 14.2149C10.2429 14.2149 11.1669 13.2311 11.1669 11.9563C11.1669 10.6816 10.2429 9.6977 9.12213 9.6977ZM8.86547 13.0001C8.27515 13.0001 7.84738 12.598 7.84738 11.9563C7.84738 11.3147 8.27515 10.9126 8.86547 10.9126C9.45579 10.9126 9.88355 11.3147 9.88355 11.9563C9.88355 12.598 9.45579 13.0001 8.86547 13.0001Z" fill="white"/>
<path d="M14.4525 9.6977C13.8793 9.6977 13.4601 9.89447 13.1778 10.2196V9.81747H11.8945V15.8062H13.1778V13.693C13.4601 14.0182 13.8793 14.2149 14.4525 14.2149C15.5733 14.2149 16.4972 13.2311 16.4972 11.9563C16.4972 10.6816 15.5733 9.6977 14.4525 9.6977ZM14.1959 13.0001C13.6055 13.0001 13.1778 12.598 13.1778 11.9563C13.1778 11.3147 13.6055 10.9126 14.1959 10.9126C14.7862 10.9126 15.2139 11.3147 15.2139 11.9563C15.2139 12.598 14.7862 13.0001 14.1959 13.0001Z" fill="white"/>
<path d="M17.2249 14.0951H18.5082V7.84974H17.2249V14.0951Z" fill="white"/>
<path d="M20.5937 12.4696H23.6308C23.665 12.3071 23.6821 12.136 23.6821 11.9563C23.6821 10.6645 22.7582 9.6977 21.5091 9.6977C20.1573 9.6977 19.2334 10.6816 19.2334 11.9563C19.2334 13.2311 20.1402 14.2149 21.6032 14.2149C22.4159 14.2149 23.049 13.9155 23.4683 13.3337L22.4416 12.7434C22.2705 12.9316 21.9711 13.0685 21.6203 13.0685C21.1498 13.0685 20.7562 12.9145 20.5937 12.4696ZM20.568 11.5114C20.6878 11.0751 21.0129 10.8356 21.5005 10.8356C21.8855 10.8356 22.2705 11.0152 22.4074 11.5114H20.568Z" fill="white"/>
<path d="M28.6877 14.2149C29.9881 14.2149 30.9121 13.5305 30.9121 12.3755C30.9121 11.1093 29.894 10.7928 28.9871 10.519C28.0546 10.2367 27.9092 10.0485 27.9092 9.77469C27.9092 9.53514 28.123 9.32126 28.5508 9.32126C29.0983 9.32126 29.3807 9.58648 29.586 10.0142L30.741 9.33837C30.3047 8.45717 29.5347 7.98662 28.5508 7.98662C27.5156 7.98662 26.5403 8.65394 26.5403 9.80892C26.5403 10.9553 27.4129 11.3831 28.3027 11.6312C29.201 11.8793 29.5432 12.0248 29.5432 12.3926C29.5432 12.6236 29.3807 12.8803 28.7305 12.8803C28.0546 12.8803 27.6867 12.5466 27.4728 12.0504L26.2922 12.7348C26.6258 13.616 27.4301 14.2149 28.6877 14.2149Z" fill="white"/>
<path d="M33.9348 11.0494V9.81747H33.0536V8.61972L31.7703 9.00471V9.81747H31.0859V11.0494H31.7703V12.5637C31.7703 13.7615 32.2579 14.2663 33.9348 14.0951V12.9316C33.3701 12.9658 33.0536 12.9316 33.0536 12.5637V11.0494H33.9348Z" fill="white"/>
<path d="M36.6311 14.2149C37.8888 14.2149 38.8983 13.2311 38.8983 11.9563C38.8983 10.6816 37.8888 9.6977 36.6311 9.6977C35.3735 9.6977 34.364 10.6816 34.364 11.9563C34.364 13.2311 35.3735 14.2149 36.6311 14.2149ZM36.6311 12.9658C36.075 12.9658 35.6473 12.5637 35.6473 11.9563C35.6473 11.3489 36.075 10.9468 36.6311 10.9468C37.1872 10.9468 37.615 11.3489 37.615 11.9563C37.615 12.5637 37.1872 12.9658 36.6311 12.9658Z" fill="white"/>
<path d="M40.9075 10.5789V9.81747H39.6242V14.0951H40.9075V12.1616C40.9075 11.3147 41.6603 11.1008 42.1908 11.1863V9.73192C41.6518 9.73192 41.0786 10.0057 40.9075 10.5789Z" fill="white"/>
<path d="M43.8118 12.4696H46.8489C46.8831 12.3071 46.9002 12.136 46.9002 11.9563C46.9002 10.6645 45.9763 9.6977 44.7272 9.6977C43.3754 9.6977 42.4515 10.6816 42.4515 11.9563C42.4515 13.2311 43.3583 14.2149 44.8213 14.2149C45.634 14.2149 46.2671 13.9155 46.6864 13.3337L45.6597 12.7434C45.4886 12.9316 45.1892 13.0685 44.8384 13.0685C44.3679 13.0685 43.9743 12.9145 43.8118 12.4696ZM43.7861 11.5114C43.9059 11.0751 44.231 10.8356 44.7186 10.8356C45.1036 10.8356 45.4886 11.0152 45.6255 11.5114H43.7861Z" fill="white"/>
</svg>
