<svg width="191" height="259" viewBox="0 0 191 259" fill="none" xmlns="http://www.w3.org/2000/svg">
<path d="M181.674 200.624C181.533 200.504 181.397 200.503 181.368 200.615C181.339 200.727 181.181 200.916 181.117 200.664C181.053 200.412 181.175 199.666 181.057 199.752C180.939 199.838 180.55 200.046 180.63 199.901C180.679 199.789 180.692 199.664 180.667 199.545C180.643 199.425 180.582 199.317 180.494 199.236C180.093 198.905 179.743 198.514 179.453 198.077L179.15 197.843C179.02 197.71 178.907 197.559 178.816 197.394C178.684 197.211 178.434 197.002 178.44 196.852C178.454 196.498 178.124 196.72 178.017 196.489L177.927 196.292C177.585 196.09 177.291 195.813 177.065 195.48L176.849 195.283C176.554 195.011 176.082 194.865 175.898 194.564L175.643 194.147C175.078 193.868 174.542 193.532 174.043 193.142L173.636 192.705C173.276 192.229 172.79 191.873 172.235 191.679C171.971 191.576 171.752 191.379 171.616 191.123C171.582 191.032 171.527 190.951 171.456 190.886C171.385 190.822 171.3 190.775 171.208 190.75C170.936 190.64 170.422 190.653 170.434 190.103C170.391 190.043 170.327 190.002 170.255 189.988C169.949 190.099 170.025 189.709 169.85 189.657C169.637 189.626 169.429 189.564 169.234 189.471L169.08 189.367C168.809 189.015 168.483 188.713 168.116 188.47C167.55 188.106 166.954 187.793 166.334 187.534L166.28 187.322C166.237 187.193 166.159 187.081 166.054 187C165.949 186.918 165.823 186.871 165.691 186.863C165.377 186.762 165.079 186.618 164.802 186.437C164.489 186.318 164.2 186.143 163.948 185.919C163.719 185.639 163.326 185.717 163.179 185.375C163.164 185.34 163.172 185.274 163.158 185.268C162.815 185.121 162.386 185.236 162.146 184.776L161.198 184.101L160.82 183.988C160.221 183.767 159.645 183.489 159.098 183.158L158.627 182.838C158.43 182.709 158.274 182.471 158.088 182.748C158.068 182.776 157.829 182.699 157.813 182.651L157.594 181.991C157.124 181.988 156.657 181.933 156.2 181.827C155.814 181.702 155.416 181.615 155.013 181.565C154.798 181.57 154.147 180.846 153.76 180.61C152.957 180.41 152.14 180.275 151.315 180.205L150.878 179.778L150.64 179.545C150.165 179.426 149.783 179.816 149.79 180.412L149.662 180.855C149.542 181.356 149.382 181.847 149.184 182.322C148.817 183.383 148.227 184.351 147.458 185.155L146.922 185.604C146.383 186.148 145.705 186.787 145.414 187.026L145.235 187.367C145.003 187.679 144.697 187.924 144.347 188.079L144.027 188.274C143.633 188.431 143.175 188.607 143.007 188.664C142.713 188.775 142.429 188.913 142.159 189.076C142.021 189.177 141.428 189.05 141.332 189.081L141.25 189.122L140.68 189.409C139.794 189.513 138.904 189.56 138.015 189.548L137.589 189.747C137.272 189.899 136.944 189.575 136.648 189.813C136.489 189.938 136.038 189.72 135.722 189.669C135.576 189.645 135.427 189.643 135.28 189.663C135.118 189.689 134.975 189.8 134.817 189.787C134.713 189.779 134.825 189.418 134.527 189.48C134.349 189.516 134.125 189.108 133.975 189.435L132.616 189.28L132.058 189.181C131.458 188.974 130.493 188.674 129.909 188.511L129.388 188.435C129.095 188.385 128.817 188.271 128.572 188.102C128.149 187.896 127.712 187.72 127.264 187.576C126.894 187.42 126.469 187.332 126.29 186.86C126.266 186.798 126.173 186.752 126.113 186.697L125.735 186.36C125.176 186.02 124.673 185.593 124.244 185.093L123.896 184.733L123.542 184.374C123.225 183.995 122.89 183.633 122.537 183.289C122.283 182.824 122.058 182.344 121.862 181.85C121.482 180.9 121.204 179.909 121.032 178.894L121.275 178.509L121.476 178.194C121.434 177.758 121.453 177.319 121.531 176.887L121.605 176.569C121.688 176.22 121.793 175.879 121.89 175.539C121.917 175.445 122.014 175.355 121.992 175.272C121.903 175.072 121.825 174.868 121.758 174.659C121.732 174.471 122.13 174.543 122.023 174.205C121.971 174.042 122.126 173.838 122.207 173.671C122.381 173.241 122.604 172.833 122.872 172.457L123.206 172.07C123.659 171.72 124.642 171.065 125.392 170.617L126.07 170.211L126.568 169.913C127.264 169.871 127.958 169.785 128.645 169.656L129.102 169.789L129.496 169.903C129.999 169.789 130.514 169.752 131.026 169.793C131.645 169.843 132.267 169.859 132.889 169.843C133.164 169.825 133.902 169.919 133.924 169.739C133.947 169.558 134.665 170.01 135.037 170.103C135.408 170.195 137.488 169.981 139.015 170.175L140.403 170.446C142.12 170.781 143.835 171.212 145.549 171.613L145.857 171.686C146.192 171.826 146.237 171.409 145.955 170.756C145.274 169.482 144.518 168.252 143.692 167.073L143.159 166.388L142.85 165.99C142.454 165.704 142.096 165.366 141.784 164.985C141.643 164.766 140.911 164.253 140.767 164.078L140.679 163.896C140.567 163.666 140.222 163.936 140.188 163.583C140.171 163.527 140.132 163.479 140.081 163.452C139.948 163.397 138.907 162.719 138.79 162.626C138.698 162.553 138.555 162.542 138.477 162.463C138.067 162.047 137.265 162.116 137.153 161.32L137.146 161.275C136.996 161.216 136.456 160.942 135.952 160.66C135.448 160.377 134.033 159.769 133.899 160.1L133.776 159.474L133.703 159.098C133.404 158.981 132.835 158.724 132.437 158.534C132.038 158.344 130.625 157.731 130.228 157.474L129.871 157.415C129.483 157.352 129.444 156.908 129.414 156.927L128.684 157.374C127.993 156.823 127.383 156.332 127.328 156.283C127.217 156.156 127.115 156.022 127.022 155.881C126.948 155.772 126.283 155.897 126.042 155.658C125.407 155.28 124.73 154.982 124.026 154.768L123.562 154.558C123.198 154.465 122.859 154.293 122.568 154.052C122.45 153.924 122.153 153.976 121.952 153.891L121.841 153.844C121.742 153.699 121.437 153.692 121.167 153.819L121.069 153.311C121.06 153.263 120.612 153.263 120.395 153.159L120.219 153.074C119.986 152.864 119.724 152.691 119.441 152.56L119.205 152.645C119.146 152.666 119.084 152.673 119.023 152.666C118.961 152.659 118.902 152.638 118.85 152.606C118.545 152.301 118.051 151.884 117.764 151.944L117.164 152.066C116.712 151.85 116.249 151.657 115.778 151.49L115.666 151.404C115.429 151.218 115.22 150.923 114.939 151.217C114.92 151.237 114.74 151.131 114.66 151.056C114.345 150.754 114.062 150.609 113.704 150.859C113.507 150.994 113.539 150.632 113.504 150.63L113.128 150.607C112.717 150.486 111.885 150.22 111.272 150.02L110.778 149.733L110.334 149.477C109.839 149.351 109.037 149.116 108.552 148.957L108.1 148.882C107.906 148.85 107.847 148.284 107.542 148.678C107.488 148.748 107.092 148.534 106.853 148.45L106.575 148.354C106.178 148.152 105.763 147.986 105.337 147.86C104.93 147.746 103.422 147.225 102.822 147.088C101.986 146.743 101.17 146.349 100.378 145.908C99.9673 145.806 99.563 145.679 99.1665 145.53C98.9579 145.412 98.1519 145.22 97.9571 145.114C97.699 144.884 97.4688 144.622 97.271 144.335C97.1968 144.244 97.0604 144.187 97.2527 144.531L96.9456 144.739C96.7518 144.869 96.6358 144.834 96.5082 144.643C96.4258 144.522 96.3611 144.256 96.3352 144.258L95.3402 144.313C94.9503 143.845 94.5325 143.403 94.0892 142.989C94.1469 143.09 94.0766 143.258 93.8234 143.165C93.3035 142.952 92.7989 142.702 92.3135 142.417L92.0317 142.392L91.716 142.364C91.2202 142.04 90.6748 141.802 90.1018 141.662L89.6149 141.227L89.2732 140.923C89.104 140.924 88.9372 140.886 88.7857 140.81C88.6342 140.735 88.502 140.624 88.3995 140.486C88.3017 140.267 87.8152 139.988 87.6833 140.275L87.2333 139.966C87.0377 139.831 86.8134 139.795 86.7499 139.518L86.7404 139.478C86.642 139.438 85.9813 139.249 85.2696 139.055L84.8872 138.654C84.6828 138.442 84.5717 138.102 84.348 137.956C84.1243 137.811 83.7953 137.826 83.5143 137.755C83.2331 137.695 82.957 137.612 82.6888 137.508L82.5009 137.428C82.3236 137.198 82.1912 136.935 82.1109 136.653L81.8659 136.909C81.8346 136.942 81.5536 136.754 81.4052 136.642L80.9443 136.296C80.5644 136.032 80.2214 135.716 79.9246 135.357C79.9203 135.229 79.8988 135.102 79.8607 134.98C79.8256 134.983 79.7917 134.996 79.7628 135.017C79.7338 135.038 79.7108 135.067 79.696 135.1C79.6583 135.184 79.4857 135.434 79.4218 135.402C79.276 135.168 79.1685 134.912 79.1034 134.642L78.7377 134.959C78.6134 134.918 78.5048 134.839 78.4266 134.732C78.4121 134.416 78.1938 134.543 78.067 134.464C77.9735 134.407 77.9842 134.181 77.89 134.076L77.7992 133.97C77.6467 133.907 77.3345 133.801 77.1028 133.733C76.5735 133.543 76.0753 133.272 75.6242 132.931L75.2243 132.855C75.0351 132.831 74.8574 132.751 74.7129 132.624C74.5685 132.498 74.4634 132.33 74.411 132.142C74.3975 132.116 74.3792 132.094 74.3569 132.076C74.3346 132.058 74.3089 132.045 74.2815 132.038L73.5579 132.133C73.1717 131.52 72.9417 131.077 73.045 131.144C73.1484 131.211 73.4517 131.309 73.3059 131.098L73.3063 130.986C73.3041 130.643 73.0511 130.816 72.9426 130.728C72.7518 130.573 72.6231 130.696 72.4964 130.675L72.1439 130.619C71.6226 130.356 71.411 130.13 71.6733 130.117L71.7523 130.059L71.82 130.016C71.8158 129.932 71.7908 129.852 71.7475 129.782C71.7043 129.712 71.6442 129.654 71.573 129.615L71.4961 129.646L70.9162 129.873C70.4577 129.521 69.9259 129.123 69.7274 128.994L69.6685 128.888L69.4581 128.506C69.1303 128.328 68.7919 128.17 68.445 128.034C68.2566 127.971 67.9389 127.424 67.8147 127.355C67.6419 127.207 67.4605 127.069 67.2715 126.943C67.1776 126.932 66.84 126.803 66.7922 126.677C66.6769 126.427 66.5136 126.204 66.312 126.021C65.8471 125.798 65.3674 125.608 64.8763 125.452L64.6557 125.179L64.1817 124.597C63.5202 124.295 62.9197 123.869 62.4098 123.342L62.0998 123.009L61.9238 122.821C61.6127 122.659 61.331 122.444 61.0907 122.185C60.6451 121.828 60.1575 121.531 59.6394 121.299L59.5553 120.983L59.4667 120.648C59.2671 120.512 59.0509 120.403 58.8233 120.324L58.8144 120.298C58.5454 119.54 57.7084 119.293 57.3059 118.667L57.1674 118.451C57.0759 118.173 56.9099 117.942 56.7983 117.937C56.4429 117.793 56.1445 117.532 55.9486 117.195C55.7574 116.801 54.5462 115.255 53.9186 114.371L53.404 113.55C53.1864 113.219 53.0318 112.842 52.8008 112.493L52.5477 112.101C52.4534 111.577 52.3425 110.945 52.3018 110.699C52.2426 110.359 52.2039 110.016 52.186 109.671C52.2059 109.597 52.4367 109.376 52.4848 109.279C52.533 109.183 52.191 108.686 52.0954 108.557L52.1196 108.528L52.3519 108.247C52.263 108.071 52.1384 107.916 51.9865 107.794C51.8345 107.672 51.6587 107.585 51.4707 107.539C51.1211 107.471 50.5531 106.454 50.4235 106.321C50.102 106.097 49.8232 105.814 49.6007 105.487L49.1861 105.465L49.126 105.461C49.0547 105.402 48.8203 105.244 48.6032 105.108C48.3123 104.85 48.0483 104.562 47.815 104.248C47.7351 104.142 47.584 103.811 47.5172 103.74C47.4504 103.669 46.7083 103.053 46.0579 102.511L45.5133 101.968C45.3857 101.783 45.2178 101.631 45.0228 101.524C44.7352 101.396 44.5019 101.167 44.3641 100.877L44.2635 100.568C44.0422 100.394 43.6958 100.106 43.4984 99.9264L43.3219 99.7588C43.1529 99.5958 42.8517 99.3894 42.8574 99.2578L42.8724 98.8969C42.6257 98.8917 42.3799 98.868 42.1369 98.826C41.9609 98.791 41.7048 98.0296 41.5223 97.7613L41.3021 97.5551L41.0998 97.3672C40.8646 97.2261 40.6414 97.065 40.4326 96.8853C40.314 96.7705 39.8545 96.2446 39.6302 95.9889L39.4277 95.7552L39.1773 95.466C38.9136 95.1395 38.5904 94.7434 38.4592 94.5875C38.1578 94.3132 37.8354 94.0645 37.4948 93.8438C37.2811 93.7066 36.7293 93.0803 36.3991 92.8235C36.069 92.5666 35.1684 91.1492 34.5701 90.6171L34.2085 90.0097C34.0038 89.667 33.5755 89.8742 33.4472 89.4523L33.3684 89.1899C33.1984 88.9499 32.9755 88.7551 32.7178 88.6211L32.5956 88.5448C32.3486 88.3894 31.9735 88.2593 32.2621 87.8934C32.2767 87.8828 32.0689 87.6094 31.9987 87.6091L31.5869 87.6154C31.36 87.3066 31.1573 86.9797 30.9802 86.6377C30.8835 86.4264 30.2353 86.1577 30.1739 86.0079C30.1125 85.8581 29.8127 85.3657 29.6916 85.3533C29.5704 85.341 29.2906 85.2208 29.4371 85.1207C29.5836 85.0206 28.9256 84.6908 28.7536 84.5233L28.5935 84.3649L28.109 83.8875C27.6132 83.4536 27.2434 82.8871 27.0394 82.2489L26.6011 82.2822C26.1014 82.32 26.2563 81.8571 26.0404 81.6847C25.9071 81.608 25.7911 81.5034 25.6999 81.3773C25.6087 81.2513 25.5443 81.1067 25.5108 80.9527L25.5016 80.8957C25.3599 80.8209 25.2018 80.7843 25.0418 80.7893C24.8812 80.7946 24.4599 80.1044 24.2423 79.8504L24.0286 79.625C23.817 79.4024 23.4861 79.2602 23.4968 78.8946C23.4634 78.8229 23.4046 78.7674 23.3323 78.7395L22.7302 78.9325C22.5147 78.5205 22.3321 78.0909 22.1845 77.6477C21.8194 77.2521 21.4246 76.8868 21.0037 76.5552L20.9497 76.2939C20.8595 75.862 20.5309 76.0692 20.4089 75.8674C20.2738 75.6462 20.0973 75.2482 19.986 75.2455C19.5783 75.2319 19.6239 74.8387 19.4066 74.6963C19.2006 74.5297 19.0407 74.3103 18.9428 74.0595L18.8319 73.853C18.3969 73.5216 17.9871 73.1566 17.6062 72.7609C17.2321 72.3717 16.1658 71.2093 16.0693 71.0482C15.9729 70.887 15.6495 70.5839 15.5856 70.4337C15.3855 70.2312 15.1597 70.0574 14.9144 69.9168C14.6416 69.5857 14.4429 69.1964 14.3322 68.7759L13.8079 68.882L13.7853 68.8862C13.5273 68.4392 13.236 68.0139 12.9137 67.6142C12.5593 67.1671 11.4307 65.889 11.3116 65.6818C11.1364 65.4644 10.9377 65.2683 10.7192 65.0973C10.6114 64.9903 10.181 64.5025 9.97664 64.2311L9.90703 63.9676C9.80612 63.594 9.80676 63.2748 9.26063 63.209L9.0585 63.1853C8.78548 62.8469 8.5762 62.4585 8.44131 62.0398L8.4659 61.7781L8.51388 61.2612C8.12868 60.9685 7.68538 60.6354 7.5274 60.5157C7.36941 60.3961 6.90394 60.0065 6.9607 59.9081C6.98962 59.7734 6.98572 59.6337 6.94903 59.5019C6.91234 59.3702 6.8441 59.2504 6.75067 59.1533C6.51584 58.9433 6.53113 58.1081 6.62867 58.3143C6.73718 58.5608 6.88709 58.7853 7.07135 58.9777C7.14128 58.9759 7.4323 58.8375 7.3984 58.6766L7.30341 58.5771C6.97749 58.2411 7.20288 58.0913 7.34962 57.8725C7.47433 57.6922 7.85372 57.8091 7.80093 57.3903L7.77089 57.1595C8.0083 56.8641 8.26702 56.5873 8.54454 56.3316C8.77342 56.129 9.51012 56.7133 9.64789 56.8097C9.78566 56.906 10.3061 57.3685 10.5555 57.5645C10.8049 57.7606 11.4761 58.6398 11.7163 58.8079C11.9565 58.9761 12.5336 59.8613 12.7493 60.0305C13.0041 60.3056 13.2852 60.5535 13.5885 60.7704C13.8022 60.8383 14.1933 61.7125 14.5828 62.1195C14.9724 62.5265 16.3255 63.9315 16.7104 64.3509C17.2374 64.975 17.7296 65.6296 18.185 66.3114L18.3252 66.4115L19.3358 67.1394C20.2111 68.1784 21.1587 69.3156 21.4458 69.6765L21.7289 69.9867C22.0241 70.2332 22.2701 70.5362 22.4534 70.8795L22.5555 71.1293L23.5261 71.7969C23.733 71.9401 24.2521 72.7033 24.4687 72.8495C24.6853 72.9957 25.1967 73.8393 25.4462 74.108C25.9189 74.5502 26.4191 74.96 26.944 75.3349L26.957 75.4797C26.9856 75.8066 27.2794 75.7701 27.3942 75.9436C27.5173 76.1356 27.6572 76.3153 27.8122 76.4808C28.0086 76.6842 28.2518 76.8457 28.4374 77.0558C28.5819 77.22 28.6568 77.5667 28.785 77.6007C29.3013 77.7498 29.4149 78.292 29.8091 78.548C30.0413 78.7095 30.2548 78.8978 30.4452 79.1095L30.6138 79.2851C30.782 79.5131 30.9349 79.7527 31.0718 80.0022L31.2656 80.1259C31.3919 80.1807 31.5034 80.2657 31.5911 80.3739C31.6788 80.4822 31.7402 80.6106 31.7701 80.7487L31.7806 80.8316C32.1938 81.025 32.5845 81.2651 32.9454 81.5477C33.3105 81.9742 33.6209 82.4474 33.8693 82.956C33.9012 82.9853 34.3515 83.4285 34.8003 83.8694C35.249 84.3103 36.5798 85.7149 36.7933 85.9741C37.0068 86.2333 37.6916 87.0824 37.8451 87.2824L38.0018 87.4499C38.2599 87.728 38.6503 87.8191 38.8628 88.2008C39.0427 88.5247 39.5207 88.6402 39.6296 89.0707L39.7363 89.4949C40.1234 89.819 40.4908 90.1672 40.8364 90.5377C41.0722 90.804 42.1693 91.7842 42.5979 92.2309C43.0265 92.6776 44.2655 93.9568 44.4161 94.0527C44.6358 94.2493 44.8274 94.4769 44.9853 94.7289C45.0686 94.8739 45.8205 95.2437 46.2259 95.5564C46.7349 96.1304 47.2066 96.7385 47.638 97.3768L47.8165 97.5363L49.3903 98.9393C51.1243 100.478 52.7492 101.995 53.0018 102.308L53.4166 102.274C53.5099 102.266 53.6975 102.447 53.7703 102.575C53.8748 102.756 53.7995 103.07 54.1372 103.057L54.5147 103.042C54.8957 102.99 55.2456 102.792 55.4958 102.489L55.8028 102.457C55.8618 102.452 55.8621 102.268 55.9126 102.183L56.0379 101.973C56.1265 102.124 56.2683 102.234 56.4342 102.28L56.467 102.234L56.5414 102.126C56.6948 101.903 56.9129 101.735 57.1636 101.646C57.4553 101.523 58.47 101.517 58.7204 101.784L58.9453 101.542C59.0434 101.445 59.1612 101.373 59.2898 101.329C59.4184 101.286 59.5543 101.274 59.6876 101.292L59.7788 101.293C59.9325 101.116 60.0682 100.924 60.1836 100.719L60.5425 100.84L60.6404 100.873C60.7555 100.842 61.0865 100.787 61.377 100.747C61.821 100.817 62.2493 100.965 62.6435 101.183L62.7437 101.205L62.8512 101.23C63.0423 101.201 63.2309 101.155 63.4144 101.092C63.6092 101.026 64.1124 101.03 64.1773 101.358L64.5351 101.02L64.6832 100.878C64.7781 100.858 64.8761 100.858 64.9701 100.881C65.0642 100.903 65.1521 100.946 65.2277 101.008C65.5731 101.248 65.9466 101.442 66.3397 101.587C66.7885 101.764 68.1971 102.283 68.4771 102.421C69.0563 102.761 69.6179 103.132 70.16 103.531C70.5652 103.834 72.1306 104.729 72.6181 105.072L72.9444 105.526L73.1459 105.806C73.4511 106.023 73.9736 106.444 74.3065 106.74L74.609 107.009C74.9114 107.279 75.2158 107.548 75.5175 107.817C75.5826 107.861 75.6375 107.918 75.6783 107.986C75.7577 108.264 75.6436 108.592 76.1598 108.694C76.327 108.728 76.4254 109.171 76.6654 109.41C77.0891 109.83 77.162 110.496 77.7004 110.877C77.7209 110.891 77.6831 111.001 77.672 111.065C77.6621 111.229 77.6291 111.39 77.5738 111.544L77.4105 111.848C77.6588 111.973 77.7523 112.11 77.6184 112.153L77.5995 112.287C77.5706 112.485 77.5746 112.694 77.5645 112.898L77.3628 113.582L77.2231 113.698C77.1514 113.886 77.0094 114.312 76.9063 114.647L76.8036 114.953C76.736 115.235 76.6465 115.511 76.5358 115.779C76.2955 116.241 76.0247 116.687 75.7254 117.111L75.5566 117.346C75.3456 117.524 75.1067 117.662 74.8503 117.756C74.5813 117.745 74.3144 117.706 74.0534 117.641C73.7539 117.601 73.4484 117.645 73.1694 117.769L72.9682 117.817C72.7352 117.875 72.4488 117.513 72.2013 117.793L72.0779 117.933C71.9725 117.741 71.827 117.575 71.6516 117.448C71.3705 117.35 71.0829 117.272 70.791 117.215L70.5909 117.131L70.3892 117.047C70.1575 116.903 69.9036 116.861 69.8245 116.955C69.7454 117.05 69.3796 117.257 69.2469 117.14C69.1142 117.022 68.7104 116.729 68.717 116.816C68.7236 116.903 68.677 117.079 68.6103 117.084L68.5555 117.057C68.4841 117.019 68.4221 116.965 68.3737 116.899C67.9618 116.33 67.4664 116.53 67.0074 116.522C66.6686 116.516 66.625 116.524 66.683 116.162L66.7513 115.748C66.5485 115.849 66.3527 115.858 66.317 115.771C66.2812 115.683 66.0337 115.505 66.0189 115.586L66.0242 115.662L66.0562 116.079C65.7735 115.993 65.0466 115.773 64.4412 115.586L63.8925 115.407C63.7134 115.37 63.546 115.289 63.404 115.172C63.1262 114.908 62.7907 114.718 62.4254 114.615L62.1793 114.51C62.0621 114.359 61.9107 114.239 61.7381 114.161L61.6651 114.166C61.5728 114.172 61.4422 114.243 61.4 114.203C60.9453 113.875 60.4553 113.602 59.9393 113.39L59.492 113.138C59.005 112.795 58.3079 112.332 57.9432 112.108L57.62 111.984C57.3461 111.877 57.1743 111.884 57.0847 111.53L57.0246 111.292C56.8955 111.27 56.773 111.219 56.6656 111.143C56.5582 111.066 56.4685 110.967 56.4028 110.851C56.3726 110.69 55.9317 110.747 55.8196 110.782C55.7075 110.816 55.3952 110.388 55.204 110.198L54.9618 110.316L54.906 110.343C54.7876 110.33 54.8543 110.492 55.0463 110.71C55.3047 111.072 55.6308 111.377 56.0058 111.607L56.0885 111.924C56.1574 112.211 56.2646 112.486 56.407 112.742L56.5387 112.965C56.768 113.19 57.0388 113.365 57.3354 113.48C57.5584 113.549 58.3226 114.716 59.1024 115.409C59.8822 116.101 62.0594 118.04 62.1557 118.258C62.2519 118.475 62.9686 118.584 63.1284 118.642C63.2882 118.7 63.7954 119.439 64.1178 119.718L64.4641 119.905L64.8475 120.117C65.2868 120.443 65.7452 120.741 66.2204 121.009L66.3879 121.366L66.4662 121.533C66.4497 121.748 66.6048 121.767 66.8111 121.573L67.0659 121.958L67.312 122.319C67.801 122.628 68.2638 122.978 68.6957 123.366L69.1917 123.43L69.3622 123.452C69.7005 123.91 70.0964 124.319 70.5398 124.669C70.9824 125.017 72.2936 125.626 72.2705 125.7C72.267 125.764 72.2866 125.827 72.3255 125.877C72.3644 125.927 72.4199 125.96 72.4814 125.97C72.6364 125.993 73.1031 126.181 73.4252 126.231L73.4492 126.336C73.5535 126.811 73.934 126.903 74.2543 127.099L74.2936 127.123C74.458 127.349 74.678 127.524 74.9311 127.632C75.2767 127.819 76.4315 128.551 76.7645 128.74C77.2919 129.042 77.759 129.443 78.1418 129.923L78.5218 129.783C78.6762 129.725 78.9952 129.922 79.2107 130.063C79.4429 130.215 79.6342 130.44 79.8543 130.617C79.9378 130.69 80.0433 130.731 80.1533 130.735C80.3263 130.713 80.501 130.741 80.6587 130.815C80.8165 130.888 80.9513 131.005 81.0488 131.152L81.321 131.484C81.9944 131.766 82.6457 132.099 83.2688 132.483C83.9547 132.897 86.4307 134.217 87.1824 134.635L87.8571 135.038C88.2939 135.387 88.8133 135.611 89.3636 135.687C89.4692 135.703 89.5677 135.75 89.6473 135.822C89.6241 136.211 89.9664 136.171 90.1478 136.248C90.68 136.418 91.1823 136.673 91.6367 137.003L91.9867 137.292C92.4979 137.382 92.9927 137.548 93.4552 137.787C93.9851 138.046 94.5343 138.261 95.0978 138.432C95.4083 138.52 96.3384 139.002 96.5835 139.11C96.8285 139.217 98.4517 139.872 99.6691 140.377L100.777 140.834C100.903 140.907 101.04 140.956 101.182 140.98L101.584 140.965C101.937 141.124 102.302 141.256 102.675 141.358C102.867 141.395 103.495 141.778 103.686 141.828L103.86 141.831C104.011 141.813 104.163 141.83 104.306 141.881C104.448 141.932 104.578 142.015 104.684 142.125C104.83 142.234 104.999 142.306 105.178 142.335C105.428 142.367 105.673 142.43 105.908 142.523L106.774 143.043C107.64 143.192 108.494 143.4 109.332 143.666C109.946 143.864 110.57 144.03 111.202 144.161C111.544 144.29 111.879 144.436 112.206 144.6C112.655 144.766 113.115 144.901 113.583 145.004L113.938 145.066C114.048 145.086 114.149 145.143 114.224 145.227L114.439 145.512C114.755 145.587 115.751 145.902 116.652 146.215L117.418 146.698C117.447 146.715 117.489 146.705 117.524 146.717L118.069 146.905C118.604 147.13 119.152 147.318 119.712 147.468C120.018 147.532 121.168 148.238 121.68 148.483C122.193 148.728 123.934 149.205 124.338 149.381C124.743 149.558 126.339 150.341 126.996 150.7L127.594 150.838L128.101 150.956C128.481 151.231 128.89 151.461 129.321 151.64C129.562 151.711 130.666 152.311 131.244 152.615L131.77 152.827C132.24 153.017 132.471 153.536 133.037 153.591C133.4 153.627 133.794 154.061 134.181 154.296C134.952 154.759 135.73 155.205 136.506 155.656L136.569 155.692C136.645 155.718 137.266 156.159 137.952 156.674L138.581 157.128C138.985 157.419 139.407 157.68 139.816 157.961C140.224 158.243 140.499 158.763 141.055 158.797C141.109 158.799 141.172 158.928 141.236 158.946C141.645 159.066 141.455 159.752 142.087 159.766L142.349 159.771C142.728 160.202 143.044 160.687 143.289 161.211L143.714 161.335L144.098 161.447C144.348 161.873 144.668 162.251 145.044 162.563L145.181 162.975C145.251 163.186 145.572 163.361 145.794 163.544L146.007 163.717C145.994 163.843 146.01 163.971 146.054 164.089C146.097 164.208 146.168 164.313 146.259 164.398L146.428 164.525C146.563 164.623 146.811 164.604 146.813 164.841C146.812 165.27 147.139 165.491 147.385 165.803C147.725 166.285 148.033 166.791 148.306 167.317L148.382 167.444C148.455 167.575 148.446 167.715 148.361 167.755C148.254 167.799 148.155 167.862 148.07 167.942C148.146 168.005 148.24 168.043 148.338 168.05C148.481 168.09 148.614 168.162 148.728 168.261C148.841 168.359 148.933 168.481 148.996 168.62L149.015 168.865L149.026 168.995C148.973 169.132 148.987 169.26 149.067 169.276C149.146 169.292 149.227 169.511 149.188 169.669C149.149 169.828 149.118 170.318 149.191 170.272C149.264 170.227 149.489 170.185 149.493 170.299C149.553 170.57 149.649 170.83 149.777 171.073L149.896 171.262C150.194 171.738 150.194 171.892 149.935 172.565L149.89 172.683C149.9 172.873 150.069 172.96 150.267 172.878L150.34 173.147L150.368 173.246C150.675 173.49 151.009 173.697 151.362 173.863L151.8 174.036L152.676 174.381C153.635 174.784 154.734 175.258 155.117 175.434C155.501 175.61 156.867 176.259 157.299 176.495C157.732 176.731 159.169 177.512 159.572 177.672C159.975 177.831 161.057 178.619 161.264 178.674L161.383 178.791L161.81 179.211C162.354 179.528 163.225 180.052 163.74 180.375C164.255 180.699 165.817 181.774 166.134 181.906L166.32 182.111L166.531 182.346C166.811 182.533 167.174 182.752 167.337 182.832C167.5 182.913 168.765 183.782 169.862 184.484L170.654 185.403L170.881 185.666C171.242 185.931 171.622 186.167 172.018 186.373L172.284 186.586C172.597 186.839 172.892 187.121 173.196 187.39L173.469 187.632C173.886 188.016 174.272 188.436 174.623 188.886L175.122 189.15L175.512 189.356C175.853 189.845 176.239 190.411 176.37 190.617C176.707 190.938 177.024 191.281 177.32 191.642L177.744 191.578L177.789 191.571C177.985 191.731 178.169 191.905 178.339 192.093C178.608 192.568 178.85 193.059 179.064 193.564L179.187 193.768L179.373 194.08C179.562 193.92 179.777 193.88 179.851 193.994C179.926 194.108 180.187 194.707 180.342 195.068L180.279 195.314L180.145 195.844C180.594 195.873 181.017 196.062 181.342 196.38L181.243 196.806C181.242 196.862 181.254 196.916 181.277 196.966C181.3 197.015 181.333 197.059 181.374 197.093C181.935 197.376 181.714 197.893 181.928 198.278C181.973 198.357 181.92 198.575 181.867 198.583C181.69 198.609 181.598 198.631 181.781 198.818C181.877 198.892 181.965 198.974 182.046 199.065C182.124 199.19 182.126 199.36 182.212 199.471C182.41 199.709 182.301 199.862 182.123 199.852L181.701 199.825C181.838 200.081 181.954 200.349 182.045 200.627C182.101 200.818 182.494 201.365 182.424 201.642L182.36 201.894C182.28 202.208 181.964 202.207 181.717 202.28L181.678 202.291C181.532 201.91 181.511 201.489 181.62 201.092L181.686 200.657L181.674 200.624ZM143.551 177.475C143.62 177.7 143.566 177.811 143.431 177.722C143.07 177.515 142.692 177.342 142.3 177.204L142.082 177.386C141.77 177.645 141.42 177.324 141.095 177.337C140.774 177.317 140.455 177.262 140.146 177.173C139.83 177.135 139.518 177.072 139.212 176.987C138.695 176.761 138.11 176.755 137.583 176.97C137.383 177.067 137.259 177.18 137.045 176.926C136.875 176.724 136.745 176.76 136.597 176.911C136.557 176.951 136.322 176.762 136.223 176.787C136.124 176.812 136.058 177.079 136.032 177.066L135.514 176.824C135.014 176.941 134.445 177.059 134.249 177.087C134.052 177.115 132.901 176.931 132.133 176.827L131.44 176.948L130.917 177.038C130.292 176.911 129.748 176.928 129.704 177.078L129.644 177.077L129.52 177.076C129.201 177.004 128.869 177.019 128.555 177.119C128.174 177.22 126.991 177.611 126.748 177.711C126.292 177.934 125.86 178.206 125.461 178.524C125.226 178.751 125.608 179.834 125.661 179.967C125.783 180.201 125.975 180.388 126.208 180.501C126.417 180.554 127.171 181.028 127.63 181.253C128.088 181.478 129.624 182.184 130.043 182.3C131.033 182.51 132.034 182.669 133.041 182.776L133.757 183.17C133.798 183.193 133.871 183.106 133.934 183.109C134.23 183.125 134.651 183.287 134.8 183.149C135.145 182.842 135.399 183.396 135.684 183.302C135.73 183.286 135.843 183.391 135.877 183.372C136.376 183.081 137.015 183.348 137.553 183.248C138.108 183.146 138.624 182.947 139.199 182.882C139.688 182.826 140.168 182.707 140.63 182.529C141.05 182.367 141.518 182.329 141.938 182.145L142.317 181.981C142.695 181.926 143.065 181.822 143.419 181.67L143.409 181.595C143.344 181.144 143.482 181.084 143.89 181.337C143.948 181.373 144.162 181.18 144.243 181.052L144.309 180.951C144.465 180.711 144.641 180.486 144.837 180.279L145.236 180.212L145.533 180.166C145.77 179.897 146.048 179.669 146.356 179.493C146.53 179.427 146.484 178.788 146.584 178.657C146.684 178.525 145.731 178.207 145.118 178.138L144.566 177.907C144.332 177.809 144.105 177.684 143.867 177.598L143.551 177.475ZM58.3537 105.246C57.9857 105.067 57.7892 105.077 57.9112 105.26C58.0333 105.442 58.3232 105.999 58.4631 106.032C58.6029 106.066 59.0233 106.339 59.1803 106.366C59.3373 106.392 59.6965 106.951 59.9643 107.126C60.232 107.301 61.1558 107.751 61.4097 107.973C61.6635 108.195 62.574 108.31 62.6874 108.495L62.8395 108.601C62.9454 108.675 63.1333 108.586 63.2698 108.638C63.3462 108.669 63.3844 108.911 63.4538 108.931L63.7679 109.02C64.0927 109.068 64.4031 109.187 64.6785 109.369C65.2441 109.629 65.8299 109.84 66.4301 110.001L66.8928 110.238L67.3392 110.466C67.6562 110.391 67.9682 110.481 68.031 110.667L68.1293 110.718L68.3535 110.835C68.6227 110.896 69.1904 110.992 69.6149 111.048C70.0395 111.104 71.3754 111.516 71.6473 111.565L71.8869 111.648L72.1205 111.731C72.2818 111.701 72.4451 111.685 72.6088 111.684L72.6322 111.667C72.6882 111.635 72.7761 111.597 72.7721 111.551L72.7711 111.461C72.6723 111.292 72.5572 111.133 72.4275 110.988C72.1345 110.664 71.803 110.38 71.4407 110.142L71.2129 110.023L70.9332 109.876C70.5659 109.607 70.2272 109.3 69.9225 108.958L69.5728 108.766L69.3078 108.616C69.307 108.335 69.2259 108.062 69.0748 107.831L68.9795 107.824L68.4969 107.794C68.185 107.56 67.7195 107.196 67.4609 106.984L67.2075 106.833C66.9205 106.662 66.5177 106.58 66.7937 106.144C66.8028 106.128 66.585 105.876 66.5117 105.882L66.1871 105.909C65.8557 105.985 65.5654 105.961 65.535 105.86C65.5047 105.759 65.5188 105.536 65.6179 105.576C65.7171 105.615 65.7793 105.594 65.387 105.409C64.9946 105.223 63.9931 105.091 64.0757 104.944C64.1583 104.796 64.1337 104.454 63.8716 104.452C63.4748 104.466 63.0778 104.457 62.6826 104.424C62.5284 104.378 62.1069 104.18 62.072 104.281C62.037 104.383 61.3272 104.336 60.9434 104.306L60.6357 104.448C60.4633 104.528 60.2266 104.669 60.0873 104.597C59.9946 104.528 59.88 104.497 59.7656 104.51C59.6511 104.523 59.5448 104.58 59.4673 104.668C59.2595 104.834 58.8448 104.77 58.6585 104.948L58.3537 105.246Z" fill="#6FB2A5"/>
<path d="M8.44139 61.9145L8.46529 61.6543L8.51179 61.137L7.52538 60.3901C7.36893 60.2725 6.90189 59.88 6.95841 59.7818C6.98705 59.6472 6.98273 59.5078 6.94586 59.376C6.90899 59.2442 6.84082 59.1242 6.74735 59.0271C6.62158 58.855 6.55493 58.6443 6.55786 58.4278C6.54842 58.2311 6.57615 58.0889 6.62263 58.1893C6.7314 58.436 6.88131 58.6607 7.06567 58.8533C7.1355 58.8516 7.42605 58.7138 7.3914 58.5522L7.29688 58.4532C6.97009 58.1174 7.19564 57.9676 7.34179 57.7492C7.4655 57.5684 7.84509 57.6867 7.79091 57.2686L7.76103 57.0387C7.99756 56.7438 8.25507 56.4675 8.53146 56.2121C8.76017 56.0107 9.49709 56.5948 9.63462 56.6926C9.77215 56.7904 10.2929 57.2523 10.5416 57.4493C10.7903 57.6463 11.4642 58.5258 11.7043 58.6942C11.9445 58.8627 12.5216 59.7479 12.7372 59.9186C12.9923 60.1939 13.2735 60.442 13.5767 60.6596C13.7761 60.8255 13.9375 61.0348 14.0496 61.2727C14.2014 61.5349 14.3767 61.7817 14.5732 62.01C14.9612 62.4198 16.3164 63.8243 16.7015 64.2442C17.2287 64.869 17.7214 65.5241 18.1774 66.2063L18.3178 66.3065L19.3276 67.0364C20.2034 68.0764 21.1522 69.2155 21.439 69.576L21.7218 69.8857C22.0174 70.1326 22.2637 70.4363 22.4472 70.7802L22.5491 71.0294C22.8761 71.2532 23.3121 71.5553 23.5204 71.6977C23.7287 71.8402 24.2468 72.605 24.4628 72.7508C24.6788 72.8966 25.1916 73.7414 25.4417 74.0111C25.9142 74.4538 26.4144 74.8641 26.9391 75.2394L26.952 75.3833C26.9582 75.457 26.9851 75.527 27.0296 75.5847C27.074 75.6423 27.134 75.6851 27.2021 75.7078C27.2759 75.7377 27.3409 75.7867 27.3907 75.8502C27.5138 76.042 27.6537 76.2216 27.8085 76.387C28.0057 76.5902 28.2488 76.7532 28.4346 76.9635C28.4974 77.0448 28.5494 77.1344 28.5895 77.2299C28.6521 77.3622 28.7073 77.4865 28.7803 77.5104C29.2961 77.6604 29.4107 78.2023 29.8048 78.4589C30.0372 78.6205 30.2506 78.8093 30.4408 79.0215L30.609 79.1965C30.7777 79.4244 30.9313 79.6638 31.0685 79.9134L31.2625 80.0383C31.389 80.093 31.5008 80.178 31.5886 80.2864C31.6764 80.3947 31.7376 80.5234 31.7675 80.6616L31.7781 80.7446C32.1913 80.9382 32.5819 81.1789 32.9425 81.4624C33.2319 81.7656 33.4741 82.1132 33.661 82.4929C33.7756 82.7014 33.8557 82.859 33.8678 82.8703C33.9002 82.9004 34.3501 83.3434 34.7996 83.7857C35.249 84.228 36.5804 85.6342 36.7935 85.8929C37.0066 86.1515 37.6934 87.0016 37.8463 87.2023L38.0024 87.3694C38.2606 87.6478 38.6501 87.7387 38.8636 88.1214C38.9547 88.2588 39.0716 88.3759 39.2074 88.4661C39.4041 88.5847 39.5536 88.7711 39.63 88.9927L39.7367 89.4174C40.124 89.7418 40.4916 90.0904 40.8372 90.4616C41.0744 90.7284 42.1702 91.7099 42.5988 92.1585C43.0274 92.607 44.2671 93.8865 44.4177 93.9826C44.6372 94.1793 44.8286 94.407 44.9868 94.6587C45.0695 94.8043 45.8215 95.1761 46.2271 95.4881C46.7364 96.0627 47.2085 96.6713 47.6405 97.3101L47.8185 97.469L49.3938 98.8742C51.1277 100.415 52.7533 101.934 53.0053 102.249L53.4195 102.215C53.5139 102.208 53.6996 102.389 53.7733 102.517C53.8772 102.698 53.8038 103.013 54.1405 102.999L54.5174 102.985C54.8977 102.933 55.2466 102.736 55.4957 102.433L55.8022 102.402C55.8623 102.398 55.8618 102.212 55.9126 102.128L56.0376 101.919C56.1264 102.07 56.268 102.18 56.4336 102.226L56.4677 102.18L56.5411 102.073C56.6939 101.851 56.9109 101.683 57.1607 101.596C57.4517 101.473 58.4663 101.469 58.7156 101.736L58.9405 101.494C59.0383 101.398 59.1558 101.325 59.2841 101.282C59.4124 101.239 59.5482 101.227 59.6813 101.246L59.7726 101.245C59.9259 101.07 60.0612 100.878 60.1763 100.674L60.5342 100.796L60.6325 100.829C60.7481 100.799 61.078 100.743 61.3679 100.705C61.8118 100.776 62.2401 100.924 62.6346 101.144L62.7349 101.166L62.8423 101.19C63.0331 101.162 63.2211 101.117 63.4043 101.054C63.5987 100.988 64.1005 100.994 64.1666 101.321L64.524 100.984L64.6714 100.843C64.7661 100.823 64.8638 100.824 64.9576 100.847C65.0515 100.869 65.1392 100.913 65.2147 100.974C65.5598 101.215 65.9332 101.41 66.3261 101.555C66.7746 101.733 68.1827 102.255 68.4625 102.394C69.0413 102.735 69.6028 103.106 70.1451 103.506C70.5502 103.809 72.1142 104.707 72.6029 105.051L72.9302 105.505L73.1325 105.787C73.4369 106.004 73.9589 106.425 74.2919 106.722L74.5944 106.991C74.898 107.261 75.2008 107.531 75.503 107.801C75.5683 107.844 75.6232 107.902 75.664 107.97C75.7437 108.247 75.6311 108.574 76.146 108.678C76.2379 108.696 76.3098 108.838 76.3954 109.004C76.4613 109.147 76.5476 109.278 76.6516 109.394C76.8261 109.586 76.9694 109.806 77.0764 110.045C77.2111 110.366 77.4212 110.647 77.6878 110.862C77.707 110.876 77.6709 110.986 77.6599 111.05C77.6496 111.213 77.6165 111.375 77.5618 111.529L77.3992 111.832C77.6481 111.957 77.7418 112.095 77.6074 112.138L77.5888 112.271C77.5603 112.47 77.5646 112.678 77.5549 112.882L77.3549 113.564L77.2161 113.68C77.1456 113.867 77.0037 114.294 76.9014 114.628L76.8001 114.935C76.733 115.216 76.6438 115.492 76.5334 115.759C76.2944 116.221 76.0246 116.666 75.7262 117.09L75.5581 117.324C75.3478 117.502 75.1091 117.64 74.853 117.732C74.5843 117.721 74.3176 117.682 74.0569 117.616C73.7576 117.575 73.4524 117.619 73.1738 117.743L72.9729 117.79C72.7403 117.847 72.4544 117.485 72.2078 117.764L72.0853 117.905C71.98 117.712 71.8344 117.546 71.6587 117.419C71.3781 117.32 71.091 117.242 70.7996 117.184L70.5986 117.1L70.3968 117.015C70.1653 116.871 69.9116 116.828 69.8323 116.922C69.753 117.015 69.389 117.224 69.2563 117.105C69.1235 116.987 68.7199 116.694 68.7273 116.78C68.7347 116.867 68.6878 117.043 68.6217 117.049L68.5671 117.021C68.4961 116.983 68.4342 116.929 68.3858 116.863C67.9735 116.294 67.4792 116.493 67.0208 116.483C66.6825 116.477 66.6382 116.486 66.6962 116.124L66.7639 115.709C66.5623 115.809 66.3658 115.819 66.3307 115.731C66.2956 115.642 66.0473 115.465 66.0322 115.546L66.0377 115.621L66.0704 116.038C65.7872 115.952 65.0618 115.73 64.4569 115.542L63.909 115.363C63.7301 115.325 63.5629 115.244 63.4209 115.127C63.1429 114.863 62.8073 114.672 62.442 114.569L62.1967 114.464C62.0792 114.312 61.9279 114.192 61.7556 114.114L61.6826 114.119C61.5896 114.125 61.461 114.194 61.418 114.155C60.9632 113.827 60.4733 113.553 59.9578 113.34L59.5108 113.087C59.0231 112.744 58.3268 112.279 57.9615 112.055L57.6385 111.93C57.3655 111.823 57.1938 111.83 57.1032 111.476L57.0433 111.239C56.9144 111.216 56.792 111.165 56.6848 111.089C56.5775 111.012 56.4879 110.912 56.4223 110.796C56.3906 110.636 55.9516 110.691 55.8397 110.726C55.7278 110.761 55.4153 110.332 55.224 110.142L54.9832 110.258L54.9267 110.286C54.8079 110.272 54.8755 110.435 55.0676 110.653C55.3264 111.015 55.6525 111.32 56.0273 111.55L56.1106 111.867C56.1802 112.153 56.2877 112.429 56.4302 112.685L56.5626 112.908C56.7918 113.133 57.0623 113.308 57.3586 113.423C57.5819 113.493 58.3466 114.66 59.1258 115.354C59.905 116.049 62.0828 117.99 62.1798 118.207C62.2768 118.425 62.9917 118.534 63.1519 118.593C63.312 118.652 63.8199 119.392 64.1426 119.67L64.4891 119.859L64.8723 120.071C65.31 120.398 65.767 120.697 66.2408 120.967L66.4087 121.324L66.4872 121.491C66.4711 121.706 66.6253 121.726 66.831 121.532L67.0863 121.917L67.3326 122.279C67.8217 122.588 68.2845 122.939 68.7166 123.328L69.212 123.393L69.3821 123.417C69.7211 123.875 70.1174 124.284 70.5609 124.635C71.0028 124.984 72.3132 125.595 72.291 125.669C72.2874 125.733 72.307 125.796 72.3458 125.846C72.3846 125.896 72.4399 125.929 72.5014 125.939C72.6556 125.962 73.1221 126.151 73.4443 126.202L73.4677 126.307C73.5727 126.782 73.9535 126.875 74.273 127.072L74.3123 127.096C74.4773 127.321 74.6972 127.497 74.9498 127.606C75.2953 127.793 76.4471 128.523 76.7826 128.716C77.3098 129.019 77.7771 129.421 78.1605 129.901L78.5398 129.763C78.6937 129.706 79.0132 129.903 79.2275 130.045C79.4508 130.219 79.6653 130.404 79.8705 130.6C79.9541 130.673 80.0592 130.714 80.1691 130.718C80.3417 130.697 80.5162 130.725 80.6738 130.799C80.8313 130.873 80.9661 130.99 81.0635 131.137L81.3359 131.47C82.0091 131.752 82.6599 132.087 83.2826 132.471C83.9683 132.887 86.444 134.21 87.1942 134.629L87.8684 135.033C88.3056 135.382 88.8247 135.606 89.3742 135.684C89.4798 135.7 89.5783 135.747 89.6582 135.82C89.6358 136.209 89.977 136.169 90.1585 136.245C90.6904 136.416 91.1927 136.672 91.6471 137.003L91.9971 137.293C92.5077 137.383 93.002 137.551 93.4642 137.79C93.994 138.05 94.5431 138.267 95.1064 138.438C95.4171 138.528 96.3463 139.011 96.5905 139.119C96.8346 139.228 98.4581 139.884 99.674 140.392L100.782 140.85C100.907 140.923 101.043 140.973 101.186 140.997L101.588 140.982C101.94 141.143 102.304 141.275 102.677 141.377C102.868 141.415 103.496 141.799 103.687 141.85L103.861 141.854C104.011 141.836 104.163 141.853 104.306 141.904C104.448 141.955 104.577 142.039 104.684 142.149C104.83 142.258 105 142.331 105.179 142.36C105.422 142.432 105.696 142.42 105.908 142.549L106.774 143.07C107.639 143.222 108.492 143.431 109.33 143.696C109.943 143.897 110.566 144.063 111.197 144.195C111.538 144.324 111.873 144.471 112.199 144.635C112.649 144.802 113.109 144.938 113.576 145.042L113.93 145.104C114.04 145.124 114.141 145.18 114.217 145.265L114.431 145.551C114.747 145.626 115.742 145.944 116.642 146.258L117.407 146.742C117.437 146.759 117.48 146.749 117.514 146.762L118.059 146.95C118.593 147.177 119.141 147.366 119.7 147.517C120.006 147.581 121.156 148.289 121.668 148.534C122.18 148.78 123.92 149.259 124.323 149.437C124.727 149.615 126.324 150.4 126.979 150.758L127.577 150.898L128.084 151.016C128.464 151.292 128.873 151.522 129.304 151.701C129.544 151.774 130.648 152.375 131.226 152.679L131.752 152.893C132.22 153.083 132.453 153.602 133.018 153.658C133.38 153.694 133.775 154.128 134.161 154.365C134.932 154.828 135.71 155.276 136.486 155.729L136.548 155.764C136.625 155.79 137.246 156.233 137.931 156.748L138.561 157.204C138.965 157.496 139.387 157.757 139.795 158.039C140.203 158.321 140.479 158.84 141.033 158.875C141.088 158.878 141.15 159.007 141.214 159.025C141.292 159.058 141.361 159.109 141.415 159.174C141.469 159.24 141.508 159.318 141.527 159.402C141.554 159.528 141.622 159.641 141.72 159.721C141.817 159.802 141.939 159.846 142.065 159.845L142.327 159.852C142.705 160.283 143.022 160.768 143.267 161.292L143.692 161.417L144.075 161.531C144.326 161.957 144.646 162.335 145.022 162.648L145.16 163.061C145.23 163.272 145.552 163.447 145.773 163.629L145.987 163.802C145.973 163.929 145.989 164.057 146.033 164.175C146.077 164.293 146.148 164.399 146.239 164.483L146.409 164.61C146.542 164.709 146.791 164.691 146.794 164.927C146.792 165.356 147.119 165.577 147.367 165.889C147.707 166.373 148.015 166.879 148.289 167.406L148.364 167.533C148.438 167.665 148.43 167.804 148.344 167.843C148.259 167.882 148.044 168.004 148.055 168.031C148.131 168.094 148.225 168.132 148.323 168.139C148.466 168.179 148.599 168.251 148.713 168.35C148.826 168.448 148.918 168.571 148.981 168.709L149.001 168.955L149.011 169.085C148.958 169.222 148.973 169.35 149.053 169.366C149.133 169.383 149.214 169.602 149.175 169.76C149.136 169.918 149.106 170.408 149.179 170.363C149.253 170.319 149.476 170.276 149.48 170.391C149.541 170.661 149.638 170.921 149.766 171.164L149.885 171.353C150.183 171.829 150.184 171.983 149.927 172.655L149.881 172.773C149.891 172.962 150.061 173.051 150.257 172.969L150.331 173.237L150.358 173.336C150.665 173.581 150.999 173.788 151.352 173.954L151.789 174.127L152.666 174.474C153.624 174.879 154.722 175.354 155.104 175.531C155.487 175.708 156.852 176.361 157.286 176.596C157.719 176.832 159.155 177.617 159.557 177.776C159.958 177.935 161.041 178.726 161.248 178.781L161.367 178.898L161.795 179.318C162.339 179.636 163.211 180.161 163.725 180.486C164.239 180.81 165.799 181.884 166.118 182.02L166.302 182.222L166.513 182.456C166.794 182.644 167.156 182.863 167.319 182.944C167.482 183.024 168.747 183.896 169.844 184.6L170.636 185.52L170.863 185.784C171.224 186.049 171.604 186.286 172 186.492L172.266 186.706C172.579 186.96 172.873 187.241 173.177 187.511L173.451 187.753C173.869 188.138 174.255 188.558 174.606 189.008L175.105 189.274L175.494 189.481C175.834 189.969 176.222 190.536 176.353 190.743C176.48 190.894 176.619 191.034 176.768 191.162C176.973 191.338 177.153 191.542 177.305 191.769L177.727 191.705L177.773 191.697C177.969 191.858 178.152 192.033 178.323 192.221C178.501 192.474 178.644 192.751 178.751 193.045C178.836 193.267 178.936 193.483 179.048 193.692L179.172 193.896L179.358 194.207C179.547 194.048 179.76 194.008 179.835 194.123C179.909 194.238 180.172 194.835 180.326 195.196L180.265 195.441L180.131 195.97C180.579 196 181.002 196.191 181.326 196.509L181.23 196.935C181.229 196.99 181.241 197.045 181.263 197.094C181.286 197.144 181.319 197.188 181.361 197.222C181.922 197.507 181.701 198.023 181.916 198.408C181.961 198.487 181.91 198.704 181.856 198.712C181.679 198.737 181.587 198.759 181.77 198.947C181.867 199.021 181.955 199.104 182.036 199.195C182.114 199.319 182.116 199.489 182.203 199.6C182.401 199.839 182.292 199.992 182.115 199.982L181.694 199.954C181.831 200.21 181.947 200.478 182.039 200.756C182.095 200.947 182.489 201.495 182.419 201.772L182.356 202.023C182.277 202.337 181.962 202.334 181.714 202.407L181.676 202.417C181.529 202.036 181.508 201.615 181.616 201.218L181.681 200.783L181.686 200.749C181.544 200.629 181.409 200.629 181.379 200.739C181.348 200.85 181.193 201.039 181.128 200.788C181.063 200.537 181.184 199.79 181.066 199.877C180.947 199.963 180.561 200.171 180.64 200.024C180.689 199.912 180.702 199.788 180.677 199.668C180.653 199.549 180.592 199.441 180.503 199.36C180.103 199.028 179.752 198.637 179.461 198.199L179.158 197.966C179.064 197.881 178.984 197.781 178.924 197.668C178.89 197.618 178.86 197.564 178.822 197.518C178.69 197.336 178.439 197.126 178.445 196.977C178.453 196.772 178.345 196.759 178.233 196.742C178.19 196.741 178.149 196.73 178.112 196.708C178.076 196.686 178.045 196.655 178.024 196.617L177.935 196.42C177.593 196.217 177.299 195.939 177.072 195.606L176.857 195.408C176.562 195.136 176.091 194.988 175.905 194.687L175.65 194.27C175.085 193.991 174.549 193.654 174.05 193.263L173.642 192.824C173.282 192.349 172.796 191.992 172.242 191.796C171.977 191.693 171.758 191.496 171.623 191.24C171.588 191.149 171.533 191.068 171.462 191.003C171.391 190.938 171.306 190.891 171.215 190.866C170.943 190.756 170.428 190.768 170.44 190.219C170.397 190.158 170.333 190.117 170.262 190.104C170.078 190.168 170.028 190.05 169.986 189.941C169.955 189.866 169.926 189.793 169.856 189.773C169.643 189.741 169.436 189.678 169.241 189.586L169.087 189.481C168.816 189.129 168.49 188.826 168.123 188.583C167.557 188.218 166.961 187.903 166.342 187.643L166.288 187.431C166.245 187.303 166.167 187.191 166.062 187.109C165.957 187.027 165.831 186.979 165.7 186.972C165.386 186.87 165.087 186.726 164.81 186.545C164.497 186.425 164.208 186.249 163.956 186.025C163.727 185.744 163.335 185.821 163.187 185.48C163.173 185.444 163.181 185.379 163.167 185.372C162.824 185.225 162.397 185.339 162.155 184.879L161.208 184.202L160.829 184.088C160.232 183.866 159.656 183.587 159.109 183.255L158.639 182.934C158.442 182.805 158.286 182.567 158.099 182.843C158.08 182.87 157.841 182.794 157.825 182.747L157.605 182.087C157.136 182.083 156.67 182.027 156.213 181.921C155.827 181.795 155.43 181.707 155.027 181.657C154.812 181.662 154.161 180.936 153.774 180.701C152.971 180.499 152.154 180.362 151.33 180.291L150.895 179.863L150.656 179.629C150.182 179.51 149.801 179.899 149.81 180.495L149.683 180.937C149.563 181.438 149.405 181.928 149.208 182.402C148.843 183.462 148.255 184.428 147.488 185.23L146.954 185.677C146.417 186.219 145.74 186.857 145.45 187.095L145.273 187.436C145.042 187.747 144.736 187.991 144.387 188.145L144.066 188.339C143.674 188.495 143.218 188.67 143.05 188.726C142.756 188.837 142.473 188.974 142.203 189.137C142.065 189.238 141.473 189.109 141.377 189.14L141.295 189.18L140.726 189.466C139.841 189.569 138.952 189.614 138.064 189.6L137.638 189.798C137.323 189.949 136.995 189.625 136.699 189.862C136.541 189.988 136.089 189.768 135.774 189.717C135.627 189.691 135.477 189.687 135.329 189.705C135.168 189.732 135.025 189.843 134.868 189.829C134.827 189.825 134.819 189.767 134.807 189.702C134.789 189.603 134.759 189.484 134.576 189.522C134.393 189.56 134.172 189.145 134.025 189.476L132.668 189.321L132.11 189.221C131.511 189.013 130.547 188.71 129.964 188.547L129.442 188.47C129.15 188.419 128.873 188.305 128.627 188.136C128.204 187.928 127.767 187.752 127.32 187.608C126.95 187.451 126.526 187.362 126.347 186.889C126.323 186.827 126.23 186.781 126.171 186.726L125.792 186.389C125.233 186.048 124.73 185.619 124.301 185.118L123.953 184.758L123.603 184.395C123.286 184.016 122.95 183.654 122.597 183.311C122.343 182.846 122.117 182.365 121.921 181.87C121.54 180.92 121.261 179.929 121.088 178.914L121.33 178.53L121.53 178.216C121.487 177.781 121.505 177.341 121.582 176.91L121.656 176.593C121.737 176.245 121.842 175.903 121.938 175.563C121.966 175.469 122.062 175.381 122.04 175.297C121.951 175.097 121.873 174.893 121.806 174.684C121.78 174.496 122.176 174.569 122.07 174.23C122.017 174.068 122.172 173.865 122.253 173.697C122.425 173.267 122.647 172.86 122.914 172.485L123.248 172.099C123.699 171.748 124.68 171.096 125.428 170.651L126.105 170.246L126.602 169.948C127.296 169.907 127.988 169.823 128.674 169.696L129.13 169.829L129.524 169.944C130.026 169.831 130.541 169.795 131.052 169.837C131.671 169.888 132.291 169.905 132.912 169.891C133.188 169.873 133.924 169.969 133.946 169.788C133.969 169.608 134.687 170.06 135.058 170.154C135.428 170.248 137.506 170.037 139.03 170.235L140.416 170.508C142.131 170.846 143.845 171.279 145.558 171.684L145.865 171.758C146.2 171.897 146.244 171.482 145.961 170.828C145.279 169.553 144.522 168.322 143.695 167.143L143.162 166.457L142.853 166.058C142.457 165.772 142.098 165.434 141.786 165.053C141.645 164.834 140.913 164.32 140.769 164.144L140.681 163.962C140.631 163.861 140.538 163.856 140.446 163.853C140.326 163.848 140.209 163.846 140.19 163.649C140.181 163.621 140.167 163.595 140.149 163.573C140.13 163.55 140.108 163.532 140.082 163.519C139.949 163.464 138.909 162.783 138.791 162.691C138.699 162.618 138.556 162.606 138.479 162.527C138.069 162.111 137.268 162.178 137.154 161.383L137.148 161.338C136.998 161.278 136.458 161.004 135.955 160.72C135.451 160.436 134.037 159.827 133.903 160.157L133.78 159.532L133.705 159.156C133.407 159.038 132.839 158.78 132.44 158.589C132.041 158.399 130.63 157.783 130.234 157.526L129.877 157.468C129.781 157.448 129.691 157.402 129.619 157.335C129.546 157.267 129.494 157.18 129.465 157.083C129.44 157.017 129.43 156.973 129.42 156.979L128.691 157.423C128.001 156.871 127.391 156.38 127.336 156.33C127.225 156.204 127.123 156.07 127.03 155.928C126.956 155.819 126.292 155.942 126.051 155.703C125.416 155.325 124.74 155.025 124.036 154.811L123.572 154.598C123.209 154.505 122.87 154.332 122.579 154.091C122.46 153.962 122.166 154.013 121.965 153.929L121.853 153.882C121.754 153.736 121.449 153.729 121.179 153.855L121.081 153.347C121.071 153.298 120.624 153.299 120.407 153.193L120.231 153.107C119.998 152.897 119.736 152.724 119.453 152.593L119.217 152.677C119.159 152.697 119.097 152.704 119.036 152.697C118.974 152.69 118.915 152.67 118.863 152.637C118.557 152.331 118.064 151.915 117.778 151.973L117.178 152.094C116.727 151.876 116.264 151.684 115.792 151.516L115.681 151.43C115.444 151.242 115.235 150.948 114.954 151.242C114.932 151.258 114.754 151.156 114.675 151.08C114.36 150.777 114.077 150.632 113.72 150.881C113.593 150.967 113.56 150.848 113.545 150.75C113.536 150.698 113.53 150.649 113.522 150.655L113.147 150.632C112.736 150.51 111.905 150.242 111.292 150.042L110.798 149.754L110.355 149.498C109.86 149.369 109.059 149.135 108.578 148.972L108.127 148.896C108.05 148.864 107.987 148.802 107.952 148.725C107.855 148.583 107.759 148.44 107.568 148.691C107.514 148.761 107.118 148.546 106.88 148.462L106.602 148.365C106.205 148.162 105.791 147.996 105.365 147.869C104.959 147.755 103.452 147.23 102.852 147.093C102.017 146.746 101.201 146.351 100.409 145.909C99.9995 145.806 99.5955 145.679 99.1994 145.53C98.9904 145.41 98.1859 145.218 97.9911 145.111C97.7331 144.881 97.5025 144.619 97.3044 144.332C97.2297 144.24 97.0984 144.18 97.2874 144.527L96.9812 144.734C96.7878 144.864 96.6714 144.828 96.5448 144.637C96.4624 144.516 96.3971 144.251 96.3714 144.252L95.3753 144.301C94.9853 143.833 94.5673 143.39 94.1238 142.975C94.1814 143.078 94.1117 143.245 93.858 143.151C93.3385 142.937 92.8342 142.686 92.3491 142.4L92.0669 142.375L91.7521 142.347C91.2567 142.022 90.7115 141.783 90.1389 141.642L89.6527 141.206L89.3102 140.902C89.1413 140.903 88.9745 140.865 88.8231 140.789C88.6717 140.713 88.5396 140.602 88.4369 140.464C88.3396 140.244 87.8533 139.964 87.7221 140.251L87.2722 139.942C87.0729 139.809 86.8521 139.769 86.7887 139.493L86.7793 139.451C86.681 139.411 86.0201 139.221 85.3091 139.027L84.9268 138.625C84.8415 138.529 84.7662 138.424 84.7021 138.311C84.6251 138.161 84.5173 138.03 84.3862 137.927C84.154 137.775 83.8333 137.796 83.5533 137.725C83.2725 137.664 82.9967 137.581 82.7285 137.476L82.5407 137.396C82.3632 137.166 82.2305 136.903 82.1499 136.621L81.9057 136.876C81.8745 136.909 81.5936 136.721 81.4459 136.608L80.9843 136.262C80.6046 135.997 80.2616 135.681 79.9644 135.321C79.9599 135.193 79.9384 135.067 79.9004 134.945C79.8651 134.948 79.8312 134.961 79.8021 134.982C79.7731 135.003 79.75 135.032 79.7354 135.065C79.6984 135.15 79.526 135.399 79.4626 135.367C79.3164 135.134 79.2082 134.877 79.1427 134.607L78.7781 134.923C78.6544 134.881 78.5464 134.802 78.4684 134.695C78.4531 134.381 78.2315 134.508 78.1076 134.427C78.0556 134.374 78.0223 134.304 78.0128 134.229C77.9987 134.16 77.9708 134.095 77.9309 134.038L77.8408 133.932C77.6884 133.868 77.3756 133.762 77.1454 133.694C76.6162 133.503 76.118 133.232 75.6667 132.89L75.2673 132.813C75.0783 132.789 74.9006 132.709 74.7561 132.582C74.6116 132.455 74.5066 132.287 74.4538 132.099C74.4401 132.074 74.4215 132.052 74.3992 132.034C74.377 132.016 74.3515 132.004 74.3242 131.997L73.6012 132.089C73.2138 131.477 72.984 131.033 73.0874 131.1C73.1907 131.167 73.4933 131.265 73.3478 131.054L73.348 130.942C73.3445 130.6 73.0916 130.772 72.9851 130.683C72.7943 130.528 72.6647 130.65 72.5394 130.63L72.1868 130.572C71.6657 130.309 71.454 130.083 71.716 130.07L71.7947 130.012L71.8597 129.965C71.8553 129.882 71.8302 129.801 71.787 129.731C71.7438 129.661 71.6838 129.604 71.6128 129.565L71.5366 129.596L70.9591 129.822C70.5001 129.469 69.9689 129.071 69.7705 128.942L69.7122 128.836L69.5014 128.453C69.1736 128.274 68.8355 128.116 68.4889 127.979C68.3012 127.917 67.9817 127.369 67.8588 127.301C67.6856 127.152 67.504 127.014 67.3152 126.887C67.2214 126.876 66.884 126.746 66.836 126.621C66.7207 126.37 66.5571 126.147 66.3553 125.964C65.8905 125.739 65.4107 125.548 64.9195 125.392L64.6986 125.119L64.225 124.536C63.5637 124.233 62.9632 123.806 62.4534 123.278L62.1433 122.944L61.9672 122.756C61.6559 122.594 61.3741 122.378 61.1336 122.118C60.6879 121.762 60.2009 121.464 59.6835 121.23L59.5987 120.915L59.5091 120.58C59.3099 120.443 59.0938 120.334 58.8666 120.255L58.8577 120.229C58.6789 119.831 58.3916 119.496 58.0306 119.265C57.7684 119.082 57.5374 118.855 57.3469 118.594L57.2077 118.377C57.1164 118.1 56.9496 117.868 56.8389 117.862C56.4837 117.718 56.1853 117.456 55.9892 117.119C55.7975 116.725 54.5846 115.178 53.957 114.293L53.4227 113.482C53.2054 113.151 53.0498 112.774 52.8185 112.424L52.5651 112.033C52.47 111.508 52.3574 110.877 52.317 110.63C52.2576 110.291 52.2185 109.948 52.2001 109.603C52.2193 109.529 52.4499 109.309 52.4979 109.213C52.5458 109.116 52.2034 108.62 52.1051 108.486L52.1292 108.458L52.3608 108.177C52.2717 108.001 52.147 107.846 51.995 107.724C51.8431 107.602 51.6674 107.514 51.4795 107.468C51.2267 107.417 50.8525 106.867 50.6234 106.516C50.5655 106.423 50.5022 106.333 50.4338 106.247C50.1123 106.023 49.8333 105.74 49.6107 105.411L49.1972 105.389L49.1379 105.386C49.0665 105.326 48.8324 105.167 48.6153 105.031C48.3243 104.773 48.0599 104.485 47.8265 104.171C47.7735 104.091 47.7252 104.007 47.6819 103.921C47.6385 103.831 47.5872 103.744 47.5288 103.663C47.4622 103.594 46.7205 102.974 46.0688 102.432L45.5241 101.888C45.3966 101.702 45.2291 101.55 45.0344 101.442C44.7466 101.315 44.5129 101.085 44.3752 100.795L44.2742 100.486C44.0529 100.311 43.7066 100.022 43.5086 99.8421L43.3322 99.6742C43.1632 99.5109 42.8625 99.3048 42.8668 99.1731L42.8812 98.8124C42.6348 98.8064 42.3892 98.782 42.1465 98.739C42.0387 98.7169 41.9039 98.4258 41.772 98.1404C41.7033 97.9783 41.6233 97.8216 41.5326 97.6715L41.3129 97.4658L41.1106 97.2775C40.8755 97.1364 40.6523 96.9754 40.4434 96.7959C40.3253 96.6817 39.865 96.1545 39.6405 95.8985L39.4377 95.6647L39.1871 95.3752C38.9227 95.0476 38.5993 94.6523 38.4682 94.4949C38.1665 94.2206 37.844 93.9714 37.5038 93.7499C37.2907 93.6132 36.7379 92.9855 36.4082 92.729C36.0786 92.4724 35.1764 91.0532 34.5775 90.5196L34.2152 89.9121C34.1731 89.8494 34.1192 89.7961 34.0566 89.7554C33.9941 89.7147 33.9241 89.6875 33.8509 89.6752C33.7615 89.6668 33.6764 89.632 33.606 89.575C33.5357 89.5179 33.483 89.4409 33.4542 89.3534L33.3749 89.0912C33.2051 88.8506 32.9825 88.6553 32.7249 88.521L32.6029 88.4443C32.3553 88.289 31.9806 88.157 32.2687 87.7927C32.2833 87.782 32.0753 87.5084 32.0059 87.5075L31.5944 87.5143C31.3676 87.2047 31.1644 86.8773 30.9869 86.5349C30.8735 86.39 30.73 86.2733 30.5668 86.1933C30.4211 86.1228 30.29 86.0243 30.1804 85.9031C30.1186 85.7546 29.819 85.2613 29.6975 85.248C29.576 85.2347 29.2976 85.1142 29.4435 85.0158C29.5894 84.9173 28.9315 84.5844 28.7599 84.4174L28.5993 84.2581L28.1151 83.7808C27.6191 83.346 27.2487 82.7788 27.0436 82.1404L26.6065 82.1736C26.5567 82.1841 26.5056 82.1835 26.4563 82.1719C26.407 82.1603 26.3607 82.138 26.3206 82.1064C26.2805 82.0749 26.2475 82.0348 26.2238 81.9888C26.2 81.9429 26.1861 81.8921 26.183 81.84C26.1653 81.7392 26.1175 81.6469 26.0461 81.5761C25.9128 81.4993 25.7968 81.3945 25.7055 81.2683C25.6142 81.1422 25.5496 80.9975 25.5159 80.8436L25.5137 80.7938C25.3717 80.7189 25.2135 80.6822 25.0536 80.6871C24.8939 80.6916 24.472 80.001 24.2543 79.7468L24.0398 79.5216C23.8288 79.2983 23.4973 79.156 23.5074 78.7906C23.4743 78.7187 23.4153 78.663 23.3429 78.6353L22.742 78.8271C22.526 78.415 22.3429 77.9853 22.1947 77.542C21.8296 77.1462 21.435 76.7807 21.0142 76.4487L20.9593 76.1866C20.9518 76.1048 20.9164 76.0287 20.8594 75.9717C20.8024 75.9147 20.7275 75.8805 20.648 75.8753C20.6039 75.8742 20.5608 75.8633 20.5213 75.8434C20.4818 75.8236 20.4469 75.7952 20.4191 75.7602C20.2837 75.5388 20.1068 75.1408 19.9961 75.1386C19.9051 75.1358 19.8172 75.1041 19.7447 75.048C19.6721 74.9918 19.6182 74.9138 19.5903 74.8246C19.5539 74.7312 19.494 74.6497 19.4166 74.5886C19.2104 74.422 19.0503 74.2023 18.9523 73.9513L18.8408 73.744C18.4061 73.412 17.9964 73.0467 17.6154 72.651C17.2411 72.2614 16.1742 71.0976 16.0783 70.9359C16.0096 70.836 15.9335 70.7419 15.8507 70.6542C15.7529 70.5541 15.667 70.4425 15.5947 70.3216C15.3945 70.1189 15.1688 69.9447 14.9235 69.8037C14.6503 69.4725 14.4512 69.083 14.3401 68.6624L13.8167 68.7675L13.7942 68.7716C13.5357 68.3245 13.2438 67.899 12.9209 67.4992C12.5654 67.0522 11.4376 65.7718 11.3176 65.565C11.1425 65.3471 10.944 65.1506 10.7258 64.9792C10.6174 64.8713 10.1865 64.3843 9.98269 64.1121L9.91221 63.8479C9.81006 63.4748 9.81086 63.1553 9.26538 63.0885L9.06228 63.0642C9.00939 63.0009 8.95562 62.9282 8.90014 62.8467C8.70233 62.562 8.54761 62.2477 8.44139 61.9145V61.9145ZM63.8784 104.396C63.4822 104.409 63.0857 104.399 62.691 104.366C62.5375 104.32 62.1157 104.121 62.0815 104.223C62.0473 104.325 61.3388 104.275 60.9548 104.245L60.6475 104.387C60.4756 104.467 60.2402 104.607 60.1007 104.535C60.008 104.466 59.8935 104.435 59.7793 104.448C59.665 104.461 59.5591 104.517 59.4819 104.606C59.2759 104.772 58.8603 104.706 58.6745 104.884L58.3607 105.183C57.9922 105.004 57.7971 105.014 57.9188 105.197C58.0405 105.379 58.332 105.937 58.4707 105.969C58.6093 106.001 59.0307 106.277 59.1875 106.304C59.3443 106.331 59.7036 106.889 59.9719 107.065C60.2401 107.241 61.1627 107.692 61.4166 107.914C61.6704 108.136 62.5799 108.254 62.6942 108.438L62.8457 108.543C62.9524 108.616 63.1391 108.529 63.2755 108.581C63.3131 108.596 63.3429 108.664 63.3723 108.735C63.4016 108.805 63.427 108.868 63.4611 108.878L63.7761 108.967C64.1006 109.016 64.4107 109.136 64.6861 109.318C65.2514 109.578 65.8367 109.791 66.4363 109.953L66.8989 110.19L67.3449 110.419C67.6614 110.345 67.9731 110.436 68.0356 110.621L68.1347 110.671L68.3582 110.788C68.6276 110.851 69.1947 110.947 69.6182 111.004C70.0418 111.06 71.3778 111.475 71.6496 111.523L71.8895 111.607L72.1227 111.69C72.2842 111.661 72.4478 111.646 72.6116 111.645L72.635 111.628C72.6914 111.597 72.7792 111.558 72.7743 111.512L72.7726 111.423C72.6737 111.253 72.5585 111.095 72.4287 110.949C72.1355 110.625 71.8038 110.341 71.4415 110.102L71.2141 109.983L70.9338 109.836C70.5662 109.567 70.2272 109.259 69.9222 108.917L69.5762 108.721L69.3113 108.571C69.31 108.291 69.2285 108.018 69.0773 107.786L68.9814 107.78L68.4994 107.748C68.1883 107.514 67.7215 107.149 67.4642 106.936L67.2115 106.785C66.9246 106.614 66.5223 106.531 66.7971 106.096C66.8069 106.08 66.5882 105.827 66.5152 105.832L66.1911 105.858C65.8603 105.934 65.57 105.908 65.5401 105.808C65.5102 105.708 65.5231 105.484 65.6222 105.524C65.7212 105.564 65.7834 105.543 65.3913 105.357C64.9991 105.17 63.9988 105.037 64.0817 104.889C64.1116 104.827 64.126 104.759 64.1233 104.69C64.1207 104.621 64.1011 104.555 64.0665 104.496C64.0453 104.464 64.0168 104.439 63.9835 104.422C63.9502 104.404 63.9132 104.396 63.8758 104.397L63.8784 104.396ZM145.151 178.195L144.599 177.965C144.365 177.867 144.139 177.74 143.9 177.654L143.57 177.537C143.639 177.762 143.585 177.872 143.45 177.783C143.089 177.575 142.711 177.401 142.32 177.263L142.103 177.444C141.791 177.702 141.442 177.381 141.117 177.394C140.796 177.373 140.478 177.318 140.168 177.229C139.853 177.189 139.541 177.126 139.235 177.04C138.718 176.813 138.134 176.806 137.608 177.019C137.408 177.116 137.286 177.229 137.071 176.974C136.901 176.772 136.771 176.808 136.624 176.958C136.584 176.998 136.349 176.809 136.25 176.834C136.151 176.859 136.086 177.125 136.06 177.113L135.543 176.87C135.043 176.986 134.475 177.104 134.279 177.131C134.084 177.158 132.934 176.972 132.167 176.866L131.475 176.986L130.953 177.076C130.33 176.948 129.786 176.964 129.742 177.113L129.683 177.111L129.558 177.11C129.239 177.038 128.908 177.052 128.595 177.152C128.215 177.251 127.035 177.641 126.791 177.74C126.336 177.962 125.906 178.234 125.507 178.55C125.274 178.777 125.657 179.861 125.71 179.992C125.833 180.226 126.025 180.413 126.258 180.526C126.466 180.58 127.22 181.056 127.679 181.281C128.137 181.506 129.671 182.216 130.09 182.332C131.08 182.544 132.079 182.705 133.085 182.813L133.8 183.209C133.841 183.232 133.914 183.145 133.978 183.148C134.273 183.164 134.694 183.326 134.843 183.189C135.186 182.882 135.441 183.436 135.725 183.343C135.771 183.328 135.884 183.433 135.918 183.414C136.416 183.124 137.054 183.392 137.592 183.293C138.145 183.192 138.66 182.995 139.234 182.93C139.722 182.875 140.202 182.757 140.663 182.58C141.081 182.42 141.549 182.383 141.968 182.2L142.346 182.037C142.725 181.982 143.096 181.877 143.45 181.726L143.439 181.651C143.373 181.199 143.512 181.14 143.919 181.394C143.977 181.43 144.191 181.237 144.272 181.11L144.338 181.009C144.493 180.769 144.669 180.545 144.864 180.339L145.262 180.273L145.559 180.228C145.795 179.959 146.073 179.733 146.38 179.558C146.554 179.492 146.506 178.852 146.606 178.722C146.617 178.707 146.616 178.69 146.603 178.672C146.158 178.408 145.662 178.245 145.148 178.196L145.151 178.195Z" fill="#787878"/>
</svg>
