<svg width="47" height="14" viewBox="0 0 47 14" fill="none" xmlns="http://www.w3.org/2000/svg">
<path d="M5.74554 2.72585H3.34319V3.68405H4.62307C4.45197 4.14262 4.03447 4.42323 3.39795 4.42323C2.46712 4.42323 1.8922 3.82778 1.8922 3.01331C1.8922 2.17146 2.4945 1.57601 3.30213 1.57601C3.84283 1.57601 4.27402 1.8224 4.4725 2.13724L5.40332 1.60339C4.99951 0.960024 4.22611 0.508301 3.30897 0.508301C1.89905 0.508301 0.797119 1.61707 0.797119 3.00646C0.797119 4.38217 1.87852 5.49094 3.38426 5.49094C4.72574 5.49094 5.74554 4.60118 5.74554 3.13651V2.72585Z" fill="white"/>
<path d="M7.11578 4.3411V3.49241H8.82686V2.45208H7.11578V1.65814H8.99796V0.604121H6.0207V5.39512H9.03218V4.3411H7.11578Z" fill="white"/>
<path d="M12.5246 0.604121H8.96561V1.65814H10.1976V5.39512H11.2927V1.65814H12.5246V0.604121Z" fill="white"/>
<path d="M14.0306 0.604121V5.39512H15.1257V0.604121H14.0306Z" fill="white"/>
<path d="M18.8235 0.604121H15.2645V1.65814H16.4965V5.39512H17.5915V1.65814H18.8235V0.604121Z" fill="white"/>
<path d="M22.6155 5.49094C23.9912 5.49094 25.1068 4.40954 25.1068 2.99962C25.1068 1.5897 23.9912 0.508301 22.6155 0.508301C21.2398 0.508301 20.1242 1.5897 20.1242 2.99962C20.1242 4.40954 21.2398 5.49094 22.6155 5.49094ZM22.6155 4.42323C21.8353 4.42323 21.2193 3.85516 21.2193 2.99962C21.2193 2.14408 21.8353 1.57601 22.6155 1.57601C23.3958 1.57601 24.0118 2.14408 24.0118 2.99962C24.0118 3.85516 23.3958 4.42323 22.6155 4.42323Z" fill="white"/>
<path d="M28.0505 0.604121V3.20495L26.2025 0.604121H25.3812V5.39512H26.4763V2.79429L28.3242 5.39512H29.1456V0.604121H28.0505Z" fill="white"/>
<path d="M5.74554 10.8637V11.0485C5.74554 11.6462 5.53336 12.1504 5.10902 12.5611C4.68467 12.9672 4.12572 13.1702 3.43217 13.1702C2.70211 13.1702 2.09981 12.933 1.62528 12.4584C1.15074 11.9793 0.913472 11.393 0.913472 10.6994C0.913472 10.0059 1.14846 9.42184 1.61843 8.9473C2.08841 8.4682 2.68386 8.22865 3.40479 8.22865C3.84283 8.22865 4.24436 8.3336 4.60939 8.54349C4.97898 8.75338 5.26416 9.034 5.46492 9.38534L5.14324 9.57698C4.98354 9.27583 4.74627 9.034 4.43143 8.85148C4.12116 8.66897 3.77895 8.57771 3.40479 8.57771C2.78424 8.57771 2.2732 8.78304 1.87167 9.1937C1.4747 9.59979 1.27622 10.1017 1.27622 10.6994C1.27622 11.2972 1.47698 11.8014 1.87852 12.212C2.28005 12.6181 2.79793 12.8212 3.43217 12.8212C3.9934 12.8212 4.4474 12.6683 4.79418 12.3626C5.14096 12.0569 5.33488 11.6713 5.37595 11.2059H3.34319V10.8637H5.74554Z" fill="white"/>
<path d="M10.6038 12.4516C10.1247 12.9307 9.54066 13.1702 8.85167 13.1702C8.16267 13.1702 7.57863 12.9307 7.09953 12.4516C6.62043 11.9679 6.38088 11.3839 6.38088 10.6994C6.38088 10.015 6.62043 9.43325 7.09953 8.95415C7.57863 8.47048 8.16267 8.22865 8.85167 8.22865C9.54066 8.22865 10.1247 8.47048 10.6038 8.95415C11.0829 9.43325 11.3225 10.015 11.3225 10.6994C11.3225 11.3839 11.0829 11.9679 10.6038 12.4516ZM7.35277 12.2052C7.76342 12.6158 8.26306 12.8212 8.85167 12.8212C9.44027 12.8212 9.93763 12.6158 10.3437 12.2052C10.7544 11.79 10.9597 11.288 10.9597 10.6994C10.9597 10.1108 10.7544 9.6112 10.3437 9.20054C9.93763 8.78532 9.44027 8.57771 8.85167 8.57771C8.26306 8.57771 7.76342 8.78532 7.35277 9.20054C6.94667 9.6112 6.74363 10.1108 6.74363 10.6994C6.74363 11.288 6.94667 11.79 7.35277 12.2052Z" fill="white"/>
<path d="M16.1915 12.4516C15.7124 12.9307 15.1284 13.1702 14.4394 13.1702C13.7504 13.1702 13.1663 12.9307 12.6872 12.4516C12.2081 11.9679 11.9686 11.3839 11.9686 10.6994C11.9686 10.015 12.2081 9.43325 12.6872 8.95415C13.1663 8.47048 13.7504 8.22865 14.4394 8.22865C15.1284 8.22865 15.7124 8.47048 16.1915 8.95415C16.6706 9.43325 16.9102 10.015 16.9102 10.6994C16.9102 11.3839 16.6706 11.9679 16.1915 12.4516ZM12.9405 12.2052C13.3511 12.6158 13.8508 12.8212 14.4394 12.8212C15.028 12.8212 15.5253 12.6158 15.9314 12.2052C16.3421 11.79 16.5474 11.288 16.5474 10.6994C16.5474 10.1108 16.3421 9.6112 15.9314 9.20054C15.5253 8.78532 15.028 8.57771 14.4394 8.57771C13.8508 8.57771 13.3511 8.78532 12.9405 9.20054C12.5344 9.6112 12.3313 10.1108 12.3313 10.6994C12.3313 11.288 12.5344 11.79 12.9405 12.2052Z" fill="white"/>
<path d="M22.3884 10.8637V11.0485C22.3884 11.6462 22.1762 12.1504 21.7519 12.5611C21.3275 12.9672 20.7686 13.1702 20.075 13.1702C19.345 13.1702 18.7427 12.933 18.2681 12.4584C17.7936 11.9793 17.5563 11.393 17.5563 10.6994C17.5563 10.0059 17.7913 9.42184 18.2613 8.9473C18.7312 8.4682 19.3267 8.22865 20.0476 8.22865C20.4857 8.22865 20.8872 8.3336 21.2522 8.54349C21.6218 8.75338 21.907 9.034 22.1078 9.38534L21.7861 9.57698C21.6264 9.27583 21.3891 9.034 21.0743 8.85148C20.764 8.66897 20.4218 8.57771 20.0476 8.57771C19.4271 8.57771 18.916 8.78304 18.5145 9.1937C18.1175 9.59979 17.9191 10.1017 17.9191 10.6994C17.9191 11.2972 18.1198 11.8014 18.5214 12.212C18.9229 12.6181 19.4408 12.8212 20.075 12.8212C20.6362 12.8212 21.0902 12.6683 21.437 12.3626C21.7838 12.0569 21.9777 11.6713 22.0188 11.2059H19.986V10.8637H22.3884Z" fill="white"/>
<path d="M23.6602 12.7527H25.9189V13.0949H23.2975V8.30394H23.6602V12.7527Z" fill="white"/>
<path d="M27.0356 12.7527H29.4311V13.0949H26.6728V8.30394H29.3969V8.64615H27.0356V10.5078H29.2258V10.85H27.0356V12.7527Z" fill="white"/>
<path d="M33.7759 8.30394C34.2048 8.30394 34.5607 8.44539 34.8436 8.72829C35.1265 9.01118 35.2679 9.3648 35.2679 9.78915C35.2679 10.2135 35.1265 10.5671 34.8436 10.85C34.5607 11.1283 34.2048 11.2675 33.7759 11.2675H32.5097V13.0949H32.1469V8.30394H33.7759ZM33.7759 10.9253C34.1044 10.9253 34.3736 10.8181 34.5835 10.6036C34.798 10.3892 34.9052 10.1177 34.9052 9.78915C34.9052 9.45606 34.798 9.18229 34.5835 8.96784C34.3736 8.75338 34.1044 8.64615 33.7759 8.64615H32.5097V10.9253H33.7759Z" fill="white"/>
<path d="M36.5267 12.7527H38.7853V13.0949H36.1639V8.30394H36.5267V12.7527Z" fill="white"/>
<path d="M42.8966 13.0949L42.4312 11.8767H40.0289L39.5635 13.0949H39.1802L41.0418 8.30394H41.4251L43.2799 13.0949H42.8966ZM40.1658 11.5344H42.3012L41.2335 8.74882L40.1658 11.5344Z" fill="white"/>
<path d="M46.6888 8.30394L44.9435 11.1238V13.0949H44.5808V11.1238L42.8355 8.30394H43.2461L44.7656 10.7747L46.2781 8.30394H46.6888Z" fill="white"/>
</svg>
