<svg width="56" height="18" viewBox="0 0 56 18" fill="none" xmlns="http://www.w3.org/2000/svg">
<path d="M3.76887 4.42175H4.8167L3.39165 0.23041H2.17017L0.745117 4.42175H1.79295L2.00252 3.76311H3.5593L3.76887 4.42175ZM2.28992 2.86496L2.78091 1.32615L3.27189 2.86496H2.28992Z" fill="white"/>
<path d="M6.93726 1.42794L6.31454 3.32601L5.69183 1.42794H4.69788L5.8056 4.42175H6.82349L7.9312 1.42794H6.93726Z" fill="white"/>
<path d="M10.3173 1.42794V1.70935C10.1197 1.48182 9.82633 1.34411 9.42516 1.34411C8.64078 1.34411 7.99412 2.03269 7.99412 2.92484C7.99412 3.817 8.64078 4.50557 9.42516 4.50557C9.82633 4.50557 10.1197 4.36786 10.3173 4.14033V4.42175H11.2155V1.42794H10.3173ZM9.60479 3.65533C9.19164 3.65533 8.89226 3.37391 8.89226 2.92484C8.89226 2.47577 9.19164 2.19435 9.60479 2.19435C10.0179 2.19435 10.3173 2.47577 10.3173 2.92484C10.3173 3.37391 10.0179 3.65533 9.60479 3.65533Z" fill="white"/>
<path d="M11.8744 4.42175H12.7725V0.0507812H11.8744V4.42175Z" fill="white"/>
<path d="M13.8788 1.16448C14.1722 1.16448 14.4177 0.918987 14.4177 0.625593C14.4177 0.3322 14.1722 0.0867069 13.8788 0.0867069C13.5854 0.0867069 13.3399 0.3322 13.3399 0.625593C13.3399 0.918987 13.5854 1.16448 13.8788 1.16448ZM13.4298 4.42175H14.3279V1.42794H13.4298V4.42175Z" fill="white"/>
<path d="M16.7754 1.34411C16.3743 1.34411 16.0809 1.48182 15.8833 1.70935V0.23041H14.9851V4.42175H15.8833V4.14033C16.0809 4.36786 16.3743 4.50557 16.7754 4.50557C17.5598 4.50557 18.2065 3.817 18.2065 2.92484C18.2065 2.03269 17.5598 1.34411 16.7754 1.34411ZM16.5958 3.65533C16.1827 3.65533 15.8833 3.37391 15.8833 2.92484C15.8833 2.47577 16.1827 2.19435 16.5958 2.19435C17.009 2.19435 17.3083 2.47577 17.3083 2.92484C17.3083 3.37391 17.009 3.65533 16.5958 3.65533Z" fill="white"/>
<path d="M18.7157 4.42175H19.6139V0.0507812H18.7157V4.42175Z" fill="white"/>
<path d="M21.0734 3.2841H23.199C23.223 3.17033 23.235 3.05058 23.235 2.92484C23.235 2.02071 22.5883 1.34411 21.7141 1.34411C20.7681 1.34411 20.1214 2.03269 20.1214 2.92484C20.1214 3.817 20.7561 4.50557 21.78 4.50557C22.3488 4.50557 22.7919 4.29601 23.0853 3.88885L22.3668 3.4757C22.247 3.60743 22.0374 3.70323 21.7919 3.70323C21.4626 3.70323 21.1872 3.59546 21.0734 3.2841ZM21.0555 2.61348C21.1393 2.30812 21.3668 2.14046 21.7081 2.14046C21.9776 2.14046 22.247 2.2662 22.3428 2.61348H21.0555Z" fill="white"/>
<path d="M26.6783 4.50557C27.5585 4.50557 28.265 3.817 28.265 2.92484C28.265 2.03269 27.5585 1.34411 26.6783 1.34411C25.7981 1.34411 25.0916 2.03269 25.0916 2.92484C25.0916 3.817 25.7981 4.50557 26.6783 4.50557ZM26.6783 3.63138C26.2891 3.63138 25.9897 3.34996 25.9897 2.92484C25.9897 2.49972 26.2891 2.2183 26.6783 2.2183C27.0675 2.2183 27.3669 2.49972 27.3669 2.92484C27.3669 3.34996 27.0675 3.63138 26.6783 3.63138Z" fill="white"/>
<path d="M30.5274 1.34411C30.1322 1.34411 29.8329 1.48781 29.6712 1.70935V1.42794H28.773V4.42175H29.6712V2.78713C29.6712 2.362 29.8987 2.1704 30.228 2.1704C30.5154 2.1704 30.749 2.34404 30.749 2.71527V4.42175H31.6471V2.58355C31.6471 1.77522 31.1322 1.34411 30.5274 1.34411Z" fill="white"/>
<path d="M35.5152 2.29015V1.42794H34.8984V0.589667L34.0003 0.859111V1.42794H33.5213V2.29015H34.0003V3.34996C34.0003 4.18823 34.3416 4.5415 35.5152 4.42175V3.60743C35.12 3.63138 34.8984 3.60743 34.8984 3.34996V2.29015H35.5152Z" fill="white"/>
<path d="M37.7781 1.34411C37.3829 1.34411 37.0835 1.48781 36.9218 1.70935V0.23041H36.0237V4.42175H36.9218V2.78713C36.9218 2.362 37.1494 2.1704 37.4787 2.1704C37.7661 2.1704 37.9996 2.34404 37.9996 2.71527V4.42175H38.8977V2.58355C38.8977 1.77522 38.3828 1.34411 37.7781 1.34411Z" fill="white"/>
<path d="M40.3169 3.2841H42.4425C42.4664 3.17033 42.4784 3.05058 42.4784 2.92484C42.4784 2.02071 41.8317 1.34411 40.9575 1.34411C40.0115 1.34411 39.3648 2.03269 39.3648 2.92484C39.3648 3.817 39.9995 4.50557 41.0234 4.50557C41.5922 4.50557 42.0353 4.29601 42.3287 3.88885L41.6102 3.4757C41.4904 3.60743 41.2809 3.70323 41.0354 3.70323C40.7061 3.70323 40.4306 3.59546 40.3169 3.2841ZM40.2989 2.61348C40.3827 2.30812 40.6103 2.14046 40.9515 2.14046C41.221 2.14046 41.4904 2.2662 41.5862 2.61348H40.2989Z" fill="white"/>
<path d="M5.7847 15.3991H7.53109L5.156 8.4135H3.12021L0.745117 15.3991H2.49151L2.84079 14.3013H5.43542L5.7847 15.3991ZM3.3198 12.8044L4.1381 10.2397L4.95641 12.8044H3.3198Z" fill="white"/>
<path d="M11.0607 10.2697C10.3921 10.2697 9.90306 10.4992 9.57374 10.8784V10.4094H8.07684V17.3949H9.57374V14.93C9.90306 15.3092 10.3921 15.5388 11.0607 15.5388C12.368 15.5388 13.4457 14.3911 13.4457 12.9042C13.4457 11.4173 12.368 10.2697 11.0607 10.2697ZM10.7613 14.1217C10.0727 14.1217 9.57374 13.6527 9.57374 12.9042C9.57374 12.1558 10.0727 11.6867 10.7613 11.6867C11.4499 11.6867 11.9488 12.1558 11.9488 12.9042C11.9488 13.6527 11.4499 14.1217 10.7613 14.1217Z" fill="white"/>
<path d="M17.2783 10.2697C16.6097 10.2697 16.1207 10.4992 15.7914 10.8784V10.4094H14.2945V17.3949H15.7914V14.93C16.1207 15.3092 16.6097 15.5388 17.2783 15.5388C18.5856 15.5388 19.6634 14.3911 19.6634 12.9042C19.6634 11.4173 18.5856 10.2697 17.2783 10.2697ZM16.9789 14.1217C16.2903 14.1217 15.7914 13.6527 15.7914 12.9042C15.7914 12.1558 16.2903 11.6867 16.9789 11.6867C17.6675 11.6867 18.1665 12.1558 18.1665 12.9042C18.1665 13.6527 17.6675 14.1217 16.9789 14.1217Z" fill="white"/>
<path d="M20.5121 15.3991H22.009V8.11412H20.5121V15.3991Z" fill="white"/>
<path d="M24.4416 13.503H27.9843C28.0242 13.3134 28.0442 13.1138 28.0442 12.9042C28.0442 11.3973 26.9664 10.2697 25.5094 10.2697C23.9327 10.2697 22.8549 11.4173 22.8549 12.9042C22.8549 14.3911 23.9127 15.5388 25.6192 15.5388C26.5672 15.5388 27.3057 15.1895 27.7947 14.5109L26.5972 13.8223C26.3976 14.0419 26.0483 14.2015 25.6391 14.2015C25.0903 14.2015 24.6312 14.0219 24.4416 13.503ZM24.4117 12.3853C24.5514 11.8763 24.9306 11.5969 25.4994 11.5969C25.9485 11.5969 26.3976 11.8065 26.5572 12.3853H24.4117Z" fill="white"/>
<path d="M33.8829 15.5388C35.3997 15.5388 36.4775 14.7404 36.4775 13.3932C36.4775 11.9163 35.29 11.547 34.2322 11.2277C33.1444 10.8984 32.9748 10.6788 32.9748 10.3595C32.9748 10.0801 33.2242 9.83057 33.7232 9.83057C34.3619 9.83057 34.6912 10.1399 34.9307 10.6389L36.2779 9.85053C35.769 8.82265 34.8708 8.27379 33.7232 8.27379C32.5157 8.27379 31.3781 9.05218 31.3781 10.3994C31.3781 11.7366 32.3959 12.2356 33.4338 12.525C34.4816 12.8144 34.8808 12.9841 34.8808 13.4132C34.8808 13.6826 34.6912 13.982 33.9328 13.982C33.1444 13.982 32.7153 13.5928 32.4658 13.014L31.0887 13.8123C31.4778 14.8402 32.4159 15.5388 33.8829 15.5388Z" fill="white"/>
<path d="M40.0033 11.8464V10.4094H38.9755V9.01226L37.4786 9.46133V10.4094H36.6802V11.8464H37.4786V13.6128C37.4786 15.0099 38.0474 15.5986 40.0033 15.3991V14.0419C39.3447 14.0818 38.9755 14.0419 38.9755 13.6128V11.8464H40.0033Z" fill="white"/>
<path d="M43.1485 15.5388C44.6155 15.5388 45.793 14.3911 45.793 12.9042C45.793 11.4173 44.6155 10.2697 43.1485 10.2697C41.6815 10.2697 40.504 11.4173 40.504 12.9042C40.504 14.3911 41.6815 15.5388 43.1485 15.5388ZM43.1485 14.0818C42.4998 14.0818 42.0009 13.6128 42.0009 12.9042C42.0009 12.1957 42.4998 11.7266 43.1485 11.7266C43.7972 11.7266 44.2961 12.1957 44.2961 12.9042C44.2961 13.6128 43.7972 14.0818 43.1485 14.0818Z" fill="white"/>
<path d="M48.1366 11.2975V10.4094H46.6397V15.3991H48.1366V13.1437C48.1366 12.1558 49.0148 11.9063 49.6335 12.0061V10.3096C49.0048 10.3096 48.3362 10.6289 48.1366 11.2975Z" fill="white"/>
<path d="M51.5243 13.503H55.067C55.1069 13.3134 55.1269 13.1138 55.1269 12.9042C55.1269 11.3973 54.0491 10.2697 52.5921 10.2697C51.0154 10.2697 49.9376 11.4173 49.9376 12.9042C49.9376 14.3911 50.9954 15.5388 52.7019 15.5388C53.6499 15.5388 54.3884 15.1895 54.8774 14.5109L53.6798 13.8223C53.4803 14.0419 53.131 14.2015 52.7218 14.2015C52.173 14.2015 51.7139 14.0219 51.5243 13.503ZM51.4944 12.3853C51.6341 11.8763 52.0133 11.5969 52.5821 11.5969C53.0312 11.5969 53.4803 11.8065 53.6399 12.3853H51.4944Z" fill="white"/>
</svg>
